<?xml version="1.0" standalone="no"?>
<!DOCTYPE svg PUBLIC "-//W3C//DTD SVG 1.1//EN" "http://www.w3.org/Graphics/SVG/1.1/DTD/svg11.dtd" >
<svg xmlns="http://www.w3.org/2000/svg">
    <defs>
        <font id="ProximaNovaT-Thin">
            <font-face font-family="ProximaNovaT-Thin"
                       units-per-em="1000"
                       ascent="920"
                       descent="-298"
                       bbox="-171 -258 1059 906"
                    />
            <missing-glyph horiz-adv-x="0" />
            
            <glyph glyph-name="!" unicode="&#x21;" horiz-adv-x="137" d=" M114,161 L94,161 L83,667 L125,667 M118,-9 Q90,-9 80.5,0.5 Q71,10 71,24 Q71,37 81,46.5 Q91,56 104,56 Q117,56 127,46.5 Q137,37 137,24 Q137,10 118,-9"/> 
            <glyph glyph-name="&quot;" unicode="&#x22;" horiz-adv-x="228" d=" M99,443 L77,443 Q62,640 62,651 Q62,662 69.5,669.5 Q77,677 88,677 Q99,677 106.5,669.5 Q114,662 114,651 M213,443 L191,443 Q176,640 176,651 Q176,662 183.5,669.5 Q191,677 202,677 Q213,677 220.5,669.5 Q228,662 228,651"/> 
            <glyph glyph-name="#" unicode="&#x23;" horiz-adv-x="541" d=" M267,0 L234,0 L299,191 L174,191 L110,0 L77,0 L141,191 L26,191 L35,220 L151,220 L227,447 L110,447 L118,476 L237,476 L300,667 L333,667 L270,476 L394,476 L457,667 L490,667 L426,476 L541,476 L534,447 L417,447 L340,220 L460,220 L451,191 L331,191 M307,220 L384,447 L260,447 L184,220"/> 
            <glyph glyph-name="$" unicode="&#x24;" horiz-adv-x="514" d=" M275,-100 L275,-12 Q204,-10 146.5,19 Q89,48 53,94 L79,117 Q155,23 275,18 L275,336 Q236,347 214,354 Q192,361 161.5,375.5 Q131,390 114.5,406.5 Q98,423 86,449 Q74,475 74,508 Q74,584 132.5,630 Q191,676 275,678 L275,768 L307,768 L307,677 Q429,670 499,584 L474,561 Q413,639 307,647 L307,362 Q345,351 369,342.5 Q393,334 423.5,317.5 Q454,301 471.5,282.5 Q489,264 501.5,234.5 Q514,205 514,169 Q514,139 504,111 Q494,83 472,55.5 Q450,28 407.5,10 Q365,-8 307,-11 L307,-100 M479,169 Q479,198 469,221 Q459,244 444.5,259.5 Q430,275 405.5,288.5 Q381,302 360,309.5 Q339,317 307,327 L307,18 Q355,21 390.5,36 Q426,51 444.5,74 Q463,97 471,120.5 Q479,144 479,169 M109,508 Q109,478 121.5,455.5 Q134,433 160.5,417 Q187,401 211,392 Q235,383 275,371 L275,648 Q204,646 156.5,606.5 Q109,567 109,508"/> 
            <glyph glyph-name="%" unicode="&#x25;" horiz-adv-x="673" d=" M256,351 Q122,351 79,397 Q36,443 36,513 Q36,584 79,630.5 Q122,677 189,677 Q256,677 299,630.5 Q342,584 342,513 Q342,443 256,351 M163,0 L127,0 L553,667 L590,667 M587,-12 Q453,-12 410,34 Q367,80 367,150 Q367,221 410,267.5 Q453,314 520,314 Q587,314 630,267.5 Q673,221 673,150 Q673,80 587,-12 M189,378 Q242,378 275.5,417.5 Q309,457 309,513 Q309,570 275.5,610 Q242,650 189,650 Q137,650 103,610 Q69,570 69,513 Q69,458 103,418 Q137,378 189,378 M467,15 Q573,15 606.5,54.5 Q640,94 640,150 Q640,207 606.5,247 Q573,287 520,287 Q467,287 433.5,247 Q400,207 400,150 Q400,94 467,15"/> 
            <glyph glyph-name="&amp;" unicode="&#x26;" horiz-adv-x="591" d=" M591,0 L538,0 Q504,29 442,89 Q362,-12 243,-12 Q159,-12 103,35 Q47,82 47,167 Q47,240 87,286 Q127,332 198,372 Q140,462 140,527 Q140,592 183.5,634.5 Q227,677 289,677 Q349,677 384,645 Q419,613 419,555 Q419,521 406.5,493.5 Q394,466 366.5,443 Q339,420 317,405.5 Q295,391 255,369 Q248,365 244,363 Q281,310 338,248 Q390,190 438,142 Q482,209 517,313 L549,301 Q499,170 463,117 Q526,56 591,0 M243,18 Q341,18 417,114 Q338,195 312,226 Q255,291 215,346 Q152,310 117,269 Q82,228 82,167 Q82,96 129,57 Q176,18 243,18 M175,527 Q175,469 227,389 Q260,407 275,415.5 Q290,424 315.5,441.5 Q341,459 352.5,473.5 Q364,488 374,509.5 Q384,531 384,555 Q384,599 357.5,623 Q331,647 289,647 Q242,647 208.5,613 Q175,579 175,527"/> 
            <glyph glyph-name="'" unicode="&#x27;" horiz-adv-x="114" d=" M99,443 L77,443 Q62,640 62,651 Q62,662 69.5,669.5 Q77,677 88,677 Q99,677 106.5,669.5 Q114,662 114,651"/> 
            <glyph glyph-name="(" unicode="&#x28;" horiz-adv-x="189" d=" M189,-187 L173,-199 Q47,7 47,243 Q47,479 173,685 L189,674 Q135,560 108.5,464 Q82,368 82,243 Q82,119 108.5,22 Q135,-75 189,-187"/> 
            <glyph glyph-name=")" unicode="&#x29;" horiz-adv-x="159" d=" M33,-199 L17,-187 Q71,-75 97.5,22 Q124,119 124,243 Q124,368 97.5,464 Q71,560 17,674 L33,685 Q159,479 159,243 Q159,7 33,-199"/> 
            <glyph glyph-name="*" unicode="&#x2A;" horiz-adv-x="289" d=" M180,409 L150,409 L156,528 L56,463 L41,489 L147,543 L41,597 L56,623 L156,558 L150,677 L180,677 L174,558 L274,623 L289,597 L183,543 L289,489 L274,463 L174,528"/> 
            <glyph glyph-name="+" unicode="&#x2B;" horiz-adv-x="465" d=" M465,322 L263,322 L263,100 L231,100 L231,322 L29,322 L29,352 L231,352 L231,568 L263,568 L263,352 L465,352"/> 
            <glyph glyph-name="," unicode="&#x2C;" horiz-adv-x="142" d=" M142,3 Q142,-33 124,-66.5 Q106,-100 80,-118 L58,-100 Q82,-82 96.5,-56.5 Q111,-31 111,-8 Q105,-9 103,-9 Q89,-9 80,0.5 Q71,10 71,24 Q71,37 80,46.5 Q89,56 103,56 Q119,56 130.5,42 Q142,28 142,3"/> 
            <glyph glyph-name="-" unicode="&#x2D;" horiz-adv-x="270" d=" M270,227 L30,227 L30,257 L270,257"/> 
            <glyph glyph-name="." unicode="&#x2E;" horiz-adv-x="137" d=" M118,-9 Q90,-9 80.5,0.5 Q71,10 71,24 Q71,37 81,46.5 Q91,56 104,56 Q117,56 127,46.5 Q137,37 137,24 Q137,10 118,-9"/> 
            <glyph glyph-name="/" unicode="&#x2F;" horiz-adv-x="268" d=" M31,-20 L0,-20 L237,687 L268,687"/> 
            <glyph glyph-name="0" unicode="&#x30;" horiz-adv-x="540" d=" M366,-12 Q240,-12 192,19.5 Q144,51 117.5,103 Q91,155 78,213.5 Q65,272 65,333 Q65,395 78,453 Q91,511 117.5,562.5 Q144,614 192,645.5 Q240,677 303,677 Q366,677 413.5,645.5 Q461,614 487.5,562.5 Q514,511 527,453 Q540,395 540,333 Q540,272 527,213.5 Q514,155 487.5,103 Q461,51 366,-12 M248,18 Q358,18 399,47 Q440,76 462,123.5 Q484,171 494.5,223.5 Q505,276 505,333 Q505,390 494.5,442.5 Q484,495 462,542.5 Q440,590 399,618.5 Q358,647 303,647 Q248,647 207,618.5 Q166,590 143.5,542.5 Q121,495 110.5,442.5 Q100,390 100,333 Q100,276 110.5,223.5 Q121,171 143.5,123 Q166,75 248,18"/> 
            <glyph glyph-name="1" unicode="&#x31;" horiz-adv-x="189" d=" M189,0 L157,0 L157,621 L52,506 L30,529 L159,667 L189,667"/> 
            <glyph glyph-name="2" unicode="&#x32;" horiz-adv-x="480" d=" M480,0 L59,0 L59,28 Q139,94 183,132.5 Q227,171 285.5,227 Q344,283 373.5,322 Q403,361 424.5,407.5 Q446,454 446,496 Q446,571 396.5,609 Q347,647 280,647 Q218,647 170,622.5 Q122,598 96,557 L70,576 Q101,623 156.5,650 Q212,677 281,677 Q356,677 417,631.5 Q478,586 478,496 Q478,463 466.5,428.5 Q455,394 440,365 Q425,336 393,298 Q361,260 336.5,234.5 Q312,209 265,166.5 Q218,124 190,100.5 Q162,77 106,30 L480,30"/> 
            <glyph glyph-name="3" unicode="&#x33;" horiz-adv-x="465" d=" M252,-12 Q177,-12 120.5,20 Q64,52 36,100 L64,116 Q125,18 252,18 Q335,18 384,60.5 Q433,103 433,177 Q433,254 378,292 Q323,330 240,330 Q194,330 184,329 L184,361 Q194,360 240,360 Q317,360 370,396 Q423,432 423,503 Q423,569 373.5,608 Q324,647 252,647 Q194,647 151.5,625 Q109,603 70,557 L45,577 Q124,677 252,677 Q335,677 395,630.5 Q455,584 455,503 Q455,431 410,392.5 Q365,354 313,345 Q344,342 377,325.5 Q410,309 437.5,269.5 Q465,230 465,177 Q465,94 408.5,41 Q352,-12 252,-12"/> 
            <glyph glyph-name="4" unicode="&#x34;" horiz-adv-x="486" d=" M385,0 L353,0 L353,195 L38,195 L38,228 L343,667 L385,667 L385,225 L486,225 L486,195 L385,195 M353,225 L353,631 L73,225"/> 
            <glyph glyph-name="5" unicode="&#x35;" horiz-adv-x="509" d=" M297,-12 Q152,-12 81,100 L107,119 Q174,18 297,18 Q374,18 425.5,69.5 Q477,121 477,198 Q477,281 426,330.5 Q375,380 297,380 Q202,380 129,311 L102,327 L102,667 L466,667 L466,637 L134,637 L134,346 Q200,410 297,410 Q386,410 447.5,354 Q509,298 509,198 Q509,104 446.5,46 Q384,-12 297,-12"/> 
            <glyph glyph-name="6" unicode="&#x36;" horiz-adv-x="512" d=" M297,-12 Q235,-12 188.5,16.5 Q142,45 116,95 Q90,145 77.5,204.5 Q65,264 65,333 Q65,398 77.5,456 Q90,514 116.5,565 Q143,616 191,646.5 Q239,677 303,677 Q415,677 478,587 L454,566 Q398,647 303,647 Q247,647 205,618.5 Q163,590 140.5,541.5 Q118,493 107.5,438.5 Q97,384 97,323 Q97,299 98,287 Q123,329 179.5,367.5 Q236,406 301,406 Q395,406 453.5,352.5 Q512,299 512,196 Q512,113 454,50.5 Q396,-12 297,-12 M297,18 Q384,18 432,73.5 Q480,129 480,196 Q480,284 431,330 Q382,376 300,376 Q241,376 187,339.5 Q133,303 102,246 Q106,206 118,168 Q130,130 152,95 Q174,60 211.5,39 Q249,18 297,18"/> 
            <glyph glyph-name="7" unicode="&#x37;" horiz-adv-x="453" d=" M158,0 L122,0 L415,637 L36,637 L36,667 L453,667 L453,645"/> 
            <glyph glyph-name="8" unicode="&#x38;" horiz-adv-x="495" d=" M281,-12 Q186,-12 126,37.5 Q66,87 66,165 Q66,233 116.5,279.5 Q167,326 239,344 Q171,360 124,401.5 Q77,443 77,506 Q77,588 138,632.5 Q199,677 281,677 Q362,677 423.5,632 Q485,587 485,506 Q485,443 438,401.5 Q391,360 323,344 Q395,326 445,279.5 Q495,233 495,165 Q495,88 434.5,38 Q374,-12 281,-12 M281,359 Q304,363 326.5,371 Q349,379 381,395 Q413,411 433,440 Q453,469 453,506 Q453,571 403.5,609 Q354,647 281,647 Q208,647 158.5,609 Q109,571 109,506 Q109,469 129,440 Q149,411 181.5,394.5 Q214,378 236,371 Q258,364 281,359 M281,18 Q355,18 409,58.5 Q463,99 463,165 Q463,205 441,238 Q419,271 386.5,289.5 Q354,308 327,318 Q300,328 281,330 Q262,328 234.5,318 Q207,308 174.5,289.5 Q142,271 120,238 Q98,205 98,165 Q98,99 152,58.5 Q206,18 281,18"/> 
            <glyph glyph-name="9" unicode="&#x39;" horiz-adv-x="512" d=" M274,-11 Q162,-11 99,79 L123,100 Q179,19 274,19 Q330,19 372,47.5 Q414,76 436.5,124.5 Q459,173 469.5,227.5 Q480,282 480,343 Q480,367 479,379 Q454,337 397.5,298.5 Q341,260 276,260 Q182,260 123.5,313.5 Q65,367 65,470 Q65,553 123,615.5 Q181,678 280,678 Q342,678 388.5,649.5 Q435,621 461,571 Q487,521 499.5,461.5 Q512,402 512,333 Q512,268 499.5,210 Q487,152 460.5,101 Q434,50 386,19.5 Q338,-11 274,-11 M277,290 Q336,290 390,326.5 Q444,363 475,420 Q471,460 459,498 Q447,536 425,571 Q403,606 365.5,627 Q328,648 280,648 Q193,648 145,592.5 Q97,537 97,470 Q97,382 146,336 Q195,290 277,290"/> 
            <glyph glyph-name=":" unicode="&#x3A;" horiz-adv-x="137" d=" M117,425 Q91,425 81,434.5 Q71,444 71,457 Q71,470 80.5,480 Q90,490 104,490 Q118,490 127.5,480 Q137,470 137,457 Q137,444 117,425 M118,-9 Q90,-9 80.5,0.5 Q71,10 71,24 Q71,37 81,46.5 Q91,56 104,56 Q117,56 127,46.5 Q137,37 137,24 Q137,10 118,-9"/> 
            <glyph glyph-name=";" unicode="&#x3B;" horiz-adv-x="142" d=" M117,425 Q91,425 81,434.5 Q71,444 71,457 Q71,470 80.5,480 Q90,490 104,490 Q118,490 127.5,480 Q137,470 137,457 Q137,444 117,425 M142,3 Q142,-33 124,-66.5 Q106,-100 80,-118 L58,-100 Q82,-82 96.5,-56.5 Q111,-31 111,-8 Q105,-9 103,-9 Q89,-9 80,0.5 Q71,10 71,24 Q71,37 80,46.5 Q89,56 103,56 Q119,56 130.5,42 Q142,28 142,3"/> 
            <glyph glyph-name="&lt;" unicode="&#x3C;" horiz-adv-x="465" d=" M465,90 L29,324 L29,345 L465,580 L465,544 L70,334 L465,126"/> 
            <glyph glyph-name="=" unicode="&#x3D;" horiz-adv-x="465" d=" M465,418 L29,418 L29,448 L465,448 M465,220 L29,220 L29,250 L465,250"/> 
            <glyph glyph-name="&gt;" unicode="&#x3E;" horiz-adv-x="465" d=" M465,324 L29,90 L29,126 L424,334 L29,544 L29,580 L465,345"/> 
            <glyph glyph-name="?" unicode="&#x3F;" horiz-adv-x="426" d=" M225,168 Q181,201 181,244 Q181,281 202.5,311 Q224,341 255,361.5 Q286,382 317,403.5 Q348,425 369.5,455.5 Q391,486 391,524 Q391,576 351,611.5 Q311,647 240,647 Q172,647 127.5,622 Q83,597 49,549 L26,570 Q101,677 240,677 Q325,677 375.5,632.5 Q426,588 426,524 Q426,488 410,457.5 Q394,427 370,407.5 Q346,388 318.5,368 Q291,348 267,331.5 Q243,315 227,292.5 Q211,270 211,244 Q211,214 244,191 M236,-9 Q208,-9 198.5,0.5 Q189,10 189,24 Q189,37 199,46.5 Q209,56 222,56 Q235,56 245,46.5 Q255,37 255,24 Q255,10 236,-9"/> 
            <glyph glyph-name="@" unicode="&#x40;" horiz-adv-x="747" d=" M352,-70 Q216,-70 125.5,20.5 Q35,111 35,244 Q35,350 90.5,441.5 Q146,533 237.5,585.5 Q329,638 432,638 Q570,638 658.5,544 Q747,450 747,311 Q747,206 703.5,145.5 Q660,85 596,85 Q558,85 534,111 Q510,137 510,173 L510,179 Q482,139 436,112 Q390,85 339,85 Q271,85 229,128 Q187,171 187,243 Q187,349 262,424.5 Q337,500 430,500 Q479,500 512.5,475.5 Q546,451 561,413 L575,482 L605,482 L543,188 Q542,182 542,170 Q542,144 557.5,128 Q573,112 596,112 Q613,112 632,121.5 Q651,131 671.5,152 Q692,173 705,214.5 Q718,256 718,312 Q718,439 637,523.5 Q556,608 429,608 Q283,608 174,497.5 Q65,387 65,245 Q65,123 147.5,41 Q230,-41 356,-41 Q453,-41 544,16 L560,-7 Q462,-70 352,-70 M283,112 Q395,112 441.5,144.5 Q488,177 519,223 L553,380 Q542,416 510.5,444.5 Q479,473 430,473 Q345,473 282.5,402.5 Q220,332 220,243 Q220,185 283,112"/> 
            <glyph glyph-name="A" unicode="&#x41;" horiz-adv-x="615" d=" M615,0 L578,0 L504,179 L132,179 L58,0 L21,0 L299,667 L337,667 M492,209 L318,630 L144,209"/> 
            <glyph glyph-name="B" unicode="&#x42;" horiz-adv-x="534" d=" M343,0 L88,0 L88,667 L339,667 Q421,667 471,622.5 Q521,578 521,497 Q521,437 486,395.5 Q451,354 403,344 Q456,336 495,287 Q534,238 534,180 Q534,95 482.5,47.5 Q431,0 343,0 M339,358 Q410,358 448,397 Q486,436 486,497 Q486,557 447.5,597 Q409,637 339,637 L120,637 L120,358 M343,30 Q416,30 457.5,70 Q499,110 499,179 Q499,240 458,284 Q417,328 343,328 L120,328 L120,30"/> 
            <glyph glyph-name="C" unicode="&#x43;" horiz-adv-x="631" d=" M398,-12 Q257,-12 161,85 Q65,182 65,333 Q65,484 161,581 Q257,678 398,678 Q539,678 630,573 L605,551 Q569,596 514.5,622 Q460,648 398,648 Q271,648 185.5,560 Q100,472 100,333 Q100,195 185.5,106.5 Q271,18 398,18 Q460,18 514.5,44 Q569,70 605,115 L631,94 Q537,-12 398,-12"/> 
            <glyph glyph-name="D" unicode="&#x44;" horiz-adv-x="618" d=" M286,0 L88,0 L88,667 L286,667 Q436,667 527,569.5 Q618,472 618,333 Q618,193 527.5,96.5 Q437,0 286,0 M286,30 Q424,30 503.5,116 Q583,202 583,333 Q583,463 503,550 Q423,637 286,637 L120,637 L120,30"/> 
            <glyph glyph-name="E" unicode="&#x45;" horiz-adv-x="496" d=" M496,0 L88,0 L88,667 L496,667 L496,637 L120,637 L120,358 L489,358 L489,328 L120,328 L120,30 L496,30"/> 
            <glyph glyph-name="F" unicode="&#x46;" horiz-adv-x="496" d=" M120,0 L88,0 L88,667 L496,667 L496,637 L120,637 L120,358 L489,358 L489,328 L120,328"/> 
            <glyph glyph-name="G" unicode="&#x47;" horiz-adv-x="642" d=" M398,-13 Q257,-13 161,84 Q65,181 65,333 Q65,484 161,581 Q257,678 398,678 Q542,678 642,575 L621,553 Q582,598 523,623 Q464,648 398,648 Q271,648 185.5,560 Q100,472 100,333 Q100,195 185.5,106 Q271,17 398,17 Q465,17 520,43.5 Q575,70 610,107 L610,290 L335,290 L335,320 L642,320 L642,94 Q598,45 534.5,16 Q471,-13 398,-13"/> 
            <glyph glyph-name="H" unicode="&#x48;" horiz-adv-x="607" d=" M607,0 L575,0 L575,328 L120,328 L120,0 L88,0 L88,667 L120,667 L120,358 L575,358 L575,667 L607,667"/> 
            <glyph glyph-name="I" unicode="&#x49;" horiz-adv-x="120" d=" M120,0 L88,0 L88,667 L120,667"/> 
            <glyph glyph-name="J" unicode="&#x4A;" horiz-adv-x="377" d=" M185,-12 Q78,-12 16,75 L43,99 Q100,18 185,18 Q258,18 301.5,64.5 Q345,111 345,185 L345,667 L377,667 L377,185 Q377,90 322,39 Q267,-12 185,-12"/> 
            <glyph glyph-name="K" unicode="&#x4B;" horiz-adv-x="540" d=" M540,0 L497,0 L200,328 L120,241 L120,0 L88,0 L88,667 L120,667 L120,282 L467,667 L510,667 L220,348"/> 
            <glyph glyph-name="L" unicode="&#x4C;" horiz-adv-x="455" d=" M455,0 L88,0 L88,667 L120,667 L120,30 L455,30"/> 
            <glyph glyph-name="M" unicode="&#x4D;" horiz-adv-x="682" d=" M682,0 L650,0 L650,629 L390,0 L380,0 L120,629 L120,0 L88,0 L88,667 L139,667 L385,70 L631,667 L682,667"/> 
            <glyph glyph-name="N" unicode="&#x4E;" horiz-adv-x="602" d=" M602,0 L570,0 L120,615 L120,0 L88,0 L88,667 L120,667 L570,58 L570,667 L602,667"/> 
            <glyph glyph-name="O" unicode="&#x4F;" horiz-adv-x="699" d=" M382,-12 Q239,-12 152,86.5 Q65,185 65,333 Q65,481 152,579.5 Q239,678 382,678 Q524,678 611.5,579.5 Q699,481 699,333 Q699,185 611.5,86.5 Q524,-12 382,-12 M382,18 Q509,18 586.5,106.5 Q664,195 664,333 Q664,472 586.5,560 Q509,648 382,648 Q254,648 177,560 Q100,472 100,333 Q100,195 177,106.5 Q254,18 382,18"/> 
            <glyph glyph-name="P" unicode="&#x50;" horiz-adv-x="514" d=" M120,0 L88,0 L88,667 L319,667 Q409,667 461.5,612.5 Q514,558 514,478 Q514,399 461,344 Q408,289 319,289 L120,289 M318,319 Q391,319 435,363.5 Q479,408 479,478 Q479,548 435,592.5 Q391,637 318,637 L120,637 L120,319"/> 
            <glyph glyph-name="Q" unicode="&#x51;" horiz-adv-x="699" d=" M382,-12 Q239,-12 152,86.5 Q65,185 65,333 Q65,481 152,579.5 Q239,678 382,678 Q524,678 611.5,579.5 Q699,481 699,333 Q699,176 601,76 L678,0 L656,-23 L578,55 Q495,-12 382,-12 M382,18 Q482,18 555,77 L445,188 L468,211 L579,99 Q664,187 664,333 Q664,472 586.5,560 Q509,648 382,648 Q254,648 177,560 Q100,472 100,333 Q100,195 177,106.5 Q254,18 382,18"/> 
            <glyph glyph-name="R" unicode="&#x52;" horiz-adv-x="524" d=" M524,0 L483,0 L280,288 L120,288 L120,0 L88,0 L88,667 L318,667 Q403,667 459,616.5 Q515,566 515,478 Q515,390 458.5,339 Q402,288 318,288 M318,318 Q391,318 435.5,363 Q480,408 480,478 Q480,548 435.5,592.5 Q391,637 318,637 L120,637 L120,318"/> 
            <glyph glyph-name="S" unicode="&#x53;" horiz-adv-x="514" d=" M286,-12 Q211,-12 151,17 Q91,46 53,94 L79,117 Q160,18 286,18 Q341,18 381,32.5 Q421,47 441,70.5 Q461,94 470,118.5 Q479,143 479,169 Q479,220 449,254.5 Q419,289 374,304 Q329,319 276.5,335.5 Q224,352 179,367.5 Q134,383 104,419 Q74,455 74,508 Q74,586 135,632 Q196,678 283,678 Q423,678 499,584 L474,561 Q407,648 283,648 Q209,648 159,608.5 Q109,569 109,508 Q109,470 131.5,443 Q154,416 189.5,401 Q225,386 268.5,373.5 Q312,361 355,346.5 Q398,332 433.5,312 Q469,292 491.5,255.5 Q514,219 514,169 Q514,138 503,108.5 Q492,79 468,50.5 Q444,22 397,5 Q350,-12 286,-12"/> 
            <glyph glyph-name="T" unicode="&#x54;" horiz-adv-x="521" d=" M295,0 L263,0 L263,637 L38,637 L38,667 L521,667 L521,637 L295,637"/> 
            <glyph glyph-name="U" unicode="&#x55;" horiz-adv-x="584" d=" M456,-12 Q216,-12 152,58 Q88,128 88,253 L88,667 L120,667 L120,253 Q120,141 176,79.5 Q232,18 336,18 Q440,18 496,79.5 Q552,141 552,253 L552,667 L584,667 L584,253 Q584,128 456,-12"/> 
            <glyph glyph-name="V" unicode="&#x56;" horiz-adv-x="615" d=" M337,0 L299,0 L21,667 L58,667 L318,37 L578,667 L615,667"/> 
            <glyph glyph-name="W" unicode="&#x57;" horiz-adv-x="827" d=" M637,0 L599,0 L426,607 L253,0 L215,0 L25,667 L60,667 L234,48 L409,667 L443,667 L618,48 L792,667 L827,667"/> 
            <glyph glyph-name="X" unicode="&#x58;" horiz-adv-x="613" d=" M613,0 L571,0 L319,318 L67,0 L25,0 L301,342 L40,667 L83,667 L319,368 L555,667 L598,667 L337,343"/> 
            <glyph glyph-name="Y" unicode="&#x59;" horiz-adv-x="589" d=" M321,0 L289,0 L289,289 L21,667 L62,667 L305,321 L548,667 L589,667 L321,289"/> 
            <glyph glyph-name="Z" unicode="&#x5A;" horiz-adv-x="525" d=" M525,0 L53,0 L53,30 L480,637 L53,637 L53,667 L518,667 L518,637 L90,30 L525,30"/> 
            <glyph glyph-name="[" unicode="&#x5B;" horiz-adv-x="195" d=" M195,-190 L34,-190 L34,678 L195,678 L195,648 L64,648 L64,-160 L195,-160"/> 
            <glyph glyph-name="\" unicode="&#x5C;" horiz-adv-x="268" d=" M237,-20 L0,687 L31,687 L268,-20"/> 
            <glyph glyph-name="]" unicode="&#x5D;" horiz-adv-x="178" d=" M178,-190 L17,-190 L17,-160 L148,-160 L148,648 L17,648 L17,678 L178,678"/> 
            <glyph glyph-name="^" unicode="&#x5E;" horiz-adv-x="405" d=" M405,333 L371,333 L212,640 L53,333 L19,333 L199,667 L225,667"/> 
            <glyph glyph-name="_" unicode="&#x5F;" horiz-adv-x="567" d=" M567,-70 L-3,-70 L-3,-40 L567,-40"/> 
            <glyph glyph-name="`" unicode="&#x60;" horiz-adv-x="205" d=" M205,556 L175,556 L0,700 L45,700"/> 
            <glyph glyph-name="a" unicode="&#x61;" horiz-adv-x="428" d=" M428,0 L398,0 L398,59 Q333,-12 231,-12 Q163,-12 112.5,31.5 Q62,75 62,149 Q62,223 112,266.5 Q162,310 231,310 Q333,310 398,239 L398,348 Q398,404 359,436 Q320,468 262,468 Q170,468 107,392 L84,412 Q121,455 162,475 Q203,495 262,495 Q336,495 382,457.5 Q428,420 428,349 M239,15 Q342,15 398,89 L398,209 Q342,283 239,283 Q174,283 134.5,244.5 Q95,206 95,149 Q95,92 134.5,53.5 Q174,15 239,15"/> 
            <glyph glyph-name="b" unicode="&#x62;" horiz-adv-x="506" d=" M116,111 Q140,71 188,43 Q236,15 290,15 Q376,15 424.5,78.5 Q473,142 473,241 Q473,340 424.5,404 Q376,468 290,468 Q236,468 188,439 Q140,410 116,370 M116,0 L86,0 L86,667 L116,667 L116,400 Q146,444 191.5,469.5 Q237,495 290,495 Q387,495 446.5,425 Q506,355 506,241 Q506,126 447,57 Q388,-12 290,-12 Q236,-12 189,14.5 Q142,41 116,81"/> 
            <glyph glyph-name="c" unicode="&#x63;" horiz-adv-x="453" d=" M288,-12 Q186,-12 123,61.5 Q60,135 60,242 Q60,349 123,422 Q186,495 288,495 Q344,495 382,475 Q420,455 453,414 L431,396 Q378,468 290,468 Q199,468 146,403.5 Q93,339 93,242 Q93,144 146.5,79.5 Q200,15 290,15 Q377,15 431,88 L453,69 Q420,28 382,8 Q344,-12 288,-12"/> 
            <glyph glyph-name="d" unicode="&#x64;" horiz-adv-x="480" d=" M480,0 L450,0 L450,81 Q424,41 377,14.5 Q330,-12 276,-12 Q178,-12 119,57 Q60,126 60,241 Q60,355 119.5,425 Q179,495 276,495 Q329,495 374.5,469.5 Q420,444 450,400 L450,667 L480,667 M276,15 Q330,15 378,43 Q426,71 450,111 L450,370 Q426,410 378,439 Q330,468 276,468 Q190,468 141.5,404 Q93,340 93,241 Q93,142 141.5,78.5 Q190,15 276,15"/> 
            <glyph glyph-name="e" unicode="&#x65;" horiz-adv-x="511" d=" M297,-12 Q192,-12 126,59.5 Q60,131 60,242 Q60,348 125,421.5 Q190,495 287,495 Q393,495 452,422 Q511,349 511,242 L511,232 L94,232 Q96,140 151.5,77.5 Q207,15 297,15 Q397,15 465,88 L483,69 Q405,-12 297,-12 M479,259 Q479,308 459,354.5 Q439,401 393.5,434.5 Q348,468 286,468 Q199,468 148,403.5 Q97,339 94,259"/> 
            <glyph glyph-name="f" unicode="&#x66;" horiz-adv-x="303" d=" M130,0 L100,0 L100,456 L20,456 L20,483 L100,483 L100,534 Q100,601 132,639 Q164,677 221,677 Q266,677 303,647 L285,623 Q256,650 221,650 Q130,650 130,534 L130,483 L228,483 L228,456 L130,456"/> 
            <glyph glyph-name="g" unicode="&#x67;" horiz-adv-x="480" d=" M276,-196 Q213,-196 172.5,-181 Q132,-166 91,-123 L113,-98 Q144,-137 181.5,-153 Q219,-169 276,-169 Q353,-169 401.5,-127.5 Q450,-86 450,-3 L450,81 Q423,41 376.5,13.5 Q330,-14 276,-14 Q178,-14 119,55.5 Q60,125 60,240 Q60,354 119.5,424.5 Q179,495 276,495 Q329,495 374.5,469.5 Q420,444 450,400 L450,483 L480,483 L480,-3 Q480,-102 424.5,-149 Q369,-196 276,-196 M276,13 Q330,13 378,42 Q426,71 450,111 L450,370 Q426,410 378,439 Q330,468 276,468 Q190,468 141.5,403.5 Q93,339 93,240 Q93,141 141.5,77 Q190,13 276,13"/> 
            <glyph glyph-name="h" unicode="&#x68;" horiz-adv-x="442" d=" M442,0 L412,0 L412,339 Q412,411 380,439.5 Q348,468 287,468 Q239,468 191,441.5 Q143,415 116,377 L116,0 L86,0 L86,667 L116,667 L116,407 Q145,442 194,468.5 Q243,495 291,495 Q366,495 404,458.5 Q442,422 442,339"/> 
            <glyph glyph-name="i" unicode="&#x69;" horiz-adv-x="130" d=" M101,566 Q90,566 81,574.5 Q72,583 72,595 Q72,607 81,615.5 Q90,624 101,624 Q113,624 121.5,615.5 Q130,607 130,595 Q130,583 121.5,574.5 Q113,566 101,566 M116,0 L86,0 L86,483 L116,483"/> 
            <glyph glyph-name="j" unicode="&#x6A;" horiz-adv-x="130" d=" M101,566 Q90,566 81,574.5 Q72,583 72,595 Q72,607 81,615.5 Q90,624 101,624 Q113,624 121.5,615.5 Q130,607 130,595 Q130,583 121.5,574.5 Q113,566 101,566 M-3,-196 Q-54,-196 -95,-158 L-76,-133 Q-44,-169 -3,-169 Q37,-169 61.5,-146 Q86,-123 86,-76 L86,483 L116,483 L116,-76 Q116,-196 -3,-196"/> 
            <glyph glyph-name="k" unicode="&#x6B;" horiz-adv-x="474" d=" M471,0 L428,0 L216,243 L116,151 L116,0 L86,0 L86,667 L116,667 L116,189 L431,483 L474,483 L239,265"/> 
            <glyph glyph-name="l" unicode="&#x6C;" horiz-adv-x="116" d=" M116,0 L86,0 L86,667 L116,667"/> 
            <glyph glyph-name="m" unicode="&#x6D;" horiz-adv-x="684" d=" M684,0 L654,0 L654,348 Q654,468 550,468 Q510,468 466.5,441.5 Q423,415 400,378 L400,0 L370,0 L370,348 Q370,468 266,468 Q226,468 183.5,441.5 Q141,415 116,377 L116,0 L86,0 L86,483 L116,483 L116,407 Q134,436 179,465.5 Q224,495 271,495 Q324,495 356,468 Q388,441 396,403 Q418,439 462.5,467 Q507,495 555,495 Q684,495 684,348"/> 
            <glyph glyph-name="n" unicode="&#x6E;" horiz-adv-x="442" d=" M442,0 L412,0 L412,337 Q412,409 380,438.5 Q348,468 287,468 Q239,468 191,441.5 Q143,415 116,377 L116,0 L86,0 L86,483 L116,483 L116,407 Q145,442 194,468.5 Q243,495 291,495 Q366,495 404,457.5 Q442,420 442,337"/> 
            <glyph glyph-name="o" unicode="&#x6F;" horiz-adv-x="510" d=" M285,-12 Q185,-12 122.5,60.5 Q60,133 60,242 Q60,350 122.5,422.5 Q185,495 285,495 Q386,495 448,423 Q510,351 510,242 Q510,133 448,60.5 Q386,-12 285,-12 M285,15 Q374,15 425.5,81.5 Q477,148 477,242 Q477,335 425.5,401.5 Q374,468 285,468 Q197,468 145,401.5 Q93,335 93,242 Q93,148 145,81.5 Q197,15 285,15"/> 
            <glyph glyph-name="p" unicode="&#x70;" horiz-adv-x="506" d=" M290,-12 Q237,-12 191.5,13.5 Q146,39 116,83 L116,-184 L86,-184 L86,483 L116,483 L116,402 Q142,442 189,468.5 Q236,495 290,495 Q388,495 447,426 Q506,357 506,242 Q506,128 446.5,58 Q387,-12 290,-12 M290,15 Q376,15 424.5,79 Q473,143 473,242 Q473,341 424.5,404.5 Q376,468 290,468 Q236,468 188,440 Q140,412 116,372 L116,113 Q140,73 188,44 Q236,15 290,15"/> 
            <glyph glyph-name="q" unicode="&#x71;" horiz-adv-x="476" d=" M272,15 Q326,15 374,44 Q422,73 446,113 L446,372 Q422,412 374,440 Q326,468 272,468 Q186,468 137.5,404.5 Q89,341 89,242 Q89,143 137.5,79 Q186,15 272,15 M272,-12 Q175,-12 115.5,58 Q56,128 56,242 Q56,357 115,426 Q174,495 272,495 Q326,495 373,468.5 Q420,442 446,402 L446,483 L476,483 L476,-184 L446,-184 L446,83 Q416,39 370.5,13.5 Q325,-12 272,-12"/> 
            <glyph glyph-name="r" unicode="&#x72;" horiz-adv-x="282" d=" M116,0 L86,0 L86,483 L116,483 L116,395 Q189,492 282,492 L282,456 Q273,457 258,457 Q221,457 177,427 Q133,397 116,362"/> 
            <glyph glyph-name="s" unicode="&#x73;" horiz-adv-x="394" d=" M221,-12 Q111,-12 44,65 L68,87 Q122,15 221,15 Q286,15 325,46.5 Q364,78 364,127 Q364,168 332,192 Q300,216 254.5,227.5 Q209,239 163.5,251.5 Q118,264 86,292 Q54,320 54,367 Q54,422 98,458.5 Q142,495 218,495 Q327,495 384,422 L362,402 Q316,468 218,468 Q156,468 120,439.5 Q84,411 84,367 Q84,330 116,308.5 Q148,287 193.5,276 Q239,265 284.5,252 Q330,239 362,208.5 Q394,178 394,127 Q394,67 349.5,27.5 Q305,-12 221,-12"/> 
            <glyph glyph-name="t" unicode="&#x74;" horiz-adv-x="249" d=" M174,-12 Q92,-12 92,85 L92,456 L12,456 L12,483 L92,483 L92,615 L122,615 L122,483 L220,483 L220,456 L122,456 L122,85 Q122,15 174,15 Q209,15 231,41 L249,18 Q217,-12 174,-12"/> 
            <glyph glyph-name="u" unicode="&#x75;" horiz-adv-x="442" d=" M442,0 L412,0 L412,74 Q379,37 332,12.5 Q285,-12 237,-12 Q162,-12 124,24.5 Q86,61 86,144 L86,483 L116,483 L116,144 Q116,72 148,43.5 Q180,15 241,15 Q289,15 337.5,40.5 Q386,66 412,103 L412,483 L442,483"/> 
            <glyph glyph-name="v" unicode="&#x76;" horiz-adv-x="460" d=" M253,0 L218,0 L11,483 L46,483 L236,35 L425,483 L460,483"/> 
            <glyph glyph-name="w" unicode="&#x77;" horiz-adv-x="682" d=" M522,0 L498,0 L352,438 L206,0 L182,0 L22,483 L55,483 L195,47 L340,483 L364,483 L509,47 L649,483 L682,483"/> 
            <glyph glyph-name="x" unicode="&#x78;" horiz-adv-x="450" d=" M450,0 L411,0 L236,228 L61,0 L22,0 L219,248 L33,483 L72,483 L236,269 L400,483 L439,483 L253,248"/> 
            <glyph glyph-name="y" unicode="&#x79;" horiz-adv-x="460" d=" M50,-189 L56,-161 Q74,-169 98,-169 Q123,-169 140.5,-154.5 Q158,-140 174,-103 L218,-3 L11,483 L46,483 L236,35 L425,483 L460,483 L204,-114 Q168,-196 98,-196 Q71,-196 50,-189"/> 
            <glyph glyph-name="z" unicode="&#x7A;" horiz-adv-x="406" d=" M406,0 L60,0 L60,27 L367,456 L60,456 L60,483 L402,483 L402,456 L93,27 L406,27"/> 
            <glyph glyph-name="{" unicode="&#x7B;" horiz-adv-x="220" d=" M220,-190 L158,-190 Q119,-190 89,-158 Q59,-126 59,-77 L59,157 Q59,187 45.5,208 Q32,229 7,229 L7,259 Q32,259 45.5,280 Q59,301 59,331 L59,565 Q59,614 89,646 Q119,678 158,678 L220,678 L220,648 L158,648 Q130,648 109.5,624 Q89,600 89,565 L89,331 Q89,263 44,244 Q89,225 89,157 L89,-77 Q89,-112 109.5,-136 Q130,-160 158,-160 L220,-160"/> 
            <glyph glyph-name="|" unicode="&#x7C;" horiz-adv-x="118" d=" M118,-20 L88,-20 L88,687 L118,687"/> 
            <glyph glyph-name="}" unicode="&#x7D;" horiz-adv-x="230" d=" M17,-190 L17,-160 L79,-160 Q107,-160 127.5,-136 Q148,-112 148,-77 L148,157 Q148,225 193,244 Q148,263 148,331 L148,565 Q148,600 127.5,624 Q107,648 79,648 L17,648 L17,678 L79,678 Q118,678 148,646 Q178,614 178,565 L178,331 Q178,301 191.5,280 Q205,259 230,259 L230,229 Q205,229 191.5,208 Q178,187 178,157 L178,-77 Q178,-126 148,-158 Q118,-190 79,-190"/> 
            <glyph glyph-name="~" unicode="&#x7E;" horiz-adv-x="468" d=" M438,667 L468,664 Q461,596 449,548.5 Q437,501 409,467 Q381,433 339,433 Q298,433 272.5,464.5 Q247,496 237,534 Q227,572 207,603.5 Q187,635 157,635 Q78,635 58,431 L28,436 Q38,541 67.5,603 Q97,665 157,665 Q190,665 213,644 Q236,623 247.5,593.5 Q259,564 269.5,534 Q280,504 297,483 Q314,462 339,462 Q381,462 404.5,512.5 Q428,563 438,667"/> 
            <glyph glyph-name="¡" unicode="&#xA1;" horiz-adv-x="137" d=" M83,-184 L94,322 L114,322 L125,-184 M71,446 Q71,472 80.5,482 Q90,492 104,492 Q118,492 127.5,482 Q137,472 137,459 Q137,446 127,436.5 Q117,427 104,427 Q91,427 71,446"/> 
            <glyph glyph-name="¢" unicode="&#xA2;" horiz-adv-x="453" d=" M262,-100 L262,-10 Q170,0 115,71 Q60,142 60,242 Q60,342 115,412.5 Q170,483 262,493 L262,565 L292,565 L292,495 Q388,494 453,414 L431,396 Q378,466 292,468 L292,15 Q377,15 431,88 L453,69 Q388,-11 292,-12 L292,-100 M93,331 Q93,153 138.5,89.5 Q184,26 262,16 L262,466 Q183,456 93,331"/> 
            <glyph glyph-name="£" unicode="&#xA3;" horiz-adv-x="482" d=" M17,267 L17,297 L160,297 Q153,305 126,333 Q99,361 87.5,376.5 Q76,392 63.5,423 Q51,454 51,489 Q51,564 109.5,620.5 Q168,677 259,677 Q314,677 362.5,648.5 Q411,620 434,573 L408,555 Q393,591 352,619 Q311,647 259,647 Q186,647 135,604.5 Q84,562 84,489 Q84,456 96,426 Q108,396 122,379 Q136,362 159.5,336.5 Q183,311 194,297 L346,297 L346,267 L213,267 Q229,237 229,203 Q229,153 206.5,119 Q184,85 143,54 Q171,64 198,64 Q233,64 281.5,40 Q330,16 360,16 Q392,16 422,30 Q452,44 464,59 L482,32 Q434,-14 358,-14 Q312,-14 268,10 Q224,34 180,34 Q141,34 61,-7 L47,26 Q123,58 161,104 Q199,150 199,203 Q199,236 181,267"/> 
            <glyph glyph-name="¤" unicode="&#xA4;" horiz-adv-x="544" d=" M288,99 Q194,99 133,158 L53,78 L32,99 L113,180 Q63,244 63,333 Q63,424 114,487 L31,570 L52,591 L134,508 Q197,566 288,566 Q380,566 442,509 L523,590 L544,569 L462,487 Q513,424 513,333 Q513,244 463,180 L544,99 L523,78 L443,158 Q381,99 288,99 M288,129 Q377,129 428.5,189 Q480,249 480,333 Q480,417 428.5,476.5 Q377,536 288,536 Q200,536 148,476 Q96,416 96,333 Q96,249 148,189 Q200,129 288,129"/> 
            <glyph glyph-name="¥" unicode="&#xA5;" horiz-adv-x="589" d=" M321,0 L289,0 L289,129 L21,129 L21,159 L289,159 L289,289 L21,289 L21,319 L267,319 L21,667 L62,667 L305,321 L548,667 L589,667 L342,319 L589,319 L589,289 L321,289 L321,159 L589,159 L589,129 L321,129"/> 
            <glyph glyph-name="¦" unicode="&#xA6;" horiz-adv-x="118" d=" M118,-20 L88,-20 L88,296 L118,296 M118,371 L88,371 L88,687 L118,687"/> 
            <glyph glyph-name="§" unicode="&#xA7;" horiz-adv-x="394" d=" M394,306 Q394,218 294,179 Q344,161 369,132.5 Q394,104 394,58 Q394,-7 346.5,-44 Q299,-81 221,-81 Q156,-81 116.5,-61 Q77,-41 44,-4 L68,18 Q122,-54 221,-54 Q284,-54 324,-23.5 Q364,7 364,58 Q364,98 332,122.5 Q300,147 254.5,158.5 Q209,170 163.5,182.5 Q118,195 86,223 Q54,251 54,298 Q54,350 89.5,382.5 Q125,415 184,428 Q120,446 87,473 Q54,500 54,549 Q54,603 97,640 Q140,677 218,677 Q326,677 384,604 L362,584 Q314,650 218,650 Q160,650 122,621.5 Q84,593 84,547 Q84,510 116,488.5 Q148,467 193.5,456.5 Q239,446 284.5,433.5 Q330,421 362,389.5 Q394,358 394,306 M364,309 Q364,334 352.5,352.5 Q341,371 317.5,383.5 Q294,396 276,402.5 Q258,409 226,417 Q147,396 115.5,367 Q84,338 84,296 Q84,273 96.5,256 Q109,239 130.5,228.5 Q152,218 179.5,210 Q207,202 238,194 Q253,191 260,189 Q364,234 364,309"/> 
            <glyph glyph-name="¨" unicode="&#xA8;" horiz-adv-x="255" d=" M255,609 Q255,587 246.5,578.5 Q238,570 227,570 Q216,570 207.5,578.5 Q199,587 199,598 Q199,609 207.5,617.5 Q216,626 227,626 Q238,626 255,609 M53,609 Q53,587 44.5,578.5 Q36,570 25,570 Q14,570 5.5,578.5 Q-3,587 -3,598 Q-3,609 5.5,617.5 Q14,626 25,626 Q36,626 53,609"/> 
            <glyph glyph-name="©" unicode="&#xA9;" horiz-adv-x="734" d=" M734,477 Q734,191 633,90 Q532,-11 389,-11 Q246,-11 145,90.5 Q44,192 44,334 Q44,477 145,578 Q246,679 389,679 Q532,679 734,477 M708,334 Q708,466 614.5,559.5 Q521,653 389,653 Q258,653 164,559.5 Q70,466 70,334 Q70,203 164,109 Q258,15 389,15 Q521,15 614.5,109 Q708,203 708,334 M513,204 L533,184 Q477,119 389,119 Q302,119 241.5,182 Q181,245 181,336 Q181,427 241.5,488.5 Q302,550 389,550 Q478,550 533,486 L513,466 Q494,492 459.5,507.5 Q425,523 389,523 Q316,523 263,470.5 Q210,418 210,335 Q210,254 263.5,200 Q317,146 389,146 Q425,146 459.5,162 Q494,178 513,204"/> 
            <glyph glyph-name="ª" unicode="&#xAA;" horiz-adv-x="303" d=" M303,326 L276,326 L276,364 Q231,318 163,318 Q118,318 84,347 Q50,376 50,423 Q50,471 83.5,499 Q117,527 163,527 Q231,527 276,481 L276,549 Q276,584 249,603.5 Q222,623 186,623 Q122,623 83,573 L65,592 Q113,648 187,648 Q239,648 271,623 Q303,598 303,549 M172,340 Q239,340 276,386 L276,459 Q239,505 172,505 Q131,505 105,481.5 Q79,458 79,423 Q79,387 104.5,363.5 Q130,340 172,340"/> 
            <glyph glyph-name="«" unicode="&#xAB;" horiz-adv-x="334" d=" M334,63 L295,63 L135,243 L295,420 L334,420 L174,243 M229,63 L190,63 L30,243 L190,420 L229,420 L69,243"/> 
            <glyph glyph-name="¬" unicode="&#xAC;" horiz-adv-x="465" d=" M465,448 L465,220 L433,220 L433,418 L29,418 L29,448"/> 
            <glyph glyph-name="­" unicode="&#xAD;" horiz-adv-x="270" d=" M270,227 L30,227 L30,257 L270,257"/> 
            <glyph glyph-name="®" unicode="&#xAE;" horiz-adv-x="459" d=" M459,465 Q459,377 397,315 Q335,253 247,253 Q159,253 97,315 Q35,377 35,465 Q35,553 97,615 Q159,677 247,677 Q336,677 397.5,615.5 Q459,554 459,465 M433,465 Q433,543 378.5,597 Q324,651 247,651 Q170,651 115.5,597 Q61,543 61,465 Q61,388 115.5,333.5 Q170,279 247,279 Q324,279 378.5,333.5 Q433,388 433,465 M343,343 L306,343 L243,439 L196,439 L196,343 L167,343 L167,586 L266,586 Q297,586 318.5,565.5 Q340,545 340,512 Q340,477 317.5,458.5 Q295,440 278,440 M310,512 Q310,532 296,545.5 Q282,559 266,559 L196,559 L196,467 L266,467 Q282,467 296,480.5 Q310,494 310,512"/> 
            <glyph glyph-name="¯" unicode="&#xAF;" horiz-adv-x="363" d=" M363,581 L0,581 L0,608 L363,608"/> 
            <glyph glyph-name="°" unicode="&#xB0;" horiz-adv-x="247" d=" M247,612 Q247,520 214.5,488 Q182,456 136,456 Q90,456 58,488 Q26,520 26,566 Q26,612 58,644.5 Q90,677 136,677 Q182,677 247,612 M217,533 Q217,599 193,623 Q169,647 136,647 Q103,647 79.5,623 Q56,599 56,566 Q56,533 79.5,509.5 Q103,486 136,486 Q169,486 217,533"/> 
            <glyph glyph-name="±" unicode="&#xB1;" horiz-adv-x="465" d=" M465,322 L263,322 L263,100 L231,100 L231,322 L29,322 L29,352 L231,352 L231,568 L263,568 L263,352 L465,352 M465,0 L29,0 L29,30 L465,30"/> 
            <glyph glyph-name="²" unicode="&#xB2;" horiz-adv-x="325" d=" M325,421 L54,421 L54,445 Q173,531 233.5,594 Q294,657 294,714 Q294,758 264.5,779.5 Q235,801 194,801 Q116,801 80,748 L60,766 Q103,827 195,827 Q245,827 284,799 Q323,771 323,715 Q323,651 265.5,589 Q208,527 98,447 L325,447"/> 
            <glyph glyph-name="³" unicode="&#xB3;" horiz-adv-x="326" d=" M326,528 Q326,477 289,445.5 Q252,414 188,414 Q140,414 104,432.5 Q68,451 50,480 L70,497 Q110,440 188,440 Q238,440 267,463.5 Q296,487 296,528 Q296,572 263,593.5 Q230,615 179,615 Q149,615 143,614 L143,641 Q149,640 179,640 Q227,640 258.5,660 Q290,680 290,721 Q290,758 260,779.5 Q230,801 187,801 Q120,801 74,749 L55,767 Q106,827 188,827 Q243,827 281,798.5 Q319,770 319,722 Q319,679 291,656 Q263,633 230,628 Q263,625 294.5,599.5 Q326,574 326,528"/> 
            <glyph glyph-name="´" unicode="&#xB4;" horiz-adv-x="205" d=" M205,700 L30,556 L0,556 L160,700"/> 
            <glyph glyph-name="µ" unicode="&#xB5;" horiz-adv-x="517" d=" M116,53 L116,-184 L86,-184 L86,483 L116,483 L116,144 Q116,13 243,13 Q290,13 338,39.5 Q386,66 412,103 L412,483 L442,483 L442,85 Q442,15 494,15 Q506,15 514,17 L517,-10 Q505,-12 494,-12 Q419,-12 412,74 Q380,37 334.5,12.5 Q289,-12 243,-12 Q148,-12 116,53"/> 
            <glyph glyph-name="¶" unicode="&#xB6;" horiz-adv-x="357" d=" M357,-100 L327,-100 L327,637 L229,637 L229,-100 L199,-100 L199,323 Q128,323 77.5,373.5 Q27,424 27,495 Q27,566 77.5,616.5 Q128,667 199,667 L357,667"/> 
            <glyph glyph-name="·" unicode="&#xB7;" horiz-adv-x="137" d=" M137,258 Q137,232 127.5,222 Q118,212 104,212 Q90,212 80.5,222 Q71,232 71,245 Q71,258 81,267.5 Q91,277 104,277 Q117,277 137,258"/> 
            <glyph glyph-name="¸" unicode="&#xB8;" horiz-adv-x="191" d=" M93,-187 Q35,-187 0,-159 L14,-132 Q46,-160 93,-160 Q122,-160 142,-146.5 Q162,-133 162,-111 Q162,-68 118,-68 Q91,-68 75,-87 L53,-74 L84,11 L114,11 L88,-58 Q103,-46 126,-46 Q155,-46 173,-63.5 Q191,-81 191,-111 Q191,-144 163,-165.5 Q135,-187 93,-187"/> 
            <glyph glyph-name="¹" unicode="&#xB9;" horiz-adv-x="132" d=" M132,421 L102,421 L102,781 L39,712 L20,732 L105,821 L132,821"/> 
            <glyph glyph-name="º" unicode="&#xBA;" horiz-adv-x="357" d=" M202,318 Q134,318 91,365.5 Q48,413 48,483 Q48,554 91,601 Q134,648 202,648 Q271,648 314,601 Q357,554 357,483 Q357,413 314,365.5 Q271,318 202,318 M202,344 Q260,344 294,384.5 Q328,425 328,483 Q328,541 294,581 Q260,621 202,621 Q145,621 111.5,581 Q78,541 78,483 Q78,425 111.5,384.5 Q145,344 202,344"/> 
            <glyph glyph-name="»" unicode="&#xBB;" horiz-adv-x="334" d=" M229,243 L69,63 L30,63 L190,243 L30,420 L69,420 M334,243 L174,63 L135,63 L295,243 L135,420 L174,420"/> 
            <glyph glyph-name="¼" unicode="&#xBC;" horiz-adv-x="669" d=" M132,267 L102,267 L102,627 L39,558 L20,578 L105,667 L132,667 M669,113 L607,113 L607,0 L578,0 L578,113 L382,113 L382,139 L568,400 L607,400 L607,139 L669,139 M578,139 L578,371 L413,139 M546,667 L119,0 L83,0 L509,667"/> 
            <glyph glyph-name="½" unicode="&#xBD;" horiz-adv-x="700" d=" M132,267 L102,267 L102,627 L39,558 L20,578 L105,667 L132,667 M700,0 L429,0 L429,24 Q548,110 608.5,173 Q669,236 669,293 Q669,337 639.5,358.5 Q610,380 569,380 Q491,380 455,327 L435,345 Q478,406 570,406 Q620,406 659,378 Q698,350 698,294 Q698,230 640.5,168 Q583,106 473,26 L700,26 M546,667 L119,0 L83,0 L509,667"/> 
            <glyph glyph-name="¾" unicode="&#xBE;" horiz-adv-x="795" d=" M795,113 L733,113 L733,0 L704,0 L704,113 L508,113 L508,139 L694,400 L733,400 L733,139 L795,139 M704,139 L704,371 L539,139 M672,667 L245,0 L209,0 L635,667 M326,374 Q326,323 289,291.5 Q252,260 188,260 Q140,260 104,278.5 Q68,297 50,326 L70,343 Q110,286 188,286 Q238,286 267,309.5 Q296,333 296,374 Q296,418 263,439.5 Q230,461 179,461 Q149,461 143,460 L143,487 Q149,486 179,486 Q227,486 258.5,506 Q290,526 290,567 Q290,604 260,625.5 Q230,647 187,647 Q120,647 74,595 L55,613 Q106,673 188,673 Q243,673 281,644.5 Q319,616 319,568 Q319,525 291,502 Q263,479 230,474 Q263,471 294.5,445.5 Q326,420 326,374"/> 
            <glyph glyph-name="¿" unicode="&#xBF;" horiz-adv-x="441" d=" M242,312 Q286,279 286,236 Q286,199 264.5,169 Q243,139 212,118.5 Q181,98 150,76.5 Q119,55 97.5,24.5 Q76,-6 76,-44 Q76,-96 116,-131.5 Q156,-167 227,-167 Q295,-167 339.5,-142 Q384,-117 418,-69 L441,-90 Q366,-197 227,-197 Q142,-197 91.5,-152.5 Q41,-108 41,-44 Q41,-8 57,22.5 Q73,53 97,72.5 Q121,92 148.5,112 Q176,132 200,148.5 Q224,165 240,187.5 Q256,210 256,236 Q256,266 223,289 M232,492 Q258,492 268,482 Q278,472 278,459 Q278,446 268,436.5 Q258,427 245,427 Q232,427 222,436.5 Q212,446 212,459 Q212,472 232,492"/> 
            <glyph glyph-name="À" unicode="&#xC0;" horiz-adv-x="615" d=" M615,0 L578,0 L504,179 L132,179 L58,0 L21,0 L299,667 L337,667 M492,209 L318,630 L144,209 M369,723 L339,723 L164,867 L209,867"/> 
            <glyph glyph-name="Á" unicode="&#xC1;" horiz-adv-x="615" d=" M615,0 L578,0 L504,179 L132,179 L58,0 L21,0 L299,667 L337,667 M492,209 L318,630 L144,209 M472,867 L297,723 L267,723 L427,867"/> 
            <glyph glyph-name="Â" unicode="&#xC2;" horiz-adv-x="615" d=" M437,723 L409,723 L318,843 L230,723 L202,723 L300,867 L336,867 M615,0 L578,0 L504,179 L132,179 L58,0 L21,0 L299,667 L337,667 M492,209 L318,630 L144,209"/> 
            <glyph glyph-name="Ã" unicode="&#xC3;" horiz-adv-x="615" d=" M615,0 L578,0 L504,179 L132,179 L58,0 L21,0 L299,667 L337,667 M492,209 L318,630 L144,209 M381,721 Q355,721 336.5,738.5 Q318,756 309.5,777.5 Q301,799 286.5,816.5 Q272,834 253,834 Q227,834 210.5,807.5 Q194,781 194,727 L168,727 Q168,784 191.5,822.5 Q215,861 256,861 Q282,861 300.5,843.5 Q319,826 327.5,804.5 Q336,783 350.5,765.5 Q365,748 384,748 Q410,748 426.5,774.5 Q443,801 443,855 L469,855 Q469,798 445.5,759.5 Q422,721 381,721"/> 
            <glyph glyph-name="Ä" unicode="&#xC4;" horiz-adv-x="615" d=" M448,776 Q448,754 439.5,745.5 Q431,737 420,737 Q409,737 400.5,745.5 Q392,754 392,765 Q392,776 400.5,784.5 Q409,793 420,793 Q431,793 448,776 M246,776 Q246,754 237.5,745.5 Q229,737 218,737 Q207,737 198.5,745.5 Q190,754 190,765 Q190,776 198.5,784.5 Q207,793 218,793 Q229,793 246,776 M615,0 L578,0 L504,179 L132,179 L58,0 L21,0 L299,667 L337,667 M492,209 L318,630 L144,209"/> 
            <glyph glyph-name="Å" unicode="&#xC5;" horiz-adv-x="615" d=" M615,0 L578,0 L504,179 L132,179 L58,0 L21,0 L299,667 L337,667 M492,209 L318,630 L144,209 M357,692 Q281,692 253.5,719.5 Q226,747 226,785 Q226,823 253.5,850.5 Q281,878 319,878 Q357,878 384,850.5 Q411,823 411,785 Q411,747 357,692 M319,716 Q347,716 367,736 Q387,756 387,785 Q387,814 367,834 Q347,854 319,854 Q290,854 270,834 Q250,814 250,785 Q250,756 270,736 Q290,716 319,716"/> 
            <glyph glyph-name="Æ" unicode="&#xC6;" horiz-adv-x="865" d=" M865,0 L457,0 L457,179 L171,179 L58,0 L21,0 L446,667 L865,667 L865,637 L489,637 L489,358 L858,358 L858,328 L489,328 L489,30 L865,30 M457,209 L457,630 L188,209"/> 
            <glyph glyph-name="Ç" unicode="&#xC7;" horiz-adv-x="631" d=" M392,-183 Q334,-183 299,-155 L313,-128 Q345,-156 392,-156 Q421,-156 441,-142.5 Q461,-129 461,-107 Q461,-64 417,-64 Q390,-64 374,-83 L352,-70 L373,-11 Q241,-2 153,93.5 Q65,189 65,333 Q65,484 161,581 Q257,678 398,678 Q539,678 630,573 L605,551 Q569,596 514.5,622 Q460,648 398,648 Q271,648 185.5,560 Q100,472 100,333 Q100,195 185.5,106.5 Q271,18 398,18 Q460,18 514.5,44 Q569,70 605,115 L631,94 Q538,-11 403,-12 L387,-54 Q402,-42 425,-42 Q454,-42 472,-59.5 Q490,-77 490,-107 Q490,-140 462,-161.5 Q434,-183 392,-183"/> 
            <glyph glyph-name="È" unicode="&#xC8;" horiz-adv-x="496" d=" M496,0 L88,0 L88,667 L496,667 L496,637 L120,637 L120,358 L489,358 L489,328 L120,328 L120,30 L496,30 M343,723 L313,723 L138,867 L183,867"/> 
            <glyph glyph-name="É" unicode="&#xC9;" horiz-adv-x="496" d=" M446,867 L271,723 L241,723 L401,867 M496,0 L88,0 L88,667 L496,667 L496,637 L120,637 L120,358 L489,358 L489,328 L120,328 L120,30 L496,30"/> 
            <glyph glyph-name="Ê" unicode="&#xCA;" horiz-adv-x="496" d=" M408,723 L380,723 L289,843 L201,723 L173,723 L271,867 L307,867 M496,0 L88,0 L88,667 L496,667 L496,637 L120,637 L120,358 L489,358 L489,328 L120,328 L120,30 L496,30"/> 
            <glyph glyph-name="Ë" unicode="&#xCB;" horiz-adv-x="496" d=" M419,776 Q419,754 410.5,745.5 Q402,737 391,737 Q380,737 371.5,745.5 Q363,754 363,765 Q363,776 371.5,784.5 Q380,793 391,793 Q402,793 419,776 M217,776 Q217,754 208.5,745.5 Q200,737 189,737 Q178,737 169.5,745.5 Q161,754 161,765 Q161,776 169.5,784.5 Q178,793 189,793 Q200,793 217,776 M496,0 L88,0 L88,667 L496,667 L496,637 L120,637 L120,358 L489,358 L489,328 L120,328 L120,30 L496,30"/> 
            <glyph glyph-name="Ì" unicode="&#xCC;" horiz-adv-x="155" d=" M120,0 L88,0 L88,667 L120,667 M155,723 L125,723 L-50,867 L-5,867"/> 
            <glyph glyph-name="Í" unicode="&#xCD;" horiz-adv-x="258" d=" M120,0 L88,0 L88,667 L120,667 M258,867 L83,723 L53,723 L213,867"/> 
            <glyph glyph-name="Î" unicode="&#xCE;" horiz-adv-x="223" d=" M223,723 L195,723 L104,843 L16,723 L-12,723 L86,867 L122,867 M120,0 L88,0 L88,667 L120,667"/> 
            <glyph glyph-name="Ï" unicode="&#xCF;" horiz-adv-x="233" d=" M233,776 Q233,754 224.5,745.5 Q216,737 205,737 Q194,737 185.5,745.5 Q177,754 177,765 Q177,776 185.5,784.5 Q194,793 205,793 Q216,793 233,776 M31,776 Q31,754 22.5,745.5 Q14,737 3,737 Q-8,737 -16.5,745.5 Q-25,754 -25,765 Q-25,776 -16.5,784.5 Q-8,793 3,793 Q14,793 31,776 M120,0 L88,0 L88,667 L120,667"/> 
            <glyph glyph-name="Ð" unicode="&#xD0;" horiz-adv-x="649" d=" M317,0 L119,0 L119,318 L12,318 L12,348 L119,348 L119,667 L317,667 Q467,667 558,569.5 Q649,472 649,333 Q649,193 558.5,96.5 Q468,0 317,0 M317,30 Q455,30 534.5,116 Q614,202 614,333 Q614,463 534,550 Q454,637 317,637 L151,637 L151,348 L339,348 L339,318 L151,318 L151,30"/> 
            <glyph glyph-name="Ñ" unicode="&#xD1;" horiz-adv-x="602" d=" M406,721 Q380,721 361.5,738.5 Q343,756 334.5,777.5 Q326,799 311.5,816.5 Q297,834 278,834 Q252,834 235.5,807.5 Q219,781 219,727 L193,727 Q193,784 216.5,822.5 Q240,861 281,861 Q307,861 325.5,843.5 Q344,826 352.5,804.5 Q361,783 375.5,765.5 Q390,748 409,748 Q435,748 451.5,774.5 Q468,801 468,855 L494,855 Q494,798 470.5,759.5 Q447,721 406,721 M602,0 L570,0 L120,615 L120,0 L88,0 L88,667 L120,667 L570,58 L570,667 L602,667"/> 
            <glyph glyph-name="Ò" unicode="&#xD2;" horiz-adv-x="699" d=" M433,723 L403,723 L228,867 L273,867 M382,-12 Q239,-12 152,86.5 Q65,185 65,333 Q65,481 152,579.5 Q239,678 382,678 Q524,678 611.5,579.5 Q699,481 699,333 Q699,185 611.5,86.5 Q524,-12 382,-12 M382,18 Q509,18 586.5,106.5 Q664,195 664,333 Q664,472 586.5,560 Q509,648 382,648 Q254,648 177,560 Q100,472 100,333 Q100,195 177,106.5 Q254,18 382,18"/> 
            <glyph glyph-name="Ó" unicode="&#xD3;" horiz-adv-x="699" d=" M536,867 L361,723 L331,723 L491,867 M382,-12 Q239,-12 152,86.5 Q65,185 65,333 Q65,481 152,579.5 Q239,678 382,678 Q524,678 611.5,579.5 Q699,481 699,333 Q699,185 611.5,86.5 Q524,-12 382,-12 M382,18 Q509,18 586.5,106.5 Q664,195 664,333 Q664,472 586.5,560 Q509,648 382,648 Q254,648 177,560 Q100,472 100,333 Q100,195 177,106.5 Q254,18 382,18"/> 
            <glyph glyph-name="Ô" unicode="&#xD4;" horiz-adv-x="699" d=" M501,723 L473,723 L382,843 L294,723 L266,723 L364,867 L400,867 M382,-12 Q239,-12 152,86.5 Q65,185 65,333 Q65,481 152,579.5 Q239,678 382,678 Q524,678 611.5,579.5 Q699,481 699,333 Q699,185 611.5,86.5 Q524,-12 382,-12 M382,18 Q509,18 586.5,106.5 Q664,195 664,333 Q664,472 586.5,560 Q509,648 382,648 Q254,648 177,560 Q100,472 100,333 Q100,195 177,106.5 Q254,18 382,18"/> 
            <glyph glyph-name="Õ" unicode="&#xD5;" horiz-adv-x="699" d=" M382,-12 Q239,-12 152,86.5 Q65,185 65,333 Q65,481 152,579.5 Q239,678 382,678 Q524,678 611.5,579.5 Q699,481 699,333 Q699,185 611.5,86.5 Q524,-12 382,-12 M382,18 Q509,18 586.5,106.5 Q664,195 664,333 Q664,472 586.5,560 Q509,648 382,648 Q254,648 177,560 Q100,472 100,333 Q100,195 177,106.5 Q254,18 382,18 M445,721 Q419,721 400.5,738.5 Q382,756 373.5,777.5 Q365,799 350.5,816.5 Q336,834 317,834 Q291,834 274.5,807.5 Q258,781 258,727 L232,727 Q232,784 255.5,822.5 Q279,861 320,861 Q346,861 364.5,843.5 Q383,826 391.5,804.5 Q400,783 414.5,765.5 Q429,748 448,748 Q474,748 490.5,774.5 Q507,801 507,855 L533,855 Q533,798 509.5,759.5 Q486,721 445,721"/> 
            <glyph glyph-name="Ö" unicode="&#xD6;" horiz-adv-x="699" d=" M509,776 Q509,754 500.5,745.5 Q492,737 481,737 Q470,737 461.5,745.5 Q453,754 453,765 Q453,776 461.5,784.5 Q470,793 481,793 Q492,793 509,776 M307,776 Q307,754 298.5,745.5 Q290,737 279,737 Q268,737 259.5,745.5 Q251,754 251,765 Q251,776 259.5,784.5 Q268,793 279,793 Q290,793 307,776 M382,-12 Q239,-12 152,86.5 Q65,185 65,333 Q65,481 152,579.5 Q239,678 382,678 Q524,678 611.5,579.5 Q699,481 699,333 Q699,185 611.5,86.5 Q524,-12 382,-12 M382,18 Q509,18 586.5,106.5 Q664,195 664,333 Q664,472 586.5,560 Q509,648 382,648 Q254,648 177,560 Q100,472 100,333 Q100,195 177,106.5 Q254,18 382,18"/> 
            <glyph glyph-name="×" unicode="&#xD7;" horiz-adv-x="423" d=" M402,158 L247,313 L92,158 L71,179 L226,334 L71,489 L92,510 L247,355 L402,510 L423,489 L268,334 L423,179"/> 
            <glyph glyph-name="Ø" unicode="&#xD8;" horiz-adv-x="699" d=" M382,-12 Q290,-12 219,31 L201,0 L165,0 L194,48 Q132,95 98.5,169 Q65,243 65,333 Q65,481 152,579.5 Q239,678 382,678 Q471,678 544,635 L563,667 L599,667 L569,617 Q631,571 665,496.5 Q699,422 699,333 Q699,185 611.5,86.5 Q524,-12 382,-12 M382,18 Q509,18 586.5,106.5 Q664,195 664,333 Q664,502 553,591 L235,57 Q299,18 382,18 M100,333 Q100,163 210,75 L528,609 Q464,648 382,648 Q254,648 177,560 Q100,472 100,333"/> 
            <glyph glyph-name="Ù" unicode="&#xD9;" horiz-adv-x="584" d=" M456,-12 Q216,-12 152,58 Q88,128 88,253 L88,667 L120,667 L120,253 Q120,141 176,79.5 Q232,18 336,18 Q440,18 496,79.5 Q552,141 552,253 L552,667 L584,667 L584,253 Q584,128 456,-12 M387,723 L357,723 L182,867 L227,867"/> 
            <glyph glyph-name="Ú" unicode="&#xDA;" horiz-adv-x="584" d=" M490,867 L315,723 L285,723 L445,867 M456,-12 Q216,-12 152,58 Q88,128 88,253 L88,667 L120,667 L120,253 Q120,141 176,79.5 Q232,18 336,18 Q440,18 496,79.5 Q552,141 552,253 L552,667 L584,667 L584,253 Q584,128 456,-12"/> 
            <glyph glyph-name="Û" unicode="&#xDB;" horiz-adv-x="584" d=" M457,723 L429,723 L338,843 L250,723 L222,723 L320,867 L356,867 M456,-12 Q216,-12 152,58 Q88,128 88,253 L88,667 L120,667 L120,253 Q120,141 176,79.5 Q232,18 336,18 Q440,18 496,79.5 Q552,141 552,253 L552,667 L584,667 L584,253 Q584,128 456,-12"/> 
            <glyph glyph-name="Ü" unicode="&#xDC;" horiz-adv-x="584" d=" M465,776 Q465,754 456.5,745.5 Q448,737 437,737 Q426,737 417.5,745.5 Q409,754 409,765 Q409,776 417.5,784.5 Q426,793 437,793 Q448,793 465,776 M263,776 Q263,754 254.5,745.5 Q246,737 235,737 Q224,737 215.5,745.5 Q207,754 207,765 Q207,776 215.5,784.5 Q224,793 235,793 Q246,793 263,776 M456,-12 Q216,-12 152,58 Q88,128 88,253 L88,667 L120,667 L120,253 Q120,141 176,79.5 Q232,18 336,18 Q440,18 496,79.5 Q552,141 552,253 L552,667 L584,667 L584,253 Q584,128 456,-12"/> 
            <glyph glyph-name="Ý" unicode="&#xDD;" horiz-adv-x="589" d=" M321,0 L289,0 L289,289 L21,667 L62,667 L305,321 L548,667 L589,667 L321,289 M459,867 L284,723 L254,723 L414,867"/> 
            <glyph glyph-name="Þ" unicode="&#xDE;" horiz-adv-x="514" d=" M120,0 L88,0 L88,667 L120,667 L120,538 L319,538 Q409,538 461.5,483 Q514,428 514,348 Q514,269 461,214.5 Q408,160 319,160 L120,160 M318,190 Q391,190 435,234 Q479,278 479,348 Q479,418 435,463 Q391,508 318,508 L120,508 L120,190"/> 
            <glyph glyph-name="ß" unicode="&#xDF;" horiz-adv-x="536" d=" M536,127 Q536,70 493,29 Q450,-12 363,-12 Q298,-12 258.5,8 Q219,28 186,65 L210,87 Q265,15 363,15 Q432,15 469,48 Q506,81 506,127 Q506,168 474,192 Q442,216 396.5,227.5 Q351,239 305.5,251.5 Q260,264 228,292 Q196,320 196,367 Q196,405 222,434 Q248,463 279,478.5 Q310,494 336,517 Q362,540 362,567 Q362,605 325.5,627.5 Q289,650 244,650 Q190,650 153,614 Q116,578 116,519 L116,0 L86,0 L86,519 Q86,587 130,632 Q174,677 244,677 Q306,677 349,646.5 Q392,616 392,567 Q392,531 366,504.5 Q340,478 309,463.5 Q278,449 252,423.5 Q226,398 226,365 Q226,328 258,306.5 Q290,285 335.5,274.5 Q381,264 426.5,251.5 Q472,239 504,208.5 Q536,178 536,127"/> 
            <glyph glyph-name="à" unicode="&#xE0;" horiz-adv-x="428" d=" M428,0 L398,0 L398,59 Q333,-12 231,-12 Q163,-12 112.5,31.5 Q62,75 62,149 Q62,223 112,266.5 Q162,310 231,310 Q333,310 398,239 L398,348 Q398,404 359,436 Q320,468 262,468 Q170,468 107,392 L84,412 Q121,455 162,475 Q203,495 262,495 Q336,495 382,457.5 Q428,420 428,349 M239,15 Q342,15 398,89 L398,209 Q342,283 239,283 Q174,283 134.5,244.5 Q95,206 95,149 Q95,92 134.5,53.5 Q174,15 239,15 M313,556 L283,556 L108,700 L153,700"/> 
            <glyph glyph-name="á" unicode="&#xE1;" horiz-adv-x="428" d=" M428,0 L398,0 L398,59 Q333,-12 231,-12 Q163,-12 112.5,31.5 Q62,75 62,149 Q62,223 112,266.5 Q162,310 231,310 Q333,310 398,239 L398,348 Q398,404 359,436 Q320,468 262,468 Q170,468 107,392 L84,412 Q121,455 162,475 Q203,495 262,495 Q336,495 382,457.5 Q428,420 428,349 M239,15 Q342,15 398,89 L398,209 Q342,283 239,283 Q174,283 134.5,244.5 Q95,206 95,149 Q95,92 134.5,53.5 Q174,15 239,15 M416,700 L241,556 L211,556 L371,700"/> 
            <glyph glyph-name="â" unicode="&#xE2;" horiz-adv-x="428" d=" M428,0 L398,0 L398,59 Q333,-12 231,-12 Q163,-12 112.5,31.5 Q62,75 62,149 Q62,223 112,266.5 Q162,310 231,310 Q333,310 398,239 L398,348 Q398,404 359,436 Q320,468 262,468 Q170,468 107,392 L84,412 Q121,455 162,475 Q203,495 262,495 Q336,495 382,457.5 Q428,420 428,349 M239,15 Q342,15 398,89 L398,209 Q342,283 239,283 Q174,283 134.5,244.5 Q95,206 95,149 Q95,92 134.5,53.5 Q174,15 239,15 M381,556 L353,556 L262,676 L174,556 L146,556 L244,700 L280,700"/> 
            <glyph glyph-name="ã" unicode="&#xE3;" horiz-adv-x="428" d=" M428,0 L398,0 L398,59 Q333,-12 231,-12 Q163,-12 112.5,31.5 Q62,75 62,149 Q62,223 112,266.5 Q162,310 231,310 Q333,310 398,239 L398,348 Q398,404 359,436 Q320,468 262,468 Q170,468 107,392 L84,412 Q121,455 162,475 Q203,495 262,495 Q336,495 382,457.5 Q428,420 428,349 M239,15 Q342,15 398,89 L398,209 Q342,283 239,283 Q174,283 134.5,244.5 Q95,206 95,149 Q95,92 134.5,53.5 Q174,15 239,15 M324,554 Q298,554 279.5,571.5 Q261,589 252.5,610.5 Q244,632 229.5,649.5 Q215,667 196,667 Q170,667 153.5,640.5 Q137,614 137,560 L111,560 Q111,617 134.5,655.5 Q158,694 199,694 Q225,694 243.5,676.5 Q262,659 270.5,637.5 Q279,616 293.5,598.5 Q308,581 327,581 Q353,581 369.5,607.5 Q386,634 386,688 L412,688 Q412,631 388.5,592.5 Q365,554 324,554"/> 
            <glyph glyph-name="ä" unicode="&#xE4;" horiz-adv-x="428" d=" M428,0 L398,0 L398,59 Q333,-12 231,-12 Q163,-12 112.5,31.5 Q62,75 62,149 Q62,223 112,266.5 Q162,310 231,310 Q333,310 398,239 L398,348 Q398,404 359,436 Q320,468 262,468 Q170,468 107,392 L84,412 Q121,455 162,475 Q203,495 262,495 Q336,495 382,457.5 Q428,420 428,349 M239,15 Q342,15 398,89 L398,209 Q342,283 239,283 Q174,283 134.5,244.5 Q95,206 95,149 Q95,92 134.5,53.5 Q174,15 239,15 M389,609 Q389,587 380.5,578.5 Q372,570 361,570 Q350,570 341.5,578.5 Q333,587 333,598 Q333,609 341.5,617.5 Q350,626 361,626 Q372,626 389,609 M187,609 Q187,587 178.5,578.5 Q170,570 159,570 Q148,570 139.5,578.5 Q131,587 131,598 Q131,609 139.5,617.5 Q148,626 159,626 Q170,626 187,609"/> 
            <glyph glyph-name="å" unicode="&#xE5;" horiz-adv-x="428" d=" M428,0 L398,0 L398,59 Q333,-12 231,-12 Q163,-12 112.5,31.5 Q62,75 62,149 Q62,223 112,266.5 Q162,310 231,310 Q333,310 398,239 L398,348 Q398,404 359,436 Q320,468 262,468 Q170,468 107,392 L84,412 Q121,455 162,475 Q203,495 262,495 Q336,495 382,457.5 Q428,420 428,349 M239,15 Q342,15 398,89 L398,209 Q342,283 239,283 Q174,283 134.5,244.5 Q95,206 95,149 Q95,92 134.5,53.5 Q174,15 239,15 M299,553 Q223,553 195.5,580.5 Q168,608 168,646 Q168,684 195.5,711.5 Q223,739 261,739 Q299,739 326,711.5 Q353,684 353,646 Q353,608 299,553 M261,577 Q289,577 309,597 Q329,617 329,646 Q329,675 309,695 Q289,715 261,715 Q232,715 212,694.5 Q192,674 192,646 Q192,618 212,597.5 Q232,577 261,577"/> 
            <glyph glyph-name="æ" unicode="&#xE6;" horiz-adv-x="845" d=" M845,232 L454,232 Q457,140 508,77.5 Q559,15 642,15 Q735,15 799,88 L817,69 Q746,-12 643,-12 Q575,-12 522.5,25 Q470,62 445,130 Q424,65 372.5,26.5 Q321,-12 253,-12 Q169,-12 115.5,31.5 Q62,75 62,150 Q62,224 114.5,267 Q167,310 242,310 Q354,310 424,241 L424,348 Q424,405 384,436.5 Q344,468 276,468 Q176,468 107,392 L84,412 Q155,495 284,495 Q345,495 395,465.5 Q445,436 452,371 Q475,425 524.5,460 Q574,495 633,495 Q734,495 789.5,422 Q845,349 845,242 M454,259 L813,259 Q813,340 767,404 Q721,468 633,468 Q553,468 505,403.5 Q457,339 454,259 M424,188 L424,207 Q363,283 252,283 Q181,283 138,244.5 Q95,206 95,149 Q95,92 138,53.5 Q181,15 252,15 Q330,15 377,66 Q424,117 424,188"/> 
            <glyph glyph-name="ç" unicode="&#xE7;" horiz-adv-x="453" d=" M288,-185 Q230,-185 195,-157 L209,-130 Q241,-158 288,-158 Q317,-158 337,-144.5 Q357,-131 357,-109 Q357,-66 313,-66 Q286,-66 270,-85 L248,-72 L270,-11 Q175,-4 117.5,68 Q60,140 60,242 Q60,349 123,422 Q186,495 288,495 Q344,495 382,475 Q420,455 453,414 L431,396 Q378,468 290,468 Q199,468 146,403.5 Q93,339 93,242 Q93,144 146.5,79.5 Q200,15 290,15 Q377,15 431,88 L453,69 Q392,-8 299,-12 L283,-56 Q298,-44 321,-44 Q350,-44 368,-61.5 Q386,-79 386,-109 Q386,-142 358,-163.5 Q330,-185 288,-185"/> 
            <glyph glyph-name="è" unicode="&#xE8;" horiz-adv-x="511" d=" M297,-12 Q192,-12 126,59.5 Q60,131 60,242 Q60,348 125,421.5 Q190,495 287,495 Q393,495 452,422 Q511,349 511,242 L511,232 L94,232 Q96,140 151.5,77.5 Q207,15 297,15 Q397,15 465,88 L483,69 Q405,-12 297,-12 M479,259 Q479,308 459,354.5 Q439,401 393.5,434.5 Q348,468 286,468 Q199,468 148,403.5 Q97,339 94,259 M338,556 L308,556 L133,700 L178,700"/> 
            <glyph glyph-name="é" unicode="&#xE9;" horiz-adv-x="511" d=" M441,700 L266,556 L236,556 L396,700 M297,-12 Q192,-12 126,59.5 Q60,131 60,242 Q60,348 125,421.5 Q190,495 287,495 Q393,495 452,422 Q511,349 511,242 L511,232 L94,232 Q96,140 151.5,77.5 Q207,15 297,15 Q397,15 465,88 L483,69 Q405,-12 297,-12 M479,259 Q479,308 459,354.5 Q439,401 393.5,434.5 Q348,468 286,468 Q199,468 148,403.5 Q97,339 94,259"/> 
            <glyph glyph-name="ê" unicode="&#xEA;" horiz-adv-x="511" d=" M407,556 L379,556 L288,676 L200,556 L172,556 L270,700 L306,700 M297,-12 Q192,-12 126,59.5 Q60,131 60,242 Q60,348 125,421.5 Q190,495 287,495 Q393,495 452,422 Q511,349 511,242 L511,232 L94,232 Q96,140 151.5,77.5 Q207,15 297,15 Q397,15 465,88 L483,69 Q405,-12 297,-12 M479,259 Q479,308 459,354.5 Q439,401 393.5,434.5 Q348,468 286,468 Q199,468 148,403.5 Q97,339 94,259"/> 
            <glyph glyph-name="ë" unicode="&#xEB;" horiz-adv-x="511" d=" M417,609 Q417,587 408.5,578.5 Q400,570 389,570 Q378,570 369.5,578.5 Q361,587 361,598 Q361,609 369.5,617.5 Q378,626 389,626 Q400,626 417,609 M215,609 Q215,587 206.5,578.5 Q198,570 187,570 Q176,570 167.5,578.5 Q159,587 159,598 Q159,609 167.5,617.5 Q176,626 187,626 Q198,626 215,609 M297,-12 Q192,-12 126,59.5 Q60,131 60,242 Q60,348 125,421.5 Q190,495 287,495 Q393,495 452,422 Q511,349 511,242 L511,232 L94,232 Q96,140 151.5,77.5 Q207,15 297,15 Q397,15 465,88 L483,69 Q405,-12 297,-12 M479,259 Q479,308 459,354.5 Q439,401 393.5,434.5 Q348,468 286,468 Q199,468 148,403.5 Q97,339 94,259"/> 
            <glyph glyph-name="ì" unicode="&#xEC;" horiz-adv-x="152" d=" M116,0 L86,0 L86,483 L116,483 M152,556 L122,556 L-53,700 L-8,700"/> 
            <glyph glyph-name="í" unicode="&#xED;" horiz-adv-x="255" d=" M255,700 L80,556 L50,556 L210,700 M116,0 L86,0 L86,483 L116,483"/> 
            <glyph glyph-name="î" unicode="&#xEE;" horiz-adv-x="219" d=" M219,556 L191,556 L100,676 L12,556 L-16,556 L82,700 L118,700 M116,0 L86,0 L86,483 L116,483"/> 
            <glyph glyph-name="ï" unicode="&#xEF;" horiz-adv-x="230" d=" M230,609 Q230,587 221.5,578.5 Q213,570 202,570 Q191,570 182.5,578.5 Q174,587 174,598 Q174,609 182.5,617.5 Q191,626 202,626 Q213,626 230,609 M28,609 Q28,587 19.5,578.5 Q11,570 0,570 Q-11,570 -19.5,578.5 Q-28,587 -28,598 Q-28,609 -19.5,617.5 Q-11,626 0,626 Q11,626 28,609 M116,0 L86,0 L86,483 L116,483"/> 
            <glyph glyph-name="ð" unicode="&#xF0;" horiz-adv-x="510" d=" M138,522 L127,548 L253,604 Q212,632 166,661 L184,688 Q250,647 287,619 L398,668 L409,642 L312,599 Q510,436 510,242 Q510,133 448,60.5 Q386,-12 285,-12 Q185,-12 122.5,60.5 Q60,133 60,242 Q60,350 122.5,422.5 Q185,495 285,495 Q380,495 441,410 Q378,509 279,584 M285,15 Q374,15 425.5,81.5 Q477,148 477,242 Q477,335 425.5,401.5 Q374,468 285,468 Q197,468 145,401.5 Q93,335 93,242 Q93,148 145,81.5 Q197,15 285,15"/> 
            <glyph glyph-name="ñ" unicode="&#xF1;" horiz-adv-x="442" d=" M442,0 L412,0 L412,337 Q412,409 380,438.5 Q348,468 287,468 Q239,468 191,441.5 Q143,415 116,377 L116,0 L86,0 L86,483 L116,483 L116,407 Q145,442 194,468.5 Q243,495 291,495 Q366,495 404,457.5 Q442,420 442,337 M327,554 Q301,554 282.5,571.5 Q264,589 255.5,610.5 Q247,632 232.5,649.5 Q218,667 199,667 Q173,667 156.5,640.5 Q140,614 140,560 L114,560 Q114,617 137.5,655.5 Q161,694 202,694 Q228,694 246.5,676.5 Q265,659 273.5,637.5 Q282,616 296.5,598.5 Q311,581 330,581 Q356,581 372.5,607.5 Q389,634 389,688 L415,688 Q415,631 391.5,592.5 Q368,554 327,554"/> 
            <glyph glyph-name="ò" unicode="&#xF2;" horiz-adv-x="510" d=" M285,-12 Q185,-12 122.5,60.5 Q60,133 60,242 Q60,350 122.5,422.5 Q185,495 285,495 Q386,495 448,423 Q510,351 510,242 Q510,133 448,60.5 Q386,-12 285,-12 M285,15 Q374,15 425.5,81.5 Q477,148 477,242 Q477,335 425.5,401.5 Q374,468 285,468 Q197,468 145,401.5 Q93,335 93,242 Q93,148 145,81.5 Q197,15 285,15 M336,556 L306,556 L131,700 L176,700"/> 
            <glyph glyph-name="ó" unicode="&#xF3;" horiz-adv-x="510" d=" M439,700 L264,556 L234,556 L394,700 M285,-12 Q185,-12 122.5,60.5 Q60,133 60,242 Q60,350 122.5,422.5 Q185,495 285,495 Q386,495 448,423 Q510,351 510,242 Q510,133 448,60.5 Q386,-12 285,-12 M285,15 Q374,15 425.5,81.5 Q477,148 477,242 Q477,335 425.5,401.5 Q374,468 285,468 Q197,468 145,401.5 Q93,335 93,242 Q93,148 145,81.5 Q197,15 285,15"/> 
            <glyph glyph-name="ô" unicode="&#xF4;" horiz-adv-x="510" d=" M404,556 L376,556 L285,676 L197,556 L169,556 L267,700 L303,700 M285,-12 Q185,-12 122.5,60.5 Q60,133 60,242 Q60,350 122.5,422.5 Q185,495 285,495 Q386,495 448,423 Q510,351 510,242 Q510,133 448,60.5 Q386,-12 285,-12 M285,15 Q374,15 425.5,81.5 Q477,148 477,242 Q477,335 425.5,401.5 Q374,468 285,468 Q197,468 145,401.5 Q93,335 93,242 Q93,148 145,81.5 Q197,15 285,15"/> 
            <glyph glyph-name="õ" unicode="&#xF5;" horiz-adv-x="510" d=" M285,-12 Q185,-12 122.5,60.5 Q60,133 60,242 Q60,350 122.5,422.5 Q185,495 285,495 Q386,495 448,423 Q510,351 510,242 Q510,133 448,60.5 Q386,-12 285,-12 M285,15 Q374,15 425.5,81.5 Q477,148 477,242 Q477,335 425.5,401.5 Q374,468 285,468 Q197,468 145,401.5 Q93,335 93,242 Q93,148 145,81.5 Q197,15 285,15 M348,554 Q322,554 303.5,571.5 Q285,589 276.5,610.5 Q268,632 253.5,649.5 Q239,667 220,667 Q194,667 177.5,640.5 Q161,614 161,560 L135,560 Q135,617 158.5,655.5 Q182,694 223,694 Q249,694 267.5,676.5 Q286,659 294.5,637.5 Q303,616 317.5,598.5 Q332,581 351,581 Q377,581 393.5,607.5 Q410,634 410,688 L436,688 Q436,631 412.5,592.5 Q389,554 348,554"/> 
            <glyph glyph-name="ö" unicode="&#xF6;" horiz-adv-x="510" d=" M414,609 Q414,587 405.5,578.5 Q397,570 386,570 Q375,570 366.5,578.5 Q358,587 358,598 Q358,609 366.5,617.5 Q375,626 386,626 Q397,626 414,609 M212,609 Q212,587 203.5,578.5 Q195,570 184,570 Q173,570 164.5,578.5 Q156,587 156,598 Q156,609 164.5,617.5 Q173,626 184,626 Q195,626 212,609 M285,-12 Q185,-12 122.5,60.5 Q60,133 60,242 Q60,350 122.5,422.5 Q185,495 285,495 Q386,495 448,423 Q510,351 510,242 Q510,133 448,60.5 Q386,-12 285,-12 M285,15 Q374,15 425.5,81.5 Q477,148 477,242 Q477,335 425.5,401.5 Q374,468 285,468 Q197,468 145,401.5 Q93,335 93,242 Q93,148 145,81.5 Q197,15 285,15"/> 
            <glyph glyph-name="÷" unicode="&#xF7;" horiz-adv-x="482" d=" M289,536 Q289,522 279,512 Q269,502 256,502 Q243,502 233,512 Q223,522 223,536 Q223,549 232.5,558.5 Q242,568 256,568 Q270,568 279.5,558.5 Q289,549 289,536 M482,322 L29,322 L29,352 L482,352 M289,146 Q289,120 279.5,110 Q270,100 256,100 Q242,100 232.5,110 Q223,120 223,133 Q223,146 232.5,156 Q242,166 256,166 Q270,166 289,146"/> 
            <glyph glyph-name="ø" unicode="&#xF8;" horiz-adv-x="510" d=" M118,0 L84,0 L126,56 Q60,128 60,242 Q60,350 122.5,422.5 Q185,495 285,495 Q361,495 418,451 L442,483 L475,483 L438,433 Q510,361 510,242 Q510,133 448,60.5 Q386,-12 285,-12 Q204,-12 146,37 M285,15 Q374,15 425.5,81.5 Q477,148 477,242 Q477,343 420,408 L163,61 Q212,15 285,15 M93,242 Q93,146 145,82 L400,427 Q351,468 285,468 Q197,468 145,401.5 Q93,335 93,242"/> 
            <glyph glyph-name="ù" unicode="&#xF9;" horiz-adv-x="442" d=" M442,0 L412,0 L412,74 Q379,37 332,12.5 Q285,-12 237,-12 Q162,-12 124,24.5 Q86,61 86,144 L86,483 L116,483 L116,144 Q116,72 148,43.5 Q180,15 241,15 Q289,15 337.5,40.5 Q386,66 412,103 L412,483 L442,483 M315,556 L285,556 L110,700 L155,700"/> 
            <glyph glyph-name="ú" unicode="&#xFA;" horiz-adv-x="442" d=" M418,700 L243,556 L213,556 L373,700 M442,0 L412,0 L412,74 Q379,37 332,12.5 Q285,-12 237,-12 Q162,-12 124,24.5 Q86,61 86,144 L86,483 L116,483 L116,144 Q116,72 148,43.5 Q180,15 241,15 Q289,15 337.5,40.5 Q386,66 412,103 L412,483 L442,483"/> 
            <glyph glyph-name="û" unicode="&#xFB;" horiz-adv-x="442" d=" M381,556 L353,556 L262,676 L174,556 L146,556 L244,700 L280,700 M442,0 L412,0 L412,74 Q379,37 332,12.5 Q285,-12 237,-12 Q162,-12 124,24.5 Q86,61 86,144 L86,483 L116,483 L116,144 Q116,72 148,43.5 Q180,15 241,15 Q289,15 337.5,40.5 Q386,66 412,103 L412,483 L442,483"/> 
            <glyph glyph-name="ü" unicode="&#xFC;" horiz-adv-x="442" d=" M397,609 Q397,587 388.5,578.5 Q380,570 369,570 Q358,570 349.5,578.5 Q341,587 341,598 Q341,609 349.5,617.5 Q358,626 369,626 Q380,626 397,609 M195,609 Q195,587 186.5,578.5 Q178,570 167,570 Q156,570 147.5,578.5 Q139,587 139,598 Q139,609 147.5,617.5 Q156,626 167,626 Q178,626 195,609 M442,0 L412,0 L412,74 Q379,37 332,12.5 Q285,-12 237,-12 Q162,-12 124,24.5 Q86,61 86,144 L86,483 L116,483 L116,144 Q116,72 148,43.5 Q180,15 241,15 Q289,15 337.5,40.5 Q386,66 412,103 L412,483 L442,483"/> 
            <glyph glyph-name="ý" unicode="&#xFD;" horiz-adv-x="460" d=" M50,-189 L56,-161 Q74,-169 98,-169 Q123,-169 140.5,-154.5 Q158,-140 174,-103 L218,-3 L11,483 L46,483 L236,35 L425,483 L460,483 L204,-114 Q168,-196 98,-196 Q71,-196 50,-189 M390,700 L215,556 L185,556 L345,700"/> 
            <glyph glyph-name="þ" unicode="&#xFE;" horiz-adv-x="506" d=" M290,-12 Q237,-12 191.5,13.5 Q146,39 116,83 L116,-184 L86,-184 L86,667 L116,667 L116,402 Q142,442 189,468.5 Q236,495 290,495 Q388,495 447,426 Q506,357 506,242 Q506,128 446.5,58 Q387,-12 290,-12 M290,15 Q376,15 424.5,79 Q473,143 473,242 Q473,341 424.5,404.5 Q376,468 290,468 Q236,468 188,440 Q140,412 116,372 L116,113 Q140,73 188,44 Q236,15 290,15"/> 
            <glyph glyph-name="ÿ" unicode="&#xFF;" horiz-adv-x="460" d=" M50,-189 L56,-161 Q74,-169 98,-169 Q123,-169 140.5,-154.5 Q158,-140 174,-103 L218,-3 L11,483 L46,483 L236,35 L425,483 L460,483 L204,-114 Q168,-196 98,-196 Q71,-196 50,-189 M365,609 Q365,587 356.5,578.5 Q348,570 337,570 Q326,570 317.5,578.5 Q309,587 309,598 Q309,609 317.5,617.5 Q326,626 337,626 Q348,626 365,609 M163,609 Q163,587 154.5,578.5 Q146,570 135,570 Q124,570 115.5,578.5 Q107,587 107,598 Q107,609 115.5,617.5 Q124,626 135,626 Q146,626 163,609"/> 
            <glyph glyph-name="Ā" unicode="&#x100;" horiz-adv-x="615" d=" M615,0 L578,0 L504,179 L132,179 L58,0 L21,0 L299,667 L337,667 M492,209 L318,630 L144,209 M499,748 L136,748 L136,775 L499,775"/> 
            <glyph glyph-name="ā" unicode="&#x101;" horiz-adv-x="438" d=" M428,0 L398,0 L398,59 Q333,-12 231,-12 Q163,-12 112.5,31.5 Q62,75 62,149 Q62,223 112,266.5 Q162,310 231,310 Q333,310 398,239 L398,348 Q398,404 359,436 Q320,468 262,468 Q170,468 107,392 L84,412 Q121,455 162,475 Q203,495 262,495 Q336,495 382,457.5 Q428,420 428,349 M239,15 Q342,15 398,89 L398,209 Q342,283 239,283 Q174,283 134.5,244.5 Q95,206 95,149 Q95,92 134.5,53.5 Q174,15 239,15 M438,581 L75,581 L75,608 L438,608"/> 
            <glyph glyph-name="Ă" unicode="&#x102;" horiz-adv-x="615" d=" M615,0 L578,0 L504,179 L132,179 L58,0 L21,0 L299,667 L337,667 M492,209 L318,630 L144,209 M493,799 Q428,711 318,711 Q209,711 142,799 L163,818 Q220,738 318,738 Q416,738 473,818"/> 
            <glyph glyph-name="ă" unicode="&#x103;" horiz-adv-x="432" d=" M428,0 L398,0 L398,59 Q333,-12 231,-12 Q163,-12 112.5,31.5 Q62,75 62,149 Q62,223 112,266.5 Q162,310 231,310 Q333,310 398,239 L398,348 Q398,404 359,436 Q320,468 262,468 Q170,468 107,392 L84,412 Q121,455 162,475 Q203,495 262,495 Q336,495 382,457.5 Q428,420 428,349 M239,15 Q342,15 398,89 L398,209 Q342,283 239,283 Q174,283 134.5,244.5 Q95,206 95,149 Q95,92 134.5,53.5 Q174,15 239,15 M432,632 Q367,544 257,544 Q148,544 81,632 L102,651 Q159,571 257,571 Q355,571 412,651"/> 
            <glyph glyph-name="Ą" unicode="&#x104;" horiz-adv-x="668" d=" M643,-112 L668,-123 Q646,-186 585,-186 Q550,-186 527,-165 Q504,-144 504,-102 Q504,-70 523.5,-41 Q543,-12 575,7 L504,179 L132,179 L58,0 L21,0 L299,667 L337,667 L615,0 Q533,-39 533,-102 Q533,-159 585,-159 Q628,-159 643,-112 M492,209 L318,630 L144,209"/> 
            <glyph glyph-name="ą" unicode="&#x105;" horiz-adv-x="481" d=" M456,-112 L481,-123 Q459,-186 398,-186 Q363,-186 340,-165 Q317,-144 317,-102 Q317,-68 339.5,-37 Q362,-6 398,13 L398,59 Q333,-12 231,-12 Q163,-12 112.5,31.5 Q62,75 62,149 Q62,223 112,266.5 Q162,310 231,310 Q333,310 398,239 L398,348 Q398,404 359,436 Q320,468 262,468 Q170,468 107,392 L84,412 Q121,455 162,475 Q203,495 262,495 Q336,495 382,457.5 Q428,420 428,349 L428,0 Q346,-39 346,-102 Q346,-159 398,-159 Q441,-159 456,-112 M239,15 Q342,15 398,89 L398,209 Q342,283 239,283 Q174,283 134.5,244.5 Q95,206 95,149 Q95,92 134.5,53.5 Q174,15 239,15"/> 
            <glyph glyph-name="Ć" unicode="&#x106;" horiz-adv-x="631" d=" M552,867 L377,723 L347,723 L507,867 M398,-12 Q257,-12 161,85 Q65,182 65,333 Q65,484 161,581 Q257,678 398,678 Q539,678 630,573 L605,551 Q569,596 514.5,622 Q460,648 398,648 Q271,648 185.5,560 Q100,472 100,333 Q100,195 185.5,106.5 Q271,18 398,18 Q460,18 514.5,44 Q569,70 605,115 L631,94 Q537,-12 398,-12"/> 
            <glyph glyph-name="ć" unicode="&#x107;" horiz-adv-x="453" d=" M442,700 L267,556 L237,556 L397,700 M288,-12 Q186,-12 123,61.5 Q60,135 60,242 Q60,349 123,422 Q186,495 288,495 Q344,495 382,475 Q420,455 453,414 L431,396 Q378,468 290,468 Q199,468 146,403.5 Q93,339 93,242 Q93,144 146.5,79.5 Q200,15 290,15 Q377,15 431,88 L453,69 Q420,28 382,8 Q344,-12 288,-12"/> 
            <glyph glyph-name="Ĉ" unicode="&#x108;" horiz-adv-x="631" d=" M516,723 L488,723 L397,843 L309,723 L281,723 L379,867 L415,867 M398,-12 Q257,-12 161,85 Q65,182 65,333 Q65,484 161,581 Q257,678 398,678 Q539,678 630,573 L605,551 Q569,596 514.5,622 Q460,648 398,648 Q271,648 185.5,560 Q100,472 100,333 Q100,195 185.5,106.5 Q271,18 398,18 Q460,18 514.5,44 Q569,70 605,115 L631,94 Q537,-12 398,-12"/> 
            <glyph glyph-name="ĉ" unicode="&#x109;" horiz-adv-x="453" d=" M407,556 L379,556 L288,676 L200,556 L172,556 L270,700 L306,700 M288,-12 Q186,-12 123,61.5 Q60,135 60,242 Q60,349 123,422 Q186,495 288,495 Q344,495 382,475 Q420,455 453,414 L431,396 Q378,468 290,468 Q199,468 146,403.5 Q93,339 93,242 Q93,144 146.5,79.5 Q200,15 290,15 Q377,15 431,88 L453,69 Q420,28 382,8 Q344,-12 288,-12"/> 
            <glyph glyph-name="Ċ" unicode="&#x10A;" horiz-adv-x="631" d=" M398,-12 Q257,-12 161,85 Q65,182 65,333 Q65,484 161,581 Q257,678 398,678 Q539,678 630,573 L605,551 Q569,596 514.5,622 Q460,648 398,648 Q271,648 185.5,560 Q100,472 100,333 Q100,195 185.5,106.5 Q271,18 398,18 Q460,18 514.5,44 Q569,70 605,115 L631,94 Q537,-12 398,-12 M400,733 Q389,733 380,741.5 Q371,750 371,762 Q371,774 380,782.5 Q389,791 400,791 Q412,791 420.5,782.5 Q429,774 429,762 Q429,750 420.5,741.5 Q412,733 400,733"/> 
            <glyph glyph-name="ċ" unicode="&#x10B;" horiz-adv-x="453" d=" M288,-12 Q186,-12 123,61.5 Q60,135 60,242 Q60,349 123,422 Q186,495 288,495 Q344,495 382,475 Q420,455 453,414 L431,396 Q378,468 290,468 Q199,468 146,403.5 Q93,339 93,242 Q93,144 146.5,79.5 Q200,15 290,15 Q377,15 431,88 L453,69 Q420,28 382,8 Q344,-12 288,-12 M291,566 Q280,566 271,574.5 Q262,583 262,595 Q262,607 271,615.5 Q280,624 291,624 Q303,624 311.5,615.5 Q320,607 320,595 Q320,583 311.5,574.5 Q303,566 291,566"/> 
            <glyph glyph-name="Č" unicode="&#x10C;" horiz-adv-x="631" d=" M418,723 L382,723 L281,867 L309,867 L400,747 L488,867 L516,867 M398,-12 Q257,-12 161,85 Q65,182 65,333 Q65,484 161,581 Q257,678 398,678 Q539,678 630,573 L605,551 Q569,596 514.5,622 Q460,648 398,648 Q271,648 185.5,560 Q100,472 100,333 Q100,195 185.5,106.5 Q271,18 398,18 Q460,18 514.5,44 Q569,70 605,115 L631,94 Q537,-12 398,-12"/> 
            <glyph glyph-name="č" unicode="&#x10D;" horiz-adv-x="453" d=" M309,556 L273,556 L172,700 L200,700 L291,580 L379,700 L407,700 M288,-12 Q186,-12 123,61.5 Q60,135 60,242 Q60,349 123,422 Q186,495 288,495 Q344,495 382,475 Q420,455 453,414 L431,396 Q378,468 290,468 Q199,468 146,403.5 Q93,339 93,242 Q93,144 146.5,79.5 Q200,15 290,15 Q377,15 431,88 L453,69 Q420,28 382,8 Q344,-12 288,-12"/> 
            <glyph glyph-name="Ď" unicode="&#x10E;" horiz-adv-x="618" d=" M361,723 L325,723 L224,867 L252,867 L343,747 L431,867 L459,867 M286,0 L88,0 L88,667 L286,667 Q436,667 527,569.5 Q618,472 618,333 Q618,193 527.5,96.5 Q437,0 286,0 M286,30 Q424,30 503.5,116 Q583,202 583,333 Q583,463 503,550 Q423,637 286,637 L120,637 L120,30"/> 
            <glyph glyph-name="ď" unicode="&#x10F;" horiz-adv-x="608" d=" M608,627 Q608,591 590,557.5 Q572,524 546,506 L524,524 Q548,542 562.5,567.5 Q577,593 577,616 Q571,615 569,615 Q555,615 546,624.5 Q537,634 537,648 Q537,661 546,670.5 Q555,680 569,680 Q585,680 596.5,666 Q608,652 608,627 M480,0 L450,0 L450,81 Q424,41 377,14.5 Q330,-12 276,-12 Q178,-12 119,57 Q60,126 60,241 Q60,355 119.5,425 Q179,495 276,495 Q329,495 374.5,469.5 Q420,444 450,400 L450,667 L480,667 M276,15 Q330,15 378,43 Q426,71 450,111 L450,370 Q426,410 378,439 Q330,468 276,468 Q190,468 141.5,404 Q93,340 93,241 Q93,142 141.5,78.5 Q190,15 276,15"/> 
            <glyph glyph-name="Đ" unicode="&#x110;" horiz-adv-x="649" d=" M317,0 L119,0 L119,318 L12,318 L12,348 L119,348 L119,667 L317,667 Q467,667 558,569.5 Q649,472 649,333 Q649,193 558.5,96.5 Q468,0 317,0 M317,30 Q455,30 534.5,116 Q614,202 614,333 Q614,463 534,550 Q454,637 317,637 L151,637 L151,348 L339,348 L339,318 L151,318 L151,30"/> 
            <glyph glyph-name="đ" unicode="&#x111;" horiz-adv-x="557" d=" M480,0 L450,0 L450,81 Q424,41 377,14.5 Q330,-12 276,-12 Q178,-12 119,57 Q60,126 60,241 Q60,355 119.5,425 Q179,495 276,495 Q329,495 374.5,469.5 Q420,444 450,400 L450,541 L284,541 L284,568 L450,568 L450,667 L480,667 L480,568 L557,568 L557,541 L480,541 M276,15 Q330,15 378,43 Q426,71 450,111 L450,370 Q426,410 378,439 Q330,468 276,468 Q190,468 141.5,404 Q93,340 93,241 Q93,142 141.5,78.5 Q190,15 276,15"/> 
            <glyph glyph-name="Ē" unicode="&#x112;" horiz-adv-x="496" d=" M496,0 L88,0 L88,667 L496,667 L496,637 L120,637 L120,358 L489,358 L489,328 L120,328 L120,30 L496,30 M471,748 L108,748 L108,775 L471,775"/> 
            <glyph glyph-name="ē" unicode="&#x113;" horiz-adv-x="511" d=" M297,-12 Q192,-12 126,59.5 Q60,131 60,242 Q60,348 125,421.5 Q190,495 287,495 Q393,495 452,422 Q511,349 511,242 L511,232 L94,232 Q96,140 151.5,77.5 Q207,15 297,15 Q397,15 465,88 L483,69 Q405,-12 297,-12 M479,259 Q479,308 459,354.5 Q439,401 393.5,434.5 Q348,468 286,468 Q199,468 148,403.5 Q97,339 94,259 M467,581 L104,581 L104,608 L467,608"/> 
            <glyph glyph-name="Ĕ" unicode="&#x114;" horiz-adv-x="496" d=" M496,0 L88,0 L88,667 L496,667 L496,637 L120,637 L120,358 L489,358 L489,328 L120,328 L120,30 L496,30 M468,799 Q403,711 293,711 Q184,711 117,799 L138,818 Q195,738 293,738 Q391,738 448,818"/> 
            <glyph glyph-name="ĕ" unicode="&#x115;" horiz-adv-x="511" d=" M297,-12 Q192,-12 126,59.5 Q60,131 60,242 Q60,348 125,421.5 Q190,495 287,495 Q393,495 452,422 Q511,349 511,242 L511,232 L94,232 Q96,140 151.5,77.5 Q207,15 297,15 Q397,15 465,88 L483,69 Q405,-12 297,-12 M479,259 Q479,308 459,354.5 Q439,401 393.5,434.5 Q348,468 286,468 Q199,468 148,403.5 Q97,339 94,259 M465,632 Q400,544 290,544 Q181,544 114,632 L135,651 Q192,571 290,571 Q388,571 445,651"/> 
            <glyph glyph-name="Ė" unicode="&#x116;" horiz-adv-x="496" d=" M496,0 L88,0 L88,667 L496,667 L496,637 L120,637 L120,358 L489,358 L489,328 L120,328 L120,30 L496,30 M299,733 Q288,733 279,741.5 Q270,750 270,762 Q270,774 279,782.5 Q288,791 299,791 Q311,791 319.5,782.5 Q328,774 328,762 Q328,750 319.5,741.5 Q311,733 299,733"/> 
            <glyph glyph-name="ė" unicode="&#x117;" horiz-adv-x="511" d=" M297,-12 Q192,-12 126,59.5 Q60,131 60,242 Q60,348 125,421.5 Q190,495 287,495 Q393,495 452,422 Q511,349 511,242 L511,232 L94,232 Q96,140 151.5,77.5 Q207,15 297,15 Q397,15 465,88 L483,69 Q405,-12 297,-12 M479,259 Q479,308 459,354.5 Q439,401 393.5,434.5 Q348,468 286,468 Q199,468 148,403.5 Q97,339 94,259 M288,566 Q277,566 268,574.5 Q259,583 259,595 Q259,607 268,615.5 Q277,624 288,624 Q300,624 308.5,615.5 Q317,607 317,595 Q317,583 308.5,574.5 Q300,566 288,566"/> 
            <glyph glyph-name="Ę" unicode="&#x118;" horiz-adv-x="549" d=" M496,0 Q414,-39 414,-102 Q414,-159 466,-159 Q509,-159 524,-112 L549,-123 Q527,-186 466,-186 Q431,-186 408,-165 Q385,-144 385,-102 Q385,-43 445,0 L88,0 L88,667 L496,667 L496,637 L120,637 L120,358 L489,358 L489,328 L120,328 L120,30 L496,30"/> 
            <glyph glyph-name="ę" unicode="&#x119;" horiz-adv-x="511" d=" M297,-12 Q192,-12 126,59.5 Q60,131 60,242 Q60,348 125,421.5 Q190,495 287,495 Q393,495 452,422 Q511,349 511,242 L511,232 L94,232 Q96,140 151.5,77.5 Q207,15 297,15 Q397,15 465,88 L483,69 Q434,18 378,0 Q296,-39 296,-102 Q296,-159 348,-159 Q391,-159 406,-112 L431,-123 Q409,-186 348,-186 Q313,-186 290,-165 Q267,-144 267,-102 Q267,-53 312,-11 Q310,-11 305,-11.5 Q300,-12 297,-12 M479,259 Q479,308 459,354.5 Q439,401 393.5,434.5 Q348,468 286,468 Q199,468 148,403.5 Q97,339 94,259"/> 
            <glyph glyph-name="Ě" unicode="&#x11A;" horiz-adv-x="496" d=" M313,723 L277,723 L176,867 L204,867 L295,747 L383,867 L411,867 M496,0 L88,0 L88,667 L496,667 L496,637 L120,637 L120,358 L489,358 L489,328 L120,328 L120,30 L496,30"/> 
            <glyph glyph-name="ě" unicode="&#x11B;" horiz-adv-x="511" d=" M308,556 L272,556 L171,700 L199,700 L290,580 L378,700 L406,700 M297,-12 Q192,-12 126,59.5 Q60,131 60,242 Q60,348 125,421.5 Q190,495 287,495 Q393,495 452,422 Q511,349 511,242 L511,232 L94,232 Q96,140 151.5,77.5 Q207,15 297,15 Q397,15 465,88 L483,69 Q405,-12 297,-12 M479,259 Q479,308 459,354.5 Q439,401 393.5,434.5 Q348,468 286,468 Q199,468 148,403.5 Q97,339 94,259"/> 
            <glyph glyph-name="Ĝ" unicode="&#x11C;" horiz-adv-x="642" d=" M521,723 L493,723 L402,843 L314,723 L286,723 L384,867 L420,867 M398,-13 Q257,-13 161,84 Q65,181 65,333 Q65,484 161,581 Q257,678 398,678 Q542,678 642,575 L621,553 Q582,598 523,623 Q464,648 398,648 Q271,648 185.5,560 Q100,472 100,333 Q100,195 185.5,106 Q271,17 398,17 Q465,17 520,43.5 Q575,70 610,107 L610,290 L335,290 L335,320 L642,320 L642,94 Q598,45 534.5,16 Q471,-13 398,-13"/> 
            <glyph glyph-name="ĝ" unicode="&#x11D;" horiz-adv-x="480" d=" M402,556 L374,556 L283,676 L195,556 L167,556 L265,700 L301,700 M276,-196 Q213,-196 172.5,-181 Q132,-166 91,-123 L113,-98 Q144,-137 181.5,-153 Q219,-169 276,-169 Q353,-169 401.5,-127.5 Q450,-86 450,-3 L450,81 Q423,41 376.5,13.5 Q330,-14 276,-14 Q178,-14 119,55.5 Q60,125 60,240 Q60,354 119.5,424.5 Q179,495 276,495 Q329,495 374.5,469.5 Q420,444 450,400 L450,483 L480,483 L480,-3 Q480,-102 424.5,-149 Q369,-196 276,-196 M276,13 Q330,13 378,42 Q426,71 450,111 L450,370 Q426,410 378,439 Q330,468 276,468 Q190,468 141.5,403.5 Q93,339 93,240 Q93,141 141.5,77 Q190,13 276,13"/> 
            <glyph glyph-name="Ğ" unicode="&#x11E;" horiz-adv-x="642" d=" M398,-13 Q257,-13 161,84 Q65,181 65,333 Q65,484 161,581 Q257,678 398,678 Q542,678 642,575 L621,553 Q582,598 523,623 Q464,648 398,648 Q271,648 185.5,560 Q100,472 100,333 Q100,195 185.5,106 Q271,17 398,17 Q465,17 520,43.5 Q575,70 610,107 L610,290 L335,290 L335,320 L642,320 L642,94 Q598,45 534.5,16 Q471,-13 398,-13 M577,799 Q512,711 402,711 Q293,711 226,799 L247,818 Q304,738 402,738 Q500,738 557,818"/> 
            <glyph glyph-name="ğ" unicode="&#x11F;" horiz-adv-x="480" d=" M276,-196 Q213,-196 172.5,-181 Q132,-166 91,-123 L113,-98 Q144,-137 181.5,-153 Q219,-169 276,-169 Q353,-169 401.5,-127.5 Q450,-86 450,-3 L450,81 Q423,41 376.5,13.5 Q330,-14 276,-14 Q178,-14 119,55.5 Q60,125 60,240 Q60,354 119.5,424.5 Q179,495 276,495 Q329,495 374.5,469.5 Q420,444 450,400 L450,483 L480,483 L480,-3 Q480,-102 424.5,-149 Q369,-196 276,-196 M276,13 Q330,13 378,42 Q426,71 450,111 L450,370 Q426,410 378,439 Q330,468 276,468 Q190,468 141.5,403.5 Q93,339 93,240 Q93,141 141.5,77 Q190,13 276,13 M458,632 Q393,544 283,544 Q174,544 107,632 L128,651 Q185,571 283,571 Q381,571 438,651"/> 
            <glyph glyph-name="Ġ" unicode="&#x120;" horiz-adv-x="642" d=" M398,-13 Q257,-13 161,84 Q65,181 65,333 Q65,484 161,581 Q257,678 398,678 Q542,678 642,575 L621,553 Q582,598 523,623 Q464,648 398,648 Q271,648 185.5,560 Q100,472 100,333 Q100,195 185.5,106 Q271,17 398,17 Q465,17 520,43.5 Q575,70 610,107 L610,290 L335,290 L335,320 L642,320 L642,94 Q598,45 534.5,16 Q471,-13 398,-13 M401,733 Q390,733 381,741.5 Q372,750 372,762 Q372,774 381,782.5 Q390,791 401,791 Q413,791 421.5,782.5 Q430,774 430,762 Q430,750 421.5,741.5 Q413,733 401,733"/> 
            <glyph glyph-name="ġ" unicode="&#x121;" horiz-adv-x="480" d=" M276,-196 Q213,-196 172.5,-181 Q132,-166 91,-123 L113,-98 Q144,-137 181.5,-153 Q219,-169 276,-169 Q353,-169 401.5,-127.5 Q450,-86 450,-3 L450,81 Q423,41 376.5,13.5 Q330,-14 276,-14 Q178,-14 119,55.5 Q60,125 60,240 Q60,354 119.5,424.5 Q179,495 276,495 Q329,495 374.5,469.5 Q420,444 450,400 L450,483 L480,483 L480,-3 Q480,-102 424.5,-149 Q369,-196 276,-196 M276,13 Q330,13 378,42 Q426,71 450,111 L450,370 Q426,410 378,439 Q330,468 276,468 Q190,468 141.5,403.5 Q93,339 93,240 Q93,141 141.5,77 Q190,13 276,13 M281,566 Q270,566 261,574.5 Q252,583 252,595 Q252,607 261,615.5 Q270,624 281,624 Q293,624 301.5,615.5 Q310,607 310,595 Q310,583 301.5,574.5 Q293,566 281,566"/> 
            <glyph glyph-name="Ģ" unicode="&#x122;" horiz-adv-x="642" d=" M439,-137 Q439,-173 421,-206.5 Q403,-240 377,-258 L355,-240 Q379,-222 393.5,-196.5 Q408,-171 408,-148 Q402,-149 400,-149 Q386,-149 377,-139.5 Q368,-130 368,-116 Q368,-103 377,-93.5 Q386,-84 400,-84 Q416,-84 427.5,-98 Q439,-112 439,-137 M398,-13 Q257,-13 161,84 Q65,181 65,333 Q65,484 161,581 Q257,678 398,678 Q542,678 642,575 L621,553 Q582,598 523,623 Q464,648 398,648 Q271,648 185.5,560 Q100,472 100,333 Q100,195 185.5,106 Q271,17 398,17 Q465,17 520,43.5 Q575,70 610,107 L610,290 L335,290 L335,320 L642,320 L642,94 Q598,45 534.5,16 Q471,-13 398,-13"/> 
            <glyph glyph-name="ģ" unicode="&#x123;" horiz-adv-x="480" d=" M241,610 Q241,650 259.5,686.5 Q278,723 301,739 L325,720 Q301,702 286.5,676.5 Q272,651 272,628 Q274,629 276,629 Q288,629 298.5,619 Q309,609 309,596 Q309,584 299.5,574 Q290,564 276,564 Q260,564 250.5,577 Q241,590 241,610 M276,-196 Q213,-196 172.5,-181 Q132,-166 91,-123 L113,-98 Q144,-137 181.5,-153 Q219,-169 276,-169 Q353,-169 401.5,-127.5 Q450,-86 450,-3 L450,81 Q423,41 376.5,13.5 Q330,-14 276,-14 Q178,-14 119,55.5 Q60,125 60,240 Q60,354 119.5,424.5 Q179,495 276,495 Q329,495 374.5,469.5 Q420,444 450,400 L450,483 L480,483 L480,-3 Q480,-102 424.5,-149 Q369,-196 276,-196 M276,13 Q330,13 378,42 Q426,71 450,111 L450,370 Q426,410 378,439 Q330,468 276,468 Q190,468 141.5,403.5 Q93,339 93,240 Q93,141 141.5,77 Q190,13 276,13"/> 
            <glyph glyph-name="Ĥ" unicode="&#x124;" horiz-adv-x="607" d=" M462,723 L434,723 L343,843 L255,723 L227,723 L325,867 L361,867 M607,0 L575,0 L575,328 L120,328 L120,0 L88,0 L88,667 L120,667 L120,358 L575,358 L575,667 L607,667"/> 
            <glyph glyph-name="ĥ" unicode="&#x125;" horiz-adv-x="442" d=" M385,723 L357,723 L266,843 L178,723 L150,723 L248,867 L284,867 M442,0 L412,0 L412,339 Q412,411 380,439.5 Q348,468 287,468 Q239,468 191,441.5 Q143,415 116,377 L116,0 L86,0 L86,667 L116,667 L116,407 Q145,442 194,468.5 Q243,495 291,495 Q366,495 404,458.5 Q442,422 442,339"/> 
            <glyph glyph-name="Ħ" unicode="&#x126;" horiz-adv-x="705" d=" M619,0 L587,0 L587,328 L132,328 L132,0 L100,0 L100,501 L12,501 L12,528 L100,528 L100,667 L132,667 L132,528 L587,528 L587,667 L619,667 L619,528 L705,528 L705,501 L619,501 M132,358 L587,358 L587,501 L132,501"/> 
            <glyph glyph-name="ħ" unicode="&#x127;" horiz-adv-x="442" d=" M282,541 L116,541 L116,407 Q145,442 194,468.5 Q243,495 291,495 Q366,495 404,458.5 Q442,422 442,339 L442,0 L412,0 L412,339 Q412,411 380,439.5 Q348,468 287,468 Q239,468 191,441.5 Q143,415 116,377 L116,0 L86,0 L86,541 L10,541 L10,568 L86,568 L86,667 L116,667 L116,568 L282,568"/> 
            <glyph glyph-name="Ĩ" unicode="&#x128;" horiz-adv-x="254" d=" M120,0 L88,0 L88,667 L120,667 M166,721 Q140,721 121.5,738.5 Q103,756 94.5,777.5 Q86,799 71.5,816.5 Q57,834 38,834 Q12,834 -4.5,807.5 Q-21,781 -21,727 L-47,727 Q-47,784 -23.5,822.5 Q0,861 41,861 Q67,861 85.5,843.5 Q104,826 112.5,804.5 Q121,783 135.5,765.5 Q150,748 169,748 Q195,748 211.5,774.5 Q228,801 228,855 L254,855 Q254,798 230.5,759.5 Q207,721 166,721"/> 
            <glyph glyph-name="ĩ" unicode="&#x129;" horiz-adv-x="251" d=" M116,0 L86,0 L86,483 L116,483 M163,554 Q137,554 118.5,571.5 Q100,589 91.5,610.5 Q83,632 68.5,649.5 Q54,667 35,667 Q9,667 -7.5,640.5 Q-24,614 -24,560 L-50,560 Q-50,617 -26.5,655.5 Q-3,694 38,694 Q64,694 82.5,676.5 Q101,659 109.5,637.5 Q118,616 132.5,598.5 Q147,581 166,581 Q192,581 208.5,607.5 Q225,634 225,688 L251,688 Q251,631 227.5,592.5 Q204,554 163,554"/> 
            <glyph glyph-name="Ī" unicode="&#x12A;" horiz-adv-x="286" d=" M120,0 L88,0 L88,667 L120,667 M286,748 L-77,748 L-77,775 L286,775"/> 
            <glyph glyph-name="ī" unicode="&#x12B;" horiz-adv-x="283" d=" M116,0 L86,0 L86,483 L116,483 M283,581 L-80,581 L-80,608 L283,608"/> 
            <glyph glyph-name="Ĭ" unicode="&#x12C;" horiz-adv-x="280" d=" M120,0 L88,0 L88,667 L120,667 M280,799 Q215,711 105,711 Q-4,711 -71,799 L-50,818 Q7,738 105,738 Q203,738 260,818"/> 
            <glyph glyph-name="ĭ" unicode="&#x12D;" horiz-adv-x="277" d=" M116,0 L86,0 L86,483 L116,483 M277,632 Q212,544 102,544 Q-7,544 -74,632 L-53,651 Q4,571 102,571 Q200,571 257,651"/> 
            <glyph glyph-name="Į" unicode="&#x12E;" horiz-adv-x="173" d=" M148,-112 L173,-123 Q151,-186 90,-186 Q55,-186 32,-165 Q9,-144 9,-102 Q9,-69 31,-38.5 Q53,-8 88,12 L88,667 L120,667 L120,0 Q38,-39 38,-102 Q38,-159 90,-159 Q133,-159 148,-112"/> 
            <glyph glyph-name="į" unicode="&#x12F;" horiz-adv-x="169" d=" M144,-112 L169,-123 Q147,-186 86,-186 Q51,-186 28,-165 Q5,-144 5,-102 Q5,-68 27.5,-37 Q50,-6 86,13 L86,483 L116,483 L116,0 Q34,-39 34,-102 Q34,-159 86,-159 Q129,-159 144,-112 M101,566 Q90,566 81,574.5 Q72,583 72,595 Q72,607 81,615.5 Q90,624 101,624 Q113,624 121.5,615.5 Q130,607 130,595 Q130,583 121.5,574.5 Q113,566 101,566"/> 
            <glyph glyph-name="İ" unicode="&#x130;" horiz-adv-x="133" d=" M120,0 L88,0 L88,667 L120,667 M104,733 Q93,733 84,741.5 Q75,750 75,762 Q75,774 84,782.5 Q93,791 104,791 Q116,791 124.5,782.5 Q133,774 133,762 Q133,750 124.5,741.5 Q116,733 104,733"/> 
            <glyph glyph-name="ı" unicode="&#x131;" horiz-adv-x="116" d=" M116,0 L86,0 L86,483 L116,483"/> 
            <glyph glyph-name="Ĳ" unicode="&#x132;" horiz-adv-x="585" d=" M120,0 L88,0 L88,667 L120,667 M393,-12 Q286,-12 224,75 L251,99 Q308,18 393,18 Q466,18 509.5,64.5 Q553,111 553,185 L553,667 L585,667 L585,185 Q585,90 530,39 Q475,-12 393,-12"/> 
            <glyph glyph-name="ĳ" unicode="&#x133;" horiz-adv-x="332" d=" M101,566 Q90,566 81,574.5 Q72,583 72,595 Q72,607 81,615.5 Q90,624 101,624 Q113,624 121.5,615.5 Q130,607 130,595 Q130,583 121.5,574.5 Q113,566 101,566 M116,0 L86,0 L86,483 L116,483 M303,566 Q292,566 283,574.5 Q274,583 274,595 Q274,607 283,615.5 Q292,624 303,624 Q315,624 323.5,615.5 Q332,607 332,595 Q332,583 323.5,574.5 Q315,566 303,566 M199,-196 Q148,-196 107,-158 L126,-133 Q158,-169 199,-169 Q239,-169 263.5,-146 Q288,-123 288,-76 L288,483 L318,483 L318,-76 Q318,-196 199,-196"/> 
            <glyph glyph-name="Ĵ" unicode="&#x134;" horiz-adv-x="478" d=" M478,723 L450,723 L359,843 L271,723 L243,723 L341,867 L377,867 M185,-12 Q78,-12 16,75 L43,99 Q100,18 185,18 Q258,18 301.5,64.5 Q345,111 345,185 L345,667 L377,667 L377,185 Q377,90 322,39 Q267,-12 185,-12"/> 
            <glyph glyph-name="ĵ" unicode="&#x135;" horiz-adv-x="220" d=" M220,556 L192,556 L101,676 L13,556 L-15,556 L83,700 L119,700 M-3,-196 Q-54,-196 -95,-158 L-76,-133 Q-44,-169 -3,-169 Q37,-169 61.5,-146 Q86,-123 86,-76 L86,483 L116,483 L116,-76 Q116,-196 -3,-196"/> 
            <glyph glyph-name="Ķ" unicode="&#x136;" horiz-adv-x="540" d=" M330,-137 Q330,-173 312,-206.5 Q294,-240 268,-258 L246,-240 Q270,-222 284.5,-196.5 Q299,-171 299,-148 Q293,-149 291,-149 Q277,-149 268,-139.5 Q259,-130 259,-116 Q259,-103 268,-93.5 Q277,-84 291,-84 Q307,-84 318.5,-98 Q330,-112 330,-137 M540,0 L497,0 L200,328 L120,241 L120,0 L88,0 L88,667 L120,667 L120,282 L467,667 L510,667 L220,348"/> 
            <glyph glyph-name="ķ" unicode="&#x137;" horiz-adv-x="474" d=" M293,-137 Q293,-173 275,-206.5 Q257,-240 231,-258 L209,-240 Q233,-222 247.5,-196.5 Q262,-171 262,-148 Q256,-149 254,-149 Q240,-149 231,-139.5 Q222,-130 222,-116 Q222,-103 231,-93.5 Q240,-84 254,-84 Q270,-84 281.5,-98 Q293,-112 293,-137 M471,0 L428,0 L216,243 L116,151 L116,0 L86,0 L86,667 L116,667 L116,189 L431,483 L474,483 L239,265"/> 
            <glyph glyph-name="ĸ" unicode="&#x138;" horiz-adv-x="474" d=" M471,0 L428,0 L216,243 L116,151 L116,0 L86,0 L86,483 L116,483 L116,189 L431,483 L474,483 L239,265"/> 
            <glyph glyph-name="Ĺ" unicode="&#x139;" horiz-adv-x="455" d=" M425,867 L250,723 L220,723 L380,867 M455,0 L88,0 L88,667 L120,667 L120,30 L455,30"/> 
            <glyph glyph-name="ĺ" unicode="&#x13A;" horiz-adv-x="255" d=" M255,867 L80,723 L50,723 L210,867 M116,0 L86,0 L86,667 L116,667"/> 
            <glyph glyph-name="Ļ" unicode="&#x13B;" horiz-adv-x="455" d=" M313,-137 Q313,-173 295,-206.5 Q277,-240 251,-258 L229,-240 Q253,-222 267.5,-196.5 Q282,-171 282,-148 Q276,-149 274,-149 Q260,-149 251,-139.5 Q242,-130 242,-116 Q242,-103 251,-93.5 Q260,-84 274,-84 Q290,-84 301.5,-98 Q313,-112 313,-137 M455,0 L88,0 L88,667 L120,667 L120,30 L455,30"/> 
            <glyph glyph-name="ļ" unicode="&#x13C;" horiz-adv-x="146" d=" M146,-137 Q146,-173 128,-206.5 Q110,-240 84,-258 L62,-240 Q86,-222 100.5,-196.5 Q115,-171 115,-148 Q109,-149 107,-149 Q93,-149 84,-139.5 Q75,-130 75,-116 Q75,-103 84,-93.5 Q93,-84 107,-84 Q123,-84 134.5,-98 Q146,-112 146,-137 M116,0 L86,0 L86,667 L116,667"/> 
            <glyph glyph-name="Ľ" unicode="&#x13D;" horiz-adv-x="455" d=" M298,626 Q298,590 280,556.5 Q262,523 236,505 L214,523 Q238,541 252.5,566.5 Q267,592 267,615 Q261,614 259,614 Q245,614 236,623.5 Q227,633 227,647 Q227,660 236,669.5 Q245,679 259,679 Q275,679 286.5,665 Q298,651 298,626 M455,0 L88,0 L88,667 L120,667 L120,30 L455,30"/> 
            <glyph glyph-name="ľ" unicode="&#x13E;" horiz-adv-x="259" d=" M259,626 Q259,590 241,556.5 Q223,523 197,505 L175,523 Q199,541 213.5,566.5 Q228,592 228,615 Q222,614 220,614 Q206,614 197,623.5 Q188,633 188,647 Q188,660 197,669.5 Q206,679 220,679 Q236,679 247.5,665 Q259,651 259,626 M116,0 L86,0 L86,667 L116,667"/> 
            <glyph glyph-name="Ŀ" unicode="&#x13F;" horiz-adv-x="455" d=" M455,0 L88,0 L88,667 L120,667 L120,30 L455,30 M378,342 Q378,328 368,318.5 Q358,309 345,309 Q332,309 322,318.5 Q312,328 312,342 Q312,355 322,364.5 Q332,374 345,374 Q358,374 368,364.5 Q378,355 378,342"/> 
            <glyph glyph-name="ŀ" unicode="&#x140;" horiz-adv-x="254" d=" M116,0 L86,0 L86,667 L116,667 M254,258 Q254,232 244,222 Q234,212 221,212 Q208,212 198,222 Q188,232 188,245 Q188,258 198,267.5 Q208,277 221,277 Q234,277 254,258"/> 
            <glyph glyph-name="Ł" unicode="&#x141;" horiz-adv-x="479" d=" M12,246 L12,280 L112,338 L112,667 L144,667 L144,356 L258,423 L258,389 L144,322 L144,30 L479,30 L479,0 L112,0 L112,304"/> 
            <glyph glyph-name="ł" unicode="&#x142;" horiz-adv-x="256" d=" M12,248 L12,280 L119,341 L119,667 L149,667 L149,358 L256,420 L256,388 L149,326 L149,0 L119,0 L119,309"/> 
            <glyph glyph-name="Ń" unicode="&#x143;" horiz-adv-x="602" d=" M520,867 L345,723 L315,723 L475,867 M602,0 L570,0 L120,615 L120,0 L88,0 L88,667 L120,667 L570,58 L570,667 L602,667"/> 
            <glyph glyph-name="ń" unicode="&#x144;" horiz-adv-x="442" d=" M418,700 L243,556 L213,556 L373,700 M442,0 L412,0 L412,337 Q412,409 380,438.5 Q348,468 287,468 Q239,468 191,441.5 Q143,415 116,377 L116,0 L86,0 L86,483 L116,483 L116,407 Q145,442 194,468.5 Q243,495 291,495 Q366,495 404,457.5 Q442,420 442,337"/> 
            <glyph glyph-name="Ņ" unicode="&#x145;" horiz-adv-x="602" d=" M390,-137 Q390,-173 372,-206.5 Q354,-240 328,-258 L306,-240 Q330,-222 344.5,-196.5 Q359,-171 359,-148 Q353,-149 351,-149 Q337,-149 328,-139.5 Q319,-130 319,-116 Q319,-103 328,-93.5 Q337,-84 351,-84 Q367,-84 378.5,-98 Q390,-112 390,-137 M602,0 L570,0 L120,615 L120,0 L88,0 L88,667 L120,667 L570,58 L570,667 L602,667"/> 
            <glyph glyph-name="ņ" unicode="&#x146;" horiz-adv-x="442" d=" M309,-137 Q309,-173 291,-206.5 Q273,-240 247,-258 L225,-240 Q249,-222 263.5,-196.5 Q278,-171 278,-148 Q272,-149 270,-149 Q256,-149 247,-139.5 Q238,-130 238,-116 Q238,-103 247,-93.5 Q256,-84 270,-84 Q286,-84 297.5,-98 Q309,-112 309,-137 M442,0 L412,0 L412,337 Q412,409 380,438.5 Q348,468 287,468 Q239,468 191,441.5 Q143,415 116,377 L116,0 L86,0 L86,483 L116,483 L116,407 Q145,442 194,468.5 Q243,495 291,495 Q366,495 404,457.5 Q442,420 442,337"/> 
            <glyph glyph-name="Ň" unicode="&#x147;" horiz-adv-x="602" d=" M364,723 L328,723 L227,867 L255,867 L346,747 L434,867 L462,867 M602,0 L570,0 L120,615 L120,0 L88,0 L88,667 L120,667 L570,58 L570,667 L602,667"/> 
            <glyph glyph-name="ň" unicode="&#x148;" horiz-adv-x="442" d=" M283,556 L247,556 L146,700 L174,700 L265,580 L353,700 L381,700 M442,0 L412,0 L412,337 Q412,409 380,438.5 Q348,468 287,468 Q239,468 191,441.5 Q143,415 116,377 L116,0 L86,0 L86,483 L116,483 L116,407 Q145,442 194,468.5 Q243,495 291,495 Q366,495 404,457.5 Q442,420 442,337"/> 
            <glyph glyph-name="ŉ" unicode="&#x149;" horiz-adv-x="442" d=" M149,672 Q149,636 131,602.5 Q113,569 87,551 L65,569 Q89,587 103.5,612.5 Q118,638 118,661 Q112,660 110,660 Q96,660 87,669.5 Q78,679 78,693 Q78,706 87,715.5 Q96,725 110,725 Q126,725 137.5,711 Q149,697 149,672 M442,0 L412,0 L412,337 Q412,409 380,438.5 Q348,468 287,468 Q239,468 191,441.5 Q143,415 116,377 L116,0 L86,0 L86,483 L116,483 L116,407 Q145,442 194,468.5 Q243,495 291,495 Q366,495 404,457.5 Q442,420 442,337"/> 
            <glyph glyph-name="Ŋ" unicode="&#x14A;" horiz-adv-x="602" d=" M410,-196 Q303,-196 241,-109 L268,-85 Q325,-166 410,-166 Q484,-166 527,-121 Q570,-76 570,-2 L570,0 L120,615 L120,0 L88,0 L88,667 L120,667 L570,58 L570,667 L602,667 L602,-2 Q602,-97 547.5,-146.5 Q493,-196 410,-196"/> 
            <glyph glyph-name="ŋ" unicode="&#x14B;" horiz-adv-x="442" d=" M442,337 L442,-76 Q442,-196 323,-196 Q272,-196 231,-158 L250,-133 Q282,-169 323,-169 Q363,-169 387.5,-146 Q412,-123 412,-76 L412,337 Q412,409 380,438.5 Q348,468 287,468 Q239,468 191,441.5 Q143,415 116,377 L116,0 L86,0 L86,483 L116,483 L116,407 Q145,442 194,468.5 Q243,495 291,495 Q366,495 404,457.5 Q442,420 442,337"/> 
            <glyph glyph-name="Ō" unicode="&#x14C;" horiz-adv-x="699" d=" M563,748 L200,748 L200,775 L563,775 M382,-12 Q239,-12 152,86.5 Q65,185 65,333 Q65,481 152,579.5 Q239,678 382,678 Q524,678 611.5,579.5 Q699,481 699,333 Q699,185 611.5,86.5 Q524,-12 382,-12 M382,18 Q509,18 586.5,106.5 Q664,195 664,333 Q664,472 586.5,560 Q509,648 382,648 Q254,648 177,560 Q100,472 100,333 Q100,195 177,106.5 Q254,18 382,18"/> 
            <glyph glyph-name="ō" unicode="&#x14D;" horiz-adv-x="510" d=" M466,581 L103,581 L103,608 L466,608 M285,-12 Q185,-12 122.5,60.5 Q60,133 60,242 Q60,350 122.5,422.5 Q185,495 285,495 Q386,495 448,423 Q510,351 510,242 Q510,133 448,60.5 Q386,-12 285,-12 M285,15 Q374,15 425.5,81.5 Q477,148 477,242 Q477,335 425.5,401.5 Q374,468 285,468 Q197,468 145,401.5 Q93,335 93,242 Q93,148 145,81.5 Q197,15 285,15"/> 
            <glyph glyph-name="Ŏ" unicode="&#x14E;" horiz-adv-x="699" d=" M382,-12 Q239,-12 152,86.5 Q65,185 65,333 Q65,481 152,579.5 Q239,678 382,678 Q524,678 611.5,579.5 Q699,481 699,333 Q699,185 611.5,86.5 Q524,-12 382,-12 M382,18 Q509,18 586.5,106.5 Q664,195 664,333 Q664,472 586.5,560 Q509,648 382,648 Q254,648 177,560 Q100,472 100,333 Q100,195 177,106.5 Q254,18 382,18 M556,799 Q491,711 381,711 Q272,711 205,799 L226,818 Q283,738 381,738 Q479,738 536,818"/> 
            <glyph glyph-name="ŏ" unicode="&#x14F;" horiz-adv-x="510" d=" M285,-12 Q185,-12 122.5,60.5 Q60,133 60,242 Q60,350 122.5,422.5 Q185,495 285,495 Q386,495 448,423 Q510,351 510,242 Q510,133 448,60.5 Q386,-12 285,-12 M285,15 Q374,15 425.5,81.5 Q477,148 477,242 Q477,335 425.5,401.5 Q374,468 285,468 Q197,468 145,401.5 Q93,335 93,242 Q93,148 145,81.5 Q197,15 285,15 M462,632 Q397,544 287,544 Q178,544 111,632 L132,651 Q189,571 287,571 Q385,571 442,651"/> 
            <glyph glyph-name="Ő" unicode="&#x150;" horiz-adv-x="699" d=" M424,867 L309,723 L283,723 L383,867 M560,867 L445,723 L419,723 L519,867 M382,-12 Q239,-12 152,86.5 Q65,185 65,333 Q65,481 152,579.5 Q239,678 382,678 Q524,678 611.5,579.5 Q699,481 699,333 Q699,185 611.5,86.5 Q524,-12 382,-12 M382,18 Q509,18 586.5,106.5 Q664,195 664,333 Q664,472 586.5,560 Q509,648 382,648 Q254,648 177,560 Q100,472 100,333 Q100,195 177,106.5 Q254,18 382,18"/> 
            <glyph glyph-name="ő" unicode="&#x151;" horiz-adv-x="510" d=" M327,700 L212,556 L186,556 L286,700 M463,700 L348,556 L322,556 L422,700 M285,-12 Q185,-12 122.5,60.5 Q60,133 60,242 Q60,350 122.5,422.5 Q185,495 285,495 Q386,495 448,423 Q510,351 510,242 Q510,133 448,60.5 Q386,-12 285,-12 M285,15 Q374,15 425.5,81.5 Q477,148 477,242 Q477,335 425.5,401.5 Q374,468 285,468 Q197,468 145,401.5 Q93,335 93,242 Q93,148 145,81.5 Q197,15 285,15"/> 
            <glyph glyph-name="Œ" unicode="&#x152;" horiz-adv-x="1059" d=" M1059,0 L651,0 L651,157 Q612,76 540,32 Q468,-12 382,-12 Q239,-12 152,86.5 Q65,185 65,333 Q65,481 152,579 Q239,677 382,677 Q468,677 540,633.5 Q612,590 651,510 L651,667 L1059,667 L1059,637 L683,637 L683,358 L1052,358 L1052,328 L683,328 L683,30 L1059,30 M651,218 L651,449 Q617,547 546.5,597 Q476,647 382,647 Q254,647 177,559.5 Q100,472 100,333 Q100,194 177,106 Q254,18 382,18 Q475,18 546,69 Q617,120 651,218"/> 
            <glyph glyph-name="œ" unicode="&#x153;" horiz-adv-x="928" d=" M928,232 L511,232 Q513,140 568.5,77.5 Q624,15 714,15 Q814,15 882,88 L900,69 Q822,-12 714,-12 Q664,-12 623.5,4.5 Q583,21 557.5,47 Q532,73 516.5,99.5 Q501,126 494,152 Q486,126 472.5,101 Q459,76 435,49 Q411,22 372,5 Q333,-12 285,-12 Q185,-12 122.5,60.5 Q60,133 60,242 Q60,350 122.5,422.5 Q185,495 285,495 Q333,495 373,478 Q413,461 437,433.5 Q461,406 474.5,380.5 Q488,355 494,331 Q501,356 516,382 Q531,408 555.5,434.5 Q580,461 619,478 Q658,495 704,495 Q810,495 869,422 Q928,349 928,242 M511,259 L896,259 Q896,308 876,354.5 Q856,401 810.5,434.5 Q765,468 703,468 Q616,468 565,403.5 Q514,339 511,259 M477,242 Q477,335 425.5,401.5 Q374,468 285,468 Q197,468 145,401.5 Q93,335 93,242 Q93,148 145,81 Q197,14 285,14 Q374,14 425.5,81 Q477,148 477,242"/> 
            <glyph glyph-name="Ŕ" unicode="&#x154;" horiz-adv-x="524" d=" M450,867 L275,723 L245,723 L405,867 M524,0 L483,0 L280,288 L120,288 L120,0 L88,0 L88,667 L318,667 Q403,667 459,616.5 Q515,566 515,478 Q515,390 458.5,339 Q402,288 318,288 M318,318 Q391,318 435.5,363 Q480,408 480,478 Q480,548 435.5,592.5 Q391,637 318,637 L120,637 L120,318"/> 
            <glyph glyph-name="ŕ" unicode="&#x155;" horiz-adv-x="338" d=" M338,700 L163,556 L133,556 L293,700 M116,0 L86,0 L86,483 L116,483 L116,395 Q189,492 282,492 L282,456 Q273,457 258,457 Q221,457 177,427 Q133,397 116,362"/> 
            <glyph glyph-name="Ŗ" unicode="&#x156;" horiz-adv-x="524" d=" M334,-137 Q334,-173 316,-206.5 Q298,-240 272,-258 L250,-240 Q274,-222 288.5,-196.5 Q303,-171 303,-148 Q297,-149 295,-149 Q281,-149 272,-139.5 Q263,-130 263,-116 Q263,-103 272,-93.5 Q281,-84 295,-84 Q311,-84 322.5,-98 Q334,-112 334,-137 M524,0 L483,0 L280,288 L120,288 L120,0 L88,0 L88,667 L318,667 Q403,667 459,616.5 Q515,566 515,478 Q515,390 458.5,339 Q402,288 318,288 M318,318 Q391,318 435.5,363 Q480,408 480,478 Q480,548 435.5,592.5 Q391,637 318,637 L120,637 L120,318"/> 
            </font>
</defs>
</svg>
