<?xml version="1.0" standalone="no"?>
<!DOCTYPE svg PUBLIC "-//W3C//DTD SVG 1.1//EN" "http://www.w3.org/Graphics/SVG/1.1/DTD/svg11.dtd" >
<svg xmlns="http://www.w3.org/2000/svg" xmlns:xlink="http://www.w3.org/1999/xlink" version="1.1">
<metadata>
Created by FontForge 20150102 at Sat Jan 17 13:03:28 2015
 By uniteet7
Digitised data (c) 2002 Monotype Imaging, Inc. All rights reserved.
</metadata>
<defs>
<font id="SceneStd-Bold" horiz-adv-x="628" >
  <font-face 
    font-family="Scene Std"
    font-weight="700"
    font-stretch="normal"
    units-per-em="1000"
    panose-1="2 11 8 4 3 5 4 2 2 4"
    ascent="800"
    descent="-200"
    x-height="537"
    cap-height="721"
    bbox="-53.0278 -284 1325 995"
    underline-thickness="20"
    underline-position="-113"
    stemh="104"
    stemv="134"
    unicode-range="U+0020-FB04"
  />
<missing-glyph horiz-adv-x="500" 
d="M12 0v665h475v-665h-475zM88 618l162 -243l161 243h-323zM60 575v-484c0 -1 161 242 161 242zM440 575l-162 -242l162 -243v485zM411 48l-161 242l-162 -242h323z" />
    <glyph glyph-name="fi" unicode="fi" horiz-adv-x="652" 
d="M595 0h-133v407c0 8 3 20 10 29h-240v-436h-134v397c0 22 7 28 15 39h-88v101h73v43c0 157 93 200 202 200c27 0 76 -6 111 -17l-25 -100c-22 7 -54 14 -86 14c-46 0 -68 -17 -68 -97v-43h363v-537zM458 635h132c5 0 8 2 8 9v124c0 8 -3 11 -10 11h-128
c-7 0 -10 -3 -10 -11v-124c0 -7 3 -9 8 -9z" />
    <glyph glyph-name="fl" unicode="fl" horiz-adv-x="682" 
d="M657 -9h-69c-91 0 -132 47 -132 140v546h-138c-48 0 -86 -22 -86 -97v-43h161l-23 -101h-138v-436h-134v393c0 22 5 29 15 43h-88v101h73v43c0 153 93 199 202 199h290v-648c0 -22 5 -31 23 -31h44v-109z" />
    <glyph glyph-name="f_f" unicode="ff" horiz-adv-x="779" 
d="M232 537h229v42c0 153 93 200 202 200c46 0 94 -9 140 -21l-24 -98c-32 10 -68 16 -98 16c-48 0 -86 -22 -86 -97v-42h161l-23 -101h-138v-436h-134v393c0 22 5 29 15 43h-244v-436h-134v397c0 22 7 28 15 39h-88v101h73v43c0 157 93 200 202 200c27 0 76 -6 111 -17
l-25 -100c-22 7 -54 14 -86 14c-46 0 -68 -17 -68 -97v-43z" />
    <glyph glyph-name="f_f_i" unicode="ffi" horiz-adv-x="1014" 
d="M475 436h-243v-436h-134v397c0 22 7 28 15 39h-88v101h73v43c0 157 93 200 202 200c27 0 76 -6 111 -17l-25 -100c-22 7 -54 14 -86 14c-46 0 -68 -17 -68 -97v-43h228v43c0 157 93 200 202 200c27 0 76 -6 111 -17l-25 -100c-22 7 -54 14 -86 14c-46 0 -68 -17 -68 -97
v-43h363v-537h-133v407c0 8 3 20 10 29h-240v-436h-134v397c0 22 7 28 15 39zM820 635h132c5 0 8 2 8 9v124c0 8 -3 11 -10 11h-128c-7 0 -10 -3 -10 -11v-124c0 -7 3 -9 8 -9z" />
    <glyph glyph-name="f_f_l" unicode="ffl" horiz-adv-x="1044" 
d="M475 436h-243v-436h-134v397c0 22 7 28 15 39h-88v101h73v43c0 157 93 200 202 200c27 0 76 -6 111 -17l-25 -100c-22 7 -54 14 -86 14c-46 0 -68 -17 -68 -97v-43h228v43c0 153 93 199 202 199h290v-648c0 -22 5 -31 23 -31h44v-109h-69c-91 0 -132 47 -132 140v546
h-138c-48 0 -86 -22 -86 -97v-43h161l-23 -101h-138v-436h-134v393c0 22 5 29 15 43z" />
    <glyph glyph-name="f_b" unicode="fb" horiz-adv-x="983" 
d="M945 273c0 -200 -89 -289 -252 -289c-71 0 -163 11 -237 47v646h-138c-48 0 -86 -22 -86 -97v-43h161l-23 -101h-138v-436h-134v393c0 22 5 29 15 43h-88v101h73v43c0 153 93 199 202 199h289v-223c0 -7 -4 -18 -11 -34c30 17 78 31 115 31c167 0 252 -90 252 -280z
M811 273c0 145 -42 178 -118 178c-32 0 -77 -8 -104 -24v-330c44 -11 74 -11 104 -11c90 0 118 52 118 187z" />
    <glyph glyph-name="f_f_b" unicode="ffb" horiz-adv-x="1345" 
d="M475 436h-243v-436h-134v397c0 22 7 28 15 39h-88v101h73v43c0 157 93 200 202 200c27 0 76 -6 111 -17l-25 -100c-22 7 -54 14 -86 14c-46 0 -68 -17 -68 -97v-43h228v43c0 153 93 199 202 199h289v-223c0 -7 -4 -18 -11 -34c30 17 78 31 115 31c167 0 252 -90 252 -280
c0 -200 -89 -289 -252 -289c-71 0 -163 11 -237 47v646h-138c-48 0 -86 -22 -86 -97v-43h161l-23 -101h-138v-436h-134v393c0 22 5 29 15 43zM1173 273c0 145 -42 178 -118 178c-32 0 -77 -8 -104 -24v-330c44 -11 74 -11 104 -11c90 0 118 52 118 187z" />
    <glyph glyph-name="f_f_h" unicode="ffh" horiz-adv-x="1351" 
d="M475 436h-243v-436h-134v397c0 22 7 28 15 39h-88v101h73v43c0 157 93 200 202 200c27 0 76 -6 111 -17l-25 -100c-22 7 -54 14 -86 14c-46 0 -68 -17 -68 -97v-43h228v43c0 153 93 199 202 199h294v-285c52 44 97 59 151 59c130 0 184 -97 184 -215v-338h-133v338
c0 65 -19 111 -81 111c-41 0 -86 -23 -121 -47v-402h-133v677h-143c-48 0 -86 -22 -86 -97v-43h161l-23 -101h-138v-436h-134v393c0 22 5 29 15 43z" />
    <glyph glyph-name="f_f_k" unicode="ffk" horiz-adv-x="1344" 
d="M474 436h-242v-436h-134v397c0 22 7 28 15 39h-88v101h73v43c0 157 93 200 202 200c27 0 76 -6 111 -17l-25 -100c-22 7 -54 14 -86 14c-46 0 -68 -17 -68 -97v-43h227v43c0 153 93 199 202 199h289v-396l175 154h197l-257 -202l260 -335h-170l-165 228c-5 6 -8 19 -8 36
l-32 -27v-237h-133v677h-138c-48 0 -86 -22 -86 -97v-43h161l-23 -101h-138v-436h-134v393c0 22 5 29 15 43z" />
    <glyph glyph-name="f_h" unicode="fh" horiz-adv-x="984" 
d="M924 0h-133v338c0 65 -19 111 -81 111c-41 0 -86 -23 -121 -47v-402h-133v677h-138c-48 0 -86 -22 -86 -97v-43h161l-23 -101h-138v-436h-134v393c0 22 5 29 15 43h-88v101h73v43c0 153 93 199 202 199h289v-285c52 44 97 59 151 59c130 0 184 -97 184 -215v-338z" />
    <glyph glyph-name="f_j" unicode="fj" horiz-adv-x="657" 
d="M595 -87c0 -88 -53 -155 -169 -155h-70v115h80c18 0 25 15 25 40v523h-229v-436h-134v397c0 22 7 28 15 39h-88v101h73v43c0 157 93 200 202 200c27 0 76 -6 111 -17l-25 -100c-22 7 -54 14 -86 14c-46 0 -68 -17 -68 -97v-43h363v-624zM601 644c0 -8 -2 -9 -8 -9h-130
c-6 0 -8 2 -8 9v124c0 10 0 11 8 11h130c8 0 8 -1 8 -11v-124z" />
    <glyph glyph-name="f_f_j" unicode="ffj" horiz-adv-x="1018" 
d="M474 436h-242v-436h-134v397c0 22 7 28 15 39h-88v101h73v43c0 157 93 200 202 200c27 0 76 -6 111 -17l-25 -100c-22 7 -54 14 -86 14c-46 0 -68 -17 -68 -97v-43h227v43c0 157 93 200 202 200c27 0 76 -6 111 -17l-25 -100c-22 7 -54 14 -86 14c-46 0 -68 -17 -68 -97
v-43h363v-624c0 -88 -53 -155 -169 -155h-70v115h80c18 0 25 15 25 40v523h-229v-436h-134v397c0 22 7 28 15 39zM962 644c0 -8 -2 -9 -8 -9h-130c-6 0 -8 2 -8 9v124c0 10 0 11 8 11h130c8 0 8 -1 8 -11v-124z" />
    <glyph glyph-name="f_k" unicode="fk" horiz-adv-x="983" 
d="M964 0h-170l-165 228c-5 6 -8 19 -8 36l-32 -27v-237h-133v677h-138c-48 0 -86 -22 -86 -97v-43h161l-23 -101h-138v-436h-134v393c0 22 5 29 15 43h-88v101h73v43c0 153 93 199 202 199h289v-396l175 154h197l-257 -202z" />
    <glyph glyph-name=".notdef" horiz-adv-x="500" 
d="M12 0v665h475v-665h-475zM88 618l162 -243l161 243h-323zM60 575v-484c0 -1 161 242 161 242zM440 575l-162 -242l162 -243v485zM411 48l-161 242l-162 -242h323z" />
    <glyph glyph-name="space" unicode=" " horiz-adv-x="240" 
 />
    <glyph glyph-name="exclam" unicode="!" horiz-adv-x="283" 
d="M210 389l-22 -185h-92l-23 185v390h137v-390zM217 12c0 -12 0 -12 -10 -12h-131c-10 0 -11 0 -11 12v127c0 13 1 13 11 13h131c10 0 10 0 10 -13v-127z" />
    <glyph glyph-name="quotedbl" unicode="&#x22;" horiz-adv-x="484" 
d="M394 721l-39 -235c-2 -12 -5 -14 -16 -14h-52c-10 0 -12 2 -12 14v235h119zM219 721l-39 -235c-2 -12 -5 -14 -16 -14h-52c-10 0 -12 2 -12 14v235h119z" />
    <glyph glyph-name="numbersign" unicode="#" horiz-adv-x="592" 
d="M548 224h-137l-26 -185h-87l26 185h-108l-26 -185h-86l24 185h-84v85h96l16 108h-112v85h123l26 184h87l-25 -184h108l25 184h87l-25 -184h98v-85h-109l-16 -108h125v-85zM351 417h-107l-17 -108h108z" />
    <glyph glyph-name="dollar" unicode="$" 
d="M550 248c0 -90 -60 -162 -184 -183v-135h-108v132c-126 15 -180 79 -180 189h122c6 -59 24 -89 111 -89c84 0 107 40 107 80c0 36 -6 66 -53 73l-146 23c-71 11 -130 66 -130 168c0 83 45 152 169 169v108h108v-108c120 -19 166 -89 166 -178h-118c0 50 -22 80 -101 80
c-70 0 -95 -22 -95 -67c0 -38 18 -52 41 -55l128 -19c101 -15 163 -58 163 -188z" />
    <glyph glyph-name="percent" unicode="%" horiz-adv-x="891" 
d="M737 737l-490 -752h-93l490 752h93zM339 519c0 -115 -17 -223 -147 -223c-131 0 -148 108 -148 223c0 113 22 214 148 214c125 0 147 -101 147 -214zM255 519c0 100 -9 143 -63 143c-55 0 -63 -43 -63 -143c0 -105 8 -153 63 -153c54 0 63 48 63 153zM857 213
c0 -115 -17 -223 -147 -223c-131 0 -148 108 -148 223c0 113 22 214 148 214c125 0 147 -101 147 -214zM773 213c0 100 -9 143 -63 143c-55 0 -63 -43 -63 -143c0 -105 8 -153 63 -153c54 0 63 48 63 153z" />
    <glyph glyph-name="ampersand" unicode="&#x26;" horiz-adv-x="688" 
d="M688 10l-140 -28l-71 73c-47 -43 -110 -70 -189 -70c-123 0 -265 51 -265 216v27c0 76 37 133 102 165l14 7l-8 10c-27 34 -45 66 -45 133v16c0 124 104 178 206 178c103 0 206 -55 206 -178v-16c0 -82 -51 -131 -124 -160l-35 -14l124 -127c7 26 9 61 9 92v27h116v-27
c0 -59 -11 -127 -39 -181zM373 543v16c0 34 -9 76 -81 76c-73 0 -80 -43 -80 -76v-16c0 -29 12 -57 36 -81l10 -10l66 30c41 19 49 38 49 61zM402 134l-183 185l-21 -11c-29 -15 -42 -36 -42 -80v-27c0 -63 42 -111 132 -111c40 0 83 16 114 44z" />
    <glyph glyph-name="quoteright" unicode="&#x2019;" horiz-adv-x="263" 
d="M204 608c0 -72 -41 -142 -116 -179l-47 41c43 38 65 68 65 111h-32c-9 0 -10 0 -10 11v117c0 12 1 12 10 12h120c9 0 10 0 10 -12v-101z" />
    <glyph glyph-name="parenleft" unicode="(" horiz-adv-x="379" 
d="M343 -163c-102 0 -163 47 -200 124c-46 97 -53 237 -53 343s7 246 53 343c37 77 98 124 200 124v-102c-71 0 -94 -43 -108 -113c-11 -56 -15 -145 -15 -252s4 -196 15 -252c14 -70 37 -113 108 -113v-102z" />
    <glyph glyph-name="parenright" unicode=")" horiz-adv-x="379" 
d="M289 304c0 -106 -7 -246 -53 -343c-37 -77 -98 -124 -200 -124v102c71 0 94 43 108 113c11 56 15 145 15 252s-4 196 -15 252c-14 70 -37 113 -108 113v102c102 0 163 -47 200 -124c46 -97 53 -237 53 -343z" />
    <glyph glyph-name="asterisk" unicode="*" horiz-adv-x="383" 
d="M359 579c4 -13 3 -20 -11 -22l-104 -18l76 -75c10 -10 6 -17 -5 -25l-48 -35c-12 -8 -19 -7 -25 4l-48 92l-49 -94c-6 -12 -15 -12 -26 -4l-47 35c-11 8 -14 16 -5 25l74 74l-105 18c-13 2 -17 11 -12 24l19 55c5 14 11 18 22 12l94 -48l-16 106c-2 13 4 18 18 18h59
c14 0 20 -5 18 -18l-15 -104l95 49c13 7 18 -1 22 -13z" />
    <glyph glyph-name="plus" unicode="+" 
d="M597 304h-223v-228h-116v228h-227v116h226v223h116v-223h224v-116z" />
    <glyph glyph-name="comma" unicode="," horiz-adv-x="290" 
d="M221 29c0 -78 -45 -154 -126 -194l-51 44c46 42 71 75 71 121h-35c-10 0 -11 0 -11 12v127c0 13 1 13 11 13h130c10 0 11 0 11 -13v-110z" />
    <glyph glyph-name="hyphen" unicode="-" horiz-adv-x="345" 
d="M319 260h-293v117h293v-117z" />
    <glyph glyph-name="period" unicode="." horiz-adv-x="290" 
d="M221 12c0 -12 0 -12 -10 -12h-131c-10 0 -11 0 -11 12v127c0 13 1 13 11 13h131c10 0 10 0 10 -13v-127z" />
    <glyph glyph-name="slash" unicode="/" horiz-adv-x="489" 
d="M457 737l-329 -752h-96l329 752h96z" />
    <glyph glyph-name="zero" unicode="0" 
d="M566 369c0 -199 -28 -384 -252 -384s-252 185 -252 384c0 195 37 368 252 368s252 -173 252 -368zM434 369c0 181 -17 261 -120 261s-120 -80 -120 -261c0 -190 17 -278 120 -278s120 88 120 278z" />
    <glyph glyph-name="one" unicode="1" 
d="M529 0h-429v114h149v459c0 9 5 18 6 25l-156 -31v112l282 57v-622h148v-114z" />
    <glyph glyph-name="two" unicode="2" 
d="M557 0h-497c0 205 132 293 236 365c70 49 129 91 129 157c0 80 -45 109 -107 109c-102 0 -129 -52 -140 -126h-119c8 118 69 232 259 232c128 0 238 -59 238 -215c0 -128 -97 -192 -191 -259c-82 -59 -127 -94 -149 -154h218v80h123v-189z" />
    <glyph glyph-name="three" unicode="3" 
d="M568 215c0 -154 -110 -231 -261 -231c-133 0 -221 39 -281 159l100 48c46 -89 95 -103 181 -103c90 0 130 49 130 127c0 64 -37 112 -108 112h-110l-31 99h141c59 0 94 44 94 109c0 54 -23 98 -105 98c-86 0 -135 -14 -181 -103l-100 48c60 120 148 159 281 159
c173 0 237 -89 237 -202c0 -70 -40 -132 -106 -153c73 -19 119 -95 119 -167z" />
    <glyph glyph-name="four" unicode="4" 
d="M601 180h-74v-180h-131v180h-352v106l365 435h118v-423h74v-118zM408 535l-200 -237h188v194c0 12 6 29 12 43z" />
    <glyph glyph-name="five" unicode="5" 
d="M567 236c0 -148 -80 -252 -258 -252c-133 0 -221 39 -281 159l100 48c46 -89 95 -103 181 -103c93 0 127 59 127 148c0 107 -75 136 -159 136c-54 0 -112 -12 -156 -29l-36 34l39 344h432l-33 -112h-294l-17 -146c31 8 70 10 94 10c158 0 261 -74 261 -237z" />
    <glyph glyph-name="six" unicode="6" 
d="M566 248c0 -153 -65 -264 -255 -264s-255 111 -255 264v121c0 179 22 368 268 368c92 0 183 -31 232 -102l-79 -70c-41 46 -84 68 -153 68c-86 0 -131 -54 -136 -182c35 21 78 37 123 37c209 0 255 -112 255 -240zM435 248c0 96 -33 137 -124 137
c-74 0 -124 -38 -124 -137c0 -112 35 -159 124 -159s124 47 124 159z" />
    <glyph glyph-name="seven" unicode="7" 
d="M574 621l-329 -621h-149l313 585c6 11 15 18 23 24h-242v-95h-119v207h503v-100z" />
    <glyph glyph-name="eight" unicode="8" 
d="M576 222c0 -147 -78 -238 -262 -238s-262 91 -262 238c0 90 62 141 97 158c-34 22 -87 58 -87 146c0 136 84 211 252 211s252 -75 252 -211c0 -88 -53 -124 -87 -146c35 -17 97 -68 97 -158zM436 526c0 77 -47 104 -122 104s-122 -27 -122 -104c0 -72 43 -93 86 -93h72
c43 0 86 21 86 93zM444 222c0 55 -32 105 -94 105h-72c-62 0 -94 -50 -94 -105c0 -93 41 -134 130 -134s130 41 130 134z" />
    <glyph glyph-name="nine" unicode="9" 
d="M568 352c0 -179 -22 -368 -268 -368c-92 0 -183 31 -232 102l79 70c41 -46 84 -68 153 -68c86 0 131 54 136 182c-35 -21 -78 -37 -123 -37c-209 0 -255 112 -255 240c0 153 65 264 255 264s255 -111 255 -264v-121zM437 473c0 112 -35 159 -124 159s-124 -47 -124 -159
c0 -96 33 -137 124 -137c74 0 124 38 124 137z" />
    <glyph glyph-name="colon" unicode=":" horiz-adv-x="290" 
d="M221 397c0 -12 0 -12 -10 -12h-131c-10 0 -11 0 -11 12v127c0 13 1 13 11 13h131c10 0 10 0 10 -13v-127zM221 12c0 -12 0 -12 -10 -12h-131c-10 0 -11 0 -11 12v127c0 13 1 13 11 13h131c10 0 10 0 10 -13v-127z" />
    <glyph glyph-name="semicolon" unicode=";" horiz-adv-x="290" 
d="M222 396c0 -12 0 -12 -10 -12h-131c-10 0 -11 0 -11 12v127c0 13 1 13 11 13h131c10 0 10 0 10 -13v-127zM221 29c0 -78 -45 -154 -126 -194l-51 44c46 42 71 75 71 121h-35c-10 0 -11 0 -11 12v127c0 13 1 13 11 13h130c10 0 11 0 11 -13v-110z" />
    <glyph glyph-name="less" unicode="&#x3c;" 
d="M496 80h-132l-232 280l232 280h132l-232 -280z" />
    <glyph glyph-name="equal" unicode="=" 
d="M562 423h-496v116h496v-116zM562 183h-496v116h496v-116z" />
    <glyph glyph-name="greater" unicode="&#x3e;" 
d="M496 360l-232 -280h-132l232 280l-232 280h132z" />
    <glyph glyph-name="question" unicode="?" horiz-adv-x="557" 
d="M518 578c0 -91 -50 -142 -117 -197c-68 -56 -87 -76 -87 -124v-53h-118v53c0 102 34 139 102 194c75 60 86 81 86 127c0 69 -20 114 -104 114c-88 0 -114 -42 -115 -128h-117c1 123 43 232 232 232c167 0 238 -75 238 -218zM332 12c0 -12 0 -12 -10 -12h-131
c-10 0 -11 0 -11 12v127c0 13 1 13 11 13h131c10 0 10 0 10 -13v-127z" />
    <glyph glyph-name="at" unicode="@" horiz-adv-x="958" 
d="M895 313c0 -147 -86 -286 -245 -286h-97l-8 59c-51 -47 -113 -72 -168 -72c-76 0 -138 57 -138 179c0 217 125 303 289 303c45 0 93 -7 142 -20c14 -27 19 -63 19 -96c0 -13 0 -25 -2 -37l-33 -225h9c82 0 131 91 131 195c0 185 -137 263 -289 263
c-166 0 -341 -107 -341 -334c0 -208 133 -308 286 -308c65 0 142 18 203 50l45 -69c-84 -38 -173 -59 -258 -59c-203 0 -377 117 -377 386s202 420 441 420c221 0 391 -121 391 -349zM568 377c0 9 0 18 -1 27c-14 2 -27 3 -40 3c-124 0 -163 -82 -163 -214
c0 -60 18 -87 45 -87c40 0 98 48 136 80l21 154c2 12 2 25 2 37z" />
    <glyph glyph-name="A" unicode="A" horiz-adv-x="694" 
d="M676 0h-141l-62 183h-253l-63 -183h-139l261 721h137zM434 295l-73 215c-7 19 -13 44 -15 57c-2 -14 -8 -39 -14 -57l-74 -215h176z" />
    <glyph glyph-name="B" unicode="B" horiz-adv-x="634" 
d="M601 225c0 -157 -109 -225 -273 -225h-264v721h264c156 0 241 -63 241 -197c0 -53 -28 -109 -79 -136c63 -24 111 -81 111 -163zM434 524c0 61 -32 91 -106 91h-130v-186h140c64 0 96 36 96 95zM465 225c0 73 -50 104 -127 104h-140v-223h130c109 0 137 56 137 119z" />
    <glyph glyph-name="C" unicode="C" horiz-adv-x="661" 
d="M628 152c-41 -93 -122 -168 -277 -168c-251 0 -307 180 -307 377c0 222 76 376 307 376c181 0 263 -107 272 -238h-127c-11 79 -48 123 -145 123c-142 0 -171 -95 -171 -261c0 -150 24 -266 171 -266c71 0 131 25 177 118z" />
    <glyph glyph-name="D" unicode="D" horiz-adv-x="674" 
d="M640 369c0 -200 -97 -369 -357 -369h-219v721h219c254 0 357 -152 357 -352zM504 369c0 160 -70 238 -221 238h-85v-494h85c150 0 221 87 221 256z" />
    <glyph glyph-name="E" unicode="E" horiz-adv-x="589" 
d="M545 0h-481v721h480v-112h-346v-173h316l-33 -112h-287c3 -7 4 -15 4 -19v-193h347v-112z" />
    <glyph glyph-name="F" unicode="F" horiz-adv-x="575" 
d="M538 721l-32 -112h-308v-180h273v-112h-277c3 -8 4 -18 4 -22v-295h-134v721h474z" />
    <glyph glyph-name="G" unicode="G" horiz-adv-x="702" 
d="M638 92c-59 -50 -149 -107 -278 -107c-228 0 -316 145 -316 376c0 209 74 376 316 376c181 0 269 -109 278 -238h-120c-9 68 -59 123 -158 123c-144 0 -180 -95 -180 -261c0 -156 34 -264 180 -264c53 0 112 17 144 40v124c0 8 3 14 5 22h-138l-30 112h297v-303z" />
    <glyph glyph-name="H" unicode="H" horiz-adv-x="715" 
d="M651 0h-134v324h-319v-324h-134v721h134v-285h319v285h134v-721z" />
    <glyph glyph-name="I" unicode="I" horiz-adv-x="262" 
d="M198 0h-134v721h134v-721z" />
    <glyph glyph-name="J" unicode="J" horiz-adv-x="448" 
d="M386 210c0 -164 -83 -226 -210 -226c-56 0 -117 10 -169 60l61 87c37 -36 74 -40 106 -40c61 0 79 30 79 119v511h133v-511z" />
    <glyph glyph-name="K" unicode="K" horiz-adv-x="662" 
d="M652 721l-319 -320l317 -401h-173l-221 279c-5 7 -10 19 -12 32l-46 -46v-265h-134v721h134v-283l278 283h176z" />
    <glyph glyph-name="L" unicode="L" horiz-adv-x="531" 
d="M488 0h-424v721h134v-598h290v-123z" />
    <glyph glyph-name="M" unicode="M" horiz-adv-x="830" 
d="M773 0h-131l-32 428c-1 15 -2 34 2 49l-141 -320h-112l-141 319c2 -17 3 -37 2 -51l-32 -425h-131l54 721h116l178 -381c6 -13 9 -25 11 -34c2 12 4 24 9 35l178 380h116z" />
    <glyph glyph-name="N" unicode="N" horiz-adv-x="727" 
d="M663 0h-115l-354 482c3 -10 4 -21 4 -29v-453h-134v721h115l355 -484c-4 14 -5 29 -5 44v440h134v-721z" />
    <glyph glyph-name="O" unicode="O" horiz-adv-x="703" 
d="M659 369c0 -213 -60 -384 -309 -384c-250 0 -306 171 -306 384c0 192 57 368 306 368s309 -176 309 -368zM523 369c0 170 -40 253 -173 253c-132 0 -170 -83 -170 -253c0 -190 39 -270 170 -270c132 0 173 81 173 270z" />
    <glyph glyph-name="P" unicode="P" horiz-adv-x="619" 
d="M576 492c0 -130 -82 -241 -268 -241h-117c2 -7 7 -19 7 -26v-225h-134v721h244c184 0 268 -98 268 -229zM440 492c0 77 -44 115 -132 115h-110v-242h110c90 0 132 45 132 127z" />
    <glyph glyph-name="Q" unicode="Q" horiz-adv-x="703" 
d="M670 -26l-57 -116l-367 133c-163 59 -202 194 -202 374c0 194 57 372 306 372s309 -178 309 -372c0 -133 -22 -253 -113 -324c-9 -7 -19 -16 -36 -24c34 0 64 -13 96 -23zM523 365c0 172 -40 254 -173 254c-132 0 -170 -81 -170 -254c0 -184 38 -263 170 -263
s173 79 173 263z" />
    <glyph glyph-name="R" unicode="R" horiz-adv-x="629" 
d="M618 0h-161l-166 254c-5 7 -7 16 -9 24h-84v-278h-134v721h245c183 0 267 -90 267 -223c0 -98 -48 -170 -150 -202zM440 498c0 72 -40 111 -131 111h-111v-219h111c94 0 131 42 131 108z" />
    <glyph glyph-name="S" unicode="S" horiz-adv-x="605" 
d="M578 212c0 -132 -84 -228 -282 -228c-149 0 -221 69 -267 142l111 58c31 -46 79 -85 155 -85c113 0 147 48 147 113c0 47 -22 81 -86 91l-147 24c-104 17 -171 72 -171 204c0 104 72 206 262 206c149 0 214 -56 260 -129l-111 -58c-31 46 -73 72 -149 72
c-96 0 -129 -37 -129 -91c0 -51 19 -68 68 -76l143 -23c108 -17 196 -74 196 -220z" />
    <glyph glyph-name="T" unicode="T" horiz-adv-x="616" 
d="M582 609h-206v-609h-135v609h-207v112h548v-112z" />
    <glyph glyph-name="U" unicode="U" horiz-adv-x="712" 
d="M653 300c0 -223 -124 -316 -298 -316s-296 93 -296 316v421h134v-421c0 -146 56 -201 162 -201s164 56 164 201v421h134v-421z" />
    <glyph glyph-name="V" unicode="V" horiz-adv-x="694" 
d="M676 721l-261 -721h-137l-260 721h141l174 -510c7 -19 13 -44 15 -57c2 14 8 39 14 57l175 510h139z" />
    <glyph glyph-name="W" unicode="W" horiz-adv-x="890" 
d="M866 721l-166 -721h-135l-109 415c-6 24 -9 51 -12 76c-3 -25 -6 -57 -11 -76l-109 -415h-134l-166 721h135l96 -452c5 -24 8 -67 10 -85c2 18 7 61 13 85l110 430h114l109 -430c6 -25 11 -66 13 -85c3 19 6 61 11 85l95 452h136z" />
    <glyph glyph-name="X" unicode="X" horiz-adv-x="676" 
d="M666 0h-160l-152 244c-5 9 -11 26 -13 35c-3 -11 -8 -27 -14 -36l-158 -243h-160l256 374l-224 347h159l134 -221c5 -8 10 -24 12 -33c3 9 7 25 12 33l141 221h162l-236 -350z" />
    <glyph glyph-name="Y" unicode="Y" horiz-adv-x="661" 
d="M650 721l-251 -431v-290h-135v290l-253 431h146l160 -287c5 -9 12 -27 14 -37c1 10 8 28 13 37l161 287h145z" />
    <glyph glyph-name="Z" unicode="Z" horiz-adv-x="596" 
d="M552 618l-320 -473c-4 -6 -20 -25 -31 -33h343v-112h-500v102l320 473c5 7 22 25 34 34h-323l-34 112h511v-103z" />
    <glyph glyph-name="bracketleft" unicode="[" horiz-adv-x="346" 
d="M325 -163h-251v934h251v-77l-121 -9v-752l121 -9v-87z" />
    <glyph glyph-name="backslash" unicode="\" horiz-adv-x="489" 
d="M457 -15h-96l-329 752h96z" />
    <glyph glyph-name="bracketright" unicode="]" horiz-adv-x="346" 
d="M272 -163h-251v87l121 9v752l-121 9v77h251v-934z" />
    <glyph glyph-name="asciicircum" unicode="^" 
d="M512 508l-61 -52l-137 161l-137 -161l-61 52l158 208c14 19 29 21 40 21s26 -2 40 -21z" />
    <glyph glyph-name="underscore" unicode="_" horiz-adv-x="528" 
d="M534 -125h-540v80h540v-80z" />
    <glyph glyph-name="quoteleft" unicode="&#x2018;" horiz-adv-x="263" 
d="M221 748c-43 -38 -66 -68 -66 -111h33c9 0 10 0 10 -11v-117c0 -12 -1 -12 -10 -12h-120c-9 0 -10 0 -10 12v101c0 72 41 142 116 179z" />
    <glyph glyph-name="a" unicode="a" horiz-adv-x="566" 
d="M504 0h-110l-12 37c-39 -30 -83 -53 -147 -53c-135 0 -198 77 -198 186c0 136 100 169 208 169c42 0 85 -5 126 -13v57c0 37 -19 66 -86 66c-39 0 -84 -6 -120 -54l-94 56c49 71 120 102 214 102c178 0 219 -106 219 -170v-383zM371 124v120c-27 4 -61 9 -94 9
c-54 0 -107 -17 -107 -83c0 -62 36 -87 81 -87c40 0 81 15 120 41z" />
    <glyph glyph-name="b" unicode="b" horiz-adv-x="589" 
d="M551 273c0 -200 -89 -289 -252 -289c-71 0 -163 11 -237 47v748h133v-223c0 -7 -4 -18 -11 -34c30 17 78 31 115 31c167 0 252 -90 252 -280zM417 273c0 145 -42 178 -118 178c-32 0 -77 -8 -104 -24v-330c44 -11 74 -11 104 -11c90 0 118 52 118 187z" />
    <glyph glyph-name="c" unicode="c" horiz-adv-x="539" 
d="M520 126c-26 -80 -98 -142 -225 -142c-194 0 -257 113 -257 285s63 284 257 284c127 0 199 -62 225 -142l-106 -40c-30 54 -57 76 -119 76c-95 0 -123 -43 -123 -178s28 -179 123 -179c62 0 89 22 119 76z" />
    <glyph glyph-name="d" unicode="d" horiz-adv-x="597" 
d="M528 0h-96l-16 39c-34 -33 -81 -55 -132 -55c-138 0 -246 64 -246 280c0 190 81 289 247 289c35 0 88 -7 120 -29c-9 18 -10 27 -10 41v214h133v-779zM395 119v308c-34 17 -67 24 -110 24c-66 0 -113 -28 -113 -187c0 -105 11 -178 112 -178c27 0 70 6 111 33z" />
    <glyph glyph-name="e" unicode="e" horiz-adv-x="572" 
d="M535 230h-361c0 -96 33 -140 121 -140c69 0 103 30 126 74l107 -41c-34 -90 -115 -139 -233 -139c-176 0 -257 94 -257 285c0 180 74 284 257 284c205 0 240 -163 240 -284v-39zM397 324c0 81 -33 123 -102 123c-76 0 -110 -29 -118 -123h220z" />
    <glyph glyph-name="f" unicode="f" horiz-adv-x="416" 
d="M440 758l-24 -98c-32 10 -68 16 -98 16c-48 0 -86 -22 -86 -97v-42h161l-23 -101h-138v-436h-134v393c0 22 5 29 15 43h-88v101h73v42c0 153 93 200 202 200c46 0 94 -9 140 -21z" />
    <glyph glyph-name="g" unicode="g" horiz-adv-x="612" 
d="M607 553l-19 -117h-34c-9 0 -31 1 -49 9c19 -34 26 -72 26 -97c0 -133 -90 -192 -233 -192c-31 0 -62 3 -89 9c-4 1 -8 2 -13 2c-11 0 -21 -5 -21 -18s4 -21 30 -26l198 -36c124 -23 164 -70 164 -149c0 -150 -141 -180 -270 -180c-116 0 -275 16 -275 196
c0 67 44 114 75 134c-17 18 -25 38 -25 58c0 27 15 53 45 70c-27 29 -52 78 -52 132c0 149 111 205 233 205c50 0 104 -9 147 -34l65 34h97zM399 352c0 63 -32 96 -101 96s-102 -33 -102 -96c0 -65 37 -92 102 -92s101 27 101 92zM435 -62c0 35 -13 52 -59 60l-193 35
c-20 -24 -30 -36 -30 -79c0 -64 36 -93 144 -93c98 0 138 28 138 77z" />
    <glyph glyph-name="h" unicode="h" horiz-adv-x="590" 
d="M530 0h-133v338c0 65 -19 111 -81 111c-41 0 -86 -23 -121 -47v-402h-133v779h133v-285c52 44 97 59 151 59c130 0 184 -97 184 -215v-338z" />
    <glyph glyph-name="i" unicode="i" horiz-adv-x="258" 
d="M64 635h132c5 0 8 2 8 9v124c0 8 -3 11 -10 11h-128c-7 0 -10 -3 -10 -11v-124c0 -7 3 -9 8 -9zM196 0h-134v537h134v-537z" />
    <glyph glyph-name="j" unicode="j" horiz-adv-x="258" 
d="M202 644c0 -9 0 -9 -8 -9h-130c-8 0 -8 0 -8 9v124c0 10 0 11 8 11h130c8 0 8 -1 8 -11v-124zM196 -87c0 -88 -53 -155 -169 -155h-70v115h80c18 0 25 15 25 40v624h134v-624z" />
    <glyph glyph-name="k" unicode="k" horiz-adv-x="589" 
d="M570 0h-170l-165 228c-5 6 -8 19 -8 36l-32 -27v-237h-133v779h133v-396l175 154h197l-257 -202z" />
    <glyph glyph-name="l" unicode="l" horiz-adv-x="288" 
d="M263 -9h-69c-91 0 -132 47 -132 140v648h134v-648c0 -22 5 -31 23 -31h44v-109z" />
    <glyph glyph-name="m" unicode="m" horiz-adv-x="882" 
d="M822 0h-133v350c0 74 -18 99 -56 99c-50 0 -85 -16 -125 -43c1 -20 1 -38 1 -56v-350h-133v350c0 71 -14 99 -55 99c-49 0 -85 -23 -125 -48v-401h-134v537h109l17 -50c53 51 102 66 154 66c64 0 101 -19 139 -68c58 54 110 68 165 68c103 0 176 -63 176 -203v-350z" />
    <glyph glyph-name="n" unicode="n" horiz-adv-x="590" 
d="M530 0h-133v338c0 65 -19 111 -81 111c-41 0 -86 -23 -121 -47v-402h-133v537h110l16 -49c55 49 102 65 158 65c130 0 184 -97 184 -215v-338z" />
    <glyph glyph-name="o" unicode="o" horiz-adv-x="579" 
d="M541 269c0 -171 -67 -285 -252 -285s-251 114 -251 285s66 284 251 284s252 -113 252 -284zM407 269c0 137 -36 178 -118 178s-117 -42 -117 -178s35 -179 117 -179c81 0 118 42 118 179z" />
    <glyph glyph-name="p" unicode="p" horiz-adv-x="597" 
d="M559 273c0 -157 -62 -289 -251 -289c-35 0 -76 7 -114 24c6 -13 9 -26 9 -35v-215h-134v779h96l17 -44c40 40 91 60 141 60c169 0 236 -107 236 -280zM425 273c0 131 -36 178 -116 178c-30 0 -65 -5 -106 -34v-311c30 -14 71 -20 105 -20c81 0 117 52 117 187z" />
    <glyph glyph-name="q" unicode="q" horiz-adv-x="598" 
d="M529 -242h-133v247c-29 -11 -71 -21 -113 -21c-152 0 -245 90 -245 280c0 240 126 289 265 289c72 0 149 -10 226 -34v-761zM396 106v336c-34 8 -68 9 -93 9c-104 0 -131 -51 -131 -187c0 -133 45 -178 124 -178c33 0 56 3 100 20z" />
    <glyph glyph-name="r" unicode="r" horiz-adv-x="396" 
d="M375 433c-23 3 -46 5 -70 5c-38 0 -77 -6 -109 -27v-411h-134v537h110l14 -43c38 43 81 59 129 59c19 0 39 -3 60 -7v-113z" />
    <glyph glyph-name="s" unicode="s" horiz-adv-x="511" 
d="M481 169c0 -133 -113 -185 -232 -185c-94 0 -172 32 -220 116l106 41c27 -38 63 -55 114 -55c40 0 101 10 101 65c0 27 -12 49 -46 55l-128 23c-68 12 -137 49 -137 166c0 101 84 158 216 158c111 0 179 -45 215 -109l-98 -49c-24 34 -62 53 -117 53
c-47 0 -86 -10 -86 -53c0 -24 10 -44 39 -49l119 -21c82 -14 154 -52 154 -156z" />
    <glyph glyph-name="t" unicode="t" horiz-adv-x="458" 
d="M458 47c-43 -41 -103 -63 -181 -63c-101 0 -175 45 -175 164v248c0 10 6 27 13 40h-94v101h81v174l134 39v-213h184l-32 -101h-152v-288c0 -39 19 -58 56 -58c46 0 65 14 93 33z" />
    <glyph glyph-name="u" unicode="u" horiz-adv-x="590" 
d="M528 0h-110l-16 49c-55 -49 -102 -65 -158 -65c-130 0 -184 97 -184 215v338h133v-338c0 -65 19 -111 81 -111c41 0 86 23 121 47v402h133v-537z" />
    <glyph glyph-name="v" unicode="v" horiz-adv-x="571" 
d="M551 537l-197 -537h-137l-197 537h142l109 -340c8 -25 13 -48 16 -73c2 28 8 51 15 73l108 340h141z" />
    <glyph glyph-name="w" unicode="w" horiz-adv-x="825" 
d="M804 537l-169 -537h-120l-85 270c-7 23 -13 49 -17 85c-4 -36 -12 -65 -18 -85l-85 -270h-121l-168 537h139l78 -300c4 -17 11 -46 13 -85c4 39 13 73 17 86l90 299h109l90 -300c4 -12 12 -40 15 -85c3 45 9 63 15 85l78 300h139z" />
    <glyph glyph-name="x" unicode="x" horiz-adv-x="588" 
d="M581 0h-156l-117 164c-6 8 -14 28 -17 49c-2 -21 -10 -40 -16 -49l-111 -164h-157l199 278l-187 259h157l107 -152c3 -4 10 -14 14 -48c5 34 11 45 14 49l100 151h156l-186 -263z" />
    <glyph glyph-name="y" unicode="y" horiz-adv-x="582" 
d="M562 537l-254 -673c-25 -65 -66 -106 -167 -106h-93v107h93c24 0 33 13 44 42l37 94l-202 536h139l115 -346c5 -14 10 -34 12 -55c1 19 8 39 13 54l124 347h139z" />
    <glyph glyph-name="z" unicode="z" horiz-adv-x="536" 
d="M483 0h-430v107l242 298c8 10 10 11 35 22h-251l-36 110h438v-107l-244 -301c-8 -10 -17 -15 -32 -21h278v-108z" />
    <glyph glyph-name="braceleft" unicode="{" horiz-adv-x="391" 
d="M356 -163h-120c-78 0 -131 46 -131 135v222c0 36 -9 71 -66 78v65c57 7 65 41 65 77v222c0 89 53 135 131 135h120v-95h-81c-26 0 -40 -9 -40 -40v-222c0 -44 -18 -95 -82 -111c64 -16 83 -65 83 -109v-225c0 -31 14 -37 40 -37h81v-95z" />
    <glyph glyph-name="bar" unicode="|" horiz-adv-x="308" 
d="M220 -163h-131v934h131v-934z" />
    <glyph glyph-name="braceright" unicode="}" horiz-adv-x="391" 
d="M352 272c-57 -7 -66 -42 -66 -78v-222c0 -89 -53 -135 -131 -135h-120v95h81c26 0 40 6 40 37v225c0 44 19 93 83 109c-64 16 -82 67 -82 111v225c0 31 -14 37 -40 37h-81v95h120c78 0 131 -46 131 -135v-222c0 -36 8 -70 65 -77v-65z" />
    <glyph glyph-name="asciitilde" unicode="~" 
d="M557 375c-34 -49 -76 -69 -134 -69c-94 0 -141 86 -218 86c-58 0 -100 -20 -134 -69v126c34 49 76 69 134 69c105 0 143 -86 218 -86c58 0 100 20 134 69v-126z" />
    <glyph glyph-name="exclamdown" unicode="&#xa1;" horiz-adv-x="283" 
d="M217 414c0 -13 -1 -13 -11 -13h-131c-10 0 -10 0 -10 13v127c0 12 0 12 10 12h131c10 0 11 0 11 -12v-127zM209 -226h-137v390l22 185h92l23 -185v-390z" />
    <glyph glyph-name="cent" unicode="&#xa2;" 
d="M541 214c-50 -71 -85 -104 -163 -120v-109h-108v111c-131 24 -182 122 -182 260c0 140 47 240 181 262v119h109v-113c96 -9 163 -76 163 -180h-110c0 40 -25 81 -105 81c-90 0 -109 -77 -109 -169s23 -163 109 -163c78 0 100 39 119 69z" />
    <glyph glyph-name="sterling" unicode="&#xa3;" 
d="M562 0h-459v97c23 22 28 38 28 66v152h-85v107h85v114c0 101 38 201 217 201c92 0 161 -21 214 -92l-77 -68c-37 39 -57 60 -137 60c-69 0 -90 -37 -90 -101v-114h153v-107h-153v-145c0 -22 -7 -45 -22 -56h326v-114z" />
    <glyph glyph-name="fraction" unicode="&#x2044;" horiz-adv-x="403" 
d="M554 737l-500 -752h-83l500 752h83z" />
    <glyph glyph-name="yen" unicode="&#xa5;" 
d="M622 721l-107 -196h80v-83h-125l-44 -80h170v-84h-215v-278h-131v278h-222v84h176l-44 80h-132v83h87l-108 196h143l151 -291c8 -15 12 -37 14 -46c2 8 5 29 14 46l151 291h142z" />
    <glyph glyph-name="florin" unicode="&#x192;" 
d="M579 704l-33 -102c-23 6 -46 11 -67 11c-38 0 -68 -17 -75 -82l-10 -91h162l-34 -101h-139l-31 -269c-15 -134 -93 -184 -193 -184c-35 0 -72 6 -110 17l34 96c24 -7 45 -12 65 -12c39 0 68 21 76 89l27 229c1 8 8 26 17 34h-127l36 101h89l11 97c16 142 97 184 188 184
c37 0 77 -7 114 -17z" />
    <glyph glyph-name="section" unicode="&#xa7;" horiz-adv-x="618" 
d="M525 97c0 -149 -93 -209 -224 -209h-200v196h116v-93h84c81 0 102 28 102 87c0 34 -11 48 -51 58l-127 32c-111 28 -138 120 -138 227v125c0 142 70 201 210 201h210v-173h-115v70h-95c-47 0 -89 -10 -89 -67c0 -30 7 -49 51 -61l113 -30c98 -26 153 -73 153 -211v-152z
M403 231v35c0 38 -13 67 -49 76l-126 33c-6 2 -14 9 -20 16v-28c0 -39 12 -71 49 -81l126 -33c6 -2 15 -9 20 -18z" />
    <glyph glyph-name="currency" unicode="&#xa4;" horiz-adv-x="645" 
d="M583 557c0 -6 -3 -11 -7 -15l-86 -85c15 -27 23 -56 23 -86c0 -31 -8 -62 -24 -90l84 -84c4 -4 7 -10 7 -15c0 -4 -2 -8 -5 -11l-57 -57c-3 -3 -7 -5 -11 -5c-6 0 -11 3 -15 7l-86 87c-25 -14 -54 -21 -82 -21c-30 0 -59 7 -86 22l-85 -85c-4 -4 -10 -8 -16 -8
c-3 0 -7 2 -10 5l-57 57c-3 3 -5 8 -5 12c0 5 3 11 7 15l85 84c-15 27 -23 57 -23 87c0 28 6 57 20 82l-85 86c-4 4 -7 10 -7 15c0 4 2 8 5 11l57 57c3 3 7 5 11 5c5 0 11 -3 15 -7l83 -83c28 16 60 23 91 23c30 0 59 -7 86 -22l85 85c4 4 10 7 15 7c4 0 8 -2 11 -5l57 -57
c3 -3 5 -7 5 -11zM410 374c0 46 -38 83 -84 83s-85 -37 -85 -83s39 -84 85 -84s84 38 84 84z" />
    <glyph glyph-name="quotesingle" unicode="'" horiz-adv-x="263" 
d="M203 721l-39 -234c-2 -12 -5 -14 -16 -14h-52c-10 0 -12 2 -12 14v234h119z" />
    <glyph glyph-name="quotedblleft" unicode="&#x201c;" horiz-adv-x="484" 
d="M442 748c-43 -38 -66 -68 -66 -111h33c9 0 10 0 10 -11v-117c0 -12 -1 -12 -10 -12h-120c-9 0 -10 0 -10 12v101c0 72 41 142 116 179zM221 748c-43 -38 -66 -68 -66 -111h33c9 0 10 0 10 -11v-117c0 -12 -1 -12 -10 -12h-120c-9 0 -10 0 -10 12v101c0 72 41 142 116 179
z" />
    <glyph glyph-name="guillemotleft" unicode="&#xab;" horiz-adv-x="643" 
d="M584 134l-70 -59l-199 216l199 216l70 -60l-133 -156zM327 134l-70 -59l-199 216l199 216l70 -60l-133 -156z" />
    <glyph glyph-name="guilsinglleft" unicode="&#x2039;" horiz-adv-x="388" 
d="M330 134l-71 -59l-201 216l201 216l71 -60l-135 -156z" />
    <glyph glyph-name="guilsinglright" unicode="&#x203a;" horiz-adv-x="388" 
d="M330 291l-203 -216l-69 59l133 157l-133 156l69 60z" />
    <glyph glyph-name="endash" unicode="&#x2013;" horiz-adv-x="478" 
d="M442 264h-405v110h405v-110z" />
    <glyph glyph-name="dagger" unicode="&#x2020;" horiz-adv-x="545" 
d="M518 409h-149l-37 10l10 -37v-382h-135v382l11 37l-39 -10h-152v128h152l39 -10l-11 40v212h135v-212l-10 -40l37 10h149v-128z" />
    <glyph glyph-name="daggerdbl" unicode="&#x2021;" horiz-adv-x="545" 
d="M518 227h-149l-37 10l10 -37v-200h-135v200l11 37l-39 -10h-152v127h152l39 -9l-11 39v23l11 37l-39 -10h-152v128h152l39 -10l-11 40v187h135v-187l-10 -40l37 10h149v-128h-149l-37 10l10 -37v-23l-10 -39l37 9h149v-127z" />
    <glyph glyph-name="periodcentered" unicode="&#xb7;" horiz-adv-x="269" 
d="M200 372c0 -9 -1 -10 -9 -10h-113c-8 0 -9 1 -9 10v110c0 11 1 10 9 10h113c8 0 9 1 9 -10v-110z" />
    <glyph glyph-name="paragraph" unicode="&#xb6;" horiz-adv-x="534" 
d="M480 0h-78v648h-51v-648h-78v353h-26c-151 0 -209 85 -209 185c0 101 60 183 209 183h233v-721z" />
    <glyph glyph-name="bullet" unicode="&#x2022;" horiz-adv-x="475" 
d="M428 288c0 -105 -85 -190 -190 -190s-190 85 -190 190s85 190 190 190s190 -85 190 -190z" />
    <glyph glyph-name="quotesinglbase" unicode="&#x201a;" horiz-adv-x="263" 
d="M207 29c0 -78 -45 -154 -126 -194l-51 44c46 42 71 75 71 121h-35c-10 0 -11 0 -11 12v127c0 13 1 13 11 13h130c10 0 11 0 11 -13v-110z" />
    <glyph glyph-name="quotedblbase" unicode="&#x201e;" horiz-adv-x="484" 
d="M443 29c0 -78 -45 -154 -126 -194l-51 44c46 42 71 75 71 121h-35c-10 0 -11 0 -11 12v127c0 13 1 13 11 13h130c10 0 11 0 11 -13v-110zM201 29c0 -78 -45 -154 -126 -194l-51 44c46 42 71 75 71 121h-35c-10 0 -11 0 -11 12v127c0 13 1 13 11 13h130c10 0 11 0 11 -13
v-110z" />
    <glyph glyph-name="quotedblright" unicode="&#x201d;" horiz-adv-x="484" 
d="M424 608c0 -72 -41 -142 -116 -179l-47 41c43 38 66 68 66 111h-33c-9 0 -10 0 -10 11v117c0 12 1 12 10 12h120c9 0 10 0 10 -12v-101zM203 608c0 -72 -41 -142 -116 -179l-47 41c43 38 66 68 66 111h-33c-9 0 -10 0 -10 11v117c0 12 1 12 10 12h120c9 0 10 0 10 -12
v-101z" />
    <glyph glyph-name="guillemotright" unicode="&#xbb;" horiz-adv-x="643" 
d="M584 291l-200 -216l-69 59l132 157l-132 156l69 60zM327 291l-200 -216l-69 59l132 157l-132 156l69 60z" />
    <glyph glyph-name="ellipsis" unicode="&#x2026;" horiz-adv-x="741" 
d="M683 10c0 -9 -1 -10 -9 -10h-132c-8 0 -8 1 -8 10v131c0 10 0 11 8 11h132c8 0 9 -1 9 -11v-131zM445 10c0 -9 0 -10 -8 -10h-132c-8 0 -8 1 -8 10v131c0 10 0 11 8 11h132c8 0 8 -1 8 -11v-131zM207 10c0 -9 -1 -10 -9 -10h-131c-8 0 -9 1 -9 10v131c0 10 1 11 9 11h131
c8 0 9 -1 9 -11v-131z" />
    <glyph glyph-name="perthousand" unicode="&#x2030;" horiz-adv-x="1256" 
d="M737 737l-490 -752h-93l490 752h93zM339 519c0 -115 -17 -223 -147 -223c-131 0 -148 108 -148 223c0 113 22 214 148 214c125 0 147 -101 147 -214zM255 519c0 100 -9 143 -63 143c-55 0 -63 -43 -63 -143c0 -105 8 -153 63 -153c54 0 63 48 63 153zM857 213
c0 -115 -17 -223 -147 -223c-131 0 -148 108 -148 223c0 113 22 214 148 214c125 0 147 -101 147 -214zM773 213c0 100 -9 143 -63 143c-55 0 -63 -43 -63 -143c0 -105 8 -153 63 -153c54 0 63 48 63 153zM1212 213c0 -115 -17 -223 -147 -223c-131 0 -148 108 -148 223
c0 113 22 214 148 214c125 0 147 -101 147 -214zM1128 213c0 100 -9 143 -63 143c-55 0 -63 -43 -63 -143c0 -105 8 -153 63 -153c54 0 63 48 63 153z" />
    <glyph glyph-name="questiondown" unicode="&#xbf;" horiz-adv-x="557" 
d="M375 414c0 -13 -1 -13 -11 -13h-131c-10 0 -10 0 -10 13v127c0 12 0 12 10 12h131c10 0 11 0 11 -12v-127zM507 -11c-1 -123 -43 -232 -232 -232c-167 0 -238 75 -238 218c0 91 50 142 117 197c68 56 87 76 87 124v53h118v-53c0 -102 -34 -139 -102 -194
c-75 -60 -86 -81 -86 -127c0 -69 20 -114 104 -114c88 0 114 42 115 128h117z" />
    <glyph glyph-name="grave" unicode="`" horiz-adv-x="369" 
d="M298 643l-43 -41c-7 -6 -12 -4 -19 1l-174 126l85 83l147 -153c5 -6 13 -7 4 -16z" />
    <glyph glyph-name="acute" unicode="&#xb4;" horiz-adv-x="369" 
d="M304 729l-174 -126c-7 -5 -12 -8 -19 -1l-43 41c-8 8 -2 10 4 16l147 153z" />
    <glyph glyph-name="circumflex" unicode="&#x2c6;" horiz-adv-x="437" 
d="M377 649l-51 -50l-108 86l-107 -86l-52 50l149 155c4 4 7 5 10 5s6 -1 10 -5z" />
    <glyph glyph-name="tilde" unicode="&#x2dc;" horiz-adv-x="489" 
d="M438 743l-73 -96c-12 -16 -32 -24 -52 -24c-14 0 -28 3 -39 11l-85 57c-4 3 -9 5 -13 5s-6 -2 -8 -4l-55 -64l-63 41l81 104c12 16 30 25 50 25c13 0 29 -4 41 -12l85 -57c4 -3 7 -4 11 -4c5 0 9 3 13 7l44 51z" />
    <glyph glyph-name="macron" unicode="&#xaf;" horiz-adv-x="480" 
d="M410 644h-341v99h341v-99z" />
    <glyph glyph-name="breve" unicode="&#x2d8;" horiz-adv-x="473" 
d="M410 747c-41 -76 -82 -125 -172 -125s-132 49 -173 125l66 39c44 -63 66 -72 106 -72s62 9 106 72z" />
    <glyph glyph-name="dotaccent" unicode="&#x2d9;" horiz-adv-x="269" 
d="M206 620c0 -9 -1 -10 -9 -10h-125c-8 0 -9 1 -9 10v114c0 10 1 11 9 11h125c8 0 9 -1 9 -11v-114z" />
    <glyph glyph-name="dieresis" unicode="&#xa8;" horiz-adv-x="465" 
d="M416 653c0 -9 -2 -10 -10 -10h-114c-10 0 -9 1 -9 10v115c0 7 1 11 9 11h114c9 0 10 -3 10 -11v-115zM183 653c0 -9 -2 -10 -10 -10h-114c-10 0 -9 1 -9 10v115c0 7 1 11 9 11h114c9 0 10 -3 10 -11v-115z" />
    <glyph glyph-name="ring" unicode="&#x2da;" horiz-adv-x="346" 
d="M287 714c0 -63 -51 -115 -114 -115s-115 52 -115 115s52 114 115 114s114 -51 114 -114zM220 714c0 26 -21 46 -47 46s-47 -20 -47 -46s21 -47 47 -47s47 21 47 47z" />
    <glyph glyph-name="cedilla" unicode="&#xb8;" horiz-adv-x="333" 
d="M270 -119c0 -56 -40 -81 -106 -81c-42 0 -69 5 -103 20l16 40c33 -10 57 -13 87 -13c35 0 41 18 41 34c0 23 -15 30 -41 30h-52l-28 46l47 56h62l-44 -55h15c70 0 106 -17 106 -77z" />
    <glyph glyph-name="hungarumlaut" unicode="&#x2dd;" horiz-adv-x="596" 
d="M560 729l-174 -126c-7 -5 -12 -8 -19 -1l-43 41c-8 8 -2 10 4 16l147 153zM304 729l-174 -126c-7 -5 -12 -8 -19 -1l-43 41c-8 8 -2 10 4 16l147 153z" />
    <glyph glyph-name="ogonek" unicode="&#x2db;" horiz-adv-x="311" 
d="M261 -171c-38 -10 -64 -16 -101 -16c-72 0 -109 39 -109 83c0 52 55 95 110 122h87c-71 -51 -101 -79 -101 -114c0 -9 5 -23 28 -23c26 0 52 7 78 11z" />
    <glyph glyph-name="caron" unicode="&#x2c7;" horiz-adv-x="473" 
d="M410 746l-137 -128c-13 -12 -23 -19 -36 -19s-24 7 -37 19l-137 128l58 46l116 -89l115 89z" />
    <glyph glyph-name="emdash" unicode="&#x2014;" horiz-adv-x="931" 
d="M894 264h-857v110h857v-110z" />
    <glyph glyph-name="AE" unicode="&#xc6;" horiz-adv-x="1047" 
d="M1003 0h-482v196h-229l-124 -196h-151l451 721h533v-112h-346v-171h317l-34 -114h-292c6 -11 9 -19 9 -33v-179h348v-112zM521 315v263c-5 -19 -13 -36 -18 -45l-137 -218h155z" />
    <glyph glyph-name="ordfeminine" unicode="&#xaa;" horiz-adv-x="345" 
d="M291 456h-55l-10 19c-18 -17 -43 -29 -68 -29c-60 0 -105 36 -105 99c0 64 48 84 105 84c19 0 39 -2 59 -6v25c0 25 -12 30 -36 30c-25 0 -39 -4 -57 -22l-50 30c31 38 58 51 107 51c60 0 110 -23 110 -89v-192zM217 524v52c-15 2 -30 3 -45 3c-21 0 -45 -9 -45 -34
c0 -21 12 -39 34 -39c19 0 40 8 56 18z" />
    <glyph glyph-name="Lslash" unicode="&#x141;" horiz-adv-x="531" 
d="M488 0h-424v292l-55 -32v110l55 33v318h134v-238l98 58v-112l-98 -58v-248h290v-123z" />
    <glyph glyph-name="Oslash" unicode="&#xd8;" horiz-adv-x="703" 
d="M716 746l-107 -139c37 -66 50 -150 50 -238c0 -213 -60 -384 -309 -384c-79 0 -138 17 -183 47l-44 -57h-117l96 125c-44 69 -58 164 -58 269c0 192 57 368 306 368c87 0 152 -22 198 -58l51 67h117zM471 579c-27 29 -66 43 -121 43c-132 0 -170 -83 -170 -253
c0 -61 4 -111 14 -150zM523 369c0 44 -3 82 -9 114l-271 -352c26 -22 60 -32 107 -32c132 0 173 81 173 270z" />
    <glyph glyph-name="OE" unicode="&#x152;" horiz-adv-x="1055" 
d="M1011 0h-481v41c-45 -34 -104 -56 -180 -56c-250 0 -306 171 -306 384c0 192 57 368 306 368c76 0 135 -26 180 -59v43h480v-112h-346v-173h316l-33 -112h-287c3 -7 4 -15 4 -19v-193h347v-112zM529 369c0 170 -46 253 -179 253c-132 0 -170 -83 -170 -253
c0 -190 39 -270 170 -270c132 0 179 81 179 270z" />
    <glyph glyph-name="ordmasculine" unicode="&#xba;" horiz-adv-x="364" 
d="M310 592c0 -86 -34 -145 -128 -145s-127 59 -127 145s33 145 127 145s128 -59 128 -145zM234 592c0 66 -16 81 -52 81s-52 -15 -52 -81s16 -82 52 -82s52 16 52 82z" />
    <glyph glyph-name="ae" unicode="&#xe6;" horiz-adv-x="911" 
d="M874 231h-361c0 -96 33 -141 121 -141c69 0 96 33 119 77l107 -41c-34 -90 -108 -142 -226 -142c-96 0 -163 27 -205 83c-59 -49 -126 -83 -194 -83c-135 0 -198 77 -198 186c0 136 100 169 208 169c42 0 85 -5 126 -13v57c0 37 -19 66 -86 66c-39 0 -84 -6 -120 -54
l-94 56c49 71 120 102 214 102c84 0 135 -24 172 -64c40 41 99 64 177 64c205 0 240 -163 240 -284v-38zM736 327c0 73 -33 120 -102 120c-76 0 -109 -32 -118 -120h220zM371 124v120c-27 4 -61 9 -94 9c-54 0 -107 -17 -107 -83c0 -62 36 -87 81 -87c40 0 81 15 120 41z
" />
    <glyph glyph-name="dotlessi" unicode="&#x131;" horiz-adv-x="258" 
d="M196 0h-134v537h134v-537z" />
    <glyph glyph-name="lslash" unicode="&#x142;" horiz-adv-x="288" 
d="M263 482l-75 -46v-305c0 -22 5 -31 23 -31h44v-109h-69c-91 0 -132 47 -132 140v222l-70 -43v109l70 43v317h134v-234l75 47v-110z" />
    <glyph glyph-name="oslash" unicode="&#xf8;" horiz-adv-x="579" 
d="M578 553l-80 -97c30 -48 43 -112 43 -187c0 -171 -67 -285 -252 -285c-65 0 -116 14 -154 40l-33 -40h-100l80 96c-31 49 -44 113 -44 189c0 171 66 284 251 284c66 0 117 -15 155 -41l34 41h100zM368 422c-19 18 -45 25 -79 25c-82 0 -117 -42 -117 -178
c0 -29 2 -54 5 -75zM407 269c0 28 -2 52 -5 73l-191 -227c19 -18 45 -25 78 -25c81 0 118 42 118 179z" />
    <glyph glyph-name="oe" unicode="&#x153;" horiz-adv-x="942" 
d="M905 231h-361c0 -96 33 -141 121 -141c69 0 96 33 119 77l107 -41c-34 -90 -108 -142 -226 -142c-85 0 -149 28 -191 73c-40 -43 -100 -73 -185 -73c-185 0 -251 114 -251 285s66 284 251 284c85 0 146 -30 186 -73c42 44 104 73 190 73c205 0 240 -163 240 -284v-38z
M767 327c0 73 -33 120 -102 120c-76 0 -109 -32 -118 -120h220zM407 269c0 137 -36 178 -118 178s-117 -42 -117 -178s35 -179 117 -179c81 0 118 42 118 179z" />
    <glyph glyph-name="germandbls" unicode="&#xdf;" horiz-adv-x="608" 
d="M572 227c0 -168 -99 -242 -304 -243v105c153 1 169 56 169 138c0 83 -63 123 -144 123h-50v99h50c82 0 115 57 115 132c0 71 -30 111 -100 111c-77 0 -106 -38 -106 -111v-581h-133v581c0 141 95 215 239 215c176 0 234 -111 234 -215c0 -73 -33 -137 -99 -169
c82 -30 129 -92 129 -185z" />
    <glyph glyph-name="logicalnot" unicode="&#xac;" 
d="M562 203h-112v205h-384v111h496v-316z" />
    <glyph glyph-name="mu" unicode="&#xb5;" horiz-adv-x="590" 
d="M528 0h-110l-16 49c-55 -49 -102 -65 -158 -65c-19 0 -35 2 -51 6v-232h-134v779h134v-338c0 -65 19 -111 81 -111c41 0 86 23 121 47v402h133v-537z" />
    <glyph glyph-name="trademark" unicode="&#x2122;" horiz-adv-x="749" 
d="M693 381h-86l-13 174l-47 -102h-67l-47 102l-14 -174h-84l26 340h76l77 -165l77 165h75zM329 645h-98v-264h-86v264h-98v76h282v-76z" />
    <glyph glyph-name="Eth" unicode="&#xd0;" horiz-adv-x="674" 
d="M640 369c0 -200 -97 -369 -357 -369h-219v324h-78v112h78v285h219c254 0 357 -152 357 -352zM504 369c0 160 -70 238 -221 238h-85v-171h132l-33 -112h-99v-211h85c150 0 221 87 221 256z" />
    <glyph glyph-name="onehalf" unicode="&#xbd;" horiz-adv-x="870" 
d="M299 305h-253v75h85v262l-86 -17v73l170 35v-353h84v-75zM721 737l-500 -752h-83l500 752h83zM825 0h-291c0 123 75 174 135 216c39 27 71 49 71 85c0 41 -24 57 -55 57c-55 0 -69 -30 -76 -72h-76c6 72 41 142 152 142c75 0 140 -35 140 -127c0 -74 -56 -112 -111 -151
c-42 -31 -67 -48 -79 -78h111v45h79v-117z" />
    <glyph glyph-name="plusminus" unicode="&#xb1;" 
d="M596 389h-223v-228h-116v228h-226v116h226v223h116v-223h223v-116zM597 0h-566v108h566v-108z" />
    <glyph glyph-name="Thorn" unicode="&#xde;" horiz-adv-x="619" 
d="M576 385c0 -130 -82 -241 -268 -241h-117c2 -7 7 -19 7 -26v-118h-134v721h134v-107h110c184 0 268 -98 268 -229zM440 385c0 77 -44 115 -132 115h-110v-242h110c90 0 132 45 132 127z" />
    <glyph glyph-name="onequarter" unicode="&#xbc;" horiz-adv-x="806" 
d="M299 305h-253v75h85v262l-86 -17v73l170 35v-353h84v-75zM721 737l-500 -752h-83l500 752h83zM761 102h-43v-102h-84v102h-200v67l210 250h74v-241h43v-76zM634 287l-90 -109h90v109z" />
    <glyph glyph-name="divide" unicode="&#xf7;" 
d="M385 673v-126c0 -7 -2 -7 -8 -7h-125c-8 0 -8 1 -8 9v124c0 7 1 8 8 8h125c7 0 8 -1 8 -8zM562 303h-496v116h496v-116zM385 173v-126c0 -7 -2 -7 -8 -7h-125c-8 0 -8 1 -8 9v124c0 7 1 8 8 8h125c7 0 8 -1 8 -8z" />
    <glyph glyph-name="brokenbar" unicode="&#xa6;" horiz-adv-x="308" 
d="M213 433h-117v317h117v-317zM213 0h-117v317h117v-317z" />
    <glyph glyph-name="degree" unicode="&#xb0;" horiz-adv-x="334" 
d="M295 608c0 -71 -57 -128 -128 -128s-128 57 -128 128s57 128 128 128s128 -57 128 -128zM224 608c0 32 -25 58 -57 58s-57 -26 -57 -58s25 -57 57 -57s57 25 57 57z" />
    <glyph glyph-name="thorn" unicode="&#xfe;" horiz-adv-x="597" 
d="M559 273c0 -157 -62 -289 -251 -289c-35 0 -76 7 -114 24c6 -13 9 -26 9 -35v-215h-134v1021h134v-268c36 28 79 42 120 42c169 0 236 -107 236 -280zM425 273c0 131 -36 178 -116 178c-30 0 -65 -5 -106 -34v-311c30 -14 71 -20 105 -20c81 0 117 52 117 187z" />
    <glyph glyph-name="threequarters" unicode="&#xbe;" horiz-adv-x="852" 
d="M757 737l-500 -752h-83l500 752h83zM807 102h-43v-102h-84v102h-200v67l210 250h74v-241h43v-76zM680 287l-90 -109h90v109zM364 432c0 -91 -65 -136 -153 -136c-77 0 -129 24 -166 98l64 31c28 -52 55 -60 102 -60s68 26 68 67c0 33 -19 58 -56 58h-66l-21 66h87
c30 0 48 23 48 58c0 27 -12 50 -54 50c-48 0 -74 -8 -101 -60l-65 30c38 74 89 99 166 99c101 0 139 -52 139 -119c0 -38 -20 -71 -50 -87c35 -17 58 -57 58 -95z" />
    <glyph glyph-name="registered" unicode="&#xae;" horiz-adv-x="872" 
d="M813 361c0 -208 -169 -376 -377 -376s-377 168 -377 376s169 376 377 376s377 -168 377 -376zM734 361c0 165 -133 298 -298 298s-298 -133 -298 -298s133 -298 298 -298s298 133 298 298zM608 154h-98l-91 147c-2 3 -4 8 -5 14h-59v-161h-82v418h156
c103 0 152 -54 152 -131c0 -51 -25 -95 -80 -115zM499 441c0 36 -20 57 -69 57h-75v-112h74c51 0 70 18 70 55z" />
    <glyph glyph-name="minus" unicode="&#x2212;" 
d="M562 303h-496v116h496v-116z" />
    <glyph glyph-name="eth" unicode="&#xf0;" horiz-adv-x="579" 
d="M541 270c0 -176 -67 -286 -252 -286s-251 110 -251 286s66 283 251 283c10 0 38 -3 57 -10c-30 37 -56 63 -91 88l-62 -49l-61 50l52 41c-29 14 -58 27 -91 39l59 94c46 -17 88 -35 128 -57l76 59l60 -49l-69 -54c128 -97 194 -233 194 -435zM405 270
c0 112 -8 173 -116 173c-82 0 -117 -32 -117 -173c0 -140 35 -176 117 -176s116 36 116 176z" />
    <glyph glyph-name="multiply" unicode="&#xd7;" 
d="M555 221l-82 -82l-158 158l-158 -158l-84 82l160 159l-159 157l82 82l158 -157l157 157l84 -82l-159 -158z" />
    <glyph glyph-name="copyright" unicode="&#xa9;" horiz-adv-x="872" 
d="M813 361c0 -208 -169 -376 -377 -376s-377 168 -377 376s169 376 377 376s377 -168 377 -376zM734 361c0 165 -133 298 -298 298s-298 -133 -298 -298s133 -298 298 -298s298 133 298 298zM596 249c-28 -60 -71 -107 -157 -107c-150 0 -177 107 -177 216
c0 124 33 215 172 215c108 0 148 -68 154 -147h-83c-6 43 -19 70 -71 70c-75 0 -84 -47 -84 -138c0 -82 11 -140 89 -140c40 0 63 18 89 74z" />
    <glyph glyph-name="Aacute" unicode="&#xc1;" horiz-adv-x="694" 
d="M676 0h-141l-62 183h-253l-63 -183h-139l261 721h137zM434 295l-73 215c-7 19 -13 44 -15 57c-2 -14 -8 -39 -14 -57l-74 -215h176zM489 901l-174 -126c-7 -5 -12 -8 -19 -1l-43 41c-8 8 -2 10 4 16l147 153z" />
    <glyph glyph-name="Acircumflex" unicode="&#xc2;" horiz-adv-x="694" 
d="M676 0h-141l-62 183h-253l-63 -183h-139l261 721h137zM434 295l-73 215c-7 19 -13 44 -15 57c-2 -14 -8 -39 -14 -57l-74 -215h176zM506 816l-51 -50l-108 86l-107 -86l-52 50l149 155c4 4 7 5 10 5s6 -1 10 -5z" />
    <glyph glyph-name="Adieresis" unicode="&#xc4;" horiz-adv-x="694" 
d="M676 0h-141l-62 183h-253l-63 -183h-139l261 721h137zM434 295l-73 215c-7 19 -13 44 -15 57c-2 -14 -8 -39 -14 -57l-74 -215h176zM530 797c0 -9 -2 -10 -10 -10h-114c-10 0 -9 1 -9 10v115c0 7 1 11 9 11h114c9 0 10 -3 10 -11v-115zM297 797c0 -9 -2 -10 -10 -10h-114
c-10 0 -9 1 -9 10v115c0 7 1 11 9 11h114c9 0 10 -3 10 -11v-115z" />
    <glyph glyph-name="Agrave" unicode="&#xc0;" horiz-adv-x="694" 
d="M676 0h-141l-62 183h-253l-63 -183h-139l261 721h137zM434 295l-73 215c-7 19 -13 44 -15 57c-2 -14 -8 -39 -14 -57l-74 -215h176zM440 812l-43 -41c-7 -6 -12 -4 -19 1l-174 126l85 83l147 -153c5 -6 13 -7 4 -16z" />
    <glyph glyph-name="Aring" unicode="&#xc5;" horiz-adv-x="694" 
d="M676 0h-141l-62 183h-253l-63 -183h-139l261 721h137zM434 295l-73 215c-7 19 -13 44 -15 57c-2 -14 -8 -39 -14 -57l-74 -215h176zM461 881c0 -63 -51 -115 -114 -115s-115 52 -115 115s52 114 115 114s114 -51 114 -114zM394 881c0 26 -21 46 -47 46s-47 -20 -47 -46
s21 -47 47 -47s47 21 47 47z" />
    <glyph glyph-name="Atilde" unicode="&#xc3;" horiz-adv-x="694" 
d="M676 0h-141l-62 183h-253l-63 -183h-139l261 721h137zM434 295l-73 215c-7 19 -13 44 -15 57c-2 -14 -8 -39 -14 -57l-74 -215h176zM541 887l-73 -96c-12 -16 -32 -24 -52 -24c-14 0 -28 3 -39 11l-85 57c-4 3 -9 5 -13 5s-6 -2 -8 -4l-55 -64l-63 41l81 104
c12 16 30 25 50 25c13 0 29 -4 41 -12l85 -57c4 -3 7 -4 11 -4c5 0 9 3 13 7l44 51z" />
    <glyph glyph-name="Ccedilla" unicode="&#xc7;" horiz-adv-x="661" 
d="M628 152c-41 -92 -122 -168 -277 -168l-20 -26h15c70 0 106 -17 106 -77c0 -56 -40 -81 -106 -81c-42 0 -69 5 -103 20l16 40c33 -10 57 -13 87 -13c35 0 41 18 41 34c0 23 -15 30 -41 30h-52l-28 46l25 31c-200 27 -247 193 -247 373c0 222 76 376 307 376
c181 0 263 -107 272 -238h-127c-11 79 -48 123 -145 123c-142 0 -171 -95 -171 -261c0 -150 24 -266 171 -266c71 0 131 25 177 118z" />
    <glyph glyph-name="Eacute" unicode="&#xc9;" horiz-adv-x="589" 
d="M545 0h-481v721h480v-112h-346v-173h316l-33 -112h-287c3 -7 4 -15 4 -19v-193h347v-112zM466 899l-174 -126c-7 -5 -12 -8 -19 -1l-43 41c-8 8 -2 10 4 16l147 153z" />
    <glyph glyph-name="Ecircumflex" unicode="&#xca;" horiz-adv-x="589" 
d="M545 0h-481v721h480v-112h-346v-173h316l-33 -112h-287c3 -7 4 -15 4 -19v-193h347v-112zM453 816l-51 -50l-108 86l-107 -86l-52 50l149 155c4 4 7 5 10 5s6 -1 10 -5z" />
    <glyph glyph-name="Edieresis" unicode="&#xcb;" horiz-adv-x="589" 
d="M545 0h-481v721h480v-112h-346v-173h316l-33 -112h-287c3 -7 4 -15 4 -19v-193h347v-112zM478 796c0 -9 -2 -10 -10 -10h-114c-10 0 -9 1 -9 10v115c0 7 1 11 9 11h114c9 0 10 -3 10 -11v-115zM245 796c0 -9 -2 -10 -10 -10h-114c-10 0 -9 1 -9 10v115c0 7 1 11 9 11h114
c9 0 10 -3 10 -11v-115z" />
    <glyph glyph-name="Egrave" unicode="&#xc8;" horiz-adv-x="589" 
d="M545 0h-481v721h480v-112h-346v-173h316l-33 -112h-287c3 -7 4 -15 4 -19v-193h347v-112zM376 812l-43 -41c-7 -6 -12 -4 -19 1l-174 126l85 83l147 -153c5 -6 13 -7 4 -16z" />
    <glyph glyph-name="Iacute" unicode="&#xcd;" horiz-adv-x="262" 
d="M198 0h-134v721h134v-721zM288 901l-174 -126c-7 -5 -12 -8 -19 -1l-43 41c-8 8 -2 10 4 16l147 153z" />
    <glyph glyph-name="Icircumflex" unicode="&#xce;" horiz-adv-x="262" 
d="M198 0h-134v721h134v-721zM290 815l-51 -50l-108 86l-107 -86l-52 50l149 155c4 4 7 5 10 5s6 -1 10 -5z" />
    <glyph glyph-name="Idieresis" unicode="&#xcf;" horiz-adv-x="262" 
d="M198 0h-134v721h134v-721zM315 796c0 -9 -2 -10 -10 -10h-114c-10 0 -9 1 -9 10v115c0 7 1 11 9 11h114c9 0 10 -3 10 -11v-115zM82 796c0 -9 -2 -10 -10 -10h-114c-10 0 -9 1 -9 10v115c0 7 1 11 9 11h114c9 0 10 -3 10 -11v-115z" />
    <glyph glyph-name="Igrave" unicode="&#xcc;" horiz-adv-x="262" 
d="M198 0h-134v721h134v-721zM226 812l-43 -41c-7 -6 -12 -4 -19 1l-174 126l85 83l147 -153c5 -6 13 -7 4 -16z" />
    <glyph glyph-name="Ntilde" unicode="&#xd1;" horiz-adv-x="727" 
d="M663 0h-115l-354 482c3 -10 4 -21 4 -29v-453h-134v721h115l355 -484c-4 14 -5 29 -5 44v440h134v-721zM560 886l-73 -96c-12 -16 -32 -24 -52 -24c-14 0 -28 3 -39 11l-85 57c-4 3 -9 5 -13 5s-6 -2 -8 -4l-55 -64l-63 41l81 104c12 16 30 25 50 25c13 0 29 -4 41 -12
l85 -57c4 -3 7 -4 11 -4c5 0 9 3 13 7l44 51z" />
    <glyph glyph-name="Oacute" unicode="&#xd3;" horiz-adv-x="703" 
d="M659 369c0 -213 -60 -384 -309 -384c-250 0 -306 171 -306 384c0 192 57 368 306 368s309 -176 309 -368zM523 369c0 170 -40 253 -173 253c-132 0 -170 -83 -170 -253c0 -190 39 -270 170 -270c132 0 173 81 173 270zM515 898l-174 -126c-7 -5 -12 -8 -19 -1l-43 41
c-8 8 -2 10 4 16l147 153z" />
    <glyph glyph-name="Ocircumflex" unicode="&#xd4;" horiz-adv-x="703" 
d="M659 369c0 -213 -60 -384 -309 -384c-250 0 -306 171 -306 384c0 192 57 368 306 368s309 -176 309 -368zM523 369c0 170 -40 253 -173 253c-132 0 -170 -83 -170 -253c0 -190 39 -270 170 -270c132 0 173 81 173 270zM510 816l-51 -50l-108 86l-107 -86l-52 50l149 155
c4 4 7 5 10 5s6 -1 10 -5z" />
    <glyph glyph-name="Odieresis" unicode="&#xd6;" horiz-adv-x="703" 
d="M659 369c0 -213 -60 -384 -309 -384c-250 0 -306 171 -306 384c0 192 57 368 306 368s309 -176 309 -368zM523 369c0 170 -40 253 -173 253c-132 0 -170 -83 -170 -253c0 -190 39 -270 170 -270c132 0 173 81 173 270zM535 796c0 -9 -2 -10 -10 -10h-114
c-10 0 -9 1 -9 10v115c0 7 1 11 9 11h114c9 0 10 -3 10 -11v-115zM302 796c0 -9 -2 -10 -10 -10h-114c-10 0 -9 1 -9 10v115c0 7 1 11 9 11h114c9 0 10 -3 10 -11v-115z" />
    <glyph glyph-name="Ograve" unicode="&#xd2;" horiz-adv-x="703" 
d="M659 369c0 -213 -60 -384 -309 -384c-250 0 -306 171 -306 384c0 192 57 368 306 368s309 -176 309 -368zM523 369c0 170 -40 253 -173 253c-132 0 -170 -83 -170 -253c0 -190 39 -270 170 -270c132 0 173 81 173 270zM450 813l-43 -41c-7 -6 -12 -4 -19 1l-174 126
l85 83l147 -153c5 -6 13 -7 4 -16z" />
    <glyph glyph-name="Otilde" unicode="&#xd5;" horiz-adv-x="703" 
d="M659 369c0 -213 -60 -384 -309 -384c-250 0 -306 171 -306 384c0 192 57 368 306 368s309 -176 309 -368zM523 369c0 170 -40 253 -173 253c-132 0 -170 -83 -170 -253c0 -190 39 -270 170 -270c132 0 173 81 173 270zM545 880l-73 -96c-12 -16 -32 -24 -52 -24
c-14 0 -28 3 -39 11l-85 57c-4 3 -9 5 -13 5s-6 -2 -8 -4l-55 -64l-63 41l81 104c12 16 30 25 50 25c13 0 29 -4 41 -12l85 -57c4 -3 7 -4 11 -4c5 0 9 3 13 7l44 51z" />
    <glyph glyph-name="Scaron" unicode="&#x160;" horiz-adv-x="605" 
d="M578 212c0 -132 -84 -228 -282 -228c-149 0 -221 69 -267 142l111 58c31 -46 79 -85 155 -85c113 0 147 48 147 113c0 47 -22 81 -86 91l-147 24c-104 17 -171 72 -171 204c0 104 72 206 262 206c149 0 214 -56 260 -129l-111 -58c-31 46 -73 72 -149 72
c-96 0 -129 -37 -129 -91c0 -51 19 -68 68 -76l143 -23c108 -17 196 -74 196 -220zM476 915l-137 -128c-13 -12 -23 -19 -36 -19s-24 7 -37 19l-137 128l58 46l116 -89l115 89z" />
    <glyph glyph-name="Uacute" unicode="&#xda;" horiz-adv-x="712" 
d="M653 300c0 -223 -124 -316 -298 -316s-296 93 -296 316v421h134v-421c0 -146 56 -201 162 -201s164 56 164 201v421h134v-421zM527 897l-174 -126c-7 -5 -12 -8 -19 -1l-43 41c-8 8 -2 10 4 16l147 153z" />
    <glyph glyph-name="Ucircumflex" unicode="&#xdb;" horiz-adv-x="712" 
d="M653 300c0 -223 -124 -316 -298 -316s-296 93 -296 316v421h134v-421c0 -146 56 -201 162 -201s164 56 164 201v421h134v-421zM515 814l-51 -50l-108 86l-107 -86l-52 50l149 155c4 4 7 5 10 5s6 -1 10 -5z" />
    <glyph glyph-name="Udieresis" unicode="&#xdc;" horiz-adv-x="712" 
d="M653 300c0 -223 -124 -316 -298 -316s-296 93 -296 316v421h134v-421c0 -146 56 -201 162 -201s164 56 164 201v421h134v-421zM539 796c0 -9 -2 -10 -10 -10h-114c-10 0 -9 1 -9 10v115c0 7 1 11 9 11h114c9 0 10 -3 10 -11v-115zM306 796c0 -9 -2 -10 -10 -10h-114
c-10 0 -9 1 -9 10v115c0 7 1 11 9 11h114c9 0 10 -3 10 -11v-115z" />
    <glyph glyph-name="Ugrave" unicode="&#xd9;" horiz-adv-x="712" 
d="M653 300c0 -223 -124 -316 -298 -316s-296 93 -296 316v421h134v-421c0 -146 56 -201 162 -201s164 56 164 201v421h134v-421zM433 813l-43 -41c-7 -6 -12 -4 -19 1l-174 126l85 83l147 -153c5 -6 13 -7 4 -16z" />
    <glyph glyph-name="Yacute" unicode="&#xdd;" horiz-adv-x="661" 
d="M650 721l-251 -431v-290h-135v290l-253 431h146l160 -287c5 -9 12 -27 14 -37c1 10 8 28 13 37l161 287h145zM506 900l-174 -126c-7 -5 -12 -8 -19 -1l-43 41c-8 8 -2 10 4 16l147 153z" />
    <glyph glyph-name="Ydieresis" unicode="&#x178;" horiz-adv-x="661" 
d="M650 721l-251 -431v-290h-135v290l-253 431h146l160 -287c5 -9 12 -27 14 -37c1 10 8 28 13 37l161 287h145zM514 796c0 -9 -2 -10 -10 -10h-114c-10 0 -9 1 -9 10v115c0 7 1 11 9 11h114c9 0 10 -3 10 -11v-115zM281 796c0 -9 -2 -10 -10 -10h-114c-10 0 -9 1 -9 10v115
c0 7 1 11 9 11h114c9 0 10 -3 10 -11v-115z" />
    <glyph glyph-name="Zcaron" unicode="&#x17d;" horiz-adv-x="596" 
d="M552 618l-320 -473c-4 -6 -20 -25 -31 -33h343v-112h-500v102l320 473c5 7 22 25 34 34h-323l-34 112h511v-103zM471 915l-137 -128c-13 -12 -23 -19 -36 -19s-24 7 -37 19l-137 128l58 46l116 -89l115 89z" />
    <glyph glyph-name="aacute" unicode="&#xe1;" horiz-adv-x="566" 
d="M504 0h-110l-12 37c-39 -30 -83 -53 -147 -53c-135 0 -198 77 -198 186c0 136 100 169 208 169c42 0 85 -5 126 -13v57c0 37 -19 66 -86 66c-39 0 -84 -6 -120 -54l-94 56c49 71 120 102 214 102c178 0 219 -106 219 -170v-383zM371 124v120c-27 4 -61 9 -94 9
c-54 0 -107 -17 -107 -83c0 -62 36 -87 81 -87c40 0 81 15 120 41zM465 729l-174 -126c-7 -5 -12 -8 -19 -1l-43 41c-8 8 -2 10 4 16l147 153z" />
    <glyph glyph-name="acircumflex" unicode="&#xe2;" horiz-adv-x="566" 
d="M504 0h-110l-12 37c-39 -30 -83 -53 -147 -53c-135 0 -198 77 -198 186c0 136 100 169 208 169c42 0 85 -5 126 -13v57c0 37 -19 66 -86 66c-39 0 -84 -6 -120 -54l-94 56c49 71 120 102 214 102c178 0 219 -106 219 -170v-383zM371 124v120c-27 4 -61 9 -94 9
c-54 0 -107 -17 -107 -83c0 -62 36 -87 81 -87c40 0 81 15 120 41zM442 649l-51 -50l-108 86l-107 -86l-52 50l149 155c4 4 7 5 10 5s6 -1 10 -5z" />
    <glyph glyph-name="adieresis" unicode="&#xe4;" horiz-adv-x="566" 
d="M504 0h-110l-12 37c-39 -30 -83 -53 -147 -53c-135 0 -198 77 -198 186c0 136 100 169 208 169c42 0 85 -5 126 -13v57c0 37 -19 66 -86 66c-39 0 -84 -6 -120 -54l-94 56c49 71 120 102 214 102c178 0 219 -106 219 -170v-383zM371 124v120c-27 4 -61 9 -94 9
c-54 0 -107 -17 -107 -83c0 -62 36 -87 81 -87c40 0 81 15 120 41zM466 653c0 -9 -2 -10 -10 -10h-114c-10 0 -9 1 -9 10v115c0 7 1 11 9 11h114c9 0 10 -3 10 -11v-115zM233 653c0 -9 -2 -10 -10 -10h-114c-10 0 -9 1 -9 10v115c0 7 1 11 9 11h114c9 0 10 -3 10 -11v-115z
" />
    <glyph glyph-name="agrave" unicode="&#xe0;" horiz-adv-x="566" 
d="M504 0h-110l-12 37c-39 -30 -83 -53 -147 -53c-135 0 -198 77 -198 186c0 136 100 169 208 169c42 0 85 -5 126 -13v57c0 37 -19 66 -86 66c-39 0 -84 -6 -120 -54l-94 56c49 71 120 102 214 102c178 0 219 -106 219 -170v-383zM371 124v120c-27 4 -61 9 -94 9
c-54 0 -107 -17 -107 -83c0 -62 36 -87 81 -87c40 0 81 15 120 41zM361 643l-43 -41c-7 -6 -12 -4 -19 1l-174 126l85 83l147 -153c5 -6 13 -7 4 -16z" />
    <glyph glyph-name="aring" unicode="&#xe5;" horiz-adv-x="566" 
d="M504 0h-110l-12 37c-39 -30 -83 -53 -147 -53c-135 0 -198 77 -198 186c0 136 100 169 208 169c42 0 85 -5 126 -13v57c0 37 -19 66 -86 66c-39 0 -84 -6 -120 -54l-94 56c49 71 120 102 214 102c178 0 219 -106 219 -170v-383zM371 124v120c-27 4 -61 9 -94 9
c-54 0 -107 -17 -107 -83c0 -62 36 -87 81 -87c40 0 81 15 120 41zM397 714c0 -63 -51 -115 -114 -115s-115 52 -115 115s52 114 115 114s114 -51 114 -114zM330 714c0 26 -21 46 -47 46s-47 -20 -47 -46s21 -47 47 -47s47 21 47 47z" />
    <glyph glyph-name="atilde" unicode="&#xe3;" horiz-adv-x="566" 
d="M504 0h-110l-12 37c-39 -30 -83 -53 -147 -53c-135 0 -198 77 -198 186c0 136 100 169 208 169c42 0 85 -5 126 -13v57c0 37 -19 66 -86 66c-39 0 -84 -6 -120 -54l-94 56c49 71 120 102 214 102c178 0 219 -106 219 -170v-383zM371 124v120c-27 4 -61 9 -94 9
c-54 0 -107 -17 -107 -83c0 -62 36 -87 81 -87c40 0 81 15 120 41zM477 743l-73 -96c-12 -16 -32 -24 -52 -24c-14 0 -28 3 -39 11l-85 57c-4 3 -9 5 -13 5s-6 -2 -8 -4l-55 -64l-63 41l81 104c12 16 30 25 50 25c13 0 29 -4 41 -12l85 -57c4 -3 7 -4 11 -4c5 0 9 3 13 7
l44 51z" />
    <glyph glyph-name="ccedilla" unicode="&#xe7;" horiz-adv-x="539" 
d="M520 126c-26 -79 -97 -141 -222 -142l-21 -26h15c70 0 106 -17 106 -77c0 -56 -40 -81 -106 -81c-42 0 -69 5 -103 20l16 40c33 -10 57 -13 87 -13c35 0 41 18 41 34c0 23 -15 30 -41 30h-52l-28 46l26 31c-150 21 -200 127 -200 281c0 172 63 284 257 284
c127 0 199 -62 225 -142l-106 -40c-30 54 -57 76 -119 76c-95 0 -123 -43 -123 -178s28 -179 123 -179c62 0 89 22 119 76z" />
    <glyph glyph-name="eacute" unicode="&#xe9;" horiz-adv-x="572" 
d="M535 230h-361c0 -96 33 -140 121 -140c69 0 103 30 126 74l107 -41c-34 -90 -115 -139 -233 -139c-176 0 -257 94 -257 285c0 180 74 284 257 284c205 0 240 -163 240 -284v-39zM397 324c0 81 -33 123 -102 123c-76 0 -110 -29 -118 -123h220zM460 729l-174 -126
c-7 -5 -12 -8 -19 -1l-43 41c-8 8 -2 10 4 16l147 153z" />
    <glyph glyph-name="ecircumflex" unicode="&#xea;" horiz-adv-x="572" 
d="M535 230h-361c0 -96 33 -140 121 -140c69 0 103 30 126 74l107 -41c-34 -90 -115 -139 -233 -139c-176 0 -257 94 -257 285c0 180 74 284 257 284c205 0 240 -163 240 -284v-39zM397 324c0 81 -33 123 -102 123c-76 0 -110 -29 -118 -123h220zM459 649l-51 -50l-108 86
l-107 -86l-52 50l149 155c4 4 7 5 10 5s6 -1 10 -5z" />
    <glyph glyph-name="edieresis" unicode="&#xeb;" horiz-adv-x="572" 
d="M535 230h-361c0 -96 33 -140 121 -140c69 0 103 30 126 74l107 -41c-34 -90 -115 -139 -233 -139c-176 0 -257 94 -257 285c0 180 74 284 257 284c205 0 240 -163 240 -284v-39zM397 324c0 81 -33 123 -102 123c-76 0 -110 -29 -118 -123h220zM469 653
c0 -9 -2 -10 -10 -10h-114c-10 0 -9 1 -9 10v115c0 7 1 11 9 11h114c9 0 10 -3 10 -11v-115zM236 653c0 -9 -2 -10 -10 -10h-114c-10 0 -9 1 -9 10v115c0 7 1 11 9 11h114c9 0 10 -3 10 -11v-115z" />
    <glyph glyph-name="egrave" unicode="&#xe8;" horiz-adv-x="572" 
d="M535 230h-361c0 -96 33 -140 121 -140c69 0 103 30 126 74l107 -41c-34 -90 -115 -139 -233 -139c-176 0 -257 94 -257 285c0 180 74 284 257 284c205 0 240 -163 240 -284v-39zM397 324c0 81 -33 123 -102 123c-76 0 -110 -29 -118 -123h220zM374 643l-43 -41
c-7 -6 -12 -4 -19 1l-174 126l85 83l147 -153c5 -6 13 -7 4 -16z" />
    <glyph glyph-name="iacute" unicode="&#xed;" horiz-adv-x="258" 
d="M196 0h-134v537h134v-537zM272 729l-174 -126c-7 -5 -12 -8 -19 -1l-43 41c-8 8 -2 10 4 16l147 153z" />
    <glyph glyph-name="icircumflex" unicode="&#xee;" horiz-adv-x="258" 
d="M196 0h-134v537h134v-537zM288 649l-51 -50l-108 86l-107 -86l-52 50l149 155c4 4 7 5 10 5s6 -1 10 -5z" />
    <glyph glyph-name="idieresis" unicode="&#xef;" horiz-adv-x="258" 
d="M196 0h-134v537h134v-537zM313 653c0 -9 -2 -10 -10 -10h-114c-10 0 -9 1 -9 10v115c0 7 1 11 9 11h114c9 0 10 -3 10 -11v-115zM80 653c0 -9 -2 -10 -10 -10h-114c-10 0 -9 1 -9 10v115c0 7 1 11 9 11h114c9 0 10 -3 10 -11v-115z" />
    <glyph glyph-name="igrave" unicode="&#xec;" horiz-adv-x="258" 
d="M196 0h-134v537h134v-537zM213 643l-43 -41c-7 -6 -12 -4 -19 1l-174 126l85 83l147 -153c5 -6 13 -7 4 -16z" />
    <glyph glyph-name="ntilde" unicode="&#xf1;" horiz-adv-x="590" 
d="M530 0h-133v338c0 65 -19 111 -81 111c-41 0 -86 -23 -121 -47v-402h-133v537h110l16 -49c55 49 102 65 158 65c130 0 184 -97 184 -215v-338zM489 743l-73 -96c-12 -16 -32 -24 -52 -24c-14 0 -28 3 -39 11l-85 57c-4 3 -9 5 -13 5s-6 -2 -8 -4l-55 -64l-63 41l81 104
c12 16 30 25 50 25c13 0 29 -4 41 -12l85 -57c4 -3 7 -4 11 -4c5 0 9 3 13 7l44 51z" />
    <glyph glyph-name="oacute" unicode="&#xf3;" horiz-adv-x="579" 
d="M541 269c0 -171 -67 -285 -252 -285s-251 114 -251 285s66 284 251 284s252 -113 252 -284zM407 269c0 137 -36 178 -118 178s-117 -42 -117 -178s35 -179 117 -179c81 0 118 42 118 179zM432 729l-174 -126c-7 -5 -12 -8 -19 -1l-43 41c-8 8 -2 10 4 16l147 153z" />
    <glyph glyph-name="ocircumflex" unicode="&#xf4;" horiz-adv-x="579" 
d="M541 269c0 -171 -67 -285 -252 -285s-251 114 -251 285s66 284 251 284s252 -113 252 -284zM407 269c0 137 -36 178 -118 178s-117 -42 -117 -178s35 -179 117 -179c81 0 118 42 118 179zM448 649l-51 -50l-108 86l-107 -86l-52 50l149 155c4 4 7 5 10 5s6 -1 10 -5z" />
    <glyph glyph-name="odieresis" unicode="&#xf6;" horiz-adv-x="579" 
d="M541 269c0 -171 -67 -285 -252 -285s-251 114 -251 285s66 284 251 284s252 -113 252 -284zM407 269c0 137 -36 178 -118 178s-117 -42 -117 -178s35 -179 117 -179c81 0 118 42 118 179zM473 653c0 -9 -2 -10 -10 -10h-114c-10 0 -9 1 -9 10v115c0 7 1 11 9 11h114
c9 0 10 -3 10 -11v-115zM240 653c0 -9 -2 -10 -10 -10h-114c-10 0 -9 1 -9 10v115c0 7 1 11 9 11h114c9 0 10 -3 10 -11v-115z" />
    <glyph glyph-name="ograve" unicode="&#xf2;" horiz-adv-x="579" 
d="M541 269c0 -171 -67 -285 -252 -285s-251 114 -251 285s66 284 251 284s252 -113 252 -284zM407 269c0 137 -36 178 -118 178s-117 -42 -117 -178s35 -179 117 -179c81 0 118 42 118 179zM363 643l-43 -41c-7 -6 -12 -4 -19 1l-174 126l85 83l147 -153c5 -6 13 -7 4 -16z
" />
    <glyph glyph-name="otilde" unicode="&#xf5;" horiz-adv-x="579" 
d="M541 269c0 -171 -67 -285 -252 -285s-251 114 -251 285s66 284 251 284s252 -113 252 -284zM407 269c0 137 -36 178 -118 178s-117 -42 -117 -178s35 -179 117 -179c81 0 118 42 118 179zM483 743l-73 -96c-12 -16 -32 -24 -52 -24c-14 0 -28 3 -39 11l-85 57
c-4 3 -9 5 -13 5s-6 -2 -8 -4l-55 -64l-63 41l81 104c12 16 30 25 50 25c13 0 29 -4 41 -12l85 -57c4 -3 7 -4 11 -4c5 0 9 3 13 7l44 51z" />
    <glyph glyph-name="scaron" unicode="&#x161;" horiz-adv-x="511" 
d="M481 169c0 -133 -113 -185 -232 -185c-94 0 -172 32 -220 116l106 41c27 -38 63 -55 114 -55c40 0 101 10 101 65c0 27 -12 49 -46 55l-128 23c-68 12 -137 49 -137 166c0 101 84 158 216 158c111 0 179 -45 215 -109l-98 -49c-24 34 -62 53 -117 53
c-47 0 -86 -10 -86 -53c0 -24 10 -44 39 -49l119 -21c82 -14 154 -52 154 -156zM429 746l-137 -128c-13 -12 -23 -19 -36 -19s-24 7 -37 19l-137 128l58 46l116 -89l115 89z" />
    <glyph glyph-name="uacute" unicode="&#xfa;" horiz-adv-x="590" 
d="M528 0h-110l-16 49c-55 -49 -102 -65 -158 -65c-130 0 -184 97 -184 215v338h133v-338c0 -65 19 -111 81 -111c41 0 86 23 121 47v402h133v-537zM467 729l-174 -126c-7 -5 -12 -8 -19 -1l-43 41c-8 8 -2 10 4 16l147 153z" />
    <glyph glyph-name="ucircumflex" unicode="&#xfb;" horiz-adv-x="590" 
d="M528 0h-110l-16 49c-55 -49 -102 -65 -158 -65c-130 0 -184 97 -184 215v338h133v-338c0 -65 19 -111 81 -111c41 0 86 23 121 47v402h133v-537zM454 649l-51 -50l-108 86l-107 -86l-52 50l149 155c4 4 7 5 10 5s6 -1 10 -5z" />
    <glyph glyph-name="udieresis" unicode="&#xfc;" horiz-adv-x="590" 
d="M528 0h-110l-16 49c-55 -49 -102 -65 -158 -65c-130 0 -184 97 -184 215v338h133v-338c0 -65 19 -111 81 -111c41 0 86 23 121 47v402h133v-537zM478 653c0 -9 -2 -10 -10 -10h-114c-10 0 -9 1 -9 10v115c0 7 1 11 9 11h114c9 0 10 -3 10 -11v-115zM245 653
c0 -9 -2 -10 -10 -10h-114c-10 0 -9 1 -9 10v115c0 7 1 11 9 11h114c9 0 10 -3 10 -11v-115z" />
    <glyph glyph-name="ugrave" unicode="&#xf9;" horiz-adv-x="590" 
d="M528 0h-110l-16 49c-55 -49 -102 -65 -158 -65c-130 0 -184 97 -184 215v338h133v-338c0 -65 19 -111 81 -111c41 0 86 23 121 47v402h133v-537zM367 643l-43 -41c-7 -6 -12 -4 -19 1l-174 126l85 83l147 -153c5 -6 13 -7 4 -16z" />
    <glyph glyph-name="yacute" unicode="&#xfd;" horiz-adv-x="582" 
d="M562 537l-254 -673c-25 -65 -66 -106 -167 -106h-93v107h93c24 0 33 13 44 42l37 94l-202 536h139l115 -346c5 -14 10 -34 12 -55c1 19 8 39 13 54l124 347h139zM476 729l-174 -126c-7 -5 -12 -8 -19 -1l-43 41c-8 8 -2 10 4 16l147 153z" />
    <glyph glyph-name="ydieresis" unicode="&#xff;" horiz-adv-x="582" 
d="M562 537l-254 -673c-25 -65 -66 -106 -167 -106h-93v107h93c24 0 33 13 44 42l37 94l-202 536h139l115 -346c5 -14 10 -34 12 -55c1 19 8 39 13 54l124 347h139zM474 653c0 -9 -2 -10 -10 -10h-114c-10 0 -9 1 -9 10v115c0 7 1 11 9 11h114c9 0 10 -3 10 -11v-115z
M241 653c0 -9 -2 -10 -10 -10h-114c-10 0 -9 1 -9 10v115c0 7 1 11 9 11h114c9 0 10 -3 10 -11v-115z" />
    <glyph glyph-name="zcaron" unicode="&#x17e;" horiz-adv-x="536" 
d="M483 0h-430v107l242 298c8 10 10 11 35 22h-251l-36 110h438v-107l-244 -301c-8 -10 -17 -15 -32 -21h278v-108zM441 746l-137 -128c-13 -12 -23 -19 -36 -19s-24 7 -37 19l-137 128l58 46l116 -89l115 89z" />
    <glyph glyph-name="oneeighth" unicode="&#x215b;" horiz-adv-x="884" 
d="M299 305h-253v75h85v262l-86 -17v73l170 35v-353h84v-75zM721 737l-500 -752h-83l500 752h83zM839 131c0 -87 -46 -140 -153 -140c-108 0 -154 53 -154 140c0 48 30 77 50 89c-19 14 -44 37 -44 83c0 81 49 125 148 125c98 0 147 -44 147 -125c0 -45 -24 -68 -43 -82
c20 -14 49 -46 49 -90zM754 131c0 28 -16 54 -48 54h-41c-32 0 -48 -26 -48 -54c0 -49 21 -71 69 -71c47 0 68 22 68 71zM750 303c0 40 -25 54 -64 54c-40 0 -65 -14 -65 -54c0 -37 22 -48 44 -48h41c22 0 44 11 44 48z" />
    <glyph glyph-name="threeeighths" unicode="&#x215c;" horiz-adv-x="920" 
d="M757 737l-500 -752h-83l500 752h83zM875 131c0 -87 -46 -140 -153 -140c-108 0 -154 53 -154 140c0 48 30 77 50 89c-19 14 -44 37 -44 83c0 81 49 125 148 125c98 0 147 -44 147 -125c0 -45 -24 -68 -43 -82c20 -14 49 -46 49 -90zM790 131c0 28 -16 54 -48 54h-41
c-32 0 -48 -26 -48 -54c0 -49 21 -71 69 -71c47 0 68 22 68 71zM786 303c0 40 -25 54 -64 54c-40 0 -65 -14 -65 -54c0 -37 22 -48 44 -48h41c22 0 44 11 44 48zM364 432c0 -91 -65 -136 -153 -136c-77 0 -129 24 -166 98l64 31c28 -52 55 -60 102 -60s68 26 68 67
c0 33 -19 58 -56 58h-66l-21 66h87c30 0 48 23 48 58c0 27 -12 50 -54 50c-48 0 -74 -8 -101 -60l-65 30c38 74 89 99 166 99c101 0 139 -52 139 -119c0 -38 -20 -71 -50 -87c35 -17 58 -57 58 -95z" />
    <glyph glyph-name="fiveeighths" unicode="&#x215d;" horiz-adv-x="919" 
d="M756 737l-500 -752h-83l500 752h83zM874 131c0 -87 -46 -140 -153 -140c-108 0 -154 53 -154 140c0 48 30 77 50 89c-19 14 -44 37 -44 83c0 81 49 125 148 125c98 0 147 -44 147 -125c0 -45 -24 -68 -43 -82c20 -14 49 -46 49 -90zM789 131c0 28 -16 54 -48 54h-41
c-32 0 -48 -26 -48 -54c0 -49 21 -71 69 -71c47 0 68 22 68 71zM785 303c0 40 -25 54 -64 54c-40 0 -65 -14 -65 -54c0 -37 22 -48 44 -48h41c22 0 44 11 44 48zM362 444c0 -87 -48 -148 -151 -148c-77 0 -128 24 -166 98l65 31c27 -52 54 -60 101 -60c48 0 67 32 67 79
c0 56 -40 72 -86 72c-29 0 -62 -7 -89 -18l-24 24l21 202h258l-22 -74h-166l-9 -71c16 4 35 4 48 4c93 0 153 -44 153 -139z" />
    <glyph glyph-name="seveneighths" unicode="&#x215e;" horiz-adv-x="833" 
d="M670 737l-500 -752h-83l500 752h83zM788 131c0 -87 -46 -140 -153 -140c-108 0 -154 53 -154 140c0 48 30 77 50 89c-19 14 -44 37 -44 83c0 81 49 125 148 125c98 0 147 -44 147 -125c0 -45 -24 -68 -43 -82c20 -14 49 -46 49 -90zM703 131c0 28 -16 54 -48 54h-41
c-32 0 -48 -26 -48 -54c0 -49 21 -71 69 -71c47 0 68 22 68 71zM699 303c0 40 -25 54 -64 54c-40 0 -65 -14 -65 -54c0 -37 22 -48 44 -48h41c22 0 44 11 44 48zM240 650h-118v-53h-77v127h295v-62l-189 -357h-95z" />
    <glyph glyph-name="onethird" unicode="&#x2153;" horiz-adv-x="886" 
d="M299 305h-253v75h85v262l-86 -17v73l170 35v-353h84v-75zM721 737l-500 -752h-83l500 752h83zM841 127c0 -91 -65 -136 -153 -136c-77 0 -129 24 -166 98l64 31c28 -52 55 -60 102 -60s68 26 68 67c0 33 -19 58 -56 58h-66l-21 66h87c30 0 48 23 48 58
c0 27 -12 50 -54 50c-48 0 -74 -8 -101 -60l-65 30c38 74 89 99 166 99c101 0 139 -52 139 -119c0 -38 -20 -71 -50 -87c35 -17 58 -57 58 -95z" />
    <glyph glyph-name="twothirds" unicode="&#x2154;" horiz-adv-x="922" 
d="M757 737l-500 -752h-83l500 752h83zM877 127c0 -91 -65 -136 -153 -136c-77 0 -129 24 -166 98l64 31c28 -52 55 -60 102 -60s68 26 68 67c0 33 -19 58 -56 58h-66l-21 66h87c30 0 48 23 48 58c0 27 -12 50 -54 50c-48 0 -74 -8 -101 -60l-65 30c38 74 89 99 166 99
c101 0 139 -52 139 -119c0 -38 -20 -71 -50 -87c35 -17 58 -57 58 -95zM337 305h-291c0 123 75 174 135 216c39 27 71 49 71 85c0 41 -24 57 -55 57c-55 0 -69 -30 -76 -72h-76c6 72 41 142 152 142c75 0 140 -35 140 -127c0 -74 -56 -112 -111 -151
c-42 -31 -67 -48 -79 -78h111v45h79v-117z" />
    <glyph glyph-name="zero.oldstyle" unicode="&#xf730;" horiz-adv-x="568" 
d="M520 272c0 -145 -42 -288 -236 -288s-236 143 -236 288c0 143 50 280 236 280s236 -137 236 -280zM387 272c0 116 -19 167 -103 167s-103 -51 -103 -167c0 -124 20 -177 103 -177s103 53 103 177z" />
    <glyph glyph-name="one.oldstyle" unicode="&#xf731;" horiz-adv-x="530" 
d="M480 0h-429v114h149v277c0 9 5 18 6 25l-156 -31v112l282 57v-440h148v-114z" />
    <glyph glyph-name="two.oldstyle" unicode="&#xf732;" horiz-adv-x="600" 
d="M534 0h-484c0 172 80 256 240 299c93 25 107 52 107 88c0 34 -19 60 -97 60c-88 0 -105 -30 -105 -93h-123c0 119 65 199 228 199c140 0 225 -47 225 -166c0 -108 -58 -153 -203 -194c-76 -22 -105 -48 -123 -86h211v46h124v-153z" />
    <glyph glyph-name="three.oldstyle" unicode="&#xf733;" 
d="M568 31c0 -154 -110 -231 -261 -231c-133 0 -221 39 -281 159l100 48c46 -89 95 -103 181 -103c90 0 130 49 130 127c0 64 -37 112 -108 112h-110l-31 99h141c59 0 94 44 94 109c0 54 -23 98 -105 98c-86 0 -135 -14 -181 -103l-100 48c60 120 148 159 281 159
c173 0 237 -89 237 -202c0 -70 -40 -132 -106 -153c73 -19 119 -95 119 -167z" />
    <glyph glyph-name="four.oldstyle" unicode="&#xf734;" 
d="M601 0h-74v-184h-128v184h-355v106l368 431h115v-419h74v-118zM411 358l-210 -240h198v197c0 12 6 29 12 43z" />
    <glyph glyph-name="five.oldstyle" unicode="&#xf735;" 
d="M567 52c0 -148 -80 -252 -258 -252c-133 0 -221 39 -281 159l100 48c46 -89 95 -103 181 -103c93 0 127 59 127 148c0 107 -75 136 -159 136c-54 0 -112 -12 -156 -29l-36 34l39 344h432l-33 -112h-294l-17 -146c31 8 70 10 94 10c158 0 261 -74 261 -237z" />
    <glyph glyph-name="six.oldstyle" unicode="&#xf736;" 
d="M566 248c0 -153 -65 -264 -255 -264s-255 111 -255 264v121c0 179 22 368 268 368c92 0 183 -31 232 -102l-79 -70c-41 46 -84 68 -153 68c-86 0 -131 -54 -136 -182c35 21 78 37 123 37c209 0 255 -112 255 -240zM435 248c0 96 -33 137 -124 137
c-74 0 -124 -38 -124 -137c0 -112 35 -159 124 -159s124 47 124 159z" />
    <glyph glyph-name="seven.oldstyle" unicode="&#xf737;" 
d="M574 437l-329 -621h-149l313 585c6 11 15 18 23 24h-242v-95h-119v207h503v-100z" />
    <glyph glyph-name="eight.oldstyle" unicode="&#xf738;" 
d="M576 222c0 -147 -78 -238 -262 -238s-262 91 -262 238c0 90 62 141 97 158c-34 22 -87 58 -87 146c0 136 84 211 252 211s252 -75 252 -211c0 -88 -53 -124 -87 -146c35 -17 97 -68 97 -158zM436 526c0 77 -47 104 -122 104s-122 -27 -122 -104c0 -72 43 -93 86 -93h72
c43 0 86 21 86 93zM444 222c0 55 -32 105 -94 105h-72c-62 0 -94 -50 -94 -105c0 -93 41 -134 130 -134s130 41 130 134z" />
    <glyph glyph-name="nine.oldstyle" unicode="&#xf739;" 
d="M568 168c0 -179 -22 -368 -268 -368c-92 0 -183 31 -232 102l79 70c41 -46 84 -68 153 -68c86 0 131 54 136 182c-35 -21 -78 -37 -123 -37c-209 0 -255 112 -255 240c0 153 65 264 255 264s255 -111 255 -264v-121zM437 289c0 112 -35 159 -124 159s-124 -47 -124 -159
c0 -96 33 -137 124 -137c74 0 124 38 124 137z" />
    <glyph glyph-name="uni2014.alt" unicode="&#xe024;" horiz-adv-x="579" 
d="M542 264h-505v110h505v-110z" />
    <glyph glyph-name="a.superior" unicode="&#xf6e9;" horiz-adv-x="350" 
d="M308 305h-74l-6 18c-23 -18 -46 -28 -84 -28c-83 0 -122 48 -122 115c0 85 61 105 128 105c24 0 48 -3 70 -6v28c0 18 -11 33 -46 33c-22 0 -46 -3 -70 -33l-63 39c31 45 76 66 133 66c109 0 134 -66 134 -105v-232zM220 386v64c-15 3 -35 5 -51 5c-30 0 -58 -9 -58 -45
c0 -32 19 -46 43 -46c23 0 44 8 66 22z" />
    <glyph glyph-name="b.superior" unicode="&#xf6ea;" horiz-adv-x="362" 
d="M340 472c0 -122 -55 -177 -155 -177c-42 0 -98 7 -145 31v449h89v-136c0 -3 -1 -7 -2 -11c18 8 40 14 58 14c103 0 155 -55 155 -170zM250 472c0 81 -23 100 -65 100c-18 0 -41 -5 -56 -13v-188c23 -5 39 -5 56 -5c49 0 65 30 65 106z" />
    <glyph glyph-name="d.superior" unicode="&#xf6eb;" horiz-adv-x="369" 
d="M324 305h-66l-7 19c-21 -17 -48 -29 -86 -29c-75 0 -141 40 -141 171c0 115 49 176 151 176c18 0 45 -3 61 -11c-1 3 -1 9 -1 13v131h89v-470zM235 383v177c-18 8 -36 12 -60 12c-36 0 -62 -16 -62 -106c0 -59 6 -100 61 -100c17 0 38 3 61 17z" />
    <glyph glyph-name="e.superior" unicode="&#xf6ec;" horiz-adv-x="350" 
d="M328 441h-214c1 -52 20 -73 67 -73c38 0 59 18 73 44l72 -26c-23 -58 -72 -91 -145 -91c-108 0 -157 58 -157 174c0 104 45 173 157 173c125 0 147 -99 147 -173v-28zM181 569c-40 0 -59 -17 -65 -63h120c-2 42 -20 63 -55 63z" />
    <glyph glyph-name="i.superior" unicode="&#xf6ed;" horiz-adv-x="167" 
d="M128 305h-89v327h89v-327zM45 681h77c7 0 9 2 9 9v76c0 7 -2 9 -9 9h-77c-7 0 -9 -2 -9 -9v-76c0 -7 2 -9 9 -9z" />
    <glyph glyph-name="l.superior" unicode="&#xf6ee;" horiz-adv-x="181" 
d="M168 300h-46c-56 0 -83 30 -83 88v387h90v-387c0 -10 2 -14 8 -14h31v-74z" />
    <glyph glyph-name="m.superior" unicode="&#xf6ef;" horiz-adv-x="542" 
d="M502 305h-89v212c0 39 -8 53 -41 53c-16 0 -34 -7 -56 -21v-244h-87v212c0 38 -8 53 -38 53c-18 0 -37 -8 -59 -25v-240h-90v327h74l8 -25c31 27 59 35 89 35c38 0 67 -14 83 -38c33 29 65 38 97 38c63 0 109 -39 109 -125v-212z" />
    <glyph glyph-name="n.superior" unicode="&#x207f;" horiz-adv-x="366" 
d="M327 305h-89v205c0 36 -10 60 -42 60c-23 0 -48 -10 -67 -24v-241h-89v327h74l9 -24c30 24 59 34 91 34c80 0 113 -59 113 -132v-205z" />
    <glyph glyph-name="o.superior" unicode="&#xf6f0;" horiz-adv-x="354" 
d="M332 469c0 -104 -42 -174 -155 -174s-153 70 -153 174s40 173 153 173s155 -69 155 -173zM242 469c0 78 -20 100 -65 100s-64 -23 -64 -100c0 -76 19 -101 64 -101s65 24 65 101z" />
    <glyph glyph-name="r.superior" unicode="&#xf6f1;" horiz-adv-x="245" 
d="M235 639v-79c-14 2 -34 4 -47 4c-21 0 -41 -3 -59 -14v-245h-90v327h74l7 -20c22 23 47 30 80 30c12 0 26 -1 35 -3z" />
    <glyph glyph-name="s.superior" unicode="&#xf6f2;" horiz-adv-x="312" 
d="M294 410c0 -82 -69 -115 -143 -115c-57 0 -105 22 -137 77l72 28c17 -24 37 -34 65 -34c22 0 55 5 55 34c0 11 -8 24 -40 30l-46 8c-55 10 -98 34 -98 106c0 63 52 98 133 98c67 0 109 -29 134 -73l-66 -32c-15 20 -37 33 -68 33c-25 0 -46 -5 -46 -26
c0 -12 5 -23 31 -27l39 -7c71 -13 115 -37 115 -100z" />
    <glyph glyph-name="t.superior" unicode="&#xf6f3;" horiz-adv-x="277" 
d="M233 390l47 -54c-27 -25 -65 -41 -112 -41c-62 0 -109 28 -109 103v147c0 4 2 12 6 18h-53v69h47v103l90 25v-128h110l-21 -69h-89v-165c0 -21 9 -30 28 -30c25 0 38 9 56 22z" />
    <glyph glyph-name="one.superior" unicode="&#xb9;" horiz-adv-x="308" 
d="M281 305h-253v75h85v262l-86 -17v73l170 35v-353h84v-75z" />
    <glyph glyph-name="two.superior" unicode="&#xb2;" horiz-adv-x="361" 
d="M323 305h-291c0 123 75 174 135 216c39 27 71 49 71 85c0 41 -24 57 -55 57c-55 0 -69 -30 -76 -72h-76c6 72 41 142 152 142c75 0 140 -35 140 -127c0 -74 -56 -112 -111 -151c-42 -31 -67 -48 -79 -78h111v45h79v-117z" />
    <glyph glyph-name="three.superior" unicode="&#xb3;" horiz-adv-x="361" 
d="M330 432c0 -91 -65 -136 -153 -136c-77 0 -129 24 -166 98l64 31c28 -52 55 -60 102 -60s68 26 68 67c0 33 -19 58 -56 58h-66l-21 66h87c30 0 48 23 48 58c0 27 -12 50 -54 50c-48 0 -74 -8 -101 -60l-65 30c38 74 89 99 166 99c101 0 139 -52 139 -119
c0 -38 -20 -71 -50 -87c35 -17 58 -57 58 -95z" />
    <glyph glyph-name="commaaccent" unicode="&#xf6c3;" horiz-adv-x="311" 
d="M179 -284l-56 35c11 14 22 39 22 77h-55c-10 0 -11 0 -11 12v105c0 13 1 13 11 13h130c10 0 11 0 11 -13v-74c0 -80 -18 -119 -52 -155z" />
    <glyph glyph-name="Delta" unicode="&#x2206;" horiz-adv-x="720" 
d="M653 0h-673l276 721h122zM475 105l-162 463l-159 -463h321z" />
    <glyph glyph-name="Omega" unicode="&#x2126;" horiz-adv-x="720" 
d="M646 425c0 -140 -49 -247 -190 -276v-56h167v-93h-243v208c102 10 132 75 132 205s-45 216 -182 216c-136 0 -182 -86 -182 -215c0 -131 30 -196 132 -206v-208h-243v93h167v56c-141 29 -190 136 -190 277c0 160 77 311 316 311s316 -151 316 -312z" />
    <glyph glyph-name="uni03BC" unicode="&#x3bc;" horiz-adv-x="590" 
d="M528 0h-110l-16 49c-55 -49 -102 -65 -158 -65c-19 0 -35 2 -51 6v-232h-134v779h134v-338c0 -65 19 -111 81 -111c41 0 86 23 121 47v402h133v-537z" />
    <glyph glyph-name="pi" unicode="&#x3c0;" horiz-adv-x="720" 
d="M643 -9h-76c-87 0 -136 45 -136 150v297h-208v-438h-132v437h-73v113h618v-113h-73v-296c0 -38 12 -50 39 -50h41v-100z" />
    <glyph glyph-name="Euro" unicode="&#x20ac;" 
d="M581 146c-37 -91 -89 -161 -238 -161c-141 0 -238 84 -268 254h-69l31 84h29c0 11 -1 23 -1 35v31h-59l31 84h35c24 173 108 264 269 264c171 0 225 -112 232 -225h-117c-9 68 -32 112 -116 112c-85 0 -122 -43 -135 -151h257l-31 -84h-232v-31c0 -12 1 -24 1 -35h212
l-31 -84h-172c18 -93 61 -142 138 -142c62 0 99 22 130 101z" />
    <glyph glyph-name="afii61289" unicode="&#x2113;" horiz-adv-x="420" 
d="M354 598c0 -96 -46 -202 -158 -286v-171c0 -38 12 -50 39 -50h41v-100h-76c-87 0 -136 53 -136 150v107c-18 -8 -36 -16 -55 -24l-17 59c27 12 50 23 72 35v255c0 111 28 218 156 218c134 0 134 -114 134 -193zM286 598c0 71 -7 103 -41 103c-38 0 -49 -48 -49 -132v-178
c68 65 90 134 90 207z" />
    <glyph glyph-name="estimated" unicode="&#x212e;" horiz-adv-x="606" 
d="M577 282h-429v-193c42 -40 92 -63 152 -63c112 0 165 59 210 127l31 -19c-52 -81 -116 -141 -241 -141c-163 0 -271 133 -271 290c0 159 104 290 275 290c170 0 273 -134 273 -291zM457 315v163c-36 33 -95 62 -153 62c-60 0 -116 -21 -156 -62v-163h309z" />
    <glyph glyph-name="partialdiff" unicode="&#x2202;" horiz-adv-x="720" 
d="M599 455c0 -50 -3 -108 -13 -160c-37 -210 -130 -311 -322 -311c-160 0 -222 78 -222 202c0 27 3 58 9 90c30 175 120 277 290 277c55 0 89 -12 119 -29c-2 99 -47 182 -216 182c-21 0 -43 -1 -67 -3l3 86c27 3 53 4 77 4c263 0 342 -148 342 -338zM457 350
c0 80 -35 109 -108 109c-94 0 -142 -48 -168 -190c-6 -32 -9 -59 -9 -82c0 -80 35 -109 108 -109c94 0 143 50 168 191c6 32 9 58 9 81z" />
    <glyph glyph-name="product" unicode="&#x220f;" horiz-adv-x="720" 
d="M668 611h-83v-611h-131v612h-275v-612h-132v611h-83v110h704v-110z" />
    <glyph glyph-name="summation" unicode="&#x2211;" horiz-adv-x="720" 
d="M581 0h-498v107l191 266l-191 241v107h497v-109h-359l191 -239l-191 -263h360v-110z" />
    <glyph glyph-name="uni2219" unicode="&#x2219;" horiz-adv-x="269" 
d="M200 372c0 -9 -1 -10 -9 -10h-113c-8 0 -9 1 -9 10v110c0 11 1 10 9 10h113c8 0 9 1 9 -10v-110z" />
    <glyph glyph-name="radical" unicode="&#x221a;" horiz-adv-x="720" 
d="M721 609h-146l-207 -609h-128l-127 379h-112v112h211l92 -324l170 554h247v-112z" />
    <glyph glyph-name="infinity" unicode="&#x221e;" horiz-adv-x="720" 
d="M625 377c0 -117 -26 -251 -174 -251c-42 0 -88 8 -133 49c-31 -38 -65 -51 -106 -51c-148 0 -167 135 -167 253s26 251 173 251c41 0 88 -13 131 -49c30 35 64 50 110 50c150 0 166 -133 166 -252zM524 377c0 88 -9 157 -65 157c-44 0 -57 -41 -75 -161
c-8 -55 -14 -88 -21 -113c32 -32 61 -40 88 -40c58 0 73 71 73 157zM304 495c-27 28 -58 38 -85 38c-59 0 -72 -72 -72 -158c0 -84 7 -156 65 -156c42 0 58 45 74 165c7 54 13 88 18 111z" />
    <glyph glyph-name="integral" unicode="&#x222b;" horiz-adv-x="720" 
d="M618 758l-25 -92c-34 8 -69 16 -103 16c-54 0 -100 -19 -100 -99v-591c0 -160 -96 -196 -208 -196c-58 0 -103 8 -151 21l26 93c33 -8 68 -16 103 -16c53 0 98 21 98 101v588c0 161 98 196 209 196c58 0 103 -8 151 -21z" />
    <glyph glyph-name="approxequal" unicode="&#x2248;" 
d="M557 540c-34 -49 -76 -69 -134 -69c-94 0 -141 86 -218 86c-58 0 -100 -20 -134 -69v126c34 49 76 69 134 69c105 0 143 -86 218 -86c58 0 100 20 134 69v-126zM557 277c-34 -49 -76 -69 -134 -69c-94 0 -141 86 -218 86c-58 0 -100 -20 -134 -69v126c34 49 76 69 134 69
c105 0 143 -86 218 -86c58 0 100 20 134 69v-126z" />
    <glyph glyph-name="notequal" unicode="&#x2260;" 
d="M517 737l-87 -198h132v-116h-183l-54 -124h237v-116h-288l-86 -198h-96l86 198h-112v116h163l54 124h-217v116h268l87 198h96z" />
    <glyph glyph-name="lessequal" unicode="&#x2264;" 
d="M476 160h-132l-232 280l232 280h132l-232 -280zM597 0h-566v108h566v-108z" />
    <glyph glyph-name="greaterequal" unicode="&#x2265;" 
d="M516 440l-232 -280h-132l232 280l-232 280h132zM597 0h-566v108h566v-108z" />
    <glyph glyph-name="lozenge" unicode="&#x25ca;" horiz-adv-x="700" 
d="M609 363l-281 -336l-282 336l282 337zM477 363l-149 189l-150 -189l150 -189z" />
    <glyph glyph-name="uni00A0" unicode="&#xa0;" horiz-adv-x="240" 
 />
    <glyph glyph-name="uni00AD" unicode="&#xad;" horiz-adv-x="345" 
d="M319 260h-293v117h293v-117z" />
    <glyph glyph-name="uni02C9" unicode="&#x2c9;" horiz-adv-x="480" 
d="M410 644h-341v99h341v-99z" />
    <glyph glyph-name="h.superior" unicode="&#xf637;" horiz-adv-x="366" 
d="M327 305h-89v205c0 36 -10 60 -42 60c-23 0 -48 -10 -67 -24v-241h-89v470h90v-162c34 24 52 29 84 29c80 0 113 -59 113 -132v-205z" />
    <glyph glyph-name="zero.fitted" unicode="&#xf639;" 
d="M566 369c0 -199 -28 -384 -252 -384s-252 185 -252 384c0 195 37 368 252 368s252 -173 252 -368zM434 369c0 181 -17 261 -120 261s-120 -80 -120 -261c0 -190 17 -278 120 -278s120 88 120 278z" />
    <glyph glyph-name="one.fitted" unicode="&#xf6dc;" horiz-adv-x="536" 
d="M483 0h-429v114h149v459c0 9 5 18 6 25l-156 -31v112l282 57v-622h148v-114z" />
    <glyph glyph-name="two.fitted" unicode="&#xf63a;" 
d="M557 0h-497c0 205 132 293 236 365c70 49 129 91 129 157c0 80 -45 109 -107 109c-102 0 -129 -52 -140 -126h-119c8 118 69 232 259 232c128 0 238 -59 238 -215c0 -128 -97 -192 -191 -259c-82 -59 -127 -94 -149 -154h218v80h123v-189z" />
    <glyph glyph-name="three.fitted" unicode="&#xf63b;" 
d="M568 215c0 -154 -110 -231 -261 -231c-133 0 -221 39 -281 159l100 48c46 -89 95 -103 181 -103c90 0 130 49 130 127c0 64 -37 112 -108 112h-110l-31 99h141c59 0 94 44 94 109c0 54 -23 98 -105 98c-86 0 -135 -14 -181 -103l-100 48c60 120 148 159 281 159
c173 0 237 -89 237 -202c0 -70 -40 -132 -106 -153c73 -19 119 -95 119 -167z" />
    <glyph glyph-name="four.fitted" unicode="&#xf63c;" 
d="M601 180h-74v-180h-131v180h-352v106l365 435h118v-423h74v-118zM408 535l-200 -237h188v194c0 12 6 29 12 43z" />
    <glyph glyph-name="five.fitted" unicode="&#xf63d;" 
d="M567 236c0 -148 -80 -252 -258 -252c-133 0 -221 39 -281 159l100 48c46 -89 95 -103 181 -103c93 0 127 59 127 148c0 107 -75 136 -159 136c-54 0 -112 -12 -156 -29l-36 34l39 344h432l-33 -112h-294l-17 -146c31 8 70 10 94 10c158 0 261 -74 261 -237z" />
    <glyph glyph-name="six.fitted" unicode="&#xf63e;" 
d="M566 248c0 -153 -65 -264 -255 -264s-255 111 -255 264v121c0 179 22 368 268 368c92 0 183 -31 232 -102l-79 -70c-41 46 -84 68 -153 68c-86 0 -131 -54 -136 -182c35 21 78 37 123 37c209 0 255 -112 255 -240zM435 248c0 96 -33 137 -124 137
c-74 0 -124 -38 -124 -137c0 -112 35 -159 124 -159s124 47 124 159z" />
    <glyph glyph-name="seven.fitted" unicode="&#xf63f;" 
d="M574 621l-329 -621h-149l313 585c6 11 15 18 23 24h-242v-95h-119v207h503v-100z" />
    <glyph glyph-name="eight.fitted" unicode="&#xf640;" 
d="M576 222c0 -147 -78 -238 -262 -238s-262 91 -262 238c0 90 62 141 97 158c-34 22 -87 58 -87 146c0 136 84 211 252 211s252 -75 252 -211c0 -88 -53 -124 -87 -146c35 -17 97 -68 97 -158zM436 526c0 77 -47 104 -122 104s-122 -27 -122 -104c0 -72 43 -93 86 -93h72
c43 0 86 21 86 93zM444 222c0 55 -32 105 -94 105h-72c-62 0 -94 -50 -94 -105c0 -93 41 -134 130 -134s130 41 130 134z" />
    <glyph glyph-name="nine.fitted" unicode="&#xf641;" 
d="M568 352c0 -179 -22 -368 -268 -368c-92 0 -183 31 -232 102l79 70c41 -46 84 -68 153 -68c86 0 131 54 136 182c-35 -21 -78 -37 -123 -37c-209 0 -255 112 -255 240c0 153 65 264 255 264s255 -111 255 -264v-121zM437 473c0 112 -35 159 -124 159s-124 -47 -124 -159
c0 -96 33 -137 124 -137c74 0 124 38 124 137z" />
    <glyph glyph-name="zero.taboldstyle" unicode="&#xf643;" 
d="M550 272c0 -145 -42 -288 -236 -288s-236 143 -236 288c0 143 50 280 236 280s236 -137 236 -280zM417 272c0 116 -19 167 -103 167s-103 -51 -103 -167c0 -124 20 -177 103 -177s103 53 103 177z" />
    <glyph glyph-name="one.taboldstyle" unicode="&#xf644;" 
d="M529 0h-429v114h149v277c0 9 5 18 6 25l-156 -31v112l282 57v-440h148v-114z" />
    <glyph glyph-name="two.taboldstyle" unicode="&#xf645;" 
d="M556 0h-484c0 172 80 256 240 299c93 25 107 52 107 88c0 34 -19 60 -97 60c-88 0 -105 -30 -105 -93h-123c0 119 65 199 228 199c140 0 225 -47 225 -166c0 -108 -58 -153 -203 -194c-76 -22 -105 -48 -123 -86h211v46h124v-153z" />
    <glyph glyph-name="three.taboldstyle" unicode="&#xf646;" 
d="M585 31c0 -154 -110 -231 -261 -231c-133 0 -221 39 -281 159l100 48c46 -89 95 -103 181 -103c90 0 130 49 130 127c0 64 -37 112 -108 112h-110l-31 99h141c59 0 94 44 94 109c0 54 -23 98 -105 98c-86 0 -135 -14 -181 -103l-100 48c60 120 148 159 281 159
c173 0 237 -89 237 -202c0 -70 -40 -132 -106 -153c73 -19 119 -95 119 -167z" />
    <glyph glyph-name="four.taboldstyle" unicode="&#xf647;" 
d="M592 0h-74v-184h-128v184h-355v106l368 431h115v-419h74v-118zM402 358l-210 -240h198v197c0 12 6 29 12 43z" />
    <glyph glyph-name="five.taboldstyle" unicode="&#xf648;" 
d="M583 52c0 -148 -80 -252 -258 -252c-133 0 -221 39 -281 159l100 48c46 -89 95 -103 181 -103c93 0 127 59 127 148c0 107 -75 136 -159 136c-54 0 -112 -12 -156 -29l-36 34l39 344h432l-33 -112h-294l-17 -146c31 8 70 10 94 10c158 0 261 -74 261 -237z" />
    <glyph glyph-name="six.taboldstyle" unicode="&#xf649;" 
d="M569 248c0 -153 -65 -264 -255 -264s-255 111 -255 264v121c0 179 22 368 268 368c92 0 183 -31 232 -102l-79 -70c-41 46 -84 68 -153 68c-86 0 -131 -54 -136 -182c35 21 78 37 123 37c209 0 255 -112 255 -240zM438 248c0 96 -33 137 -124 137
c-74 0 -124 -38 -124 -137c0 -112 35 -159 124 -159s124 47 124 159z" />
    <glyph glyph-name="seven.taboldstyle" unicode="&#xf64a;" 
d="M565 437l-329 -621h-149l313 585c6 11 15 18 23 24h-242v-95h-119v207h503v-100z" />
    <glyph glyph-name="eight.taboldstyle" unicode="&#xf64b;" 
d="M576 222c0 -147 -78 -238 -262 -238s-262 91 -262 238c0 90 62 141 97 158c-34 22 -87 58 -87 146c0 136 84 211 252 211s252 -75 252 -211c0 -88 -53 -124 -87 -146c35 -17 97 -68 97 -158zM436 526c0 77 -47 104 -122 104s-122 -27 -122 -104c0 -72 43 -93 86 -93h72
c43 0 86 21 86 93zM444 222c0 55 -32 105 -94 105h-72c-62 0 -94 -50 -94 -105c0 -93 41 -134 130 -134s130 41 130 134z" />
    <glyph glyph-name="nine.taboldstyle" unicode="&#xf64c;" 
d="M569 168c0 -179 -22 -368 -268 -368c-92 0 -183 31 -232 102l79 70c41 -46 84 -68 153 -68c86 0 131 54 136 182c-35 -21 -78 -37 -123 -37c-209 0 -255 112 -255 240c0 153 65 264 255 264s255 -111 255 -264v-121zM438 289c0 112 -35 159 -124 159s-124 -47 -124 -159
c0 -96 33 -137 124 -137c74 0 124 38 124 137z" />
    <glyph glyph-name="zero.denominator" unicode="&#xf655;" horiz-adv-x="361" 
d="M328 214c0 -115 -17 -223 -147 -223c-131 0 -148 108 -148 223c0 113 22 214 148 214c125 0 147 -101 147 -214zM244 214c0 100 -9 143 -63 143c-55 0 -63 -43 -63 -143c0 -105 8 -153 63 -153c54 0 63 48 63 153z" />
    <glyph glyph-name="one.denominator" unicode="&#xf656;" horiz-adv-x="308" 
d="M281 0h-253v75h85v262l-86 -17v73l170 35v-353h84v-75z" />
    <glyph glyph-name="two.denominator" unicode="&#xf657;" horiz-adv-x="361" 
d="M323 0h-291c0 123 75 174 135 216c39 27 71 49 71 85c0 41 -24 57 -55 57c-55 0 -69 -30 -76 -72h-76c6 72 41 142 152 142c75 0 140 -35 140 -127c0 -74 -56 -112 -111 -151c-42 -31 -67 -48 -79 -78h111v45h79v-117z" />
    <glyph glyph-name="three.denominator" unicode="&#xf658;" horiz-adv-x="361" 
d="M330 127c0 -91 -65 -136 -153 -136c-77 0 -129 24 -166 98l64 31c28 -52 55 -60 102 -60s68 26 68 67c0 33 -19 58 -56 58h-66l-21 66h87c30 0 48 23 48 58c0 27 -12 50 -54 50c-48 0 -74 -8 -101 -60l-65 30c38 74 89 99 166 99c101 0 139 -52 139 -119
c0 -38 -20 -71 -50 -87c35 -17 58 -57 58 -95z" />
    <glyph glyph-name="four.denominator" unicode="&#xf659;" horiz-adv-x="361" 
d="M349 102h-43v-102h-84v102h-200v67l210 250h74v-241h43v-76zM222 287l-90 -109h90v109z" />
    <glyph glyph-name="five.denominator" unicode="&#xf65a;" horiz-adv-x="361" 
d="M329 139c0 -87 -48 -148 -151 -148c-77 0 -128 24 -166 98l65 31c27 -52 54 -60 101 -60c48 0 67 32 67 79c0 56 -40 72 -86 72c-29 0 -62 -7 -89 -18l-24 24l21 202h258l-22 -74h-166l-9 -71c16 4 35 4 48 4c93 0 153 -44 153 -139z" />
    <glyph glyph-name="six.denominator" unicode="&#xf65b;" horiz-adv-x="361" 
d="M328 146c0 -90 -38 -155 -149 -155s-150 65 -150 155v68c0 103 13 214 157 214c54 0 108 -20 139 -64l-52 -46c-24 27 -49 41 -87 41c-43 0 -68 -26 -72 -90c19 10 40 18 65 18c122 0 149 -66 149 -141zM244 146c0 50 -18 72 -65 72c-39 0 -65 -20 -65 -72
c0 -60 19 -86 65 -86s65 26 65 86z" />
    <glyph glyph-name="seven.denominator" unicode="&#xf65c;" horiz-adv-x="361" 
d="M233 345h-118v-53h-77v127h295v-62l-189 -357h-95z" />
    <glyph glyph-name="eight.denominator" unicode="&#xf65d;" horiz-adv-x="361" 
d="M334 131c0 -87 -46 -140 -153 -140c-108 0 -154 53 -154 140c0 48 30 77 50 89c-19 14 -44 37 -44 83c0 81 49 125 148 125c98 0 147 -44 147 -125c0 -45 -24 -68 -43 -82c20 -14 49 -46 49 -90zM249 131c0 28 -16 54 -48 54h-41c-32 0 -48 -26 -48 -54
c0 -49 21 -71 69 -71c47 0 68 22 68 71zM245 303c0 40 -25 54 -64 54c-40 0 -65 -14 -65 -54c0 -37 22 -48 44 -48h41c22 0 44 11 44 48z" />
    <glyph glyph-name="nine.denominator" unicode="&#xf65e;" horiz-adv-x="361" 
d="M330 204c0 -103 -13 -213 -157 -213c-54 0 -108 20 -139 63l53 47c24 -28 49 -41 86 -41c43 0 67 28 72 90c-16 -10 -37 -18 -65 -18c-122 0 -150 65 -150 141c0 90 39 155 150 155s150 -65 150 -155v-69zM245 273c0 59 -19 85 -65 85s-65 -26 -65 -85
c0 -51 18 -73 65 -73c39 0 65 21 65 73z" />
    <glyph glyph-name="zero.numerator" unicode="&#xf661;" horiz-adv-x="361" 
d="M328 519c0 -115 -17 -223 -147 -223c-131 0 -148 108 -148 223c0 113 22 214 148 214c125 0 147 -101 147 -214zM244 519c0 100 -9 143 -63 143c-55 0 -63 -43 -63 -143c0 -105 8 -153 63 -153c54 0 63 48 63 153z" />
    <glyph glyph-name="one.numerator" unicode="&#xf662;" horiz-adv-x="308" 
d="M281 305h-253v75h85v262l-86 -17v73l170 35v-353h84v-75z" />
    <glyph glyph-name="two.numerator" unicode="&#xf663;" horiz-adv-x="361" 
d="M323 305h-291c0 123 75 174 135 216c39 27 71 49 71 85c0 41 -24 57 -55 57c-55 0 -69 -30 -76 -72h-76c6 72 41 142 152 142c75 0 140 -35 140 -127c0 -74 -56 -112 -111 -151c-42 -31 -67 -48 -79 -78h111v45h79v-117z" />
    <glyph glyph-name="three.numerator" unicode="&#xf664;" horiz-adv-x="361" 
d="M330 432c0 -91 -65 -136 -153 -136c-77 0 -129 24 -166 98l64 31c28 -52 55 -60 102 -60s68 26 68 67c0 33 -19 58 -56 58h-66l-21 66h87c30 0 48 23 48 58c0 27 -12 50 -54 50c-48 0 -74 -8 -101 -60l-65 30c38 74 89 99 166 99c101 0 139 -52 139 -119
c0 -38 -20 -71 -50 -87c35 -17 58 -57 58 -95z" />
    <glyph glyph-name="four.numerator" unicode="&#xf665;" horiz-adv-x="361" 
d="M349 407h-43v-102h-84v102h-200v67l210 250h74v-241h43v-76zM222 592l-90 -109h90v109z" />
    <glyph glyph-name="five.numerator" unicode="&#xf666;" horiz-adv-x="361" 
d="M329 444c0 -87 -48 -148 -151 -148c-77 0 -128 24 -166 98l65 31c27 -52 54 -60 101 -60c48 0 67 32 67 79c0 56 -40 72 -86 72c-29 0 -62 -7 -89 -18l-24 24l21 202h258l-22 -74h-166l-9 -71c16 4 35 4 48 4c93 0 153 -44 153 -139z" />
    <glyph glyph-name="six.numerator" unicode="&#xf667;" horiz-adv-x="361" 
d="M328 451c0 -90 -38 -155 -149 -155s-150 65 -150 155v68c0 103 13 214 157 214c54 0 108 -20 139 -64l-52 -46c-24 27 -49 41 -87 41c-43 0 -68 -26 -72 -90c19 10 40 18 65 18c122 0 149 -66 149 -141zM244 451c0 50 -18 72 -65 72c-39 0 -65 -20 -65 -72
c0 -60 19 -86 65 -86s65 26 65 86z" />
    <glyph glyph-name="seven.numerator" unicode="&#xf668;" horiz-adv-x="361" 
d="M233 650h-118v-53h-77v127h295v-62l-189 -357h-95z" />
    <glyph glyph-name="eight.numerator" unicode="&#xf669;" horiz-adv-x="361" 
d="M334 436c0 -87 -46 -140 -153 -140c-108 0 -154 53 -154 140c0 48 30 77 50 89c-19 14 -44 37 -44 83c0 81 49 125 148 125c98 0 147 -44 147 -125c0 -45 -24 -68 -43 -82c20 -14 49 -46 49 -90zM249 436c0 28 -16 54 -48 54h-41c-32 0 -48 -26 -48 -54
c0 -49 21 -71 69 -71c47 0 68 22 68 71zM245 608c0 40 -25 54 -64 54c-40 0 -65 -14 -65 -54c0 -37 22 -48 44 -48h41c22 0 44 11 44 48z" />
    <glyph glyph-name="nine.numerator" unicode="&#xf66a;" horiz-adv-x="361" 
d="M330 509c0 -103 -13 -213 -157 -213c-54 0 -108 20 -139 63l53 47c24 -28 49 -41 86 -41c43 0 67 28 72 90c-16 -10 -37 -18 -65 -18c-122 0 -150 65 -150 141c0 90 39 155 150 155s150 -65 150 -155v-69zM245 578c0 59 -19 85 -65 85s-65 -26 -65 -85
c0 -51 18 -73 65 -73c39 0 65 21 65 73z" />
    <glyph glyph-name="I.alt" unicode="&#xe000;" horiz-adv-x="328" 
d="M305 0h-282v85h74v551h-74v85h282v-85h-74v-551h74v-85z" />
    <glyph glyph-name="J.alt" unicode="&#xe005;" horiz-adv-x="448" 
d="M386 210c0 -164 -83 -226 -210 -226c-56 0 -117 10 -169 60l61 87c37 -36 74 -40 106 -40c61 0 79 30 79 119v376c0 6 4 16 6 23h-167l-30 112h324v-511z" />
    <glyph glyph-name="a.alt" unicode="&#xe006;" horiz-adv-x="583" 
d="M563 0h-75c-39 0 -70 16 -94 47c-42 -35 -89 -63 -159 -63c-135 0 -198 77 -198 186c0 136 100 169 208 169c42 0 85 -5 126 -13v57c0 37 -19 66 -86 66c-39 0 -84 -6 -120 -54l-94 56c49 71 120 102 214 102c178 0 220 -106 220 -170v-246c0 -19 8 -31 25 -31h33v-106z
M371 124v120c-27 4 -61 9 -94 9c-54 0 -107 -17 -107 -83c0 -62 36 -87 81 -87c40 0 81 15 120 41z" />
    <glyph glyph-name="i.alt" unicode="&#xe01b;" horiz-adv-x="336" 
d="M245 644c0 -9 0 -9 -8 -9h-130c-8 0 -8 0 -8 9v124c0 10 0 11 8 11h130c8 0 8 -1 8 -11v-124zM312 -9h-68c-91 0 -133 46 -133 139v277c0 8 3 20 10 29h-97v101h221v-407c0 -23 4 -30 24 -30h43v-109z" />
    <glyph glyph-name="j.alt" unicode="&#xe020;" horiz-adv-x="310" 
d="M245 644c0 -9 0 -9 -8 -9h-129c-8 0 -9 0 -9 9v124c0 10 1 11 9 11h129c8 0 8 -1 8 -11v-124zM245 -87c0 -88 -53 -155 -169 -155h-70v115h80c18 0 25 15 25 40v494c0 8 3 14 10 29h-97v101h221v-624z" />
    <glyph glyph-name="l.alt" unicode="&#xe022;" horiz-adv-x="315" 
d="M290 -9h-69c-91 0 -132 47 -132 140v546h-87v102h221v-648c0 -22 5 -31 23 -31h44v-109z" />
    <glyph glyph-name="Iacute.alt" unicode="&#xe001;" horiz-adv-x="328" 
d="M290 898l-174 -126c-7 -5 -12 -8 -19 -1l-43 41c-8 7 -1 10 4 16l147 153zM305 0h-282v85h74v551h-74v85h282v-85h-74v-551h74v-85z" />
    <glyph glyph-name="Icircumflex.alt" unicode="&#xe002;" horiz-adv-x="328" 
d="M323 817l-51 -50l-108 86l-107 -86l-52 50l149 155c3 4 7 5 10 5s6 -1 10 -5zM305 0h-282v85h74v551h-74v85h282v-85h-74v-551h74v-85z" />
    <glyph glyph-name="Idieresis.alt" unicode="&#xe003;" horiz-adv-x="328" 
d="M346 797c0 -9 -2 -10 -10 -10h-114c-10 0 -9 1 -9 10v115c0 7 1 11 9 11h114c9 0 10 -3 10 -11v-115zM113 797c0 -9 -2 -10 -10 -10h-114c-10 0 -9 1 -9 10v115c0 7 1 11 9 11h114c9 0 10 -3 10 -11v-115zM305 0h-282v85h74v551h-74v85h282v-85h-74v-551h74v-85z" />
    <glyph glyph-name="Igrave.alt" unicode="&#xe004;" horiz-adv-x="328" 
d="M279 812l-43 -41c-7 -7 -12 -5 -19 1l-174 126l85 83l147 -153c5 -6 13 -8 4 -16zM305 0h-282v85h74v551h-74v85h282v-85h-74v-551h74v-85z" />
    <glyph glyph-name="aacute.alt" unicode="&#xe007;" horiz-adv-x="583" 
d="M452 729l-174 -126c-7 -5 -12 -8 -19 -1l-43 41c-8 8 -2 10 4 16l147 153zM563 0h-75c-39 0 -70 16 -94 47c-42 -35 -89 -63 -159 -63c-135 0 -198 77 -198 186c0 136 100 169 208 169c42 0 85 -5 126 -13v57c0 37 -19 66 -86 66c-39 0 -84 -6 -120 -54l-94 56
c49 71 120 102 214 102c178 0 220 -106 220 -170v-246c0 -19 8 -31 25 -31h33v-106zM371 124v120c-27 4 -61 9 -94 9c-54 0 -107 -17 -107 -83c0 -62 36 -87 81 -87c40 0 81 15 120 41z" />
    <glyph glyph-name="acircumflex.alt" unicode="&#xe008;" horiz-adv-x="583" 
d="M451 649l-51 -50l-108 86l-107 -86l-52 50l149 155c4 4 7 5 10 5s6 -1 10 -5zM563 0h-75c-39 0 -70 16 -94 47c-42 -35 -89 -63 -159 -63c-135 0 -198 77 -198 186c0 136 100 169 208 169c42 0 85 -5 126 -13v57c0 37 -19 66 -86 66c-39 0 -84 -6 -120 -54l-94 56
c49 71 120 102 214 102c178 0 220 -106 220 -170v-246c0 -19 8 -31 25 -31h33v-106zM371 124v120c-27 4 -61 9 -94 9c-54 0 -107 -17 -107 -83c0 -62 36 -87 81 -87c40 0 81 15 120 41z" />
    <glyph glyph-name="adieresis.alt" unicode="&#xe009;" horiz-adv-x="583" 
d="M484 653c0 -9 -2 -10 -10 -10h-114c-10 0 -9 1 -9 10v115c0 7 1 11 9 11h114c9 0 10 -3 10 -11v-115zM251 653c0 -9 -2 -10 -10 -10h-114c-10 0 -9 1 -9 10v115c0 7 1 11 9 11h114c9 0 10 -3 10 -11v-115zM563 0h-75c-39 0 -70 16 -94 47c-42 -35 -89 -63 -159 -63
c-135 0 -198 77 -198 186c0 136 100 169 208 169c42 0 85 -5 126 -13v57c0 37 -19 66 -86 66c-39 0 -84 -6 -120 -54l-94 56c49 71 120 102 214 102c178 0 220 -106 220 -170v-246c0 -19 8 -31 25 -31h33v-106zM371 124v120c-27 4 -61 9 -94 9c-54 0 -107 -17 -107 -83
c0 -62 36 -87 81 -87c40 0 81 15 120 41z" />
    <glyph glyph-name="agrave.alt" unicode="&#xe00a;" horiz-adv-x="583" 
d="M384 643l-43 -41c-7 -6 -12 -4 -19 1l-174 126l85 83l147 -153c5 -6 13 -7 4 -16zM563 0h-75c-39 0 -70 16 -94 47c-42 -35 -89 -63 -159 -63c-135 0 -198 77 -198 186c0 136 100 169 208 169c42 0 85 -5 126 -13v57c0 37 -19 66 -86 66c-39 0 -84 -6 -120 -54l-94 56
c49 71 120 102 214 102c178 0 220 -106 220 -170v-246c0 -19 8 -31 25 -31h33v-106zM371 124v120c-27 4 -61 9 -94 9c-54 0 -107 -17 -107 -83c0 -62 36 -87 81 -87c40 0 81 15 120 41z" />
    <glyph glyph-name="aring.alt" unicode="&#xe00c;" horiz-adv-x="583" 
d="M407 714c0 -63 -50 -115 -114 -115c-63 0 -115 52 -115 115s52 114 115 114c64 0 114 -51 114 -114zM563 0h-75c-39 0 -70 16 -94 47c-42 -35 -89 -63 -159 -63c-135 0 -198 77 -198 186c0 136 100 169 208 169c42 0 85 -5 126 -13v57c0 37 -19 66 -86 66
c-39 0 -84 -6 -120 -54l-94 56c49 71 120 102 214 102c178 0 220 -106 220 -170v-246c0 -19 8 -31 25 -31h33v-106zM340 714c0 26 -21 46 -47 46c-25 0 -47 -20 -47 -46c0 -25 22 -47 47 -47c26 0 47 22 47 47zM371 124v120c-27 4 -61 9 -94 9c-54 0 -107 -17 -107 -83
c0 -62 36 -87 81 -87c40 0 81 15 120 41z" />
    <glyph glyph-name="atilde.alt" unicode="&#xe00e;" horiz-adv-x="583" 
d="M481 739l-73 -96c-12 -16 -32 -24 -52 -24c-13 0 -27 3 -39 11l-85 57c-4 2 -9 5 -13 5c-3 0 -6 -2 -8 -4l-55 -64l-63 41l81 104c13 16 30 25 50 25c14 0 29 -4 41 -12l85 -57c4 -3 8 -4 11 -4c5 0 10 2 13 7l44 51zM563 0h-75c-39 0 -70 16 -94 47
c-42 -35 -89 -63 -159 -63c-135 0 -198 77 -198 186c0 136 100 169 208 169c42 0 85 -5 126 -13v57c0 37 -19 66 -86 66c-39 0 -84 -6 -120 -54l-94 56c49 71 120 102 214 102c178 0 220 -106 220 -170v-246c0 -19 8 -31 25 -31h33v-106zM371 124v120c-27 4 -61 9 -94 9
c-54 0 -107 -17 -107 -83c0 -62 36 -87 81 -87c40 0 81 15 120 41z" />
    <glyph glyph-name="dotlessi.alt" unicode="&#xe011;" horiz-adv-x="336" 
d="M312 -9h-68c-91 0 -133 46 -133 139v277c0 8 3 20 10 29h-97v101h221v-407c0 -23 4 -30 24 -30h43v-109z" />
    <glyph glyph-name="iacute.alt" unicode="&#xe01c;" horiz-adv-x="336" 
d="M305 729l-174 -126c-7 -5 -13 -8 -19 -1l-43 41c-8 8 -2 10 4 16l147 153zM312 -9h-68c-91 0 -133 46 -133 139v277c0 8 3 20 10 29h-97v101h221v-407c0 -23 4 -30 24 -30h43v-109z" />
    <glyph glyph-name="icircumflex.alt" unicode="&#xe01d;" horiz-adv-x="336" 
d="M333 649l-51 -50l-108 86l-107 -86l-52 50l149 155c4 4 7 5 10 5c4 0 7 -1 10 -5zM312 -9h-68c-91 0 -133 46 -133 139v277c0 8 3 20 10 29h-97v101h221v-407c0 -23 4 -30 24 -30h43v-109z" />
    <glyph glyph-name="idieresis.alt" unicode="&#xe01e;" horiz-adv-x="336" 
d="M352 653c0 -9 -2 -10 -10 -10h-114c-9 0 -9 1 -9 10v115c0 7 1 11 9 11h114c9 0 10 -3 10 -11v-115zM119 653c0 -9 -2 -10 -10 -10h-114c-9 0 -9 1 -9 10v115c0 7 1 11 9 11h114c9 0 10 -3 10 -11v-115zM312 -9h-68c-91 0 -133 46 -133 139v277c0 8 3 20 10 29h-97v101
h221v-407c0 -23 4 -30 24 -30h43v-109z" />
    <glyph glyph-name="igrave.alt" unicode="&#xe01f;" horiz-adv-x="336" 
d="M276 643l-43 -41c-6 -6 -11 -4 -19 1l-174 126l85 83l147 -153c6 -6 13 -7 4 -16zM312 -9h-68c-91 0 -133 46 -133 139v277c0 8 3 20 10 29h-97v101h221v-407c0 -23 4 -30 24 -30h43v-109z" />
    <glyph glyph-name="lslash.alt" unicode="&#xe023;" horiz-adv-x="315" 
d="M298 482l-75 -46v-305c0 -22 5 -31 23 -31h44v-109h-69c-91 0 -132 47 -132 140v222l-70 -43v109l70 43v215h-87v102h221v-234l75 47v-110z" />
    <glyph glyph-name="f_i.alt" unicode="&#xe018;" horiz-adv-x="687" 
d="M596 644c0 -9 0 -9 -8 -9h-130c-8 0 -8 0 -8 9v124c0 10 0 11 8 11h130c8 0 8 -1 8 -11v-124zM663 -9h-68c-91 0 -133 46 -133 139v277c0 8 3 20 10 29h-240v-436h-134v397c0 22 7 28 15 39h-88v101h73v43c0 157 93 200 202 200c27 0 76 -6 111 -17l-25 -100
c-22 7 -54 14 -86 14c-46 0 -68 -17 -68 -97v-43h364v-407c0 -23 4 -30 24 -30h43v-109z" />
    <glyph glyph-name="j.dotless" unicode="&#xe021;" horiz-adv-x="258" 
d="M196 -87c0 -88 -53 -155 -169 -155h-70v115h80c18 0 25 15 25 40v624h134v-624z" />
    <glyph glyph-name="uni2215" unicode="&#x2215;" horiz-adv-x="403" 
d="M554 737l-500 -752h-83l500 752h83z" />
    <glyph glyph-name="apple" unicode="&#xe00b;" horiz-adv-x="790" 
d="M693 369c0 -227 -61 -385 -299 -385c-239 0 -297 158 -297 385c0 204 58 368 296 368c239 0 300 -164 300 -368zM613 251c0 88 -46 159 -147 177l-110 20c-35 6 -41 13 -41 47c0 30 4 52 79 52c52 0 77 -16 96 -52l26 -8l70 36l10 27c-27 53 -78 116 -201 116
c-148 0 -203 -76 -203 -171c0 -107 57 -150 131 -165l116 -23c41 -8 51 -21 51 -56s-17 -74 -97 -74c-54 0 -83 16 -108 72l-27 10l-69 -36l-11 -25c37 -102 121 -139 214 -139c146 0 220 86 220 192h1zM573 251c0 -82 -55 -152 -180 -152c-77 0 -139 28 -171 97l35 18
c31 -56 73 -77 135 -77c102 0 138 56 138 114c0 59 -38 86 -83 95l-116 22c-55 10 -99 43 -99 127c0 72 36 131 162 131c91 0 133 -39 157 -77l-36 -18c-27 38 -63 56 -120 56c-93 0 -120 -35 -120 -92c0 -53 19 -77 72 -87l110 -21c81 -15 115 -65 115 -136h1z" />
    <glyph glyph-name="arrow" unicode="&#xe00d;" horiz-adv-x="790" 
d="M736 360c0 -188 -153 -341 -341 -341s-341 153 -341 341s153 341 341 341s341 -153 341 -341zM672 361l-233 233l-75 -73l105 -106h-335v-104h339l-108 -111l74 -73z" />
    <glyph glyph-name="caronalt" unicode="&#xe00f;" horiz-adv-x="200" 
d="M183 721l-76 -234c-4 -12 -5 -14 -16 -14h-52c-10 0 -14 2 -12 14l37 234h119z" />
    <glyph glyph-name="commaaccentalt" unicode="&#xe010;" horiz-adv-x="200" 
d="M82 854l56 -35c-11 -14 -22 -39 -22 -77h55c10 0 11 0 11 -12v-105c0 -13 -1 -13 -11 -13h-130c-10 0 -11 0 -11 13v74c0 80 18 119 52 155z" />
    <glyph glyph-name="uni03A9" unicode="&#x3a9;" horiz-adv-x="720" 
d="M646 425c0 -140 -49 -247 -190 -276v-56h167v-93h-243v208c102 10 132 75 132 205s-45 216 -182 216c-136 0 -182 -86 -182 -215c0 -131 30 -196 132 -206v-208h-243v93h167v56c-141 29 -190 136 -190 277c0 160 77 311 316 311s316 -151 316 -312z" />
    </font>
</defs>
</svg>
