<?xml version="1.0" standalone="no"?>
<!DOCTYPE svg PUBLIC "-//W3C//DTD SVG 1.1//EN" "http://www.w3.org/Graphics/SVG/1.1/DTD/svg11.dtd" >
<svg xmlns="http://www.w3.org/2000/svg" xmlns:xlink="http://www.w3.org/1999/xlink" version="1.1">
<metadata>
Created by FontForge 20150102 at Sat Jan 17 13:03:21 2015
 By uniteet7
Digitised data (c) 2002 Monotype Imaging, Inc. All rights reserved.
</metadata>
<defs>
<font id="SceneStd-Black" horiz-adv-x="659" >
  <font-face 
    font-family="Scene Std"
    font-weight="900"
    font-stretch="normal"
    units-per-em="1000"
    panose-1="2 11 9 4 3 5 4 2 2 4"
    ascent="800"
    descent="-200"
    x-height="537"
    cap-height="721"
    bbox="-63 -323 1469 1002"
    underline-thickness="20"
    underline-position="-113"
    stemh="131"
    stemv="181"
    unicode-range="U+0020-FB04"
  />
<missing-glyph horiz-adv-x="500" 
d="M12 0v665h475v-665h-475zM88 618l162 -243l161 243h-323zM60 575v-484c0 -1 161 242 161 242zM440 575l-162 -242l162 -243v485zM411 48l-161 242l-162 -242h323z" />
    <glyph glyph-name="fi" unicode="fi" horiz-adv-x="729" 
d="M681 627c0 -9 -1 -9 -8 -9h-170c-7 0 -8 0 -8 9v142c0 10 0 10 8 10h170c8 0 8 0 8 -10v-142zM681 0h-181v406h-228v-406h-179v372c0 12 3 19 16 34h-90v131h74v32c0 176 104 211 224 211c68 0 97 -12 153 -27l-35 -121c-34 10 -52 16 -87 16c-46 0 -76 -18 -76 -79v-32
h409v-537z" />
    <glyph glyph-name="fl" unicode="fl" horiz-adv-x="758" 
d="M738 -9h-97c-98 0 -151 55 -151 159v499h-142c-46 0 -76 -19 -76 -80v-32h164l-33 -131h-131v-406h-179v359c0 12 6 32 19 47h-93v131h74v32c0 176 104 210 224 210h353v-629c0 -17 5 -29 23 -29h45v-130z" />
    <glyph glyph-name="f_f" unicode="ff" horiz-adv-x="871" 
d="M515 406h-243v-406h-179v372c0 12 3 19 16 34h-90v131h74v32c0 176 104 211 224 211c68 0 97 -12 153 -27l-35 -121c-34 10 -52 16 -87 16c-46 0 -76 -18 -76 -79v-32h228v31c0 176 104 211 224 211c68 0 117 -12 173 -27l-35 -125c-34 10 -72 20 -107 20
c-46 0 -74 -18 -74 -79v-31h162l-33 -131h-129v-406h-181v369c0 12 2 22 15 37z" />
    <glyph glyph-name="f_f_i" unicode="ffi" horiz-adv-x="1136" 
d="M1088 627c0 -9 -1 -9 -8 -9h-170c-7 0 -8 0 -8 9v142c0 10 0 10 8 10h170c8 0 8 0 8 -10v-142zM516 406h-244v-406h-179v372c0 12 3 19 16 34h-90v131h74v32c0 176 104 211 224 211c68 0 97 -12 153 -27l-35 -121c-34 10 -52 16 -87 16c-46 0 -76 -18 -76 -79v-32h228v32
c0 176 104 211 224 211c68 0 97 -12 153 -27l-35 -121c-34 10 -52 16 -87 16c-46 0 -76 -18 -76 -79v-32h409v-537h-181v406h-228v-406h-179v372c0 12 3 19 16 34z" />
    <glyph glyph-name="f_f_l" unicode="ffl" horiz-adv-x="1165" 
d="M519 406h-247v-406h-179v372c0 12 3 19 16 34h-90v131h74v32c0 176 104 211 224 211c68 0 97 -12 153 -27l-35 -121c-34 10 -52 16 -87 16c-46 0 -76 -18 -76 -79v-32h228v32c0 176 104 210 224 210h353v-629c0 -17 5 -29 23 -29h45v-130h-97c-98 0 -151 55 -151 159v499
h-142c-46 0 -76 -19 -76 -80v-32h164l-33 -131h-131v-406h-179v359c0 12 6 32 19 47z" />
    <glyph glyph-name="f_b" unicode="fb" horiz-adv-x="1071" 
d="M1043 272c0 -205 -104 -287 -285 -287c-77 0 -174 19 -258 57v607h-152c-46 0 -76 -19 -76 -80v-32h164l-33 -131h-131v-406h-179v359c0 12 6 32 19 47h-93v131h74v32c0 176 104 210 224 210h362v-213c0 -11 -4 -25 -18 -45c42 23 79 31 111 31c176 0 271 -90 271 -280z
M861 272c0 118 -33 160 -100 160c-25 0 -54 -8 -82 -21v-295c34 -8 57 -9 80 -9c79 0 102 48 102 165z" />
    <glyph glyph-name="f_f_b" unicode="ffb" horiz-adv-x="1478" 
d="M519 406h-247v-406h-179v372c0 12 3 19 16 34h-90v131h74v32c0 176 104 211 224 211c68 0 97 -12 153 -27l-35 -121c-34 10 -52 16 -87 16c-46 0 -76 -18 -76 -79v-32h228v32c0 176 104 210 224 210h362v-213c0 -11 -4 -25 -18 -45c42 23 79 31 111 31
c176 0 271 -90 271 -280c0 -205 -104 -287 -285 -287c-77 0 -174 19 -258 57v607h-152c-46 0 -76 -19 -76 -80v-32h164l-33 -131h-131v-406h-179v359c0 12 6 32 19 47zM1268 272c0 118 -33 160 -100 160c-25 0 -54 -8 -82 -21v-295c34 -8 57 -9 80 -9c79 0 102 48 102 165z
" />
    <glyph glyph-name="f_f_h" unicode="ffh" horiz-adv-x="1466" 
d="M519 406h-247v-406h-179v372c0 12 3 19 16 34h-90v131h74v32c0 176 104 211 224 211c68 0 97 -12 153 -27l-35 -121c-34 10 -52 16 -87 16c-46 0 -76 -18 -76 -79v-32h228v32c0 176 104 210 224 210h355v-278c45 40 85 51 130 51c146 0 208 -92 208 -219v-333h-181v333
c0 62 -17 92 -63 92c-32 0 -64 -15 -94 -36v-389h-182v649h-142c-46 0 -76 -19 -76 -80v-32h164l-33 -131h-131v-406h-179v359c0 12 6 32 19 47z" />
    <glyph glyph-name="f_f_k" unicode="ffk" horiz-adv-x="1480" 
d="M519 406h-247v-406h-179v372c0 12 3 19 16 34h-90v131h74v32c0 176 104 211 224 211c68 0 97 -12 153 -27l-35 -121c-34 10 -52 16 -87 16c-46 0 -76 -18 -76 -79v-32h228v32c0 176 104 210 224 210h353v-386l151 144h240l-249 -208l250 -329h-220l-138 202
c-5 8 -7 15 -7 32l-27 -22v-212h-180v649h-142c-46 0 -76 -19 -76 -80v-32h164l-33 -131h-131v-406h-179v359c0 12 6 32 19 47z" />
    <glyph glyph-name="f_h" unicode="fh" horiz-adv-x="1059" 
d="M1010 0h-181v333c0 62 -17 92 -63 92c-32 0 -64 -15 -94 -36v-389h-182v649h-142c-46 0 -76 -19 -76 -80v-32h164l-33 -131h-131v-406h-179v359c0 12 6 32 19 47h-93v131h74v32c0 176 104 210 224 210h355v-278c45 40 85 51 130 51c146 0 208 -92 208 -219v-333z" />
    <glyph glyph-name="f_j" unicode="fj" horiz-adv-x="729" 
d="M681 -75c0 -94 -50 -166 -171 -166h-109v139h77c19 0 22 8 22 27v481h-228v-406h-179v372c0 12 3 19 16 34h-90v131h74v32c0 176 104 211 224 211c68 0 97 -12 153 -27l-35 -121c-34 10 -52 16 -87 16c-46 0 -76 -18 -76 -79v-32h409v-612zM505 618h166c8 0 10 3 10 10
v141c0 7 -2 10 -10 10h-166c-8 0 -10 -3 -10 -10v-141c0 -7 2 -10 10 -10z" />
    <glyph glyph-name="f_f_j" unicode="ffj" horiz-adv-x="1136" 
d="M516 406h-244v-406h-179v372c0 12 3 19 16 34h-90v131h74v32c0 176 104 211 224 211c68 0 97 -12 153 -27l-35 -121c-34 10 -52 16 -87 16c-46 0 -76 -18 -76 -79v-32h228v32c0 176 104 211 224 211c68 0 97 -12 153 -27l-35 -121c-34 10 -52 16 -87 16
c-46 0 -76 -18 -76 -79v-32h409v-612c0 -94 -50 -166 -171 -166h-109v139h77c19 0 22 8 22 27v481h-228v-406h-179v372c0 12 3 19 16 34zM912 618h166c8 0 10 3 10 10v141c0 7 -2 10 -10 10h-166c-8 0 -10 -3 -10 -10v-141c0 -7 2 -10 10 -10z" />
    <glyph glyph-name="f_k" unicode="fk" horiz-adv-x="1073" 
d="M1062 0h-220l-138 202c-5 8 -7 15 -7 32l-27 -22v-212h-180v649h-142c-46 0 -76 -19 -76 -80v-32h164l-33 -131h-131v-406h-179v359c0 12 6 32 19 47h-93v131h74v32c0 176 104 210 224 210h353v-386l151 144h240l-249 -208z" />
    <glyph glyph-name=".notdef" horiz-adv-x="500" 
d="M12 0v665h475v-665h-475zM88 618l162 -243l161 243h-323zM60 575v-484c0 -1 161 242 161 242zM440 575l-162 -242l162 -243v485zM411 48l-161 242l-162 -242h323z" />
    <glyph glyph-name="space" unicode=" " horiz-adv-x="233" 
 />
    <glyph glyph-name="exclam" unicode="!" horiz-adv-x="284" 
d="M230 408l-21 -181h-133l-23 182v370h177v-371zM231 11c0 -9 -2 -11 -10 -11h-158c-8 0 -10 2 -10 11v155c0 10 2 12 10 12h158c8 0 10 -2 10 -12v-155z" />
    <glyph glyph-name="quotedbl" unicode="&#x22;" horiz-adv-x="488" 
d="M426 721l-38 -234c-2 -12 -5 -14 -16 -14h-79c-10 0 -12 2 -12 14v234h145zM225 721l-38 -234c-2 -12 -5 -14 -16 -14h-79c-10 0 -12 2 -12 14v234h145z" />
    <glyph glyph-name="numbersign" unicode="#" horiz-adv-x="587" 
d="M550 213h-131l-23 -174h-98l23 174h-103l-23 -174h-98l23 174h-77v100h90l14 100h-104v100h117l23 173h98l-22 -173h102l23 173h98l-22 -173h90v-100h-104l-13 -100h117v-100zM348 413h-103l-14 -100h103z" />
    <glyph glyph-name="dollar" unicode="$" 
d="M586 251c0 -94 -58 -168 -188 -190v-131h-139v129c-126 18 -186 80 -186 204h149c2 -57 23 -84 104 -84c78 0 97 32 97 65c0 32 -9 51 -43 56l-148 22c-82 12 -149 67 -149 180c0 101 57 157 176 174v107h139v-107c117 -18 169 -88 169 -187h-148c0 45 -16 72 -90 72
c-68 0 -86 -18 -86 -53c0 -31 15 -41 33 -44l131 -19c115 -17 179 -61 179 -194z" />
    <glyph glyph-name="percent" unicode="%" horiz-adv-x="954" 
d="M777 737l-475 -752h-128l475 752h128zM364 519c0 -106 -15 -223 -159 -223c-145 0 -160 117 -160 223c0 104 22 214 160 214c137 0 159 -110 159 -214zM253 519c0 98 -11 128 -48 128s-49 -30 -49 -128c0 -103 12 -137 49 -137c36 0 48 34 48 137zM909 214
c0 -106 -15 -223 -159 -223c-145 0 -160 117 -160 223c0 104 22 214 160 214c137 0 159 -110 159 -214zM798 214c0 98 -11 128 -48 128s-49 -30 -49 -128c0 -103 12 -137 49 -137c36 0 48 34 48 137z" />
    <glyph glyph-name="ampersand" unicode="&#x26;" horiz-adv-x="711" 
d="M720 13l-178 -35l-54 57c-47 -31 -106 -50 -171 -50c-161 0 -296 61 -296 223v16c0 90 50 138 118 173l-3 4c-40 54 -64 95 -64 143v8c0 142 138 185 239 185c102 0 236 -43 236 -185v-8c0 -84 -33 -139 -123 -177l-36 -15l93 -95c6 15 11 47 11 60v26h152v-26
c0 -58 -20 -123 -50 -175zM381 544v8c0 29 -10 61 -70 61c-61 0 -72 -32 -72 -61v-8c0 -26 5 -45 32 -72l10 -10l58 26c35 16 42 33 42 56zM383 144l-140 144c-3 -1 -12 -7 -13 -9c-19 -13 -29 -25 -29 -55v-16c0 -49 33 -83 116 -83c23 0 47 7 66 19z" />
    <glyph glyph-name="quoteright" unicode="&#x2019;" horiz-adv-x="255" 
d="M213 579c0 -78 -53 -150 -128 -186l-49 56c49 34 67 61 67 108h-39c-9 0 -10 0 -10 11v142c0 12 1 12 10 12h140c9 0 9 0 9 -12v-131z" />
    <glyph glyph-name="parenleft" unicode="(" horiz-adv-x="360" 
d="M333 -163c-222 0 -276 218 -276 467s54 467 276 467v-120c-68 0 -91 -44 -104 -111c-12 -62 -12 -157 -12 -236s0 -174 12 -236c13 -67 36 -111 104 -111v-120z" />
    <glyph glyph-name="parenright" unicode=")" horiz-adv-x="360" 
d="M303 304c0 -249 -54 -467 -276 -467v120c68 0 91 44 104 111c12 62 12 157 12 236s-1 174 -13 236c-13 67 -36 111 -104 111v120c222 0 277 -218 277 -467z" />
    <glyph glyph-name="asterisk" unicode="*" horiz-adv-x="377" 
d="M359 569c4 -13 1 -20 -12 -22l-95 -11l72 -65c10 -9 7 -17 -4 -25l-66 -47c-11 -8 -19 -8 -24 4l-40 87l-40 -89c-5 -12 -13 -12 -24 -4l-66 48c-11 8 -14 16 -4 25l71 64l-96 11c-13 1 -16 9 -12 22l25 77c4 13 11 17 22 11l85 -48l-21 96c-3 13 3 18 17 18h81
c14 0 21 -5 18 -18l-19 -94l84 49c12 7 18 0 22 -12z" />
    <glyph glyph-name="plus" unicode="+" 
d="M613 294h-215v-217h-135v217h-216v134h216v215h135v-215h215v-134z" />
    <glyph glyph-name="comma" unicode="," horiz-adv-x="294" 
d="M236 21c0 -84 -64 -161 -146 -200l-51 57c53 37 73 67 73 122h-44c-8 0 -10 0 -10 9v154c0 10 3 15 11 15h156c8 0 11 -5 11 -15v-142z" />
    <glyph glyph-name="hyphen" unicode="-" horiz-adv-x="343" 
d="M310 246h-277v147h277v-147z" />
    <glyph glyph-name="period" unicode="." horiz-adv-x="294" 
d="M236 11c0 -9 -2 -11 -10 -11h-158c-8 0 -10 2 -10 11v155c0 10 2 12 10 12h158c8 0 10 -2 10 -12v-155z" />
    <glyph glyph-name="slash" unicode="/" horiz-adv-x="497" 
d="M470 737l-319 -752h-123l319 752h123z" />
    <glyph glyph-name="zero" unicode="0" 
d="M601 369c0 -183 -25 -384 -271 -384s-272 201 -272 384c0 181 36 368 272 368s271 -187 271 -368zM424 369c0 178 -21 234 -94 234s-95 -56 -95 -234c0 -188 23 -251 95 -251s94 63 94 251z" />
    <glyph glyph-name="one" unicode="1" 
d="M573 0h-478v140h151v406c0 7 4 15 8 23l-159 -31v137l327 63v-598h151v-140z" />
    <glyph glyph-name="two" unicode="2" 
d="M593 523c0 -111 -61 -163 -183 -250c-90 -64 -125 -89 -148 -137h174v65h153v-201h-533c0 217 127 308 240 385c92 63 119 85 119 138c0 52 -25 81 -82 81c-80 0 -119 -39 -123 -119h-149c3 148 89 252 272 252c171 0 260 -73 260 -214z" />
    <glyph glyph-name="three" unicode="3" 
d="M609 220c0 -157 -131 -235 -282 -235c-117 0 -224 39 -289 169l130 59c45 -76 86 -96 158 -96s107 37 107 102c0 52 -30 93 -89 93h-96l-39 126h131c57 0 79 42 79 89c0 49 -29 79 -90 79c-70 0 -117 -19 -155 -89l-129 57c68 132 176 163 290 163
c190 0 260 -93 260 -204c0 -69 -40 -127 -91 -152c66 -28 105 -90 105 -161z" />
    <glyph glyph-name="four" unicode="4" 
d="M631 167h-76v-167h-175v167h-343v128l364 426h154v-413h76v-141zM390 491l-160 -183h150v148c0 10 2 19 10 35z" />
    <glyph glyph-name="five" unicode="5" 
d="M605 242c0 -149 -88 -257 -280 -257c-117 0 -226 39 -291 169l130 59c45 -76 87 -96 159 -96c80 0 105 53 105 120c0 72 -32 111 -121 111c-54 0 -131 -12 -170 -27l-57 53l42 347h478l-39 -140h-302l-14 -110c27 5 65 8 86 8c166 0 274 -69 274 -237z" />
    <glyph glyph-name="six" unicode="6" 
d="M601 255c0 -153 -72 -270 -274 -270c-203 0 -275 116 -275 270v114c0 168 22 368 288 368c95 0 192 -29 256 -114l-105 -91c-44 47 -81 70 -151 70c-74 0 -111 -45 -115 -134c31 16 73 26 108 26c179 0 268 -87 268 -239zM425 255c0 78 -26 113 -98 113
c-63 0 -102 -30 -102 -113c0 -104 36 -138 102 -138c70 0 98 37 98 138z" />
    <glyph glyph-name="seven" unicode="7" 
d="M611 599l-339 -599h-202l322 558c6 10 15 18 27 25h-204v-76h-153v214h549v-122z" />
    <glyph glyph-name="eight" unicode="8" 
d="M610 224c0 -148 -80 -239 -277 -239s-277 91 -277 239c0 85 48 128 91 156c-40 23 -80 75 -80 142c0 150 95 215 267 215s265 -65 265 -215c0 -67 -40 -119 -80 -142c43 -28 91 -71 91 -156zM427 522c0 59 -32 84 -94 84s-94 -25 -94 -84c0 -56 24 -80 58 -80h71
c34 0 59 24 59 80zM434 224c0 52 -22 92 -69 92h-64c-47 0 -70 -42 -70 -92c0 -80 30 -107 102 -107s101 27 101 107z" />
    <glyph glyph-name="nine" unicode="9" 
d="M602 354c0 -168 -22 -369 -288 -369c-95 0 -190 31 -254 116l101 87c44 -47 83 -71 153 -71c74 0 112 47 116 136c-31 -16 -73 -24 -108 -24c-179 0 -269 86 -269 238c0 153 72 270 274 270c203 0 275 -116 275 -270v-113zM430 467c0 104 -37 138 -103 138
c-70 0 -97 -37 -97 -138c0 -78 25 -112 97 -112c63 0 103 29 103 112z" />
    <glyph glyph-name="colon" unicode=":" horiz-adv-x="294" 
d="M236 370c0 -9 -2 -11 -10 -11h-158c-8 0 -10 2 -10 11v155c0 10 2 12 10 12h158c8 0 10 -2 10 -12v-155zM236 11c0 -9 -2 -11 -10 -11h-158c-8 0 -10 2 -10 11v155c0 10 2 12 10 12h158c8 0 10 -2 10 -12v-155z" />
    <glyph glyph-name="semicolon" unicode=";" horiz-adv-x="294" 
d="M236 370c0 -9 -2 -11 -10 -11h-158c-8 0 -10 2 -10 11v155c0 10 2 12 10 12h158c8 0 10 -2 10 -12v-155zM236 21c0 -84 -64 -161 -146 -200l-51 57c53 37 73 67 73 122h-44c-8 0 -10 0 -10 9v154c0 10 3 15 11 15h156c8 0 11 -5 11 -15v-142z" />
    <glyph glyph-name="less" unicode="&#x3c;" 
d="M532 80h-180l-224 280l224 280h180l-226 -280z" />
    <glyph glyph-name="equal" unicode="=" 
d="M578 423h-496v140h496v-140zM578 159h-496v140h496v-140z" />
    <glyph glyph-name="greater" unicode="&#x3e;" 
d="M532 360l-225 -280h-179l225 280l-225 280h179z" />
    <glyph glyph-name="question" unicode="?" horiz-adv-x="584" 
d="M546 574c0 -86 -39 -131 -114 -195c-36 -30 -88 -62 -88 -115v-49h-155v49c0 97 33 136 103 194c69 58 82 74 82 116c0 65 -20 92 -87 92c-75 0 -98 -32 -99 -113h-152c1 141 51 243 251 243c185 0 259 -81 259 -222zM356 11c0 -9 -2 -11 -10 -11h-158c-8 0 -10 2 -10 11
v155c0 10 2 12 10 12h158c8 0 10 -2 10 -12v-155z" />
    <glyph glyph-name="at" unicode="@" horiz-adv-x="985" 
d="M935 314c0 -147 -84 -285 -247 -285h-131l-8 61c-57 -55 -102 -76 -166 -76c-90 0 -151 60 -151 183c0 219 139 299 304 299c52 0 119 -10 168 -23c12 -24 20 -56 20 -91c0 -12 -1 -24 -3 -36l-34 -231h15c86 0 134 89 134 199c0 199 -156 279 -315 279
c-174 0 -374 -107 -374 -351c0 -226 146 -323 314 -323c70 0 147 16 214 46l40 -65c-86 -37 -179 -58 -267 -58c-214 0 -400 120 -400 400c0 286 224 433 471 433c228 0 416 -121 416 -361zM571 367c0 11 -1 23 -2 35c-17 2 -25 3 -37 3c-103 0 -141 -77 -141 -208
c0 -59 13 -82 46 -82s71 33 111 68l21 152c2 11 2 21 2 32z" />
    <glyph glyph-name="A" unicode="A" horiz-adv-x="735" 
d="M727 0h-189l-55 145h-239l-55 -145h-180l279 721h161zM428 290l-56 155c-3 8 -6 20 -8 31c-2 -11 -6 -23 -9 -31l-57 -155h130z" />
    <glyph glyph-name="B" unicode="B" horiz-adv-x="662" 
d="M636 227c0 -158 -114 -227 -295 -227h-291v721h291c178 0 263 -68 263 -203c0 -51 -26 -103 -72 -130c69 -30 104 -89 104 -161zM421 513c0 41 -18 69 -82 69h-110v-140h114c57 0 78 29 78 71zM452 227c0 55 -29 82 -109 82h-114v-170h110c92 0 113 37 113 88z" />
    <glyph glyph-name="C" unicode="C" horiz-adv-x="685" 
d="M663 173c-46 -107 -126 -188 -301 -188c-272 0 -326 189 -326 376c0 219 75 376 326 376c196 0 286 -107 297 -264h-166c-12 82 -49 114 -131 114c-117 0 -142 -68 -142 -226c0 -146 21 -227 142 -227c76 0 122 31 163 120z" />
    <glyph glyph-name="D" unicode="D" horiz-adv-x="701" 
d="M669 369c0 -196 -98 -369 -374 -369h-245v721h245c269 0 374 -154 374 -352zM485 369c0 141 -55 206 -190 206h-65v-430h65c132 0 190 73 190 224z" />
    <glyph glyph-name="E" unicode="E" horiz-adv-x="613" 
d="M574 0h-524v721h524v-148h-344v-124h314l-46 -149h-273c3 -6 5 -11 5 -19v-133h344v-148z" />
    <glyph glyph-name="F" unicode="F" horiz-adv-x="578" 
d="M558 721l-48 -148h-282v-132h253v-146h-257c2 -6 4 -12 4 -19v-276h-178v721h508z" />
    <glyph glyph-name="G" unicode="G" horiz-adv-x="731" 
d="M681 93c-80 -61 -173 -108 -295 -108c-248 0 -350 128 -350 376c0 231 89 376 349 376c195 0 285 -110 296 -259h-168c-9 63 -43 109 -128 109c-122 0 -165 -53 -165 -226c0 -176 44 -227 166 -227c42 0 87 15 114 32v76c0 7 2 13 4 19h-115l-40 141h332v-309z" />
    <glyph glyph-name="H" unicode="H" horiz-adv-x="733" 
d="M683 0h-180v300h-273v-300h-180v721h180v-266h273v266h180v-721z" />
    <glyph glyph-name="I" unicode="I" horiz-adv-x="280" 
d="M230 0h-180v721h180v-721z" />
    <glyph glyph-name="J" unicode="J" horiz-adv-x="491" 
d="M429 223c0 -163 -87 -238 -241 -238c-68 0 -121 12 -181 56l90 124c30 -22 55 -31 91 -31c47 0 62 25 62 89v498h179v-498z" />
    <glyph glyph-name="K" unicode="K" horiz-adv-x="685" 
d="M679 0h-233l-186 239c-6 7 -8 19 -9 32l-21 -20v-251h-180v721h180v-243l216 243h230l-311 -328z" />
    <glyph glyph-name="L" unicode="L" horiz-adv-x="548" 
d="M516 0h-466v721h180v-565h286v-156z" />
    <glyph glyph-name="M" unicode="M" horiz-adv-x="850" 
d="M803 0h-172l-27 336c-2 20 1 41 4 59l-115 -249h-137l-115 249c3 -18 6 -39 4 -59l-27 -336h-172l57 721h153l156 -330c8 -16 9 -28 12 -53c3 25 5 37 13 53l156 330h153z" />
    <glyph glyph-name="N" unicode="N" horiz-adv-x="743" 
d="M693 0h-156l-318 420c4 -13 8 -27 8 -41v-379h-177v721h154l320 -420c-5 16 -8 29 -8 47v373h177v-721z" />
    <glyph glyph-name="O" unicode="O" horiz-adv-x="734" 
d="M697 369c0 -204 -60 -384 -331 -384s-330 181 -330 384c0 184 60 368 330 368s331 -184 331 -368zM513 369c0 158 -37 218 -147 218s-145 -59 -145 -218c0 -178 36 -235 145 -235s147 58 147 235z" />
    <glyph glyph-name="P" unicode="P" horiz-adv-x="639" 
d="M607 484c0 -153 -93 -247 -291 -247h-95c5 -7 9 -20 9 -28v-209h-180v721h266c194 0 291 -84 291 -237zM424 484c0 70 -31 96 -108 96h-86v-202h86c75 0 108 31 108 106z" />
    <glyph glyph-name="Q" unicode="Q" horiz-adv-x="732" 
d="M712 5l-76 -151l-389 137c-167 59 -211 201 -211 375c0 185 60 371 330 371s331 -186 331 -371c0 -128 -19 -250 -128 -329c26 0 41 -1 55 -5zM514 366c0 159 -38 221 -148 221s-145 -61 -145 -221c0 -176 36 -238 145 -238s148 62 148 238z" />
    <glyph glyph-name="R" unicode="R" horiz-adv-x="661" 
d="M651 0h-214l-157 240c-6 9 -9 18 -10 26h-40v-266h-180v721h263c199 0 288 -86 288 -229c0 -100 -46 -169 -139 -203zM417 492c0 51 -25 88 -104 88h-83v-174h83c83 0 104 38 104 86z" />
    <glyph glyph-name="S" unicode="S" horiz-adv-x="651" 
d="M623 221c0 -152 -110 -236 -297 -236c-150 0 -244 63 -299 172l142 69c35 -61 77 -94 157 -94c93 0 119 33 119 83c0 40 -15 61 -67 70c-153 25 -332 25 -332 237c0 140 121 215 283 215c139 0 224 -46 283 -143l-143 -70c-30 47 -69 69 -140 69c-76 0 -106 -26 -106 -64
c0 -37 15 -52 50 -58c161 -26 350 -27 350 -250z" />
    <glyph glyph-name="T" unicode="T" horiz-adv-x="651" 
d="M623 574h-206v-574h-181v574h-207v147h594v-147z" />
    <glyph glyph-name="U" unicode="U" horiz-adv-x="737" 
d="M689 304c0 -223 -136 -319 -322 -319s-319 96 -319 319v417h180v-417c0 -128 50 -170 139 -170c90 0 140 42 140 170v417h182v-417z" />
    <glyph glyph-name="V" unicode="V" horiz-adv-x="730" 
d="M719 721l-271 -721h-168l-271 721h197l148 -429c7 -21 6 -35 9 -62c3 27 4 41 11 62l148 429h197z" />
    <glyph glyph-name="W" unicode="W" horiz-adv-x="916" 
d="M903 721l-174 -721h-172l-88 348c-3 13 -8 41 -10 57c-2 -16 -9 -44 -12 -57l-88 -348h-172l-174 721h181l76 -362c4 -21 8 -53 10 -71c2 18 4 49 10 71l88 340h160l88 -340c6 -22 8 -53 10 -71c2 18 6 50 10 71l76 362h181z" />
    <glyph glyph-name="X" unicode="X" horiz-adv-x="707" 
d="M705 0h-221l-118 206c-5 9 -10 28 -11 40c-2 -12 -7 -32 -12 -41l-119 -205h-223l234 369l-210 352h221l98 -188c6 -11 11 -26 13 -39c2 12 6 27 12 39l99 188h224l-213 -357z" />
    <glyph glyph-name="Y" unicode="Y" horiz-adv-x="708" 
d="M704 721l-258 -432v-289h-182v289l-259 432h206l132 -248c6 -11 7 -23 10 -37c3 13 4 25 10 36l135 249h206z" />
    <glyph glyph-name="Z" unicode="Z" horiz-adv-x="622" 
d="M589 593l-299 -426c-5 -8 -12 -15 -20 -20h311v-147h-539v127l301 427c5 7 12 14 20 20h-287l-46 147h559v-128z" />
    <glyph glyph-name="bracketleft" unicode="[" horiz-adv-x="344" 
d="M341 -163h-287v934h287v-112l-127 -9v-692l127 -9v-112z" />
    <glyph glyph-name="backslash" unicode="\" horiz-adv-x="497" 
d="M470 -15h-123l-319 752h123z" />
    <glyph glyph-name="bracketright" unicode="]" horiz-adv-x="344" 
d="M290 -163h-288v112l128 9v692l-128 9v112h288v-934z" />
    <glyph glyph-name="asciicircum" unicode="^" 
d="M534 502l-68 -58l-136 160l-137 -160l-68 58l161 212c15 20 31 23 44 23s29 -3 44 -23z" />
    <glyph glyph-name="underscore" unicode="_" horiz-adv-x="512" 
d="M518 -143h-524v98h524v-98z" />
    <glyph glyph-name="quoteleft" unicode="&#x2018;" horiz-adv-x="255" 
d="M223 746c-49 -34 -67 -61 -67 -108h39c9 0 10 0 10 -11v-142c0 -12 -1 -12 -10 -12h-140c-9 0 -10 0 -10 12v131c0 78 54 150 129 186z" />
    <glyph glyph-name="a" unicode="a" horiz-adv-x="594" 
d="M543 0h-129l-17 41c-44 -37 -90 -56 -151 -56c-144 0 -218 69 -218 186c0 134 105 168 214 168c40 0 81 -4 120 -11v48c0 32 -19 52 -75 52c-34 0 -77 -7 -106 -42l-114 67c51 68 123 99 231 99c161 0 245 -68 245 -176v-376zM362 132v105c-20 3 -44 5 -67 5
c-43 0 -87 -11 -87 -65c0 -50 28 -69 68 -69c29 0 58 8 86 24z" />
    <glyph glyph-name="b" unicode="b" horiz-adv-x="622" 
d="M594 272c0 -205 -104 -287 -285 -287c-77 0 -174 19 -258 57v737h179v-213c0 -11 -4 -25 -18 -45c42 23 79 31 111 31c176 0 271 -90 271 -280zM412 272c0 118 -33 160 -100 160c-25 0 -54 -8 -82 -21v-295c34 -8 57 -9 80 -9c79 0 102 48 102 165z" />
    <glyph glyph-name="c" unicode="c" horiz-adv-x="573" 
d="M558 124c-40 -89 -121 -139 -241 -139c-211 0 -289 112 -289 284c0 169 76 284 289 284c120 0 201 -52 241 -141l-129 -57c-30 48 -53 69 -112 69c-72 0 -107 -34 -107 -155s32 -155 107 -155c59 0 82 20 112 68z" />
    <glyph glyph-name="d" unicode="d" horiz-adv-x="626" 
d="M572 0h-134l-14 37c-36 -31 -83 -52 -136 -52c-145 0 -260 77 -260 286c0 189 108 281 277 281c25 0 65 -6 100 -25c-10 20 -12 27 -12 39v213h179v-779zM393 131v284c-30 13 -53 16 -73 16c-75 0 -110 -45 -110 -160c0 -92 20 -164 102 -164c22 0 49 6 81 24z" />
    <glyph glyph-name="e" unicode="e" horiz-adv-x="607" 
d="M579 225h-372c0 -73 33 -113 108 -113c51 0 88 20 112 58l139 -46c-47 -88 -123 -139 -251 -139c-191 0 -287 95 -287 284c0 185 100 283 283 283c200 0 268 -128 268 -297v-30zM405 331c-4 64 -40 97 -93 97c-55 0 -93 -26 -103 -97h196z" />
    <glyph glyph-name="f" unicode="f" horiz-adv-x="464" 
d="M490 752l-35 -125c-34 10 -72 20 -107 20c-46 0 -74 -18 -74 -79v-31h162l-33 -131h-129v-406h-181v369c0 12 2 22 15 37h-89v131h74v31c0 176 104 211 224 211c68 0 117 -12 173 -27z" />
    <glyph glyph-name="g" unicode="g" horiz-adv-x="653" 
d="M650 553l-22 -136h-27c-9 0 -25 0 -44 10c12 -26 17 -56 17 -80c0 -142 -88 -203 -260 -203c-23 0 -54 3 -80 7c-9 1 -18 5 -27 5c-8 0 -16 -5 -16 -16c0 -13 6 -19 31 -23l206 -36c123 -21 183 -59 183 -157c0 -129 -108 -173 -297 -173c-169 0 -300 35 -300 204
c0 63 39 105 75 129c-17 17 -25 37 -25 56c0 28 15 51 48 66c-35 33 -59 79 -59 141c0 156 117 206 261 206c60 0 115 -8 154 -31l57 31h125zM399 348c0 56 -26 84 -85 84s-84 -29 -84 -84s26 -81 84 -81s85 26 85 81zM422 -66c0 30 -6 50 -45 57l-172 31
c-17 -23 -21 -39 -21 -68c0 -58 44 -81 130 -81c74 0 108 21 108 61z" />
    <glyph glyph-name="h" unicode="h" horiz-adv-x="619" 
d="M570 0h-181v333c0 62 -17 92 -63 92c-32 0 -64 -15 -94 -36v-389h-182v778h182v-277c45 40 85 51 130 51c146 0 208 -92 208 -219v-333z" />
    <glyph glyph-name="i" unicode="i" horiz-adv-x="283" 
d="M232 0h-181v537h181v-537zM59 618h166c8 0 10 3 10 10v141c0 7 -2 10 -10 10h-166c-8 0 -10 -3 -10 -10v-141c0 -7 2 -10 10 -10z" />
    <glyph glyph-name="j" unicode="j" horiz-adv-x="283" 
d="M232 -75c0 -94 -50 -166 -171 -166h-109v139h77c19 0 22 8 22 27v612h181v-612zM59 618h166c8 0 10 3 10 10v141c0 7 -2 10 -10 10h-166c-8 0 -10 -3 -10 -10v-141c0 -7 2 -10 10 -10z" />
    <glyph glyph-name="k" unicode="k" horiz-adv-x="634" 
d="M623 0h-220l-138 202c-5 8 -7 15 -7 32l-27 -22v-212h-180v779h180v-386l151 144h240l-249 -208z" />
    <glyph glyph-name="l" unicode="l" horiz-adv-x="319" 
d="M299 -9h-97c-98 0 -151 55 -151 159v629h180v-629c0 -17 5 -29 23 -29h45v-130z" />
    <glyph glyph-name="m" unicode="m" horiz-adv-x="917" 
d="M870 0h-180v339c0 65 -15 87 -51 87c-35 0 -60 -13 -91 -35c2 -18 3 -35 3 -52v-339h-180v339c0 64 -12 87 -49 87c-34 0 -59 -16 -90 -37v-389h-181v537h150l19 -50c45 48 95 66 147 66c67 0 109 -23 148 -74c56 54 106 74 169 74c128 0 186 -72 186 -214v-339z" />
    <glyph glyph-name="n" unicode="n" horiz-adv-x="616" 
d="M570 0h-181v333c0 62 -17 93 -63 93c-32 0 -64 -16 -94 -37v-389h-181v537h150l18 -49c50 50 94 65 143 65c146 0 208 -93 208 -220v-333z" />
    <glyph glyph-name="o" unicode="o" horiz-adv-x="623" 
d="M595 270c0 -167 -77 -285 -284 -285s-283 117 -283 284s76 284 283 284s284 -116 284 -283zM412 270c0 122 -33 151 -101 151s-101 -30 -101 -152s33 -153 101 -153s101 32 101 154z" />
    <glyph glyph-name="p" unicode="p" horiz-adv-x="626" 
d="M598 272c0 -176 -89 -287 -277 -287c-28 0 -64 5 -97 21c8 -18 11 -24 11 -34v-215h-181v780h135l15 -38c41 37 91 54 141 54c148 0 253 -90 253 -281zM417 272c0 106 -29 160 -102 160c-23 0 -48 -8 -80 -27v-283c30 -14 53 -16 77 -16c74 0 105 52 105 166z" />
    <glyph glyph-name="q" unicode="q" horiz-adv-x="628" 
d="M575 -243h-181v212c0 8 2 23 9 36c-35 -13 -63 -20 -105 -20c-190 0 -270 106 -270 277c0 228 121 291 290 291c83 0 168 -13 257 -37v-759zM394 121v303c-30 7 -54 9 -74 9c-77 0 -109 -48 -109 -171c0 -121 34 -155 102 -155c24 0 52 3 81 14z" />
    <glyph glyph-name="r" unicode="r" horiz-adv-x="431" 
d="M409 406c-21 3 -43 5 -67 5c-38 0 -78 -6 -110 -24v-387h-181v537h151l17 -47c43 53 87 63 132 63c19 0 36 -3 58 -7v-140z" />
    <glyph glyph-name="s" unicode="s" horiz-adv-x="549" 
d="M524 173c0 -127 -104 -188 -250 -188c-136 0 -212 53 -250 129l127 48c28 -43 66 -58 123 -58c38 0 78 8 78 49c0 21 -6 38 -40 44l-128 21c-82 13 -149 63 -149 170c0 120 111 165 242 165c113 0 187 -40 234 -107l-118 -62c-26 30 -63 49 -116 49c-36 0 -70 -8 -70 -42
c0 -19 11 -33 33 -37l113 -19c104 -17 171 -58 171 -162z" />
    <glyph glyph-name="t" unicode="t" horiz-adv-x="494" 
d="M495 55c-50 -45 -107 -70 -192 -70c-110 0 -202 49 -202 174v207c0 15 5 27 16 40h-99v131h83v171l180 49v-220h193l-42 -131h-151v-247c0 -29 17 -39 44 -39c32 0 53 10 75 29z" />
    <glyph glyph-name="u" unicode="u" horiz-adv-x="616" 
d="M565 0h-149l-19 48c-50 -50 -94 -63 -143 -63c-146 0 -208 92 -208 219v333h181v-333c0 -61 16 -93 62 -93c32 0 65 15 95 36v390h181v-537z" />
    <glyph glyph-name="v" unicode="v" horiz-adv-x="616" 
d="M604 537l-211 -537h-172l-209 537h186l94 -300c9 -30 12 -62 16 -93c5 34 7 60 17 93l94 300h185z" />
    <glyph glyph-name="w" unicode="w" horiz-adv-x="856" 
d="M843 537l-171 -537h-156l-69 236c-10 35 -13 46 -20 95c-7 -48 -10 -62 -20 -95l-69 -236h-156l-169 537h179l60 -254c4 -17 10 -45 14 -94c10 54 16 79 20 94l69 254h144l70 -254c4 -15 12 -30 19 -94c6 61 12 75 16 94l59 254h180z" />
    <glyph glyph-name="x" unicode="x" horiz-adv-x="641" 
d="M633 0h-210l-89 135c-9 14 -14 26 -16 60c-6 -33 -9 -50 -15 -60l-82 -135h-213l198 277l-186 260h212l74 -120c10 -16 11 -30 16 -63c2 32 7 47 17 64l70 119h210l-179 -263z" />
    <glyph glyph-name="y" unicode="y" horiz-adv-x="629" 
d="M615 537l-259 -659c-32 -81 -86 -120 -212 -120h-96v133h96c27 0 37 14 49 44l31 77l-211 525h188l102 -314c5 -15 10 -30 11 -51c2 21 8 37 12 51l101 314h188z" />
    <glyph glyph-name="z" unicode="z" horiz-adv-x="548" 
d="M511 0h-469v126l211 243c9 10 14 16 45 27h-225l-42 141h478v-126l-208 -241c-9 -11 -12 -18 -46 -31h256v-139z" />
    <glyph glyph-name="braceleft" unicode="{" horiz-adv-x="390" 
d="M382 -163h-160c-76 0 -127 46 -127 135v210c0 36 -9 71 -64 78v89c55 7 63 41 63 77v210c0 89 51 135 127 135h160v-113h-94c-25 0 -34 -6 -34 -37v-207c0 -44 -17 -95 -79 -111c62 -16 80 -65 80 -109v-207c0 -31 9 -37 34 -37h94v-113z" />
    <glyph glyph-name="bar" unicode="|" horiz-adv-x="297" 
d="M228 -163h-159v934h159v-934z" />
    <glyph glyph-name="braceright" unicode="}" horiz-adv-x="390" 
d="M359 260c-55 -7 -64 -42 -64 -78v-210c0 -89 -51 -135 -127 -135h-160v113h89c25 0 39 6 39 37v207c0 44 18 93 80 109c-62 16 -79 67 -79 111v207c0 31 -14 37 -39 37h-90v113h161c76 0 127 -46 127 -135v-210c0 -36 8 -70 63 -77v-89z" />
    <glyph glyph-name="asciitilde" unicode="~" 
d="M573 364c-35 -49 -76 -69 -134 -69c-95 0 -142 86 -218 86c-59 0 -100 -20 -135 -69v144c35 49 76 69 134 69c105 0 143 -86 218 -86c59 0 100 20 135 69v-144z" />
    <glyph glyph-name="exclamdown" unicode="&#xa1;" horiz-adv-x="284" 
d="M222 397c0 -10 0 -10 -8 -10h-147c-8 0 -8 0 -8 10v146c0 9 0 9 8 9h147c8 0 8 0 8 -9v-146zM230 -227h-177v371l22 181h133l22 -182v-370z" />
    <glyph glyph-name="cent" unicode="&#xa2;" 
d="M579 433h-134c-2 38 -25 69 -94 69c-67 0 -95 -46 -95 -144s28 -142 95 -142c63 0 83 28 107 65l120 -58c-41 -70 -88 -107 -162 -123v-115h-138v115c-139 25 -195 121 -195 258c0 135 53 235 194 259v120h139v-118c101 -16 161 -81 163 -186z" />
    <glyph glyph-name="sterling" unicode="&#xa3;" 
d="M607 649l-95 -99c-44 41 -73 56 -135 56c-56 0 -85 -21 -85 -91v-89h148v-140h-148v-90c0 -23 -6 -43 -25 -56h330v-140h-504v129c21 17 30 33 30 65v92h-76v140h76v89c0 128 62 222 242 222c104 0 179 -21 242 -88z" />
    <glyph glyph-name="fraction" unicode="&#x2044;" horiz-adv-x="391" 
d="M540 737l-479 -752h-124l479 752h124z" />
    <glyph glyph-name="yen" unicode="&#xa5;" 
d="M663 721l-114 -202h75v-101h-130l-42 -74h172v-101h-204v-243h-179v243h-209v101h176l-41 74h-135v101h78l-114 202h193l127 -257c8 -16 11 -33 13 -46c2 13 3 28 12 46l128 257h194z" />
    <glyph glyph-name="florin" unicode="&#x192;" 
d="M638 698l-45 -119c-29 8 -61 15 -89 15c-36 0 -61 -16 -67 -70l-6 -50h158l-46 -126h-125l-29 -265c-16 -148 -106 -197 -215 -197c-51 0 -94 7 -153 25l45 117c27 -6 55 -14 83 -14c38 0 63 16 69 71l25 229c1 11 9 25 19 34h-115l16 126h98l5 53
c14 152 103 196 208 196c53 0 103 -8 164 -25z" />
    <glyph glyph-name="section" unicode="&#xa7;" horiz-adv-x="630" 
d="M557 97c0 -153 -81 -209 -256 -209h-223v200h139v-79h84c89 0 99 23 99 69c0 33 -11 44 -50 54l-126 32c-112 28 -153 101 -153 208v148c0 148 78 201 217 201h257v-191h-138v70h-119c-37 0 -62 -11 -62 -49c0 -33 6 -47 49 -58l113 -30c108 -29 169 -63 169 -201v-165z
M400 236v38c0 38 -13 58 -48 67l-107 27c-9 2 -14 11 -19 21v-33c0 -39 11 -62 47 -71l108 -28c6 -2 14 -10 19 -21z" />
    <glyph glyph-name="currency" unicode="&#xa4;" horiz-adv-x="645" 
d="M583 557c0 -6 -3 -11 -7 -15l-86 -85c15 -27 23 -56 23 -86c0 -31 -8 -62 -24 -90l84 -84c4 -4 7 -10 7 -15c0 -4 -2 -8 -5 -11l-57 -57c-3 -3 -7 -5 -11 -5c-6 0 -11 3 -15 7l-86 87c-25 -14 -54 -21 -82 -21c-30 0 -59 7 -86 22l-85 -85c-4 -4 -10 -8 -16 -8
c-3 0 -7 2 -10 5l-57 57c-3 3 -5 8 -5 12c0 5 3 11 7 15l85 84c-15 27 -23 57 -23 87c0 28 6 57 20 82l-85 86c-4 4 -7 10 -7 15c0 4 2 8 5 11l57 57c3 3 7 5 11 5c5 0 11 -3 15 -7l83 -83c28 16 60 23 91 23c30 0 59 -7 86 -22l85 85c4 4 10 7 15 7c4 0 8 -2 11 -5l57 -57
c3 -3 5 -7 5 -11zM410 374c0 46 -38 83 -84 83s-85 -37 -85 -83s39 -84 85 -84s84 38 84 84z" />
    <glyph glyph-name="quotesingle" unicode="'" horiz-adv-x="255" 
d="M211 721l-38 -234c-2 -12 -5 -14 -16 -14h-79c-10 0 -12 2 -12 14v234h145z" />
    <glyph glyph-name="quotedblleft" unicode="&#x201c;" horiz-adv-x="488" 
d="M456 750c-49 -34 -67 -61 -67 -108h39c9 0 10 0 10 -11v-142c0 -12 -1 -12 -10 -12h-140c-9 0 -10 0 -10 12v132c0 78 54 149 129 185zM224 750c-49 -34 -67 -61 -67 -108h39c9 0 10 0 10 -11v-142c0 -12 -1 -12 -10 -12h-141c-9 0 -9 0 -9 12v132c0 78 53 149 128 185z
" />
    <glyph glyph-name="guillemotleft" unicode="&#xab;" horiz-adv-x="620" 
d="M582 129l-80 -69l-191 215l191 216l80 -69l-121 -147zM304 129l-80 -69l-192 215l192 216l80 -69l-121 -147z" />
    <glyph glyph-name="guilsinglleft" unicode="&#x2039;" horiz-adv-x="345" 
d="M307 129l-81 -69l-194 215l194 216l81 -69l-123 -147z" />
    <glyph glyph-name="guilsinglright" unicode="&#x203a;" horiz-adv-x="345" 
d="M313 275l-195 -215l-79 69l121 146l-121 147l79 69z" />
    <glyph glyph-name="endash" unicode="&#x2013;" horiz-adv-x="464" 
d="M429 248h-393v144h393v-144z" />
    <glyph glyph-name="dagger" unicode="&#x2020;" horiz-adv-x="562" 
d="M536 393h-145l-37 10l10 -37v-366h-163v366l11 37l-38 -10h-148v160h148l38 -10l-11 40v196h163v-196l-10 -40l37 10h145v-160z" />
    <glyph glyph-name="daggerdbl" unicode="&#x2021;" horiz-adv-x="562" 
d="M536 194h-145l-37 10l10 -37v-167h-163v167l11 37l-38 -10h-148v154h148l38 -10l-11 40v35l11 36l-38 -9h-148v153h148l38 -10l-11 40v156h163v-156l-10 -40l37 10h145v-153h-145l-37 9l10 -36v-35l-10 -40l37 10h145v-154z" />
    <glyph glyph-name="periodcentered" unicode="&#xb7;" horiz-adv-x="294" 
d="M236 344c0 -9 -2 -11 -10 -11h-158c-8 0 -10 2 -10 11v155c0 10 2 12 10 12h158c8 0 10 -2 10 -12v-155z" />
    <glyph glyph-name="paragraph" unicode="&#xb6;" horiz-adv-x="553" 
d="M508 0h-100v628h-55v-628h-100v342h-31c-146 0 -203 88 -203 191c0 104 59 188 203 188h286v-721z" />
    <glyph glyph-name="bullet" unicode="&#x2022;" horiz-adv-x="476" 
d="M435 301c0 -109 -87 -196 -196 -196s-197 87 -197 196s88 197 197 197s196 -88 196 -197z" />
    <glyph glyph-name="quotesinglbase" unicode="&#x201a;" horiz-adv-x="255" 
d="M212 21c0 -84 -64 -161 -146 -200l-51 57c53 37 73 67 73 122h-44c-8 0 -10 0 -10 9v154c0 10 3 15 11 15h156c8 0 11 -5 11 -15v-142z" />
    <glyph glyph-name="quotedblbase" unicode="&#x201e;" horiz-adv-x="488" 
d="M465 21c0 -84 -64 -161 -146 -200l-51 57c53 37 73 67 73 122h-44c-8 0 -10 0 -10 9v154c0 10 3 15 11 15h156c8 0 11 -5 11 -15v-142zM202 21c0 -84 -64 -161 -146 -200l-51 57c53 37 73 67 73 122h-44c-8 0 -10 0 -10 9v154c0 10 3 15 11 15h156c8 0 11 -5 11 -15v-142
z" />
    <glyph glyph-name="quotedblright" unicode="&#x201d;" horiz-adv-x="488" 
d="M442 578c0 -78 -53 -149 -128 -185l-50 56c49 34 68 61 68 108h-39c-9 0 -10 0 -10 11v142c0 12 1 12 10 12h140c9 0 9 0 9 -12v-132zM210 578c0 -78 -54 -149 -129 -185l-49 56c49 34 67 61 67 108h-39c-9 0 -10 0 -10 11v142c0 12 1 12 10 12h140c9 0 10 0 10 -12v-132
z" />
    <glyph glyph-name="guillemotright" unicode="&#xbb;" horiz-adv-x="620" 
d="M589 275l-193 -215l-79 69l120 146l-120 147l79 69zM310 275l-193 -215l-78 69l120 146l-120 147l78 69z" />
    <glyph glyph-name="ellipsis" unicode="&#x2026;" horiz-adv-x="894" 
d="M836 11c0 -9 -2 -11 -10 -11h-158c-8 0 -10 2 -10 11v155c0 10 2 12 10 12h158c8 0 10 -2 10 -12v-155zM536 11c0 -9 -2 -11 -10 -11h-158c-8 0 -10 2 -10 11v155c0 10 2 12 10 12h158c8 0 10 -2 10 -12v-155zM236 11c0 -9 -2 -11 -10 -11h-158c-8 0 -10 2 -10 11v155
c0 10 2 12 10 12h158c8 0 10 -2 10 -12v-155z" />
    <glyph glyph-name="perthousand" unicode="&#x2030;" horiz-adv-x="1328" 
d="M777 737l-475 -752h-128l475 752h128zM364 519c0 -106 -15 -223 -159 -223c-145 0 -160 117 -160 223c0 104 22 214 160 214c137 0 159 -110 159 -214zM253 519c0 98 -11 128 -48 128s-49 -30 -49 -128c0 -103 12 -137 49 -137c36 0 48 34 48 137zM909 214
c0 -106 -15 -223 -159 -223c-145 0 -160 117 -160 223c0 104 22 214 160 214c137 0 159 -110 159 -214zM798 214c0 98 -11 128 -48 128s-49 -30 -49 -128c0 -103 12 -137 49 -137c36 0 48 34 48 137zM1283 214c0 -106 -15 -223 -159 -223c-145 0 -160 117 -160 223
c0 104 22 214 160 214c137 0 159 -110 159 -214zM1172 214c0 98 -11 128 -48 128s-49 -30 -49 -128c0 -103 12 -137 49 -137c36 0 48 34 48 137z" />
    <glyph glyph-name="questiondown" unicode="&#xbf;" horiz-adv-x="584" 
d="M406 386c0 -10 -2 -12 -10 -12h-158c-8 0 -10 2 -10 12v155c0 9 2 11 10 11h158c8 0 10 -2 10 -11v-155zM548 -1c-1 -141 -51 -243 -251 -243c-185 0 -259 81 -259 222c0 86 39 131 114 195c36 30 88 62 88 115v49h155v-49c0 -97 -33 -136 -103 -194
c-69 -58 -82 -74 -82 -116c0 -65 20 -92 87 -92c75 0 98 32 99 113h152z" />
    <glyph glyph-name="grave" unicode="`" horiz-adv-x="358" 
d="M50 737l181 -139c7 -5 11 -7 19 1l51 48c8 8 5 13 -1 19l-155 166z" />
    <glyph glyph-name="acute" unicode="&#xb4;" horiz-adv-x="358" 
d="M308 737l-181 -139c-7 -5 -11 -7 -19 1l-51 48c-8 8 -5 13 1 19l155 166z" />
    <glyph glyph-name="circumflex" unicode="&#x2c6;" horiz-adv-x="444" 
d="M383 655l-62 -62l-110 92l-109 -92l-62 62l162 166c4 4 8 5 11 5s6 -1 10 -5z" />
    <glyph glyph-name="tilde" unicode="&#x2dc;" horiz-adv-x="465" 
d="M436 735l-82 -109c-12 -16 -30 -24 -49 -24c-13 0 -28 3 -39 11l-83 57c-4 2 -7 5 -11 5s-7 -2 -9 -4l-59 -71l-73 49l90 118c12 16 29 25 48 25c13 0 28 -4 40 -12l80 -55c4 -3 7 -4 11 -4c5 0 9 3 13 7l48 58z" />
    <glyph glyph-name="macron" unicode="&#xaf;" horiz-adv-x="461" 
d="M399 626h-332v130h332v-130z" />
    <glyph glyph-name="breve" unicode="&#x2d8;" horiz-adv-x="458" 
d="M404 749c-42 -80 -84 -131 -174 -131s-132 50 -174 131l72 46c45 -67 65 -76 101 -76c37 0 58 10 103 76z" />
    <glyph glyph-name="dotaccent" unicode="&#x2d9;" horiz-adv-x="376" 
d="M272 622c0 -9 -2 -11 -10 -11h-148c-8 0 -10 2 -10 11v145c0 10 2 12 10 12h148c8 0 10 -2 10 -12v-145z" />
    <glyph glyph-name="dieresis" unicode="&#xa8;" horiz-adv-x="517" 
d="M461 641c0 -6 -1 -8 -7 -8h-132c-7 0 -8 1 -8 8v138c0 7 2 9 8 9h132c6 0 7 -2 7 -9v-138zM205 641c0 -6 -1 -8 -7 -8h-132c-7 0 -8 1 -8 8v138c0 7 2 9 8 9h132c6 0 7 -2 7 -9v-138z" />
    <glyph glyph-name="ring" unicode="&#x2da;" horiz-adv-x="407" 
d="M326 715c0 -67 -55 -122 -122 -122s-122 55 -122 122s55 122 122 122s122 -55 122 -122zM253 714c0 26 -23 49 -49 49s-47 -23 -47 -49s21 -47 47 -47s49 21 49 47z" />
    <glyph glyph-name="cedilla" unicode="&#xb8;" horiz-adv-x="402" 
d="M329 -125c0 -59 -47 -92 -143 -92c-45 0 -96 10 -126 21l18 51c28 -5 56 -11 85 -11c33 0 52 12 52 36c0 18 -14 30 -36 30h-69l-29 45l56 58h88l-46 -54h29c91 0 121 -25 121 -84z" />
    <glyph glyph-name="hungarumlaut" unicode="&#x2dd;" horiz-adv-x="507" 
d="M577 737l-181 -139c-3 -2 -6 -5 -10 -5c-3 0 -5 2 -7 4c-7 7 -60 52 -60 59c0 4 6 8 8 10l155 166zM308 737l-181 -139c-3 -2 -6 -5 -10 -5c-3 0 -5 2 -7 4c-7 7 -60 52 -60 59c0 4 6 8 8 10l155 166z" />
    <glyph glyph-name="ogonek" unicode="&#x2db;" horiz-adv-x="393" 
d="M302 -192c-34 -9 -72 -16 -112 -16c-70 0 -120 29 -120 92c0 58 59 107 119 137h98c-77 -57 -109 -88 -109 -127c0 -10 5 -28 31 -28c28 0 56 8 84 13z" />
    <glyph glyph-name="caron" unicode="&#x2c7;" horiz-adv-x="458" 
d="M407 758l-157 -155c-8 -7 -14 -10 -21 -10s-14 3 -21 10l-156 155l65 62l113 -94l112 94z" />
    <glyph glyph-name="emdash" unicode="&#x2014;" horiz-adv-x="903" 
d="M867 248h-831v144h831v-144z" />
    <glyph glyph-name="AE" unicode="&#xc6;" horiz-adv-x="1030" 
d="M991 0h-528v154h-190l-80 -154h-184l355 721h627v-147h-347v-125h323l-48 -146h-281c4 -8 6 -16 6 -25v-131h347v-147zM463 303v250c-3 -11 -7 -21 -10 -27l-109 -223h119z" />
    <glyph glyph-name="ordfeminine" unicode="&#xaa;" horiz-adv-x="349" 
d="M303 456h-62l-11 22c-22 -21 -47 -31 -77 -31c-67 0 -113 32 -113 97c0 68 55 84 110 84c20 0 40 -2 57 -5v22c0 15 -6 24 -34 24c-20 0 -35 -3 -51 -19l-61 35c30 37 63 52 118 52c81 0 124 -32 124 -92v-189zM207 526v48c-9 1 -21 3 -32 3c-21 0 -39 -8 -39 -30
s12 -33 30 -33c14 0 29 6 41 12z" />
    <glyph glyph-name="Lslash" unicode="&#x141;" horiz-adv-x="549" 
d="M517 0h-466v270l-58 -35v123l58 36v327h180v-217l89 55v-124l-89 -54v-225h286v-156z" />
    <glyph glyph-name="Oslash" unicode="&#xd8;" horiz-adv-x="734" 
d="M731 746l-96 -126c49 -69 62 -160 62 -251c0 -204 -60 -384 -331 -384c-78 0 -139 15 -186 42l-39 -52h-128l91 119c-52 71 -68 171 -68 275c0 184 60 368 330 368c82 0 146 -17 194 -47l43 56h128zM462 562c-23 18 -54 27 -96 27c-112 0 -148 -61 -148 -220
c0 -46 3 -83 9 -114zM516 369c0 34 -2 63 -6 89l-232 -304c22 -15 50 -22 88 -22c111 0 150 59 150 237z" />
    <glyph glyph-name="OE" unicode="&#x152;" horiz-adv-x="1085" 
d="M1046 0h-528v41c-41 -36 -93 -56 -150 -56c-272 0 -332 181 -332 384c0 184 61 368 332 368c62 0 116 -25 150 -58v42h528v-147h-347v-125h323l-48 -146h-280c4 -7 5 -11 5 -23v-133h347v-147zM516 369c0 158 -37 218 -148 218s-147 -59 -147 -218
c0 -178 38 -235 147 -235s148 58 148 235z" />
    <glyph glyph-name="ordmasculine" unicode="&#xba;" horiz-adv-x="353" 
d="M320 592c0 -84 -39 -145 -143 -145s-143 61 -143 145s39 145 143 145s143 -61 143 -145zM223 592c0 60 -15 73 -46 73s-47 -13 -47 -73s16 -74 47 -74s46 14 46 74z" />
    <glyph glyph-name="ae" unicode="&#xe6;" horiz-adv-x="943" 
d="M915 224h-371c0 -68 34 -112 108 -112c51 0 84 18 109 58l140 -46c-48 -90 -123 -140 -249 -140c-99 0 -171 24 -221 77c-53 -45 -120 -77 -186 -77c-143 0 -217 70 -217 187c0 134 104 169 213 169c40 0 81 -4 120 -11v47c0 32 -19 52 -75 52c-34 0 -78 -8 -103 -43
l-117 68c50 67 124 100 231 100c79 0 131 -16 179 -56c43 36 101 56 168 56c200 0 271 -129 271 -298v-31zM742 331c-4 64 -40 96 -93 96c-52 0 -92 -27 -102 -96h195zM361 134v99c-20 4 -44 7 -67 7c-42 0 -87 -11 -87 -63c0 -48 26 -69 62 -69c35 0 62 9 92 26z" />
    <glyph glyph-name="dotlessi" unicode="&#x131;" horiz-adv-x="283" 
d="M232 0h-181v537h181v-537z" />
    <glyph glyph-name="lslash" unicode="&#x142;" horiz-adv-x="319" 
d="M313 473l-82 -53v-270c0 -17 5 -29 23 -29h45v-130h-97c-98 0 -151 55 -151 159v154l-80 -51v127l80 51v348h180v-232l82 53v-127z" />
    <glyph glyph-name="oslash" unicode="&#xf8;" horiz-adv-x="623" 
d="M595 269c0 -167 -77 -285 -284 -285c-65 0 -117 11 -160 33l-28 -32h-89l62 74c-48 52 -68 124 -68 209c0 167 76 285 283 285c64 0 115 -11 158 -32l26 32h89l-59 -74c50 -52 70 -124 70 -210zM374 405c-19 13 -39 16 -63 16c-68 0 -101 -31 -101 -153
c0 -21 1 -39 4 -62zM412 269c0 23 -1 42 -4 66l-162 -201c19 -15 39 -19 65 -19c68 0 101 32 101 154z" />
    <glyph glyph-name="oe" unicode="&#x153;" horiz-adv-x="990" 
d="M962 224h-370c0 -68 34 -112 108 -112c51 0 84 18 109 58l140 -46c-48 -90 -123 -140 -249 -140c-89 0 -152 27 -197 75c-42 -46 -103 -75 -193 -75c-206 0 -282 117 -282 284s76 285 282 285c91 0 149 -28 194 -74c46 48 104 74 187 74c200 0 271 -129 271 -298v-31z
M789 331c-4 64 -39 96 -92 96c-52 0 -94 -27 -104 -96h196zM411 269c0 122 -33 152 -101 152s-101 -31 -101 -153s33 -153 101 -153s101 32 101 154z" />
    <glyph glyph-name="germandbls" unicode="&#xdf;" horiz-adv-x="668" 
d="M638 232c0 -159 -75 -248 -339 -248v134c121 0 155 41 155 114c0 68 -43 104 -124 104h-51v118h51c70 0 93 44 93 112c0 58 -26 97 -91 97c-71 0 -94 -45 -94 -114v-549h-184v549c0 163 108 247 278 247c206 0 273 -122 273 -230c0 -78 -41 -138 -101 -161
c73 -21 134 -80 134 -173z" />
    <glyph glyph-name="logicalnot" unicode="&#xac;" 
d="M570 248h-136v184h-345v132h481v-316z" />
    <glyph glyph-name="mu" unicode="&#xb5;" horiz-adv-x="616" 
d="M570 0h-149l-19 48c-50 -50 -94 -63 -143 -63c-9 0 -18 0 -27 1v-228h-181v779h181v-333c0 -61 16 -93 62 -93c32 0 65 15 95 36v390h181v-537z" />
    <glyph glyph-name="trademark" unicode="&#x2122;" horiz-adv-x="761" 
d="M730 382h-95l-14 166l-49 -98h-74l-50 98l-13 -166h-95l29 339h86l79 -165l81 165h85zM331 644h-98v-262h-101v262h-98v77h297v-77z" />
    <glyph glyph-name="Eth" unicode="&#xd0;" horiz-adv-x="701" 
d="M669 369c0 -196 -98 -369 -374 -369h-245v308h-57v136h57v277h245c269 0 374 -154 374 -352zM485 369c0 141 -55 206 -190 206h-65v-131h135l-45 -136h-90v-163h65c132 0 190 73 190 224z" />
    <glyph glyph-name="onehalf" unicode="&#xbd;" horiz-adv-x="976" 
d="M326 305h-281v90h86v230l-86 -16v87l195 38v-339h86v-90zM788 737l-479 -752h-124l479 752h124zM931 302c0 -66 -36 -96 -106 -146c-46 -33 -66 -47 -78 -69h85v37h97v-124h-313c0 128 74 182 138 227c49 33 66 48 66 75c0 26 -12 40 -42 40c-42 0 -62 -22 -64 -67h-95
c2 90 52 153 159 153c100 0 153 -43 153 -126z" />
    <glyph glyph-name="plusminus" unicode="&#xb1;" 
d="M613 386h-215v-217h-135v217h-217v134h216v215h135v-215h216v-134zM604 0h-549v118h549v-118z" />
    <glyph glyph-name="Thorn" unicode="&#xde;" horiz-adv-x="639" 
d="M607 376c0 -153 -93 -247 -291 -247h-95c5 -7 9 -20 9 -28v-101h-180v722h180v-109h86c194 0 291 -84 291 -237zM424 376c0 70 -31 96 -108 96h-86v-202h86c75 0 108 31 108 106z" />
    <glyph glyph-name="onequarter" unicode="&#xbc;" horiz-adv-x="929" 
d="M326 305h-281v90h86v230l-86 -16v87l195 38v-339h86v-90zM788 737l-479 -752h-124l479 752h124zM884 95h-44v-95h-109v95h-195v80l210 244h94v-235h44v-89zM731 184v88l-75 -88h75z" />
    <glyph glyph-name="divide" unicode="&#xf7;" 
d="M415 527c0 -11 0 -11 -10 -11h-149c-10 0 -11 0 -11 11v142c0 12 1 12 11 12h149c10 0 10 0 10 -12v-142zM570 275h-481v146h481v-146zM415 27c0 -11 0 -11 -10 -11h-149c-10 0 -11 0 -11 11v142c0 12 1 12 11 12h149c10 0 10 0 10 -12v-142z" />
    <glyph glyph-name="brokenbar" unicode="&#xa6;" horiz-adv-x="329" 
d="M236 433h-143v317h143v-317zM236 0h-143v317h143v-317z" />
    <glyph glyph-name="degree" unicode="&#xb0;" horiz-adv-x="333" 
d="M303 600c0 -75 -62 -136 -137 -136s-135 61 -135 136s60 136 135 136s137 -61 137 -136zM221 600c0 30 -25 56 -55 56s-54 -26 -54 -56s24 -54 54 -54s55 24 55 54z" />
    <glyph glyph-name="thorn" unicode="&#xfe;" horiz-adv-x="626" 
d="M598 272c0 -176 -89 -287 -277 -287c-28 0 -64 5 -97 21c8 -18 11 -24 11 -34v-215h-181v1022h181v-257c34 21 72 31 110 31c148 0 253 -90 253 -281zM417 272c0 106 -29 160 -102 160c-23 0 -48 -8 -80 -27v-283c30 -14 53 -16 77 -16c74 0 105 52 105 166z" />
    <glyph glyph-name="threequarters" unicode="&#xbe;" horiz-adv-x="954" 
d="M813 737l-479 -752h-124l479 752h124zM909 95h-44v-95h-109v95h-195v80l210 244h94v-235h44v-89zM756 184v88l-75 -88h75zM380 434c0 -92 -76 -138 -165 -138c-67 0 -130 25 -170 105l82 36c26 -44 49 -56 87 -56s56 20 56 58c0 22 -15 45 -45 45h-61l-23 76h81
c28 0 40 17 40 49c0 24 -15 39 -46 39c-38 0 -63 -10 -86 -52l-82 36c42 82 105 101 172 101c111 0 152 -55 152 -121c0 -35 -19 -68 -48 -85c36 -18 56 -54 56 -93z" />
    <glyph glyph-name="registered" unicode="&#xae;" horiz-adv-x="896" 
d="M836 359c0 -208 -175 -374 -389 -374s-387 166 -387 374s173 378 387 378s389 -170 389 -378zM744 359c0 159 -133 290 -297 290s-295 -131 -295 -290s131 -286 295 -286s297 128 297 286zM615 154h-113l-79 141c-2 4 -2 9 -3 15h-39v-156h-98v418h155
c100 0 155 -52 155 -132c0 -51 -25 -97 -78 -118zM493 440c0 34 -17 53 -62 53h-50v-108h50c47 0 62 21 62 55z" />
    <glyph glyph-name="minus" unicode="&#x2212;" 
d="M570 288h-481v146h481v-146z" />
    <glyph glyph-name="eth" unicode="&#xf0;" horiz-adv-x="623" 
d="M594 291c0 -196 -80 -307 -283 -307c-207 0 -283 115 -283 284c0 170 76 281 277 281c8 0 35 -3 63 -11c-33 41 -66 70 -106 96l-71 -58l-62 52l59 47c-32 15 -61 28 -90 39l61 102c47 -16 91 -33 134 -54l74 60l60 -51l-61 -50c143 -91 228 -218 228 -430zM413 269
c0 112 -24 151 -102 151c-68 0 -101 -28 -101 -152c0 -123 33 -153 101 -153s102 31 102 154z" />
    <glyph glyph-name="multiply" unicode="&#xd7;" 
d="M577 231l-95 -95l-152 153l-152 -153l-96 95l153 153l-152 152l95 95l152 -152l152 152l95 -95l-152 -152z" />
    <glyph glyph-name="copyright" unicode="&#xa9;" horiz-adv-x="896" 
d="M836 359c0 -208 -175 -374 -389 -374s-387 166 -387 374s173 378 387 378s389 -170 389 -378zM744 359c0 159 -133 290 -297 290s-295 -131 -295 -290s131 -286 295 -286s297 128 297 286zM616 248c-33 -65 -83 -108 -169 -108c-158 0 -189 106 -189 218
c0 127 41 217 187 217c114 0 166 -68 171 -161h-101c-6 49 -27 68 -70 68c-62 0 -75 -36 -75 -124c0 -81 13 -126 77 -126c32 0 59 12 86 67z" />
    <glyph glyph-name="Aacute" unicode="&#xc1;" horiz-adv-x="735" 
d="M727 0h-189l-55 145h-239l-55 -145h-180l279 721h161zM428 290l-56 155c-3 8 -6 20 -8 31c-2 -11 -6 -23 -9 -31l-57 -155h130zM534 905l-181 -139c-7 -5 -11 -7 -19 1l-51 48c-8 8 -5 13 1 19l155 166z" />
    <glyph glyph-name="Acircumflex" unicode="&#xc2;" horiz-adv-x="735" 
d="M727 0h-189l-55 145h-239l-55 -145h-180l279 721h161zM428 290l-56 155c-3 8 -6 20 -8 31c-2 -11 -6 -23 -9 -31l-57 -155h130zM539 821l-62 -62l-110 92l-109 -92l-62 62l162 166c4 4 8 5 11 5s6 -1 10 -5z" />
    <glyph glyph-name="Adieresis" unicode="&#xc4;" horiz-adv-x="735" 
d="M727 0h-189l-55 145h-239l-55 -145h-180l279 721h161zM428 290l-56 155c-3 8 -6 20 -8 31c-2 -11 -6 -23 -9 -31l-57 -155h130zM569 787c0 -6 -1 -8 -7 -8h-132c-7 0 -8 1 -8 8v138c0 7 2 9 8 9h132c6 0 7 -2 7 -9v-138zM313 787c0 -6 -1 -8 -7 -8h-132c-7 0 -8 1 -8 8
v138c0 7 2 9 8 9h132c6 0 7 -2 7 -9v-138z" />
    <glyph glyph-name="Agrave" unicode="&#xc0;" horiz-adv-x="735" 
d="M727 0h-189l-55 145h-239l-55 -145h-180l279 721h161zM428 290l-56 155c-3 8 -6 20 -8 31c-2 -11 -6 -23 -9 -31l-57 -155h130zM193 907l181 -139c7 -5 11 -7 19 1l51 48c8 8 5 13 -1 19l-155 166z" />
    <glyph glyph-name="Aring" unicode="&#xc5;" horiz-adv-x="735" 
d="M727 0h-189l-55 145h-239l-55 -145h-180l279 721h161zM428 290l-56 155c-3 8 -6 20 -8 31c-2 -11 -6 -23 -9 -31l-57 -155h130zM489 867c0 -67 -55 -122 -122 -122s-122 55 -122 122s55 122 122 122s122 -55 122 -122zM416 866c0 26 -23 49 -49 49s-47 -23 -47 -49
s21 -47 47 -47s49 21 49 47z" />
    <glyph glyph-name="Atilde" unicode="&#xc3;" horiz-adv-x="735" 
d="M727 0h-189l-55 145h-239l-55 -145h-180l279 721h161zM428 290l-56 155c-3 8 -6 20 -8 31c-2 -11 -6 -23 -9 -31l-57 -155h130zM570 893l-82 -109c-12 -16 -30 -24 -49 -24c-13 0 -28 3 -39 11l-83 57c-4 2 -7 5 -11 5s-7 -2 -9 -4l-59 -71l-73 49l90 118
c12 16 29 25 48 25c13 0 28 -4 40 -12l80 -55c4 -3 7 -4 11 -4c5 0 9 3 13 7l48 58z" />
    <glyph glyph-name="Ccedilla" unicode="&#xc7;" horiz-adv-x="685" 
d="M487 -125c0 -59 -47 -92 -143 -92c-45 0 -96 10 -126 21l18 51c28 -5 56 -11 85 -11c33 0 52 12 52 36c0 18 -14 30 -36 30h-69l-29 45l36 38c-197 36 -239 203 -239 368c0 219 75 376 326 376c196 0 286 -107 297 -264h-166c-12 82 -49 114 -131 114
c-117 0 -142 -68 -142 -226c0 -146 21 -227 142 -227c76 0 122 31 163 120l138 -81c-46 -107 -126 -188 -301 -188h-3l-22 -26h29c91 0 121 -25 121 -84z" />
    <glyph glyph-name="Eacute" unicode="&#xc9;" horiz-adv-x="613" 
d="M574 0h-524v721h524v-148h-344v-124h314l-46 -149h-273c3 -6 5 -11 5 -19v-133h344v-148zM488 907l-181 -139c-7 -5 -11 -7 -19 1l-51 48c-8 8 -5 13 1 19l155 166z" />
    <glyph glyph-name="Ecircumflex" unicode="&#xca;" horiz-adv-x="613" 
d="M574 0h-524v721h524v-148h-344v-124h314l-46 -149h-273c3 -6 5 -11 5 -19v-133h344v-148zM478 823l-62 -62l-110 92l-109 -92l-62 62l162 166c4 4 8 5 11 5s6 -1 10 -5z" />
    <glyph glyph-name="Edieresis" unicode="&#xcb;" horiz-adv-x="613" 
d="M574 0h-524v721h524v-148h-344v-124h314l-46 -149h-273c3 -6 5 -11 5 -19v-133h344v-148zM518 787c0 -6 -1 -8 -7 -8h-132c-7 0 -8 1 -8 8v138c0 7 2 9 8 9h132c6 0 7 -2 7 -9v-138zM262 787c0 -6 -1 -8 -7 -8h-132c-7 0 -8 1 -8 8v138c0 7 2 9 8 9h132c6 0 7 -2 7 -9
v-138z" />
    <glyph glyph-name="Egrave" unicode="&#xc8;" horiz-adv-x="613" 
d="M574 0h-524v721h524v-148h-344v-124h314l-46 -149h-273c3 -6 5 -11 5 -19v-133h344v-148zM144 906l181 -139c7 -5 11 -7 19 1l51 48c8 8 5 13 -1 19l-155 166z" />
    <glyph glyph-name="Iacute" unicode="&#xcd;" horiz-adv-x="280" 
d="M230 0h-180v721h180v-721zM304 906l-181 -139c-7 -5 -11 -7 -19 1l-51 48c-8 8 -5 13 1 19l155 166z" />
    <glyph glyph-name="Icircumflex" unicode="&#xce;" horiz-adv-x="280" 
d="M230 0h-180v721h180v-721zM312 823l-62 -62l-110 92l-109 -92l-62 62l162 166c4 4 8 5 11 5s6 -1 10 -5z" />
    <glyph glyph-name="Idieresis" unicode="&#xcf;" horiz-adv-x="280" 
d="M230 0h-180v721h180v-721zM342 788c0 -6 -1 -8 -7 -8h-132c-7 0 -8 1 -8 8v138c0 7 2 9 8 9h132c6 0 7 -2 7 -9v-138zM86 788c0 -6 -1 -8 -7 -8h-132c-7 0 -8 1 -8 8v138c0 7 2 9 8 9h132c6 0 7 -2 7 -9v-138z" />
    <glyph glyph-name="Igrave" unicode="&#xcc;" horiz-adv-x="280" 
d="M230 0h-180v721h180v-721zM-15 905l181 -139c7 -5 11 -7 19 1l51 48c8 8 5 13 -1 19l-155 166z" />
    <glyph glyph-name="Ntilde" unicode="&#xd1;" horiz-adv-x="743" 
d="M693 0h-156l-318 420c4 -13 8 -27 8 -41v-379h-177v721h154l320 -420c-5 16 -8 29 -8 47v373h177v-721zM574 892l-82 -109c-12 -16 -30 -24 -49 -24c-13 0 -28 3 -39 11l-83 57c-4 2 -7 5 -11 5s-7 -2 -9 -4l-59 -71l-73 49l90 118c12 16 29 25 48 25c13 0 28 -4 40 -12
l80 -55c4 -3 7 -4 11 -4c5 0 9 3 13 7l48 58z" />
    <glyph glyph-name="Oacute" unicode="&#xd3;" horiz-adv-x="734" 
d="M697 369c0 -204 -60 -384 -331 -384s-330 181 -330 384c0 184 60 368 330 368s331 -184 331 -368zM513 369c0 158 -37 218 -147 218s-145 -59 -145 -218c0 -178 36 -235 145 -235s147 58 147 235zM537 905l-181 -139c-7 -5 -11 -7 -19 1l-51 48c-8 8 -5 13 1 19l155 166z
" />
    <glyph glyph-name="Ocircumflex" unicode="&#xd4;" horiz-adv-x="734" 
d="M697 369c0 -204 -60 -384 -331 -384s-330 181 -330 384c0 184 60 368 330 368s331 -184 331 -368zM513 369c0 158 -37 218 -147 218s-145 -59 -145 -218c0 -178 36 -235 145 -235s147 58 147 235zM538 822l-62 -62l-110 92l-109 -92l-62 62l162 166c4 4 8 5 11 5
s6 -1 10 -5z" />
    <glyph glyph-name="Odieresis" unicode="&#xd6;" horiz-adv-x="734" 
d="M697 369c0 -204 -60 -384 -331 -384s-330 181 -330 384c0 184 60 368 330 368s331 -184 331 -368zM513 369c0 158 -37 218 -147 218s-145 -59 -145 -218c0 -178 36 -235 145 -235s147 58 147 235zM568 790c0 -6 -1 -8 -7 -8h-132c-7 0 -8 1 -8 8v138c0 7 2 9 8 9h132
c6 0 7 -2 7 -9v-138zM312 790c0 -6 -1 -8 -7 -8h-132c-7 0 -8 1 -8 8v138c0 7 2 9 8 9h132c6 0 7 -2 7 -9v-138z" />
    <glyph glyph-name="Ograve" unicode="&#xd2;" horiz-adv-x="734" 
d="M697 369c0 -204 -60 -384 -331 -384s-330 181 -330 384c0 184 60 368 330 368s331 -184 331 -368zM513 369c0 158 -37 218 -147 218s-145 -59 -145 -218c0 -178 36 -235 145 -235s147 58 147 235zM209 906l181 -139c7 -5 11 -7 19 1l51 48c8 8 5 13 -1 19l-155 166z" />
    <glyph glyph-name="Otilde" unicode="&#xd5;" horiz-adv-x="734" 
d="M697 369c0 -204 -60 -384 -331 -384s-330 181 -330 384c0 184 60 368 330 368s331 -184 331 -368zM513 369c0 158 -37 218 -147 218s-145 -59 -145 -218c0 -178 36 -235 145 -235s147 58 147 235zM569 896l-82 -109c-12 -16 -30 -24 -49 -24c-13 0 -28 3 -39 11l-83 57
c-4 2 -7 5 -11 5s-7 -2 -9 -4l-59 -71l-73 49l90 118c12 16 29 25 48 25c13 0 28 -4 40 -12l80 -55c4 -3 7 -4 11 -4c5 0 9 3 13 7l48 58z" />
    <glyph glyph-name="Scaron" unicode="&#x160;" horiz-adv-x="651" 
d="M623 221c0 -152 -110 -236 -297 -236c-150 0 -244 63 -299 172l142 69c35 -61 77 -94 157 -94c93 0 119 33 119 83c0 40 -15 61 -67 70c-153 25 -332 25 -332 237c0 140 121 215 283 215c139 0 224 -46 283 -143l-143 -70c-30 47 -69 69 -140 69c-76 0 -106 -26 -106 -64
c0 -37 15 -52 50 -58c161 -26 350 -27 350 -250zM503 924l-157 -155c-8 -7 -14 -10 -21 -10s-14 3 -21 10l-156 155l65 62l113 -94l112 94z" />
    <glyph glyph-name="Uacute" unicode="&#xda;" horiz-adv-x="737" 
d="M689 304c0 -223 -136 -319 -322 -319s-319 96 -319 319v417h180v-417c0 -128 50 -170 139 -170c90 0 140 42 140 170v417h182v-417zM534 905l-181 -139c-7 -5 -11 -7 -19 1l-51 48c-8 8 -5 13 1 19l155 166z" />
    <glyph glyph-name="Ucircumflex" unicode="&#xdb;" horiz-adv-x="737" 
d="M689 304c0 -223 -136 -319 -322 -319s-319 96 -319 319v417h180v-417c0 -128 50 -170 139 -170c90 0 140 42 140 170v417h182v-417zM540 822l-62 -62l-110 92l-109 -92l-62 62l162 166c4 4 8 5 11 5s6 -1 10 -5z" />
    <glyph glyph-name="Udieresis" unicode="&#xdc;" horiz-adv-x="737" 
d="M689 304c0 -223 -136 -319 -322 -319s-319 96 -319 319v417h180v-417c0 -128 50 -170 139 -170c90 0 140 42 140 170v417h182v-417zM570 789c0 -6 -1 -8 -7 -8h-132c-7 0 -8 1 -8 8v138c0 7 2 9 8 9h132c6 0 7 -2 7 -9v-138zM314 789c0 -6 -1 -8 -7 -8h-132
c-7 0 -8 1 -8 8v138c0 7 2 9 8 9h132c6 0 7 -2 7 -9v-138z" />
    <glyph glyph-name="Ugrave" unicode="&#xd9;" horiz-adv-x="737" 
d="M689 304c0 -223 -136 -319 -322 -319s-319 96 -319 319v417h180v-417c0 -128 50 -170 139 -170c90 0 140 42 140 170v417h182v-417zM199 906l181 -139c7 -5 11 -7 19 1l51 48c8 8 5 13 -1 19l-155 166z" />
    <glyph glyph-name="Yacute" unicode="&#xdd;" horiz-adv-x="708" 
d="M704 721l-258 -432v-289h-182v289l-259 432h206l132 -248c6 -11 7 -23 10 -37c3 13 4 25 10 36l135 249h206zM526 905l-181 -139c-7 -5 -11 -7 -19 1l-51 48c-8 8 -5 13 1 19l155 166z" />
    <glyph glyph-name="Ydieresis" unicode="&#x178;" horiz-adv-x="708" 
d="M704 721l-258 -432v-289h-182v289l-259 432h206l132 -248c6 -11 7 -23 10 -37c3 13 4 25 10 36l135 249h206zM555 788c0 -6 -1 -8 -7 -8h-132c-7 0 -8 1 -8 8v138c0 7 2 9 8 9h132c6 0 7 -2 7 -9v-138zM299 788c0 -6 -1 -8 -7 -8h-132c-7 0 -8 1 -8 8v138c0 7 2 9 8 9
h132c6 0 7 -2 7 -9v-138z" />
    <glyph glyph-name="Zcaron" unicode="&#x17d;" horiz-adv-x="622" 
d="M589 593l-299 -426c-5 -8 -12 -15 -20 -20h311v-147h-539v127l301 427c5 7 12 14 20 20h-287l-46 147h559v-128zM498 926l-157 -155c-8 -7 -14 -10 -21 -10s-14 3 -21 10l-156 155l65 62l113 -94l112 94z" />
    <glyph glyph-name="aacute" unicode="&#xe1;" horiz-adv-x="594" 
d="M543 0h-129l-17 41c-44 -37 -90 -56 -151 -56c-144 0 -218 69 -218 186c0 134 105 168 214 168c40 0 81 -4 120 -11v48c0 32 -19 52 -75 52c-34 0 -77 -7 -106 -42l-114 67c51 68 123 99 231 99c161 0 245 -68 245 -176v-376zM362 132v105c-20 3 -44 5 -67 5
c-43 0 -87 -11 -87 -65c0 -50 28 -69 68 -69c29 0 58 8 86 24zM488 737l-181 -139c-7 -5 -11 -7 -19 1l-51 48c-8 8 -5 13 1 19l155 166z" />
    <glyph glyph-name="acircumflex" unicode="&#xe2;" horiz-adv-x="594" 
d="M543 0h-129l-17 41c-44 -37 -90 -56 -151 -56c-144 0 -218 69 -218 186c0 134 105 168 214 168c40 0 81 -4 120 -11v48c0 32 -19 52 -75 52c-34 0 -77 -7 -106 -42l-114 67c51 68 123 99 231 99c161 0 245 -68 245 -176v-376zM362 132v105c-20 3 -44 5 -67 5
c-43 0 -87 -11 -87 -65c0 -50 28 -69 68 -69c29 0 58 8 86 24zM468 655l-62 -62l-110 92l-109 -92l-62 62l162 166c4 4 8 5 11 5s6 -1 10 -5z" />
    <glyph glyph-name="adieresis" unicode="&#xe4;" horiz-adv-x="594" 
d="M543 0h-129l-17 41c-44 -37 -90 -56 -151 -56c-144 0 -218 69 -218 186c0 134 105 168 214 168c40 0 81 -4 120 -11v48c0 32 -19 52 -75 52c-34 0 -77 -7 -106 -42l-114 67c51 68 123 99 231 99c161 0 245 -68 245 -176v-376zM362 132v105c-20 3 -44 5 -67 5
c-43 0 -87 -11 -87 -65c0 -50 28 -69 68 -69c29 0 58 8 86 24zM498 641c0 -6 -1 -8 -7 -8h-132c-7 0 -8 1 -8 8v138c0 7 2 9 8 9h132c6 0 7 -2 7 -9v-138zM242 641c0 -6 -1 -8 -7 -8h-132c-7 0 -8 1 -8 8v138c0 7 2 9 8 9h132c6 0 7 -2 7 -9v-138z" />
    <glyph glyph-name="agrave" unicode="&#xe0;" horiz-adv-x="594" 
d="M543 0h-129l-17 41c-44 -37 -90 -56 -151 -56c-144 0 -218 69 -218 186c0 134 105 168 214 168c40 0 81 -4 120 -11v48c0 32 -19 52 -75 52c-34 0 -77 -7 -106 -42l-114 67c51 68 123 99 231 99c161 0 245 -68 245 -176v-376zM362 132v105c-20 3 -44 5 -67 5
c-43 0 -87 -11 -87 -65c0 -50 28 -69 68 -69c29 0 58 8 86 24zM145 737l181 -139c7 -5 11 -7 19 1l51 48c8 8 5 13 -1 19l-155 166z" />
    <glyph glyph-name="aring" unicode="&#xe5;" horiz-adv-x="594" 
d="M543 0h-129l-17 41c-44 -37 -90 -56 -151 -56c-144 0 -218 69 -218 186c0 134 105 168 214 168c40 0 81 -4 120 -11v48c0 32 -19 52 -75 52c-34 0 -77 -7 -106 -42l-114 67c51 68 123 99 231 99c161 0 245 -68 245 -176v-376zM362 132v105c-20 3 -44 5 -67 5
c-43 0 -87 -11 -87 -65c0 -50 28 -69 68 -69c29 0 58 8 86 24zM419 715c0 -67 -55 -122 -122 -122s-122 55 -122 122s55 122 122 122s122 -55 122 -122zM346 714c0 26 -23 49 -49 49s-47 -23 -47 -49s21 -47 47 -47s49 21 49 47z" />
    <glyph glyph-name="atilde" unicode="&#xe3;" horiz-adv-x="594" 
d="M543 0h-129l-17 41c-44 -37 -90 -56 -151 -56c-144 0 -218 69 -218 186c0 134 105 168 214 168c40 0 81 -4 120 -11v48c0 32 -19 52 -75 52c-34 0 -77 -7 -106 -42l-114 67c51 68 123 99 231 99c161 0 245 -68 245 -176v-376zM362 132v105c-20 3 -44 5 -67 5
c-43 0 -87 -11 -87 -65c0 -50 28 -69 68 -69c29 0 58 8 86 24zM499 735l-82 -109c-12 -16 -30 -24 -49 -24c-13 0 -28 3 -39 11l-83 57c-4 2 -7 5 -11 5s-7 -2 -9 -4l-59 -71l-73 49l90 118c12 16 29 25 48 25c13 0 28 -4 40 -12l80 -55c4 -3 7 -4 11 -4c5 0 9 3 13 7l48 58
z" />
    <glyph glyph-name="ccedilla" unicode="&#xe7;" horiz-adv-x="573" 
d="M558 124c-40 -89 -121 -139 -241 -139h-14l-22 -26h29c91 0 121 -25 121 -84s-47 -92 -143 -92c-45 0 -96 10 -126 21l18 51c28 -5 56 -11 85 -11c33 0 52 12 52 36c0 18 -14 30 -36 30h-69l-29 45l38 40c-139 30 -193 131 -193 274c0 169 76 284 289 284
c120 0 201 -52 241 -141l-129 -57c-30 48 -53 69 -112 69c-72 0 -107 -34 -107 -155s32 -155 107 -155c59 0 82 20 112 68z" />
    <glyph glyph-name="eacute" unicode="&#xe9;" horiz-adv-x="607" 
d="M579 225h-372c0 -73 33 -113 108 -113c51 0 88 20 112 58l139 -46c-47 -88 -123 -139 -251 -139c-191 0 -287 95 -287 284c0 185 100 283 283 283c200 0 268 -128 268 -297v-30zM405 331c-4 64 -40 97 -93 97c-55 0 -93 -26 -103 -97h196zM466 737l-181 -139
c-7 -5 -11 -7 -19 1l-51 48c-8 8 -5 13 1 19l155 166z" />
    <glyph glyph-name="ecircumflex" unicode="&#xea;" horiz-adv-x="607" 
d="M579 225h-372c0 -73 33 -113 108 -113c51 0 88 20 112 58l139 -46c-47 -88 -123 -139 -251 -139c-191 0 -287 95 -287 284c0 185 100 283 283 283c200 0 268 -128 268 -297v-30zM405 331c-4 64 -40 97 -93 97c-55 0 -93 -26 -103 -97h196zM475 655l-62 -62l-110 92
l-109 -92l-62 62l162 166c4 4 8 5 11 5s6 -1 10 -5z" />
    <glyph glyph-name="edieresis" unicode="&#xeb;" horiz-adv-x="607" 
d="M579 225h-372c0 -73 33 -113 108 -113c51 0 88 20 112 58l139 -46c-47 -88 -123 -139 -251 -139c-191 0 -287 95 -287 284c0 185 100 283 283 283c200 0 268 -128 268 -297v-30zM405 331c-4 64 -40 97 -93 97c-55 0 -93 -26 -103 -97h196zM515 641c0 -6 -1 -8 -7 -8h-132
c-7 0 -8 1 -8 8v138c0 7 2 9 8 9h132c6 0 7 -2 7 -9v-138zM259 641c0 -6 -1 -8 -7 -8h-132c-7 0 -8 1 -8 8v138c0 7 2 9 8 9h132c6 0 7 -2 7 -9v-138z" />
    <glyph glyph-name="egrave" unicode="&#xe8;" horiz-adv-x="607" 
d="M579 225h-372c0 -73 33 -113 108 -113c51 0 88 20 112 58l139 -46c-47 -88 -123 -139 -251 -139c-191 0 -287 95 -287 284c0 185 100 283 283 283c200 0 268 -128 268 -297v-30zM405 331c-4 64 -40 97 -93 97c-55 0 -93 -26 -103 -97h196zM134 737l181 -139
c7 -5 11 -7 19 1l51 48c8 8 5 13 -1 19l-155 166z" />
    <glyph glyph-name="iacute" unicode="&#xed;" horiz-adv-x="283" 
d="M232 0h-181v537h181v-537zM281 737l-181 -139c-7 -5 -11 -7 -19 1l-51 48c-8 8 -5 13 1 19l155 166z" />
    <glyph glyph-name="icircumflex" unicode="&#xee;" horiz-adv-x="283" 
d="M232 0h-181v537h181v-537zM313 655l-62 -62l-110 92l-109 -92l-62 62l162 166c4 4 8 5 11 5s6 -1 10 -5z" />
    <glyph glyph-name="idieresis" unicode="&#xef;" horiz-adv-x="283" 
d="M232 0h-181v537h181v-537zM343 641c0 -6 -1 -8 -7 -8h-132c-7 0 -8 1 -8 8v138c0 7 2 9 8 9h132c6 0 7 -2 7 -9v-138zM87 641c0 -6 -1 -8 -7 -8h-132c-7 0 -8 1 -8 8v138c0 7 2 9 8 9h132c6 0 7 -2 7 -9v-138z" />
    <glyph glyph-name="igrave" unicode="&#xec;" horiz-adv-x="283" 
d="M232 0h-181v537h181v-537zM-17 737l181 -139c7 -5 11 -7 19 1l51 48c8 8 5 13 -1 19l-155 166z" />
    <glyph glyph-name="ntilde" unicode="&#xf1;" horiz-adv-x="616" 
d="M570 0h-181v333c0 62 -17 93 -63 93c-32 0 -64 -16 -94 -37v-389h-181v537h150l18 -49c50 50 94 65 143 65c146 0 208 -93 208 -220v-333zM510 735l-82 -109c-12 -16 -30 -24 -49 -24c-13 0 -28 3 -39 11l-83 57c-4 2 -7 5 -11 5s-7 -2 -9 -4l-59 -71l-73 49l90 118
c12 16 29 25 48 25c13 0 28 -4 40 -12l80 -55c4 -3 7 -4 11 -4c5 0 9 3 13 7l48 58z" />
    <glyph glyph-name="oacute" unicode="&#xf3;" horiz-adv-x="623" 
d="M595 270c0 -167 -77 -285 -284 -285s-283 117 -283 284s76 284 283 284s284 -116 284 -283zM412 270c0 122 -33 151 -101 151s-101 -30 -101 -152s33 -153 101 -153s101 32 101 154zM477 737l-181 -139c-7 -5 -11 -7 -19 1l-51 48c-8 8 -5 13 1 19l155 166z" />
    <glyph glyph-name="ocircumflex" unicode="&#xf4;" horiz-adv-x="623" 
d="M595 270c0 -167 -77 -285 -284 -285s-283 117 -283 284s76 284 283 284s284 -116 284 -283zM412 270c0 122 -33 151 -101 151s-101 -30 -101 -152s33 -153 101 -153s101 32 101 154zM483 655l-62 -62l-110 92l-109 -92l-62 62l162 166c4 4 8 5 11 5s6 -1 10 -5z" />
    <glyph glyph-name="odieresis" unicode="&#xf6;" horiz-adv-x="623" 
d="M595 270c0 -167 -77 -285 -284 -285s-283 117 -283 284s76 284 283 284s284 -116 284 -283zM412 270c0 122 -33 151 -101 151s-101 -30 -101 -152s33 -153 101 -153s101 32 101 154zM513 641c0 -6 -1 -8 -7 -8h-132c-7 0 -8 1 -8 8v138c0 7 2 9 8 9h132c6 0 7 -2 7 -9
v-138zM257 641c0 -6 -1 -8 -7 -8h-132c-7 0 -8 1 -8 8v138c0 7 2 9 8 9h132c6 0 7 -2 7 -9v-138z" />
    <glyph glyph-name="ograve" unicode="&#xf2;" horiz-adv-x="623" 
d="M595 270c0 -167 -77 -285 -284 -285s-283 117 -283 284s76 284 283 284s284 -116 284 -283zM412 270c0 122 -33 151 -101 151s-101 -30 -101 -152s33 -153 101 -153s101 32 101 154zM143 737l181 -139c7 -5 11 -7 19 1l51 48c8 8 5 13 -1 19l-155 166z" />
    <glyph glyph-name="otilde" unicode="&#xf5;" horiz-adv-x="623" 
d="M595 270c0 -167 -77 -285 -284 -285s-283 117 -283 284s76 284 283 284s284 -116 284 -283zM412 270c0 122 -33 151 -101 151s-101 -30 -101 -152s33 -153 101 -153s101 32 101 154zM514 735l-82 -109c-12 -16 -30 -24 -49 -24c-13 0 -28 3 -39 11l-83 57
c-4 2 -7 5 -11 5s-7 -2 -9 -4l-59 -71l-73 49l90 118c12 16 29 25 48 25c13 0 28 -4 40 -12l80 -55c4 -3 7 -4 11 -4c5 0 9 3 13 7l48 58z" />
    <glyph glyph-name="scaron" unicode="&#x161;" horiz-adv-x="549" 
d="M524 173c0 -127 -104 -188 -250 -188c-136 0 -212 53 -250 129l127 48c28 -43 66 -58 123 -58c38 0 78 8 78 49c0 21 -6 38 -40 44l-128 21c-82 13 -149 63 -149 170c0 120 111 165 242 165c113 0 187 -40 234 -107l-118 -62c-26 30 -63 49 -116 49c-36 0 -70 -8 -70 -42
c0 -19 11 -33 33 -37l113 -19c104 -17 171 -58 171 -162zM464 758l-157 -155c-8 -7 -14 -10 -21 -10s-14 3 -21 10l-156 155l65 62l113 -94l112 94z" />
    <glyph glyph-name="uacute" unicode="&#xfa;" horiz-adv-x="616" 
d="M565 0h-149l-19 48c-50 -50 -94 -63 -143 -63c-146 0 -208 92 -208 219v333h181v-333c0 -61 16 -93 62 -93c32 0 65 15 95 36v390h181v-537zM488 737l-181 -139c-7 -5 -11 -7 -19 1l-51 48c-8 8 -5 13 1 19l155 166z" />
    <glyph glyph-name="ucircumflex" unicode="&#xfb;" horiz-adv-x="616" 
d="M565 0h-149l-19 48c-50 -50 -94 -63 -143 -63c-146 0 -208 92 -208 219v333h181v-333c0 -61 16 -93 62 -93c32 0 65 15 95 36v390h181v-537zM479 655l-62 -62l-110 92l-109 -92l-62 62l162 166c4 4 8 5 11 5s6 -1 10 -5z" />
    <glyph glyph-name="udieresis" unicode="&#xfc;" horiz-adv-x="616" 
d="M565 0h-149l-19 48c-50 -50 -94 -63 -143 -63c-146 0 -208 92 -208 219v333h181v-333c0 -61 16 -93 62 -93c32 0 65 15 95 36v390h181v-537zM509 641c0 -6 -1 -8 -7 -8h-132c-7 0 -8 1 -8 8v138c0 7 2 9 8 9h132c6 0 7 -2 7 -9v-138zM253 641c0 -6 -1 -8 -7 -8h-132
c-7 0 -8 1 -8 8v138c0 7 2 9 8 9h132c6 0 7 -2 7 -9v-138z" />
    <glyph glyph-name="ugrave" unicode="&#xf9;" horiz-adv-x="616" 
d="M565 0h-149l-19 48c-50 -50 -94 -63 -143 -63c-146 0 -208 92 -208 219v333h181v-333c0 -61 16 -93 62 -93c32 0 65 15 95 36v390h181v-537zM144 737l181 -139c7 -5 11 -7 19 1l51 48c8 8 5 13 -1 19l-155 166z" />
    <glyph glyph-name="yacute" unicode="&#xfd;" horiz-adv-x="629" 
d="M615 537l-259 -659c-32 -81 -86 -120 -212 -120h-96v133h96c27 0 37 14 49 44l31 77l-211 525h188l102 -314c5 -15 10 -30 11 -51c2 21 8 37 12 51l101 314h188zM507 737l-181 -139c-7 -5 -11 -7 -19 1l-51 48c-8 8 -5 13 1 19l155 166z" />
    <glyph glyph-name="ydieresis" unicode="&#xff;" horiz-adv-x="629" 
d="M615 537l-259 -659c-32 -81 -86 -120 -212 -120h-96v133h96c27 0 37 14 49 44l31 77l-211 525h188l102 -314c5 -15 10 -30 11 -51c2 21 8 37 12 51l101 314h188zM516 641c0 -6 -1 -8 -7 -8h-132c-7 0 -8 1 -8 8v138c0 7 2 9 8 9h132c6 0 7 -2 7 -9v-138zM260 641
c0 -6 -1 -8 -7 -8h-132c-7 0 -8 1 -8 8v138c0 7 2 9 8 9h132c6 0 7 -2 7 -9v-138z" />
    <glyph glyph-name="zcaron" unicode="&#x17e;" horiz-adv-x="548" 
d="M511 0h-469v126l211 243c9 10 14 16 45 27h-225l-42 141h478v-126l-208 -241c-9 -11 -12 -18 -46 -31h256v-139zM451 758l-157 -155c-8 -7 -14 -10 -21 -10s-14 3 -21 10l-156 155l65 62l113 -94l112 94z" />
    <glyph glyph-name="oneeighth" unicode="&#x215b;" horiz-adv-x="986" 
d="M326 305h-281v90h86v230l-86 -16v87l195 38v-339h86v-90zM788 737l-479 -752h-124l479 752h124zM941 132c0 -87 -47 -141 -163 -141c-115 0 -162 54 -162 141c0 45 25 72 48 88c-21 16 -41 45 -41 88c0 80 55 120 156 120s155 -40 155 -120c0 -43 -20 -72 -41 -88
c24 -16 48 -41 48 -88zM831 132c0 27 -11 47 -40 47h-27c-29 0 -38 -21 -38 -47c0 -41 16 -56 52 -56c37 0 53 15 53 56zM827 301c0 29 -16 42 -49 42c-32 0 -48 -13 -48 -42s10 -41 32 -41h31c21 0 34 12 34 41z" />
    <glyph glyph-name="threeeighths" unicode="&#x215c;" horiz-adv-x="1001" 
d="M803 737l-479 -752h-124l479 752h124zM956 132c0 -87 -47 -141 -163 -141c-115 0 -162 54 -162 141c0 45 25 72 48 88c-21 16 -41 45 -41 88c0 80 55 120 156 120s155 -40 155 -120c0 -43 -20 -72 -41 -88c24 -16 48 -41 48 -88zM846 132c0 27 -11 47 -40 47h-27
c-29 0 -38 -21 -38 -47c0 -41 16 -56 52 -56c37 0 53 15 53 56zM842 301c0 29 -16 42 -49 42c-32 0 -48 -13 -48 -42s10 -41 32 -41h31c21 0 34 12 34 41zM380 434c0 -92 -76 -138 -165 -138c-67 0 -130 25 -170 105l82 36c26 -44 49 -56 87 -56s56 20 56 58
c0 22 -15 45 -45 45h-61l-23 76h81c28 0 40 17 40 49c0 24 -15 39 -46 39c-38 0 -63 -10 -86 -52l-82 36c42 82 105 101 172 101c111 0 152 -55 152 -121c0 -35 -19 -68 -48 -85c36 -18 56 -54 56 -93z" />
    <glyph glyph-name="fiveeighths" unicode="&#x215d;" horiz-adv-x="999" 
d="M801 737l-479 -752h-124l479 752h124zM954 132c0 -87 -47 -141 -163 -141c-115 0 -162 54 -162 141c0 45 25 72 48 88c-21 16 -41 45 -41 88c0 80 55 120 156 120s155 -40 155 -120c0 -43 -20 -72 -41 -88c24 -16 48 -41 48 -88zM844 132c0 27 -11 47 -40 47h-27
c-29 0 -38 -21 -38 -47c0 -41 16 -56 52 -56c37 0 53 15 53 56zM840 301c0 29 -16 42 -49 42c-32 0 -48 -13 -48 -42s10 -41 32 -41h31c21 0 34 12 34 41zM380 447c0 -88 -53 -151 -164 -151c-67 0 -131 25 -171 105l81 36c27 -44 50 -56 89 -56c41 0 54 29 54 63
c0 38 -17 58 -63 58c-30 0 -74 -7 -98 -16l-36 34l24 204h283l-25 -90h-171l-7 -51c14 2 32 3 43 3c98 0 161 -39 161 -139z" />
    <glyph glyph-name="seveneighths" unicode="&#x215e;" horiz-adv-x="903" 
d="M705 737l-479 -752h-124l479 752h124zM858 132c0 -87 -47 -141 -163 -141c-115 0 -162 54 -162 141c0 45 25 72 48 88c-21 16 -41 45 -41 88c0 80 55 120 156 120s155 -40 155 -120c0 -43 -20 -72 -41 -88c24 -16 48 -41 48 -88zM748 132c0 27 -11 47 -40 47h-27
c-29 0 -38 -21 -38 -47c0 -41 16 -56 52 -56c37 0 53 15 53 56zM744 301c0 29 -16 42 -49 42c-32 0 -48 -13 -48 -42s10 -41 32 -41h31c21 0 34 12 34 41zM366 649l-196 -344h-124l190 330h-94v-42h-97v131h321v-75z" />
    <glyph glyph-name="onethird" unicode="&#x2153;" horiz-adv-x="987" 
d="M326 305h-281v90h86v230l-86 -16v87l195 38v-339h86v-90zM788 737l-479 -752h-124l479 752h124zM942 129c0 -92 -76 -138 -165 -138c-67 0 -130 25 -170 105l82 36c26 -44 49 -56 87 -56s56 20 56 58c0 22 -15 45 -45 45h-61l-23 76h81c28 0 40 17 40 49
c0 24 -15 39 -46 39c-38 0 -63 -10 -86 -52l-82 36c42 82 105 101 172 101c111 0 152 -55 152 -121c0 -35 -19 -68 -48 -85c36 -18 56 -54 56 -93z" />
    <glyph glyph-name="twothirds" unicode="&#x2154;" horiz-adv-x="1009" 
d="M810 737l-479 -752h-124l479 752h124zM964 129c0 -92 -76 -138 -165 -138c-67 0 -130 25 -170 105l82 36c26 -44 49 -56 87 -56s56 20 56 58c0 22 -15 45 -45 45h-61l-23 76h81c28 0 40 17 40 49c0 24 -15 39 -46 39c-38 0 -63 -10 -86 -52l-82 36c42 82 105 101 172 101
c111 0 152 -55 152 -121c0 -35 -19 -68 -48 -85c36 -18 56 -54 56 -93zM360 607c0 -66 -36 -96 -106 -146c-46 -33 -66 -47 -78 -69h85v37h97v-124h-313c0 128 74 182 138 227c49 33 66 48 66 75c0 26 -12 40 -42 40c-42 0 -62 -22 -64 -67h-95c2 90 52 153 159 153
c100 0 153 -43 153 -126z" />
    <glyph glyph-name="zero.oldstyle" unicode="&#xf730;" 
d="M602 301c0 -135 -36 -316 -272 -316s-272 181 -272 316s36 316 272 316s272 -181 272 -316zM425 301c0 131 -22 182 -95 182s-95 -51 -95 -182s22 -182 95 -182s95 51 95 182z" />
    <glyph glyph-name="one.oldstyle" unicode="&#xf731;" horiz-adv-x="578" 
d="M528 0h-478v140h151v286c0 7 4 15 8 23l-159 -31v137l327 63v-478h151v-140z" />
    <glyph glyph-name="two.oldstyle" unicode="&#xf732;" 
d="M589 0h-534c0 208 115 303 250 353c108 40 103 57 103 82c0 23 -8 51 -75 51c-68 0 -119 -11 -123 -91h-153c3 148 109 222 276 222c202 0 254 -96 254 -180c0 -100 -23 -145 -177 -203c-103 -39 -124 -61 -142 -98h168v49h153v-185z" />
    <glyph glyph-name="three.oldstyle" unicode="&#xf733;" 
d="M609 100c0 -157 -131 -235 -282 -235c-117 0 -224 39 -289 169l130 59c45 -76 86 -96 158 -96s107 37 107 102c0 52 -30 93 -89 93h-96l-39 126h131c57 0 79 42 79 89c0 49 -29 79 -90 79c-70 0 -117 -19 -155 -89l-129 57c68 132 176 163 290 163
c190 0 260 -93 260 -204c0 -69 -40 -127 -91 -152c66 -28 105 -90 105 -161z" />
    <glyph glyph-name="four.oldstyle" unicode="&#xf734;" 
d="M631 47h-76v-166h-175v166h-343v128l364 427h154v-414h76v-141zM390 372l-160 -184h150v149c0 10 2 19 10 35z" />
    <glyph glyph-name="five.oldstyle" unicode="&#xf735;" 
d="M605 123c0 -149 -88 -257 -280 -257c-117 0 -226 39 -291 169l130 59c45 -76 87 -96 159 -96c80 0 105 53 105 120c0 72 -32 111 -121 111c-54 0 -131 -12 -170 -27l-57 53l42 347h478l-39 -140h-302l-14 -110c27 5 65 8 86 8c166 0 274 -69 274 -237z" />
    <glyph glyph-name="six.oldstyle" unicode="&#xf736;" 
d="M601 255c0 -153 -72 -270 -274 -270c-203 0 -275 116 -275 270v114c0 168 22 368 288 368c95 0 192 -29 256 -114l-105 -91c-44 47 -81 70 -151 70c-74 0 -111 -45 -115 -134c31 16 73 26 108 26c179 0 268 -87 268 -239zM425 255c0 78 -26 113 -98 113
c-63 0 -102 -30 -102 -113c0 -104 36 -138 102 -138c70 0 98 37 98 138z" />
    <glyph glyph-name="seven.oldstyle" unicode="&#xf737;" 
d="M611 480l-339 -599h-202l322 558c6 10 15 18 27 25h-204v-76h-153v214h549v-122z" />
    <glyph glyph-name="eight.oldstyle" unicode="&#xf738;" 
d="M610 224c0 -148 -80 -239 -277 -239s-277 91 -277 239c0 85 48 128 91 156c-40 23 -80 75 -80 142c0 150 95 215 267 215s265 -65 265 -215c0 -67 -40 -119 -80 -142c43 -28 91 -71 91 -156zM427 522c0 59 -32 84 -94 84s-94 -25 -94 -84c0 -56 24 -80 58 -80h71
c34 0 59 24 59 80zM434 224c0 52 -22 92 -69 92h-64c-47 0 -70 -42 -70 -92c0 -80 30 -107 102 -107s101 27 101 107z" />
    <glyph glyph-name="nine.oldstyle" unicode="&#xf739;" 
d="M602 234c0 -168 -22 -369 -288 -369c-95 0 -190 31 -254 116l101 87c44 -47 83 -71 153 -71c74 0 112 47 116 136c-31 -16 -73 -24 -108 -24c-179 0 -269 86 -269 238c0 153 72 270 274 270c203 0 275 -116 275 -270v-113zM430 347c0 104 -37 138 -103 138
c-70 0 -97 -37 -97 -138c0 -78 25 -112 97 -112c63 0 103 29 103 112z" />
    <glyph glyph-name="uni2014.alt" unicode="&#xe024;" horiz-adv-x="607" 
d="M571 248h-535v144h535v-144z" />
    <glyph glyph-name="a.superior" unicode="&#xf6e9;" horiz-adv-x="356" 
d="M329 305h-86l-8 21c-25 -20 -53 -30 -87 -30c-88 0 -134 43 -134 115c0 83 64 104 131 104c23 0 46 -2 66 -5v23c0 16 -9 25 -39 25c-19 0 -42 -4 -60 -25l-77 44c33 44 78 64 144 64c97 0 150 -42 150 -108v-228zM211 391v55c-9 1 -24 2 -34 2c-24 0 -46 -5 -46 -34
c0 -25 14 -35 35 -35c15 0 31 5 45 12z" />
    <glyph glyph-name="b.superior" unicode="&#xf6ea;" horiz-adv-x="373" 
d="M359 471c0 -126 -63 -175 -174 -175c-47 0 -106 11 -157 35v444h116v-130c0 -4 -1 -10 -3 -15c18 8 38 11 53 11c106 0 165 -55 165 -170zM241 471c0 66 -17 89 -54 89c-13 0 -29 -5 -43 -10v-167c16 -4 30 -5 42 -5c42 0 55 28 55 93z" />
    <glyph glyph-name="d.superior" unicode="&#xf6eb;" horiz-adv-x="376" 
d="M346 305h-88l-7 19c-21 -17 -47 -28 -78 -28c-89 0 -159 46 -159 175c0 114 66 170 169 170c12 0 31 -2 49 -10c-2 6 -2 9 -2 14v130h116v-470zM230 391v160c-15 7 -28 9 -38 9c-42 0 -60 -25 -60 -89c0 -53 11 -93 55 -93c12 0 26 3 43 13z" />
    <glyph glyph-name="e.superior" unicode="&#xf6ec;" horiz-adv-x="364" 
d="M350 438h-220c2 -36 19 -57 59 -57c28 0 49 12 64 35l92 -30c-32 -56 -79 -90 -156 -90c-116 0 -175 58 -175 173c0 112 62 172 173 172c122 0 163 -78 163 -180v-23zM187 558c-29 0 -48 -11 -55 -47h104c-3 31 -22 47 -49 47z" />
    <glyph glyph-name="i.superior" unicode="&#xf6ed;" horiz-adv-x="170" 
d="M143 305h-116v327h116v-327zM135 671h-100c-8 0 -10 2 -10 11v82c0 9 2 11 10 11h100c8 0 10 -2 10 -11v-82c0 -9 -2 -11 -10 -11z" />
    <glyph glyph-name="l.superior" unicode="&#xf6ee;" horiz-adv-x="191" 
d="M183 300h-62c-61 0 -94 35 -94 99v376h116v-376c0 -7 2 -12 8 -12h32v-87z" />
    <glyph glyph-name="m.superior" unicode="&#xf6ef;" horiz-adv-x="550" 
d="M523 305h-116v205c0 35 -8 47 -26 47c-17 0 -33 -7 -48 -20c1 -9 2 -18 2 -27v-205h-116v205c0 35 -7 47 -25 47c-19 0 -31 -8 -48 -20v-232h-116v327h97l9 -24c26 23 57 34 85 34c38 0 66 -13 89 -41c33 31 62 41 98 41c79 0 115 -44 115 -132v-205z" />
    <glyph glyph-name="n.superior" unicode="&#x207f;" horiz-adv-x="370" 
d="M345 305h-118v202c0 34 -8 50 -31 50c-18 0 -36 -8 -51 -19v-233h-117v327h98l9 -22c29 27 52 32 82 32c90 0 128 -57 128 -135v-202z" />
    <glyph glyph-name="o.superior" unicode="&#xf6f0;" horiz-adv-x="374" 
d="M360 470c0 -102 -47 -174 -173 -174c-127 0 -173 71 -173 173s46 173 173 173c126 0 173 -71 173 -172zM241 470c0 68 -18 84 -54 84c-37 0 -55 -16 -55 -85c0 -68 18 -85 55 -85c36 0 54 18 54 86z" />
    <glyph glyph-name="r.superior" unicode="&#xf6f1;" horiz-adv-x="259" 
d="M248 638v-92c-9 1 -34 3 -44 3c-22 0 -42 -3 -60 -13v-231h-116v327h97l8 -22c26 28 51 32 77 32c12 0 26 -1 38 -4z" />
    <glyph glyph-name="s.superior" unicode="&#xf6f2;" horiz-adv-x="329" 
d="M317 412c0 -77 -63 -116 -153 -116c-82 0 -130 35 -155 84l85 31c16 -26 37 -35 70 -35c21 0 41 4 41 22c0 12 -3 20 -36 26l-43 7c-66 10 -108 42 -108 109c0 75 68 102 148 102c68 0 114 -25 146 -69l-78 -42c-17 18 -37 30 -68 30c-19 0 -37 -4 -37 -19
c0 -8 4 -16 29 -20l40 -7c74 -13 119 -38 119 -103z" />
    <glyph glyph-name="t.superior" unicode="&#xf6f3;" horiz-adv-x="296" 
d="M239 405l62 -63c-32 -30 -67 -46 -119 -46c-68 0 -125 30 -125 108v123c0 9 1 12 5 19h-54v86h49v101l117 31v-132h115l-28 -86h-87v-142c0 -13 8 -18 20 -18c17 0 31 7 45 19z" />
    <glyph glyph-name="one.superior" unicode="&#xb9;" horiz-adv-x="331" 
d="M307 305h-281v90h86v230l-86 -16v87l195 38v-339h86v-90z" />
    <glyph glyph-name="two.superior" unicode="&#xb2;" horiz-adv-x="391" 
d="M349 607c0 -66 -36 -96 -106 -146c-46 -33 -66 -47 -78 -69h85v37h97v-124h-313c0 128 74 182 138 227c49 33 66 48 66 75c0 26 -12 40 -42 40c-42 0 -62 -22 -64 -67h-95c2 90 52 153 159 153c100 0 153 -43 153 -126z" />
    <glyph glyph-name="three.superior" unicode="&#xb3;" horiz-adv-x="387" 
d="M356 434c0 -92 -76 -138 -165 -138c-67 0 -130 25 -170 105l82 36c26 -44 49 -56 87 -56s56 20 56 58c0 22 -15 45 -45 45h-61l-23 76h81c28 0 40 17 40 49c0 24 -15 39 -46 39c-38 0 -63 -10 -86 -52l-82 36c42 82 105 101 172 101c111 0 152 -55 152 -121
c0 -35 -19 -68 -48 -85c36 -18 56 -54 56 -93z" />
    <glyph glyph-name="commaaccent" unicode="&#xf6c3;" horiz-adv-x="311" 
d="M177 -323l-68 45c15 20 25 43 25 88h-57c-8 0 -10 0 -10 9v125c0 10 3 15 11 15h156c8 0 11 -5 11 -15v-95c0 -84 -28 -133 -68 -172z" />
    <glyph glyph-name="Delta" unicode="&#x2206;" horiz-adv-x="720" 
d="M706 0h-726l286 721h155zM462 141l-124 359l-119 -359h243z" />
    <glyph glyph-name="Omega" unicode="&#x2126;" horiz-adv-x="720" 
d="M682 433c0 -132 -47 -231 -186 -266v-43h164v-124h-262v238c74 16 100 56 100 175c0 116 -46 176 -150 176s-150 -60 -150 -176c0 -119 26 -159 100 -175v-238h-262v124h164v43c-140 35 -186 134 -186 266c0 157 89 304 334 304s334 -147 334 -304z" />
    <glyph glyph-name="uni03BC" unicode="&#x3bc;" horiz-adv-x="616" 
d="M570 0h-149l-19 48c-50 -50 -94 -63 -143 -63c-9 0 -18 0 -27 1v-228h-181v779h181v-333c0 -61 16 -93 62 -93c32 0 65 15 95 36v390h181v-537z" />
    <glyph glyph-name="pi" unicode="&#x3c0;" horiz-adv-x="720" 
d="M676 -9h-97c-96 0 -153 49 -153 167v251h-159v-409h-181v408h-68v152h657v-152h-68v-250c0 -27 7 -37 29 -37h40v-130z" />
    <glyph glyph-name="Euro" unicode="&#x20ac;" 
d="M627 163c-39 -103 -108 -178 -264 -178c-170 0 -265 104 -292 254h-64l28 84h27c-1 12 -1 25 -1 37v29h-54l28 84h34c24 164 118 264 293 264c174 0 253 -100 262 -245h-148c-10 78 -41 103 -114 103s-105 -35 -118 -122h209l-30 -84h-186c0 -14 -1 -18 -1 -32
c0 -9 1 -26 1 -34h170l-31 -84h-129c15 -74 48 -113 117 -113c67 0 104 30 137 111z" />
    <glyph glyph-name="afii61289" unicode="&#x2113;" horiz-adv-x="468" 
d="M423 594c0 -114 -59 -210 -165 -282v-154c0 -27 7 -37 29 -37h40v-130h-97c-96 0 -153 61 -153 167v76c-19 -7 -38 -14 -57 -19l-15 70c26 9 50 17 72 26v271c0 111 41 219 187 219c159 0 159 -129 159 -207zM344 594c0 68 -10 91 -40 91c-31 0 -46 -34 -46 -104v-181
c59 54 86 117 86 194z" />
    <glyph glyph-name="estimated" unicode="&#x212e;" horiz-adv-x="606" 
d="M577 282h-429v-193c42 -40 92 -63 152 -63c112 0 165 59 210 127l31 -19c-52 -81 -116 -141 -241 -141c-163 0 -271 133 -271 290c0 159 104 290 275 290c170 0 273 -134 273 -291zM457 315v163c-36 33 -95 62 -153 62c-60 0 -116 -21 -156 -62v-163h309z" />
    <glyph glyph-name="partialdiff" unicode="&#x2202;" horiz-adv-x="720" 
d="M646 448c0 -42 -3 -89 -11 -132c-40 -225 -142 -332 -348 -332c-177 0 -245 82 -245 207c0 25 3 52 8 79c29 170 128 282 298 282c51 0 78 -7 108 -19c-3 93 -52 155 -204 155c-21 0 -45 -1 -69 -3l1 114c28 2 54 4 79 4c292 0 383 -163 383 -355zM451 337
c0 68 -29 90 -86 90c-72 0 -112 -36 -135 -159c-5 -28 -8 -51 -8 -71c0 -67 30 -88 86 -88c73 0 114 36 136 159c5 27 7 49 7 69z" />
    <glyph glyph-name="product" unicode="&#x220f;" horiz-adv-x="720" 
d="M721 570h-83v-570h-181v571h-228v-571h-181v570h-84v151h757v-151z" />
    <glyph glyph-name="summation" unicode="&#x2211;" horiz-adv-x="720" 
d="M614 0h-531v146l178 222l-178 207v146h531v-150h-342l178 -203l-178 -218h342v-150z" />
    <glyph glyph-name="uni2219" unicode="&#x2219;" horiz-adv-x="294" 
d="M236 344c0 -9 -2 -11 -10 -11h-158c-8 0 -10 2 -10 11v155c0 10 2 12 10 12h158c8 0 10 -2 10 -12v-155z" />
    <glyph glyph-name="radical" unicode="&#x221a;" horiz-adv-x="720" 
d="M720 571h-118l-204 -571h-165l-126 346h-106v150h242l72 -258l147 483h258v-150z" />
    <glyph glyph-name="infinity" unicode="&#x221e;" horiz-adv-x="720" 
d="M655 377c0 -124 -28 -266 -189 -266c-41 0 -86 6 -132 42c-32 -33 -66 -44 -107 -44c-161 0 -182 143 -182 268s28 266 188 266c40 0 87 -13 129 -43c30 29 67 44 112 44c164 0 181 -141 181 -267zM524 377c0 80 -7 142 -50 142c-33 0 -43 -38 -60 -148
c-8 -50 -13 -81 -19 -106c26 -25 49 -30 71 -30c46 0 58 64 58 142zM302 490c-22 20 -47 28 -68 28c-47 0 -57 -65 -57 -143c0 -76 5 -141 50 -141c30 0 44 43 59 152c6 45 10 79 16 104z" />
    <glyph glyph-name="integral" unicode="&#x222b;" horiz-adv-x="720" 
d="M660 753l-35 -121c-35 9 -70 18 -107 18c-45 0 -83 -15 -83 -80v-563c0 -177 -103 -209 -226 -209c-73 0 -122 10 -178 26l35 122c35 -10 70 -19 107 -19c45 0 83 16 83 81v562c0 177 103 209 226 209c73 0 122 -10 178 -26z" />
    <glyph glyph-name="approxequal" unicode="&#x2248;" horiz-adv-x="500" 
d="M493 524c-35 -49 -76 -69 -134 -69c-95 0 -142 86 -218 86c-59 0 -100 -20 -135 -69v144c35 49 76 69 134 69c105 0 143 -86 218 -86c59 0 100 20 135 69v-144zM493 268c-35 -49 -76 -69 -134 -69c-95 0 -142 86 -218 86c-59 0 -100 -20 -135 -69v144c35 49 76 69 134 69
c105 0 143 -86 218 -86c59 0 100 20 135 69v-144z" />
    <glyph glyph-name="notequal" unicode="&#x2260;" 
d="M549 737l-74 -174h102v-140h-161l-53 -124h214v-140h-273l-74 -174h-123l74 174h-100v140h159l53 124h-212v140h271l74 174h123z" />
    <glyph glyph-name="lessequal" unicode="&#x2264;" 
d="M604 0h-549v118h549v-118zM512 170h-180l-224 280l224 280h180l-226 -280z" />
    <glyph glyph-name="greaterequal" unicode="&#x2265;" 
d="M55 0h549v118h-549v-118zM147 170h180l224 280l-224 280h-180l226 -280z" />
    <glyph glyph-name="lozenge" unicode="&#x25ca;" horiz-adv-x="700" 
d="M636 353l-295 -346l-295 346l295 347zM466 353l-125 153l-126 -153l126 -153z" />
    <glyph glyph-name="uni00A0" unicode="&#xa0;" horiz-adv-x="233" 
 />
    <glyph glyph-name="uni00AD" unicode="&#xad;" horiz-adv-x="343" 
d="M310 246h-277v147h277v-147z" />
    <glyph glyph-name="uni02C9" unicode="&#x2c9;" horiz-adv-x="461" 
d="M399 626h-332v130h332v-130z" />
    <glyph glyph-name="h.superior" unicode="&#xf637;" horiz-adv-x="370" 
d="M345 305h-118v202c0 34 -8 50 -31 50c-18 0 -37 -8 -52 -19l1 -233h-117v470h116v-157c25 17 43 24 73 24c90 0 128 -57 128 -135v-202z" />
    <glyph glyph-name="zero.fitted" unicode="&#xf639;" 
d="M601 369c0 -183 -25 -384 -271 -384s-272 201 -272 384c0 181 36 368 272 368s271 -187 271 -368zM424 369c0 178 -21 234 -94 234s-95 -56 -95 -234c0 -188 23 -251 95 -251s94 63 94 251z" />
    <glyph glyph-name="one.fitted" unicode="&#xf6dc;" horiz-adv-x="562" 
d="M521 0h-478v140h151v406c0 7 4 15 8 23l-159 -31v137l327 63v-598h151v-140z" />
    <glyph glyph-name="two.fitted" unicode="&#xf63a;" 
d="M593 523c0 -111 -61 -163 -183 -250c-90 -64 -125 -89 -148 -137h174v65h153v-201h-533c0 217 127 308 240 385c92 63 119 85 119 138c0 52 -25 81 -82 81c-80 0 -119 -39 -123 -119h-149c3 148 89 252 272 252c171 0 260 -73 260 -214z" />
    <glyph glyph-name="three.fitted" unicode="&#xf63b;" 
d="M609 220c0 -157 -131 -235 -282 -235c-117 0 -224 39 -289 169l130 59c45 -76 86 -96 158 -96s107 37 107 102c0 52 -30 93 -89 93h-96l-39 126h131c57 0 79 42 79 89c0 49 -29 79 -90 79c-70 0 -117 -19 -155 -89l-129 57c68 132 176 163 290 163
c190 0 260 -93 260 -204c0 -69 -40 -127 -91 -152c66 -28 105 -90 105 -161z" />
    <glyph glyph-name="four.fitted" unicode="&#xf63c;" 
d="M631 167h-76v-167h-175v167h-343v128l364 426h154v-413h76v-141zM390 491l-160 -183h150v148c0 10 2 19 10 35z" />
    <glyph glyph-name="five.fitted" unicode="&#xf63d;" 
d="M605 242c0 -149 -88 -257 -280 -257c-117 0 -226 39 -291 169l130 59c45 -76 87 -96 159 -96c80 0 105 53 105 120c0 72 -32 111 -121 111c-54 0 -131 -12 -170 -27l-57 53l42 347h478l-39 -140h-302l-14 -110c27 5 65 8 86 8c166 0 274 -69 274 -237z" />
    <glyph glyph-name="six.fitted" unicode="&#xf63e;" 
d="M601 255c0 -153 -72 -270 -274 -270c-203 0 -275 116 -275 270v114c0 168 22 368 288 368c95 0 192 -29 256 -114l-105 -91c-44 47 -81 70 -151 70c-74 0 -111 -45 -115 -134c31 16 73 26 108 26c179 0 268 -87 268 -239zM425 255c0 78 -26 113 -98 113
c-63 0 -102 -30 -102 -113c0 -104 36 -138 102 -138c70 0 98 37 98 138z" />
    <glyph glyph-name="seven.fitted" unicode="&#xf63f;" 
d="M611 599l-339 -599h-202l322 558c6 10 15 18 27 25h-204v-76h-153v214h549v-122z" />
    <glyph glyph-name="eight.fitted" unicode="&#xf640;" 
d="M610 224c0 -148 -80 -239 -277 -239s-277 91 -277 239c0 85 48 128 91 156c-40 23 -80 75 -80 142c0 150 95 215 267 215s265 -65 265 -215c0 -67 -40 -119 -80 -142c43 -28 91 -71 91 -156zM427 522c0 59 -32 84 -94 84s-94 -25 -94 -84c0 -56 24 -80 58 -80h71
c34 0 59 24 59 80zM434 224c0 52 -22 92 -69 92h-64c-47 0 -70 -42 -70 -92c0 -80 30 -107 102 -107s101 27 101 107z" />
    <glyph glyph-name="nine.fitted" unicode="&#xf641;" 
d="M602 354c0 -168 -22 -369 -288 -369c-95 0 -190 31 -254 116l101 87c44 -47 83 -71 153 -71c74 0 112 47 116 136c-31 -16 -73 -24 -108 -24c-179 0 -269 86 -269 238c0 153 72 270 274 270c203 0 275 -116 275 -270v-113zM430 467c0 104 -37 138 -103 138
c-70 0 -97 -37 -97 -138c0 -78 25 -112 97 -112c63 0 103 29 103 112z" />
    <glyph glyph-name="zero.taboldstyle" unicode="&#xf643;" 
d="M602 301c0 -135 -36 -316 -272 -316s-272 181 -272 316s36 316 272 316s272 -181 272 -316zM425 301c0 131 -22 182 -95 182s-95 -51 -95 -182s22 -182 95 -182s95 51 95 182z" />
    <glyph glyph-name="one.taboldstyle" unicode="&#xf644;" 
d="M568 0h-478v140h151v286c0 7 4 15 8 23l-159 -31v137l327 63v-478h151v-140z" />
    <glyph glyph-name="two.taboldstyle" unicode="&#xf645;" 
d="M589 0h-534c0 208 115 303 250 353c108 40 103 57 103 82c0 23 -8 51 -75 51c-68 0 -119 -11 -123 -91h-153c3 148 109 222 276 222c202 0 254 -96 254 -180c0 -100 -23 -145 -177 -203c-103 -39 -124 -61 -142 -98h168v49h153v-185z" />
    <glyph glyph-name="three.taboldstyle" unicode="&#xf646;" 
d="M609 100c0 -157 -131 -235 -282 -235c-117 0 -224 39 -289 169l130 59c45 -76 86 -96 158 -96s107 37 107 102c0 52 -30 93 -89 93h-96l-39 126h131c57 0 79 42 79 89c0 49 -29 79 -90 79c-70 0 -117 -19 -155 -89l-129 57c68 132 176 163 290 163
c190 0 260 -93 260 -204c0 -69 -40 -127 -91 -152c66 -28 105 -90 105 -161z" />
    <glyph glyph-name="four.taboldstyle" unicode="&#xf647;" 
d="M631 47h-76v-166h-175v166h-343v128l364 427h154v-414h76v-141zM390 372l-160 -184h150v149c0 10 2 19 10 35z" />
    <glyph glyph-name="five.taboldstyle" unicode="&#xf648;" 
d="M605 123c0 -149 -88 -257 -280 -257c-117 0 -226 39 -291 169l130 59c45 -76 87 -96 159 -96c80 0 105 53 105 120c0 72 -32 111 -121 111c-54 0 -131 -12 -170 -27l-57 53l42 347h478l-39 -140h-302l-14 -110c27 5 65 8 86 8c166 0 274 -69 274 -237z" />
    <glyph glyph-name="six.taboldstyle" unicode="&#xf649;" 
d="M601 255c0 -153 -72 -270 -274 -270c-203 0 -275 116 -275 270v114c0 168 22 368 288 368c95 0 192 -29 256 -114l-105 -91c-44 47 -81 70 -151 70c-74 0 -111 -45 -115 -134c31 16 73 26 108 26c179 0 268 -87 268 -239zM425 255c0 78 -26 113 -98 113
c-63 0 -102 -30 -102 -113c0 -104 36 -138 102 -138c70 0 98 37 98 138z" />
    <glyph glyph-name="seven.taboldstyle" unicode="&#xf64a;" 
d="M611 480l-339 -599h-202l322 558c6 10 15 18 27 25h-204v-76h-153v214h549v-122z" />
    <glyph glyph-name="eight.taboldstyle" unicode="&#xf64b;" 
d="M610 224c0 -148 -80 -239 -277 -239s-277 91 -277 239c0 85 48 128 91 156c-40 23 -80 75 -80 142c0 150 95 215 267 215s265 -65 265 -215c0 -67 -40 -119 -80 -142c43 -28 91 -71 91 -156zM427 522c0 59 -32 84 -94 84s-94 -25 -94 -84c0 -56 24 -80 58 -80h71
c34 0 59 24 59 80zM434 224c0 52 -22 92 -69 92h-64c-47 0 -70 -42 -70 -92c0 -80 30 -107 102 -107s101 27 101 107z" />
    <glyph glyph-name="nine.taboldstyle" unicode="&#xf64c;" 
d="M602 234c0 -168 -22 -369 -288 -369c-95 0 -190 31 -254 116l101 87c44 -47 83 -71 153 -71c74 0 112 47 116 136c-31 -16 -73 -24 -108 -24c-179 0 -269 86 -269 238c0 153 72 270 274 270c203 0 275 -116 275 -270v-113zM430 347c0 104 -37 138 -103 138
c-70 0 -97 -37 -97 -138c0 -78 25 -112 97 -112c63 0 103 29 103 112z" />
    <glyph glyph-name="zero.denominator" unicode="&#xf655;" horiz-adv-x="391" 
d="M355 214c0 -106 -15 -223 -159 -223c-145 0 -160 117 -160 223c0 104 22 214 160 214c137 0 159 -110 159 -214zM244 214c0 98 -11 128 -48 128s-49 -30 -49 -128c0 -103 12 -137 49 -137c36 0 48 34 48 137z" />
    <glyph glyph-name="one.denominator" unicode="&#xf656;" horiz-adv-x="331" 
d="M307 0h-281v90h86v230l-86 -16v87l195 38v-339h86v-90z" />
    <glyph glyph-name="two.denominator" unicode="&#xf657;" horiz-adv-x="391" 
d="M349 302c0 -66 -36 -96 -106 -146c-46 -33 -66 -47 -78 -69h85v37h97v-124h-313c0 128 74 182 138 227c49 33 66 48 66 75c0 26 -12 40 -42 40c-42 0 -62 -22 -64 -67h-95c2 90 52 153 159 153c100 0 153 -43 153 -126z" />
    <glyph glyph-name="three.denominator" unicode="&#xf658;" horiz-adv-x="387" 
d="M356 129c0 -92 -76 -138 -165 -138c-67 0 -130 25 -170 105l82 36c26 -44 49 -56 87 -56s56 20 56 58c0 22 -15 45 -45 45h-61l-23 76h81c28 0 40 17 40 49c0 24 -15 39 -46 39c-38 0 -63 -10 -86 -52l-82 36c42 82 105 101 172 101c111 0 152 -55 152 -121
c0 -35 -19 -68 -48 -85c36 -18 56 -54 56 -93z" />
    <glyph glyph-name="four.denominator" unicode="&#xf659;" horiz-adv-x="384" 
d="M369 95h-44v-95h-109v95h-195v80l210 244h94v-235h44v-89zM216 184v88l-75 -88h75z" />
    <glyph glyph-name="five.denominator" unicode="&#xf65a;" horiz-adv-x="387" 
d="M354 142c0 -88 -53 -151 -164 -151c-67 0 -131 25 -171 105l81 36c27 -44 50 -56 89 -56c41 0 54 29 54 63c0 38 -17 58 -63 58c-30 0 -74 -7 -98 -16l-36 34l24 204h283l-25 -90h-171l-7 -51c14 2 32 3 43 3c98 0 161 -39 161 -139z" />
    <glyph glyph-name="six.denominator" unicode="&#xf65b;" horiz-adv-x="390" 
d="M354 150c0 -90 -43 -159 -161 -159c-119 0 -161 68 -161 159v64c0 98 13 214 168 214c56 0 113 -19 153 -71l-67 -57c-26 27 -48 41 -86 41c-37 0 -56 -20 -60 -63c17 7 39 12 56 12c104 0 158 -51 158 -140zM243 150c0 40 -14 59 -50 59c-33 0 -53 -17 -53 -59
c0 -55 18 -74 53 -74s50 21 50 74z" />
    <glyph glyph-name="seven.denominator" unicode="&#xf65c;" horiz-adv-x="390" 
d="M360 344l-196 -344h-124l190 330h-94v-42h-97v131h321v-75z" />
    <glyph glyph-name="eight.denominator" unicode="&#xf65d;" horiz-adv-x="389" 
d="M359 132c0 -87 -47 -141 -163 -141c-115 0 -162 54 -162 141c0 45 25 72 48 88c-21 16 -41 45 -41 88c0 80 55 120 156 120s155 -40 155 -120c0 -43 -20 -72 -41 -88c24 -16 48 -41 48 -88zM249 132c0 27 -11 47 -40 47h-27c-29 0 -38 -21 -38 -47c0 -41 16 -56 52 -56
c37 0 53 15 53 56zM245 301c0 29 -16 42 -49 42c-32 0 -48 -13 -48 -42s10 -41 32 -41h31c21 0 34 12 34 41z" />
    <glyph glyph-name="nine.denominator" unicode="&#xf65e;" horiz-adv-x="390" 
d="M354 206c0 -98 -12 -215 -168 -215c-55 0 -111 20 -151 72l64 55c26 -27 49 -42 87 -42c36 0 56 24 60 64c-18 -8 -38 -10 -56 -10c-104 0 -158 50 -158 140s43 158 161 158c119 0 161 -68 161 -158v-64zM246 270c0 54 -18 73 -53 73s-50 -20 -50 -73
c0 -41 14 -59 50 -59c33 0 53 16 53 59z" />
    <glyph glyph-name="zero.numerator" unicode="&#xf661;" horiz-adv-x="391" 
d="M355 519c0 -106 -15 -223 -159 -223c-145 0 -160 117 -160 223c0 104 22 214 160 214c137 0 159 -110 159 -214zM244 519c0 98 -11 128 -48 128s-49 -30 -49 -128c0 -103 12 -137 49 -137c36 0 48 34 48 137z" />
    <glyph glyph-name="one.numerator" unicode="&#xf662;" horiz-adv-x="331" 
d="M307 305h-281v90h86v230l-86 -16v87l195 38v-339h86v-90z" />
    <glyph glyph-name="two.numerator" unicode="&#xf663;" horiz-adv-x="391" 
d="M349 607c0 -66 -36 -96 -106 -146c-46 -33 -66 -47 -78 -69h85v37h97v-124h-313c0 128 74 182 138 227c49 33 66 48 66 75c0 26 -12 40 -42 40c-42 0 -62 -22 -64 -67h-95c2 90 52 153 159 153c100 0 153 -43 153 -126z" />
    <glyph glyph-name="three.numerator" unicode="&#xf664;" horiz-adv-x="387" 
d="M356 434c0 -92 -76 -138 -165 -138c-67 0 -130 25 -170 105l82 36c26 -44 49 -56 87 -56s56 20 56 58c0 22 -15 45 -45 45h-61l-23 76h81c28 0 40 17 40 49c0 24 -15 39 -46 39c-38 0 -63 -10 -86 -52l-82 36c42 82 105 101 172 101c111 0 152 -55 152 -121
c0 -35 -19 -68 -48 -85c36 -18 56 -54 56 -93z" />
    <glyph glyph-name="four.numerator" unicode="&#xf665;" horiz-adv-x="384" 
d="M369 400h-44v-95h-109v95h-195v80l210 244h94v-235h44v-89zM216 489v88l-75 -88h75z" />
    <glyph glyph-name="five.numerator" unicode="&#xf666;" horiz-adv-x="387" 
d="M354 447c0 -88 -53 -151 -164 -151c-67 0 -131 25 -171 105l81 36c27 -44 50 -56 89 -56c41 0 54 29 54 63c0 38 -17 58 -63 58c-30 0 -74 -7 -98 -16l-36 34l24 204h283l-25 -90h-171l-7 -51c14 2 32 3 43 3c98 0 161 -39 161 -139z" />
    <glyph glyph-name="six.numerator" unicode="&#xf667;" horiz-adv-x="390" 
d="M354 455c0 -90 -43 -159 -161 -159c-119 0 -161 68 -161 159v64c0 98 13 214 168 214c56 0 113 -19 153 -71l-67 -57c-26 27 -48 41 -86 41c-37 0 -56 -20 -60 -63c17 7 39 12 56 12c104 0 158 -51 158 -140zM243 455c0 40 -14 59 -50 59c-33 0 -53 -17 -53 -59
c0 -55 18 -74 53 -74s50 21 50 74z" />
    <glyph glyph-name="seven.numerator" unicode="&#xf668;" horiz-adv-x="390" 
d="M360 649l-196 -344h-124l190 330h-94v-42h-97v131h321v-75z" />
    <glyph glyph-name="eight.numerator" unicode="&#xf669;" horiz-adv-x="389" 
d="M359 437c0 -87 -47 -141 -163 -141c-115 0 -162 54 -162 141c0 45 25 72 48 88c-21 16 -41 45 -41 88c0 80 55 120 156 120s155 -40 155 -120c0 -43 -20 -72 -41 -88c24 -16 48 -41 48 -88zM249 437c0 27 -11 47 -40 47h-27c-29 0 -38 -21 -38 -47c0 -41 16 -56 52 -56
c37 0 53 15 53 56zM245 606c0 29 -16 42 -49 42c-32 0 -48 -13 -48 -42s10 -41 32 -41h31c21 0 34 12 34 41z" />
    <glyph glyph-name="nine.numerator" unicode="&#xf66a;" horiz-adv-x="390" 
d="M354 511c0 -98 -12 -215 -168 -215c-55 0 -111 20 -151 72l64 55c26 -27 49 -42 87 -42c36 0 56 24 60 64c-18 -8 -38 -10 -56 -10c-104 0 -158 50 -158 140s43 158 161 158c119 0 161 -68 161 -158v-64zM246 575c0 54 -18 73 -53 73s-50 -20 -50 -73
c0 -41 14 -59 50 -59c33 0 53 16 53 59z" />
    <glyph glyph-name="I.alt" unicode="&#xe000;" horiz-adv-x="375" 
d="M353 0h-331v92h76v537h-76v92h331v-92h-75v-537h75v-92z" />
    <glyph glyph-name="J.alt" unicode="&#xe005;" horiz-adv-x="491" 
d="M429 223c0 -163 -87 -238 -241 -238c-68 0 -121 12 -181 56l90 124c30 -22 55 -31 91 -31c47 0 62 25 62 89v332c0 8 2 13 5 19h-147l-43 147h364v-498z" />
    <glyph glyph-name="a.alt" unicode="&#xe006;" horiz-adv-x="614" 
d="M596 0h-94c-45 0 -74 14 -94 50c-47 -43 -96 -65 -162 -65c-144 0 -218 69 -218 186c0 134 105 168 214 168c40 0 81 -4 120 -11v48c0 32 -19 52 -75 52c-34 0 -77 -7 -106 -42l-114 67c51 68 123 100 231 100c161 0 245 -69 245 -177v-218c0 -18 6 -26 22 -26h31v-132z
M362 132v105c-20 3 -44 5 -67 5c-43 0 -87 -11 -87 -65c0 -50 28 -69 68 -69c29 0 58 8 86 24z" />
    <glyph glyph-name="i.alt" unicode="&#xe01b;" horiz-adv-x="375" 
d="M288 627c0 -9 -1 -9 -8 -9h-170c-7 0 -8 0 -8 9v142c0 10 0 10 8 10h170c8 0 8 0 8 -10v-142zM355 -9h-97c-98 0 -151 61 -151 165v223c0 8 4 17 14 27h-100v131h269v-383c0 -17 6 -27 20 -27h45v-136z" />
    <glyph glyph-name="j.alt" unicode="&#xe020;" horiz-adv-x="341" 
d="M288 627c0 -9 0 -9 -8 -9h-170c-8 0 -8 0 -8 9v142c0 10 0 10 8 10h170c8 0 8 0 8 -10v-142zM290 -75c0 -94 -52 -166 -173 -166h-109v139h77c19 0 22 8 22 27v452c0 10 3 15 14 29h-100v131h269v-612z" />
    <glyph glyph-name="l.alt" unicode="&#xe022;" horiz-adv-x="350" 
d="M330 -9h-97c-98 0 -151 55 -151 159v499h-90v130h270v-629c0 -17 5 -29 23 -29h45v-130z" />
    <glyph glyph-name="Iacute.alt" unicode="&#xe001;" horiz-adv-x="375" 
d="M326 906l-181 -139c-3 -2 -6 -5 -10 -5c-3 0 -5 2 -7 4c-7 7 -60 52 -60 59c0 4 6 8 8 10l155 166zM353 0h-331v92h76v537h-76v92h331v-92h-75v-537h75v-92z" />
    <glyph glyph-name="Icircumflex.alt" unicode="&#xe002;" horiz-adv-x="375" 
d="M358 824l-62 -62l-110 92l-109 -92l-62 62l162 166c3 4 8 5 11 5s6 -1 10 -5zM353 0h-331v92h76v537h-76v92h331v-92h-75v-537h75v-92z" />
    <glyph glyph-name="Idieresis.alt" unicode="&#xe003;" horiz-adv-x="375" 
d="M389 789c0 -6 -1 -8 -7 -8h-132c-7 0 -8 1 -8 8v138c0 7 2 9 8 9h132c6 0 7 -2 7 -9v-138zM133 789c0 -6 -1 -8 -7 -8h-132c-7 0 -8 1 -8 8v138c0 7 2 9 8 9h132c6 0 7 -2 7 -9v-138zM353 0h-331v92h76v537h-76v92h331v-92h-75v-537h75v-92z" />
    <glyph glyph-name="Igrave.alt" unicode="&#xe004;" horiz-adv-x="375" 
d="M317 826c0 -7 -53 -54 -59 -60c-2 -2 -4 -4 -7 -4c-4 0 -7 3 -10 5l-182 139l96 95l155 -166c2 -2 7 -6 7 -9zM353 0h-331v92h76v537h-76v92h331v-92h-75v-537h75v-92z" />
    <glyph glyph-name="aacute.alt" unicode="&#xe007;" horiz-adv-x="614" 
d="M465 737l-181 -139c-3 -2 -6 -5 -10 -5c-3 0 -5 2 -7 4c-7 7 -60 52 -60 59c0 4 6 8 8 10l155 166zM596 0h-94c-45 0 -74 14 -94 50c-47 -43 -96 -65 -162 -65c-144 0 -218 69 -218 186c0 134 105 168 214 168c40 0 81 -4 120 -11v48c0 32 -19 52 -75 52
c-34 0 -77 -7 -106 -42l-114 67c51 68 123 100 231 100c161 0 245 -69 245 -177v-218c0 -18 6 -26 22 -26h31v-132zM362 132v105c-20 3 -44 5 -67 5c-43 0 -87 -11 -87 -65c0 -50 28 -69 68 -69c29 0 58 8 86 24z" />
    <glyph glyph-name="acircumflex.alt" unicode="&#xe008;" horiz-adv-x="614" 
d="M466 655l-62 -62l-110 92l-109 -92l-62 62l162 166c4 4 8 5 11 5s7 -1 10 -5zM596 0h-94c-45 0 -74 14 -94 50c-47 -43 -96 -65 -162 -65c-144 0 -218 69 -218 186c0 134 105 168 214 168c40 0 81 -4 120 -11v48c0 32 -19 52 -75 52c-34 0 -77 -7 -106 -42l-114 67
c51 68 123 100 231 100c161 0 245 -69 245 -177v-218c0 -18 6 -26 22 -26h31v-132zM362 132v105c-20 3 -44 5 -67 5c-43 0 -87 -11 -87 -65c0 -50 28 -69 68 -69c29 0 58 8 86 24z" />
    <glyph glyph-name="adieresis.alt" unicode="&#xe009;" horiz-adv-x="614" 
d="M496 629c0 -6 -1 -8 -7 -8h-132c-7 0 -8 1 -8 8v138c0 7 2 9 8 9h132c6 0 7 -2 7 -9v-138zM240 629c0 -6 -1 -8 -7 -8h-132c-7 0 -8 1 -8 8v138c0 7 2 9 8 9h132c6 0 7 -2 7 -9v-138zM596 0h-94c-45 0 -74 14 -94 50c-47 -43 -96 -65 -162 -65c-144 0 -218 69 -218 186
c0 134 105 168 214 168c40 0 81 -4 120 -11v48c0 32 -19 52 -75 52c-34 0 -77 -7 -106 -42l-114 67c51 68 123 100 231 100c161 0 245 -69 245 -177v-218c0 -18 6 -26 22 -26h31v-132zM362 132v105c-20 3 -44 5 -67 5c-43 0 -87 -11 -87 -65c0 -50 28 -69 68 -69
c29 0 58 8 86 24z" />
    <glyph glyph-name="agrave.alt" unicode="&#xe00a;" horiz-adv-x="614" 
d="M405 657c0 -7 -52 -54 -59 -60c-2 -2 -4 -4 -7 -4c-4 0 -7 3 -10 5l-182 139l96 95l155 -166c2 -2 7 -6 7 -9zM596 0h-94c-45 0 -74 14 -94 50c-47 -43 -96 -65 -162 -65c-144 0 -218 69 -218 186c0 134 105 168 214 168c40 0 81 -4 120 -11v48c0 32 -19 52 -75 52
c-34 0 -77 -7 -106 -42l-114 67c51 68 123 100 231 100c161 0 245 -69 245 -177v-218c0 -18 6 -26 22 -26h31v-132zM362 132v105c-20 3 -44 5 -67 5c-43 0 -87 -11 -87 -65c0 -50 28 -69 68 -69c29 0 58 8 86 24z" />
    <glyph glyph-name="aring.alt" unicode="&#xe00c;" horiz-adv-x="614" 
d="M427 715c0 -67 -55 -122 -122 -122c-68 0 -122 55 -122 122s54 122 122 122c67 0 122 -55 122 -122zM596 0h-94c-45 0 -74 14 -94 50c-47 -43 -96 -65 -162 -65c-144 0 -218 69 -218 186c0 134 105 168 214 168c40 0 81 -4 120 -11v48c0 32 -19 52 -75 52
c-34 0 -77 -7 -106 -42l-114 67c51 68 123 100 231 100c161 0 245 -69 245 -177v-218c0 -18 6 -26 22 -26h31v-132zM354 714c0 26 -23 49 -49 49c-27 0 -47 -23 -47 -49s20 -47 47 -47c26 0 49 21 49 47zM362 132v105c-20 3 -44 5 -67 5c-43 0 -87 -11 -87 -65
c0 -50 28 -69 68 -69c29 0 58 8 86 24z" />
    <glyph glyph-name="atilde.alt" unicode="&#xe00e;" horiz-adv-x="614" 
d="M510 733l-82 -109c-12 -16 -30 -24 -49 -24c-13 0 -28 4 -39 11l-83 57c-3 3 -7 5 -11 5s-7 -1 -9 -4l-59 -71l-73 49l90 118c12 16 29 25 48 25c13 0 29 -4 40 -12l80 -55c4 -3 8 -4 11 -4c5 0 10 3 13 7l48 58zM596 0h-94c-45 0 -74 14 -94 50
c-47 -43 -96 -65 -162 -65c-144 0 -218 69 -218 186c0 134 105 168 214 168c40 0 81 -4 120 -11v48c0 32 -19 52 -75 52c-34 0 -77 -7 -106 -42l-114 67c51 68 123 100 231 100c161 0 245 -69 245 -177v-218c0 -18 6 -26 22 -26h31v-132zM362 132v105c-20 3 -44 5 -67 5
c-43 0 -87 -11 -87 -65c0 -50 28 -69 68 -69c29 0 58 8 86 24z" />
    <glyph glyph-name="dotlessi.alt" unicode="&#xe011;" horiz-adv-x="375" 
d="M355 -9h-97c-98 0 -151 61 -151 165v223c0 8 4 17 14 27h-100v131h269v-383c0 -17 6 -27 20 -27h45v-136z" />
    <glyph glyph-name="iacute.alt" unicode="&#xe01c;" horiz-adv-x="375" 
d="M325 737l-181 -139c-2 -2 -6 -5 -10 -5c-3 0 -5 2 -7 4c-7 7 -60 52 -60 59c0 4 7 8 8 10l155 166zM355 -9h-97c-98 0 -151 61 -151 165v223c0 8 4 17 14 27h-100v131h269v-383c0 -17 6 -27 20 -27h45v-136z" />
    <glyph glyph-name="icircumflex.alt" unicode="&#xe01d;" horiz-adv-x="375" 
d="M372 655l-62 -62l-110 92l-109 -92l-62 62l162 166c4 4 8 5 11 5s6 -1 10 -5zM355 -9h-97c-98 0 -151 61 -151 165v223c0 8 4 17 14 27h-100v131h269v-383c0 -17 6 -27 20 -27h45v-136z" />
    <glyph glyph-name="idieresis.alt" unicode="&#xe01e;" horiz-adv-x="375" 
d="M394 629c0 -6 -1 -8 -7 -8h-132c-7 0 -8 1 -8 8v138c0 7 2 9 8 9h132c6 0 7 -2 7 -9v-138zM139 629c0 -6 -1 -8 -7 -8h-132c-7 0 -8 1 -8 8v138c0 7 2 9 8 9h132c6 0 7 -2 7 -9v-138zM355 -9h-97c-98 0 -151 61 -151 165v223c0 8 4 17 14 27h-100v131h269v-383
c0 -17 6 -27 20 -27h45v-136z" />
    <glyph glyph-name="igrave.alt" unicode="&#xe01f;" horiz-adv-x="375" 
d="M316 657c0 -7 -53 -54 -59 -60c-2 -2 -4 -4 -7 -4c-4 0 -7 3 -10 5l-182 139l96 95l155 -166c2 -2 7 -6 7 -9zM355 -9h-97c-98 0 -151 61 -151 165v223c0 8 4 17 14 27h-100v131h269v-383c0 -17 6 -27 20 -27h45v-136z" />
    <glyph glyph-name="lslash.alt" unicode="&#xe023;" horiz-adv-x="350" 
d="M344 473l-82 -52v-271c0 -17 5 -29 23 -29h45v-130h-97c-98 0 -151 55 -151 159v155l-80 -52v127l80 52v217h-90v130h270v-231l82 52v-127z" />
    <glyph glyph-name="f_i.alt" unicode="&#xe018;" horiz-adv-x="766" 
d="M681 627c0 -9 -1 -9 -8 -9h-170c-7 0 -8 0 -8 9v142c0 10 0 10 8 10h170c8 0 8 0 8 -10v-142zM746 -9h-95c-98 0 -151 61 -151 165v223c0 8 5 16 14 27h-242v-406h-179v359c0 12 6 32 19 47h-93v131h74v32c0 176 104 211 224 211c68 0 97 -12 153 -27l-35 -121
c-34 10 -52 16 -87 16c-46 0 -76 -18 -76 -79v-32h409v-383c0 -17 6 -27 20 -27h45v-136z" />
    <glyph glyph-name="j.dotless" unicode="&#xe021;" horiz-adv-x="283" 
d="M232 -75c0 -94 -50 -166 -171 -166h-109v139h77c19 0 22 8 22 27v612h181v-612z" />
    <glyph glyph-name="uni2215" unicode="&#x2215;" horiz-adv-x="391" 
d="M540 737l-479 -752h-124l479 752h124z" />
    <glyph glyph-name="apple" unicode="&#xe00b;" horiz-adv-x="790" 
d="M684 369c0 -227 -59 -385 -290 -385c-232 0 -288 158 -288 385c0 204 56 368 287 368c232 0 291 -164 291 -368zM606 251c0 88 -45 158 -143 177l-106 20c-34 6 -40 13 -40 47c0 30 4 52 77 52c50 0 74 -16 93 -52l25 -8l68 36l10 27c-26 53 -76 116 -195 116
c-144 0 -197 -76 -197 -171c0 -107 55 -150 127 -165l112 -23c39 -8 50 -21 50 -56s-17 -74 -94 -74c-52 0 -81 16 -105 72l-26 10l-67 -36l-11 -25c36 -102 117 -139 208 -139c142 0 213 86 213 192h1zM567 251c0 -82 -53 -152 -174 -152c-75 0 -135 28 -166 97l34 18
c30 -56 71 -77 131 -77c99 0 134 56 134 114c0 59 -37 86 -81 95l-112 22c-54 11 -96 43 -96 127c0 72 34 131 157 131c88 0 129 -39 152 -77l-35 -18c-26 38 -61 56 -116 56c-90 0 -117 -35 -117 -92c0 -53 18 -77 70 -87l107 -21c78 -15 111 -65 111 -136h1z" />
    <glyph glyph-name="arrow" unicode="&#xe00d;" horiz-adv-x="790" 
d="M736 360c0 -188 -153 -341 -340 -341c-188 0 -342 153 -342 341s154 341 341 341c188 0 341 -153 341 -341zM668 360l-233 232l-81 -80l91 -91h-305v-120h307l-92 -93l79 -80z" />
    <glyph glyph-name="caronalt" unicode="&#xe00f;" horiz-adv-x="200" 
d="M211 721l-77 -234c-4 -12 -5 -14 -16 -14h-79c-10 0 -14 2 -12 14l39 234h145z" />
    <glyph glyph-name="commaaccentalt" unicode="&#xe010;" horiz-adv-x="311" 
d="M135 894l68 -45c-15 -20 -25 -43 -25 -88h57c8 0 10 0 10 -9v-125c0 -10 -3 -15 -11 -15h-156c-8 0 -11 5 -11 15v95c0 84 28 133 68 172z" />
    <glyph glyph-name="uni03A9" unicode="&#x3a9;" horiz-adv-x="720" 
d="M682 433c0 -132 -47 -231 -186 -266v-43h164v-124h-262v238c74 16 100 56 100 175c0 116 -46 176 -150 176s-150 -60 -150 -176c0 -119 26 -159 100 -175v-238h-262v124h164v43c-140 35 -186 134 -186 266c0 157 89 304 334 304s334 -147 334 -304z" />
    </font>
</defs>
</svg>
