<?xml version="1.0" standalone="no"?>
<!DOCTYPE svg PUBLIC "-//W3C//DTD SVG 1.1//EN" "http://www.w3.org/Graphics/SVG/1.1/DTD/svg11.dtd" >
<svg xmlns="http://www.w3.org/2000/svg" xmlns:xlink="http://www.w3.org/1999/xlink" version="1.1">
<metadata>
Created by FontForge 20150102 at Sat Jan 17 13:03:33 2015
 By uniteet7
Digitised data (c) 2002 Monotype Imaging, Inc. All rights reserved.
</metadata>
<defs>
<font id="SceneStd-Light" horiz-adv-x="590" >
  <font-face 
    font-family="Scene Std"
    font-weight="300"
    font-stretch="normal"
    units-per-em="1000"
    panose-1="2 11 3 4 3 5 4 2 2 4"
    ascent="800"
    descent="-200"
    x-height="537"
    cap-height="721"
    bbox="-61 -259 1245 988"
    underline-thickness="20"
    underline-position="-113"
    stemh="42"
    stemv="50"
    unicode-range="U+0020-FB04"
  />
<missing-glyph horiz-adv-x="500" 
d="M12 0v665h475v-665h-475zM88 618l162 -243l161 243h-323zM60 575v-484c0 -1 161 242 161 242zM440 575l-162 -242l162 -243v485zM411 48l-161 242l-162 -242h323z" />
    <glyph glyph-name="fi" unicode="fi" horiz-adv-x="564" 
d="M502 725c0 -12 -1 -12 -11 -12h-44c-10 0 -11 0 -11 12v41c0 13 1 13 11 13h44c10 0 11 0 11 -13v-41zM502 0h-49v495h-292v-495h-50v495h-84v42h84v67c0 133 84 175 174 175c33 0 63 -4 97 -12l-8 -42c-33 6 -58 13 -89 13c-68 0 -124 -28 -124 -134v-67h341v-537z" />
    <glyph glyph-name="fl" unicode="fl" horiz-adv-x="625" 
d="M590 -8h-29c-72 0 -107 36 -107 121v625h-169c-68 0 -124 -28 -124 -134v-67h186l-10 -42h-176v-495h-50v495h-84v42h84v67c0 133 84 175 182 175h211v-666c0 -54 19 -74 57 -74h29v-47z" />
    <glyph glyph-name="f_f" unicode="ff" horiz-adv-x="716" 
d="M735 767l-10 -41c-31 6 -65 12 -96 12c-68 0 -127 -28 -127 -134v-67h186l-10 -43h-176v-494h-50v494h-291v-494h-50v494h-84v43h84v67c0 133 84 175 177 175c33 0 72 -4 106 -12l-10 -41c-31 6 -65 12 -96 12c-68 0 -127 -28 -127 -134v-67h291v67c0 133 84 175 177 175
c33 0 72 -4 106 -12z" />
    <glyph glyph-name="f_f_i" unicode="ffi" horiz-adv-x="915" 
d="M394 767l-10 -41c-31 6 -65 12 -96 12c-68 0 -127 -28 -127 -134v-67h291v67c0 133 84 175 174 175c33 0 63 -4 97 -12l-8 -42c-33 6 -58 13 -89 13c-68 0 -124 -28 -124 -134v-67h341v-537h-49v495h-292v-495h-50v494h-291v-494h-50v493h-84v44h84v67
c0 133 84 175 177 175c33 0 72 -4 106 -12zM853 725c0 -12 -1 -12 -11 -12h-44c-10 0 -11 0 -11 12v41c0 13 1 13 11 13h44c10 0 11 0 11 -13v-41z" />
    <glyph glyph-name="f_f_l" unicode="ffl" horiz-adv-x="933" 
d="M394 767l-10 -41c-31 6 -65 12 -96 12c-68 0 -127 -28 -127 -134v-67h292v67c0 133 84 175 182 175h209v-666c0 -54 17 -74 55 -74h29v-47h-29c-72 0 -107 36 -107 121v625h-165c-68 0 -124 -28 -124 -134v-67h186l-10 -42h-176v-495h-50v494h-292v-494h-50v493h-84v44
h84v67c0 133 84 175 177 175c33 0 72 -4 106 -12z" />
    <glyph glyph-name="f_b" unicode="fb" horiz-adv-x="952" 
d="M903 271c0 -201 -103 -287 -236 -287c-68 0 -142 22 -213 58v696h-169c-68 0 -124 -28 -124 -134v-67h186l-10 -42h-176v-495h-50v495h-84v42h84v67c0 133 84 175 182 175h213v-286c82 49 123 61 171 61c146 0 226 -87 226 -283zM851 271c0 171 -65 242 -174 242
c-50 0 -112 -27 -171 -64v-382c49 -25 107 -42 161 -42c112 0 184 77 184 246z" />
    <glyph glyph-name="f_f_b" unicode="ffb" horiz-adv-x="1294" 
d="M394 767l-10 -41c-31 6 -65 12 -96 12c-68 0 -127 -28 -127 -134v-67h292v67c0 133 84 175 182 175h213v-286c82 49 123 61 171 61c146 0 226 -87 226 -283c0 -201 -103 -287 -236 -287c-68 0 -142 22 -213 58v696h-169c-68 0 -124 -28 -124 -134v-67h186l-10 -42h-176
v-495h-50v494h-292v-494h-50v494h-84v43h84v67c0 133 84 175 177 175c33 0 72 -4 106 -12zM1193 271c0 171 -65 242 -174 242c-50 0 -112 -27 -171 -64v-382c49 -25 107 -42 161 -42c112 0 184 77 184 246z" />
    <glyph glyph-name="f_f_h" unicode="ffh" horiz-adv-x="1278" 
d="M394 767l-10 -41c-31 6 -65 12 -96 12c-68 0 -127 -28 -127 -134v-67h292v67c0 133 84 175 182 175h209v-320l63 44c57 40 86 51 132 51c103 0 180 -54 180 -202v-352h-50v352c0 126 -56 160 -130 160c-37 0 -63 -8 -136 -60l-59 -42v-410h-49v738h-168
c-68 0 -125 -28 -125 -134v-67h187l-10 -41h-177v-496h-49v495h-292v-495h-50v494h-84v43h84v67c0 133 84 175 177 175c33 0 72 -4 106 -12z" />
    <glyph glyph-name="f_f_k" unicode="ffk" horiz-adv-x="1244" 
d="M394 767l-10 -41c-31 6 -65 12 -96 12c-68 0 -127 -28 -127 -134v-67h292v67c0 133 84 175 182 175h210v-482l303 240h75l-257 -201l258 -336h-67l-230 306l-82 -65v-241h-50v738h-168c-68 0 -124 -28 -124 -134v-67h186l-10 -42h-176v-495h-50v494h-292v-494h-50v493
h-84v44h84v67c0 133 84 175 177 175c33 0 72 -4 106 -12z" />
    <glyph glyph-name="f_h" unicode="fh" horiz-adv-x="936" 
d="M877 0h-50v352c0 126 -56 160 -130 160c-37 0 -63 -8 -136 -60l-59 -42v-410h-49v738h-168c-68 0 -124 -28 -124 -134v-67h186l-10 -42h-176v-495h-50v495h-84v42h84v67c0 133 84 175 182 175h209v-320l63 44c57 40 86 51 132 51c103 0 180 -54 180 -202v-352z" />
    <glyph glyph-name="f_j" unicode="fj" horiz-adv-x="564" 
d="M502 -110c0 -69 -26 -132 -138 -132h-43v45h43c72 0 88 31 88 102v590h-291v-495h-50v495h-84v42h84v67c0 133 84 175 174 175c33 0 63 -4 97 -12l-8 -42c-33 6 -58 13 -89 13c-68 0 -124 -28 -124 -134v-67h341v-647zM502 725c0 -12 -1 -12 -11 -12h-44
c-10 0 -11 0 -11 12v41c0 13 1 13 11 13h44c10 0 11 0 11 -13v-41z" />
    <glyph glyph-name="f_f_j" unicode="ffj" horiz-adv-x="907" 
d="M394 767l-10 -41c-31 6 -65 12 -96 12c-68 0 -127 -28 -127 -134v-67h292v67c0 133 84 175 174 175c33 0 63 -4 97 -12l-8 -42c-33 6 -58 13 -89 13c-68 0 -124 -28 -124 -134v-67h342v-647c0 -69 -27 -132 -139 -132h-43v45h43c72 0 89 31 89 102v590h-292v-495h-50v495
h-292v-495h-50v495h-84v42h84v67c0 133 84 175 177 175c33 0 72 -4 106 -12zM844 725c0 -12 -1 -12 -11 -12h-44c-10 0 -11 0 -11 12v41c0 13 1 13 11 13h44c10 0 11 0 11 -13v-41z" />
    <glyph glyph-name="f_k" unicode="fk" horiz-adv-x="902" 
d="M882 0h-67l-230 306l-82 -65v-241h-50v738h-168c-68 0 -124 -28 -124 -134v-67h186l-10 -42h-176v-495h-50v495h-84v42h84v67c0 133 84 175 182 175h210v-482l303 240h75l-257 -201z" />
    <glyph glyph-name=".notdef" horiz-adv-x="500" 
d="M12 0v665h475v-665h-475zM88 618l162 -243l161 243h-323zM60 575v-484c0 -1 161 242 161 242zM440 575l-162 -242l162 -243v485zM411 48l-161 242l-162 -242h323z" />
    <glyph glyph-name="space" unicode=" " horiz-adv-x="230" 
 />
    <glyph glyph-name="exclam" unicode="!" horiz-adv-x="253" 
d="M153 390l-13 -202h-28l-12 202v389h53v-389zM164 11c0 -11 0 -11 -10 -11h-56c-10 0 -10 0 -10 11v53c0 12 0 12 10 12h56c10 0 10 0 10 -12v-53z" />
    <glyph glyph-name="quotedbl" unicode="&#x22;" horiz-adv-x="332" 
d="M283 721l-30 -234c-2 -12 -4 -14 -12 -14h-5c-10 0 -12 3 -12 14v234h59zM116 721l-30 -234c-2 -12 -4 -14 -12 -14h-5c-10 0 -12 3 -12 14v234h59z" />
    <glyph glyph-name="numbersign" unicode="#" horiz-adv-x="574" 
d="M529 239h-143l-28 -200h-37l27 200h-170l-27 -200h-38l26 200h-94v37h99l25 174h-124v37h128l28 199h38l-27 -199h170l28 199h37l-27 -199h109v-37h-112l-25 -174h137v-37zM377 450h-169l-26 -174h170z" />
    <glyph glyph-name="dollar" unicode="$" 
d="M511 240c0 -79 -61 -171 -202 -177v-133h-39v132c-124 0 -184 67 -190 137h49c6 -60 58 -96 160 -96c103 0 174 52 174 137c0 72 -19 101 -94 112l-158 24c-96 15 -120 70 -120 139c0 71 39 150 179 160v108h39v-107c126 -6 182 -68 188 -146h-47c-6 67 -55 104 -159 104
c-111 0 -152 -52 -152 -119c0 -56 18 -84 85 -94l149 -23c85 -13 138 -55 138 -158z" />
    <glyph glyph-name="percent" unicode="%" horiz-adv-x="849" 
d="M326 530c0 -135 -21 -224 -138 -224c-118 0 -139 89 -139 224c0 130 25 215 139 215c113 0 138 -85 138 -215zM281 530c0 102 -7 175 -93 175c-87 0 -94 -73 -94 -175c0 -106 7 -184 94 -184s93 78 93 184zM685 737l-485 -753h-42l486 753h41zM800 215
c0 -135 -21 -224 -138 -224c-118 0 -139 89 -139 224c0 130 25 215 139 215c113 0 138 -85 138 -215zM755 215c0 102 -7 175 -93 175c-87 0 -94 -73 -94 -175c0 -106 7 -184 94 -184s93 78 93 184z" />
    <glyph glyph-name="ampersand" unicode="&#x26;" horiz-adv-x="636" 
d="M639 -3l-54 -13l-94 99c-46 -61 -115 -99 -205 -99c-125 0 -238 51 -238 198v30c0 77 35 130 107 163l42 19l-33 34c-35 36 -51 82 -51 137v18c0 112 78 154 175 154c96 0 177 -44 177 -154v-18c0 -73 -33 -113 -96 -142l-93 -43l209 -220c20 46 31 102 31 168v28h47v-28
c0 -75 -15 -146 -45 -203zM416 565v18c0 60 -24 114 -128 114s-126 -52 -126 -114v-18c0 -58 10 -74 47 -114l33 -36l96 44c59 27 78 45 78 106zM460 115l-231 244l-45 -20c-48 -21 -87 -51 -87 -127v-30c0 -117 83 -157 189 -157c74 0 134 32 174 90z" />
    <glyph glyph-name="quoteright" unicode="&#x2019;" horiz-adv-x="160" 
d="M120 657c0 -65 -34 -120 -86 -158l-14 13c49 45 67 81 67 133h-33c-10 0 -10 0 -10 11v53c0 12 0 12 10 12h56c10 0 10 0 10 -12v-52z" />
    <glyph glyph-name="parenleft" unicode="(" horiz-adv-x="315" 
d="M290 -163c-179 13 -202 246 -202 467s23 454 202 467v-34c-156 -15 -148 -307 -148 -433c0 -117 -9 -418 148 -433v-34z" />
    <glyph glyph-name="parenright" unicode=")" horiz-adv-x="315" 
d="M227 304c0 -221 -23 -454 -202 -467v34c157 15 148 316 148 433c0 126 8 418 -148 433v34c179 -13 202 -246 202 -467z" />
    <glyph glyph-name="asterisk" unicode="*" horiz-adv-x="395" 
d="M360 582c0 -2 -2 -3 -4 -3l-137 -26l95 -106c1 -1 2 -2 2 -3c0 -2 -2 -3 -5 -6l-34 -25c-3 -3 -6 -4 -7 -4s-1 1 -2 2l-69 124l-69 -124c-1 -2 -2 -2 -3 -2c-2 0 -4 1 -8 4l-35 24c-3 2 -4 3 -4 5c0 1 0 2 2 4l95 104l-139 28c-2 0 -3 1 -3 3c0 1 0 3 1 6l14 40
c1 4 2 7 4 7c1 0 1 -1 2 -1l127 -59l-14 142v2c0 3 1 3 7 3h43c6 0 7 0 7 -3v-2l-17 -141l129 59c1 0 2 1 3 1c2 0 4 -2 5 -7l12 -39c1 -3 2 -6 2 -7z" />
    <glyph glyph-name="plus" unicode="+" 
d="M538 339h-220v-222h-44v222h-222v42h222v222h44v-222h220v-42z" />
    <glyph glyph-name="comma" unicode="," horiz-adv-x="220" 
d="M150 12c0 -65 -34 -120 -86 -158l-14 13c49 45 67 81 67 133h-33c-10 0 -10 0 -10 11v53c0 12 0 12 10 12h56c10 0 10 0 10 -12v-52z" />
    <glyph glyph-name="hyphen" unicode="-" horiz-adv-x="353" 
d="M321 306h-289v47h289v-47z" />
    <glyph glyph-name="period" unicode="." horiz-adv-x="220" 
d="M148 11c0 -11 0 -11 -10 -11h-56c-10 0 -10 0 -10 11v53c0 12 0 12 10 12h56c10 0 10 0 10 -12v-53z" />
    <glyph glyph-name="slash" unicode="/" horiz-adv-x="502" 
d="M446 737l-342 -753h-48l342 753h48z" />
    <glyph glyph-name="zero" unicode="0" 
d="M527 369c0 -231 -34 -385 -232 -385s-232 154 -232 385c0 223 42 368 232 368s232 -145 232 -368zM475 369c0 190 -14 325 -180 325s-180 -135 -180 -325c0 -198 13 -342 180 -342s180 144 180 342z" />
    <glyph glyph-name="one" unicode="1" 
d="M490 0h-389v42h169v636l-169 -38v43l221 50v-691h168v-42z" />
    <glyph glyph-name="two" unicode="2" 
d="M517 542c0 -228 -338 -247 -397 -500h351v110h44v-152h-450c12 302 401 332 401 542c0 110 -64 152 -154 152c-130 0 -176 -56 -190 -126h-45c11 76 66 169 235 169c118 0 205 -64 205 -195z" />
    <glyph glyph-name="three" unicode="3" 
d="M533 204c0 -148 -97 -220 -242 -220c-124 0 -192 41 -241 133l42 21c43 -78 91 -114 199 -114c122 0 191 63 191 180c0 104 -72 157 -164 157h-104l-12 46h116c76 0 150 40 150 150c0 93 -53 140 -163 140c-86 0 -152 -24 -191 -101l-39 19c43 84 117 122 230 122
c159 0 214 -84 214 -180c0 -61 -25 -133 -116 -172c90 -32 130 -100 130 -181z" />
    <glyph glyph-name="four" unicode="4" 
d="M562 202h-82v-202h-48v202h-387v57l372 462h63v-476h82v-43zM432 245v423l-339 -423h339z" />
    <glyph glyph-name="five" unicode="5" 
d="M527 212c0 -128 -72 -228 -249 -228c-124 0 -192 41 -241 133l42 21c43 -78 91 -111 199 -111c135 0 196 72 196 185c0 147 -71 188 -196 188c-68 0 -134 -10 -183 -28l-28 23l38 326h393l-12 -42h-342l-30 -257c58 17 132 22 164 22c144 0 249 -56 249 -232z" />
    <glyph glyph-name="six" unicode="6" 
d="M531 233c0 -154 -57 -249 -235 -249c-244 0 -235 170 -235 350c0 190 -6 403 250 403c86 0 155 -26 194 -74l-31 -29c-33 33 -80 60 -163 60c-135 0 -199 -66 -199 -281c0 -10 1 -20 1 -31c55 62 118 80 183 80c171 0 235 -76 235 -229zM480 233c0 138 -57 186 -184 186
c-107 0 -184 -63 -184 -186c0 -148 56 -206 184 -206s184 58 184 206z" />
    <glyph glyph-name="seven" unicode="7" 
d="M535 667l-346 -667h-59l357 679h-371v-111h-44v153h463v-54z" />
    <glyph glyph-name="eight" unicode="8" 
d="M535 204c0 -139 -64 -220 -234 -220s-234 81 -234 220c0 82 34 145 115 181c-69 31 -105 83 -105 162c0 126 69 190 224 190s224 -64 224 -190c0 -79 -36 -131 -105 -162c81 -36 115 -99 115 -181zM475 547c0 129 -84 147 -174 147s-174 -18 -174 -147
c0 -103 74 -141 131 -141h86c57 0 131 38 131 141zM484 204c0 81 -47 156 -140 156h-86c-93 0 -140 -75 -140 -156c0 -135 63 -177 183 -177s183 42 183 177z" />
    <glyph glyph-name="nine" unicode="9" 
d="M529 387c0 -190 6 -403 -250 -403c-86 0 -155 26 -194 74l31 29c33 -33 80 -60 163 -60c135 0 199 66 199 281c0 10 -1 20 -1 31c-55 -62 -118 -80 -183 -80c-171 0 -235 76 -235 229c0 154 57 249 235 249c244 0 235 -170 235 -350zM478 488c0 148 -56 206 -184 206
s-184 -58 -184 -206c0 -138 57 -186 184 -186c107 0 184 63 184 186z" />
    <glyph glyph-name="colon" unicode=":" horiz-adv-x="220" 
d="M148 472c0 -11 0 -11 -10 -11h-56c-10 0 -10 0 -10 11v53c0 12 0 12 10 12h56c10 0 10 0 10 -12v-53zM148 11c0 -11 0 -11 -10 -11h-56c-10 0 -10 0 -10 11v53c0 12 0 12 10 12h56c10 0 10 0 10 -12v-53z" />
    <glyph glyph-name="semicolon" unicode=";" horiz-adv-x="220" 
d="M147 472c0 -11 0 -11 -10 -11h-56c-10 0 -10 0 -10 11v53c0 12 0 12 10 12h56c10 0 10 0 10 -12v-53zM147 12c0 -64 -34 -120 -86 -158l-11 10c41 40 64 84 64 136h-33c-10 0 -10 0 -10 11v53c0 12 0 12 10 12h56c10 0 10 0 10 -12v-52z" />
    <glyph glyph-name="less" unicode="&#x3c;" 
d="M468 80h-62l-281 280l281 280h58l-277 -280z" />
    <glyph glyph-name="equal" unicode="=" 
d="M533 478h-476v41h476v-41zM533 203h-476v43h476v-43z" />
    <glyph glyph-name="greater" unicode="&#x3e;" 
d="M466 360l-281 -280h-62l281 280l-277 280h58z" />
    <glyph glyph-name="question" unicode="?" horiz-adv-x="490" 
d="M453 586c0 -73 -41 -119 -96 -166c-80 -69 -111 -90 -111 -177v-64h-53v64c0 107 66 153 126 204c70 59 81 84 81 139v20c0 93 -39 145 -144 145c-120 0 -164 -42 -169 -133h-49c3 84 37 178 218 178c123 0 197 -59 197 -190v-20zM259 11c0 -11 0 -11 -10 -11h-56
c-10 0 -10 0 -10 11v53c0 12 0 12 10 12h56c10 0 10 0 10 -12v-53z" />
    <glyph glyph-name="at" unicode="@" horiz-adv-x="941" 
d="M865 322c0 -157 -87 -292 -227 -292h-88l12 78c-66 -58 -115 -91 -190 -91c-62 0 -115 43 -115 160c0 177 75 312 257 312c38 0 85 -5 130 -15c7 -20 12 -46 12 -72c0 -13 -2 -26 -4 -39l-42 -290h28c113 0 180 109 180 249c0 154 -91 291 -324 291
c-248 0 -368 -181 -368 -373c0 -176 105 -345 311 -345c91 0 154 26 200 51l23 -39c-74 -36 -137 -56 -223 -56c-238 0 -361 190 -361 389c0 210 136 423 418 423c254 0 371 -150 371 -341zM605 402c0 14 -1 23 -3 34c-37 7 -65 10 -88 10c-160 0 -204 -125 -204 -269
c0 -89 30 -114 69 -114c66 0 114 36 196 112l27 185c2 12 3 29 3 42z" />
    <glyph glyph-name="A" unicode="A" horiz-adv-x="644" 
d="M614 0h-51l-84 234h-318l-84 -234h-47l260 721h65zM463 279l-143 403l-143 -403h286z" />
    <glyph glyph-name="B" unicode="B" horiz-adv-x="602" 
d="M562 208c0 -141 -87 -208 -253 -208h-244v721h244c154 0 218 -62 218 -178c0 -75 -40 -139 -106 -160c83 -14 141 -82 141 -175zM476 543c0 118 -79 136 -167 136h-195v-277h206c76 0 156 32 156 141zM511 208c0 133 -125 151 -191 151h-206v-317h195
c145 0 202 45 202 166z" />
    <glyph glyph-name="C" unicode="C" horiz-adv-x="599" 
d="M564 113c-31 -60 -95 -129 -231 -129c-232 0 -288 160 -288 377c0 245 68 376 280 376c161 0 223 -88 235 -169h-43c-15 70 -70 126 -193 126c-204 0 -228 -150 -228 -333c0 -166 24 -334 237 -334c91 0 156 33 195 109z" />
    <glyph glyph-name="D" unicode="D" horiz-adv-x="636" 
d="M601 369c0 -209 -92 -369 -343 -369h-193v721h193c247 0 343 -147 343 -352zM550 369c0 208 -97 310 -292 310h-144v-637h144c197 0 292 112 292 327z" />
    <glyph glyph-name="E" unicode="E" horiz-adv-x="546" 
d="M506 0h-441v721h440v-42h-391v-276h344l-12 -43h-332v-318h392v-42z" />
    <glyph glyph-name="F" unicode="F" horiz-adv-x="479" 
d="M449 721l-12 -42h-323v-287h275v-42h-275v-350h-49v721h384z" />
    <glyph glyph-name="G" unicode="G" horiz-adv-x="648" 
d="M583 79c-49 -43 -118 -95 -239 -95c-213 0 -299 130 -299 377c0 226 73 376 298 376c161 0 224 -86 236 -169h-43c-15 73 -71 126 -193 126c-204 0 -248 -142 -248 -333c0 -179 42 -334 249 -334c91 0 140 31 190 69v217h-192l-11 41h252v-275z" />
    <glyph glyph-name="H" unicode="H" horiz-adv-x="677" 
d="M612 0h-49v358h-449v-358h-49v721h49v-315h449v315h49v-721z" />
    <glyph glyph-name="I" unicode="I" horiz-adv-x="179" 
d="M114 0h-49v721h49v-721z" />
    <glyph glyph-name="J" unicode="J" horiz-adv-x="410" 
d="M345 201c0 -166 -77 -217 -198 -217c-49 0 -86 11 -122 37l23 33c31 -21 63 -30 99 -30c109 0 149 53 149 177v520h49v-520z" />
    <glyph glyph-name="K" unicode="K" horiz-adv-x="602" 
d="M582 0h-61l-290 382l-117 -115v-267h-49v721h49v-394l401 394h61l-311 -306z" />
    <glyph glyph-name="L" unicode="L" horiz-adv-x="484" 
d="M454 0h-389v721h49v-679h340v-42z" />
    <glyph glyph-name="M" unicode="M" horiz-adv-x="788" 
d="M724 0h-48l-47 647l-209 -469h-52l-209 469l-47 -647h-48l51 721h60l219 -494l219 494h60z" />
    <glyph glyph-name="N" unicode="N" horiz-adv-x="689" 
d="M624 0h-52l-458 645v-645h-49v721h52l459 -646l-1 646h49v-721z" />
    <glyph glyph-name="O" unicode="O" horiz-adv-x="665" 
d="M620 369c0 -235 -60 -385 -289 -385s-286 150 -286 385c0 210 57 368 286 368s289 -158 289 -368zM569 369c0 198 -49 325 -238 325c-190 0 -235 -127 -235 -325c0 -218 45 -342 235 -342c189 0 238 124 238 342z" />
    <glyph glyph-name="P" unicode="P" horiz-adv-x="571" 
d="M536 502c0 -122 -71 -219 -247 -219h-175v-283h-49v721h224c179 0 247 -98 247 -219zM486 502c0 123 -72 177 -197 177h-175v-354h175c123 0 197 50 197 177z" />
    <glyph glyph-name="Q" unicode="Q" horiz-adv-x="656" 
d="M620 371c0 -181 -31 -377 -262 -385c31 -2 48 -6 60 -10l197 -72l-21 -45l-360 133c-39 14 -66 29 -84 44c-96 81 -105 218 -105 335c0 209 57 366 286 366s289 -158 289 -366zM569 371c0 197 -49 323 -238 323c-190 0 -235 -126 -235 -323c0 -216 45 -344 235 -344
c192 0 238 127 238 344z" />
    <glyph glyph-name="R" unicode="R" horiz-adv-x="583" 
d="M533 0h-57l-200 316h-162v-316h-49v721h217c180 0 245 -85 245 -204c0 -101 -55 -178 -196 -200zM476 517c0 124 -72 162 -194 162h-168v-320h167c122 0 195 47 195 158z" />
    <glyph glyph-name="S" unicode="S" horiz-adv-x="580" 
d="M540 198c0 -108 -75 -214 -256 -214c-109 0 -202 42 -240 130l41 21c40 -77 105 -108 199 -108c151 0 204 86 204 171c0 82 -32 130 -122 146l-160 29c-115 21 -147 98 -147 181c0 88 48 183 230 183c140 0 190 -60 215 -104l-42 -21c-32 51 -79 82 -173 82
c-137 0 -180 -61 -180 -140s27 -119 110 -134l160 -28c114 -20 161 -94 161 -194z" />
    <glyph glyph-name="T" unicode="T" horiz-adv-x="568" 
d="M538 679h-229v-679h-49v679h-230v42h508v-42z" />
    <glyph glyph-name="U" unicode="U" horiz-adv-x="674" 
d="M614 294c0 -225 -112 -310 -277 -310s-277 85 -277 310v427h49v-427c0 -187 80 -267 228 -267s228 79 228 267v427h49v-427z" />
    <glyph glyph-name="V" unicode="V" horiz-adv-x="643" 
d="M613 721l-259 -721h-64l-260 721h51l241 -673l240 673h51z" />
    <glyph glyph-name="W" unicode="W" horiz-adv-x="853" 
d="M823 721l-163 -721h-74l-161 628l-158 -628h-74l-163 721h49l152 -685l165 661h60l166 -661l152 685h49z" />
    <glyph glyph-name="X" unicode="X" horiz-adv-x="625" 
d="M590 0h-57l-215 333l-226 -333h-57l257 373l-226 348h57l200 -310l205 310h56l-236 -348z" />
    <glyph glyph-name="Y" unicode="Y" horiz-adv-x="611" 
d="M581 721l-251 -428v-293h-49v293l-251 428h52l224 -384l224 384h51z" />
    <glyph glyph-name="Z" unicode="Z" horiz-adv-x="558" 
d="M513 672l-416 -630h408v-42h-460v48l416 631h-394l-12 42h458v-49z" />
    <glyph glyph-name="bracketleft" unicode="[" horiz-adv-x="330" 
d="M305 -163h-187v934h187v-37l-139 -10v-840l139 -10v-37z" />
    <glyph glyph-name="backslash" unicode="\" horiz-adv-x="502" 
d="M446 -16h-48l-342 753h48z" />
    <glyph glyph-name="bracketright" unicode="]" horiz-adv-x="330" 
d="M212 -163h-187v37l139 10v840l-139 10v37h187v-934z" />
    <glyph glyph-name="asciicircum" unicode="^" 
d="M440 543l-28 -21l-117 144l-117 -144l-28 21l128 180c9 13 14 14 17 14s8 -1 17 -14z" />
    <glyph glyph-name="underscore" unicode="_" horiz-adv-x="490" 
d="M500 -112h-510v47h510v-47z" />
    <glyph glyph-name="quoteleft" unicode="&#x2018;" horiz-adv-x="160" 
d="M140 721c-49 -45 -67 -81 -67 -133h33c10 0 10 0 10 -11v-53c0 -12 0 -12 -10 -12h-56c-10 0 -10 0 -10 12v52c0 65 34 120 86 158z" />
    <glyph glyph-name="a" unicode="a" horiz-adv-x="541" 
d="M471 0h-33l-12 61c-55 -47 -124 -77 -206 -77c-119 0 -171 69 -171 172c0 129 100 164 195 164c68 0 123 -14 178 -31v113c0 58 -32 111 -138 111c-75 0 -124 -8 -160 -53l-34 23c38 53 104 71 194 71c156 0 187 -93 187 -152v-402zM422 102v150c-64 19 -118 29 -178 29
c-58 0 -144 -16 -144 -125c0 -99 52 -131 120 -131c77 0 124 19 202 77z" />
    <glyph glyph-name="b" unicode="b" horiz-adv-x="566" 
d="M517 271c0 -201 -103 -287 -236 -287c-68 0 -140 22 -211 58v737h50v-286c82 49 123 61 171 61c146 0 226 -87 226 -283zM465 271c0 171 -65 242 -174 242c-50 0 -112 -27 -171 -64v-382c49 -25 107 -42 161 -42c112 0 184 77 184 246z" />
    <glyph glyph-name="c" unicode="c" horiz-adv-x="513" 
d="M486 85c-34 -63 -87 -101 -197 -101c-176 0 -240 100 -240 285s64 285 240 285c110 0 163 -39 197 -102l-42 -17c-31 53 -76 78 -153 78c-131 0 -191 -70 -191 -244s60 -244 191 -244c77 0 122 25 153 78z" />
    <glyph glyph-name="d" unicode="d" horiz-adv-x="565" 
d="M495 0h-24l-25 46c-44 -36 -101 -62 -160 -62c-122 0 -237 68 -237 284c0 196 80 286 226 286c59 0 115 -16 170 -49v274h50v-779zM445 93v366c-76 45 -115 53 -170 53c-124 0 -175 -84 -175 -244c0 -121 37 -243 186 -243c58 0 102 24 159 68z" />
    <glyph glyph-name="e" unicode="e" horiz-adv-x="554" 
d="M508 260h-410c4 -158 52 -235 190 -235c77 0 130 25 161 78l42 -18c-34 -63 -93 -101 -203 -101c-165 0 -239 83 -239 286c0 185 59 284 240 284c164 0 219 -116 219 -279v-15zM456 301c0 115 -40 210 -167 210c-125 0 -186 -50 -190 -210h357z" />
    <glyph glyph-name="f" unicode="f" horiz-adv-x="375" 
d="M394 767l-10 -41c-31 6 -65 12 -96 12c-68 0 -127 -28 -127 -134v-67h186l-10 -43h-176v-494h-50v494h-84v43h84v67c0 133 84 175 177 175c33 0 72 -4 106 -12z" />
    <glyph glyph-name="g" unicode="g" horiz-adv-x="573" 
d="M546 554l-11 -62h-87c31 -38 41 -80 41 -119c0 -114 -60 -179 -208 -179c-36 0 -61 5 -81 8c-6 1 -6 1 -16 1c-39 0 -61 -25 -61 -53c0 -33 20 -39 47 -44l223 -41c108 -20 133 -79 133 -146c0 -120 -100 -160 -246 -160c-122 0 -248 22 -248 173c0 66 34 113 84 146
c-27 16 -39 34 -39 72c0 31 18 65 61 79c-50 39 -66 90 -66 144c0 129 93 181 209 181c55 0 94 -9 141 -36l89 36h35zM436 373c0 89 -51 140 -155 140c-92 0 -156 -36 -156 -140c0 -110 73 -138 156 -138c95 0 155 23 155 138zM473 -81c0 60 -21 93 -84 104l-233 42
c-57 -34 -71 -80 -71 -133c0 -107 74 -132 195 -132c149 0 193 47 193 119z" />
    <glyph glyph-name="h" unicode="h" horiz-adv-x="554" 
d="M495 0h-50v352c0 126 -56 160 -130 160c-37 0 -63 -8 -136 -60l-59 -42v-410h-50v779h50v-320l63 44c57 40 86 51 132 51c103 0 180 -54 180 -202v-352z" />
    <glyph glyph-name="i" unicode="i" horiz-adv-x="190" 
d="M128 725c0 -12 -1 -12 -11 -12h-44c-10 0 -11 0 -11 12v41c0 13 1 13 11 13h44c10 0 11 0 11 -13v-41zM120 0h-50v537h50v-537z" />
    <glyph glyph-name="j" unicode="j" horiz-adv-x="190" 
d="M128 725c0 -12 -1 -12 -11 -12h-44c-10 0 -11 0 -11 12v41c0 13 1 13 11 13h44c10 0 11 0 11 -13v-41zM120 -110c0 -69 -26 -132 -138 -132h-43v45h43c72 0 87 31 87 102v632h51v-647z" />
    <glyph glyph-name="k" unicode="k" horiz-adv-x="519" 
d="M499 0h-67l-230 306l-82 -65v-241h-50v779h50v-482l303 240h75l-257 -201z" />
    <glyph glyph-name="l" unicode="l" horiz-adv-x="222" 
d="M217 -8h-40c-72 0 -107 38 -107 121v666h50v-666c0 -56 19 -74 57 -74h40v-47z" />
    <glyph glyph-name="m" unicode="m" horiz-adv-x="854" 
d="M789 0h-49v345c0 100 -17 168 -104 168c-44 0 -91 -32 -142 -67l-44 -30c3 -23 5 -44 5 -62v-354h-50v354c0 72 -17 159 -104 159c-39 0 -89 -40 -130 -69l-51 -36v-408h-50v537h35l15 -79l58 41c37 26 75 55 123 55c69 0 115 -34 139 -97l54 38c49 34 89 59 142 59
c106 0 153 -61 153 -207v-347z" />
    <glyph glyph-name="n" unicode="n" horiz-adv-x="559" 
d="M495 0h-50v351c0 126 -56 161 -130 161c-37 0 -64 -9 -136 -61l-59 -42v-409h-50v537h34l16 -79l63 44c56 39 86 52 132 52c103 0 180 -55 180 -203v-351z" />
    <glyph glyph-name="o" unicode="o" horiz-adv-x="558" 
d="M509 270c0 -185 -62 -286 -230 -286s-230 101 -230 286s62 284 230 284s230 -99 230 -284zM456 270c0 173 -47 243 -177 243c-129 0 -179 -70 -179 -243c0 -172 49 -245 179 -245s177 73 177 245z" />
    <glyph glyph-name="p" unicode="p" horiz-adv-x="566" 
d="M517 280c0 -184 -74 -296 -241 -296c-39 0 -87 5 -156 57v-282h-50v778h37l10 -66c62 50 111 83 179 83c153 0 221 -110 221 -274zM465 280c0 126 -38 233 -169 233c-67 0 -123 -45 -176 -85v-338c59 -44 110 -65 156 -65c133 0 189 93 189 255z" />
    <glyph glyph-name="q" unicode="q" horiz-adv-x="566" 
d="M496 -241h-50v274c-52 -31 -105 -49 -162 -49c-134 0 -235 62 -235 279c0 226 97 291 236 291c76 0 161 -18 211 -31v-764zM446 77v414c-49 12 -97 22 -161 22c-114 0 -185 -57 -185 -250c0 -189 79 -238 184 -238c52 0 99 17 162 52z" />
    <glyph glyph-name="r" unicode="r" horiz-adv-x="337" 
d="M314 504c-13 2 -25 4 -36 4c-44 0 -74 -17 -116 -49l-46 -35v-424h-50v537h32l15 -66l34 25c41 30 86 58 136 58c10 0 20 0 31 -3v-47z" />
    <glyph glyph-name="s" unicode="s" horiz-adv-x="477" 
d="M440 150c0 -105 -85 -166 -202 -166c-100 0 -170 34 -200 101l46 16c26 -53 88 -76 154 -76c80 0 151 39 151 125c0 64 -38 90 -88 98l-137 23c-68 11 -114 53 -114 132c0 105 94 151 190 151c72 0 145 -26 178 -77l-40 -20c-29 40 -84 56 -138 56
c-76 0 -141 -30 -141 -110c0 -42 15 -77 78 -87l136 -22c73 -12 127 -59 127 -144z" />
    <glyph glyph-name="t" unicode="t" horiz-adv-x="393" 
d="M386 17c-38 -23 -90 -33 -134 -33c-73 0 -136 38 -136 139v372h-97v42h95v189l51 13v-202h190l-13 -42h-177v-372c0 -77 45 -98 97 -98c31 0 67 10 95 27z" />
    <glyph glyph-name="u" unicode="u" horiz-adv-x="559" 
d="M489 0h-33l-16 80l-63 -44c-56 -39 -87 -52 -133 -52c-103 0 -179 55 -179 203v350h49v-350c0 -126 56 -161 130 -161c37 0 63 9 136 60l60 42v409h49v-537z" />
    <glyph glyph-name="v" unicode="v" horiz-adv-x="504" 
d="M481 537l-195 -537h-68l-194 537h51l178 -497l177 497h51z" />
    <glyph glyph-name="w" unicode="w" horiz-adv-x="766" 
d="M742 537l-161 -537h-59l-139 472l-139 -472h-59l-161 537h52l136 -481l142 481h57l142 -481l137 481h52z" />
    <glyph glyph-name="x" unicode="x" horiz-adv-x="515" 
d="M491 0h-60l-175 240l-172 -240h-58l196 273l-184 264h60l159 -227l160 227h57l-183 -259z" />
    <glyph glyph-name="y" unicode="y" horiz-adv-x="504" 
d="M481 537l-249 -684c-27 -74 -72 -95 -151 -95h-50v47h50c63 0 83 7 107 72l38 104l-202 556h51l178 -496l177 496h51z" />
    <glyph glyph-name="z" unicode="z" horiz-adv-x="484" 
d="M435 0h-386v59l334 435h-316l-13 43h379v-60l-337 -434h339v-43z" />
    <glyph glyph-name="braceleft" unicode="{" horiz-adv-x="340" 
d="M321 -163h-67c-51 0 -114 16 -114 105v253c0 30 -7 75 -65 87v45c58 12 65 57 65 87v252c0 89 63 105 114 105h67v-38h-67c-45 0 -65 -16 -65 -67v-252c0 -34 -25 -94 -77 -109c57 -17 77 -76 77 -110v-253c0 -51 20 -67 65 -67h67v-38z" />
    <glyph glyph-name="bar" unicode="|" horiz-adv-x="270" 
d="M159 -50h-47v821h47v-821z" />
    <glyph glyph-name="braceright" unicode="}" horiz-adv-x="340" 
d="M265 282c-58 -12 -65 -57 -65 -87v-253c0 -89 -63 -105 -114 -105h-67v38h67c45 0 65 16 65 67v253c0 34 19 93 75 109c-61 18 -75 76 -75 110v252c0 51 -20 67 -65 67h-67v38h67c51 0 114 -16 114 -105v-252c0 -30 7 -75 65 -87v-45z" />
    <glyph glyph-name="asciitilde" unicode="~" 
d="M538 420c-34 -49 -76 -69 -134 -69c-94 0 -141 86 -218 86c-58 0 -100 -20 -134 -69v45c34 49 76 69 134 69c105 0 143 -86 218 -86c58 0 100 20 134 69v-45z" />
    <glyph glyph-name="exclamdown" unicode="&#xa1;" horiz-adv-x="253" 
d="M164 473c0 -12 0 -12 -10 -12h-56c-10 0 -10 0 -10 12v53c0 11 0 11 10 11h56c10 0 10 0 10 -11v-53zM153 -242h-53v389l13 202h28l12 -202v-389z" />
    <glyph glyph-name="cent" unicode="&#xa2;" 
d="M501 490h-42c-16 56 -61 88 -138 88c-138 0 -174 -84 -174 -225c0 -153 43 -225 171 -225c80 0 115 30 137 58l35 -19c-39 -52 -80 -75 -150 -78v-139h-40v139c-152 7 -203 100 -203 264s51 257 203 264v146h40v-146c96 -6 148 -60 161 -127z" />
    <glyph glyph-name="sterling" unicode="&#xa3;" 
d="M532 680l-33 -30c-35 29 -90 46 -154 46c-108 0 -151 -45 -151 -138v-172h216v-43h-216v-206c0 -32 -12 -72 -35 -94h372v-43h-417v43c27 35 32 60 32 94v206h-87v43h87v172c0 103 51 179 199 179c83 0 147 -22 187 -57z" />
    <glyph glyph-name="fraction" unicode="&#x2044;" horiz-adv-x="341" 
d="M490 737l-485 -753h-42l486 753h41z" />
    <glyph glyph-name="yen" unicode="&#xa5;" 
d="M556 308h-226l-14 -29v-279h-50v279l-14 29h-225v38h205l-57 114h-148v38h129l-111 223h52l194 -399l194 399h52l-111 -223h130v-38h-149l-57 -114h206v-38z" />
    <glyph glyph-name="florin" unicode="&#x192;" 
d="M536 711l-14 -41c-28 7 -56 10 -78 10c-55 0 -81 -19 -93 -119l-18 -148h178l-16 -41h-167l-38 -323c-14 -121 -71 -159 -156 -159c-24 0 -51 3 -79 8l14 42c27 -5 50 -9 71 -9c55 0 90 26 100 115l38 326h-136l17 41h124l17 145c15 125 61 163 144 163
c34 0 61 -3 92 -10z" />
    <glyph glyph-name="section" unicode="&#xa7;" horiz-adv-x="580" 
d="M486 75c0 -134 -75 -187 -204 -187h-195v145h43v-104h152c113 0 157 37 157 146c0 66 -23 113 -91 131l-139 36c-93 24 -121 88 -121 182v109c0 133 67 188 190 188h208v-121h-43v79h-165c-110 0 -144 -44 -144 -149c0 -45 22 -91 91 -108l139 -35
c94 -24 122 -96 122 -180v-132zM440 201c0 90 -19 126 -90 144l-138 35c-30 8 -56 21 -81 51c0 -76 16 -128 92 -148l138 -36c18 -5 50 -14 79 -46z" />
    <glyph glyph-name="currency" unicode="&#xa4;" horiz-adv-x="580" 
d="M525 161c0 -5 -2 -9 -5 -12l-7 -7c-3 -3 -7 -5 -11 -5c-5 0 -11 3 -15 7l-81 82c-34 -27 -76 -41 -117 -41s-82 13 -116 40l-80 -80c-4 -4 -9 -7 -15 -7c-4 0 -8 2 -11 5l-7 7c-3 3 -5 7 -5 11c0 6 3 11 7 15l79 79c-28 35 -42 77 -42 119s14 83 41 117l-78 78
c-4 4 -7 10 -7 15s2 9 5 12l7 7c3 3 7 4 10 4c6 0 12 -3 16 -7l78 -78c34 27 75 41 117 41s84 -14 119 -42l80 80c4 4 9 7 15 7c4 0 8 -2 11 -5l7 -7c3 -3 5 -7 5 -11c0 -6 -3 -11 -7 -15l-80 -80c27 -34 40 -75 40 -116s-14 -83 -41 -117l81 -81c4 -4 7 -10 7 -15zM437 374
c0 82 -67 147 -148 147c-82 0 -148 -65 -148 -147s66 -148 148 -148s148 66 148 148z" />
    <glyph glyph-name="quotesingle" unicode="'" horiz-adv-x="160" 
d="M116 721l-30 -234c-2 -12 -5 -14 -13 -14h-5c-10 0 -11 3 -11 14v234h59z" />
    <glyph glyph-name="quotedblleft" unicode="&#x201c;" horiz-adv-x="332" 
d="M312 721c-49 -45 -67 -81 -67 -133h33c10 0 10 0 10 -11v-53c0 -12 0 -12 -10 -12h-56c-10 0 -10 0 -10 12v52c0 65 34 120 86 158zM140 721c-49 -45 -67 -81 -67 -133h33c10 0 10 0 10 -11v-53c0 -12 0 -12 -10 -12h-56c-10 0 -10 0 -10 12v52c0 65 34 120 86 158z" />
    <glyph glyph-name="guillemotleft" unicode="&#xab;" horiz-adv-x="548" 
d="M483 112l-33 -28l-170 185l170 185l33 -28l-132 -157zM266 112l-32 -28l-169 185l169 185l32 -28l-132 -157z" />
    <glyph glyph-name="guilsinglleft" unicode="&#x2039;" horiz-adv-x="340" 
d="M275 110l-31 -25l-179 184l179 184l31 -25l-142 -159z" />
    <glyph glyph-name="guilsinglright" unicode="&#x203a;" horiz-adv-x="340" 
d="M275 269l-179 -184l-31 25l142 159l-142 159l31 25z" />
    <glyph glyph-name="endash" unicode="&#x2013;" horiz-adv-x="437" 
d="M405 302h-373v54h373v-54z" />
    <glyph glyph-name="dagger" unicode="&#x2020;" horiz-adv-x="595" 
d="M543 461h-186l-45 9l9 -49v-421h-45v420l13 50l-51 -9h-186v40h186l53 -11l-15 48v241h45v-242l-10 -48l48 12h184v-40z" />
    <glyph glyph-name="daggerdbl" unicode="&#x2021;" horiz-adv-x="595" 
d="M543 283h-186l-45 9l9 -49v-243h-45v242l13 50l-51 -9h-186v40h186l53 -11l-15 48v85l13 50l-51 -9h-186v40h186l53 -11l-15 48v216h45v-217l-10 -48l48 12h184v-40h-186l-45 9l9 -49v-87l-10 -48l48 12h184v-40z" />
    <glyph glyph-name="periodcentered" unicode="&#xb7;" horiz-adv-x="228" 
d="M153 400c0 -12 0 -12 -10 -12h-61c-10 0 -11 0 -11 12v57c0 13 1 13 11 13h61c10 0 10 0 10 -13v-57z" />
    <glyph glyph-name="paragraph" unicode="&#xb6;" horiz-adv-x="497" 
d="M422 0h-39v682h-55v-682h-39v387h-68c-89 0 -161 75 -161 167s72 167 161 167h201v-721z" />
    <glyph glyph-name="bullet" unicode="&#x2022;" horiz-adv-x="467" 
d="M386 288c0 -84 -69 -152 -153 -152s-152 68 -152 152s68 153 152 153s153 -69 153 -153z" />
    <glyph glyph-name="quotesinglbase" unicode="&#x201a;" horiz-adv-x="160" 
d="M120 12c0 -65 -34 -120 -86 -158l-14 13c49 45 67 81 67 133h-33c-10 0 -10 0 -10 11v53c0 12 0 12 10 12h56c10 0 10 0 10 -12v-52z" />
    <glyph glyph-name="quotedblbase" unicode="&#x201e;" horiz-adv-x="332" 
d="M292 12c0 -65 -34 -120 -86 -158l-14 13c49 45 67 81 67 133h-33c-10 0 -10 0 -10 11v53c0 12 0 12 10 12h56c10 0 10 0 10 -12v-52zM120 12c0 -65 -34 -120 -86 -158l-14 13c49 45 67 81 67 133h-33c-10 0 -10 0 -10 11v53c0 12 0 12 10 12h56c10 0 10 0 10 -12v-52z
" />
    <glyph glyph-name="quotedblright" unicode="&#x201d;" horiz-adv-x="332" 
d="M292 657c0 -65 -34 -120 -86 -158l-14 13c49 45 67 81 67 133h-33c-10 0 -10 0 -10 11v53c0 12 0 12 10 12h56c10 0 10 0 10 -12v-52zM120 657c0 -65 -34 -120 -86 -158l-14 13c49 45 67 81 67 133h-33c-10 0 -10 0 -10 11v53c0 12 0 12 10 12h56c10 0 10 0 10 -12v-52z
" />
    <glyph glyph-name="guillemotright" unicode="&#xbb;" horiz-adv-x="548" 
d="M483 269l-170 -185l-31 28l132 157l-132 157l31 28zM268 269l-171 -185l-32 28l132 157l-132 157l32 28z" />
    <glyph glyph-name="ellipsis" unicode="&#x2026;" horiz-adv-x="653" 
d="M581 11c0 -11 0 -11 -10 -11h-56c-10 0 -10 0 -10 11v53c0 12 0 12 10 12h56c10 0 10 0 10 -12v-53zM365 11c0 -11 0 -11 -10 -11h-56c-10 0 -10 0 -10 11v53c0 12 0 12 10 12h56c10 0 10 0 10 -12v-53zM148 11c0 -11 0 -11 -10 -11h-56c-10 0 -10 0 -10 11v53
c0 12 0 12 10 12h56c10 0 10 0 10 -12v-53z" />
    <glyph glyph-name="perthousand" unicode="&#x2030;" horiz-adv-x="1196" 
d="M326 530c0 -135 -21 -224 -138 -224c-118 0 -139 89 -139 224c0 130 25 215 139 215c113 0 138 -85 138 -215zM281 530c0 102 -7 175 -93 175c-87 0 -94 -73 -94 -175c0 -106 7 -184 94 -184s93 78 93 184zM685 737l-485 -753h-42l486 753h41zM800 215
c0 -135 -21 -224 -138 -224c-118 0 -139 89 -139 224c0 130 25 215 139 215c113 0 138 -85 138 -215zM755 215c0 102 -7 175 -93 175c-87 0 -94 -73 -94 -175c0 -106 7 -184 94 -184s93 78 93 184zM1147 215c0 -135 -21 -224 -138 -224c-118 0 -139 89 -139 224
c0 130 25 215 139 215c113 0 138 -85 138 -215zM1102 215c0 102 -7 175 -93 175c-87 0 -94 -73 -94 -175c0 -106 7 -184 94 -184s93 78 93 184z" />
    <glyph glyph-name="questiondown" unicode="&#xbf;" horiz-adv-x="490" 
d="M314 473c0 -12 0 -12 -10 -12h-56c-10 0 -10 0 -10 12v53c0 11 0 11 10 11h56c10 0 10 0 10 -11v-53zM459 -81c-3 -84 -37 -178 -218 -178c-123 0 -197 59 -197 190v20c0 73 41 119 96 166c80 69 111 90 111 177v64h53v-64c0 -107 -66 -153 -126 -204
c-70 -59 -81 -84 -81 -139v-20c0 -93 39 -145 144 -145c120 0 164 42 169 133h49z" />
    <glyph glyph-name="grave" unicode="`" horiz-adv-x="327" 
d="M67 746l172 -142c4 -3 7 -3 12 2l12 11c3 3 4 6 1 9l-150 169z" />
    <glyph glyph-name="acute" unicode="&#xb4;" horiz-adv-x="327" 
d="M265 746l-172 -142c-4 -3 -7 -3 -12 2l-12 11c-3 3 -4 6 -1 9l150 169z" />
    <glyph glyph-name="circumflex" unicode="&#x2c6;" horiz-adv-x="432" 
d="M362 621l-23 -22l-123 115l-123 -115l-23 22l127 152c10 12 15 14 19 14s9 -2 19 -14z" />
    <glyph glyph-name="tilde" unicode="&#x2dc;" horiz-adv-x="481" 
d="M420 732l-64 -86c-11 -15 -24 -23 -40 -23c-12 0 -26 4 -40 13l-89 54c-8 5 -15 9 -21 9c-11 0 -14 -7 -25 -19l-55 -61l-24 19l63 87c11 15 24 22 40 22c12 0 26 -4 40 -13l91 -55c8 -5 13 -7 19 -7c11 0 14 4 25 17l55 63z" />
    <glyph glyph-name="macron" unicode="&#xaf;" horiz-adv-x="438" 
d="M374 665h-309v46h309v-46z" />
    <glyph glyph-name="breve" unicode="&#x2d8;" horiz-adv-x="432" 
d="M366 757c-33 -82 -75 -131 -150 -131s-117 49 -150 131l30 19c38 -70 65 -103 120 -103s82 33 120 103z" />
    <glyph glyph-name="dotaccent" unicode="&#x2d9;" horiz-adv-x="217" 
d="M145 659c0 -12 -1 -12 -11 -12h-50c-10 0 -11 0 -11 12v46c0 13 1 13 11 13h50c10 0 11 0 11 -13v-46z" />
    <glyph glyph-name="dieresis" unicode="&#xa8;" horiz-adv-x="424" 
d="M360 675c0 -12 -1 -12 -11 -12h-50c-10 0 -11 0 -11 12v47c0 13 1 12 11 12h50c10 0 11 1 11 -12v-47zM137 675c0 -12 -1 -12 -11 -12h-49c-10 0 -11 0 -11 12v47c0 13 1 12 11 12h49c10 0 11 1 11 -12v-47z" />
    <glyph glyph-name="ring" unicode="&#x2da;" horiz-adv-x="337" 
d="M278 711c0 -60 -50 -109 -110 -109s-109 49 -109 109s49 109 109 109s110 -49 110 -109zM240 711c0 40 -32 71 -72 71s-71 -31 -71 -71s31 -72 71 -72s72 32 72 72z" />
    <glyph glyph-name="cedilla" unicode="&#xb8;" horiz-adv-x="302" 
d="M243 -108c0 -58 -51 -71 -100 -71c-16 0 -33 1 -47 3l-36 5l4 27l35 -5c9 -1 22 -2 34 -2c32 0 67 8 67 43c0 22 -18 33 -39 33h-64l-25 34l35 42l30 -2l-29 -44h53c61 0 82 -27 82 -63z" />
    <glyph glyph-name="hungarumlaut" unicode="&#x2dd;" horiz-adv-x="566" 
d="M265 746l-172 -142c-4 -3 -7 -3 -12 2l-12 11c-4 4 -5 5 -1 9l150 169zM495 746l-172 -142c-4 -3 -7 -3 -12 2l-12 11c-4 4 -5 5 -1 9l150 169z" />
    <glyph glyph-name="ogonek" unicode="&#x2db;" horiz-adv-x="302" 
d="M242 -168l-36 -8c-15 -3 -35 -5 -53 -5c-48 0 -85 24 -85 69c0 25 8 46 28 64l64 58h47l-69 -67c-17 -16 -27 -30 -27 -54c0 -21 15 -39 52 -39c13 0 29 2 40 4l31 6z" />
    <glyph glyph-name="caron" unicode="&#x2c7;" horiz-adv-x="443" 
d="M367 772l-126 -148c-10 -12 -16 -14 -20 -14s-9 2 -19 14l-126 148l22 22l123 -118l124 118z" />
    <glyph glyph-name="emdash" unicode="&#x2014;" horiz-adv-x="890" 
d="M858 302h-826v54h826v-54z" />
    <glyph glyph-name="AE" unicode="&#xc6;" horiz-adv-x="981" 
d="M941 0h-441v234h-271l-143 -234h-53l439 721h468v-42h-391v-276h344l-12 -43h-332v-318h392v-42zM500 279v400l-244 -400h244z" />
    <glyph glyph-name="ordfeminine" unicode="&#xaa;" horiz-adv-x="337" 
d="M282 455h-24l-12 26c-30 -23 -61 -34 -99 -34c-65 0 -92 37 -92 90c0 68 46 85 99 85c28 0 65 -5 91 -12v47c0 26 -9 49 -62 49c-32 0 -62 -7 -81 -31l-28 17c21 32 61 45 109 45c87 0 99 -42 99 -80v-202zM245 510v74c-24 4 -52 8 -78 8c-38 0 -73 -10 -73 -55
s24 -61 53 -61c39 0 65 13 98 34z" />
    <glyph glyph-name="Lslash" unicode="&#x141;" horiz-adv-x="484" 
d="M454 0h-380v342l-61 -38v51l61 38v328h49v-299l131 80v-50l-131 -80v-330h331v-42z" />
    <glyph glyph-name="Oslash" unicode="&#xd8;" horiz-adv-x="665" 
d="M640 737l-79 -105c44 -66 59 -158 59 -263c0 -235 -60 -385 -289 -385c-94 0 -159 25 -203 71l-52 -71h-50l77 103c-43 67 -58 164 -58 282c0 210 57 368 286 368c94 0 159 -27 204 -73l55 73h50zM506 626c-37 44 -92 68 -175 68c-190 0 -235 -127 -235 -325
c0 -101 10 -181 39 -239zM569 369c0 90 -10 167 -39 222l-372 -497c36 -44 91 -67 173 -67c189 0 238 124 238 342z" />
    <glyph glyph-name="OE" unicode="&#x152;" horiz-adv-x="1051" 
d="M1011 0h-441v103c-42 -76 -117 -119 -239 -119c-229 0 -286 150 -286 385c0 210 57 368 286 368c122 0 197 -45 239 -119v103h440v-42h-391v-276h344l-12 -43h-332v-318h392v-42zM569 369c0 198 -49 325 -238 325c-190 0 -235 -127 -235 -325c0 -218 45 -342 235 -342
c189 0 238 124 238 342z" />
    <glyph glyph-name="ordmasculine" unicode="&#xba;" horiz-adv-x="356" 
d="M301 592c0 -92 -33 -145 -123 -145s-123 53 -123 145s33 145 123 145s123 -53 123 -145zM263 592c0 83 -24 115 -85 115s-85 -32 -85 -115s24 -115 85 -115s85 32 85 115z" />
    <glyph glyph-name="ae" unicode="&#xe6;" horiz-adv-x="910" 
d="M864 260h-394v-53c0 -116 56 -183 179 -183c76 0 128 26 158 79l43 -18c-34 -63 -92 -101 -201 -101c-93 0 -151 25 -196 94c-73 -57 -129 -94 -235 -94c-120 0 -169 70 -169 173c0 130 95 167 199 167c59 0 121 -12 170 -26v106c0 61 -22 109 -133 109
c-61 0 -121 -11 -159 -58l-37 24c36 51 108 75 196 75c97 0 141 -27 173 -86c40 62 105 86 192 86c188 0 214 -126 214 -284v-10zM810 301c0 130 -27 212 -160 212c-107 0 -180 -47 -180 -184v-28h340zM418 100v159c-43 10 -103 23 -160 23c-82 0 -156 -26 -156 -125
s54 -133 116 -133c105 0 134 30 200 76z" />
    <glyph glyph-name="dotlessi" unicode="&#x131;" horiz-adv-x="190" 
d="M120 0h-50v537h50v-537z" />
    <glyph glyph-name="lslash" unicode="&#x142;" horiz-adv-x="237" 
d="M87 779h50v-286l84 49v-54l-84 -50v-325c0 -56 19 -74 57 -74h40v-47h-40c-72 0 -107 38 -107 121v296l-70 -42v56l70 41v315z" />
    <glyph glyph-name="oslash" unicode="&#xf8;" horiz-adv-x="558" 
d="M530 554l-66 -83c31 -47 45 -115 45 -201c0 -185 -62 -286 -230 -286c-70 0 -123 18 -159 52l-41 -52h-52l67 84c-31 48 -45 116 -45 202c0 185 62 284 230 284c71 0 123 -18 159 -52l42 52h50zM409 465c-28 33 -70 48 -130 48c-129 0 -179 -70 -179 -243
c0 -69 8 -122 26 -161zM456 270c0 68 -8 121 -25 159l-282 -357c28 -33 71 -47 130 -47c130 0 177 73 177 245z" />
    <glyph glyph-name="oe" unicode="&#x153;" horiz-adv-x="958" 
d="M912 260h-403c4 -158 47 -235 185 -235c77 0 129 25 160 78l43 -18c-34 -63 -93 -101 -203 -101c-109 0 -177 35 -212 117c-33 -77 -97 -117 -203 -117c-168 0 -230 101 -230 286s62 284 230 284c106 0 170 -41 203 -117c33 76 99 117 214 117c190 0 216 -126 216 -284
v-10zM858 301c0 130 -28 212 -162 212c-115 0 -178 -51 -187 -212h349zM455 270c0 130 -18 243 -176 243c-129 0 -179 -70 -179 -243c0 -172 49 -245 179 -245c158 0 176 116 176 245z" />
    <glyph glyph-name="germandbls" unicode="&#xdf;" horiz-adv-x="584" 
d="M530 208c0 -136 -82 -224 -256 -224v37c147 0 203 62 203 187c0 143 -135 167 -207 167h-22v39h22c86 0 173 66 173 176c0 109 -60 164 -158 164c-111 0 -164 -42 -164 -151v-603h-51v603c0 126 73 192 215 192c146 0 207 -98 207 -205c0 -76 -45 -155 -135 -191
c117 -17 173 -106 173 -191z" />
    <glyph glyph-name="logicalnot" unicode="&#xac;" 
d="M544 179h-41v325h-457v41h498v-366z" />
    <glyph glyph-name="mu" unicode="&#xb5;" horiz-adv-x="553" 
d="M489 0h-34l-16 79l-63 -44c-55 -38 -93 -51 -133 -51c-52 0 -97 13 -129 46v-234h-49v741h49v-351c0 -125 55 -162 129 -162c37 0 67 13 136 62l60 43v408h50v-537z" />
    <glyph glyph-name="trademark" unicode="&#x2122;" horiz-adv-x="707" 
d="M651 381h-35l-21 277l-89 -196h-37l-89 196l-21 -277h-34l24 340h37l102 -223l101 223h38zM294 689h-106v-308h-36v308h-107v32h249v-32z" />
    <glyph glyph-name="Eth" unicode="&#xd0;" horiz-adv-x="636" 
d="M601 369c0 -209 -92 -369 -343 -369h-192v360h-87v40h87v321h192c247 0 343 -147 343 -352zM550 369c0 208 -97 310 -292 310h-143v-279h124l-11 -40h-113v-318h143c197 0 292 112 292 327z" />
    <glyph glyph-name="onehalf" unicode="&#xbd;" horiz-adv-x="812" 
d="M284 315h-235v39h95v340c-30 -7 -68 -15 -95 -21v41l140 30v-390h95v-39zM667 737l-485 -753h-42l486 753h41zM763 313c0 -67 -53 -108 -105 -144c-46 -32 -96 -72 -115 -130h179v62h40v-101h-269c5 105 71 153 132 197c50 35 94 67 94 116c0 56 -33 77 -79 77
c-68 0 -92 -31 -100 -70h-41c8 49 40 110 141 110c71 0 123 -39 123 -117z" />
    <glyph glyph-name="plusminus" unicode="&#xb1;" 
d="M558 381h-240v-240h-44v240h-242v42h242v239h44v-239h240v-42zM558 -1h-526v42h526v-42z" />
    <glyph glyph-name="Thorn" unicode="&#xde;" horiz-adv-x="571" 
d="M536 383c0 -120 -67 -219 -247 -219h-175v-164h-49v721h49v-119h175c179 0 247 -98 247 -219zM486 383c0 122 -72 177 -197 177h-175v-354h175c118 0 197 48 197 177z" />
    <glyph glyph-name="onequarter" unicode="&#xbc;" horiz-adv-x="783" 
d="M284 315h-235v39h95v340c-30 -7 -68 -15 -95 -21v41l140 30v-390h95v-39zM667 737l-485 -753h-42l486 753h41zM734 113h-45v-113h-43v113h-218v43l214 265h47v-268h45v-40zM646 153v209l-167 -209h167z" />
    <glyph glyph-name="divide" unicode="&#xf7;" 
d="M328 662v-61c0 -7 -2 -7 -8 -7h-60c-8 0 -8 1 -8 9v59c0 7 1 8 8 8h60c7 0 8 -1 8 -8zM538 339h-486v42h486v-42zM328 118v-61c0 -7 -2 -7 -8 -7h-60c-8 0 -8 1 -8 9v59c0 7 1 8 8 8h60c7 0 8 -1 8 -8z" />
    <glyph glyph-name="brokenbar" unicode="&#xa6;" horiz-adv-x="270" 
d="M160 469h-49v281h49v-281zM160 0h-49v281h49v-281z" />
    <glyph glyph-name="degree" unicode="&#xb0;" horiz-adv-x="326" 
d="M291 608c0 -71 -57 -128 -128 -128s-128 57 -128 128s57 128 128 128s128 -57 128 -128zM249 608c0 48 -37 87 -86 87s-86 -39 -86 -87s38 -86 86 -86s86 38 86 86z" />
    <glyph glyph-name="thorn" unicode="&#xfe;" horiz-adv-x="566" 
d="M517 280c0 -184 -74 -296 -241 -296c-39 0 -87 5 -156 57v-282h-50v1021h50v-307c61 49 109 81 176 81c153 0 221 -110 221 -274zM465 280c0 126 -38 233 -169 233c-63 0 -123 -45 -176 -85v-338c59 -44 110 -65 156 -65c133 0 189 93 189 255z" />
    <glyph glyph-name="threequarters" unicode="&#xbe;" horiz-adv-x="811" 
d="M695 737l-485 -753h-42l486 753h41zM762 113h-45v-113h-43v113h-218v43l214 265h47v-268h45v-40zM674 153v209l-167 -209h167zM339 437c0 -88 -57 -131 -144 -131c-73 0 -114 27 -146 86l37 19c26 -45 52 -67 109 -67c64 0 100 33 100 93c0 54 -37 81 -84 81h-66l-11 41
h77c39 0 76 21 76 77c0 48 -27 71 -84 71c-45 0 -80 -14 -103 -59l-37 17c29 55 73 80 140 80c96 0 128 -52 128 -109c0 -33 -15 -72 -54 -96c41 -21 62 -59 62 -103z" />
    <glyph glyph-name="registered" unicode="&#xae;" horiz-adv-x="864" 
d="M809 361c0 -208 -169 -376 -377 -376s-377 168 -377 376s169 377 377 377s377 -169 377 -377zM767 361c0 185 -150 336 -335 336s-335 -151 -335 -336s150 -335 335 -335s335 150 335 335zM603 135h-48l-109 168c-2 4 -7 13 -10 27h-129v-195h-39v456h167
c116 0 160 -54 160 -130c0 -63 -30 -110 -120 -129zM555 461c0 70 -47 96 -119 96h-129v-191h128c72 0 120 22 120 95z" />
    <glyph glyph-name="minus" unicode="&#x2212;" 
d="M538 337h-486v46h486v-46z" />
    <glyph glyph-name="eth" unicode="&#xf0;" horiz-adv-x="558" 
d="M509 270c0 -185 -62 -286 -230 -286s-230 101 -230 286s62 284 230 284c62 0 109 -14 144 -40c-33 70 -83 126 -144 170l-73 -58l-27 22l69 55c-36 22 -75 42 -115 57l21 34c46 -17 89 -38 129 -63l83 67l27 -24l-80 -63c161 -116 196 -254 196 -441zM456 270
c0 173 -47 243 -177 243c-129 0 -179 -70 -179 -243c0 -172 49 -245 179 -245s177 73 177 245z" />
    <glyph glyph-name="multiply" unicode="&#xd7;" 
d="M511 544l-186 -185l184 -184l-29 -30l-184 184l-186 -185l-30 31l185 185l-185 186l29 29l185 -185l186 185z" />
    <glyph glyph-name="copyright" unicode="&#xa9;" horiz-adv-x="864" 
d="M809 361c0 -208 -169 -376 -377 -376s-377 168 -377 376s169 377 377 377s377 -169 377 -377zM767 361c0 185 -150 336 -335 336s-335 -151 -335 -336s150 -335 335 -335s335 150 335 335zM595 207c-22 -43 -60 -85 -157 -85c-163 0 -194 102 -194 236
c0 150 39 235 188 235c113 0 152 -56 160 -112h-39c-9 44 -39 77 -121 77c-136 0 -147 -87 -147 -200c0 -102 13 -200 153 -200c61 0 99 19 125 68z" />
    <glyph glyph-name="Aacute" unicode="&#xc1;" horiz-adv-x="644" 
d="M614 0h-51l-84 234h-318l-84 -234h-47l260 721h65zM463 279l-143 403l-143 -403h286zM461 913l-172 -142c-4 -3 -7 -3 -12 2l-12 11c-3 3 -4 6 -1 9l150 169z" />
    <glyph glyph-name="Acircumflex" unicode="&#xc2;" horiz-adv-x="644" 
d="M614 0h-51l-84 234h-318l-84 -234h-47l260 721h65zM463 279l-143 403l-143 -403h286zM468 791l-23 -22l-123 115l-123 -115l-23 22l127 152c10 12 15 14 19 14s9 -2 19 -14z" />
    <glyph glyph-name="Adieresis" unicode="&#xc4;" horiz-adv-x="644" 
d="M614 0h-51l-84 234h-318l-84 -234h-47l260 721h65zM463 279l-143 403l-143 -403h286zM467 830c0 -12 -1 -12 -11 -12h-50c-10 0 -11 0 -11 12v47c0 13 1 12 11 12h50c10 0 11 1 11 -12v-47zM244 830c0 -12 -1 -12 -11 -12h-49c-10 0 -11 0 -11 12v47c0 13 1 12 11 12h49
c10 0 11 1 11 -12v-47z" />
    <glyph glyph-name="Agrave" unicode="&#xc0;" horiz-adv-x="644" 
d="M614 0h-51l-84 234h-318l-84 -234h-47l260 721h65zM463 279l-143 403l-143 -403h286zM181 913l172 -142c4 -3 7 -3 12 2l12 11c3 3 4 6 1 9l-150 169z" />
    <glyph glyph-name="Aring" unicode="&#xc5;" horiz-adv-x="644" 
d="M614 0h-51l-84 234h-318l-84 -234h-47l260 721h65zM463 279l-143 403l-143 -403h286zM431 879c0 -60 -50 -109 -110 -109s-109 49 -109 109s49 109 109 109s110 -49 110 -109zM393 879c0 40 -32 71 -72 71s-71 -31 -71 -71s31 -72 71 -72s72 32 72 72z" />
    <glyph glyph-name="Atilde" unicode="&#xc3;" horiz-adv-x="644" 
d="M614 0h-51l-84 234h-318l-84 -234h-47l260 721h65zM463 279l-143 403l-143 -403h286zM501 882l-64 -86c-11 -15 -24 -23 -40 -23c-12 0 -26 4 -40 13l-89 54c-8 5 -15 9 -21 9c-11 0 -14 -7 -25 -19l-55 -61l-24 19l63 87c11 15 24 22 40 22c12 0 26 -4 40 -13l91 -55
c8 -5 13 -7 19 -7c11 0 14 4 25 17l55 63z" />
    <glyph glyph-name="Ccedilla" unicode="&#xc7;" horiz-adv-x="599" 
d="M564 113c-30 -62 -92 -129 -231 -129h-16l-17 -26h49c56 0 76 -25 76 -58c0 -53 -48 -66 -93 -66c-15 0 -30 1 -43 3l-33 5l3 25l33 -5c9 -1 20 -2 31 -2c30 0 62 7 62 40c0 20 -17 31 -36 31h-59l-23 31l20 24c-193 20 -242 173 -242 375c0 242 68 376 280 376
c161 0 223 -88 235 -169h-43c-15 70 -70 126 -193 126c-207 0 -228 -150 -228 -333c0 -166 24 -334 237 -334c91 0 156 33 195 109z" />
    <glyph glyph-name="Eacute" unicode="&#xc9;" horiz-adv-x="546" 
d="M506 0h-441v721h440v-42h-391v-276h344l-12 -43h-332v-318h392v-42zM412 913l-172 -142c-4 -3 -7 -3 -12 2l-12 11c-3 3 -4 6 -1 9l150 169z" />
    <glyph glyph-name="Ecircumflex" unicode="&#xca;" horiz-adv-x="546" 
d="M506 0h-441v721h440v-42h-391v-276h344l-12 -43h-332v-318h392v-42zM429 791l-23 -22l-123 115l-123 -115l-23 22l127 152c10 12 15 14 19 14s9 -2 19 -14z" />
    <glyph glyph-name="Edieresis" unicode="&#xcb;" horiz-adv-x="546" 
d="M506 0h-441v721h440v-42h-391v-276h344l-12 -43h-332v-318h392v-42zM433 829c0 -12 -1 -12 -11 -12h-50c-10 0 -11 0 -11 12v47c0 13 1 12 11 12h50c10 0 11 1 11 -12v-47zM210 829c0 -12 -1 -12 -11 -12h-49c-10 0 -11 0 -11 12v47c0 13 1 12 11 12h49c10 0 11 1 11 -12
v-47z" />
    <glyph glyph-name="Egrave" unicode="&#xc8;" horiz-adv-x="546" 
d="M506 0h-441v721h440v-42h-391v-276h344l-12 -43h-332v-318h392v-42zM133 913l172 -142c4 -3 7 -3 12 2l12 11c3 3 4 6 1 9l-150 169z" />
    <glyph glyph-name="Iacute" unicode="&#xcd;" horiz-adv-x="179" 
d="M114 0h-49v721h49v-721zM229 914l-172 -142c-4 -3 -7 -3 -12 2l-12 11c-3 3 -4 6 -1 9l150 169z" />
    <glyph glyph-name="Icircumflex" unicode="&#xce;" horiz-adv-x="179" 
d="M114 0h-49v721h49v-721zM236 791l-23 -22l-123 115l-123 -115l-23 22l127 152c10 12 15 14 19 14s9 -2 19 -14z" />
    <glyph glyph-name="Idieresis" unicode="&#xcf;" horiz-adv-x="179" 
d="M114 0h-49v721h49v-721zM237 829c0 -12 -1 -12 -11 -12h-50c-10 0 -11 0 -11 12v47c0 13 1 12 11 12h50c10 0 11 1 11 -12v-47zM14 829c0 -12 -1 -12 -11 -12h-49c-10 0 -11 0 -11 12v47c0 13 1 12 11 12h49c10 0 11 1 11 -12v-47z" />
    <glyph glyph-name="Igrave" unicode="&#xcc;" horiz-adv-x="179" 
d="M114 0h-49v721h49v-721zM-50 913l172 -142c4 -3 7 -3 12 2l12 11c3 3 4 6 1 9l-150 169z" />
    <glyph glyph-name="Ntilde" unicode="&#xd1;" horiz-adv-x="689" 
d="M624 0h-52l-458 645v-645h-49v721h52l459 -646l-1 646h49v-721zM523 880l-64 -86c-11 -15 -24 -23 -40 -23c-12 0 -26 4 -40 13l-89 54c-8 5 -15 9 -21 9c-11 0 -14 -7 -25 -19l-55 -61l-24 19l63 87c11 15 24 22 40 22c12 0 26 -4 40 -13l91 -55c8 -5 13 -7 19 -7
c11 0 14 4 25 17l55 63z" />
    <glyph glyph-name="Oacute" unicode="&#xd3;" horiz-adv-x="665" 
d="M620 369c0 -235 -60 -385 -289 -385s-286 150 -286 385c0 210 57 368 286 368s289 -158 289 -368zM569 369c0 198 -49 325 -238 325c-190 0 -235 -127 -235 -325c0 -218 45 -342 235 -342c189 0 238 124 238 342zM472 915l-172 -142c-4 -3 -7 -3 -12 2l-12 11
c-3 3 -4 6 -1 9l150 169z" />
    <glyph glyph-name="Ocircumflex" unicode="&#xd4;" horiz-adv-x="665" 
d="M620 369c0 -235 -60 -385 -289 -385s-286 150 -286 385c0 210 57 368 286 368s289 -158 289 -368zM569 369c0 198 -49 325 -238 325c-190 0 -235 -127 -235 -325c0 -218 45 -342 235 -342c189 0 238 124 238 342zM478 792l-23 -22l-123 115l-123 -115l-23 22l127 152
c10 12 15 14 19 14s9 -2 19 -14z" />
    <glyph glyph-name="Odieresis" unicode="&#xd6;" horiz-adv-x="665" 
d="M620 369c0 -235 -60 -385 -289 -385s-286 150 -286 385c0 210 57 368 286 368s289 -158 289 -368zM569 369c0 198 -49 325 -238 325c-190 0 -235 -127 -235 -325c0 -218 45 -342 235 -342c189 0 238 124 238 342zM479 828c0 -12 -1 -12 -11 -12h-50c-10 0 -11 0 -11 12
v47c0 13 1 12 11 12h50c10 0 11 1 11 -12v-47zM256 828c0 -12 -1 -12 -11 -12h-49c-10 0 -11 0 -11 12v47c0 13 1 12 11 12h49c10 0 11 1 11 -12v-47z" />
    <glyph glyph-name="Ograve" unicode="&#xd2;" horiz-adv-x="665" 
d="M620 369c0 -235 -60 -385 -289 -385s-286 150 -286 385c0 210 57 368 286 368s289 -158 289 -368zM569 369c0 198 -49 325 -238 325c-190 0 -235 -127 -235 -325c0 -218 45 -342 235 -342c189 0 238 124 238 342zM202 913l172 -142c4 -3 7 -3 12 2l12 11c3 3 4 6 1 9
l-150 169z" />
    <glyph glyph-name="Otilde" unicode="&#xd5;" horiz-adv-x="665" 
d="M620 369c0 -235 -60 -385 -289 -385s-286 150 -286 385c0 210 57 368 286 368s289 -158 289 -368zM569 369c0 198 -49 325 -238 325c-190 0 -235 -127 -235 -325c0 -218 45 -342 235 -342c189 0 238 124 238 342zM511 882l-64 -86c-11 -15 -24 -23 -40 -23
c-12 0 -26 4 -40 13l-89 54c-8 5 -15 9 -21 9c-11 0 -14 -7 -25 -19l-55 -61l-24 19l63 87c11 15 24 22 40 22c12 0 26 -4 40 -13l91 -55c8 -5 13 -7 19 -7c11 0 14 4 25 17l55 63z" />
    <glyph glyph-name="Scaron" unicode="&#x160;" horiz-adv-x="580" 
d="M540 198c0 -108 -75 -214 -256 -214c-109 0 -202 42 -240 130l41 21c40 -77 105 -108 199 -108c151 0 204 86 204 171c0 82 -32 130 -122 146l-160 29c-115 21 -147 98 -147 181c0 88 48 183 230 183c140 0 190 -60 215 -104l-42 -21c-32 51 -79 82 -173 82
c-137 0 -180 -61 -180 -140s27 -119 110 -134l160 -28c114 -20 161 -94 161 -194zM435 932l-126 -148c-10 -12 -16 -14 -20 -14s-9 2 -19 14l-126 148l22 22l123 -118l124 118z" />
    <glyph glyph-name="Uacute" unicode="&#xda;" horiz-adv-x="674" 
d="M614 294c0 -225 -112 -310 -277 -310s-277 85 -277 310v427h49v-427c0 -187 80 -267 228 -267s228 79 228 267v427h49v-427zM478 913l-172 -142c-4 -3 -7 -3 -12 2l-12 11c-3 3 -4 6 -1 9l150 169z" />
    <glyph glyph-name="Ucircumflex" unicode="&#xdb;" horiz-adv-x="674" 
d="M614 294c0 -225 -112 -310 -277 -310s-277 85 -277 310v427h49v-427c0 -187 80 -267 228 -267s228 79 228 267v427h49v-427zM483 792l-23 -22l-123 115l-123 -115l-23 22l127 152c10 12 15 14 19 14s9 -2 19 -14z" />
    <glyph glyph-name="Udieresis" unicode="&#xdc;" horiz-adv-x="674" 
d="M614 294c0 -225 -112 -310 -277 -310s-277 85 -277 310v427h49v-427c0 -187 80 -267 228 -267s228 79 228 267v427h49v-427zM484 828c0 -12 -1 -12 -11 -12h-50c-10 0 -11 0 -11 12v47c0 13 1 12 11 12h50c10 0 11 1 11 -12v-47zM261 828c0 -12 -1 -12 -11 -12h-49
c-10 0 -11 0 -11 12v47c0 13 1 12 11 12h49c10 0 11 1 11 -12v-47z" />
    <glyph glyph-name="Ugrave" unicode="&#xd9;" horiz-adv-x="674" 
d="M614 294c0 -225 -112 -310 -277 -310s-277 85 -277 310v427h49v-427c0 -187 80 -267 228 -267s228 79 228 267v427h49v-427zM197 913l172 -142c4 -3 7 -3 12 2l12 11c3 3 4 6 1 9l-150 169z" />
    <glyph glyph-name="Yacute" unicode="&#xdd;" horiz-adv-x="611" 
d="M581 721l-251 -428v-293h-49v293l-251 428h52l224 -384l224 384h51zM445 915l-172 -142c-4 -3 -7 -3 -12 2l-12 11c-3 3 -4 6 -1 9l150 169z" />
    <glyph glyph-name="Ydieresis" unicode="&#x178;" horiz-adv-x="611" 
d="M581 721l-251 -428v-293h-49v293l-251 428h52l224 -384l224 384h51zM452 829c0 -12 -1 -12 -11 -12h-50c-10 0 -11 0 -11 12v47c0 13 1 12 11 12h50c10 0 11 1 11 -12v-47zM229 829c0 -12 -1 -12 -11 -12h-49c-10 0 -11 0 -11 12v47c0 13 1 12 11 12h49c10 0 11 1 11 -12
v-47z" />
    <glyph glyph-name="Zcaron" unicode="&#x17d;" horiz-adv-x="558" 
d="M513 672l-416 -630h408v-42h-460v48l416 631h-394l-12 42h458v-49zM424 933l-126 -148c-10 -12 -16 -14 -20 -14s-9 2 -19 14l-126 148l22 22l123 -118l124 118z" />
    <glyph glyph-name="aacute" unicode="&#xe1;" horiz-adv-x="541" 
d="M471 0h-33l-12 61c-55 -47 -124 -77 -206 -77c-119 0 -171 69 -171 172c0 129 100 164 195 164c68 0 123 -14 178 -31v113c0 58 -32 111 -138 111c-75 0 -124 -8 -160 -53l-34 23c38 53 104 71 194 71c156 0 187 -93 187 -152v-402zM422 102v150c-64 19 -118 29 -178 29
c-58 0 -144 -16 -144 -125c0 -99 52 -131 120 -131c77 0 124 19 202 77zM428 746l-172 -142c-4 -3 -7 -3 -12 2l-12 11c-3 3 -4 6 -1 9l150 169z" />
    <glyph glyph-name="acircumflex" unicode="&#xe2;" horiz-adv-x="541" 
d="M471 0h-33l-12 61c-55 -47 -124 -77 -206 -77c-119 0 -171 69 -171 172c0 129 100 164 195 164c68 0 123 -14 178 -31v113c0 58 -32 111 -138 111c-75 0 -124 -8 -160 -53l-34 23c38 53 104 71 194 71c156 0 187 -93 187 -152v-402zM422 102v150c-64 19 -118 29 -178 29
c-58 0 -144 -16 -144 -125c0 -99 52 -131 120 -131c77 0 124 19 202 77zM416 621l-23 -22l-123 115l-123 -115l-23 22l127 152c10 12 15 14 19 14s9 -2 19 -14z" />
    <glyph glyph-name="adieresis" unicode="&#xe4;" horiz-adv-x="541" 
d="M471 0h-33l-12 61c-55 -47 -124 -77 -206 -77c-119 0 -171 69 -171 172c0 129 100 164 195 164c68 0 123 -14 178 -31v113c0 58 -32 111 -138 111c-75 0 -124 -8 -160 -53l-34 23c38 53 104 71 194 71c156 0 187 -93 187 -152v-402zM422 102v150c-64 19 -118 29 -178 29
c-58 0 -144 -16 -144 -125c0 -99 52 -131 120 -131c77 0 124 19 202 77zM417 675c0 -12 -1 -12 -11 -12h-50c-10 0 -11 0 -11 12v47c0 13 1 12 11 12h50c10 0 11 1 11 -12v-47zM194 675c0 -12 -1 -12 -11 -12h-49c-10 0 -11 0 -11 12v47c0 13 1 12 11 12h49
c10 0 11 1 11 -12v-47z" />
    <glyph glyph-name="agrave" unicode="&#xe0;" horiz-adv-x="541" 
d="M471 0h-33l-12 61c-55 -47 -124 -77 -206 -77c-119 0 -171 69 -171 172c0 129 100 164 195 164c68 0 123 -14 178 -31v113c0 58 -32 111 -138 111c-75 0 -124 -8 -160 -53l-34 23c38 53 104 71 194 71c156 0 187 -93 187 -152v-402zM422 102v150c-64 19 -118 29 -178 29
c-58 0 -144 -16 -144 -125c0 -99 52 -131 120 -131c77 0 124 19 202 77zM133 746l172 -142c4 -3 7 -3 12 2l12 11c3 3 4 6 1 9l-150 169z" />
    <glyph glyph-name="aring" unicode="&#xe5;" horiz-adv-x="541" 
d="M471 0h-33l-12 61c-55 -47 -124 -77 -206 -77c-119 0 -171 69 -171 172c0 129 100 164 195 164c68 0 123 -14 178 -31v113c0 58 -32 111 -138 111c-75 0 -124 -8 -160 -53l-34 23c38 53 104 71 194 71c156 0 187 -93 187 -152v-402zM422 102v150c-64 19 -118 29 -178 29
c-58 0 -144 -16 -144 -125c0 -99 52 -131 120 -131c77 0 124 19 202 77zM380 711c0 -60 -50 -109 -110 -109s-109 49 -109 109s49 109 109 109s110 -49 110 -109zM342 711c0 40 -32 71 -72 71s-71 -31 -71 -71s31 -72 71 -72s72 32 72 72z" />
    <glyph glyph-name="atilde" unicode="&#xe3;" horiz-adv-x="541" 
d="M471 0h-33l-12 61c-55 -47 -124 -77 -206 -77c-119 0 -171 69 -171 172c0 129 100 164 195 164c68 0 123 -14 178 -31v113c0 58 -32 111 -138 111c-75 0 -124 -8 -160 -53l-34 23c38 53 104 71 194 71c156 0 187 -93 187 -152v-402zM422 102v150c-64 19 -118 29 -178 29
c-58 0 -144 -16 -144 -125c0 -99 52 -131 120 -131c77 0 124 19 202 77zM449 732l-64 -86c-11 -15 -24 -23 -40 -23c-12 0 -26 4 -40 13l-89 54c-8 5 -15 9 -21 9c-11 0 -14 -7 -25 -19l-55 -61l-24 19l63 87c11 15 24 22 40 22c12 0 26 -4 40 -13l91 -55c8 -5 13 -7 19 -7
c11 0 14 4 25 17l55 63z" />
    <glyph glyph-name="ccedilla" unicode="&#xe7;" horiz-adv-x="513" 
d="M486 85c-47 -87 -119 -101 -211 -101h-1l-18 -28c51 0 135 11 135 -63c0 -58 -52 -71 -100 -71c-28 0 -55 4 -83 8l4 27c23 -3 46 -7 69 -7c29 0 67 6 67 43c0 22 -19 33 -39 33h-64l-25 34l22 27c-158 19 -193 142 -193 282c0 170 53 285 240 285c87 0 154 -23 197 -102
l-42 -17c-35 60 -86 78 -153 78c-157 0 -191 -106 -191 -244s34 -244 191 -244c67 0 118 18 153 78z" />
    <glyph glyph-name="eacute" unicode="&#xe9;" horiz-adv-x="554" 
d="M508 260h-410c4 -158 52 -235 190 -235c77 0 130 25 161 78l42 -18c-34 -63 -93 -101 -203 -101c-165 0 -239 83 -239 286c0 185 59 284 240 284c164 0 219 -116 219 -279v-15zM456 301c0 115 -40 210 -167 210c-125 0 -186 -50 -190 -210h357zM437 746l-172 -142
c-4 -3 -7 -3 -12 2l-12 11c-3 3 -4 6 -1 9l150 169z" />
    <glyph glyph-name="ecircumflex" unicode="&#xea;" horiz-adv-x="554" 
d="M508 260h-410c4 -158 52 -235 190 -235c77 0 130 25 161 78l42 -18c-34 -63 -93 -101 -203 -101c-165 0 -239 83 -239 286c0 185 59 284 240 284c164 0 219 -116 219 -279v-15zM456 301c0 115 -40 210 -167 210c-125 0 -186 -50 -190 -210h357zM423 621l-23 -22l-123 115
l-123 -115l-23 22l127 152c10 12 15 14 19 14s9 -2 19 -14z" />
    <glyph glyph-name="edieresis" unicode="&#xeb;" horiz-adv-x="554" 
d="M508 260h-410c4 -158 52 -235 190 -235c77 0 130 25 161 78l42 -18c-34 -63 -93 -101 -203 -101c-165 0 -239 83 -239 286c0 185 59 284 240 284c164 0 219 -116 219 -279v-15zM456 301c0 115 -40 210 -167 210c-125 0 -186 -50 -190 -210h357zM424 675
c0 -12 -1 -12 -11 -12h-50c-10 0 -11 0 -11 12v47c0 13 1 12 11 12h50c10 0 11 1 11 -12v-47zM201 675c0 -12 -1 -12 -11 -12h-49c-10 0 -11 0 -11 12v47c0 13 1 12 11 12h49c10 0 11 1 11 -12v-47z" />
    <glyph glyph-name="egrave" unicode="&#xe8;" horiz-adv-x="554" 
d="M508 260h-410c4 -158 52 -235 190 -235c77 0 130 25 161 78l42 -18c-34 -63 -93 -101 -203 -101c-165 0 -239 83 -239 286c0 185 59 284 240 284c164 0 219 -116 219 -279v-15zM456 301c0 115 -40 210 -167 210c-125 0 -186 -50 -190 -210h357zM156 746l172 -142
c4 -3 7 -3 12 2l12 11c3 3 4 6 1 9l-150 169z" />
    <glyph glyph-name="iacute" unicode="&#xed;" horiz-adv-x="190" 
d="M120 0h-50v537h50v-537zM225 746l-172 -142c-4 -3 -7 -3 -12 2l-12 11c-3 3 -4 6 -1 9l150 169z" />
    <glyph glyph-name="icircumflex" unicode="&#xee;" horiz-adv-x="190" 
d="M120 0h-50v537h50v-537zM241 621l-23 -22l-123 115l-123 -115l-23 22l127 152c10 12 15 14 19 14s9 -2 19 -14z" />
    <glyph glyph-name="idieresis" unicode="&#xef;" horiz-adv-x="190" 
d="M120 0h-50v537h50v-537zM242 675c0 -12 -1 -12 -11 -12h-50c-10 0 -11 0 -11 12v47c0 13 1 12 11 12h50c10 0 11 1 11 -12v-47zM19 675c0 -12 -1 -12 -11 -12h-49c-10 0 -11 0 -11 12v47c0 13 1 12 11 12h49c10 0 11 1 11 -12v-47z" />
    <glyph glyph-name="igrave" unicode="&#xec;" horiz-adv-x="190" 
d="M120 0h-50v537h50v-537zM-34 746l172 -142c4 -3 7 -3 12 2l12 11c3 3 4 6 1 9l-150 169z" />
    <glyph glyph-name="ntilde" unicode="&#xf1;" horiz-adv-x="559" 
d="M495 0h-50v351c0 126 -56 161 -130 161c-37 0 -64 -9 -136 -61l-59 -42v-409h-50v537h34l16 -79l63 44c56 39 86 52 132 52c103 0 180 -55 180 -203v-351zM458 732l-64 -86c-11 -15 -24 -23 -40 -23c-12 0 -26 4 -40 13l-89 54c-8 5 -15 9 -21 9c-11 0 -14 -7 -25 -19
l-55 -61l-24 19l63 87c11 15 24 22 40 22c12 0 26 -4 40 -13l91 -55c8 -5 13 -7 19 -7c11 0 14 4 25 17l55 63z" />
    <glyph glyph-name="oacute" unicode="&#xf3;" horiz-adv-x="558" 
d="M509 270c0 -185 -62 -286 -230 -286s-230 101 -230 286s62 284 230 284s230 -99 230 -284zM456 270c0 173 -47 243 -177 243c-129 0 -179 -70 -179 -243c0 -172 49 -245 179 -245s177 73 177 245zM408 746l-172 -142c-4 -3 -7 -3 -12 2l-12 11c-3 3 -4 6 -1 9l150 169z
" />
    <glyph glyph-name="ocircumflex" unicode="&#xf4;" horiz-adv-x="558" 
d="M509 270c0 -185 -62 -286 -230 -286s-230 101 -230 286s62 284 230 284s230 -99 230 -284zM456 270c0 173 -47 243 -177 243c-129 0 -179 -70 -179 -243c0 -172 49 -245 179 -245s177 73 177 245zM425 621l-23 -22l-123 115l-123 -115l-23 22l127 152c10 12 15 14 19 14
s9 -2 19 -14z" />
    <glyph glyph-name="odieresis" unicode="&#xf6;" horiz-adv-x="558" 
d="M509 270c0 -185 -62 -286 -230 -286s-230 101 -230 286s62 284 230 284s230 -99 230 -284zM456 270c0 173 -47 243 -177 243c-129 0 -179 -70 -179 -243c0 -172 49 -245 179 -245s177 73 177 245zM426 675c0 -12 -1 -12 -11 -12h-50c-10 0 -11 0 -11 12v47
c0 13 1 12 11 12h50c10 0 11 1 11 -12v-47zM203 675c0 -12 -1 -12 -11 -12h-49c-10 0 -11 0 -11 12v47c0 13 1 12 11 12h49c10 0 11 1 11 -12v-47z" />
    <glyph glyph-name="ograve" unicode="&#xf2;" horiz-adv-x="558" 
d="M509 270c0 -185 -62 -286 -230 -286s-230 101 -230 286s62 284 230 284s230 -99 230 -284zM456 270c0 173 -47 243 -177 243c-129 0 -179 -70 -179 -243c0 -172 49 -245 179 -245s177 73 177 245zM149 746l172 -142c4 -3 7 -3 12 2l12 11c3 3 4 6 1 9l-150 169z" />
    <glyph glyph-name="otilde" unicode="&#xf5;" horiz-adv-x="558" 
d="M509 270c0 -185 -62 -286 -230 -286s-230 101 -230 286s62 284 230 284s230 -99 230 -284zM456 270c0 173 -47 243 -177 243c-129 0 -179 -70 -179 -243c0 -172 49 -245 179 -245s177 73 177 245zM458 732l-64 -86c-11 -15 -24 -23 -40 -23c-12 0 -26 4 -40 13l-89 54
c-8 5 -15 9 -21 9c-11 0 -14 -7 -25 -19l-55 -61l-24 19l63 87c11 15 24 22 40 22c12 0 26 -4 40 -13l91 -55c8 -5 13 -7 19 -7c11 0 14 4 25 17l55 63z" />
    <glyph glyph-name="scaron" unicode="&#x161;" horiz-adv-x="477" 
d="M440 150c0 -105 -85 -166 -202 -166c-100 0 -170 34 -200 101l46 16c26 -53 88 -76 154 -76c80 0 151 39 151 125c0 64 -38 90 -88 98l-137 23c-68 11 -114 53 -114 132c0 105 94 151 190 151c72 0 145 -26 178 -77l-40 -20c-29 40 -84 56 -138 56
c-76 0 -141 -30 -141 -110c0 -42 15 -77 78 -87l136 -22c73 -12 127 -59 127 -144zM384 772l-126 -148c-10 -12 -16 -14 -20 -14s-9 2 -19 14l-126 148l22 22l123 -118l124 118z" />
    <glyph glyph-name="uacute" unicode="&#xfa;" horiz-adv-x="559" 
d="M489 0h-33l-16 80l-63 -44c-56 -39 -87 -52 -133 -52c-103 0 -179 55 -179 203v350h49v-350c0 -126 56 -161 130 -161c37 0 63 9 136 60l60 42v409h49v-537zM419 746l-172 -142c-4 -3 -7 -3 -12 2l-12 11c-3 3 -4 6 -1 9l150 169z" />
    <glyph glyph-name="ucircumflex" unicode="&#xfb;" horiz-adv-x="559" 
d="M489 0h-33l-16 80l-63 -44c-56 -39 -87 -52 -133 -52c-103 0 -179 55 -179 203v350h49v-350c0 -126 56 -161 130 -161c37 0 63 9 136 60l60 42v409h49v-537zM425 621l-23 -22l-123 115l-123 -115l-23 22l127 152c10 12 15 14 19 14s9 -2 19 -14z" />
    <glyph glyph-name="udieresis" unicode="&#xfc;" horiz-adv-x="559" 
d="M489 0h-33l-16 80l-63 -44c-56 -39 -87 -52 -133 -52c-103 0 -179 55 -179 203v350h49v-350c0 -126 56 -161 130 -161c37 0 63 9 136 60l60 42v409h49v-537zM426 675c0 -12 -1 -12 -11 -12h-50c-10 0 -11 0 -11 12v47c0 13 1 12 11 12h50c10 0 11 1 11 -12v-47zM203 675
c0 -12 -1 -12 -11 -12h-49c-10 0 -11 0 -11 12v47c0 13 1 12 11 12h49c10 0 11 1 11 -12v-47z" />
    <glyph glyph-name="ugrave" unicode="&#xf9;" horiz-adv-x="559" 
d="M489 0h-33l-16 80l-63 -44c-56 -39 -87 -52 -133 -52c-103 0 -179 55 -179 203v350h49v-350c0 -126 56 -161 130 -161c37 0 63 9 136 60l60 42v409h49v-537zM149 746l172 -142c4 -3 7 -3 12 2l12 11c3 3 4 6 1 9l-150 169z" />
    <glyph glyph-name="yacute" unicode="&#xfd;" horiz-adv-x="504" 
d="M481 537l-249 -684c-27 -74 -72 -95 -151 -95h-50v47h50c63 0 83 7 107 72l38 104l-202 556h51l178 -496l177 496h51zM401 746l-172 -142c-4 -3 -7 -3 -12 2l-12 11c-3 3 -4 6 -1 9l150 169z" />
    <glyph glyph-name="ydieresis" unicode="&#xff;" horiz-adv-x="504" 
d="M481 537l-249 -684c-27 -74 -72 -95 -151 -95h-50v47h50c63 0 83 7 107 72l38 104l-202 556h51l178 -496l177 496h51zM399 675c0 -12 -1 -12 -11 -12h-50c-10 0 -11 0 -11 12v47c0 13 1 12 11 12h50c10 0 11 1 11 -12v-47zM176 675c0 -12 -1 -12 -11 -12h-49
c-10 0 -11 0 -11 12v47c0 13 1 12 11 12h49c10 0 11 1 11 -12v-47z" />
    <glyph glyph-name="zcaron" unicode="&#x17e;" horiz-adv-x="484" 
d="M435 0h-386v59l334 435h-316l-13 43h379v-60l-337 -434h339v-43zM387 772l-126 -148c-10 -12 -16 -14 -20 -14s-9 2 -19 14l-126 148l22 22l123 -118l124 118z" />
    <glyph glyph-name="oneeighth" unicode="&#x215b;" horiz-adv-x="848" 
d="M284 315h-235v39h95v340c-30 -7 -68 -15 -95 -21v41l140 30v-390h95v-39zM667 737l-485 -753h-42l486 753h41zM799 118c0 -83 -38 -131 -140 -131s-139 48 -139 131c0 45 15 80 56 102c-33 19 -51 50 -51 92c0 75 41 114 134 114s134 -39 134 -114c0 -42 -18 -73 -51 -92
c39 -23 57 -58 57 -102zM754 118c0 42 -24 80 -71 80h-48c-47 0 -71 -38 -71 -80c0 -69 32 -91 95 -91s95 22 95 91zM749 312c0 65 -43 74 -90 74s-90 -9 -90 -74c0 -53 37 -73 66 -73h48c29 0 66 20 66 73z" />
    <glyph glyph-name="threeeighths" unicode="&#x215c;" horiz-adv-x="876" 
d="M695 737l-485 -753h-42l486 753h41zM827 118c0 -83 -38 -131 -140 -131s-139 48 -139 131c0 45 15 80 56 102c-33 19 -51 50 -51 92c0 75 41 114 134 114s134 -39 134 -114c0 -42 -18 -73 -51 -92c39 -23 57 -58 57 -102zM782 118c0 42 -24 80 -71 80h-48
c-47 0 -71 -38 -71 -80c0 -69 32 -91 95 -91s95 22 95 91zM777 312c0 65 -43 74 -90 74s-90 -9 -90 -74c0 -53 37 -73 66 -73h48c29 0 66 20 66 73zM339 437c0 -88 -57 -131 -144 -131c-73 0 -114 27 -146 86l37 19c26 -45 52 -67 109 -67c64 0 100 33 100 93
c0 54 -37 81 -84 81h-66l-11 41h77c39 0 76 21 76 77c0 48 -27 71 -84 71c-45 0 -80 -14 -103 -59l-37 17c29 55 73 80 140 80c96 0 128 -52 128 -109c0 -33 -15 -72 -54 -96c41 -21 62 -59 62 -103z" />
    <glyph glyph-name="fiveeighths" unicode="&#x215d;" horiz-adv-x="884" 
d="M703 737l-485 -753h-42l486 753h41zM835 118c0 -83 -38 -131 -140 -131s-139 48 -139 131c0 45 15 80 56 102c-33 19 -51 50 -51 92c0 75 41 114 134 114s134 -39 134 -114c0 -42 -18 -73 -51 -92c39 -23 57 -58 57 -102zM790 118c0 42 -24 80 -71 80h-48
c-47 0 -71 -38 -71 -80c0 -69 32 -91 95 -91s95 22 95 91zM785 312c0 65 -43 74 -90 74s-90 -9 -90 -74c0 -53 37 -73 66 -73h48c29 0 66 20 66 73zM344 442c0 -77 -42 -136 -148 -136c-73 0 -115 27 -147 86l38 19c26 -45 52 -65 109 -65c70 0 103 37 103 96
c0 76 -37 98 -103 98c-37 0 -74 -6 -104 -17l-22 19l21 194h239l-12 -40h-189c-5 -45 -11 -79 -16 -125c30 7 66 9 83 9c86 0 148 -33 148 -138z" />
    <glyph glyph-name="seveneighths" unicode="&#x215e;" horiz-adv-x="771" 
d="M590 737l-485 -753h-42l486 753h41zM722 118c0 -83 -38 -131 -140 -131s-139 48 -139 131c0 45 15 80 56 102c-33 19 -51 50 -51 92c0 75 41 114 134 114s134 -39 134 -114c0 -42 -18 -73 -51 -92c39 -23 57 -58 57 -102zM677 118c0 42 -24 80 -71 80h-48
c-47 0 -71 -38 -71 -80c0 -69 32 -91 95 -91s95 22 95 91zM672 312c0 65 -43 74 -90 74s-90 -9 -90 -74c0 -53 37 -73 66 -73h48c29 0 66 20 66 73zM326 696l-198 -381h-50l200 381h-188v-61h-41v101h277v-40z" />
    <glyph glyph-name="onethird" unicode="&#x2153;" horiz-adv-x="821" 
d="M284 315h-235v39h95v340c-30 -7 -68 -15 -95 -21v41l140 30v-390h95v-39zM667 737l-485 -753h-42l486 753h41zM772 122c0 -88 -57 -131 -144 -131c-73 0 -114 27 -146 86l37 19c26 -45 52 -67 109 -67c64 0 100 33 100 93c0 54 -37 81 -84 81h-66l-11 41h77
c39 0 76 21 76 77c0 48 -27 71 -84 71c-45 0 -80 -14 -103 -59l-37 17c29 55 73 80 140 80c96 0 128 -52 128 -109c0 -33 -15 -72 -54 -96c41 -21 62 -59 62 -103z" />
    <glyph glyph-name="twothirds" unicode="&#x2154;" horiz-adv-x="838" 
d="M684 737l-485 -753h-42l486 753h41zM789 122c0 -88 -57 -131 -144 -131c-73 0 -114 27 -146 86l37 19c26 -45 52 -67 109 -67c64 0 100 33 100 93c0 54 -37 81 -84 81h-66l-11 41h77c39 0 76 21 76 77c0 48 -27 71 -84 71c-45 0 -80 -14 -103 -59l-37 17
c29 55 73 80 140 80c96 0 128 -52 128 -109c0 -33 -15 -72 -54 -96c41 -21 62 -59 62 -103zM319 628c0 -67 -53 -108 -105 -144c-46 -32 -96 -72 -115 -130h179v62h40v-101h-269c5 105 71 153 132 197c50 35 94 67 94 116c0 56 -33 77 -79 77c-68 0 -92 -31 -100 -70h-41
c8 49 40 110 141 110c71 0 123 -39 123 -117z" />
    <glyph glyph-name="zero.oldstyle" unicode="&#xf730;" horiz-adv-x="528" 
d="M486 268c0 -165 -37 -284 -220 -284s-220 119 -220 284s37 284 220 284s220 -119 220 -284zM437 268c0 157 -28 244 -171 244s-171 -87 -171 -244s28 -244 171 -244s171 87 171 244z" />
    <glyph glyph-name="one.oldstyle" unicode="&#xf731;" horiz-adv-x="489" 
d="M439 0h-389v42h169v456l-169 -38v43l221 50v-511h168v-42z" />
    <glyph glyph-name="two.oldstyle" unicode="&#xf732;" horiz-adv-x="572" 
d="M510 0h-452c7 174 119 235 234 267c134 37 158 75 158 144c0 68 -51 103 -154 103c-118 0 -166 -49 -171 -122h-47c6 82 61 162 218 162c134 0 205 -53 205 -143c0 -87 -48 -146 -194 -186c-118 -32 -175 -79 -196 -181h351v65h48v-109z" />
    <glyph glyph-name="three.oldstyle" unicode="&#xf733;" 
d="M533 21c0 -148 -97 -220 -242 -220c-124 0 -192 41 -241 133l42 21c43 -78 91 -114 199 -114c122 0 191 63 191 180c0 104 -72 157 -164 157h-104l-12 46h116c76 0 150 40 150 150c0 93 -53 140 -163 140c-86 0 -152 -24 -191 -101l-39 19c43 84 117 122 230 122
c159 0 214 -84 214 -180c0 -61 -25 -133 -116 -172c90 -32 130 -100 130 -181z" />
    <glyph glyph-name="four.oldstyle" unicode="&#xf734;" 
d="M562 0h-82v-202h-48v202h-387v57l372 497h63v-511h82v-43zM432 43v453l-339 -453h339z" />
    <glyph glyph-name="five.oldstyle" unicode="&#xf735;" horiz-adv-x="608" 
d="M540 28c0 -128 -72 -228 -249 -228c-124 0 -192 41 -241 133l42 21c43 -78 91 -111 199 -111c135 0 196 72 196 185c0 147 -71 188 -196 188c-68 0 -134 -10 -183 -28l-28 23l38 326h393l-12 -42h-342l-30 -257c58 17 132 22 164 22c144 0 249 -56 249 -232z" />
    <glyph glyph-name="six.oldstyle" unicode="&#xf736;" 
d="M531 233c0 -154 -57 -249 -235 -249c-244 0 -235 170 -235 350c0 190 -6 403 250 403c86 0 162 -32 201 -80l-31 -29c-33 33 -87 66 -170 66c-135 0 -199 -66 -199 -281c0 -10 1 -20 1 -31c55 62 118 80 183 80c171 0 235 -76 235 -229zM480 233c0 138 -57 186 -184 186
c-107 0 -184 -63 -184 -186c0 -148 56 -206 184 -206s184 58 184 206z" />
    <glyph glyph-name="seven.oldstyle" unicode="&#xf737;" 
d="M535 483l-346 -667h-59l357 679h-371v-111h-44v153h463v-54z" />
    <glyph glyph-name="eight.oldstyle" unicode="&#xf738;" 
d="M529 204c0 -139 -64 -220 -234 -220s-234 81 -234 220c0 82 34 145 115 181c-69 31 -105 83 -105 162c0 126 69 190 224 190s224 -64 224 -190c0 -79 -36 -131 -105 -162c81 -36 115 -99 115 -181zM469 547c0 129 -84 147 -174 147s-174 -18 -174 -147
c0 -103 74 -141 131 -141h86c57 0 131 38 131 141zM478 204c0 81 -47 156 -140 156h-86c-93 0 -140 -75 -140 -156c0 -135 63 -177 183 -177s183 42 183 177z" />
    <glyph glyph-name="nine.oldstyle" unicode="&#xf739;" 
d="M529 204c0 -190 6 -403 -250 -403c-86 0 -162 32 -201 80l31 29c33 -33 87 -66 170 -66c135 0 199 66 199 281c0 10 -1 20 -1 31c-55 -62 -118 -80 -183 -80c-171 0 -235 76 -235 229c0 154 57 249 235 249c244 0 235 -170 235 -350zM478 305c0 148 -56 206 -184 206
s-184 -58 -184 -206c0 -138 57 -186 184 -186c107 0 184 63 184 186z" />
    <glyph glyph-name="uni2014.alt" unicode="&#xe024;" horiz-adv-x="613" 
d="M581 302h-549v54h549v-54z" />
    <glyph glyph-name="a.superior" unicode="&#xf6e9;" horiz-adv-x="341" 
d="M290 315h-29l-7 32c-32 -27 -72 -42 -118 -42c-73 0 -106 44 -106 108c0 79 62 101 120 101c39 0 70 -6 101 -16v60c0 31 -18 61 -77 61c-43 0 -70 -5 -94 -34l-28 20c27 36 67 47 122 47c96 0 116 -57 116 -94v-243zM251 382v83c-37 12 -68 17 -101 17
c-32 0 -80 -9 -80 -69c0 -56 29 -73 66 -73c44 0 70 10 115 42z" />
    <glyph glyph-name="b.superior" unicode="&#xf6ea;" horiz-adv-x="355" 
d="M322 481c0 -123 -63 -176 -144 -176c-41 0 -86 15 -130 37v443h39v-164c41 22 70 31 97 31c89 0 138 -53 138 -171zM282 481c0 96 -37 138 -98 138c-29 0 -63 -14 -97 -37v-220c28 -13 60 -22 91 -22c63 0 104 43 104 141z" />
    <glyph glyph-name="d.superior" unicode="&#xf6eb;" horiz-adv-x="354" 
d="M306 315h-21l-13 26c-27 -21 -60 -36 -94 -36c-76 0 -146 42 -146 174c0 118 49 173 139 173c33 0 64 -6 96 -24v157h39v-470zM267 377v211c-43 25 -64 30 -96 30c-69 0 -99 -48 -99 -139c0 -70 21 -139 106 -139c32 0 57 12 89 37z" />
    <glyph glyph-name="e.superior" unicode="&#xf6ec;" horiz-adv-x="344" 
d="M314 469h-243c3 -88 31 -129 108 -129c43 0 75 14 93 47l34 -14c-24 -42 -60 -68 -127 -68c-101 0 -147 50 -147 175c0 112 36 172 147 172c101 0 135 -70 135 -169v-14zM179 618c-69 0 -104 -29 -108 -115h203c-1 63 -25 115 -95 115z" />
    <glyph glyph-name="i.superior" unicode="&#xf6ed;" horiz-adv-x="130" 
d="M85 315h-40v327h40v-327zM90 749c0 -12 -2 -12 -12 -12h-26c-10 0 -12 0 -12 12v24c0 12 2 12 12 12h26c10 0 12 0 12 -12v-24z" />
    <glyph glyph-name="l.superior" unicode="&#xf6ee;" horiz-adv-x="142" 
d="M143 310h-28c-46 0 -68 25 -68 77v398h39v-398c0 -30 9 -39 29 -39h28v-38z" />
    <glyph glyph-name="m.superior" unicode="&#xf6ef;" horiz-adv-x="531" 
d="M485 315h-39v209c0 56 -8 95 -56 95c-29 0 -73 -33 -104 -55c2 -12 2 -24 2 -35v-214h-40v214c0 41 -9 90 -56 90c-34 0 -73 -36 -102 -59v-245h-40v327h30l8 -42c26 22 62 52 105 52c40 0 69 -19 84 -54c34 26 72 54 113 54c65 0 95 -36 95 -127v-210z" />
    <glyph glyph-name="n.superior" unicode="&#x207f;" horiz-adv-x="352" 
d="M309 315h-39v213c0 70 -32 90 -72 90c-32 0 -67 -21 -111 -59v-244h-39v327h28l10 -43c28 26 68 53 112 53c64 0 111 -33 111 -124v-213z" />
    <glyph glyph-name="o.superior" unicode="&#xf6f0;" horiz-adv-x="347" 
d="M314 480c0 -113 -37 -175 -141 -175c-103 0 -141 62 -141 175c0 112 38 172 141 172c104 0 141 -60 141 -172zM274 480c0 98 -28 139 -101 139c-72 0 -101 -41 -101 -139s28 -140 101 -140s101 42 101 140z" />
    <glyph glyph-name="r.superior" unicode="&#xf6f1;" horiz-adv-x="213" 
d="M201 616h-5c-45 0 -63 -7 -111 -46v-255h-40v327h28l8 -34c36 29 69 44 115 44h5v-36z" />
    <glyph glyph-name="s.superior" unicode="&#xf6f2;" horiz-adv-x="294" 
d="M271 409c0 -65 -52 -104 -124 -104c-61 0 -106 24 -125 68l35 13c17 -33 53 -46 90 -46c44 0 84 20 84 69c0 34 -17 48 -59 55l-57 10c-50 8 -84 34 -84 85c0 66 57 93 117 93c44 0 90 -17 112 -52l-32 -16c-18 25 -49 35 -80 35c-42 0 -79 -17 -79 -60
c0 -21 9 -40 55 -49l54 -10c60 -10 93 -35 93 -91z" />
    <glyph glyph-name="t.superior" unicode="&#xf6f3;" horiz-adv-x="238" 
d="M216 356l21 -28c-24 -17 -57 -23 -84 -23c-47 0 -85 24 -85 88v215h-58v34h56v112l40 9v-121h115l-11 -34h-104v-215c0 -42 25 -53 52 -53c18 0 40 6 58 16z" />
    <glyph glyph-name="one.superior" unicode="&#xb9;" horiz-adv-x="339" 
d="M284 315h-235v39h95v340c-30 -7 -68 -15 -95 -21v41l140 30v-390h95v-39z" />
    <glyph glyph-name="two.superior" unicode="&#xb2;" horiz-adv-x="339" 
d="M302 628c0 -67 -53 -108 -105 -144c-46 -32 -96 -72 -115 -130h179v62h40v-101h-269c5 105 71 153 132 197c50 35 94 67 94 116c0 56 -33 77 -79 77c-68 0 -92 -31 -100 -70h-41c8 49 40 110 141 110c71 0 123 -39 123 -117z" />
    <glyph glyph-name="three.superior" unicode="&#xb3;" horiz-adv-x="339" 
d="M311 437c0 -88 -57 -131 -144 -131c-73 0 -114 27 -146 86l37 19c26 -45 52 -67 109 -67c64 0 100 33 100 93c0 54 -37 81 -84 81h-66l-11 41h77c39 0 76 21 76 77c0 48 -27 71 -84 71c-45 0 -80 -14 -103 -59l-37 17c29 55 73 80 140 80c96 0 128 -52 128 -109
c0 -33 -15 -72 -54 -96c41 -21 62 -59 62 -103z" />
    <glyph glyph-name="commaaccent" unicode="&#xf6c3;" horiz-adv-x="311" 
d="M138 -250l-19 12c30 34 42 66 42 108h-33c-10 0 -10 3 -10 11v53c0 12 2 12 10 12h56c10 0 10 -2 10 -12v-52c0 -51 -21 -97 -56 -132z" />
    <glyph glyph-name="Delta" unicode="&#x2206;" horiz-adv-x="674" 
d="M629 0h-584l260 721h65zM560 45l-225 637l-225 -637h450z" />
    <glyph glyph-name="Omega" unicode="&#x2126;" horiz-adv-x="662" 
d="M617 412c0 -154 -53 -276 -196 -295v-76h172v-41h-212v158c149 0 185 106 185 254c0 155 -45 282 -235 282s-235 -127 -235 -280c0 -150 36 -256 185 -256v-158h-212v41h172v76c-144 19 -196 141 -196 297c0 165 57 323 286 323s286 -158 286 -325z" />
    <glyph glyph-name="uni03BC" unicode="&#x3bc;" horiz-adv-x="553" 
d="M489 0h-34l-16 79l-63 -44c-55 -38 -93 -51 -133 -51c-52 0 -97 13 -129 46v-234h-49v741h49v-351c0 -125 55 -162 129 -162c37 0 67 13 136 62l60 43v408h50v-537z" />
    <glyph glyph-name="pi" unicode="&#x3c0;" horiz-adv-x="658" 
d="M613 -8h-40c-72 0 -107 38 -107 121v372h-290v-485h-49v485h-82v48h552v-48h-81v-372c0 -56 19 -74 57 -74h40v-47z" />
    <glyph glyph-name="Euro" unicode="&#x20ac;" 
d="M548 112c-27 -62 -77 -128 -201 -128c-176 0 -234 112 -249 292h-61l11 39h48c-1 29 0 32 0 46v34h-54l11 38h44c14 203 76 304 244 304c145 0 193 -87 203 -169h-40c-12 68 -49 127 -164 127c-160 0 -185 -108 -193 -262h321l-9 -38h-313v-34c0 -14 -1 -17 0 -46h287
l-10 -39h-276c11 -141 44 -249 200 -249c85 0 131 29 164 104z" />
    <glyph glyph-name="afii61289" unicode="&#x2113;" horiz-adv-x="339" 
d="M238 604c0 -66 -24 -188 -146 -293v-198c0 -56 19 -74 57 -74h40v-47h-40c-72 0 -107 38 -107 121v159c-16 -11 -33 -22 -51 -33l-20 40c27 17 50 33 71 50v227c0 111 5 218 104 218c92 0 92 -90 92 -170zM188 604c0 77 0 124 -42 124c-51 0 -54 -73 -54 -179v-175
c82 84 96 163 96 230z" />
    <glyph glyph-name="estimated" unicode="&#x212e;" horiz-adv-x="606" 
d="M577 282h-429v-193c42 -40 92 -63 152 -63c112 0 165 59 210 127l31 -19c-52 -81 -116 -141 -241 -141c-163 0 -271 133 -271 290c0 159 104 290 275 290c170 0 273 -134 273 -291zM457 315v163c-36 33 -95 62 -153 62c-60 0 -116 -21 -156 -62v-163h309z" />
    <glyph glyph-name="partialdiff" unicode="&#x2202;" horiz-adv-x="608" 
d="M543 465c0 -63 -4 -140 -16 -206c-33 -185 -111 -275 -279 -275c-132 0 -183 71 -183 192c0 32 3 69 10 108c33 185 108 270 276 270c62 0 109 -19 139 -45c-1 108 -39 226 -237 226c-20 0 -41 -1 -64 -3l7 40c26 3 51 5 74 5c214 0 273 -124 273 -312zM488 372
c0 99 -43 141 -144 141c-129 0 -192 -70 -223 -243c-7 -38 -10 -71 -10 -100c0 -101 44 -145 145 -145c130 0 190 73 221 245c7 39 11 73 11 102z" />
    <glyph glyph-name="product" unicode="&#x220f;" horiz-adv-x="704" 
d="M659 679h-81v-679h-49v679h-353v-679h-49v679h-82v42h614v-42z" />
    <glyph glyph-name="summation" unicode="&#x2211;" horiz-adv-x="531" 
d="M486 0h-441v41l212 341l-212 297v42h440v-42h-387l212 -297l-212 -340h388v-42z" />
    <glyph glyph-name="uni2219" unicode="&#x2219;" horiz-adv-x="228" 
d="M153 400c0 -12 0 -12 -10 -12h-61c-10 0 -11 0 -11 12v57c0 13 1 13 11 13h61c10 0 10 0 10 -13v-57z" />
    <glyph glyph-name="radical" unicode="&#x221a;" horiz-adv-x="812" 
d="M767 673h-193l-214 -673h-64l-129 433h-122v48h159l124 -433l210 673h229v-48z" />
    <glyph glyph-name="infinity" unicode="&#x221e;" horiz-adv-x="660" 
d="M595 377c0 -105 -22 -226 -149 -226c-43 0 -91 10 -136 59c-29 -46 -62 -61 -103 -61c-126 0 -142 122 -142 228s22 226 148 226c43 0 89 -13 134 -60c30 44 60 61 107 61c127 0 141 -120 141 -227zM544 377c0 102 -12 182 -90 182c-63 0 -80 -47 -100 -182
c-10 -66 -16 -100 -24 -125c41 -46 81 -57 116 -57c78 0 98 82 98 182zM327 503c-36 41 -77 55 -113 55c-79 0 -97 -83 -97 -183c0 -97 10 -181 90 -181c60 0 80 47 99 187c9 68 16 103 21 122z" />
    <glyph glyph-name="integral" unicode="&#x222b;" horiz-adv-x="607" 
d="M562 767l-10 -45c-31 6 -65 12 -96 12c-68 0 -127 -24 -127 -130l-1 -635c0 -133 -84 -175 -177 -175c-33 0 -72 4 -106 12l10 46c31 -6 65 -12 96 -12c68 0 125 28 125 134v630c0 133 87 175 180 175c33 0 72 -4 106 -12z" />
    <glyph glyph-name="approxequal" unicode="&#x2248;" 
d="M538 520c-34 -49 -76 -69 -134 -69c-94 0 -141 86 -218 86c-58 0 -100 -20 -134 -69v45c34 49 76 69 134 69c105 0 143 -86 218 -86c58 0 100 20 134 69v-45zM538 280c-34 -49 -76 -69 -134 -69c-94 0 -141 86 -218 86c-58 0 -100 -20 -134 -69v45c34 49 76 69 134 69
c105 0 143 -86 218 -86c58 0 100 20 134 69v-45z" />
    <glyph glyph-name="notequal" unicode="&#x2260;" 
d="M486 737l-99 -218h146v-41h-165l-105 -232h270v-43h-290l-99 -219h-48l99 219h-138v43h158l105 232h-263v41h282l99 218h48z" />
    <glyph glyph-name="lessequal" unicode="&#x2264;" 
d="M468 80h-62l-281 280l281 280h58l-277 -280zM558 -1h-526v42h526v-42z" />
    <glyph glyph-name="greaterequal" unicode="&#x2265;" 
d="M466 360l-281 -280h-62l281 280l-277 280h58zM558 -1h-526v42h526v-42z" />
    <glyph glyph-name="lozenge" unicode="&#x25ca;" horiz-adv-x="608" 
d="M563 379l-259 -319l-259 319l259 319zM493 379l-189 250l-190 -250l190 -250z" />
    <glyph glyph-name="uni00A0" unicode="&#xa0;" horiz-adv-x="230" 
 />
    <glyph glyph-name="uni00AD" unicode="&#xad;" horiz-adv-x="353" 
d="M321 306h-289v47h289v-47z" />
    <glyph glyph-name="uni02C9" unicode="&#x2c9;" horiz-adv-x="438" 
d="M374 665h-309v46h309v-46z" />
    <glyph glyph-name="h.superior" unicode="&#xf637;" horiz-adv-x="352" 
d="M309 315h-39v213c0 70 -32 90 -72 90c-32 0 -67 -21 -111 -59v-244h-39v470h39v-186c28 26 67 53 111 53c64 0 111 -33 111 -124v-213z" />
    <glyph glyph-name="zero.fitted" unicode="&#xf639;" 
d="M527 369c0 -231 -34 -385 -232 -385s-232 154 -232 385c0 223 42 368 232 368s232 -145 232 -368zM475 369c0 190 -14 325 -180 325s-180 -135 -180 -325c0 -198 13 -342 180 -342s180 144 180 342z" />
    <glyph glyph-name="one.fitted" unicode="&#xf6dc;" horiz-adv-x="467" 
d="M432 0h-389v42h169v636l-169 -38v43l221 50v-691h168v-42z" />
    <glyph glyph-name="two.fitted" unicode="&#xf63a;" 
d="M517 542c0 -228 -338 -247 -397 -500h351v110h44v-152h-450c12 302 401 332 401 542c0 110 -64 152 -154 152c-130 0 -176 -56 -190 -126h-45c11 76 66 169 235 169c118 0 205 -64 205 -195z" />
    <glyph glyph-name="three.fitted" unicode="&#xf63b;" 
d="M533 204c0 -148 -97 -220 -242 -220c-124 0 -192 41 -241 133l42 21c43 -78 91 -114 199 -114c122 0 191 63 191 180c0 104 -72 157 -164 157h-104l-12 46h116c76 0 150 40 150 150c0 93 -53 140 -163 140c-86 0 -152 -24 -191 -101l-39 19c43 84 117 122 230 122
c159 0 214 -84 214 -180c0 -61 -25 -133 -116 -172c90 -32 130 -100 130 -181z" />
    <glyph glyph-name="four.fitted" unicode="&#xf63c;" 
d="M562 202h-82v-202h-48v202h-387v57l372 462h63v-476h82v-43zM432 245v423l-339 -423h339z" />
    <glyph glyph-name="five.fitted" unicode="&#xf63d;" 
d="M527 212c0 -128 -72 -228 -249 -228c-124 0 -192 41 -241 133l42 21c43 -78 91 -111 199 -111c135 0 196 72 196 185c0 147 -71 188 -196 188c-68 0 -134 -10 -183 -28l-28 23l38 326h393l-12 -42h-342l-30 -257c58 17 132 22 164 22c144 0 249 -56 249 -232z" />
    <glyph glyph-name="six.fitted" unicode="&#xf63e;" 
d="M531 233c0 -154 -57 -249 -235 -249c-244 0 -235 170 -235 350c0 190 -6 403 250 403c86 0 155 -26 194 -74l-31 -29c-33 33 -80 60 -163 60c-135 0 -199 -66 -199 -281c0 -10 1 -20 1 -31c55 62 118 80 183 80c171 0 235 -76 235 -229zM480 233c0 138 -57 186 -184 186
c-107 0 -184 -63 -184 -186c0 -148 56 -206 184 -206s184 58 184 206z" />
    <glyph glyph-name="seven.fitted" unicode="&#xf63f;" horiz-adv-x="544" 
d="M506 667l-346 -667h-59l357 679h-371v-111h-44v153h463v-54z" />
    <glyph glyph-name="eight.fitted" unicode="&#xf640;" 
d="M535 204c0 -139 -64 -220 -234 -220s-234 81 -234 220c0 82 34 145 115 181c-69 31 -105 83 -105 162c0 126 69 190 224 190s224 -64 224 -190c0 -79 -36 -131 -105 -162c81 -36 115 -99 115 -181zM475 547c0 129 -84 147 -174 147s-174 -18 -174 -147
c0 -103 74 -141 131 -141h86c57 0 131 38 131 141zM484 204c0 81 -47 156 -140 156h-86c-93 0 -140 -75 -140 -156c0 -135 63 -177 183 -177s183 42 183 177z" />
    <glyph glyph-name="nine.fitted" unicode="&#xf641;" 
d="M529 387c0 -190 6 -403 -250 -403c-86 0 -155 26 -194 74l31 29c33 -33 80 -60 163 -60c135 0 199 66 199 281c0 10 -1 20 -1 31c-55 -62 -118 -80 -183 -80c-171 0 -235 76 -235 229c0 154 57 249 235 249c244 0 235 -170 235 -350zM478 488c0 148 -56 206 -184 206
s-184 -58 -184 -206c0 -138 57 -186 184 -186c107 0 184 63 184 186z" />
    <glyph glyph-name="zero.taboldstyle" unicode="&#xf643;" 
d="M515 268c0 -165 -37 -284 -220 -284s-220 119 -220 284s37 284 220 284s220 -119 220 -284zM466 268c0 157 -28 244 -171 244s-171 -87 -171 -244s28 -244 171 -244s171 87 171 244z" />
    <glyph glyph-name="one.taboldstyle" unicode="&#xf644;" 
d="M489 0h-389v42h169v456l-169 -38v43l221 50v-511h168v-42z" />
    <glyph glyph-name="two.taboldstyle" unicode="&#xf645;" 
d="M521 0h-452c7 174 119 235 234 267c134 37 158 75 158 144c0 68 -51 103 -154 103c-118 0 -166 -49 -171 -122h-47c6 82 61 162 218 162c134 0 205 -53 205 -143c0 -87 -48 -146 -194 -186c-118 -32 -175 -79 -196 -181h351v65h48v-109z" />
    <glyph glyph-name="three.taboldstyle" unicode="&#xf646;" 
d="M536 21c0 -148 -97 -220 -242 -220c-124 0 -192 41 -241 133l42 21c43 -78 91 -114 199 -114c122 0 191 63 191 180c0 104 -72 157 -164 157h-104l-12 46h116c76 0 150 40 150 150c0 93 -53 140 -163 140c-86 0 -152 -24 -191 -101l-39 19c43 84 117 122 230 122
c159 0 214 -84 214 -180c0 -61 -25 -133 -116 -172c90 -32 130 -100 130 -181z" />
    <glyph glyph-name="four.taboldstyle" unicode="&#xf647;" 
d="M553 0h-82v-202h-48v202h-387v57l372 497h63v-511h82v-43zM423 43v453l-339 -453h339z" />
    <glyph glyph-name="five.taboldstyle" unicode="&#xf648;" 
d="M540 28c0 -128 -72 -228 -249 -228c-124 0 -192 41 -241 133l42 21c43 -78 91 -111 199 -111c135 0 196 72 196 185c0 147 -71 188 -196 188c-68 0 -134 -10 -183 -28l-28 23l38 326h393l-12 -42h-342l-30 -257c58 17 132 22 164 22c144 0 249 -56 249 -232z" />
    <glyph glyph-name="six.taboldstyle" unicode="&#xf649;" 
d="M530 233c0 -154 -57 -249 -235 -249c-244 0 -235 170 -235 350c0 190 -6 403 250 403c86 0 162 -32 201 -80l-31 -29c-33 33 -87 66 -170 66c-135 0 -199 -66 -199 -281c0 -10 1 -20 1 -31c55 62 118 80 183 80c171 0 235 -76 235 -229zM479 233c0 138 -57 186 -184 186
c-107 0 -184 -63 -184 -186c0 -148 56 -206 184 -206s184 58 184 206z" />
    <glyph glyph-name="seven.taboldstyle" unicode="&#xf64a;" 
d="M526 483l-346 -667h-59l357 679h-371v-111h-44v153h463v-54z" />
    <glyph glyph-name="eight.taboldstyle" unicode="&#xf64b;" 
d="M529 204c0 -139 -64 -220 -234 -220s-234 81 -234 220c0 82 34 145 115 181c-69 31 -105 83 -105 162c0 126 69 190 224 190s224 -64 224 -190c0 -79 -36 -131 -105 -162c81 -36 115 -99 115 -181zM469 547c0 129 -84 147 -174 147s-174 -18 -174 -147
c0 -103 74 -141 131 -141h86c57 0 131 38 131 141zM478 204c0 81 -47 156 -140 156h-86c-93 0 -140 -75 -140 -156c0 -135 63 -177 183 -177s183 42 183 177z" />
    <glyph glyph-name="nine.taboldstyle" unicode="&#xf64c;" 
d="M529 204c0 -190 6 -403 -250 -403c-86 0 -162 32 -201 80l31 29c33 -33 87 -66 170 -66c135 0 199 66 199 281c0 10 -1 20 -1 31c-55 -62 -118 -80 -183 -80c-171 0 -235 76 -235 229c0 154 57 249 235 249c244 0 235 -170 235 -350zM478 305c0 148 -56 206 -184 206
s-184 -58 -184 -206c0 -138 57 -186 184 -186c107 0 184 63 184 186z" />
    <glyph glyph-name="zero.denominator" unicode="&#xf655;" horiz-adv-x="339" 
d="M308 215c0 -135 -21 -224 -138 -224c-118 0 -139 89 -139 224c0 130 25 215 139 215c113 0 138 -85 138 -215zM263 215c0 102 -7 175 -93 175c-87 0 -94 -73 -94 -175c0 -106 7 -184 94 -184s93 78 93 184z" />
    <glyph glyph-name="one.denominator" unicode="&#xf656;" horiz-adv-x="339" 
d="M284 0h-235v39h95v340c-30 -7 -68 -15 -95 -21v41l140 30v-390h95v-39z" />
    <glyph glyph-name="two.denominator" unicode="&#xf657;" horiz-adv-x="339" 
d="M302 313c0 -67 -53 -108 -105 -144c-46 -32 -96 -72 -115 -130h179v62h40v-101h-269c5 105 71 153 132 197c50 35 94 67 94 116c0 56 -33 77 -79 77c-68 0 -92 -31 -100 -70h-41c8 49 40 110 141 110c71 0 123 -39 123 -117z" />
    <glyph glyph-name="three.denominator" unicode="&#xf658;" horiz-adv-x="339" 
d="M311 122c0 -88 -57 -131 -144 -131c-73 0 -114 27 -146 86l37 19c26 -45 52 -67 109 -67c64 0 100 33 100 93c0 54 -37 81 -84 81h-66l-11 41h77c39 0 76 21 76 77c0 48 -27 71 -84 71c-45 0 -80 -14 -103 -59l-37 17c29 55 73 80 140 80c96 0 128 -52 128 -109
c0 -33 -15 -72 -54 -96c41 -21 62 -59 62 -103z" />
    <glyph glyph-name="four.denominator" unicode="&#xf659;" horiz-adv-x="339" 
d="M327 113h-45v-113h-43v113h-218v43l214 265h47v-268h45v-40zM239 153v209l-167 -209h167z" />
    <glyph glyph-name="five.denominator" unicode="&#xf65a;" horiz-adv-x="339" 
d="M308 127c0 -77 -42 -136 -148 -136c-73 0 -115 27 -147 86l38 19c26 -45 52 -65 109 -65c70 0 103 37 103 96c0 76 -37 98 -103 98c-37 0 -74 -6 -104 -17l-22 19l21 194h239l-12 -40h-189c-5 -45 -11 -79 -16 -125c30 7 66 9 83 9c86 0 148 -33 148 -138z" />
    <glyph glyph-name="six.denominator" unicode="&#xf65b;" horiz-adv-x="339" 
d="M310 139c0 -92 -33 -148 -140 -148c-140 0 -140 100 -140 205c0 110 0 234 149 234c51 0 93 -17 119 -51l-27 -26c-21 20 -48 37 -92 37c-72 0 -105 -35 -105 -149c29 26 63 35 96 35c103 0 140 -46 140 -137zM266 139c0 71 -31 97 -96 97c-55 0 -96 -33 -96 -97
c0 -77 30 -108 96 -108s96 31 96 108z" />
    <glyph glyph-name="seven.denominator" unicode="&#xf65c;" horiz-adv-x="339" 
d="M313 381l-198 -381h-50l200 381h-188v-61h-41v101h277v-40z" />
    <glyph glyph-name="eight.denominator" unicode="&#xf65d;" horiz-adv-x="339" 
d="M313 122c0 -83 -38 -131 -140 -131s-139 48 -139 131c0 45 15 80 56 102c-33 19 -51 50 -51 92c0 75 41 114 134 114s134 -39 134 -114c0 -42 -18 -73 -51 -92c39 -23 57 -58 57 -102zM268 122c0 42 -24 80 -71 80h-48c-47 0 -71 -38 -71 -80c0 -69 32 -91 95 -91
s95 22 95 91zM263 316c0 65 -43 74 -90 74s-90 -9 -90 -74c0 -53 37 -73 66 -73h48c29 0 66 20 66 73z" />
    <glyph glyph-name="nine.denominator" unicode="&#xf65e;" horiz-adv-x="339" 
d="M309 226c0 -112 0 -235 -149 -235c-50 0 -93 18 -119 50l29 26c21 -20 47 -36 90 -36c72 0 105 35 105 149c-30 -27 -63 -34 -96 -34c-102 0 -140 46 -140 137c0 90 34 147 140 147c139 0 140 -100 140 -204zM265 283c0 77 -30 107 -96 107s-96 -30 -96 -107
c0 -73 30 -97 96 -97c56 0 96 32 96 97z" />
    <glyph glyph-name="zero.numerator" unicode="&#xf661;" horiz-adv-x="339" 
d="M308 530c0 -135 -21 -224 -138 -224c-118 0 -139 89 -139 224c0 130 25 215 139 215c113 0 138 -85 138 -215zM263 530c0 102 -7 175 -93 175c-87 0 -94 -73 -94 -175c0 -106 7 -184 94 -184s93 78 93 184z" />
    <glyph glyph-name="one.numerator" unicode="&#xf662;" horiz-adv-x="339" 
d="M284 315h-235v39h95v340c-30 -7 -68 -15 -95 -21v41l140 30v-390h95v-39z" />
    <glyph glyph-name="two.numerator" unicode="&#xf663;" horiz-adv-x="339" 
d="M302 628c0 -67 -53 -108 -105 -144c-46 -32 -96 -72 -115 -130h179v62h40v-101h-269c5 105 71 153 132 197c50 35 94 67 94 116c0 56 -33 77 -79 77c-68 0 -92 -31 -100 -70h-41c8 49 40 110 141 110c71 0 123 -39 123 -117z" />
    <glyph glyph-name="three.numerator" unicode="&#xf664;" horiz-adv-x="339" 
d="M311 437c0 -88 -57 -131 -144 -131c-73 0 -114 27 -146 86l37 19c26 -45 52 -67 109 -67c64 0 100 33 100 93c0 54 -37 81 -84 81h-66l-11 41h77c39 0 76 21 76 77c0 48 -27 71 -84 71c-45 0 -80 -14 -103 -59l-37 17c29 55 73 80 140 80c96 0 128 -52 128 -109
c0 -33 -15 -72 -54 -96c41 -21 62 -59 62 -103z" />
    <glyph glyph-name="four.numerator" unicode="&#xf665;" horiz-adv-x="339" 
d="M327 428h-45v-113h-43v113h-218v43l214 265h47v-268h45v-40zM239 468v209l-167 -209h167z" />
    <glyph glyph-name="five.numerator" unicode="&#xf666;" horiz-adv-x="339" 
d="M308 442c0 -77 -42 -136 -148 -136c-73 0 -115 27 -147 86l38 19c26 -45 52 -65 109 -65c70 0 103 37 103 96c0 76 -37 98 -103 98c-37 0 -74 -6 -104 -17l-22 19l21 194h239l-12 -40h-189c-5 -45 -11 -79 -16 -125c30 7 66 9 83 9c86 0 148 -33 148 -138z" />
    <glyph glyph-name="six.numerator" unicode="&#xf667;" horiz-adv-x="339" 
d="M310 454c0 -92 -33 -148 -140 -148c-140 0 -140 100 -140 205c0 110 0 234 149 234c51 0 93 -17 119 -51l-27 -26c-21 20 -48 37 -92 37c-72 0 -105 -35 -105 -149c29 26 63 35 96 35c103 0 140 -46 140 -137zM266 454c0 71 -31 97 -96 97c-55 0 -96 -33 -96 -97
c0 -77 30 -108 96 -108s96 31 96 108z" />
    <glyph glyph-name="seven.numerator" unicode="&#xf668;" horiz-adv-x="339" 
d="M313 696l-198 -381h-50l200 381h-188v-61h-41v101h277v-40z" />
    <glyph glyph-name="eight.numerator" unicode="&#xf669;" horiz-adv-x="339" 
d="M313 437c0 -83 -38 -131 -140 -131s-139 48 -139 131c0 45 15 80 56 102c-33 19 -51 50 -51 92c0 75 41 114 134 114s134 -39 134 -114c0 -42 -18 -73 -51 -92c39 -23 57 -58 57 -102zM268 437c0 42 -24 80 -71 80h-48c-47 0 -71 -38 -71 -80c0 -69 32 -91 95 -91
s95 22 95 91zM263 631c0 65 -43 74 -90 74s-90 -9 -90 -74c0 -53 37 -73 66 -73h48c29 0 66 20 66 73z" />
    <glyph glyph-name="nine.numerator" unicode="&#xf66a;" horiz-adv-x="339" 
d="M309 541c0 -112 0 -235 -149 -235c-50 0 -93 18 -119 50l29 26c21 -20 47 -36 90 -36c72 0 105 35 105 149c-30 -27 -63 -34 -96 -34c-102 0 -140 46 -140 137c0 90 34 147 140 147c139 0 140 -100 140 -204zM265 598c0 77 -30 107 -96 107s-96 -30 -96 -107
c0 -73 30 -97 96 -97c56 0 96 32 96 97z" />
    <glyph glyph-name="I.alt" unicode="&#xe000;" horiz-adv-x="316" 
d="M271 0h-226v42h89v638h-89v41h226v-41h-88v-638h88v-42z" />
    <glyph glyph-name="J.alt" unicode="&#xe005;" horiz-adv-x="410" 
d="M345 201c0 -166 -77 -217 -198 -217c-49 0 -86 11 -122 37l23 33c31 -21 63 -30 99 -30c109 0 149 53 149 177v478h-198l-12 42h259v-520z" />
    <glyph glyph-name="a.alt" unicode="&#xe006;" horiz-adv-x="565" 
d="M543 0h-26c-51 0 -79 22 -89 63c-59 -51 -130 -79 -208 -79c-119 0 -171 69 -171 172c0 129 100 164 195 164c68 0 123 -14 178 -31v113c0 58 -32 111 -138 111c-75 0 -124 -8 -160 -53l-34 23c38 53 104 71 194 71c156 0 188 -93 188 -152v-295c0 -50 16 -62 45 -62h26
v-45zM422 102v150c-64 19 -118 29 -178 29c-58 0 -144 -16 -144 -125c0 -99 52 -131 120 -131c77 0 124 19 202 77z" />
    <glyph glyph-name="i.alt" unicode="&#xe01b;" horiz-adv-x="276" 
d="M158 725c0 -12 -1 -12 -11 -12h-44c-10 0 -11 0 -11 12v41c0 13 1 13 11 13h44c10 0 11 0 11 -13v-41zM255 -7h-40c-70 0 -107 35 -107 120v382h-86v42h136v-424c0 -54 17 -76 57 -76h40v-44z" />
    <glyph glyph-name="j.alt" unicode="&#xe020;" horiz-adv-x="228" 
d="M158 725c0 -12 -1 -12 -11 -12h-44c-10 0 -11 0 -11 12v41c0 13 1 13 11 13h44c10 0 11 0 11 -13v-41zM158 -110c0 -69 -25 -132 -137 -132h-43v45h43c72 0 87 31 87 102v590h-86v42h136v-647z" />
    <glyph glyph-name="l.alt" unicode="&#xe022;" horiz-adv-x="237" 
d="M234 -8h-40c-72 0 -107 38 -107 121v624h-84v42h134v-666c0 -56 19 -74 57 -74h40v-47z" />
    <glyph glyph-name="Iacute.alt" unicode="&#xe001;" horiz-adv-x="316" 
d="M266 914l-172 -142c-2 -1 -3 -2 -4 -2c-2 0 -5 1 -8 4l-12 11c-2 2 -3 3 -3 5c0 1 1 2 2 4l150 169zM271 0h-226v42h89v638h-89v41h226v-41h-88v-638h88v-42z" />
    <glyph glyph-name="Icircumflex.alt" unicode="&#xe002;" horiz-adv-x="316" 
d="M306 792l-23 -22l-123 115l-123 -115l-23 22l127 152c10 12 15 14 19 14s9 -2 19 -14zM271 0h-226v42h89v638h-89v41h226v-41h-88v-638h88v-42z" />
    <glyph glyph-name="Idieresis.alt" unicode="&#xe003;" horiz-adv-x="316" 
d="M307 829c0 -12 -1 -12 -11 -12h-50c-10 0 -11 0 -11 12v47c0 13 1 12 11 12h50c10 0 11 1 11 -12v-47zM84 829c0 -12 -1 -12 -11 -12h-49c-10 0 -11 0 -11 12v47c0 13 1 12 11 12h49c10 0 11 1 11 -12v-47zM271 0h-226v42h89v638h-89v41h226v-41h-88v-638h88v-42z" />
    <glyph glyph-name="Igrave.alt" unicode="&#xe004;" horiz-adv-x="316" 
d="M261 790c0 -2 -2 -3 -4 -5l-11 -11c-3 -3 -6 -4 -8 -4c-1 0 -2 1 -4 2l-172 142l46 49l151 -169c1 -2 2 -3 2 -4zM271 0h-226v42h89v638h-89v41h226v-41h-88v-638h88v-42z" />
    <glyph glyph-name="aacute.alt" unicode="&#xe007;" horiz-adv-x="565" 
d="M413 743l-172 -142c-2 -1 -3 -2 -4 -2c-2 0 -5 1 -8 4l-12 11c-2 2 -3 3 -3 5c0 1 1 2 2 4l150 169zM543 0h-26c-51 0 -79 22 -89 63c-59 -51 -130 -79 -208 -79c-119 0 -171 69 -171 172c0 129 100 164 195 164c68 0 123 -14 178 -31v113c0 58 -32 111 -138 111
c-75 0 -124 -8 -160 -53l-34 23c38 53 104 71 194 71c156 0 188 -93 188 -152v-295c0 -50 16 -62 45 -62h26v-45zM422 102v150c-64 19 -118 29 -178 29c-58 0 -144 -16 -144 -125c0 -99 52 -131 120 -131c77 0 124 19 202 77z" />
    <glyph glyph-name="acircumflex.alt" unicode="&#xe008;" horiz-adv-x="565" 
d="M426 621l-23 -22l-123 115l-123 -115l-23 22l127 152c10 12 15 14 19 14s9 -2 19 -14zM543 0h-26c-51 0 -79 22 -89 63c-59 -51 -130 -79 -208 -79c-119 0 -171 69 -171 172c0 129 100 164 195 164c68 0 123 -14 178 -31v113c0 58 -32 111 -138 111
c-75 0 -124 -8 -160 -53l-34 23c38 53 104 71 194 71c156 0 188 -93 188 -152v-295c0 -50 16 -62 45 -62h26v-45zM422 102v150c-64 19 -118 29 -178 29c-58 0 -144 -16 -144 -125c0 -99 52 -131 120 -131c77 0 124 19 202 77z" />
    <glyph glyph-name="adieresis.alt" unicode="&#xe009;" horiz-adv-x="565" 
d="M426 675c0 -12 -1 -12 -11 -12h-50c-10 0 -11 0 -11 12v47c0 13 1 12 11 12h50c10 0 11 1 11 -12v-47zM203 675c0 -12 -1 -12 -11 -12h-49c-10 0 -11 0 -11 12v47c0 13 1 12 11 12h49c10 0 11 1 11 -12v-47zM543 0h-26c-51 0 -79 22 -89 63c-59 -51 -130 -79 -208 -79
c-119 0 -171 69 -171 172c0 129 100 164 195 164c68 0 123 -14 178 -31v113c0 58 -32 111 -138 111c-75 0 -124 -8 -160 -53l-34 23c38 53 104 71 194 71c156 0 188 -93 188 -152v-295c0 -50 16 -62 45 -62h26v-45zM422 102v150c-64 19 -118 29 -178 29
c-58 0 -144 -16 -144 -125c0 -99 52 -131 120 -131c77 0 124 19 202 77z" />
    <glyph glyph-name="agrave.alt" unicode="&#xe00a;" horiz-adv-x="565" 
d="M362 619c0 -2 -2 -3 -4 -5l-11 -11c-3 -3 -6 -4 -8 -4c-1 0 -2 1 -4 2l-172 142l46 49l151 -169c2 -2 2 -3 2 -4zM543 0h-26c-51 0 -79 22 -89 63c-59 -51 -130 -79 -208 -79c-119 0 -171 69 -171 172c0 129 100 164 195 164c68 0 123 -14 178 -31v113
c0 58 -32 111 -138 111c-75 0 -124 -8 -160 -53l-34 23c38 53 104 71 194 71c156 0 188 -93 188 -152v-295c0 -50 16 -62 45 -62h26v-45zM422 102v150c-64 19 -118 29 -178 29c-58 0 -144 -16 -144 -125c0 -99 52 -131 120 -131c77 0 124 19 202 77z" />
    <glyph glyph-name="aring.alt" unicode="&#xe00c;" horiz-adv-x="565" 
d="M388 708c0 -60 -50 -109 -110 -109s-109 49 -109 109s49 109 109 109s110 -49 110 -109zM543 0h-26c-51 0 -79 22 -89 63c-59 -51 -130 -79 -208 -79c-119 0 -171 69 -171 172c0 129 100 164 195 164c68 0 123 -14 178 -31v113c0 58 -32 111 -138 111
c-75 0 -124 -8 -160 -53l-34 23c38 53 104 71 194 71c156 0 188 -93 188 -152v-295c0 -50 16 -62 45 -62h26v-45zM350 708c0 40 -32 71 -72 71s-71 -31 -71 -71s31 -72 71 -72s72 32 72 72zM422 102v150c-64 19 -118 29 -178 29c-58 0 -144 -16 -144 -125
c0 -99 52 -131 120 -131c77 0 124 19 202 77z" />
    <glyph glyph-name="atilde.alt" unicode="&#xe00e;" horiz-adv-x="565" 
d="M458 732l-64 -86c-11 -15 -24 -23 -40 -23c-12 0 -25 4 -40 13l-89 54c-8 5 -15 9 -21 9c-11 0 -14 -7 -25 -19l-55 -61l-24 19l63 87c11 15 24 22 40 22c12 0 26 -4 40 -13l91 -55c8 -5 13 -7 19 -7c11 0 14 4 25 17l55 63zM543 0h-26c-51 0 -79 22 -89 63
c-59 -51 -130 -79 -208 -79c-119 0 -171 69 -171 172c0 129 100 164 195 164c68 0 123 -14 178 -31v113c0 58 -32 111 -138 111c-75 0 -124 -8 -160 -53l-34 23c38 53 104 71 194 71c156 0 188 -93 188 -152v-295c0 -50 16 -62 45 -62h26v-45zM422 102v150
c-64 19 -118 29 -178 29c-58 0 -144 -16 -144 -125c0 -99 52 -131 120 -131c77 0 124 19 202 77z" />
    <glyph glyph-name="dotlessi.alt" unicode="&#xe011;" horiz-adv-x="276" 
d="M255 -7h-40c-70 0 -107 35 -107 120v382h-86v42h136v-424c0 -54 17 -76 57 -76h40v-44z" />
    <glyph glyph-name="iacute.alt" unicode="&#xe01c;" horiz-adv-x="276" 
d="M230 743l-172 -142c-2 -1 -3 -2 -4 -2c-2 0 -5 1 -8 4l-12 11c-2 2 -3 3 -3 5c0 1 1 2 2 4l150 169zM255 -7h-40c-70 0 -107 35 -107 120v382h-86v42h136v-424c0 -54 17 -76 57 -76h40v-44z" />
    <glyph glyph-name="icircumflex.alt" unicode="&#xe01d;" horiz-adv-x="276" 
d="M274 621l-23 -22l-123 115l-123 -115l-23 22l127 152c10 12 15 14 19 14s9 -2 19 -14zM255 -7h-40c-70 0 -107 35 -107 120v382h-86v42h136v-424c0 -54 17 -76 57 -76h40v-44z" />
    <glyph glyph-name="idieresis.alt" unicode="&#xe01e;" horiz-adv-x="276" 
d="M273 675c0 -12 -1 -12 -11 -12h-50c-10 0 -11 0 -11 12v47c0 13 1 12 11 12h50c10 0 11 1 11 -12v-47zM50 675c0 -12 -1 -12 -11 -12h-49c-10 0 -11 0 -11 12v47c0 13 1 12 11 12h49c10 0 11 1 11 -12v-47zM255 -7h-40c-70 0 -107 35 -107 120v382h-86v42h136v-424
c0 -54 17 -76 57 -76h40v-44z" />
    <glyph glyph-name="igrave.alt" unicode="&#xe01f;" horiz-adv-x="276" 
d="M179 619c0 -2 -2 -3 -4 -5l-11 -11c-3 -3 -6 -4 -8 -4c-1 0 -2 1 -4 2l-172 142l46 49l151 -169c1 -2 2 -3 2 -4zM255 -7h-40c-70 0 -107 35 -107 120v382h-86v42h136v-424c0 -54 17 -76 57 -76h40v-44z" />
    <glyph glyph-name="lslash.alt" unicode="&#xe023;" horiz-adv-x="237" 
d="M234 -8h-40c-72 0 -107 38 -107 121v296l-70 -42v56l70 41v273h-84v42h134v-286l84 49v-54l-84 -50v-325c0 -56 19 -74 57 -74h40v-47z" />
    <glyph glyph-name="f_i.alt" unicode="&#xe018;" horiz-adv-x="620" 
d="M502 725c0 -12 -1 -12 -11 -12h-44c-10 0 -11 0 -11 12v41c0 13 1 13 11 13h44c10 0 11 0 11 -13v-41zM599 -8h-40c-72 0 -106 36 -106 121v382h-292v-495h-50v495h-84v42h84v67c0 133 84 175 174 175c33 0 63 -4 97 -12l-8 -42c-33 6 -58 13 -89 13
c-68 0 -124 -28 -124 -134v-67h341v-424c0 -54 19 -74 57 -74h40v-47z" />
    <glyph glyph-name="j.dotless" unicode="&#xe021;" horiz-adv-x="190" 
d="M120 -110c0 -69 -26 -132 -138 -132h-43v45h43c72 0 87 31 87 102v632h51v-647z" />
    <glyph glyph-name="uni2215" unicode="&#x2215;" horiz-adv-x="341" 
d="M490 737l-485 -753h-42l486 753h41z" />
    <glyph glyph-name="apple" unicode="&#xe00b;" horiz-adv-x="790" 
d="M693 369c0 -227 -61 -385 -299 -385c-239 0 -297 158 -297 385c0 204 58 368 296 368c239 0 300 -164 300 -368zM613 251c0 88 -46 159 -147 177l-110 20c-35 6 -41 13 -41 47c0 30 4 52 79 52c52 0 77 -16 96 -52l26 -8l70 36l10 27c-27 53 -78 116 -201 116
c-148 0 -203 -76 -203 -171c0 -107 57 -150 131 -165l116 -23c41 -8 51 -21 51 -56s-17 -74 -97 -74c-54 0 -83 16 -108 72l-27 10l-69 -36l-11 -25c37 -102 121 -139 214 -139c146 0 220 86 220 192h1zM573 251c0 -82 -55 -152 -180 -152c-77 0 -139 28 -171 97l35 18
c31 -56 73 -77 135 -77c102 0 138 56 138 114c0 59 -38 86 -83 95l-116 22c-55 10 -99 43 -99 127c0 72 36 131 162 131c91 0 133 -39 157 -77l-36 -18c-27 38 -63 56 -120 56c-93 0 -120 -35 -120 -92c0 -53 19 -77 72 -87l110 -21c81 -15 115 -65 115 -136h1z" />
    <glyph glyph-name="arrow" unicode="&#xe00d;" horiz-adv-x="790" 
d="M736 360c0 -188 -153 -341 -341 -341s-341 153 -341 341s153 341 341 341s341 -153 341 -341zM659 361l-209 209l-34 -32l149 -152h-419v-47h424l-153 -156l33 -33z" />
    <glyph glyph-name="caronalt" unicode="&#xe00f;" horiz-adv-x="200" 
d="M152 781l-60 -234c-2 -12 -5 -14 -13 -14h-5c-10 0 -11 3 -11 14l30 234h59z" />
    <glyph glyph-name="commaaccentalt" unicode="&#xe010;" horiz-adv-x="200" 
d="M116 808l19 -12c-30 -34 -42 -66 -42 -108h33c10 0 10 -3 10 -11v-53c0 -12 -2 -12 -10 -12h-56c-10 0 -10 2 -10 12v52c0 51 21 97 56 132z" />
    <glyph glyph-name="uni03A9" unicode="&#x3a9;" horiz-adv-x="662" 
d="M617 412c0 -154 -53 -276 -196 -295v-76h172v-41h-212v158c149 0 185 106 185 254c0 155 -45 282 -235 282s-235 -127 -235 -280c0 -150 36 -256 185 -256v-158h-212v41h172v76c-144 19 -196 141 -196 297c0 165 57 323 286 323s286 -158 286 -325z" />
    </font>
</defs>
</svg>
