<?xml version="1.0" standalone="no"?>
<!DOCTYPE svg PUBLIC "-//W3C//DTD SVG 1.1//EN" "http://www.w3.org/Graphics/SVG/1.1/DTD/svg11.dtd" >
<svg xmlns="http://www.w3.org/2000/svg">
    <defs>
        <font id="Geometria-Medium">
            <font-face font-family="Geometria-Medium"
                       units-per-em="1000"
                       ascent="777"
                       descent="-223"
                       bbox="-453 -251 1431 932"
                    />
            <missing-glyph horiz-adv-x="0" />
            
            <glyph glyph-name="!" unicode="&#x21;" horiz-adv-x="226" d=" M203,12 Q183,-8 154,-8 Q125,-8 104,12 Q84,33 84,62 Q84,91 104,112 Q125,133 154,133 Q183,133 203,112 Q224,91 224,62 Q224,33 203,12 M203,225 L106,225 L84,700 L226,700"/> 
            <glyph glyph-name="&quot;" unicode="&#x22;" horiz-adv-x="332" d=" M139,424 L45,424 L45,700 L139,700 M332,424 L238,424 L238,700 L332,700"/> 
            <glyph glyph-name="#" unicode="&#x23;" horiz-adv-x="716" d=" M234,0 L148,0 L177,179 L35,179 L48,262 L189,262 L218,437 L76,437 L89,521 L230,521 L259,700 L345,700 L316,521 L489,521 L517,700 L602,700 L574,521 L716,521 L702,437 L561,437 L533,262 L675,262 L662,179 L520,179 L491,0 L406,0 L435,179 L261,179 M302,437 L275,262 L448,262 L476,437"/> 
            <glyph glyph-name="$" unicode="&#x24;" horiz-adv-x="578" d=" M364,-9 L364,-111 L256,-111 L256,-10 Q128,2 46,62 L46,180 Q85,144 158,116 Q230,89 303,89 Q374,89 419.5,117.5 Q465,146 465,194 Q465,232 434,259 Q422,270 398,280 Q369,294 302,313 L288,317 Q231,333 197,346 Q170,356 127,381 Q55,426 55,522 Q55,598 108,648 Q161,698 256,710 L256,811 L364,811 L364,710 Q454,700 533,655 L533,546 Q426,611 311,611 Q241,611 204.5,586.5 Q168,562 168,521 Q168,460 312,419 Q372,403 433,380 Q498,357 538,309.5 Q578,262 578,196 Q578,112 518,58 Q460,5 364,-9"/> 
            <glyph glyph-name="%" unicode="&#x25;" horiz-adv-x="783" d=" M245,0 L161,0 L575,700 L658,700 M207,713 Q282,713 331,664 Q380,615 380,543 Q380,471 331,422 Q282,374 207,374 Q134,374 84,422 Q36,472 36,543 Q36,614 84,664 Q133,713 207,713 M207,447 Q248,447 274.5,474.5 Q301,502 301,543 Q301,585 275,612 Q249,639 207,639 Q167,639 141,611.5 Q115,584 115,543 Q115,502 141,474.5 Q167,447 207,447 M610,326 Q685,326 734,277 Q783,228 783,157 Q783,85 734,36 Q685,-13 610,-13 Q536,-13 487,36 Q439,85 439,157 Q439,228 487,277 Q536,326 610,326 M610,61 Q652,61 678,88 Q704,115 704,157 Q704,198 677.5,225.5 Q651,253 610,253 Q570,253 544,225.5 Q518,198 518,157 Q518,116 544,88.5 Q570,61 610,61"/> 
            <glyph glyph-name="&amp;" unicode="&#x26;" horiz-adv-x="722" d=" M506,661 L506,553 Q432,618 346,618 Q295,618 265.5,594 Q236,570 236,528 Q236,502 252,474 Q269,444 284,428 L328,384 L510,206 Q554,274 557,378 L661,378 Q661,236 586,132 L722,0 L582,0 L518,61 Q426,-13 304,-13 Q194,-13 118,47 Q42,108 42,215 Q42,286 81,338 Q122,391 168,412 Q128,468 128,537 Q128,613 184,663 Q240,713 327,713 Q429,713 506,661 M307,82 Q389,82 445,131 L232,339 Q198,326 173.5,292.5 Q149,259 149,217 Q149,155 194,118.5 Q239,82 307,82"/> 
            <glyph glyph-name="'" unicode="&#x27;" horiz-adv-x="139" d=" M139,424 L45,424 L45,700 L139,700"/> 
            <glyph glyph-name="(" unicode="&#x28;" horiz-adv-x="340" d=" M340,-206 L229,-206 Q82,-22 82,250 Q82,522 229,706 L340,706 Q182,503 182,250 Q182,-6 340,-206"/> 
            <glyph glyph-name=")" unicode="&#x29;" horiz-adv-x="293" d=" M146,-206 L35,-206 Q193,-6 193,250 Q193,503 35,706 L146,706 Q293,522 293,250 Q293,-22 146,-206"/> 
            <glyph glyph-name="*" unicode="&#x2A;" horiz-adv-x="390" d=" M249,332 L175,332 L177,455 L71,392 L33,456 L141,517 L33,577 L71,641 L177,577 L175,700 L249,700 L247,577 L353,641 L390,577 L281,517 L390,456 L353,392 L247,455"/> 
            <glyph glyph-name="+" unicode="&#x2B;" horiz-adv-x="563" d=" M364,81 L266,81 L266,280 L68,280 L68,377 L266,377 L266,576 L364,576 L364,377 L563,377 L563,280 L364,280"/> 
            <glyph glyph-name="," unicode="&#x2C;" horiz-adv-x="215" d=" M93,-152 L8,-152 L91,128 L215,128"/> 
            <glyph glyph-name="-" unicode="&#x2D;" horiz-adv-x="393" d=" M393,227 L98,227 L98,324 L393,324"/> 
            <glyph glyph-name="." unicode="&#x2E;" horiz-adv-x="196" d=" M126,-8 Q96,-8 75.5,12.5 Q55,33 55,63 Q55,92 75.5,112.5 Q96,133 126,133 Q154,133 175,112.5 Q196,92 196,63 Q196,33 175.5,12.5 Q155,-8 126,-8"/> 
            <glyph glyph-name="/" unicode="&#x2F;" horiz-adv-x="523" d=" M102,-140 L-8,-140 L413,792 L523,792"/> 
            <glyph glyph-name="0" unicode="&#x30;" horiz-adv-x="648" d=" M353,-13 Q220,-13 139,92 Q59,199 59,350 Q59,500 139,607 Q220,713 353,713 Q488,713 567,607 Q648,501 648,350 Q648,198 567,92 Q488,-13 353,-13 M353,90 Q436,90 487,165 Q538,240 538,350 Q538,460 487,535 Q436,610 353,610 Q271,610 220,534 Q169,459 169,350 Q169,242 220,165 Q271,90 353,90"/> 
            <glyph glyph-name="1" unicode="&#x31;" horiz-adv-x="287" d=" M287,0 L179,0 L179,582 L26,500 L26,607 L191,700 L287,700"/> 
            <glyph glyph-name="2" unicode="&#x32;" horiz-adv-x="527" d=" M527,0 L40,0 L40,80 L260,286 Q330,351 363,398 Q393,443 393,494 Q393,547 354.5,579.5 Q316,612 254,612 Q150,612 58,525 L58,640 Q144,713 265,713 Q364,713 433,656 Q503,599 503,507 Q503,436 468,378 Q431,319 350,242 L199,98 L527,98"/> 
            <glyph glyph-name="3" unicode="&#x33;" horiz-adv-x="523" d=" M249,-13 Q125,-13 40,40 L40,147 Q126,85 243,85 Q312,85 362,123 Q412,162 412,227 Q412,288 368,325.5 Q324,363 250,363 Q202,363 161,347 L161,422 L349,604 L66,604 L66,700 L495,700 L495,617 L316,445 Q400,436 462,377 Q523,319 523,227 Q523,119 444,53 Q366,-13 249,-13"/> 
            <glyph glyph-name="4" unicode="&#x34;" horiz-adv-x="609" d=" M500,0 L392,0 L392,183 L29,183 L29,267 L392,700 L500,700 L500,277 L609,277 L609,183 L500,183 M392,559 L154,277 L392,277"/> 
            <glyph glyph-name="5" unicode="&#x35;" horiz-adv-x="536" d=" M251,-13 Q138,-13 54,35 L54,138 Q140,85 246,85 Q321,85 373,123 Q425,162 425,226 Q425,287 376.5,326 Q328,365 249,365 Q168,365 81,335 L127,700 L487,700 L487,604 L207,604 L187,443 Q228,454 275,454 Q388,454 462,391 Q536,328 536,226 Q536,116 454,52 Q372,-13 251,-13"/> 
            <glyph glyph-name="6" unicode="&#x36;" horiz-adv-x="579" d=" M333,-13 Q206,-13 132,74 Q60,161 60,315 Q60,483 143,598 Q225,713 373,713 Q460,713 527,669 L527,569 Q462,613 385,613 Q284,613 230,543 Q177,472 173,373 Q234,452 354,452 Q449,452 514,390 Q579,328 579,229 Q579,122 508,54 Q438,-13 333,-13 M326,84 Q389,84 429,124 Q470,165 470,227 Q470,288 428,325 Q387,363 325,363 Q274,363 228,331 Q184,299 170,252 Q176,173 217,128.5 Q258,84 326,84"/> 
            <glyph glyph-name="7" unicode="&#x37;" horiz-adv-x="518" d=" M208,0 L90,0 L393,601 L40,601 L40,700 L518,700 L518,615"/> 
            <glyph glyph-name="8" unicode="&#x38;" horiz-adv-x="595" d=" M456,372 Q520,351 557.5,304 Q595,257 595,195 Q595,98 516,43 Q437,-13 322,-13 Q207,-13 127,43 Q48,98 48,195 Q48,257 86,304 Q124,351 188,372 Q139,393 110.5,433 Q82,473 82,524 Q82,607 150,660 Q218,713 322,713 Q425,713 493,660 Q561,607 561,524 Q561,473 533,433 Q505,393 456,372 M264,408 Q380,408 418,438 Q456,468 456,515 Q456,562 418,592 Q380,622 322,622 Q264,622 225.5,592 Q187,562 187,515 Q187,468 264,408 M482,149 Q482,255 436,289 Q392,323 322,323 Q253,323 207,289 Q161,255 161,202 Q161,149 207,115 Q254,80 322,80 Q389,80 436,115"/> 
            <glyph glyph-name="9" unicode="&#x39;" horiz-adv-x="579" d=" M306,713 Q434,713 506,626 Q579,540 579,385 Q579,217 496,101 Q414,-13 266,-13 Q179,-13 112,31 L112,131 Q177,87 254,87 Q356,87 408,157 Q462,227 466,327 Q405,248 285,248 Q188,248 124,309 Q60,370 60,471 Q60,578 130,645 Q201,713 306,713 M313,616 Q251,616 210,575 Q169,534 169,473 Q169,412 210,374 Q251,337 314,337 Q366,337 410,369 Q455,401 469,448 Q463,527 422,571.5 Q381,616 313,616"/> 
            <glyph glyph-name=":" unicode="&#x3A;" horiz-adv-x="196" d=" M126,342 Q96,342 75.5,362.5 Q55,383 55,413 Q55,442 75.5,462.5 Q96,483 126,483 Q154,483 175,462.5 Q196,442 196,413 Q196,383 175.5,362.5 Q155,342 126,342 M126,-8 Q96,-8 75.5,12.5 Q55,33 55,63 Q55,92 75.5,112.5 Q96,133 126,133 Q154,133 175,112.5 Q196,92 196,63 Q196,33 175.5,12.5 Q155,-8 126,-8"/> 
            <glyph glyph-name=";" unicode="&#x3B;" horiz-adv-x="222" d=" M93,-152 L8,-152 L91,128 L215,128 M152,342 Q122,342 101.5,362.5 Q81,383 81,413 Q81,442 101.5,462.5 Q122,483 152,483 Q180,483 201,462.5 Q222,442 222,413 Q222,383 201.5,362.5 Q181,342 152,342"/> 
            <glyph glyph-name="&lt;" unicode="&#x3C;" horiz-adv-x="563" d=" M563,176 L563,71 L68,276 L68,377 L563,584 L563,478 L180,327"/> 
            <glyph glyph-name="=" unicode="&#x3D;" horiz-adv-x="563" d=" M563,394 L68,394 L68,491 L563,491 M563,166 L68,166 L68,263 L563,263"/> 
            <glyph glyph-name="&gt;" unicode="&#x3E;" horiz-adv-x="563" d=" M563,276 L68,71 L68,176 L450,327 L68,478 L68,584 L563,377"/> 
            <glyph glyph-name="?" unicode="&#x3F;" horiz-adv-x="447" d=" M216,-8 Q186,-8 166,12.5 Q146,33 146,63 Q146,92 166,112.5 Q186,133 216,133 Q245,133 265.5,112.5 Q286,92 286,63 Q286,33 265.5,12.5 Q245,-8 216,-8 M265,225 L161,225 L161,370 Q230,383 283,421 Q336,459 336,510 Q336,558 300,585.5 Q264,613 203,613 Q115,613 28,556 L28,651 Q108,710 221,710 Q316,710 381,658 Q447,606 447,517 Q447,444 393,392 Q341,341 265,317"/> 
            <glyph glyph-name="@" unicode="&#x40;" horiz-adv-x="909" d=" M475,-163 Q295,-163 168,-38 Q42,87 42,275 Q42,460 168,586 Q294,713 475,713 Q660,713 784,593 Q909,474 909,301 Q909,193 859,125 Q810,58 730,58 Q683,58 647.5,78.5 Q612,99 594,133 Q571,100 530,77.5 Q489,55 439,55 Q350,55 295,118 Q240,180 240,274 Q240,368 295,430 Q350,493 438,493 Q525,493 581,425 L581,480 L682,480 L682,201 Q682,99 755,99 Q805,99 839,154 Q875,209 875,302 Q875,457 764,570 Q653,682 475,682 Q303,682 189,563 Q76,444 76,275 Q76,105 189,-14 Q301,-132 475,-132 Q585,-132 689,-74 L689,-109 Q592,-163 475,-163 M468,145 Q502,145 532.5,163 Q563,181 581,210 L581,338 Q563,367 532.5,385 Q502,403 468,403 Q415,403 380.5,366 Q346,329 346,274 Q346,219 380.5,182 Q415,145 468,145"/> 
            <glyph glyph-name="A" unicode="&#x41;" horiz-adv-x="740" d=" M139,0 L22,0 L328,704 L434,704 L740,0 L622,0 L546,174 L214,174 M380,565 L252,271 L508,271"/> 
            <glyph glyph-name="B" unicode="&#x42;" horiz-adv-x="667" d=" M431,0 L87,0 L87,700 L405,700 Q500,700 555.5,654 Q611,608 611,528 Q611,476 585,438 Q559,400 518,384 Q584,372 625.5,322 Q667,272 667,197 Q667,108 603,54 Q540,0 431,0 M197,321 L197,101 L411,101 Q475,101 511.5,130.5 Q548,160 548,213 Q548,265 512,293 Q476,321 411,321 M197,599 L197,418 L386,418 Q441,418 471.5,441.5 Q502,465 502,509 Q502,553 471.5,576 Q441,599 386,599"/> 
            <glyph glyph-name="C" unicode="&#x43;" horiz-adv-x="636" d=" M431,-13 Q274,-13 167,89 Q62,192 62,350 Q62,508 167,610 Q271,713 431,713 Q538,713 621,666 L621,555 Q536,610 432,610 Q322,610 248,536 Q175,463 175,350 Q175,237 249,163 Q323,90 436,90 Q556,90 636,154 L636,43 Q548,-13 431,-13"/> 
            <glyph glyph-name="D" unicode="&#x44;" horiz-adv-x="716" d=" M334,0 L87,0 L87,700 L334,700 Q502,700 609,602 Q716,504 716,350 Q716,195 609,97 Q503,0 334,0 M197,599 L197,101 L324,101 Q456,101 529,168 Q603,236 603,350 Q603,464 529,532 Q456,599 324,599"/> 
            <glyph glyph-name="E" unicode="&#x45;" horiz-adv-x="598" d=" M598,0 L87,0 L87,700 L585,700 L585,599 L197,599 L197,424 L513,424 L513,323 L197,323 L197,101 L598,101"/> 
            <glyph glyph-name="F" unicode="&#x46;" horiz-adv-x="584" d=" M197,0 L87,0 L87,700 L584,700 L584,599 L197,599 L197,416 L504,416 L504,315 L197,315"/> 
            <glyph glyph-name="G" unicode="&#x47;" horiz-adv-x="705" d=" M426,-13 Q271,-13 166,89 Q62,193 62,350 Q62,508 167,610 Q271,713 430,713 Q558,713 646,653 L646,544 Q550,610 437,610 Q322,610 249,537 Q175,463 175,349 Q175,233 247,161 Q321,90 426,90 Q533,90 595,149 L595,404 L705,404 L705,104 Q661,52 586.5,19.5 Q512,-13 426,-13"/> 
            <glyph glyph-name="H" unicode="&#x48;" horiz-adv-x="672" d=" M197,0 L87,0 L87,700 L197,700 L197,424 L562,424 L562,700 L672,700 L672,0 L562,0 L562,323 L197,323"/> 
            <glyph glyph-name="I" unicode="&#x49;" horiz-adv-x="202" d=" M202,0 L92,0 L92,700 L202,700"/> 
            <glyph glyph-name="J" unicode="&#x4A;" horiz-adv-x="430" d=" M196,-13 Q94,-13 32,30 L32,139 Q91,90 175,90 Q248,90 284,126.5 Q320,163 320,240 L320,700 L430,700 L430,222 Q430,103 368.5,45 Q307,-13 196,-13"/> 
            <glyph glyph-name="K" unicode="&#x4B;" horiz-adv-x="677" d=" M197,0 L87,0 L87,700 L197,700 L197,414 L484,700 L625,700 L301,380 L677,0 L527,0 L197,336"/> 
            <glyph glyph-name="L" unicode="&#x4C;" horiz-adv-x="570" d=" M570,0 L87,0 L87,700 L198,700 L198,101 L570,101"/> 
            <glyph glyph-name="M" unicode="&#x4D;" horiz-adv-x="761" d=" M197,0 L87,0 L87,700 L199,700 L426,385 L651,700 L761,700 L761,0 L651,0 L651,532 L456,268 L392,268 L197,532"/> 
            <glyph glyph-name="N" unicode="&#x4E;" horiz-adv-x="686" d=" M195,0 L87,0 L87,700 L183,700 L578,193 L578,700 L686,700 L686,0 L593,0 L195,509"/> 
            <glyph glyph-name="O" unicode="&#x4F;" horiz-adv-x="777" d=" M245,164 Q316,90 419,90 Q522,90 593,164 Q664,240 664,350 Q664,461 593,535 Q522,610 419,610 Q316,610 245,535 Q175,462 175,350 Q175,238 245,164 M675,91 Q573,-13 419,-13 Q265,-13 163,91 Q62,197 62,350 Q62,504 163,608 Q265,713 419,713 Q573,713 675,608 Q777,504 777,350 Q777,196 675,91"/> 
            <glyph glyph-name="P" unicode="&#x50;" horiz-adv-x="622" d=" M197,0 L87,0 L87,700 L388,700 Q498,700 559,643 Q622,588 622,497 Q622,406 559,347 Q498,289 388,289 L197,289 M197,599 L197,390 L379,390 Q441,390 476,417.5 Q511,445 511,495 Q511,545 476.5,572 Q442,599 379,599"/> 
            <glyph glyph-name="Q" unicode="&#x51;" horiz-adv-x="777" d=" M430,-13 L419,-13 Q265,-13 163,91 Q62,197 62,350 Q62,504 163,608 Q265,713 419,713 Q573,713 675,608 Q777,504 777,350 Q777,234 716,143 Q657,53 555,12 Q610,-45 667,-45 Q716,-45 750,-23 L750,-124 Q707,-146 650,-146 Q594,-146 543,-114 Q492,-82 430,-13 M245,164 Q316,90 419,90 Q522,90 593,164 Q664,240 664,350 Q664,461 593,535 Q522,610 419,610 Q316,610 245,535 Q175,462 175,350 Q175,238 245,164"/> 
            <glyph glyph-name="R" unicode="&#x52;" horiz-adv-x="705" d=" M197,0 L87,0 L87,700 L406,700 Q514,700 575,645 Q637,589 637,501 Q637,428 596.5,376.5 Q556,325 485,308 L705,0 L572,0 L361,296 L197,296 M197,599 L197,393 L399,393 Q459,393 492.5,420 Q526,447 526,497 Q526,545 492.5,572 Q459,599 399,599"/> 
            <glyph glyph-name="S" unicode="&#x53;" horiz-adv-x="577" d=" M308,-13 Q148,-13 45,62 L45,181 Q86,145 158,117 Q230,90 302,90 Q373,90 418.5,118 Q464,146 464,194 Q464,232 433,259 Q421,270 397,280 Q368,294 301,313 L287,317 Q230,333 196,346 Q169,356 126,381 Q54,426 54,522 Q54,609 122.5,661 Q191,713 308,713 Q435,713 532,655 L532,545 Q425,610 310,610 Q240,610 203.5,585.5 Q167,561 167,521 Q167,487 208,458 Q214,454 225,449.5 Q236,445 250,440 Q264,435 270,433 L350,410 Q423,388 478,358 Q571,308 577,196 Q577,99 500,43 Q423,-13 308,-13"/> 
            <glyph glyph-name="T" unicode="&#x54;" horiz-adv-x="606" d=" M33,599 L33,700 L606,700 L606,599 L374,599 L374,0 L264,0 L264,599"/> 
            <glyph glyph-name="U" unicode="&#x55;" horiz-adv-x="665" d=" M78,296 L78,700 L188,700 L188,292 Q188,195 237,142.5 Q286,90 371,90 Q456,90 505.5,142.5 Q555,195 555,292 L555,700 L665,700 L665,296 Q665,149 583,68 Q500,-13 371,-13 Q242,-13 159,67 Q78,148 78,296"/> 
            <glyph glyph-name="V" unicode="&#x56;" horiz-adv-x="731" d=" M431,-4 L327,-4 L26,700 L148,700 L380,148 L612,700 L731,700"/> 
            <glyph glyph-name="W" unicode="&#x57;" horiz-adv-x="1035" d=" M366,-4 L268,-4 L30,700 L153,700 L320,174 L490,701 L577,701 L747,174 L914,700 L1035,700 L796,-4 L699,-4 L533,517"/> 
            <glyph glyph-name="X" unicode="&#x58;" horiz-adv-x="701" d=" M145,0 L17,0 L294,379 L61,700 L191,700 L360,468 L529,700 L657,700 L423,381 L701,0 L570,0 L358,291"/> 
            <glyph glyph-name="Y" unicode="&#x59;" horiz-adv-x="668" d=" M397,0 L287,0 L287,317 L16,700 L144,700 L344,417 L544,700 L668,700 L397,320"/> 
            <glyph glyph-name="Z" unicode="&#x5A;" horiz-adv-x="601" d=" M601,0 L41,0 L41,78 L435,599 L61,599 L61,700 L585,700 L585,623 L192,101 L601,101"/> 
            <glyph glyph-name="[" unicode="&#x5B;" horiz-adv-x="371" d=" M371,-206 L87,-206 L87,706 L371,706 L371,621 L185,621 L185,-121 L371,-121"/> 
            <glyph glyph-name="\" unicode="&#x5C;" horiz-adv-x="530" d=" M530,-140 L422,-140 L1,792 L109,792"/> 
            <glyph glyph-name="]" unicode="&#x5D;" horiz-adv-x="322" d=" M38,706 L322,706 L322,-206 L38,-206 L38,-121 L224,-121 L224,621 L38,621"/> 
            <glyph glyph-name="^" unicode="&#x5E;" horiz-adv-x="491" d=" M147,342 L44,342 L216,728 L319,728 L491,342 L388,342 L268,633"/> 
            <glyph glyph-name="_" unicode="&#x5F;" horiz-adv-x="628" d=" M628,-139 L6,-139 L6,-65 L628,-65"/> 
            <glyph glyph-name="`" unicode="&#x60;" horiz-adv-x="377" d=" M148,715 L282,715 L377,575 L279,575"/> 
            <glyph glyph-name="a" unicode="&#x61;" horiz-adv-x="567" d=" M538,84 Q554,84 567,91 L567,9 Q545,-7 504,-7 Q420,-7 401,63 Q334,-13 220,-13 Q141,-13 88,31 Q36,74 36,152 Q36,230 93,272 Q149,315 233,315 Q322,315 390,277 L390,304 Q390,411 246,411 Q162,411 91,367 L91,462 Q164,504 270,504 Q374,504 435.5,454.5 Q497,405 497,316 L497,133 Q497,110 508.5,97 Q520,84 538,84 M390,139 L390,199 Q328,234 259,234 Q205,234 174.5,214 Q144,194 144,158 Q144,120 172.5,100 Q201,80 250,80 Q290,80 328,96.5 Q366,113 390,139"/> 
            <glyph glyph-name="b" unicode="&#x62;" horiz-adv-x="598" d=" M360,-13 Q247,-13 185,67 L185,0 L77,0 L77,700 L185,700 L185,424 Q247,504 360,504 Q464,504 531,429 Q598,355 598,246 Q598,136 531,62 Q464,-13 360,-13 M331,82 Q399,82 444,129 Q489,177 489,246 Q489,314 444,361 Q399,409 331,409 Q285,409 245.5,384.5 Q206,360 185,322 L185,170 Q206,131 245,106.5 Q284,82 331,82"/> 
            <glyph glyph-name="c" unicode="&#x63;" horiz-adv-x="464" d=" M307,-13 Q196,-13 119,60 Q42,134 42,247 Q42,360 119,432 Q197,504 308,504 Q392,504 456,470 L456,377 Q389,409 324,409 Q250,409 200,363 Q150,316 150,246 Q150,175 200,128 Q250,82 324,82 Q403,82 464,119 L464,27 Q394,-13 307,-13"/> 
            <glyph glyph-name="d" unicode="&#x64;" horiz-adv-x="563" d=" M280,-13 Q176,-13 109,62 Q42,136 42,246 Q42,355 109,429 Q176,504 280,504 Q393,504 455,424 L455,700 L563,700 L563,0 L455,0 L455,67 Q393,-13 280,-13 M309,82 Q356,82 395,106.5 Q434,131 455,170 L455,322 Q434,360 394.5,384.5 Q355,409 309,409 Q241,409 196,361 Q151,314 151,246 Q151,177 196,129 Q241,82 309,82"/> 
            <glyph glyph-name="e" unicode="&#x65;" horiz-adv-x="527" d=" M42,246 Q42,357 112,430 Q183,504 294,504 Q370,504 423,464 Q527,390 527,242 L527,214 L151,214 Q161,152 210.5,117 Q260,82 336,82 Q420,82 494,126 L494,35 Q426,-13 313,-13 Q200,-13 120,59 Q42,131 42,246 M152,296 L418,296 Q416,342 383,377 Q349,413 289,413 Q232,413 194.5,379.5 Q157,346 152,296"/> 
            <glyph glyph-name="f" unicode="&#x66;" horiz-adv-x="384" d=" M223,396 L223,0 L115,0 L115,396 L23,396 L23,491 L115,491 L115,555 Q115,626 155,668 Q195,710 269,710 Q333,710 384,689 L384,598 Q337,616 299,616 Q223,616 223,536 L223,491 L384,491 L384,396"/> 
            <glyph glyph-name="g" unicode="&#x67;" horiz-adv-x="563" d=" M455,427 L455,491 L563,491 L563,44 Q563,-77 482,-141 Q403,-205 287,-205 Q172,-205 95,-161 L95,-62 Q174,-110 275,-110 Q357,-110 406,-72 Q455,-34 455,42 L455,79 Q393,2 280,2 Q176,2 109,75 Q42,148 42,254 Q42,360 109,431 Q176,504 280,504 Q395,504 455,427 M309,97 Q356,97 396,120.5 Q436,144 455,181 L455,324 Q436,362 396.5,385.5 Q357,409 309,409 Q241,409 196,364 Q151,319 151,253 Q151,187 196,142 Q241,97 309,97"/> 
            <glyph glyph-name="h" unicode="&#x68;" horiz-adv-x="547" d=" M185,323 L185,0 L77,0 L77,700 L185,700 L185,426 Q257,504 365,504 Q452,504 499.5,450 Q547,396 547,300 L547,0 L439,0 L439,276 Q439,347 405,375 Q371,403 324,403 Q284,403 245,380.5 Q206,358 185,323"/> 
            <glyph glyph-name="i" unicode="&#x69;" horiz-adv-x="207" d=" M194,0 L86,0 L86,491 L194,491 M140,579 Q111,579 91.5,598.5 Q72,618 72,647 Q72,676 91.5,696 Q111,716 140,716 Q168,716 187.5,696 Q207,676 207,647 Q207,618 187.5,598.5 Q168,579 140,579"/> 
            <glyph glyph-name="j" unicode="&#x6A;" horiz-adv-x="207" d=" M31,-205 Q-32,-205 -67,-185 L-67,-91 Q-35,-110 5,-110 Q86,-110 86,-23 L86,491 L194,491 L194,-35 Q194,-117 150.5,-161 Q107,-205 31,-205 M187,598 Q168,579 139,579 Q110,579 90,598 Q71,618 71,647 Q71,676 90,696 Q110,716 139,716 Q168,716 187,696 Q207,676 207,647 Q207,618 187,598"/> 
            <glyph glyph-name="k" unicode="&#x6B;" horiz-adv-x="552" d=" M185,0 L77,0 L77,700 L185,700 L185,305 L379,491 L517,491 L284,271 L552,0 L404,0 L185,222"/> 
            <glyph glyph-name="l" unicode="&#x6C;" horiz-adv-x="280" d=" M200,-13 Q143,-13 110,18.5 Q77,50 77,116 L77,700 L185,700 L185,146 Q185,86 239,86 Q263,86 280,96 L280,3 Q249,-13 200,-13"/> 
            <glyph glyph-name="m" unicode="&#x6D;" horiz-adv-x="855" d=" M185,0 L77,0 L77,491 L185,491 L185,427 Q241,504 347,504 Q404,504 445,480 Q486,456 502,416 Q529,456 576.5,480 Q624,504 681,504 Q763,504 809,453 Q855,402 855,307 L855,0 L747,0 L747,282 Q747,403 647,403 Q608,403 572.5,379.5 Q537,356 521,321 L521,0 L413,0 L413,282 Q413,403 312,403 Q274,403 238.5,380.5 Q203,358 185,324"/> 
            <glyph glyph-name="n" unicode="&#x6E;" horiz-adv-x="547" d=" M185,323 L185,0 L77,0 L77,491 L185,491 L185,426 Q257,504 365,504 Q452,504 499.5,450 Q547,396 547,300 L547,0 L439,0 L439,276 Q439,403 324,403 Q284,403 245,380.5 Q206,358 185,323"/> 
            <glyph glyph-name="o" unicode="&#x6F;" horiz-adv-x="581" d=" M312,82 Q380,82 427,129 Q473,175 473,246 Q473,316 427,362 Q380,409 312,409 Q243,409 196,362 Q150,316 150,246 Q150,175 196,129 Q243,82 312,82 M312,-13 Q194,-13 118,62 Q42,137 42,246 Q42,354 118,429 Q194,504 312,504 Q428,504 505,429 Q581,354 581,246 Q581,138 505,62 Q428,-13 312,-13"/> 
            <glyph glyph-name="p" unicode="&#x70;" horiz-adv-x="598" d=" M360,504 Q464,504 531,429 Q598,355 598,245 Q598,136 531,62 Q464,-13 360,-13 Q247,-13 185,67 L185,-200 L77,-200 L77,491 L185,491 L185,424 Q247,504 360,504 M331,409 Q284,409 245,384.5 Q206,360 185,321 L185,169 Q206,131 245.5,106.5 Q285,82 331,82 Q399,82 444,129 Q489,177 489,245 Q489,314 444,361 Q399,409 331,409"/> 
            <glyph glyph-name="q" unicode="&#x71;" horiz-adv-x="563" d=" M280,504 Q393,504 455,424 L455,491 L563,491 L563,-200 L455,-200 L455,67 Q393,-13 280,-13 Q176,-13 109,62 Q42,136 42,245 Q42,355 109,429 Q176,504 280,504 M309,409 Q241,409 196,361 Q151,314 151,245 Q151,177 196,129 Q241,82 309,82 Q355,82 394.5,106.5 Q434,131 455,169 L455,321 Q434,360 395,384.5 Q356,409 309,409"/> 
            <glyph glyph-name="r" unicode="&#x72;" horiz-adv-x="376" d=" M185,0 L77,0 L77,491 L185,491 L185,406 Q210,449 260,476.5 Q310,504 366,504 Q373,504 376,503 L376,395 Q358,397 346,397 Q291,397 247,369 Q203,341 185,301"/> 
            <glyph glyph-name="s" unicode="&#x73;" horiz-adv-x="466" d=" M252,-13 Q121,-13 47,37 L47,139 Q133,80 247,80 Q298,80 326.5,95.5 Q355,111 355,138 Q355,162 325,177 Q312,183 278,192 L217,207 Q130,229 91,263.5 Q52,298 52,360 Q52,427 107,465.5 Q162,504 260,504 Q373,504 441,460 L441,361 Q352,411 264,411 Q215,411 189,396.5 Q163,382 163,357 Q163,334 194,318 Q198,316 241,303 L298,291 Q466,254 466,136 Q466,69 407,28 Q348,-13 252,-13"/> 
            <glyph glyph-name="t" unicode="&#x74;" horiz-adv-x="391" d=" M128,134 L128,396 L23,396 L23,491 L128,491 L128,634 L236,634 L236,491 L391,491 L391,396 L236,396 L236,165 Q236,124 255,105 Q274,86 313,86 Q352,86 387,104 L387,11 Q352,-13 278,-13 Q208,-13 168,25 Q128,63 128,134"/> 
            <glyph glyph-name="u" unicode="&#x75;" horiz-adv-x="538" d=" M430,168 L430,491 L538,491 L538,0 L430,0 L430,65 Q358,-13 250,-13 Q163,-13 115.5,41 Q68,95 68,191 L68,491 L176,491 L176,215 Q176,88 291,88 Q331,88 370,110.5 Q409,133 430,168"/> 
            <glyph glyph-name="v" unicode="&#x76;" horiz-adv-x="558" d=" M338,-4 L240,-4 L20,491 L139,491 L292,136 L443,491 L558,491"/> 
            <glyph glyph-name="w" unicode="&#x77;" horiz-adv-x="795" d=" M292,-4 L199,-4 L28,491 L138,491 L253,157 L367,493 L456,493 L572,157 L686,491 L795,491 L623,-4 L529,-4 L410,335"/> 
            <glyph glyph-name="x" unicode="&#x78;" horiz-adv-x="546" d=" M45,491 L170,491 L286,339 L403,491 L526,491 L348,259 L546,0 L421,0 L284,179 L147,0 L25,0 L223,257"/> 
            <glyph glyph-name="y" unicode="&#x79;" horiz-adv-x="549" d=" M127,-205 Q66,-205 38,-189 L38,-94 Q70,-110 109,-110 Q150,-110 178.5,-80 Q207,-50 236,18 L21,491 L141,491 L289,145 L432,491 L549,491 L314,-53 Q248,-205 127,-205"/> 
            <glyph glyph-name="z" unicode="&#x7A;" horiz-adv-x="480" d=" M480,0 L35,0 L35,72 L308,396 L53,396 L53,491 L464,491 L464,417 L191,95 L480,95"/> 
            <glyph glyph-name="{" unicode="&#x7B;" horiz-adv-x="351" d=" M52,208 L52,292 Q87,295 103,314 Q120,333 124.5,354 Q129,375 129,418 L129,553 Q129,624 170,665 Q211,706 282,706 L351,706 L351,621 L304,621 Q268,621 248,600 Q228,579 228,543 L228,388 Q228,276 153,250 Q228,224 228,112 L228,-43 Q228,-79 248,-100 Q268,-121 304,-121 L351,-121 L351,-206 L282,-206 Q211,-206 170,-165 Q129,-124 129,-53 L129,82 Q129,123 125,143 Q121,168 102.5,186.5 Q84,205 52,208"/> 
            <glyph glyph-name="|" unicode="&#x7C;" horiz-adv-x="216" d=" M216,-111 L118,-111 L118,760 L216,760"/> 
            <glyph glyph-name="}" unicode="&#x7D;" horiz-adv-x="337" d=" M337,292 L337,208 Q304,205 285,185 Q269,167 264.5,146 Q260,125 260,82 L260,-53 Q260,-124 219,-165 Q178,-206 107,-206 L38,-206 L38,-121 L85,-121 Q121,-121 141,-100 Q161,-79 161,-43 L161,112 Q161,224 236,250 Q161,276 161,388 L161,543 Q161,579 141,600 Q121,621 85,621 L38,621 L38,706 L107,706 Q178,706 219,665 Q260,624 260,553 L260,418 Q260,376 264,356 Q268,332 287,313.5 Q306,295 337,292"/> 
            <glyph glyph-name="~" unicode="&#x7E;" horiz-adv-x="540" d=" M427,184 Q384,184 304,210 Q226,237 180,237 Q108,237 68,191 L68,289 Q81,308 112.5,319.5 Q144,331 180,331 Q226,331 304,304 Q384,278 427,278 Q500,278 540,324 L540,225 Q508,184 427,184"/> 
            <glyph glyph-name="¡" unicode="&#xA1;" horiz-adv-x="226" d=" M106,478 Q127,499 156,499 Q185,499 205,478 Q226,458 226,429 Q226,400 205,379 Q185,358 156,358 Q127,358 106,379 Q86,400 86,429 Q86,458 106,478 M107,270 L204,270 L226,-200 L84,-200"/> 
            <glyph glyph-name="¢" unicode="&#xA2;" horiz-adv-x="464" d=" M349,-11 L349,-117 L258,-117 L258,-8 Q164,7 103,76 Q42,146 42,247 Q42,347 103,415 Q164,484 258,500 L258,608 L349,608 L349,502 Q402,498 456,470 L456,377 Q389,409 324,409 Q250,409 200,363 Q150,316 150,246 Q150,175 200,128 Q250,82 324,82 Q403,82 464,119 L464,27 Q414,-3 349,-11"/> 
            <glyph glyph-name="£" unicode="&#xA3;" horiz-adv-x="542" d=" M542,0 L51,0 L51,99 L66,99 Q99,99 113,114 Q127,129 127,162 L127,289 L51,289 L51,378 L127,378 L127,481 Q127,590 191.5,651.5 Q256,713 369,713 Q462,713 530,674 L530,570 Q468,610 386,610 Q314,610 275.5,573 Q237,536 237,465 L237,378 L486,378 L486,289 L237,289 L237,159 Q237,120 210,99 L542,99"/> 
            <glyph glyph-name="¤" unicode="&#xA4;" horiz-adv-x="520" d=" M162,181 L97,116 L49,163 L114,229 Q75,282 75,351 Q75,420 114,473 L49,538 L97,586 L162,521 Q214,561 284,561 Q354,561 406,521 L471,586 L520,538 L454,473 Q493,421 493,351 Q493,282 454,229 L520,163 L471,116 L406,180 Q352,141 284,141 Q214,141 162,181 M194,260 Q231,223 284,223 Q337,223 373,260 Q410,297 410,351 Q410,404 373,441 Q337,479 284,479 Q232,479 194,441 Q158,404 158,351 Q158,298 194,260"/> 
            <glyph glyph-name="¥" unicode="&#xA5;" horiz-adv-x="635" d=" M68,135 L68,213 L271,213 L271,296 L68,296 L68,374 L235,374 L16,700 L144,700 L327,417 L512,700 L635,700 L417,374 L584,374 L584,296 L381,296 L381,213 L584,213 L584,135 L381,135 L381,0 L271,0 L271,135"/> 
            <glyph glyph-name="¦" unicode="&#xA6;" horiz-adv-x="216" d=" M216,-111 L118,-111 L118,242 L216,242 M216,407 L118,407 L118,760 L216,760"/> 
            <glyph glyph-name="§" unicode="&#xA7;" horiz-adv-x="597" d=" M489,121 Q559,75 559,3 Q559,-72 493.5,-117 Q428,-162 317,-162 Q195,-162 96,-108 L96,0 Q209,-61 321,-61 Q381,-61 414,-43 Q447,-25 447,8 Q447,43 405,60 Q377,72 358,78 L330,86 Q291,98 267,104 Q155,137 102,179.5 Q49,222 49,293 Q49,388 157,430 Q87,476 87,548 Q87,623 152.5,668 Q218,713 329,713 Q448,713 550,659 L550,551 Q437,612 325,612 Q266,612 232.5,593.5 Q199,575 199,544 Q199,519 237,493 Q252,485 298,470 L338,459 L379,447 Q491,414 544,371.5 Q597,329 597,258 Q597,211 568,175.5 Q539,140 489,121 M409,163 Q493,182 493,247 Q493,293 434,319 Q404,333 376,342 Q359,348 305,365 Q250,383 237,388 Q198,380 175.5,358 Q153,336 153,304 Q153,259 211,231 Q231,222 269,208 L340,185 Q395,168 409,163"/> 
            <glyph glyph-name="¨" unicode="&#xA8;" horiz-adv-x="429" d=" M120,605 Q102,623 102,648 Q102,673 120,690 Q138,708 163,708 Q188,708 205,690 Q222,673 222,648 Q222,623 205,605 Q188,588 163,588 Q138,588 120,605 M327,605 Q309,623 309,648 Q309,673 327,690 Q345,708 370,708 Q395,708 412,690 Q429,673 429,648 Q429,623 412,605 Q395,588 370,588 Q345,588 327,605"/> 
            <glyph glyph-name="©" unicode="&#xA9;" horiz-adv-x="786" d=" M62,200 Q62,500 168,606 Q275,713 424,713 Q575,713 680,606 Q786,500 786,350 Q786,200 680,94 Q573,-13 423,-13 Q272,-13 167,93 M445,153 Q358,153 300,210 Q242,267 242,350 Q242,434 300,489 Q358,546 445,546 Q502,546 546,523 L546,450 Q500,479 445,479 Q390,479 353.5,442.5 Q317,406 317,350 Q317,293 354.5,257 Q392,221 449,221 Q512,221 555,255 L555,182 Q508,153 445,153 M752,350 Q752,488 656,585 Q561,683 424,683 Q287,683 191,585 Q95,488 95,350 Q95,212 190,114 Q286,17 423,17 Q560,17 656,115 Q752,213 752,350"/> 
            <glyph glyph-name="ª" unicode="&#xAA;" horiz-adv-x="443" d=" M212,504 Q170,504 146,488 Q122,472 122,444 Q122,414 144.5,397.5 Q167,381 205,381 Q274,381 315,429 L315,475 Q268,504 212,504 M422,384 Q434,384 443,390 L443,331 Q426,320 399,320 Q336,320 323,374 Q271,316 184,316 Q123,316 83.5,349.5 Q44,383 44,440 Q44,496 86.5,529 Q129,562 194,562 Q262,562 315,531 L315,555 Q315,641 204,641 Q143,641 87,606 L87,673 Q144,706 221,706 Q299,706 345,669.5 Q391,633 391,566 L391,423 Q391,384 422,384"/> 
            <glyph glyph-name="«" unicode="&#xAB;" horiz-adv-x="528" d=" M289,38 L179,38 L35,218 L35,273 L179,454 L289,454 L126,246 M528,38 L418,38 L274,218 L274,273 L418,454 L528,454 L366,246"/> 
            <glyph glyph-name="¬" unicode="&#xAC;" horiz-adv-x="514" d=" M514,145 L417,145 L417,311 L68,311 L68,408 L514,408"/> 
            <glyph glyph-name="­" unicode="&#xAD;" horiz-adv-x="393" d=" M393,227 L98,227 L98,324 L393,324"/> 
            <glyph glyph-name="®" unicode="&#xAE;" horiz-adv-x="786" d=" M62,200 Q62,500 168,606 Q275,713 424,713 Q575,713 680,606 Q786,500 786,350 Q786,200 680,94 Q573,-13 423,-13 Q272,-13 167,93 M347,168 L275,168 L275,548 L451,548 Q510,548 544.5,517.5 Q579,487 579,436 Q579,397 558,370 Q537,343 499,333 L618,168 L537,168 L424,324 L347,324 M347,486 L347,384 L447,384 Q475,384 490.5,397.5 Q506,411 506,434 Q506,486 447,486 M752,350 Q752,488 656,585 Q561,683 424,683 Q287,683 191,585 Q95,488 95,350 Q95,212 190,114 Q286,17 423,17 Q560,17 656,115 Q752,213 752,350"/> 
            <glyph glyph-name="¯" unicode="&#xAF;" horiz-adv-x="395" d=" M395,608 L114,608 L114,685 L395,685"/> 
            <glyph glyph-name="°" unicode="&#xB0;" horiz-adv-x="361" d=" M268,622 Q242,649 205,649 Q168,649 142,622 Q116,596 116,558 Q116,520 142,494 Q168,468 205,468 Q242,468 268,494 Q294,520 294,558 Q294,596 268,622 M49,621 Q141,713 205,713 Q268,713 314,667 Q361,620 361,558 Q361,496 314,449 Q268,404 205,404 Q142,404 95,449 Q49,495 49,621"/> 
            <glyph glyph-name="±" unicode="&#xB1;" horiz-adv-x="563" d=" M364,202 L266,202 L266,369 L68,369 L68,466 L266,466 L266,635 L364,635 L364,466 L563,466 L563,369 L364,369 M563,36 L68,36 L68,132 L563,132"/> 
            <glyph glyph-name="²" unicode="&#xB2;" horiz-adv-x="319" d=" M319,322 L40,322 L40,386 L151,482 Q217,537 217,578 Q217,599 201,612 Q185,625 158,625 Q105,625 53,585 L53,673 Q99,707 165,707 Q222,707 264,674 Q307,643 307,589 Q307,551 289,520 Q271,489 225,446 L171,396 L319,396"/> 
            <glyph glyph-name="³" unicode="&#xB3;" horiz-adv-x="303" d=" M145,315 Q75,315 24,345 L24,427 Q79,393 137,393 Q170,393 192,409 Q214,425 214,449 Q214,473 195.5,488 Q177,503 144,503 Q110,503 85,492 L85,547 L176,626 L35,626 L35,700 L286,700 L286,634 L201,559 Q245,552 274,523.5 Q303,495 303,447 Q303,388 257,351 Q210,315 145,315"/> 
            <glyph glyph-name="´" unicode="&#xB4;" horiz-adv-x="388" d=" M256,575 L158,575 L253,715 L388,715"/> 
            <glyph glyph-name="µ" unicode="&#xB5;" horiz-adv-x="547" d=" M439,168 L439,491 L547,491 L547,0 L439,0 L439,65 Q368,-13 271,-13 Q221,-13 186,10 L186,-200 L77,-200 L77,491 L186,491 L186,215 Q186,144 219,116 Q253,88 300,88 Q340,88 378.5,111 Q417,134 439,168"/> 
            <glyph glyph-name="¶" unicode="&#xB6;" horiz-adv-x="462" d=" M462,0 L352,0 L352,302 L271,302 Q162,302 101,357 Q40,412 40,501 Q40,590 101,645 Q162,700 271,700 L462,700"/> 
            <glyph glyph-name="·" unicode="&#xB7;" horiz-adv-x="196" d=" M126,315 Q96,315 75.5,335.5 Q55,356 55,386 Q55,415 75.5,435.5 Q96,456 126,456 Q154,456 175,435 Q196,414 196,386 Q196,356 175.5,335.5 Q155,315 126,315"/> 
            <glyph glyph-name="¸" unicode="&#xB8;" horiz-adv-x="318" d=" M248,-138 L123,-138 L230,8 L318,8"/> 
            <glyph glyph-name="¹" unicode="&#xB9;" horiz-adv-x="210" d=" M210,322 L121,322 L121,609 L19,556 L19,644 L125,700 L210,700"/> 
            <glyph glyph-name="º" unicode="&#xBA;" horiz-adv-x="431" d=" M346,512 Q346,563 313,597 Q280,631 229,631 Q178,631 144.5,597 Q111,563 111,512 Q111,460 144.5,425.5 Q178,391 229,391 Q280,391 313,425.5 Q346,460 346,512 M374,372 Q318,316 229,316 Q141,316 82,372 Q25,428 25,511 Q25,594 82,650 Q141,706 229,706 Q318,706 374,650 Q431,594 431,511 Q431,428 374,372"/> 
            <glyph glyph-name="»" unicode="&#xBB;" horiz-adv-x="528" d=" M528,273 L528,218 L384,38 L274,38 L437,246 L274,454 L384,454 M289,273 L289,218 L145,38 L35,38 L197,246 L35,454 L145,454"/> 
            <glyph glyph-name="¼" unicode="&#xBC;" horiz-adv-x="742" d=" M196,0 L105,0 L523,700 L614,700 M210,322 L121,322 L121,609 L19,556 L19,644 L125,700 L210,700 M687,0 L601,0 L601,92 L410,92 L410,155 L597,378 L687,378 L687,161 L742,161 L742,92 L687,92 M601,279 L500,161 L601,161"/> 
            <glyph glyph-name="½" unicode="&#xBD;" horiz-adv-x="766" d=" M196,0 L105,0 L523,700 L614,700 M210,322 L121,322 L121,609 L19,556 L19,644 L125,700 L210,700 M766,0 L487,0 L487,64 L598,160 Q664,215 664,256 Q664,277 648,290 Q632,303 605,303 Q552,303 500,263 L500,351 Q546,385 612,385 Q669,385 711,352 Q754,321 754,267 Q754,229 736,198 Q718,167 672,124 L618,74 L766,74"/> 
            <glyph glyph-name="¾" unicode="&#xBE;" horiz-adv-x="788" d=" M242,0 L151,0 L569,700 L660,700 M733,0 L647,0 L647,92 L456,92 L456,155 L643,378 L733,378 L733,161 L788,161 L788,92 L733,92 M647,279 L546,161 L647,161 M145,315 Q75,315 24,345 L24,427 Q79,393 137,393 Q170,393 192,409 Q214,425 214,449 Q214,473 195.5,488 Q177,503 144,503 Q110,503 85,492 L85,547 L176,626 L35,626 L35,700 L286,700 L286,634 L201,559 Q245,552 274,523.5 Q303,495 303,447 Q303,388 257,351 Q210,315 145,315"/> 
            <glyph glyph-name="¿" unicode="&#xBF;" horiz-adv-x="456" d=" M268,499 Q298,499 318,478.5 Q338,458 338,428 Q338,399 318,378.5 Q298,358 268,358 Q239,358 218.5,378.5 Q198,399 198,428 Q198,458 218.5,478.5 Q239,499 268,499 M219,270 L323,270 L323,131 Q252,118 200,80 Q148,43 148,-7 Q148,-54 184,-81 Q220,-108 281,-108 Q367,-108 456,-52 L456,-147 Q376,-205 263,-205 Q168,-205 103,-153 Q37,-102 37,-12 Q37,60 90,110 Q143,160 219,184"/> 
            <glyph glyph-name="À" unicode="&#xC0;" horiz-adv-x="740" d=" M139,0 L22,0 L328,704 L434,704 L740,0 L622,0 L546,174 L214,174 M380,565 L252,271 L508,271 M204,902 L339,902 L434,762 L335,762"/> 
            <glyph glyph-name="Á" unicode="&#xC1;" horiz-adv-x="740" d=" M139,0 L22,0 L328,704 L434,704 L740,0 L622,0 L546,174 L214,174 M380,565 L252,271 L508,271 M430,762 L331,762 L426,902 L561,902"/> 
            <glyph glyph-name="Â" unicode="&#xC2;" horiz-adv-x="740" d=" M139,0 L22,0 L328,704 L434,704 L740,0 L622,0 L546,174 L214,174 M380,565 L252,271 L508,271 M214,762 L328,902 L440,902 L554,762 L453,762 L384,847 L315,762"/> 
            <glyph glyph-name="Ã" unicode="&#xC3;" horiz-adv-x="740" d=" M139,0 L22,0 L328,704 L434,704 L740,0 L622,0 L546,174 L214,174 M380,565 L252,271 L508,271 M275,770 L210,770 Q211,824 239.5,860.5 Q268,897 312,897 Q342,897 385,872 Q428,848 448,848 Q481,848 488,894 L553,894 Q552,840 523.5,803.5 Q495,767 451,767 Q422,767 379,791 Q336,816 316,816 Q282,816 275,770"/> 
            <glyph glyph-name="Ä" unicode="&#xC4;" horiz-adv-x="740" d=" M139,0 L22,0 L328,704 L434,704 L740,0 L622,0 L546,174 L214,174 M380,565 L252,271 L508,271 M236,788 Q218,806 218,831 Q218,856 236,873 Q254,891 279,891 Q304,891 321,873 Q338,856 338,831 Q338,806 321,788 Q304,771 279,771 Q254,771 236,788 M443,788 Q425,806 425,831 Q425,856 443,873 Q461,891 486,891 Q511,891 528,873 Q545,856 545,831 Q545,806 528,788 Q511,771 486,771 Q461,771 443,788"/> 
            <glyph glyph-name="Å" unicode="&#xC5;" horiz-adv-x="740" d=" M139,0 L22,0 L328,704 L434,704 L740,0 L622,0 L546,174 L214,174 M380,565 L252,271 L508,271 M382,735 Q341,735 312,763.5 Q283,792 283,833 Q283,874 312,903 Q341,932 382,932 Q422,932 451,902.5 Q480,873 480,833 Q480,793 451,764 Q422,735 382,735 M382,783 Q402,783 417,797.5 Q432,812 432,833 Q432,854 417,869 Q402,884 382,884 Q351,885 338,859 Q325,833 338,807 Q351,781 382,783"/> 
            <glyph glyph-name="Æ" unicode="&#xC6;" horiz-adv-x="1005" d=" M1005,0 L501,0 L501,174 L231,174 L129,0 L7,0 L418,700 L992,700 L992,599 L611,599 L611,424 L920,424 L920,323 L611,323 L611,101 L1005,101 M501,599 L480,599 L288,271 L501,271"/> 
            <glyph glyph-name="Ç" unicode="&#xC7;" horiz-adv-x="636" d=" M416,-138 L291,-138 L384,-10 Q244,5 152,104 Q62,204 62,350 Q62,508 167,610 Q271,713 431,713 Q538,713 621,666 L621,555 Q536,610 432,610 Q322,610 248,536 Q175,463 175,350 Q175,237 249,163 Q323,90 436,90 Q556,90 636,154 L636,43 Q568,-1 477,-10"/> 
            <glyph glyph-name="È" unicode="&#xC8;" horiz-adv-x="598" d=" M598,0 L87,0 L87,700 L585,700 L585,599 L197,599 L197,424 L513,424 L513,323 L197,323 L197,101 L598,101 M174,902 L309,902 L404,762 L305,762"/> 
            <glyph glyph-name="É" unicode="&#xC9;" horiz-adv-x="598" d=" M598,0 L87,0 L87,700 L585,700 L585,599 L197,599 L197,424 L513,424 L513,323 L197,323 L197,101 L598,101 M358,762 L259,762 L354,902 L489,902"/> 
            <glyph glyph-name="Ê" unicode="&#xCA;" horiz-adv-x="598" d=" M175,762 L289,902 L401,902 L515,762 L414,762 L345,847 L276,762 M598,0 L87,0 L87,700 L585,700 L585,599 L197,599 L197,424 L513,424 L513,323 L197,323 L197,101 L598,101"/> 
            <glyph glyph-name="Ë" unicode="&#xCB;" horiz-adv-x="598" d=" M598,0 L87,0 L87,700 L585,700 L585,599 L197,599 L197,424 L513,424 L513,323 L197,323 L197,101 L598,101 M190,788 Q172,806 172,831 Q172,856 190,873 Q208,891 233,891 Q258,891 275,873 Q292,856 292,831 Q292,806 275,788 Q258,771 233,771 Q208,771 190,788 M397,788 Q379,806 379,831 Q379,856 397,873 Q415,891 440,891 Q465,891 482,873 Q499,856 499,831 Q499,806 482,788 Q465,771 440,771 Q415,771 397,788"/> 
            <glyph glyph-name="Ì" unicode="&#xCC;" horiz-adv-x="202" d=" M202,0 L92,0 L92,700 L202,700 M-32,902 L103,902 L198,762 L99,762"/> 
            <glyph glyph-name="Í" unicode="&#xCD;" horiz-adv-x="327" d=" M202,0 L92,0 L92,700 L202,700 M196,762 L97,762 L192,902 L327,902"/> 
            <glyph glyph-name="Î" unicode="&#xCE;" horiz-adv-x="320" d=" M-20,762 L94,902 L206,902 L320,762 L219,762 L150,847 L81,762 M202,0 L92,0 L92,700 L202,700"/> 
            <glyph glyph-name="Ï" unicode="&#xCF;" horiz-adv-x="310" d=" M202,0 L92,0 L92,700 L202,700 M1,788 Q-17,806 -17,831 Q-17,856 1,873 Q19,891 44,891 Q69,891 86,873 Q103,856 103,831 Q103,806 86,788 Q69,771 44,771 Q19,771 1,788 M208,788 Q190,806 190,831 Q190,856 208,873 Q226,891 251,891 Q276,891 293,873 Q310,856 310,831 Q310,806 293,788 Q276,771 251,771 Q226,771 208,788"/> 
            <glyph glyph-name="Ð" unicode="&#xD0;" horiz-adv-x="766" d=" M384,0 L137,0 L137,312 L34,312 L34,411 L137,411 L137,700 L384,700 Q552,700 659,602 Q766,504 766,350 Q766,195 659,97 Q553,0 384,0 M247,312 L247,101 L374,101 Q506,101 579,168 Q653,236 653,350 Q653,464 579,532 Q506,599 374,599 L247,599 L247,411 L398,411 L398,312"/> 
            <glyph glyph-name="Ñ" unicode="&#xD1;" horiz-adv-x="686" d=" M195,0 L87,0 L87,700 L183,700 L578,193 L578,700 L686,700 L686,0 L593,0 L195,509 M280,770 L215,770 Q216,824 244.5,860.5 Q273,897 317,897 Q347,897 390,872 Q434,848 453,848 Q486,848 493,894 L558,894 Q557,840 528.5,803.5 Q500,767 456,767 Q428,767 384,791 Q341,816 321,816 Q287,816 280,770"/> 
            <glyph glyph-name="Ò" unicode="&#xD2;" horiz-adv-x="777" d=" M245,164 Q316,90 419,90 Q522,90 593,164 Q664,240 664,350 Q664,461 593,535 Q522,610 419,610 Q316,610 245,535 Q175,462 175,350 Q175,238 245,164 M675,91 Q573,-13 419,-13 Q265,-13 163,91 Q62,197 62,350 Q62,504 163,608 Q265,713 419,713 Q573,713 675,608 Q777,504 777,350 Q777,196 675,91 M249,902 L384,902 L479,762 L380,762"/> 
            <glyph glyph-name="Ó" unicode="&#xD3;" horiz-adv-x="777" d=" M245,164 Q316,90 419,90 Q522,90 593,164 Q664,240 664,350 Q664,461 593,535 Q522,610 419,610 Q316,610 245,535 Q175,462 175,350 Q175,238 245,164 M675,91 Q573,-13 419,-13 Q265,-13 163,91 Q62,197 62,350 Q62,504 163,608 Q265,713 419,713 Q573,713 675,608 Q777,504 777,350 Q777,196 675,91 M454,762 L355,762 L450,902 L585,902"/> 
            <glyph glyph-name="Ô" unicode="&#xD4;" horiz-adv-x="777" d=" M252,762 L366,902 L478,902 L592,762 L491,762 L422,847 L353,762 M245,164 Q316,90 419,90 Q522,90 593,164 Q664,240 664,350 Q664,461 593,535 Q522,610 419,610 Q316,610 245,535 Q175,462 175,350 Q175,238 245,164 M675,91 Q573,-13 419,-13 Q265,-13 163,91 Q62,197 62,350 Q62,504 163,608 Q265,713 419,713 Q573,713 675,608 Q777,504 777,350 Q777,196 675,91"/> 
            <glyph glyph-name="Õ" unicode="&#xD5;" horiz-adv-x="777" d=" M245,164 Q316,90 419,90 Q522,90 593,164 Q664,240 664,350 Q664,461 593,535 Q522,610 419,610 Q316,610 245,535 Q175,462 175,350 Q175,238 245,164 M675,91 Q573,-13 419,-13 Q265,-13 163,91 Q62,197 62,350 Q62,504 163,608 Q265,713 419,713 Q573,713 675,608 Q777,504 777,350 Q777,196 675,91 M313,770 L248,770 Q249,824 277.5,860.5 Q306,897 350,897 Q380,897 423,872 Q466,848 486,848 Q519,848 526,894 L591,894 Q590,840 561.5,803.5 Q533,767 489,767 Q460,767 417,791 Q374,816 354,816 Q320,816 313,770"/> 
            <glyph glyph-name="Ö" unicode="&#xD6;" horiz-adv-x="777" d=" M245,164 Q316,90 419,90 Q522,90 593,164 Q664,240 664,350 Q664,461 593,535 Q522,610 419,610 Q316,610 245,535 Q175,462 175,350 Q175,238 245,164 M675,91 Q573,-13 419,-13 Q265,-13 163,91 Q62,197 62,350 Q62,504 163,608 Q265,713 419,713 Q573,713 675,608 Q777,504 777,350 Q777,196 675,91 M274,788 Q256,806 256,831 Q256,856 274,873 Q292,891 317,891 Q342,891 359,873 Q376,856 376,831 Q376,806 359,788 Q342,771 317,771 Q292,771 274,788 M481,788 Q463,806 463,831 Q463,856 481,873 Q499,891 524,891 Q549,891 566,873 Q583,856 583,831 Q583,806 566,788 Q549,771 524,771 Q499,771 481,788"/> 
            <glyph glyph-name="×" unicode="&#xD7;" horiz-adv-x="506" d=" M288,260 L137,110 L68,178 L219,328 L68,480 L137,548 L287,397 L438,548 L506,480 L356,328 L506,178 L438,110"/> 
            <glyph glyph-name="Ø" unicode="&#xD8;" horiz-adv-x="777" d=" M419,-13 Q303,-13 215,48 L176,0 L86,0 L162,93 Q62,196 62,350 Q62,504 163,608 Q265,713 419,713 Q531,713 622,652 L662,700 L753,700 L676,607 Q777,503 777,350 Q777,196 675,91 Q573,-13 419,-13 M419,90 Q522,90 593,164 Q664,240 664,350 Q664,451 606,522 L284,131 Q345,90 419,90 M175,350 Q175,249 232,178 L554,569 Q493,610 419,610 Q316,610 245,535 Q175,462 175,350"/> 
            <glyph glyph-name="Ù" unicode="&#xD9;" horiz-adv-x="665" d=" M78,296 L78,700 L188,700 L188,292 Q188,195 237,142.5 Q286,90 371,90 Q456,90 505.5,142.5 Q555,195 555,292 L555,700 L665,700 L665,296 Q665,149 583,68 Q500,-13 371,-13 Q242,-13 159,67 Q78,148 78,296 M200,902 L335,902 L430,762 L331,762"/> 
            <glyph glyph-name="Ú" unicode="&#xDA;" horiz-adv-x="665" d=" M78,296 L78,700 L188,700 L188,292 Q188,195 237,142.5 Q286,90 371,90 Q456,90 505.5,142.5 Q555,195 555,292 L555,700 L665,700 L665,296 Q665,149 583,68 Q500,-13 371,-13 Q242,-13 159,67 Q78,148 78,296 M415,762 L316,762 L411,902 L546,902"/> 
            <glyph glyph-name="Û" unicode="&#xDB;" horiz-adv-x="665" d=" M204,762 L318,902 L430,902 L544,762 L443,762 L374,847 L305,762 M78,296 L78,700 L188,700 L188,292 Q188,195 237,142.5 Q286,90 371,90 Q456,90 505.5,142.5 Q555,195 555,292 L555,700 L665,700 L665,296 Q665,149 583,68 Q500,-13 371,-13 Q242,-13 159,67 Q78,148 78,296"/> 
            <glyph glyph-name="Ü" unicode="&#xDC;" horiz-adv-x="665" d=" M78,296 L78,700 L188,700 L188,292 Q188,195 237,142.5 Q286,90 371,90 Q456,90 505.5,142.5 Q555,195 555,292 L555,700 L665,700 L665,296 Q665,149 583,68 Q500,-13 371,-13 Q242,-13 159,67 Q78,148 78,296 M227,788 Q209,806 209,831 Q209,856 227,873 Q245,891 270,891 Q295,891 312,873 Q329,856 329,831 Q329,806 312,788 Q295,771 270,771 Q245,771 227,788 M434,788 Q416,806 416,831 Q416,856 434,873 Q452,891 477,891 Q502,891 519,873 Q536,856 536,831 Q536,806 519,788 Q502,771 477,771 Q452,771 434,788"/> 
            <glyph glyph-name="Ý" unicode="&#xDD;" horiz-adv-x="668" d=" M397,0 L287,0 L287,317 L16,700 L144,700 L344,417 L544,700 L668,700 L397,320 M383,762 L284,762 L379,902 L514,902"/> 
            <glyph glyph-name="Þ" unicode="&#xDE;" horiz-adv-x="622" d=" M197,0 L87,0 L87,700 L197,700 L197,554 L388,554 Q496,554 559,498.5 Q622,443 622,351 Q622,260 559,201 Q498,143 388,143 L197,143 M197,453 L197,244 L379,244 Q441,244 476,271.5 Q511,299 511,349 Q511,400 476.5,426.5 Q442,453 379,453"/> 
            <glyph glyph-name="ß" unicode="&#xDF;" horiz-adv-x="579" d=" M362,-13 Q304,-13 271,1 L271,96 Q304,82 342,82 Q402,82 438.5,114 Q475,146 475,200 Q475,260 430,296.5 Q385,333 309,333 L290,333 L290,425 L309,425 Q362,425 392,450.5 Q422,476 422,520 Q422,563 390.5,589.5 Q359,616 308,616 Q253,616 219,580 Q185,544 185,482 L185,0 L77,0 L77,481 Q77,586 140,648 Q205,710 306,710 Q408,710 466,658 Q525,605 525,527 Q525,472 498,434.5 Q471,397 427,385 Q490,371 534,320 Q579,270 579,191 Q579,96 518,41 Q456,-13 362,-13"/> 
            <glyph glyph-name="à" unicode="&#xE0;" horiz-adv-x="567" d=" M538,84 Q554,84 567,91 L567,9 Q545,-7 504,-7 Q420,-7 401,63 Q334,-13 220,-13 Q141,-13 88,31 Q36,74 36,152 Q36,230 93,272 Q149,315 233,315 Q322,315 390,277 L390,304 Q390,411 246,411 Q162,411 91,367 L91,462 Q164,504 270,504 Q374,504 435.5,454.5 Q497,405 497,316 L497,133 Q497,110 508.5,97 Q520,84 538,84 M390,199 Q328,234 259,234 Q205,234 174.5,214 Q144,194 144,158 Q144,120 172.5,100 Q201,80 250,80 Q290,80 328,96.5 Q366,113 390,139 M128,715 L262,715 L357,575 L259,575"/> 
            <glyph glyph-name="á" unicode="&#xE1;" horiz-adv-x="567" d=" M538,84 Q554,84 567,91 L567,9 Q545,-7 504,-7 Q420,-7 401,63 Q334,-13 220,-13 Q141,-13 88,31 Q36,74 36,152 Q36,230 93,272 Q149,315 233,315 Q322,315 390,277 L390,304 Q390,411 246,411 Q162,411 91,367 L91,462 Q164,504 270,504 Q374,504 435.5,454.5 Q497,405 497,316 L497,133 Q497,110 508.5,97 Q520,84 538,84 M390,199 Q328,234 259,234 Q205,234 174.5,214 Q144,194 144,158 Q144,120 172.5,100 Q201,80 250,80 Q290,80 328,96.5 Q366,113 390,139 M302,575 L204,575 L299,715 L434,715"/> 
            <glyph glyph-name="â" unicode="&#xE2;" horiz-adv-x="567" d=" M538,84 Q554,84 567,91 L567,9 Q545,-7 504,-7 Q420,-7 401,63 Q334,-13 220,-13 Q141,-13 88,31 Q36,74 36,152 Q36,230 93,272 Q149,315 233,315 Q322,315 390,277 L390,304 Q390,411 246,411 Q162,411 91,367 L91,462 Q164,504 270,504 Q374,504 435.5,454.5 Q497,405 497,316 L497,133 Q497,110 508.5,97 Q520,84 538,84 M390,199 Q328,234 259,234 Q205,234 174.5,214 Q144,194 144,158 Q144,120 172.5,100 Q201,80 250,80 Q290,80 328,96.5 Q366,113 390,139 M110,575 L224,715 L336,715 L450,575 L349,575 L280,660 L211,575"/> 
            <glyph glyph-name="ã" unicode="&#xE3;" horiz-adv-x="567" d=" M538,84 Q554,84 567,91 L567,9 Q545,-7 504,-7 Q420,-7 401,63 Q334,-13 220,-13 Q141,-13 88,31 Q36,74 36,152 Q36,230 93,272 Q149,315 233,315 Q322,315 390,277 L390,304 Q390,411 246,411 Q162,411 91,367 L91,462 Q164,504 270,504 Q374,504 435.5,454.5 Q497,405 497,316 L497,133 Q497,110 508.5,97 Q520,84 538,84 M390,199 Q328,234 259,234 Q205,234 174.5,214 Q144,194 144,158 Q144,120 172.5,100 Q201,80 250,80 Q290,80 328,96.5 Q366,113 390,139 M182,585 L117,585 Q118,640 146.5,676.5 Q175,713 219,713 Q248,713 291,688 Q334,664 354,664 Q388,664 395,710 L460,710 Q459,656 430.5,619 Q402,582 358,582 Q330,582 286,606 Q243,631 222,631 Q189,631 182,585"/> 
            <glyph glyph-name="ä" unicode="&#xE4;" horiz-adv-x="567" d=" M538,84 Q554,84 567,91 L567,9 Q545,-7 504,-7 Q420,-7 401,63 Q334,-13 220,-13 Q141,-13 88,31 Q36,74 36,152 Q36,230 93,272 Q149,315 233,315 Q322,315 390,277 L390,304 Q390,411 246,411 Q162,411 91,367 L91,462 Q164,504 270,504 Q374,504 435.5,454.5 Q497,405 497,316 L497,133 Q497,110 508.5,97 Q520,84 538,84 M390,199 Q328,234 259,234 Q205,234 174.5,214 Q144,194 144,158 Q144,120 172.5,100 Q201,80 250,80 Q290,80 328,96.5 Q366,113 390,139 M139,605 Q121,623 121,648 Q121,673 139,690 Q157,708 182,708 Q207,708 224,690 Q241,673 241,648 Q241,623 224,605 Q207,588 182,588 Q157,588 139,605 M346,605 Q328,623 328,648 Q328,673 346,690 Q364,708 389,708 Q414,708 431,690 Q448,673 448,648 Q448,623 431,605 Q414,588 389,588 Q364,588 346,605"/> 
            <glyph glyph-name="å" unicode="&#xE5;" horiz-adv-x="567" d=" M538,84 Q554,84 567,91 L567,9 Q545,-7 504,-7 Q420,-7 401,63 Q334,-13 220,-13 Q141,-13 88,31 Q36,74 36,152 Q36,230 93,272 Q149,315 233,315 Q322,315 390,277 L390,304 Q390,411 246,411 Q162,411 91,367 L91,462 Q164,504 270,504 Q374,504 435.5,454.5 Q497,405 497,316 L497,133 Q497,110 508.5,97 Q520,84 538,84 M390,199 Q328,234 259,234 Q205,234 174.5,214 Q144,194 144,158 Q144,120 172.5,100 Q201,80 250,80 Q290,80 328,96.5 Q366,113 390,139 M355,579 Q326,550 286,550 Q246,550 216,579 Q187,608 187,648 Q187,688 216,717 Q246,747 286,747 Q326,747 355,717 Q385,688 385,648 Q385,608 355,579 M337,648 Q338,679 312,692 Q286,705 260,692 Q234,679 235,648 Q235,628 250,613 Q265,598 286,598 Q307,598 322,613 Q337,628 337,648"/> 
            <glyph glyph-name="æ" unicode="&#xE6;" horiz-adv-x="871" d=" M871,242 L871,214 L495,214 Q505,152 555,117 Q605,82 681,82 Q764,82 838,126 L838,35 Q774,-13 658,-13 Q590,-13 532.5,13.5 Q475,40 439,88 Q346,-13 221,-13 Q139,-13 87.5,31.5 Q36,76 36,152 Q36,230 93,272 Q149,315 233,315 Q322,315 390,277 L390,304 Q390,411 246,411 Q162,411 91,367 L91,462 Q164,504 270,504 Q326,504 375,482.5 Q424,461 455,423 Q526,504 639,504 Q715,504 768,464 Q871,390 871,242 M403,152 Q396,174 391,200 Q327,234 260,234 Q206,234 175,214 Q144,194 144,158 Q144,80 250,80 Q296,80 337,100 Q378,120 403,152 M496,296 L762,296 Q760,342 727,377 Q694,413 634,413 Q576,413 538.5,379.5 Q501,346 496,296"/> 
            <glyph glyph-name="ç" unicode="&#xE7;" horiz-adv-x="464" d=" M305,-138 L180,-138 L273,-11 Q173,1 108,71 Q42,142 42,247 Q42,360 119,432 Q197,504 308,504 Q392,504 456,470 L456,377 Q389,409 324,409 Q250,409 200,363 Q150,316 150,246 Q150,175 200,128 Q250,82 324,82 Q403,82 464,119 L464,27 Q418,1 367,-8"/> 
            <glyph glyph-name="è" unicode="&#xE8;" horiz-adv-x="527" d=" M42,246 Q42,357 112,430 Q183,504 294,504 Q370,504 423,464 Q527,390 527,242 L527,214 L151,214 Q161,152 210.5,117 Q260,82 336,82 Q420,82 494,126 L494,35 Q426,-13 313,-13 Q200,-13 120,59 Q42,131 42,246 M152,296 L418,296 Q416,342 383,377 Q349,413 289,413 Q232,413 194.5,379.5 Q157,346 152,296 M150,715 L284,715 L379,575 L281,575"/> 
            <glyph glyph-name="é" unicode="&#xE9;" horiz-adv-x="527" d=" M42,246 Q42,357 112,430 Q183,504 294,504 Q370,504 423,464 Q527,390 527,242 L527,214 L151,214 Q161,152 210.5,117 Q260,82 336,82 Q420,82 494,126 L494,35 Q426,-13 313,-13 Q200,-13 120,59 Q42,131 42,246 M152,296 L418,296 Q416,342 383,377 Q349,413 289,413 Q232,413 194.5,379.5 Q157,346 152,296 M313,575 L215,575 L310,715 L445,715"/> 
            <glyph glyph-name="ê" unicode="&#xEA;" horiz-adv-x="527" d=" M42,246 Q42,357 112,430 Q183,504 294,504 Q370,504 423,464 Q527,390 527,242 L527,214 L151,214 Q161,152 210.5,117 Q260,82 336,82 Q420,82 494,126 L494,35 Q426,-13 313,-13 Q200,-13 120,59 Q42,131 42,246 M152,296 L418,296 Q416,342 383,377 Q349,413 289,413 Q232,413 194.5,379.5 Q157,346 152,296 M127,575 L241,715 L353,715 L467,575 L366,575 L297,660 L228,575"/> 
            <glyph glyph-name="ë" unicode="&#xEB;" horiz-adv-x="527" d=" M42,246 Q42,357 112,430 Q183,504 294,504 Q370,504 423,464 Q527,390 527,242 L527,214 L151,214 Q161,152 210.5,117 Q260,82 336,82 Q420,82 494,126 L494,35 Q426,-13 313,-13 Q200,-13 120,59 Q42,131 42,246 M152,296 L418,296 Q416,342 383,377 Q349,413 289,413 Q232,413 194.5,379.5 Q157,346 152,296 M153,605 Q135,623 135,648 Q135,673 153,690 Q171,708 196,708 Q221,708 238,690 Q255,673 255,648 Q255,623 238,605 Q221,588 196,588 Q171,588 153,605 M360,605 Q342,623 342,648 Q342,673 360,690 Q378,708 403,708 Q428,708 445,690 Q462,673 462,648 Q462,623 445,605 Q428,588 403,588 Q378,588 360,605"/> 
            <glyph glyph-name="ì" unicode="&#xEC;" horiz-adv-x="195" d=" M195,0 L86,0 L86,491 L195,491 M-46,715 L88,715 L183,575 L85,575"/> 
            <glyph glyph-name="í" unicode="&#xED;" horiz-adv-x="316" d=" M184,576 L87,576 L181,716 L316,716 M195,0 L86,0 L86,491 L195,491"/> 
            <glyph glyph-name="î" unicode="&#xEE;" horiz-adv-x="310" d=" M-30,575 L84,715 L196,715 L310,575 L209,575 L140,660 L71,575 M195,0 L86,0 L86,491 L195,491"/> 
            <glyph glyph-name="ï" unicode="&#xEF;" horiz-adv-x="304" d=" M-5,605 Q-23,623 -23,648 Q-23,673 -5,690 Q13,708 38,708 Q63,708 80,690 Q97,673 97,648 Q97,623 80,605 Q63,588 38,588 Q13,588 -5,605 M202,605 Q184,623 184,648 Q184,673 202,690 Q220,708 245,708 Q270,708 287,690 Q304,673 304,648 Q304,623 287,605 Q270,588 245,588 Q220,588 202,605 M195,0 L86,0 L86,491 L195,491"/> 
            <glyph glyph-name="ð" unicode="&#xF0;" horiz-adv-x="557" d=" M268,459 Q331,459 373,435 L280,558 L162,510 L121,565 L239,612 L173,700 L284,700 L324,646 L419,684 L460,630 L365,592 L472,448 Q518,386 537.5,340 Q557,294 557,238 Q557,133 484,60 Q411,-13 299,-13 Q188,-13 114,58 Q42,128 42,229 Q42,330 105,394 Q170,459 268,459 M149,168 Q235,82 299,82 Q363,82 406,125 Q450,169 450,231 Q450,293 406,337 Q362,381 299,381 Q236,381 192,337 Q149,294 149,168"/> 
            <glyph glyph-name="ñ" unicode="&#xF1;" horiz-adv-x="547" d=" M77,0 L77,491 L185,491 L185,426 Q257,504 365,504 Q452,504 499.5,450 Q547,396 547,300 L547,0 L439,0 L439,276 Q439,403 324,403 Q284,403 245,380.5 Q206,358 185,323 L185,0 M216,585 L151,585 Q152,640 180.5,676.5 Q209,713 253,713 Q282,713 325,688 Q368,664 388,664 Q422,664 429,710 L494,710 Q493,656 464.5,619 Q436,582 392,582 Q364,582 320,606 Q277,631 256,631 Q223,631 216,585"/> 
            <glyph glyph-name="ò" unicode="&#xF2;" horiz-adv-x="581" d=" M312,82 Q380,82 427,129 Q473,175 473,246 Q473,316 427,362 Q380,409 312,409 Q243,409 196,362 Q150,316 150,246 Q150,175 196,129 Q243,82 312,82 M312,-13 Q194,-13 118,62 Q42,137 42,246 Q42,354 118,429 Q194,504 312,504 Q428,504 505,429 Q581,354 581,246 Q581,138 505,62 Q428,-13 312,-13 M145,715 L279,715 L374,575 L276,575"/> 
            <glyph glyph-name="ó" unicode="&#xF3;" horiz-adv-x="581" d=" M312,82 Q380,82 427,129 Q473,175 473,246 Q473,316 427,362 Q380,409 312,409 Q243,409 196,362 Q150,316 150,246 Q150,175 196,129 Q243,82 312,82 M312,-13 Q194,-13 118,62 Q42,137 42,246 Q42,354 118,429 Q194,504 312,504 Q428,504 505,429 Q581,354 581,246 Q581,138 505,62 Q428,-13 312,-13 M351,575 L253,575 L348,715 L483,715"/> 
            <glyph glyph-name="ô" unicode="&#xF4;" horiz-adv-x="581" d=" M142,575 L256,715 L368,715 L482,575 L381,575 L312,660 L243,575 M312,82 Q380,82 427,129 Q473,175 473,246 Q473,316 427,362 Q380,409 312,409 Q243,409 196,362 Q150,316 150,246 Q150,175 196,129 Q243,82 312,82 M312,-13 Q194,-13 118,62 Q42,137 42,246 Q42,354 118,429 Q194,504 312,504 Q428,504 505,429 Q581,354 581,246 Q581,138 505,62 Q428,-13 312,-13"/> 
            <glyph glyph-name="õ" unicode="&#xF5;" horiz-adv-x="581" d=" M312,82 Q380,82 427,129 Q473,175 473,246 Q473,316 427,362 Q380,409 312,409 Q243,409 196,362 Q150,316 150,246 Q150,175 196,129 Q243,82 312,82 M312,-13 Q194,-13 118,62 Q42,137 42,246 Q42,354 118,429 Q194,504 312,504 Q428,504 505,429 Q581,354 581,246 Q581,138 505,62 Q428,-13 312,-13 M205,585 L140,585 Q141,640 169.5,676.5 Q198,713 242,713 Q271,713 314,688 Q358,664 377,664 Q411,664 418,710 L483,710 Q482,656 453.5,619 Q425,582 381,582 Q352,582 308,606 Q265,631 245,631 Q212,631 205,585"/> 
            <glyph glyph-name="ö" unicode="&#xF6;" horiz-adv-x="581" d=" M312,82 Q380,82 427,129 Q473,175 473,246 Q473,316 427,362 Q380,409 312,409 Q243,409 196,362 Q150,316 150,246 Q150,175 196,129 Q243,82 312,82 M312,-13 Q194,-13 118,62 Q42,137 42,246 Q42,354 118,429 Q194,504 312,504 Q428,504 505,429 Q581,354 581,246 Q581,138 505,62 Q428,-13 312,-13 M166,605 Q148,623 148,648 Q148,673 166,690 Q184,708 209,708 Q234,708 251,690 Q268,673 268,648 Q268,623 251,605 Q234,588 209,588 Q184,588 166,605 M373,605 Q355,623 355,648 Q355,673 373,690 Q391,708 416,708 Q441,708 458,690 Q475,673 475,648 Q475,623 458,605 Q441,588 416,588 Q391,588 373,605"/> 
            <glyph glyph-name="÷" unicode="&#xF7;" horiz-adv-x="547" d=" M235,545 Q235,575 256,596 Q277,617 308,617 Q339,617 359.5,596 Q380,575 380,545 Q380,514 359.5,493 Q339,472 308,472 Q277,472 256,493 Q235,514 235,545 M547,280 L68,280 L68,377 L547,377 M235,114 Q235,144 256,165.5 Q277,187 308,187 Q338,187 359,165.5 Q380,144 380,114 Q380,83 359.5,62.5 Q339,42 308,42 Q277,42 256,62.5 Q235,83 235,114"/> 
            <glyph glyph-name="ø" unicode="&#xF8;" horiz-adv-x="581" d=" M312,-13 Q231,-13 166,25 L144,0 L62,0 L116,64 Q42,138 42,246 Q42,354 118,429 Q194,504 312,504 Q393,504 458,465 L480,491 L562,491 L507,426 Q581,354 581,246 Q581,138 505,62 Q428,-13 312,-13 M150,246 Q150,186 184,143 L392,388 Q354,409 312,409 Q243,409 196,362 Q150,316 150,246 M312,82 Q380,82 427,129 Q473,175 473,246 Q473,303 439,347 L231,102 Q269,82 312,82"/> 
            <glyph glyph-name="ù" unicode="&#xF9;" horiz-adv-x="538" d=" M538,491 L538,0 L430,0 L430,65 Q358,-13 250,-13 Q163,-13 115.5,41 Q68,95 68,191 L68,491 L176,491 L176,215 Q176,88 291,88 Q331,88 370,110.5 Q409,133 430,168 L430,491 M151,715 L285,715 L380,575 L282,575"/> 
            <glyph glyph-name="ú" unicode="&#xFA;" horiz-adv-x="538" d=" M538,491 L538,0 L430,0 L430,65 Q358,-13 250,-13 Q163,-13 115.5,41 Q68,95 68,191 L68,491 L176,491 L176,215 Q176,88 291,88 Q331,88 370,110.5 Q409,133 430,168 L430,491 M328,575 L230,575 L325,715 L460,715"/> 
            <glyph glyph-name="û" unicode="&#xFB;" horiz-adv-x="538" d=" M538,491 L538,0 L430,0 L430,65 Q358,-13 250,-13 Q163,-13 115.5,41 Q68,95 68,191 L68,491 L176,491 L176,215 Q176,88 291,88 Q331,88 370,110.5 Q409,133 430,168 L430,491 M134,575 L248,715 L360,715 L474,575 L373,575 L304,660 L235,575"/> 
            <glyph glyph-name="ü" unicode="&#xFC;" horiz-adv-x="538" d=" M538,491 L538,0 L430,0 L430,65 Q358,-13 250,-13 Q163,-13 115.5,41 Q68,95 68,191 L68,491 L176,491 L176,215 Q176,88 291,88 Q331,88 370,110.5 Q409,133 430,168 L430,491 M158,605 Q140,623 140,648 Q140,673 158,690 Q176,708 201,708 Q226,708 243,690 Q260,673 260,648 Q260,623 243,605 Q226,588 201,588 Q176,588 158,605 M365,605 Q347,623 347,648 Q347,673 365,690 Q383,708 408,708 Q433,708 450,690 Q467,673 467,648 Q467,623 450,605 Q433,588 408,588 Q383,588 365,605"/> 
            <glyph glyph-name="ý" unicode="&#xFD;" horiz-adv-x="549" d=" M127,-205 Q66,-205 38,-189 L38,-94 Q70,-110 109,-110 Q150,-110 178.5,-80 Q207,-50 236,18 L21,491 L141,491 L289,145 L432,491 L549,491 L314,-53 Q248,-205 127,-205 M320,575 L222,575 L317,715 L452,715"/> 
            <glyph glyph-name="þ" unicode="&#xFE;" horiz-adv-x="598" d=" M360,504 Q464,504 531,429 Q598,355 598,245 Q598,136 531,62 Q464,-13 360,-13 Q247,-13 185,67 L185,-200 L77,-200 L77,700 L185,700 L185,424 Q247,504 360,504 M331,409 Q284,409 245,384.5 Q206,360 185,321 L185,169 Q206,131 245.5,106.5 Q285,82 331,82 Q399,82 444,129 Q489,177 489,245 Q489,314 444,361 Q399,409 331,409"/> 
            <glyph glyph-name="ÿ" unicode="&#xFF;" horiz-adv-x="549" d=" M127,-205 Q66,-205 38,-189 L38,-94 Q70,-110 109,-110 Q150,-110 178.5,-80 Q207,-50 236,18 L21,491 L141,491 L289,145 L432,491 L549,491 L314,-53 Q248,-205 127,-205 M137,605 Q119,623 119,648 Q119,673 137,690 Q155,708 180,708 Q205,708 222,690 Q239,673 239,648 Q239,623 222,605 Q205,588 180,588 Q155,588 137,605 M344,605 Q326,623 326,648 Q326,673 344,690 Q362,708 387,708 Q412,708 429,690 Q446,673 446,648 Q446,623 429,605 Q412,588 387,588 Q362,588 344,605"/> 
            <glyph glyph-name="Ā" unicode="&#x100;" horiz-adv-x="740" d=" M139,0 L22,0 L328,704 L434,704 L740,0 L622,0 L546,174 L214,174 M380,565 L252,271 L508,271 M522,793 L241,793 L241,870 L522,870"/> 
            <glyph glyph-name="ā" unicode="&#x101;" horiz-adv-x="567" d=" M538,84 Q554,84 567,91 L567,9 Q545,-7 504,-7 Q420,-7 401,63 Q334,-13 220,-13 Q141,-13 88,31 Q36,74 36,152 Q36,230 93,272 Q149,315 233,315 Q322,315 390,277 L390,304 Q390,411 246,411 Q162,411 91,367 L91,462 Q164,504 270,504 Q374,504 435.5,454.5 Q497,405 497,316 L497,133 Q497,110 508.5,97 Q520,84 538,84 M390,199 Q328,234 259,234 Q205,234 174.5,214 Q144,194 144,158 Q144,120 172.5,100 Q201,80 250,80 Q290,80 328,96.5 Q366,113 390,139 M431,608 L150,608 L150,685 L431,685"/> 
            <glyph glyph-name="Ă" unicode="&#x102;" horiz-adv-x="740" d=" M139,0 L22,0 L328,704 L434,704 L740,0 L622,0 L546,174 L214,174 M380,565 L252,271 L508,271 M382,748 Q318,748 274,790 Q229,835 228,902 L308,902 Q310,868 331,845.5 Q352,823 382,823 Q412,823 432.5,845.5 Q453,868 455,902 L535,902 Q534,833 489,790 Q446,748 382,748"/> 
            <glyph glyph-name="ă" unicode="&#x103;" horiz-adv-x="567" d=" M538,84 Q554,84 567,91 L567,9 Q545,-7 504,-7 Q420,-7 401,63 Q334,-13 220,-13 Q141,-13 88,31 Q36,74 36,152 Q36,230 93,272 Q149,315 233,315 Q322,315 390,277 L390,304 Q390,411 246,411 Q162,411 91,367 L91,462 Q164,504 270,504 Q374,504 435.5,454.5 Q497,405 497,316 L497,133 Q497,110 508.5,97 Q520,84 538,84 M390,199 Q328,234 259,234 Q205,234 174.5,214 Q144,194 144,158 Q144,120 172.5,100 Q201,80 250,80 Q290,80 328,96.5 Q366,113 390,139 M285,561 Q220,561 177,603 Q132,648 131,715 L211,715 Q213,681 234,658.5 Q255,636 285,636 Q315,636 336,658.5 Q357,681 359,715 L438,715 Q437,646 392,603 Q348,561 285,561"/> 
            <glyph glyph-name="Ą" unicode="&#x104;" horiz-adv-x="804" d=" M748,-199 Q694,-199 660.5,-170 Q627,-141 627,-98 Q627,-44 671,0 L622,0 L546,174 L214,174 L139,0 L22,0 L328,704 L434,704 L740,0 Q704,-36 704,-76 Q704,-102 721,-117.5 Q738,-133 766,-133 Q786,-133 804,-126 L804,-192 Q784,-199 748,-199 M380,565 L252,271 L508,271"/> 
            <glyph glyph-name="ą" unicode="&#x105;" horiz-adv-x="631" d=" M575,-190 Q521,-190 487.5,-161 Q454,-132 454,-89 Q454,-43 485,-6 Q418,2 401,63 Q334,-13 220,-13 Q141,-13 88,31 Q36,74 36,152 Q36,230 93,272 Q149,315 233,315 Q322,315 390,277 L390,304 Q390,411 246,411 Q162,411 91,367 L91,462 Q164,504 270,504 Q374,504 435.5,454.5 Q497,405 497,316 L497,133 Q497,110 508.5,97 Q520,84 538,84 Q554,84 567,91 L567,9 Q531,-27 531,-67 Q531,-93 548,-108.5 Q565,-124 593,-124 Q613,-124 631,-117 L631,-183 Q611,-190 575,-190 M390,139 L390,199 Q328,234 259,234 Q205,234 174.5,214 Q144,194 144,158 Q144,120 172.5,100 Q201,80 250,80 Q290,80 328,96.5 Q366,113 390,139"/> 
            <glyph glyph-name="Ć" unicode="&#x106;" horiz-adv-x="636" d=" M431,-13 Q274,-13 167,89 Q62,192 62,350 Q62,508 167,610 Q271,713 431,713 Q538,713 621,666 L621,555 Q536,610 432,610 Q322,610 248,536 Q175,463 175,350 Q175,237 249,163 Q323,90 436,90 Q556,90 636,154 L636,43 Q548,-13 431,-13 M434,762 L335,762 L430,902 L565,902"/> 
            <glyph glyph-name="ć" unicode="&#x107;" horiz-adv-x="464" d=" M307,-13 Q196,-13 119,60 Q42,134 42,247 Q42,360 119,432 Q197,504 308,504 Q392,504 456,470 L456,377 Q389,409 324,409 Q250,409 200,363 Q150,316 150,246 Q150,175 200,128 Q250,82 324,82 Q403,82 464,119 L464,27 Q394,-13 307,-13 M310,575 L212,575 L307,715 L442,715"/> 
            <glyph glyph-name="Ĉ" unicode="&#x108;" horiz-adv-x="636" d=" M232,762 L346,902 L458,902 L572,762 L471,762 L402,847 L333,762 M431,-13 Q274,-13 167,89 Q62,192 62,350 Q62,508 167,610 Q271,713 431,713 Q538,713 621,666 L621,555 Q536,610 432,610 Q322,610 248,536 Q175,463 175,350 Q175,237 249,163 Q323,90 436,90 Q556,90 636,154 L636,43 Q548,-13 431,-13"/> 
            <glyph glyph-name="ĉ" unicode="&#x109;" horiz-adv-x="464" d=" M112,575 L226,715 L338,715 L452,575 L351,575 L282,660 L213,575 M307,-13 Q196,-13 119,60 Q42,134 42,247 Q42,360 119,432 Q197,504 308,504 Q392,504 456,470 L456,377 Q389,409 324,409 Q250,409 200,363 Q150,316 150,246 Q150,175 200,128 Q250,82 324,82 Q403,82 464,119 L464,27 Q394,-13 307,-13"/> 
            <glyph glyph-name="Ċ" unicode="&#x10A;" horiz-adv-x="636" d=" M431,-13 Q274,-13 167,89 Q62,192 62,350 Q62,508 167,610 Q271,713 431,713 Q538,713 621,666 L621,555 Q536,610 432,610 Q322,610 248,536 Q175,463 175,350 Q175,237 249,163 Q323,90 436,90 Q556,90 636,154 L636,43 Q548,-13 431,-13 M353,831 Q353,856 371,874 Q389,892 415,892 Q441,892 459,874.5 Q477,857 477,831 Q477,805 459,786.5 Q441,768 415,768 Q389,768 371,786.5 Q353,805 353,831"/> 
            <glyph glyph-name="ċ" unicode="&#x10B;" horiz-adv-x="464" d=" M307,-13 Q196,-13 119,60 Q42,134 42,247 Q42,360 119,432 Q197,504 308,504 Q392,504 456,470 L456,377 Q389,409 324,409 Q250,409 200,363 Q150,316 150,246 Q150,175 200,128 Q250,82 324,82 Q403,82 464,119 L464,27 Q394,-13 307,-13 M238,648 Q238,673 256,691 Q274,709 300,709 Q326,709 344,691.5 Q362,674 362,648 Q362,622 344,604 Q326,586 300,586 Q274,586 256,604 Q238,622 238,648"/> 
            <glyph glyph-name="Č" unicode="&#x10C;" horiz-adv-x="636" d=" M578,902 L464,762 L352,762 L238,902 L339,902 L408,817 L477,902 M431,-13 Q274,-13 167,89 Q62,192 62,350 Q62,508 167,610 Q271,713 431,713 Q538,713 621,666 L621,555 Q536,610 432,610 Q322,610 248,536 Q175,463 175,350 Q175,237 249,163 Q323,90 436,90 Q556,90 636,154 L636,43 Q548,-13 431,-13"/> 
            <glyph glyph-name="č" unicode="&#x10D;" horiz-adv-x="464" d=" M459,715 L345,575 L233,575 L119,715 L220,715 L289,630 L358,715 M307,-13 Q196,-13 119,60 Q42,134 42,247 Q42,360 119,432 Q197,504 308,504 Q392,504 456,470 L456,377 Q389,409 324,409 Q250,409 200,363 Q150,316 150,246 Q150,175 200,128 Q250,82 324,82 Q403,82 464,119 L464,27 Q394,-13 307,-13"/> 
            <glyph glyph-name="Ď" unicode="&#x10E;" horiz-adv-x="716" d=" M517,902 L403,762 L291,762 L177,902 L278,902 L347,817 L416,902 M334,0 L87,0 L87,700 L334,700 Q502,700 609,602 Q716,504 716,350 Q716,195 609,97 Q503,0 334,0 M197,599 L197,101 L324,101 Q456,101 529,168 Q603,236 603,350 Q603,464 529,532 Q456,599 324,599"/> 
            <glyph glyph-name="ď" unicode="&#x10F;" horiz-adv-x="804" d=" M280,-13 Q176,-13 109,62 Q42,136 42,246 Q42,355 109,429 Q176,504 280,504 Q393,504 455,424 L455,700 L563,700 L563,0 L455,0 L455,67 Q393,-13 280,-13 M309,82 Q356,82 395,106.5 Q434,131 455,170 L455,322 Q434,360 394.5,384.5 Q355,409 309,409 Q241,409 196,361 Q151,314 151,246 Q151,177 196,129 Q241,82 309,82 M720,509 L638,509 L696,700 L804,700"/> 
            <glyph glyph-name="Đ" unicode="&#x110;" horiz-adv-x="766" d=" M384,0 L137,0 L137,312 L34,312 L34,411 L137,411 L137,700 L384,700 Q552,700 659,602 Q766,504 766,350 Q766,195 659,97 Q553,0 384,0 M247,312 L247,101 L374,101 Q506,101 579,168 Q653,236 653,350 Q653,464 579,532 Q506,599 374,599 L247,599 L247,411 L398,411 L398,312"/> 
            <glyph glyph-name="đ" unicode="&#x111;" horiz-adv-x="659" d=" M455,555 L331,555 L331,624 L455,624 L455,700 L563,700 L563,624 L659,624 L659,555 L563,555 L563,0 L455,0 L455,67 Q393,-13 280,-13 Q176,-13 109,62 Q42,136 42,246 Q42,355 109,429 Q176,504 280,504 Q393,504 455,424 M309,82 Q356,82 395,106.5 Q434,131 455,170 L455,322 Q434,360 394.5,384.5 Q355,409 309,409 Q241,409 196,361 Q151,314 151,246 Q151,177 196,129 Q241,82 309,82"/> 
            <glyph glyph-name="Ē" unicode="&#x112;" horiz-adv-x="598" d=" M598,0 L87,0 L87,700 L585,700 L585,599 L197,599 L197,424 L513,424 L513,323 L197,323 L197,101 L598,101 M483,793 L202,793 L202,870 L483,870"/> 
            <glyph glyph-name="ē" unicode="&#x113;" horiz-adv-x="527" d=" M42,246 Q42,357 112,430 Q183,504 294,504 Q370,504 423,464 Q527,390 527,242 L527,214 L151,214 Q161,152 210.5,117 Q260,82 336,82 Q420,82 494,126 L494,35 Q426,-13 313,-13 Q200,-13 120,59 Q42,131 42,246 M152,296 L418,296 Q416,342 383,377 Q349,413 289,413 Q232,413 194.5,379.5 Q157,346 152,296 M439,608 L158,608 L158,685 L439,685"/> 
            <glyph glyph-name="Ĕ" unicode="&#x114;" horiz-adv-x="598" d=" M598,0 L87,0 L87,700 L585,700 L585,599 L197,599 L197,424 L513,424 L513,323 L197,323 L197,101 L598,101 M343,748 Q278,748 235,790 Q190,835 189,902 L269,902 Q271,868 292,845.5 Q313,823 343,823 Q373,823 393.5,845.5 Q414,868 416,902 L496,902 Q495,833 450,790 Q406,748 343,748"/> 
            <glyph glyph-name="ĕ" unicode="&#x115;" horiz-adv-x="527" d=" M42,246 Q42,357 112,430 Q183,504 294,504 Q370,504 423,464 Q527,390 527,242 L527,214 L151,214 Q161,152 210.5,117 Q260,82 336,82 Q420,82 494,126 L494,35 Q426,-13 313,-13 Q200,-13 120,59 Q42,131 42,246 M152,296 L418,296 Q416,342 383,377 Q349,413 289,413 Q232,413 194.5,379.5 Q157,346 152,296 M298,561 Q234,561 190,603 Q145,648 144,715 L224,715 Q226,681 247,658.5 Q268,636 298,636 Q328,636 349,658.5 Q370,681 372,715 L451,715 Q450,646 405,603 Q362,561 298,561"/> 
            <glyph glyph-name="Ė" unicode="&#x116;" horiz-adv-x="598" d=" M598,0 L87,0 L87,700 L585,700 L585,599 L197,599 L197,424 L513,424 L513,323 L197,323 L197,101 L598,101 M280,831 Q280,856 298,874 Q316,892 342,892 Q368,892 386,874.5 Q404,857 404,831 Q404,805 386,786.5 Q368,768 342,768 Q316,768 298,786.5 Q280,805 280,831"/> 
            <glyph glyph-name="ė" unicode="&#x117;" horiz-adv-x="527" d=" M42,246 Q42,357 112,430 Q183,504 294,504 Q370,504 423,464 Q527,390 527,242 L527,214 L151,214 Q161,152 210.5,117 Q260,82 336,82 Q420,82 494,126 L494,35 Q426,-13 313,-13 Q200,-13 120,59 Q42,131 42,246 M152,296 L418,296 Q416,342 383,377 Q349,413 289,413 Q232,413 194.5,379.5 Q157,346 152,296 M299,586 Q274,586 255.5,604 Q237,622 237,648 Q234,687 275.5,704 Q317,721 343,691 Q373,665 356,624 Q339,583 299,586"/> 
            <glyph glyph-name="Ę" unicode="&#x118;" horiz-adv-x="662" d=" M529,0 L87,0 L87,700 L585,700 L585,599 L197,599 L197,424 L513,424 L513,323 L197,323 L197,101 L598,101 L598,0 Q562,-36 562,-76 Q562,-102 579,-117.5 Q596,-133 624,-133 Q644,-133 662,-126 L662,-192 Q642,-199 606,-199 Q552,-199 518.5,-170 Q485,-141 485,-98 Q485,-44 529,0"/> 
            <glyph glyph-name="ę" unicode="&#x119;" horiz-adv-x="558" d=" M502,-164 Q448,-164 414.5,-135 Q381,-106 381,-63 Q381,-32 396,-4 Q357,-13 313,-13 Q200,-13 120,59 Q42,131 42,246 Q42,357 112,430 Q183,504 294,504 Q370,504 423,464 Q527,390 527,242 L527,214 L151,214 Q161,152 210.5,117 Q260,82 336,82 Q420,82 494,126 L494,35 Q458,-1 458,-41 Q458,-67 475,-82.5 Q492,-98 520,-98 Q540,-98 558,-91 L558,-157 Q538,-164 502,-164 M152,296 L418,296 Q416,342 383,377 Q349,413 289,413 Q232,413 194.5,379.5 Q157,346 152,296"/> 
            <glyph glyph-name="Ě" unicode="&#x11A;" horiz-adv-x="598" d=" M513,902 L399,762 L287,762 L173,902 L274,902 L343,817 L412,902 M598,0 L87,0 L87,700 L585,700 L585,599 L197,599 L197,424 L513,424 L513,323 L197,323 L197,101 L598,101"/> 
            <glyph glyph-name="ě" unicode="&#x11B;" horiz-adv-x="527" d=" M42,246 Q42,357 112,430 Q183,504 294,504 Q370,504 423,464 Q527,390 527,242 L527,214 L151,214 Q161,152 210.5,117 Q260,82 336,82 Q420,82 494,126 L494,35 Q426,-13 313,-13 Q200,-13 120,59 Q42,131 42,246 M152,296 L418,296 Q416,342 383,377 Q349,413 289,413 Q232,413 194.5,379.5 Q157,346 152,296 M467,715 L353,575 L241,575 L127,715 L228,715 L297,630 L366,715"/> 
            <glyph glyph-name="Ĝ" unicode="&#x11C;" horiz-adv-x="705" d=" M426,-13 Q271,-13 166,89 Q62,193 62,350 Q62,508 167,610 Q271,713 430,713 Q558,713 646,653 L646,544 Q550,610 437,610 Q322,610 249,537 Q175,463 175,349 Q175,233 247,161 Q321,90 426,90 Q533,90 595,149 L595,404 L705,404 L705,104 Q661,52 586.5,19.5 Q512,-13 426,-13 M246,762 L360,902 L472,902 L586,762 L485,762 L416,847 L347,762"/> 
            <glyph glyph-name="ĝ" unicode="&#x11D;" horiz-adv-x="563" d=" M455,427 L455,491 L563,491 L563,44 Q563,-77 482,-141 Q403,-205 287,-205 Q172,-205 95,-161 L95,-62 Q174,-110 275,-110 Q357,-110 406,-72 Q455,-34 455,42 L455,79 Q393,2 280,2 Q176,2 109,75 Q42,148 42,254 Q42,360 109,431 Q176,504 280,504 Q395,504 455,427 M309,97 Q356,97 396,120.5 Q436,144 455,181 L455,324 Q436,362 396.5,385.5 Q357,409 309,409 Q241,409 196,364 Q151,319 151,253 Q151,187 196,142 Q241,97 309,97 M142,575 L256,715 L368,715 L482,575 L381,575 L312,660 L243,575"/> 
            <glyph glyph-name="Ğ" unicode="&#x11E;" horiz-adv-x="705" d=" M426,-13 Q271,-13 166,89 Q62,193 62,350 Q62,508 167,610 Q271,713 430,713 Q558,713 646,653 L646,544 Q550,610 437,610 Q322,610 249,537 Q175,463 175,349 Q175,233 247,161 Q321,90 426,90 Q533,90 595,149 L595,404 L705,404 L705,104 Q661,52 586.5,19.5 Q512,-13 426,-13 M426,757 Q362,757 318,799 Q273,844 272,911 L352,911 Q354,877 375,854.5 Q396,832 426,832 Q456,832 476.5,854.5 Q497,877 499,911 L579,911 Q578,842 533,799 Q490,757 426,757"/> 
            <glyph glyph-name="ğ" unicode="&#x11F;" horiz-adv-x="563" d=" M455,427 L455,491 L563,491 L563,44 Q563,-77 482,-141 Q403,-205 287,-205 Q172,-205 95,-161 L95,-62 Q174,-110 275,-110 Q357,-110 406,-72 Q455,-34 455,42 L455,79 Q393,2 280,2 Q176,2 109,75 Q42,148 42,254 Q42,360 109,431 Q176,504 280,504 Q395,504 455,427 M309,97 Q356,97 396,120.5 Q436,144 455,181 L455,324 Q436,362 396.5,385.5 Q357,409 309,409 Q241,409 196,364 Q151,319 151,253 Q151,187 196,142 Q241,97 309,97 M316,561 Q252,561 208,603 Q163,648 162,715 L242,715 Q244,681 265,658.5 Q286,636 316,636 Q346,636 367,658.5 Q388,681 390,715 L469,715 Q468,646 423,603 Q380,561 316,561"/> 
            <glyph glyph-name="Ġ" unicode="&#x120;" horiz-adv-x="705" d=" M426,-13 Q271,-13 166,89 Q62,193 62,350 Q62,508 167,610 Q271,713 430,713 Q558,713 646,653 L646,544 Q550,610 437,610 Q322,610 249,537 Q175,463 175,349 Q175,233 247,161 Q321,90 426,90 Q533,90 595,149 L595,404 L705,404 L705,104 Q661,52 586.5,19.5 Q512,-13 426,-13 M356,831 Q356,856 374,874 Q392,892 418,892 Q444,892 462,874.5 Q480,857 480,831 Q480,805 462,786.5 Q444,768 418,768 Q392,768 374,786.5 Q356,805 356,831"/> 
            <glyph glyph-name="ġ" unicode="&#x121;" horiz-adv-x="563" d=" M455,427 L455,491 L563,491 L563,44 Q563,-77 482,-141 Q403,-205 287,-205 Q172,-205 95,-161 L95,-62 Q174,-110 275,-110 Q357,-110 406,-72 Q455,-34 455,42 L455,79 Q393,2 280,2 Q176,2 109,75 Q42,148 42,254 Q42,360 109,431 Q176,504 280,504 Q395,504 455,427 M309,97 Q356,97 396,120.5 Q436,144 455,181 L455,324 Q436,362 396.5,385.5 Q357,409 309,409 Q241,409 196,364 Q151,319 151,253 Q151,187 196,142 Q241,97 309,97 M309,586 Q284,586 265.5,604 Q247,622 247,648 Q244,687 285.5,704 Q327,721 353,691 Q383,665 366,624 Q349,583 309,586"/> 
            <glyph glyph-name="Ģ" unicode="&#x122;" horiz-adv-x="705" d=" M426,-13 Q271,-13 166,89 Q62,193 62,350 Q62,508 167,610 Q271,713 430,713 Q558,713 646,653 L646,544 Q550,610 437,610 Q322,610 249,537 Q175,463 175,349 Q175,233 247,161 Q321,90 426,90 Q533,90 595,149 L595,404 L705,404 L705,104 Q661,52 586.5,19.5 Q512,-13 426,-13 M409,-251 L327,-251 L385,-60 L493,-60"/> 
            <glyph glyph-name="ģ" unicode="&#x123;" horiz-adv-x="563" d=" M455,427 L455,491 L563,491 L563,44 Q563,-77 482,-141 Q403,-205 287,-205 Q172,-205 95,-161 L95,-62 Q174,-110 275,-110 Q357,-110 406,-72 Q455,-34 455,42 L455,79 Q393,2 280,2 Q176,2 109,75 Q42,148 42,254 Q42,360 109,431 Q176,504 280,504 Q395,504 455,427 M309,97 Q356,97 396,120.5 Q436,144 455,181 L455,324 Q436,362 396.5,385.5 Q357,409 309,409 Q241,409 196,364 Q151,319 151,253 Q151,187 196,142 Q241,97 309,97 M329,756 L411,756 L353,565 L245,565"/> 
            <glyph glyph-name="Ĥ" unicode="&#x124;" horiz-adv-x="672" d=" M212,762 L326,902 L438,902 L552,762 L451,762 L382,847 L313,762 M197,0 L87,0 L87,700 L197,700 L197,424 L562,424 L562,700 L672,700 L672,0 L562,0 L562,323 L197,323"/> 
            <glyph glyph-name="ĥ" unicode="&#x125;" horiz-adv-x="542" d=" M72,0 L72,700 L180,700 L180,426 Q252,504 360,504 Q447,504 494.5,450 Q542,396 542,300 L542,0 L434,0 L434,276 Q434,347 400,375 Q366,403 319,403 Q279,403 240,380.5 Q201,358 180,323 L180,0 M-40,762 L74,902 L186,902 L300,762 L199,762 L130,847 L61,762"/> 
            <glyph glyph-name="Ħ" unicode="&#x126;" horiz-adv-x="793" d=" M239,0 L129,0 L129,519 L48,519 L48,591 L129,591 L129,700 L239,700 L239,591 L604,591 L604,700 L714,700 L714,591 L793,591 L793,519 L714,519 L714,0 L604,0 L604,323 L239,323 M239,519 L239,424 L604,424 L604,519"/> 
            <glyph glyph-name="ħ" unicode="&#x127;" horiz-adv-x="578" d=" M216,271 L216,0 L108,0 L108,537 L6,537 L6,624 L108,624 L108,700 L216,700 L216,624 L367,624 L367,537 L216,537 L216,374 Q288,452 396,452 Q483,452 530.5,398 Q578,344 578,248 L578,0 L470,0 L470,224 Q470,295 436,323 Q402,351 355,351 Q315,351 276,328.5 Q237,306 216,271"/> 
            <glyph glyph-name="Ĩ" unicode="&#x128;" horiz-adv-x="319" d=" M41,770 L-24,770 Q-23,824 5.5,860.5 Q34,897 78,897 Q108,897 151,872 Q194,848 214,848 Q247,848 254,894 L319,894 Q318,840 289.5,803.5 Q261,767 217,767 Q188,767 145,791 Q102,816 82,816 Q48,816 41,770 M202,0 L92,0 L92,700 L202,700"/> 
            <glyph glyph-name="ĩ" unicode="&#x129;" horiz-adv-x="312" d=" M34,585 L-31,585 Q-30,640 -1.5,676.5 Q27,713 71,713 Q100,713 143,688 Q186,664 206,664 Q240,664 247,710 L312,710 Q311,656 282.5,619 Q254,582 210,582 Q182,582 138,606 Q95,631 74,631 Q41,631 34,585 M195,0 L86,0 L86,491 L195,491"/> 
            <glyph glyph-name="Ī" unicode="&#x12A;" horiz-adv-x="288" d=" M202,0 L92,0 L92,700 L202,700 M288,793 L7,793 L7,870 L288,870"/> 
            <glyph glyph-name="ī" unicode="&#x12B;" horiz-adv-x="280" d=" M280,608 L-1,608 L-1,685 L280,685 M195,0 L86,0 L86,491 L195,491"/> 
            <glyph glyph-name="Ĭ" unicode="&#x12C;" horiz-adv-x="301" d=" M148,748 Q84,748 40,790 Q-5,835 -6,902 L74,902 Q76,868 97,845.5 Q118,823 148,823 Q178,823 198.5,845.5 Q219,868 221,902 L301,902 Q300,833 255,790 Q212,748 148,748 M202,0 L92,0 L92,700 L202,700"/> 
            <glyph glyph-name="ĭ" unicode="&#x12D;" horiz-adv-x="294" d=" M141,561 Q76,561 33,603 Q-12,648 -13,715 L67,715 Q69,681 90,658.5 Q111,636 141,636 Q171,636 192,658.5 Q213,681 215,715 L294,715 Q293,646 248,603 Q204,561 141,561 M195,0 L86,0 L86,491 L195,491"/> 
            <glyph glyph-name="Į" unicode="&#x12E;" horiz-adv-x="266" d=" M133,0 L92,0 L92,700 L202,700 L202,0 Q166,-36 166,-76 Q166,-102 183,-117.5 Q200,-133 228,-133 Q248,-133 266,-126 L266,-192 Q246,-199 210,-199 Q156,-199 122.5,-170 Q89,-141 89,-98 Q89,-44 133,0"/> 
            <glyph glyph-name="į" unicode="&#x12F;" horiz-adv-x="258" d=" M125,0 L86,0 L86,491 L194,491 L194,0 Q158,-36 158,-76 Q158,-102 175,-117.5 Q192,-133 220,-133 Q240,-133 258,-126 L258,-192 Q238,-199 202,-199 Q148,-199 114.5,-170 Q81,-141 81,-98 Q81,-44 125,0 M140,579 Q111,579 91.5,598.5 Q72,618 72,647 Q72,676 91.5,696 Q111,716 140,716 Q168,716 187.5,696 Q207,676 207,647 Q207,618 187.5,598.5 Q168,579 140,579"/> 
            <glyph glyph-name="İ" unicode="&#x130;" horiz-adv-x="210" d=" M86,831 Q86,856 104,874 Q122,892 148,892 Q174,892 192,874.5 Q210,857 210,831 Q210,805 192,786.5 Q174,768 148,768 Q122,768 104,786.5 Q86,805 86,831 M202,0 L92,0 L92,700 L202,700"/> 
            <glyph glyph-name="ı" unicode="&#x131;" horiz-adv-x="195" d=" M195,0 L86,0 L86,491 L195,491"/> 
            <glyph glyph-name="Ĳ" unicode="&#x132;" horiz-adv-x="536" d=" M202,262 L92,262 L92,700 L202,700 M275,-13 Q165,-13 92,33 L92,142 Q166,90 258,90 Q343,90 384.5,128.5 Q426,167 426,249 L426,700 L536,700 L536,237 Q536,111 467,49 Q398,-13 275,-13"/> 
            <glyph glyph-name="ĳ" unicode="&#x133;" horiz-adv-x="486" d=" M194,0 L86,0 L86,491 L194,491 M140,579 Q111,579 91.5,598.5 Q72,618 72,647 Q72,676 91.5,696 Q111,716 140,716 Q168,716 187.5,696 Q207,676 207,647 Q207,618 187.5,598.5 Q168,579 140,579 M310,-205 Q247,-205 212,-185 L212,-91 Q244,-110 284,-110 Q365,-110 365,-23 L365,491 L473,491 L473,-35 Q473,-117 429.5,-161 Q386,-205 310,-205 M466,598 Q446,579 418,579 Q390,579 370,598 Q350,618 350,646.5 Q350,675 369,696 Q389,716 418,716 Q447,716 466,696 Q486,676 486,647 Q486,618 466,598"/> 
            <glyph glyph-name="Ĵ" unicode="&#x134;" horiz-adv-x="539" d=" M199,762 L313,902 L425,902 L539,762 L438,762 L369,847 L300,762 M187,-13 Q85,-13 23,30 L23,139 Q82,90 166,90 Q239,90 275,126.5 Q311,163 311,240 L311,700 L421,700 L421,222 Q421,103 359.5,45 Q298,-13 187,-13"/> 
            <glyph glyph-name="ĵ" unicode="&#x135;" horiz-adv-x="311" d=" M31,-205 Q-32,-205 -67,-185 L-67,-91 Q-35,-110 5,-110 Q86,-110 86,-23 L86,491 L194,491 L194,-35 Q194,-117 150.5,-161 Q107,-205 31,-205 M-29,575 L85,715 L197,715 L311,575 L210,575 L141,660 L72,575"/> 
            <glyph glyph-name="Ķ" unicode="&#x136;" horiz-adv-x="677" d=" M197,0 L87,0 L87,700 L197,700 L197,414 L484,700 L625,700 L301,380 L677,0 L527,0 L197,336 M349,-251 L267,-251 L325,-60 L433,-60"/> 
            <glyph glyph-name="ķ" unicode="&#x137;" horiz-adv-x="551" d=" M184,0 L76,0 L76,700 L184,700 L184,305 L378,491 L516,491 L283,271 L551,0 L403,0 L184,222 M285,-251 L203,-251 L261,-60 L369,-60"/> 
            <glyph glyph-name="ĸ" unicode="&#x138;" horiz-adv-x="552" d=" M185,0 L77,0 L77,491 L185,491 L185,305 L379,491 L517,491 L284,271 L552,0 L404,0 L185,222"/> 
            <glyph glyph-name="Ĺ" unicode="&#x139;" horiz-adv-x="570" d=" M570,0 L87,0 L87,700 L198,700 L198,101 L570,101 M195,762 L96,762 L191,902 L326,902"/> 
            <glyph glyph-name="ĺ" unicode="&#x13A;" horiz-adv-x="307" d=" M193,-13 Q136,-13 103,18.5 Q70,50 70,116 L70,700 L178,700 L178,146 Q178,86 232,86 Q256,86 273,96 L273,3 Q242,-13 193,-13 M176,762 L77,762 L172,902 L307,902"/> 
            <glyph glyph-name="Ļ" unicode="&#x13B;" horiz-adv-x="570" d=" M570,0 L87,0 L87,700 L198,700 L198,101 L570,101 M325,-251 L243,-251 L301,-60 L409,-60"/> 
            <glyph glyph-name="ļ" unicode="&#x13C;" horiz-adv-x="273" d=" M193,-13 Q136,-13 103,18.5 Q70,50 70,116 L70,700 L178,700 L178,146 Q178,86 232,86 Q256,86 273,96 L273,3 Q242,-13 193,-13 M165,-251 L83,-251 L141,-60 L249,-60"/> 
            <glyph glyph-name="Ľ" unicode="&#x13D;" horiz-adv-x="576" d=" M570,0 L87,0 L87,700 L198,700 L198,101 L570,101 M492,509 L410,509 L468,700 L576,700"/> 
            <glyph glyph-name="ľ" unicode="&#x13E;" horiz-adv-x="416" d=" M190,-13 Q133,-13 100,18.5 Q67,50 67,116 L67,700 L175,700 L175,146 Q175,86 229,86 Q253,86 270,96 L270,3 Q239,-13 190,-13 M332,509 L250,509 L308,700 L416,700"/> 
            <glyph glyph-name="Ŀ" unicode="&#x13F;" horiz-adv-x="571" d=" M501,313 Q471,313 450.5,333.5 Q430,354 430,384 Q430,413 450.5,433.5 Q471,454 501,454 Q530,454 550.5,433 Q571,412 571,384 Q571,354 550.5,333.5 Q530,313 501,313 M570,0 L87,0 L87,700 L198,700 L198,101 L570,101"/> 
            <glyph glyph-name="ŀ" unicode="&#x140;" horiz-adv-x="398" d=" M196,-13 Q139,-13 106,18.5 Q73,50 73,116 L73,700 L181,700 L181,146 Q181,86 235,86 Q259,86 276,96 L276,3 Q245,-13 196,-13 M328,313 Q298,313 277.5,333.5 Q257,354 257,384 Q257,413 277.5,433.5 Q298,454 328,454 Q356,454 377,433 Q398,412 398,384 Q398,354 377.5,333.5 Q357,313 328,313"/> 
            <glyph glyph-name="Ł" unicode="&#x141;" horiz-adv-x="593" d=" M593,0 L110,0 L110,303 L14,242 L14,338 L110,398 L110,700 L220,700 L220,469 L371,564 L371,469 L220,374 L220,101 L593,101"/> 
            <glyph glyph-name="ł" unicode="&#x142;" horiz-adv-x="338" d=" M250,-13 Q193,-13 160.5,18 Q128,49 128,116 L128,295 L26,230 L26,326 L128,390 L128,700 L236,700 L236,459 L338,524 L338,429 L236,364 L236,146 Q236,86 290,86 Q312,86 331,96 L331,3 Q300,-13 250,-13"/> 
            <glyph glyph-name="Ń" unicode="&#x143;" horiz-adv-x="686" d=" M195,0 L87,0 L87,700 L183,700 L578,193 L578,700 L686,700 L686,0 L593,0 L195,509 M429,762 L330,762 L425,902 L560,902"/> 
            <glyph glyph-name="ń" unicode="&#x144;" horiz-adv-x="547" d=" M77,0 L77,491 L185,491 L185,426 Q257,504 365,504 Q452,504 499.5,450 Q547,396 547,300 L547,0 L439,0 L439,276 Q439,403 324,403 Q284,403 245,380.5 Q206,358 185,323 L185,0 M332,575 L234,575 L329,715 L464,715"/> 
            <glyph glyph-name="Ņ" unicode="&#x145;" horiz-adv-x="686" d=" M195,0 L87,0 L87,700 L183,700 L578,193 L578,700 L686,700 L686,0 L593,0 L195,509 M389,-251 L307,-251 L365,-60 L473,-60"/> 
            <glyph glyph-name="ņ" unicode="&#x146;" horiz-adv-x="547" d=" M185,323 L185,0 L77,0 L77,491 L185,491 L185,426 Q257,504 365,504 Q452,504 499.5,450 Q547,396 547,300 L547,0 L439,0 L439,276 Q439,403 324,403 Q284,403 245,380.5 Q206,358 185,323 M295,-251 L213,-251 L271,-60 L379,-60"/> 
            <glyph glyph-name="Ň" unicode="&#x147;" horiz-adv-x="686" d=" M557,902 L443,762 L331,762 L217,902 L318,902 L387,817 L456,902 M195,0 L87,0 L87,700 L183,700 L578,193 L578,700 L686,700 L686,0 L593,0 L195,509"/> 
            <glyph glyph-name="ň" unicode="&#x148;" horiz-adv-x="547" d=" M77,0 L77,491 L185,491 L185,426 Q257,504 365,504 Q452,504 499.5,450 Q547,396 547,300 L547,0 L439,0 L439,276 Q439,403 324,403 Q284,403 245,380.5 Q206,358 185,323 L185,0 M482,715 L368,575 L256,575 L142,715 L243,715 L312,630 L381,715"/> 
            <glyph glyph-name="ŉ" unicode="&#x149;" horiz-adv-x="674" d=" M204,0 L204,491 L312,491 L312,426 Q384,504 492,504 Q579,504 626.5,450 Q674,396 674,300 L674,0 L566,0 L566,276 Q566,403 451,403 Q411,403 372,380.5 Q333,358 312,323 L312,0 M104,509 L22,509 L80,700 L188,700"/> 
            <glyph glyph-name="Ŋ" unicode="&#x14A;" horiz-adv-x="686" d=" M195,0 L87,0 L87,700 L183,700 L578,193 L578,700 L686,700 L686,-5 Q686,-103 637.5,-154 Q589,-205 499,-205 Q426,-205 383,-181 L383,-77 Q420,-102 473,-102 Q577,-102 577,8 L577,20 L195,509"/> 
            <glyph glyph-name="ŋ" unicode="&#x14B;" horiz-adv-x="547" d=" M547,300 L547,-35 Q547,-117 503.5,-161 Q460,-205 384,-205 Q321,-205 286,-185 L286,-91 Q318,-110 358,-110 Q439,-110 439,-23 L439,276 Q439,347 405,375 Q371,403 324,403 Q284,403 245,380.5 Q206,358 185,323 L185,0 L77,0 L77,491 L185,491 L185,426 Q257,504 365,504 Q452,504 499.5,450 Q547,396 547,300"/> 
            <glyph glyph-name="Ō" unicode="&#x14C;" horiz-adv-x="777" d=" M245,164 Q316,90 419,90 Q522,90 593,164 Q664,240 664,350 Q664,461 593,535 Q522,610 419,610 Q316,610 245,535 Q175,462 175,350 Q175,238 245,164 M675,91 Q573,-13 419,-13 Q265,-13 163,91 Q62,197 62,350 Q62,504 163,608 Q265,713 419,713 Q573,713 675,608 Q777,504 777,350 Q777,196 675,91 M560,793 L279,793 L279,870 L560,870"/> 
            <glyph glyph-name="ō" unicode="&#x14D;" horiz-adv-x="581" d=" M312,82 Q380,82 427,129 Q473,175 473,246 Q473,316 427,362 Q380,409 312,409 Q243,409 196,362 Q150,316 150,246 Q150,175 196,129 Q243,82 312,82 M312,-13 Q194,-13 118,62 Q42,137 42,246 Q42,354 118,429 Q194,504 312,504 Q428,504 505,429 Q581,354 581,246 Q581,138 505,62 Q428,-13 312,-13 M452,608 L171,608 L171,685 L452,685"/> 
            <glyph glyph-name="Ŏ" unicode="&#x14E;" horiz-adv-x="777" d=" M245,164 Q316,90 419,90 Q522,90 593,164 Q664,240 664,350 Q664,461 593,535 Q522,610 419,610 Q316,610 245,535 Q175,462 175,350 Q175,238 245,164 M675,91 Q573,-13 419,-13 Q265,-13 163,91 Q62,197 62,350 Q62,504 163,608 Q265,713 419,713 Q573,713 675,608 Q777,504 777,350 Q777,196 675,91 M420,757 Q356,757 312,799 Q267,844 266,911 L346,911 Q348,877 369,854.5 Q390,832 420,832 Q450,832 470.5,854.5 Q491,877 493,911 L573,911 Q572,842 527,799 Q484,757 420,757"/> 
            <glyph glyph-name="ŏ" unicode="&#x14F;" horiz-adv-x="581" d=" M312,82 Q380,82 427,129 Q473,175 473,246 Q473,316 427,362 Q380,409 312,409 Q243,409 196,362 Q150,316 150,246 Q150,175 196,129 Q243,82 312,82 M312,-13 Q194,-13 118,62 Q42,137 42,246 Q42,354 118,429 Q194,504 312,504 Q428,504 505,429 Q581,354 581,246 Q581,138 505,62 Q428,-13 312,-13 M312,566 Q248,566 204,608 Q159,653 158,720 L238,720 Q240,686 261,663.5 Q282,641 312,641 Q342,641 363,663.5 Q384,686 386,720 L465,720 Q464,651 419,608 Q376,566 312,566"/> 
            <glyph glyph-name="Ő" unicode="&#x150;" horiz-adv-x="777" d=" M245,164 Q316,90 419,90 Q522,90 593,164 Q664,240 664,350 Q664,461 593,535 Q522,610 419,610 Q316,610 245,535 Q175,462 175,350 Q175,238 245,164 M675,91 Q573,-13 419,-13 Q265,-13 163,91 Q62,197 62,350 Q62,504 163,608 Q265,713 419,713 Q573,713 675,608 Q777,504 777,350 Q777,196 675,91 M576,762 L477,762 L572,902 L707,902 M371,762 L272,762 L367,902 L502,902"/> 
            <glyph glyph-name="ő" unicode="&#x151;" horiz-adv-x="586" d=" M312,82 Q380,82 427,129 Q473,175 473,246 Q473,316 427,362 Q380,409 312,409 Q243,409 196,362 Q150,316 150,246 Q150,175 196,129 Q243,82 312,82 M312,-13 Q194,-13 118,62 Q42,137 42,246 Q42,354 118,429 Q194,504 312,504 Q428,504 505,429 Q581,354 581,246 Q581,138 505,62 Q428,-13 312,-13 M455,575 L357,575 L452,715 L586,715 M250,575 L151,575 L246,715 L381,715"/> 
            <glyph glyph-name="Œ" unicode="&#x152;" horiz-adv-x="1060" d=" M1060,0 L443,0 Q274,0 168,97 Q62,194 62,350 Q62,505 168,602 Q275,700 443,700 L1047,700 L1047,599 L666,599 L666,424 L975,424 L975,323 L666,323 L666,101 L1060,101 M455,101 L555,101 L555,599 L455,599 Q323,599 249,533 Q175,467 175,350 Q175,233 249,167 Q323,101 455,101"/> 
            <glyph glyph-name="œ" unicode="&#x153;" horiz-adv-x="951" d=" M737,-13 Q600,-13 521,84 Q490,41 431,14 Q372,-13 310,-13 Q194,-13 117,62 Q42,137 42,246 Q42,354 117,429 Q194,504 311,504 Q442,504 520,409 Q592,504 719,504 Q795,504 848,464 Q951,390 951,242 L951,214 L575,214 Q586,152 636,117 Q686,82 761,82 Q844,82 918,126 L918,35 Q854,-13 737,-13 M472,246 Q472,316 426,362 Q379,409 311,409 Q243,409 196,362 Q150,316 150,246 Q150,175 196,129 Q243,82 311,82 Q379,82 426,129 Q472,175 472,246 M576,296 L842,296 Q841,340 807,377 Q774,413 714,413 Q657,413 619,379.5 Q581,346 576,296"/> 
            <glyph glyph-name="Ŕ" unicode="&#x154;" horiz-adv-x="705" d=" M197,0 L87,0 L87,700 L406,700 Q514,700 575,645 Q637,589 637,501 Q637,428 596.5,376.5 Q556,325 485,308 L705,0 L572,0 L361,296 L197,296 M197,599 L197,393 L399,393 Q459,393 492.5,420 Q526,447 526,497 Q526,545 492.5,572 Q459,599 399,599 M348,762 L249,762 L344,902 L479,902"/> 
            <glyph glyph-name="ŕ" unicode="&#x155;" horiz-adv-x="376" d=" M185,0 L77,0 L77,491 L185,491 L185,406 Q210,449 260,476.5 Q310,504 366,504 Q373,504 376,503 L376,395 Q358,397 346,397 Q291,397 247,369 Q203,341 185,301 M231,575 L133,575 L228,715 L363,715"/> 
            <glyph glyph-name="Ŗ" unicode="&#x156;" horiz-adv-x="705" d=" M197,0 L87,0 L87,700 L406,700 Q514,700 575,645 Q637,589 637,501 Q637,428 596.5,376.5 Q556,325 485,308 L705,0 L572,0 L361,296 L197,296 M197,599 L197,393 L399,393 Q459,393 492.5,420 Q526,447 526,497 Q526,545 492.5,572 Q459,599 399,599 M355,-251 L273,-251 L331,-60 L439,-60"/> 
            <glyph glyph-name="ŗ" unicode="&#x157;" horiz-adv-x="376" d=" M185,0 L77,0 L77,491 L185,491 L185,406 Q210,449 260,476.5 Q310,504 366,504 Q373,504 376,503 L376,395 Q358,397 346,397 Q291,397 247,369 Q203,341 185,301 M105,-251 L23,-251 L81,-60 L189,-60"/> 
            <glyph glyph-name="Ř" unicode="&#x158;" horiz-adv-x="705" d=" M197,0 L87,0 L87,700 L406,700 Q514,700 575,645 Q637,589 637,501 Q637,428 596.5,376.5 Q556,325 485,308 L705,0 L572,0 L361,296 L197,296 M197,599 L197,393 L399,393 Q459,393 492.5,420 Q526,447 526,497 Q526,545 492.5,572 Q459,599 399,599 M508,902 L394,762 L282,762 L168,902 L269,902 L338,817 L407,902"/> 
            <glyph glyph-name="ř" unicode="&#x159;" horiz-adv-x="382" d=" M382,715 L268,575 L156,575 L42,715 L143,715 L212,630 L281,715 M180,0 L72,0 L72,491 L180,491 L180,406 Q205,449 255,476.5 Q305,504 361,504 Q368,504 371,503 L371,395 Q353,397 341,397 Q286,397 242,369 Q198,341 180,301"/> 
            <glyph glyph-name="Ś" unicode="&#x15A;" horiz-adv-x="577" d=" M308,-13 Q148,-13 45,62 L45,181 Q86,145 158,117 Q230,90 302,90 Q373,90 418.5,118 Q464,146 464,194 Q464,232 433,259 Q421,270 397,280 Q368,294 301,313 L287,317 Q230,333 196,346 Q169,356 126,381 Q54,426 54,522 Q54,609 122.5,661 Q191,713 308,713 Q435,713 532,655 L532,545 Q425,610 310,610 Q240,610 203.5,585.5 Q167,561 167,521 Q167,487 208,458 Q214,454 225,449.5 Q236,445 250,440 Q264,435 270,433 L350,410 Q423,388 478,358 Q571,308 577,196 Q577,99 500,43 Q423,-13 308,-13 M323,762 L224,762 L319,902 L454,902"/> 
            <glyph glyph-name="ś" unicode="&#x15B;" horiz-adv-x="466" d=" M252,-13 Q121,-13 47,37 L47,139 Q133,80 247,80 Q298,80 326.5,95.5 Q355,111 355,138 Q355,162 325,177 Q312,183 278,192 L217,207 Q130,229 91,263.5 Q52,298 52,360 Q52,427 107,465.5 Q162,504 260,504 Q373,504 441,460 L441,361 Q352,411 264,411 Q215,411 189,396.5 Q163,382 163,357 Q163,334 194,318 Q198,316 241,303 L298,291 Q466,254 466,136 Q466,69 407,28 Q348,-13 252,-13 M265,575 L167,575 L262,715 L397,715"/> 
            <glyph glyph-name="Ŝ" unicode="&#x15C;" horiz-adv-x="577" d=" M308,-13 Q148,-13 45,62 L45,181 Q86,145 158,117 Q230,90 302,90 Q373,90 418.5,118 Q464,146 464,194 Q464,232 433,259 Q421,270 397,280 Q368,294 301,313 L287,317 Q230,333 196,346 Q169,356 126,381 Q54,426 54,522 Q54,609 122.5,661 Q191,713 308,713 Q435,713 532,655 L532,545 Q425,610 310,610 Q240,610 203.5,585.5 Q167,561 167,521 Q167,487 208,458 Q214,454 225,449.5 Q236,445 250,440 Q264,435 270,433 L350,410 Q423,388 478,358 Q571,308 577,196 Q577,99 500,43 Q423,-13 308,-13 M144,762 L258,902 L370,902 L484,762 L383,762 L314,847 L245,762"/> 
            <glyph glyph-name="ŝ" unicode="&#x15D;" horiz-adv-x="466" d=" M252,-13 Q121,-13 47,37 L47,139 Q133,80 247,80 Q298,80 326.5,95.5 Q355,111 355,138 Q355,162 325,177 Q312,183 278,192 L217,207 Q130,229 91,263.5 Q52,298 52,360 Q52,427 107,465.5 Q162,504 260,504 Q373,504 441,460 L441,361 Q352,411 264,411 Q215,411 189,396.5 Q163,382 163,357 Q163,334 194,318 Q198,316 241,303 L298,291 Q466,254 466,136 Q466,69 407,28 Q348,-13 252,-13 M84,575 L198,715 L310,715 L424,575 L323,575 L254,660 L185,575"/> 
            <glyph glyph-name="Ş" unicode="&#x15E;" horiz-adv-x="577" d=" M310,-138 L185,-138 L277,-12 Q137,-5 45,62 L45,181 Q86,145 158,117 Q230,90 302,90 Q373,90 418.5,118 Q464,146 464,194 Q464,232 433,259 Q421,270 397,280 Q368,294 301,313 L287,317 Q230,333 196,346 Q169,356 126,381 Q54,426 54,522 Q54,609 122.5,661 Q191,713 308,713 Q435,713 532,655 L532,545 Q425,610 310,610 Q240,610 203.5,585.5 Q167,561 167,521 Q167,487 208,458 Q214,454 225,449.5 Q236,445 250,440 Q264,435 270,433 L350,410 Q423,388 478,358 Q571,308 577,196 Q577,116 521,61.5 Q465,7 372,-8"/> 
            <glyph glyph-name="ş" unicode="&#x15F;" horiz-adv-x="466" d=" M247,-138 L122,-138 L214,-11 Q105,-3 47,37 L47,139 Q133,80 247,80 Q298,80 326.5,95.5 Q355,111 355,138 Q355,162 325,177 Q312,183 278,192 L217,207 Q130,229 91,263.5 Q52,298 52,360 Q52,427 107,465.5 Q162,504 260,504 Q373,504 441,460 L441,361 Q352,411 264,411 Q215,411 189,396.5 Q163,382 163,357 Q163,334 194,318 Q198,316 241,303 L298,291 Q466,254 466,136 Q466,80 423.5,41.5 Q381,3 309,-8"/> 
            <glyph glyph-name="Š" unicode="&#x160;" horiz-adv-x="577" d=" M308,-13 Q148,-13 45,62 L45,181 Q86,145 158,117 Q230,90 302,90 Q373,90 418.5,118 Q464,146 464,194 Q464,232 433,259 Q421,270 397,280 Q368,294 301,313 L287,317 Q230,333 196,346 Q169,356 126,381 Q54,426 54,522 Q54,609 122.5,661 Q191,713 308,713 Q435,713 532,655 L532,545 Q425,610 310,610 Q240,610 203.5,585.5 Q167,561 167,521 Q167,487 208,458 Q214,454 225,449.5 Q236,445 250,440 Q264,435 270,433 L350,410 Q423,388 478,358 Q571,308 577,196 Q577,99 500,43 Q423,-13 308,-13 M474,902 L360,762 L248,762 L134,902 L235,902 L304,817 L373,902"/> 
            <glyph glyph-name="š" unicode="&#x161;" horiz-adv-x="466" d=" M252,-13 Q121,-13 47,37 L47,139 Q133,80 247,80 Q298,80 326.5,95.5 Q355,111 355,138 Q355,162 325,177 Q312,183 278,192 L217,207 Q130,229 91,263.5 Q52,298 52,360 Q52,427 107,465.5 Q162,504 260,504 Q373,504 441,460 L441,361 Q352,411 264,411 Q215,411 189,396.5 Q163,382 163,357 Q163,334 194,318 Q198,316 241,303 L298,291 Q466,254 466,136 Q466,69 407,28 Q348,-13 252,-13 M427,715 L313,575 L201,575 L87,715 L188,715 L257,630 L326,715"/> 
            <glyph glyph-name="Ţ" unicode="&#x162;" horiz-adv-x="606" d=" M298,-138 L173,-138 L274,0 L264,0 L264,599 L33,599 L33,700 L606,700 L606,599 L374,599 L374,0 L364,0"/> 
            <glyph glyph-name="ţ" unicode="&#x163;" horiz-adv-x="391" d=" M128,134 L128,396 L23,396 L23,491 L128,491 L128,634 L236,634 L236,491 L391,491 L391,396 L236,396 L236,165 Q236,124 255,105 Q274,86 313,86 Q352,86 387,104 L387,11 Q364,-4 311,-11 L250,-138 L125,-138 L222,-5 Q128,20 128,134"/> 
            <glyph glyph-name="Ť" unicode="&#x164;" horiz-adv-x="606" d=" M490,902 L376,762 L264,762 L150,902 L251,902 L320,817 L389,902 M33,599 L33,700 L606,700 L606,599 L374,599 L374,0 L264,0 L264,599"/> 
            <glyph glyph-name="ť" unicode="&#x165;" horiz-adv-x="614" d=" M137,396 L32,396 L32,491 L137,491 L137,634 L245,634 L245,491 L400,491 L400,396 L245,396 L245,165 Q245,124 263.5,105 Q282,86 322,86 Q362,86 396,104 L396,11 Q361,-13 287,-13 Q217,-13 177,25 Q137,63 137,134 M530,509 L448,509 L506,700 L614,700"/> 
            <glyph glyph-name="Ŧ" unicode="&#x166;" horiz-adv-x="606" d=" M374,0 L264,0 L264,312 L144,312 L144,411 L264,411 L264,599 L33,599 L33,700 L606,700 L606,599 L374,599 L374,411 L494,411 L494,312 L374,312"/> 
            <glyph glyph-name="ŧ" unicode="&#x167;" horiz-adv-x="391" d=" M23,309 L128,309 L128,399 L23,399 L23,491 L128,491 L128,634 L236,634 L236,491 L391,491 L391,399 L236,399 L236,309 L391,309 L391,217 L236,217 L236,165 Q236,124 255,105 Q274,86 313,86 Q352,86 387,104 L387,11 Q352,-13 278,-13 Q208,-13 168,25 Q128,63 128,134 L128,217 L23,217"/> 
            <glyph glyph-name="Ũ" unicode="&#x168;" horiz-adv-x="665" d=" M265,770 L200,770 Q201,824 229.5,860.5 Q258,897 302,897 Q332,897 375,872 Q418,848 438,848 Q471,848 478,894 L543,894 Q542,840 513.5,803.5 Q485,767 441,767 Q412,767 369,791 Q326,816 306,816 Q272,816 265,770 M78,296 L78,700 L188,700 L188,292 Q188,195 237,142.5 Q286,90 371,90 Q456,90 505.5,142.5 Q555,195 555,292 L555,700 L665,700 L665,296 Q665,149 583,68 Q500,-13 371,-13 Q242,-13 159,67 Q78,148 78,296"/> 
            <glyph glyph-name="ũ" unicode="&#x169;" horiz-adv-x="538" d=" M538,491 L538,0 L430,0 L430,65 Q358,-13 250,-13 Q163,-13 115.5,41 Q68,95 68,191 L68,491 L176,491 L176,215 Q176,88 291,88 Q331,88 370,110.5 Q409,133 430,168 L430,491 M197,585 L132,585 Q133,640 161.5,676.5 Q190,713 234,713 Q263,713 306,688 Q350,664 369,664 Q403,664 410,710 L475,710 Q474,656 445.5,619 Q417,582 373,582 Q344,582 300,606 Q257,631 237,631 Q204,631 197,585"/> 
            <glyph glyph-name="Ū" unicode="&#x16A;" horiz-adv-x="665" d=" M78,296 L78,700 L188,700 L188,292 Q188,195 237,142.5 Q286,90 371,90 Q456,90 505.5,142.5 Q555,195 555,292 L555,700 L665,700 L665,296 Q665,149 583,68 Q500,-13 371,-13 Q242,-13 159,67 Q78,148 78,296 M513,793 L232,793 L232,870 L513,870"/> 
            <glyph glyph-name="ū" unicode="&#x16B;" horiz-adv-x="538" d=" M538,491 L538,0 L430,0 L430,65 Q358,-13 250,-13 Q163,-13 115.5,41 Q68,95 68,191 L68,491 L176,491 L176,215 Q176,88 291,88 Q331,88 370,110.5 Q409,133 430,168 L430,491 M444,608 L163,608 L163,685 L444,685"/> 
            <glyph glyph-name="Ŭ" unicode="&#x16C;" horiz-adv-x="665" d=" M78,296 L78,700 L188,700 L188,292 Q188,195 237,142.5 Q286,90 371,90 Q456,90 505.5,142.5 Q555,195 555,292 L555,700 L665,700 L665,296 Q665,149 583,68 Q500,-13 371,-13 Q242,-13 159,67 Q78,148 78,296 M372,748 Q308,748 264,790 Q219,835 218,902 L298,902 Q300,868 321,845.5 Q342,823 372,823 Q402,823 422.5,845.5 Q443,868 445,902 L525,902 Q524,833 479,790 Q436,748 372,748"/> 
            </font>
</defs>
</svg>
