<?xml version="1.0" standalone="no"?>
<!DOCTYPE svg PUBLIC "-//W3C//DTD SVG 1.1//EN" "http://www.w3.org/Graphics/SVG/1.1/DTD/svg11.dtd" >
<svg xmlns="http://www.w3.org/2000/svg">
    <defs>
        <font id="Geometria-Heavy">
            <font-face font-family="Geometria-Heavy"
                       units-per-em="1000"
                       ascent="790"
                       descent="-210"
                       bbox="-524 -309 1415 949"
                    />
            <missing-glyph horiz-adv-x="0" />
            
            <glyph glyph-name="!" unicode="&#x21;" horiz-adv-x="314" d=" M188,-14 Q138,-14 102,22 Q66,58 66,108 Q66,160 102,195 Q138,231 188,231 Q239,231 275,195 Q311,160 311,108 Q311,58 275,22 Q239,-14 188,-14 M285,264 L94,264 L64,700 L314,700"/> 
            <glyph glyph-name="&quot;" unicode="&#x22;" horiz-adv-x="428" d=" M200,358 L30,358 L30,700 L200,700 M428,358 L258,358 L258,700 L428,700"/> 
            <glyph glyph-name="#" unicode="&#x23;" horiz-adv-x="779" d=" M294,0 L131,0 L155,143 L21,143 L46,293 L178,293 L196,407 L64,407 L87,557 L221,557 L242,700 L405,700 L383,557 L484,557 L506,700 L669,700 L647,557 L779,557 L754,407 L623,407 L604,293 L737,293 L712,143 L581,143 L558,0 L395,0 L418,143 L317,143 M359,407 L340,293 L441,293 L460,407"/> 
            <glyph glyph-name="$" unicode="&#x24;" horiz-adv-x="635" d=" M424,-4 L424,-105 L248,-105 L248,-10 Q123,4 36,61 L36,271 Q84,230 172,202 Q262,173 331,173 Q412,173 412,206 Q412,220 382,234 Q353,247 266,273 Q151,307 93.5,359.5 Q36,412 36,497 Q36,583 91.5,637 Q147,691 248,707 L248,805 L424,805 L424,708 Q507,698 590,658 L590,458 Q538,489 461,508 Q383,529 321,529 Q259,529 259,503 Q259,490 288,476 Q317,465 419,434 Q529,401 582,348 Q635,295 635,216 Q635,132 579,73.5 Q523,15 424,-4"/> 
            <glyph glyph-name="%" unicode="&#x25;" horiz-adv-x="821" d=" M270,0 L134,0 L561,700 L698,700 M62,664 Q115,714 196,714 Q276,714 329,664 Q382,614 382,538 Q382,462 329,412 Q276,362 196,362 Q115,362 62,412 Q10,461 10,538 Q10,615 62,664 M254,538 Q254,562 237,579.5 Q220,597 196,597 Q172,597 155,579.5 Q138,562 138,538 Q138,513 154.5,496 Q171,479 196,479 Q221,479 237.5,496 Q254,513 254,538 M501,288 Q554,338 635,338 Q715,338 768,288 Q821,238 821,162 Q821,86 768,36 Q715,-14 635,-14 Q554,-14 501,36 Q449,85 449,162 Q449,239 501,288 M693,162 Q693,186 676,203.5 Q659,221 635,221 Q611,221 594,203.5 Q577,186 577,162 Q577,137 593.5,120 Q610,103 635,103 Q660,103 676.5,120 Q693,137 693,162"/> 
            <glyph glyph-name="&amp;" unicode="&#x26;" horiz-adv-x="783" d=" M411,376 L443,344 L489,297 Q502,322 504,390 L689,390 Q689,332 670.5,269 Q652,206 623,162 L783,0 L532,0 L492,38 Q421,-14 306,-14 Q184,-14 105,49 Q26,112 26,222 Q26,286 57,335 Q88,384 138,412 Q106,465 106,528 Q106,609 167,661 Q229,714 326,714 Q444,714 530,665 L530,481 Q459,540 383,540 Q355,540 337.5,529 Q320,518 320,498 Q320,476 349,441 L376,411 M363,166 L244,287 Q221,267 221,232 Q221,199 247,177 Q273,155 312,155 Q339,155 363,166"/> 
            <glyph glyph-name="'" unicode="&#x27;" horiz-adv-x="200" d=" M200,358 L30,358 L30,700 L200,700"/> 
            <glyph glyph-name="(" unicode="&#x28;" horiz-adv-x="399" d=" M399,-206 L186,-206 Q44,-27 44,250 Q44,525 186,706 L399,706 Q238,503 238,250 Q238,-3 399,-206"/> 
            <glyph glyph-name=")" unicode="&#x29;" horiz-adv-x="371" d=" M229,-206 L16,-206 Q177,-3 177,250 Q177,503 16,706 L229,706 Q371,525 371,250 Q371,-27 229,-206"/> 
            <glyph glyph-name="*" unicode="&#x2A;" horiz-adv-x="396" d=" M260,323 L151,323 L156,431 L70,370 L15,465 L112,511 L15,558 L70,653 L156,591 L151,700 L260,700 L255,591 L342,653 L396,558 L300,511 L396,465 L342,370 L255,431"/> 
            <glyph glyph-name="+" unicode="&#x2B;" horiz-adv-x="578" d=" M40,245 L40,428 L218,428 L218,607 L401,607 L401,428 L578,428 L578,245 L401,245 L401,67 L218,67 L218,245"/> 
            <glyph glyph-name="," unicode="&#x2C;" horiz-adv-x="291" d=" M154,-152 L-20,-152 L74,199 L291,199"/> 
            <glyph glyph-name="-" unicode="&#x2D;" horiz-adv-x="411" d=" M411,193 L74,193 L74,376 L411,376"/> 
            <glyph glyph-name="." unicode="&#x2E;" horiz-adv-x="266" d=" M144,231 Q194,231 230,195 Q266,161 266,109 Q266,58 230,22 Q194,-14 144,-14 Q94,-14 57,22 Q21,58 21,109 Q21,160 57,195 Q93,231 144,231"/> 
            <glyph glyph-name="/" unicode="&#x2F;" horiz-adv-x="573" d=" M383,792 L573,792 L152,-140 L-38,-140"/> 
            <glyph glyph-name="0" unicode="&#x30;" horiz-adv-x="666" d=" M349,-14 Q248,-14 174,40 Q33,146 33,350 Q33,446 67,524 Q102,606 174,659 Q247,714 349,714 Q424,714 486.5,683 Q549,652 588,599 Q666,493 666,350 Q666,207 588,101 Q549,48 486.5,17 Q424,-14 349,-14 M349,180 Q388,178 415,213 Q442,248 448.5,299 Q455,350 448.5,401 Q442,452 415,487 Q388,522 349,520 Q297,520 272,468 Q246,416 246,350 Q246,285 272,231 Q298,180 349,180"/> 
            <glyph glyph-name="1" unicode="&#x31;" horiz-adv-x="369" d=" M369,0 L159,0 L159,476 L20,419 L20,622 L184,700 L369,700"/> 
            <glyph glyph-name="2" unicode="&#x32;" horiz-adv-x="543" d=" M543,0 L25,0 L25,154 L198,304 Q263,361 284,392 Q308,426 308,458 Q308,486 286,502.5 Q264,519 228,519 Q139,519 51,451 L51,662 Q130,714 251,714 Q356,714 439,652 Q522,590 522,485 Q522,408 490,349 Q459,291 376,222 L324,179 L543,179"/> 
            <glyph glyph-name="3" unicode="&#x33;" horiz-adv-x="555" d=" M256,-14 Q128,-14 33,43 L33,237 Q143,172 235,172 Q283,172 311.5,191 Q340,210 340,243 Q340,274 316,293 Q292,312 249,312 Q182,312 132,288 L132,417 L270,521 L49,521 L49,700 L520,700 L520,540 L399,442 Q555,382 555,237 Q555,123 468,54 Q382,-14 256,-14"/> 
            <glyph glyph-name="4" unicode="&#x34;" horiz-adv-x="632" d=" M541,0 L338,0 L338,158 L9,158 L9,307 L329,700 L541,700 L541,320 L632,320 L632,158 L541,158 M338,466 L214,320 L338,320"/> 
            <glyph glyph-name="5" unicode="&#x35;" horiz-adv-x="544" d=" M236,-14 Q119,-14 30,36 L30,233 Q124,172 223,172 Q329,172 329,244 Q329,278 300,297 Q271,316 217,316 Q130,316 49,289 L95,700 L497,700 L497,521 L253,521 L249,474 L271,475 Q394,475 468,414 Q544,353 544,244 Q544,158 499,98 Q416,-14 236,-14"/> 
            <glyph glyph-name="6" unicode="&#x36;" horiz-adv-x="600" d=" M379,474 Q475,474 537,412 Q600,350 600,241 Q600,127 523,56 Q447,-14 330,-14 Q190,-14 113,75 Q37,163 37,314 Q37,471 114,585 Q154,645 221.5,679.5 Q289,714 374,714 Q480,714 542,672 L542,485 Q480,530 400,530 Q341,530 300.5,502.5 Q260,475 253,425 Q298,474 379,474 M315,161 Q351,161 371,182.5 Q391,204 391,240 Q391,271 370.5,293 Q350,315 317,315 Q293,315 270.5,301 Q248,287 238,266 Q238,217 260.5,189 Q283,161 315,161"/> 
            <glyph glyph-name="7" unicode="&#x37;" horiz-adv-x="550" d=" M283,0 L56,0 L313,521 L23,521 L23,700 L550,700 L550,533"/> 
            <glyph glyph-name="8" unicode="&#x38;" horiz-adv-x="604" d=" M491,372 Q537,353 570,306 Q604,260 604,207 Q604,101 519,43 Q435,-14 313,-14 Q192,-14 106,43 Q22,102 22,207 Q22,260 55,306 Q90,353 135,372 Q99,390 75,429 Q51,468 51,510 Q51,601 125,657 Q200,714 313,714 Q426,714 500,657 Q575,602 575,510 Q575,468 551,429 Q527,390 491,372 M379,511 Q341,543 313,543 Q285,543 266,527 Q247,511 247,487 Q247,463 266,447 Q285,432 313,432 Q341,432 360,447 Q379,463 379,511 M394,226 Q394,255 371.5,274.5 Q349,294 313,294 Q277,294 254.5,274.5 Q232,255 232,226 Q232,198 255,179 Q278,160 313,160 Q348,160 371,179 Q394,198 394,226"/> 
            <glyph glyph-name="9" unicode="&#x39;" horiz-adv-x="600" d=" M258,226 Q163,226 99,288 Q37,350 37,459 Q37,573 114,644 Q190,714 307,714 Q446,714 523,625 Q600,536 600,386 Q600,231 523,114 Q483,55 415.5,20.5 Q348,-14 263,-14 Q156,-14 95,28 L95,215 Q156,170 237,170 Q296,170 336.5,197.5 Q377,225 384,275 Q339,226 258,226 M322,539 Q286,539 266,517.5 Q246,496 246,460 Q246,429 266.5,407 Q287,385 320,385 Q344,385 366.5,399 Q389,413 399,434 Q399,483 376.5,511 Q354,539 322,539"/> 
            <glyph glyph-name=":" unicode="&#x3A;" horiz-adv-x="266" d=" M144,529 Q194,529 230,493 Q266,458 266,407 Q266,356 230,320 Q194,284 144,284 Q94,284 57,320 Q21,356 21,407 Q21,458 57,493 Q93,529 144,529 M144,231 Q194,231 230,195 Q266,161 266,109 Q266,58 230,22 Q194,-14 144,-14 Q94,-14 57,22 Q21,58 21,109 Q21,160 57,195 Q93,231 144,231"/> 
            <glyph glyph-name=";" unicode="&#x3B;" horiz-adv-x="291" d=" M154,-152 L-20,-152 L74,199 L291,199 M161,529 Q211,529 247,493 Q283,458 283,407 Q283,356 247,320 Q211,284 161,284 Q112,284 74,320 Q38,356 38,407 Q38,458 74,493 Q110,529 161,529"/> 
            <glyph glyph-name="&lt;" unicode="&#x3C;" horiz-adv-x="578" d=" M578,231 L578,27 L40,236 L40,435 L578,644 L578,441 L249,337"/> 
            <glyph glyph-name="=" unicode="&#x3D;" horiz-adv-x="578" d=" M578,365 L40,365 L40,545 L578,545 M578,130 L40,130 L40,310 L578,310"/> 
            <glyph glyph-name="&gt;" unicode="&#x3E;" horiz-adv-x="578" d=" M578,236 L40,27 L40,231 L369,337 L40,441 L40,644 L578,435"/> 
            <glyph glyph-name="?" unicode="&#x3F;" horiz-adv-x="497" d=" M320,264 L120,264 L120,413 Q282,438 282,491 Q282,531 206,531 Q105,531 17,479 L17,655 Q108,716 238,716 Q348,716 422,664 Q497,613 497,511 Q497,437 445,391 Q390,343 320,321 M224,231 Q274,231 310,195 Q346,161 346,109 Q346,58 310,22 Q274,-14 224,-14 Q174,-14 137,22 Q101,58 101,109 Q101,160 137,195 Q173,231 224,231"/> 
            <glyph glyph-name="@" unicode="&#x40;" horiz-adv-x="896" d=" M458,-162 Q273,-162 146,-38 Q19,85 19,276 Q19,461 147,587 Q274,714 458,714 Q644,714 770,594 Q896,474 896,302 Q896,181 842,114 Q788,46 702,46 Q593,46 543,111 Q492,40 396,40 Q308,40 251,106 Q195,173 195,274 Q195,374 251,441 Q306,508 393,508 Q471,508 521,452 L521,498 L685,498 L685,204 Q685,106 746,106 Q784,106 816,157 Q848,209 848,302 Q848,403 802,485 Q755,569 665,621 Q576,673 458,673 Q288,673 177,557 Q67,441 67,276 Q67,106 176,-6 Q286,-120 458,-120 Q574,-120 681,-55 L681,-102 Q584,-162 458,-162 M447,188 Q498,188 521,226 L521,322 Q498,360 447,360 Q412,360 391,335.5 Q370,311 370,274 Q370,237 391,212.5 Q412,188 447,188"/> 
            <glyph glyph-name="A" unicode="&#x41;" horiz-adv-x="783" d=" M223,0 L1,0 L289,704 L494,704 L783,0 L552,0 L502,131 L274,131 M388,458 L336,292 L439,292"/> 
            <glyph glyph-name="B" unicode="&#x42;" horiz-adv-x="680" d=" M423,0 L53,0 L53,700 L408,700 Q506,700 568,654 Q631,609 631,521 Q631,470 603,436 Q574,401 547,388 Q593,379 636,328 Q680,278 680,203 Q680,112 609,56 Q538,0 423,0 M268,289 L268,173 L381,173 Q410,173 427.5,188.5 Q445,204 445,230 Q445,256 427,272.5 Q409,289 381,289 M268,533 L268,439 L377,439 Q399,439 413.5,452 Q428,465 428,484 Q428,506 413.5,519.5 Q399,533 377,533"/> 
            <glyph glyph-name="C" unicode="&#x43;" horiz-adv-x="619" d=" M434,-14 Q262,-14 147,87 Q33,189 33,350 Q33,511 146,612 Q258,714 432,714 Q536,714 609,677 L609,474 Q524,520 438,520 Q358,520 306,471 Q254,423 254,350 Q254,275 308,227 Q363,180 446,180 Q548,180 619,230 L619,24 Q546,-14 434,-14"/> 
            <glyph glyph-name="D" unicode="&#x44;" horiz-adv-x="738" d=" M348,0 L53,0 L53,700 L348,700 Q519,700 629,602 Q738,505 738,350 Q738,195 629,98 Q519,0 348,0 M268,515 L268,185 L334,185 Q422,185 469,227.5 Q516,270 516,350 Q516,430 469,472.5 Q422,515 334,515"/> 
            <glyph glyph-name="E" unicode="&#x45;" horiz-adv-x="608" d=" M608,0 L53,0 L53,700 L602,700 L602,515 L268,515 L268,453 L530,453 L530,283 L268,283 L268,185 L608,185"/> 
            <glyph glyph-name="F" unicode="&#x46;" horiz-adv-x="603" d=" M268,0 L53,0 L53,700 L603,700 L603,515 L268,515 L268,446 L509,446 L509,276 L268,276"/> 
            <glyph glyph-name="G" unicode="&#x47;" horiz-adv-x="721" d=" M422,-14 Q258,-14 145,88 Q33,190 33,350 Q33,511 146,612 Q258,714 431,714 Q481,714 516,707 Q556,699 574,692 Q599,683 629,670 L629,473 Q560,508 490.5,516 Q421,524 368.5,506.5 Q316,489 284,447 Q252,405 254,347 Q254,265 303,219 Q352,173 422,173 Q476,173 505,193 L505,408 L721,408 L721,93 Q679,48 598,17 Q517,-14 422,-14"/> 
            <glyph glyph-name="H" unicode="&#x48;" horiz-adv-x="697" d=" M268,0 L53,0 L53,700 L268,700 L268,463 L482,463 L482,700 L697,700 L697,0 L482,0 L482,276 L268,276"/> 
            <glyph glyph-name="I" unicode="&#x49;" horiz-adv-x="272" d=" M272,0 L57,0 L57,700 L272,700"/> 
            <glyph glyph-name="J" unicode="&#x4A;" horiz-adv-x="465" d=" M194,-14 Q74,-14 18,22 L18,225 Q82,181 146,181 Q199,181 224.5,203.5 Q250,226 250,279 L250,700 L465,700 L465,248 Q465,96 378,37 Q303,-14 194,-14"/> 
            <glyph glyph-name="K" unicode="&#x4B;" horiz-adv-x="768" d=" M268,0 L53,0 L53,700 L268,700 L268,439 L465,700 L718,700 L470,375 L768,0 L504,0 L268,302"/> 
            <glyph glyph-name="L" unicode="&#x4C;" horiz-adv-x="586" d=" M586,0 L53,0 L53,700 L268,700 L268,185 L586,185"/> 
            <glyph glyph-name="M" unicode="&#x4D;" horiz-adv-x="785" d=" M261,0 L53,0 L53,700 L266,700 L419,451 L573,700 L785,700 L785,0 L579,0 L579,392 L480,225 L364,225 L261,392"/> 
            <glyph glyph-name="N" unicode="&#x4E;" horiz-adv-x="708" d=" M259,0 L53,0 L53,700 L236,700 L504,362 L504,700 L708,700 L708,0 L531,0 L259,340"/> 
            <glyph glyph-name="O" unicode="&#x4F;" horiz-adv-x="782" d=" M297,229 Q341,182 408,182 Q475,182 519,229 Q563,278 563,350 Q563,423 519,470 Q476,518 408,518 Q340,518 297,470 Q253,423 253,350 Q253,278 297,229 M33,199 Q33,501 139,607 Q246,714 408,714 Q569,714 676,607 Q782,501 782,350 Q782,198 676,92 Q570,-14 408,-14 Q246,-14 139,93"/> 
            <glyph glyph-name="P" unicode="&#x50;" horiz-adv-x="640" d=" M53,700 L375,700 Q496,700 567,636 Q640,572 640,472 Q640,372 567,308 Q496,244 375,244 L268,244 L268,0 L53,0 M268,400 L346,400 Q379,400 399.5,417.5 Q420,435 420,463 Q420,491 399,508 Q378,525 346,525 L268,525"/> 
            <glyph glyph-name="Q" unicode="&#x51;" horiz-adv-x="782" d=" M400,-71 L356,-10 Q215,6 123,110 Q33,214 33,350 Q33,501 139,607 Q246,714 408,714 Q569,714 676,607 Q782,501 782,350 Q782,244 727,156 Q671,68 578,24 Q608,-13 663,-13 Q708,-13 746,8 L746,-167 Q692,-190 628,-190 Q489,-190 400,-71 M297,229 Q341,182 408,182 Q475,182 519,229 Q563,278 563,350 Q563,423 519,470 Q476,518 408,518 Q340,518 297,470 Q253,423 253,350 Q253,278 297,229"/> 
            <glyph glyph-name="R" unicode="&#x52;" horiz-adv-x="735" d=" M526,274 L735,0 L484,0 L298,250 L268,250 L268,0 L53,0 L53,700 L391,700 Q511,700 582,636 Q654,573 654,475 Q654,409 620,356.5 Q586,304 526,274 M268,407 L366,407 Q396,407 414.5,422.5 Q433,438 433,464 Q433,490 414.5,505 Q396,520 366,520 L268,520"/> 
            <glyph glyph-name="S" unicode="&#x53;" horiz-adv-x="635" d=" M327,-14 Q154,-14 36,61 L36,271 Q84,230 172,202 Q262,173 331,173 Q412,173 412,206 Q412,220 382,234 Q353,247 266,273 Q151,307 93.5,359.5 Q36,412 36,497 Q36,602 116,658 Q196,714 337,714 Q470,714 590,658 L590,458 Q538,489 461,508 Q383,529 321,529 Q259,529 259,503 Q259,490 288,476 Q317,465 419,434 Q529,401 582,348 Q635,295 635,216 Q635,111 550,48 Q465,-14 327,-14"/> 
            <glyph glyph-name="T" unicode="&#x54;" horiz-adv-x="637" d=" M22,515 L22,700 L637,700 L637,515 L436,515 L436,0 L221,0 L221,515"/> 
            <glyph glyph-name="U" unicode="&#x55;" horiz-adv-x="684" d=" M45,290 L45,700 L260,700 L260,289 Q260,235 289,208 Q318,181 365,181 Q412,181 440.5,208 Q469,235 469,289 L469,700 L684,700 L684,290 Q684,144 593,65 Q504,-14 365,-14 Q227,-14 136,65 Q45,144 45,290"/> 
            <glyph glyph-name="V" unicode="&#x56;" horiz-adv-x="763" d=" M483,-4 L279,-4 L0,700 L239,700 L385,283 L532,700 L763,700"/> 
            <glyph glyph-name="W" unicode="&#x57;" horiz-adv-x="1081" d=" M415,-4 L228,-4 L0,700 L234,700 L331,327 L463,702 L625,702 L757,327 L852,700 L1081,700 L851,-4 L668,-4 L543,364"/> 
            <glyph glyph-name="X" unicode="&#x58;" horiz-adv-x="757" d=" M19,700 L268,700 L370,533 L473,700 L719,700 L492,376 L757,0 L507,0 L366,212 L228,0 L-19,0 L246,375"/> 
            <glyph glyph-name="Y" unicode="&#x59;" horiz-adv-x="716" d=" M460,0 L245,0 L245,306 L-10,700 L233,700 L355,503 L479,700 L716,700 L460,311"/> 
            <glyph glyph-name="Z" unicode="&#x5A;" horiz-adv-x="627" d=" M627,0 L20,0 L20,152 L326,515 L29,515 L29,700 L611,700 L611,549 L306,185 L627,185"/> 
            <glyph glyph-name="[" unicode="&#x5B;" horiz-adv-x="436" d=" M436,-206 L60,-206 L60,706 L436,706 L436,547 L250,547 L250,-47 L436,-47"/> 
            <glyph glyph-name="\" unicode="&#x5C;" horiz-adv-x="589" d=" M589,-140 L399,-140 L-22,792 L168,792"/> 
            <glyph glyph-name="]" unicode="&#x5D;" horiz-adv-x="392" d=" M16,706 L392,706 L392,-206 L16,-206 L16,-47 L202,-47 L202,547 L16,547"/> 
            <glyph glyph-name="^" unicode="&#x5E;" horiz-adv-x="566" d=" M210,331 L12,331 L190,761 L389,761 L566,331 L369,331 L290,582"/> 
            <glyph glyph-name="_" unicode="&#x5F;" horiz-adv-x="668" d=" M668,-170 L-2,-170 L-2,-34 L668,-34"/> 
            <glyph glyph-name="`" unicode="&#x60;" horiz-adv-x="442" d=" M101,734 L347,734 L442,576 L271,576"/> 
            <glyph glyph-name="a" unicode="&#x61;" horiz-adv-x="585" d=" M556,154 Q572,154 585,163 L585,18 Q548,-13 481,-13 Q436,-13 398,7 Q360,27 347,55 Q326,25 285,6 Q244,-13 194,-13 Q108,-13 59,35 Q9,85 9,158 Q9,240 69,281 Q131,322 207,322 Q274,322 323,294 Q323,371 220,371 Q136,371 72,338 L72,495 Q155,529 269,529 Q385,529 458,470 Q530,412 530,316 L530,178 Q530,154 556,154 M326,149 L326,203 Q305,221 274,221 Q247,221 229.5,208 Q212,195 212,171 Q212,148 228,134 Q244,120 269,120 Q309,120 326,149"/> 
            <glyph glyph-name="b" unicode="&#x62;" horiz-adv-x="630" d=" M50,0 L50,700 L261,700 L261,458 Q308,529 402,529 Q500,529 565,452 Q630,375 630,258 Q630,141 565,64 Q500,-13 402,-13 Q308,-13 261,58 L261,0 M258,316 L258,199 Q280,162 337,162 Q375,162 398.5,189.5 Q422,217 422,258 Q422,299 398.5,326.5 Q375,354 337,354 Q281,354 258,316"/> 
            <glyph glyph-name="c" unicode="&#x63;" horiz-adv-x="465" d=" M305,-13 Q233,-13 170,15 Q106,44 63,108 Q19,173 19,259 Q19,346 63,410 Q147,529 307,529 Q392,529 459,500 L459,327 Q396,350 341,350 Q290,350 257,325.5 Q224,301 224,258 Q224,214 258,189.5 Q292,165 345,165 Q408,165 465,191 L465,20 Q388,-13 305,-13"/> 
            <glyph glyph-name="d" unicode="&#x64;" horiz-adv-x="599" d=" M388,458 L388,700 L599,700 L599,0 L388,0 L388,58 Q341,-13 247,-13 Q149,-13 84,64 Q19,141 19,258 Q19,375 84,452 Q149,529 247,529 Q341,529 388,458 M391,199 L391,316 Q368,354 312,354 Q274,354 250.5,326.5 Q227,299 227,258 Q227,217 250.5,189.5 Q274,162 312,162 Q369,162 391,199"/> 
            <glyph glyph-name="e" unicode="&#x65;" horiz-adv-x="547" d=" M307,-13 Q187,-13 103,59 Q19,133 19,258 Q19,374 95,451 Q172,529 296,529 Q403,529 475,456 Q547,384 547,261 L547,213 L219,213 Q231,183 268.5,167.5 Q306,152 354,152 Q446,152 520,191 L520,37 Q450,-13 307,-13 M215,313 L352,313 Q351,347 332.5,367.5 Q314,388 286,388 Q226,388 215,313"/> 
            <glyph glyph-name="f" unicode="&#x66;" horiz-adv-x="442" d=" M300,352 L300,0 L89,0 L89,352 L8,352 L8,516 L89,516 L89,530 Q89,614 143,664 Q197,714 297,714 Q379,714 442,692 L442,553 Q402,566 362,566 Q300,566 300,516 L442,516 L442,352"/> 
            <glyph glyph-name="g" unicode="&#x67;" horiz-adv-x="592" d=" M381,460 L381,516 L592,516 L592,84 Q592,25 572.5,-24.5 Q553,-74 521.5,-106.5 Q490,-139 448,-162 Q406,-185 363,-195.5 Q320,-206 276,-206 Q139,-206 70,-164 L70,17 Q155,-33 253,-33 Q381,-33 381,69 L381,100 Q330,31 238,31 Q141,31 80,101 Q19,171 19,280 Q19,389 80,459 Q141,529 238,529 Q328,529 381,460 M384,234 L384,326 Q357,357 304,357 Q269,357 248,335.5 Q227,314 227,280 Q227,246 248,224.5 Q269,203 304,203 Q357,203 384,234"/> 
            <glyph glyph-name="h" unicode="&#x68;" horiz-adv-x="582" d=" M260,317 L260,0 L50,0 L50,700 L260,700 L260,450 Q278,478 320,504 Q363,529 411,529 Q494,529 538,476 Q582,423 582,327 L582,0 L371,0 L371,282 Q371,313 356.5,329 Q342,345 319,345 Q284,345 260,317"/> 
            <glyph glyph-name="i" unicode="&#x69;" horiz-adv-x="277" d=" M264,0 L53,0 L53,516 L264,516 M209,540 Q109,540 75,574 Q41,608 41,659 Q41,708 75,742 Q110,777 159,777 Q207,777 242,742 Q277,707 277,659 Q277,609 209,540"/> 
            <glyph glyph-name="j" unicode="&#x6A;" horiz-adv-x="277" d=" M159,540 Q110,540 76,574 Q42,608 42,659 Q42,708 76,742.5 Q110,777 159,777 Q207,777 242,742 Q277,707 277,659 Q277,609 243,574.5 Q209,540 159,540 M33,-206 Q-49,-206 -91,-186 L-91,-27 Q-61,-42 -21,-42 Q15,-42 34.5,-25.5 Q54,-9 54,21 L54,516 L265,516 L265,19 Q265,-86 204.5,-146 Q144,-206 33,-206"/> 
            <glyph glyph-name="k" unicode="&#x6B;" horiz-adv-x="666" d=" M260,0 L50,0 L50,700 L260,700 L260,334 L393,516 L634,516 L448,284 L666,0 L409,0 L260,209"/> 
            <glyph glyph-name="l" unicode="&#x6C;" horiz-adv-x="312" d=" M205,-13 Q50,-13 50,144 L50,700 L260,700 L260,191 Q260,177 268,170 Q276,163 287,163 Q300,163 312,168 L312,7 Q270,-13 205,-13"/> 
            <glyph glyph-name="m" unicode="&#x6D;" horiz-adv-x="890" d=" M260,0 L50,0 L50,516 L260,516 L260,449 Q279,481 321,505 Q363,529 409,529 Q506,529 547,446 Q568,482 613.5,505.5 Q659,529 710,529 Q785,529 838,476 Q890,424 890,322 L890,0 L679,0 L679,283 Q679,346 633,346 Q596,346 576,316 L576,0 L365,0 L365,283 Q365,346 319,346 Q283,346 260,314"/> 
            <glyph glyph-name="n" unicode="&#x6E;" horiz-adv-x="582" d=" M260,317 L260,0 L50,0 L50,516 L260,516 L260,450 Q278,478 320,504 Q363,529 411,529 Q494,529 538,476 Q582,423 582,327 L582,0 L371,0 L371,282 Q371,313 356.5,329 Q342,345 319,345 Q284,345 260,317"/> 
            <glyph glyph-name="o" unicode="&#x6F;" horiz-adv-x="608" d=" M224,217 Q274,165 313,165 Q352,165 377,191 Q402,217 402,258 Q402,299 377,324 Q352,351 313,351 Q274,351 249,324 Q224,299 224,217 M313,-13 Q187,-13 102,64 Q19,141 19,258 Q19,375 102,452 Q187,529 313,529 Q441,529 524,452 Q608,376 608,258 Q608,140 524,64 Q441,-13 313,-13"/> 
            <glyph glyph-name="p" unicode="&#x70;" horiz-adv-x="630" d=" M261,58 L261,-200 L50,-200 L50,516 L261,516 L261,458 Q308,529 402,529 Q500,529 565,452 Q630,375 630,258 Q630,141 565,64 Q500,-13 402,-13 Q308,-13 261,58 M258,317 L258,200 Q281,162 337,162 Q375,162 398.5,189.5 Q422,217 422,258 Q422,299 398.5,326.5 Q375,354 337,354 Q280,354 258,317"/> 
            <glyph glyph-name="q" unicode="&#x71;" horiz-adv-x="599" d=" M599,516 L599,-200 L388,-200 L388,58 Q341,-13 247,-13 Q149,-13 84,64 Q19,141 19,258 Q19,375 84,452 Q149,529 247,529 Q341,529 388,458 L388,516 M391,200 L391,317 Q369,354 312,354 Q274,354 250.5,326.5 Q227,299 227,258 Q227,217 250.5,189.5 Q274,162 312,162 Q368,162 391,200"/> 
            <glyph glyph-name="r" unicode="&#x72;" horiz-adv-x="449" d=" M260,0 L50,0 L50,516 L260,516 L260,434 Q275,466 321,497 Q368,529 421,529 Q438,529 449,526 L449,328 Q415,336 386,336 Q302,336 260,291"/> 
            <glyph glyph-name="s" unicode="&#x73;" horiz-adv-x="504" d=" M246,-13 Q108,-13 31,32 L31,191 Q69,169 128,153 Q188,137 249,137 Q292,137 292,156 Q292,165 280,171 Q272,176 233,187 L179,203 Q98,231 61,264 Q27,297 27,361 Q27,441 94,485 Q161,529 279,529 Q393,529 482,479 L482,324 Q444,347 387,363 Q327,380 281,380 Q246,380 246,362 Q246,353 267,343 Q274,340 288,336 L350,319 Q435,292 469.5,257 Q504,222 504,158 Q504,80 436.5,33.5 Q369,-13 246,-13"/> 
            <glyph glyph-name="t" unicode="&#x74;" horiz-adv-x="418" d=" M89,154 L89,352 L8,352 L8,516 L89,516 L89,640 L299,640 L299,516 L416,516 L416,352 L299,352 L299,219 Q299,191 311,178.5 Q323,166 352,166 Q386,166 418,183 L418,19 Q365,-13 279,-13 Q194,-13 141.5,31 Q89,75 89,154"/> 
            <glyph glyph-name="u" unicode="&#x75;" horiz-adv-x="573" d=" M363,199 L363,516 L573,516 L573,0 L363,0 L363,66 Q345,37 302,12 Q261,-13 212,-13 Q129,-13 85,40 Q41,93 41,189 L41,516 L252,516 L252,234 Q252,203 266.5,187 Q281,171 304,171 Q339,171 363,199"/> 
            <glyph glyph-name="v" unicode="&#x76;" horiz-adv-x="611" d=" M398,-4 L208,-4 L-4,516 L217,516 L306,249 L396,516 L611,516"/> 
            <glyph glyph-name="w" unicode="&#x77;" horiz-adv-x="833" d=" M337,-4 L161,-4 L-2,516 L201,516 L269,274 L336,518 L496,518 L565,275 L630,516 L833,516 L666,-4 L488,-4 L411,237"/> 
            <glyph glyph-name="x" unicode="&#x78;" horiz-adv-x="602" d=" M9,516 L235,516 L302,395 L368,516 L594,516 L424,265 L602,0 L373,0 L300,129 L225,0 L-1,0 L179,264"/> 
            <glyph glyph-name="y" unicode="&#x79;" horiz-adv-x="611" d=" M170,-206 Q90,-206 46,-182 L46,-1 Q84,-28 133,-28 Q166,-28 183.5,-18.5 Q201,-9 211,17 L0,516 L221,516 L312,224 L394,516 L611,516 L393,-50 Q333,-206 170,-206"/> 
            <glyph glyph-name="z" unicode="&#x7A;" horiz-adv-x="521" d=" M521,0 L27,0 L27,139 L231,350 L37,350 L37,516 L505,516 L505,372 L295,166 L521,166"/> 
            <glyph glyph-name="{" unicode="&#x7B;" horiz-adv-x="419" d=" M121,444 L121,510 Q121,598 174.5,652 Q228,706 318,706 L419,706 L419,547 L363,547 Q341,547 326,531 Q311,515 311,493 L311,369 Q311,272 217,250 Q311,228 311,131 L311,7 Q311,-15 326,-31 Q341,-47 363,-47 L419,-47 L419,-206 L318,-206 Q228,-206 174.5,-152 Q121,-98 121,-10 L121,56 Q121,112 104.5,138 Q88,164 44,169 L44,331 Q88,336 104.5,362 Q121,388 121,444"/> 
            <glyph glyph-name="|" unicode="&#x7C;" horiz-adv-x="259" d=" M259,-111 L96,-111 L96,760 L259,760"/> 
            <glyph glyph-name="}" unicode="&#x7D;" horiz-adv-x="391" d=" M314,510 L314,444 Q314,388 330.5,362 Q347,336 391,331 L391,169 Q347,164 330.5,138 Q314,112 314,56 L314,-10 Q314,-98 260.5,-152 Q207,-206 117,-206 L16,-206 L16,-47 L72,-47 Q94,-47 109,-31 Q124,-15 124,7 L124,131 Q124,228 218,250 Q124,272 124,369 L124,493 Q124,515 109,531 Q94,547 72,547 L16,547 L16,706 L117,706 Q207,706 260.5,652 Q314,598 314,510"/> 
            <glyph glyph-name="~" unicode="&#x7E;" horiz-adv-x="564" d=" M443,322 Q522,322 564,361 L564,180 Q548,162 513.5,150.5 Q479,139 440,139 Q394,139 302,166 Q214,194 161,194 Q82,194 40,155 L40,336 Q78,377 164,377 Q212,377 302,349 Q394,322 443,322"/> 
            <glyph glyph-name="¡" unicode="&#xA1;" horiz-adv-x="314" d=" M285,251 L314,-200 L64,-200 L94,251 M188,283 Q138,283 102,319 Q66,355 66,407 Q66,457 102,493 Q138,529 188,529 Q239,529 275,493 Q311,457 311,407 Q311,355 275,319 Q239,283 188,283"/> 
            <glyph glyph-name="¢" unicode="&#xA2;" horiz-adv-x="465" d=" M206,513 L206,632 L381,632 L381,524 Q412,520 459,500 L459,327 Q396,350 341,350 Q290,350 257,325.5 Q224,301 224,258 Q224,214 258,189.5 Q292,165 345,165 Q408,165 465,191 L465,20 Q422,0 381,-7 L381,-117 L206,-117 L206,2 Q121,30 70,96.5 Q19,163 19,259 Q19,355 69.5,420.5 Q120,486 206,513"/> 
            <glyph glyph-name="£" unicode="&#xA3;" horiz-adv-x="567" d=" M567,0 L17,0 L17,185 L41,185 Q109,185 109,232 L109,272 L17,272 L17,421 L109,421 L109,463 Q109,578 183,646 Q259,714 385,714 Q478,714 543,687 L543,490 Q496,508 435,508 Q323,508 323,421 L499,421 L499,272 L323,272 L323,258 Q323,226 315.5,209.5 Q308,193 288,185 L567,185"/> 
            <glyph glyph-name="¤" unicode="&#xA4;" horiz-adv-x="562" d=" M496,237 L562,170 L475,82 L409,148 Q294,87 179,148 L113,82 L26,170 L92,237 Q62,289 62,351 Q62,413 92,465 L26,532 L113,620 L179,554 Q294,615 409,554 L475,620 L562,532 L496,465 Q526,413 526,351 Q526,289 496,237 M206,315 Q258,263 294,263 Q330,263 356,289 Q382,315 382,351 Q382,387 356,413 Q330,439 294,439 Q258,439 232,413 Q206,387 206,315"/> 
            <glyph glyph-name="¥" unicode="&#xA5;" horiz-adv-x="698" d=" M57,118 L57,241 L240,241 L240,294 L57,294 L57,417 L192,417 L-4,700 L227,700 L349,503 L472,700 L698,700 L499,417 L636,417 L636,294 L454,294 L454,241 L636,241 L636,118 L454,118 L454,0 L240,0 L240,118"/> 
            <glyph glyph-name="¦" unicode="&#xA6;" horiz-adv-x="259" d=" M259,-111 L96,-111 L96,242 L259,242 M259,407 L96,407 L96,760 L259,760"/> 
            <glyph glyph-name="§" unicode="&#xA7;" horiz-adv-x="642" d=" M642,261 Q642,182 559,140 Q598,93 598,25 Q598,-71 518,-122 Q439,-174 312,-174 Q182,-174 83,-125 L83,52 Q133,26 198.5,9 Q264,-8 320,-8 Q379,-8 379,19 Q379,36 353,45 Q348,47 324,55 L236,79 Q141,108 88,145 Q20,193 20,279 Q20,358 103,400 Q64,446 64,515 Q64,611 144,662 Q223,714 349,714 Q415,714 478.5,699.5 Q542,685 579,665 L579,489 Q529,514 465,530 Q400,548 342,548 Q283,548 283,522 Q283,506 309,496 L337,486 Q398,470 426,461 Q522,431 573,395 Q642,347 642,261 M422,205 Q452,211 452,239 Q452,259 424,270 Q414,275 396,281 Q386,285 351.5,295.5 Q317,306 312,308 Q248,331 240,334 Q210,328 210,299 Q210,279 237,267 L266,256 L306,243 Q317,240 331.5,235.5 Q346,231 350,230 Q368,223 422,205"/> 
            <glyph glyph-name="¨" unicode="&#xA8;" horiz-adv-x="483" d=" M284,656 Q284,696 313,725 Q342,754 383,754 Q424,754 453,725 Q483,696 483,656 Q483,615 453.5,586 Q424,557 383,557 Q342,557 313,586 Q284,615 284,656 M150,557 Q109,557 79.5,586 Q50,615 50,656 Q50,696 79,725 Q110,754 150,754 Q192,754 220.5,725.5 Q249,697 249,656 Q249,615 220.5,586 Q192,557 150,557"/> 
            <glyph glyph-name="©" unicode="&#xA9;" horiz-adv-x="757" d=" M430,146 Q334,146 269,203 Q206,260 206,350 Q206,440 269,496 Q332,553 429,553 Q482,553 528,533 L528,418 Q482,445 431,445 Q388,445 359,418 Q330,391 330,350 Q330,308 359.5,281.5 Q389,255 435,255 Q494,255 534,284 L534,168 Q489,146 430,146 M397,714 Q548,714 652,607 Q757,501 757,350 Q757,200 651,93 Q546,-14 394,-14 Q243,-14 138,93 Q33,200 33,350 Q33,500 139,606 Q246,714 397,714 M394,26 Q532,26 624,121 Q716,216 716,353 Q716,488 625,580 Q534,674 397,674 Q259,674 167,579 Q75,484 75,347 Q75,213 166,119 Q258,26 394,26"/> 
            <glyph glyph-name="ª" unicode="&#xAA;" horiz-adv-x="414" d=" M393,418 Q404,418 414,423 L414,334 Q388,316 349,316 Q285,316 261,360 Q214,314 139,314 Q78,314 40.5,348.5 Q3,383 3,438 Q3,498 46,529 Q89,560 149,560 Q208,560 247,539 L247,546 Q247,609 158,609 Q100,609 47,581 L47,680 Q104,708 187,708 Q269,708 319,668 Q369,628 369,559 L369,440 Q369,418 393,418 M247,433 L247,473 Q222,491 187,491 Q159,491 141.5,478 Q124,465 124,444 Q124,424 140,412 Q156,400 181,400 Q222,400 247,433"/> 
            <glyph glyph-name="«" unicode="&#xAB;" horiz-adv-x="610" d=" M343,29 L135,29 L12,206 L12,309 L135,487 L343,487 L185,258 M610,29 L402,29 L279,206 L279,309 L402,487 L610,487 L452,258"/> 
            <glyph glyph-name="¬" unicode="&#xAC;" horiz-adv-x="540" d=" M540,124 L352,124 L352,274 L40,274 L40,457 L540,457"/> 
            <glyph glyph-name="­" unicode="&#xAD;" horiz-adv-x="411" d=" M411,193 L74,193 L74,376 L411,376"/> 
            <glyph glyph-name="®" unicode="&#xAE;" horiz-adv-x="757" d=" M497,321 L614,168 L475,168 L370,307 L353,307 L353,168 L233,168 L233,559 L422,559 Q488,559 528.5,523.5 Q569,488 569,433 Q569,356 497,321 M353,395 L408,395 Q445,395 445,427 Q445,458 408,458 L353,458 M397,714 Q548,714 652,607 Q757,501 757,350 Q757,200 651,93 Q546,-14 394,-14 Q243,-14 138,93 Q33,200 33,350 Q33,500 139,606 Q246,714 397,714 M394,26 Q532,26 624,121 Q716,216 716,353 Q716,488 625,580 Q534,674 397,674 Q259,674 167,579 Q75,484 75,347 Q75,213 166,119 Q258,26 394,26"/> 
            <glyph glyph-name="¯" unicode="&#xAF;" horiz-adv-x="423" d=" M423,584 L63,584 L63,719 L423,719"/> 
            <glyph glyph-name="°" unicode="&#xB0;" horiz-adv-x="343" d=" M233,551 Q233,576 217,593 Q201,610 176,610 Q152,610 136,593 Q120,576 119,551 Q120,527 136,510 Q152,493 176,493 Q200,493 216.5,510 Q233,527 233,551 M59,665 Q108,714 176,714 Q244,714 293,665 Q343,617 343,551 Q343,486 293,436 Q244,388 176,388 Q108,388 59,436 Q10,485 10,551 Q10,617 59,665"/> 
            <glyph glyph-name="±" unicode="&#xB1;" horiz-adv-x="578" d=" M40,371 L40,554 L217,554 L217,700 L400,700 L400,554 L578,554 L578,371 L400,371 L400,226 L217,226 L217,371 M578,0 L40,0 L40,171 L578,171"/> 
            <glyph glyph-name="²" unicode="&#xB2;" horiz-adv-x="320" d=" M320,322 L31,322 L31,405 L131,486 Q192,537 192,569 Q192,602 147,602 Q96,602 46,566 L46,680 Q90,708 157,708 Q216,708 262,674 Q308,641 308,584 Q308,543 290.5,512 Q273,481 227,442 L198,418 L320,418"/> 
            <glyph glyph-name="³" unicode="&#xB3;" horiz-adv-x="307" d=" M141,314 Q68,314 16,345 L16,450 Q78,415 131,415 Q158,415 174.5,425 Q191,435 191,453 Q191,469 177.5,479.5 Q164,490 139,490 Q97,490 72,477 L72,547 L148,604 L25,604 L25,700 L288,700 L288,614 L220,561 Q307,530 307,450 Q307,388 259,351 Q212,314 141,314"/> 
            <glyph glyph-name="´" unicode="&#xB4;" horiz-adv-x="441" d=" M272,576 L101,576 L196,734 L441,734"/> 
            <glyph glyph-name="µ" unicode="&#xB5;" horiz-adv-x="582" d=" M372,199 L372,516 L582,516 L582,0 L372,0 L372,66 Q357,42 326.5,21 Q296,0 261,-8 L261,-200 L50,-200 L50,516 L261,516 L261,234 Q261,203 275.5,187 Q290,171 313,171 Q348,171 372,199"/> 
            <glyph glyph-name="¶" unicode="&#xB6;" horiz-adv-x="561" d=" M561,0 L347,0 L347,260 L274,260 Q158,260 87,322 Q17,383 17,480 Q17,577 87,638 Q158,700 274,700 L561,700"/> 
            <glyph glyph-name="·" unicode="&#xB7;" horiz-adv-x="266" d=" M144,519 Q194,519 230,483 Q266,448 266,397 Q266,346 230,310 Q194,274 144,274 Q94,274 57,310 Q21,346 21,397 Q21,448 57,483 Q93,519 144,519"/> 
            <glyph glyph-name="¸" unicode="&#xB8;" horiz-adv-x="378" d=" M317,-159 L75,-159 L213,15 L378,15"/> 
            <glyph glyph-name="¹" unicode="&#xB9;" horiz-adv-x="225" d=" M225,322 L110,322 L110,583 L10,536 L10,648 L114,700 L225,700"/> 
            <glyph glyph-name="º" unicode="&#xBA;" horiz-adv-x="424" d=" M8,596 Q126,708 216,708 Q306,708 365,652 Q424,596 424,511 Q424,426 365,370 Q306,314 216,314 Q126,314 67,370 Q8,426 8,596 M302,512 Q302,550 278,575 Q254,600 216,600 Q178,600 154.5,575.5 Q131,551 131,512 Q131,473 154.5,447 Q178,421 216,421 Q254,421 278,447 Q302,473 302,512"/> 
            <glyph glyph-name="»" unicode="&#xBB;" horiz-adv-x="608" d=" M608,309 L608,206 L485,29 L277,29 L435,258 L277,487 L485,487 M341,309 L341,206 L218,29 L10,29 L168,258 L10,487 L218,487"/> 
            <glyph glyph-name="¼" unicode="&#xBC;" horiz-adv-x="761" d=" M225,322 L110,322 L110,583 L10,536 L10,648 L114,700 L225,700 M218,0 L88,0 L516,700 L646,700 M710,378 L710,173 L761,173 L761,85 L710,85 L710,0 L599,0 L599,85 L414,85 L414,166 L592,378 M528,173 L599,173 L599,254"/> 
            <glyph glyph-name="½" unicode="&#xBD;" horiz-adv-x="774" d=" M225,322 L110,322 L110,583 L10,536 L10,648 L114,700 L225,700 M218,0 L88,0 L516,700 L646,700 M774,0 L485,0 L485,83 L585,164 Q646,215 646,247 Q646,280 601,280 Q550,280 500,244 L500,358 Q544,386 611,386 Q670,386 716,352 Q762,319 762,262 Q762,221 744.5,190 Q727,159 681,120 L652,96 L774,96"/> 
            <glyph glyph-name="¾" unicode="&#xBE;" horiz-adv-x="801" d=" M141,314 Q68,314 16,345 L16,450 Q78,415 131,415 Q158,415 174.5,425 Q191,435 191,453 Q191,469 177.5,479.5 Q164,490 139,490 Q97,490 72,477 L72,547 L148,604 L25,604 L25,700 L288,700 L288,614 L220,561 Q307,530 307,450 Q307,388 259,351 Q212,314 141,314 M258,0 L128,0 L556,700 L686,700 M750,378 L750,173 L801,173 L801,85 L750,85 L750,0 L639,0 L639,85 L454,85 L454,166 L632,378 M568,173 L639,173 L639,254"/> 
            <glyph glyph-name="¿" unicode="&#xBF;" horiz-adv-x="485" d=" M182,251 L382,251 L382,99 Q315,89 267,67 Q220,47 220,19 Q220,-21 296,-21 Q397,-21 485,31 L485,-145 Q394,-206 264,-206 Q154,-206 80,-154 Q5,-103 5,-1 Q5,72 57,120 Q110,169 182,191 M278,284 Q229,284 192,319 Q156,355 156,406 Q156,457 192,493 Q228,529 278,529 Q328,529 364,493 Q401,457 401,406 Q401,355 365,319 Q328,284 278,284"/> 
            <glyph glyph-name="À" unicode="&#xC0;" horiz-adv-x="783" d=" M223,0 L1,0 L289,704 L494,704 L783,0 L552,0 L502,131 L274,131 M388,458 L336,292 L439,292 M143,917 L388,917 L483,759 L312,759"/> 
            <glyph glyph-name="Á" unicode="&#xC1;" horiz-adv-x="783" d=" M223,0 L1,0 L289,704 L494,704 L783,0 L552,0 L502,131 L274,131 M388,458 L336,292 L439,292 M482,759 L311,759 L406,917 L652,917"/> 
            <glyph glyph-name="Â" unicode="&#xC2;" horiz-adv-x="783" d=" M223,0 L1,0 L289,704 L494,704 L783,0 L552,0 L502,131 L274,131 M388,458 L336,292 L439,292 M336,760 L165,760 L297,917 L493,917 L621,760 L447,760 L391,821"/> 
            <glyph glyph-name="Ã" unicode="&#xC3;" horiz-adv-x="783" d=" M287,756 L187,756 Q186,824 224,875 Q263,925 324,925 Q356,925 393,908 Q430,891 452,891 Q488,891 497,921 L598,921 Q598,859 559,805 Q521,752 462,752 Q425,752 389,770 Q355,788 333,788 Q298,788 287,756 M223,0 L1,0 L289,704 L494,704 L783,0 L552,0 L502,131 L274,131 M388,458 L336,292 L439,292"/> 
            <glyph glyph-name="Ä" unicode="&#xC4;" horiz-adv-x="783" d=" M409,840 Q409,880 438,909 Q467,938 508,938 Q549,938 578,909 Q608,880 608,840 Q608,799 578.5,770 Q549,741 508,741 Q467,741 438,770 Q409,799 409,840 M275,741 Q234,741 205,770 Q176,799 176,840 Q176,880 205,909 Q234,938 275,938 Q317,938 345.5,909.5 Q374,881 374,840 Q374,799 345.5,770 Q317,741 275,741 M223,0 L1,0 L289,704 L494,704 L783,0 L552,0 L502,131 L274,131 M388,458 L336,292 L439,292"/> 
            <glyph glyph-name="Å" unicode="&#xC5;" horiz-adv-x="783" d=" M283,839 Q283,884 315,916 Q348,949 393,949 Q438,949 469.5,916.5 Q501,884 501,839 Q501,795 469,763 Q437,731 393,731 Q349,731 315,763 Q283,795 283,839 M393,798 Q409,798 421,810 Q433,822 433,839 Q433,856 421,868.5 Q409,881 393,881 Q376,881 363.5,868.5 Q351,856 351,839 Q351,823 363.5,810.5 Q376,798 393,798 M223,0 L1,0 L289,704 L494,704 L783,0 L552,0 L502,131 L274,131 M388,458 L336,292 L439,292"/> 
            <glyph glyph-name="Æ" unicode="&#xC6;" horiz-adv-x="1046" d=" M718,283 L718,185 L1046,185 L1046,0 L503,0 L503,131 L294,131 L229,0 L-3,0 L355,700 L1040,700 L1040,515 L718,515 L718,453 L968,453 L968,283 M503,519 L487,519 L374,292 L503,292"/> 
            <glyph glyph-name="Ç" unicode="&#xC7;" horiz-adv-x="619" d=" M463,-159 L221,-159 L342,-5 Q203,21 118,116 Q33,211 33,350 Q33,511 146,612 Q258,714 432,714 Q536,714 609,677 L609,474 Q524,520 438,520 Q358,520 306,471 Q254,423 254,350 Q254,275 308,227 Q363,180 446,180 Q548,180 619,230 L619,24 Q582,3 516,-8"/> 
            <glyph glyph-name="È" unicode="&#xC8;" horiz-adv-x="608" d=" M608,0 L53,0 L53,700 L602,700 L602,515 L268,515 L268,453 L530,453 L530,283 L268,283 L268,185 L608,185 M103,917 L348,917 L443,759 L272,759"/> 
            <glyph glyph-name="É" unicode="&#xC9;" horiz-adv-x="608" d=" M608,0 L53,0 L53,700 L602,700 L602,515 L268,515 L268,453 L530,453 L530,283 L268,283 L268,185 L608,185 M380,759 L209,759 L304,917 L550,917"/> 
            <glyph glyph-name="Ê" unicode="&#xCA;" horiz-adv-x="608" d=" M608,0 L53,0 L53,700 L602,700 L602,515 L268,515 L268,453 L530,453 L530,283 L268,283 L268,185 L608,185 M274,760 L103,760 L235,917 L431,917 L559,760 L385,760 L329,821"/> 
            <glyph glyph-name="Ë" unicode="&#xCB;" horiz-adv-x="608" d=" M608,0 L53,0 L53,700 L602,700 L602,515 L268,515 L268,453 L530,453 L530,283 L268,283 L268,185 L608,185 M347,840 Q347,880 376,909 Q405,938 446,938 Q487,938 516,909 Q546,880 546,840 Q546,799 516.5,770 Q487,741 446,741 Q405,741 376,770 Q347,799 347,840 M213,741 Q172,741 143,770 Q114,799 114,840 Q114,880 143,909 Q172,938 213,938 Q255,938 283.5,909.5 Q312,881 312,840 Q312,799 283.5,770 Q255,741 213,741"/> 
            <glyph glyph-name="Ì" unicode="&#xCC;" horiz-adv-x="272" d=" M272,0 L57,0 L57,700 L272,700 M-86,917 L159,917 L254,759 L83,759"/> 
            <glyph glyph-name="Í" unicode="&#xCD;" horiz-adv-x="422" d=" M272,0 L57,0 L57,700 L272,700 M252,759 L81,759 L176,917 L422,917"/> 
            <glyph glyph-name="Î" unicode="&#xCE;" horiz-adv-x="392" d=" M107,760 L-64,760 L68,917 L264,917 L392,760 L218,760 L162,821 M272,0 L57,0 L57,700 L272,700"/> 
            <glyph glyph-name="Ï" unicode="&#xCF;" horiz-adv-x="380" d=" M181,840 Q181,880 210,909 Q239,938 280,938 Q321,938 350,909 Q380,880 380,840 Q380,799 350.5,770 Q321,741 280,741 Q239,741 210,770 Q181,799 181,840 M47,741 Q6,741 -23,770 Q-52,799 -52,840 Q-52,880 -23,909 Q6,938 47,938 Q89,938 117.5,909.5 Q146,881 146,840 Q146,799 117.5,770 Q89,741 47,741 M272,0 L57,0 L57,700 L272,700"/> 
            <glyph glyph-name="Ð" unicode="&#xD0;" horiz-adv-x="786" d=" M397,0 L102,0 L102,290 L20,290 L20,459 L102,459 L102,700 L397,700 Q568,700 677,602 Q786,505 786,350 Q786,194 677,97 Q570,0 397,0 M316,290 L316,185 L383,185 Q471,185 518,227.5 Q565,270 565,350 Q565,430 518,472.5 Q471,515 383,515 L316,515 L316,459 L431,459 L431,290"/> 
            <glyph glyph-name="Ñ" unicode="&#xD1;" horiz-adv-x="708" d=" M259,0 L53,0 L53,700 L236,700 L504,362 L504,700 L708,700 L708,0 L531,0 L259,340 M276,756 L176,756 Q175,824 213,875 Q252,925 313,925 Q345,925 382,908 Q419,891 441,891 Q477,891 486,921 L587,921 Q587,859 548,805 Q510,752 451,752 Q414,752 378,770 Q343,788 322,788 Q287,788 276,756"/> 
            <glyph glyph-name="Ò" unicode="&#xD2;" horiz-adv-x="782" d=" M297,229 Q341,182 408,182 Q475,182 519,229 Q563,278 563,350 Q563,423 519,470 Q476,518 408,518 Q340,518 297,470 Q253,423 253,350 Q253,278 297,229 M33,199 Q33,501 139,607 Q246,714 408,714 Q569,714 676,607 Q782,501 782,350 Q782,198 676,92 Q570,-14 408,-14 Q246,-14 139,93 M156,917 L401,917 L496,759 L325,759"/> 
            <glyph glyph-name="Ó" unicode="&#xD3;" horiz-adv-x="782" d=" M297,229 Q341,182 408,182 Q475,182 519,229 Q563,278 563,350 Q563,423 519,470 Q476,518 408,518 Q340,518 297,470 Q253,423 253,350 Q253,278 297,229 M33,199 Q33,501 139,607 Q246,714 408,714 Q569,714 676,607 Q782,501 782,350 Q782,198 676,92 Q570,-14 408,-14 Q246,-14 139,93 M488,759 L317,759 L412,917 L658,917"/> 
            <glyph glyph-name="Ô" unicode="&#xD4;" horiz-adv-x="782" d=" M297,229 Q341,182 408,182 Q475,182 519,229 Q563,278 563,350 Q563,423 519,470 Q476,518 408,518 Q340,518 297,470 Q253,423 253,350 Q253,278 297,229 M33,199 Q33,501 139,607 Q246,714 408,714 Q569,714 676,607 Q782,501 782,350 Q782,198 676,92 Q570,-14 408,-14 Q246,-14 139,93 M350,760 L179,760 L311,917 L507,917 L635,760 L461,760 L405,821"/> 
            <glyph glyph-name="Õ" unicode="&#xD5;" horiz-adv-x="782" d=" M297,229 Q341,182 408,182 Q475,182 519,229 Q563,278 563,350 Q563,423 519,470 Q476,518 408,518 Q340,518 297,470 Q253,423 253,350 Q253,278 297,229 M33,199 Q33,501 139,607 Q246,714 408,714 Q569,714 676,607 Q782,501 782,350 Q782,198 676,92 Q570,-14 408,-14 Q246,-14 139,93 M302,756 L202,756 Q201,824 239,875 Q278,925 339,925 Q371,925 408,908 Q445,891 467,891 Q503,891 512,921 L613,921 Q613,859 574,805 Q536,752 477,752 Q440,752 404,770 Q369,788 348,788 Q313,788 302,756"/> 
            <glyph glyph-name="Ö" unicode="&#xD6;" horiz-adv-x="782" d=" M297,229 Q341,182 408,182 Q475,182 519,229 Q563,278 563,350 Q563,423 519,470 Q476,518 408,518 Q340,518 297,470 Q253,423 253,350 Q253,278 297,229 M33,199 Q33,501 139,607 Q246,714 408,714 Q569,714 676,607 Q782,501 782,350 Q782,198 676,92 Q570,-14 408,-14 Q246,-14 139,93 M424,840 Q424,880 453,909 Q482,938 523,938 Q564,938 593,909 Q623,880 623,840 Q623,799 593.5,770 Q564,741 523,741 Q482,741 453,770 Q424,799 424,840 M290,741 Q249,741 220,770 Q191,799 191,840 Q191,880 220,909 Q249,938 290,938 Q332,938 360.5,909.5 Q389,881 389,840 Q389,799 360.5,770 Q332,741 290,741"/> 
            <glyph glyph-name="×" unicode="&#xD7;" horiz-adv-x="573" d=" M306,203 L173,68 L40,201 L175,335 L40,469 L173,602 L307,468 L441,602 L573,469 L440,335 L573,201 L441,68"/> 
            <glyph glyph-name="Ø" unicode="&#xD8;" horiz-adv-x="782" d=" M191,0 L44,0 L129,103 Q33,206 33,350 Q33,501 139,607 Q246,714 408,714 Q510,714 596,667 L622,699 L769,699 L685,598 Q782,494 782,350 Q782,198 676,92 Q570,-14 408,-14 Q304,-14 218,33 M408,175 Q478,175 523,224 Q569,273 569,350 Q569,396 550,435 L345,187 Q374,175 408,175 M247,350 Q247,306 264,266 L469,513 Q440,525 408,525 Q339,525 292,475 Q247,426 247,350"/> 
            <glyph glyph-name="Ù" unicode="&#xD9;" horiz-adv-x="684" d=" M45,290 L45,700 L260,700 L260,289 Q260,235 289,208 Q318,181 365,181 Q412,181 440.5,208 Q469,235 469,289 L469,700 L684,700 L684,290 Q684,144 593,65 Q504,-14 365,-14 Q227,-14 136,65 Q45,144 45,290 M106,917 L351,917 L446,759 L275,759"/> 
            <glyph glyph-name="Ú" unicode="&#xDA;" horiz-adv-x="684" d=" M45,290 L45,700 L260,700 L260,289 Q260,235 289,208 Q318,181 365,181 Q412,181 440.5,208 Q469,235 469,289 L469,700 L684,700 L684,290 Q684,144 593,65 Q504,-14 365,-14 Q227,-14 136,65 Q45,144 45,290 M438,759 L267,759 L362,917 L608,917"/> 
            <glyph glyph-name="Û" unicode="&#xDB;" horiz-adv-x="684" d=" M45,290 L45,700 L260,700 L260,289 Q260,235 289,208 Q318,181 365,181 Q412,181 440.5,208 Q469,235 469,289 L469,700 L684,700 L684,290 Q684,144 593,65 Q504,-14 365,-14 Q227,-14 136,65 Q45,144 45,290 M307,760 L136,760 L268,917 L464,917 L592,760 L418,760 L362,821"/> 
            <glyph glyph-name="Ü" unicode="&#xDC;" horiz-adv-x="684" d=" M381,840 Q381,880 410,909 Q439,938 480,938 Q521,938 550,909 Q580,880 580,840 Q580,799 550.5,770 Q521,741 480,741 Q439,741 410,770 Q381,799 381,840 M247,741 Q206,741 177,770 Q148,799 148,840 Q148,880 177,909 Q206,938 247,938 Q289,938 317.5,909.5 Q346,881 346,840 Q346,799 317.5,770 Q289,741 247,741 M45,290 L45,700 L260,700 L260,289 Q260,235 289,208 Q318,181 365,181 Q412,181 440.5,208 Q469,235 469,289 L469,700 L684,700 L684,290 Q684,144 593,65 Q504,-14 365,-14 Q227,-14 136,65 Q45,144 45,290"/> 
            <glyph glyph-name="Ý" unicode="&#xDD;" horiz-adv-x="716" d=" M460,0 L245,0 L245,306 L-10,700 L233,700 L355,503 L479,700 L716,700 L460,311 M431,759 L260,759 L355,917 L601,917"/> 
            <glyph glyph-name="Þ" unicode="&#xDE;" horiz-adv-x="661" d=" M268,578 L396,578 Q517,578 588,514 Q661,450 661,350 Q661,250 588,186 Q517,122 396,122 L268,122 L268,0 L53,0 L53,700 L268,700 M268,403 L268,278 L367,278 Q400,278 420.5,295.5 Q441,313 441,341 Q441,369 420,386 Q399,403 367,403"/> 
            <glyph glyph-name="ß" unicode="&#xDF;" horiz-adv-x="614" d=" M398,-7 Q339,-7 306,7 L306,160 Q324,155 342,155 Q373,155 391.5,173 Q410,191 410,221 Q410,255 386,275 Q362,295 322,295 L306,295 L306,431 L320,431 Q346,431 360,445.5 Q374,460 374,485 Q374,509 360,522 Q346,535 322,535 Q294,535 277,515 Q260,495 260,457 L260,0 L50,0 L50,455 Q50,580 125,647 Q200,716 319,716 Q441,716 506,657 Q572,598 572,509 Q572,458 545,422 Q520,387 490,374 Q534,360 574,313 Q614,266 614,199 Q614,100 551,46 Q489,-7 398,-7"/> 
            <glyph glyph-name="à" unicode="&#xE0;" horiz-adv-x="585" d=" M556,154 Q572,154 585,163 L585,18 Q548,-13 481,-13 Q436,-13 398,7 Q360,27 347,55 Q326,25 285,6 Q244,-13 194,-13 Q108,-13 59,35 Q9,85 9,158 Q9,240 69,281 Q131,322 207,322 Q274,322 323,294 Q323,371 220,371 Q136,371 72,338 L72,495 Q155,529 269,529 Q385,529 458,470 Q530,412 530,316 L530,178 Q530,154 556,154 M326,149 L326,203 Q305,221 274,221 Q247,221 229.5,208 Q212,195 212,171 Q212,148 228,134 Q244,120 269,120 Q309,120 326,149 M58,734 L304,734 L399,576 L228,576"/> 
            <glyph glyph-name="á" unicode="&#xE1;" horiz-adv-x="585" d=" M556,154 Q572,154 585,163 L585,18 Q548,-13 481,-13 Q436,-13 398,7 Q360,27 347,55 Q326,25 285,6 Q244,-13 194,-13 Q108,-13 59,35 Q9,85 9,158 Q9,240 69,281 Q131,322 207,322 Q274,322 323,294 Q323,371 220,371 Q136,371 72,338 L72,495 Q155,529 269,529 Q385,529 458,470 Q530,412 530,316 L530,178 Q530,154 556,154 M326,149 L326,203 Q305,221 274,221 Q247,221 229.5,208 Q212,195 212,171 Q212,148 228,134 Q244,120 269,120 Q309,120 326,149 M341,576 L170,576 L265,734 L510,734"/> 
            <glyph glyph-name="â" unicode="&#xE2;" horiz-adv-x="585" d=" M556,154 Q572,154 585,163 L585,18 Q548,-13 481,-13 Q436,-13 398,7 Q360,27 347,55 Q326,25 285,6 Q244,-13 194,-13 Q108,-13 59,35 Q9,85 9,158 Q9,240 69,281 Q131,322 207,322 Q274,322 323,294 Q323,371 220,371 Q136,371 72,338 L72,495 Q155,529 269,529 Q385,529 458,470 Q530,412 530,316 L530,178 Q530,154 556,154 M326,149 L326,203 Q305,221 274,221 Q247,221 229.5,208 Q212,195 212,171 Q212,148 228,134 Q244,120 269,120 Q309,120 326,149 M227,577 L56,577 L188,734 L384,734 L512,577 L338,577 L282,638"/> 
            <glyph glyph-name="ã" unicode="&#xE3;" horiz-adv-x="585" d=" M556,154 Q572,154 585,163 L585,18 Q548,-13 481,-13 Q436,-13 398,7 Q360,27 347,55 Q326,25 285,6 Q244,-13 194,-13 Q108,-13 59,35 Q9,85 9,158 Q9,240 69,281 Q131,322 207,322 Q274,322 323,294 Q323,371 220,371 Q136,371 72,338 L72,495 Q155,529 269,529 Q385,529 458,470 Q530,412 530,316 L530,178 Q530,154 556,154 M326,149 L326,203 Q305,221 274,221 Q247,221 229.5,208 Q212,195 212,171 Q212,148 228,134 Q244,120 269,120 Q309,120 326,149 M186,572 L85,572 Q84,640 122,691 Q161,741 223,741 Q255,741 292,724 Q329,707 350,707 Q386,707 396,737 L496,737 Q497,676 458,621 Q419,568 360,568 Q324,568 288,586 Q252,604 231,604 Q194,604 186,572"/> 
            <glyph glyph-name="ä" unicode="&#xE4;" horiz-adv-x="585" d=" M556,154 Q572,154 585,163 L585,18 Q548,-13 481,-13 Q436,-13 398,7 Q360,27 347,55 Q326,25 285,6 Q244,-13 194,-13 Q108,-13 59,35 Q9,85 9,158 Q9,240 69,281 Q131,322 207,322 Q274,322 323,294 Q323,371 220,371 Q136,371 72,338 L72,495 Q155,529 269,529 Q385,529 458,470 Q530,412 530,316 L530,178 Q530,154 556,154 M326,149 L326,203 Q305,221 274,221 Q247,221 229.5,208 Q212,195 212,171 Q212,148 228,134 Q244,120 269,120 Q309,120 326,149 M298,656 Q298,696 327,725 Q356,754 397,754 Q438,754 467,725 Q497,696 497,656 Q497,615 467.5,586 Q438,557 397,557 Q356,557 327,586 Q298,615 298,656 M164,557 Q123,557 93.5,586 Q64,615 64,656 Q64,696 93,725 Q124,754 164,754 Q206,754 234.5,725.5 Q263,697 263,656 Q263,615 234.5,586 Q206,557 164,557"/> 
            <glyph glyph-name="å" unicode="&#xE5;" horiz-adv-x="585" d=" M556,154 Q572,154 585,163 L585,18 Q548,-13 481,-13 Q436,-13 398,7 Q360,27 347,55 Q326,25 285,6 Q244,-13 194,-13 Q108,-13 59,35 Q9,85 9,158 Q9,240 69,281 Q131,322 207,322 Q274,322 323,294 Q323,371 220,371 Q136,371 72,338 L72,495 Q155,529 269,529 Q385,529 458,470 Q530,412 530,316 L530,178 Q530,154 556,154 M326,149 L326,203 Q305,221 274,221 Q247,221 229.5,208 Q212,195 212,171 Q212,148 228,134 Q244,120 269,120 Q309,120 326,149 M169,666 Q169,711 201.5,743 Q234,775 279,775 Q324,775 355.5,743 Q387,711 387,666 Q387,621 355.5,589 Q324,557 279,557 Q235,557 201,589 Q169,623 169,666 M320,666 Q320,683 308,695.5 Q296,708 279,708 Q262,708 249.5,695.5 Q237,683 237,666 Q237,650 249.5,637.5 Q262,625 279,625 Q296,625 308,637.5 Q320,650 320,666"/> 
            <glyph glyph-name="æ" unicode="&#xE6;" horiz-adv-x="840" d=" M840,261 L840,213 L512,213 Q524,183 561.5,167.5 Q599,152 647,152 Q740,152 813,191 L813,37 Q743,-13 600,-13 Q466,-13 384,71 Q355,35 305,11 Q255,-13 191,-13 Q108,-13 59,36 Q9,86 9,158 Q9,240 69,281 Q131,322 207,322 Q274,322 323,294 Q323,371 220,371 Q136,371 72,338 L72,495 Q155,529 255,529 Q304,529 351.5,512 Q399,495 423,470 Q485,529 593,529 Q695,529 767,456 Q840,384 840,261 M269,120 Q313,120 332,151 Q320,181 316,210 Q297,221 274,221 Q247,221 229.5,208 Q212,195 212,171 Q212,148 228,134 Q244,120 269,120 M508,313 L645,313 Q644,347 625.5,367.5 Q607,388 579,388 Q519,388 508,313"/> 
            <glyph glyph-name="ç" unicode="&#xE7;" horiz-adv-x="465" d=" M414,0 L358,-159 L116,-159 L237,-6 Q145,13 81,82 Q19,150 19,259 Q19,346 63,410 Q147,529 307,529 Q392,529 459,500 L459,327 Q396,350 341,350 Q290,350 257,325.5 Q224,301 224,258 Q224,214 258,189.5 Q292,165 345,165 Q408,165 465,191 L465,20 Q437,8 414,0"/> 
            <glyph glyph-name="è" unicode="&#xE8;" horiz-adv-x="547" d=" M307,-13 Q187,-13 103,59 Q19,133 19,258 Q19,374 95,451 Q172,529 296,529 Q403,529 475,456 Q547,384 547,261 L547,213 L219,213 Q231,183 268.5,167.5 Q306,152 354,152 Q446,152 520,191 L520,37 Q450,-13 307,-13 M215,313 L352,313 Q351,347 332.5,367.5 Q314,388 286,388 Q226,388 215,313 M61,734 L307,734 L402,576 L231,576"/> 
            <glyph glyph-name="é" unicode="&#xE9;" horiz-adv-x="547" d=" M307,-13 Q187,-13 103,59 Q19,133 19,258 Q19,374 95,451 Q172,529 296,529 Q403,529 475,456 Q547,384 547,261 L547,213 L219,213 Q231,183 268.5,167.5 Q306,152 354,152 Q446,152 520,191 L520,37 Q450,-13 307,-13 M215,313 L352,313 Q351,347 332.5,367.5 Q314,388 286,388 Q226,388 215,313 M343,576 L172,576 L267,734 L512,734"/> 
            <glyph glyph-name="ê" unicode="&#xEA;" horiz-adv-x="547" d=" M307,-13 Q187,-13 103,59 Q19,133 19,258 Q19,374 95,451 Q172,529 296,529 Q403,529 475,456 Q547,384 547,261 L547,213 L219,213 Q231,183 268.5,167.5 Q306,152 354,152 Q446,152 520,191 L520,37 Q450,-13 307,-13 M215,313 L352,313 Q351,347 332.5,367.5 Q314,388 286,388 Q226,388 215,313 M225,577 L54,577 L186,734 L382,734 L510,577 L336,577 L280,638"/> 
            <glyph glyph-name="ë" unicode="&#xEB;" horiz-adv-x="547" d=" M307,-13 Q187,-13 103,59 Q19,133 19,258 Q19,374 95,451 Q172,529 296,529 Q403,529 475,456 Q547,384 547,261 L547,213 L219,213 Q231,183 268.5,167.5 Q306,152 354,152 Q446,152 520,191 L520,37 Q450,-13 307,-13 M215,313 L352,313 Q351,347 332.5,367.5 Q314,388 286,388 Q226,388 215,313 M304,656 Q304,696 333,725 Q362,754 403,754 Q444,754 473,725 Q503,696 503,656 Q503,615 473.5,586 Q444,557 403,557 Q362,557 333,586 Q304,615 304,656 M170,557 Q129,557 99.5,586 Q70,615 70,656 Q70,696 99,725 Q130,754 170,754 Q212,754 240.5,725.5 Q269,697 269,656 Q269,615 240.5,586 Q212,557 170,557"/> 
            <glyph glyph-name="ì" unicode="&#xEC;" horiz-adv-x="264" d=" M264,0 L53,0 L53,516 L264,516 M-95,734 L151,734 L246,576 L75,576"/> 
            <glyph glyph-name="í" unicode="&#xED;" horiz-adv-x="409" d=" M242,577 L72,577 L166,734 L409,734 M264,0 L53,0 L53,516 L264,516"/> 
            <glyph glyph-name="î" unicode="&#xEE;" horiz-adv-x="386" d=" M101,577 L-70,577 L62,734 L258,734 L386,577 L212,577 L156,638 M264,0 L53,0 L53,516 L264,516"/> 
            <glyph glyph-name="ï" unicode="&#xEF;" horiz-adv-x="376" d=" M177,656 Q177,696 206,725 Q235,754 276,754 Q317,754 346,725 Q376,696 376,656 Q376,615 346.5,586 Q317,557 276,557 Q235,557 206,586 Q177,615 177,656 M43,557 Q2,557 -27.5,586 Q-57,615 -57,656 Q-57,696 -27,725 Q2,754 43,754 Q85,754 113.5,725.5 Q142,697 142,656 Q142,615 113.5,586 Q85,557 43,557 M264,0 L53,0 L53,516 L264,516"/> 
            <glyph glyph-name="ð" unicode="&#xF0;" horiz-adv-x="584" d=" M355,658 L440,689 L516,603 L428,571 L448,548 Q527,452 554,394 Q584,334 584,256 Q584,143 503,65 Q422,-13 301,-13 Q181,-13 99,58 Q19,130 19,235 Q19,338 79,397 Q141,456 235,456 Q291,456 320,437 L258,510 L145,470 L69,556 L184,597 L98,700 L320,700 M379,240 Q379,273 357,295 Q335,317 301,317 Q267,317 244.5,295 Q222,273 222,240 Q222,206 244.5,184 Q267,162 301,162 Q335,162 357,184 Q379,206 379,240"/> 
            <glyph glyph-name="ñ" unicode="&#xF1;" horiz-adv-x="582" d=" M50,0 L50,516 L260,516 L260,450 Q278,478 320,504 Q363,529 411,529 Q494,529 538,476 Q582,423 582,327 L582,0 L371,0 L371,282 Q371,313 356.5,329 Q342,345 319,345 Q284,345 260,317 L260,0 M212,572 L111,572 Q110,640 148,691 Q187,741 249,741 Q281,741 318,724 Q355,707 376,707 Q412,707 422,737 L522,737 Q523,676 484,621 Q445,568 386,568 Q350,568 314,586 Q278,604 257,604 Q220,604 212,572"/> 
            <glyph glyph-name="ò" unicode="&#xF2;" horiz-adv-x="608" d=" M224,217 Q274,165 313,165 Q352,165 377,191 Q402,217 402,258 Q402,299 377,324 Q352,351 313,351 Q274,351 249,324 Q224,299 224,217 M313,-13 Q187,-13 102,64 Q19,141 19,258 Q19,375 102,452 Q187,529 313,529 Q441,529 524,452 Q608,376 608,258 Q608,140 524,64 Q441,-13 313,-13 M62,734 L308,734 L403,576 L232,576"/> 
            <glyph glyph-name="ó" unicode="&#xF3;" horiz-adv-x="608" d=" M224,217 Q274,165 313,165 Q352,165 377,191 Q402,217 402,258 Q402,299 377,324 Q352,351 313,351 Q274,351 249,324 Q224,299 224,217 M313,-13 Q187,-13 102,64 Q19,141 19,258 Q19,375 102,452 Q187,529 313,529 Q441,529 524,452 Q608,376 608,258 Q608,140 524,64 Q441,-13 313,-13 M389,576 L218,576 L313,734 L558,734"/> 
            <glyph glyph-name="ô" unicode="&#xF4;" horiz-adv-x="608" d=" M224,217 Q274,165 313,165 Q352,165 377,191 Q402,217 402,258 Q402,299 377,324 Q352,351 313,351 Q274,351 249,324 Q224,299 224,217 M313,-13 Q187,-13 102,64 Q19,141 19,258 Q19,375 102,452 Q187,529 313,529 Q441,529 524,452 Q608,376 608,258 Q608,140 524,64 Q441,-13 313,-13 M256,577 L85,577 L217,734 L413,734 L541,577 L367,577 L311,638"/> 
            <glyph glyph-name="õ" unicode="&#xF5;" horiz-adv-x="608" d=" M224,217 Q274,165 313,165 Q352,165 377,191 Q402,217 402,258 Q402,299 377,324 Q352,351 313,351 Q274,351 249,324 Q224,299 224,217 M313,-13 Q187,-13 102,64 Q19,141 19,258 Q19,375 102,452 Q187,529 313,529 Q441,529 524,452 Q608,376 608,258 Q608,140 524,64 Q441,-13 313,-13 M209,572 L108,572 Q107,640 145,691 Q184,741 246,741 Q278,741 315,724 Q352,707 373,707 Q408,707 419,737 L519,737 Q520,676 481,621 Q442,568 383,568 Q347,568 311,586 Q275,604 254,604 Q217,604 209,572"/> 
            <glyph glyph-name="ö" unicode="&#xF6;" horiz-adv-x="608" d=" M224,217 Q274,165 313,165 Q352,165 377,191 Q402,217 402,258 Q402,299 377,324 Q352,351 313,351 Q274,351 249,324 Q224,299 224,217 M313,-13 Q187,-13 102,64 Q19,141 19,258 Q19,375 102,452 Q187,529 313,529 Q441,529 524,452 Q608,376 608,258 Q608,140 524,64 Q441,-13 313,-13 M331,656 Q331,696 360,725 Q389,754 430,754 Q471,754 500,725 Q530,696 530,656 Q530,615 500.5,586 Q471,557 430,557 Q389,557 360,586 Q331,615 331,656 M197,557 Q156,557 126.5,586 Q97,615 97,656 Q97,696 126,725 Q157,754 197,754 Q239,754 267.5,725.5 Q296,697 296,656 Q296,615 267.5,586 Q239,557 197,557"/> 
            <glyph glyph-name="÷" unicode="&#xF7;" horiz-adv-x="586" d=" M192,583 Q192,634 228,669 Q264,705 314,705 Q364,705 399,669 Q435,634 435,583 Q435,533 399,497 Q364,462 314,462 Q265,462 228,497 Q192,533 192,583 M586,245 L40,245 L40,428 L586,428 M192,89 Q192,140 228,175 Q264,211 314,211 Q364,211 399,175 Q435,140 435,89 Q435,39 399,3 Q364,-32 314,-32 Q264,-32 228,4 Q192,40 192,89"/> 
            <glyph glyph-name="ø" unicode="&#xF8;" horiz-adv-x="608" d=" M483,521 L603,521 L534,442 Q608,365 608,258 Q608,140 524,64 Q441,-13 313,-13 Q232,-13 165,20 L143,-5 L23,-5 L92,74 Q19,148 19,258 Q19,375 102,452 Q187,529 313,529 Q396,529 461,495 M313,153 Q357,153 385,183 Q413,213 413,258 Q413,276 406,296 L284,156 Q298,153 313,153 M213,258 Q213,237 219,219 L341,358 Q330,362 313,362 Q269,362 241,332.5 Q213,303 213,258"/> 
            <glyph glyph-name="ù" unicode="&#xF9;" horiz-adv-x="573" d=" M363,199 L363,516 L573,516 L573,0 L363,0 L363,66 Q345,37 302,12 Q261,-13 212,-13 Q129,-13 85,40 Q41,93 41,189 L41,516 L252,516 L252,234 Q252,203 266.5,187 Q281,171 304,171 Q339,171 363,199 M77,734 L323,734 L418,576 L247,576"/> 
            <glyph glyph-name="ú" unicode="&#xFA;" horiz-adv-x="573" d=" M363,199 L363,516 L573,516 L573,0 L363,0 L363,66 Q345,37 302,12 Q261,-13 212,-13 Q129,-13 85,40 Q41,93 41,189 L41,516 L252,516 L252,234 Q252,203 266.5,187 Q281,171 304,171 Q339,171 363,199 M370,576 L199,576 L294,734 L539,734"/> 
            <glyph glyph-name="û" unicode="&#xFB;" horiz-adv-x="573" d=" M363,199 L363,516 L573,516 L573,0 L363,0 L363,66 Q345,37 302,12 Q261,-13 212,-13 Q129,-13 85,40 Q41,93 41,189 L41,516 L252,516 L252,234 Q252,203 266.5,187 Q281,171 304,171 Q339,171 363,199 M249,577 L78,577 L210,734 L406,734 L534,577 L360,577 L304,638"/> 
            <glyph glyph-name="ü" unicode="&#xFC;" horiz-adv-x="573" d=" M363,199 L363,516 L573,516 L573,0 L363,0 L363,66 Q345,37 302,12 Q261,-13 212,-13 Q129,-13 85,40 Q41,93 41,189 L41,516 L252,516 L252,234 Q252,203 266.5,187 Q281,171 304,171 Q339,171 363,199 M325,656 Q325,696 354,725 Q383,754 424,754 Q465,754 494,725 Q524,696 524,656 Q524,615 494.5,586 Q465,557 424,557 Q383,557 354,586 Q325,615 325,656 M191,557 Q150,557 120.5,586 Q91,615 91,656 Q91,696 120,725 Q151,754 191,754 Q233,754 261.5,725.5 Q290,697 290,656 Q290,615 261.5,586 Q233,557 191,557"/> 
            <glyph glyph-name="ý" unicode="&#xFD;" horiz-adv-x="611" d=" M170,-206 Q90,-206 46,-182 L46,-1 Q84,-28 133,-28 Q166,-28 183.5,-18.5 Q201,-9 211,17 L0,516 L221,516 L312,224 L394,516 L611,516 L393,-50 Q333,-206 170,-206 M380,576 L209,576 L304,734 L549,734"/> 
            <glyph glyph-name="þ" unicode="&#xFE;" horiz-adv-x="630" d=" M50,-200 L50,700 L261,700 L261,458 Q308,529 402,529 Q500,529 565,452 Q630,375 630,258 Q630,141 565,64 Q500,-13 402,-13 Q308,-13 261,58 L261,-200 M258,316 L258,199 Q280,162 337,162 Q375,162 398.5,189.5 Q422,217 422,258 Q422,299 398.5,326.5 Q375,354 337,354 Q281,354 258,316"/> 
            <glyph glyph-name="ÿ" unicode="&#xFF;" horiz-adv-x="611" d=" M325,656 Q325,696 354,725 Q383,754 424,754 Q465,754 494,725 Q524,696 524,656 Q524,615 494.5,586 Q465,557 424,557 Q383,557 354,586 Q325,615 325,656 M191,557 Q150,557 120.5,586 Q91,615 91,656 Q91,696 120,725 Q151,754 191,754 Q233,754 261.5,725.5 Q290,697 290,656 Q290,615 261.5,586 Q233,557 191,557 M170,-206 Q90,-206 46,-182 L46,-1 Q84,-28 133,-28 Q166,-28 183.5,-18.5 Q201,-9 211,17 L0,516 L221,516 L312,224 L394,516 L611,516 L393,-50 Q333,-206 170,-206"/> 
            <glyph glyph-name="Ā" unicode="&#x100;" horiz-adv-x="783" d=" M223,0 L1,0 L289,704 L494,704 L783,0 L552,0 L502,131 L274,131 M388,458 L336,292 L439,292 M572,768 L212,768 L212,903 L572,903"/> 
            <glyph glyph-name="ā" unicode="&#x101;" horiz-adv-x="585" d=" M556,154 Q572,154 585,163 L585,18 Q548,-13 481,-13 Q436,-13 398,7 Q360,27 347,55 Q326,25 285,6 Q244,-13 194,-13 Q108,-13 59,35 Q9,85 9,158 Q9,240 69,281 Q131,322 207,322 Q274,322 323,294 Q323,371 220,371 Q136,371 72,338 L72,495 Q155,529 269,529 Q385,529 458,470 Q530,412 530,316 L530,178 Q530,154 556,154 M326,149 L326,203 Q305,221 274,221 Q247,221 229.5,208 Q212,195 212,171 Q212,148 228,134 Q244,120 269,120 Q309,120 326,149 M469,584 L109,584 L109,719 L469,719"/> 
            <glyph glyph-name="Ă" unicode="&#x102;" horiz-adv-x="783" d=" M223,0 L1,0 L289,704 L494,704 L783,0 L552,0 L502,131 L274,131 M388,458 L336,292 L439,292 M393,744 Q311,744 258.5,791.5 Q206,839 203,923 L331,923 Q338,862 393,862 Q419,862 435,878.5 Q451,895 453,923 L581,923 Q577,839 525.5,791.5 Q474,744 393,744"/> 
            <glyph glyph-name="ă" unicode="&#x103;" horiz-adv-x="585" d=" M556,154 Q572,154 585,163 L585,18 Q548,-13 481,-13 Q436,-13 398,7 Q360,27 347,55 Q326,25 285,6 Q244,-13 194,-13 Q108,-13 59,35 Q9,85 9,158 Q9,240 69,281 Q131,322 207,322 Q274,322 323,294 Q323,371 220,371 Q136,371 72,338 L72,495 Q155,529 269,529 Q385,529 458,470 Q530,412 530,316 L530,178 Q530,154 556,154 M326,149 L326,203 Q305,221 274,221 Q247,221 229.5,208 Q212,195 212,171 Q212,148 228,134 Q244,120 269,120 Q309,120 326,149 M93,740 L220,740 Q227,679 282,679 Q309,679 325,695.5 Q341,712 343,740 L471,740 Q467,656 415,608.5 Q363,561 282,561 Q202,561 149,607 Q96,654 93,740"/> 
            <glyph glyph-name="Ą" unicode="&#x104;" horiz-adv-x="822" d=" M752,-209 Q685,-209 646,-179 Q607,-149 607,-101 Q607,-70 622.5,-42.5 Q638,-15 657,0 L552,0 L502,131 L274,131 L223,0 L1,0 L289,704 L494,704 L783,0 Q773,-9 762,-27.5 Q751,-46 751,-58 Q751,-86 788,-86 Q811,-86 822,-78 L822,-200 Q798,-209 752,-209 M388,458 L336,292 L439,292"/> 
            <glyph glyph-name="ą" unicode="&#x105;" horiz-adv-x="624" d=" M554,-191 Q487,-191 448,-161 Q409,-131 409,-83 Q409,-45 435,-7 Q404,0 380,17 Q356,34 347,55 Q326,25 285,6 Q244,-13 194,-13 Q108,-13 59,35 Q9,85 9,158 Q9,240 69,281 Q131,322 207,322 Q274,322 323,294 Q323,371 220,371 Q136,371 72,338 L72,495 Q155,529 269,529 Q385,529 458,470 Q530,412 530,316 L530,178 Q530,154 556,154 Q572,154 585,163 L585,18 Q575,9 564,-9.5 Q553,-28 553,-40 Q553,-68 590,-68 Q613,-68 624,-60 L624,-182 Q600,-191 554,-191 M326,149 L326,203 Q305,221 274,221 Q247,221 229.5,208 Q212,195 212,171 Q212,148 228,134 Q244,120 269,120 Q309,120 326,149"/> 
            <glyph glyph-name="Ć" unicode="&#x106;" horiz-adv-x="619" d=" M434,-14 Q262,-14 147,87 Q33,189 33,350 Q33,511 146,612 Q258,714 432,714 Q536,714 609,677 L609,474 Q524,520 438,520 Q358,520 306,471 Q254,423 254,350 Q254,275 308,227 Q363,180 446,180 Q548,180 619,230 L619,24 Q546,-14 434,-14 M447,759 L276,759 L371,917 L617,917"/> 
            <glyph glyph-name="ć" unicode="&#x107;" horiz-adv-x="488" d=" M305,-13 Q233,-13 170,15 Q106,44 63,108 Q19,173 19,259 Q19,346 63,410 Q147,529 307,529 Q392,529 459,500 L459,327 Q396,350 341,350 Q290,350 257,325.5 Q224,301 224,258 Q224,214 258,189.5 Q292,165 345,165 Q408,165 465,191 L465,20 Q388,-13 305,-13 M319,576 L148,576 L243,734 L488,734"/> 
            <glyph glyph-name="Ĉ" unicode="&#x108;" horiz-adv-x="619" d=" M434,-14 Q262,-14 147,87 Q33,189 33,350 Q33,511 146,612 Q258,714 432,714 Q536,714 609,677 L609,474 Q524,520 438,520 Q358,520 306,471 Q254,423 254,350 Q254,275 308,227 Q363,180 446,180 Q548,180 619,230 L619,24 Q546,-14 434,-14 M325,760 L154,760 L286,917 L482,917 L610,760 L436,760 L380,821"/> 
            <glyph glyph-name="ĉ" unicode="&#x109;" horiz-adv-x="496" d=" M305,-13 Q233,-13 170,15 Q106,44 63,108 Q19,173 19,259 Q19,346 63,410 Q147,529 307,529 Q392,529 459,500 L459,327 Q396,350 341,350 Q290,350 257,325.5 Q224,301 224,258 Q224,214 258,189.5 Q292,165 345,165 Q408,165 465,191 L465,20 Q388,-13 305,-13 M211,577 L40,577 L172,734 L368,734 L496,577 L322,577 L266,638"/> 
            <glyph glyph-name="Ċ" unicode="&#x10A;" horiz-adv-x="619" d=" M434,-14 Q262,-14 147,87 Q33,189 33,350 Q33,511 146,612 Q258,714 432,714 Q536,714 609,677 L609,474 Q524,520 438,520 Q358,520 306,471 Q254,423 254,350 Q254,275 308,227 Q363,180 446,180 Q548,180 619,230 L619,24 Q546,-14 434,-14 M398,741 Q357,741 328,770 Q299,799 299,840 Q299,881 328,909.5 Q357,938 398,938 Q440,938 468.5,909.5 Q497,881 497,840 Q497,799 468.5,770 Q440,741 398,741"/> 
            <glyph glyph-name="ċ" unicode="&#x10B;" horiz-adv-x="465" d=" M305,-13 Q233,-13 170,15 Q106,44 63,108 Q19,173 19,259 Q19,346 63,410 Q147,529 307,529 Q392,529 459,500 L459,327 Q396,350 341,350 Q290,350 257,325.5 Q224,301 224,258 Q224,214 258,189.5 Q292,165 345,165 Q408,165 465,191 L465,20 Q388,-13 305,-13 M288,556 Q247,556 217.5,585 Q188,614 188,655 Q188,696 217.5,724.5 Q247,753 288,753 Q330,753 358.5,724.5 Q387,696 387,655 Q387,614 358.5,585 Q330,556 288,556"/> 
            <glyph glyph-name="Č" unicode="&#x10C;" horiz-adv-x="619" d=" M434,-14 Q262,-14 147,87 Q33,189 33,350 Q33,511 146,612 Q258,714 432,714 Q536,714 609,677 L609,474 Q524,520 438,520 Q358,520 306,471 Q254,423 254,350 Q254,275 308,227 Q363,180 446,180 Q548,180 619,230 L619,24 Q546,-14 434,-14 M442,917 L612,917 L481,760 L285,760 L156,917 L331,917 L387,856"/> 
            <glyph glyph-name="č" unicode="&#x10D;" horiz-adv-x="514" d=" M305,-13 Q233,-13 170,15 Q106,44 63,108 Q19,173 19,259 Q19,346 63,410 Q147,529 307,529 Q392,529 459,500 L459,327 Q396,350 341,350 Q290,350 257,325.5 Q224,301 224,258 Q224,214 258,189.5 Q292,165 345,165 Q408,165 465,191 L465,20 Q388,-13 305,-13 M343,733 L514,733 L382,576 L186,576 L57,733 L232,733 L288,671"/> 
            <glyph glyph-name="Ď" unicode="&#x10E;" horiz-adv-x="738" d=" M348,0 L53,0 L53,700 L348,700 Q519,700 629,602 Q738,505 738,350 Q738,195 629,98 Q519,0 348,0 M268,515 L268,185 L334,185 Q422,185 469,227.5 Q516,270 516,350 Q516,430 469,472.5 Q422,515 334,515 M409,917 L579,917 L448,760 L252,760 L123,917 L298,917 L354,856"/> 
            <glyph glyph-name="ď" unicode="&#x10F;" horiz-adv-x="887" d=" M388,458 L388,700 L599,700 L599,0 L388,0 L388,58 Q341,-13 247,-13 Q149,-13 84,64 Q19,141 19,258 Q19,375 84,452 Q149,529 247,529 Q341,529 388,458 M391,199 L391,316 Q368,354 312,354 Q274,354 250.5,326.5 Q227,299 227,258 Q227,217 250.5,189.5 Q274,162 312,162 Q369,162 391,199 M803,469 L649,469 L710,700 L887,700"/> 
            <glyph glyph-name="Đ" unicode="&#x110;" horiz-adv-x="786" d=" M397,0 L102,0 L102,290 L20,290 L20,459 L102,459 L102,700 L397,700 Q568,700 677,602 Q786,505 786,350 Q786,194 677,97 Q570,0 397,0 M316,290 L316,185 L383,185 Q471,185 518,227.5 Q565,270 565,350 Q565,430 518,472.5 Q471,515 383,515 L316,515 L316,459 L431,459 L431,290"/> 
            <glyph glyph-name="đ" unicode="&#x111;" horiz-adv-x="686" d=" M388,571 L269,571 L269,646 L388,646 L388,700 L599,700 L599,646 L686,646 L686,571 L599,571 L599,0 L388,0 L388,58 Q341,-13 247,-13 Q149,-13 84,64 Q19,141 19,258 Q19,375 84,452 Q149,529 247,529 Q341,529 388,458 M391,199 L391,316 Q368,354 312,354 Q274,354 250.5,326.5 Q227,299 227,258 Q227,217 250.5,189.5 Q274,162 312,162 Q369,162 391,199"/> 
            <glyph glyph-name="Ē" unicode="&#x112;" horiz-adv-x="608" d=" M608,0 L53,0 L53,700 L602,700 L602,515 L268,515 L268,453 L530,453 L530,283 L268,283 L268,185 L608,185 M511,768 L151,768 L151,903 L511,903"/> 
            <glyph glyph-name="ē" unicode="&#x113;" horiz-adv-x="547" d=" M307,-13 Q187,-13 103,59 Q19,133 19,258 Q19,374 95,451 Q172,529 296,529 Q403,529 475,456 Q547,384 547,261 L547,213 L219,213 Q231,183 268.5,167.5 Q306,152 354,152 Q446,152 520,191 L520,37 Q450,-13 307,-13 M215,313 L352,313 Q351,347 332.5,367.5 Q314,388 286,388 Q226,388 215,313 M472,584 L112,584 L112,719 L472,719"/> 
            <glyph glyph-name="Ĕ" unicode="&#x114;" horiz-adv-x="608" d=" M608,0 L53,0 L53,700 L602,700 L602,515 L268,515 L268,453 L530,453 L530,283 L268,283 L268,185 L608,185 M332,744 Q250,744 197.5,791.5 Q145,839 142,923 L270,923 Q277,862 332,862 Q358,862 374,878.5 Q390,895 392,923 L520,923 Q516,839 464.5,791.5 Q413,744 332,744"/> 
            <glyph glyph-name="ĕ" unicode="&#x115;" horiz-adv-x="547" d=" M307,-13 Q187,-13 103,59 Q19,133 19,258 Q19,374 95,451 Q172,529 296,529 Q403,529 475,456 Q547,384 547,261 L547,213 L219,213 Q231,183 268.5,167.5 Q306,152 354,152 Q446,152 520,191 L520,37 Q450,-13 307,-13 M215,313 L352,313 Q351,347 332.5,367.5 Q314,388 286,388 Q226,388 215,313 M104,740 L231,740 Q238,679 293,679 Q320,679 336,695.5 Q352,712 354,740 L482,740 Q478,656 426,608.5 Q374,561 293,561 Q213,561 160,607 Q107,654 104,740"/> 
            <glyph glyph-name="Ė" unicode="&#x116;" horiz-adv-x="608" d=" M608,0 L53,0 L53,700 L602,700 L602,515 L268,515 L268,453 L530,453 L530,283 L268,283 L268,185 L608,185 M331,741 Q290,741 261,770 Q232,799 232,840 Q232,881 261,909.5 Q290,938 331,938 Q373,938 401.5,909.5 Q430,881 430,840 Q430,799 401.5,770 Q373,741 331,741"/> 
            <glyph glyph-name="ė" unicode="&#x117;" horiz-adv-x="547" d=" M307,-13 Q187,-13 103,59 Q19,133 19,258 Q19,374 95,451 Q172,529 296,529 Q403,529 475,456 Q547,384 547,261 L547,213 L219,213 Q231,183 268.5,167.5 Q306,152 354,152 Q446,152 520,191 L520,37 Q450,-13 307,-13 M215,313 L352,313 Q351,347 332.5,367.5 Q314,388 286,388 Q226,388 215,313 M281,556 Q240,556 210.5,585 Q181,614 181,655 Q181,696 210.5,724.5 Q240,753 281,753 Q323,753 351.5,724.5 Q380,696 380,655 Q380,614 351.5,585 Q323,556 281,556"/> 
            <glyph glyph-name="Ę" unicode="&#x118;" horiz-adv-x="647" d=" M482,0 L53,0 L53,700 L602,700 L602,515 L268,515 L268,453 L530,453 L530,283 L268,283 L268,185 L608,185 L608,0 Q598,-9 587,-27.5 Q576,-46 576,-58 Q576,-86 613,-86 Q636,-86 647,-78 L647,-200 Q623,-209 577,-209 Q510,-209 471,-179 Q432,-149 432,-101 Q432,-70 447.5,-42.5 Q463,-15 482,0"/> 
            <glyph glyph-name="ę" unicode="&#x119;" horiz-adv-x="559" d=" M489,-172 Q422,-172 383,-142 Q344,-112 344,-64 Q344,-38 357,-11 Q315,-13 307,-13 Q187,-13 103,59 Q19,133 19,258 Q19,374 95,451 Q172,529 296,529 Q403,529 475,456 Q547,384 547,261 L547,213 L219,213 Q231,183 268.5,167.5 Q306,152 354,152 Q446,152 520,191 L520,37 Q510,28 499,9.5 Q488,-9 488,-21 Q488,-49 525,-49 Q548,-49 559,-41 L559,-163 Q535,-172 489,-172 M215,313 L352,313 Q351,347 332.5,367.5 Q314,388 286,388 Q226,388 215,313"/> 
            <glyph glyph-name="Ě" unicode="&#x11A;" horiz-adv-x="608" d=" M608,0 L53,0 L53,700 L602,700 L602,515 L268,515 L268,453 L530,453 L530,283 L268,283 L268,185 L608,185 M389,917 L559,917 L428,760 L232,760 L103,917 L278,917 L334,856"/> 
            <glyph glyph-name="ě" unicode="&#x11B;" horiz-adv-x="547" d=" M307,-13 Q187,-13 103,59 Q19,133 19,258 Q19,374 95,451 Q172,529 296,529 Q403,529 475,456 Q547,384 547,261 L547,213 L219,213 Q231,183 268.5,167.5 Q306,152 354,152 Q446,152 520,191 L520,37 Q450,-13 307,-13 M215,313 L352,313 Q351,347 332.5,367.5 Q314,388 286,388 Q226,388 215,313 M349,733 L520,733 L388,576 L192,576 L63,733 L238,733 L294,671"/> 
            <glyph glyph-name="Ĝ" unicode="&#x11C;" horiz-adv-x="721" d=" M422,-14 Q258,-14 145,88 Q33,190 33,350 Q33,511 146,612 Q258,714 431,714 Q481,714 516,707 Q556,699 574,692 Q599,683 629,670 L629,473 Q560,508 490.5,516 Q421,524 368.5,506.5 Q316,489 284,447 Q252,405 254,347 Q254,265 303,219 Q352,173 422,173 Q476,173 505,193 L505,408 L721,408 L721,93 Q679,48 598,17 Q517,-14 422,-14 M336,760 L165,760 L297,917 L493,917 L621,760 L447,760 L391,821"/> 
            <glyph glyph-name="ĝ" unicode="&#x11D;" horiz-adv-x="592" d=" M381,460 L381,516 L592,516 L592,84 Q592,25 572.5,-24.5 Q553,-74 521.5,-106.5 Q490,-139 448,-162 Q406,-185 363,-195.5 Q320,-206 276,-206 Q139,-206 70,-164 L70,17 Q155,-33 253,-33 Q381,-33 381,69 L381,100 Q330,31 238,31 Q141,31 80,101 Q19,171 19,280 Q19,389 80,459 Q141,529 238,529 Q328,529 381,460 M384,234 L384,326 Q357,357 304,357 Q269,357 248,335.5 Q227,314 227,280 Q227,246 248,224.5 Q269,203 304,203 Q357,203 384,234 M261,577 L90,577 L222,734 L418,734 L546,577 L372,577 L316,638"/> 
            <glyph glyph-name="Ğ" unicode="&#x11E;" horiz-adv-x="721" d=" M422,-14 Q258,-14 145,88 Q33,190 33,350 Q33,511 146,612 Q258,714 431,714 Q481,714 516,707 Q556,699 574,692 Q599,683 629,670 L629,473 Q560,508 490.5,516 Q421,524 368.5,506.5 Q316,489 284,447 Q252,405 254,347 Q254,265 303,219 Q352,173 422,173 Q476,173 505,193 L505,408 L721,408 L721,93 Q679,48 598,17 Q517,-14 422,-14 M404,764 Q322,764 269.5,811.5 Q217,859 214,943 L342,943 Q349,882 404,882 Q430,882 446,898.5 Q462,915 464,943 L592,943 Q588,859 536.5,811.5 Q485,764 404,764"/> 
            <glyph glyph-name="ğ" unicode="&#x11F;" horiz-adv-x="592" d=" M381,460 L381,516 L592,516 L592,84 Q592,25 572.5,-24.5 Q553,-74 521.5,-106.5 Q490,-139 448,-162 Q406,-185 363,-195.5 Q320,-206 276,-206 Q139,-206 70,-164 L70,17 Q155,-33 253,-33 Q381,-33 381,69 L381,100 Q330,31 238,31 Q141,31 80,101 Q19,171 19,280 Q19,389 80,459 Q141,529 238,529 Q328,529 381,460 M384,234 L384,326 Q357,357 304,357 Q269,357 248,335.5 Q227,314 227,280 Q227,246 248,224.5 Q269,203 304,203 Q357,203 384,234 M134,740 L261,740 Q268,679 323,679 Q350,679 366,695.5 Q382,712 384,740 L512,740 Q508,656 456,608.5 Q404,561 323,561 Q243,561 190,607 Q137,654 134,740"/> 
            <glyph glyph-name="Ġ" unicode="&#x120;" horiz-adv-x="721" d=" M422,-14 Q258,-14 145,88 Q33,190 33,350 Q33,511 146,612 Q258,714 431,714 Q481,714 516,707 Q556,699 574,692 Q599,683 629,670 L629,473 Q560,508 490.5,516 Q421,524 368.5,506.5 Q316,489 284,447 Q252,405 254,347 Q254,265 303,219 Q352,173 422,173 Q476,173 505,193 L505,408 L721,408 L721,93 Q679,48 598,17 Q517,-14 422,-14 M404,741 Q363,741 334,770 Q305,799 305,840 Q305,881 334,909.5 Q363,938 404,938 Q446,938 474.5,909.5 Q503,881 503,840 Q503,799 474.5,770 Q446,741 404,741"/> 
            <glyph glyph-name="ġ" unicode="&#x121;" horiz-adv-x="592" d=" M381,460 L381,516 L592,516 L592,84 Q592,25 572.5,-24.5 Q553,-74 521.5,-106.5 Q490,-139 448,-162 Q406,-185 363,-195.5 Q320,-206 276,-206 Q139,-206 70,-164 L70,17 Q155,-33 253,-33 Q381,-33 381,69 L381,100 Q330,31 238,31 Q141,31 80,101 Q19,171 19,280 Q19,389 80,459 Q141,529 238,529 Q328,529 381,460 M384,234 L384,326 Q357,357 304,357 Q269,357 248,335.5 Q227,314 227,280 Q227,246 248,224.5 Q269,203 304,203 Q357,203 384,234 M303,556 Q262,556 232.5,585 Q203,614 203,655 Q203,696 232.5,724.5 Q262,753 303,753 Q345,753 373.5,724.5 Q402,696 402,655 Q402,614 373.5,585 Q345,556 303,556"/> 
            <glyph glyph-name="Ģ" unicode="&#x122;" horiz-adv-x="721" d=" M422,-14 Q258,-14 145,88 Q33,190 33,350 Q33,511 146,612 Q258,714 431,714 Q481,714 516,707 Q556,699 574,692 Q599,683 629,670 L629,473 Q560,508 490.5,516 Q421,524 368.5,506.5 Q316,489 284,447 Q252,405 254,347 Q254,265 303,219 Q352,173 422,173 Q476,173 505,193 L505,408 L721,408 L721,93 Q679,48 598,17 Q517,-14 422,-14 M431,-309 L277,-309 L338,-78 L515,-78"/> 
            <glyph glyph-name="ģ" unicode="&#x123;" horiz-adv-x="592" d=" M381,460 L381,516 L592,516 L592,84 Q592,25 572.5,-24.5 Q553,-74 521.5,-106.5 Q490,-139 448,-162 Q406,-185 363,-195.5 Q320,-206 276,-206 Q139,-206 70,-164 L70,17 Q155,-33 253,-33 Q381,-33 381,69 L381,100 Q330,31 238,31 Q141,31 80,101 Q19,171 19,280 Q19,389 80,459 Q141,529 238,529 Q328,529 381,460 M384,234 L384,326 Q357,357 304,357 Q269,357 248,335.5 Q227,314 227,280 Q227,246 248,224.5 Q269,203 304,203 Q357,203 384,234 M325,821 L479,821 L418,590 L241,590"/> 
            <glyph glyph-name="Ĥ" unicode="&#x124;" horiz-adv-x="697" d=" M268,0 L53,0 L53,700 L268,700 L268,463 L482,463 L482,700 L697,700 L697,0 L482,0 L482,276 L268,276 M318,760 L147,760 L279,917 L475,917 L603,760 L429,760 L373,821"/> 
            <glyph glyph-name="ĥ" unicode="&#x125;" horiz-adv-x="570" d=" M38,0 L38,700 L248,700 L248,450 Q266,478 308,504 Q351,529 399,529 Q482,529 526,476 Q570,423 570,327 L570,0 L359,0 L359,282 Q359,313 344.5,329 Q330,345 307,345 Q272,345 248,317 L248,0 M88,760 L-83,760 L49,917 L245,917 L373,760 L199,760 L143,821"/> 
            <glyph glyph-name="Ħ" unicode="&#x126;" horiz-adv-x="780" d=" M298,0 L83,0 L83,511 L30,511 L30,619 L83,619 L83,700 L298,700 L298,619 L512,619 L512,700 L726,700 L726,619 L780,619 L780,511 L726,511 L726,0 L512,0 L512,276 L298,276 M298,511 L298,455 L512,455 L512,511"/> 
            <glyph glyph-name="ħ" unicode="&#x127;" horiz-adv-x="641" d=" M319,216 L319,0 L109,0 L109,511 L8,511 L8,619 L109,619 L109,700 L319,700 L319,619 L497,619 L497,511 L319,511 L319,349 Q337,378 379,403 Q422,428 470,428 Q553,428 597,375 Q641,322 641,226 L641,0 L430,0 L430,181 Q430,212 415.5,228 Q401,244 378,244 Q343,244 319,216"/> 
            <glyph glyph-name="Ĩ" unicode="&#x128;" horiz-adv-x="371" d=" M60,756 L-40,756 Q-41,825 -2,875 Q36,925 97,925 Q129,925 166,908 Q203,891 225,891 Q261,891 270,921 L371,921 Q371,859 332,805 Q294,752 235,752 Q198,752 162,770 Q127,788 106,788 Q71,788 60,756 M273,0 L58,0 L58,700 L273,700"/> 
            <glyph glyph-name="ĩ" unicode="&#x129;" horiz-adv-x="366" d=" M55,572 L-46,572 Q-47,641 -8,691 Q30,741 92,741 Q124,741 161,724 Q198,707 219,707 Q254,707 265,737 L365,737 Q366,676 327,621 Q288,568 229,568 Q193,568 157,586 Q121,604 100,604 Q63,604 55,572 M265,0 L54,0 L54,516 L265,516"/> 
            <glyph glyph-name="Ī" unicode="&#x12A;" horiz-adv-x="345" d=" M272,0 L57,0 L57,700 L272,700 M345,768 L-15,768 L-15,903 L345,903"/> 
            <glyph glyph-name="ī" unicode="&#x12B;" horiz-adv-x="339" d=" M264,0 L53,0 L53,516 L264,516 M339,584 L-21,584 L-21,719 L339,719"/> 
            <glyph glyph-name="Ĭ" unicode="&#x12C;" horiz-adv-x="354" d=" M166,744 Q84,744 31.5,791.5 Q-21,839 -24,923 L104,923 Q111,862 166,862 Q192,862 208,878.5 Q224,895 226,923 L354,923 Q350,839 298.5,791.5 Q247,744 166,744 M272,0 L57,0 L57,700 L272,700"/> 
            <glyph glyph-name="ĭ" unicode="&#x12D;" horiz-adv-x="347" d=" M-31,740 L96,740 Q103,679 158,679 Q185,679 201,695.5 Q217,712 219,740 L347,740 Q343,656 291,608.5 Q239,561 158,561 Q78,561 25,607 Q-28,654 -31,740 M264,0 L53,0 L53,516 L264,516"/> 
            <glyph glyph-name="Į" unicode="&#x12E;" horiz-adv-x="311" d=" M146,0 L57,0 L57,700 L272,700 L272,0 Q262,-9 251,-27.5 Q240,-46 240,-58 Q240,-86 277,-86 Q300,-86 311,-78 L311,-200 Q287,-209 241,-209 Q174,-209 135,-179 Q96,-149 96,-101 Q96,-70 111.5,-42.5 Q127,-15 146,0"/> 
            <glyph glyph-name="į" unicode="&#x12F;" horiz-adv-x="303" d=" M138,0 L53,0 L53,516 L264,516 L264,0 Q254,-9 243,-27.5 Q232,-46 232,-58 Q232,-86 269,-86 Q292,-86 303,-78 L303,-200 Q279,-209 233,-209 Q166,-209 127,-179 Q88,-149 88,-101 Q88,-70 103.5,-42.5 Q119,-15 138,0 M209,540 Q109,540 75,574 Q41,608 41,659 Q41,708 75,742 Q110,777 159,777 Q207,777 242,742 Q277,707 277,659 Q277,609 209,540"/> 
            <glyph glyph-name="İ" unicode="&#x130;" horiz-adv-x="272" d=" M164,741 Q123,741 94,770 Q65,799 65,840 Q65,881 94,909.5 Q123,938 164,938 Q206,938 234.5,909.5 Q263,881 263,840 Q263,799 234.5,770 Q206,741 164,741 M272,0 L57,0 L57,700 L272,700"/> 
            <glyph glyph-name="ı" unicode="&#x131;" horiz-adv-x="264" d=" M264,0 L53,0 L53,516 L264,516"/> 
            <glyph glyph-name="Ĳ" unicode="&#x132;" horiz-adv-x="606" d=" M272,288 L57,288 L57,700 L272,700 M273,-14 Q214,-14 155,-1 Q94,12 57,36 L57,235 Q148,181 242,181 Q391,181 391,315 L391,700 L606,700 L606,315 Q606,-14 273,-14"/> 
            <glyph glyph-name="ĳ" unicode="&#x133;" horiz-adv-x="595" d=" M477,540 Q428,540 394,574 Q360,608 360,659 Q360,708 394,742.5 Q428,777 477,777 Q525,777 560,742 Q595,707 595,659 Q595,609 561,574.5 Q527,540 477,540 M351,-206 Q269,-206 227,-186 L227,-27 Q257,-42 297,-42 Q333,-42 352.5,-25.5 Q372,-9 372,21 L372,516 L583,516 L583,19 Q583,-86 522.5,-146 Q462,-206 351,-206 M264,0 L53,0 L53,516 L264,516 M209,540 Q109,540 75,574 Q41,608 41,659 Q41,708 75,742 Q110,777 159,777 Q207,777 242,742 Q277,707 277,659 Q277,609 209,540"/> 
            <glyph glyph-name="Ĵ" unicode="&#x134;" horiz-adv-x="583" d=" M194,-14 Q74,-14 18,22 L18,225 Q82,181 146,181 Q199,181 224.5,203.5 Q250,226 250,279 L250,700 L465,700 L465,248 Q465,96 378,37 Q303,-14 194,-14 M298,760 L127,760 L259,917 L455,917 L583,760 L409,760 L353,821"/> 
            <glyph glyph-name="ĵ" unicode="&#x135;" horiz-adv-x="391" d=" M106,576 L-68,576 L64,732 L263,732 L391,576 L214,576 L159,637 M45,-206 Q-48,-206 -91,-184 L-91,-10 Q-52,-29 -12,-29 Q19,-29 36.5,-13 Q54,3 54,32 L54,516 L265,516 L265,19 Q265,-84 207,-145 Q149,-206 45,-206"/> 
            <glyph glyph-name="Ķ" unicode="&#x136;" horiz-adv-x="768" d=" M268,0 L53,0 L53,700 L268,700 L268,439 L465,700 L718,700 L470,375 L768,0 L504,0 L268,302 M391,-309 L237,-309 L298,-78 L475,-78"/> 
            <glyph glyph-name="ķ" unicode="&#x137;" horiz-adv-x="654" d=" M248,0 L38,0 L38,700 L248,700 L248,334 L381,516 L622,516 L436,284 L654,0 L397,0 L248,209 M342,-309 L188,-309 L249,-78 L426,-78"/> 
            <glyph glyph-name="ĸ" unicode="&#x138;" horiz-adv-x="666" d=" M260,0 L50,0 L50,516 L260,516 L260,334 L393,516 L634,516 L448,284 L666,0 L409,0 L260,209"/> 
            <glyph glyph-name="Ĺ" unicode="&#x139;" horiz-adv-x="586" d=" M586,0 L53,0 L53,700 L268,700 L268,185 L586,185 M250,759 L79,759 L174,917 L420,917"/> 
            <glyph glyph-name="ĺ" unicode="&#x13A;" horiz-adv-x="399" d=" M194,-13 Q39,-13 39,144 L39,700 L249,700 L249,191 Q249,177 257,170 Q265,163 276,163 Q289,163 301,168 L301,7 Q259,-13 194,-13 M229,759 L58,759 L153,917 L399,917"/> 
            <glyph glyph-name="Ļ" unicode="&#x13B;" horiz-adv-x="586" d=" M586,0 L53,0 L53,700 L268,700 L268,185 L586,185 M352,-309 L198,-309 L259,-78 L436,-78"/> 
            <glyph glyph-name="ļ" unicode="&#x13C;" horiz-adv-x="312" d=" M205,-13 Q50,-13 50,144 L50,700 L260,700 L260,191 Q260,177 268,170 Q276,163 287,163 Q300,163 312,168 L312,7 Q270,-13 205,-13 M210,-309 L56,-309 L117,-78 L294,-78"/> 
            <glyph glyph-name="Ľ" unicode="&#x13D;" horiz-adv-x="603" d=" M586,0 L53,0 L53,700 L268,700 L268,185 L586,185 M519,469 L365,469 L426,700 L603,700"/> 
            <glyph glyph-name="ľ" unicode="&#x13E;" horiz-adv-x="552" d=" M206,-13 Q51,-13 51,144 L51,700 L261,700 L261,191 Q261,177 269,170 Q277,163 288,163 Q301,163 313,168 L313,7 Q271,-13 206,-13 M468,469 L314,469 L375,700 L552,700"/> 
            <glyph glyph-name="Ŀ" unicode="&#x13F;" horiz-adv-x="586" d=" M464,515 Q514,515 550,479 Q586,444 586,393 Q586,342 550,306 Q514,270 464,270 Q414,270 377,306 Q341,342 341,393 Q341,444 377,479 Q413,515 464,515 M586,0 L53,0 L53,700 L268,700 L268,185 L586,185"/> 
            <glyph glyph-name="ŀ" unicode="&#x140;" horiz-adv-x="532" d=" M192,-13 Q37,-13 37,144 L37,700 L247,700 L247,191 Q247,177 255,170 Q263,163 274,163 Q287,163 299,168 L299,7 Q257,-13 192,-13 M410,515 Q460,515 496,479 Q532,444 532,393 Q532,342 496,306 Q460,270 410,270 Q360,270 323,306 Q287,342 287,393 Q287,444 323,479 Q359,515 410,515"/> 
            <glyph glyph-name="Ł" unicode="&#x141;" horiz-adv-x="634" d=" M634,0 L102,0 L102,232 L3,166 L3,344 L102,410 L102,700 L316,700 L316,551 L454,645 L454,466 L316,373 L316,185 L634,185"/> 
            <glyph glyph-name="ł" unicode="&#x142;" horiz-adv-x="421" d=" M105,202 L3,134 L3,313 L105,381 L105,700 L315,700 L315,520 L421,591 L421,412 L315,341 L315,191 Q315,177 323,170 Q331,163 342,163 Q355,163 367,168 L367,7 Q325,-13 260,-13 Q105,-13 105,144"/> 
            <glyph glyph-name="Ń" unicode="&#x143;" horiz-adv-x="708" d=" M259,0 L53,0 L53,700 L236,700 L504,362 L504,700 L708,700 L708,0 L531,0 L259,340 M458,759 L287,759 L382,917 L628,917"/> 
            <glyph glyph-name="ń" unicode="&#x144;" horiz-adv-x="582" d=" M50,0 L50,516 L260,516 L260,450 Q278,478 320,504 Q363,529 411,529 Q494,529 538,476 Q582,423 582,327 L582,0 L371,0 L371,282 Q371,313 356.5,329 Q342,345 319,345 Q284,345 260,317 L260,0 M370,576 L199,576 L294,734 L539,734"/> 
            <glyph glyph-name="Ņ" unicode="&#x145;" horiz-adv-x="708" d=" M259,0 L53,0 L53,700 L236,700 L504,362 L504,700 L708,700 L708,0 L531,0 L259,340 M413,-309 L259,-309 L320,-78 L497,-78"/> 
            <glyph glyph-name="ņ" unicode="&#x146;" horiz-adv-x="582" d=" M260,317 L260,0 L50,0 L50,516 L260,516 L260,450 Q278,478 320,504 Q363,529 411,529 Q494,529 538,476 Q582,423 582,327 L582,0 L371,0 L371,282 Q371,313 356.5,329 Q342,345 319,345 Q284,345 260,317 M320,-309 L166,-309 L227,-78 L404,-78"/> 
            <glyph glyph-name="Ň" unicode="&#x147;" horiz-adv-x="708" d=" M259,0 L53,0 L53,700 L236,700 L504,362 L504,700 L708,700 L708,0 L531,0 L259,340 M438,917 L608,917 L477,760 L281,760 L152,917 L327,917 L383,856"/> 
            <glyph glyph-name="ň" unicode="&#x148;" horiz-adv-x="582" d=" M50,0 L50,516 L260,516 L260,450 Q278,478 320,504 Q363,529 411,529 Q494,529 538,476 Q582,423 582,327 L582,0 L371,0 L371,282 Q371,313 356.5,329 Q342,345 319,345 Q284,345 260,317 L260,0 M374,733 L545,733 L413,576 L217,576 L88,733 L263,733 L319,671"/> 
            <glyph glyph-name="ŉ" unicode="&#x149;" horiz-adv-x="789" d=" M257,0 L257,516 L467,516 L467,450 Q485,478 527,504 Q570,529 618,529 Q701,529 745,476 Q789,423 789,327 L789,0 L578,0 L578,282 Q578,313 563.5,329 Q549,345 526,345 Q491,345 467,317 L467,0 M175,469 L21,469 L82,700 L259,700"/> 
            <glyph glyph-name="Ŋ" unicode="&#x14A;" horiz-adv-x="708" d=" M482,-206 Q401,-206 359,-186 L359,-15 Q389,-30 426,-30 Q497,-30 497,33 L497,42 L259,340 L259,0 L53,0 L53,700 L236,700 L504,362 L504,700 L708,700 L708,0 Q708,-94 648.5,-150 Q589,-206 482,-206"/> 
            <glyph glyph-name="ŋ" unicode="&#x14B;" horiz-adv-x="582" d=" M260,317 L260,0 L50,0 L50,516 L260,516 L260,450 Q278,478 320,504 Q363,529 411,529 Q494,529 538,476 Q582,423 582,327 L582,19 Q582,-86 522,-146 Q462,-206 350,-206 Q268,-206 226,-186 L226,-27 Q256,-42 296,-42 Q332,-42 351.5,-25.5 Q371,-9 371,21 L371,282 Q371,313 356.5,329 Q342,345 319,345 Q284,345 260,317"/> 
            <glyph glyph-name="Ō" unicode="&#x14C;" horiz-adv-x="782" d=" M297,229 Q341,182 408,182 Q475,182 519,229 Q563,278 563,350 Q563,423 519,470 Q476,518 408,518 Q340,518 297,470 Q253,423 253,350 Q253,278 297,229 M33,199 Q33,501 139,607 Q246,714 408,714 Q569,714 676,607 Q782,501 782,350 Q782,198 676,92 Q570,-14 408,-14 Q246,-14 139,93 M586,768 L226,768 L226,903 L586,903"/> 
            <glyph glyph-name="ō" unicode="&#x14D;" horiz-adv-x="608" d=" M224,217 Q274,165 313,165 Q352,165 377,191 Q402,217 402,258 Q402,299 377,324 Q352,351 313,351 Q274,351 249,324 Q224,299 224,217 M313,-13 Q187,-13 102,64 Q19,141 19,258 Q19,375 102,452 Q187,529 313,529 Q441,529 524,452 Q608,376 608,258 Q608,140 524,64 Q441,-13 313,-13 M493,584 L133,584 L133,719 L493,719"/> 
            <glyph glyph-name="Ŏ" unicode="&#x14E;" horiz-adv-x="782" d=" M297,229 Q341,182 408,182 Q475,182 519,229 Q563,278 563,350 Q563,423 519,470 Q476,518 408,518 Q340,518 297,470 Q253,423 253,350 Q253,278 297,229 M33,199 Q33,501 139,607 Q246,714 408,714 Q569,714 676,607 Q782,501 782,350 Q782,198 676,92 Q570,-14 408,-14 Q246,-14 139,93 M409,762 Q327,762 274.5,809.5 Q222,857 219,941 L347,941 Q354,880 409,880 Q435,880 451,896.5 Q467,913 469,941 L597,941 Q593,857 541.5,809.5 Q490,762 409,762"/> 
            <glyph glyph-name="ŏ" unicode="&#x14F;" horiz-adv-x="608" d=" M224,217 Q274,165 313,165 Q352,165 377,191 Q402,217 402,258 Q402,299 377,324 Q352,351 313,351 Q274,351 249,324 Q224,299 224,217 M313,-13 Q187,-13 102,64 Q19,141 19,258 Q19,375 102,452 Q187,529 313,529 Q441,529 524,452 Q608,376 608,258 Q608,140 524,64 Q441,-13 313,-13 M125,751 L252,751 Q259,690 314,690 Q341,690 357,706.5 Q373,723 375,751 L503,751 Q499,667 447,619.5 Q395,572 314,572 Q234,572 181,618 Q128,665 125,751"/> 
            <glyph glyph-name="Ő" unicode="&#x150;" horiz-adv-x="782" d=" M297,229 Q341,182 408,182 Q475,182 519,229 Q563,278 563,350 Q563,423 519,470 Q476,518 408,518 Q340,518 297,470 Q253,423 253,350 Q253,278 297,229 M33,199 Q33,501 139,607 Q246,714 408,714 Q569,714 676,607 Q782,501 782,350 Q782,198 676,92 Q570,-14 408,-14 Q246,-14 139,93 M343,759 L201,759 L296,917 L495,917 M578,759 L436,759 L531,917 L730,917"/> 
            <glyph glyph-name="ő" unicode="&#x151;" horiz-adv-x="641" d=" M224,217 Q274,165 313,165 Q352,165 377,191 Q402,217 402,258 Q402,299 377,324 Q352,351 313,351 Q274,351 249,324 Q224,299 224,217 M313,-13 Q187,-13 102,64 Q19,141 19,258 Q19,375 102,452 Q187,529 313,529 Q441,529 524,452 Q608,376 608,258 Q608,140 524,64 Q441,-13 313,-13 M254,576 L112,576 L207,734 L406,734 M489,576 L347,576 L442,734 L641,734"/> 
            <glyph glyph-name="Œ" unicode="&#x152;" horiz-adv-x="1008" d=" M1008,0 L423,0 Q252,0 142,98 Q33,195 33,350 Q33,505 142,602 Q252,700 423,700 L1002,700 L1002,515 L668,515 L668,453 L930,453 L930,283 L668,283 L668,185 L1008,185 M437,185 L453,185 L453,515 L437,515 Q350,515 302,472 Q254,429 254,350 Q254,271 302,228 Q350,185 437,185"/> 
            <glyph glyph-name="œ" unicode="&#x153;" horiz-adv-x="909" d=" M909,261 L909,213 L581,213 Q593,183 630.5,167.5 Q668,152 716,152 Q808,152 882,191 L882,37 Q812,-13 677,-13 Q622,-13 570.5,6 Q519,25 489,56 Q418,-13 309,-13 Q188,-13 103,64 Q19,142 19,258 Q19,373 103,451 Q188,529 308,529 Q413,529 491,463 Q558,529 663,529 Q764,529 836,456 Q909,383 909,261 M224,217 Q274,165 313,165 Q352,165 377,191 Q402,217 402,258 Q402,299 377,324 Q352,351 313,351 Q274,351 249,324 Q224,299 224,217 M577,313 L714,313 Q713,347 694.5,367.5 Q676,388 648,388 Q588,388 577,313"/> 
            <glyph glyph-name="Ŕ" unicode="&#x154;" horiz-adv-x="735" d=" M526,274 L735,0 L484,0 L298,250 L268,250 L268,0 L53,0 L53,700 L391,700 Q511,700 582,636 Q654,573 654,475 Q654,409 620,356.5 Q586,304 526,274 M268,407 L366,407 Q396,407 414.5,422.5 Q433,438 433,464 Q433,490 414.5,505 Q396,520 366,520 L268,520 M356,759 L185,759 L280,917 L526,917"/> 
            <glyph glyph-name="ŕ" unicode="&#x155;" horiz-adv-x="468" d=" M260,0 L50,0 L50,516 L260,516 L260,434 Q275,466 321,497 Q368,529 421,529 Q438,529 449,526 L449,328 Q415,336 386,336 Q302,336 260,291 M299,576 L128,576 L223,734 L468,734"/> 
            <glyph glyph-name="Ŗ" unicode="&#x156;" horiz-adv-x="735" d=" M526,274 L735,0 L484,0 L298,250 L268,250 L268,0 L53,0 L53,700 L391,700 Q511,700 582,636 Q654,573 654,475 Q654,409 620,356.5 Q586,304 526,274 M268,407 L366,407 Q396,407 414.5,422.5 Q433,438 433,464 Q433,490 414.5,505 Q396,520 366,520 L268,520 M390,-309 L236,-309 L297,-78 L474,-78"/> 
            <glyph glyph-name="ŗ" unicode="&#x157;" horiz-adv-x="449" d=" M260,0 L50,0 L50,516 L260,516 L260,434 Q275,466 321,497 Q368,529 421,529 Q438,529 449,526 L449,328 Q415,336 386,336 Q302,336 260,291 M155,-309 L1,-309 L62,-78 L239,-78"/> 
            <glyph glyph-name="Ř" unicode="&#x158;" horiz-adv-x="735" d=" M526,274 L735,0 L484,0 L298,250 L268,250 L268,0 L53,0 L53,700 L391,700 Q511,700 582,636 Q654,573 654,475 Q654,409 620,356.5 Q586,304 526,274 M268,407 L366,407 Q396,407 414.5,422.5 Q433,438 433,464 Q433,490 414.5,505 Q396,520 366,520 L268,520 M388,917 L558,917 L427,760 L231,760 L102,917 L277,917 L333,856"/> 
            <glyph glyph-name="ř" unicode="&#x159;" horiz-adv-x="466" d=" M260,0 L50,0 L50,516 L260,516 L260,434 Q275,466 321,497 Q368,529 421,529 Q438,529 449,526 L449,328 Q415,336 386,336 Q302,336 260,291 M295,733 L466,733 L334,576 L138,576 L9,733 L184,733 L240,671"/> 
            <glyph glyph-name="Ś" unicode="&#x15A;" horiz-adv-x="635" d=" M327,-14 Q154,-14 36,61 L36,271 Q84,230 172,202 Q262,173 331,173 Q412,173 412,206 Q412,220 382,234 Q353,247 266,273 Q151,307 93.5,359.5 Q36,412 36,497 Q36,602 116,658 Q196,714 337,714 Q470,714 590,658 L590,458 Q538,489 461,508 Q383,529 321,529 Q259,529 259,503 Q259,490 288,476 Q317,465 419,434 Q529,401 582,348 Q635,295 635,216 Q635,111 550,48 Q465,-14 327,-14 M373,759 L202,759 L297,917 L543,917"/> 
            <glyph glyph-name="ś" unicode="&#x15B;" horiz-adv-x="504" d=" M246,-13 Q108,-13 31,32 L31,191 Q69,169 128,153 Q188,137 249,137 Q292,137 292,156 Q292,165 280,171 Q272,176 233,187 L179,203 Q98,231 61,264 Q27,297 27,361 Q27,441 94,485 Q161,529 279,529 Q393,529 482,479 L482,324 Q444,347 387,363 Q327,380 281,380 Q246,380 246,362 Q246,353 267,343 Q274,340 288,336 L350,319 Q435,292 469.5,257 Q504,222 504,158 Q504,80 436.5,33.5 Q369,-13 246,-13 M305,576 L134,576 L229,734 L474,734"/> 
            <glyph glyph-name="Ŝ" unicode="&#x15C;" horiz-adv-x="635" d=" M327,-14 Q154,-14 36,61 L36,271 Q84,230 172,202 Q262,173 331,173 Q412,173 412,206 Q412,220 382,234 Q353,247 266,273 Q151,307 93.5,359.5 Q36,412 36,497 Q36,602 116,658 Q196,714 337,714 Q470,714 590,658 L590,458 Q538,489 461,508 Q383,529 321,529 Q259,529 259,503 Q259,490 288,476 Q317,465 419,434 Q529,401 582,348 Q635,295 635,216 Q635,111 550,48 Q465,-14 327,-14 M265,760 L94,760 L226,917 L422,917 L550,760 L376,760 L320,821"/> 
            <glyph glyph-name="ŝ" unicode="&#x15D;" horiz-adv-x="504" d=" M246,-13 Q108,-13 31,32 L31,191 Q69,169 128,153 Q188,137 249,137 Q292,137 292,156 Q292,165 280,171 Q272,176 233,187 L179,203 Q98,231 61,264 Q27,297 27,361 Q27,441 94,485 Q161,529 279,529 Q393,529 482,479 L482,324 Q444,347 387,363 Q327,380 281,380 Q246,380 246,362 Q246,353 267,343 Q274,340 288,336 L350,319 Q435,292 469.5,257 Q504,222 504,158 Q504,80 436.5,33.5 Q369,-13 246,-13 M208,577 L37,577 L169,734 L365,734 L493,577 L319,577 L263,638"/> 
            <glyph glyph-name="Ş" unicode="&#x15E;" horiz-adv-x="635" d=" M416,-6 L363,-159 L121,-159 L239,-9 Q120,6 36,61 L36,271 Q84,230 172,202 Q262,173 331,173 Q412,173 412,206 Q412,220 382,234 Q353,247 266,273 Q151,307 93.5,359.5 Q36,412 36,497 Q36,602 116,658 Q196,714 337,714 Q470,714 590,658 L590,458 Q538,489 461,508 Q383,529 321,529 Q259,529 259,503 Q259,490 288,476 Q317,465 419,434 Q529,401 582,348 Q635,295 635,216 Q635,129 576.5,70.5 Q518,12 416,-6"/> 
            <glyph glyph-name="ş" unicode="&#x15F;" horiz-adv-x="504" d=" M289,-159 L47,-159 L166,-8 Q78,4 31,32 L31,191 Q69,169 128,153 Q188,137 249,137 Q292,137 292,156 Q292,165 280,171 Q272,176 233,187 L179,203 Q98,231 61,264 Q27,297 27,361 Q27,441 94,485 Q161,529 279,529 Q393,529 482,479 L482,324 Q444,347 387,363 Q327,380 281,380 Q246,380 246,362 Q246,353 267,343 Q274,340 288,336 L350,319 Q435,292 469.5,257 Q504,222 504,158 Q504,97 462.5,54.5 Q421,12 343,-4"/> 
            <glyph glyph-name="Š" unicode="&#x160;" horiz-adv-x="635" d=" M327,-14 Q154,-14 36,61 L36,271 Q84,230 172,202 Q262,173 331,173 Q412,173 412,206 Q412,220 382,234 Q353,247 266,273 Q151,307 93.5,359.5 Q36,412 36,497 Q36,602 116,658 Q196,714 337,714 Q470,714 590,658 L590,458 Q538,489 461,508 Q383,529 321,529 Q259,529 259,503 Q259,490 288,476 Q317,465 419,434 Q529,401 582,348 Q635,295 635,216 Q635,111 550,48 Q465,-14 327,-14 M391,917 L561,917 L430,760 L234,760 L105,917 L280,917 L336,856"/> 
            <glyph glyph-name="š" unicode="&#x161;" horiz-adv-x="504" d=" M246,-13 Q108,-13 31,32 L31,191 Q69,169 128,153 Q188,137 249,137 Q292,137 292,156 Q292,165 280,171 Q272,176 233,187 L179,203 Q98,231 61,264 Q27,297 27,361 Q27,441 94,485 Q161,529 279,529 Q393,529 482,479 L482,324 Q444,347 387,363 Q327,380 281,380 Q246,380 246,362 Q246,353 267,343 Q274,340 288,336 L350,319 Q435,292 469.5,257 Q504,222 504,158 Q504,80 436.5,33.5 Q369,-13 246,-13 M318,733 L489,733 L357,576 L161,576 L32,733 L207,733 L263,671"/> 
            <glyph glyph-name="Ţ" unicode="&#x162;" horiz-adv-x="637" d=" M358,-159 L116,-159 L242,0 L221,0 L221,515 L22,515 L22,700 L637,700 L637,515 L436,515 L436,0 L413,0"/> 
            <glyph glyph-name="ţ" unicode="&#x163;" horiz-adv-x="418" d=" M89,154 L89,352 L8,352 L8,516 L89,516 L89,640 L299,640 L299,516 L416,516 L416,352 L299,352 L299,219 Q299,191 311,178.5 Q323,166 352,166 Q386,166 418,183 L418,19 Q394,3 350,-6 L297,-159 L55,-159 L184,4 Q89,46 89,154"/> 
            <glyph glyph-name="Ť" unicode="&#x164;" horiz-adv-x="637" d=" M22,515 L22,700 L637,700 L637,515 L436,515 L436,0 L221,0 L221,515 M386,917 L556,917 L425,760 L229,760 L100,917 L275,917 L331,856"/> 
            <glyph glyph-name="ť" unicode="&#x165;" horiz-adv-x="703" d=" M92,352 L11,352 L11,516 L92,516 L92,640 L302,640 L302,516 L419,516 L419,352 L302,352 L302,219 Q302,191 314,178.5 Q326,166 355,166 Q389,166 421,183 L421,19 Q368,-13 282,-13 Q197,-13 144.5,31 Q92,75 92,154 M619,469 L465,469 L526,700 L703,700"/> 
            <glyph glyph-name="Ŧ" unicode="&#x166;" horiz-adv-x="637" d=" M436,0 L222,0 L222,263 L122,263 L122,409 L222,409 L222,515 L22,515 L22,700 L637,700 L637,515 L436,515 L436,409 L533,409 L533,263 L436,263"/> 
            <glyph glyph-name="ŧ" unicode="&#x167;" horiz-adv-x="418" d=" M89,217 L8,217 L8,326 L89,326 L89,370 L8,370 L8,516 L89,516 L89,640 L299,640 L299,516 L416,516 L416,370 L299,370 L299,326 L416,326 L416,217 L299,217 Q299,190 310.5,178 Q322,166 352,166 Q386,166 418,183 L418,19 Q365,-13 279,-13 Q194,-13 141.5,31 Q89,75 89,154"/> 
            <glyph glyph-name="Ũ" unicode="&#x168;" horiz-adv-x="684" d=" M45,290 L45,700 L260,700 L260,289 Q260,235 289,208 Q318,181 365,181 Q412,181 440.5,208 Q469,235 469,289 L469,700 L684,700 L684,290 Q684,144 593,65 Q504,-14 365,-14 Q227,-14 136,65 Q45,144 45,290 M259,756 L159,756 Q158,824 196,875 Q235,925 296,925 Q328,925 365,908 Q402,891 424,891 Q460,891 469,921 L570,921 Q570,859 531,805 Q493,752 434,752 Q397,752 361,770 Q326,788 305,788 Q270,788 259,756"/> 
            <glyph glyph-name="ũ" unicode="&#x169;" horiz-adv-x="573" d=" M363,199 L363,516 L573,516 L573,0 L363,0 L363,66 Q345,37 302,12 Q261,-13 212,-13 Q129,-13 85,40 Q41,93 41,189 L41,516 L252,516 L252,234 Q252,203 266.5,187 Q281,171 304,171 Q339,171 363,199 M202,572 L101,572 Q100,640 138,691 Q177,741 239,741 Q271,741 308,724 Q345,707 366,707 Q402,707 412,737 L512,737 Q513,676 474,621 Q435,568 376,568 Q340,568 304,586 Q268,604 247,604 Q210,604 202,572"/> 
            <glyph glyph-name="Ū" unicode="&#x16A;" horiz-adv-x="684" d=" M45,290 L45,700 L260,700 L260,289 Q260,235 289,208 Q318,181 365,181 Q412,181 440.5,208 Q469,235 469,289 L469,700 L684,700 L684,290 Q684,144 593,65 Q504,-14 365,-14 Q227,-14 136,65 Q45,144 45,290 M544,768 L184,768 L184,903 L544,903"/> 
            <glyph glyph-name="ū" unicode="&#x16B;" horiz-adv-x="573" d=" M363,199 L363,516 L573,516 L573,0 L363,0 L363,66 Q345,37 302,12 Q261,-13 212,-13 Q129,-13 85,40 Q41,93 41,189 L41,516 L252,516 L252,234 Q252,203 266.5,187 Q281,171 304,171 Q339,171 363,199 M486,584 L126,584 L126,719 L486,719"/> 
            <glyph glyph-name="Ŭ" unicode="&#x16C;" horiz-adv-x="684" d=" M45,290 L45,700 L260,700 L260,289 Q260,235 289,208 Q318,181 365,181 Q412,181 440.5,208 Q469,235 469,289 L469,700 L684,700 L684,290 Q684,144 593,65 Q504,-14 365,-14 Q227,-14 136,65 Q45,144 45,290 M365,744 Q283,744 230.5,791.5 Q178,839 175,923 L303,923 Q310,862 365,862 Q391,862 407,878.5 Q423,895 425,923 L553,923 Q549,839 497.5,791.5 Q446,744 365,744"/> 
            <glyph glyph-name="ŭ" unicode="&#x16D;" horiz-adv-x="573" d=" M363,199 L363,516 L573,516 L573,0 L363,0 L363,66 Q345,37 302,12 Q261,-13 212,-13 Q129,-13 85,40 Q41,93 41,189 L41,516 L252,516 L252,234 Q252,203 266.5,187 Q281,171 304,171 Q339,171 363,199 M118,740 L245,740 Q252,679 307,679 Q334,679 350,695.5 Q366,712 368,740 L496,740 Q492,656 440,608.5 Q388,561 307,561 Q227,561 174,607 Q121,654 118,740"/> 
            <glyph glyph-name="Ů" unicode="&#x16E;" horiz-adv-x="684" d=" M255,839 Q255,884 287,916 Q320,949 365,949 Q410,949 441.5,916.5 Q473,884 473,839 Q473,795 441,763 Q409,731 365,731 Q321,731 287,763 Q255,795 255,839 M365,798 Q381,798 393,810 Q405,822 405,839 Q405,856 393,868.5 Q381,881 365,881 Q348,881 335.5,868.5 Q323,856 323,839 Q323,823 335.5,810.5 Q348,798 365,798 M45,290 L45,700 L260,700 L260,289 Q260,235 289,208 Q318,181 365,181 Q412,181 440.5,208 Q469,235 469,289 L469,700 L684,700 L684,290 Q684,144 593,65 Q504,-14 365,-14 Q227,-14 136,65 Q45,144 45,290"/> 
            </font>
</defs>
</svg>
