<?xml version="1.0" standalone="no"?>
<!DOCTYPE svg PUBLIC "-//W3C//DTD SVG 1.1//EN" "http://www.w3.org/Graphics/SVG/1.1/DTD/svg11.dtd" >
<svg xmlns="http://www.w3.org/2000/svg">
    <defs>
        <font id="Geometria-LightItalic">
            <font-face font-family="Geometria-LightItalic"
                       units-per-em="1000"
                       ascent="776"
                       descent="-224"
                       bbox="-285 -254 1492 921"
                    />
            <missing-glyph horiz-adv-x="0" />
            
            <glyph glyph-name="!" unicode="&#x21;" horiz-adv-x="270" d=" M186,208 L144,208 L216,700 L270,700 M111,8 Q94,24 101.5,45 Q109,66 128,71.5 Q147,77 165,62 Q182,46 174.5,25 Q167,4 148,-1.5 Q129,-7 111,8"/> 
            <glyph glyph-name="&quot;" unicode="&#x22;" horiz-adv-x="391" d=" M175,463 L131,463 L169,700 L212,700 M354,463 L311,463 L348,700 L391,700"/> 
            <glyph glyph-name="#" unicode="&#x23;" horiz-adv-x="715" d=" M231,0 L187,0 L218,198 L71,198 L78,240 L224,240 L259,459 L112,459 L120,501 L265,501 L298,700 L342,700 L310,501 L523,501 L554,700 L599,700 L567,501 L715,501 L708,459 L561,459 L526,240 L674,240 L667,198 L519,198 L488,0 L443,0 L475,198 L263,198 M305,459 L269,240 L482,240 L516,459"/> 
            <glyph glyph-name="$" unicode="&#x24;" horiz-adv-x="613" d=" M613,651 L606,605 Q512,668 388,668 Q309,668 247,631 Q185,595 185,524 Q185,495 202,470 Q212,456 247,434 Q261,425 310,409 L346,398 L381,388 L443,367 Q464,360 498,343 Q544,321 566.5,288.5 Q589,256 593,204 Q593,103 512,46 Q432,-10 321,-12 L305,-114 L258,-114 L274,-10 Q208,-4 147.5,16.5 Q87,37 57,63 L66,114 Q99,83 170,57 Q239,32 320,32 Q370,32 420,47 Q469,63 506,102 Q544,143 544,197 Q544,250 507,281 Q492,294 462,308 Q423,327 350,348 Q298,362 265,375 Q234,388 201,406 Q138,445 138,519 Q138,612 211,661 Q284,710 389,712 L405,814 L452,814 L435,710 Q545,698 613,651"/> 
            <glyph glyph-name="%" unicode="&#x25;" horiz-adv-x="794" d=" M182,0 L696,700 L745,700 L231,0 M310,712 Q381,712 424,666 Q467,622 467,556 Q467,483 417,430 Q368,378 292,378 Q221,378 178,424 Q135,470 135,535 Q135,607 185,660 Q234,712 310,712 M292,416 Q348,416 387,457 Q427,498 427,556 Q427,608 394.5,641 Q362,674 309,674 Q254,674 215,633 Q176,592 176,535 Q176,484 208.5,450 Q241,416 292,416 M637,322 Q708,322 751,276 Q794,232 794,166 Q794,93 744,40 Q695,-12 619,-12 Q548,-12 505,34 Q462,80 462,145 Q462,217 512,270 Q561,322 637,322 M619,26 Q675,26 714,67 Q754,108 754,166 Q754,218 721.5,251 Q689,284 636,284 Q581,284 542,243 Q503,202 503,145 Q503,94 535.5,60 Q568,26 619,26"/> 
            <glyph glyph-name="&amp;" unicode="&#x26;" horiz-adv-x="705" d=" M587,639 L580,592 Q549,626 502.5,648 Q456,670 405,670 Q336,670 296.5,635.5 Q257,601 257,543 Q257,480 320,404 L549,129 Q639,225 659,371 L705,371 Q678,203 577,96 L657,0 L600,0 L545,66 Q450,-12 331,-12 Q226,-12 152,48 Q80,110 80,212 Q80,307 142,364 Q198,414 249,426 Q211,482 211,544 Q211,621 264,666.5 Q317,712 402,712 Q456,712 505.5,691 Q555,670 587,639 M330,30 Q432,30 517,99 L275,390 Q214,376 170,330 Q126,283 126,215 Q126,133 184,81 Q242,30 330,30"/> 
            <glyph glyph-name="'" unicode="&#x27;" horiz-adv-x="212" d=" M174,463 L131,463 L169,700 L212,700"/> 
            <glyph glyph-name="(" unicode="&#x28;" horiz-adv-x="380" d=" M329,706 L380,706 Q173,480 173,154 Q173,-52 270,-206 L221,-206 Q130,-66 130,152 Q130,489 329,706"/> 
            <glyph glyph-name=")" unicode="&#x29;" horiz-adv-x="268" d=" M69,-206 L18,-206 Q225,20 225,346 Q225,552 128,706 L177,706 Q268,566 268,348 Q268,11 69,-206"/> 
            <glyph glyph-name="*" unicode="&#x2A;" horiz-adv-x="465" d=" M144,598 L166,627 L280,554 L303,700 L339,700 L315,555 L453,629 L465,597 L326,524 L442,451 L420,422 L306,495 L283,349 L247,349 L271,494 L133,420 L121,452 L259,525"/> 
            <glyph glyph-name="+" unicode="&#x2B;" horiz-adv-x="587" d=" M335,90 L293,90 L326,302 L113,302 L120,344 L333,344 L366,557 L408,557 L375,344 L587,344 L580,302 L368,302"/> 
            <glyph glyph-name="," unicode="&#x2C;" horiz-adv-x="179" d=" M48,-152 L9,-152 L123,87 L179,87"/> 
            <glyph glyph-name="-" unicode="&#x2D;" horiz-adv-x="419" d=" M411,249 L142,249 L149,290 L419,290"/> 
            <glyph glyph-name="." unicode="&#x2E;" horiz-adv-x="155" d=" M84,8 Q67,24 74.5,45 Q82,66 101,71.5 Q120,77 138,62 Q155,46 147.5,25 Q140,4 121,-1.5 Q102,-7 84,8"/> 
            <glyph glyph-name="/" unicode="&#x2F;" horiz-adv-x="612" d=" M612,792 L44,-140 L-10,-140 L558,792"/> 
            <glyph glyph-name="0" unicode="&#x30;" horiz-adv-x="693" d=" M442,712 Q558,712 625,627 Q693,542 693,407 Q693,305 655,209 Q618,117 542,51 Q468,-12 375,-12 Q258,-12 191,72 Q124,157 124,294 Q124,450 209,578 Q250,640 311,676 Q372,712 442,712 M376,32 Q455,32 520,91 Q582,149 614.5,232 Q647,315 647,406 Q647,514 594,591 Q541,668 441,668 Q362,668 297,609 Q235,553 202.5,469 Q170,385 170,295 Q170,184 222,108 Q274,32 376,32"/> 
            <glyph glyph-name="1" unicode="&#x31;" horiz-adv-x="357" d=" M246,0 L200,0 L303,646 L126,548 L134,598 L315,700 L357,700"/> 
            <glyph glyph-name="2" unicode="&#x32;" horiz-adv-x="559" d=" M132,578 L140,637 Q230,712 349,712 Q442,712 501,656 Q559,601 559,518 Q559,450 514.5,387.5 Q470,325 371,244 L125,43 L523,43 L516,0 L47,0 L52,36 L330,266 Q423,343 467,397 Q512,451 512,512 Q512,583 463,625 Q416,668 345,668 Q226,668 132,578"/> 
            <glyph glyph-name="3" unicode="&#x33;" horiz-adv-x="581" d=" M576,666 L310,432 Q404,430 469,376 Q536,322 536,232 Q536,120 453,54 Q370,-12 255,-12 Q129,-12 46,46 L54,93 Q131,32 253,32 Q349,32 419,84 Q490,137 490,230 Q490,310 431,352 Q373,395 288,395 Q259,395 234,390 L239,423 L505,657 L160,657 L166,700 L581,700"/> 
            <glyph glyph-name="4" unicode="&#x34;" horiz-adv-x="631" d=" M472,0 L427,0 L459,203 L72,203 L78,241 L540,700 L583,700 L511,246 L631,246 L624,203 L504,203 M527,632 L138,246 L466,246"/> 
            <glyph glyph-name="5" unicode="&#x35;" horiz-adv-x="590" d=" M325,436 Q434,436 499,375 Q565,315 565,228 Q565,116 478,52 Q393,-12 271,-12 Q148,-12 71,42 L79,89 Q158,32 271,32 Q331,32 384,51 Q442,71 480,117 Q518,163 518,223 Q518,294 463,343 Q410,392 311,392 Q234,392 155,368 L250,700 L590,700 L584,657 L282,657 L215,424 Q259,436 325,436"/> 
            <glyph glyph-name="6" unicode="&#x36;" horiz-adv-x="623" d=" M395,441 Q490,441 548,383 Q608,324 608,239 Q608,134 538,61 Q469,-12 361,-12 Q253,-12 187,60 Q122,134 122,252 Q122,444 221,578 Q320,712 464,712 Q565,712 623,662 L616,617 Q554,668 462,668 Q348,668 266,566 Q184,466 173,319 Q208,373 267.5,407 Q327,441 395,441 M363,32 Q445,32 504,91 Q562,150 562,237 Q562,309 514.5,353.5 Q467,398 391,398 Q323,398 261,355 Q198,312 168,250 Q168,156 219,94 Q270,32 363,32"/> 
            <glyph glyph-name="7" unicode="&#x37;" horiz-adv-x="607" d=" M162,0 L110,0 L545,657 L153,657 L159,700 L607,700 L602,666"/> 
            <glyph glyph-name="8" unicode="&#x38;" horiz-adv-x="638" d=" M485,365 Q551,344 588.5,299 Q626,254 626,195 Q626,100 548,44 Q471,-12 365,-12 Q254,-12 177,40 Q99,92 99,184 Q99,255 152,310 Q204,364 291,379 Q242,400 213.5,438.5 Q185,477 185,526 Q185,609 252,660 Q319,712 413,712 Q501,712 569.5,667 Q638,622 638,542 Q638,474 592,427 Q547,379 485,365 M231,524 Q231,460 285,426 Q340,391 410,391 Q481,391 536,428 Q593,466 593,534 Q593,598 539,633 Q484,668 412,668 Q343,668 287,630 Q231,592 231,524 M361,32 Q449,32 514,76 Q580,120 580,197 Q580,264 517,305 Q456,347 364,347 Q274,347 210,304 Q145,262 145,187 Q145,118 210,74 Q274,32 361,32"/> 
            <glyph glyph-name="9" unicode="&#x39;" horiz-adv-x="623" d=" M350,259 Q255,259 196,317 Q137,376 137,461 Q137,566 206,639 Q276,712 384,712 Q493,712 557,639 Q623,567 623,448 Q623,254 524,121 Q425,-12 281,-12 Q180,-12 122,38 L129,83 Q190,32 283,32 Q395,32 478,133 Q562,236 572,381 Q537,327 477.5,293 Q418,259 350,259 M382,668 Q300,668 241,608 Q183,550 183,463 Q183,391 230.5,346.5 Q278,302 354,302 Q422,302 484,345 Q547,388 577,450 Q577,544 526,606 Q475,668 382,668"/> 
            <glyph glyph-name=":" unicode="&#x3A;" horiz-adv-x="217" d=" M146,397 Q129,413 136.5,434 Q144,455 163,460.5 Q182,466 200,451 Q217,435 209.5,414 Q202,393 183,387.5 Q164,382 146,397 M84,8 Q67,24 74.5,45 Q82,66 101,71.5 Q120,77 138,62 Q155,46 147.5,25 Q140,4 121,-1.5 Q102,-7 84,8"/> 
            <glyph glyph-name=";" unicode="&#x3B;" horiz-adv-x="225" d=" M48,-152 L9,-152 L123,87 L179,87 M154,397 Q137,413 144.5,434 Q152,455 171,460.5 Q190,466 208,451 Q225,435 217.5,414 Q210,393 191,387.5 Q172,382 154,397"/> 
            <glyph glyph-name="&lt;" unicode="&#x3C;" horiz-adv-x="620" d=" M120,342 L620,545 L612,499 L169,320 L556,141 L549,96 L113,299"/> 
            <glyph glyph-name="=" unicode="&#x3D;" horiz-adv-x="606" d=" M563,188 L96,188 L103,229 L569,229 M600,416 L133,416 L139,457 L606,457"/> 
            <glyph glyph-name="&gt;" unicode="&#x3E;" horiz-adv-x="587" d=" M531,321 L144,500 L152,545 L587,342 L580,299 L80,96 L88,143"/> 
            <glyph glyph-name="?" unicode="&#x3F;" horiz-adv-x="499" d=" M261,208 L217,208 L240,353 Q320,367 386,416 Q453,465 453,537 Q453,594 410.5,629.5 Q368,665 297,665 Q209,665 127,610 L134,658 Q210,707 306,707 Q392,707 445,660 Q499,614 499,540 Q499,460 436,404 Q374,349 279,325 M175,35 Q175,52 185.5,62.5 Q196,73 213,73 Q238,73 248,49.5 Q258,26 240,8 Q222,-10 198.5,0 Q175,10 175,35"/> 
            <glyph glyph-name="@" unicode="&#x40;" horiz-adv-x="957" d=" M561,712 Q733,712 845,602 Q957,493 957,333 Q957,272 936,214 Q916,154 870,111 Q824,68 762,68 Q719,68 691,89.5 Q663,111 656,145 Q588,67 492,67 Q406,67 357,121 Q307,177 307,255 Q307,350 368,415 Q430,481 524,481 Q575,481 617.5,458 Q660,435 686,399 L696,466 L741,466 L697,194 Q695,172 695,169 Q695,133 716.5,113 Q738,93 774,93 Q846,93 889,169 Q933,246 933,333 Q933,480 831,584 Q730,688 561,688 Q445,691 341,630.5 Q237,570 174.5,464.5 Q112,359 114,239 Q114,80 218,-29 Q323,-138 482,-138 Q583,-138 685,-93 L681,-119 Q589,-162 481,-162 Q315,-162 202,-46 Q90,69 90,239 Q90,365 151,472 Q213,582 321,646 Q430,712 561,712 M653,192 L678,353 Q660,388 618,413.5 Q576,439 529,439 Q456,439 404,387 Q353,336 353,259 Q353,196 395,152 Q438,109 505,109 Q545,109 586,133 Q627,157 653,192"/> 
            <glyph glyph-name="A" unicode="&#x41;" horiz-adv-x="711" d=" M711,0 L662,0 L602,206 L209,206 L85,0 L33,0 L462,704 L505,704 M591,246 L476,644 L234,246"/> 
            <glyph glyph-name="B" unicode="&#x42;" horiz-adv-x="697" d=" M562,378 Q625,366 661,324 Q697,282 697,220 Q697,116 625,58 Q554,0 441,0 L110,0 L221,700 L510,700 Q592,700 639,660 Q686,620 686,553 Q686,490 654,444.5 Q622,399 562,378 M503,657 L260,657 L218,393 L462,393 Q536,393 588,432 Q640,471 640,544 Q640,596 604,626.5 Q568,657 503,657 M212,353 L162,43 L441,43 Q530,43 588,88 Q647,135 647,220 Q647,281 605,317 Q563,353 488,353"/> 
            <glyph glyph-name="C" unicode="&#x43;" horiz-adv-x="715" d=" M175,321 Q175,196 254,114 Q333,32 460,32 Q579,32 670,99 L662,47 Q573,-12 457,-12 Q310,-12 219,81 Q128,175 128,318 Q128,481 234,596 Q341,712 505,712 Q627,712 715,651 L708,605 Q621,668 504,668 Q366,668 270,567 Q175,466 175,321"/> 
            <glyph glyph-name="D" unicode="&#x44;" horiz-adv-x="761" d=" M221,700 L418,700 Q573,700 667,614 Q761,529 761,389 Q761,212 640,106 Q519,0 329,0 L110,0 M162,43 L344,43 Q506,43 609,137 Q713,232 713,388 Q713,510 632,583 Q550,657 410,657 L260,657"/> 
            <glyph glyph-name="E" unicode="&#x45;" horiz-adv-x="689" d=" M594,0 L110,0 L221,700 L689,700 L682,657 L260,657 L219,398 L568,398 L561,355 L212,355 L163,43 L601,43"/> 
            <glyph glyph-name="F" unicode="&#x46;" horiz-adv-x="684" d=" M156,0 L110,0 L221,700 L684,700 L677,657 L260,657 L218,389 L564,389 L557,346 L211,346"/> 
            <glyph glyph-name="G" unicode="&#x47;" horiz-adv-x="758" d=" M663,109 L711,401 L758,401 L707,87 Q598,-12 455,-12 Q310,-12 219,81 Q128,175 128,318 Q128,481 234,596 Q341,712 505,712 Q648,712 740,631 L733,585 Q639,668 504,668 Q366,668 270,567 Q175,466 175,320 Q175,195 254,113 Q334,32 460,32 Q577,32 663,109"/> 
            <glyph glyph-name="H" unicode="&#x48;" horiz-adv-x="770" d=" M156,0 L110,0 L221,700 L267,700 L219,398 L676,398 L724,700 L770,700 L659,0 L613,0 L669,355 L212,355"/> 
            <glyph glyph-name="I" unicode="&#x49;" horiz-adv-x="269" d=" M158,0 L112,0 L223,700 L269,700"/> 
            <glyph glyph-name="J" unicode="&#x4A;" horiz-adv-x="517" d=" M471,700 L517,700 L437,196 Q403,-12 195,-12 Q100,-12 42,38 L49,87 Q101,32 195,32 Q282,32 329.5,73.5 Q377,115 392,207"/> 
            <glyph glyph-name="K" unicode="&#x4B;" horiz-adv-x="688" d=" M156,0 L110,0 L221,700 L267,700 L218,391 L622,700 L688,700 L265,374 L632,0 L570,0 L213,364"/> 
            <glyph glyph-name="L" unicode="&#x4C;" horiz-adv-x="570" d=" M563,0 L110,0 L221,700 L267,700 L163,43 L570,43"/> 
            <glyph glyph-name="M" unicode="&#x4D;" horiz-adv-x="857" d=" M857,700 L746,0 L700,0 L800,627 L491,293 L460,293 L256,628 L156,0 L110,0 L221,700 L264,700 L480,343 L807,700"/> 
            <glyph glyph-name="N" unicode="&#x4E;" horiz-adv-x="784" d=" M674,0 L633,0 L254,624 L156,0 L110,0 L220,700 L261,700 L640,76 L738,700 L784,700"/> 
            <glyph glyph-name="O" unicode="&#x4F;" horiz-adv-x="828" d=" M501,712 Q648,712 736,618 Q826,524 826,381 Q828,278 780,187 Q732,96 644.5,41.5 Q557,-13 454,-12 Q308,-12 218,82 Q128,176 128,320 Q128,481 234,596 Q341,712 501,712 M456,32 Q589,32 684,133 Q779,236 779,380 Q779,504 701,586 Q625,668 499,668 Q364,668 269,567 Q175,467 175,321 Q175,196 253,114 Q331,32 456,32"/> 
            <glyph glyph-name="P" unicode="&#x50;" horiz-adv-x="698" d=" M110,0 L221,700 L500,700 Q594,700 646,655 Q698,610 698,534 Q698,440 630,381 Q563,323 460,323 L208,323 L156,0 M214,366 L463,366 Q540,366 595,408 Q651,452 651,528 Q651,589 610.5,623 Q570,657 495,657 L260,657"/> 
            <glyph glyph-name="Q" unicode="&#x51;" horiz-adv-x="826" d=" M501,712 Q648,712 736,618 Q826,524 826,381 Q826,242 744,133 Q663,25 533,-3 Q592,-72 658,-72 Q708,-72 745,-48 L737,-95 Q694,-115 649,-115 Q601,-115 560.5,-89.5 Q520,-64 476,-11 Q469,-12 454,-12 Q308,-12 218,82 Q128,176 128,320 Q128,481 234,596 Q341,712 501,712 M456,32 Q589,32 684,133 Q779,236 779,380 Q779,504 701,586 Q625,668 499,668 Q364,668 269,567 Q175,467 175,321 Q175,196 253,114 Q331,32 456,32"/> 
            <glyph glyph-name="R" unicode="&#x52;" horiz-adv-x="713" d=" M519,332 L691,0 L638,0 L468,329 L209,329 L156,0 L110,0 L221,700 L518,700 Q609,700 661,655.5 Q713,611 713,536 Q713,455 660,400.5 Q607,346 519,332 M512,657 L260,657 L215,372 L483,372 Q560,372 612,415 Q666,458 666,531 Q666,591 626,624 Q586,657 512,657"/> 
            <glyph glyph-name="S" unicode="&#x53;" horiz-adv-x="613" d=" M613,651 L606,605 Q512,668 388,668 Q309,668 247,631 Q185,595 185,524 Q185,495 202,470 Q212,456 247,434 Q261,425 310,409 L346,398 L381,388 L443,367 Q464,360 498,343 Q544,321 566.5,288.5 Q589,256 593,204 Q593,103 511,45 Q430,-12 319,-12 Q243,-12 166,11 Q93,33 57,63 L66,114 Q99,83 170,57 Q239,32 320,32 Q370,32 420,47 Q469,63 506,102 Q544,143 544,197 Q544,250 507,281 Q492,294 462,308 Q423,327 350,348 Q298,362 265,375 Q234,388 201,406 Q138,445 138,519 Q138,582 175.5,627 Q213,672 269,692 Q325,712 391,712 Q452,712 512.5,695.5 Q573,679 613,651"/> 
            <glyph glyph-name="T" unicode="&#x54;" horiz-adv-x="696" d=" M334,0 L288,0 L392,657 L141,657 L148,700 L696,700 L689,657 L438,657"/> 
            <glyph glyph-name="U" unicode="&#x55;" horiz-adv-x="763" d=" M654,302 L717,700 L763,700 L697,285 Q674,143 592,65.5 Q510,-12 388,-12 Q271,-12 203,53 Q135,118 135,235 Q135,265 145,332 L204,700 L250,700 L191,324 Q182,265 182,241 Q182,142 236.5,87 Q291,32 390,32 Q496,32 565,102.5 Q634,173 654,302"/> 
            <glyph glyph-name="V" unicode="&#x56;" horiz-adv-x="819" d=" M381,62 L765,700 L819,700 L394,-4 L352,-4 L149,700 L198,700"/> 
            <glyph glyph-name="W" unicode="&#x57;" horiz-adv-x="1106" d=" M319,74 L609,701 L649,701 L742,76 L1053,700 L1106,700 L751,-4 L709,-4 L617,616 L328,-4 L288,-4 L155,700 L204,700"/> 
            <glyph glyph-name="X" unicode="&#x58;" horiz-adv-x="727" d=" M609,0 L406,344 L96,0 L37,0 L382,382 L194,700 L247,700 L413,419 L667,700 L727,700 L437,381 L663,0"/> 
            <glyph glyph-name="Y" unicode="&#x59;" horiz-adv-x="729" d=" M378,369 L673,700 L729,700 L397,325 L346,0 L299,0 L350,324 L136,700 L189,700"/> 
            <glyph glyph-name="Z" unicode="&#x5A;" horiz-adv-x="667" d=" M667,700 L662,667 L127,43 L592,43 L585,0 L55,0 L60,34 L597,657 L172,657 L178,700"/> 
            <glyph glyph-name="[" unicode="&#x5B;" horiz-adv-x="441" d=" M297,-206 L67,-206 L211,706 L441,706 L435,666 L248,666 L116,-166 L303,-166"/> 
            <glyph glyph-name="\" unicode="&#x5C;" horiz-adv-x="462" d=" M189,792 L462,-140 L415,-140 L142,792"/> 
            <glyph glyph-name="]" unicode="&#x5D;" horiz-adv-x="381" d=" M151,706 L381,706 L237,-206 L8,-206 L13,-166 L200,-166 L332,666 L145,666"/> 
            <glyph glyph-name="^" unicode="&#x5E;" horiz-adv-x="496" d=" M341,708 L384,708 L496,349 L452,349 L358,662 L162,349 L115,349"/> 
            <glyph glyph-name="_" unicode="&#x5F;" horiz-adv-x="586" d=" M581,-118 L-10,-118 L-6,-84 L586,-84"/> 
            <glyph glyph-name="`" unicode="&#x60;" horiz-adv-x="429" d=" M429,577 L383,577 L295,707 L354,707"/> 
            <glyph glyph-name="a" unicode="&#x61;" horiz-adv-x="567" d=" M164,406 L172,451 Q243,489 345,489 Q426,489 478,452 Q531,416 531,340 Q531,318 522,260 L500,122 Q496,99 496,82 Q496,35 542,35 Q558,35 567,39 L561,2 Q549,-4 526,-4 Q493,-4 472,16.5 Q451,37 451,72 Q366,-12 246,-12 Q168,-12 119,28 Q69,69 69,135 Q69,215 131,257 Q192,300 276,300 Q389,300 474,242 L481,286 Q486,321 486,335 Q486,447 337,447 Q238,447 164,406 M455,123 L467,200 Q389,260 283,260 Q213,260 164,229 Q115,198 115,139 Q115,87 155,58.5 Q195,30 262,30 Q316,30 367.5,56.5 Q419,83 455,123"/> 
            <glyph glyph-name="b" unicode="&#x62;" horiz-adv-x="614" d=" M147,90 L134,0 L89,0 L200,700 L245,700 L196,402 Q275,489 390,489 Q492,489 553,423 Q614,358 614,262 Q614,148 539,68 Q465,-12 351,-12 Q285,-12 231.5,16.5 Q178,45 147,90 M380,447 Q323,447 268,416 Q213,385 186,338 L157,142 Q180,98 230,64 Q282,30 347,30 Q438,30 502,96 Q567,163 567,258 Q567,340 516,393 Q465,447 380,447"/> 
            <glyph glyph-name="c" unicode="&#x63;" horiz-adv-x="519" d=" M519,445 L513,402 Q450,447 367,447 Q270,447 202,381 Q136,315 136,219 Q136,137 191,83 Q247,30 336,30 Q407,30 475,69 L469,21 Q406,-12 327,-12 Q218,-12 153,54 Q90,120 90,217 Q90,333 168,411 Q248,489 362,489 Q454,489 519,445"/> 
            <glyph glyph-name="d" unicode="&#x64;" horiz-adv-x="651" d=" M557,386 L606,700 L651,700 L540,0 L495,0 L508,74 Q431,-12 313,-12 Q212,-12 150,53 Q90,119 90,215 Q90,329 164,409 Q239,489 353,489 Q419,489 472.5,460 Q526,431 557,386 M325,30 Q381,30 436,61 Q491,92 518,139 L547,334 Q526,379 474,413 Q424,447 358,447 Q266,447 201,381 Q137,316 137,219 Q137,137 188,83 Q241,30 325,30"/> 
            <glyph glyph-name="e" unicode="&#x65;" horiz-adv-x="553" d=" M339,30 Q416,30 487,74 L481,28 Q423,-12 333,-12 Q228,-12 159,51 Q90,114 90,215 Q90,325 163,407 Q236,489 350,489 Q448,489 501,426 Q553,364 553,281 Q553,253 550,232 L135,232 L135,216 Q135,129 193,80 Q252,30 339,30 M346,447 Q269,447 211,397 Q153,347 140,271 L508,271 Q509,276 509,288 Q509,351 467,399 Q426,447 346,447"/> 
            <glyph glyph-name="f" unicode="&#x66;" horiz-adv-x="455" d=" M242,436 L173,0 L128,0 L197,436 L97,436 L104,477 L203,477 L218,572 Q228,635 266.5,671 Q305,707 365,707 Q417,707 455,687 L448,644 Q410,665 368,665 Q325,665 297.5,638 Q270,611 262,562 L248,477 L422,477 L415,436"/> 
            <glyph glyph-name="g" unicode="&#x67;" horiz-adv-x="615" d=" M557,386 L570,477 L615,477 L543,11 Q526,-97 453.5,-150.5 Q381,-204 263,-204 Q214,-204 162.5,-190.5 Q111,-177 77,-157 L85,-112 Q164,-162 266,-162 Q466,-162 498,17 L508,76 Q433,-8 314,-8 Q212,-8 150,57 Q90,123 90,218 Q90,329 164,409 Q239,489 353,489 Q419,489 473.5,460 Q528,431 557,386 M518,141 L548,335 Q525,381 474,413 Q422,447 358,447 Q266,447 201,381 Q137,317 137,221 Q137,140 190,87 Q243,34 328,34 Q384,34 436,64 Q490,96 518,141"/> 
            <glyph glyph-name="h" unicode="&#x68;" horiz-adv-x="570" d=" M561,251 L522,0 L477,0 L517,254 Q524,297 524,326 Q524,385 488.5,416 Q453,447 390,447 Q332,447 276,414 Q222,383 188,340 L134,0 L89,0 L200,700 L245,700 L197,398 Q288,489 404,489 Q479,489 524.5,446 Q570,403 570,331 Q570,320 561,251"/> 
            <glyph glyph-name="i" unicode="&#x69;" horiz-adv-x="267" d=" M148,0 L103,0 L179,477 L224,477 M225,608 Q201,607 191.5,626.5 Q182,646 192,665.5 Q202,685 225,684 Q248,685 257.5,665.5 Q267,646 257.5,626.5 Q248,607 225,608"/> 
            <glyph glyph-name="j" unicode="&#x6A;" horiz-adv-x="269" d=" M-9,-204 Q-56,-204 -83,-186 L-76,-143 Q-48,-162 -10,-162 Q78,-162 94,-59 L179,477 L224,477 L138,-67 Q127,-137 87.5,-170.5 Q48,-204 -9,-204 M198,619 Q181,635 188.5,656 Q196,677 215,682.5 Q234,688 252,673 Q269,657 261.5,636 Q254,615 235,609.5 Q216,604 198,619"/> 
            <glyph glyph-name="k" unicode="&#x6B;" horiz-adv-x="524" d=" M134,0 L89,0 L200,700 L245,700 L178,273 L457,477 L524,477 L223,256 L486,0 L424,0 L173,245"/> 
            <glyph glyph-name="l" unicode="&#x6C;" horiz-adv-x="258" d=" M196,700 L241,700 L150,122 Q145,84 145,76 Q145,30 198,30 Q232,30 258,44 L252,1 Q225,-12 183,-12 Q99,-12 99,68 Q99,92 104,117"/> 
            <glyph glyph-name="m" unicode="&#x6D;" horiz-adv-x="880" d=" M89,0 L164,477 L209,477 L197,401 Q270,489 384,489 Q444,489 483,462 Q522,435 530,387 Q564,432 617,460.5 Q670,489 730,489 Q800,489 840,449 Q880,409 880,339 Q880,314 873,275 L830,0 L785,0 L829,282 Q834,324 834,330 Q834,447 715,447 Q664,447 614,416 Q564,385 533,337 Q531,305 527,281 L483,0 L438,0 L482,279 Q488,310 488,334 Q488,407 443,428 Q409,447 369,447 Q319,447 269,417.5 Q219,388 188,342 L134,0"/> 
            <glyph glyph-name="n" unicode="&#x6E;" horiz-adv-x="570" d=" M89,0 L165,477 L210,477 L197,398 Q288,489 404,489 Q479,489 524.5,446 Q570,403 570,331 Q570,320 561,251 L522,0 L477,0 L517,254 Q524,297 524,326 Q524,385 488.5,416 Q453,447 390,447 Q332,447 276,414 Q222,383 188,340 L134,0"/> 
            <glyph glyph-name="o" unicode="&#x6F;" horiz-adv-x="594" d=" M356,489 Q464,489 529,421 Q594,353 594,255 Q594,145 518,66 Q442,-12 329,-12 Q221,-12 155,56 Q90,124 90,222 Q90,333 166,410 Q242,489 356,489 M329,32 Q419,32 484,97 Q548,162 548,256 Q548,338 494,391 Q442,445 355,445 Q264,445 200,379 Q136,315 136,221 Q136,140 189,85 Q244,32 329,32"/> 
            <glyph glyph-name="p" unicode="&#x70;" horiz-adv-x="614" d=" M147,90 L102,-200 L57,-200 L164,477 L209,477 L196,402 Q272,489 390,489 Q493,489 553,423 Q614,359 614,262 Q614,148 539,68 Q465,-12 351,-12 Q285,-12 231.5,16.5 Q178,45 147,90 M380,447 Q323,447 268,416 Q212,384 186,339 L157,143 Q179,98 230,64 Q282,30 347,30 Q438,30 502,96 Q567,163 567,258 Q567,340 516,393 Q465,447 380,447"/> 
            <glyph glyph-name="q" unicode="&#x71;" horiz-adv-x="615" d=" M557,386 L570,477 L615,477 L508,-200 L463,-200 L508,74 Q431,-12 313,-12 Q212,-12 150,53 Q90,119 90,215 Q90,329 164,409 Q239,489 353,489 Q419,489 472.5,460 Q526,431 557,386 M325,30 Q381,30 436,61 Q491,92 518,139 L547,334 Q526,379 474,413 Q424,447 358,447 Q266,447 201,381 Q137,316 137,219 Q137,137 188,83 Q241,30 325,30"/> 
            <glyph glyph-name="r" unicode="&#x72;" horiz-adv-x="404" d=" M134,0 L89,0 L164,477 L209,477 L194,377 Q228,425 285.5,456.5 Q343,488 404,489 L397,443 Q330,443 272,405 Q216,368 184,316"/> 
            <glyph glyph-name="s" unicode="&#x73;" horiz-adv-x="480" d=" M480,435 L474,389 Q398,447 293,447 Q260,448 230.5,440 Q201,432 178.5,410 Q156,388 155,356 Q155,329 181,305 Q192,297 213,288 Q243,276 295,260 Q366,238 408,213 Q458,184 458,131 Q458,60 398,24 Q340,-12 259,-12 Q197,-12 139.5,6.5 Q82,25 50,51 L57,99 Q142,30 260,30 Q317,30 366,53 Q414,76 414,127 Q414,159 383,179 Q352,199 276,221 Q207,242 165,265 Q110,296 110,353 Q110,420 164,454 Q219,489 295,489 Q405,489 480,435"/> 
            <glyph glyph-name="t" unicode="&#x74;" horiz-adv-x="448" d=" M173,146 L218,436 L96,436 L103,477 L225,477 L249,631 L294,631 L270,477 L448,477 L442,436 L263,436 L220,154 Q218,137 216,121 Q214,105 213,98 L212,92 Q212,30 289,30 Q328,30 374,55 L368,10 Q331,-12 274,-12 Q165,-12 165,81 Q165,106 173,146"/> 
            <glyph glyph-name="u" unicode="&#x75;" horiz-adv-x="588" d=" M588,477 L512,0 L467,0 L480,79 Q389,-12 273,-12 Q198,-12 152.5,31 Q107,74 107,146 Q107,157 116,226 L155,477 L200,477 L160,223 Q153,180 153,151 Q153,92 188.5,61 Q224,30 287,30 Q345,30 401,62 Q456,94 489,137 L543,477"/> 
            <glyph glyph-name="v" unicode="&#x76;" horiz-adv-x="595" d=" M283,58 L543,477 L595,477 L296,-4 L253,-4 L105,477 L154,477"/> 
            <glyph glyph-name="w" unicode="&#x77;" horiz-adv-x="844" d=" M581,67 L795,477 L844,477 L593,-4 L553,-4 L471,409 L257,-4 L218,-4 L119,477 L164,477 L249,68 L461,479 L499,479"/> 
            <glyph glyph-name="x" unicode="&#x78;" horiz-adv-x="559" d=" M502,477 L559,477 L341,253 L513,0 L461,0 L310,222 L95,0 L36,0 L287,256 L139,477 L191,477 L318,288"/> 
            <glyph glyph-name="y" unicode="&#x79;" horiz-adv-x="572" d=" M521,477 L572,477 L260,-57 Q174,-204 73,-204 Q37,-204 8,-187 L14,-145 Q42,-162 73,-162 Q122,-162 161,-119 Q199,-80 256,19 L101,477 L149,477 L286,72"/> 
            <glyph glyph-name="z" unicode="&#x7A;" horiz-adv-x="503" d=" M43,31 L430,436 L121,436 L128,477 L503,477 L498,444 L113,41 L459,41 L453,0 L38,0"/> 
            <glyph glyph-name="{" unicode="&#x7B;" horiz-adv-x="419" d=" M150,250 Q197,230 197,165 Q197,136 191,101 L167,-54 Q161,-96 161,-102 Q161,-166 240,-166 L281,-166 L274,-206 L226,-206 Q175,-206 146.5,-180.5 Q118,-155 118,-109 Q118,-91 124,-55 L146,91 Q153,139 153,156 Q153,225 91,231 L98,269 Q142,274 163,302 Q171,312 180,334 Q191,367 197,409 L223,578 Q233,638 272,672 Q311,706 371,706 L419,706 L412,666 L371,666 Q280,666 266,577 L238,399 Q228,333 209,299 Q190,265 150,250"/> 
            <glyph glyph-name="|" unicode="&#x7C;" horiz-adv-x="289" d=" M151,-111 L108,-111 L246,760 L289,760"/> 
            <glyph glyph-name="}" unicode="&#x7D;" horiz-adv-x="336" d=" M277,250 Q230,270 230,335 Q230,364 236,399 L260,554 Q266,596 266,602 Q266,666 187,666 L146,666 L153,706 L201,706 Q252,706 280.5,680.5 Q309,655 309,609 Q309,591 303,555 L281,409 Q274,361 274,344 Q274,275 336,269 L329,231 Q286,227 263,198 Q255,187 247,165 Q236,133 230,91 L204,-78 Q194,-138 155,-172 Q116,-206 56,-206 L8,-206 L15,-166 L56,-166 Q147,-166 161,-77 L189,101 Q199,167 218,201 Q237,235 277,250"/> 
            <glyph glyph-name="~" unicode="&#x7E;" horiz-adv-x="538" d=" M430,253 Q494,253 538,296 L530,249 Q499,212 423,212 Q384,212 316,236 Q250,261 208,261 Q144,261 100,218 L108,265 Q143,303 215,303 Q256,303 322,278 Q388,253 430,253"/> 
            <glyph glyph-name="¡" unicode="&#xA1;" horiz-adv-x="245" d=" M174,415 Q157,431 164.5,452 Q172,473 191,478.5 Q210,484 228,469 Q245,453 237.5,432 Q230,411 211,405.5 Q192,400 174,415 M194,268 L126,-200 L70,-200 L152,268"/> 
            <glyph glyph-name="¢" unicode="&#xA2;" horiz-adv-x="519" d=" M327,-12 L324,-12 L307,-117 L266,-117 L283,-9 Q193,4 141,67 Q90,132 90,217 Q90,333 168,411 Q248,489 362,489 L379,594 L420,594 L402,486 Q469,479 519,445 L513,402 Q450,447 367,447 Q270,447 202,381 Q136,315 136,219 Q136,137 191,83 Q247,30 336,30 Q407,30 475,69 L469,21 Q406,-12 327,-12"/> 
            <glyph glyph-name="£" unicode="&#xA3;" horiz-adv-x="622" d=" M529,347 L522,304 L227,304 L194,95 Q188,60 164,43 L527,43 L520,0 L65,0 L71,43 L95,43 Q140,43 152,120 L181,304 L113,304 L120,347 L188,347 L211,491 Q228,598 294.5,655 Q361,712 466,712 Q561,712 622,666 L614,618 Q558,668 463,668 Q377,668 323.5,621 Q270,574 256,485 L234,347"/> 
            <glyph glyph-name="¤" unicode="&#xA4;" horiz-adv-x="553" d=" M208,197 L144,133 L115,160 L179,225 Q136,280 136,351 Q136,423 179,476 L115,541 L144,569 L208,505 Q260,550 334,550 Q408,550 459,505 L524,569 L553,541 L487,476 Q532,424 532,351 Q532,281 488,225 L553,160 L524,133 L459,196 Q406,152 334,152 Q260,152 208,197 M334,192 Q400,192 445,238 Q490,285 490,351 Q490,418 445,464 Q400,510 334,510 Q267,510 222,464 Q177,418 177,351 Q177,285 222,238 Q267,192 334,192"/> 
            <glyph glyph-name="¥" unicode="&#xA5;" horiz-adv-x="692" d=" M326,0 L280,0 L304,149 L89,149 L95,192 L310,192 L329,306 L114,306 L120,349 L317,349 L136,700 L187,700 L358,367 L636,700 L692,700 L398,349 L597,349 L591,306 L375,306 L356,192 L572,192 L566,149 L350,149"/> 
            <glyph glyph-name="¦" unicode="&#xA6;" horiz-adv-x="289" d=" M151,-111 L108,-111 L164,242 L207,242 M233,407 L190,407 L246,760 L289,760"/> 
            <glyph glyph-name="§" unicode="&#xA7;" horiz-adv-x="635" d=" M406,668 Q369,668 331,660 Q297,653 266,626 Q236,600 236,563 Q236,533 268,501 Q282,490 308,477 Q323,470 353,457 L409,436 Q513,399 561.5,359 Q610,319 610,264 Q610,207 570.5,166.5 Q531,126 465,107 Q535,64 535,2 Q535,-52 501,-87 Q440,-152 315,-152 Q187,-152 90,-85 L97,-38 Q194,-108 319,-108 Q356,-108 393,-100 Q432,-91 460.5,-65 Q489,-39 489,-2 Q489,30 456,59 Q445,70 417,84 Q397,94 371,104 Q350,113 316,125 Q212,162 163.5,202 Q115,242 115,297 Q115,354 154.5,394.5 Q194,435 260,454 Q190,497 190,559 Q190,636 255,674 Q320,712 410,712 Q538,712 635,645 L628,599 Q529,668 406,668 M385,401 Q382,402 376.5,404 Q371,406 361.5,409 Q352,412 344,415 L303,431 Q253,424 206,387 Q160,353 160,302 Q160,270 190,241 Q218,214 250.5,197 Q283,180 340,160 L380,145 L422,130 Q471,137 519,173 Q565,209 565,259 Q565,292 535,320 Q507,347 474.5,364 Q442,381 385,401"/> 
            <glyph glyph-name="¨" unicode="&#xA8;" horiz-adv-x="498" d=" M431,619 Q415,634 422.5,654 Q430,674 448,679 Q466,684 482,670 Q498,656 491,636 Q484,616 466,610.5 Q448,605 431,619 M241,619 Q225,634 232.5,654 Q240,674 258,679 Q276,684 292,670 Q308,656 301,636 Q294,616 276,610.5 Q258,605 241,619"/> 
            <glyph glyph-name="©" unicode="&#xA9;" horiz-adv-x="854" d=" M514,158 Q433,158 378,213 Q324,268 324,350 Q324,432 378,487 Q433,542 514,542 Q571,542 615,516 L615,474 Q569,503 514,503 Q451,503 409,459 Q367,416 367,350 Q367,284 409,240 Q452,197 515,197 Q579,197 625,234 L625,192 Q582,158 514,158 M491,-12 Q340,-12 235,93 Q130,200 130,350 Q130,499 236,605 Q343,712 492,712 Q643,712 748,606 Q854,500 854,349 Q854,201 747,94 Q641,-12 491,-12 M491,12 Q633,12 731,110 Q830,209 830,349 Q830,490 731,589 Q634,688 492,688 Q351,688 252,589 Q154,489 154,349 Q154,210 252,110 Q350,12 491,12"/> 
            <glyph glyph-name="ª" unicode="&#xAA;" horiz-adv-x="531" d=" M439,424 L448,479 Q389,523 310,523 Q255,523 220,500 Q185,477 185,434 Q185,396 215,374.5 Q245,353 294,353 Q334,353 373,373.5 Q412,394 439,424 M510,358 Q523,358 531,362 L525,328 Q513,322 496,322 Q469,322 452.5,337.5 Q436,353 436,380 Q371,316 281,316 Q220,316 181.5,348 Q143,380 143,431 Q143,494 191,525 Q239,558 304,558 Q385,558 454,513 L459,544 Q463,564 463,584 Q463,668 351,668 Q276,668 217,636 L224,676 Q279,705 357,705 Q423,705 463,675.5 Q503,646 503,589 Q503,571 499,548 L481,434 Q476,402 476,392 Q476,358 510,358"/> 
            <glyph glyph-name="«" unicode="&#xAB;" horiz-adv-x="540" d=" M250,42 L200,42 L73,226 L78,253 L262,435 L316,435 L117,236 M474,42 L424,42 L297,226 L302,253 L486,435 L540,435 L341,236"/> 
            <glyph glyph-name="¬" unicode="&#xAC;" horiz-adv-x="540" d=" M506,157 L464,157 L491,333 L119,333 L126,374 L540,374"/> 
            <glyph glyph-name="­" unicode="&#xAD;" horiz-adv-x="419" d=" M411,249 L142,249 L149,290 L419,290"/> 
            <glyph glyph-name="®" unicode="&#xAE;" horiz-adv-x="836" d=" M385,168 L343,168 L343,539 L512,539 Q566,539 598,511 Q630,483 630,437 Q630,398 607,371.5 Q584,345 543,338 L664,168 L616,168 L498,334 L385,334 M385,503 L385,370 L511,370 Q547,370 567,387.5 Q587,405 587,436 Q587,468 567,485.5 Q547,503 511,503 M473,-12 Q322,-12 217,93 Q112,200 112,350 Q112,499 218,605 Q325,712 474,712 Q625,712 730,606 Q836,500 836,349 Q836,201 729,94 Q623,-12 473,-12 M473,12 Q615,12 713,110 Q812,209 812,349 Q812,490 713,589 Q616,688 474,688 Q333,688 234,589 Q136,489 136,349 Q136,210 234,110 Q332,12 473,12"/> 
            <glyph glyph-name="¯" unicode="&#xAF;" horiz-adv-x="486" d=" M480,625 L250,625 L255,663 L486,663"/> 
            <glyph glyph-name="°" unicode="&#xB0;" horiz-adv-x="457" d=" M307,673 Q262,673 230.5,641 Q199,609 199,563 Q199,518 230.5,486 Q262,454 307,454 Q353,454 384.5,486 Q416,518 416,563 Q416,609 384.5,641 Q353,673 307,673 M307,712 Q369,712 413,668 Q457,624 457,563 Q457,502 413,458 Q370,415 307,415 Q245,415 202,458 Q158,502 158,563 Q158,624 202,668 Q246,712 307,712"/> 
            <glyph glyph-name="±" unicode="&#xB1;" horiz-adv-x="597" d=" M350,188 L309,188 L337,360 L123,360 L130,402 L343,402 L370,575 L412,575 L385,402 L597,402 L590,360 L378,360 M544,68 L77,68 L84,109 L550,109"/> 
            <glyph glyph-name="²" unicode="&#xB2;" horiz-adv-x="380" d=" M141,620 L148,666 Q198,705 261,705 Q314,705 347,675 Q380,645 380,599 Q380,562 355.5,528 Q331,494 278,450 L165,359 L363,359 L358,322 L96,322 L100,353 L245,471 Q295,511 315.5,537.5 Q336,564 336,593 Q336,626 313,646 Q290,666 254,666 Q197,666 141,620"/> 
            <glyph glyph-name="³" unicode="&#xB3;" horiz-adv-x="378" d=" M378,700 L373,669 L244,557 Q291,553 322.5,524.5 Q354,496 354,452 Q354,389 309,353 Q264,317 199,317 Q127,317 80,349 L86,390 Q129,355 196,355 Q244,355 278,381 Q312,407 312,450 Q312,485 284.5,505 Q257,525 214,525 Q194,525 178,522 L182,550 L312,663 L141,663 L147,700"/> 
            <glyph glyph-name="´" unicode="&#xB4;" horiz-adv-x="462" d=" M333,577 L283,577 L400,707 L462,707"/> 
            <glyph glyph-name="µ" unicode="&#xB5;" horiz-adv-x="606" d=" M606,477 L530,0 L485,0 L498,79 Q407,-12 291,-12 Q195,-12 151,53 L102,-254 L57,-254 L173,477 L218,477 L178,223 Q171,180 171,151 Q171,92 206.5,61 Q242,30 305,30 Q363,30 419,62 Q474,94 507,137 L561,477"/> 
            <glyph glyph-name="¶" unicode="&#xB6;" horiz-adv-x="509" d=" M376,700 L509,700 L399,0 L353,0 L404,327 L318,327 Q229,327 179,370.5 Q129,414 129,486 Q129,585 199,642 Q269,700 376,700"/> 
            <glyph glyph-name="·" unicode="&#xB7;" horiz-adv-x="208" d=" M137,353 Q120,369 127.5,390 Q135,411 154,416.5 Q173,422 191,407 Q208,391 200.5,370 Q193,349 174,343.5 Q155,338 137,353"/> 
            <glyph glyph-name="¸" unicode="&#xB8;" horiz-adv-x="282" d=" M188,-127 L131,-127 L240,5 L282,5"/> 
            <glyph glyph-name="¹" unicode="&#xB9;" horiz-adv-x="284" d=" M225,322 L182,322 L234,654 L120,591 L127,635 L244,700 L284,700"/> 
            <glyph glyph-name="º" unicode="&#xBA;" horiz-adv-x="501" d=" M313,705 Q396,705 449,652 Q501,600 501,524 Q501,440 441,378 Q383,317 293,317 Q211,317 158,370 Q107,422 107,499 Q107,583 166,644 Q224,705 313,705 M294,356 Q363,356 409,405 Q456,455 456,525 Q456,586 416,625.5 Q376,665 314,665 Q246,665 198,616 Q151,567 151,498 Q151,437 191,396.5 Q231,356 294,356"/> 
            <glyph glyph-name="»" unicode="&#xBB;" horiz-adv-x="551" d=" M374,435 L424,435 L551,251 L546,224 L362,42 L308,42 L507,241 M150,435 L200,435 L327,251 L322,224 L138,42 L84,42 L283,241"/> 
            <glyph glyph-name="¼" unicode="&#xBC;" horiz-adv-x="731" d=" M121,0 L639,700 L688,700 L170,0 M225,322 L182,322 L234,654 L120,591 L127,635 L244,700 L284,700 M647,0 L605,0 L621,103 L420,103 L424,135 L666,378 L706,378 L669,139 L731,139 L725,103 L663,103 M656,317 L478,139 L627,139"/> 
            <glyph glyph-name="½" unicode="&#xBD;" horiz-adv-x="780" d=" M121,0 L639,700 L688,700 L170,0 M225,322 L182,322 L234,654 L120,591 L127,635 L244,700 L284,700 M541,298 L548,344 Q598,383 661,383 Q714,383 747,353 Q780,323 780,277 Q780,240 755.5,206 Q731,172 678,128 L565,37 L763,37 L758,0 L496,0 L500,31 L645,149 Q695,189 715.5,215.5 Q736,242 736,271 Q736,304 713,324 Q690,344 654,344 Q597,344 541,298"/> 
            <glyph glyph-name="¾" unicode="&#xBE;" horiz-adv-x="779" d=" M695,0 L653,0 L669,103 L468,103 L472,135 L714,378 L754,378 L717,139 L779,139 L773,103 L711,103 M704,317 L526,139 L675,139 M378,700 L373,669 L244,557 Q291,553 322.5,524.5 Q354,496 354,452 Q354,389 309,353 Q264,317 199,317 Q127,317 80,349 L86,390 Q129,355 196,355 Q244,355 278,381 Q312,407 312,450 Q312,485 284.5,505 Q257,525 214,525 Q194,525 178,522 L182,550 L312,663 L141,663 L147,700 M167,0 L685,700 L734,700 L216,0"/> 
            <glyph glyph-name="¿" unicode="&#xBF;" horiz-adv-x="425" d=" M287,268 L330,268 L310,144 Q260,135 214,114 Q165,92 132,51.5 Q99,11 99,-35 Q99,-92 141,-127 Q183,-162 254,-162 Q343,-162 425,-107 L417,-155 Q344,-204 246,-204 Q161,-204 106,-157 Q52,-111 52,-38 Q52,42 114,95 Q178,148 271,172 M306,415 Q289,431 296.5,452 Q304,473 323,478.5 Q342,484 360,469 Q377,453 369.5,432 Q362,411 343,405.5 Q324,400 306,415"/> 
            <glyph glyph-name="À" unicode="&#xC0;" horiz-adv-x="711" d=" M711,0 L662,0 L602,206 L209,206 L85,0 L33,0 L462,704 L505,704 M591,246 L476,644 L234,246 M512,763 L466,763 L378,893 L437,893"/> 
            <glyph glyph-name="Á" unicode="&#xC1;" horiz-adv-x="711" d=" M711,0 L662,0 L602,206 L209,206 L85,0 L33,0 L462,704 L505,704 M591,246 L476,644 L234,246 M522,763 L473,763 L590,893 L651,893"/> 
            <glyph glyph-name="Â" unicode="&#xC2;" horiz-adv-x="711" d=" M711,0 L662,0 L602,206 L209,206 L85,0 L33,0 L462,704 L505,704 M591,246 L476,644 L234,246 M487,893 L535,893 L621,763 L574,763 L508,860 L410,763 L358,763"/> 
            <glyph glyph-name="Ã" unicode="&#xC3;" horiz-adv-x="711" d=" M711,0 L662,0 L602,206 L209,206 L85,0 L33,0 L462,704 L505,704 M591,246 L476,644 L234,246 M619,873 L656,873 Q648,829 624,803 Q600,777 566,777 Q538,777 495,808 Q454,839 433,839 Q396,839 384,783 L347,783 Q355,826 379.5,851.5 Q404,877 437,877 Q465,877 508,846 Q551,815 569,815 Q605,815 619,873"/> 
            <glyph glyph-name="Ä" unicode="&#xC4;" horiz-adv-x="711" d=" M711,0 L662,0 L602,206 L209,206 L85,0 L33,0 L462,704 L505,704 M591,246 L476,644 L234,246 M572,799 Q556,814 563.5,834 Q571,854 589,859 Q607,864 623,850 Q639,836 632,816 Q625,796 607,790.5 Q589,785 572,799 M382,799 Q366,814 373.5,834 Q381,854 399,859 Q417,864 433,850 Q449,836 442,816 Q435,796 417,790.5 Q399,785 382,799"/> 
            <glyph glyph-name="Å" unicode="&#xC5;" horiz-adv-x="711" d=" M711,0 L662,0 L602,206 L209,206 L85,0 L33,0 L462,704 L505,704 M591,246 L476,644 L234,246 M498,735 Q458,735 430.5,762.5 Q403,790 403,828 Q403,866 430.5,893.5 Q458,921 498,921 Q535,921 562,893.5 Q589,866 589,828 Q589,790 562,762.5 Q535,735 498,735 M498,768 Q523,768 540.5,785.5 Q558,803 558,828 Q558,854 540.5,871.5 Q523,889 498,889 Q472,889 454,871.5 Q436,854 436,828 Q436,803 454,785.5 Q472,768 498,768"/> 
            <glyph glyph-name="Æ" unicode="&#xC6;" horiz-adv-x="1059" d=" M964,0 L483,0 L516,206 L218,206 L55,0 L-1,0 L553,700 L1059,700 L1052,657 L634,657 L593,398 L938,398 L931,355 L586,355 L537,43 L971,43 M588,657 L577,657 L250,246 L522,246"/> 
            <glyph glyph-name="Ç" unicode="&#xC7;" horiz-adv-x="715" d=" M369,-127 L312,-127 L409,-9 Q280,8 204,97 Q128,188 128,318 Q128,481 234,596 Q341,712 505,712 Q627,712 715,651 L708,605 Q621,668 504,668 Q366,668 270,567 Q175,466 175,321 Q175,196 254,114 Q333,32 460,32 Q579,32 670,99 L662,47 Q573,-12 457,-12 L451,-12"/> 
            <glyph glyph-name="È" unicode="&#xC8;" horiz-adv-x="689" d=" M594,0 L110,0 L221,700 L689,700 L682,657 L260,657 L219,398 L568,398 L561,355 L212,355 L163,43 L601,43 M497,763 L451,763 L363,893 L422,893"/> 
            <glyph glyph-name="É" unicode="&#xC9;" horiz-adv-x="689" d=" M594,0 L110,0 L221,700 L689,700 L682,657 L260,657 L219,398 L568,398 L561,355 L212,355 L163,43 L601,43 M469,763 L420,763 L537,893 L598,893"/> 
            <glyph glyph-name="Ê" unicode="&#xCA;" horiz-adv-x="689" d=" M594,0 L110,0 L221,700 L689,700 L682,657 L260,657 L219,398 L568,398 L561,355 L212,355 L163,43 L601,43 M461,893 L509,893 L595,763 L548,763 L482,860 L384,763 L332,763"/> 
            <glyph glyph-name="Ë" unicode="&#xCB;" horiz-adv-x="689" d=" M594,0 L110,0 L221,700 L689,700 L682,657 L260,657 L219,398 L568,398 L561,355 L212,355 L163,43 L601,43 M536,799 Q520,814 527.5,834 Q535,854 553,859 Q571,864 587,850 Q603,836 596,816 Q589,796 571,790.5 Q553,785 536,799 M346,799 Q330,814 337.5,834 Q345,854 363,859 Q381,864 397,850 Q413,836 406,816 Q399,796 381,790.5 Q363,785 346,799"/> 
            <glyph glyph-name="Ì" unicode="&#xCC;" horiz-adv-x="276" d=" M158,0 L112,0 L223,700 L269,700 M276,763 L230,763 L142,893 L201,893"/> 
            <glyph glyph-name="Í" unicode="&#xCD;" horiz-adv-x="411" d=" M158,0 L112,0 L223,700 L269,700 M282,763 L233,763 L350,893 L411,893"/> 
            <glyph glyph-name="Î" unicode="&#xCE;" horiz-adv-x="391" d=" M257,893 L305,893 L391,763 L344,763 L278,860 L180,763 L128,763 M158,0 L112,0 L223,700 L269,700"/> 
            <glyph glyph-name="Ï" unicode="&#xCF;" horiz-adv-x="401" d=" M158,0 L112,0 L223,700 L269,700 M334,799 Q318,814 325.5,834 Q333,854 351,859 Q369,864 385,850 Q401,836 394,816 Q387,796 369,790.5 Q351,785 334,799 M144,799 Q128,814 135.5,834 Q143,854 161,859 Q179,864 195,850 Q211,836 204,816 Q197,796 179,790.5 Q161,785 144,799"/> 
            <glyph glyph-name="Ð" unicode="&#xD0;" horiz-adv-x="796" d=" M81,332 L87,375 L204,375 L256,700 L453,700 Q608,700 702,614 Q796,529 796,389 Q796,212 675,106 Q554,0 364,0 L145,0 L197,332 M197,43 L379,43 Q541,43 644,137 Q748,232 748,388 Q748,510 667,583 Q585,657 445,657 L295,657 L250,375 L421,375 L415,332 L243,332"/> 
            <glyph glyph-name="Ñ" unicode="&#xD1;" horiz-adv-x="784" d=" M674,0 L633,0 L254,624 L156,0 L110,0 L220,700 L261,700 L640,76 L738,700 L784,700 M637,873 L674,873 Q666,829 642,803 Q618,777 584,777 Q556,777 513,808 Q472,839 451,839 Q414,839 402,783 L365,783 Q373,826 397.5,851.5 Q422,877 455,877 Q483,877 526,846 Q569,815 587,815 Q623,815 637,873"/> 
            <glyph glyph-name="Ò" unicode="&#xD2;" horiz-adv-x="828" d=" M501,712 Q648,712 736,618 Q826,524 826,381 Q828,278 780,187 Q732,96 644.5,41.5 Q557,-13 454,-12 Q308,-12 218,82 Q128,176 128,320 Q128,481 234,596 Q341,712 501,712 M456,32 Q589,32 684,133 Q779,236 779,380 Q779,504 701,586 Q625,668 499,668 Q364,668 269,567 Q175,467 175,321 Q175,196 253,114 Q331,32 456,32 M566,763 L520,763 L432,893 L491,893"/> 
            <glyph glyph-name="Ó" unicode="&#xD3;" horiz-adv-x="828" d=" M501,712 Q648,712 736,618 Q826,524 826,381 Q828,278 780,187 Q732,96 644.5,41.5 Q557,-13 454,-12 Q308,-12 218,82 Q128,176 128,320 Q128,481 234,596 Q341,712 501,712 M456,32 Q589,32 684,133 Q779,236 779,380 Q779,504 701,586 Q625,668 499,668 Q364,668 269,567 Q175,467 175,321 Q175,196 253,114 Q331,32 456,32 M550,763 L501,763 L618,893 L679,893"/> 
            <glyph glyph-name="Ô" unicode="&#xD4;" horiz-adv-x="828" d=" M539,893 L587,893 L673,763 L626,763 L560,860 L462,763 L410,763 M501,712 Q648,712 736,618 Q826,524 826,381 Q828,278 780,187 Q732,96 644.5,41.5 Q557,-13 454,-12 Q308,-12 218,82 Q128,176 128,320 Q128,481 234,596 Q341,712 501,712 M456,32 Q589,32 684,133 Q779,236 779,380 Q779,504 701,586 Q625,668 499,668 Q364,668 269,567 Q175,467 175,321 Q175,196 253,114 Q331,32 456,32"/> 
            <glyph glyph-name="Õ" unicode="&#xD5;" horiz-adv-x="828" d=" M501,712 Q648,712 736,618 Q826,524 826,381 Q828,278 780,187 Q732,96 644.5,41.5 Q557,-13 454,-12 Q308,-12 218,82 Q128,176 128,320 Q128,481 234,596 Q341,712 501,712 M456,32 Q589,32 684,133 Q779,236 779,380 Q779,504 701,586 Q625,668 499,668 Q364,668 269,567 Q175,467 175,321 Q175,196 253,114 Q331,32 456,32 M667,873 L704,873 Q696,829 672,803 Q648,777 614,777 Q586,777 543,808 Q502,839 481,839 Q444,839 432,783 L395,783 Q403,826 427.5,851.5 Q452,877 485,877 Q513,877 556,846 Q599,815 617,815 Q653,815 667,873"/> 
            <glyph glyph-name="Ö" unicode="&#xD6;" horiz-adv-x="828" d=" M501,712 Q648,712 736,618 Q826,524 826,381 Q828,278 780,187 Q732,96 644.5,41.5 Q557,-13 454,-12 Q308,-12 218,82 Q128,176 128,320 Q128,481 234,596 Q341,712 501,712 M456,32 Q589,32 684,133 Q779,236 779,380 Q779,504 701,586 Q625,668 499,668 Q364,668 269,567 Q175,467 175,321 Q175,196 253,114 Q331,32 456,32 M615,799 Q599,814 606.5,834 Q614,854 632,859 Q650,864 666,850 Q682,836 675,816 Q668,796 650,790.5 Q632,785 615,799 M425,799 Q409,814 416.5,834 Q424,854 442,859 Q460,864 476,850 Q492,836 485,816 Q478,796 460,790.5 Q442,785 425,799"/> 
            <glyph glyph-name="×" unicode="&#xD7;" horiz-adv-x="524" d=" M311,353 L497,513 L524,483 L338,322 L473,163 L441,134 L307,293 L120,134 L93,164 L279,324 L144,485 L176,513"/> 
            <glyph glyph-name="Ø" unicode="&#xD8;" horiz-adv-x="852" d=" M501,712 Q636,712 726,628 L797,700 L852,700 L752,599 Q826,508 826,381 Q828,278 780,187 Q732,96 644.5,41.5 Q557,-13 454,-12 Q319,-12 230,71 L160,0 L104,0 L203,100 Q128,191 128,320 Q128,481 234,596 Q341,712 501,712 M175,321 Q175,210 236,133 L692,594 Q615,668 499,668 Q364,668 269,567 Q175,467 175,321 M456,32 Q589,32 684,133 Q779,236 779,380 Q779,488 719,565 L263,104 Q340,32 456,32"/> 
            <glyph glyph-name="Ù" unicode="&#xD9;" horiz-adv-x="763" d=" M654,302 L717,700 L763,700 L697,285 Q674,143 592,65.5 Q510,-12 388,-12 Q271,-12 203,53 Q135,118 135,235 Q135,265 145,332 L204,700 L250,700 L191,324 Q182,265 182,241 Q182,142 236.5,87 Q291,32 390,32 Q496,32 565,102.5 Q634,173 654,302 M528,763 L482,763 L394,893 L453,893"/> 
            <glyph glyph-name="Ú" unicode="&#xDA;" horiz-adv-x="763" d=" M654,302 L717,700 L763,700 L697,285 Q674,143 592,65.5 Q510,-12 388,-12 Q271,-12 203,53 Q135,118 135,235 Q135,265 145,332 L204,700 L250,700 L191,324 Q182,265 182,241 Q182,142 236.5,87 Q291,32 390,32 Q496,32 565,102.5 Q634,173 654,302 M506,763 L457,763 L574,893 L635,893"/> 
            <glyph glyph-name="Û" unicode="&#xDB;" horiz-adv-x="763" d=" M654,302 L717,700 L763,700 L697,285 Q674,143 592,65.5 Q510,-12 388,-12 Q271,-12 203,53 Q135,118 135,235 Q135,265 145,332 L204,700 L250,700 L191,324 Q182,265 182,241 Q182,142 236.5,87 Q291,32 390,32 Q496,32 565,102.5 Q634,173 654,302 M482,893 L530,893 L616,763 L569,763 L503,860 L405,763 L353,763"/> 
            <glyph glyph-name="Ü" unicode="&#xDC;" horiz-adv-x="763" d=" M654,302 L717,700 L763,700 L697,285 Q674,143 592,65.5 Q510,-12 388,-12 Q271,-12 203,53 Q135,118 135,235 Q135,265 145,332 L204,700 L250,700 L191,324 Q182,265 182,241 Q182,142 236.5,87 Q291,32 390,32 Q496,32 565,102.5 Q634,173 654,302 M572,799 Q556,814 563.5,834 Q571,854 589,859 Q607,864 623,850 Q639,836 632,816 Q625,796 607,790.5 Q589,785 572,799 M382,799 Q366,814 373.5,834 Q381,854 399,859 Q417,864 433,850 Q449,836 442,816 Q435,796 417,790.5 Q399,785 382,799"/> 
            <glyph glyph-name="Ý" unicode="&#xDD;" horiz-adv-x="729" d=" M378,369 L673,700 L729,700 L397,325 L346,0 L299,0 L350,324 L136,700 L189,700 M455,763 L406,763 L523,893 L584,893"/> 
            <glyph glyph-name="Þ" unicode="&#xDE;" horiz-adv-x="673" d=" M241,538 L475,538 Q568,538 620.5,493 Q673,448 673,372 Q673,278 605,219 Q538,161 434,161 L182,161 L156,0 L110,0 L221,700 L267,700 M235,495 L188,204 L438,204 Q515,204 570,247 Q626,291 626,367 Q626,428 585,461.5 Q544,495 469,495"/> 
            <glyph glyph-name="ß" unicode="&#xDF;" horiz-adv-x="592" d=" M354,-12 Q290,-12 247,8 L254,53 Q294,30 356,30 Q433,30 488,79 Q545,128 545,209 Q545,279 495.5,322.5 Q446,366 360,370 L338,371 L345,411 L381,411 Q447,413 492,446 Q538,480 538,544 Q538,596 498,630.5 Q458,665 393,665 Q324,665 275.5,622.5 Q227,580 215,507 L134,0 L89,0 L169,507 Q184,600 245.5,653.5 Q307,707 397,707 Q484,707 533,661 Q584,615 584,549 Q584,492 549,448.5 Q514,405 453,386 Q515,370 553.5,323.5 Q592,277 592,212 Q592,114 524,51 Q456,-12 354,-12"/> 
            <glyph glyph-name="à" unicode="&#xE0;" horiz-adv-x="567" d=" M164,406 L172,451 Q243,489 345,489 Q426,489 478,452 Q531,416 531,340 Q531,318 522,260 L500,122 Q496,99 496,82 Q496,35 542,35 Q558,35 567,39 L561,2 Q549,-4 526,-4 Q493,-4 472,16.5 Q451,37 451,72 Q366,-12 246,-12 Q168,-12 119,28 Q69,69 69,135 Q69,215 131,257 Q192,300 276,300 Q389,300 474,242 L481,286 Q486,321 486,335 Q486,447 337,447 Q238,447 164,406 M455,123 L467,200 Q389,260 283,260 Q213,260 164,229 Q115,198 115,139 Q115,87 155,58.5 Q195,30 262,30 Q316,30 367.5,56.5 Q419,83 455,123 M443,577 L397,577 L309,707 L368,707"/> 
            <glyph glyph-name="á" unicode="&#xE1;" horiz-adv-x="567" d=" M164,406 L172,451 Q243,489 345,489 Q426,489 478,452 Q531,416 531,340 Q531,318 522,260 L500,122 Q496,99 496,82 Q496,35 542,35 Q558,35 567,39 L561,2 Q549,-4 526,-4 Q493,-4 472,16.5 Q451,37 451,72 Q366,-12 246,-12 Q168,-12 119,28 Q69,69 69,135 Q69,215 131,257 Q192,300 276,300 Q389,300 474,242 L481,286 Q486,321 486,335 Q486,447 337,447 Q238,447 164,406 M455,123 L467,200 Q389,260 283,260 Q213,260 164,229 Q115,198 115,139 Q115,87 155,58.5 Q195,30 262,30 Q316,30 367.5,56.5 Q419,83 455,123 M384,577 L334,577 L451,707 L513,707"/> 
            <glyph glyph-name="â" unicode="&#xE2;" horiz-adv-x="567" d=" M164,406 L172,451 Q243,489 345,489 Q426,489 478,452 Q531,416 531,340 Q531,318 522,260 L500,122 Q496,99 496,82 Q496,35 542,35 Q558,35 567,39 L561,2 Q549,-4 526,-4 Q493,-4 472,16.5 Q451,37 451,72 Q366,-12 246,-12 Q168,-12 119,28 Q69,69 69,135 Q69,215 131,257 Q192,300 276,300 Q389,300 474,242 L481,286 Q486,321 486,335 Q486,447 337,447 Q238,447 164,406 M455,123 L467,200 Q389,260 283,260 Q213,260 164,229 Q115,198 115,139 Q115,87 155,58.5 Q195,30 262,30 Q316,30 367.5,56.5 Q419,83 455,123 M370,706 L418,706 L504,576 L457,576 L391,673 L293,576 L241,576"/> 
            <glyph glyph-name="ã" unicode="&#xE3;" horiz-adv-x="567" d=" M164,406 L172,451 Q243,489 345,489 Q426,489 478,452 Q531,416 531,340 Q531,318 522,260 L500,122 Q496,99 496,82 Q496,35 542,35 Q558,35 567,39 L561,2 Q549,-4 526,-4 Q493,-4 472,16.5 Q451,37 451,72 Q366,-12 246,-12 Q168,-12 119,28 Q69,69 69,135 Q69,215 131,257 Q192,300 276,300 Q389,300 474,242 L481,286 Q486,321 486,335 Q486,447 337,447 Q238,447 164,406 M455,123 L467,200 Q389,260 283,260 Q213,260 164,229 Q115,198 115,139 Q115,87 155,58.5 Q195,30 262,30 Q316,30 367.5,56.5 Q419,83 455,123 M452,593 Q423,593 380,624 Q336,656 319,656 Q282,656 269,599 L231,599 Q239,643 263.5,669.5 Q288,696 322,696 Q350,696 393,665 Q436,634 455,634 Q488,634 503,691 L541,691 Q533,646 509,619.5 Q485,593 452,593"/> 
            <glyph glyph-name="ä" unicode="&#xE4;" horiz-adv-x="567" d=" M164,406 L172,451 Q243,489 345,489 Q426,489 478,452 Q531,416 531,340 Q531,318 522,260 L500,122 Q496,99 496,82 Q496,35 542,35 Q558,35 567,39 L561,2 Q549,-4 526,-4 Q493,-4 472,16.5 Q451,37 451,72 Q366,-12 246,-12 Q168,-12 119,28 Q69,69 69,135 Q69,215 131,257 Q192,300 276,300 Q389,300 474,242 L481,286 Q486,321 486,335 Q486,447 337,447 Q238,447 164,406 M455,123 L467,200 Q389,260 283,260 Q213,260 164,229 Q115,198 115,139 Q115,87 155,58.5 Q195,30 262,30 Q316,30 367.5,56.5 Q419,83 455,123 M455,619 Q439,634 446.5,654 Q454,674 472,679 Q490,684 506,670 Q522,656 515,636 Q508,616 490,610.5 Q472,605 455,619 M265,619 Q249,634 256.5,654 Q264,674 282,679 Q300,684 316,670 Q332,656 325,636 Q318,616 300,610.5 Q282,605 265,619"/> 
            <glyph glyph-name="å" unicode="&#xE5;" horiz-adv-x="567" d=" M164,406 L172,451 Q243,489 345,489 Q426,489 478,452 Q531,416 531,340 Q531,318 522,260 L500,122 Q496,99 496,82 Q496,35 542,35 Q558,35 567,39 L561,2 Q549,-4 526,-4 Q493,-4 472,16.5 Q451,37 451,72 Q366,-12 246,-12 Q168,-12 119,28 Q69,69 69,135 Q69,215 131,257 Q192,300 276,300 Q389,300 474,242 L481,286 Q486,321 486,335 Q486,447 337,447 Q238,447 164,406 M455,123 L467,200 Q389,260 283,260 Q213,260 164,229 Q115,198 115,139 Q115,87 155,58.5 Q195,30 262,30 Q316,30 367.5,56.5 Q419,83 455,123 M399,533 Q359,533 331.5,560.5 Q304,588 304,626 Q304,664 331.5,691.5 Q359,719 399,719 Q436,719 463,691.5 Q490,664 490,626 Q490,588 463,560.5 Q436,533 399,533 M399,566 Q424,566 441.5,583.5 Q459,601 459,626 Q459,652 441.5,669.5 Q424,687 399,687 Q373,687 355,669.5 Q337,652 337,626 Q337,601 355,583.5 Q373,566 399,566"/> 
            <glyph glyph-name="æ" unicode="&#xE6;" horiz-adv-x="935" d=" M932,232 L517,232 L517,216 Q517,129 575,80 Q634,30 721,30 Q798,30 869,74 L863,28 Q805,-12 715,-12 Q645,-12 588.5,17.5 Q532,47 502,100 Q390,-12 246,-12 Q168,-12 119,28 Q69,69 69,135 Q69,215 131,257 Q192,299 276,299 Q389,299 474,241 L481,286 Q486,321 486,335 Q486,447 337,447 Q238,447 164,406 L172,451 Q243,489 345,489 Q414,489 462,462 Q510,435 525,383 Q601,489 732,489 Q830,489 883,426 Q935,364 935,281 Q935,253 932,232 M485,135 Q475,160 472,197 Q390,261 283,261 Q214,261 164,229 Q115,198 115,139 Q115,87 155,58.5 Q195,30 262,30 Q389,30 485,135 M728,447 Q651,447 593,397 Q535,347 522,271 L890,271 Q891,276 891,288 Q891,351 849,399 Q808,447 728,447"/> 
            <glyph glyph-name="ç" unicode="&#xE7;" horiz-adv-x="519" d=" M90,217 Q90,333 168,411 Q248,489 362,489 Q454,489 519,445 L513,402 Q450,447 367,447 Q270,447 202,381 Q136,315 136,219 Q136,137 191,83 Q247,30 336,30 Q407,30 475,69 L469,21 Q409,-10 335,-12 L253,-127 L196,-127 L292,-10 Q197,1 143,64 Q90,129 90,217"/> 
            <glyph glyph-name="è" unicode="&#xE8;" horiz-adv-x="553" d=" M339,30 Q416,30 487,74 L481,28 Q423,-12 333,-12 Q228,-12 159,51 Q90,114 90,215 Q90,325 163,407 Q236,489 350,489 Q448,489 501,426 Q553,364 553,281 Q553,253 550,232 L135,232 L135,216 Q135,129 193,80 Q252,30 339,30 M346,447 Q269,447 211,397 Q153,347 140,271 L508,271 Q509,276 509,288 Q509,351 467,399 Q426,447 346,447 M422,577 L376,577 L288,707 L347,707"/> 
            <glyph glyph-name="é" unicode="&#xE9;" horiz-adv-x="553" d=" M339,30 Q416,30 487,74 L481,28 Q423,-12 333,-12 Q228,-12 159,51 Q90,114 90,215 Q90,325 163,407 Q236,489 350,489 Q448,489 501,426 Q553,364 553,281 Q553,253 550,232 L135,232 L135,216 Q135,129 193,80 Q252,30 339,30 M346,447 Q269,447 211,397 Q153,347 140,271 L508,271 Q509,276 509,288 Q509,351 467,399 Q426,447 346,447 M383,577 L333,577 L450,707 L512,707"/> 
            <glyph glyph-name="ê" unicode="&#xEA;" horiz-adv-x="553" d=" M339,30 Q416,30 487,74 L481,28 Q423,-12 333,-12 Q228,-12 159,51 Q90,114 90,215 Q90,325 163,407 Q236,489 350,489 Q448,489 501,426 Q553,364 553,281 Q553,253 550,232 L135,232 L135,216 Q135,129 193,80 Q252,30 339,30 M346,447 Q269,447 211,397 Q153,347 140,271 L508,271 Q509,276 509,288 Q509,351 467,399 Q426,447 346,447 M376,706 L424,706 L510,576 L463,576 L397,673 L299,576 L247,576"/> 
            <glyph glyph-name="ë" unicode="&#xEB;" horiz-adv-x="553" d=" M339,30 Q416,30 487,74 L481,28 Q423,-12 333,-12 Q228,-12 159,51 Q90,114 90,215 Q90,325 163,407 Q236,489 350,489 Q448,489 501,426 Q553,364 553,281 Q553,253 550,232 L135,232 L135,216 Q135,129 193,80 Q252,30 339,30 M346,447 Q269,447 211,397 Q153,347 140,271 L508,271 Q509,276 509,288 Q509,351 467,399 Q426,447 346,447 M457,619 Q441,634 448.5,654 Q456,674 474,679 Q492,684 508,670 Q524,656 517,636 Q510,616 492,610.5 Q474,605 457,619 M267,619 Q251,634 258.5,654 Q266,674 284,679 Q302,684 318,670 Q334,656 327,636 Q320,616 302,610.5 Q284,605 267,619"/> 
            <glyph glyph-name="ì" unicode="&#xEC;" horiz-adv-x="238" d=" M148,0 L103,0 L179,477 L224,477 M238,577 L192,577 L104,707 L163,707"/> 
            <glyph glyph-name="í" unicode="&#xED;" horiz-adv-x="373" d=" M245,577 L195,577 L312,707 L373,707 M148,0 L103,0 L179,477 L224,477"/> 
            <glyph glyph-name="î" unicode="&#xEE;" horiz-adv-x="344" d=" M210,706 L258,706 L344,576 L297,576 L231,673 L133,576 L81,576 M148,0 L103,0 L179,477 L224,477"/> 
            <glyph glyph-name="ï" unicode="&#xEF;" horiz-adv-x="363" d=" M296,619 Q280,634 287.5,654 Q295,674 313,679 Q331,684 347,670 Q363,656 356,636 Q349,616 331,610.5 Q313,605 296,619 M106,619 Q90,634 97.5,654 Q105,674 123,679 Q141,684 157,670 Q173,656 166,636 Q159,616 141,610.5 Q123,605 106,619 M148,0 L103,0 L179,477 L224,477"/> 
            <glyph glyph-name="ð" unicode="&#xF0;" horiz-adv-x="568" d=" M382,613 L518,390 Q568,308 568,240 Q568,136 496,62 Q424,-12 317,-12 Q214,-12 152,51 Q90,116 90,207 Q90,311 162,386 Q236,461 341,461 Q401,461 447,433 L344,599 L194,541 L177,571 L325,629 L283,700 L330,700 L363,644 L490,693 L508,663 M317,30 Q404,30 462,91 Q522,152 522,241 Q522,317 472,369 Q423,421 342,421 Q257,421 196,358 Q136,296 136,209 Q136,132 186,80 Q236,30 317,30"/> 
            <glyph glyph-name="ñ" unicode="&#xF1;" horiz-adv-x="571" d=" M89,0 L165,477 L210,477 L197,398 Q288,489 404,489 Q479,489 524.5,446 Q570,403 570,331 Q570,320 561,251 L522,0 L477,0 L517,254 Q524,297 524,326 Q524,385 488.5,416 Q453,447 390,447 Q332,447 276,414 Q222,383 188,340 L134,0 M482,593 Q453,593 410,624 Q366,656 349,656 Q312,656 299,599 L261,599 Q269,643 293.5,669.5 Q318,696 352,696 Q380,696 423,665 Q466,634 485,634 Q518,634 533,691 L571,691 Q563,646 539,619.5 Q515,593 482,593"/> 
            <glyph glyph-name="ò" unicode="&#xF2;" horiz-adv-x="594" d=" M356,489 Q464,489 529,421 Q594,353 594,255 Q594,145 518,66 Q442,-12 329,-12 Q221,-12 155,56 Q90,124 90,222 Q90,333 166,410 Q242,489 356,489 M329,32 Q419,32 484,97 Q548,162 548,256 Q548,338 494,391 Q442,445 355,445 Q264,445 200,379 Q136,315 136,221 Q136,140 189,85 Q244,32 329,32 M447,577 L401,577 L313,707 L372,707"/> 
            <glyph glyph-name="ó" unicode="&#xF3;" horiz-adv-x="594" d=" M356,489 Q464,489 529,421 Q594,353 594,255 Q594,145 518,66 Q442,-12 329,-12 Q221,-12 155,56 Q90,124 90,222 Q90,333 166,410 Q242,489 356,489 M329,32 Q419,32 484,97 Q548,162 548,256 Q548,338 494,391 Q442,445 355,445 Q264,445 200,379 Q136,315 136,221 Q136,140 189,85 Q244,32 329,32 M402,577 L352,577 L469,707 L531,707"/> 
            <glyph glyph-name="ô" unicode="&#xF4;" horiz-adv-x="594" d=" M390,706 L438,706 L524,576 L477,576 L411,673 L313,576 L261,576 M356,489 Q464,489 529,421 Q594,353 594,255 Q594,145 518,66 Q442,-12 329,-12 Q221,-12 155,56 Q90,124 90,222 Q90,333 166,410 Q242,489 356,489 M329,32 Q419,32 484,97 Q548,162 548,256 Q548,338 494,391 Q442,445 355,445 Q264,445 200,379 Q136,315 136,221 Q136,140 189,85 Q244,32 329,32"/> 
            <glyph glyph-name="õ" unicode="&#xF5;" horiz-adv-x="594" d=" M356,489 Q464,489 529,421 Q594,353 594,255 Q594,145 518,66 Q442,-12 329,-12 Q221,-12 155,56 Q90,124 90,222 Q90,333 166,410 Q242,489 356,489 M329,32 Q419,32 484,97 Q548,162 548,256 Q548,338 494,391 Q442,445 355,445 Q264,445 200,379 Q136,315 136,221 Q136,140 189,85 Q244,32 329,32 M474,593 Q445,593 402,624 Q358,656 341,656 Q304,656 291,599 L253,599 Q261,643 285.5,669.5 Q310,696 344,696 Q372,696 415,665 Q458,634 477,634 Q510,634 525,691 L563,691 Q555,646 531,619.5 Q507,593 474,593"/> 
            <glyph glyph-name="ö" unicode="&#xF6;" horiz-adv-x="594" d=" M356,489 Q464,489 529,421 Q594,353 594,255 Q594,145 518,66 Q442,-12 329,-12 Q221,-12 155,56 Q90,124 90,222 Q90,333 166,410 Q242,489 356,489 M329,32 Q419,32 484,97 Q548,162 548,256 Q548,338 494,391 Q442,445 355,445 Q264,445 200,379 Q136,315 136,221 Q136,140 189,85 Q244,32 329,32 M475,619 Q459,634 466.5,654 Q474,674 492,679 Q510,684 526,670 Q542,656 535,636 Q528,616 510,610.5 Q492,605 475,619 M285,619 Q269,634 276.5,654 Q284,674 302,679 Q320,684 336,670 Q352,656 345,636 Q338,616 320,610.5 Q302,605 285,619"/> 
            <glyph glyph-name="÷" unicode="&#xF7;" horiz-adv-x="556" d=" M112,302 L118,344 L556,344 L550,302 M298,170 Q315,170 327,158 Q339,146 339,128 Q339,110 327,98 Q315,86 298,86 Q280,86 268,98 Q256,110 256,128 Q256,146 268,158 Q280,170 298,170 M346,476 Q322,500 322,518 Q322,536 334,547 Q346,559 364,559 Q382,559 394,547 Q406,536 406,518 Q406,500 394,488 Q382,476 346,476"/> 
            <glyph glyph-name="ø" unicode="&#xF8;" horiz-adv-x="609" d=" M356,489 Q450,489 514,434 L557,477 L609,477 L540,408 Q594,344 594,255 Q594,145 518,66 Q442,-12 329,-12 Q238,-12 174,39 L136,0 L83,0 L147,64 Q90,128 90,222 Q90,333 166,410 Q242,489 356,489 M136,221 Q136,148 179,96 L483,402 Q431,445 355,445 Q264,445 200,379 Q136,315 136,221 M329,32 Q419,32 484,97 Q548,162 548,256 Q548,326 508,375 L206,71 Q256,32 329,32"/> 
            <glyph glyph-name="ù" unicode="&#xF9;" horiz-adv-x="588" d=" M588,477 L512,0 L467,0 L480,79 Q389,-12 273,-12 Q198,-12 152.5,31 Q107,74 107,146 Q107,157 116,226 L155,477 L200,477 L160,223 Q153,180 153,151 Q153,92 188.5,61 Q224,30 287,30 Q345,30 401,62 Q456,94 489,137 L543,477 M431,577 L385,577 L297,707 L356,707"/> 
            <glyph glyph-name="ú" unicode="&#xFA;" horiz-adv-x="588" d=" M588,477 L512,0 L467,0 L480,79 Q389,-12 273,-12 Q198,-12 152.5,31 Q107,74 107,146 Q107,157 116,226 L155,477 L200,477 L160,223 Q153,180 153,151 Q153,92 188.5,61 Q224,30 287,30 Q345,30 401,62 Q456,94 489,137 L543,477 M386,577 L336,577 L453,707 L515,707"/> 
            <glyph glyph-name="û" unicode="&#xFB;" horiz-adv-x="588" d=" M588,477 L512,0 L467,0 L480,79 Q389,-12 273,-12 Q198,-12 152.5,31 Q107,74 107,146 Q107,157 116,226 L155,477 L200,477 L160,223 Q153,180 153,151 Q153,92 188.5,61 Q224,30 287,30 Q345,30 401,62 Q456,94 489,137 L543,477 M382,706 L430,706 L516,576 L469,576 L403,673 L305,576 L253,576"/> 
            <glyph glyph-name="ü" unicode="&#xFC;" horiz-adv-x="588" d=" M588,477 L512,0 L467,0 L480,79 Q389,-12 273,-12 Q198,-12 152.5,31 Q107,74 107,146 Q107,157 116,226 L155,477 L200,477 L160,223 Q153,180 153,151 Q153,92 188.5,61 Q224,30 287,30 Q345,30 401,62 Q456,94 489,137 L543,477 M464,619 Q448,634 455.5,654 Q463,674 481,679 Q499,684 515,670 Q531,656 524,636 Q517,616 499,610.5 Q481,605 464,619 M274,619 Q258,634 265.5,654 Q273,674 291,679 Q309,684 325,670 Q341,656 334,636 Q327,616 309,610.5 Q291,605 274,619"/> 
            <glyph glyph-name="ý" unicode="&#xFD;" horiz-adv-x="572" d=" M521,477 L572,477 L260,-57 Q174,-204 73,-204 Q37,-204 8,-187 L14,-145 Q42,-162 73,-162 Q122,-162 161,-119 Q199,-80 256,19 L101,477 L149,477 L286,72 M351,577 L301,577 L418,707 L480,707"/> 
            <glyph glyph-name="þ" unicode="&#xFE;" horiz-adv-x="614" d=" M147,90 L102,-200 L57,-200 L200,700 L245,700 L196,402 Q272,489 390,489 Q493,489 553,423 Q614,359 614,262 Q614,148 539,68 Q465,-12 351,-12 Q285,-12 231.5,16.5 Q178,45 147,90 M380,447 Q323,447 268,416 Q212,384 186,339 L157,143 Q179,98 230,64 Q282,30 347,30 Q438,30 502,96 Q567,163 567,258 Q567,340 516,393 Q465,447 380,447"/> 
            <glyph glyph-name="ÿ" unicode="&#xFF;" horiz-adv-x="572" d=" M521,477 L572,477 L260,-57 Q174,-204 73,-204 Q37,-204 8,-187 L14,-145 Q42,-162 73,-162 Q122,-162 161,-119 Q199,-80 256,19 L101,477 L149,477 L286,72 M421,619 Q405,634 412.5,654 Q420,674 438,679 Q456,684 472,670 Q488,656 481,636 Q474,616 456,610.5 Q438,605 421,619 M231,619 Q215,634 222.5,654 Q230,674 248,679 Q266,684 282,670 Q298,656 291,636 Q284,616 266,610.5 Q248,605 231,619"/> 
            <glyph glyph-name="Ā" unicode="&#x100;" horiz-adv-x="711" d=" M711,0 L662,0 L602,206 L209,206 L85,0 L33,0 L462,704 L505,704 M591,246 L476,644 L234,246 M617,810 L387,810 L392,848 L623,848"/> 
            <glyph glyph-name="ā" unicode="&#x101;" horiz-adv-x="567" d=" M164,406 L172,451 Q243,489 345,489 Q426,489 478,452 Q531,416 531,340 Q531,318 522,260 L500,122 Q496,99 496,82 Q496,35 542,35 Q558,35 567,39 L561,2 Q549,-4 526,-4 Q493,-4 472,16.5 Q451,37 451,72 Q366,-12 246,-12 Q168,-12 119,28 Q69,69 69,135 Q69,215 131,257 Q192,300 276,300 Q389,300 474,242 L481,286 Q486,321 486,335 Q486,447 337,447 Q238,447 164,406 M455,123 L467,200 Q389,260 283,260 Q213,260 164,229 Q115,198 115,139 Q115,87 155,58.5 Q195,30 262,30 Q316,30 367.5,56.5 Q419,83 455,123 M507,625 L277,625 L282,663 L513,663"/> 
            <glyph glyph-name="Ă" unicode="&#x102;" horiz-adv-x="711" d=" M711,0 L662,0 L602,206 L209,206 L85,0 L33,0 L462,704 L505,704 M591,246 L476,644 L234,246 M496,763 Q447,763 413.5,794 Q380,825 380,872 Q380,888 381,893 L420,893 Q419,888 419,876 Q419,843 440.5,822 Q462,801 497,801 Q535,801 562.5,826.5 Q590,852 598,893 L638,893 Q630,838 590,800 Q550,763 496,763"/> 
            <glyph glyph-name="ă" unicode="&#x103;" horiz-adv-x="567" d=" M164,406 L172,451 Q243,489 345,489 Q426,489 478,452 Q531,416 531,340 Q531,318 522,260 L500,122 Q496,99 496,82 Q496,35 542,35 Q558,35 567,39 L561,2 Q549,-4 526,-4 Q493,-4 472,16.5 Q451,37 451,72 Q366,-12 246,-12 Q168,-12 119,28 Q69,69 69,135 Q69,215 131,257 Q192,300 276,300 Q389,300 474,242 L481,286 Q486,321 486,335 Q486,447 337,447 Q238,447 164,406 M455,123 L467,200 Q389,260 283,260 Q213,260 164,229 Q115,198 115,139 Q115,87 155,58.5 Q195,30 262,30 Q316,30 367.5,56.5 Q419,83 455,123 M385,578 Q336,578 302.5,608.5 Q269,639 269,686 Q269,702 270,707 L309,707 Q308,702 308,690 Q308,657 329.5,636.5 Q351,616 386,616 Q424,616 451.5,641 Q479,666 487,707 L527,707 Q520,652 479,614 Q438,578 385,578"/> 
            <glyph glyph-name="Ą" unicode="&#x104;" horiz-adv-x="764" d=" M671,0 L662,0 L602,206 L209,206 L85,0 L33,0 L462,704 L505,704 L711,0 Q656,-51 656,-101 Q656,-128 674,-143.5 Q692,-159 723,-159 Q742,-159 764,-153 L758,-186 Q737,-193 709,-193 Q667,-193 642.5,-170.5 Q618,-148 618,-111 Q618,-48 671,0 M591,246 L476,644 L234,246"/> 
            <glyph glyph-name="ą" unicode="&#x105;" horiz-adv-x="614" d=" M559,-191 Q517,-191 492.5,-168.5 Q468,-146 468,-109 Q468,-50 515,-3 Q486,0 468.5,20 Q451,40 451,72 Q366,-12 246,-12 Q168,-12 119,28 Q69,69 69,135 Q69,215 131,257 Q192,300 276,300 Q389,300 474,242 L481,286 Q486,321 486,335 Q486,447 337,447 Q238,447 164,406 L172,451 Q243,489 345,489 Q426,489 478,452 Q531,416 531,340 Q531,318 522,260 L500,122 Q496,99 496,82 Q496,35 542,35 Q558,35 567,39 L561,2 Q506,-49 506,-99 Q506,-126 524,-141.5 Q542,-157 573,-157 Q592,-157 614,-151 L608,-184 Q587,-191 559,-191 M455,123 L467,200 Q389,260 283,260 Q213,260 164,229 Q115,198 115,139 Q115,87 155,58.5 Q195,30 262,30 Q316,30 367.5,56.5 Q419,83 455,123"/> 
            <glyph glyph-name="Ć" unicode="&#x106;" horiz-adv-x="715" d=" M175,321 Q175,196 254,114 Q333,32 460,32 Q579,32 670,99 L662,47 Q573,-12 457,-12 Q310,-12 219,81 Q128,175 128,318 Q128,481 234,596 Q341,712 505,712 Q627,712 715,651 L708,605 Q621,668 504,668 Q366,668 270,567 Q175,466 175,321 M543,763 L494,763 L611,893 L672,893"/> 
            <glyph glyph-name="ć" unicode="&#x107;" horiz-adv-x="519" d=" M519,445 L513,402 Q450,447 367,447 Q270,447 202,381 Q136,315 136,219 Q136,137 191,83 Q247,30 336,30 Q407,30 475,69 L469,21 Q406,-12 327,-12 Q218,-12 153,54 Q90,120 90,217 Q90,333 168,411 Q248,489 362,489 Q454,489 519,445 M390,577 L340,577 L457,707 L519,707"/> 
            <glyph glyph-name="Ĉ" unicode="&#x108;" horiz-adv-x="715" d=" M530,893 L578,893 L664,763 L617,763 L551,860 L453,763 L401,763 M175,321 Q175,196 254,114 Q333,32 460,32 Q579,32 670,99 L662,47 Q573,-12 457,-12 Q310,-12 219,81 Q128,175 128,318 Q128,481 234,596 Q341,712 505,712 Q627,712 715,651 L708,605 Q621,668 504,668 Q366,668 270,567 Q175,466 175,321"/> 
            <glyph glyph-name="ĉ" unicode="&#x109;" horiz-adv-x="519" d=" M368,706 L416,706 L502,576 L455,576 L389,673 L291,576 L239,576 M519,445 L513,402 Q450,447 367,447 Q270,447 202,381 Q136,315 136,219 Q136,137 191,83 Q247,30 336,30 Q407,30 475,69 L469,21 Q406,-12 327,-12 Q218,-12 153,54 Q90,120 90,217 Q90,333 168,411 Q248,489 362,489 Q454,489 519,445"/> 
            <glyph glyph-name="Ċ" unicode="&#x10A;" horiz-adv-x="715" d=" M175,321 Q175,196 254,114 Q333,32 460,32 Q579,32 670,99 L662,47 Q573,-12 457,-12 Q310,-12 219,81 Q128,175 128,318 Q128,481 234,596 Q341,712 505,712 Q627,712 715,651 L708,605 Q621,668 504,668 Q366,668 270,567 Q175,466 175,321 M516,798 Q499,814 506.5,835 Q514,856 533,861.5 Q552,867 570,852 Q587,836 579.5,815 Q572,794 553,788.5 Q534,783 516,798"/> 
            <glyph glyph-name="ċ" unicode="&#x10B;" horiz-adv-x="519" d=" M519,445 L513,402 Q450,447 367,447 Q270,447 202,381 Q136,315 136,219 Q136,137 191,83 Q247,30 336,30 Q407,30 475,69 L469,21 Q406,-12 327,-12 Q218,-12 153,54 Q90,120 90,217 Q90,333 168,411 Q248,489 362,489 Q454,489 519,445 M370,619 Q353,635 360.5,656 Q368,677 387,682.5 Q406,688 424,673 Q441,657 433.5,636 Q426,615 407,609.5 Q388,604 370,619"/> 
            <glyph glyph-name="Č" unicode="&#x10C;" horiz-adv-x="715" d=" M559,763 L511,763 L425,893 L472,893 L538,796 L636,893 L688,893 M175,321 Q175,196 254,114 Q333,32 460,32 Q579,32 670,99 L662,47 Q573,-12 457,-12 Q310,-12 219,81 Q128,175 128,318 Q128,481 234,596 Q341,712 505,712 Q627,712 715,651 L708,605 Q621,668 504,668 Q366,668 270,567 Q175,466 175,321"/> 
            <glyph glyph-name="č" unicode="&#x10D;" horiz-adv-x="535" d=" M407,577 L359,577 L273,707 L320,707 L386,608 L483,707 L535,707 M519,445 L513,402 Q450,447 367,447 Q270,447 202,381 Q136,315 136,219 Q136,137 191,83 Q247,30 336,30 Q407,30 475,69 L469,21 Q406,-12 327,-12 Q218,-12 153,54 Q90,120 90,217 Q90,333 168,411 Q248,489 362,489 Q454,489 519,445"/> 
            <glyph glyph-name="Ď" unicode="&#x10E;" horiz-adv-x="761" d=" M487,763 L439,763 L353,893 L400,893 L466,796 L564,893 L616,893 M221,700 L418,700 Q573,700 667,614 Q761,529 761,389 Q761,212 640,106 Q519,0 329,0 L110,0 M162,43 L344,43 Q506,43 609,137 Q713,232 713,388 Q713,510 632,583 Q550,657 410,657 L260,657"/> 
            <glyph glyph-name="ď" unicode="&#x10F;" horiz-adv-x="834" d=" M557,386 L606,700 L651,700 L540,0 L495,0 L508,74 Q431,-12 313,-12 Q212,-12 150,53 Q90,119 90,215 Q90,329 164,409 Q239,489 353,489 Q419,489 472.5,460 Q526,431 557,386 M325,30 Q381,30 436,61 Q491,92 518,139 L547,334 Q526,379 474,413 Q424,447 358,447 Q266,447 201,381 Q137,316 137,219 Q137,137 188,83 Q241,30 325,30 M746,531 L706,531 L785,699 L834,699"/> 
            <glyph glyph-name="Đ" unicode="&#x110;" horiz-adv-x="796" d=" M81,332 L87,375 L204,375 L256,700 L453,700 Q608,700 702,614 Q796,529 796,389 Q796,212 675,106 Q554,0 364,0 L145,0 L197,332 M197,43 L379,43 Q541,43 644,137 Q748,232 748,388 Q748,510 667,583 Q585,657 445,657 L295,657 L250,375 L421,375 L415,332 L243,332"/> 
            <glyph glyph-name="đ" unicode="&#x111;" horiz-adv-x="734" d=" M590,596 L606,700 L651,700 L634,596 L734,596 L728,555 L628,555 L540,0 L495,0 L508,74 Q431,-12 313,-12 Q212,-12 150,53 Q90,119 90,215 Q90,329 164,409 Q239,489 353,489 Q419,489 472.5,460 Q526,431 557,386 L583,555 L456,555 L462,596 M325,30 Q381,30 436,61 Q491,92 518,139 L547,334 Q526,379 474,413 Q424,447 358,447 Q266,447 201,381 Q137,316 137,219 Q137,137 188,83 Q241,30 325,30"/> 
            <glyph glyph-name="Ē" unicode="&#x112;" horiz-adv-x="689" d=" M594,0 L110,0 L221,700 L689,700 L682,657 L260,657 L219,398 L568,398 L561,355 L212,355 L163,43 L601,43 M588,810 L358,810 L363,848 L594,848"/> 
            <glyph glyph-name="ē" unicode="&#x113;" horiz-adv-x="553" d=" M339,30 Q416,30 487,74 L481,28 Q423,-12 333,-12 Q228,-12 159,51 Q90,114 90,215 Q90,325 163,407 Q236,489 350,489 Q448,489 501,426 Q553,364 553,281 Q553,253 550,232 L135,232 L135,216 Q135,129 193,80 Q252,30 339,30 M346,447 Q269,447 211,397 Q153,347 140,271 L508,271 Q509,276 509,288 Q509,351 467,399 Q426,447 346,447 M506,625 L276,625 L281,663 L512,663"/> 
            <glyph glyph-name="Ĕ" unicode="&#x114;" horiz-adv-x="689" d=" M594,0 L110,0 L221,700 L689,700 L682,657 L260,657 L219,398 L568,398 L561,355 L212,355 L163,43 L601,43 M460,763 Q411,763 377.5,794 Q344,825 344,872 Q344,888 345,893 L384,893 Q383,888 383,876 Q383,843 404.5,822 Q426,801 461,801 Q499,801 526.5,826.5 Q554,852 562,893 L602,893 Q594,838 554,800 Q514,763 460,763"/> 
            <glyph glyph-name="ĕ" unicode="&#x115;" horiz-adv-x="553" d=" M339,30 Q416,30 487,74 L481,28 Q423,-12 333,-12 Q228,-12 159,51 Q90,114 90,215 Q90,325 163,407 Q236,489 350,489 Q448,489 501,426 Q553,364 553,281 Q553,253 550,232 L135,232 L135,216 Q135,129 193,80 Q252,30 339,30 M346,447 Q269,447 211,397 Q153,347 140,271 L508,271 Q509,276 509,288 Q509,351 467,399 Q426,447 346,447 M380,578 Q331,578 297.5,608.5 Q264,639 264,686 Q264,702 265,707 L304,707 Q303,702 303,690 Q303,657 324.5,636.5 Q346,616 381,616 Q419,616 446.5,641 Q474,666 482,707 L522,707 Q514,652 474,614 Q434,578 380,578"/> 
            <glyph glyph-name="Ė" unicode="&#x116;" horiz-adv-x="689" d=" M594,0 L110,0 L221,700 L689,700 L682,657 L260,657 L219,398 L568,398 L561,355 L212,355 L163,43 L601,43 M446,798 Q429,814 436.5,835 Q444,856 463,861.5 Q482,867 500,852 Q517,836 509.5,815 Q502,794 483,788.5 Q464,783 446,798"/> 
            <glyph glyph-name="ė" unicode="&#x117;" horiz-adv-x="553" d=" M339,30 Q416,30 487,74 L481,28 Q423,-12 333,-12 Q228,-12 159,51 Q90,114 90,215 Q90,325 163,407 Q236,489 350,489 Q448,489 501,426 Q553,364 553,281 Q553,253 550,232 L135,232 L135,216 Q135,129 193,80 Q252,30 339,30 M346,447 Q269,447 211,397 Q153,347 140,271 L508,271 Q509,276 509,288 Q509,351 467,399 Q426,447 346,447 M366,619 Q349,635 356.5,656 Q364,677 383,682.5 Q402,688 420,673 Q437,657 429.5,636 Q422,615 403,609.5 Q384,604 366,619"/> 
            <glyph glyph-name="Ę" unicode="&#x118;" horiz-adv-x="689" d=" M554,0 L110,0 L221,700 L689,700 L682,657 L260,657 L219,398 L568,398 L561,355 L212,355 L163,43 L601,43 L594,0 Q539,-51 539,-101 Q539,-128 557,-143.5 Q575,-159 606,-159 Q624,-159 647,-153 L641,-186 Q620,-193 592,-193 Q550,-193 525.5,-170.5 Q501,-148 501,-111 Q501,-48 554,0"/> 
            <glyph glyph-name="ę" unicode="&#x119;" horiz-adv-x="553" d=" M479,-165 Q437,-165 412.5,-142.5 Q388,-120 388,-83 Q388,-42 415,-1 Q376,-12 333,-12 Q228,-12 159,51 Q90,114 90,215 Q90,325 163,407 Q236,489 350,489 Q448,489 501,426 Q553,364 553,281 Q553,253 550,232 L135,232 L135,216 Q135,129 193,80 Q252,30 339,30 Q416,30 487,74 L481,28 Q426,-23 426,-73 Q426,-100 444,-115.5 Q462,-131 493,-131 Q512,-131 534,-125 L528,-158 Q507,-165 479,-165 M346,447 Q269,447 211,397 Q153,347 140,271 L508,271 Q509,276 509,288 Q509,351 467,399 Q426,447 346,447"/> 
            <glyph glyph-name="Ě" unicode="&#x11A;" horiz-adv-x="689" d=" M594,0 L110,0 L221,700 L689,700 L682,657 L260,657 L219,398 L568,398 L561,355 L212,355 L163,43 L601,43 M486,763 L438,763 L352,893 L399,893 L465,796 L563,893 L615,893"/> 
            <glyph glyph-name="ě" unicode="&#x11B;" horiz-adv-x="553" d=" M339,30 Q416,30 487,74 L481,28 Q423,-12 333,-12 Q228,-12 159,51 Q90,114 90,215 Q90,325 163,407 Q236,489 350,489 Q448,489 501,426 Q553,364 553,281 Q553,253 550,232 L135,232 L135,216 Q135,129 193,80 Q252,30 339,30 M346,447 Q269,447 211,397 Q153,347 140,271 L508,271 Q509,276 509,288 Q509,351 467,399 Q426,447 346,447 M400,577 L352,577 L266,707 L313,707 L379,608 L476,707 L528,707"/> 
            <glyph glyph-name="Ĝ" unicode="&#x11C;" horiz-adv-x="758" d=" M663,109 L711,401 L758,401 L707,87 Q598,-12 455,-12 Q310,-12 219,81 Q128,175 128,318 Q128,481 234,596 Q341,712 505,712 Q648,712 740,631 L733,585 Q639,668 504,668 Q366,668 270,567 Q175,466 175,320 Q175,195 254,113 Q334,32 460,32 Q577,32 663,109 M530,893 L578,893 L664,763 L617,763 L551,860 L453,763 L401,763"/> 
            <glyph glyph-name="ĝ" unicode="&#x11D;" horiz-adv-x="615" d=" M557,386 L570,477 L615,477 L543,11 Q526,-97 453.5,-150.5 Q381,-204 263,-204 Q214,-204 162.5,-190.5 Q111,-177 77,-157 L85,-112 Q164,-162 266,-162 Q466,-162 498,17 L508,76 Q433,-8 314,-8 Q212,-8 150,57 Q90,123 90,218 Q90,329 164,409 Q239,489 353,489 Q419,489 473.5,460 Q528,431 557,386 M518,141 L548,335 Q525,381 474,413 Q422,447 358,447 Q266,447 201,381 Q137,317 137,221 Q137,140 190,87 Q243,34 328,34 Q384,34 436,64 Q490,96 518,141 M391,706 L439,706 L525,576 L478,576 L412,673 L314,576 L262,576"/> 
            <glyph glyph-name="Ğ" unicode="&#x11E;" horiz-adv-x="758" d=" M663,109 L711,401 L758,401 L707,87 Q598,-12 455,-12 Q310,-12 219,81 Q128,175 128,318 Q128,481 234,596 Q341,712 505,712 Q648,712 740,631 L733,585 Q639,668 504,668 Q366,668 270,567 Q175,466 175,320 Q175,195 254,113 Q334,32 460,32 Q577,32 663,109 M544,765 Q495,765 461.5,796 Q428,827 428,874 Q428,890 429,895 L468,895 Q467,890 467,878 Q467,845 488.5,824 Q510,803 545,803 Q583,803 610.5,828.5 Q638,854 646,895 L686,895 Q678,840 638,802 Q598,765 544,765"/> 
            <glyph glyph-name="ğ" unicode="&#x11F;" horiz-adv-x="615" d=" M557,386 L570,477 L615,477 L543,11 Q526,-97 453.5,-150.5 Q381,-204 263,-204 Q214,-204 162.5,-190.5 Q111,-177 77,-157 L85,-112 Q164,-162 266,-162 Q466,-162 498,17 L508,76 Q433,-8 314,-8 Q212,-8 150,57 Q90,123 90,218 Q90,329 164,409 Q239,489 353,489 Q419,489 473.5,460 Q528,431 557,386 M518,141 L548,335 Q525,381 474,413 Q422,447 358,447 Q266,447 201,381 Q137,317 137,221 Q137,140 190,87 Q243,34 328,34 Q384,34 436,64 Q490,96 518,141 M394,578 Q345,578 311.5,608.5 Q278,639 278,686 Q278,702 279,707 L318,707 Q317,702 317,690 Q317,657 338.5,636.5 Q360,616 395,616 Q433,616 460.5,641 Q488,666 496,707 L536,707 Q528,652 488,614 Q448,578 394,578"/> 
            <glyph glyph-name="Ġ" unicode="&#x120;" horiz-adv-x="758" d=" M663,109 L711,401 L758,401 L707,87 Q598,-12 455,-12 Q310,-12 219,81 Q128,175 128,318 Q128,481 234,596 Q341,712 505,712 Q648,712 740,631 L733,585 Q639,668 504,668 Q366,668 270,567 Q175,466 175,320 Q175,195 254,113 Q334,32 460,32 Q577,32 663,109 M518,798 Q501,814 508.5,835 Q516,856 535,861.5 Q554,867 572,852 Q589,836 581.5,815 Q574,794 555,788.5 Q536,783 518,798"/> 
            <glyph glyph-name="ġ" unicode="&#x121;" horiz-adv-x="615" d=" M557,386 L570,477 L615,477 L543,11 Q526,-97 453.5,-150.5 Q381,-204 263,-204 Q214,-204 162.5,-190.5 Q111,-177 77,-157 L85,-112 Q164,-162 266,-162 Q466,-162 498,17 L508,76 Q433,-8 314,-8 Q212,-8 150,57 Q90,123 90,218 Q90,329 164,409 Q239,489 353,489 Q419,489 473.5,460 Q528,431 557,386 M518,141 L548,335 Q525,381 474,413 Q422,447 358,447 Q266,447 201,381 Q137,317 137,221 Q137,140 190,87 Q243,34 328,34 Q384,34 436,64 Q490,96 518,141 M391,619 Q374,635 381.5,656 Q389,677 408,682.5 Q427,688 445,673 Q462,657 454.5,636 Q447,615 428,609.5 Q409,604 391,619"/> 
            <glyph glyph-name="Ģ" unicode="&#x122;" horiz-adv-x="758" d=" M663,109 L711,401 L758,401 L707,87 Q598,-12 455,-12 Q310,-12 219,81 Q128,175 128,318 Q128,481 234,596 Q341,712 505,712 Q648,712 740,631 L733,585 Q639,668 504,668 Q366,668 270,567 Q175,466 175,320 Q175,195 254,113 Q334,32 460,32 Q577,32 663,109 M386,-218 L346,-218 L425,-50 L474,-50"/> 
            <glyph glyph-name="ģ" unicode="&#x123;" horiz-adv-x="615" d=" M557,386 L570,477 L615,477 L543,11 Q526,-97 453.5,-150.5 Q381,-204 263,-204 Q214,-204 162.5,-190.5 Q111,-177 77,-157 L85,-112 Q164,-162 266,-162 Q466,-162 498,17 L508,76 Q433,-8 314,-8 Q212,-8 150,57 Q90,123 90,218 Q90,329 164,409 Q239,489 353,489 Q419,489 473.5,460 Q528,431 557,386 M518,141 L548,335 Q525,381 474,413 Q422,447 358,447 Q266,447 201,381 Q137,317 137,221 Q137,140 190,87 Q243,34 328,34 Q384,34 436,64 Q490,96 518,141 M438,721 L478,721 L399,553 L350,553"/> 
            <glyph glyph-name="Ĥ" unicode="&#x124;" horiz-adv-x="770" d=" M156,0 L110,0 L221,700 L267,700 L219,398 L676,398 L724,700 L770,700 L659,0 L613,0 L669,355 L212,355 M500,893 L548,893 L634,763 L587,763 L521,860 L423,763 L371,763"/> 
            <glyph glyph-name="ĥ" unicode="&#x125;" horiz-adv-x="570" d=" M561,251 L522,0 L477,0 L517,254 Q524,297 524,326 Q524,385 488.5,416 Q453,447 390,447 Q332,447 276,414 Q222,383 188,340 L134,0 L89,0 L200,700 L245,700 L197,398 Q288,489 404,489 Q479,489 524.5,446 Q570,403 570,331 Q570,320 561,251 M228,893 L276,893 L362,763 L315,763 L249,860 L151,763 L99,763"/> 
            <glyph glyph-name="Ħ" unicode="&#x126;" horiz-adv-x="870" d=" M179,0 L133,0 L220,548 L125,548 L131,585 L226,585 L244,700 L290,700 L272,585 L729,585 L747,700 L793,700 L775,585 L870,585 L864,548 L769,548 L682,0 L636,0 L692,355 L235,355 M266,548 L242,398 L699,398 L723,548"/> 
            <glyph glyph-name="ħ" unicode="&#x127;" horiz-adv-x="587" d=" M389,586 L382,545 L246,545 L214,341 Q305,432 421,432 Q496,432 541.5,389 Q587,346 587,274 Q587,263 578,194 L548,0 L503,0 L534,197 Q541,240 541,269 Q541,328 505.5,359 Q470,390 407,390 Q348,390 293,357 Q239,326 205,283 L160,0 L115,0 L201,545 L99,545 L106,586 L208,586 L226,700 L271,700 L253,586"/> 
            <glyph glyph-name="Ĩ" unicode="&#x128;" horiz-adv-x="419" d=" M382,873 L419,873 Q411,829 387,803 Q363,777 329,777 Q301,777 258,808 Q217,839 196,839 Q159,839 147,783 L110,783 Q118,826 142.5,851.5 Q167,877 200,877 Q228,877 271,846 Q314,815 332,815 Q368,815 382,873 M158,0 L112,0 L223,700 L269,700"/> 
            <glyph glyph-name="ĩ" unicode="&#x129;" horiz-adv-x="377" d=" M288,593 Q259,593 216,624 Q172,656 155,656 Q118,656 105,599 L67,599 Q75,643 99.5,669.5 Q124,696 158,696 Q186,696 229,665 Q272,634 291,634 Q324,634 339,691 L377,691 Q369,646 345,619.5 Q321,593 288,593 M148,0 L103,0 L179,477 L224,477"/> 
            <glyph glyph-name="Ī" unicode="&#x12A;" horiz-adv-x="385" d=" M158,0 L112,0 L223,700 L269,700 M379,810 L149,810 L154,848 L385,848"/> 
            <glyph glyph-name="ī" unicode="&#x12B;" horiz-adv-x="346" d=" M148,0 L103,0 L179,477 L224,477 M340,625 L110,625 L115,663 L346,663"/> 
            <glyph glyph-name="Ĭ" unicode="&#x12C;" horiz-adv-x="400" d=" M258,763 Q209,763 175.5,794 Q142,825 142,872 Q142,888 143,893 L182,893 Q181,888 181,876 Q181,843 202.5,822 Q224,801 259,801 Q297,801 324.5,826.5 Q352,852 360,893 L400,893 Q392,838 352,800 Q312,763 258,763 M158,0 L112,0 L223,700 L269,700"/> 
            <glyph glyph-name="ĭ" unicode="&#x12D;" horiz-adv-x="358" d=" M216,578 Q167,578 133.5,608.5 Q100,639 100,686 Q100,702 101,707 L140,707 Q139,702 139,690 Q139,657 160.5,636.5 Q182,616 217,616 Q255,616 282.5,641 Q310,666 318,707 L358,707 Q350,652 310,614 Q270,578 216,578 M148,0 L103,0 L179,477 L224,477"/> 
            <glyph glyph-name="Į" unicode="&#x12E;" horiz-adv-x="269" d=" M112,0 L223,700 L269,700 L158,0 Q103,-51 103,-101 Q103,-128 121,-143.5 Q139,-159 170,-159 Q188,-159 211,-153 L205,-186 Q184,-193 156,-193 Q114,-193 89.5,-170.5 Q65,-148 65,-111 Q65,-50 112,0"/> 
            <glyph glyph-name="į" unicode="&#x12F;" horiz-adv-x="267" d=" M146,-193 Q104,-193 79.5,-170.5 Q55,-148 55,-111 Q55,-52 103,0 L179,477 L224,477 L148,0 Q93,-51 93,-101 Q93,-128 111,-143.5 Q129,-159 160,-159 Q178,-159 201,-153 L195,-186 Q174,-193 146,-193 M225,608 Q201,607 191.5,626.5 Q182,646 192,665.5 Q202,685 225,684 Q248,685 257.5,665.5 Q267,646 257.5,626.5 Q248,607 225,608"/> 
            <glyph glyph-name="İ" unicode="&#x130;" horiz-adv-x="309" d=" M158,0 L112,0 L223,700 L269,700 M238,798 Q221,814 228.5,835 Q236,856 255,861.5 Q274,867 292,852 Q309,836 301.5,815 Q294,794 275,788.5 Q256,783 238,798"/> 
            <glyph glyph-name="ı" unicode="&#x131;" horiz-adv-x="224" d=" M148,0 L103,0 L179,477 L224,477"/> 
            <glyph glyph-name="Ĳ" unicode="&#x132;" horiz-adv-x="615" d=" M198,246 L152,246 L224,700 L270,700 M569,700 L615,700 L536,202 Q503,-12 288,-12 Q242,-12 195.5,2.5 Q149,17 119,42 L127,91 Q153,65 197.5,48.5 Q242,32 287,32 Q463,32 491,213"/> 
            <glyph glyph-name="ĳ" unicode="&#x133;" horiz-adv-x="497" d=" M219,-204 Q172,-204 145,-186 L152,-143 Q180,-162 218,-162 Q306,-162 322,-59 L407,477 L452,477 L366,-67 Q355,-137 315.5,-170.5 Q276,-204 219,-204 M426,619 Q409,635 416.5,656 Q424,677 443,682.5 Q462,688 480,673 Q497,657 489.5,636 Q482,615 463,609.5 Q444,604 426,619 M148,0 L103,0 L179,477 L224,477 M225,608 Q201,607 191.5,626.5 Q182,646 192,665.5 Q202,685 225,684 Q248,685 257.5,665.5 Q267,646 257.5,626.5 Q248,607 225,608"/> 
            <glyph glyph-name="Ĵ" unicode="&#x134;" horiz-adv-x="628" d=" M467,700 L513,700 L433,195 Q399,-13 191,-13 Q96,-13 38,37 L45,86 Q97,31 191,31 Q278,31 325.5,72.5 Q373,114 388,206 M494,893 L543,893 L628,763 L581,763 L516,860 L418,763 L366,763"/> 
            <glyph glyph-name="ĵ" unicode="&#x135;" horiz-adv-x="340" d=" M-9,-204 Q-56,-204 -83,-186 L-76,-143 Q-48,-162 -10,-162 Q78,-162 94,-59 L179,477 L224,477 L138,-67 Q127,-137 87.5,-170.5 Q48,-204 -9,-204 M206,706 L254,706 L340,576 L293,576 L227,673 L129,576 L77,576"/> 
            <glyph glyph-name="Ķ" unicode="&#x136;" horiz-adv-x="688" d=" M156,0 L110,0 L221,700 L267,700 L218,391 L622,700 L688,700 L265,374 L632,0 L570,0 L213,364 M288,-218 L248,-218 L327,-50 L376,-50"/> 
            <glyph glyph-name="ķ" unicode="&#x137;" horiz-adv-x="524" d=" M134,0 L89,0 L200,700 L245,700 L178,273 L457,477 L524,477 L223,256 L486,0 L424,0 L173,245 M207,-218 L167,-218 L246,-50 L295,-50"/> 
            <glyph glyph-name="ĸ" unicode="&#x138;" horiz-adv-x="523" d=" M135,0 L89,0 L165,477 L211,477 L178,273 L459,477 L523,477 L222,256 L484,0 L424,0 L174,245"/> 
            <glyph glyph-name="Ĺ" unicode="&#x139;" horiz-adv-x="570" d=" M563,0 L110,0 L221,700 L267,700 L163,43 L570,43 M281,763 L232,763 L349,893 L410,893"/> 
            <glyph glyph-name="ĺ" unicode="&#x13A;" horiz-adv-x="385" d=" M196,700 L241,700 L150,122 Q145,84 145,76 Q145,30 198,30 Q232,30 258,44 L252,1 Q225,-12 183,-12 Q99,-12 99,68 Q99,92 104,117 M256,763 L207,763 L324,893 L385,893"/> 
            <glyph glyph-name="Ļ" unicode="&#x13B;" horiz-adv-x="570" d=" M563,0 L110,0 L221,700 L267,700 L163,43 L570,43 M284,-218 L244,-218 L323,-50 L372,-50"/> 
            <glyph glyph-name="ļ" unicode="&#x13C;" horiz-adv-x="258" d=" M196,700 L241,700 L150,122 Q145,84 145,76 Q145,30 198,30 Q232,30 258,44 L252,1 Q225,-12 183,-12 Q99,-12 99,68 Q99,92 104,117 M112,-218 L72,-218 L151,-50 L200,-50"/> 
            <glyph glyph-name="Ľ" unicode="&#x13D;" horiz-adv-x="674" d=" M558,0 L105,0 L216,700 L262,700 L158,43 L565,43 M586,531 L546,531 L625,699 L674,699"/> 
            <glyph glyph-name="ľ" unicode="&#x13E;" horiz-adv-x="458" d=" M202,700 L247,700 L156,122 Q151,84 151,76 Q151,30 204,30 Q238,30 264,44 L258,1 Q231,-12 189,-12 Q105,-12 105,68 Q105,92 110,117 M370,531 L330,531 L409,699 L458,699"/> 
            <glyph glyph-name="Ŀ" unicode="&#x13F;" horiz-adv-x="623" d=" M563,0 L110,0 L221,700 L267,700 L163,43 L570,43 M552,352 Q535,368 542.5,389 Q550,410 569,415.5 Q588,421 606,406 Q623,390 615.5,369 Q608,348 589,342.5 Q570,337 552,352"/> 
            <glyph glyph-name="ŀ" unicode="&#x140;" horiz-adv-x="384" d=" M204,700 L249,700 L158,122 Q153,84 153,76 Q153,30 206,30 Q240,30 266,44 L260,1 Q233,-12 191,-12 Q107,-12 107,68 Q107,92 112,117 M313,351 Q296,367 303.5,388 Q311,409 330,414.5 Q349,420 367,405 Q384,389 376.5,368 Q369,347 350,341.5 Q331,336 313,351"/> 
            <glyph glyph-name="Ł" unicode="&#x141;" horiz-adv-x="572" d=" M565,0 L112,0 L167,344 L64,288 L70,335 L174,392 L223,700 L269,700 L224,419 L400,515 L392,467 L217,371 L165,43 L572,43"/> 
            <glyph glyph-name="ł" unicode="&#x142;" horiz-adv-x="356" d=" M244,700 L289,700 L245,424 L356,485 L348,438 L238,377 L198,122 Q193,84 193,76 Q193,30 246,30 Q280,30 306,44 L300,1 Q273,-12 231,-12 Q147,-12 147,68 Q147,92 152,117 L189,350 L78,289 L85,336 L196,397"/> 
            <glyph glyph-name="Ń" unicode="&#x143;" horiz-adv-x="784" d=" M674,0 L633,0 L254,624 L156,0 L110,0 L220,700 L261,700 L640,76 L738,700 L784,700 M534,763 L485,763 L602,893 L663,893"/> 
            <glyph glyph-name="ń" unicode="&#x144;" horiz-adv-x="570" d=" M89,0 L165,477 L210,477 L197,398 Q288,489 404,489 Q479,489 524.5,446 Q570,403 570,331 Q570,320 561,251 L522,0 L477,0 L517,254 Q524,297 524,326 Q524,385 488.5,416 Q453,447 390,447 Q332,447 276,414 Q222,383 188,340 L134,0 M406,577 L356,577 L473,707 L535,707"/> 
            <glyph glyph-name="Ņ" unicode="&#x145;" horiz-adv-x="784" d=" M674,0 L633,0 L254,624 L156,0 L110,0 L220,700 L261,700 L640,76 L738,700 L784,700 M341,-218 L301,-218 L380,-50 L429,-50"/> 
            <glyph glyph-name="ņ" unicode="&#x146;" horiz-adv-x="570" d=" M89,0 L165,477 L210,477 L197,398 Q288,489 404,489 Q479,489 524.5,446 Q570,403 570,331 Q570,320 561,251 L522,0 L477,0 L517,254 Q524,297 524,326 Q524,385 488.5,416 Q453,447 390,447 Q332,447 276,414 Q222,383 188,340 L134,0 M251,-218 L211,-218 L290,-50 L339,-50"/> 
            <glyph glyph-name="Ň" unicode="&#x147;" horiz-adv-x="784" d=" M674,0 L633,0 L254,624 L156,0 L110,0 L220,700 L261,700 L640,76 L738,700 L784,700 M527,763 L479,763 L393,893 L440,893 L506,796 L604,893 L656,893"/> 
            <glyph glyph-name="ň" unicode="&#x148;" horiz-adv-x="570" d=" M89,0 L165,477 L210,477 L197,398 Q288,489 404,489 Q479,489 524.5,446 Q570,403 570,331 Q570,320 561,251 L522,0 L477,0 L517,254 Q524,297 524,326 Q524,385 488.5,416 Q453,447 390,447 Q332,447 276,414 Q222,383 188,340 L134,0 M427,577 L379,577 L293,707 L340,707 L406,608 L503,707 L555,707"/> 
            <glyph glyph-name="ŉ" unicode="&#x149;" horiz-adv-x="616" d=" M135,0 L211,477 L256,477 L243,398 Q334,489 450,489 Q525,489 570.5,446 Q616,403 616,331 Q616,320 607,251 L568,0 L523,0 L563,254 Q570,297 570,326 Q570,385 534.5,416 Q499,447 436,447 Q378,447 322,414 Q268,383 234,340 L180,0 M135,531 L95,531 L174,699 L223,699"/> 
            <glyph glyph-name="Ŋ" unicode="&#x14A;" horiz-adv-x="784" d=" M469,-160 Q604,-160 629,-3 L630,5 L254,624 L156,0 L110,0 L220,700 L261,700 L640,76 L738,700 L784,700 L672,-12 Q640,-204 470,-204 Q406,-204 364,-180 L372,-130 Q412,-160 469,-160"/> 
            <glyph glyph-name="ŋ" unicode="&#x14B;" horiz-adv-x="570" d=" M89,0 L165,477 L210,477 L197,398 Q288,489 404,489 Q479,489 524.5,446 Q570,403 570,331 Q570,320 561,251 L522,0 L477,0 L517,254 Q524,297 524,326 Q524,385 488.5,416 Q453,447 390,447 Q332,447 276,414 Q222,383 188,340 L134,0 M522,0 L511,-67 Q500,-137 460.5,-170.5 Q421,-204 363,-204 Q316,-204 289,-186 L296,-143 Q324,-162 362,-162 Q451,-162 467,-59 L477,0"/> 
            <glyph glyph-name="Ō" unicode="&#x14C;" horiz-adv-x="828" d=" M501,712 Q648,712 736,618 Q826,524 826,381 Q828,278 780,187 Q732,96 644.5,41.5 Q557,-13 454,-12 Q308,-12 218,82 Q128,176 128,320 Q128,481 234,596 Q341,712 501,712 M456,32 Q589,32 684,133 Q779,236 779,380 Q779,504 701,586 Q625,668 499,668 Q364,668 269,567 Q175,467 175,321 Q175,196 253,114 Q331,32 456,32 M661,810 L431,810 L436,848 L667,848"/> 
            <glyph glyph-name="ō" unicode="&#x14D;" horiz-adv-x="594" d=" M356,489 Q464,489 529,421 Q594,353 594,255 Q594,145 518,66 Q442,-12 329,-12 Q221,-12 155,56 Q90,124 90,222 Q90,333 166,410 Q242,489 356,489 M329,32 Q419,32 484,97 Q548,162 548,256 Q548,338 494,391 Q442,445 355,445 Q264,445 200,379 Q136,315 136,221 Q136,140 189,85 Q244,32 329,32 M522,625 L292,625 L297,663 L528,663"/> 
            <glyph glyph-name="Ŏ" unicode="&#x14E;" horiz-adv-x="828" d=" M501,712 Q648,712 736,618 Q826,524 826,381 Q828,278 780,187 Q732,96 644.5,41.5 Q557,-13 454,-12 Q308,-12 218,82 Q128,176 128,320 Q128,481 234,596 Q341,712 501,712 M456,32 Q589,32 684,133 Q779,236 779,380 Q779,504 701,586 Q625,668 499,668 Q364,668 269,567 Q175,467 175,321 Q175,196 253,114 Q331,32 456,32 M542,765 Q493,765 459.5,796 Q426,827 426,874 Q426,890 427,895 L466,895 Q465,890 465,878 Q465,845 486.5,824 Q508,803 543,803 Q581,803 608.5,828.5 Q636,854 644,895 L684,895 Q676,840 636,802 Q596,765 542,765"/> 
            <glyph glyph-name="ŏ" unicode="&#x14F;" horiz-adv-x="594" d=" M356,489 Q464,489 529,421 Q594,353 594,255 Q594,145 518,66 Q442,-12 329,-12 Q221,-12 155,56 Q90,124 90,222 Q90,333 166,410 Q242,489 356,489 M329,32 Q419,32 484,97 Q548,162 548,256 Q548,338 494,391 Q442,445 355,445 Q264,445 200,379 Q136,315 136,221 Q136,140 189,85 Q244,32 329,32 M402,580 Q353,580 319.5,610.5 Q286,641 286,688 Q286,704 287,709 L326,709 Q325,704 325,692 Q325,659 346.5,638.5 Q368,618 403,618 Q441,618 468.5,643 Q496,668 504,709 L544,709 Q536,654 496,616 Q456,580 402,580"/> 
            <glyph glyph-name="Ő" unicode="&#x150;" horiz-adv-x="828" d=" M501,712 Q648,712 736,618 Q826,524 826,381 Q828,278 780,187 Q732,96 644.5,41.5 Q557,-13 454,-12 Q308,-12 218,82 Q128,176 128,320 Q128,481 234,596 Q341,712 501,712 M456,32 Q589,32 684,133 Q779,236 779,380 Q779,504 701,586 Q625,668 499,668 Q364,668 269,567 Q175,467 175,321 Q175,196 253,114 Q331,32 456,32 M615,763 L566,763 L684,893 L744,893 M471,763 L422,763 L539,893 L601,893"/> 
            <glyph glyph-name="ő" unicode="&#x151;" horiz-adv-x="599" d=" M356,489 Q464,489 529,421 Q594,353 594,255 Q594,145 518,66 Q442,-12 329,-12 Q221,-12 155,56 Q90,124 90,222 Q90,333 166,410 Q242,489 356,489 M329,32 Q419,32 484,97 Q548,162 548,256 Q548,338 494,391 Q442,445 355,445 Q264,445 200,379 Q136,315 136,221 Q136,140 189,85 Q244,32 329,32 M470,577 L421,577 L539,707 L599,707 M326,577 L277,577 L394,707 L456,707"/> 
            <glyph glyph-name="Œ" unicode="&#x152;" horiz-adv-x="1197" d=" M541,700 L1197,700 L1191,657 L773,657 L732,398 L1076,398 L1070,355 L725,355 L675,43 L1109,43 L1102,0 L471,0 Q315,0 221,85 Q128,170 128,311 Q128,480 244,590 Q362,700 541,700 M175,311 Q175,190 256,116 Q336,43 479,43 L629,43 L727,657 L545,657 Q385,657 279,562 Q175,467 175,311"/> 
            <glyph glyph-name="œ" unicode="&#x153;" horiz-adv-x="1008" d=" M794,30 Q871,30 942,74 L936,28 Q878,-12 788,-12 Q709,-12 648,25 Q587,62 561,126 Q527,62 465.5,25 Q404,-12 329,-12 Q221,-12 155,56 Q90,124 90,222 Q90,333 166,410 Q242,489 356,489 Q435,489 492.5,451 Q550,413 577,348 Q611,413 670,451 Q729,489 805,489 Q904,489 956,426 Q1008,364 1008,281 Q1008,253 1005,232 L590,232 L590,216 Q590,129 648,80 Q707,30 794,30 M329,32 Q419,32 484,97 Q548,162 548,256 Q548,338 494,391 Q442,445 355,445 Q264,445 200,379 Q136,315 136,221 Q136,140 189,85 Q244,32 329,32 M801,447 Q724,447 666,397 Q608,347 595,271 L963,271 Q964,276 964,288 Q964,351 922,399 Q882,447 801,447"/> 
            <glyph glyph-name="Ŕ" unicode="&#x154;" horiz-adv-x="713" d=" M519,332 L691,0 L638,0 L468,329 L209,329 L156,0 L110,0 L221,700 L518,700 Q609,700 661,655.5 Q713,611 713,536 Q713,455 660,400.5 Q607,346 519,332 M512,657 L260,657 L215,372 L483,372 Q560,372 612,415 Q666,458 666,531 Q666,591 626,624 Q586,657 512,657 M468,763 L419,763 L536,893 L597,893"/> 
            <glyph glyph-name="ŕ" unicode="&#x155;" horiz-adv-x="418" d=" M134,0 L89,0 L164,477 L209,477 L194,377 Q228,425 285.5,456.5 Q343,488 404,489 L397,443 Q330,443 272,405 Q216,368 184,316 M289,577 L239,577 L356,707 L418,707"/> 
            <glyph glyph-name="Ŗ" unicode="&#x156;" horiz-adv-x="713" d=" M519,332 L691,0 L638,0 L468,329 L209,329 L156,0 L110,0 L221,700 L518,700 Q609,700 661,655.5 Q713,611 713,536 Q713,455 660,400.5 Q607,346 519,332 M512,657 L260,657 L215,372 L483,372 Q560,372 612,415 Q666,458 666,531 Q666,591 626,624 Q586,657 512,657 M318,-218 L278,-218 L357,-50 L406,-50"/> 
            <glyph glyph-name="ŗ" unicode="&#x157;" horiz-adv-x="404" d=" M134,0 L89,0 L164,477 L209,477 L194,377 Q228,425 285.5,456.5 Q343,488 404,489 L397,443 Q330,443 272,405 Q216,368 184,316 M40,-218 L0,-218 L79,-50 L128,-50"/> 
            <glyph glyph-name="Ř" unicode="&#x158;" horiz-adv-x="713" d=" M519,332 L691,0 L638,0 L468,329 L209,329 L156,0 L110,0 L221,700 L518,700 Q609,700 661,655.5 Q713,611 713,536 Q713,455 660,400.5 Q607,346 519,332 M512,657 L260,657 L215,372 L483,372 Q560,372 612,415 Q666,458 666,531 Q666,591 626,624 Q586,657 512,657 M485,763 L437,763 L351,893 L398,893 L464,796 L562,893 L614,893"/> 
            <glyph glyph-name="ř" unicode="&#x159;" horiz-adv-x="441" d=" M135,0 L90,0 L165,477 L210,477 L195,377 Q229,425 286.5,456.5 Q344,488 405,489 L398,443 Q331,443 273,405 Q217,368 185,316 M313,577 L265,577 L179,707 L226,707 L292,608 L389,707 L441,707"/> 
            <glyph glyph-name="Ś" unicode="&#x15A;" horiz-adv-x="613" d=" M613,651 L606,605 Q512,668 388,668 Q309,668 247,631 Q185,595 185,524 Q185,495 202,470 Q212,456 247,434 Q261,425 310,409 L346,398 L381,388 L443,367 Q464,360 498,343 Q544,321 566.5,288.5 Q589,256 593,204 Q593,103 511,45 Q430,-12 319,-12 Q243,-12 166,11 Q93,33 57,63 L66,114 Q99,83 170,57 Q239,32 320,32 Q370,32 420,47 Q469,63 506,102 Q544,143 544,197 Q544,250 507,281 Q492,294 462,308 Q423,327 350,348 Q298,362 265,375 Q234,388 201,406 Q138,445 138,519 Q138,582 175.5,627 Q213,672 269,692 Q325,712 391,712 Q452,712 512.5,695.5 Q573,679 613,651 M428,763 L379,763 L496,893 L557,893"/> 
            <glyph glyph-name="ś" unicode="&#x15B;" horiz-adv-x="480" d=" M480,435 L474,389 Q398,447 293,447 Q260,448 230.5,440 Q201,432 178.5,410 Q156,388 155,356 Q155,329 181,305 Q192,297 213,288 Q243,276 295,260 Q366,238 408,213 Q458,184 458,131 Q458,60 398,24 Q340,-12 259,-12 Q197,-12 139.5,6.5 Q82,25 50,51 L57,99 Q142,30 260,30 Q317,30 366,53 Q414,76 414,127 Q414,159 383,179 Q352,199 276,221 Q207,242 165,265 Q110,296 110,353 Q110,420 164,454 Q219,489 295,489 Q405,489 480,435 M333,577 L283,577 L400,707 L462,707"/> 
            <glyph glyph-name="Ŝ" unicode="&#x15C;" horiz-adv-x="613" d=" M613,652 L606,606 Q512,669 388,669 Q312,672 249,633 Q186,594 185,524 Q185,495 202,470 Q212,456 247,434 Q261,425 310,409 L346,398 L381,388 L443,367 Q464,360 498,343 Q544,321 566.5,288.5 Q589,256 593,204 Q593,103 511,45 Q431,-13 319,-13 Q243,-13 166,10 Q93,32 57,62 L66,113 Q99,82 170,56 Q239,31 320,31 Q372,31 420,47 Q469,63 506,102 Q544,143 544,197 Q544,250 507,281 Q492,294 462,308 Q423,327 350,348 Q298,362 265,375 Q234,388 201,406 Q138,445 138,519 Q138,610 213.5,662.5 Q289,715 391,713 Q452,713 512.5,696.5 Q573,680 613,652 M414,893 L463,893 L548,763 L501,763 L436,860 L338,763 L286,763"/> 
            <glyph glyph-name="ŝ" unicode="&#x15D;" horiz-adv-x="480" d=" M480,435 L474,389 Q398,447 293,447 Q260,448 230.5,440 Q201,432 178.5,410 Q156,388 155,356 Q155,329 181,305 Q192,297 213,288 Q243,276 295,260 Q366,238 408,213 Q458,184 458,131 Q458,60 398,24 Q340,-12 259,-12 Q197,-12 139.5,6.5 Q82,25 50,51 L57,99 Q142,30 260,30 Q317,30 366,53 Q414,76 414,127 Q414,159 383,179 Q352,199 276,221 Q207,242 165,265 Q110,296 110,353 Q110,420 164,454 Q219,489 295,489 Q405,489 480,435 M324,706 L372,706 L458,576 L411,576 L345,673 L247,576 L195,576"/> 
            <glyph glyph-name="Ş" unicode="&#x15E;" horiz-adv-x="613" d=" M260,-127 L203,-127 L298,-11 Q223,-8 157,14 Q87,37 57,63 L66,114 Q99,83 170,57 Q239,32 320,32 Q370,32 420,47 Q469,63 506,102 Q544,143 544,197 Q544,250 507,281 Q492,294 462,308 Q423,327 350,348 Q298,362 265,375 Q234,388 201,406 Q138,445 138,519 Q138,582 175.5,627 Q213,672 269,692 Q325,712 391,712 Q452,712 512.5,695.5 Q573,679 613,651 L606,605 Q512,668 388,668 Q309,668 247,631 Q185,595 185,524 Q185,495 202,470 Q212,456 247,434 Q261,425 310,409 L346,398 L381,388 L443,367 Q464,360 498,343 Q544,321 566.5,288.5 Q589,256 593,204 Q593,109 519,52 Q446,-5 342,-11"/> 
            <glyph glyph-name="ş" unicode="&#x15F;" horiz-adv-x="480" d=" M195,-127 L138,-127 L233,-11 Q121,-4 50,51 L57,99 Q142,30 260,30 Q317,30 366,53 Q414,76 414,127 Q414,159 383,179 Q352,199 276,221 Q207,242 165,265 Q110,296 110,353 Q110,420 164,454 Q219,489 295,489 Q405,489 480,435 L474,389 Q398,447 293,447 Q260,448 230.5,440 Q201,432 178.5,410 Q156,388 155,356 Q155,329 181,305 Q192,297 213,288 Q243,276 295,260 Q366,238 408,213 Q458,184 458,131 Q458,64 405,28 Q353,-6 277,-11"/> 
            <glyph glyph-name="Š" unicode="&#x160;" horiz-adv-x="613" d=" M613,651 L606,605 Q512,668 388,668 Q309,668 247,631 Q185,595 185,524 Q185,495 202,470 Q212,456 247,434 Q261,425 310,409 L346,398 L381,388 L443,367 Q464,360 498,343 Q544,321 566.5,288.5 Q589,256 593,204 Q593,103 511,45 Q430,-12 319,-12 Q243,-12 166,11 Q93,33 57,63 L66,114 Q99,83 170,57 Q239,32 320,32 Q370,32 420,47 Q469,63 506,102 Q544,143 544,197 Q544,250 507,281 Q492,294 462,308 Q423,327 350,348 Q298,362 265,375 Q234,388 201,406 Q138,445 138,519 Q138,582 175.5,627 Q213,672 269,692 Q325,712 391,712 Q452,712 512.5,695.5 Q573,679 613,651 M440,763 L392,763 L306,893 L353,893 L419,796 L517,893 L569,893"/> 
            <glyph glyph-name="š" unicode="&#x161;" horiz-adv-x="480" d=" M480,435 L474,389 Q398,447 293,447 Q260,448 230.5,440 Q201,432 178.5,410 Q156,388 155,356 Q155,329 181,305 Q192,297 213,288 Q243,276 295,260 Q366,238 408,213 Q458,184 458,131 Q458,60 398,24 Q340,-12 259,-12 Q197,-12 139.5,6.5 Q82,25 50,51 L57,99 Q142,30 260,30 Q317,30 366,53 Q414,76 414,127 Q414,159 383,179 Q352,199 276,221 Q207,242 165,265 Q110,296 110,353 Q110,420 164,454 Q219,489 295,489 Q405,489 480,435 M352,577 L304,577 L218,707 L265,707 L331,608 L428,707 L480,707"/> 
            <glyph glyph-name="Ţ" unicode="&#x162;" horiz-adv-x="696" d=" M243,-127 L186,-127 L288,0 L392,657 L141,657 L148,700 L696,700 L689,657 L438,657 L334,0"/> 
            <glyph glyph-name="ţ" unicode="&#x163;" horiz-adv-x="448" d=" M173,146 L218,436 L96,436 L103,477 L225,477 L249,631 L294,631 L270,477 L448,477 L442,436 L263,436 L220,154 Q218,137 216,121 Q214,105 213,98 L212,92 Q212,30 289,30 Q328,30 374,55 L368,10 Q337,-9 285,-12 L203,-127 L146,-127 L243,-10 Q165,4 165,81 Q165,106 173,146"/> 
            <glyph glyph-name="Ť" unicode="&#x164;" horiz-adv-x="696" d=" M453,763 L405,763 L319,893 L366,893 L432,796 L530,893 L582,893 M334,0 L288,0 L392,657 L141,657 L148,700 L696,700 L689,657 L438,657"/> 
            </font>
</defs>
</svg>
