<?xml version="1.0" standalone="no"?>
<!DOCTYPE svg PUBLIC "-//W3C//DTD SVG 1.1//EN" "http://www.w3.org/Graphics/SVG/1.1/DTD/svg11.dtd" >
<svg xmlns="http://www.w3.org/2000/svg">
    <defs>
        <font id="FiraSans-Hair">
            <font-face font-family="FiraSans-Hair"
                       units-per-em="1000"
                       ascent="935"
                       descent="-265"
                       bbox="-701 -350 1360 1050"
                    />
            <missing-glyph horiz-adv-x="0" />
            
            <glyph glyph-name="!" unicode="&#x21;" horiz-adv-x="136" d=" M125,681 L125,197 L111,197 L111,681 M118,27 Q126,27 130.5,22 Q135,17 135,10 Q135,5 133,1.5 Q131,-2 127,-4.5 Q123,-7 118,-7 Q111,-7 106,-2 Q101,3 101,10 Q101,17 106,22 Q111,27 118,27"/> 
            <glyph glyph-name="&quot;" unicode="&#x22;" horiz-adv-x="238" d=" M87,443 L86,681 L101,681 L99,443 M224,443 L222,681 L237,681 L235,443"/> 
            <glyph glyph-name="#" unicode="&#x23;" horiz-adv-x="470" d=" M469,462 L385,462 L353,218 L432,218 L432,205 L351,205 L324,0 L310,0 L337,205 L116,205 L89,0 L75,0 L102,205 L15,205 L15,218 L104,218 L136,462 L52,462 L52,475 L138,475 L162,662 L176,662 L152,475 L373,475 L398,662 L412,662 L387,475 L469,475 M339,218 L371,462 L150,462 L118,218"/> 
            <glyph glyph-name="$" unicode="&#x24;" horiz-adv-x="452" d=" M451,175 Q451,96 399,45 Q347,-6 263,-9 L263,-145 L250,-145 L250,-9 Q189,-9 144,10.5 Q99,30 59,68 L67,78 Q106,41 149,22.5 Q192,4 252,4 Q335,4 386,51 Q437,98 437,175 Q437,247 397.5,283.5 Q358,320 261,351 Q192,373 154.5,394.5 Q117,416 99.5,445.5 Q82,475 82,519 Q82,584 129,626.5 Q176,669 253,670 L253,809 L266,809 L266,670 Q302,669 332.5,660 Q363,651 384.5,638 Q406,625 429,604 L420,594 Q397,615 374,628.5 Q351,642 321.5,649.5 Q292,657 256,657 Q184,657 140,618 Q96,579 96,519 Q96,458 132,426 Q168,394 266,364 Q367,332 409,292 Q451,252 451,175"/> 
            <glyph glyph-name="%" unicode="&#x25;" horiz-adv-x="689" d=" M604,693 L616,686 L156,-13 L145,-6 M196,672 Q226,672 250,661.5 Q274,651 291,631.5 Q308,612 317.5,583 Q327,554 327,519 Q327,448 292,405.5 Q257,363 196,363 Q136,363 101,404.5 Q66,446 66,516 Q66,589 100.5,630.5 Q135,672 196,672 M196,659 Q140,659 110,620.5 Q80,582 80,516 Q80,453 110.5,414 Q141,375 196,375 Q252,375 282,414.5 Q312,454 312,519 Q312,584 282,621.5 Q252,659 196,659 M558,299 Q618,299 653,258.5 Q688,218 688,147 Q688,76 653.5,33.5 Q619,-9 558,-9 Q498,-9 462.5,32.5 Q427,74 427,144 Q427,216 461.5,257.5 Q496,299 558,299 M558,287 Q502,287 472,248.5 Q442,210 442,144 Q442,80 472,41.5 Q502,3 558,3 Q595,3 621.5,21.5 Q648,40 661,72 Q674,104 674,147 Q674,211 643.5,249 Q613,287 558,287"/> 
            <glyph glyph-name="&amp;" unicode="&#x26;" horiz-adv-x="662" d=" M303,691 Q368,691 408,651 Q448,611 448,549 Q448,490 409,450.5 Q370,411 281,361 L526,130 Q573,222 598,351 L611,347 Q585,214 535,121 L661,3 L649,-5 L528,110 Q448,-9 304,-9 Q220,-9 165,39 Q110,87 110,162 Q110,229 146.5,275.5 Q183,322 259,364 Q199,421 176.5,457.5 Q154,494 154,546 Q154,609 196.5,650 Q239,691 303,691 M303,679 Q244,679 206,641 Q168,603 168,546 Q168,513 176.5,489 Q185,465 206.5,438 Q228,411 271,370 Q358,418 395.5,456 Q433,494 433,549 Q433,607 397,643 Q361,679 303,679 M269,355 Q195,315 159.5,270 Q124,225 124,162 Q124,94 174.5,49 Q225,4 304,4 Q376,4 427.5,32.5 Q479,61 518,118"/> 
            <glyph glyph-name="'" unicode="&#x27;" horiz-adv-x="101" d=" M87,443 L86,681 L101,681 L99,443"/> 
            <glyph glyph-name="(" unicode="&#x28;" horiz-adv-x="254" d=" M244,828 L253,822 Q219,772 201,743 Q183,714 157.5,665 Q132,616 119.5,574 Q107,532 97.5,473.5 Q88,415 88,350 Q88,285 97.5,226.5 Q107,168 119.5,126 Q132,84 157.5,35 Q183,-14 201,-43 Q219,-72 253,-122 L244,-128 Q209,-77 189.5,-47.5 Q170,-18 144.5,31.5 Q119,81 106,123 Q93,165 83.5,224.5 Q74,284 74,350 Q74,416 83.5,475.5 Q93,535 106,577 Q119,619 144.5,668.5 Q170,718 189.5,747.5 Q209,777 244,828"/> 
            <glyph glyph-name=")" unicode="&#x29;" horiz-adv-x="254" d=" M83,828 Q112,786 128.5,761 Q145,736 168,696.5 Q191,657 203.5,623.5 Q216,590 229,546.5 Q242,503 247.5,454.5 Q253,406 253,350 Q253,284 243.5,224.5 Q234,165 221,123 Q208,81 182.5,31.5 Q157,-18 137.5,-47.5 Q118,-77 83,-128 L74,-122 Q107,-72 125.5,-43 Q144,-14 169.5,35 Q195,84 207.5,126 Q220,168 229.5,226.5 Q239,285 239,350 Q239,415 229.5,473.5 Q220,532 207.5,574 Q195,616 169.5,665 Q144,714 125.5,743 Q107,772 74,822"/> 
            <glyph glyph-name="*" unicode="&#x2A;" horiz-adv-x="377" d=" M377,608 L225,560 L319,432 L307,423 L215,553 L123,423 L111,432 L206,560 L54,608 L58,620 L209,570 L208,730 L222,730 L221,570 L372,620"/> 
            <glyph glyph-name="+" unicode="&#x2B;" horiz-adv-x="402" d=" M249,493 L249,338 L402,338 L402,324 L249,324 L249,169 L234,169 L234,324 L81,324 L81,338 L234,338 L234,493"/> 
            <glyph glyph-name="," unicode="&#x2C;" horiz-adv-x="90" d=" M73,27 Q81,27 85.5,22 Q90,17 90,10 Q90,4 83,-13 L43,-122 L31,-122 L67,-5 Q56,-2 56,10 Q56,17 60.5,22 Q65,27 73,27"/> 
            <glyph glyph-name="-" unicode="&#x2D;" horiz-adv-x="319" d=" M81,306 L81,319 L319,319 L319,306"/> 
            <glyph glyph-name="." unicode="&#x2E;" horiz-adv-x="90" d=" M73,27 Q81,27 85.5,22 Q90,17 90,10 Q90,5 88,1.5 Q86,-2 82,-4.5 Q78,-7 73,-7 Q65,-7 60.5,-2 Q56,3 56,10 Q56,17 60.5,22 Q65,27 73,27"/> 
            <glyph glyph-name="/" unicode="&#x2F;" horiz-adv-x="383" d=" M369,796 L382,792 L150,-94 L137,-90"/> 
            <glyph glyph-name="0" unicode="&#x30;" horiz-adv-x="462" d=" M270,672 Q461,672 461,331 Q461,-9 270,-9 Q78,-9 78,331 Q78,672 270,672 M270,659 Q92,659 92,331 Q92,4 270,4 Q447,4 447,331 Q447,659 270,659"/> 
            <glyph glyph-name="1" unicode="&#x31;" horiz-adv-x="254" d=" M254,661 L254,0 L240,0 L240,644 L63,531 L56,543 L243,661"/> 
            <glyph glyph-name="2" unicode="&#x32;" horiz-adv-x="401" d=" M221,672 Q298,672 343,625 Q388,578 388,507 Q388,482 385.5,460.5 Q383,439 373,414 Q363,389 355.5,371 Q348,353 325,321 Q302,289 287,269 Q272,249 234,204.5 Q196,160 171.5,132 Q147,104 92,42 Q75,24 66,14 L400,14 L398,0 L48,0 L48,14 Q249,237 298,306 Q365,399 372,476 Q374,490 374,505 Q374,573 332.5,616 Q291,659 220,659 Q169,659 130.5,638 Q92,617 58,575 L47,583 Q85,628 125.5,650 Q166,672 221,672"/> 
            <glyph glyph-name="3" unicode="&#x33;" horiz-adv-x="400" d=" M216,672 Q267,672 304.5,651.5 Q342,631 361.5,595 Q381,559 381,512 Q381,440 341,399.5 Q301,359 242,353 Q311,350 355,305.5 Q399,261 399,180 Q399,96 347,43.5 Q295,-9 210,-9 Q152,-9 110,10.5 Q68,30 31,72 L41,80 Q78,39 117,21.5 Q156,4 209,4 Q290,4 337.5,52.5 Q385,101 385,180 Q385,261 338.5,303.5 Q292,346 212,346 L176,346 L178,359 L212,359 Q276,359 321.5,398 Q367,437 367,512 Q367,578 326,618.5 Q285,659 216,659 Q126,659 58,591 L49,600 Q119,672 216,672"/> 
            <glyph glyph-name="4" unicode="&#x34;" horiz-adv-x="459" d=" M459,204 L459,190 L365,190 L365,0 L351,0 L351,190 L53,190 L53,203 L260,672 L272,666 L68,204 L351,204 L353,418 L365,418 L365,204"/> 
            <glyph glyph-name="5" unicode="&#x35;" horiz-adv-x="409" d=" M388,661 L385,648 L103,648 L103,370 Q159,412 230,412 Q271,412 304.5,398.5 Q338,385 361,359.5 Q384,334 396.5,296.5 Q409,259 409,213 Q409,148 386.5,98 Q364,48 319.5,19.5 Q275,-9 215,-9 Q112,-9 46,64 L56,73 Q118,4 215,4 Q271,4 312,30.5 Q353,57 373.5,104.5 Q394,152 394,213 Q394,302 350,350.5 Q306,399 229,399 Q203,399 180.5,394 Q158,389 140,380 Q122,371 101,356 L89,356 L89,661"/> 
            <glyph glyph-name="6" unicode="&#x36;" horiz-adv-x="447" d=" M279,425 Q355,425 401,373 Q447,321 447,222 Q447,113 400.5,52 Q354,-9 272,-9 Q221,-9 182.5,14 Q144,37 121.5,78.5 Q99,120 88.5,172.5 Q78,225 78,288 Q78,463 137,567.5 Q196,672 302,672 Q359,672 407,635 L399,624 Q356,659 301,659 Q236,659 188,611.5 Q140,564 116.5,484.5 Q93,405 92,302 Q167,425 279,425 M272,4 Q349,4 390.5,62.5 Q432,121 432,222 Q432,269 421,305.5 Q410,342 389.5,365 Q369,388 341,400 Q313,412 279,412 Q167,412 92,281 Q93,221 103.5,172 Q114,123 134.5,84.5 Q155,46 190,25 Q225,4 272,4"/> 
            <glyph glyph-name="7" unicode="&#x37;" horiz-adv-x="388" d=" M388,661 L388,649 L109,-5 L95,-1 L372,648 L41,648 L41,661"/> 
            <glyph glyph-name="8" unicode="&#x38;" horiz-adv-x="459" d=" M304,343 Q389,309 424,270 Q459,231 459,166 Q459,87 405.5,39 Q352,-9 263,-9 Q172,-9 119,39.5 Q66,88 66,168 Q66,302 221,363 Q176,382 148.5,403 Q121,424 108.5,450.5 Q96,477 96,513 Q96,584 144.5,628 Q193,672 263,672 Q333,672 382,629.5 Q431,587 431,512 Q431,474 417.5,444.5 Q404,415 377,390.5 Q350,366 304,343 M110,513 Q110,461 139.5,428.5 Q169,396 241,368 L291,348 Q358,383 387,420 Q416,457 416,512 Q416,581 372.5,620 Q329,659 263,659 Q198,659 154,619 Q110,579 110,513 M264,4 Q345,4 395,48 Q445,92 445,166 Q445,201 435.5,226.5 Q426,252 403.5,272 Q381,292 352,307.5 Q323,323 277,341 L236,357 Q155,325 117.5,280 Q80,235 80,168 Q80,92 129.5,48 Q179,4 264,4"/> 
            <glyph glyph-name="9" unicode="&#x39;" horiz-adv-x="432" d=" M247,672 Q432,672 432,396 Q432,305 412,237 Q392,169 351,121.5 Q310,74 256,42.5 Q202,11 125,-14 L121,-2 Q178,17 222,39 Q266,61 302.5,92 Q339,123 363,162.5 Q387,202 401.5,255 Q416,308 418,373 Q348,258 235,258 Q159,258 111,312.5 Q63,367 63,459 Q63,556 114.5,614 Q166,672 247,672 M236,271 Q346,271 418,393 Q417,524 377,591.5 Q337,659 248,659 Q172,659 125,605.5 Q78,552 78,459 Q78,372 121.5,321.5 Q165,271 236,271"/> 
            <glyph glyph-name=":" unicode="&#x3A;" horiz-adv-x="90" d=" M73,447 Q81,447 85.5,442.5 Q90,438 90,430 Q90,423 85,418.5 Q80,414 73,414 Q65,414 60.5,418.5 Q56,423 56,430 Q56,435 58,439 Q60,443 64,445 Q68,447 73,447 M73,27 Q81,27 85.5,22 Q90,17 90,10 Q90,5 88,1.5 Q86,-2 82,-4.5 Q78,-7 73,-7 Q65,-7 60.5,-2 Q56,3 56,10 Q56,17 60.5,22 Q65,27 73,27"/> 
            <glyph glyph-name=";" unicode="&#x3B;" horiz-adv-x="90" d=" M73,447 Q81,447 85.5,442.5 Q90,438 90,430 Q90,423 85,418.5 Q80,414 73,414 Q65,414 60.5,418.5 Q56,423 56,430 Q56,435 58,439 Q60,443 64,445 Q68,447 73,447 M73,27 Q81,27 85.5,22 Q90,17 90,10 Q90,4 83,-13 L43,-122 L31,-122 L67,-5 Q56,-2 56,10 Q56,17 60.5,22 Q65,27 73,27"/> 
            <glyph glyph-name="&lt;" unicode="&#x3C;" horiz-adv-x="412" d=" M406,497 L412,485 L99,333 L412,177 L406,165 L84,328 L84,338"/> 
            <glyph glyph-name="=" unicode="&#x3D;" horiz-adv-x="402" d=" M81,401 L81,415 L402,415 L402,401 M81,247 L81,260 L402,260 L402,247"/> 
            <glyph glyph-name="&gt;" unicode="&#x3E;" horiz-adv-x="412" d=" M89,497 L412,338 L412,328 L89,165 L84,177 L396,333 L84,485"/> 
            <glyph glyph-name="?" unicode="&#x3F;" horiz-adv-x="383" d=" M233,691 Q277,691 311,673 Q345,655 363.5,624.5 Q382,594 382,555 Q382,521 368.5,494.5 Q355,468 334.5,452 Q314,436 290,418 Q266,400 245.5,383 Q225,366 211.5,337 Q198,308 198,271 L198,197 L184,197 L184,272 Q184,311 197.5,341 Q211,371 231.5,388 Q252,405 276,423 Q300,441 320,456.5 Q340,472 353.5,497.5 Q367,523 367,555 Q367,610 330,644 Q293,678 233,678 Q183,678 145,659 Q107,640 72,599 L61,608 Q133,691 233,691 M192,27 Q200,27 204.5,22 Q209,17 209,10 Q209,3 204.5,-2 Q200,-7 192,-7 Q185,-7 180,-2 Q175,3 175,10 Q175,17 180,22 Q185,27 192,27"/> 
            <glyph glyph-name="@" unicode="&#x40;" horiz-adv-x="917" d=" M527,691 Q622,691 697.5,660 Q773,629 820,575.5 Q867,522 892,454 Q917,386 917,309 Q917,227 903,167 Q889,107 864.5,75 Q840,43 813,28.5 Q786,14 755,14 Q707,14 676,49 Q645,84 640,146 Q593,16 489,16 Q444,16 408.5,39.5 Q373,63 351,112.5 Q329,162 329,231 Q329,293 345,341 Q361,389 388,418 Q415,447 449,461.5 Q483,476 522,476 Q587,476 650,443 L650,180 Q650,106 678,66.5 Q706,27 755,27 Q784,27 808.5,40.5 Q833,54 855,84.5 Q877,115 889.5,172 Q902,229 902,308 Q902,368 887,422 Q872,476 841.5,523 Q811,570 767,604.5 Q723,639 661.5,658.5 Q600,678 527,678 Q408,678 313.5,618.5 Q219,559 168.5,460 Q118,361 118,242 Q118,143 148.5,62.5 Q179,-18 233.5,-71 Q288,-124 363,-153 Q438,-182 526,-182 Q625,-182 708,-150 L711,-163 Q623,-195 525,-195 Q404,-195 309,-144.5 Q214,-94 158.5,6 Q103,106 103,242 Q103,333 134,415 Q165,497 219.5,558 Q274,619 354,655 Q434,691 527,691 M490,30 Q542,30 580,67 Q618,104 636,169 L636,434 Q581,463 522,463 Q444,463 394,403.5 Q344,344 344,231 Q344,133 384,81.5 Q424,30 490,30"/> 
            <glyph glyph-name="A" unicode="&#x41;" horiz-adv-x="527" d=" M511,0 L439,207 L117,207 L45,0 L31,0 L269,681 L287,681 L526,0 M122,221 L434,221 L278,669"/> 
            <glyph glyph-name="B" unicode="&#x42;" horiz-adv-x="522" d=" M351,361 Q425,357 473.5,311 Q522,265 522,184 Q522,91 461.5,45.5 Q401,0 294,0 L126,0 L126,681 L264,681 Q371,681 428,638 Q485,595 485,513 Q485,470 467.5,437.5 Q450,405 420,386 Q390,367 351,361 M266,667 L140,667 L140,367 L314,367 Q360,367 395.5,385.5 Q431,404 450.5,437.5 Q470,471 470,513 Q470,588 418,627.5 Q366,667 266,667 M295,14 Q343,14 381,23.5 Q419,33 447.5,52.5 Q476,72 491.5,105.5 Q507,139 507,184 Q507,264 455,308.5 Q403,353 319,353 L140,353 L140,14"/> 
            <glyph glyph-name="C" unicode="&#x43;" horiz-adv-x="510" d=" M343,691 Q395,691 431,676 Q467,661 500,633 L493,622 Q459,650 425.5,663.5 Q392,677 344,677 Q232,677 164,592 Q96,507 96,340 Q96,179 163.5,92 Q231,5 342,5 Q395,5 431.5,20.5 Q468,36 500,63 L509,52 Q437,-9 341,-9 Q224,-9 152.5,82.5 Q81,174 81,340 Q81,427 100.5,494.5 Q120,562 155.5,604.5 Q191,647 238.5,669 Q286,691 343,691"/> 
            <glyph glyph-name="D" unicode="&#x44;" horiz-adv-x="537" d=" M240,681 Q288,681 327.5,673.5 Q367,666 407,644 Q447,622 474.5,586 Q502,550 519,489.5 Q536,429 536,348 Q536,280 524.5,224.5 Q513,169 491,132 Q469,95 442,68.5 Q415,42 381.5,27.5 Q348,13 315,6.5 Q282,0 246,0 L126,0 L126,681 M239,667 L140,667 L140,14 L246,14 Q289,14 326.5,22.5 Q364,31 400.5,54 Q437,77 463,113.5 Q489,150 505,210 Q521,270 521,348 Q521,427 504.5,485.5 Q488,544 462,578 Q436,612 397.5,633 Q359,654 321.5,660.5 Q284,667 239,667"/> 
            <glyph glyph-name="E" unicode="&#x45;" horiz-adv-x="449" d=" M440,681 L438,667 L140,667 L140,367 L397,367 L397,354 L140,354 L140,14 L448,14 L448,0 L126,0 L126,681"/> 
            <glyph glyph-name="F" unicode="&#x46;" horiz-adv-x="436" d=" M126,0 L126,681 L435,681 L433,667 L140,667 L140,352 L394,352 L394,339 L140,339 L140,0"/> 
            <glyph glyph-name="G" unicode="&#x47;" horiz-adv-x="528" d=" M346,691 Q434,691 510,633 L501,623 Q430,677 346,677 Q308,677 273,665 Q238,653 205.5,627 Q173,601 148.5,563 Q124,525 110,469 Q96,413 96,345 Q96,180 165,92 Q234,4 353,4 Q438,4 513,48 L513,336 L365,336 L363,349 L527,349 L527,40 Q444,-9 353,-9 Q228,-9 154.5,82.5 Q81,174 81,345 Q81,431 103.5,499 Q126,567 164.5,608 Q203,649 249.5,670 Q296,691 346,691"/> 
            <glyph glyph-name="H" unicode="&#x48;" horiz-adv-x="532" d=" M517,0 L517,354 L140,354 L140,0 L126,0 L126,681 L140,681 L140,367 L517,367 L517,681 L532,681 L532,0"/> 
            <glyph glyph-name="I" unicode="&#x49;" horiz-adv-x="141" d=" M140,681 L140,0 L126,0 L126,681"/> 
            <glyph glyph-name="J" unicode="&#x4A;" horiz-adv-x="157" d=" M156,681 L156,86 Q156,11 131.5,-26.5 Q107,-64 30,-97 L26,-86 Q96,-55 119,-19.5 Q142,16 142,87 L142,681"/> 
            <glyph glyph-name="K" unicode="&#x4B;" horiz-adv-x="500" d=" M140,681 L140,1 L126,1 L126,681 M483,681 L162,366 L499,0 L481,0 L143,366 L466,681"/> 
            <glyph glyph-name="L" unicode="&#x4C;" horiz-adv-x="429" d=" M140,681 L140,14 L429,14 L426,0 L126,0 L126,681"/> 
            <glyph glyph-name="M" unicode="&#x4D;" horiz-adv-x="680" d=" M602,681 L679,0 L665,0 L625,349 Q620,390 612,461 Q604,532 598.5,584 Q593,636 590,667 L387,84 L373,84 L168,667 Q166,644 160.5,592.5 Q155,541 146.5,469.5 Q138,398 134,357 L95,0 L81,0 L156,681 L178,681 L380,103 L580,681"/> 
            <glyph glyph-name="N" unicode="&#x4E;" horiz-adv-x="533" d=" M533,681 L533,0 L515,0 L138,665 Q140,625 140,516 L140,0 L126,0 L126,681 L144,681 L520,16 Q519,98 519,177 L519,681"/> 
            <glyph glyph-name="O" unicode="&#x4F;" horiz-adv-x="608" d=" M344,691 Q466,691 537,599.5 Q608,508 608,340 Q608,174 538.5,82.5 Q469,-9 344,-9 Q223,-9 152,82.5 Q81,174 81,338.5 Q81,503 153,597 Q225,691 344,691 M344,677 Q231,677 163.5,587.5 Q96,498 96,338 Q96,180 163,92 Q230,4 344,4 Q463,4 528,91.5 Q593,179 593,340 Q593,502 526.5,589.5 Q460,677 344,677"/> 
            <glyph glyph-name="P" unicode="&#x50;" horiz-adv-x="496" d=" M257,681 Q337,681 389,660.5 Q441,640 468,596.5 Q495,553 495,484 Q495,285 253,285 L140,285 L140,0 L126,0 L126,681 M255,299 Q480,299 480,484 Q480,581 425.5,624 Q371,667 257,667 L140,667 L140,299"/> 
            <glyph glyph-name="Q" unicode="&#x51;" horiz-adv-x="625" d=" M397,1 Q472,0 527,-15 Q582,-30 624,-66 L614,-78 Q566,-38 506.5,-23 Q447,-8 348,-9 L344,-9 Q223,-9 152,82.5 Q81,174 81,338.5 Q81,503 153,597 Q225,691 344,691 Q466,691 537,599.5 Q608,508 608,340 Q608,239 581.5,165 Q555,91 508.5,50.5 Q462,10 397,1 M96,338 Q96,180 163,92 Q230,4 344,4 Q463,4 528,91.5 Q593,179 593,340 Q593,502 526.5,589.5 Q460,677 344,677 Q231,677 163.5,587.5 Q96,498 96,338"/> 
            <glyph glyph-name="R" unicode="&#x52;" horiz-adv-x="520" d=" M502,0 L312,328 L140,328 L140,0 L126,0 L126,681 L270,681 Q386,681 438.5,636 Q491,591 491,505 Q491,463 478,430.5 Q465,398 442,378 Q419,358 391,346 Q363,334 328,330 L519,0 M140,342 L295,342 Q376,342 426,382 Q476,422 476,505 Q476,584 427.5,625.5 Q379,667 268,667 L140,667"/> 
            <glyph glyph-name="S" unicode="&#x53;" horiz-adv-x="464" d=" M264,691 Q304,691 337.5,682 Q371,673 394,659 Q417,645 442,623 L433,613 Q397,646 358,661.5 Q319,677 264,677 Q190,677 144,637 Q98,597 98,536 Q98,473 135,439.5 Q172,406 272,375 Q324,358 358,342 Q392,326 417,303.5 Q442,281 453,251 Q464,221 464,180 Q464,96 407,43.5 Q350,-9 259,-9 Q195,-9 148,11 Q101,31 59,71 L68,81 Q108,43 152,23.5 Q196,4 258,4 Q344,4 396.5,52.5 Q449,101 449,180 Q449,254 408.5,292 Q368,330 267,362 Q162,395 122.5,431.5 Q83,468 83,536 Q83,603 133.5,647 Q184,691 264,691"/> 
            <glyph glyph-name="T" unicode="&#x54;" horiz-adv-x="459" d=" M458,681 L456,667 L244,667 L244,0 L230,0 L230,667 L18,667 L18,681"/> 
            <glyph glyph-name="U" unicode="&#x55;" horiz-adv-x="523" d=" M522,681 L522,207 Q522,107 472.5,49 Q423,-9 319,-9 Q265,-9 225.5,7 Q186,23 162,52.5 Q138,82 127,120.5 Q116,159 116,207 L116,681 L130,681 L130,208 Q130,113 175.5,58.5 Q221,4 319,4 Q417,4 462.5,59 Q508,114 508,208 L508,681"/> 
            <glyph glyph-name="V" unicode="&#x56;" horiz-adv-x="499" d=" M499,681 L274,0 L256,0 L31,681 L46,681 L266,14 L483,681"/> 
            <glyph glyph-name="W" unicode="&#x57;" horiz-adv-x="744" d=" M744,681 L584,0 L568,0 L392,666 L217,0 L200,0 L41,681 L56,681 L209,15 L384,681 L401,681 L576,16 L729,681"/> 
            <glyph glyph-name="X" unicode="&#x58;" horiz-adv-x="461" d=" M246,370 L460,0 L444,0 L237,360 L237,361 L34,0 L18,0 L228,370 L45,681 L61,681 L237,379 L413,681 L429,681"/> 
            <glyph glyph-name="Y" unicode="&#x59;" horiz-adv-x="466" d=" M465,681 L252,271 L252,0 L238,0 L238,271 L23,681 L39,681 L245,284 L449,681"/> 
            <glyph glyph-name="Z" unicode="&#x5A;" horiz-adv-x="458" d=" M457,681 L457,668 L60,14 L442,14 L440,0 L43,0 L43,13 L440,667 L80,667 L80,681"/> 
            <glyph glyph-name="[" unicode="&#x5B;" horiz-adv-x="226" d=" M226,794 L226,782 L119,782 L119,-92 L226,-92 L226,-104 L106,-104 L106,794"/> 
            <glyph glyph-name="\" unicode="&#x5C;" horiz-adv-x="383" d=" M150,796 L382,-90 L369,-94 L137,793"/> 
            <glyph glyph-name="]" unicode="&#x5D;" horiz-adv-x="206" d=" M206,794 L206,-104 L86,-104 L86,-92 L192,-92 L192,782 L86,782 L86,794"/> 
            <glyph glyph-name="^" unicode="&#x5E;" horiz-adv-x="439" d=" M265,821 L439,527 L421,527 L260,803 L99,527 L81,527 L255,821"/> 
            <glyph glyph-name="_" unicode="&#x5F;" horiz-adv-x="474" d=" M47,-95 L47,-82 L474,-82 L474,-95"/> 
            <glyph glyph-name="`" unicode="&#x60;" horiz-adv-x="209" d=" M37,755 L209,667 L203,657 L30,740"/> 
            <glyph glyph-name="a" unicode="&#x61;" horiz-adv-x="454" d=" M404,110 Q404,57 414.5,33.5 Q425,10 453,1 L450,-9 Q418,0 405,24 Q392,48 392,96 Q336,-9 221,-9 Q149,-9 108.5,33 Q68,75 68,145 Q68,221 122,263.5 Q176,306 269,306 L390,306 L390,371 Q390,443 359,479 Q328,515 255,515 Q191,515 110,482 L106,494 Q188,528 255,528 Q308,528 341.5,509.5 Q375,491 389.5,457 Q404,423 404,372 M221,4 Q262,4 294,17 Q326,30 349,54 Q372,78 390,114 L390,293 L272,293 Q183,293 133,254.5 Q83,216 83,145 Q83,80 119.5,42 Q156,4 221,4"/> 
            <glyph glyph-name="b" unicode="&#x62;" horiz-adv-x="488" d=" M306,528 Q394,528 441,459.5 Q488,391 488,264 Q488,135 440,63 Q392,-9 301,-9 Q199,-9 135,87 L133,0 L121,0 L121,732 L135,733 L135,430 Q205,528 306,528 M301,4 Q385,4 429,72 Q473,140 473,264 Q473,345 454,401 Q435,457 398,486 Q361,515 306,515 Q251,515 211.5,489.5 Q172,464 135,413 L135,105 Q201,4 301,4"/> 
            <glyph glyph-name="c" unicode="&#x63;" horiz-adv-x="420" d=" M283,528 Q359,528 415,478 L406,469 Q356,515 283,515 Q195,515 143,447 Q91,379 91,256 Q91,137 144,70.5 Q197,4 282,4 Q356,4 411,54 L420,44 Q361,-9 283,-9 Q190,-9 133,61 Q76,131 76,256 Q76,383 131.5,455.5 Q187,528 283,528"/> 
            <glyph glyph-name="d" unicode="&#x64;" horiz-adv-x="453" d=" M439,733 L453,732 L453,0 L440,0 L439,94 Q382,-9 273,-9 Q184,-9 132.5,61.5 Q81,132 81,257 Q81,379 134.5,453.5 Q188,528 281,528 Q385,528 439,437 M273,4 Q332,4 371,32.5 Q410,61 439,116 L439,419 Q383,515 281,515 Q196,515 145.5,445 Q95,375 95,257 Q95,138 143,71 Q191,4 273,4"/> 
            <glyph glyph-name="e" unicode="&#x65;" horiz-adv-x="458" d=" M458,286 Q458,266 456,249 L90,249 Q92,130 143,67 Q194,4 279,4 Q324,4 358,18 Q392,32 428,61 L436,51 Q399,20 362.5,5.5 Q326,-9 279,-9 Q185,-9 130.5,60.5 Q76,130 76,254 Q76,382 129.5,455 Q183,528 274,528 Q365,528 411.5,462 Q458,396 458,286 M443,261 Q444,271 444,291 Q444,392 401.5,453.5 Q359,515 275,515 Q192,515 142,449 Q92,383 90,261"/> 
            <glyph glyph-name="f" unicode="&#x66;" horiz-adv-x="356" d=" M243,722 Q194,722 165.5,695.5 Q137,669 137,616 L137,518 L286,518 L284,506 L137,506 L137,0 L123,0 L123,506 L33,506 L33,518 L123,518 L123,618 Q123,674 155.5,704.5 Q188,735 242,735 Q302,735 356,704 L350,692 Q297,722 243,722"/> 
            <glyph glyph-name="g" unicode="&#x67;" horiz-adv-x="468" d=" M463,548 L467,533 Q414,517 300,517 Q358,503 389.5,462 Q421,421 421,356 Q421,305 399.5,268 Q378,231 338.5,211.5 Q299,192 246,192 Q206,192 168,208 Q114,176 114,129 Q114,61 217,61 L306,61 Q377,61 416.5,28.5 Q456,-4 456,-58 Q456,-124 405,-159.5 Q354,-195 252,-195 Q144,-195 96.5,-164 Q49,-133 49,-59 L63,-59 Q63,-127 106.5,-154.5 Q150,-182 252,-182 Q441,-182 441,-59 Q441,-26 425,-2 Q409,22 378.5,35 Q348,48 305,48 L217,48 Q160,48 130,69.5 Q100,91 100,127 Q100,177 157,213 Q69,258 69,358 Q69,435 117,481.5 Q165,528 242,528 Q314,528 359,531 Q404,534 421,537 Q438,540 463,548 M243,516 Q169,516 126.5,472 Q84,428 84,358 Q84,285 131.5,245 Q179,205 246,205 Q321,205 363.5,244.5 Q406,284 406,356 Q406,434 361,475 Q316,516 243,516"/> 
            <glyph glyph-name="h" unicode="&#x68;" horiz-adv-x="466" d=" M329,528 Q397,528 431,486.5 Q465,445 465,369 L465,0 L451,0 L451,367 Q451,516 328,516 Q214,516 135,385 L135,0 L121,0 L121,732 L135,734 L135,404 Q212,528 329,528"/> 
            <glyph glyph-name="i" unicode="&#x69;" horiz-adv-x="143" d=" M128,717 Q132,717 135.5,715 Q139,713 140.5,709.5 Q142,706 142,703 Q142,697 138.5,692.5 Q135,688 128,688 Q121,688 117,692.5 Q113,697 113,702.5 Q113,708 117,712.5 Q121,717 128,717 M135,518 L135,0 L121,0 L121,518"/> 
            <glyph glyph-name="j" unicode="&#x6A;" horiz-adv-x="143" d=" M128,717 Q132,717 135.5,715 Q139,713 140.5,709.5 Q142,706 142,703 Q142,697 138.5,692.5 Q135,688 128,688 Q121,688 117,692.5 Q113,697 113,702.5 Q113,708 117,712.5 Q121,717 128,717 M135,518 L135,4 Q135,-57 123,-94.5 Q111,-132 90,-152 Q69,-172 29,-193 L24,-183 Q61,-163 80.5,-143.5 Q100,-124 110.5,-88.5 Q121,-53 121,4 L121,518"/> 
            <glyph glyph-name="k" unicode="&#x6B;" horiz-adv-x="437" d=" M135,733 L135,0 L121,0 L121,732 M411,518 L159,284 L436,0 L419,0 L141,283 L393,518"/> 
            <glyph glyph-name="l" unicode="&#x6C;" horiz-adv-x="228" d=" M183,-9 Q151,-9 133.5,11 Q116,31 116,69 L116,732 L130,733 L130,69 Q130,4 183,4 Q204,4 223,12 L227,0 Q206,-9 183,-9"/> 
            <glyph glyph-name="m" unicode="&#x6D;" horiz-adv-x="731" d=" M604,528 Q666,528 698.5,486 Q731,444 731,369 L731,0 L717,0 L717,367 Q717,439 688.5,477.5 Q660,516 603,516 Q503,516 433,385 L433,0 L419,0 L419,373 Q419,440 390,478 Q361,516 305,516 Q205,516 135,385 L135,0 L121,0 L121,518 L133,518 L134,405 Q203,528 306,528 Q361,528 393,495 Q425,462 431,403 Q500,528 604,528"/> 
            <glyph glyph-name="n" unicode="&#x6E;" horiz-adv-x="466" d=" M329,528 Q465,528 465,369 L465,0 L451,0 L451,367 Q451,516 328,516 Q214,516 135,385 L135,0 L121,0 L121,518 L133,518 L135,404 Q212,528 329,528"/> 
            <glyph glyph-name="o" unicode="&#x6F;" horiz-adv-x="485" d=" M281,528 Q376,528 430,458 Q484,388 484,262 Q484,134 429,62.5 Q374,-9 279,-9 Q184,-9 130,62 Q76,133 76,258 Q76,386 131.5,457 Q187,528 281,528 M281,515 Q193,515 141.5,448 Q90,381 90,258 Q90,138 140.5,71 Q191,4 279.5,4 Q368,4 419,71.5 Q470,139 470,262 Q470,382 419.5,448.5 Q369,515 281,515"/> 
            <glyph glyph-name="p" unicode="&#x70;" horiz-adv-x="488" d=" M307,528 Q394,528 441,459.5 Q488,391 488,264 Q488,135 440,63 Q392,-9 302,-9 Q199,-9 135,87 L135,-191 L121,-194 L121,518 L133,518 L134,429 Q205,528 307,528 M302,4 Q385,4 429,72 Q473,140 473,264 Q473,386 430.5,450.5 Q388,515 307,515 Q269,515 237,501.5 Q205,488 182,467 Q159,446 135,413 L135,105 Q201,4 302,4"/> 
            <glyph glyph-name="q" unicode="&#x71;" horiz-adv-x="453" d=" M440,518 L453,518 L453,-194 L439,-191 L439,93 Q382,-9 271,-9 Q184,-9 132.5,61.5 Q81,132 81,257 Q81,380 134,454 Q187,528 281,528 Q384,528 439,438 M271,4 Q332,4 371,32.5 Q410,61 439,115 L439,419 Q383,515 281,515 Q195,515 145,445 Q95,375 95,257 Q95,138 142.5,71 Q190,4 271,4"/> 
            <glyph glyph-name="r" unicode="&#x72;" horiz-adv-x="342" d=" M293,528 Q319,528 341,523 L339,510 Q318,516 293,516 Q233,516 196.5,477.5 Q160,439 135,353 L135,0 L121,0 L121,518 L133,518 L133,384 Q157,460 194.5,494 Q232,528 293,528"/> 
            <glyph glyph-name="s" unicode="&#x73;" horiz-adv-x="393" d=" M227,528 Q313,528 379,474 L371,464 Q337,491 304.5,503 Q272,515 227,515 Q168,515 128,484 Q88,453 88,402 Q88,356 120.5,330 Q153,304 234,281 Q324,256 358.5,225.5 Q393,195 393,132 Q393,68 346.5,29.5 Q300,-9 227,-9 Q172,-9 132,8 Q92,25 56,57 L64,66 Q100,35 137.5,19.5 Q175,4 227,4 Q294,4 336.5,38.5 Q379,73 379,132 Q379,190 347,217.5 Q315,245 227,270 Q171,285 138,302.5 Q105,320 89.5,344 Q74,368 74,403 Q74,458 118,493 Q162,528 227,528"/> 
            <glyph glyph-name="t" unicode="&#x74;" horiz-adv-x="321" d=" M314,30 L321,19 Q274,-9 223,-9 Q171,-9 142.5,23 Q114,55 114,115 L114,506 L28,506 L28,518 L114,518 L114,651 L128,652 L128,518 L273,518 L271,506 L128,506 L128,116 Q128,62 152.5,33 Q177,4 223,4 Q271,4 314,30"/> 
            <glyph glyph-name="u" unicode="&#x75;" horiz-adv-x="456" d=" M455,518 L455,0 L443,0 L442,110 Q377,-9 260,-9 Q192,-9 154,32 Q116,73 116,150 L116,518 L130,518 L130,150 Q130,78 164.5,41 Q199,4 261,4 Q372,4 441,128 L441,518"/> 
            <glyph glyph-name="v" unicode="&#x76;" horiz-adv-x="417" d=" M417,518 L236,0 L217,0 L26,518 L41,518 L226,12 L401,518"/> 
            <glyph glyph-name="w" unicode="&#x77;" horiz-adv-x="641" d=" M641,518 L503,0 L485,0 L339,504 L193,0 L175,0 L36,518 L51,518 L185,14 L331,518 L348,518 L494,13 L627,518"/> 
            <glyph glyph-name="x" unicode="&#x78;" horiz-adv-x="409" d=" M222,278 L409,0 L392,0 L213,270 L37,0 L21,0 L205,278 L47,518 L63,518 L213,287 L367,518 L383,518"/> 
            <glyph glyph-name="y" unicode="&#x79;" horiz-adv-x="415" d=" M414,518 L234,-1 Q218,-48 205,-75 Q192,-102 172.5,-126.5 Q153,-151 126.5,-166 Q100,-181 60,-192 L58,-181 Q96,-170 121,-156 Q146,-142 164,-118 Q182,-94 193.5,-70 Q205,-46 221,0 L215,0 L26,518 L41,518 L225,10 L399,518"/> 
            <glyph glyph-name="z" unicode="&#x7A;" horiz-adv-x="373" d=" M372,518 L372,506 L51,13 L363,13 L362,0 L33,0 L33,12 L355,505 L61,505 L61,518"/> 
            <glyph glyph-name="{" unicode="&#x7B;" horiz-adv-x="239" d=" M239,814 L239,802 Q199,802 179.5,780 Q160,758 160,712 L160,435 Q160,356 84,349 Q160,342 160,263 L160,-14 Q160,-61 179.5,-82.5 Q199,-104 239,-104 L239,-116 Q147,-116 147,-17 L147,268 Q147,306 126,324 Q105,342 69,342 L69,356 Q105,356 126,374 Q147,392 147,430 L147,715 Q147,814 239,814"/> 
            <glyph glyph-name="|" unicode="&#x7C;" horiz-adv-x="215" d=" M215,801 L215,-98 L201,-98 L201,801"/> 
            <glyph glyph-name="}" unicode="&#x7D;" horiz-adv-x="259" d=" M89,814 Q181,814 181,715 L181,430 Q181,392 201.5,374 Q222,356 259,356 L259,342 Q222,342 201.5,324 Q181,306 181,268 L181,-17 Q181,-116 89,-116 L89,-104 Q129,-104 148,-82.5 Q167,-61 167,-14 L167,263 Q167,342 243,349 Q167,356 167,435 L167,712 Q167,758 148,780 Q129,802 89,802"/> 
            <glyph glyph-name="~" unicode="&#x7E;" horiz-adv-x="380" d=" M302,284 Q277,284 228,311.5 Q179,339 156,339 Q133,339 117.5,328.5 Q102,318 86,297 L76,302 Q111,353 156,353 Q182,353 230.5,325.5 Q279,298 302,298 Q318,298 331,304 Q344,310 352,318.5 Q360,327 370,340 L379,335 Q348,284 302,284"/> 
            <glyph glyph-name="¡" unicode="&#xA1;" horiz-adv-x="136" d=" M118,447 Q126,447 130.5,442.5 Q135,438 135,431 Q135,423 130.5,418.5 Q126,414 118,414 Q111,414 106,418.5 Q101,423 101,431 Q101,438 106,442.5 Q111,447 118,447 M125,253 L125,-190 L112,-190 L112,253"/> 
            <glyph glyph-name="¢" unicode="&#xA2;" horiz-adv-x="420" d=" M420,44 Q362,-9 285,-9 L285,-145 L272,-145 L272,-9 Q184,-5 130,65 Q76,135 76,256 Q76,381 130,453.5 Q184,526 276,528 L276,674 L289,674 L289,528 Q361,527 415,478 L406,469 Q356,515 283,515 Q195,515 143,447 Q91,379 91,256 Q91,137 144,70.5 Q197,4 282,4 Q356,4 411,54"/> 
            <glyph glyph-name="£" unicode="&#xA3;" horiz-adv-x="437" d=" M161,129 Q161,81 144,56 Q127,31 87,14 L429,14 L428,0 L66,0 L66,13 Q110,33 128.5,57.5 Q147,82 147,128 L147,348 L87,348 L87,361 L147,361 L147,506 Q147,579 186,625.5 Q225,672 298,672 Q382,672 437,607 L427,599 Q375,659 298,659 Q253,659 221.5,638 Q190,617 175.5,583 Q161,549 161,505 L161,361 L375,361 L375,348 L161,348"/> 
            <glyph glyph-name="¤" unicode="&#xA4;" horiz-adv-x="481" d=" M450,340 Q450,263 401,213 L480,135 L471,126 L391,204 Q345,164 280,164 Q215,164 169,204 L89,126 L80,135 L159,213 Q110,263 110,340 Q110,414 157,464 L80,543 L89,552 L166,474 Q213,516 280,516 Q348,516 394,474 L471,552 L480,543 L403,465 Q450,415 450,340 M124,411 Q124,268 167.5,222.5 Q211,177 280,177 Q350,177 393,222.5 Q436,268 436,339.5 Q436,411 393.5,457 Q351,503 280,503 Q209,503 124,411"/> 
            <glyph glyph-name="¥" unicode="&#xA5;" horiz-adv-x="456" d=" M456,661 L254,325 L380,325 L380,312 L248,312 L248,188 L380,188 L380,175 L248,175 L248,0 L233,0 L233,175 L103,175 L103,188 L233,188 L233,312 L103,312 L103,325 L227,325 L23,661 L39,661 L241,327 L440,661"/> 
            <glyph glyph-name="¦" unicode="&#xA6;" horiz-adv-x="215" d=" M215,801 L215,443 L201,443 L201,801 M215,262 L215,-98 L201,-98 L201,262"/> 
            <glyph glyph-name="§" unicode="&#xA7;" horiz-adv-x="428" d=" M346,158 Q367,146 380,132.5 Q393,119 398.5,102 Q404,85 404,62 Q404,6 363.5,-28 Q323,-62 259,-62 Q174,-62 107,-19 L115,-8 Q176,-49 259,-49 Q318,-49 354,-18.5 Q390,12 390,61 Q390,91 378.5,110.5 Q367,130 339,146.5 Q311,163 257,181 Q213,195 186,207.5 Q159,220 139.5,236.5 Q120,253 112,273 Q104,293 104,321 Q104,395 192,452 Q157,471 143,493.5 Q129,516 129,549 Q129,603 171,637 Q213,671 272,671 Q346,671 414,629 L407,618 Q343,658 272,658 Q218,658 181,627.5 Q144,597 144,549 Q144,506 172,481 Q200,456 283,428 Q364,401 396,370 Q428,339 428,284 Q428,208 346,158 M118,322 Q118,273 148,246.5 Q178,220 260,193 Q308,177 335,164 Q413,211 413,284 Q413,318 401.5,340 Q390,362 361.5,380 Q333,398 280,416 Q232,433 203,447 Q180,432 164.5,418 Q149,404 138.5,388.5 Q128,373 123,357 Q118,341 118,322"/> 
            <glyph glyph-name="¨" unicode="&#xA8;" horiz-adv-x="218" d=" M44,703 Q59,703 59,689 Q59,683 55,679 Q51,675 44,675 Q38,675 34,679 Q30,683 30,689 Q30,695 34,699 Q38,703 44,703 M203,703 Q210,703 214,699 Q218,695 218,689 Q218,683 214,679 Q210,675 203,675 Q189,675 189,689 Q189,703 203,703"/> 
            <glyph glyph-name="©" unicode="&#xA9;" horiz-adv-x="679" d=" M405,717 Q524,717 601.5,638.5 Q679,560 679,435 Q679,312 601.5,232.5 Q524,153 405,153 Q286,153 208.5,231.5 Q131,310 131,435 Q131,558 208.5,637.5 Q286,717 405,717 M519,704 Q292,704 219,628.5 Q146,553 146,435 Q146,315 218.5,240.5 Q291,166 405,166 Q518,166 591,241.5 Q664,317 664,435 Q664,555 519,704 M403,605 Q451,605 486,577 L479,567 Q447,591 403,591 Q359,591 323.5,553.5 Q288,516 288,437 Q288,359 320,319.5 Q352,280 404,280 Q453,280 490,309 L497,299 Q459,267 403,267 Q346,267 310,311 Q274,355 274,437 Q274,520 313.5,562.5 Q353,605 403,605"/> 
            <glyph glyph-name="ª" unicode="&#xAA;" horiz-adv-x="416" d=" M256,515 L352,515 L352,562 Q352,615 327.5,641.5 Q303,668 245,668 Q194,668 130,644 L125,656 Q191,681 245,681 Q308,681 337,651.5 Q366,622 366,564 L366,368 Q366,328 374.5,311.5 Q383,295 405,287 L401,277 Q376,285 365,302 Q354,319 353,354 Q308,277 218,277 Q160,277 127.5,309 Q95,341 95,393 Q95,451 138.5,483 Q182,515 256,515 M218,290 Q307,290 352,372 L352,502 L259,502 Q188,502 148.5,474 Q109,446 109,393 Q109,346 138,318 Q167,290 218,290 M94,14 L415,14 L415,0 L94,0"/> 
            <glyph glyph-name="«" unicode="&#xAB;" horiz-adv-x="434" d=" M241,500 L251,493 L110,288 L252,84 L242,77 L94,283 L94,293 M424,500 L433,493 L292,288 L434,84 L424,77 L276,283 L276,293"/> 
            <glyph glyph-name="¬" unicode="&#xAC;" horiz-adv-x="412" d=" M412,328 L412,205 L397,205 L397,314 L81,314 L81,328"/> 
            <glyph glyph-name="­" unicode="&#xAD;" horiz-adv-x="319" d=" M81,306 L81,319 L319,319 L319,306"/> 
            <glyph glyph-name="®" unicode="&#xAE;" horiz-adv-x="535" d=" M318,716 Q412,716 473,655 Q534,594 534,503 Q534,443 508,393.5 Q482,344 432,314.5 Q382,285 318,285 Q223,285 162,345.5 Q101,406 101,498 Q101,590 161,653 Q221,716 318,716 M318,297 Q409,297 465,356.5 Q521,416 521,503 Q521,589 464,646.5 Q407,704 318,704 Q226,704 170.5,644.5 Q115,585 115,498 Q115,412 172,354.5 Q229,297 318,297 M403,563 Q403,502 339,491 L413,370 L396,370 L325,490 L261,490 L261,370 L247,370 L247,638 L306,638 Q403,638 403,563 M261,503 L322,503 Q342,503 356.5,509 Q371,515 380,528.5 Q389,542 389,563 Q389,625 308,625 L261,625"/> 
            <glyph glyph-name="¯" unicode="&#xAF;" horiz-adv-x="231" d=" M230,686 L30,686 L30,700 L230,700"/> 
            <glyph glyph-name="°" unicode="&#xB0;" horiz-adv-x="352" d=" M220,415 Q184,415 154,431.5 Q124,448 106.5,480 Q89,512 89,553 Q89,613 127,652 Q165,691 220,691 Q278,691 315,652.5 Q352,614 352,552.5 Q352,491 315.5,453 Q279,415 220,415 M220,428 Q274,428 305.5,462 Q337,496 337,552.5 Q337,609 305.5,643.5 Q274,678 220,678 Q169,678 136,643 Q103,608 103,553 Q103,498 136,463 Q169,428 220,428"/> 
            <glyph glyph-name="±" unicode="&#xB1;" horiz-adv-x="402" d=" M249,493 L249,338 L402,338 L402,324 L249,324 L249,169 L234,169 L234,324 L81,324 L81,338 L234,338 L234,493 M81,0 L81,14 L402,14 L402,0"/> 
            <glyph glyph-name="²" unicode="&#xB2;" horiz-adv-x="318" d=" M199,736 Q249,736 277,707 Q305,678 305,633 Q305,611 302,594 Q299,577 287,554 Q275,531 265,515.5 Q255,500 225.5,466 Q196,432 174.5,409 Q153,386 103,333 L318,333 L315,320 L85,320 L85,333 Q218,473 254.5,524 Q291,575 291,632 Q291,652 284.5,669 Q278,686 266.5,698 Q255,710 237.5,716.5 Q220,723 198,723 Q138,723 94,673 L83,681 Q132,736 199,736"/> 
            <glyph glyph-name="³" unicode="&#xB3;" horiz-adv-x="322" d=" M201,737 Q251,737 280.5,709.5 Q310,682 310,637 Q310,594 284.5,568.5 Q259,543 220,539 Q264,537 292.5,509.5 Q321,482 321,433 Q321,380 286.5,347 Q252,314 195,314 Q126,314 78,366 L88,373 Q131,326 195,326 Q230,326 255.5,340 Q281,354 294,377.5 Q307,401 307,432 Q307,482 278,507 Q249,532 198,532 L173,532 L175,544 L197,544 Q237,544 266.5,568 Q296,592 296,637 Q296,677 270,701 Q244,725 201,725 Q144,725 98,683 L90,692 Q139,737 201,737"/> 
            <glyph glyph-name="´" unicode="&#xB4;" horiz-adv-x="209" d=" M202,755 L209,740 L35,657 L30,667"/> 
            <glyph glyph-name="µ" unicode="&#xB5;" horiz-adv-x="482" d=" M481,-1 L468,-2 Q445,67 441,132 Q376,-9 256,-9 Q153,-9 133,86 Q135,10 135,-61 L135,-191 L121,-192 L121,518 L135,518 L135,139 Q135,68 168.5,36 Q202,4 256,4 Q374,4 439,151 L439,518 L453,518 L453,166 Q453,79 481,-1"/> 
            <glyph glyph-name="¶" unicode="&#xB6;" horiz-adv-x="508" d=" M337,681 L508,681 L508,-191 L494,-194 L494,668 L349,668 L349,-191 L335,-194 L335,309 Q223,310 172,361.5 Q121,413 121,495 Q121,553 147.5,595.5 Q174,638 222.5,659.5 Q271,681 337,681"/> 
            <glyph glyph-name="·" unicode="&#xB7;" horiz-adv-x="90" d=" M73,344 Q81,344 85.5,339.5 Q90,335 90,327 Q90,320 85,315.5 Q80,311 73,311 Q65,311 60.5,315.5 Q56,320 56,327 Q56,335 60.5,339.5 Q65,344 73,344"/> 
            <glyph glyph-name="¸" unicode="&#xB8;" horiz-adv-x="173" d=" M85,2 L82,-77 Q173,-81 173,-141 Q173,-173 150.5,-190.5 Q128,-208 95,-208 Q58,-208 30,-191 L36,-180 Q61,-195 95,-195 Q122,-195 140,-181.5 Q158,-168 158,-141 Q158,-114 137,-101.5 Q116,-89 69,-88 L74,2"/> 
            <glyph glyph-name="¹" unicode="&#xB9;" horiz-adv-x="237" d=" M236,730 L236,320 L223,320 L223,714 L110,646 L103,657 L225,730"/> 
            <glyph glyph-name="º" unicode="&#xBA;" horiz-adv-x="414" d=" M250,681 Q326,681 370,629 Q414,577 414,482 Q414,385 369.5,331 Q325,277 248,277 Q172,277 128,330.5 Q84,384 84,479 Q84,527 96,565 Q108,603 129.5,628.5 Q151,654 181.5,667.5 Q212,681 250,681 M250,668 Q180,668 139.5,619 Q99,570 99,479 Q99,390 139,340 Q179,290 249,290 Q295,290 328.5,312 Q362,334 380.5,377 Q399,420 399,482 Q399,570 359.5,619 Q320,668 250,668 M89,0 L89,14 L410,14 L410,0"/> 
            <glyph glyph-name="»" unicode="&#xBB;" horiz-adv-x="427" d=" M104,500 L252,293 L252,283 L103,77 L94,84 L235,288 L94,493 M279,500 L426,293 L426,283 L278,77 L268,84 L410,288 L269,493"/> 
            <glyph glyph-name="¼" unicode="&#xBC;" horiz-adv-x="817" d=" M639,738 L651,733 L245,-66 L233,-61 M236,271 L223,271 L223,665 L110,597 L103,608 L225,681 L236,681 M817,129 L817,116 L757,116 L757,0 L744,0 L744,116 L550,116 L550,127 L684,417 L696,412 L565,129 L744,129 L745,259 L757,259 L757,129"/> 
            <glyph glyph-name="½" unicode="&#xBD;" horiz-adv-x="802" d=" M639,738 L651,733 L245,-66 L233,-61 M236,681 L236,271 L223,271 L223,665 L110,597 L103,608 L225,681 M683,416 Q733,416 761,387 Q789,358 789,313 Q789,291 786,273.5 Q783,256 771,233.5 Q759,211 749,195.5 Q739,180 709.5,146 Q680,112 658.5,89 Q637,66 587,13 L802,13 L799,0 L569,0 L569,13 Q627,74 656,105.5 Q685,137 713,170.5 Q741,204 751.5,224.5 Q762,245 768.5,266.5 Q775,288 775,312 Q775,332 768.5,349 Q762,366 750.5,378 Q739,390 721.5,396.5 Q704,403 682,403 Q622,403 578,353 L567,361 Q616,416 683,416"/> 
            <glyph glyph-name="¾" unicode="&#xBE;" horiz-adv-x="817" d=" M639,738 L651,733 L245,-66 L233,-61 M321,384 Q321,331 286.5,298 Q252,265 195,265 Q125,265 78,316 L88,324 Q131,277 195,277 Q230,277 255.5,290.5 Q281,304 294,328 Q307,352 307,383 Q307,433 278,458 Q249,483 198,483 L173,483 L175,495 L197,495 Q237,495 266.5,519 Q296,543 296,588 Q296,628 270,652 Q244,676 201,676 Q144,676 98,634 L90,643 Q139,688 201,688 Q251,688 280.5,660.5 Q310,633 310,588 Q310,545 284.5,519.5 Q259,494 220,490 Q264,488 292.5,460.5 Q321,433 321,384 M817,129 L817,116 L757,116 L757,0 L744,0 L744,116 L550,116 L550,127 L684,417 L696,412 L565,129 L744,129 L745,259 L757,259 L757,129"/> 
            <glyph glyph-name="¿" unicode="&#xBF;" horiz-adv-x="383" d=" M252,414 Q244,414 239.5,418.5 Q235,423 235,431 Q235,438 239.5,442.5 Q244,447 252,447 Q255,447 257.5,446 Q260,445 262,443.5 Q264,442 265.5,440 Q267,438 268,435.5 Q269,433 269,431 Q269,423 264,418.5 Q259,414 252,414 M210,-195 Q145,-195 103,-158 Q61,-121 61,-68 Q61,-34 75,-7.5 Q89,19 109.5,35 Q130,51 153.5,69 Q177,87 197.5,103.5 Q218,120 232,147.5 Q246,175 246,211 L246,253 L259,253 L259,209 Q259,172 245.5,143.5 Q232,115 211.5,98 Q191,81 167.5,63.5 Q144,46 123.5,30.5 Q103,15 89.5,-10.5 Q76,-36 76,-68 Q76,-92 86,-113 Q96,-134 113.5,-149 Q131,-164 156,-173 Q181,-182 210,-182 Q261,-182 299,-163 Q337,-144 372,-104 L382,-112 Q311,-195 210,-195"/> 
            <glyph glyph-name="À" unicode="&#xC0;" horiz-adv-x="527" d=" M371,777 L367,767 L193,839 L200,854 M511,0 L439,207 L117,207 L45,0 L31,0 L269,681 L287,681 L526,0 M122,221 L434,221 L278,669"/> 
            <glyph glyph-name="Á" unicode="&#xC1;" horiz-adv-x="527" d=" M366,839 L192,767 L188,777 L359,854 M511,0 L439,207 L117,207 L45,0 L31,0 L269,681 L287,681 L526,0 M122,221 L434,221 L278,669"/> 
            <glyph glyph-name="Â" unicode="&#xC2;" horiz-adv-x="527" d=" M278,846 L167,768 L159,776 L274,862 L282,862 L397,776 L390,768 M511,0 L439,207 L117,207 L45,0 L31,0 L269,681 L287,681 L526,0 M122,221 L434,221 L278,669"/> 
            <glyph glyph-name="Ã" unicode="&#xC3;" horiz-adv-x="527" d=" M220,851 Q208,851 198,847 Q188,843 179,836 Q170,829 159,816 L150,821 Q184,864 220,864 Q240,864 277,842 Q314,820 335,820 Q348,820 358,824 Q368,828 377,836.5 Q386,845 397,860 L406,854 Q376,807 335,807 Q311,807 274,829 Q237,851 220,851 M511,0 L439,207 L117,207 L45,0 L31,0 L269,681 L287,681 L526,0 M122,221 L434,221 L278,669"/> 
            <glyph glyph-name="Ä" unicode="&#xC4;" horiz-adv-x="527" d=" M198,801 Q192,801 188,805 Q184,809 184,815 Q184,821 188,825 Q192,829 198,829 Q213,829 213,815 Q213,801 198,801 M358,801 Q353,801 349.5,803 Q346,805 344.5,808 Q343,811 343,815 Q343,821 347,825 Q351,829 358,829 Q364,829 368,825 Q372,821 372,815 Q372,809 368,805 Q364,801 358,801 M511,0 L439,207 L117,207 L45,0 L31,0 L269,681 L287,681 L526,0 M122,221 L434,221 L278,669"/> 
            <glyph glyph-name="Å" unicode="&#xC5;" horiz-adv-x="527" d=" M278,775 Q245,775 225.5,794.5 Q206,814 206,846.5 Q206,879 225.5,899 Q245,919 278,919 Q312,919 331.5,899.5 Q351,880 351,847 Q351,826 342,809.5 Q333,793 316.5,784 Q300,775 278,775 M278,908 Q251,908 235,891.5 Q219,875 219,847 Q219,818 234.5,802 Q250,786 278,786 Q297,786 310.5,793.5 Q324,801 331,815 Q338,829 338,847 Q338,875 322.5,891.5 Q307,908 278,908 M511,0 L439,207 L117,207 L45,0 L31,0 L269,681 L287,681 L526,0 M122,221 L434,221 L278,669"/> 
            <glyph glyph-name="Æ" unicode="&#xC6;" horiz-adv-x="708" d=" M474,14 L707,14 L707,0 L463,0 L411,200 L107,200 L30,0 L16,0 L279,681 L653,681 L651,667 L302,667 L382,367 L644,367 L644,354 L385,354 M112,213 L407,213 L288,669"/> 
            <glyph glyph-name="Ç" unicode="&#xC7;" horiz-adv-x="510" d=" M339,-77 Q430,-81 430,-141 Q430,-173 407.5,-190.5 Q385,-208 352,-208 Q315,-208 287,-191 L293,-180 Q318,-195 352,-195 Q379,-195 397,-181.5 Q415,-168 415,-141 Q415,-114 394,-101.5 Q373,-89 326,-88 L330,-9 Q217,-5 149,86.5 Q81,178 81,340 Q81,427 100.5,494.5 Q120,562 155.5,604.5 Q191,647 238.5,669 Q286,691 343,691 Q379,691 409,683 Q439,675 459,663 Q479,651 500,633 L493,622 Q459,650 425.5,663.5 Q392,677 344,677 Q232,677 164,592 Q96,507 96,340 Q96,179 163.5,92 Q231,5 342,5 Q395,5 431.5,20.5 Q468,36 500,63 L509,52 Q437,-9 341,-9"/> 
            <glyph glyph-name="È" unicode="&#xC8;" horiz-adv-x="449" d=" M208,854 L378,777 L374,767 L200,839 M440,681 L438,667 L140,667 L140,367 L397,367 L397,354 L140,354 L140,14 L448,14 L448,0 L126,0 L126,681"/> 
            <glyph glyph-name="É" unicode="&#xC9;" horiz-adv-x="449" d=" M366,854 L373,839 L199,767 L195,777 M440,681 L438,667 L140,667 L140,367 L397,367 L397,354 L140,354 L140,14 L448,14 L448,0 L126,0 L126,681"/> 
            <glyph glyph-name="Ê" unicode="&#xCA;" horiz-adv-x="449" d=" M174,768 L166,776 L281,862 L289,862 L405,776 L397,768 L285,846 M440,681 L438,667 L140,667 L140,367 L397,367 L397,354 L140,354 L140,14 L448,14 L448,0 L126,0 L126,681"/> 
            <glyph glyph-name="Ë" unicode="&#xCB;" horiz-adv-x="449" d=" M206,829 Q220,829 220,815 Q220,809 216,805 Q212,801 206,801 Q199,801 195,805 Q191,809 191,815 Q191,821 195,825 Q199,829 206,829 M365,829 Q371,829 375,825 Q379,821 379,815 Q379,809 375,805 Q371,801 365,801 Q360,801 357,803 Q354,805 352,808 Q350,811 350,815 Q350,821 354,825 Q358,829 365,829 M440,681 L438,667 L140,667 L140,367 L397,367 L397,354 L140,354 L140,14 L448,14 L448,0 L126,0 L126,681"/> 
            <glyph glyph-name="Ì" unicode="&#xCC;" horiz-adv-x="226" d=" M55,854 L225,777 L221,767 L47,839 M140,681 L140,0 L126,0 L126,681"/> 
            <glyph glyph-name="Í" unicode="&#xCD;" horiz-adv-x="221" d=" M213,854 L220,839 L46,767 L42,777 M140,681 L140,0 L126,0 L126,681"/> 
            <glyph glyph-name="Î" unicode="&#xCE;" horiz-adv-x="252" d=" M21,768 L13,776 L128,862 L136,862 L252,776 L244,768 L132,846 M140,681 L140,0 L126,0 L126,681"/> 
            <glyph glyph-name="Ï" unicode="&#xCF;" horiz-adv-x="226" d=" M53,829 Q67,829 67,815 Q67,809 63,805 Q59,801 53,801 Q46,801 42,805 Q38,809 38,815 Q38,821 42,825 Q46,829 53,829 M212,829 Q216,829 219.5,827.5 Q223,826 224.5,822.5 Q226,819 226,815 Q226,809 222,805 Q218,801 212,801 Q205,801 201,805 Q197,809 197,815 Q197,821 201,825 Q205,829 212,829 M140,681 L140,0 L126,0 L126,681"/> 
            <glyph glyph-name="Ð" unicode="&#xD0;" horiz-adv-x="533" d=" M237,681 Q284,681 323.5,673.5 Q363,666 403,644 Q443,622 470.5,586 Q498,550 515,489.5 Q532,429 532,348 Q532,280 520.5,224.5 Q509,169 487.5,132 Q466,95 439,68.5 Q412,42 378,27.5 Q344,13 311,6.5 Q278,0 242,0 L122,0 L122,346 L28,346 L28,360 L122,360 L122,681 M242,14 Q285,14 322.5,22.5 Q360,31 397,54 Q434,77 459.5,113.5 Q485,150 501,210 Q517,270 517,348 Q517,427 500.5,485.5 Q484,544 458,578 Q432,612 393.5,633 Q355,654 318,660.5 Q281,667 235,667 L136,667 L136,360 L330,360 L330,346 L136,346 L136,14"/> 
            <glyph glyph-name="Ñ" unicode="&#xD1;" horiz-adv-x="533" d=" M391,807 Q367,807 330,829 Q293,851 276,851 Q258,851 245,843 Q232,835 215,816 L206,821 Q240,864 276,864 Q296,864 333,842 Q370,820 391,820 Q410,820 423.5,829 Q437,838 453,860 L462,854 Q432,807 391,807 M533,681 L533,0 L515,0 L138,665 Q140,625 140,516 L140,0 L126,0 L126,681 L144,681 L520,16 Q519,98 519,177 L519,681"/> 
            <glyph glyph-name="Ò" unicode="&#xD2;" horiz-adv-x="608" d=" M266,854 L437,777 L433,767 L259,839 M344,691 Q466,691 537,599.5 Q608,508 608,340 Q608,174 538.5,82.5 Q469,-9 344,-9 Q223,-9 152,82.5 Q81,174 81,338.5 Q81,503 153,597 Q225,691 344,691 M344,677 Q231,677 163.5,587.5 Q96,498 96,338 Q96,180 163,92 Q230,4 344,4 Q463,4 528,91.5 Q593,179 593,340 Q593,502 526.5,589.5 Q460,677 344,677"/> 
            <glyph glyph-name="Ó" unicode="&#xD3;" horiz-adv-x="608" d=" M425,854 L432,839 L258,767 L254,777 M344,691 Q466,691 537,599.5 Q608,508 608,340 Q608,174 538.5,82.5 Q469,-9 344,-9 Q223,-9 152,82.5 Q81,174 81,338.5 Q81,503 153,597 Q225,691 344,691 M344,677 Q231,677 163.5,587.5 Q96,498 96,338 Q96,180 163,92 Q230,4 344,4 Q463,4 528,91.5 Q593,179 593,340 Q593,502 526.5,589.5 Q460,677 344,677"/> 
            <glyph glyph-name="Ô" unicode="&#xD4;" horiz-adv-x="608" d=" M233,768 L225,776 L340,862 L348,862 L463,776 L456,768 L344,846 M344,691 Q466,691 537,599.5 Q608,508 608,340 Q608,174 538.5,82.5 Q469,-9 344,-9 Q223,-9 152,82.5 Q81,174 81,338.5 Q81,503 153,597 Q225,691 344,691 M344,677 Q231,677 163.5,587.5 Q96,498 96,338 Q96,180 163,92 Q230,4 344,4 Q463,4 528,91.5 Q593,179 593,340 Q593,502 526.5,589.5 Q460,677 344,677"/> 
            <glyph glyph-name="Õ" unicode="&#xD5;" horiz-adv-x="608" d=" M401,807 Q377,807 340,829 Q303,851 286,851 Q277,851 269.5,849 Q262,847 254.5,842.5 Q247,838 240.5,831.5 Q234,825 225,816 L216,821 Q250,864 286,864 Q306,864 343,842 Q380,820 401,820 Q420,820 433.5,829 Q447,838 463,860 L472,854 Q442,807 401,807 M344,691 Q466,691 537,599.5 Q608,508 608,340 Q608,174 538.5,82.5 Q469,-9 344,-9 Q223,-9 152,82.5 Q81,174 81,338.5 Q81,503 153,597 Q225,691 344,691 M344,677 Q231,677 163.5,587.5 Q96,498 96,338 Q96,180 163,92 Q230,4 344,4 Q463,4 528,91.5 Q593,179 593,340 Q593,502 526.5,589.5 Q460,677 344,677"/> 
            <glyph glyph-name="Ö" unicode="&#xD6;" horiz-adv-x="608" d=" M264,829 Q279,829 279,815 Q279,801 264,801 Q258,801 254,805 Q250,809 250,815 Q250,821 254,825 Q258,829 264,829 M424,829 Q428,829 431,827.5 Q434,826 436,822.5 Q438,819 438,815 Q438,809 434,805 Q430,801 424,801 Q417,801 413,805 Q409,809 409,815 Q409,821 413,825 Q417,829 424,829 M344,691 Q466,691 537,599.5 Q608,508 608,340 Q608,174 538.5,82.5 Q469,-9 344,-9 Q223,-9 152,82.5 Q81,174 81,338.5 Q81,503 153,597 Q225,691 344,691 M344,677 Q231,677 163.5,587.5 Q96,498 96,338 Q96,180 163,92 Q230,4 344,4 Q463,4 528,91.5 Q593,179 593,340 Q593,502 526.5,589.5 Q460,677 344,677"/> 
            <glyph glyph-name="×" unicode="&#xD7;" horiz-adv-x="382" d=" M371,450 L382,441 L251,308 L382,174 L371,165 L241,298 L111,165 L101,174 L231,307 L101,441 L111,450 L240,316"/> 
            <glyph glyph-name="Ø" unicode="&#xD8;" horiz-adv-x="608" d=" M447,671 Q523,637 565.5,552.5 Q608,468 608,340 Q608,174 538.5,82.5 Q469,-9 344,-9 Q295,-9 253,6 L220,-108 L206,-103 L241,11 Q165,45 123,129 Q81,213 81,338 Q81,503 153,597 Q225,691 344,691 Q393,691 435,676 L468,794 L483,789 M96,338 Q96,218 135,137.5 Q174,57 245,24 L432,662 Q392,677 344,677 Q231,677 163.5,587.5 Q96,498 96,338 M344,4 Q463,4 528,91.5 Q593,179 593,340 Q593,423 575,487 Q557,551 523.5,593.5 Q490,636 443,658 L256,20 Q296,4 344,4"/> 
            <glyph glyph-name="Ù" unicode="&#xD9;" horiz-adv-x="523" d=" M241,854 L412,777 L407,767 L234,839 M522,681 L522,207 Q522,107 472.5,49 Q423,-9 319,-9 Q265,-9 225.5,7 Q186,23 162,52.5 Q138,82 127,120.5 Q116,159 116,207 L116,681 L130,681 L130,208 Q130,113 175.5,58.5 Q221,4 319,4 Q417,4 462.5,59 Q508,114 508,208 L508,681"/> 
            <glyph glyph-name="Ú" unicode="&#xDA;" horiz-adv-x="523" d=" M400,854 L407,839 L233,767 L228,777 M522,681 L522,207 Q522,107 472.5,49 Q423,-9 319,-9 Q265,-9 225.5,7 Q186,23 162,52.5 Q138,82 127,120.5 Q116,159 116,207 L116,681 L130,681 L130,208 Q130,113 175.5,58.5 Q221,4 319,4 Q417,4 462.5,59 Q508,114 508,208 L508,681"/> 
            <glyph glyph-name="Û" unicode="&#xDB;" horiz-adv-x="523" d=" M207,768 L200,776 L315,862 L323,862 L438,776 L430,768 L319,846 M522,681 L522,207 Q522,107 472.5,49 Q423,-9 319,-9 Q265,-9 225.5,7 Q186,23 162,52.5 Q138,82 127,120.5 Q116,159 116,207 L116,681 L130,681 L130,208 Q130,113 175.5,58.5 Q221,4 319,4 Q417,4 462.5,59 Q508,114 508,208 L508,681"/> 
            <glyph glyph-name="Ü" unicode="&#xDC;" horiz-adv-x="523" d=" M239,829 Q254,829 254,815 Q254,809 250,805 Q246,801 239,801 Q233,801 229,805 Q225,809 225,815 Q225,819 226.5,822.5 Q228,826 231.5,827.5 Q235,829 239,829 M398,829 Q405,829 408.5,825 Q412,821 412,815 Q412,809 408.5,805 Q405,801 398,801 Q394,801 390.5,803 Q387,805 385.5,808 Q384,811 384,815 Q384,821 388,825 Q392,829 398,829 M522,681 L522,207 Q522,107 472.5,49 Q423,-9 319,-9 Q265,-9 225.5,7 Q186,23 162,52.5 Q138,82 127,120.5 Q116,159 116,207 L116,681 L130,681 L130,208 Q130,113 175.5,58.5 Q221,4 319,4 Q417,4 462.5,59 Q508,114 508,208 L508,681"/> 
            <glyph glyph-name="Ý" unicode="&#xDD;" horiz-adv-x="466" d=" M325,854 L332,839 L158,767 L154,777 M465,681 L252,271 L252,0 L238,0 L238,271 L23,681 L39,681 L245,284 L449,681"/> 
            <glyph glyph-name="Þ" unicode="&#xDE;" horiz-adv-x="496" d=" M257,553 Q337,553 389,532.5 Q441,512 468,467.5 Q495,423 495,354 Q495,150 253,150 L140,150 L140,0 L126,0 L126,681 L140,681 L140,553 M255,163 Q363,163 421.5,207.5 Q480,252 480,353 Q480,452 425.5,495.5 Q371,539 257,539 L140,539 L140,163"/> 
            <glyph glyph-name="ß" unicode="&#xDF;" horiz-adv-x="511" d=" M290,735 Q356,735 395.5,700.5 Q435,666 435,611 Q435,586 426,564.5 Q417,543 403.5,529.5 Q390,516 374.5,502 Q359,488 345.5,477 Q332,466 323.5,451.5 Q315,437 315,421 Q315,400 329.5,381.5 Q344,363 365.5,349.5 Q387,336 412.5,317 Q438,298 460,277.5 Q482,257 496.5,222.5 Q511,188 511,145 Q511,76 473,33 Q435,-10 369,-10 Q318,-10 278,13 L283,24 Q320,3 369,3 Q428,3 462,41.5 Q496,80 496,145 Q496,181 485.5,210.5 Q475,240 457.5,259.5 Q440,279 419,295.5 Q398,312 377.5,325.5 Q357,339 339.5,352 Q322,365 311.5,382.5 Q301,400 301,421 Q301,438 309.5,453.5 Q318,469 331.5,480.5 Q345,492 360.5,505.5 Q376,519 389.5,532.5 Q403,546 412,566.5 Q421,587 421,611 Q421,660 386,691 Q351,722 290,722 Q245,722 210,702 Q175,682 155,640 Q135,598 135,539 L135,0 L121,0 L121,541 Q121,633 168,684 Q215,735 290,735"/> 
            <glyph glyph-name="à" unicode="&#xE0;" horiz-adv-x="454" d=" M345,667 L339,657 L166,740 L172,755 M404,110 Q404,57 414.5,33.5 Q425,10 453,1 L450,-9 Q418,0 405,24 Q392,48 392,96 Q336,-9 221,-9 Q149,-9 108.5,33 Q68,75 68,145 Q68,221 122,263.5 Q176,306 269,306 L390,306 L390,371 Q390,443 359,479 Q328,515 255,515 Q191,515 110,482 L106,494 Q188,528 255,528 Q308,528 341.5,509.5 Q375,491 389.5,457 Q404,423 404,372 M221,4 Q262,4 294,17 Q326,30 349,54 Q372,78 390,114 L390,293 L272,293 Q183,293 133,254.5 Q83,216 83,145 Q83,80 119.5,42 Q156,4 221,4"/> 
            <glyph glyph-name="á" unicode="&#xE1;" horiz-adv-x="454" d=" M335,740 L161,657 L156,667 L328,755 M404,110 Q404,57 414.5,33.5 Q425,10 453,1 L450,-9 Q418,0 405,24 Q392,48 392,96 Q336,-9 221,-9 Q149,-9 108.5,33 Q68,75 68,145 Q68,221 122,263.5 Q176,306 269,306 L390,306 L390,371 Q390,443 359,479 Q328,515 255,515 Q191,515 110,482 L106,494 Q188,528 255,528 Q308,528 341.5,509.5 Q375,491 389.5,457 Q404,423 404,372 M221,4 Q262,4 294,17 Q326,30 349,54 Q372,78 390,114 L390,293 L272,293 Q183,293 133,254.5 Q83,216 83,145 Q83,80 119.5,42 Q156,4 221,4"/> 
            <glyph glyph-name="â" unicode="&#xE2;" horiz-adv-x="454" d=" M253,740 L141,656 L133,664 L249,755 L257,755 L371,664 L364,656 M404,110 Q404,57 414.5,33.5 Q425,10 453,1 L450,-9 Q418,0 405,24 Q392,48 392,96 Q336,-9 221,-9 Q149,-9 108.5,33 Q68,75 68,145 Q68,221 122,263.5 Q176,306 269,306 L390,306 L390,371 Q390,443 359,479 Q328,515 255,515 Q191,515 110,482 L106,494 Q188,528 255,528 Q308,528 341.5,509.5 Q375,491 389.5,457 Q404,423 404,372 M221,4 Q282,4 322.5,32 Q363,60 390,114 L390,293 L272,293 Q183,293 133,254.5 Q83,216 83,145 Q83,80 119.5,42 Q156,4 221,4"/> 
            <glyph glyph-name="ã" unicode="&#xE3;" horiz-adv-x="454" d=" M196,725 Q178,725 165,717 Q152,709 135,690 L126,695 Q159,738 196,738 Q215,738 252.5,716 Q290,694 311,694 Q329,694 343,703 Q357,712 372,734 L382,728 Q352,681 311,681 Q287,681 250,703 Q213,725 196,725 M404,110 Q404,57 414.5,33.5 Q425,10 453,1 L450,-9 Q418,0 405,24 Q392,48 392,96 Q336,-9 221,-9 Q149,-9 108.5,33 Q68,75 68,145 Q68,221 122,263.5 Q176,306 269,306 L390,306 L390,371 Q390,443 359,479 Q328,515 255,515 Q191,515 110,482 L106,494 Q188,528 255,528 Q308,528 341.5,509.5 Q375,491 389.5,457 Q404,423 404,372 M221,4 Q262,4 294,17 Q326,30 349,54 Q372,78 390,114 L390,293 L272,293 Q183,293 133,254.5 Q83,216 83,145 Q83,80 119.5,42 Q156,4 221,4"/> 
            <glyph glyph-name="ä" unicode="&#xE4;" horiz-adv-x="454" d=" M172,675 Q166,675 162,679 Q158,683 158,689 Q158,695 162,699 Q166,703 172,703 Q187,703 187,689 Q187,683 183,679 Q179,675 172,675 M332,675 Q328,675 325.5,676 Q323,677 321,679 Q319,681 318,683.5 Q317,686 317,689 Q317,695 321,699 Q325,703 332,703 Q338,703 342,699 Q346,695 346,689 Q346,683 342,679 Q338,675 332,675 M404,110 Q404,57 414.5,33.5 Q425,10 453,1 L450,-9 Q418,0 405,24 Q392,48 392,96 Q336,-9 221,-9 Q149,-9 108.5,33 Q68,75 68,145 Q68,221 122,263.5 Q176,306 269,306 L390,306 L390,371 Q390,443 359,479 Q328,515 255,515 Q191,515 110,482 L106,494 Q188,528 255,528 Q308,528 341.5,509.5 Q375,491 389.5,457 Q404,423 404,372 M221,4 Q262,4 294,17 Q326,30 349,54 Q372,78 390,114 L390,293 L272,293 Q183,293 133,254.5 Q83,216 83,145 Q83,80 119.5,42 Q156,4 221,4"/> 
            <glyph glyph-name="å" unicode="&#xE5;" horiz-adv-x="454" d=" M253,649 Q219,649 199.5,668.5 Q180,688 180,720.5 Q180,753 200,773 Q220,793 253,793 Q269,793 283,788 Q297,783 306,773.5 Q315,764 320,750.5 Q325,737 325,721 Q325,700 316.5,683.5 Q308,667 291,658 Q274,649 253,649 M253,782 Q225,782 209,765.5 Q193,749 193,721 Q193,692 208.5,676 Q224,660 253,660 Q271,660 284.5,667.5 Q298,675 305,689 Q312,703 312,721 Q312,749 296.5,765.5 Q281,782 253,782 M404,110 Q404,57 414.5,33.5 Q425,10 453,1 L450,-9 Q418,0 405,24 Q392,48 392,96 Q336,-9 221,-9 Q149,-9 108.5,33 Q68,75 68,145 Q68,221 122,263.5 Q176,306 269,306 L390,306 L390,371 Q390,443 359,479 Q328,515 255,515 Q191,515 110,482 L106,494 Q188,528 255,528 Q308,528 341.5,509.5 Q375,491 389.5,457 Q404,423 404,372 M221,4 Q262,4 294,17 Q326,30 349,54 Q372,78 390,114 L390,293 L272,293 Q183,293 133,254.5 Q83,216 83,145 Q83,80 119.5,42 Q156,4 221,4"/> 
            <glyph glyph-name="æ" unicode="&#xE6;" horiz-adv-x="772" d=" M772,286 Q772,266 771,249 L405,249 Q407,130 457.5,67 Q508,4 593,4 Q638,4 672,18 Q706,32 742,61 L750,51 Q713,20 677,5.5 Q641,-9 593,-9 Q530,-9 483.5,23 Q437,55 413,116 Q372,49 327,20 Q282,-9 221,-9 Q149,-9 108.5,33 Q68,75 68,145 Q68,221 122,264 Q176,307 269,307 L390,307 L390,371 Q390,443 359,479 Q328,515 255,515 Q191,515 110,482 L106,494 Q188,528 255,528 Q333,528 368.5,488.5 Q404,449 404,372 L404,365 Q425,445 472.5,486.5 Q520,528 590,528 Q650,528 692,496.5 Q734,465 753,411.5 Q772,358 772,286 M757,261 Q758,271 758,291 Q758,392 716,453.5 Q674,515 590.5,515 Q507,515 456.5,449 Q406,383 404,261 M221,4 Q262,4 294.5,17.5 Q327,31 353.5,58 Q380,85 408,130 Q390,184 390,254 L390,293 L272,293 Q183,293 133,254.5 Q83,216 83,145 Q83,80 119.5,42 Q156,4 221,4"/> 
            <glyph glyph-name="ç" unicode="&#xE7;" horiz-adv-x="420" d=" M281,-78 Q372,-81 372,-141 Q372,-174 349.5,-191.5 Q327,-209 294,-209 Q257,-209 229,-191 L235,-180 Q260,-196 294,-196 Q311,-196 325,-190.5 Q339,-185 348,-172.5 Q357,-160 357,-141 Q357,-115 336,-102 Q315,-89 268,-88 L272,-9 Q184,-5 130,65 Q76,135 76,256 Q76,383 131.5,455.5 Q187,528 283,528 Q359,528 415,478 L406,469 Q356,515 283,515 Q195,515 143,447 Q91,379 91,256 Q91,137 144,70.5 Q197,4 282,4 Q356,4 411,54 L420,44 Q392,19 358.5,5 Q325,-9 283,-9"/> 
            <glyph glyph-name="è" unicode="&#xE8;" horiz-adv-x="458" d=" M367,667 L362,657 L188,740 L195,755 M458,286 Q458,266 456,249 L90,249 Q92,130 143,67 Q194,4 279,4 Q324,4 358,18 Q392,32 428,61 L436,51 Q399,20 362.5,5.5 Q326,-9 279,-9 Q185,-9 130.5,60.5 Q76,130 76,254 Q76,382 129.5,455 Q183,528 274,528 Q365,528 411.5,462 Q458,396 458,286 M443,261 Q444,271 444,291 Q444,392 401.5,453.5 Q359,515 275,515 Q192,515 142,449 Q92,383 90,261"/> 
            <glyph glyph-name="é" unicode="&#xE9;" horiz-adv-x="458" d=" M357,740 L184,657 L178,667 L351,755 M458,286 Q458,266 456,249 L90,249 Q92,130 143,67 Q194,4 279,4 Q324,4 358,18 Q392,32 428,61 L436,51 Q399,20 362.5,5.5 Q326,-9 279,-9 Q185,-9 130.5,60.5 Q76,130 76,254 Q76,382 129.5,455 Q183,528 274,528 Q365,528 411.5,462 Q458,396 458,286 M443,261 Q444,271 444,291 Q444,392 401.5,453.5 Q359,515 275,515 Q192,515 142,449 Q92,383 90,261"/> 
            <glyph glyph-name="ê" unicode="&#xEA;" horiz-adv-x="458" d=" M275,740 L163,656 L156,664 L271,755 L279,755 L394,664 L386,656 M458,286 Q458,266 456,249 L90,249 Q92,130 143,67 Q194,4 279,4 Q324,4 358,18 Q392,32 428,61 L436,51 Q399,20 362.5,5.5 Q326,-9 279,-9 Q185,-9 130.5,60.5 Q76,130 76,254 Q76,382 129.5,455 Q183,528 274,528 Q365,528 411.5,462 Q458,396 458,286 M443,261 Q444,271 444,291 Q444,392 401.5,453.5 Q359,515 275,515 Q192,515 142,449 Q92,383 90,261"/> 
            <glyph glyph-name="ë" unicode="&#xEB;" horiz-adv-x="458" d=" M195,675 Q189,675 185,679 Q181,683 181,689 Q181,695 185,699 Q189,703 195,703 Q210,703 210,689 Q210,683 206,679 Q202,675 195,675 M354,675 Q351,675 348,676 Q345,677 343.5,679 Q342,681 341,683.5 Q340,686 340,689 Q340,695 344,699 Q348,703 354,703 Q361,703 364.5,699 Q368,695 368,689 Q368,685 366.5,682 Q365,679 362,677 Q359,675 354,675 M458,286 Q458,266 456,249 L90,249 Q92,130 143,67 Q194,4 279,4 Q324,4 358,18 Q392,32 428,61 L436,51 Q399,20 362.5,5.5 Q326,-9 279,-9 Q185,-9 130.5,60.5 Q76,130 76,254 Q76,382 129.5,455 Q183,528 274,528 Q365,528 411.5,462 Q458,396 458,286 M443,261 Q444,271 444,291 Q444,392 401.5,453.5 Q359,515 275,515 Q192,515 142,449 Q92,383 90,261"/> 
            <glyph glyph-name="ì" unicode="&#xEC;" horiz-adv-x="220" d=" M48,755 L220,667 L214,657 L41,740 M135,518 L135,0 L121,0 L121,518"/> 
            <glyph glyph-name="í" unicode="&#xED;" horiz-adv-x="210" d=" M203,755 L210,740 L36,657 L31,667 M135,518 L135,0 L121,0 L121,518"/> 
            <glyph glyph-name="î" unicode="&#xEE;" horiz-adv-x="247" d=" M16,656 L8,664 L124,755 L132,755 L247,664 L239,656 L128,740 M135,518 L135,0 L121,0 L121,518"/> 
            <glyph glyph-name="ï" unicode="&#xEF;" horiz-adv-x="221" d=" M48,703 Q62,703 62,689 Q62,683 58,679 Q54,675 48,675 Q41,675 37,679 Q33,683 33,689 Q33,695 37,699 Q41,703 48,703 M207,703 Q213,703 217,699 Q221,695 221,689 Q221,685 219.5,682 Q218,679 214.5,677 Q211,675 207,675 Q200,675 196,679 Q192,683 192,689 Q192,695 196,699 Q200,703 207,703 M135,518 L135,0 L121,0 L121,518"/> 
            <glyph glyph-name="ð" unicode="&#xF0;" horiz-adv-x="461" d=" M304,667 Q381,610 421,523 Q461,436 461,309 Q461,148 410.5,69.5 Q360,-9 266,-9 Q177,-9 126.5,56 Q76,121 76,229 Q76,326 125.5,393 Q175,460 260,460 Q367,460 446,351 Q435,552 294,658 L209,570 L198,574 L285,665 Q223,707 147,724 L150,736 Q229,719 294,674 L359,743 L368,735 M266,4 Q447,4 447,310 Q447,328 446,335 Q366,446 261,446 Q182,446 136.5,384 Q91,322 91,228 Q91,125 137.5,64.5 Q184,4 266,4"/> 
            <glyph glyph-name="ñ" unicode="&#xF1;" horiz-adv-x="466" d=" M239,725 Q222,725 208.5,717 Q195,709 178,690 L169,695 Q203,738 239,738 Q259,738 296,716 Q333,694 354,694 Q373,694 386.5,703 Q400,712 416,734 L425,728 Q395,681 354,681 Q330,681 293,703 Q256,725 239,725 M329,528 Q465,528 465,369 L465,0 L451,0 L451,367 Q451,516 328,516 Q214,516 135,385 L135,0 L121,0 L121,518 L133,518 L135,404 Q212,528 329,528"/> 
            <glyph glyph-name="ò" unicode="&#xF2;" horiz-adv-x="485" d=" M200,755 L372,667 L367,657 L194,740 M281,528 Q376,528 430,458 Q484,388 484,262 Q484,134 429,62.5 Q374,-9 279,-9 Q184,-9 130,62 Q76,133 76,258 Q76,386 131.5,457 Q187,528 281,528 M281,515 Q193,515 141.5,448 Q90,381 90,258 Q90,138 140.5,71 Q191,4 279.5,4 Q368,4 419,71.5 Q470,139 470,262 Q470,382 419.5,448.5 Q369,515 281,515"/> 
            <glyph glyph-name="ó" unicode="&#xF3;" horiz-adv-x="485" d=" M356,755 L362,740 L189,657 L184,667 M281,528 Q376,528 430,458 Q484,388 484,262 Q484,134 429,62.5 Q374,-9 279,-9 Q184,-9 130,62 Q76,133 76,258 Q76,386 131.5,457 Q187,528 281,528 M281,515 Q193,515 141.5,448 Q90,381 90,258 Q90,138 140.5,71 Q191,4 279.5,4 Q368,4 419,71.5 Q470,139 470,262 Q470,382 419.5,448.5 Q369,515 281,515"/> 
            <glyph glyph-name="ô" unicode="&#xF4;" horiz-adv-x="485" d=" M169,656 L161,664 L277,755 L285,755 L399,664 L392,656 L281,740 M281,528 Q376,528 430,458 Q484,388 484,262 Q484,134 429,62.5 Q374,-9 279,-9 Q184,-9 130,62 Q76,133 76,258 Q76,386 131.5,457 Q187,528 281,528 M281,515 Q193,515 141.5,448 Q90,381 90,258 Q90,138 140.5,71 Q191,4 279.5,4 Q368,4 419,71.5 Q470,139 470,262 Q470,382 419.5,448.5 Q369,515 281,515"/> 
            <glyph glyph-name="õ" unicode="&#xF5;" horiz-adv-x="485" d=" M339,681 Q315,681 277.5,703 Q240,725 224,725 Q206,725 192.5,717 Q179,709 163,690 L154,695 Q187,738 224,738 Q243,738 280.5,716 Q318,694 339,694 Q357,694 370.5,703 Q384,712 400,734 L410,728 Q380,681 339,681 M281,528 Q376,528 430,458 Q484,388 484,262 Q484,134 429,62.5 Q374,-9 279,-9 Q184,-9 130,62 Q76,133 76,258 Q76,386 131.5,457 Q187,528 281,528 M281,515 Q193,515 141.5,448 Q90,381 90,258 Q90,138 140.5,71 Q191,4 279.5,4 Q368,4 419,71.5 Q470,139 470,262 Q470,382 419.5,448.5 Q369,515 281,515"/> 
            <glyph glyph-name="ö" unicode="&#xF6;" horiz-adv-x="485" d=" M200,703 Q215,703 215,689 Q215,675 200,675 Q194,675 190,679 Q186,683 186,689 Q186,695 190,699 Q194,703 200,703 M360,703 Q366,703 370,699 Q374,695 374,689 Q374,683 370,679 Q366,675 360,675 Q353,675 349,679 Q345,683 345,689 Q345,695 349,699 Q353,703 360,703 M281,528 Q376,528 430,458 Q484,388 484,262 Q484,134 429,62.5 Q374,-9 279,-9 Q184,-9 130,62 Q76,133 76,258 Q76,386 131.5,457 Q187,528 281,528 M281,515 Q193,515 141.5,448 Q90,381 90,258 Q90,138 140.5,71 Q191,4 279.5,4 Q368,4 419,71.5 Q470,139 470,262 Q470,382 419.5,448.5 Q369,515 281,515"/> 
            <glyph glyph-name="÷" unicode="&#xF7;" horiz-adv-x="402" d=" M241,551 Q249,551 253.5,546 Q258,541 258,534 Q258,527 253.5,522.5 Q249,518 241,518 Q234,518 229,522.5 Q224,527 224,534 Q224,541 229,546 Q234,551 241,551 M81,324 L81,338 L402,338 L402,324 M241,144 Q246,144 250,141.5 Q254,139 256,135.5 Q258,132 258,127 Q258,120 253.5,115.5 Q249,111 241,111 Q234,111 229,115.5 Q224,120 224,127 Q224,134 229,139 Q234,144 241,144"/> 
            <glyph glyph-name="ø" unicode="&#xF8;" horiz-adv-x="485" d=" M369,509 Q406,490 431.5,456.5 Q457,423 470.5,373.5 Q484,324 484,262 Q484,134 429,62.5 Q374,-9 279,-9 Q238,-9 203,5 L162,-116 L149,-112 L191,11 Q136,39 106,102.5 Q76,166 76,258 Q76,386 131.5,457 Q187,528 281,528 Q323,528 357,514 L397,635 L410,632 M90,258 Q90,171 117.5,110.5 Q145,50 195,23 L353,501 Q321,515 281,515 Q193,515 141.5,448 Q90,381 90,258 M279,4 Q368,4 419,71.5 Q470,139 470,262 Q470,350 442.5,410 Q415,470 365,496 L207,18 Q240,4 279,4"/> 
            <glyph glyph-name="ù" unicode="&#xF9;" horiz-adv-x="456" d=" M208,755 L380,667 L375,657 L202,740 M455,518 L455,0 L443,0 L442,110 Q377,-9 260,-9 Q192,-9 154,32 Q116,73 116,150 L116,518 L130,518 L130,150 Q130,78 164.5,41 Q199,4 261,4 Q372,4 441,128 L441,518"/> 
            <glyph glyph-name="ú" unicode="&#xFA;" horiz-adv-x="456" d=" M364,755 L370,740 L197,657 L192,667 M455,518 L455,0 L443,0 L442,110 Q377,-9 260,-9 Q192,-9 154,32 Q116,73 116,150 L116,518 L130,518 L130,150 Q130,78 164.5,41 Q199,4 261,4 Q372,4 441,128 L441,518"/> 
            <glyph glyph-name="û" unicode="&#xFB;" horiz-adv-x="456" d=" M177,656 L169,664 L284,755 L292,755 L407,664 L400,656 L288,740 M455,518 L455,0 L443,0 L442,110 Q377,-9 260,-9 Q192,-9 154,32 Q116,73 116,150 L116,518 L130,518 L130,150 Q130,78 164.5,41 Q199,4 261,4 Q372,4 441,128 L441,518"/> 
            <glyph glyph-name="ü" unicode="&#xFC;" horiz-adv-x="456" d=" M208,703 Q223,703 223,689 Q223,683 219,679 Q215,675 208,675 Q202,675 198,679 Q194,683 194,689 Q194,695 198,699 Q202,703 208,703 M367,703 Q374,703 378,699 Q382,695 382,689 Q382,683 378,679 Q374,675 367,675 Q353,675 353,689 Q353,703 367,703 M455,518 L455,0 L443,0 L442,110 Q377,-9 260,-9 Q192,-9 154,32 Q116,73 116,150 L116,518 L130,518 L130,150 Q130,78 164.5,41 Q199,4 261,4 Q372,4 441,128 L441,518"/> 
            <glyph glyph-name="ý" unicode="&#xFD;" horiz-adv-x="415" d=" M295,755 L302,740 L129,657 L123,667 M414,518 L234,-1 Q218,-48 205,-75 Q192,-102 172.5,-126.5 Q153,-151 126.5,-166 Q100,-181 60,-192 L58,-181 Q96,-170 121,-156 Q146,-142 164,-118 Q182,-94 193.5,-70 Q205,-46 221,0 L215,0 L26,518 L41,518 L225,10 L399,518"/> 
            <glyph glyph-name="þ" unicode="&#xFE;" horiz-adv-x="488" d=" M307,528 Q394,528 441,459.5 Q488,391 488,264 Q488,135 440,63 Q392,-9 302,-9 Q198,-9 135,87 L135,-191 L121,-194 L121,732 L135,733 L135,430 Q205,528 307,528 M302,4 Q385,4 429,72 Q473,140 473,264 Q473,386 430.5,450.5 Q388,515 307,515 Q269,515 237,501.5 Q205,488 182,467 Q159,446 135,413 L135,105 Q201,4 302,4"/> 
            <glyph glyph-name="ÿ" unicode="&#xFF;" horiz-adv-x="415" d=" M140,703 Q154,703 154,689 Q154,683 150.5,679 Q147,675 140,675 Q133,675 129.5,679 Q126,683 126,689 Q126,695 129.5,699 Q133,703 140,703 M299,703 Q306,703 309.5,699 Q313,695 313,689 Q313,683 309.5,679 Q306,675 299,675 Q295,675 291.5,677 Q288,679 286.5,682 Q285,685 285,689 Q285,695 288.5,699 Q292,703 299,703 M414,518 L234,-1 Q218,-48 205,-75 Q192,-102 172.5,-126.5 Q153,-151 126.5,-166 Q100,-181 60,-192 L58,-181 Q96,-170 121,-156 Q146,-142 164,-118 Q182,-94 193.5,-70 Q205,-46 221,0 L215,0 L26,518 L41,518 L225,10 L399,518"/> 
            <glyph glyph-name="Ā" unicode="&#x100;" horiz-adv-x="527" d=" M379,826 L379,812 L178,812 L178,826 M511,0 L439,207 L117,207 L45,0 L31,0 L269,681 L287,681 L526,0 M122,221 L434,221 L278,669"/> 
            <glyph glyph-name="ā" unicode="&#x101;" horiz-adv-x="454" d=" M353,700 L353,686 L152,686 L152,700 M404,110 Q404,57 414.5,33.5 Q425,10 453,1 L450,-9 Q418,0 405,24 Q392,48 392,96 Q336,-9 221,-9 Q149,-9 108.5,33 Q68,75 68,145 Q68,221 122,263.5 Q176,306 269,306 L390,306 L390,371 Q390,443 359,479 Q328,515 255,515 Q191,515 110,482 L106,494 Q188,528 255,528 Q308,528 341.5,509.5 Q375,491 389.5,457 Q404,423 404,372 M221,4 Q262,4 294,17 Q326,30 349,54 Q372,78 390,114 L390,293 L272,293 Q183,293 133,254.5 Q83,216 83,145 Q83,80 119.5,42 Q156,4 221,4"/> 
            <glyph glyph-name="Ă" unicode="&#x102;" horiz-adv-x="527" d=" M319,772 Q238,772 210.5,792.5 Q183,813 175,842 L186,844 Q195,818 219.5,802 Q244,786 278.5,786 Q313,786 337,802 Q361,818 371,844 L382,842 Q373,813 319,772 M511,0 L439,207 L117,207 L45,0 L31,0 L269,681 L287,681 L526,0 M122,221 L434,221 L278,669"/> 
            <glyph glyph-name="ă" unicode="&#x103;" horiz-adv-x="454" d=" M253,664 Q225,664 203,674.5 Q181,685 167.5,703 Q154,721 149,744 L160,746 Q179,677 252.5,677 Q326,677 345,746 L356,744 Q348,708 321,686 Q294,664 253,664 M404,110 Q404,57 414.5,33.5 Q425,10 453,1 L450,-9 Q418,0 405,24 Q392,48 392,96 Q336,-9 221,-9 Q149,-9 108.5,33 Q68,75 68,145 Q68,221 122,263.5 Q176,306 269,306 L390,306 L390,371 Q390,443 359,479 Q328,515 255,515 Q191,515 110,482 L106,494 Q188,528 255,528 Q308,528 341.5,509.5 Q375,491 389.5,457 Q404,423 404,372 M221,4 Q282,4 322.5,32 Q363,60 390,114 L390,293 L272,293 Q183,293 133,254.5 Q83,216 83,145 Q83,80 119.5,42 Q156,4 221,4"/> 
            <glyph glyph-name="Ą" unicode="&#x104;" horiz-adv-x="527" d=" M397,-123 Q397,-142 405.5,-156 Q414,-170 430,-177.5 Q446,-185 469,-185 Q493,-185 523,-178 L522,-192 Q493,-199 469,-199 Q427,-199 404.5,-178.5 Q382,-158 382,-123 Q382,-81 416,-51 Q450,-21 510,4 L439,207 L117,207 L45,0 L31,0 L269,681 L287,681 L526,0 Q498,-12 478,-22.5 Q458,-33 438,-48 Q418,-63 407.5,-81.5 Q397,-100 397,-123 M122,221 L434,221 L278,669"/> 
            <glyph glyph-name="ą" unicode="&#x105;" horiz-adv-x="454" d=" M450,-9 Q389,-34 355,-62 Q321,-90 321,-132 Q321,-162 339.5,-178.5 Q358,-195 393,-195 Q417,-195 447,-187 L446,-201 Q416,-209 392,-209 Q350,-209 327.5,-188.5 Q305,-168 305,-133 Q305,-90 340,-59.5 Q375,-29 436,-4 Q420,3 410.5,15.5 Q401,28 396.5,47.5 Q392,67 392,96 Q336,-9 221,-9 Q149,-9 108.5,33 Q68,75 68,145 Q68,221 122,263.5 Q176,306 269,306 L390,306 L390,371 Q390,443 359,479 Q328,515 255,515 Q191,515 110,482 L106,494 Q188,528 255,528 Q308,528 341.5,509.5 Q375,491 389.5,457 Q404,423 404,372 L404,110 Q404,57 414.5,33.5 Q425,10 453,1 M221,4 Q282,4 322.5,32 Q363,60 390,114 L390,293 L272,293 Q183,293 133,254.5 Q83,216 83,145 Q83,80 119.5,42 Q156,4 221,4"/> 
            <glyph glyph-name="Ć" unicode="&#x106;" horiz-adv-x="509" d=" M423,854 L430,839 L256,767 L252,777 M343,691 Q379,691 409,683 Q439,675 459,663 Q479,651 500,633 L493,622 Q471,641 451.5,652 Q432,663 404.5,670 Q377,677 344,677 Q232,677 164,592 Q96,507 96,340 Q96,179 163.5,92 Q231,5 342,5 Q395,5 431.5,20.5 Q468,36 500,63 L509,52 Q437,-9 341,-9 Q224,-9 152.5,82.5 Q81,174 81,340 Q81,511 153.5,601 Q226,691 343,691"/> 
            <glyph glyph-name="ć" unicode="&#x107;" horiz-adv-x="420" d=" M354,755 L360,740 L187,657 L182,667 M283,528 Q359,528 415,478 L406,469 Q356,515 283,515 Q195,515 143,447 Q91,379 91,256 Q91,137 144,70.5 Q197,4 282,4 Q356,4 411,54 L420,44 Q361,-9 283,-9 Q190,-9 133,61 Q76,131 76,256 Q76,383 131.5,455.5 Q187,528 283,528"/> 
            <glyph glyph-name="Ĉ" unicode="&#x108;" horiz-adv-x="510" d=" M231,768 L223,776 L338,862 L346,862 L461,776 L454,768 L342,846 M343,691 Q395,691 431,676 Q467,661 500,633 L493,622 Q459,650 425.5,663.5 Q392,677 344,677 Q232,677 164,592 Q96,507 96,340 Q96,179 163.5,92 Q231,5 342,5 Q395,5 431.5,20.5 Q468,36 500,63 L509,52 Q437,-9 341,-9 Q224,-9 152.5,82.5 Q81,174 81,340 Q81,427 100.5,494.5 Q120,562 155.5,604.5 Q191,647 238.5,669 Q286,691 343,691"/> 
            <glyph glyph-name="ĉ" unicode="&#x109;" horiz-adv-x="420" d=" M167,656 L159,664 L275,755 L283,755 L397,664 L390,656 L279,740 M283,528 Q359,528 415,478 L406,469 Q356,515 283,515 Q195,515 143,447 Q91,379 91,256 Q91,137 144,70.5 Q197,4 282,4 Q356,4 411,54 L420,44 Q361,-9 283,-9 Q190,-9 133,61 Q76,131 76,256 Q76,383 131.5,455.5 Q187,528 283,528"/> 
            <glyph glyph-name="Ċ" unicode="&#x10A;" horiz-adv-x="510" d=" M343,843 Q347,843 350.5,841 Q354,839 355.5,835.5 Q357,832 357,829 Q357,826 356,823.5 Q355,821 353.5,819 Q352,817 349,815.5 Q346,814 343,814 Q336,814 332,818.5 Q328,823 328,828.5 Q328,834 332,838.5 Q336,843 343,843 M343,691 Q395,691 431,676 Q467,661 500,633 L493,622 Q459,650 425.5,663.5 Q392,677 344,677 Q232,677 164,592 Q96,507 96,340 Q96,179 163.5,92 Q231,5 342,5 Q395,5 431.5,20.5 Q468,36 500,63 L509,52 Q437,-9 341,-9 Q224,-9 152.5,82.5 Q81,174 81,340 Q81,427 100.5,494.5 Q120,562 155.5,604.5 Q191,647 238.5,669 Q286,691 343,691"/> 
            <glyph glyph-name="ċ" unicode="&#x10B;" horiz-adv-x="420" d=" M278,717 Q283,717 286.5,715 Q290,713 291.5,709.5 Q293,706 293,703 Q293,700 292,697.5 Q291,695 289.5,693 Q288,691 285,689.5 Q282,688 278,688 Q274,688 270.5,690 Q267,692 265.5,695.5 Q264,699 264,703 Q264,708 268,712.5 Q272,717 278,717 M283,528 Q359,528 415,478 L406,469 Q356,515 283,515 Q195,515 143,447 Q91,379 91,256 Q91,137 144,70.5 Q197,4 282,4 Q356,4 411,54 L420,44 Q361,-9 283,-9 Q190,-9 133,61 Q76,131 76,256 Q76,383 131.5,455.5 Q187,528 283,528"/> 
            <glyph glyph-name="Č" unicode="&#x10C;" horiz-adv-x="509" d=" M454,856 L461,847 L346,762 L338,762 L223,847 L231,856 L342,777 M343,691 Q395,691 431,676 Q467,661 500,633 L493,622 Q459,650 425.5,663.5 Q392,677 344,677 Q232,677 164,592 Q96,507 96,340 Q96,179 163.5,92 Q231,5 342,5 Q395,5 431.5,20.5 Q468,36 500,63 L509,52 Q437,-9 341,-9 Q224,-9 152.5,82.5 Q81,174 81,340 Q81,427 100.5,494.5 Q120,562 155.5,604.5 Q191,647 238.5,669 Q286,691 343,691"/> 
            <glyph glyph-name="č" unicode="&#x10D;" horiz-adv-x="420" d=" M390,743 L398,735 L282,644 L274,644 L160,735 L167,743 L278,659 M283,528 Q359,528 415,478 L406,469 Q356,515 283,515 Q195,515 143,447 Q91,379 91,256 Q91,137 144,70.5 Q197,4 282,4 Q356,4 411,54 L420,44 Q361,-9 283,-9 Q190,-9 133,61 Q76,131 76,256 Q76,383 131.5,455.5 Q187,528 283,528"/> 
            <glyph glyph-name="Ď" unicode="&#x10E;" horiz-adv-x="537" d=" M404,856 L411,847 L296,762 L288,762 L173,847 L181,856 L292,777 M240,681 Q288,681 327.5,673.5 Q367,666 407,644 Q447,622 474.5,586 Q502,550 519,489.5 Q536,429 536,348 Q536,280 524.5,224.5 Q513,169 491,132 Q469,95 442,68.5 Q415,42 381.5,27.5 Q348,13 315,6.5 Q282,0 246,0 L126,0 L126,681 M239,667 L140,667 L140,14 L246,14 Q289,14 326.5,22.5 Q364,31 400.5,54 Q437,77 463,113.5 Q489,150 505,210 Q521,270 521,348 Q521,427 504.5,485.5 Q488,544 462,578 Q436,612 397.5,633 Q359,654 321.5,660.5 Q284,667 239,667"/> 
            <glyph glyph-name="ď" unicode="&#x10F;" horiz-adv-x="565" d=" M439,437 L439,733 L453,732 L453,0 L440,0 L439,94 Q382,-9 273,-9 Q184,-9 132.5,61.5 Q81,132 81,257 Q81,379 134.5,453.5 Q188,528 281,528 Q385,528 439,437 M549,733 L564,731 L541,590 L530,591 M273,4 Q332,4 371,32.5 Q410,61 439,116 L439,419 Q383,515 281,515 Q196,515 145.5,445 Q95,375 95,257 Q95,138 143,71 Q191,4 273,4"/> 
            <glyph glyph-name="Đ" unicode="&#x110;" horiz-adv-x="533" d=" M237,681 Q284,681 323.5,673.5 Q363,666 403,644 Q443,622 470.5,586 Q498,550 515,489.5 Q532,429 532,348 Q532,280 520.5,224.5 Q509,169 487.5,132 Q466,95 439,68.5 Q412,42 378,27.5 Q344,13 311,6.5 Q278,0 242,0 L122,0 L122,346 L28,346 L28,360 L122,360 L122,681 M242,14 Q285,14 322.5,22.5 Q360,31 397,54 Q434,77 459.5,113.5 Q485,150 501,210 Q517,270 517,348 Q517,427 500.5,485.5 Q484,544 458,578 Q432,612 393.5,633 Q355,654 318,660.5 Q281,667 235,667 L136,667 L136,360 L330,360 L330,346 L136,346 L136,14"/> 
            <glyph glyph-name="đ" unicode="&#x111;" horiz-adv-x="528" d=" M453,645 L528,645 L528,632 L453,632 L453,0 L440,0 L439,94 Q382,-9 273,-9 Q184,-9 132.5,61.5 Q81,132 81,257 Q81,379 134.5,453.5 Q188,528 281,528 Q385,528 439,437 L439,632 L263,632 L263,645 L439,645 L439,733 L453,732 M273,4 Q332,4 371,32.5 Q410,61 439,116 L439,419 Q383,515 281,515 Q196,515 145.5,445 Q95,375 95,257 Q95,138 143,71 Q191,4 273,4"/> 
            <glyph glyph-name="Ē" unicode="&#x112;" horiz-adv-x="449" d=" M386,812 L186,812 L186,826 L386,826 M440,681 L438,667 L140,667 L140,367 L397,367 L397,354 L140,354 L140,14 L448,14 L448,0 L126,0 L126,681"/> 
            <glyph glyph-name="ē" unicode="&#x113;" horiz-adv-x="458" d=" M375,700 L375,686 L175,686 L175,700 M458,286 Q458,266 456,249 L90,249 Q92,130 143,67 Q194,4 279,4 Q324,4 358,18 Q392,32 428,61 L436,51 Q399,20 362.5,5.5 Q326,-9 279,-9 Q185,-9 130.5,60.5 Q76,130 76,254 Q76,382 129.5,455 Q183,528 274,528 Q365,528 411.5,462 Q458,396 458,286 M443,261 Q444,271 444,291 Q444,392 401.5,453.5 Q359,515 275,515 Q192,515 142,449 Q92,383 90,261"/> 
            <glyph glyph-name="Ĕ" unicode="&#x114;" horiz-adv-x="449" d=" M286,772 Q258,772 236,782.5 Q214,793 201,808.5 Q188,824 182,842 L193,844 Q199,827 211.5,814 Q224,801 243.5,793.5 Q263,786 286,786 Q320,786 344.5,802 Q369,818 378,844 L389,842 Q385,828 376.5,816 Q368,804 355,794 Q342,784 324,778 Q306,772 286,772 M440,681 L438,667 L140,667 L140,367 L397,367 L397,354 L140,354 L140,14 L448,14 L448,0 L126,0 L126,681"/> 
            <glyph glyph-name="ĕ" unicode="&#x115;" horiz-adv-x="458" d=" M275,664 Q247,664 225,674.5 Q203,685 190,703 Q177,721 172,744 L182,746 Q202,677 275,677 Q348,677 368,746 L378,744 Q370,708 343,686 Q316,664 275,664 M458,286 Q458,266 456,249 L90,249 Q92,130 143,67 Q194,4 279,4 Q324,4 358,18 Q392,32 428,61 L436,51 Q399,20 362.5,5.5 Q326,-9 279,-9 Q185,-9 130.5,60.5 Q76,130 76,254 Q76,382 129.5,455 Q183,528 274,528 Q365,528 411.5,462 Q458,396 458,286 M443,261 Q444,271 444,291 Q444,392 401.5,453.5 Q359,515 275,515 Q192,515 142,449 Q92,383 90,261"/> 
            <glyph glyph-name="Ė" unicode="&#x116;" horiz-adv-x="449" d=" M286,843 Q290,843 293.5,841 Q297,839 298.5,835.5 Q300,832 300,829 Q300,826 299,823.5 Q298,821 296.5,819 Q295,817 292,815.5 Q289,814 286,814 Q279,814 275,818.5 Q271,823 271,828.5 Q271,834 275,838.5 Q279,843 286,843 M440,681 L438,667 L140,667 L140,367 L397,367 L397,354 L140,354 L140,14 L448,14 L448,0 L126,0 L126,681"/> 
            <glyph glyph-name="ė" unicode="&#x117;" horiz-adv-x="458" d=" M275,688 Q269,688 265,692.5 Q261,697 261,702.5 Q261,708 265,712.5 Q269,717 275,717 Q280,717 283.5,715 Q287,713 288.5,709.5 Q290,706 290,703 Q290,700 289,697.5 Q288,695 286,693 Q284,691 281.5,689.5 Q279,688 275,688 M458,286 Q458,266 456,249 L90,249 Q92,130 143,67 Q194,4 279,4 Q324,4 358,18 Q392,32 428,61 L436,51 Q399,20 362.5,5.5 Q326,-9 279,-9 Q185,-9 130.5,60.5 Q76,130 76,254 Q76,382 129.5,455 Q183,528 274,528 Q365,528 411.5,462 Q458,396 458,286 M443,261 Q444,271 444,291 Q444,392 401.5,453.5 Q359,515 275,515 Q192,515 142,449 Q92,383 90,261"/> 
            <glyph glyph-name="Ę" unicode="&#x118;" horiz-adv-x="449" d=" M140,14 L448,14 L448,0 L421,0 Q360,-25 326,-53 Q292,-81 292,-123 Q292,-152 310.5,-168.5 Q329,-185 364,-185 Q388,-185 418,-178 L417,-192 Q387,-199 363,-199 Q321,-199 298.5,-178.5 Q276,-158 276,-123 Q276,-82 307.5,-53 Q339,-24 395,0 L126,0 L126,681 L440,681 L438,667 L140,667 L140,367 L397,367 L397,354 L140,354"/> 
            <glyph glyph-name="ę" unicode="&#x119;" horiz-adv-x="458" d=" M458,286 Q458,266 456,249 L90,249 Q92,130 143,67 Q194,4 279,4 Q324,4 358,18 Q392,32 428,61 L436,51 Q393,15 352,2 Q295,-22 262.5,-49.5 Q230,-77 230,-116 Q230,-147 249.5,-164 Q269,-181 303,-181 Q326,-181 356,-174 L355,-188 Q325,-195 301,-195 Q260,-195 237,-174 Q214,-153 214,-116 Q214,-52 310,-8 Q295,-9 279,-9 Q185,-9 130.5,60.5 Q76,130 76,254 Q76,382 129.5,455 Q183,528 274,528 Q365,528 411.5,462 Q458,396 458,286 M443,261 Q444,271 444,291 Q444,392 401.5,453.5 Q359,515 275,515 Q192,515 142,449 Q92,383 90,261"/> 
            <glyph glyph-name="Ě" unicode="&#x11A;" horiz-adv-x="449" d=" M397,856 L405,847 L289,762 L281,762 L166,847 L174,856 L285,777 M440,681 L438,667 L140,667 L140,367 L397,367 L397,354 L140,354 L140,14 L448,14 L448,0 L126,0 L126,681"/> 
            <glyph glyph-name="ě" unicode="&#x11B;" horiz-adv-x="458" d=" M279,644 L271,644 L156,735 L164,743 L275,659 L387,743 L395,735 M458,286 Q458,266 456,249 L90,249 Q92,130 143,67 Q194,4 279,4 Q324,4 358,18 Q392,32 428,61 L436,51 Q399,20 362.5,5.5 Q326,-9 279,-9 Q185,-9 130.5,60.5 Q76,130 76,254 Q76,382 129.5,455 Q183,528 274,528 Q365,528 411.5,462 Q458,396 458,286 M443,261 Q444,271 444,291 Q444,392 401.5,453.5 Q359,515 275,515 Q192,515 142,449 Q92,383 90,261"/> 
            <glyph glyph-name="Ĝ" unicode="&#x11C;" horiz-adv-x="528" d=" M230,768 L223,776 L338,862 L346,862 L461,776 L453,768 L342,846 M346,691 Q434,691 510,633 L501,623 Q430,677 346,677 Q315,677 285,668.5 Q255,660 227,643 Q199,626 175,598.5 Q151,571 133.5,535 Q116,499 106,450.5 Q96,402 96,345 Q96,180 165,92 Q234,4 353,4 Q438,4 513,48 L513,336 L365,336 L363,349 L527,349 L527,40 Q444,-9 353,-9 Q228,-9 154.5,82.5 Q81,174 81,345 Q81,431 103.5,499 Q126,567 164.5,608 Q203,649 249.5,670 Q296,691 346,691"/> 
            <glyph glyph-name="ĝ" unicode="&#x11D;" horiz-adv-x="468" d=" M133,656 L125,664 L241,755 L249,755 L363,664 L356,656 L245,740 M463,548 L467,533 Q414,517 300,517 Q329,510 351.5,496.5 Q374,483 389.5,462.5 Q405,442 413,415 Q421,388 421,356 Q421,305 399.5,268 Q378,231 338.5,211.5 Q299,192 246,192 Q206,192 168,208 Q114,176 114,129 Q114,61 217,61 L306,61 Q377,61 416.5,28.5 Q456,-4 456,-58 Q456,-124 405,-159.5 Q354,-195 252,-195 Q180,-195 136,-181.5 Q92,-168 70.5,-138.5 Q49,-109 49,-59 L63,-59 Q63,-127 106.5,-154.5 Q150,-182 252,-182 Q441,-182 441,-59 Q441,-26 425,-2 Q409,22 378.5,35 Q348,48 305,48 L217,48 Q160,48 130,69.5 Q100,91 100,127 Q100,177 157,213 Q69,258 69,358 Q69,435 117,481.5 Q165,528 242,528 Q297,528 334.5,529.5 Q372,531 396,534 Q420,537 432,539.5 Q444,542 463,548 M243,516 Q169,516 126.5,472 Q84,428 84,358 Q84,285 131.5,245 Q179,205 246,205 Q321,205 363.5,244.5 Q406,284 406,356 Q406,434 361,475 Q316,516 243,516"/> 
            <glyph glyph-name="Ğ" unicode="&#x11E;" horiz-adv-x="528" d=" M383,772 Q302,772 274.5,792.5 Q247,813 239,842 L249,844 Q256,827 268.5,814 Q281,801 300,793.5 Q319,786 342,786 Q377,786 401,802 Q425,818 435,844 L445,842 Q437,813 383,772 M346,691 Q434,691 510,633 L501,623 Q430,677 346,677 Q308,677 273,665 Q238,653 205.5,627 Q173,601 148.5,563 Q124,525 110,469 Q96,413 96,345 Q96,180 165,92 Q234,4 353,4 Q438,4 513,48 L513,336 L365,336 L363,349 L527,349 L527,40 Q444,-9 353,-9 Q228,-9 154.5,82.5 Q81,174 81,345 Q81,431 103.5,499 Q126,567 164.5,608 Q203,649 249.5,670 Q296,691 346,691"/> 
            <glyph glyph-name="ğ" unicode="&#x11F;" horiz-adv-x="468" d=" M244,664 Q217,664 195,674.5 Q173,685 159.5,703 Q146,721 141,744 L152,746 Q171,677 244.5,677 Q318,677 337,746 L348,744 Q340,708 313,686 Q286,664 244,664 M463,548 L467,533 Q414,517 300,517 Q358,503 389.5,462 Q421,421 421,356 Q421,305 399.5,268 Q378,231 338.5,211.5 Q299,192 246,192 Q206,192 168,208 Q114,176 114,129 Q114,61 217,61 L306,61 Q377,61 416.5,28.5 Q456,-4 456,-58 Q456,-124 405,-159.5 Q354,-195 252,-195 Q180,-195 136,-181.5 Q92,-168 70.5,-138.5 Q49,-109 49,-59 L63,-59 Q63,-127 106.5,-154.5 Q150,-182 252,-182 Q441,-182 441,-59 Q441,-9 405,19.5 Q369,48 305,48 L217,48 Q160,48 130,69.5 Q100,91 100,127 Q100,177 157,213 Q69,258 69,358 Q69,435 117,481.5 Q165,528 242,528 Q314,528 359,531 Q404,534 421,537 Q438,540 463,548 M243,516 Q169,516 126.5,472 Q84,428 84,358 Q84,285 131.5,245 Q179,205 246,205 Q321,205 363.5,244.5 Q406,284 406,356 Q406,434 361,475 Q316,516 243,516"/> 
            <glyph glyph-name="Ġ" unicode="&#x120;" horiz-adv-x="528" d=" M342,843 Q347,843 350.5,841 Q354,839 355.5,835.5 Q357,832 357,829 Q357,826 356,823.5 Q355,821 353,819 Q351,817 348.5,815.5 Q346,814 342,814 Q336,814 332,818.5 Q328,823 328,828.5 Q328,834 332,838.5 Q336,843 342,843 M346,691 Q434,691 510,633 L501,623 Q430,677 346,677 Q308,677 273,665 Q238,653 205.5,627 Q173,601 148.5,563 Q124,525 110,469 Q96,413 96,345 Q96,180 165,92 Q234,4 353,4 Q438,4 513,48 L513,336 L365,336 L363,349 L527,349 L527,40 Q444,-9 353,-9 Q228,-9 154.5,82.5 Q81,174 81,345 Q81,431 103.5,499 Q126,567 164.5,608 Q203,649 249.5,670 Q296,691 346,691"/> 
            <glyph glyph-name="ġ" unicode="&#x121;" horiz-adv-x="468" d=" M240,717 Q249,717 252.5,715 Q256,713 257.5,709.5 Q259,706 259,703 Q259,697 255,692.5 Q251,688 244,688 Q238,688 234,692.5 Q230,697 230,703 Q230,706 231.5,709.5 Q233,713 240,717 M463,548 L467,533 Q414,517 300,517 Q358,503 389.5,462 Q421,421 421,356 Q421,305 399.5,268 Q378,231 338.5,211.5 Q299,192 246,192 Q206,192 168,208 Q114,176 114,129 Q114,61 217,61 L306,61 Q377,61 416.5,28.5 Q456,-4 456,-58 Q456,-124 405,-159.5 Q354,-195 252,-195 Q144,-195 96.5,-164 Q49,-133 49,-59 L63,-59 Q63,-127 106.5,-154.5 Q150,-182 252,-182 Q441,-182 441,-59 Q441,-26 425,-2 Q409,22 378.5,35 Q348,48 305,48 L217,48 Q160,48 130,69.5 Q100,91 100,127 Q100,177 157,213 Q69,258 69,358 Q69,435 117,481.5 Q165,528 242,528 Q314,528 359,531 Q404,534 421,537 Q438,540 463,548 M243,516 Q169,516 126.5,472 Q84,428 84,358 Q84,285 131.5,245 Q179,205 246,205 Q321,205 363.5,244.5 Q406,284 406,356 Q406,434 361,475 Q316,516 243,516"/> 
            <glyph glyph-name="Ģ" unicode="&#x122;" horiz-adv-x="528" d=" M346,691 Q434,691 510,633 L501,623 Q430,677 346,677 Q308,677 273,665 Q238,653 205.5,627 Q173,601 148.5,563 Q124,525 110,469 Q96,413 96,345 Q96,180 165,92 Q234,4 353,4 Q438,4 513,48 L513,336 L365,336 L363,349 L527,349 L527,40 Q444,-9 353,-9 Q228,-9 154.5,82.5 Q81,174 81,345 Q81,431 103.5,499 Q126,567 164.5,608 Q203,649 249.5,670 Q296,691 346,691 M336,-100 Q353,-100 353,-116 Q353,-124 345,-145 L314,-250 L304,-250 L332,-132 Q320,-129 320,-116 Q320,-109 324.5,-104.5 Q329,-100 336,-100"/> 
            <glyph glyph-name="ģ" unicode="&#x123;" horiz-adv-x="468" d=" M237,595 Q220,595 220,611 Q220,619 229,640 L260,745 L270,745 L242,627 Q254,624 254,611 Q254,607 252,603.5 Q250,600 246,597.5 Q242,595 237,595 M463,548 L467,533 Q414,517 300,517 Q358,503 389.5,462 Q421,421 421,356 Q421,279 374,235.5 Q327,192 246,192 Q206,192 168,208 Q114,176 114,129 Q114,61 217,61 L306,61 Q377,61 416.5,28.5 Q456,-4 456,-58 Q456,-124 405,-159.5 Q354,-195 252,-195 Q144,-195 96.5,-164 Q49,-133 49,-59 L63,-59 Q63,-127 106.5,-154.5 Q150,-182 252,-182 Q441,-182 441,-59 Q441,-26 425,-2 Q409,22 378.5,35 Q348,48 305,48 L217,48 Q160,48 130,69.5 Q100,91 100,127 Q100,177 157,213 Q69,258 69,358 Q69,435 117,481.5 Q165,528 242,528 Q314,528 359,531 Q404,534 421,537 Q438,540 463,548 M243,516 Q169,516 126.5,472 Q84,428 84,358 Q84,285 131.5,245 Q179,205 246,205 Q321,205 363.5,244.5 Q406,284 406,356 Q406,434 361,475 Q316,516 243,516"/> 
            <glyph glyph-name="Ĥ" unicode="&#x124;" horiz-adv-x="532" d=" M216,768 L208,776 L323,862 L331,862 L446,776 L439,768 L327,846 M517,0 L517,354 L140,354 L140,0 L126,0 L126,681 L140,681 L140,367 L517,367 L517,681 L532,681 L532,0"/> 
            <glyph glyph-name="ĥ" unicode="&#x125;" horiz-adv-x="466" d=" M294,895 L183,817 L175,825 L290,911 L298,911 L413,825 L406,817 M329,528 Q397,528 431,486.5 Q465,445 465,369 L465,0 L451,0 L451,367 Q451,516 328,516 Q214,516 135,385 L135,0 L121,0 L121,732 L135,734 L135,404 Q212,528 329,528"/> 
            <glyph glyph-name="Ħ" unicode="&#x126;" horiz-adv-x="593" d=" M592,534 L592,523 L536,523 L536,0 L522,0 L522,354 L145,354 L145,0 L130,0 L130,523 L73,523 L73,534 L130,534 L130,681 L145,681 L145,534 L522,534 L522,681 L536,681 L536,534 M522,367 L522,523 L145,523 L145,367"/> 
            <glyph glyph-name="ħ" unicode="&#x127;" horiz-adv-x="471" d=" M334,528 Q380,528 410.5,508.5 Q441,489 455.5,454 Q470,419 470,369 L470,0 L456,0 L456,367 Q456,516 333,516 Q219,516 140,385 L140,0 L126,0 L126,632 L51,632 L51,645 L126,645 L126,732 L140,734 L140,645 L326,645 L326,632 L140,632 L140,404 Q217,528 334,528"/> 
            <glyph glyph-name="Ĩ" unicode="&#x128;" horiz-adv-x="261" d=" M189,807 Q165,807 128,829 Q91,851 74,851 Q57,851 43.5,843 Q30,835 14,816 L4,821 Q38,864 74,864 Q94,864 131,842 Q168,820 189,820 Q202,820 212,824 Q222,828 231,836.5 Q240,845 251,860 L260,854 Q230,807 189,807 M140,681 L140,0 L126,0 L126,681"/> 
            <glyph glyph-name="ĩ" unicode="&#x129;" horiz-adv-x="257" d=" M186,681 Q162,681 125,703 Q88,725 71,725 Q53,725 40,717 Q27,709 10,690 L1,695 Q35,738 71,738 Q91,738 128,716 Q165,694 186,694 Q205,694 218.5,703 Q232,712 248,734 L257,728 Q227,681 186,681 M135,518 L135,0 L121,0 L121,518"/> 
            <glyph glyph-name="Ī" unicode="&#x12A;" horiz-adv-x="233" d=" M233,812 L33,812 L33,826 L233,826 M140,681 L140,0 L126,0 L126,681"/> 
            <glyph glyph-name="ī" unicode="&#x12B;" horiz-adv-x="228" d=" M228,686 L28,686 L28,700 L228,700 M135,518 L135,0 L121,0 L121,518"/> 
            <glyph glyph-name="Ĭ" unicode="&#x12C;" horiz-adv-x="236" d=" M173,772 Q92,772 65,792.5 Q38,813 29,842 L40,844 Q46,827 58.5,814 Q71,801 90.5,793.5 Q110,786 133,786 Q167,786 191.5,802 Q216,818 225,844 L236,842 Q228,813 173,772 M140,681 L140,0 L126,0 L126,681"/> 
            <glyph glyph-name="ĭ" unicode="&#x12D;" horiz-adv-x="231" d=" M169,664 Q86,664 59,686 Q32,708 24,744 L35,746 Q55,677 128,677 Q201,677 220,746 L231,744 Q223,708 169,664 M135,518 L135,0 L121,0 L121,518"/> 
            <glyph glyph-name="Į" unicode="&#x12E;" horiz-adv-x="141" d=" M140,0 Q80,-25 45.5,-53 Q11,-81 11,-123 Q11,-152 30,-168.5 Q49,-185 83,-185 Q107,-185 137,-178 L136,-192 Q107,-199 83,-199 Q41,-199 18.5,-178.5 Q-4,-158 -4,-123 Q-4,-80 30.5,-50 Q65,-20 126,5 L126,681 L140,681"/> 
            <glyph glyph-name="į" unicode="&#x12F;" horiz-adv-x="143" d=" M128,717 Q132,717 135.5,715 Q139,713 140.5,709.5 Q142,706 142,703 Q142,697 138.5,692.5 Q135,688 128,688 Q121,688 117,692.5 Q113,697 113,702.5 Q113,708 117,712.5 Q121,717 128,717 M121,5 L121,518 L135,518 L135,0 Q74,-25 40,-53 Q6,-81 6,-123 Q6,-152 24.5,-168.5 Q43,-185 78,-185 Q102,-185 132,-178 L131,-192 Q101,-199 77,-199 Q35,-199 12.5,-178.5 Q-10,-158 -10,-123 Q-10,-80 25,-50 Q60,-20 121,5"/> 
            <glyph glyph-name="İ" unicode="&#x130;" horiz-adv-x="148" d=" M133,843 Q137,843 140.5,841 Q144,839 145.5,835.5 Q147,832 147,829 Q147,823 143.5,818.5 Q140,814 133,814 Q126,814 122,818.5 Q118,823 118,828.5 Q118,834 122,838.5 Q126,843 133,843 M140,681 L140,0 L126,0 L126,681"/> 
            <glyph glyph-name="ı" unicode="&#x131;" horiz-adv-x="135" d=" M135,518 L135,0 L121,0 L121,518"/> 
            <glyph glyph-name="Ĳ" unicode="&#x132;" horiz-adv-x="423" d=" M140,681 L140,0 L126,0 L126,681 M422,681 L422,86 Q422,11 397.5,-26.5 Q373,-64 296,-97 L292,-86 Q362,-55 385,-19.5 Q408,16 408,87 L408,681"/> 
            <glyph glyph-name="ĳ" unicode="&#x133;" horiz-adv-x="398" d=" M128,717 Q132,717 135.5,715 Q139,713 140.5,709.5 Q142,706 142,703 Q142,697 138.5,692.5 Q135,688 128,688 Q121,688 117,692.5 Q113,697 113,702.5 Q113,708 117,712.5 Q121,717 128,717 M383,717 Q388,717 391.5,715 Q395,713 396.5,709.5 Q398,706 398,703 Q398,700 397,697.5 Q396,695 394,693 Q392,691 389.5,689.5 Q387,688 383,688 Q379,688 375.5,690 Q372,692 370.5,695.5 Q369,699 369,703 Q369,708 373,712.5 Q377,717 383,717 M135,518 L135,0 L121,0 L121,518 M391,518 L391,4 Q391,-57 378.5,-94.5 Q366,-132 345,-152 Q324,-172 284,-193 L280,-183 Q317,-163 336,-143.5 Q355,-124 366,-88.5 Q377,-53 377,4 L377,518"/> 
            <glyph glyph-name="Ĵ" unicode="&#x134;" horiz-adv-x="268" d=" M37,768 L29,776 L144,862 L152,862 L268,776 L260,768 L148,846 M156,681 L156,86 Q156,11 131.5,-26.5 Q107,-64 30,-97 L26,-86 Q96,-55 119,-19.5 Q142,16 142,87 L142,681"/> 
            <glyph glyph-name="ĵ" unicode="&#x135;" horiz-adv-x="247" d=" M16,656 L8,664 L124,755 L132,755 L247,664 L239,656 L128,740 M135,518 L135,4 Q135,-57 123,-94.5 Q111,-132 90,-152 Q69,-172 29,-193 L24,-183 Q61,-163 80.5,-143.5 Q100,-124 110.5,-88.5 Q121,-53 121,4 L121,518"/> 
            <glyph glyph-name="Ķ" unicode="&#x136;" horiz-adv-x="500" d=" M140,681 L140,1 L126,1 L126,681 M483,681 L162,366 L499,0 L481,0 L143,366 L466,681 M290,-100 Q307,-100 307,-116 Q307,-124 298,-145 L267,-250 L257,-250 L285,-132 Q273,-129 273,-116 Q273,-112 275,-108 Q277,-104 281,-102 Q285,-100 290,-100"/> 
            <glyph glyph-name="ķ" unicode="&#x137;" horiz-adv-x="437" d=" M135,733 L135,0 L121,0 L121,732 M411,518 L159,284 L436,0 L419,0 L141,283 L393,518 M268,-100 Q285,-100 285,-116 Q285,-124 276,-145 L245,-250 L236,-250 L264,-132 Q252,-129 252,-116 Q252,-109 256.5,-104.5 Q261,-100 268,-100"/> 
            <glyph glyph-name="ĸ" unicode="&#x138;" horiz-adv-x="436" d=" M135,518 L135,0 L121,0 L121,518 M409,518 L158,274 L435,0 L418,0 L140,273 L391,518"/> 
            <glyph glyph-name="Ĺ" unicode="&#x139;" horiz-adv-x="429" d=" M214,854 L221,839 L47,767 L42,777 M140,681 L140,14 L429,14 L426,0 L126,0 L126,681"/> 
            <glyph glyph-name="ĺ" unicode="&#x13A;" horiz-adv-x="228" d=" M203,904 L210,890 L36,818 L32,828 M183,-9 Q151,-9 133.5,11 Q116,31 116,69 L116,732 L130,733 L130,69 Q130,4 183,4 Q204,4 223,12 L227,0 Q206,-9 183,-9"/> 
            <glyph glyph-name="Ļ" unicode="&#x13B;" horiz-adv-x="429" d=" M140,681 L140,14 L429,14 L426,0 L126,0 L126,681 M276,-100 Q293,-100 293,-116 Q293,-124 285,-145 L254,-250 L244,-250 L272,-132 Q260,-129 260,-116 Q260,-109 264.5,-104.5 Q269,-100 276,-100"/> 
            <glyph glyph-name="ļ" unicode="&#x13C;" horiz-adv-x="228" d=" M183,-9 Q151,-9 133.5,11 Q116,31 116,69 L116,732 L130,733 L130,69 Q130,4 183,4 Q204,4 223,12 L227,0 Q206,-9 183,-9 M176,-100 Q193,-100 193,-116 Q193,-124 184,-145 L153,-250 L143,-250 L171,-132 Q159,-129 159,-116 Q159,-109 163.5,-104.5 Q168,-100 176,-100"/> 
            <glyph glyph-name="Ľ" unicode="&#x13D;" horiz-adv-x="429" d=" M228,541 L252,682 L237,684 L218,542 M140,681 L140,14 L429,14 L426,0 L126,0 L126,681"/> 
            <glyph glyph-name="ľ" unicode="&#x13E;" horiz-adv-x="248" d=" M183,-9 Q151,-9 133.5,11 Q116,31 116,69 L116,732 L130,733 L130,69 Q130,4 183,4 Q204,4 223,12 L227,0 Q206,-9 183,-9 M223,590 L247,731 L232,733 L213,591"/> 
            <glyph glyph-name="Ŀ" unicode="&#x13F;" horiz-adv-x="429" d=" M140,681 L140,14 L429,14 L426,0 L126,0 L126,681 M351,369 Q358,369 361.5,364.5 Q365,360 365,354.5 Q365,349 361.5,344.5 Q358,340 351,340 Q348,340 345,341.5 Q342,343 340,345 Q338,347 337,349.5 Q336,352 336,355 Q336,360 340,364.5 Q344,369 351,369"/> 
            <glyph glyph-name="ŀ" unicode="&#x140;" horiz-adv-x="274" d=" M183,-9 Q151,-9 133.5,11 Q116,31 116,69 L116,732 L130,733 L130,69 Q130,4 183,4 Q204,4 223,12 L227,0 Q206,-9 183,-9 M259,389 Q265,389 269,385 Q273,381 273,375 Q273,369 269,365 Q265,361 259,361 Q254,361 250.5,363 Q247,365 245.5,368 Q244,371 244,375 Q244,381 248,385 Q252,389 259,389"/> 
            <glyph glyph-name="Ł" unicode="&#x141;" horiz-adv-x="433" d=" M144,14 L432,14 L430,0 L129,0 L129,315 L54,268 L48,278 L129,329 L129,681 L144,681 L144,338 L347,464 L353,454 L144,324"/> 
            <glyph glyph-name="ł" unicode="&#x142;" horiz-adv-x="250" d=" M190,4 Q211,4 230,12 L234,0 Q212,-9 189,-9 Q157,-9 139.5,11 Q122,31 122,69 L122,352 L55,310 L49,320 L122,366 L122,732 L136,733 L136,375 L243,442 L249,431 L136,361 L136,69 Q136,4 190,4"/> 
            <glyph glyph-name="Ń" unicode="&#x143;" horiz-adv-x="533" d=" M415,854 L422,839 L248,767 L244,777 M533,681 L533,0 L515,0 L138,665 Q140,625 140,516 L140,0 L126,0 L126,681 L144,681 L520,16 Q519,98 519,177 L519,681"/> 
            <glyph glyph-name="ń" unicode="&#x144;" horiz-adv-x="466" d=" M378,740 L204,657 L199,667 L371,755 M329,528 Q465,528 465,369 L465,0 L451,0 L451,367 Q451,516 328,516 Q214,516 135,385 L135,0 L121,0 L121,518 L133,518 L135,404 Q212,528 329,528"/> 
            <glyph glyph-name="Ņ" unicode="&#x145;" horiz-adv-x="533" d=" M533,681 L533,0 L515,0 L138,665 Q140,625 140,516 L140,0 L126,0 L126,681 L144,681 L520,16 Q519,98 519,177 L519,681 M324,-100 Q341,-100 341,-116 Q341,-124 333,-145 L302,-250 L292,-250 L320,-132 Q308,-129 308,-116 Q308,-109 312.5,-104.5 Q317,-100 324,-100"/> 
            <glyph glyph-name="ņ" unicode="&#x146;" horiz-adv-x="466" d=" M329,528 Q465,528 465,369 L465,0 L451,0 L451,367 Q451,516 328,516 Q214,516 135,385 L135,0 L121,0 L121,518 L133,518 L135,404 Q212,528 329,528 M287,-100 Q304,-100 304,-116 Q304,-124 296,-145 L265,-250 L255,-250 L283,-132 Q271,-129 271,-116 Q271,-109 275.5,-104.5 Q280,-100 287,-100"/> 
            <glyph glyph-name="Ň" unicode="&#x147;" horiz-adv-x="533" d=" M446,856 L453,847 L338,762 L330,762 L215,847 L223,856 L334,777 M533,681 L533,0 L515,0 L138,665 Q140,625 140,516 L140,0 L126,0 L126,681 L144,681 L520,16 Q519,98 519,177 L519,681"/> 
            <glyph glyph-name="ň" unicode="&#x148;" horiz-adv-x="466" d=" M300,644 L292,644 L177,735 L185,743 L296,659 L408,743 L415,735 M329,528 Q465,528 465,369 L465,0 L451,0 L451,367 Q451,516 328,516 Q214,516 135,385 L135,0 L121,0 L121,518 L133,518 L135,404 Q212,528 329,528"/> 
            <glyph glyph-name="ŉ" unicode="&#x149;" horiz-adv-x="522" d=" M94,735 Q111,735 111,719 Q111,716 102,690 L74,583 L65,583 L89,703 Q77,706 77,719 Q77,726 81.5,730.5 Q86,735 94,735 M385,528 Q521,528 521,369 L521,0 L507,0 L507,367 Q507,516 384,516 Q271,516 191,385 L191,0 L177,0 L177,518 L189,518 L191,404 Q268,528 385,528"/> 
            <glyph glyph-name="Ŋ" unicode="&#x14A;" horiz-adv-x="533" d=" M519,681 L533,681 L533,-91 Q533,-141 507.5,-168 Q482,-195 440,-195 Q393,-195 356,-166 L363,-156 Q397,-182 440,-182 Q475,-182 496.5,-159 Q518,-136 518,-90 L518,0 L515,0 L138,665 Q140,625 140,516 L140,0 L126,0 L126,681 L144,681 L520,16 Q519,98 519,177"/> 
            <glyph glyph-name="ŋ" unicode="&#x14B;" horiz-adv-x="466" d=" M329,528 Q465,528 465,369 L465,-91 Q465,-141 440,-168 Q415,-195 373,-195 Q325,-195 288,-166 L295,-156 Q329,-182 373,-182 Q408,-182 429.5,-159 Q451,-136 451,-90 L451,367 Q451,516 328,516 Q214,516 135,385 L135,0 L121,0 L121,518 L133,518 L135,404 Q212,528 329,528"/> 
            <glyph glyph-name="Ō" unicode="&#x14C;" horiz-adv-x="608" d=" M445,812 L244,812 L244,826 L445,826 M344,691 Q466,691 537,599.5 Q608,508 608,340 Q608,174 538.5,82.5 Q469,-9 344,-9 Q223,-9 152,82.5 Q81,174 81,338.5 Q81,503 153,597 Q225,691 344,691 M344,677 Q231,677 163.5,587.5 Q96,498 96,338 Q96,180 163,92 Q230,4 344,4 Q463,4 528,91.5 Q593,179 593,340 Q593,502 526.5,589.5 Q460,677 344,677"/> 
            <glyph glyph-name="ō" unicode="&#x14D;" horiz-adv-x="485" d=" M381,686 L180,686 L180,700 L381,700 M281,528 Q376,528 430,458 Q484,388 484,262 Q484,134 429,62.5 Q374,-9 279,-9 Q184,-9 130,62 Q76,133 76,258 Q76,386 131.5,457 Q187,528 281,528 M281,515 Q193,515 141.5,448 Q90,381 90,258 Q90,138 140.5,71 Q191,4 279.5,4 Q368,4 419,71.5 Q470,139 470,262 Q470,382 419.5,448.5 Q369,515 281,515"/> 
            <glyph glyph-name="Ŏ" unicode="&#x14E;" horiz-adv-x="608" d=" M385,772 Q304,772 276.5,792.5 Q249,813 241,842 L252,844 Q261,818 285.5,802 Q310,786 344.5,786 Q379,786 403,802 Q427,818 437,844 L448,842 Q439,813 385,772 M344,691 Q466,691 537,599.5 Q608,508 608,340 Q608,174 538.5,82.5 Q469,-9 344,-9 Q223,-9 152,82.5 Q81,174 81,338.5 Q81,503 153,597 Q225,691 344,691 M344,677 Q231,677 163.5,587.5 Q96,498 96,338 Q96,180 163,92 Q230,4 344,4 Q463,4 528,91.5 Q593,179 593,340 Q593,502 526.5,589.5 Q460,677 344,677"/> 
            <glyph glyph-name="ŏ" unicode="&#x14F;" horiz-adv-x="485" d=" M280,664 Q253,664 231,674.5 Q209,685 195.5,703 Q182,721 177,744 L188,746 Q207,677 280.5,677 Q354,677 373,746 L384,744 Q376,708 349,686 Q322,664 280,664 M281,528 Q328,528 365.5,510.5 Q403,493 429.5,459 Q456,425 470,375 Q484,325 484,262 Q484,134 429,62.5 Q374,-9 279,-9 Q184,-9 130,62 Q76,133 76,258 Q76,386 131.5,457 Q187,528 281,528 M281,515 Q193,515 141.5,448 Q90,381 90,258 Q90,138 140.5,71 Q191,4 279.5,4 Q368,4 419,71.5 Q470,139 470,262 Q470,382 419.5,448.5 Q369,515 281,515"/> 
            <glyph glyph-name="Ő" unicode="&#x150;" horiz-adv-x="608" d=" M453,915 L467,907 L394,782 L384,787 M344,913 L359,905 L292,785 L281,790 M344,691 Q466,691 537,599.5 Q608,508 608,340 Q608,174 538.5,82.5 Q469,-9 344,-9 Q223,-9 152,82.5 Q81,174 81,338.5 Q81,503 153,597 Q225,691 344,691 M344,677 Q231,677 163.5,587.5 Q96,498 96,338 Q96,180 163,92 Q230,4 344,4 Q463,4 528,91.5 Q593,179 593,340 Q593,502 526.5,589.5 Q460,677 344,677"/> 
            </font>
</defs>
</svg>
