<?xml version="1.0" standalone="no"?>
<!DOCTYPE svg PUBLIC "-//W3C//DTD SVG 1.1//EN" "http://www.w3.org/Graphics/SVG/1.1/DTD/svg11.dtd" >
<svg xmlns="http://www.w3.org/2000/svg">
    <defs>
        <font id="FiraSans-Italic">
            <font-face font-family="FiraSans-Italic"
                       units-per-em="1000"
                       ascent="935"
                       descent="-265"
                       bbox="-775 -353 1417 1097"
                    />
            <missing-glyph horiz-adv-x="0" />
            
            <glyph glyph-name="!" unicode="&#x21;" horiz-adv-x="227" d=" M71,230 L126,689 L227,689 L152,230 M85,-12 Q58,-12 40.5,6 Q23,24 23,51 Q23,83 44.5,105 Q66,127 97,127 Q125,127 142.5,109 Q160,91 160,64 Q160,32 138,10 Q116,-12 85,-12"/> 
            <glyph glyph-name="&quot;" unicode="&#x22;" horiz-adv-x="396" d=" M95,427 L118,689 L216,689 L164,427 M275,427 L298,689 L396,689 L344,427"/> 
            <glyph glyph-name="#" unicode="&#x23;" horiz-adv-x="534" d=" M524,447 L448,447 L390,232 L457,232 L447,163 L371,163 L327,0 L249,0 L293,163 L141,163 L97,0 L20,0 L64,163 L0,163 L10,232 L83,232 L141,447 L77,447 L87,517 L160,517 L201,669 L279,669 L238,517 L390,517 L431,669 L508,669 L467,517 L534,517 M312,232 L371,447 L219,447 L160,232"/> 
            <glyph glyph-name="$" unicode="&#x24;" horiz-adv-x="511" d=" M303,387 Q384,361 430.5,318 Q477,275 477,201 Q477,121 422.5,61.5 Q368,2 261,-10 L241,-155 L162,-155 L182,-11 Q67,-1 -1,77 L57,131 Q118,64 224,64 Q291,64 336.5,96.5 Q382,129 382,195 Q382,236 354.5,263 Q327,290 258,314 Q171,344 127.5,386.5 Q84,429 84,494 Q84,575 137,624 Q190,673 279,679 L300,824 L379,824 L358,676 Q445,662 511,600 L456,546 Q390,604 303,604 Q177,604 177,500 Q177,460 204,435 Q231,410 303,387"/> 
            <glyph glyph-name="%" unicode="&#x25;" horiz-adv-x="761" d=" M670,711 L114,11 L173,-31 L729,669 M221,341 Q158,341 118.5,380.5 Q79,420 79,484 Q79,557 125,618 Q171,679 260,679 Q324,679 363.5,640 Q403,601 403,539 Q403,506 393,473.5 Q383,441 363,410 Q343,379 306,360 Q269,341 221,341 M222,403 Q252,403 273.5,418 Q295,433 305,456.5 Q315,480 319,500 Q323,520 323,539 Q323,617 260,617 Q221,617 196.5,591.5 Q172,566 165,538.5 Q158,511 158,484 Q158,403 222,403 M579,-12 Q516,-12 476.5,27.5 Q437,67 437,131 Q437,204 483,265 Q529,326 618,326 Q682,326 721.5,287 Q761,248 761,186 Q761,153 751,120.5 Q741,88 721,57 Q701,26 664,7 Q627,-12 579,-12 M580,50 Q610,50 631.5,65 Q653,80 663,103.5 Q673,127 677,147 Q681,167 681,186 Q681,264 618,264 Q579,264 554.5,238.5 Q530,213 523,185.5 Q516,158 516,131 Q516,50 580,50"/> 
            <glyph glyph-name="&amp;" unicode="&#x26;" horiz-adv-x="666" d=" M347,701 Q425,701 473.5,660.5 Q522,620 522,557 Q522,523 509,495 Q496,467 469,443.5 Q442,420 417.5,404.5 Q393,389 353,367 L505,200 Q556,280 584,355 L666,325 Q617,223 557,144 L652,40 L582,-12 L499,82 Q402,-12 273,-12 Q182,-12 129,37.5 Q76,87 76,162 Q76,227 109.5,277 Q143,327 232,380 Q157,465 157,534 Q157,605 207.5,653 Q258,701 347,701 M347,633 Q299,633 272.5,606 Q246,579 246,534 Q246,477 303,417 Q369,454 401,484.5 Q433,515 433,557 Q433,592 409.5,612.5 Q386,633 347,633 M278,326 Q232,299 206.5,269 Q181,239 175,216.5 Q169,194 169,164 Q169,116 198.5,88.5 Q228,61 281,61 Q369,61 450,136"/> 
            <glyph glyph-name="'" unicode="&#x27;" horiz-adv-x="216" d=" M95,427 L118,689 L216,689 L164,427"/> 
            <glyph glyph-name="(" unicode="&#x28;" horiz-adv-x="357" d=" M303,847 L357,803 Q240,659 187.5,528 Q135,397 135,229 Q135,129 157.5,54.5 Q180,-20 227,-109 L167,-143 Q124,-69 103.5,-28 Q83,13 62.5,87.5 Q42,162 42,240 Q42,336 58.5,416 Q75,496 112,570 Q149,644 191.5,704.5 Q234,765 303,847"/> 
            <glyph glyph-name=")" unicode="&#x29;" horiz-adv-x="300" d=" M175,843 Q218,769 238.5,728 Q259,687 279.5,612.5 Q300,538 300,460 Q300,364 283.5,284 Q267,204 230,130 Q193,56 150.5,-4.5 Q108,-65 39,-147 L-15,-103 Q102,41 155,173 Q208,305 208,473 Q208,572 185,646 Q162,720 115,809"/> 
            <glyph glyph-name="*" unicode="&#x2A;" horiz-adv-x="456" d=" M456,561 L299,527 L386,412 L309,359 L249,492 L153,359 L88,411 L207,528 L60,561 L96,641 L231,581 L237,739 L330,739 L292,582 L438,644"/> 
            <glyph glyph-name="+" unicode="&#x2B;" horiz-adv-x="447" d=" M324,519 L303,369 L447,369 L436,293 L292,293 L271,144 L187,144 L208,293 L65,293 L76,369 L219,369 L240,519"/> 
            <glyph glyph-name="," unicode="&#x2C;" horiz-adv-x="161" d=" M98,127 Q125,127 143,109 Q161,91 161,64 Q161,32 135,-15 L47,-166 L-20,-166 L45,2 Q24,20 24,51 Q24,82 45.5,104.5 Q67,127 98,127"/> 
            <glyph glyph-name="-" unicode="&#x2D;" horiz-adv-x="351" d=" M59,274 L70,352 L351,352 L340,274"/> 
            <glyph glyph-name="." unicode="&#x2E;" horiz-adv-x="160" d=" M85,-12 Q58,-12 40.5,6 Q23,24 23,51 Q23,83 44.5,105 Q66,127 97,127 Q125,127 142.5,109 Q160,91 160,64 Q160,32 138,10 Q116,-12 85,-12"/> 
            <glyph glyph-name="/" unicode="&#x2F;" horiz-adv-x="485" d=" M408,809 L485,789 L130,-104 L53,-83"/> 
            <glyph glyph-name="0" unicode="&#x30;" horiz-adv-x="515" d=" M333,679 Q272,679 223,649.5 Q174,620 143.5,573.5 Q113,527 92.5,466 Q72,405 64,346 Q56,287 56,229 Q56,112 102.5,50 Q149,-12 238,-12 Q299,-12 348,17.5 Q397,47 427.5,93.5 Q458,140 478.5,201 Q499,262 507,321 Q515,380 515,438 Q515,555 468.5,617 Q422,679 333,679 M330,606 Q423,606 423,455 Q423,389 413,323.5 Q403,258 382.5,197.5 Q362,137 325.5,99 Q289,61 242,61 Q149,61 149,212 Q149,278 159,344 Q169,410 189.5,470.5 Q210,531 246.5,568.5 Q283,606 330,606"/> 
            <glyph glyph-name="1" unicode="&#x31;" horiz-adv-x="376" d=" M376,669 L282,0 L190,0 L270,562 L103,467 L72,541 L295,669"/> 
            <glyph glyph-name="2" unicode="&#x32;" horiz-adv-x="462" d=" M279,679 Q363,679 412.5,632.5 Q462,586 462,511 Q462,431 393.5,343 Q325,255 117,75 L414,77 L392,0 L1,0 L11,75 Q173,224 243,296 Q313,368 340,414 Q367,460 367,508 Q367,554 341.5,578.5 Q316,603 272,603 Q196,603 124,528 L66,581 Q161,679 279,679"/> 
            <glyph glyph-name="3" unicode="&#x33;" horiz-adv-x="454" d=" M276,679 Q360,679 407,634 Q454,589 454,521 Q454,461 415.5,416.5 Q377,372 302,354 Q358,349 394,313 Q430,277 430,216 Q430,129 363.5,58.5 Q297,-12 178,-12 Q52,-12 -11,80 L49,130 Q100,63 182,63 Q251,63 294,109 Q337,155 337,227 Q337,275 307.5,294.5 Q278,314 221,314 L169,314 L190,385 L222,385 Q288,385 325,422.5 Q362,460 362,517 Q362,559 337.5,582 Q313,605 269,605 Q196,605 122,543 L77,601 Q171,679 276,679"/> 
            <glyph glyph-name="4" unicode="&#x34;" horiz-adv-x="493" d=" M493,238 L483,165 L397,165 L374,0 L285,0 L308,165 L25,165 L34,231 L292,679 L369,647 L135,238 L319,238 L353,418 L433,418 L408,238"/> 
            <glyph glyph-name="5" unicode="&#x35;" horiz-adv-x="485" d=" M485,669 L463,597 L204,597 L176,401 Q226,426 282,426 Q359,426 402.5,378.5 Q446,331 446,245 Q446,203 431.5,160 Q417,117 388,77.5 Q359,38 307,13 Q255,-12 188,-12 Q72,-12 0,75 L60,126 Q109,63 190,63 Q247,63 286,95 Q325,127 339,166.5 Q353,206 353,247 Q353,355 254,355 Q205,355 152,332 L80,332 L127,669"/> 
            <glyph glyph-name="6" unicode="&#x36;" horiz-adv-x="491" d=" M325,440 Q394,440 439,393.5 Q484,347 484,262 Q484,218 469.5,171.5 Q455,125 427,83 Q399,41 351,14.5 Q303,-12 242,-12 Q54,-12 54,221 Q54,338 87.5,440 Q121,542 192,610.5 Q263,679 358,679 Q434,679 491,637 L450,577 Q409,606 355,606 Q283,606 230,537.5 Q177,469 156,354 Q231,440 325,440 M245,61 Q286,61 316.5,81.5 Q347,102 362.5,134.5 Q378,167 385.5,199.5 Q393,232 393,263 Q393,367 307,367 Q218,367 146,271 Q144,225 144,210 Q144,131 168,96 Q192,61 245,61"/> 
            <glyph glyph-name="7" unicode="&#x37;" horiz-adv-x="466" d=" M466,669 L457,600 L126,-10 L43,18 L362,594 L70,594 L81,669"/> 
            <glyph glyph-name="8" unicode="&#x38;" horiz-adv-x="510" d=" M375,357 Q490,304 490,202 Q490,109 417.5,48.5 Q345,-12 236,-12 Q142,-12 86.5,36 Q31,84 31,162 Q31,223 66,271 Q101,319 187,354 Q105,401 105,493 Q105,574 166.5,626.5 Q228,679 322,679 Q400,679 455,638.5 Q510,598 510,525 Q510,467 478,428 Q446,389 375,357 M319,610 Q254,610 223.5,575.5 Q193,541 193,494 Q193,451 218.5,428 Q244,405 299,386 L313,382 Q376,415 398.5,449 Q421,483 421,524 Q421,610 319,610 M240,61 Q310,61 353.5,101.5 Q397,142 397,206 Q397,245 369,269.5 Q341,294 271,320 L249,327 Q125,273 125,163 Q125,115 155.5,88 Q186,61 240,61"/> 
            <glyph glyph-name="9" unicode="&#x39;" horiz-adv-x="496" d=" M304,679 Q398,679 447,622 Q496,565 496,466 Q496,403 487.5,350.5 Q479,298 452.5,238 Q426,178 381.5,131.5 Q337,85 260.5,43.5 Q184,2 80,-23 L65,48 Q203,86 285,153 Q367,220 391,329 Q329,243 231,243 Q160,243 114.5,293 Q69,343 69,424 Q69,487 92.5,543 Q116,599 171.5,639 Q227,679 304,679 M249,315 Q335,315 401,408 Q405,439 405,468 Q405,541 379.5,573.5 Q354,606 302,606 Q249,606 215,573.5 Q181,541 170,502 Q159,463 159,420 Q159,369 183.5,342 Q208,315 249,315"/> 
            <glyph glyph-name=":" unicode="&#x3A;" horiz-adv-x="212" d=" M137,356 Q110,356 92.5,374 Q75,392 75,419 Q75,451 96.5,473 Q118,495 149,495 Q177,495 194.5,477 Q212,459 212,432 Q212,400 190,378 Q168,356 137,356 M85,-12 Q58,-12 40.5,6 Q23,24 23,51 Q23,83 44.5,105 Q66,127 97,127 Q125,127 142.5,109 Q160,91 160,64 Q160,32 138,10 Q116,-12 85,-12"/> 
            <glyph glyph-name=";" unicode="&#x3B;" horiz-adv-x="216" d=" M141,356 Q114,356 96.5,374 Q79,392 79,419 Q79,451 100.5,473 Q122,495 153,495 Q181,495 198.5,477 Q216,459 216,432 Q216,400 194,378 Q172,356 141,356 M98,127 Q125,127 143,109 Q161,91 161,64 Q161,32 135,-15 L47,-166 L-20,-166 L45,2 Q24,20 24,51 Q24,82 45.5,104.5 Q67,127 98,127"/> 
            <glyph glyph-name="&lt;" unicode="&#x3C;" horiz-adv-x="479" d=" M451,551 L479,472 L131,331 L435,189 L392,115 L52,286 L65,380"/> 
            <glyph glyph-name="=" unicode="&#x3D;" horiz-adv-x="462" d=" M79,389 L90,466 L462,466 L451,389 M52,196 L63,273 L435,273 L424,196"/> 
            <glyph glyph-name="&gt;" unicode="&#x3E;" horiz-adv-x="461" d=" M121,551 L461,380 L448,286 L62,115 L36,191 L383,338 L79,475"/> 
            <glyph glyph-name="?" unicode="&#x3F;" horiz-adv-x="464" d=" M292,701 Q375,701 419.5,660.5 Q464,620 464,560 Q464,514 446,479.5 Q428,445 400.5,426.5 Q373,408 341.5,390.5 Q310,373 282.5,359 Q255,345 237,320 Q219,295 219,262 Q219,245 222,233 L140,219 Q130,244 130,269 Q130,311 147.5,343 Q165,375 192,392.5 Q219,410 249.5,427.5 Q280,445 307,460 Q334,475 351.5,500 Q369,525 369,558 Q369,591 346.5,608 Q324,625 284,625 Q203,625 133,551 L76,604 Q170,701 292,701 M175,-12 Q148,-12 130.5,6 Q113,24 113,51 Q113,83 134.5,105 Q156,127 187,127 Q215,127 232.5,109 Q250,91 250,64 Q250,32 228,10 Q206,-12 175,-12"/> 
            <glyph glyph-name="@" unicode="&#x40;" horiz-adv-x="952" d=" M570,701 Q751,701 851.5,603 Q952,505 952,351 Q952,310 945,266 Q938,222 920.5,175.5 Q903,129 877,92.5 Q851,56 809.5,32.5 Q768,9 716,9 Q661,9 632.5,39 Q604,69 600,110 Q545,11 450,11 Q382,11 340.5,58 Q299,105 299,186 Q299,240 313,291 Q327,342 355,388.5 Q383,435 434,463.5 Q485,492 551,492 Q632,492 704,450 L665,168 Q660,126 669.5,103 Q679,80 715,80 Q755,80 785,107.5 Q815,135 831,179 Q847,223 854.5,268 Q862,313 862,357 Q862,485 786,555 Q710,625 568,625 Q492,625 428.5,605 Q365,585 321,550.5 Q277,516 244,472.5 Q211,429 191.5,378.5 Q172,328 163,279.5 Q154,231 154,183 Q154,44 239.5,-46.5 Q325,-137 473,-137 Q568,-137 669,-102 L688,-175 Q574,-213 469,-213 Q289,-213 175.5,-101.5 Q62,10 62,185 Q62,252 78.5,320.5 Q95,389 134,458.5 Q173,528 229.5,581 Q286,634 374.5,667.5 Q463,701 570,701 M463,78 Q496,78 524,97.5 Q552,117 564,135.5 Q576,154 584,173 L619,413 Q588,426 553,426 Q506,426 471.5,403.5 Q437,381 419.5,342.5 Q402,304 394.5,264.5 Q387,225 387,181 Q387,78 463,78"/> 
            <glyph glyph-name="A" unicode="&#x41;" horiz-adv-x="524" d=" M427,0 L400,173 L141,173 L65,0 L-32,0 L284,689 L403,689 L524,0 M174,250 L388,250 L332,610"/> 
            <glyph glyph-name="B" unicode="&#x42;" horiz-adv-x="565" d=" M411,364 Q550,339 550,220 Q550,120 480.5,60 Q411,0 252,0 L62,0 L159,689 L349,689 Q447,689 506,650.5 Q565,612 565,535 Q565,466 521,422 Q477,378 411,364 M352,614 L242,614 L212,397 L313,397 Q380,397 424.5,431 Q469,465 469,532 Q469,614 352,614 M256,76 Q365,76 408.5,114.5 Q452,153 452,222 Q452,324 316,324 L202,324 L167,76"/> 
            <glyph glyph-name="C" unicode="&#x43;" horiz-adv-x="579" d=" M394,701 Q503,701 579,630 L525,577 Q466,623 398,623 Q346,623 304.5,600 Q263,577 236.5,540 Q210,503 192.5,454.5 Q175,406 167.5,357.5 Q160,309 160,260 Q160,161 201,114.5 Q242,68 312,68 Q384,68 467,127 L509,63 Q420,-12 306,-12 Q193,-12 127,61 Q61,134 61,268 Q61,325 72.5,383.5 Q84,442 110,499.5 Q136,557 173.5,601.5 Q211,646 268,673.5 Q325,701 394,701"/> 
            <glyph glyph-name="D" unicode="&#x44;" horiz-adv-x="601" d=" M300,689 Q364,689 414,678 Q464,667 508.5,639.5 Q553,612 577,558.5 Q601,505 601,428 Q601,360 588.5,298.5 Q576,237 547.5,182 Q519,127 477,87 Q435,47 371,23.5 Q307,0 228,0 L62,0 L159,689 M314,613 L242,613 L167,75 L242,75 Q314,75 367,106.5 Q420,138 449,191.5 Q478,245 491.5,304.5 Q505,364 505,430 Q505,488 489.5,526 Q474,564 444.5,582 Q415,600 385,606.5 Q355,613 314,613"/> 
            <glyph glyph-name="E" unicode="&#x45;" horiz-adv-x="528" d=" M528,689 L507,613 L242,613 L210,388 L440,388 L430,312 L200,312 L167,76 L450,76 L439,0 L62,0 L159,689"/> 
            <glyph glyph-name="F" unicode="&#x46;" horiz-adv-x="521" d=" M521,689 L500,613 L242,613 L209,378 L432,378 L422,303 L199,303 L156,0 L62,0 L159,689"/> 
            <glyph glyph-name="G" unicode="&#x47;" horiz-adv-x="607" d=" M405,701 Q525,701 607,622 L548,571 Q513,599 481,611 Q449,623 406,623 Q342,623 292.5,588 Q243,553 215,496.5 Q187,440 173,376.5 Q159,313 159,247 Q159,153 198,109.5 Q237,66 315,66 Q386,66 446,100 L476,305 L356,305 L356,382 L580,382 L535,54 Q432,-12 302,-12 Q189,-12 124.5,57.5 Q60,127 60,259 Q60,320 72.5,381 Q85,442 112,500 Q139,558 178.5,602.5 Q218,647 276.5,674 Q335,701 405,701"/> 
            <glyph glyph-name="H" unicode="&#x48;" horiz-adv-x="635" d=" M156,0 L62,0 L159,689 L253,689 L212,401 L500,401 L541,689 L635,689 L538,0 L444,0 L489,323 L201,323"/> 
            <glyph glyph-name="I" unicode="&#x49;" horiz-adv-x="253" d=" M253,689 L156,0 L62,0 L159,689"/> 
            <glyph glyph-name="J" unicode="&#x4A;" horiz-adv-x="266" d=" M266,689 L182,93 Q168,-9 117.5,-59 Q67,-109 -26,-138 L-45,-67 Q25,-41 52.5,-4.5 Q80,32 89,103 L172,689"/> 
            <glyph glyph-name="K" unicode="&#x4B;" horiz-adv-x="626" d=" M62,0 L159,689 L254,689 L157,0 M434,0 L213,368 L515,689 L626,689 L319,365 L546,0"/> 
            <glyph glyph-name="L" unicode="&#x4C;" horiz-adv-x="448" d=" M253,689 L168,83 L448,83 L426,0 L62,0 L159,689"/> 
            <glyph glyph-name="M" unicode="&#x4D;" horiz-adv-x="713" d=" M713,689 L673,0 L582,0 L602,314 Q612,490 623,591 L405,78 L315,78 L232,590 Q220,490 179,301 L115,0 L25,0 L179,689 L298,689 L376,190 L580,689"/> 
            <glyph glyph-name="N" unicode="&#x4E;" horiz-adv-x="638" d=" M638,689 L541,0 L418,0 L221,607 Q220,488 195,313 L151,0 L62,0 L159,689 L283,689 L481,81 Q481,201 496,316 L549,689"/> 
            <glyph glyph-name="O" unicode="&#x4F;" horiz-adv-x="648" d=" M402,701 Q516,701 582,628 Q648,555 648,421 Q648,363 637.5,305.5 Q627,248 601.5,190 Q576,132 538,88 Q500,44 440.5,16 Q381,-12 308,-12 Q194,-12 127.5,60 Q61,132 61,265 Q61,321 71.5,378 Q82,435 108,494 Q134,553 171.5,598.5 Q209,644 269,672.5 Q329,701 402,701 M398,623 Q344,623 301.5,598.5 Q259,574 233,536.5 Q207,499 189.5,449.5 Q172,400 165.5,354 Q159,308 159,262 Q159,66 311,66 Q378,66 427.5,102 Q477,138 502,195.5 Q527,253 538.5,311 Q550,369 550,428 Q550,623 398,623"/> 
            <glyph glyph-name="P" unicode="&#x50;" horiz-adv-x="576" d=" M336,689 Q451,689 513.5,643.5 Q576,598 576,507 Q576,457 560,413 Q544,369 511,332.5 Q478,296 418.5,274.5 Q359,253 280,253 L191,253 L156,0 L62,0 L159,689 M282,328 Q476,328 476,507 Q476,615 329,615 L242,615 L202,328"/> 
            <glyph glyph-name="Q" unicode="&#x51;" horiz-adv-x="648" d=" M648,421 Q648,365 637.5,310 Q627,255 605,201 Q583,147 543.5,103.5 Q504,60 452,37 Q541,35 622,-26 L552,-103 Q501,-50 450.5,-31 Q400,-12 308,-12 Q194,-12 127.5,60 Q61,132 61,265 Q61,321 71.5,378 Q82,435 108,494 Q134,553 171.5,598.5 Q209,644 269,672.5 Q329,701 402,701 Q516,701 582,628 Q648,555 648,421 M159,255 Q159,66 311,66 Q365,66 408,90.5 Q451,115 477,153.5 Q503,192 520,242.5 Q537,293 543.5,341 Q550,389 550,438 Q550,623 398,623 Q344,623 301.5,598.5 Q259,574 233,536 Q207,498 189.5,448 Q172,398 165.5,350.5 Q159,303 159,255"/> 
            <glyph glyph-name="R" unicode="&#x52;" horiz-adv-x="572" d=" M572,518 Q572,448 530.5,390 Q489,332 398,306 L537,0 L433,0 L306,292 L197,292 L156,0 L62,0 L159,689 L336,689 Q572,689 572,518 M242,615 L207,365 L308,365 Q396,365 434.5,410 Q473,455 473,517 Q473,570 439,592.5 Q405,615 331,615"/> 
            <glyph glyph-name="S" unicode="&#x53;" horiz-adv-x="527" d=" M324,701 Q447,701 527,618 L468,563 Q408,623 324,623 Q263,623 223,593 Q183,563 183,511 Q183,471 210,447 Q237,423 312,398 Q398,371 445,330 Q492,289 492,209 Q492,120 423,54 Q354,-12 222,-12 Q80,-12 -1,80 L59,136 Q123,66 224,66 Q301,66 347.5,103.5 Q394,141 394,204 Q394,248 366.5,273.5 Q339,299 267,324 Q173,357 130,396.5 Q87,436 87,506 Q87,581 151,641 Q215,701 324,701"/> 
            <glyph glyph-name="T" unicode="&#x54;" horiz-adv-x="562" d=" M562,689 L540,608 L350,608 L265,0 L171,0 L256,608 L62,608 L74,689"/> 
            <glyph glyph-name="U" unicode="&#x55;" horiz-adv-x="627" d=" M627,689 L561,218 Q546,113 475,50.5 Q404,-12 292,-12 Q177,-12 122.5,53 Q68,118 83,224 L149,689 L243,689 L178,225 Q167,145 196,106.5 Q225,68 296,68 Q445,68 468,231 L533,689"/> 
            <glyph glyph-name="V" unicode="&#x56;" horiz-adv-x="604" d=" M604,689 L289,0 L188,0 L65,689 L163,689 L251,103 L506,689"/> 
            <glyph glyph-name="W" unicode="&#x57;" horiz-adv-x="855" d=" M855,689 L619,0 L498,0 L454,577 L246,0 L128,0 L86,689 L176,689 L200,83 L417,689 L519,689 L568,83 L768,689"/> 
            <glyph glyph-name="X" unicode="&#x58;" horiz-adv-x="567" d=" M567,689 L335,371 L492,0 L389,0 L275,304 L72,0 L-33,0 L225,367 L83,689 L186,689 L285,430 L463,689"/> 
            <glyph glyph-name="Y" unicode="&#x59;" horiz-adv-x="600" d=" M600,689 L320,265 L283,0 L187,0 L225,264 L65,689 L164,689 L282,348 L497,689"/> 
            <glyph glyph-name="Z" unicode="&#x5A;" horiz-adv-x="532" d=" M-8,0 L2,76 L416,609 L114,609 L125,689 L532,689 L522,612 L111,80 L446,81 L424,0"/> 
            <glyph glyph-name="[" unicode="&#x5B;" horiz-adv-x="346" d=" M346,816 L335,739 L216,739 L106,-40 L225,-40 L215,-116 L10,-116 L141,816"/> 
            <glyph glyph-name="\" unicode="&#x5C;" horiz-adv-x="360" d=" M255,805 L360,-87 L282,-104 L179,789"/> 
            <glyph glyph-name="]" unicode="&#x5D;" horiz-adv-x="331" d=" M331,816 L200,-116 L-5,-116 L5,-40 L124,-40 L234,739 L115,739 L126,816"/> 
            <glyph glyph-name="^" unicode="&#x5E;" horiz-adv-x="532" d=" M389,840 L532,527 L436,527 L339,760 L174,527 L76,527 L308,840"/> 
            <glyph glyph-name="_" unicode="&#x5F;" horiz-adv-x="452" d=" M-41,-142 L-30,-63 L452,-63 L441,-142"/> 
            <glyph glyph-name="`" unicode="&#x60;" horiz-adv-x="323" d=" M140,801 L323,687 L294,638 L95,724"/> 
            <glyph glyph-name="a" unicode="&#x61;" horiz-adv-x="516" d=" M331,539 Q423,539 516,494 L462,120 Q458,91 464,75.5 Q470,60 494,51 L468,-12 Q384,-1 375,76 Q307,-12 218,-12 Q138,-12 94,43 Q50,98 50,190 Q50,235 59.5,281.5 Q69,328 90.5,375 Q112,422 143.5,458 Q175,494 223.5,516.5 Q272,539 331,539 M333,466 Q270,466 226.5,420 Q183,374 165.5,314 Q148,254 148,189 Q148,61 237,61 Q278,61 310.5,86 Q343,111 378,158 L419,449 Q379,466 333,466"/> 
            <glyph glyph-name="b" unicode="&#x62;" horiz-adv-x="528" d=" M367,539 Q442,539 485,484.5 Q528,430 528,332 Q528,273 512.5,215.5 Q497,158 465.5,105.5 Q434,53 377,20.5 Q320,-12 246,-12 Q166,-12 60,23 L161,739 L253,750 L215,475 Q288,539 367,539 M341,466 Q275,466 203,390 L160,77 Q204,61 253,61 Q300,61 336,87.5 Q372,114 392.5,156.5 Q413,199 423,245.5 Q433,292 433,339 Q433,466 341,466"/> 
            <glyph glyph-name="c" unicode="&#x63;" horiz-adv-x="472" d=" M319,539 Q411,539 472,481 L423,424 Q378,463 320,463 Q273,463 237.5,437.5 Q202,412 183.5,370 Q165,328 156.5,284.5 Q148,241 148,196 Q148,66 255,66 Q311,66 377,107 L414,43 Q337,-12 249,-12 Q155,-12 103.5,44.5 Q52,101 52,203 Q52,258 67,314 Q82,370 112,422 Q142,474 196,506.5 Q250,539 319,539"/> 
            <glyph glyph-name="d" unicode="&#x64;" horiz-adv-x="560" d=" M470,748 L560,738 L456,0 L376,0 L377,87 Q317,-12 218,-12 Q138,-12 94.5,44 Q51,100 51,197 Q51,252 64.5,308.5 Q78,365 105.5,418.5 Q133,472 182.5,505.5 Q232,539 296,539 Q379,539 431,473 M313,466 Q268,466 234,438.5 Q200,411 182,367 Q164,323 156,278.5 Q148,234 148,190 Q148,61 236,61 Q282,61 317,91 Q352,121 391,183 L422,402 Q380,466 313,466"/> 
            <glyph glyph-name="e" unicode="&#x65;" horiz-adv-x="490" d=" M490,405 Q490,362 471.5,328.5 Q453,295 423.5,273.5 Q394,252 347.5,236 Q301,220 255,211.5 Q209,203 148,196 Q151,65 262,65 Q334,65 403,114 L442,52 Q353,-12 253,-12 Q157,-12 104.5,44.5 Q52,101 52,202 Q52,260 67,316 Q82,372 112,423.5 Q142,475 197,507 Q252,539 323,539 Q403,539 446.5,500 Q490,461 490,405 M153,266 Q277,280 335.5,309 Q394,338 394,402 Q394,426 377,446 Q360,466 322,466 Q270,466 232.5,435 Q195,404 177.5,361.5 Q160,319 153,266"/> 
            <glyph glyph-name="f" unicode="&#x66;" horiz-adv-x="453" d=" M332,676 Q251,676 240,597 L230,527 L357,527 L337,456 L220,456 L160,29 Q145,-76 102,-124 Q59,-172 -37,-213 L-63,-144 Q-21,-125 1,-109.5 Q23,-94 42,-59.5 Q61,-25 69,29 L129,456 L36,456 L46,527 L139,527 L150,602 Q159,670 206,710 Q253,750 329,750 Q391,750 453,712 L418,651 Q381,676 332,676"/> 
            <glyph glyph-name="g" unicode="&#x67;" horiz-adv-x="523" d=" M337,539 Q430,539 523,494 L450,12 Q416,-216 209,-216 Q109,-216 27,-165 L62,-95 Q133,-137 204,-137 Q233,-137 256,-131.5 Q279,-126 301.5,-111 Q324,-96 339.5,-64.5 Q355,-33 361,13 L370,80 Q304,0 220,0 Q141,0 96,53.5 Q51,107 51,198 Q51,247 60.5,294 Q70,341 92,386 Q114,431 146.5,464.5 Q179,498 228,518.5 Q277,539 337,539 M337,466 Q274,466 229.5,424.5 Q185,383 167,324 Q149,265 149,197 Q149,73 239,73 Q309,73 383,172 L426,449 Q383,466 337,466"/> 
            <glyph glyph-name="h" unicode="&#x68;" horiz-adv-x="518" d=" M381,539 Q450,539 484,494.5 Q518,450 507,373 L454,0 L363,0 L415,368 Q428,462 362,462 Q273,462 191,316 L148,0 L57,0 L161,738 L253,748 L207,428 Q281,539 381,539"/> 
            <glyph glyph-name="i" unicode="&#x69;" horiz-adv-x="267" d=" M198,655 Q172,655 155.5,671.5 Q139,688 139,712 Q139,741 159,760.5 Q179,780 208,780 Q234,780 250.5,764 Q267,748 267,723 Q267,694 247,674.5 Q227,655 198,655 M222,527 L148,0 L57,0 L131,527"/> 
            <glyph glyph-name="j" unicode="&#x6A;" horiz-adv-x="268" d=" M199,655 Q172,655 156,671.5 Q140,688 140,712 Q140,741 160,760.5 Q180,780 209,780 Q236,780 252,764 Q268,748 268,723 Q268,694 248,674.5 Q228,655 199,655 M-45,-213 L-71,-145 Q-9,-117 20.5,-83 Q50,-49 61,29 L131,527 L222,527 L152,29 Q137,-76 94,-124 Q51,-172 -45,-213"/> 
            <glyph glyph-name="k" unicode="&#x6B;" horiz-adv-x="517" d=" M253,750 L209,435 Q282,539 389,539 Q445,539 481,505.5 Q517,472 517,419 Q517,355 476,307 Q435,259 354,233 L473,0 L371,0 L245,257 Q338,283 379,318.5 Q420,354 420,409 Q420,466 363,466 Q318,466 271,427.5 Q224,389 192,316 L148,0 L57,0 L161,739"/> 
            <glyph glyph-name="l" unicode="&#x6C;" horiz-adv-x="249" d=" M249,750 L158,103 Q156,81 161,72.5 Q166,64 182,64 Q197,64 218,71 L237,5 Q199,-12 164,-12 Q110,-12 85,21 Q60,54 69,118 L157,739"/> 
            <glyph glyph-name="m" unicode="&#x6D;" horiz-adv-x="785" d=" M661,539 Q721,539 753,494 Q785,449 775,375 L722,0 L631,0 L683,368 Q691,422 675.5,442 Q660,462 628,462 Q561,462 479,318 L434,0 L343,0 L395,368 Q403,422 387.5,442 Q372,462 340,462 Q273,462 191,316 L148,0 L57,0 L131,527 L209,527 L201,426 Q281,539 373,539 Q417,539 449,511 Q481,483 488,432 Q569,539 661,539"/> 
            <glyph glyph-name="n" unicode="&#x6E;" horiz-adv-x="517" d=" M384,539 Q451,539 484,493.5 Q517,448 506,370 L454,0 L363,0 L415,368 Q428,462 359,462 Q274,462 192,316 L148,0 L57,0 L131,527 L209,527 L201,424 Q283,539 384,539"/> 
            <glyph glyph-name="o" unicode="&#x6F;" horiz-adv-x="526" d=" M254,-12 Q157,-12 104.5,46 Q52,104 52,206 Q52,248 60.5,291 Q69,334 89.5,379 Q110,424 140,459 Q170,494 218,516.5 Q266,539 325,539 Q422,539 474,481 Q526,423 526,321 Q526,280 518,237.5 Q510,195 489.5,149.5 Q469,104 439.5,68.5 Q410,33 361.5,10.5 Q313,-12 254,-12 M257,62 Q305,62 341,89 Q377,116 395,159.5 Q413,203 421.5,246 Q430,289 430,331 Q430,465 322,465 Q274,465 237.5,438 Q201,411 183,367.5 Q165,324 156.5,281 Q148,238 148,196 Q148,62 257,62"/> 
            <glyph glyph-name="p" unicode="&#x70;" horiz-adv-x="528" d=" M27,-216 L131,527 L209,527 L207,461 Q278,539 367,539 Q442,539 485,484.5 Q528,430 528,332 Q528,273 512.5,215.5 Q497,158 466,105.5 Q435,53 378,20.5 Q321,-12 248,-12 Q199,-12 148,5 L118,-204 M253,61 Q300,61 336,87.5 Q372,114 392.5,156.5 Q413,199 423,245.5 Q433,292 433,339 Q433,466 341,466 Q275,466 203,390 L160,77 Q204,61 253,61"/> 
            <glyph glyph-name="q" unicode="&#x71;" horiz-adv-x="519" d=" M327,-216 L366,64 Q340,31 301,9.5 Q262,-12 218,-12 Q139,-12 94.5,43 Q50,98 50,190 Q50,235 59.5,281.5 Q69,328 90.5,375 Q112,422 143.5,458 Q175,494 223.5,516.5 Q272,539 331,539 Q426,539 519,494 L418,-204 M237,61 Q278,61 310.5,86 Q343,111 378,158 L420,449 Q379,466 333,466 Q270,466 226.5,420 Q183,374 165.5,314 Q148,254 148,189 Q148,61 237,61"/> 
            <glyph glyph-name="r" unicode="&#x72;" horiz-adv-x="409" d=" M356,539 Q381,539 409,532 L382,443 Q363,448 339,448 Q246,448 188,279 L148,0 L57,0 L131,527 L209,527 L203,419 Q262,539 356,539"/> 
            <glyph glyph-name="s" unicode="&#x73;" horiz-adv-x="436" d=" M263,539 Q363,539 436,474 L391,419 Q332,466 262,466 Q214,466 185.5,447 Q157,428 157,395 Q157,365 180.5,349 Q204,333 263,315 Q340,291 376,254.5 Q412,218 412,157 Q412,75 347.5,31.5 Q283,-12 193,-12 Q76,-12 -2,64 L50,117 Q115,62 197,62 Q260,62 288,88.5 Q316,115 316,148 Q316,187 293,206 Q270,225 205,245 Q129,268 96.5,301.5 Q64,335 64,389 Q64,448 115.5,493.5 Q167,539 263,539"/> 
            <glyph glyph-name="t" unicode="&#x74;" horiz-adv-x="351" d=" M217,456 L173,139 Q167,100 178,82.5 Q189,65 218,65 Q250,65 294,87 L324,23 Q269,-12 207,-12 Q138,-12 105,28 Q72,68 82,141 L126,456 L35,456 L45,527 L140,527 L173,649 L245,657 L227,527 L351,527 L331,456"/> 
            <glyph glyph-name="u" unicode="&#x75;" horiz-adv-x="519" d=" M200,-12 Q130,-12 96,32 Q62,76 73,153 L126,527 L217,527 L165,157 Q158,104 171.5,82 Q185,60 220,60 Q297,60 380,184 L428,527 L519,527 L445,0 L367,0 L374,97 Q294,-12 200,-12"/> 
            <glyph glyph-name="v" unicode="&#x76;" horiz-adv-x="514" d=" M514,527 L262,0 L153,0 L47,527 L146,527 L218,83 L414,527"/> 
            <glyph glyph-name="w" unicode="&#x77;" horiz-adv-x="728" d=" M728,527 L537,0 L412,0 L384,444 L227,0 L106,0 L58,527 L148,527 L177,64 L344,527 L447,527 L480,64 L640,527"/> 
            <glyph glyph-name="x" unicode="&#x78;" horiz-adv-x="493" d=" M493,527 L297,275 L438,0 L336,0 L236,222 L75,0 L-32,0 L189,283 L64,527 L165,527 L249,332 L387,527"/> 
            <glyph glyph-name="y" unicode="&#x79;" horiz-adv-x="514" d=" M514,527 L270,-5 Q229,-96 164,-149 Q99,-202 -5,-213 L-9,-141 Q69,-128 108,-97.5 Q147,-67 182,0 L148,0 L47,527 L143,527 L217,70 L419,527"/> 
            <glyph glyph-name="z" unicode="&#x7A;" horiz-adv-x="436" d=" M436,527 L427,457 L109,77 L376,77 L355,0 L-13,0 L-4,69 L313,449 L73,449 L84,527"/> 
            <glyph glyph-name="{" unicode="&#x7B;" horiz-adv-x="351" d=" M351,836 L345,765 Q295,765 270,748.5 Q245,732 240,694 L206,455 Q199,404 179,382.5 Q159,361 116,347 Q153,334 168,312 Q183,290 176,239 L142,0 Q137,-37 155.5,-51 Q174,-65 225,-65 L219,-136 Q36,-136 58,16 L89,238 Q95,280 82.5,295.5 Q70,311 27,311 L38,387 Q77,387 96.5,406.5 Q116,426 122,468 L153,690 Q164,770 208,803 Q252,836 351,836"/> 
            <glyph glyph-name="|" unicode="&#x7C;" horiz-adv-x="316" d=" M316,807 L189,-102 L106,-102 L233,807"/> 
            <glyph glyph-name="}" unicode="&#x7D;" horiz-adv-x="313" d=" M-11,-136 L-5,-65 Q45,-65 70,-48.5 Q95,-32 100,6 L134,245 Q141,296 161,317.5 Q181,339 224,353 Q187,366 172,388 Q157,410 164,461 L198,700 Q203,737 184.5,751 Q166,765 115,765 L121,836 Q304,836 282,684 L251,462 Q245,420 257.5,404.5 Q270,389 313,389 L302,313 Q263,313 243.5,293.5 Q224,274 218,232 L187,10 Q176,-70 132,-103 Q88,-136 -11,-136"/> 
            <glyph glyph-name="~" unicode="&#x7E;" horiz-adv-x="460" d=" M317,250 Q278,250 236.5,281 Q195,312 175,312 Q130,312 91,256 L37,289 Q97,384 183,384 Q219,384 261,353.5 Q303,323 325,323 Q372,323 407,373 L460,339 Q401,250 317,250"/> 
            <glyph glyph-name="¡" unicode="&#xA1;" horiz-adv-x="212" d=" M137,356 Q110,356 92.5,374 Q75,392 75,419 Q75,451 96.5,473 Q118,495 149,495 Q177,495 194.5,477 Q212,459 212,432 Q212,400 190,378 Q168,356 137,356 M160,247 L107,-202 L6,-202 L79,247"/> 
            <glyph glyph-name="¢" unicode="&#xA2;" horiz-adv-x="472" d=" M320,463 Q273,463 237.5,437.5 Q202,412 183.5,370 Q165,328 156.5,284.5 Q148,241 148,196 Q148,66 255,66 Q311,66 377,107 L414,43 Q346,-5 272,-11 L252,-154 L173,-154 L194,-6 Q126,10 89,64 Q52,118 52,203 Q52,272 72.5,339 Q93,406 144.5,463.5 Q196,521 271,535 L292,684 L370,684 L349,537 Q422,529 472,481 L423,424 Q378,463 320,463"/> 
            <glyph glyph-name="£" unicode="&#xA3;" horiz-adv-x="530" d=" M361,679 Q470,679 530,594 L468,551 Q430,604 364,604 Q314,604 282,574.5 Q250,545 243,491 L228,382 L433,382 L424,322 L219,322 L202,201 Q195,150 179,123 Q163,96 126,76 L441,76 L419,0 L2,0 L10,74 Q64,93 84,119.5 Q104,146 112,208 L128,322 L63,322 L72,382 L137,382 L153,496 Q165,579 220,629 Q275,679 361,679"/> 
            <glyph glyph-name="¤" unicode="&#xA4;" horiz-adv-x="531" d=" M492,341 Q492,272 455,218 L531,143 L476,88 L398,164 Q345,132 278,132 Q214,132 161,166 L84,88 L29,143 L107,221 Q71,274 71,341 Q71,406 106,460 L29,540 L84,595 L162,515 Q211,549 278,549 Q345,549 398,517 L476,595 L531,540 L455,463 Q492,411 492,341 M222,205 Q340,205 371.5,241 Q403,277 403,342 Q403,407 371.5,443 Q340,479 281,479 Q222,479 190,443 Q158,407 158,342 Q158,277 222,205"/> 
            <glyph glyph-name="¥" unicode="&#xA5;" horiz-adv-x="583" d=" M583,669 L348,346 L460,346 L451,284 L315,284 L302,194 L438,194 L430,133 L294,133 L275,0 L181,0 L200,133 L63,133 L71,194 L209,194 L222,284 L84,284 L93,346 L206,346 L62,669 L162,669 L282,374 L486,669"/> 
            <glyph glyph-name="¦" unicode="&#xA6;" horiz-adv-x="316" d=" M316,807 L265,443 L182,443 L233,807 M240,262 L189,-102 L106,-102 L157,262"/> 
            <glyph glyph-name="§" unicode="&#xA7;" horiz-adv-x="497" d=" M325,443 Q463,396 463,306 Q463,225 369,170 Q410,135 410,79 Q410,18 358.5,-26.5 Q307,-71 204,-71 Q110,-71 38,-20 L78,40 Q134,1 209,1 Q319,1 319,75 Q319,107 298,123.5 Q277,140 212,162 Q138,187 106.5,218 Q75,249 75,297 Q75,385 173,436 Q130,473 130,525 Q130,597 186,637 Q242,677 325,677 Q424,677 497,621 L457,566 Q395,606 325,606 Q220,606 220,533 Q220,502 242,483 Q264,464 325,443 M315,203 Q348,227 361.5,247.5 Q375,268 375,293 Q375,322 355.5,341 Q336,360 284,378 Q243,392 222,404 Q189,379 177,358 Q165,337 165,309 Q165,280 181.5,262 Q198,244 242,230 Q282,217 315,203"/> 
            <glyph glyph-name="¨" unicode="&#xA8;" horiz-adv-x="417" d=" M146,654 Q123,654 108,668.5 Q93,683 93,705 Q93,732 111,749.5 Q129,767 156,767 Q179,767 194,752.5 Q209,738 209,716 Q209,689 191,671.5 Q173,654 146,654 M354,654 Q331,654 316,668.5 Q301,683 301,705 Q301,732 319,749.5 Q337,767 364,767 Q387,767 402,752.5 Q417,738 417,716 Q417,689 399,671.5 Q381,654 354,654"/> 
            <glyph glyph-name="©" unicode="&#xA9;" horiz-adv-x="742" d=" M430,748 Q561,748 651.5,659 Q742,570 742,434 Q742,298 651.5,209.5 Q561,121 430,121 Q298,121 207,209.5 Q116,298 116,434 Q116,570 207,659 Q298,748 430,748 M430,696 Q320,696 248.5,622.5 Q177,549 177,434 Q177,319 248.5,246.5 Q320,174 430,174 Q539,174 610.5,246.5 Q682,319 682,434 Q682,549 610.5,622.5 Q539,696 430,696 M432,625 Q496,625 549,585 L514,538 Q476,565 436,565 Q395,565 370,533 Q345,501 345,435 Q345,372 369.5,340 Q394,308 436,308 Q479,308 520,339 L552,291 Q500,245 433,245 Q359,245 314,295 Q269,345 269,435 Q269,524 316,574.5 Q363,625 432,625"/> 
            <glyph glyph-name="ª" unicode="&#xAA;" horiz-adv-x="443" d=" M202,271 Q144,271 111.5,303 Q79,335 79,385 Q79,444 126,484.5 Q173,525 284,525 L343,525 L346,545 Q353,587 337.5,603.5 Q322,620 278,620 Q231,620 162,598 L145,662 Q223,689 296,689 Q374,689 408.5,655 Q443,621 435,551 L412,381 Q409,360 413.5,349 Q418,338 436,332 L411,272 Q346,278 332,330 Q283,271 202,271 M224,337 Q284,337 325,394 L336,470 L284,470 Q223,470 197,447 Q171,424 171,389 Q171,337 224,337 M25,0 L36,77 L408,77 L397,0"/> 
            <glyph glyph-name="«" unicode="&#xAB;" horiz-adv-x="549" d=" M259,535 L314,497 L150,287 L255,77 L198,39 L53,255 L60,318 M494,535 L549,497 L385,287 L490,77 L433,39 L288,255 L295,318"/> 
            <glyph glyph-name="¬" unicode="&#xAC;" horiz-adv-x="447" d=" M447,361 L416,141 L329,141 L349,284 L64,284 L75,361"/> 
            <glyph glyph-name="­" unicode="&#xAD;" horiz-adv-x="351" d=" M59,274 L70,352 L351,352 L340,274"/> 
            <glyph glyph-name="®" unicode="&#xAE;" horiz-adv-x="607" d=" M352,750 Q460,750 533.5,675 Q607,600 607,493 Q607,386 533.5,312 Q460,238 352,238 Q246,238 173,312 Q100,386 100,493 Q100,600 173.5,675 Q247,750 352,750 M352,287 Q440,287 496,345 Q552,403 552,493 Q552,583 496,642 Q440,701 352,701 Q267,701 211,642 Q155,583 155,493 Q155,403 210.5,345 Q266,287 352,287 M461,551 Q461,493 396,474 L470,359 L403,359 L342,465 L318,465 L318,359 L261,359 L261,635 L339,635 Q461,635 461,551 M318,591 L318,509 L348,509 Q402,509 402,551 Q402,591 346,591"/> 
            <glyph glyph-name="¯" unicode="&#xAF;" horiz-adv-x="367" d=" M358,667 L87,667 L96,736 L367,736"/> 
            <glyph glyph-name="°" unicode="&#xB0;" horiz-adv-x="414" d=" M235,381 Q172,381 132,418 Q92,455 92,519 Q92,596 143.5,648.5 Q195,701 271,701 Q334,701 374,664 Q414,627 414,563 Q414,486 362.5,433.5 Q311,381 235,381 M237,444 Q284,444 311.5,477.5 Q339,511 339,564 Q339,638 269,638 Q222,638 194.5,604.5 Q167,571 167,518 Q167,444 237,444"/> 
            <glyph glyph-name="±" unicode="&#xB1;" horiz-adv-x="451" d=" M328,542 L307,392 L451,392 L440,316 L296,316 L275,167 L191,167 L212,316 L69,316 L80,392 L223,392 L244,542 M24,0 L35,77 L407,77 L396,0"/> 
            <glyph glyph-name="²" unicode="&#xB2;" horiz-adv-x="382" d=" M259,746 Q317,746 349.5,716 Q382,686 382,638 Q382,607 369,578.5 Q356,550 323.5,516.5 Q291,483 266.5,461.5 Q242,440 189,397 Q178,388 173,384 L358,384 L341,322 L74,322 L82,382 Q95,393 120.5,415 Q146,437 158.5,447.5 Q171,458 192,477 Q213,496 223.5,507 Q234,518 249.5,534 Q265,550 272.5,561.5 Q280,573 288.5,586.5 Q297,600 300,612.5 Q303,625 303,637 Q303,684 250,684 Q204,684 157,637 L111,680 Q175,746 259,746"/> 
            <glyph glyph-name="³" unicode="&#xB3;" horiz-adv-x="383" d=" M260,746 Q318,746 350.5,718 Q383,690 383,648 Q383,565 283,542 Q321,538 345,516 Q369,494 369,457 Q369,396 320.5,354.5 Q272,313 202,313 Q112,313 66,375 L115,413 Q150,374 202,374 Q242,374 266.5,397.5 Q291,421 291,461 Q291,490 274,501 Q257,512 221,512 L185,512 L202,568 L223,568 Q260,568 283,589 Q306,610 306,642 Q306,687 251,687 Q207,687 156,651 L121,695 Q184,746 260,746"/> 
            <glyph glyph-name="´" unicode="&#xB4;" horiz-adv-x="331" d=" M301,801 L331,724 L111,638 L90,687"/> 
            <glyph glyph-name="µ" unicode="&#xB5;" horiz-adv-x="519" d=" M470,177 Q456,75 470,-2 L386,-10 Q373,29 375,85 Q306,-12 218,-12 Q166,-12 138,22 Q146,-8 133,-99 L119,-202 L27,-213 L131,527 L222,527 L169,153 Q156,64 233,64 Q317,64 378,163 L428,527 L519,527"/> 
            <glyph glyph-name="¶" unicode="&#xB6;" horiz-adv-x="649" d=" M391,689 L649,689 L524,-202 L442,-215 L558,615 L439,615 L326,-202 L244,-215 L314,283 Q216,288 167,334 Q118,380 118,454 Q118,564 193,626.5 Q268,689 391,689"/> 
            <glyph glyph-name="·" unicode="&#xB7;" horiz-adv-x="195" d=" M120,241 Q93,241 75.5,259 Q58,277 58,304 Q58,336 79.5,358 Q101,380 132,380 Q160,380 177.5,362 Q195,344 195,317 Q195,285 173,263 Q151,241 120,241"/> 
            <glyph glyph-name="¸" unicode="&#xB8;" horiz-adv-x="185" d=" M115,16 L103,-56 Q143,-60 164,-82 Q185,-104 185,-137 Q185,-181 150.5,-211 Q116,-241 56,-241 Q-1,-241 -37,-214 L-6,-165 Q22,-181 56,-181 Q80,-181 95,-169.5 Q110,-158 110,-138 Q110,-116 92.5,-107.5 Q75,-99 28,-99 L56,16"/> 
            <glyph glyph-name="¹" unicode="&#xB9;" horiz-adv-x="337" d=" M337,739 L278,322 L202,322 L249,660 L145,603 L118,656 L268,739"/> 
            <glyph glyph-name="º" unicode="&#xBA;" horiz-adv-x="472" d=" M304,689 Q385,689 428.5,644 Q472,599 472,519 Q472,411 412,341 Q352,271 252,271 Q171,271 127,316 Q83,361 83,441 Q83,549 143.5,619 Q204,689 304,689 M302,620 Q238,620 207,567 Q176,514 176,436 Q176,340 254,340 Q317,340 348,393.5 Q379,447 379,525 Q379,620 302,620 M24,0 L35,77 L407,77 L396,0"/> 
            <glyph glyph-name="»" unicode="&#xBB;" horiz-adv-x="522" d=" M141,535 L287,318 L280,255 L79,39 L26,77 L189,287 L85,497 M376,535 L522,318 L515,255 L314,39 L261,77 L424,287 L320,497"/> 
            <glyph glyph-name="¼" unicode="&#xBC;" horiz-adv-x="858" d=" M696,750 L752,721 L239,-78 L182,-49 M195,272 L242,610 L138,553 L111,606 L261,689 L330,689 L271,272 M858,156 L849,96 L798,96 L784,0 L709,0 L722,96 L538,96 L545,150 L710,424 L773,399 L627,156 L731,156 L753,261 L821,261 L806,156"/> 
            <glyph glyph-name="½" unicode="&#xBD;" horiz-adv-x="857" d=" M696,750 L752,721 L239,-78 L182,-49 M330,689 L271,272 L195,272 L242,610 L138,553 L111,606 L261,689 M734,424 Q792,424 824.5,394 Q857,364 857,316 Q857,285 844,256.5 Q831,228 798.5,194.5 Q766,161 741.5,139.5 Q717,118 664,75 Q653,66 648,62 L833,62 L816,0 L549,0 L557,60 Q570,71 595.5,93 Q621,115 633.5,125.5 Q646,136 667,155 Q688,174 698.5,185 Q709,196 724.5,212 Q740,228 747.5,239.5 Q755,251 763.5,264.5 Q772,278 775,290.5 Q778,303 778,315 Q778,362 725,362 Q679,362 632,315 L586,358 Q650,424 734,424"/> 
            <glyph glyph-name="¾" unicode="&#xBE;" horiz-adv-x="858" d=" M696,750 L752,721 L239,-78 L182,-49 M362,407 Q362,346 313.5,304.5 Q265,263 195,263 Q105,263 59,325 L108,363 Q143,324 195,324 Q235,324 259.5,347.5 Q284,371 284,411 Q284,440 267,451 Q250,462 214,462 L178,462 L195,518 L216,518 Q253,518 276,539 Q299,560 299,592 Q299,637 244,637 Q200,637 149,601 L114,645 Q177,696 253,696 Q311,696 343.5,668 Q376,640 376,598 Q376,515 276,492 Q314,488 338,466 Q362,444 362,407 M858,156 L849,96 L798,96 L784,0 L709,0 L722,96 L538,96 L545,150 L710,424 L773,399 L627,156 L731,156 L753,261 L821,261 L806,156"/> 
            <glyph glyph-name="¿" unicode="&#xBF;" horiz-adv-x="371" d=" M272,507 Q299,507 316.5,489 Q334,471 334,444 Q334,412 312.5,390 Q291,368 260,368 Q232,368 214.5,386 Q197,404 197,431 Q197,463 219,485 Q241,507 272,507 M155,-216 Q72,-216 27.5,-175.5 Q-17,-135 -17,-75 Q-17,-29 1,5.5 Q19,40 46.5,58.5 Q74,77 105.5,94.5 Q137,112 164.5,126 Q192,140 210,165 Q228,190 228,223 Q228,240 225,252 L307,266 Q317,241 317,216 Q317,174 299.5,142 Q282,110 255,92.5 Q228,75 197.5,57.5 Q167,40 140,25 Q113,10 95.5,-15 Q78,-40 78,-73 Q78,-106 100.5,-123 Q123,-140 163,-140 Q244,-140 314,-66 L371,-119 Q277,-216 155,-216"/> 
            <glyph glyph-name="À" unicode="&#xC0;" horiz-adv-x="524" d=" M480,803 L451,754 L252,830 L294,907 M427,0 L400,173 L141,173 L65,0 L-32,0 L284,689 L403,689 L524,0 M174,250 L388,250 L332,610"/> 
            <glyph glyph-name="Á" unicode="&#xC1;" horiz-adv-x="524" d=" M481,831 L261,755 L242,804 L451,908 M427,0 L400,173 L141,173 L65,0 L-32,0 L284,689 L403,689 L524,0 M174,250 L388,250 L332,610"/> 
            <glyph glyph-name="Â" unicode="&#xC2;" horiz-adv-x="524" d=" M364,840 L229,759 L192,804 L341,914 L401,914 L520,804 L479,759 M427,0 L400,173 L141,173 L65,0 L-32,0 L284,689 L403,689 L524,0 M174,250 L388,250 L332,610"/> 
            <glyph glyph-name="Ã" unicode="&#xC3;" horiz-adv-x="535" d=" M311,830 Q280,830 248,782 L196,814 Q249,900 313,900 Q345,900 376,876 Q407,852 420,852 Q449,852 481,898 L535,866 Q485,782 422,782 Q389,782 356,806 Q323,830 311,830 M284,689 L403,689 L524,0 L427,0 L400,173 L141,173 L65,0 L-32,0 M174,250 L388,250 L332,610"/> 
            <glyph glyph-name="Ä" unicode="&#xC4;" horiz-adv-x="529" d=" M258,780 Q235,780 220,794.5 Q205,809 205,831 Q205,858 223,875.5 Q241,893 268,893 Q291,893 306,878.5 Q321,864 321,842 Q321,815 303,797.5 Q285,780 258,780 M466,780 Q443,780 428,794.5 Q413,809 413,831 Q413,858 431,875.5 Q449,893 476,893 Q499,893 514,878.5 Q529,864 529,842 Q529,815 511,797.5 Q493,780 466,780 M284,689 L403,689 L524,0 L427,0 L400,173 L141,173 L65,0 L-32,0 M174,250 L388,250 L332,610"/> 
            <glyph glyph-name="Å" unicode="&#xC5;" horiz-adv-x="524" d=" M359,750 Q313,750 284.5,777.5 Q256,805 256,846 Q256,894 292,928 Q328,962 380,962 Q426,962 454.5,934.5 Q483,907 483,866 Q483,818 447,784 Q411,750 359,750 M378,912 Q349,912 333,893 Q317,874 317,847 Q317,800 361,800 Q390,800 406.5,820 Q423,840 423,866 Q423,912 378,912 M427,0 L400,173 L141,173 L65,0 L-32,0 L284,689 L403,689 L524,0 M174,250 L388,250 L332,610"/> 
            <glyph glyph-name="Æ" unicode="&#xC6;" horiz-adv-x="775" d=" M753,613 L446,613 L470,387 L723,387 L713,311 L479,311 L504,76 L729,76 L718,0 L421,0 L405,173 L139,173 L51,0 L-49,0 L317,689 L775,689 M179,250 L398,250 L364,613"/> 
            <glyph glyph-name="Ç" unicode="&#xC7;" horiz-adv-x="579" d=" M398,623 Q346,623 304.5,600 Q263,577 236.5,540 Q210,503 192.5,454.5 Q175,406 167.5,357.5 Q160,309 160,260 Q160,161 201,114.5 Q242,68 312,68 Q384,68 467,127 L509,63 Q433,-2 336,-11 L328,-56 Q368,-60 389,-82 Q410,-104 410,-137 Q410,-181 375.5,-211 Q341,-241 281,-241 Q224,-241 188,-214 L219,-165 Q247,-181 281,-181 Q305,-181 320,-169.5 Q335,-158 335,-138 Q335,-116 317.5,-107.5 Q300,-99 253,-99 L275,-10 Q175,0 118,72 Q61,144 61,268 Q61,325 72.5,383.5 Q84,442 110,499.5 Q136,557 173.5,601.5 Q211,646 268,673.5 Q325,701 394,701 Q503,701 579,630 L525,577 Q466,623 398,623"/> 
            <glyph glyph-name="È" unicode="&#xC8;" horiz-adv-x="528" d=" M297,907 L483,803 L454,754 L255,830 M528,689 L507,613 L242,613 L210,388 L440,388 L430,312 L200,312 L167,76 L450,76 L439,0 L62,0 L159,689"/> 
            <glyph glyph-name="É" unicode="&#xC9;" horiz-adv-x="528" d=" M454,908 L484,831 L264,755 L245,804 M528,689 L507,613 L242,613 L210,388 L440,388 L430,312 L200,312 L167,76 L450,76 L439,0 L62,0 L159,689"/> 
            <glyph glyph-name="Ê" unicode="&#xCA;" horiz-adv-x="528" d=" M232,759 L195,804 L344,914 L404,914 L523,804 L482,759 L367,840 M528,689 L507,613 L242,613 L210,388 L440,388 L430,312 L200,312 L167,76 L450,76 L439,0 L62,0 L159,689"/> 
            <glyph glyph-name="Ë" unicode="&#xCB;" horiz-adv-x="532" d=" M261,780 Q238,780 223,794.5 Q208,809 208,831 Q208,858 226,875.5 Q244,893 271,893 Q294,893 309,878.5 Q324,864 324,842 Q324,815 306,797.5 Q288,780 261,780 M469,780 Q446,780 431,794.5 Q416,809 416,831 Q416,858 434,875.5 Q452,893 479,893 Q502,893 517,878.5 Q532,864 532,842 Q532,815 514,797.5 Q496,780 469,780 M528,689 L507,613 L242,613 L210,388 L440,388 L430,312 L200,312 L167,76 L450,76 L439,0 L62,0 L159,689"/> 
            <glyph glyph-name="Ì" unicode="&#xCC;" horiz-adv-x="342" d=" M156,907 L342,803 L313,754 L114,830 M253,689 L156,0 L62,0 L159,689"/> 
            <glyph glyph-name="Í" unicode="&#xCD;" horiz-adv-x="343" d=" M313,908 L343,831 L123,755 L104,804 M253,689 L156,0 L62,0 L159,689"/> 
            <glyph glyph-name="Î" unicode="&#xCE;" horiz-adv-x="382" d=" M91,759 L54,804 L203,914 L263,914 L382,804 L341,759 L226,840 M253,689 L156,0 L62,0 L159,689"/> 
            <glyph glyph-name="Ï" unicode="&#xCF;" horiz-adv-x="391" d=" M120,780 Q97,780 82,794.5 Q67,809 67,831 Q67,858 85,875.5 Q103,893 130,893 Q153,893 168,878.5 Q183,864 183,842 Q183,815 165,797.5 Q147,780 120,780 M328,780 Q305,780 290,794.5 Q275,809 275,831 Q275,858 293,875.5 Q311,893 338,893 Q361,893 376,878.5 Q391,864 391,842 Q391,815 373,797.5 Q355,780 328,780 M253,689 L156,0 L62,0 L159,689"/> 
            <glyph glyph-name="Ð" unicode="&#xD0;" horiz-adv-x="611" d=" M310,689 Q374,689 424,678 Q474,667 518.5,639.5 Q563,612 587,558.5 Q611,505 611,428 Q611,360 598.5,298.5 Q586,237 557.5,182 Q529,127 487,87 Q445,47 381,23.5 Q317,0 238,0 L72,0 L117,318 L29,318 L38,388 L127,388 L169,689 M252,75 Q324,75 377,106.5 Q430,138 459,191.5 Q488,245 501.5,304.5 Q515,364 515,430 Q515,488 499.5,526 Q484,564 454.5,582 Q425,600 395,606.5 Q365,613 324,613 L252,613 L221,388 L378,388 L369,318 L211,318 L177,75"/> 
            <glyph glyph-name="Ñ" unicode="&#xD1;" horiz-adv-x="638" d=" M488,782 Q455,782 422,806 Q389,830 377,830 Q346,830 314,782 L262,814 Q315,900 379,900 Q411,900 442,876 Q473,852 486,852 Q515,852 547,898 L601,866 Q551,782 488,782 M638,689 L541,0 L418,0 L221,607 Q220,488 195,313 L151,0 L62,0 L159,689 L283,689 L481,81 Q481,201 496,316 L549,689"/> 
            <glyph glyph-name="Ò" unicode="&#xD2;" horiz-adv-x="648" d=" M357,907 L543,803 L514,754 L315,830 M402,701 Q516,701 582,628 Q648,555 648,421 Q648,363 637.5,305.5 Q627,248 601.5,190 Q576,132 538,88 Q500,44 440.5,16 Q381,-12 308,-12 Q194,-12 127.5,60 Q61,132 61,265 Q61,321 71.5,378 Q82,435 108,494 Q134,553 171.5,598.5 Q209,644 269,672.5 Q329,701 402,701 M398,623 Q344,623 301.5,598.5 Q259,574 233,536.5 Q207,499 189.5,449.5 Q172,400 165.5,354 Q159,308 159,262 Q159,66 311,66 Q378,66 427.5,102 Q477,138 502,195.5 Q527,253 538.5,311 Q550,369 550,428 Q550,623 398,623"/> 
            <glyph glyph-name="Ó" unicode="&#xD3;" horiz-adv-x="648" d=" M514,908 L544,831 L324,755 L305,804 M402,701 Q516,701 582,628 Q648,555 648,421 Q648,363 637.5,305.5 Q627,248 601.5,190 Q576,132 538,88 Q500,44 440.5,16 Q381,-12 308,-12 Q194,-12 127.5,60 Q61,132 61,265 Q61,321 71.5,378 Q82,435 108,494 Q134,553 171.5,598.5 Q209,644 269,672.5 Q329,701 402,701 M398,623 Q344,623 301.5,598.5 Q259,574 233,536.5 Q207,499 189.5,449.5 Q172,400 165.5,354 Q159,308 159,262 Q159,66 311,66 Q378,66 427.5,102 Q477,138 502,195.5 Q527,253 538.5,311 Q550,369 550,428 Q550,623 398,623"/> 
            <glyph glyph-name="Ô" unicode="&#xD4;" horiz-adv-x="648" d=" M292,759 L255,804 L404,914 L464,914 L583,804 L542,759 L427,840 M402,701 Q516,701 582,628 Q648,555 648,421 Q648,363 637.5,305.5 Q627,248 601.5,190 Q576,132 538,88 Q500,44 440.5,16 Q381,-12 308,-12 Q194,-12 127.5,60 Q61,132 61,265 Q61,321 71.5,378 Q82,435 108,494 Q134,553 171.5,598.5 Q209,644 269,672.5 Q329,701 402,701 M398,623 Q344,623 301.5,598.5 Q259,574 233,536.5 Q207,499 189.5,449.5 Q172,400 165.5,354 Q159,308 159,262 Q159,66 311,66 Q378,66 427.5,102 Q477,138 502,195.5 Q527,253 538.5,311 Q550,369 550,428 Q550,623 398,623"/> 
            <glyph glyph-name="Õ" unicode="&#xD5;" horiz-adv-x="648" d=" M485,782 Q452,782 419,806 Q386,830 374,830 Q343,830 311,782 L259,814 Q312,900 376,900 Q408,900 439,876 Q470,852 483,852 Q512,852 544,898 L598,866 Q548,782 485,782 M402,701 Q516,701 582,628 Q648,555 648,421 Q648,363 637.5,305.5 Q627,248 601.5,190 Q576,132 538,88 Q500,44 440.5,16 Q381,-12 308,-12 Q194,-12 127.5,60 Q61,132 61,265 Q61,321 71.5,378 Q82,435 108,494 Q134,553 171.5,598.5 Q209,644 269,672.5 Q329,701 402,701 M398,623 Q344,623 301.5,598.5 Q259,574 233,536.5 Q207,499 189.5,449.5 Q172,400 165.5,354 Q159,308 159,262 Q159,66 311,66 Q378,66 427.5,102 Q477,138 502,195.5 Q527,253 538.5,311 Q550,369 550,428 Q550,623 398,623"/> 
            <glyph glyph-name="Ö" unicode="&#xD6;" horiz-adv-x="648" d=" M321,780 Q298,780 283,794.5 Q268,809 268,831 Q268,858 286,875.5 Q304,893 331,893 Q354,893 369,878.5 Q384,864 384,842 Q384,815 366,797.5 Q348,780 321,780 M529,780 Q506,780 491,794.5 Q476,809 476,831 Q476,858 494,875.5 Q512,893 539,893 Q562,893 577,878.5 Q592,864 592,842 Q592,815 574,797.5 Q556,780 529,780 M402,701 Q516,701 582,628 Q648,555 648,421 Q648,363 637.5,305.5 Q627,248 601.5,190 Q576,132 538,88 Q500,44 440.5,16 Q381,-12 308,-12 Q194,-12 127.5,60 Q61,132 61,265 Q61,321 71.5,378 Q82,435 108,494 Q134,553 171.5,598.5 Q209,644 269,672.5 Q329,701 402,701 M398,623 Q344,623 301.5,598.5 Q259,574 233,536.5 Q207,499 189.5,449.5 Q172,400 165.5,354 Q159,308 159,262 Q159,66 311,66 Q378,66 427.5,102 Q477,138 502,195.5 Q527,253 538.5,311 Q550,369 550,428 Q550,623 398,623"/> 
            <glyph glyph-name="×" unicode="&#xD7;" horiz-adv-x="447" d=" M397,486 L447,429 L311,308 L415,184 L352,129 L250,252 L111,129 L61,186 L197,306 L93,431 L156,486 L258,362"/> 
            <glyph glyph-name="Ø" unicode="&#xD8;" horiz-adv-x="648" d=" M539,665 Q648,595 648,421 Q648,363 637.5,305.5 Q627,248 601.5,190 Q576,132 538,88 Q500,44 440.5,16 Q381,-12 308,-12 Q270,-12 241,-5 L188,-127 L111,-106 L169,25 Q61,93 61,265 Q61,321 71.5,378 Q82,435 108,494 Q134,553 171.5,598.5 Q209,644 269,672.5 Q329,701 402,701 Q439,701 467,694 L522,819 L599,798 M398,623 Q344,623 301.5,598.5 Q259,574 233,536 Q207,498 189.5,448 Q172,398 165.5,350.5 Q159,303 159,255 Q159,140 211,96 L442,619 Q423,623 398,623 M311,66 Q365,66 408,90.5 Q451,115 477,153.5 Q503,192 520,242.5 Q537,293 543.5,341 Q550,389 550,438 Q550,553 496,595 L266,70 Q285,66 311,66"/> 
            <glyph glyph-name="Ù" unicode="&#xD9;" horiz-adv-x="627" d=" M338,907 L524,803 L495,754 L296,830 M627,689 L561,218 Q546,113 475,50.5 Q404,-12 292,-12 Q177,-12 122.5,53 Q68,118 83,224 L149,689 L243,689 L178,225 Q167,145 196,106.5 Q225,68 296,68 Q445,68 468,231 L533,689"/> 
            <glyph glyph-name="Ú" unicode="&#xDA;" horiz-adv-x="627" d=" M495,908 L525,831 L305,755 L286,804 M627,689 L561,218 Q546,113 475,50.5 Q404,-12 292,-12 Q177,-12 122.5,53 Q68,118 83,224 L149,689 L243,689 L178,225 Q167,145 196,106.5 Q225,68 296,68 Q445,68 468,231 L533,689"/> 
            <glyph glyph-name="Û" unicode="&#xDB;" horiz-adv-x="627" d=" M273,759 L236,804 L385,914 L445,914 L564,804 L523,759 L408,840 M627,689 L561,218 Q546,113 475,50.5 Q404,-12 292,-12 Q177,-12 122.5,53 Q68,118 83,224 L149,689 L243,689 L178,225 Q167,145 196,106.5 Q225,68 296,68 Q445,68 468,231 L533,689"/> 
            <glyph glyph-name="Ü" unicode="&#xDC;" horiz-adv-x="627" d=" M302,780 Q279,780 264,794.5 Q249,809 249,831 Q249,858 267,875.5 Q285,893 312,893 Q335,893 350,878.5 Q365,864 365,842 Q365,815 347,797.5 Q329,780 302,780 M510,780 Q487,780 472,794.5 Q457,809 457,831 Q457,858 475,875.5 Q493,893 520,893 Q543,893 558,878.5 Q573,864 573,842 Q573,815 555,797.5 Q537,780 510,780 M627,689 L561,218 Q546,113 475,50.5 Q404,-12 292,-12 Q177,-12 122.5,53 Q68,118 83,224 L149,689 L243,689 L178,225 Q167,145 196,106.5 Q225,68 296,68 Q445,68 468,231 L533,689"/> 
            <glyph glyph-name="Ý" unicode="&#xDD;" horiz-adv-x="600" d=" M442,908 L472,831 L252,755 L233,804 M600,689 L320,265 L283,0 L187,0 L225,264 L65,689 L164,689 L282,348 L497,689"/> 
            <glyph glyph-name="Þ" unicode="&#xDE;" horiz-adv-x="559" d=" M319,571 Q434,571 496.5,525 Q559,479 559,385 Q559,337 544,293.5 Q529,250 496.5,211.5 Q464,173 404,150 Q344,127 262,127 L174,127 L156,0 L62,0 L159,689 L253,689 L236,571 M264,202 Q369,202 414,254 Q459,306 459,385 Q459,446 422,471.5 Q385,497 313,497 L226,497 L184,202"/> 
            <glyph glyph-name="ß" unicode="&#xDF;" horiz-adv-x="535" d=" M-45,-213 L-71,-144 Q-29,-125 -7,-109.5 Q15,-94 34,-59.5 Q53,-25 61,29 L133,542 Q146,642 204.5,696 Q263,750 357,750 Q433,750 476.5,713.5 Q520,677 520,621 Q520,587 506,560.5 Q492,534 472,518 Q452,502 432,488 Q412,474 398,457.5 Q384,441 384,422 Q384,401 399.5,382 Q415,363 437,345.5 Q459,328 481.5,307.5 Q504,287 519.5,252.5 Q535,218 535,175 Q535,103 482,45.5 Q429,-12 335,-12 Q266,-12 214,19 L247,81 Q283,62 328,62 Q387,62 415,96 Q443,130 443,172 Q443,205 428,231.5 Q413,258 391.5,277 Q370,296 348.5,314 Q327,332 312,356 Q297,380 297,409 Q297,448 318.5,476.5 Q340,505 365,520 Q390,535 411.5,560.5 Q433,586 433,618 Q433,648 411.5,663 Q390,678 356,678 Q301,678 267,642 Q233,606 223,536 L152,29 Q137,-76 94,-124 Q51,-172 -45,-213"/> 
            <glyph glyph-name="à" unicode="&#xE0;" horiz-adv-x="516" d=" M304,801 L487,687 L458,638 L259,724 M331,539 Q423,539 516,494 L462,120 Q458,91 464,75.5 Q470,60 494,51 L468,-12 Q384,-1 375,76 Q307,-12 218,-12 Q138,-12 94,43 Q50,98 50,190 Q50,235 59.5,281.5 Q69,328 90.5,375 Q112,422 143.5,458 Q175,494 223.5,516.5 Q272,539 331,539 M333,466 Q270,466 226.5,420 Q183,374 165.5,314 Q148,254 148,189 Q148,61 237,61 Q278,61 310.5,86 Q343,111 378,158 L419,449 Q379,466 333,466"/> 
            <glyph glyph-name="á" unicode="&#xE1;" horiz-adv-x="516" d=" M456,801 L486,724 L266,638 L245,687 M331,539 Q423,539 516,494 L462,120 Q458,91 464,75.5 Q470,60 494,51 L468,-12 Q384,-1 375,76 Q307,-12 218,-12 Q138,-12 94,43 Q50,98 50,190 Q50,235 59.5,281.5 Q69,328 90.5,375 Q112,422 143.5,458 Q175,494 223.5,516.5 Q272,539 331,539 M333,466 Q270,466 226.5,420 Q183,374 165.5,314 Q148,254 148,189 Q148,61 237,61 Q278,61 310.5,86 Q343,111 378,158 L419,449 Q379,466 333,466"/> 
            <glyph glyph-name="â" unicode="&#xE2;" horiz-adv-x="521" d=" M230,634 L193,679 L342,792 L402,792 L521,679 L477,634 L364,718 M331,539 Q423,539 516,494 L462,120 Q458,91 464,75.5 Q470,60 494,51 L468,-12 Q384,-1 375,76 Q307,-12 218,-12 Q138,-12 94,43 Q50,98 50,190 Q50,235 59.5,281.5 Q69,328 90.5,375 Q112,422 143.5,458 Q175,494 223.5,516.5 Q272,539 331,539 M333,466 Q270,466 226.5,420 Q183,374 165.5,314 Q148,254 148,189 Q148,61 237,61 Q278,61 310.5,86 Q343,111 378,158 L419,449 Q379,466 333,466"/> 
            <glyph glyph-name="ã" unicode="&#xE3;" horiz-adv-x="534" d=" M421,656 Q388,656 355,680 Q322,704 310,704 Q279,704 247,656 L195,688 Q248,774 312,774 Q344,774 375,750 Q406,726 419,726 Q448,726 480,772 L534,740 Q484,656 421,656 M331,539 Q423,539 516,494 L462,120 Q458,91 464,75.5 Q470,60 494,51 L468,-12 Q384,-1 375,76 Q307,-12 218,-12 Q138,-12 94,43 Q50,98 50,190 Q50,235 59.5,281.5 Q69,328 90.5,375 Q112,422 143.5,458 Q175,494 223.5,516.5 Q272,539 331,539 M333,466 Q270,466 226.5,420 Q183,374 165.5,314 Q148,254 148,189 Q148,61 237,61 Q278,61 310.5,86 Q343,111 378,158 L419,449 Q379,466 333,466"/> 
            <glyph glyph-name="ä" unicode="&#xE4;" horiz-adv-x="525" d=" M254,654 Q231,654 216,668.5 Q201,683 201,705 Q201,732 219,749.5 Q237,767 264,767 Q287,767 302,752.5 Q317,738 317,716 Q317,689 299,671.5 Q281,654 254,654 M462,654 Q439,654 424,668.5 Q409,683 409,705 Q409,732 427,749.5 Q445,767 472,767 Q495,767 510,752.5 Q525,738 525,716 Q525,689 507,671.5 Q489,654 462,654 M331,539 Q423,539 516,494 L462,120 Q458,91 464,75.5 Q470,60 494,51 L468,-12 Q384,-1 375,76 Q307,-12 218,-12 Q138,-12 94,43 Q50,98 50,190 Q50,235 59.5,281.5 Q69,328 90.5,375 Q112,422 143.5,458 Q175,494 223.5,516.5 Q272,539 331,539 M333,466 Q270,466 226.5,420 Q183,374 165.5,314 Q148,254 148,189 Q148,61 237,61 Q278,61 310.5,86 Q343,111 378,158 L419,449 Q379,466 333,466"/> 
            <glyph glyph-name="å" unicode="&#xE5;" horiz-adv-x="516" d=" M377,836 Q423,836 451.5,808.5 Q480,781 480,740 Q480,692 444,658 Q408,624 356,624 Q310,624 281.5,651.5 Q253,679 253,720 Q253,768 289,802 Q325,836 377,836 M375,786 Q346,786 330,767 Q314,748 314,721 Q314,674 358,674 Q387,674 403.5,694 Q420,714 420,740 Q420,786 375,786 M331,539 Q423,539 516,494 L462,120 Q458,91 464,75.5 Q470,60 494,51 L468,-12 Q384,-1 375,76 Q307,-12 218,-12 Q138,-12 94,43 Q50,98 50,190 Q50,235 59.5,281.5 Q69,328 90.5,375 Q112,422 143.5,458 Q175,494 223.5,516.5 Q272,539 331,539 M333,466 Q270,466 226.5,420 Q183,374 165.5,314 Q148,254 148,189 Q148,61 237,61 Q278,61 310.5,86 Q343,111 378,158 L419,449 Q379,466 333,466"/> 
            <glyph glyph-name="æ" unicode="&#xE6;" horiz-adv-x="790" d=" M285,539 Q405,539 443,456 Q510,539 623,539 Q703,539 746.5,500 Q790,461 790,405 Q790,361 771,327.5 Q752,294 722,273 Q692,252 644.5,237 Q597,222 551.5,214 Q506,206 443,200 Q444,65 562,65 Q634,65 703,114 L742,52 Q653,-12 553,-12 Q428,-12 379,81 Q301,-12 185,-12 Q112,-12 70,26 Q28,64 28,127 Q28,205 89,256.5 Q150,308 284,308 L365,308 Q373,349 385,384 Q383,420 351.5,442 Q320,464 271,464 Q213,464 132,438 L114,507 Q200,539 285,539 M622,466 Q547,466 504.5,409 Q462,352 449,270 Q512,277 552.5,285 Q593,293 627.5,308 Q662,323 678,346 Q694,369 694,402 Q694,426 677,446 Q660,466 622,466 M356,245 L292,245 Q210,245 169,217 Q128,189 128,126 Q128,57 201,57 Q286,57 357,151 Q355,162 354.5,198 Q354,234 356,245"/> 
            <glyph glyph-name="ç" unicode="&#xE7;" horiz-adv-x="472" d=" M320,463 Q273,463 237.5,437.5 Q202,412 183.5,370 Q165,328 156.5,284.5 Q148,241 148,196 Q148,66 255,66 Q311,66 377,107 L414,43 Q344,-6 265,-12 L258,-56 Q298,-60 319,-82 Q340,-104 340,-137 Q340,-181 305.5,-211 Q271,-241 211,-241 Q154,-241 118,-214 L149,-165 Q177,-181 211,-181 Q235,-181 250,-169.5 Q265,-158 265,-138 Q265,-116 247.5,-107.5 Q230,-99 183,-99 L205,-8 Q132,5 92,59.5 Q52,114 52,203 Q52,258 67,314 Q82,370 112,422 Q142,474 196,506.5 Q250,539 319,539 Q411,539 472,481 L423,424 Q378,463 320,463"/> 
            <glyph glyph-name="è" unicode="&#xE8;" horiz-adv-x="490" d=" M463,687 L434,638 L235,724 L280,801 M490,405 Q490,362 471.5,328.5 Q453,295 423.5,273.5 Q394,252 347.5,236 Q301,220 255,211.5 Q209,203 148,196 Q151,65 262,65 Q334,65 403,114 L442,52 Q353,-12 253,-12 Q157,-12 104.5,44.5 Q52,101 52,202 Q52,260 67,316 Q82,372 112,423.5 Q142,475 197,507 Q252,539 323,539 Q403,539 446.5,500 Q490,461 490,405 M153,266 Q277,280 335.5,309 Q394,338 394,402 Q394,426 377,446 Q360,466 322,466 Q270,466 232.5,435 Q195,404 177.5,361.5 Q160,319 153,266"/> 
            <glyph glyph-name="é" unicode="&#xE9;" horiz-adv-x="490" d=" M462,724 L242,638 L221,687 L432,801 M490,405 Q490,362 471.5,328.5 Q453,295 423.5,273.5 Q394,252 347.5,236 Q301,220 255,211.5 Q209,203 148,196 Q151,65 262,65 Q334,65 403,114 L442,52 Q353,-12 253,-12 Q157,-12 104.5,44.5 Q52,101 52,202 Q52,260 67,316 Q82,372 112,423.5 Q142,475 197,507 Q252,539 323,539 Q403,539 446.5,500 Q490,461 490,405 M153,266 Q277,280 335.5,309 Q394,338 394,402 Q394,426 377,446 Q360,466 322,466 Q270,466 232.5,435 Q195,404 177.5,361.5 Q160,319 153,266"/> 
            <glyph glyph-name="ê" unicode="&#xEA;" horiz-adv-x="497" d=" M340,718 L206,634 L169,679 L318,792 L378,792 L497,679 L453,634 M323,539 Q403,539 446.5,500 Q490,461 490,405 Q490,362 471.5,328.5 Q453,295 423.5,273.5 Q394,252 347.5,236 Q301,220 255,211.5 Q209,203 148,196 Q151,65 262,65 Q334,65 403,114 L442,52 Q353,-12 253,-12 Q157,-12 104.5,44.5 Q52,101 52,202 Q52,260 67,316 Q82,372 112,423.5 Q142,475 197,507 Q252,539 323,539 M153,266 Q277,280 335.5,309 Q394,338 394,402 Q394,426 377,446 Q360,466 322,466 Q270,466 232.5,435 Q195,404 177.5,361.5 Q160,319 153,266"/> 
            <glyph glyph-name="ë" unicode="&#xEB;" horiz-adv-x="501" d=" M230,654 Q207,654 192,668.5 Q177,683 177,705 Q177,732 195,749.5 Q213,767 240,767 Q263,767 278,752.5 Q293,738 293,716 Q293,689 275,671.5 Q257,654 230,654 M438,654 Q415,654 400,668.5 Q385,683 385,705 Q385,732 403,749.5 Q421,767 448,767 Q471,767 486,752.5 Q501,738 501,716 Q501,689 483,671.5 Q465,654 438,654 M323,539 Q403,539 446.5,500 Q490,461 490,405 Q490,362 471.5,328.5 Q453,295 423.5,273.5 Q394,252 347.5,236 Q301,220 255,211.5 Q209,203 148,196 Q151,65 262,65 Q334,65 403,114 L442,52 Q353,-12 253,-12 Q157,-12 104.5,44.5 Q52,101 52,202 Q52,260 67,316 Q82,372 112,423.5 Q142,475 197,507 Q252,539 323,539 M153,266 Q277,280 335.5,309 Q394,338 394,402 Q394,426 377,446 Q360,466 322,466 Q270,466 232.5,435 Q195,404 177.5,361.5 Q160,319 153,266"/> 
            <glyph glyph-name="ì" unicode="&#xEC;" horiz-adv-x="325" d=" M142,801 L325,687 L296,638 L97,724 M222,527 L148,0 L57,0 L131,527"/> 
            <glyph glyph-name="í" unicode="&#xED;" horiz-adv-x="324" d=" M294,801 L324,724 L104,638 L83,687 M222,527 L148,0 L57,0 L131,527"/> 
            <glyph glyph-name="î" unicode="&#xEE;" horiz-adv-x="359" d=" M68,634 L31,679 L180,792 L240,792 L359,679 L315,634 L202,718 M222,527 L148,0 L57,0 L131,527"/> 
            <glyph glyph-name="ï" unicode="&#xEF;" horiz-adv-x="363" d=" M92,654 Q69,654 54,668.5 Q39,683 39,705 Q39,732 57,749.5 Q75,767 102,767 Q125,767 140,752.5 Q155,738 155,716 Q155,689 137,671.5 Q119,654 92,654 M300,654 Q277,654 262,668.5 Q247,683 247,705 Q247,732 265,749.5 Q283,767 310,767 Q333,767 348,752.5 Q363,738 363,716 Q363,689 345,671.5 Q327,654 300,654 M222,527 L148,0 L57,0 L131,527"/> 
            <glyph glyph-name="ð" unicode="&#xF0;" horiz-adv-x="512" d=" M392,660 Q512,560 512,377 Q512,206 442.5,97 Q373,-12 240,-12 Q155,-12 102,41.5 Q49,95 49,190 Q49,238 63,286 Q77,334 103.5,377.5 Q130,421 176.5,448 Q223,475 281,475 Q373,475 421,413 Q415,536 335,610 L252,539 L192,571 L278,647 Q232,668 171,680 L196,749 Q282,731 336,700 L418,776 L466,729 M242,61 Q298,61 337,100 Q376,139 394.5,196.5 Q413,254 418,328 Q379,403 293,403 Q250,403 219,383 Q188,363 172,329 Q156,295 149,260.5 Q142,226 142,188 Q142,125 168.5,93 Q195,61 242,61"/> 
            <glyph glyph-name="ñ" unicode="&#xF1;" horiz-adv-x="523" d=" M410,656 Q377,656 344,680 Q311,704 299,704 Q268,704 236,656 L184,688 Q237,774 301,774 Q333,774 364,750 Q395,726 408,726 Q437,726 469,772 L523,740 Q473,656 410,656 M384,539 Q451,539 484,493.5 Q517,448 506,370 L454,0 L363,0 L415,368 Q428,462 359,462 Q274,462 192,316 L148,0 L57,0 L131,527 L209,527 L201,424 Q283,539 384,539"/> 
            <glyph glyph-name="ò" unicode="&#xF2;" horiz-adv-x="526" d=" M292,801 L475,687 L446,638 L247,724 M254,-12 Q157,-12 104.5,46 Q52,104 52,206 Q52,248 60.5,291 Q69,334 89.5,379 Q110,424 140,459 Q170,494 218,516.5 Q266,539 325,539 Q422,539 474,481 Q526,423 526,321 Q526,280 518,237.5 Q510,195 489.5,149.5 Q469,104 439.5,68.5 Q410,33 361.5,10.5 Q313,-12 254,-12 M257,62 Q305,62 341,89 Q377,116 395,159.5 Q413,203 421.5,246 Q430,289 430,331 Q430,465 322,465 Q274,465 237.5,438 Q201,411 183,367.5 Q165,324 156.5,281 Q148,238 148,196 Q148,62 257,62"/> 
            <glyph glyph-name="ó" unicode="&#xF3;" horiz-adv-x="526" d=" M444,801 L474,724 L254,638 L233,687 M254,-12 Q157,-12 104.5,46 Q52,104 52,206 Q52,248 60.5,291 Q69,334 89.5,379 Q110,424 140,459 Q170,494 218,516.5 Q266,539 325,539 Q422,539 474,481 Q526,423 526,321 Q526,280 518,237.5 Q510,195 489.5,149.5 Q469,104 439.5,68.5 Q410,33 361.5,10.5 Q313,-12 254,-12 M257,62 Q305,62 341,89 Q377,116 395,159.5 Q413,203 421.5,246 Q430,289 430,331 Q430,465 322,465 Q274,465 237.5,438 Q201,411 183,367.5 Q165,324 156.5,281 Q148,238 148,196 Q148,62 257,62"/> 
            <glyph glyph-name="ô" unicode="&#xF4;" horiz-adv-x="526" d=" M218,634 L181,679 L330,792 L390,792 L509,679 L465,634 L352,718 M254,-12 Q157,-12 104.5,46 Q52,104 52,206 Q52,248 60.5,291 Q69,334 89.5,379 Q110,424 140,459 Q170,494 218,516.5 Q266,539 325,539 Q422,539 474,481 Q526,423 526,321 Q526,280 518,237.5 Q510,195 489.5,149.5 Q469,104 439.5,68.5 Q410,33 361.5,10.5 Q313,-12 254,-12 M257,62 Q305,62 341,89 Q377,116 395,159.5 Q413,203 421.5,246 Q430,289 430,331 Q430,465 322,465 Q274,465 237.5,438 Q201,411 183,367.5 Q165,324 156.5,281 Q148,238 148,196 Q148,62 257,62"/> 
            <glyph glyph-name="õ" unicode="&#xF5;" horiz-adv-x="526" d=" M409,656 Q376,656 343,680 Q310,704 298,704 Q267,704 235,656 L183,688 Q236,774 300,774 Q332,774 363,750 Q394,726 407,726 Q436,726 468,772 L522,740 Q472,656 409,656 M254,-12 Q157,-12 104.5,46 Q52,104 52,206 Q52,248 60.5,291 Q69,334 89.5,379 Q110,424 140,459 Q170,494 218,516.5 Q266,539 325,539 Q422,539 474,481 Q526,423 526,321 Q526,280 518,237.5 Q510,195 489.5,149.5 Q469,104 439.5,68.5 Q410,33 361.5,10.5 Q313,-12 254,-12 M257,62 Q305,62 341,89 Q377,116 395,159.5 Q413,203 421.5,246 Q430,289 430,331 Q430,465 322,465 Q274,465 237.5,438 Q201,411 183,367.5 Q165,324 156.5,281 Q148,238 148,196 Q148,62 257,62"/> 
            <glyph glyph-name="ö" unicode="&#xF6;" horiz-adv-x="526" d=" M242,654 Q219,654 204,668.5 Q189,683 189,705 Q189,732 207,749.5 Q225,767 252,767 Q275,767 290,752.5 Q305,738 305,716 Q305,689 287,671.5 Q269,654 242,654 M450,654 Q427,654 412,668.5 Q397,683 397,705 Q397,732 415,749.5 Q433,767 460,767 Q483,767 498,752.5 Q513,738 513,716 Q513,689 495,671.5 Q477,654 450,654 M254,-12 Q157,-12 104.5,46 Q52,104 52,206 Q52,248 60.5,291 Q69,334 89.5,379 Q110,424 140,459 Q170,494 218,516.5 Q266,539 325,539 Q422,539 474,481 Q526,423 526,321 Q526,280 518,237.5 Q510,195 489.5,149.5 Q469,104 439.5,68.5 Q410,33 361.5,10.5 Q313,-12 254,-12 M257,62 Q305,62 341,89 Q377,116 395,159.5 Q413,203 421.5,246 Q430,289 430,331 Q430,465 322,465 Q274,465 237.5,438 Q201,411 183,367.5 Q165,324 156.5,281 Q148,238 148,196 Q148,62 257,62"/> 
            <glyph glyph-name="÷" unicode="&#xF7;" horiz-adv-x="448" d=" M286,492 Q259,492 241.5,510 Q224,528 224,555 Q224,587 245.5,609 Q267,631 298,631 Q326,631 343.5,613 Q361,595 361,568 Q361,536 339,514 Q317,492 286,492 M65,294 L76,371 L448,371 L437,294 M222,35 Q195,35 177.5,53 Q160,71 160,98 Q160,130 181.5,152 Q203,174 234,174 Q262,174 279.5,156 Q297,138 297,111 Q297,79 275,57 Q253,35 222,35"/> 
            <glyph glyph-name="ø" unicode="&#xF8;" horiz-adv-x="526" d=" M446,506 Q526,449 526,321 Q526,280 518,237.5 Q510,195 489.5,149.5 Q469,104 439.5,68.5 Q410,33 361.5,10.5 Q313,-12 254,-12 Q228,-12 201,-7 L146,-130 L73,-108 L133,21 Q52,76 52,206 Q52,248 60.5,291 Q69,334 89.5,379 Q110,424 140,459 Q170,494 218,516.5 Q266,539 325,539 Q351,539 378,534 L433,656 L506,634 L447,508 M322,465 Q274,465 237.5,438 Q201,411 183,367.5 Q165,324 156.5,281 Q148,238 148,196 Q148,119 178,89 L353,462 Q338,465 322,465 M257,62 Q305,62 341,89 Q377,116 395,159.5 Q413,203 421.5,246 Q430,289 430,331 Q430,404 402,437 L226,64 Q246,62 257,62"/> 
            <glyph glyph-name="ù" unicode="&#xF9;" horiz-adv-x="519" d=" M289,801 L472,687 L443,638 L244,724 M200,-12 Q130,-12 96,32 Q62,76 73,153 L126,527 L217,527 L165,157 Q158,104 171.5,82 Q185,60 220,60 Q297,60 380,184 L428,527 L519,527 L445,0 L367,0 L374,97 Q294,-12 200,-12"/> 
            <glyph glyph-name="ú" unicode="&#xFA;" horiz-adv-x="519" d=" M441,801 L471,724 L251,638 L230,687 M200,-12 Q130,-12 96,32 Q62,76 73,153 L126,527 L217,527 L165,157 Q158,104 171.5,82 Q185,60 220,60 Q297,60 380,184 L428,527 L519,527 L445,0 L367,0 L374,97 Q294,-12 200,-12"/> 
            <glyph glyph-name="û" unicode="&#xFB;" horiz-adv-x="519" d=" M215,634 L178,679 L327,792 L387,792 L506,679 L462,634 L349,718 M200,-12 Q130,-12 96,32 Q62,76 73,153 L126,527 L217,527 L165,157 Q158,104 171.5,82 Q185,60 220,60 Q297,60 380,184 L428,527 L519,527 L445,0 L367,0 L374,97 Q294,-12 200,-12"/> 
            <glyph glyph-name="ü" unicode="&#xFC;" horiz-adv-x="519" d=" M239,654 Q216,654 201,668.5 Q186,683 186,705 Q186,732 204,749.5 Q222,767 249,767 Q272,767 287,752.5 Q302,738 302,716 Q302,689 284,671.5 Q266,654 239,654 M447,654 Q424,654 409,668.5 Q394,683 394,705 Q394,732 412,749.5 Q430,767 457,767 Q480,767 495,752.5 Q510,738 510,716 Q510,689 492,671.5 Q474,654 447,654 M200,-12 Q130,-12 96,32 Q62,76 73,153 L126,527 L217,527 L165,157 Q158,104 171.5,82 Q185,60 220,60 Q297,60 380,184 L428,527 L519,527 L445,0 L367,0 L374,97 Q294,-12 200,-12"/> 
            <glyph glyph-name="ý" unicode="&#xFD;" horiz-adv-x="514" d=" M398,801 L428,724 L208,638 L187,687 M514,527 L270,-5 Q229,-96 164,-149 Q99,-202 -5,-213 L-9,-141 Q69,-128 108,-97.5 Q147,-67 182,0 L148,0 L47,527 L143,527 L217,70 L419,527"/> 
            <glyph glyph-name="þ" unicode="&#xFE;" horiz-adv-x="528" d=" M368,539 Q444,539 486,485 Q528,431 528,332 Q528,273 512.5,215.5 Q497,158 465.5,105.5 Q434,53 377,20.5 Q320,-12 246,-12 Q196,-12 148,8 L119,-204 L26,-217 L161,739 L253,750 L214,474 Q288,539 368,539 M253,61 Q300,61 336,87.5 Q372,114 392.5,156.5 Q413,199 423,245.5 Q433,292 433,339 Q433,466 339,466 Q275,466 203,390 L160,78 Q207,61 253,61"/> 
            <glyph glyph-name="ÿ" unicode="&#xFF;" horiz-adv-x="514" d=" M196,654 Q173,654 158,668.5 Q143,683 143,705 Q143,732 161,749.5 Q179,767 206,767 Q229,767 244,752.5 Q259,738 259,716 Q259,689 241,671.5 Q223,654 196,654 M404,654 Q381,654 366,668.5 Q351,683 351,705 Q351,732 369,749.5 Q387,767 414,767 Q437,767 452,752.5 Q467,738 467,716 Q467,689 449,671.5 Q431,654 404,654 M514,527 L270,-5 Q229,-96 164,-149 Q99,-202 -5,-213 L-9,-141 Q69,-128 108,-97.5 Q147,-67 182,0 L148,0 L47,527 L143,527 L217,70 L419,527"/> 
            <glyph glyph-name="Ā" unicode="&#x100;" horiz-adv-x="524" d=" M505,862 L496,793 L225,793 L234,862 M427,0 L400,173 L141,173 L65,0 L-32,0 L284,689 L403,689 L524,0 M174,250 L388,250 L332,610"/> 
            <glyph glyph-name="ā" unicode="&#x101;" horiz-adv-x="516" d=" M494,667 L223,667 L232,736 L503,736 M331,539 Q423,539 516,494 L462,120 Q458,91 464,75.5 Q470,60 494,51 L468,-12 Q384,-1 375,76 Q307,-12 218,-12 Q138,-12 94,43 Q50,98 50,190 Q50,235 59.5,281.5 Q69,328 90.5,375 Q112,422 143.5,458 Q175,494 223.5,516.5 Q272,539 331,539 M333,466 Q270,466 226.5,420 Q183,374 165.5,314 Q148,254 148,189 Q148,61 237,61 Q278,61 310.5,86 Q343,111 378,158 L419,449 Q379,466 333,466"/> 
            <glyph glyph-name="Ă" unicode="&#x102;" horiz-adv-x="524" d=" M354,758 Q293,758 255.5,793 Q218,828 220,884 L279,892 Q293,828 356,828 Q427,828 459,896 L519,878 Q506,823 460,790.5 Q414,758 354,758 M427,0 L400,173 L141,173 L65,0 L-32,0 L284,689 L403,689 L524,0 M174,250 L388,250 L332,610"/> 
            <glyph glyph-name="ă" unicode="&#x103;" horiz-adv-x="518" d=" M351,643 Q290,643 253,680 Q216,717 218,779 L280,787 Q285,749 302.5,731 Q320,713 353,713 Q427,713 458,791 L518,773 Q503,712 457,677.5 Q411,643 351,643 M331,539 Q423,539 516,494 L462,120 Q458,91 464,75.5 Q470,60 494,51 L468,-12 Q384,-1 375,76 Q307,-12 218,-12 Q138,-12 94,43 Q50,98 50,190 Q50,235 59.5,281.5 Q69,328 90.5,375 Q112,422 143.5,458 Q175,494 223.5,516.5 Q272,539 331,539 M333,466 Q270,466 226.5,420 Q183,374 165.5,314 Q148,254 148,189 Q148,61 237,61 Q278,61 310.5,86 Q343,111 378,158 L419,449 Q379,466 333,466"/> 
            <glyph glyph-name="Ą" unicode="&#x104;" horiz-adv-x="524" d=" M487,0 Q402,-35 373.5,-65.5 Q345,-96 345,-126 Q345,-161 392,-161 Q417,-161 455,-153 L440,-225 Q410,-231 379,-231 Q326,-231 295.5,-204.5 Q265,-178 265,-137 Q265,-35 424,20 L400,173 L141,173 L65,0 L-32,0 L284,689 L403,689 L524,0 M174,250 L388,250 L332,610"/> 
            <glyph glyph-name="ą" unicode="&#x105;" horiz-adv-x="516" d=" M462,120 Q458,91 464,75.5 Q470,60 494,51 L468,-12 Q383,-47 354.5,-77.5 Q326,-108 326,-138 Q326,-173 373,-173 Q398,-173 436,-165 L421,-237 Q391,-243 360,-243 Q307,-243 276.5,-216.5 Q246,-190 246,-149 Q246,-47 409,9 Q381,31 375,76 Q307,-12 218,-12 Q138,-12 94,43 Q50,98 50,190 Q50,235 59.5,281.5 Q69,328 90.5,375 Q112,422 143.5,458 Q175,494 223.5,516.5 Q272,539 331,539 Q423,539 516,494 M378,158 L419,449 Q379,466 333,466 Q270,466 226.5,420 Q183,374 165.5,314 Q148,254 148,189 Q148,61 237,61 Q278,61 310.5,86 Q343,111 378,158"/> 
            <glyph glyph-name="Ć" unicode="&#x106;" horiz-adv-x="579" d=" M512,908 L542,831 L322,755 L303,804 M394,701 Q503,701 579,630 L525,577 Q466,623 398,623 Q346,623 304.5,600 Q263,577 236.5,540 Q210,503 192.5,454.5 Q175,406 167.5,357.5 Q160,309 160,260 Q160,161 201,114.5 Q242,68 312,68 Q384,68 467,127 L509,63 Q420,-12 306,-12 Q193,-12 127,61 Q61,134 61,268 Q61,325 72.5,383.5 Q84,442 110,499.5 Q136,557 173.5,601.5 Q211,646 268,673.5 Q325,701 394,701"/> 
            <glyph glyph-name="ć" unicode="&#x107;" horiz-adv-x="472" d=" M441,801 L471,724 L251,638 L230,687 M319,539 Q411,539 472,481 L423,424 Q378,463 320,463 Q273,463 237.5,437.5 Q202,412 183.5,370 Q165,328 156.5,284.5 Q148,241 148,196 Q148,66 255,66 Q311,66 377,107 L414,43 Q337,-12 249,-12 Q155,-12 103.5,44.5 Q52,101 52,203 Q52,258 67,314 Q82,370 112,422 Q142,474 196,506.5 Q250,539 319,539"/> 
            <glyph glyph-name="Ĉ" unicode="&#x108;" horiz-adv-x="581" d=" M290,759 L253,804 L402,914 L462,914 L581,804 L540,759 L425,840 M394,701 Q503,701 579,630 L525,577 Q466,623 398,623 Q346,623 304.5,600 Q263,577 236.5,540 Q210,503 192.5,454.5 Q175,406 167.5,357.5 Q160,309 160,260 Q160,161 201,114.5 Q242,68 312,68 Q384,68 467,127 L509,63 Q420,-12 306,-12 Q193,-12 127,61 Q61,134 61,268 Q61,325 72.5,383.5 Q84,442 110,499.5 Q136,557 173.5,601.5 Q211,646 268,673.5 Q325,701 394,701"/> 
            <glyph glyph-name="ĉ" unicode="&#x109;" horiz-adv-x="506" d=" M215,634 L178,679 L327,792 L387,792 L506,679 L462,634 L349,718 M319,539 Q411,539 472,481 L423,424 Q378,463 320,463 Q273,463 237.5,437.5 Q202,412 183.5,370 Q165,328 156.5,284.5 Q148,241 148,196 Q148,66 255,66 Q311,66 377,107 L414,43 Q337,-12 249,-12 Q155,-12 103.5,44.5 Q52,101 52,203 Q52,258 67,314 Q82,370 112,422 Q142,474 196,506.5 Q250,539 319,539"/> 
            <glyph glyph-name="Ċ" unicode="&#x10A;" horiz-adv-x="579" d=" M425,781 Q398,781 382,797.5 Q366,814 366,838 Q366,867 386,886.5 Q406,906 435,906 Q462,906 478,890 Q494,874 494,849 Q494,820 474,800.5 Q454,781 425,781 M394,701 Q503,701 579,630 L525,577 Q466,623 398,623 Q346,623 304.5,600 Q263,577 236.5,540 Q210,503 192.5,454.5 Q175,406 167.5,357.5 Q160,309 160,260 Q160,161 201,114.5 Q242,68 312,68 Q384,68 467,127 L509,63 Q420,-12 306,-12 Q193,-12 127,61 Q61,134 61,268 Q61,325 72.5,383.5 Q84,442 110,499.5 Q136,557 173.5,601.5 Q211,646 268,673.5 Q325,701 394,701"/> 
            <glyph glyph-name="ċ" unicode="&#x10B;" horiz-adv-x="472" d=" M345,655 Q318,655 302,671.5 Q286,688 286,712 Q286,741 306,760.5 Q326,780 355,780 Q382,780 398,764 Q414,748 414,723 Q414,694 394,674.5 Q374,655 345,655 M319,539 Q411,539 472,481 L423,424 Q378,463 320,463 Q273,463 237.5,437.5 Q202,412 183.5,370 Q165,328 156.5,284.5 Q148,241 148,196 Q148,66 255,66 Q311,66 377,107 L414,43 Q337,-12 249,-12 Q155,-12 103.5,44.5 Q52,101 52,203 Q52,258 67,314 Q82,370 112,422 Q142,474 196,506.5 Q250,539 319,539"/> 
            <glyph glyph-name="Č" unicode="&#x10C;" horiz-adv-x="592" d=" M557,909 L592,864 L444,754 L384,754 L264,864 L307,909 L420,828 M394,701 Q503,701 579,630 L525,577 Q466,623 398,623 Q346,623 304.5,600 Q263,577 236.5,540 Q210,503 192.5,454.5 Q175,406 167.5,357.5 Q160,309 160,260 Q160,161 201,114.5 Q242,68 312,68 Q384,68 467,127 L509,63 Q420,-12 306,-12 Q193,-12 127,61 Q61,134 61,268 Q61,325 72.5,383.5 Q84,442 110,499.5 Q136,557 173.5,601.5 Q211,646 268,673.5 Q325,701 394,701"/> 
            <glyph glyph-name="č" unicode="&#x10D;" horiz-adv-x="512" d=" M478,785 L512,740 L363,627 L303,627 L184,740 L225,785 L338,701 M319,539 Q411,539 472,481 L423,424 Q378,463 320,463 Q273,463 237.5,437.5 Q202,412 183.5,370 Q165,328 156.5,284.5 Q148,241 148,196 Q148,66 255,66 Q311,66 377,107 L414,43 Q337,-12 249,-12 Q155,-12 103.5,44.5 Q52,101 52,203 Q52,258 67,314 Q82,370 112,422 Q142,474 196,506.5 Q250,539 319,539"/> 
            <glyph glyph-name="Ď" unicode="&#x10E;" horiz-adv-x="601" d=" M512,909 L547,864 L399,754 L339,754 L219,864 L262,909 L375,828 M300,689 Q364,689 414,678 Q464,667 508.5,639.5 Q553,612 577,558.5 Q601,505 601,428 Q601,360 588.5,298.5 Q576,237 547.5,182 Q519,127 477,87 Q435,47 371,23.5 Q307,0 228,0 L62,0 L159,689 M314,613 L242,613 L167,75 L242,75 Q314,75 367,106.5 Q420,138 449,191.5 Q478,245 491.5,304.5 Q505,364 505,430 Q505,488 489.5,526 Q474,564 444.5,582 Q415,600 385,606.5 Q355,613 314,613"/> 
            <glyph glyph-name="ď" unicode="&#x10F;" horiz-adv-x="700" d=" M618,749 L700,739 L628,555 L576,563 M470,748 L560,738 L456,0 L376,0 L377,87 Q317,-12 218,-12 Q138,-12 94.5,44 Q51,100 51,197 Q51,252 64.5,308.5 Q78,365 105.5,418.5 Q133,472 182.5,505.5 Q232,539 296,539 Q379,539 431,473 M313,466 Q268,466 234,438.5 Q200,411 182,367 Q164,323 156,278.5 Q148,234 148,190 Q148,61 236,61 Q282,61 317,91 Q352,121 391,183 L422,402 Q380,466 313,466"/> 
            <glyph glyph-name="Đ" unicode="&#x110;" horiz-adv-x="611" d=" M310,689 Q374,689 424,678 Q474,667 518.5,639.5 Q563,612 587,558.5 Q611,505 611,428 Q611,360 598.5,298.5 Q586,237 557.5,182 Q529,127 487,87 Q445,47 381,23.5 Q317,0 238,0 L72,0 L117,318 L29,318 L38,388 L127,388 L169,689 M252,75 Q324,75 377,106.5 Q430,138 459,191.5 Q488,245 501.5,304.5 Q515,364 515,430 Q515,488 499.5,526 Q484,564 454.5,582 Q425,600 395,606.5 Q365,613 324,613 L252,613 L221,388 L378,388 L369,318 L211,318 L177,75"/> 
            <glyph glyph-name="đ" unicode="&#x111;" horiz-adv-x="629" d=" M629,676 L619,606 L541,606 L456,0 L376,0 L377,87 Q317,-12 218,-12 Q138,-12 94.5,44 Q51,100 51,197 Q51,252 64.5,308.5 Q78,365 105.5,418.5 Q133,472 182.5,505.5 Q232,539 296,539 Q379,539 431,473 L450,606 L299,606 L299,676 L460,676 L470,748 L560,738 L551,676 M391,183 L422,402 Q380,466 313,466 Q268,466 234,438.5 Q200,411 182,367 Q164,323 156,278.5 Q148,234 148,190 Q148,61 236,61 Q282,61 317,91 Q352,121 391,183"/> 
            <glyph glyph-name="Ē" unicode="&#x112;" horiz-adv-x="528" d=" M499,793 L228,793 L237,862 L508,862 M528,689 L507,613 L242,613 L210,388 L440,388 L430,312 L200,312 L167,76 L450,76 L439,0 L62,0 L159,689"/> 
            <glyph glyph-name="ē" unicode="&#x113;" horiz-adv-x="490" d=" M479,736 L470,667 L199,667 L208,736 M490,405 Q490,362 471.5,328.5 Q453,295 423.5,273.5 Q394,252 347.5,236 Q301,220 255,211.5 Q209,203 148,196 Q151,65 262,65 Q334,65 403,114 L442,52 Q353,-12 253,-12 Q157,-12 104.5,44.5 Q52,101 52,202 Q52,260 67,316 Q82,372 112,423.5 Q142,475 197,507 Q252,539 323,539 Q403,539 446.5,500 Q490,461 490,405 M153,266 Q277,280 335.5,309 Q394,338 394,402 Q394,426 377,446 Q360,466 322,466 Q270,466 232.5,435 Q195,404 177.5,361.5 Q160,319 153,266"/> 
            <glyph glyph-name="Ĕ" unicode="&#x114;" horiz-adv-x="528" d=" M357,758 Q296,758 258.5,793 Q221,828 223,884 L282,892 Q296,828 359,828 Q430,828 462,896 L522,878 Q509,823 463,790.5 Q417,758 357,758 M528,689 L507,613 L242,613 L210,388 L440,388 L430,312 L200,312 L167,76 L450,76 L439,0 L62,0 L159,689"/> 
            <glyph glyph-name="ĕ" unicode="&#x115;" horiz-adv-x="494" d=" M327,643 Q266,643 229,680 Q192,717 194,779 L256,787 Q261,749 278.5,731 Q296,713 329,713 Q403,713 434,791 L494,773 Q479,712 433,677.5 Q387,643 327,643 M323,539 Q403,539 446.5,500 Q490,461 490,405 Q490,362 471.5,328.5 Q453,295 423.5,273.5 Q394,252 347.5,236 Q301,220 255,211.5 Q209,203 148,196 Q151,65 262,65 Q334,65 403,114 L442,52 Q353,-12 253,-12 Q157,-12 104.5,44.5 Q52,101 52,202 Q52,260 67,316 Q82,372 112,423.5 Q142,475 197,507 Q252,539 323,539 M153,266 Q277,280 335.5,309 Q394,338 394,402 Q394,426 377,446 Q360,466 322,466 Q270,466 232.5,435 Q195,404 177.5,361.5 Q160,319 153,266"/> 
            <glyph glyph-name="Ė" unicode="&#x116;" horiz-adv-x="528" d=" M367,781 Q340,781 324,797.5 Q308,814 308,838 Q308,867 328,886.5 Q348,906 377,906 Q404,906 420,890 Q436,874 436,849 Q436,820 416,800.5 Q396,781 367,781 M528,689 L507,613 L242,613 L210,388 L440,388 L430,312 L200,312 L167,76 L450,76 L439,0 L62,0 L159,689"/> 
            <glyph glyph-name="ė" unicode="&#x117;" horiz-adv-x="490" d=" M336,655 Q310,655 293.5,671.5 Q277,688 277,712 Q277,741 297,760.5 Q317,780 346,780 Q372,780 388.5,764 Q405,748 405,723 Q405,694 385,674.5 Q365,655 336,655 M490,405 Q490,362 471.5,328.5 Q453,295 423.5,273.5 Q394,252 347.5,236 Q301,220 255,211.5 Q209,203 148,196 Q151,65 262,65 Q334,65 403,114 L442,52 Q353,-12 253,-12 Q157,-12 104.5,44.5 Q52,101 52,202 Q52,260 67,316 Q82,372 112,423.5 Q142,475 197,507 Q252,539 323,539 Q403,539 446.5,500 Q490,461 490,405 M153,266 Q277,280 335.5,309 Q394,338 394,402 Q394,426 377,446 Q360,466 322,466 Q270,466 232.5,435 Q195,404 177.5,361.5 Q160,319 153,266"/> 
            <glyph glyph-name="Ę" unicode="&#x118;" horiz-adv-x="528" d=" M507,613 L242,613 L210,388 L440,388 L430,312 L200,312 L167,76 L450,76 L439,0 L401,0 Q316,-35 287.5,-65.5 Q259,-96 259,-126 Q259,-161 306,-161 Q331,-161 369,-153 L354,-225 Q324,-231 293,-231 Q240,-231 209.5,-204.5 Q179,-178 179,-137 Q179,-52 289,0 L62,0 L159,689 L528,689"/> 
            <glyph glyph-name="ę" unicode="&#x119;" horiz-adv-x="490" d=" M490,405 Q490,362 471.5,328.5 Q453,295 423.5,273.5 Q394,252 347.5,236 Q301,220 255,211.5 Q209,203 148,196 Q151,65 262,65 Q334,65 403,114 L442,52 Q390,15 334,-1 Q272,-30 249.5,-55 Q227,-80 227,-108 Q227,-156 283,-156 Q310,-156 344,-149 L335,-219 Q300,-226 272,-226 Q215,-226 181,-197.5 Q147,-169 147,-125 Q147,-54 230,-11 Q145,-4 98.5,52 Q52,108 52,202 Q52,260 67,316 Q82,372 112,423.5 Q142,475 197,507 Q252,539 323,539 Q403,539 446.5,500 Q490,461 490,405 M153,266 Q277,280 335.5,309 Q394,338 394,402 Q394,426 377,446 Q360,466 322,466 Q270,466 232.5,435 Q195,404 177.5,361.5 Q160,319 153,266"/> 
            <glyph glyph-name="Ě" unicode="&#x11A;" horiz-adv-x="534" d=" M499,909 L534,864 L386,754 L326,754 L206,864 L249,909 L362,828 M528,689 L507,613 L242,613 L210,388 L440,388 L430,312 L200,312 L167,76 L450,76 L439,0 L62,0 L159,689"/> 
            <glyph glyph-name="ě" unicode="&#x11B;" horiz-adv-x="503" d=" M354,627 L294,627 L175,740 L216,785 L329,701 L469,785 L503,740 M323,539 Q403,539 446.5,500 Q490,461 490,405 Q490,362 471.5,328.5 Q453,295 423.5,273.5 Q394,252 347.5,236 Q301,220 255,211.5 Q209,203 148,196 Q151,65 262,65 Q334,65 403,114 L442,52 Q353,-12 253,-12 Q157,-12 104.5,44.5 Q52,101 52,202 Q52,260 67,316 Q82,372 112,423.5 Q142,475 197,507 Q252,539 323,539 M153,266 Q277,280 335.5,309 Q394,338 394,402 Q394,426 377,446 Q360,466 322,466 Q270,466 232.5,435 Q195,404 177.5,361.5 Q160,319 153,266"/> 
            <glyph glyph-name="Ĝ" unicode="&#x11C;" horiz-adv-x="607" d=" M297,759 L260,804 L409,914 L469,914 L588,804 L547,759 L432,840 M405,701 Q525,701 607,622 L548,571 Q513,599 481,611 Q449,623 406,623 Q342,623 292.5,588 Q243,553 215,496.5 Q187,440 173,376.5 Q159,313 159,247 Q159,153 198,109.5 Q237,66 315,66 Q386,66 446,100 L476,305 L356,305 L356,382 L580,382 L535,54 Q432,-12 302,-12 Q189,-12 124.5,57.5 Q60,127 60,259 Q60,320 72.5,381 Q85,442 112,500 Q139,558 178.5,602.5 Q218,647 276.5,674 Q335,701 405,701"/> 
            <glyph glyph-name="ĝ" unicode="&#x11D;" horiz-adv-x="523" d=" M222,634 L185,679 L334,792 L394,792 L513,679 L469,634 L356,718 M337,539 Q430,539 523,494 L450,12 Q416,-216 209,-216 Q109,-216 27,-165 L62,-95 Q133,-137 204,-137 Q233,-137 256,-131.5 Q279,-126 301.5,-111 Q324,-96 339.5,-64.5 Q355,-33 361,13 L370,80 Q304,0 220,0 Q141,0 96,53.5 Q51,107 51,198 Q51,247 60.5,294 Q70,341 92,386 Q114,431 146.5,464.5 Q179,498 228,518.5 Q277,539 337,539 M337,466 Q274,466 229.5,424.5 Q185,383 167,324 Q149,265 149,197 Q149,73 239,73 Q309,73 383,172 L426,449 Q383,466 337,466"/> 
            <glyph glyph-name="Ğ" unicode="&#x11E;" horiz-adv-x="607" d=" M422,758 Q361,758 323.5,793 Q286,828 288,884 L347,892 Q361,828 424,828 Q495,828 527,896 L587,878 Q574,823 528,790.5 Q482,758 422,758 M405,701 Q525,701 607,622 L548,571 Q513,599 481,611 Q449,623 406,623 Q342,623 292.5,588 Q243,553 215,496.5 Q187,440 173,376.5 Q159,313 159,247 Q159,153 198,109.5 Q237,66 315,66 Q386,66 446,100 L476,305 L356,305 L356,382 L580,382 L535,54 Q432,-12 302,-12 Q189,-12 124.5,57.5 Q60,127 60,259 Q60,320 72.5,381 Q85,442 112,500 Q139,558 178.5,602.5 Q218,647 276.5,674 Q335,701 405,701"/> 
            <glyph glyph-name="ğ" unicode="&#x11F;" horiz-adv-x="523" d=" M343,643 Q282,643 245,680 Q208,717 210,779 L272,787 Q277,749 294.5,731 Q312,713 345,713 Q419,713 450,791 L510,773 Q495,712 449,677.5 Q403,643 343,643 M337,539 Q430,539 523,494 L450,12 Q416,-216 209,-216 Q109,-216 27,-165 L62,-95 Q133,-137 204,-137 Q233,-137 256,-131.5 Q279,-126 301.5,-111 Q324,-96 339.5,-64.5 Q355,-33 361,13 L370,80 Q304,0 220,0 Q141,0 96,53.5 Q51,107 51,198 Q51,247 60.5,294 Q70,341 92,386 Q114,431 146.5,464.5 Q179,498 228,518.5 Q277,539 337,539 M337,466 Q274,466 229.5,424.5 Q185,383 167,324 Q149,265 149,197 Q149,73 239,73 Q309,73 383,172 L426,449 Q383,466 337,466"/> 
            <glyph glyph-name="Ġ" unicode="&#x120;" horiz-adv-x="607" d=" M432,781 Q406,781 389.5,797.5 Q373,814 373,838 Q373,867 393,886.5 Q413,906 442,906 Q468,906 484.5,890 Q501,874 501,849 Q501,820 481,800.5 Q461,781 432,781 M405,701 Q525,701 607,622 L548,571 Q513,599 481,611 Q449,623 406,623 Q342,623 292.5,588 Q243,553 215,496.5 Q187,440 173,376.5 Q159,313 159,247 Q159,153 198,109.5 Q237,66 315,66 Q386,66 446,100 L476,305 L356,305 L356,382 L580,382 L535,54 Q432,-12 302,-12 Q189,-12 124.5,57.5 Q60,127 60,259 Q60,320 72.5,381 Q85,442 112,500 Q139,558 178.5,602.5 Q218,647 276.5,674 Q335,701 405,701"/> 
            <glyph glyph-name="ġ" unicode="&#x121;" horiz-adv-x="523" d=" M352,655 Q326,655 309.5,671.5 Q293,688 293,712 Q293,741 313,760.5 Q333,780 362,780 Q388,780 404.5,764 Q421,748 421,723 Q421,694 401,674.5 Q381,655 352,655 M337,539 Q430,539 523,494 L450,12 Q416,-216 209,-216 Q109,-216 27,-165 L62,-95 Q133,-137 204,-137 Q233,-137 256,-131.5 Q279,-126 301.5,-111 Q324,-96 339.5,-64.5 Q355,-33 361,13 L370,80 Q304,0 220,0 Q141,0 96,53.5 Q51,107 51,198 Q51,247 60.5,294 Q70,341 92,386 Q114,431 146.5,464.5 Q179,498 228,518.5 Q277,539 337,539 M337,466 Q274,466 229.5,424.5 Q185,383 167,324 Q149,265 149,197 Q149,73 239,73 Q309,73 383,172 L426,449 Q383,466 337,466"/> 
            <glyph glyph-name="Ģ" unicode="&#x122;" horiz-adv-x="607" d=" M405,701 Q525,701 607,622 L548,571 Q513,599 481,611 Q449,623 406,623 Q342,623 292.5,588 Q243,553 215,496.5 Q187,440 173,376.5 Q159,313 159,247 Q159,153 198,109.5 Q237,66 315,66 Q386,66 446,100 L476,305 L356,305 L356,382 L580,382 L535,54 Q432,-12 302,-12 Q189,-12 124.5,57.5 Q60,127 60,259 Q60,320 72.5,381 Q85,442 112,500 Q139,558 178.5,602.5 Q218,647 276.5,674 Q335,701 405,701 M292,-77 Q316,-77 330,-93 Q344,-109 344,-129 Q344,-157 308,-214 L256,-296 L202,-296 L250,-178 Q231,-159 231,-136 Q231,-111 249,-94 Q267,-77 292,-77"/> 
            <glyph glyph-name="ģ" unicode="&#x123;" horiz-adv-x="523" d=" M342,583 Q318,583 304,599 Q290,615 290,635 Q290,663 326,720 L378,802 L432,802 L384,684 Q403,665 403,642 Q403,617 385,600 Q367,583 342,583 M337,539 Q430,539 523,494 L450,12 Q416,-216 209,-216 Q109,-216 27,-165 L62,-95 Q133,-137 204,-137 Q233,-137 256,-131.5 Q279,-126 301.5,-111 Q324,-96 339.5,-64.5 Q355,-33 361,13 L370,80 Q304,0 220,0 Q141,0 96,53.5 Q51,107 51,198 Q51,247 60.5,294 Q70,341 92,386 Q114,431 146.5,464.5 Q179,498 228,518.5 Q277,539 337,539 M337,466 Q274,466 229.5,424.5 Q185,383 167,324 Q149,265 149,197 Q149,73 239,73 Q309,73 383,172 L426,449 Q383,466 337,466"/> 
            <glyph glyph-name="Ĥ" unicode="&#x124;" horiz-adv-x="635" d=" M282,759 L245,804 L394,914 L454,914 L573,804 L532,759 L417,840 M156,0 L62,0 L159,689 L253,689 L212,401 L500,401 L541,689 L635,689 L538,0 L444,0 L489,323 L201,323"/> 
            <glyph glyph-name="ĥ" unicode="&#x125;" horiz-adv-x="532" d=" M241,809 L204,854 L353,964 L413,964 L532,854 L491,809 L376,890 M381,539 Q450,539 484,494.5 Q518,450 507,373 L454,0 L363,0 L415,368 Q428,462 362,462 Q273,462 191,316 L148,0 L57,0 L161,738 L253,748 L207,428 Q281,539 381,539"/> 
            <glyph glyph-name="Ħ" unicode="&#x126;" horiz-adv-x="691" d=" M691,577 L681,508 L613,508 L541,0 L447,0 L492,323 L204,323 L159,0 L65,0 L137,508 L69,508 L79,577 L146,577 L162,689 L256,689 L240,577 L528,577 L544,689 L638,689 L622,577 M503,401 L518,508 L230,508 L215,401"/> 
            <glyph glyph-name="ħ" unicode="&#x127;" horiz-adv-x="526" d=" M389,539 Q458,539 492,494.5 Q526,450 515,373 L462,0 L371,0 L423,368 Q436,462 370,462 Q281,462 199,316 L156,0 L65,0 L150,606 L72,606 L82,676 L160,676 L169,738 L261,748 L251,676 L403,676 L384,606 L241,606 L215,428 Q289,539 389,539"/> 
            <glyph glyph-name="Ĩ" unicode="&#x128;" horiz-adv-x="397" d=" M284,782 Q251,782 218,806 Q185,830 173,830 Q142,830 110,782 L58,814 Q111,900 175,900 Q207,900 238,876 Q269,852 282,852 Q311,852 343,898 L397,866 Q347,782 284,782 M253,689 L156,0 L62,0 L159,689"/> 
            <glyph glyph-name="ĩ" unicode="&#x129;" horiz-adv-x="372" d=" M259,656 Q226,656 193,680 Q160,704 148,704 Q117,704 85,656 L33,688 Q86,774 150,774 Q182,774 213,750 Q244,726 257,726 Q286,726 318,772 L372,740 Q322,656 259,656 M222,527 L148,0 L57,0 L131,527"/> 
            <glyph glyph-name="Ī" unicode="&#x12A;" horiz-adv-x="367" d=" M358,793 L87,793 L96,862 L367,862 M253,689 L156,0 L62,0 L159,689"/> 
            <glyph glyph-name="ī" unicode="&#x12B;" horiz-adv-x="341" d=" M332,667 L61,667 L70,736 L341,736 M222,527 L148,0 L57,0 L131,527"/> 
            <glyph glyph-name="Ĭ" unicode="&#x12C;" horiz-adv-x="381" d=" M216,758 Q155,758 117.5,793 Q80,828 82,884 L141,892 Q155,828 218,828 Q289,828 321,896 L381,878 Q368,823 322,790.5 Q276,758 216,758 M253,689 L156,0 L62,0 L159,689"/> 
            <glyph glyph-name="ĭ" unicode="&#x12D;" horiz-adv-x="356" d=" M189,643 Q128,643 91,680 Q54,717 56,779 L118,787 Q123,749 140.5,731 Q158,713 191,713 Q265,713 296,791 L356,773 Q341,712 295,677.5 Q249,643 189,643 M222,527 L148,0 L57,0 L131,527"/> 
            <glyph glyph-name="Į" unicode="&#x12E;" horiz-adv-x="253" d=" M159,689 L253,689 L156,0 L136,0 Q51,-35 22.5,-65.5 Q-6,-96 -6,-126 Q-6,-161 41,-161 Q66,-161 104,-153 L89,-225 Q59,-231 28,-231 Q-25,-231 -55.5,-204.5 Q-86,-178 -86,-137 Q-86,-39 64,17"/> 
            <glyph glyph-name="į" unicode="&#x12F;" horiz-adv-x="267" d=" M208,780 Q234,780 250.5,764 Q267,748 267,723 Q267,694 247,674.5 Q227,655 198,655 Q172,655 155.5,671.5 Q139,688 139,712 Q139,741 159,760.5 Q179,780 208,780 M60,21 L131,527 L222,527 L148,0 L119,0 Q34,-35 5.5,-65.5 Q-23,-96 -23,-126 Q-23,-161 24,-161 Q49,-161 87,-153 L72,-225 Q42,-231 11,-231 Q-42,-231 -72.5,-204.5 Q-103,-178 -103,-137 Q-103,-35 60,21"/> 
            <glyph glyph-name="İ" unicode="&#x130;" horiz-adv-x="295" d=" M226,781 Q200,781 183.5,797.5 Q167,814 167,838 Q167,867 187,886.5 Q207,906 236,906 Q262,906 278.5,890 Q295,874 295,849 Q295,820 275,800.5 Q255,781 226,781 M253,689 L156,0 L62,0 L159,689"/> 
            <glyph glyph-name="ı" unicode="&#x131;" horiz-adv-x="222" d=" M222,527 L148,0 L57,0 L131,527"/> 
            <glyph glyph-name="Ĳ" unicode="&#x132;" horiz-adv-x="558" d=" M253,689 L156,0 L62,0 L159,689 M558,689 L474,93 Q460,-9 409.5,-59 Q359,-109 266,-138 L247,-67 Q317,-41 344.5,-4.5 Q372,32 381,103 L464,689"/> 
            <glyph glyph-name="ĳ" unicode="&#x133;" horiz-adv-x="547" d=" M198,655 Q172,655 155.5,671.5 Q139,688 139,712 Q139,741 159,760.5 Q179,780 208,780 Q234,780 250.5,764 Q267,748 267,723 Q267,694 247,674.5 Q227,655 198,655 M478,655 Q452,655 435.5,671.5 Q419,688 419,712 Q419,741 439,760.5 Q459,780 488,780 Q514,780 530.5,764 Q547,748 547,723 Q547,694 527,674.5 Q507,655 478,655 M222,527 L148,0 L57,0 L131,527 M234,-213 L208,-145 Q270,-117 299.5,-83 Q329,-49 340,29 L410,527 L501,527 L431,29 Q416,-76 373,-124 Q330,-172 234,-213"/> 
            <glyph glyph-name="Ĵ" unicode="&#x134;" horiz-adv-x="395" d=" M104,759 L67,804 L216,914 L276,914 L395,804 L354,759 L239,840 M266,689 L182,93 Q168,-9 117.5,-59 Q67,-109 -26,-138 L-45,-67 Q25,-41 52.5,-4.5 Q80,32 89,103 L172,689"/> 
            <glyph glyph-name="ĵ" unicode="&#x135;" horiz-adv-x="360" d=" M69,634 L32,679 L181,792 L241,792 L360,679 L316,634 L203,718 M-45,-213 L-71,-145 Q-9,-117 20.5,-83 Q50,-49 61,29 L131,527 L222,527 L152,29 Q137,-76 94,-124 Q51,-172 -45,-213"/> 
            <glyph glyph-name="Ķ" unicode="&#x136;" horiz-adv-x="626" d=" M62,0 L159,689 L254,689 L157,0 M434,0 L213,368 L515,689 L626,689 L319,365 L546,0 M264,-77 Q288,-77 302,-93 Q316,-109 316,-129 Q316,-157 280,-214 L228,-296 L174,-296 L222,-178 Q203,-159 203,-136 Q203,-111 221,-94 Q239,-77 264,-77"/> 
            <glyph glyph-name="ķ" unicode="&#x137;" horiz-adv-x="517" d=" M253,750 L209,435 Q282,539 389,539 Q445,539 481,505.5 Q517,472 517,419 Q517,355 476,307 Q435,259 354,233 L473,0 L371,0 L245,257 Q338,283 379,318.5 Q420,354 420,409 Q420,466 363,466 Q318,466 271,427.5 Q224,389 192,316 L148,0 L57,0 L161,739 M240,-77 Q264,-77 278,-93 Q292,-109 292,-129 Q292,-157 256,-214 L204,-296 L150,-296 L198,-178 Q179,-159 179,-136 Q179,-111 197,-94 Q215,-77 240,-77"/> 
            <glyph glyph-name="ĸ" unicode="&#x138;" horiz-adv-x="520" d=" M222,527 L148,0 L57,0 L131,527 M520,527 L293,278 L466,0 L362,0 L190,278 L411,527"/> 
            <glyph glyph-name="Ĺ" unicode="&#x139;" horiz-adv-x="448" d=" M313,908 L343,831 L123,755 L104,804 M253,689 L168,83 L448,83 L426,0 L62,0 L159,689"/> 
            <glyph glyph-name="ĺ" unicode="&#x13A;" horiz-adv-x="339" d=" M309,958 L339,881 L119,805 L100,854 M249,750 L158,103 Q156,81 161,72.5 Q166,64 182,64 Q197,64 218,71 L237,5 Q199,-12 164,-12 Q110,-12 85,21 Q60,54 69,118 L157,739"/> 
            <glyph glyph-name="Ļ" unicode="&#x13B;" horiz-adv-x="448" d=" M253,689 L168,83 L448,83 L426,0 L62,0 L159,689 M233,-77 Q257,-77 271,-93 Q285,-109 285,-129 Q285,-157 249,-214 L197,-296 L143,-296 L191,-178 Q172,-159 172,-136 Q172,-111 190,-94 Q208,-77 233,-77"/> 
            <glyph glyph-name="ļ" unicode="&#x13C;" horiz-adv-x="249" d=" M249,750 L158,103 Q156,81 161,72.5 Q166,64 182,64 Q197,64 218,71 L237,5 Q199,-12 164,-12 Q110,-12 85,21 Q60,54 69,118 L157,739 M147,-77 Q171,-77 185,-93 Q199,-109 199,-129 Q199,-157 163,-214 L111,-296 L57,-296 L105,-178 Q86,-159 86,-136 Q86,-111 104,-94 Q122,-77 147,-77"/> 
            <glyph glyph-name="Ľ" unicode="&#x13D;" horiz-adv-x="448" d=" M326,699 L408,689 L336,505 L284,513 M253,689 L168,83 L448,83 L426,0 L62,0 L159,689"/> 
            <glyph glyph-name="ľ" unicode="&#x13E;" horiz-adv-x="387" d=" M249,750 L158,103 Q156,81 161,72.5 Q166,64 182,64 Q197,64 218,71 L237,5 Q199,-12 164,-12 Q110,-12 85,21 Q60,54 69,118 L157,739 M305,749 L387,739 L315,555 L263,563"/> 
            <glyph glyph-name="Ŀ" unicode="&#x13F;" horiz-adv-x="465" d=" M253,689 L168,83 L448,83 L426,0 L62,0 L159,689 M396,325 Q370,325 353.5,341.5 Q337,358 337,382 Q337,411 357,430.5 Q377,450 406,450 Q432,450 448.5,434 Q465,418 465,393 Q465,364 445,344.5 Q425,325 396,325"/> 
            <glyph glyph-name="ŀ" unicode="&#x140;" horiz-adv-x="372" d=" M249,750 L158,103 Q156,81 161,72.5 Q166,64 182,64 Q197,64 218,71 L237,5 Q199,-12 164,-12 Q110,-12 85,21 Q60,54 69,118 L157,739 M303,315 Q276,315 260,331.5 Q244,348 244,372 Q244,401 264,420.5 Q284,440 313,440 Q340,440 356,424 Q372,408 372,383 Q372,354 352,334.5 Q332,315 303,315"/> 
            <glyph glyph-name="Ł" unicode="&#x141;" horiz-adv-x="458" d=" M178,83 L458,83 L436,0 L72,0 L108,254 L52,222 L22,282 L120,338 L169,689 L263,689 L222,397 L397,498 L427,438 L210,313"/> 
            <glyph glyph-name="ł" unicode="&#x142;" horiz-adv-x="308" d=" M182,64 Q197,64 218,71 L237,5 Q199,-12 164,-12 Q110,-12 85,21 Q60,54 69,118 L95,303 L46,275 L24,341 L107,389 L157,739 L249,750 L206,445 L286,491 L308,425 L194,360 L158,103 Q156,81 161,72.5 Q166,64 182,64"/> 
            <glyph glyph-name="Ń" unicode="&#x143;" horiz-adv-x="638" d=" M517,908 L547,831 L327,755 L308,804 M638,689 L541,0 L418,0 L221,607 Q220,488 195,313 L151,0 L62,0 L159,689 L283,689 L481,81 Q481,201 496,316 L549,689"/> 
            <glyph glyph-name="ń" unicode="&#x144;" horiz-adv-x="517" d=" M445,801 L475,724 L255,638 L234,687 M384,539 Q451,539 484,493.5 Q517,448 506,370 L454,0 L363,0 L415,368 Q428,462 359,462 Q274,462 192,316 L148,0 L57,0 L131,527 L209,527 L201,424 Q283,539 384,539"/> 
            <glyph glyph-name="Ņ" unicode="&#x145;" horiz-adv-x="638" d=" M638,689 L541,0 L418,0 L221,607 Q220,488 195,313 L151,0 L62,0 L159,689 L283,689 L481,81 Q481,201 496,316 L549,689 M292,-77 Q316,-77 330,-93 Q344,-109 344,-129 Q344,-157 308,-214 L256,-296 L202,-296 L250,-178 Q231,-159 231,-136 Q231,-111 249,-94 Q267,-77 292,-77"/> 
            <glyph glyph-name="ņ" unicode="&#x146;" horiz-adv-x="517" d=" M384,539 Q451,539 484,493.5 Q517,448 506,370 L454,0 L363,0 L415,368 Q428,462 359,462 Q274,462 192,316 L148,0 L57,0 L131,527 L209,527 L201,424 Q283,539 384,539 M244,-77 Q268,-77 282,-93 Q296,-109 296,-129 Q296,-157 260,-214 L208,-296 L154,-296 L202,-178 Q183,-159 183,-136 Q183,-111 201,-94 Q219,-77 244,-77"/> 
            <glyph glyph-name="Ň" unicode="&#x147;" horiz-adv-x="638" d=" M562,909 L597,864 L449,754 L389,754 L269,864 L312,909 L425,828 M638,689 L541,0 L418,0 L221,607 Q220,488 195,313 L151,0 L62,0 L159,689 L283,689 L481,81 Q481,201 496,316 L549,689"/> 
            <glyph glyph-name="ň" unicode="&#x148;" horiz-adv-x="517" d=" M482,785 L516,740 L367,627 L307,627 L188,740 L229,785 L342,701 M384,539 Q451,539 484,493.5 Q517,448 506,370 L454,0 L363,0 L415,368 Q428,462 359,462 Q274,462 192,316 L148,0 L57,0 L131,527 L209,527 L201,424 Q283,539 384,539"/> 
            <glyph glyph-name="ŉ" unicode="&#x149;" horiz-adv-x="627" d=" M166,753 Q191,753 206.5,735.5 Q222,718 218,692 Q215,670 183,618 L131,534 L77,534 L124,652 Q102,674 106,702 Q109,724 126,738.5 Q143,753 166,753 M494,539 Q561,539 594,493.5 Q627,448 616,370 L564,0 L473,0 L525,368 Q538,462 469,462 Q384,462 302,316 L258,0 L167,0 L241,527 L319,527 L311,424 Q393,539 494,539"/> 
            <glyph glyph-name="Ŋ" unicode="&#x14A;" horiz-adv-x="638" d=" M549,689 L638,689 L541,0 L533,-60 Q522,-137 478,-175 Q434,-213 365,-213 Q302,-213 254,-173 L295,-115 Q328,-137 363,-137 Q427,-137 439,-60 L447,0 L418,0 L221,607 Q220,488 195,313 L151,0 L62,0 L159,689 L283,689 L481,81 Q481,201 496,316"/> 
            <glyph glyph-name="ŋ" unicode="&#x14B;" horiz-adv-x="517" d=" M384,539 Q451,539 484,493.5 Q517,448 506,370 L454,0 L446,-60 Q435,-136 390.5,-174.5 Q346,-213 278,-213 Q215,-213 167,-173 L208,-117 Q241,-139 274,-139 Q344,-139 354,-62 L363,0 L415,368 Q428,462 359,462 Q274,462 192,316 L148,0 L57,0 L131,527 L209,527 L201,424 Q283,539 384,539"/> 
            <glyph glyph-name="Ō" unicode="&#x14C;" horiz-adv-x="648" d=" M559,793 L288,793 L297,862 L568,862 M402,701 Q516,701 582,628 Q648,555 648,421 Q648,363 637.5,305.5 Q627,248 601.5,190 Q576,132 538,88 Q500,44 440.5,16 Q381,-12 308,-12 Q194,-12 127.5,60 Q61,132 61,265 Q61,321 71.5,378 Q82,435 108,494 Q134,553 171.5,598.5 Q209,644 269,672.5 Q329,701 402,701 M398,623 Q344,623 301.5,598.5 Q259,574 233,536.5 Q207,499 189.5,449.5 Q172,400 165.5,354 Q159,308 159,262 Q159,66 311,66 Q378,66 427.5,102 Q477,138 502,195.5 Q527,253 538.5,311 Q550,369 550,428 Q550,623 398,623"/> 
            <glyph glyph-name="ō" unicode="&#x14D;" horiz-adv-x="526" d=" M482,667 L211,667 L220,736 L491,736 M254,-12 Q157,-12 104.5,46 Q52,104 52,206 Q52,248 60.5,291 Q69,334 89.5,379 Q110,424 140,459 Q170,494 218,516.5 Q266,539 325,539 Q422,539 474,481 Q526,423 526,321 Q526,280 518,237.5 Q510,195 489.5,149.5 Q469,104 439.5,68.5 Q410,33 361.5,10.5 Q313,-12 254,-12 M257,62 Q305,62 341,89 Q377,116 395,159.5 Q413,203 421.5,246 Q430,289 430,331 Q430,465 322,465 Q274,465 237.5,438 Q201,411 183,367.5 Q165,324 156.5,281 Q148,238 148,196 Q148,62 257,62"/> 
            <glyph glyph-name="Ŏ" unicode="&#x14E;" horiz-adv-x="648" d=" M417,758 Q356,758 318.5,793 Q281,828 283,884 L342,892 Q356,828 419,828 Q490,828 522,896 L582,878 Q569,823 523,790.5 Q477,758 417,758 M402,701 Q516,701 582,628 Q648,555 648,421 Q648,363 637.5,305.5 Q627,248 601.5,190 Q576,132 538,88 Q500,44 440.5,16 Q381,-12 308,-12 Q194,-12 127.5,60 Q61,132 61,265 Q61,321 71.5,378 Q82,435 108,494 Q134,553 171.5,598.5 Q209,644 269,672.5 Q329,701 402,701 M398,623 Q344,623 301.5,598.5 Q259,574 233,536.5 Q207,499 189.5,449.5 Q172,400 165.5,354 Q159,308 159,262 Q159,66 311,66 Q378,66 427.5,102 Q477,138 502,195.5 Q527,253 538.5,311 Q550,369 550,428 Q550,623 398,623"/> 
            <glyph glyph-name="ŏ" unicode="&#x14F;" horiz-adv-x="526" d=" M339,643 Q278,643 241,680 Q204,717 206,779 L268,787 Q273,749 290.5,731 Q308,713 341,713 Q415,713 446,791 L506,773 Q491,712 445,677.5 Q399,643 339,643 M254,-12 Q157,-12 104.5,46 Q52,104 52,206 Q52,248 60.5,291 Q69,334 89.5,379 Q110,424 140,459 Q170,494 218,516.5 Q266,539 325,539 Q422,539 474,481 Q526,423 526,321 Q526,280 518,237.5 Q510,195 489.5,149.5 Q469,104 439.5,68.5 Q410,33 361.5,10.5 Q313,-12 254,-12 M257,62 Q305,62 341,89 Q377,116 395,159.5 Q413,203 421.5,246 Q430,289 430,331 Q430,465 322,465 Q274,465 237.5,438 Q201,411 183,367.5 Q165,324 156.5,281 Q148,238 148,196 Q148,62 257,62"/> 
            <glyph glyph-name="Ő" unicode="&#x150;" horiz-adv-x="648" d=" M411,958 L483,917 L368,765 L312,790 M561,958 L634,917 L508,760 L453,785 M402,701 Q516,701 582,628 Q648,555 648,421 Q648,363 637.5,305.5 Q627,248 601.5,190 Q576,132 538,88 Q500,44 440.5,16 Q381,-12 308,-12 Q194,-12 127.5,60 Q61,132 61,265 Q61,321 71.5,378 Q82,435 108,494 Q134,553 171.5,598.5 Q209,644 269,672.5 Q329,701 402,701 M398,623 Q344,623 301.5,598.5 Q259,574 233,536.5 Q207,499 189.5,449.5 Q172,400 165.5,354 Q159,308 159,262 Q159,66 311,66 Q378,66 427.5,102 Q477,138 502,195.5 Q527,253 538.5,311 Q550,369 550,428 Q550,623 398,623"/> 
            </font>
</defs>
</svg>
