<?xml version="1.0" standalone="no"?>
<!DOCTYPE svg PUBLIC "-//W3C//DTD SVG 1.1//EN" "http://www.w3.org/Graphics/SVG/1.1/DTD/svg11.dtd" >
<svg xmlns="http://www.w3.org/2000/svg">
    <defs>
        <font id="FiraSans-Light">
            <font-face font-family="FiraSans-Light"
                       units-per-em="1000"
                       ascent="935"
                       descent="-265"
                       bbox="-734 -350 1360 1057"
                    />
            <missing-glyph horiz-adv-x="0" />
            
            <glyph glyph-name="!" unicode="&#x21;" horiz-adv-x="168" d=" M150,685 L146,218 L93,218 L88,685 M120,84 Q141,84 154.5,70.5 Q168,57 168,37 Q168,17 154.5,3 Q141,-11 120,-11 Q100,-11 86,3 Q72,17 72,37 Q72,57 86,70.5 Q100,84 120,84"/> 
            <glyph glyph-name="&quot;" unicode="&#x22;" horiz-adv-x="291" d=" M80,434 L71,685 L133,685 L124,434 M238,434 L229,685 L291,685 L282,434"/> 
            <glyph glyph-name="#" unicode="&#x23;" horiz-adv-x="488" d=" M488,452 L410,452 L380,226 L451,226 L451,180 L374,180 L350,0 L298,0 L322,180 L139,180 L115,0 L63,0 L87,180 L15,180 L15,226 L93,226 L123,452 L52,452 L52,499 L129,499 L151,665 L203,665 L181,499 L364,499 L386,665 L438,665 L416,499 L488,499 M328,226 L358,452 L175,452 L145,226"/> 
            <glyph glyph-name="$" unicode="&#x24;" horiz-adv-x="472" d=" M472,182 Q472,105 422.5,53.5 Q373,2 289,-9 L289,-151 L238,-151 L238,-11 Q121,-7 39,72 L74,109 Q149,39 250,39 Q322,39 367,76.5 Q412,114 412,180 Q412,239 378.5,270 Q345,301 254,329 Q152,361 108.5,401.5 Q65,442 65,511 Q65,578 112.5,623 Q160,668 238,674 L238,819 L289,819 L289,674 Q379,666 451,601 L416,564 Q351,625 261,625 Q200,625 162.5,595 Q125,565 125,513 Q125,462 157.5,434 Q190,406 279,379 Q379,347 425.5,305.5 Q472,264 472,182"/> 
            <glyph glyph-name="%" unicode="&#x25;" horiz-adv-x="740" d=" M610,703 L653,676 L189,-24 L147,4 M203,676 Q270,676 311,632 Q352,588 352,514 Q352,440 311.5,395.5 Q271,351 203,351 Q136,351 94.5,395 Q53,439 53,513 Q53,587 94,631.5 Q135,676 203,676 M253,634 Q153,634 130,600 Q107,566 107,513 Q107,461 130,427 Q153,393 203,393 Q253,393 275.5,427 Q298,461 298,514 Q298,566 253,634 M590,314 Q657,314 698.5,270 Q740,226 740,153 Q740,78 699,33.5 Q658,-11 590,-11 Q524,-11 482.5,33.5 Q441,78 441,151 Q441,226 481.5,270 Q522,314 590,314 M590,272 Q541,272 518,238 Q495,204 495,151 Q495,99 518,65 Q541,31 590,31 Q640,31 663,65 Q686,99 686,153 Q686,204 663,238 Q640,272 590,272"/> 
            <glyph glyph-name="&amp;" unicode="&#x26;" horiz-adv-x="679" d=" M301,696 Q374,696 420.5,654.5 Q467,613 467,548 Q467,491 429.5,449 Q392,407 314,364 L519,172 Q563,262 585,362 L640,346 Q608,226 555,137 L679,23 L636,-11 L524,94 Q436,-11 300,-11 Q209,-11 149.5,39.5 Q90,90 90,171 Q90,235 126,281.5 Q162,328 234,370 Q179,422 156,458.5 Q133,495 133,544 Q133,610 179,653 Q225,696 301,696 M301,651 Q251,651 221,620.5 Q191,590 191,545 Q191,507 209.5,476.5 Q228,446 280,396 Q347,433 378.5,467.5 Q410,502 410,546 Q410,595 379.5,623 Q349,651 301,651 M269,338 Q209,302 179.5,262.5 Q150,223 150,173 Q150,112 193.5,74.5 Q237,37 305,37 Q414,37 488,127"/> 
            <glyph glyph-name="'" unicode="&#x27;" horiz-adv-x="133" d=" M80,434 L71,685 L133,685 L124,434"/> 
            <glyph glyph-name="(" unicode="&#x28;" horiz-adv-x="270" d=" M233,837 L270,813 Q217,734 188,680.5 Q159,627 136.5,540 Q114,453 114,350 Q114,247 136.5,160.5 Q159,74 188,20 Q217,-34 270,-113 L233,-137 Q196,-85 176,-55.5 Q156,-26 129,24.5 Q102,75 88.5,118 Q75,161 64.5,221.5 Q54,282 54,350 Q54,418 64.5,478.5 Q75,539 88.5,582 Q102,625 129,675.5 Q156,726 176,755.5 Q196,785 233,837"/> 
            <glyph glyph-name=")" unicode="&#x29;" horiz-adv-x="270" d=" M91,837 Q128,785 148,755.5 Q168,726 195,675.5 Q222,625 235.5,582 Q249,539 259.5,478.5 Q270,418 270,350 Q270,282 259.5,221.5 Q249,161 235.5,118 Q222,75 195,24.5 Q168,-26 148,-55.5 Q128,-85 91,-137 L54,-113 Q107,-34 136,20 Q165,74 187.5,160.5 Q210,247 210,350 Q210,453 187.5,540 Q165,627 136,680.5 Q107,734 54,813"/> 
            <glyph glyph-name="*" unicode="&#x2A;" horiz-adv-x="402" d=" M402,582 L250,542 L349,420 L303,386 L218,518 L133,386 L87,419 L186,541 L34,582 L51,634 L198,577 L189,736 L246,736 L238,577 L384,634"/> 
            <glyph glyph-name="+" unicode="&#x2B;" horiz-adv-x="424" d=" M274,508 L274,356 L424,356 L424,306 L274,306 L274,154 L219,154 L219,306 L69,306 L69,356 L219,356 L219,508"/> 
            <glyph glyph-name="," unicode="&#x2C;" horiz-adv-x="151" d=" M103,84 Q124,84 137.5,70.5 Q151,57 151,37 Q151,15 136,-18 L80,-151 L38,-151 L78,-4 Q55,9 55,37 Q55,57 69,70.5 Q83,84 103,84"/> 
            <glyph glyph-name="-" unicode="&#x2D;" horiz-adv-x="333" d=" M68,288 L68,338 L333,338 L333,288"/> 
            <glyph glyph-name="." unicode="&#x2E;" horiz-adv-x="151" d=" M103,84 Q124,84 137.5,70.5 Q151,57 151,37 Q151,16 137.5,2.5 Q124,-11 103,-11 Q83,-11 69,3 Q55,17 55,37 Q55,57 69,70.5 Q83,84 103,84"/> 
            <glyph glyph-name="/" unicode="&#x2F;" horiz-adv-x="401" d=" M351,803 L401,790 L169,-100 L119,-87"/> 
            <glyph glyph-name="0" unicode="&#x30;" horiz-adv-x="484" d=" M172,676 Q378,676 431,588.5 Q484,501 484,332 Q484,164 430.5,76.5 Q377,-11 275,-11 Q172,-11 119,76.5 Q66,164 66,333 Q66,502 172,676 M275,628 Q126,628 126,333 Q126,37 275,37 Q423,37 423,332 Q423,628 275,628"/> 
            <glyph glyph-name="1" unicode="&#x31;" horiz-adv-x="292" d=" M292,665 L292,0 L234,0 L234,601 L70,499 L43,542 L242,665"/> 
            <glyph glyph-name="2" unicode="&#x32;" horiz-adv-x="426" d=" M225,676 Q309,676 358.5,627 Q408,578 408,501 Q408,461 397,424.5 Q386,388 369,355 Q352,322 310.5,271 Q269,220 229,177 Q189,134 111,51 L426,51 L418,0 L43,0 L43,49 Q238,256 293,335 Q348,414 348,498 Q348,557 313.5,592 Q279,627 222,627 Q137,627 73,551 L33,581 Q112,676 225,676"/> 
            <glyph glyph-name="3" unicode="&#x33;" horiz-adv-x="423" d=" M221,676 Q306,676 355,629 Q404,582 404,510 Q404,445 367.5,404.5 Q331,364 273,354 Q338,351 380.5,307.5 Q423,264 423,188 Q423,100 365,44.5 Q307,-11 211,-11 Q95,-11 20,75 L57,108 Q122,38 209,38 Q281,38 322,79 Q363,120 363,187 Q363,327 213,327 L169,327 L177,374 L209,374 Q266,374 306,408.5 Q346,443 346,507 Q346,562 311,594.5 Q276,627 218,627 Q138,627 70,565 L39,601 Q117,676 221,676"/> 
            <glyph glyph-name="4" unicode="&#x34;" horiz-adv-x="483" d=" M483,223 L483,175 L393,175 L393,0 L336,0 L336,175 L45,175 L45,218 L248,676 L297,656 L107,223 L336,223 L343,418 L393,418 L393,223"/> 
            <glyph glyph-name="5" unicode="&#x35;" horiz-adv-x="436" d=" M414,665 L405,617 L135,617 L135,390 Q190,421 249,421 Q335,421 385.5,365.5 Q436,310 436,214 Q436,115 377.5,52 Q319,-11 222,-11 Q111,-11 34,69 L70,104 Q133,38 222,38 Q293,38 334,85.5 Q375,133 375,215 Q375,295 337.5,334.5 Q300,374 236,374 Q181,374 125,342 L79,342 L79,665"/> 
            <glyph glyph-name="6" unicode="&#x36;" horiz-adv-x="473" d=" M296,433 Q373,433 423,379.5 Q473,326 473,224 Q473,117 418,53 Q363,-11 277,-11 Q167,-11 116.5,73.5 Q66,158 66,300 Q66,474 130,575 Q194,676 306,676 Q373,676 430,637 L405,597 Q357,628 305,628 Q224,628 176,547 Q128,466 125,335 Q192,433 296,433 M277,37 Q343,37 378.5,87.5 Q414,138 414,222 Q414,305 379.5,345 Q345,385 288,385 Q188,385 125,275 Q131,37 277,37"/> 
            <glyph glyph-name="7" unicode="&#x37;" horiz-adv-x="401" d=" M401,665 L401,620 L139,-8 L85,10 L341,616 L30,616 L30,665"/> 
            <glyph glyph-name="8" unicode="&#x38;" horiz-adv-x="485" d=" M337,352 Q414,321 449.5,279.5 Q485,238 485,173 Q485,90 424.5,39.5 Q364,-11 267,-11 Q170,-11 111.5,39.5 Q53,90 53,172 Q53,300 196,357 Q137,384 109.5,419.5 Q82,455 82,510 Q82,587 137,631.5 Q192,676 269,676 Q346,676 401.5,632.5 Q457,589 457,511 Q457,459 428,421.5 Q399,384 337,352 M140,509 Q140,461 167.5,433 Q195,405 263,380 L294,369 Q350,399 374.5,431 Q399,463 399,509 Q399,566 363.5,598 Q328,630 269,630 Q212,630 176,598 Q140,566 140,509 M268,38 Q339,38 381.5,73.5 Q424,109 424,173 Q424,232 391,263.5 Q358,295 276,326 L242,339 Q114,289 114,172 Q114,108 156,73 Q198,38 268,38"/> 
            <glyph glyph-name="9" unicode="&#x39;" horiz-adv-x="457" d=" M255,676 Q356,676 406.5,605.5 Q457,535 457,408 Q457,220 378,127 Q299,34 123,-19 L108,26 Q246,68 318.5,141 Q391,214 398,341 Q334,248 234,248 Q155,248 104,305 Q53,362 53,458 Q53,558 110,617 Q167,676 255,676 M244,296 Q332,296 398,396 Q399,515 365,571.5 Q331,628 257,628 Q190,628 151.5,583.5 Q113,539 113,457 Q113,380 148.5,338 Q184,296 244,296"/> 
            <glyph glyph-name=":" unicode="&#x3A;" horiz-adv-x="151" d=" M103,474 Q124,474 137.5,460.5 Q151,447 151,427 Q151,406 137.5,392.5 Q124,379 103,379 Q83,379 69,393 Q55,407 55,427 Q55,447 69,460.5 Q83,474 103,474 M103,84 Q124,84 137.5,70.5 Q151,57 151,37 Q151,16 137.5,2.5 Q124,-11 103,-11 Q83,-11 69,3 Q55,17 55,37 Q55,57 69,70.5 Q83,84 103,84"/> 
            <glyph glyph-name=";" unicode="&#x3B;" horiz-adv-x="151" d=" M103,474 Q124,474 137.5,460.5 Q151,447 151,427 Q151,406 137.5,392.5 Q124,379 103,379 Q83,379 69,393 Q55,407 55,427 Q55,447 69,460.5 Q83,474 103,474 M103,84 Q124,84 137.5,70.5 Q151,57 151,37 Q151,15 136,-18 L80,-151 L38,-151 L78,-4 Q55,9 55,37 Q55,57 69,70.5 Q83,84 103,84"/> 
            <glyph glyph-name="&lt;" unicode="&#x3C;" horiz-adv-x="433" d=" M412,529 L433,480 L115,333 L433,183 L412,135 L64,306 L64,360"/> 
            <glyph glyph-name="=" unicode="&#x3D;" horiz-adv-x="424" d=" M69,393 L69,444 L424,444 L424,393 M69,218 L69,269 L424,269 L424,218"/> 
            <glyph glyph-name="&gt;" unicode="&#x3E;" horiz-adv-x="433" d=" M85,529 L433,360 L433,306 L85,135 L64,183 L381,333 L64,480"/> 
            <glyph glyph-name="?" unicode="&#x3F;" horiz-adv-x="407" d=" M234,696 Q314,696 360.5,653.5 Q407,611 407,550 Q407,508 388,477 Q369,446 342.5,427 Q316,408 289,389.5 Q262,371 243,342 Q224,313 224,273 L224,218 L167,218 L167,277 Q167,316 180.5,346.5 Q194,377 213.5,394.5 Q233,412 256.5,429 Q280,446 299.5,460 Q319,474 332.5,496.5 Q346,519 346,547 Q346,593 315,619.5 Q284,646 231,646 Q146,646 81,572 L41,604 Q121,696 234,696 M177,84 Q219,84 232.5,70.5 Q246,57 246,37 Q246,17 232.5,3 Q219,-11 198,-11 Q177,-11 163.5,3 Q150,17 150,37 Q150,57 177,84"/> 
            <glyph glyph-name="@" unicode="&#x40;" horiz-adv-x="935" d=" M526,696 Q656,696 750.5,641.5 Q845,587 890,500.5 Q935,414 935,308 Q935,164 885,88 Q835,12 754,12 Q704,12 673,43 Q642,74 632,122 Q586,14 484,14 Q410,14 363,72 Q316,130 316,232 Q316,355 374.5,419.5 Q433,484 525,484 Q600,484 670,448 L670,190 Q670,59 753,59 Q876,59 876,306 Q876,456 783.5,551 Q691,646 526,646 Q355,646 249.5,530.5 Q144,415 144,239 Q144,59 247.5,-48.5 Q351,-156 525,-156 Q622,-156 714,-122 L730,-169 Q627,-205 524,-205 Q329,-205 207,-84.5 Q85,36 85,239 Q85,435 208,565.5 Q331,696 526,696 M490,60 Q538,60 570,91.5 Q602,123 616,166 L616,419 Q574,439 527,439 Q454,439 414,385 Q374,331 374,232 Q374,148 405,104 Q436,60 490,60"/> 
            <glyph glyph-name="A" unicode="&#x41;" horiz-adv-x="548" d=" M485,0 L425,187 L137,187 L77,0 L16,0 L245,685 L320,685 L548,0 M154,238 L409,238 L282,636"/> 
            <glyph glyph-name="B" unicode="&#x42;" horiz-adv-x="544" d=" M386,363 Q456,355 500,313.5 Q544,272 544,190 Q544,94 479,47 Q414,0 298,0 L111,0 L111,685 L264,685 Q383,685 447.5,642 Q512,599 512,514 Q512,451 477.5,412 Q443,373 386,363 M270,635 L171,635 L171,384 L309,384 Q373,384 412,417.5 Q451,451 451,510 Q451,577 405.5,606 Q360,635 270,635 M298,50 Q482,50 482,190 Q482,264 436.5,300 Q391,336 316,336 L171,336 L171,50"/> 
            <glyph glyph-name="C" unicode="&#x43;" horiz-adv-x="527" d=" M343,696 Q400,696 439.5,680.5 Q479,665 519,633 L487,593 Q421,645 347,645 Q250,645 189.5,571 Q129,497 129,343 Q129,194 189,118 Q249,42 344,42 Q425,42 496,99 L527,60 Q452,-11 342,-11 Q219,-11 142.5,82 Q66,175 66,343 Q66,512 144.5,604 Q223,696 343,696"/> 
            <glyph glyph-name="D" unicode="&#x44;" horiz-adv-x="566" d=" M247,685 Q299,685 341.5,677.5 Q384,670 427.5,647.5 Q471,625 500,588.5 Q529,552 547.5,491 Q566,430 566,348 Q566,266 547,203 Q528,140 498.5,102.5 Q469,65 427,41 Q385,17 344.5,8.5 Q304,0 258,0 L111,0 L111,685 M255,635 L171,635 L171,50 L262,50 Q503,50 503,348 Q503,421 488,474 Q473,527 450.5,557.5 Q428,588 393.5,606 Q359,624 327,629.5 Q295,635 255,635"/> 
            <glyph glyph-name="E" unicode="&#x45;" horiz-adv-x="466" d=" M459,685 L452,635 L171,635 L171,380 L414,380 L414,330 L171,330 L171,50 L466,50 L466,0 L111,0 L111,685"/> 
            <glyph glyph-name="F" unicode="&#x46;" horiz-adv-x="453" d=" M111,0 L111,685 L453,685 L446,635 L171,635 L171,368 L408,368 L408,318 L171,318 L171,0"/> 
            <glyph glyph-name="G" unicode="&#x47;" horiz-adv-x="552" d=" M352,696 Q410,696 453,679.5 Q496,663 540,628 L504,590 Q435,645 352,645 Q259,645 194,571 Q129,497 129,345 Q129,192 187,116 Q245,40 349,40 Q429,40 493,76 L493,319 L359,319 L352,369 L552,369 L552,45 Q454,-11 349,-11 Q218,-11 142,80 Q66,171 66,345 Q66,513 149.5,604.5 Q233,696 352,696"/> 
            <glyph glyph-name="H" unicode="&#x48;" horiz-adv-x="559" d=" M499,0 L499,335 L171,335 L171,0 L111,0 L111,685 L171,685 L171,386 L499,386 L499,685 L559,685 L559,0"/> 
            <glyph glyph-name="I" unicode="&#x49;" horiz-adv-x="171" d=" M171,685 L171,0 L111,0 L111,685"/> 
            <glyph glyph-name="J" unicode="&#x4A;" horiz-adv-x="185" d=" M185,685 L185,92 Q185,3 150.5,-41.5 Q116,-86 29,-119 L13,-75 Q80,-45 102.5,-10.5 Q125,24 125,95 L125,685"/> 
            <glyph glyph-name="K" unicode="&#x4B;" horiz-adv-x="547" d=" M171,685 L171,0 L111,0 L111,685 M530,685 L246,370 L547,0 L474,0 L175,367 L461,685"/> 
            <glyph glyph-name="L" unicode="&#x4C;" horiz-adv-x="457" d=" M171,685 L171,54 L457,54 L449,0 L111,0 L111,685"/> 
            <glyph glyph-name="M" unicode="&#x4D;" horiz-adv-x="701" d=" M635,685 L701,0 L643,0 L612,328 Q593,519 586,626 L414,81 L357,81 L179,626 Q176,569 156,330 L126,0 L69,0 L134,685 L217,685 L387,152 L551,685"/> 
            <glyph glyph-name="N" unicode="&#x4E;" horiz-adv-x="562" d=" M562,685 L562,0 L483,0 L160,619 Q168,494 168,383 L168,0 L111,0 L111,685 L188,685 L513,66 Q505,182 505,269 L505,685"/> 
            <glyph glyph-name="O" unicode="&#x4F;" horiz-adv-x="625" d=" M345,696 Q473,696 549,604 Q625,512 625,342 Q625,175 549.5,82 Q474,-11 345,-11 Q218,-11 142,81.5 Q66,174 66,341 Q66,507 143,601.5 Q220,696 345,696 M345,645 Q245,645 187,568.5 Q129,492 129,341 Q129,192 187.5,116 Q246,40 345,40 Q448,40 505,115.5 Q562,191 562,342 Q562,494 504.5,569.5 Q447,645 345,645"/> 
            <glyph glyph-name="P" unicode="&#x50;" horiz-adv-x="525" d=" M272,685 Q525,685 525,480 Q525,370 456.5,318.5 Q388,267 269,267 L171,267 L171,0 L111,0 L111,685 M269,316 Q362,316 412,353 Q462,390 462,479 Q462,563 413.5,599.5 Q365,636 271,636 L171,636 L171,316"/> 
            <glyph glyph-name="Q" unicode="&#x51;" horiz-adv-x="649" d=" M452,24 Q570,22 649,-42 L609,-93 Q555,-45 497,-27 Q439,-9 345,-9 Q218,-9 142,82.5 Q66,174 66,341 Q66,507 143,601.5 Q220,696 345,696 Q473,696 549,604 Q625,512 625,342 Q625,87 452,24 M129,341 Q129,192 187.5,116 Q246,40 345,40 Q448,40 505,115.5 Q562,191 562,342 Q562,494 504.5,569.5 Q447,645 345,645 Q245,645 187,568.5 Q129,492 129,341"/> 
            <glyph glyph-name="R" unicode="&#x52;" horiz-adv-x="556" d=" M485,0 L308,307 L171,307 L171,0 L111,0 L111,685 L277,685 Q521,685 521,499 Q521,357 368,318 L556,0 M171,356 L285,356 Q457,356 457,499 Q457,569 414,602.5 Q371,636 275,636 L171,636"/> 
            <glyph glyph-name="S" unicode="&#x53;" horiz-adv-x="485" d=" M267,696 Q330,696 375.5,677.5 Q421,659 464,620 L429,582 Q356,645 269,645 Q205,645 166,613.5 Q127,582 127,529 Q127,477 161,447.5 Q195,418 287,390 Q389,358 437,315 Q485,272 485,187 Q485,99 423,44 Q361,-11 258,-11 Q130,-11 39,75 L73,113 Q158,40 257,40 Q331,40 377.5,79 Q424,118 424,185 Q424,246 389,278.5 Q354,311 261,340 Q156,372 111,414 Q66,456 66,528 Q66,601 122,648.5 Q178,696 267,696"/> 
            <glyph glyph-name="T" unicode="&#x54;" horiz-adv-x="485" d=" M485,685 L478,632 L277,632 L277,0 L218,0 L218,632 L15,632 L15,685"/> 
            <glyph glyph-name="U" unicode="&#x55;" horiz-adv-x="551" d=" M551,685 L551,214 Q551,112 493,50.5 Q435,-11 326,-11 Q216,-11 158.5,50 Q101,111 101,214 L101,685 L161,685 L161,219 Q161,41 326,41 Q490,41 490,219 L490,685"/> 
            <glyph glyph-name="V" unicode="&#x56;" horiz-adv-x="530" d=" M530,685 L307,0 L240,0 L16,685 L81,685 L274,62 L468,685"/> 
            <glyph glyph-name="W" unicode="&#x57;" horiz-adv-x="779" d=" M779,685 L629,0 L554,0 L404,618 L254,0 L181,0 L30,685 L91,685 L221,56 L371,685 L438,685 L591,56 L722,685"/> 
            <glyph glyph-name="X" unicode="&#x58;" horiz-adv-x="504" d=" M290,371 L504,0 L436,0 L254,329 L75,0 L10,0 L219,368 L31,685 L99,685 L255,408 L411,685 L476,685"/> 
            <glyph glyph-name="Y" unicode="&#x59;" horiz-adv-x="509" d=" M509,685 L292,268 L292,0 L232,0 L232,267 L13,685 L80,685 L264,321 L445,685"/> 
            <glyph glyph-name="Z" unicode="&#x5A;" horiz-adv-x="468" d=" M468,685 L468,636 L104,53 L462,53 L454,0 L35,0 L35,50 L402,633 L73,633 L73,685"/> 
            <glyph glyph-name="[" unicode="&#x5B;" horiz-adv-x="251" d=" M251,807 L251,758 L139,758 L139,-64 L251,-64 L251,-112 L84,-112 L84,807"/> 
            <glyph glyph-name="\" unicode="&#x5C;" horiz-adv-x="401" d=" M169,803 L401,-87 L350,-100 L119,791"/> 
            <glyph glyph-name="]" unicode="&#x5D;" horiz-adv-x="233" d=" M233,807 L233,-112 L66,-112 L66,-64 L178,-64 L178,758 L66,758 L66,807"/> 
            <glyph glyph-name="^" unicode="&#x5E;" horiz-adv-x="474" d=" M290,832 L474,527 L409,527 L265,775 L122,527 L56,527 L241,832"/> 
            <glyph glyph-name="_" unicode="&#x5F;" horiz-adv-x="492" d=" M29,-122 L29,-71 L492,-71 L492,-122"/> 
            <glyph glyph-name="`" unicode="&#x60;" horiz-adv-x="244" d=" M56,782 L244,679 L226,645 L30,730"/> 
            <glyph glyph-name="a" unicode="&#x61;" horiz-adv-x="475" d=" M431,116 Q431,75 441.5,57 Q452,39 475,30 L462,-11 Q426,-4 406.5,16 Q387,36 381,77 Q327,-11 218,-11 Q143,-11 99.5,31.5 Q56,74 56,145 Q56,226 113.5,270 Q171,314 273,314 L373,314 L373,365 Q373,428 345,456.5 Q317,485 252,485 Q192,485 110,455 L95,499 Q183,534 260,534 Q431,534 431,368 M228,36 Q322,36 373,128 L373,272 L282,272 Q118,272 118,148 Q118,94 147,65 Q176,36 228,36"/> 
            <glyph glyph-name="b" unicode="&#x62;" horiz-adv-x="512" d=" M321,534 Q412,534 462,464 Q512,394 512,264 Q512,137 459.5,63 Q407,-11 313,-11 Q221,-11 163,66 L157,0 L106,0 L106,736 L164,743 L164,450 Q226,534 321,534 M302,37 Q373,37 411.5,94.5 Q450,152 450,264 Q450,486 309,486 Q227,486 164,396 L164,121 Q219,37 302,37"/> 
            <glyph glyph-name="c" unicode="&#x63;" horiz-adv-x="436" d=" M285,534 Q372,534 433,481 L404,443 Q352,484 288,484 Q214,484 170,426.5 Q126,369 126,259 Q126,150 169.5,95 Q213,40 287,40 Q350,40 408,84 L436,45 Q370,-11 286,-11 Q184,-11 124,60.5 Q64,132 64,258 Q64,384 124,459 Q184,534 285,534"/> 
            <glyph glyph-name="d" unicode="&#x64;" horiz-adv-x="479" d=" M421,743 L479,736 L479,0 L429,0 L422,80 Q368,-11 265,-11 Q174,-11 121.5,61.5 Q69,134 69,259 Q69,382 124,458 Q179,534 274,534 Q363,534 421,463 M274,37 Q365,37 421,134 L421,407 Q365,486 284,486 Q213,486 171.5,427 Q130,368 131,260 Q131,152 169,94.5 Q207,37 274,37"/> 
            <glyph glyph-name="e" unicode="&#x65;" horiz-adv-x="477" d=" M477,281 Q477,259 475,239 L126,239 Q131,137 174.5,87.5 Q218,38 289,38 Q360,38 430,90 L457,53 Q379,-11 286,-11 Q182,-11 123,60 Q64,131 64,257 Q64,383 120.5,458.5 Q177,534 273,534 Q373,534 425,466.5 Q477,399 477,281 M420,284 L420,299 Q420,387 383.5,436.5 Q347,486 275,486 Q210,486 170,436 Q130,386 126,284"/> 
            <glyph glyph-name="f" unicode="&#x66;" horiz-adv-x="379" d=" M260,695 Q170,695 170,607 L170,523 L308,523 L300,476 L170,476 L170,0 L112,0 L112,476 L21,476 L21,523 L112,523 L112,609 Q112,671 150.5,707 Q189,743 257,743 Q318,743 379,715 L359,672 Q307,695 260,695"/> 
            <glyph glyph-name="g" unicode="&#x67;" horiz-adv-x="495" d=" M477,568 L495,512 Q447,499 350,497 Q439,455 439,355 Q439,278 388,230.5 Q337,183 250,183 Q211,183 182,193 Q142,171 142,133 Q142,79 225,79 L310,79 Q387,79 432.5,41.5 Q478,4 478,-55 Q478,-127 421,-166 Q364,-205 251,-205 Q134,-205 83.5,-169.5 Q33,-134 33,-55 L87,-55 Q88,-111 123.5,-134 Q159,-157 251,-157 Q419,-157 419,-58 Q419,-16 388,6.5 Q357,29 301,29 L216,29 Q154,29 120.5,55 Q87,81 87,121 Q87,174 144,210 Q56,255 56,357 Q56,436 109,485 Q162,534 248,534 Q314,533 359.5,538 Q405,543 425,549 Q445,555 477,568 M313,489 Q183,489 149.5,453 Q116,417 116,357 Q116,295 151.5,260 Q187,225 248,225 Q312,225 346,259.5 Q380,294 380,356 Q380,419 313,489"/> 
            <glyph glyph-name="h" unicode="&#x68;" horiz-adv-x="483" d=" M337,534 Q407,534 445,491.5 Q483,449 483,374 L483,0 L425,0 L425,366 Q425,487 326,487 Q276,487 237.5,459.5 Q199,432 164,379 L164,0 L106,0 L106,736 L164,743 L164,436 Q234,534 337,534"/> 
            <glyph glyph-name="i" unicode="&#x69;" horiz-adv-x="178" d=" M134,753 Q154,753 166,741 Q178,729 178,711 Q178,693 166,681 Q154,669 134,669 Q115,669 103,681 Q91,693 91,711 Q91,729 103,741 Q115,753 134,753 M164,523 L164,0 L106,0 L106,523"/> 
            <glyph glyph-name="j" unicode="&#x6A;" horiz-adv-x="178" d=" M134,753 Q154,753 166,741 Q178,729 178,711 Q178,693 166,681 Q154,669 134,669 Q115,669 103,681 Q91,693 91,711 Q91,729 103,741 Q115,753 134,753 M164,523 L164,19 Q164,-80 132.5,-123.5 Q101,-167 23,-203 L6,-161 Q63,-133 84.5,-99 Q106,-65 106,17 L106,523"/> 
            <glyph glyph-name="k" unicode="&#x6B;" horiz-adv-x="480" d=" M164,743 L164,0 L106,0 L106,736 M457,523 L237,289 L480,0 L410,0 L170,286 L390,523"/> 
            <glyph glyph-name="l" unicode="&#x6C;" horiz-adv-x="253" d=" M193,-11 Q150,-11 125.5,14 Q101,39 101,88 L101,736 L159,743 L159,90 Q159,39 201,39 Q222,39 237,46 L253,3 Q225,-11 193,-11"/> 
            <glyph glyph-name="m" unicode="&#x6D;" horiz-adv-x="752" d=" M616,534 Q679,534 715.5,491 Q752,448 752,374 L752,0 L694,0 L694,366 Q694,487 605,487 Q561,487 526,459 Q491,431 458,379 L458,0 L400,0 L400,366 Q400,487 311,487 Q230,487 164,379 L164,0 L106,0 L106,523 L156,523 L161,434 Q226,534 322,534 Q372,534 406,506.5 Q440,479 452,430 Q517,534 616,534"/> 
            <glyph glyph-name="n" unicode="&#x6E;" horiz-adv-x="483" d=" M337,534 Q408,534 445.5,492 Q483,450 483,374 L483,0 L425,0 L425,366 Q425,487 326,487 Q276,487 237.5,459.5 Q199,432 164,379 L164,0 L106,0 L106,523 L156,523 L162,434 Q230,534 337,534"/> 
            <glyph glyph-name="o" unicode="&#x6F;" horiz-adv-x="507" d=" M286,534 Q390,534 448.5,462.5 Q507,391 507,263 Q507,136 447.5,62.5 Q388,-11 285,-11 Q181,-11 122.5,61.5 Q64,134 64,261 Q64,387 123.5,460.5 Q183,534 286,534 M286,485 Q210,485 168,428 Q126,371 126,261 Q126,152 167.5,95 Q209,38 285,38 Q361,38 403.5,95 Q446,152 446,263 Q446,372 404.5,428.5 Q363,485 286,485"/> 
            <glyph glyph-name="p" unicode="&#x70;" horiz-adv-x="512" d=" M322,534 Q417,534 464.5,463.5 Q512,393 512,264 Q512,138 460.5,63.5 Q409,-11 313,-11 Q221,-11 164,61 L164,-197 L106,-205 L106,523 L156,523 L161,447 Q223,534 322,534 M302,38 Q450,38 450,264 Q450,486 311,486 Q229,486 164,396 L164,118 Q216,38 302,38"/> 
            <glyph glyph-name="q" unicode="&#x71;" horiz-adv-x="479" d=" M429,523 L479,523 L479,-205 L421,-197 L421,76 Q367,-11 265,-11 Q174,-11 121.5,61.5 Q69,134 69,259 Q69,382 124.5,458 Q180,534 275,534 Q365,534 425,460 M275,37 Q366,37 421,133 L421,408 Q366,486 285,486 Q214,486 172,427 Q130,368 131,260 Q131,152 169,94.5 Q207,37 275,37"/> 
            <glyph glyph-name="r" unicode="&#x72;" horiz-adv-x="361" d=" M309,534 Q340,534 361,528 L350,473 Q328,479 304,479 Q251,479 218.5,440.5 Q186,402 164,320 L164,0 L106,0 L106,523 L156,523 L161,406 Q203,534 309,534"/> 
            <glyph glyph-name="s" unicode="&#x73;" horiz-adv-x="415" d=" M234,534 Q326,534 401,476 L374,438 Q305,486 236,486 Q184,486 152,462 Q120,438 120,398 Q120,360 147.5,339 Q175,318 247,299 Q336,276 375.5,241 Q415,206 415,141 Q415,71 361,30 Q307,-11 226,-11 Q118,-11 39,56 L71,93 Q140,38 225,38 Q283,38 318.5,64.5 Q354,91 354,138 Q354,185 326,208 Q298,231 216,254 Q133,276 96.5,309 Q60,342 60,397 Q60,457 109.5,495.5 Q159,534 234,534"/> 
            <glyph glyph-name="t" unicode="&#x74;" horiz-adv-x="344" d=" M321,62 L344,22 Q294,-11 234,-11 Q174,-11 140,24.5 Q106,60 106,127 L106,476 L18,476 L18,523 L106,523 L106,648 L164,655 L164,523 L299,523 L292,476 L164,476 L164,130 Q164,39 241,39 Q281,39 321,62"/> 
            <glyph glyph-name="u" unicode="&#x75;" horiz-adv-x="473" d=" M473,523 L473,0 L423,0 L420,93 Q358,-11 249,-11 Q178,-11 139.5,30.5 Q101,72 101,149 L101,523 L159,523 L159,155 Q159,37 262,37 Q353,37 415,144 L415,523"/> 
            <glyph glyph-name="v" unicode="&#x76;" horiz-adv-x="455" d=" M455,523 L274,0 L202,0 L15,523 L79,523 L238,51 L393,523"/> 
            <glyph glyph-name="w" unicode="&#x77;" horiz-adv-x="673" d=" M673,523 L545,0 L467,0 L351,469 L233,0 L156,0 L25,523 L85,523 L197,45 L319,523 L385,523 L505,44 L616,523"/> 
            <glyph glyph-name="x" unicode="&#x78;" horiz-adv-x="448" d=" M264,280 L448,0 L378,0 L227,243 L77,0 L10,0 L194,278 L34,523 L102,523 L230,314 L359,523 L425,523"/> 
            <glyph glyph-name="y" unicode="&#x79;" horiz-adv-x="452" d=" M452,523 L273,-2 Q242,-93 196,-139.5 Q150,-186 59,-204 L53,-159 Q128,-141 159,-107.5 Q190,-74 217,0 L197,0 L15,523 L78,523 L236,43 L391,523"/> 
            <glyph glyph-name="z" unicode="&#x7A;" horiz-adv-x="388" d=" M388,523 L388,478 L96,50 L386,50 L380,0 L28,0 L28,45 L320,473 L52,473 L52,523"/> 
            <glyph glyph-name="{" unicode="&#x7B;" horiz-adv-x="262" d=" M262,828 L262,783 Q215,783 195,764.5 Q175,746 175,705 L175,451 Q175,402 157,381 Q139,360 99,349 Q140,338 157.5,317.5 Q175,297 175,247 L175,-6 Q175,-47 195,-65.5 Q215,-84 262,-84 L262,-129 Q188,-129 154,-99.5 Q120,-70 120,-4 L120,251 Q120,290 101.5,307 Q83,324 44,324 L44,374 Q83,374 101.5,391 Q120,408 120,448 L120,703 Q120,769 154,798.5 Q188,828 262,828"/> 
            <glyph glyph-name="|" unicode="&#x7C;" horiz-adv-x="230" d=" M230,804 L230,-100 L176,-100 L176,804"/> 
            <glyph glyph-name="}" unicode="&#x7D;" horiz-adv-x="282" d=" M64,828 Q137,828 171.5,798.5 Q206,769 206,703 L206,448 Q206,408 224.5,391 Q243,374 282,374 L282,324 Q243,324 224.5,307 Q206,290 206,251 L206,-4 Q206,-70 171.5,-99.5 Q137,-129 64,-129 L64,-84 Q111,-84 131,-65.5 Q151,-47 151,-6 L151,247 Q151,297 168.5,317.5 Q186,338 227,349 Q187,360 169,381 Q151,402 151,451 L151,705 Q151,746 131,764.5 Q111,783 64,783"/> 
            <glyph glyph-name="~" unicode="&#x7E;" horiz-adv-x="420" d=" M312,264 Q278,264 228,293 Q178,322 158,322 Q122,322 88,275 L51,295 Q73,331 98.5,351 Q124,371 162,371 Q197,371 246,342 Q295,313 316,313 Q352,313 384,357 L420,337 Q376,264 312,264"/> 
            <glyph glyph-name="¡" unicode="&#xA1;" horiz-adv-x="168" d=" M99,475 Q141,475 154.5,461 Q168,447 168,427 Q168,407 154.5,393.5 Q141,380 120,380 Q99,380 85.5,393.5 Q72,407 72,427 Q72,447 99,475 M147,249 L152,-197 L90,-197 L95,249"/> 
            <glyph glyph-name="¢" unicode="&#xA2;" horiz-adv-x="436" d=" M436,45 Q380,-3 311,-10 L311,-150 L260,-150 L260,-10 Q170,-1 117,69.5 Q64,140 64,258 Q64,376 117.5,450 Q171,524 261,533 L261,680 L311,680 L311,533 Q380,527 433,481 L404,443 Q352,484 288,484 Q214,484 170,426.5 Q126,369 126,259 Q126,150 169.5,95 Q213,40 287,40 Q350,40 408,84"/> 
            <glyph glyph-name="£" unicode="&#xA3;" horiz-adv-x="468" d=" M192,171 Q192,122 177,96 Q162,70 125,51 L453,51 L446,0 L51,0 L51,48 Q99,69 116.5,94 Q134,119 134,170 L134,331 L69,331 L69,374 L134,374 L134,500 Q134,577 179,626.5 Q224,676 306,676 Q403,676 468,601 L429,570 Q379,627 308,627 Q252,627 222,592.5 Q192,558 192,499 L192,374 L406,374 L406,331 L192,331"/> 
            <glyph glyph-name="¤" unicode="&#xA4;" horiz-adv-x="511" d=" M473,341 Q473,267 432,215 L511,138 L475,102 L396,181 Q347,146 280,146 Q213,146 165,183 L84,102 L49,138 L130,217 Q90,269 90,341 Q90,412 129,463 L49,543 L85,579 L165,499 Q214,535 280,535 Q347,535 396,500 L476,579 L511,543 L433,465 Q473,413 473,341 M281,193 Q347,193 382,233 Q417,273 417,341 Q417,409 382,449 Q347,489 281,489 Q216,489 181,449 Q146,409 146,341 Q146,273 181,233 Q216,193 281,193"/> 
            <glyph glyph-name="¥" unicode="&#xA5;" horiz-adv-x="499" d=" M499,665 L304,338 L422,338 L422,295 L286,295 L286,192 L422,192 L422,149 L286,149 L286,0 L227,0 L227,149 L91,149 L91,192 L227,192 L227,295 L91,295 L91,338 L208,338 L13,665 L79,665 L258,353 L436,665"/> 
            <glyph glyph-name="¦" unicode="&#xA6;" horiz-adv-x="230" d=" M230,804 L230,443 L176,443 L176,804 M230,262 L230,-100 L176,-100 L176,262"/> 
            <glyph glyph-name="§" unicode="&#xA7;" horiz-adv-x="449" d=" M372,167 Q426,132 426,68 Q426,6 377,-31 Q328,-68 251,-68 Q162,-68 88,-21 L113,20 Q174,-20 253,-20 Q305,-20 336,3 Q367,26 367,63 Q367,102 343,122.5 Q319,143 243,170 Q154,199 119,229.5 Q84,260 84,317 Q84,390 163,441 Q109,477 109,540 Q109,601 156,638 Q203,675 276,675 Q360,675 434,626 L410,587 Q346,627 276,627 Q226,627 196.5,603.5 Q167,580 167,543 Q167,505 192.5,483.5 Q218,462 297,435 Q379,407 414,375 Q449,343 449,289 Q449,218 372,167 M141,323 Q141,282 164.5,261 Q188,240 260,215 Q311,197 335,186 Q392,229 392,282 Q392,322 369,344.5 Q346,367 274,392 Q230,407 199,422 Q141,377 141,323"/> 
            <glyph glyph-name="¨" unicode="&#xA8;" horiz-adv-x="299" d=" M53,742 Q87,742 98.5,730.5 Q110,719 110,702 Q110,685 98.5,674 Q87,663 70,663 Q53,663 41.5,674 Q30,685 30,702 Q30,719 53,742 M242,742 Q276,742 287.5,730.5 Q299,719 299,702 Q299,685 287.5,674 Q276,663 259,663 Q242,663 230.5,674 Q219,685 219,702 Q219,719 242,742"/> 
            <glyph glyph-name="©" unicode="&#xA9;" horiz-adv-x="702" d=" M405,736 Q532,736 617,651 Q702,566 702,435 Q702,304 616.5,219 Q531,134 405,134 Q278,134 193,219 Q108,304 108,435 Q108,566 193.5,651 Q279,736 405,736 M516,697 Q296,697 224.5,624 Q153,551 153,435 Q153,318 224,245.5 Q295,173 406,173 Q515,173 586,246 Q657,319 657,435 Q657,551 516,697 M406,616 Q463,616 509,581 L485,548 Q451,573 408,573 Q367,573 338.5,540.5 Q310,508 310,436 Q310,367 337,332.5 Q364,298 409,298 Q451,298 493,327 L515,294 Q467,254 407,254 Q340,254 299.5,302 Q259,350 259,436 Q259,523 302,569.5 Q345,616 406,616"/> 
            <glyph glyph-name="ª" unicode="&#xAA;" horiz-adv-x="435" d=" M255,521 L331,521 L331,555 Q331,600 309.5,619.5 Q288,639 238,639 Q189,639 125,617 L110,659 Q182,685 244,685 Q388,685 388,559 L388,375 Q388,345 396,332.5 Q404,320 421,313 L409,274 Q351,285 340,337 Q295,274 210,274 Q149,274 114,306 Q79,338 79,392 Q79,454 126,487.5 Q173,521 255,521 M221,319 Q293,319 331,385 L331,481 L263,481 Q139,481 139,395 Q139,358 160.5,338.5 Q182,319 221,319 M80,51 L435,51 L435,0 L80,0"/> 
            <glyph glyph-name="«" unicode="&#xAB;" horiz-adv-x="484" d=" M235,520 L271,495 L134,288 L271,80 L235,56 L71,268 L71,307 M448,520 L484,495 L347,288 L484,80 L448,56 L284,268 L284,307"/> 
            <glyph glyph-name="¬" unicode="&#xAC;" horiz-adv-x="430" d=" M430,347 L430,168 L375,168 L375,296 L69,296 L69,347"/> 
            <glyph glyph-name="­" unicode="&#xAD;" horiz-adv-x="333" d=" M68,288 L68,338 L333,338 L333,288"/> 
            <glyph glyph-name="®" unicode="&#xAE;" horiz-adv-x="560" d=" M319,737 Q421,737 490.5,668 Q560,599 560,497 Q560,397 490.5,327 Q421,257 319,257 Q218,257 149,325.5 Q80,394 80,495 Q80,595 149.5,666 Q219,737 319,737 M319,293 Q405,293 462.5,351.5 Q520,410 520,497 Q520,585 463,642.5 Q406,700 319,700 Q235,700 177.5,641 Q120,582 120,495 Q120,408 177,350.5 Q234,293 319,293 M419,555 Q419,499 355,482 L429,364 L379,364 L315,475 L278,475 L278,364 L236,364 L236,636 L305,636 Q419,636 419,555 M278,601 L278,510 L317,510 Q376,510 376,555 Q376,580 360,590.5 Q344,601 311,601"/> 
            <glyph glyph-name="¯" unicode="&#xAF;" horiz-adv-x="271" d=" M271,676 L30,676 L30,723 L271,723"/> 
            <glyph glyph-name="°" unicode="&#xB0;" horiz-adv-x="370" d=" M219,395 Q158,395 113.5,436 Q69,477 69,546 Q69,613 114,654.5 Q159,696 219,696 Q282,696 326,655 Q370,614 370,545 Q370,477 326,436 Q282,395 219,395 M219,439 Q263,439 290.5,467.5 Q318,496 318,545 Q318,595 290.5,623.5 Q263,652 219,652 Q177,652 148.5,623.5 Q120,595 120,546 Q120,497 148.5,468 Q177,439 219,439"/> 
            <glyph glyph-name="±" unicode="&#xB1;" horiz-adv-x="424" d=" M274,518 L274,366 L424,366 L424,316 L274,316 L274,164 L219,164 L219,316 L69,316 L69,366 L219,366 L219,518 M69,0 L69,51 L424,51 L424,0"/> 
            <glyph glyph-name="²" unicode="&#xB2;" horiz-adv-x="334" d=" M197,743 Q254,743 288,711 Q322,679 322,630 Q322,575 285.5,526 Q249,477 135,366 L334,366 L327,323 L75,323 L75,364 Q198,487 233.5,533.5 Q269,580 269,626 Q269,661 248.5,680.5 Q228,700 193,700 Q140,700 101,655 L66,681 Q119,743 197,743"/> 
            <glyph glyph-name="³" unicode="&#xB3;" horiz-adv-x="336" d=" M199,744 Q257,744 291,715 Q325,686 325,640 Q325,601 301.5,576 Q278,551 239,543 Q281,541 308.5,514 Q336,487 336,440 Q336,385 297,350 Q258,315 192,315 Q114,315 63,371 L94,399 Q135,357 189,357 Q234,357 258.5,380 Q283,403 283,441 Q283,521 192,521 L162,521 L169,560 L189,560 Q224,560 248.5,579 Q273,598 273,635 Q273,667 252,685 Q231,703 196,703 Q146,703 101,665 L74,696 Q130,744 199,744"/> 
            <glyph glyph-name="´" unicode="&#xB4;" horiz-adv-x="244" d=" M218,782 L244,730 L49,645 L30,679"/> 
            <glyph glyph-name="µ" unicode="&#xB5;" horiz-adv-x="499" d=" M499,-2 L446,-9 Q425,43 420,102 Q358,-11 262,-11 Q184,-11 153,52 Q164,-6 164,-80 L164,-197 L106,-203 L106,523 L164,523 L164,150 Q164,93 191,66.5 Q218,40 262,40 Q357,40 414,158 L414,523 L472,523 L472,177 Q472,77 499,-2"/> 
            <glyph glyph-name="¶" unicode="&#xB6;" horiz-adv-x="557" d=" M333,685 L557,685 L557,-197 L503,-206 L503,637 L375,637 L375,-197 L321,-206 L321,294 Q207,298 154,351.5 Q101,405 101,490 Q101,583 162,634 Q223,685 333,685"/> 
            <glyph glyph-name="·" unicode="&#xB7;" horiz-adv-x="151" d=" M103,366 Q124,366 137.5,352.5 Q151,339 151,319 Q151,298 137.5,284.5 Q124,271 103,271 Q83,271 69,285 Q55,299 55,319 Q55,339 69,352.5 Q83,366 103,366"/> 
            <glyph glyph-name="¸" unicode="&#xB8;" horiz-adv-x="215" d=" M123,16 L123,-64 Q215,-71 215,-140 Q215,-181 185,-204 Q155,-227 110,-227 Q62,-227 30,-206 L48,-170 Q75,-185 109,-185 Q164,-185 164,-140 Q164,-96 75,-96 L85,16"/> 
            <glyph glyph-name="¹" unicode="&#xB9;" horiz-adv-x="258" d=" M258,737 L258,323 L207,323 L207,682 L104,622 L81,658 L214,737"/> 
            <glyph glyph-name="º" unicode="&#xBA;" horiz-adv-x="430" d=" M249,685 Q334,685 382,631.5 Q430,578 430,481 Q430,385 381.5,329.5 Q333,274 248,274 Q164,274 116,328.5 Q68,383 68,479 Q68,574 116.5,629.5 Q165,685 249,685 M250,639 Q192,639 160,598.5 Q128,558 128,479 Q128,401 159.5,360.5 Q191,320 249,320 Q307,320 338.5,360.5 Q370,401 370,481 Q370,639 250,639 M71,0 L71,51 L426,51 L426,0"/> 
            <glyph glyph-name="»" unicode="&#xBB;" horiz-adv-x="475" d=" M107,520 L271,307 L271,268 L107,56 L71,80 L209,288 L71,495 M311,520 L475,307 L475,268 L311,56 L275,80 L413,288 L275,495"/> 
            <glyph glyph-name="¼" unicode="&#xBC;" horiz-adv-x="861" d=" M641,747 L681,728 L274,-71 L233,-51 M258,271 L207,271 L207,630 L104,570 L81,606 L214,685 L258,685 M861,145 L861,103 L805,103 L805,0 L755,0 L755,103 L566,103 L566,140 L696,421 L740,404 L620,145 L755,145 L760,260 L805,260 L805,145"/> 
            <glyph glyph-name="½" unicode="&#xBD;" horiz-adv-x="848" d=" M641,747 L681,728 L274,-71 L233,-51 M258,685 L258,271 L207,271 L207,630 L104,570 L81,606 L214,685 M711,420 Q768,420 802,388 Q836,356 836,307 Q836,252 799.5,203 Q763,154 649,43 L848,43 L841,0 L589,0 L589,41 Q712,164 747.5,210.5 Q783,257 783,303 Q783,338 762.5,357.5 Q742,377 707,377 Q654,377 615,332 L580,358 Q633,420 711,420"/> 
            <glyph glyph-name="¾" unicode="&#xBE;" horiz-adv-x="861" d=" M641,747 L681,728 L274,-71 L233,-51 M336,388 Q336,333 297,298 Q258,263 192,263 Q114,263 63,319 L94,347 Q135,305 189,305 Q234,305 258.5,328 Q283,351 283,389 Q283,469 192,469 L162,469 L169,508 L189,508 Q224,508 248.5,527 Q273,546 273,583 Q273,615 252,633 Q231,651 196,651 Q146,651 101,613 L74,644 Q130,692 199,692 Q257,692 291,663 Q325,634 325,588 Q325,549 301.5,524 Q278,499 239,491 Q281,489 308.5,462 Q336,435 336,388 M861,145 L861,103 L805,103 L805,0 L755,0 L755,103 L566,103 L566,140 L696,421 L740,404 L620,145 L755,145 L760,260 L805,260 L805,145"/> 
            <glyph glyph-name="¿" unicode="&#xBF;" horiz-adv-x="407" d=" M250,380 Q229,380 215.5,393.5 Q202,407 202,427 Q202,448 215.5,461.5 Q229,475 250,475 Q270,475 283.5,461 Q297,447 297,427 Q297,407 283.5,393.5 Q270,380 250,380 M213,-206 Q134,-206 87.5,-164 Q41,-122 41,-64 Q41,-22 59.5,9 Q78,40 105,59 Q132,78 159,96 Q186,114 204.5,141 Q223,168 223,204 L223,249 L280,249 L280,200 Q280,157 261.5,125 Q243,93 217,74.5 Q191,56 165,38.5 Q139,21 120.5,-4 Q102,-29 102,-62 Q102,-104 133,-130.5 Q164,-157 216,-157 Q300,-157 366,-82 L407,-114 Q325,-206 213,-206"/> 
            <glyph glyph-name="À" unicode="&#xC0;" horiz-adv-x="548" d=" M385,792 L369,758 L171,836 L197,888 M485,0 L425,187 L137,187 L77,0 L16,0 L245,685 L320,685 L548,0 M154,238 L409,238 L282,636"/> 
            <glyph glyph-name="Á" unicode="&#xC1;" horiz-adv-x="548" d=" M390,836 L192,758 L176,792 L364,888 M485,0 L425,187 L137,187 L77,0 L16,0 L245,685 L320,685 L548,0 M154,238 L409,238 L282,636"/> 
            <glyph glyph-name="Â" unicode="&#xC2;" horiz-adv-x="548" d=" M283,842 L161,762 L135,792 L265,894 L301,894 L430,792 L404,762 M485,0 L425,187 L137,187 L77,0 L16,0 L245,685 L320,685 L548,0 M154,238 L409,238 L282,636"/> 
            <glyph glyph-name="Ã" unicode="&#xC3;" horiz-adv-x="548" d=" M224,838 Q195,838 168,798 L132,816 Q169,884 224,884 Q248,884 285,861.5 Q322,839 341,839 Q369,839 397,882 L433,864 Q398,792 341,792 Q313,792 276,815 Q239,838 224,838 M485,0 L425,187 L137,187 L77,0 L16,0 L245,685 L320,685 L548,0 M154,238 L409,238 L282,636"/> 
            <glyph glyph-name="Ä" unicode="&#xC4;" horiz-adv-x="548" d=" M205,789 Q171,789 159.5,800 Q148,811 148,828 Q148,845 159.5,856.5 Q171,868 188,868 Q205,868 216.5,856.5 Q228,845 228,828 Q228,811 205,789 M394,789 Q360,789 348.5,800 Q337,811 337,828 Q337,845 348.5,856.5 Q360,868 377,868 Q394,868 405.5,856.5 Q417,845 417,828 Q417,811 394,789 M485,0 L425,187 L137,187 L77,0 L16,0 L245,685 L320,685 L548,0 M154,238 L409,238 L282,636"/> 
            <glyph glyph-name="Å" unicode="&#xC5;" horiz-adv-x="548" d=" M283,759 Q239,759 211.5,785.5 Q184,812 184,853 Q184,894 211.5,920.5 Q239,947 283,947 Q326,947 353.5,920.5 Q381,894 381,853 Q381,812 353.5,785.5 Q326,759 283,759 M283,911 Q256,911 241.5,895.5 Q227,880 227,853 Q227,795 283,795 Q309,795 323.5,810 Q338,825 338,853 Q338,880 323.5,895.5 Q309,911 283,911 M485,0 L425,187 L137,187 L77,0 L16,0 L245,685 L320,685 L548,0 M154,238 L409,238 L282,636"/> 
            <glyph glyph-name="Æ" unicode="&#xC6;" horiz-adv-x="737" d=" M509,50 L737,50 L737,0 L461,0 L415,184 L130,184 L60,0 L0,0 L267,685 L690,685 L683,635 L358,635 L424,379 L682,379 L682,330 L437,330 M149,235 L402,235 L302,637"/> 
            <glyph glyph-name="Ç" unicode="&#xC7;" horiz-adv-x="527" d=" M358,-64 Q450,-71 450,-140 Q450,-181 420,-204 Q390,-227 345,-227 Q296,-227 265,-206 L283,-170 Q310,-185 344,-185 Q399,-185 399,-140 Q399,-96 310,-96 L318,-10 Q205,-1 135.5,91 Q66,183 66,343 Q66,512 144.5,604 Q223,696 343,696 Q400,696 439.5,680.5 Q479,665 519,633 L487,593 Q421,645 347,645 Q250,645 189.5,571 Q129,497 129,343 Q129,194 189,118 Q249,42 344,42 Q425,42 496,99 L527,60 Q460,-6 358,-11"/> 
            <glyph glyph-name="È" unicode="&#xC8;" horiz-adv-x="466" d=" M203,888 L391,792 L375,758 L177,836 M459,685 L452,635 L171,635 L171,380 L414,380 L414,330 L171,330 L171,50 L466,50 L466,0 L111,0 L111,685"/> 
            <glyph glyph-name="É" unicode="&#xC9;" horiz-adv-x="466" d=" M370,888 L396,836 L198,758 L182,792 M459,685 L452,635 L171,635 L171,380 L414,380 L414,330 L171,330 L171,50 L466,50 L466,0 L111,0 L111,685"/> 
            <glyph glyph-name="Ê" unicode="&#xCA;" horiz-adv-x="466" d=" M167,762 L141,792 L271,894 L307,894 L436,792 L410,762 L289,842 M459,685 L452,635 L171,635 L171,380 L414,380 L414,330 L171,330 L171,50 L466,50 L466,0 L111,0 L111,685"/> 
            <glyph glyph-name="Ë" unicode="&#xCB;" horiz-adv-x="466" d=" M177,868 Q211,868 222.5,856.5 Q234,845 234,828 Q234,811 222.5,800 Q211,789 194,789 Q177,789 165.5,800 Q154,811 154,828 Q154,845 177,868 M366,868 Q400,868 411.5,856.5 Q423,845 423,828 Q423,811 411.5,800 Q400,789 383,789 Q366,789 354.5,800 Q343,811 343,828 Q343,845 366,868 M459,685 L452,635 L171,635 L171,380 L414,380 L414,330 L171,330 L171,50 L466,50 L466,0 L111,0 L111,685"/> 
            <glyph glyph-name="Ì" unicode="&#xCC;" horiz-adv-x="242" d=" M54,888 L242,792 L226,758 L28,836 M171,685 L171,0 L111,0 L111,685"/> 
            <glyph glyph-name="Í" unicode="&#xCD;" horiz-adv-x="247" d=" M221,888 L247,836 L49,758 L33,792 M171,685 L171,0 L111,0 L111,685"/> 
            <glyph glyph-name="Î" unicode="&#xCE;" horiz-adv-x="287" d=" M18,762 L-8,792 L122,894 L158,894 L287,792 L261,762 L140,842 M171,685 L171,0 L111,0 L111,685"/> 
            <glyph glyph-name="Ï" unicode="&#xCF;" horiz-adv-x="274" d=" M28,868 Q62,868 73.5,856.5 Q85,845 85,828 Q85,811 73.5,800 Q62,789 45,789 Q28,789 16.5,800 Q5,811 5,828 Q5,845 28,868 M217,868 Q251,868 262.5,856.5 Q274,845 274,828 Q274,811 262.5,800 Q251,789 234,789 Q217,789 205.5,800 Q194,811 194,828 Q194,845 217,868 M171,685 L171,0 L111,0 L111,685"/> 
            <glyph glyph-name="Ð" unicode="&#xD0;" horiz-adv-x="571" d=" M252,685 Q304,685 346.5,677.5 Q389,670 432.5,647.5 Q476,625 505,588.5 Q534,552 552.5,491 Q571,430 571,348 Q571,266 552,203 Q533,140 503.5,102.5 Q474,65 432,41 Q390,17 349.5,8.5 Q309,0 263,0 L116,0 L116,328 L23,328 L23,376 L116,376 L116,685 M267,50 Q508,50 508,348 Q508,421 493,474 Q478,527 455.5,557.5 Q433,588 398.5,606 Q364,624 332,629.5 Q300,635 260,635 L176,635 L176,376 L351,376 L351,328 L176,328 L176,50"/> 
            <glyph glyph-name="Ñ" unicode="&#xD1;" horiz-adv-x="562" d=" M403,792 Q375,792 338,815 Q301,838 286,838 Q257,838 230,798 L194,816 Q231,884 286,884 Q310,884 347,861.5 Q384,839 403,839 Q431,839 459,882 L495,864 Q460,792 403,792 M562,685 L562,0 L483,0 L160,619 Q168,494 168,383 L168,0 L111,0 L111,685 L188,685 L513,66 Q505,182 505,269 L505,685"/> 
            <glyph glyph-name="Ò" unicode="&#xD2;" horiz-adv-x="625" d=" M259,888 L447,792 L431,758 L233,836 M345,696 Q473,696 549,604 Q625,512 625,342 Q625,175 549.5,82 Q474,-11 345,-11 Q218,-11 142,81.5 Q66,174 66,341 Q66,507 143,601.5 Q220,696 345,696 M345,645 Q245,645 187,568.5 Q129,492 129,341 Q129,192 187.5,116 Q246,40 345,40 Q448,40 505,115.5 Q562,191 562,342 Q562,494 504.5,569.5 Q447,645 345,645"/> 
            <glyph glyph-name="Ó" unicode="&#xD3;" horiz-adv-x="625" d=" M426,888 L452,836 L254,758 L238,792 M345,696 Q473,696 549,604 Q625,512 625,342 Q625,175 549.5,82 Q474,-11 345,-11 Q218,-11 142,81.5 Q66,174 66,341 Q66,507 143,601.5 Q220,696 345,696 M345,645 Q245,645 187,568.5 Q129,492 129,341 Q129,192 187.5,116 Q246,40 345,40 Q448,40 505,115.5 Q562,191 562,342 Q562,494 504.5,569.5 Q447,645 345,645"/> 
            <glyph glyph-name="Ô" unicode="&#xD4;" horiz-adv-x="625" d=" M223,762 L197,792 L327,894 L363,894 L492,792 L466,762 L345,842 M345,696 Q473,696 549,604 Q625,512 625,342 Q625,175 549.5,82 Q474,-11 345,-11 Q218,-11 142,81.5 Q66,174 66,341 Q66,507 143,601.5 Q220,696 345,696 M345,645 Q245,645 187,568.5 Q129,492 129,341 Q129,192 187.5,116 Q246,40 345,40 Q448,40 505,115.5 Q562,191 562,342 Q562,494 504.5,569.5 Q447,645 345,645"/> 
            <glyph glyph-name="Õ" unicode="&#xD5;" horiz-adv-x="625" d=" M403,792 Q375,792 338,815 Q301,838 286,838 Q257,838 230,798 L194,816 Q231,884 286,884 Q310,884 347,861.5 Q384,839 403,839 Q431,839 459,882 L495,864 Q460,792 403,792 M345,696 Q473,696 549,604 Q625,512 625,342 Q625,175 549.5,82 Q474,-11 345,-11 Q218,-11 142,81.5 Q66,174 66,341 Q66,507 143,601.5 Q220,696 345,696 M345,645 Q245,645 187,568.5 Q129,492 129,341 Q129,192 187.5,116 Q246,40 345,40 Q448,40 505,115.5 Q562,191 562,342 Q562,494 504.5,569.5 Q447,645 345,645"/> 
            <glyph glyph-name="Ö" unicode="&#xD6;" horiz-adv-x="625" d=" M233,868 Q267,868 278.5,856.5 Q290,845 290,828 Q290,811 278.5,800 Q267,789 250,789 Q233,789 221.5,800 Q210,811 210,828 Q210,845 233,868 M422,868 Q456,868 467.5,856.5 Q479,845 479,828 Q479,811 467.5,800 Q456,789 439,789 Q422,789 410.5,800 Q399,811 399,828 Q399,845 422,868 M345,696 Q473,696 549,604 Q625,512 625,342 Q625,175 549.5,82 Q474,-11 345,-11 Q218,-11 142,81.5 Q66,174 66,341 Q66,507 143,601.5 Q220,696 345,696 M345,645 Q245,645 187,568.5 Q129,492 129,341 Q129,192 187.5,116 Q246,40 345,40 Q448,40 505,115.5 Q562,191 562,342 Q562,494 504.5,569.5 Q447,645 345,645"/> 
            <glyph glyph-name="×" unicode="&#xD7;" horiz-adv-x="409" d=" M371,471 L409,434 L284,308 L409,180 L371,144 L248,272 L122,144 L85,180 L208,306 L85,434 L122,471 L245,342"/> 
            <glyph glyph-name="Ø" unicode="&#xD8;" horiz-adv-x="625" d=" M469,669 Q543,632 584,548.5 Q625,465 625,342 Q625,175 549.5,82 Q474,-11 345,-11 Q303,-11 267,-1 L235,-120 L182,-105 L221,17 Q147,55 106.5,137.5 Q66,220 66,341 Q66,507 143,601.5 Q220,696 345,696 Q385,696 421,687 L456,810 L509,796 M129,341 Q129,133 241,66 L410,636 Q380,645 345,645 Q245,645 187,568.5 Q129,492 129,341 M345,40 Q448,40 505,115.5 Q562,191 562,342 Q562,558 448,621 L279,49 Q309,40 345,40"/> 
            <glyph glyph-name="Ù" unicode="&#xD9;" horiz-adv-x="551" d=" M240,888 L428,792 L412,758 L214,836 M551,685 L551,214 Q551,112 493,50.5 Q435,-11 326,-11 Q216,-11 158.5,50 Q101,111 101,214 L101,685 L161,685 L161,219 Q161,41 326,41 Q490,41 490,219 L490,685"/> 
            <glyph glyph-name="Ú" unicode="&#xDA;" horiz-adv-x="551" d=" M407,888 L433,836 L235,758 L219,792 M551,685 L551,214 Q551,112 493,50.5 Q435,-11 326,-11 Q216,-11 158.5,50 Q101,111 101,214 L101,685 L161,685 L161,219 Q161,41 326,41 Q490,41 490,219 L490,685"/> 
            <glyph glyph-name="Û" unicode="&#xDB;" horiz-adv-x="551" d=" M204,762 L178,792 L308,894 L344,894 L473,792 L447,762 L326,842 M551,685 L551,214 Q551,112 493,50.5 Q435,-11 326,-11 Q216,-11 158.5,50 Q101,111 101,214 L101,685 L161,685 L161,219 Q161,41 326,41 Q490,41 490,219 L490,685"/> 
            <glyph glyph-name="Ü" unicode="&#xDC;" horiz-adv-x="551" d=" M214,868 Q248,868 259.5,856.5 Q271,845 271,828 Q271,811 259.5,800 Q248,789 231,789 Q214,789 202.5,800 Q191,811 191,828 Q191,845 214,868 M403,868 Q437,868 448.5,856.5 Q460,845 460,828 Q460,811 448.5,800 Q437,789 420,789 Q403,789 391.5,800 Q380,811 380,828 Q380,845 403,868 M551,685 L551,214 Q551,112 493,50.5 Q435,-11 326,-11 Q216,-11 158.5,50 Q101,111 101,214 L101,685 L161,685 L161,219 Q161,41 326,41 Q490,41 490,219 L490,685"/> 
            <glyph glyph-name="Ý" unicode="&#xDD;" horiz-adv-x="509" d=" M342,888 L368,836 L170,758 L154,792 M509,685 L292,268 L292,0 L232,0 L232,267 L13,685 L80,685 L264,321 L445,685"/> 
            <glyph glyph-name="Þ" unicode="&#xDE;" horiz-adv-x="525" d=" M272,563 Q525,563 525,356 Q525,242 456.5,189 Q388,136 269,136 L171,136 L171,0 L111,0 L111,685 L171,685 L171,563 M269,186 Q362,186 412,223.5 Q462,261 462,355 Q462,440 414,476.5 Q366,513 271,513 L171,513 L171,186"/> 
            <glyph glyph-name="ß" unicode="&#xDF;" horiz-adv-x="534" d=" M294,743 Q367,743 412.5,705 Q458,667 458,609 Q458,573 439.5,544 Q421,515 399.5,500.5 Q378,486 359.5,466 Q341,446 341,424 Q341,401 361,380.5 Q381,360 409.5,342 Q438,324 466,301.5 Q494,279 514,241.5 Q534,204 534,155 Q534,81 488,35 Q442,-11 371,-11 Q317,-11 275,12 L293,53 Q325,38 367,38 Q416,38 445,69 Q474,100 474,156 Q474,198 454.5,230 Q435,262 407.5,282 Q380,302 352.5,320.5 Q325,339 305.5,364 Q286,389 286,421 Q286,450 304,473.5 Q322,497 343.5,510.5 Q365,524 383,549 Q401,574 401,606 Q401,648 371,672 Q341,696 293,696 Q234,696 199,656.5 Q164,617 164,538 L164,0 L106,0 L106,540 Q106,637 157,690 Q208,743 294,743"/> 
            <glyph glyph-name="à" unicode="&#xE0;" horiz-adv-x="475" d=" M369,679 L351,645 L155,730 L181,782 M431,116 Q431,75 441.5,57 Q452,39 475,30 L462,-11 Q426,-4 406.5,16 Q387,36 381,77 Q327,-11 218,-11 Q143,-11 99.5,31.5 Q56,74 56,145 Q56,226 113.5,270 Q171,314 273,314 L373,314 L373,365 Q373,428 345,456.5 Q317,485 252,485 Q192,485 110,455 L95,499 Q183,534 260,534 Q431,534 431,368 M228,36 Q322,36 373,128 L373,272 L282,272 Q118,272 118,148 Q118,94 147,65 Q176,36 228,36"/> 
            <glyph glyph-name="á" unicode="&#xE1;" horiz-adv-x="475" d=" M359,730 L164,645 L145,679 L333,782 M431,116 Q431,75 441.5,57 Q452,39 475,30 L462,-11 Q426,-4 406.5,16 Q387,36 381,77 Q327,-11 218,-11 Q143,-11 99.5,31.5 Q56,74 56,145 Q56,226 113.5,270 Q171,314 273,314 L373,314 L373,365 Q373,428 345,456.5 Q317,485 252,485 Q192,485 110,455 L95,499 Q183,534 260,534 Q431,534 431,368 M228,36 Q322,36 373,128 L373,272 L282,272 Q118,272 118,148 Q118,94 147,65 Q176,36 228,36"/> 
            <glyph glyph-name="â" unicode="&#xE2;" horiz-adv-x="475" d=" M257,728 L136,643 L110,674 L239,779 L275,779 L405,674 L379,643 M431,116 Q431,75 441.5,57 Q452,39 475,30 L462,-11 Q426,-4 406.5,16 Q387,36 381,77 Q327,-11 218,-11 Q143,-11 99.5,31.5 Q56,74 56,145 Q56,226 113.5,270 Q171,314 273,314 L373,314 L373,365 Q373,428 345,456.5 Q317,485 252,485 Q192,485 110,455 L95,499 Q183,534 260,534 Q431,534 431,368 M228,36 Q322,36 373,128 L373,272 L282,272 Q118,272 118,148 Q118,94 147,65 Q176,36 228,36"/> 
            <glyph glyph-name="ã" unicode="&#xE3;" horiz-adv-x="475" d=" M199,712 Q170,712 143,672 L107,690 Q144,758 199,758 Q224,758 261,735.5 Q298,713 316,713 Q344,713 372,756 L408,738 Q373,666 316,666 Q288,666 251,689 Q214,712 199,712 M431,116 Q431,75 441.5,57 Q452,39 475,30 L462,-11 Q426,-4 406.5,16 Q387,36 381,77 Q327,-11 218,-11 Q143,-11 99.5,31.5 Q56,74 56,145 Q56,226 113.5,270 Q171,314 273,314 L373,314 L373,365 Q373,428 345,456.5 Q317,485 252,485 Q192,485 110,455 L95,499 Q183,534 260,534 Q431,534 431,368 M228,36 Q322,36 373,128 L373,272 L282,272 Q118,272 118,148 Q118,94 147,65 Q176,36 228,36"/> 
            <glyph glyph-name="ä" unicode="&#xE4;" horiz-adv-x="475" d=" M180,663 Q146,663 134.5,674 Q123,685 123,702 Q123,719 134.5,730.5 Q146,742 163,742 Q180,742 191.5,730.5 Q203,719 203,702 Q203,685 180,663 M369,663 Q335,663 323.5,674 Q312,685 312,702 Q312,719 323.5,730.5 Q335,742 352,742 Q369,742 380.5,730.5 Q392,719 392,702 Q392,685 369,663 M431,116 Q431,75 441.5,57 Q452,39 475,30 L462,-11 Q426,-4 406.5,16 Q387,36 381,77 Q327,-11 218,-11 Q143,-11 99.5,31.5 Q56,74 56,145 Q56,226 113.5,270 Q171,314 273,314 L373,314 L373,365 Q373,428 345,456.5 Q317,485 252,485 Q192,485 110,455 L95,499 Q183,534 260,534 Q431,534 431,368 M228,36 Q322,36 373,128 L373,272 L282,272 Q118,272 118,148 Q118,94 147,65 Q176,36 228,36"/> 
            <glyph glyph-name="å" unicode="&#xE5;" horiz-adv-x="475" d=" M258,633 Q214,633 186.5,659.5 Q159,686 159,727 Q159,768 186.5,794.5 Q214,821 258,821 Q301,821 328.5,794.5 Q356,768 356,727 Q356,686 328.5,659.5 Q301,633 258,633 M258,785 Q231,785 216.5,769.5 Q202,754 202,727 Q202,669 258,669 Q284,669 298.5,684 Q313,699 313,727 Q313,754 298.5,769.5 Q284,785 258,785 M431,116 Q431,75 441.5,57 Q452,39 475,30 L462,-11 Q426,-4 406.5,16 Q387,36 381,77 Q327,-11 218,-11 Q143,-11 99.5,31.5 Q56,74 56,145 Q56,226 113.5,270 Q171,314 273,314 L373,314 L373,365 Q373,428 345,456.5 Q317,485 252,485 Q192,485 110,455 L95,499 Q183,534 260,534 Q431,534 431,368 M228,36 Q322,36 373,128 L373,272 L282,272 Q118,272 118,148 Q118,94 147,65 Q176,36 228,36"/> 
            <glyph glyph-name="æ" unicode="&#xE6;" horiz-adv-x="788" d=" M788,281 Q788,259 786,239 L437,239 Q441,137 484.5,87.5 Q528,38 599,38 Q671,38 740,90 L768,53 Q690,-11 596,-11 Q467,-11 410,96 Q370,39 324.5,14 Q279,-11 220,-11 Q144,-11 100,32 Q56,75 56,145 Q56,226 114.5,270.5 Q173,315 275,315 L375,315 L375,365 Q375,428 346.5,456.5 Q318,485 254,485 Q194,485 112,455 L96,499 Q184,534 261,534 Q388,534 421,433 Q475,534 588,534 Q685,534 736.5,466.5 Q788,399 788,281 M730,284 L730,299 Q730,387 694,436.5 Q658,486 587,486 Q522,486 481.5,436 Q441,386 437,284 M229,36 Q279,36 316.5,60.5 Q354,85 391,141 Q375,195 375,256 L375,272 L283,272 Q204,272 161.5,240.5 Q119,209 119,148 Q119,94 148,65 Q177,36 229,36"/> 
            <glyph glyph-name="ç" unicode="&#xE7;" horiz-adv-x="436" d=" M298,-64 Q390,-71 390,-140 Q390,-181 360,-204 Q330,-227 285,-227 Q236,-227 205,-206 L223,-170 Q250,-185 284,-185 Q339,-185 339,-140 Q339,-96 250,-96 L258,-9 Q168,1 116,71 Q64,141 64,258 Q64,384 124,459 Q184,534 285,534 Q372,534 433,481 L404,443 Q352,484 288,484 Q214,484 170,426.5 Q126,369 126,259 Q126,150 169.5,95 Q213,40 287,40 Q350,40 408,84 L436,45 Q377,-7 298,-11"/> 
            <glyph glyph-name="è" unicode="&#xE8;" horiz-adv-x="477" d=" M387,679 L369,645 L173,730 L199,782 M477,281 Q477,259 475,239 L126,239 Q131,137 174.5,87.5 Q218,38 289,38 Q360,38 430,90 L457,53 Q379,-11 286,-11 Q182,-11 123,60 Q64,131 64,257 Q64,383 120.5,458.5 Q177,534 273,534 Q373,534 425,466.5 Q477,399 477,281 M420,284 L420,299 Q420,387 383.5,436.5 Q347,486 275,486 Q210,486 170,436 Q130,386 126,284"/> 
            <glyph glyph-name="é" unicode="&#xE9;" horiz-adv-x="477" d=" M377,730 L182,645 L163,679 L351,782 M477,281 Q477,259 475,239 L126,239 Q131,137 174.5,87.5 Q218,38 289,38 Q360,38 430,90 L457,53 Q379,-11 286,-11 Q182,-11 123,60 Q64,131 64,257 Q64,383 120.5,458.5 Q177,534 273,534 Q373,534 425,466.5 Q477,399 477,281 M420,284 L420,299 Q420,387 383.5,436.5 Q347,486 275,486 Q210,486 170,436 Q130,386 126,284"/> 
            <glyph glyph-name="ê" unicode="&#xEA;" horiz-adv-x="477" d=" M275,728 L154,643 L128,674 L257,779 L293,779 L423,674 L397,643 M477,281 Q477,259 475,239 L126,239 Q131,137 174.5,87.5 Q218,38 289,38 Q360,38 430,90 L457,53 Q379,-11 286,-11 Q182,-11 123,60 Q64,131 64,257 Q64,383 120.5,458.5 Q177,534 273,534 Q373,534 425,466.5 Q477,399 477,281 M420,284 L420,299 Q420,387 383.5,436.5 Q347,486 275,486 Q210,486 170,436 Q130,386 126,284"/> 
            <glyph glyph-name="ë" unicode="&#xEB;" horiz-adv-x="477" d=" M198,663 Q164,663 152.5,674 Q141,685 141,702 Q141,719 152.5,730.5 Q164,742 181,742 Q198,742 209.5,730.5 Q221,719 221,702 Q221,685 198,663 M387,663 Q353,663 341.5,674 Q330,685 330,702 Q330,719 341.5,730.5 Q353,742 370,742 Q387,742 398.5,730.5 Q410,719 410,702 Q410,685 387,663 M477,281 Q477,259 475,239 L126,239 Q131,137 174.5,87.5 Q218,38 289,38 Q360,38 430,90 L457,53 Q379,-11 286,-11 Q182,-11 123,60 Q64,131 64,257 Q64,383 120.5,458.5 Q177,534 273,534 Q373,534 425,466.5 Q477,399 477,281 M420,284 L420,299 Q420,387 383.5,436.5 Q347,486 275,486 Q210,486 170,436 Q130,386 126,284"/> 
            <glyph glyph-name="ì" unicode="&#xEC;" horiz-adv-x="246" d=" M58,782 L246,679 L228,645 L32,730 M164,523 L164,0 L106,0 L106,523"/> 
            <glyph glyph-name="í" unicode="&#xED;" horiz-adv-x="236" d=" M210,782 L236,730 L41,645 L22,679 M164,523 L164,0 L106,0 L106,523"/> 
            <glyph glyph-name="î" unicode="&#xEE;" horiz-adv-x="282" d=" M13,643 L-13,674 L116,779 L152,779 L282,674 L256,643 L134,728 M164,523 L164,0 L106,0 L106,523"/> 
            <glyph glyph-name="ï" unicode="&#xEF;" horiz-adv-x="269" d=" M23,742 Q57,742 68.5,730.5 Q80,719 80,702 Q80,685 68.5,674 Q57,663 40,663 Q23,663 11.5,674 Q0,685 0,702 Q0,719 23,742 M212,742 Q246,742 257.5,730.5 Q269,719 269,702 Q269,685 257.5,674 Q246,663 229,663 Q212,663 200.5,674 Q189,685 189,702 Q189,719 212,742 M164,523 L164,0 L106,0 L106,523"/> 
            <glyph glyph-name="ð" unicode="&#xF0;" horiz-adv-x="487" d=" M324,664 Q409,600 448,508.5 Q487,417 487,280 Q487,141 429,65 Q371,-11 273,-11 Q178,-11 121,54.5 Q64,120 64,233 Q64,330 115.5,399 Q167,468 259,468 Q354,468 421,388 Q400,538 289,628 L212,551 L170,570 L250,653 Q184,687 128,698 L141,744 Q218,729 286,689 L355,762 L390,731 M273,37 Q346,37 387,100 Q428,163 428,282 Q428,302 426,330 Q360,421 267,421 Q197,421 160.5,368.5 Q124,316 124,234 Q124,140 163.5,88.5 Q203,37 273,37"/> 
            <glyph glyph-name="ñ" unicode="&#xF1;" horiz-adv-x="483" d=" M238,712 Q209,712 182,672 L146,690 Q183,758 238,758 Q262,758 299,735.5 Q336,713 355,713 Q383,713 411,756 L447,738 Q412,666 355,666 Q327,666 290,689 Q253,712 238,712 M337,534 Q408,534 445.5,492 Q483,450 483,374 L483,0 L425,0 L425,366 Q425,487 326,487 Q276,487 237.5,459.5 Q199,432 164,379 L164,0 L106,0 L106,523 L156,523 L162,434 Q230,534 337,534"/> 
            <glyph glyph-name="ò" unicode="&#xF2;" horiz-adv-x="507" d=" M209,782 L397,679 L379,645 L183,730 M286,534 Q390,534 448.5,462.5 Q507,391 507,263 Q507,136 447.5,62.5 Q388,-11 285,-11 Q181,-11 122.5,61.5 Q64,134 64,261 Q64,387 123.5,460.5 Q183,534 286,534 M286,485 Q210,485 168,428 Q126,371 126,261 Q126,152 167.5,95 Q209,38 285,38 Q361,38 403.5,95 Q446,152 446,263 Q446,372 404.5,428.5 Q363,485 286,485"/> 
            <glyph glyph-name="ó" unicode="&#xF3;" horiz-adv-x="507" d=" M361,782 L387,730 L192,645 L173,679 M286,534 Q390,534 448.5,462.5 Q507,391 507,263 Q507,136 447.5,62.5 Q388,-11 285,-11 Q181,-11 122.5,61.5 Q64,134 64,261 Q64,387 123.5,460.5 Q183,534 286,534 M286,485 Q210,485 168,428 Q126,371 126,261 Q126,152 167.5,95 Q209,38 285,38 Q361,38 403.5,95 Q446,152 446,263 Q446,372 404.5,428.5 Q363,485 286,485"/> 
            <glyph glyph-name="ô" unicode="&#xF4;" horiz-adv-x="507" d=" M164,643 L138,674 L267,779 L303,779 L433,674 L407,643 L285,728 M286,534 Q390,534 448.5,462.5 Q507,391 507,263 Q507,136 447.5,62.5 Q388,-11 285,-11 Q181,-11 122.5,61.5 Q64,134 64,261 Q64,387 123.5,460.5 Q183,534 286,534 M286,485 Q210,485 168,428 Q126,371 126,261 Q126,152 167.5,95 Q209,38 285,38 Q361,38 403.5,95 Q446,152 446,263 Q446,372 404.5,428.5 Q363,485 286,485"/> 
            <glyph glyph-name="õ" unicode="&#xF5;" horiz-adv-x="507" d=" M344,666 Q316,666 279,689 Q242,712 227,712 Q198,712 171,672 L135,690 Q172,758 227,758 Q252,758 289,735.5 Q326,713 344,713 Q372,713 400,756 L436,738 Q401,666 344,666 M286,534 Q390,534 448.5,462.5 Q507,391 507,263 Q507,136 447.5,62.5 Q388,-11 285,-11 Q181,-11 122.5,61.5 Q64,134 64,261 Q64,387 123.5,460.5 Q183,534 286,534 M286,485 Q210,485 168,428 Q126,371 126,261 Q126,152 167.5,95 Q209,38 285,38 Q361,38 403.5,95 Q446,152 446,263 Q446,372 404.5,428.5 Q363,485 286,485"/> 
            <glyph glyph-name="ö" unicode="&#xF6;" horiz-adv-x="507" d=" M174,742 Q208,742 219.5,730.5 Q231,719 231,702 Q231,685 219.5,674 Q208,663 191,663 Q174,663 162.5,674 Q151,685 151,702 Q151,719 174,742 M363,742 Q397,742 408.5,730.5 Q420,719 420,702 Q420,685 408.5,674 Q397,663 380,663 Q363,663 351.5,674 Q340,685 340,702 Q340,719 363,742 M286,534 Q390,534 448.5,462.5 Q507,391 507,263 Q507,136 447.5,62.5 Q388,-11 285,-11 Q181,-11 122.5,61.5 Q64,134 64,261 Q64,387 123.5,460.5 Q183,534 286,534 M286,485 Q210,485 168,428 Q126,371 126,261 Q126,152 167.5,95 Q209,38 285,38 Q361,38 403.5,95 Q446,152 446,263 Q446,372 404.5,428.5 Q363,485 286,485"/> 
            <glyph glyph-name="÷" unicode="&#xF7;" horiz-adv-x="424" d=" M247,598 Q268,598 281.5,584.5 Q295,571 295,551 Q295,530 281.5,516.5 Q268,503 247,503 Q227,503 213,517 Q199,531 199,551 Q199,571 213,584.5 Q227,598 247,598 M69,306 L69,357 L424,357 L424,306 M247,160 Q268,160 281.5,146.5 Q295,133 295,113 Q295,92 281.5,78.5 Q268,65 247,65 Q227,65 213,79 Q199,93 199,113 Q199,133 213,146.5 Q227,160 247,160"/> 
            <glyph glyph-name="ø" unicode="&#xF8;" horiz-adv-x="507" d=" M396,507 Q507,444 507,263 Q507,136 447.5,62.5 Q388,-11 285,-11 Q254,-11 224,-3 L183,-125 L134,-111 L177,15 Q123,46 93.5,109.5 Q64,173 64,261 Q64,387 123.5,460.5 Q183,534 286,534 Q319,534 349,526 L388,648 L437,634 M126,261 Q126,111 199,61 L337,478 Q316,485 286,485 Q210,485 168,428 Q126,371 126,261 M285,38 Q361,38 403.5,95 Q446,152 446,263 Q446,412 374,461 L236,44 Q258,38 285,38"/> 
            <glyph glyph-name="ù" unicode="&#xF9;" horiz-adv-x="473" d=" M210,782 L398,679 L380,645 L184,730 M473,523 L473,0 L423,0 L420,93 Q358,-11 249,-11 Q178,-11 139.5,30.5 Q101,72 101,149 L101,523 L159,523 L159,155 Q159,37 262,37 Q353,37 415,144 L415,523"/> 
            <glyph glyph-name="ú" unicode="&#xFA;" horiz-adv-x="473" d=" M362,782 L388,730 L193,645 L174,679 M473,523 L473,0 L423,0 L420,93 Q358,-11 249,-11 Q178,-11 139.5,30.5 Q101,72 101,149 L101,523 L159,523 L159,155 Q159,37 262,37 Q353,37 415,144 L415,523"/> 
            <glyph glyph-name="û" unicode="&#xFB;" horiz-adv-x="473" d=" M165,643 L139,674 L268,779 L304,779 L434,674 L408,643 L286,728 M473,523 L473,0 L423,0 L420,93 Q358,-11 249,-11 Q178,-11 139.5,30.5 Q101,72 101,149 L101,523 L159,523 L159,155 Q159,37 262,37 Q353,37 415,144 L415,523"/> 
            <glyph glyph-name="ü" unicode="&#xFC;" horiz-adv-x="473" d=" M175,742 Q209,742 220.5,730.5 Q232,719 232,702 Q232,685 220.5,674 Q209,663 192,663 Q175,663 163.5,674 Q152,685 152,702 Q152,719 175,742 M364,742 Q398,742 409.5,730.5 Q421,719 421,702 Q421,685 409.5,674 Q398,663 381,663 Q364,663 352.5,674 Q341,685 341,702 Q341,719 364,742 M473,523 L473,0 L423,0 L420,93 Q358,-11 249,-11 Q178,-11 139.5,30.5 Q101,72 101,149 L101,523 L159,523 L159,155 Q159,37 262,37 Q353,37 415,144 L415,523"/> 
            <glyph glyph-name="ý" unicode="&#xFD;" horiz-adv-x="452" d=" M309,782 L335,730 L140,645 L121,679 M452,523 L273,-2 Q242,-93 196,-139.5 Q150,-186 59,-204 L53,-159 Q128,-141 159,-107.5 Q190,-74 217,0 L197,0 L15,523 L78,523 L236,43 L391,523"/> 
            <glyph glyph-name="þ" unicode="&#xFE;" horiz-adv-x="512" d=" M322,534 Q417,534 464.5,463.5 Q512,393 512,264 Q512,138 460.5,63.5 Q409,-11 313,-11 Q221,-11 164,61 L164,-195 L106,-205 L106,736 L164,743 L164,451 Q225,534 322,534 M302,38 Q450,38 450,264 Q450,486 311,486 Q229,486 164,396 L164,118 Q216,38 302,38"/> 
            <glyph glyph-name="ÿ" unicode="&#xFF;" horiz-adv-x="452" d=" M122,742 Q156,742 167.5,730.5 Q179,719 179,702 Q179,685 167.5,674 Q156,663 139,663 Q122,663 110.5,674 Q99,685 99,702 Q99,719 122,742 M311,742 Q345,742 356.5,730.5 Q368,719 368,702 Q368,685 356.5,674 Q345,663 328,663 Q311,663 299.5,674 Q288,685 288,702 Q288,719 311,742 M452,523 L273,-2 Q242,-93 196,-139.5 Q150,-186 59,-204 L53,-159 Q128,-141 159,-107.5 Q190,-74 217,0 L197,0 L15,523 L78,523 L236,43 L391,523"/> 
            <glyph glyph-name="Ā" unicode="&#x100;" horiz-adv-x="548" d=" M403,849 L403,802 L162,802 L162,849 M485,0 L425,187 L137,187 L77,0 L16,0 L245,685 L320,685 L548,0 M154,238 L409,238 L282,636"/> 
            <glyph glyph-name="ā" unicode="&#x101;" horiz-adv-x="475" d=" M378,723 L378,676 L137,676 L137,723 M431,116 Q431,75 441.5,57 Q452,39 475,30 L462,-11 Q426,-4 406.5,16 Q387,36 381,77 Q327,-11 218,-11 Q143,-11 99.5,31.5 Q56,74 56,145 Q56,226 113.5,270 Q171,314 273,314 L373,314 L373,365 Q373,428 345,456.5 Q317,485 252,485 Q192,485 110,455 L95,499 Q183,534 260,534 Q431,534 431,368 M228,36 Q322,36 373,128 L373,272 L282,272 Q118,272 118,148 Q118,94 147,65 Q176,36 228,36"/> 
            <glyph glyph-name="Ă" unicode="&#x102;" horiz-adv-x="548" d=" M333,765 Q231,765 195,793.5 Q159,822 152,865 L192,874 Q214,812 282,812 Q351,812 373,874 L413,865 Q406,822 333,765 M485,0 L425,187 L137,187 L77,0 L16,0 L245,685 L320,685 L548,0 M154,238 L409,238 L282,636"/> 
            <glyph glyph-name="ă" unicode="&#x103;" horiz-adv-x="475" d=" M309,653 Q205,653 169.5,683 Q134,713 127,763 L167,772 Q187,700 257,700 Q328,700 348,772 L388,763 Q381,713 309,653 M431,116 Q431,75 441.5,57 Q452,39 475,30 L462,-11 Q426,-4 406.5,16 Q387,36 381,77 Q327,-11 218,-11 Q143,-11 99.5,31.5 Q56,74 56,145 Q56,226 113.5,270 Q171,314 273,314 L373,314 L373,365 Q373,428 345,456.5 Q317,485 252,485 Q192,485 110,455 L95,499 Q183,534 260,534 Q431,534 431,368 M228,36 Q322,36 373,128 L373,272 L282,272 Q118,272 118,148 Q118,94 147,65 Q176,36 228,36"/> 
            <glyph glyph-name="Ą" unicode="&#x104;" horiz-adv-x="548" d=" M530,0 Q463,-30 435.5,-56.5 Q408,-83 408,-118 Q408,-170 471,-170 Q498,-170 529,-163 L523,-211 Q488,-218 465,-218 Q412,-218 383,-192.5 Q354,-167 354,-126 Q354,-43 482,11 L425,187 L137,187 L77,0 L16,0 L245,685 L320,685 L548,0 M154,238 L409,238 L282,636"/> 
            <glyph glyph-name="ą" unicode="&#x105;" horiz-adv-x="475" d=" M462,-11 Q395,-41 367.5,-67.5 Q340,-94 340,-129 Q340,-181 403,-181 Q430,-181 461,-174 L455,-222 Q420,-229 397,-229 Q344,-229 315,-203.5 Q286,-178 286,-137 Q286,-52 422,4 Q388,24 381,77 Q327,-11 218,-11 Q143,-11 99.5,31.5 Q56,74 56,145 Q56,226 113.5,270 Q171,314 273,314 L373,314 L373,365 Q373,428 345,456.5 Q317,485 252,485 Q192,485 110,455 L95,499 Q183,534 260,534 Q431,534 431,368 L431,116 Q431,75 441.5,57 Q452,39 475,30 M228,36 Q322,36 373,128 L373,272 L282,272 Q118,272 118,148 Q118,94 147,65 Q176,36 228,36"/> 
            <glyph glyph-name="Ć" unicode="&#x106;" horiz-adv-x="527" d=" M425,888 L451,836 L253,758 L237,792 M343,696 Q400,696 439.5,680.5 Q479,665 519,633 L487,593 Q421,645 347,645 Q250,645 189.5,571 Q129,497 129,343 Q129,194 189,118 Q249,42 344,42 Q425,42 496,99 L527,60 Q452,-11 342,-11 Q219,-11 142.5,82 Q66,175 66,343 Q66,512 144.5,604 Q223,696 343,696"/> 
            <glyph glyph-name="ć" unicode="&#x107;" horiz-adv-x="436" d=" M361,782 L387,730 L192,645 L173,679 M285,534 Q372,534 433,481 L404,443 Q352,484 288,484 Q214,484 170,426.5 Q126,369 126,259 Q126,150 169.5,95 Q213,40 287,40 Q350,40 408,84 L436,45 Q370,-11 286,-11 Q184,-11 124,60.5 Q64,132 64,258 Q64,384 124,459 Q184,534 285,534"/> 
            <glyph glyph-name="Ĉ" unicode="&#x108;" horiz-adv-x="527" d=" M222,762 L196,792 L326,894 L362,894 L491,792 L465,762 L344,842 M343,696 Q400,696 439.5,680.5 Q479,665 519,633 L487,593 Q421,645 347,645 Q250,645 189.5,571 Q129,497 129,343 Q129,194 189,118 Q249,42 344,42 Q425,42 496,99 L527,60 Q452,-11 342,-11 Q219,-11 142.5,82 Q66,175 66,343 Q66,512 144.5,604 Q223,696 343,696"/> 
            <glyph glyph-name="ĉ" unicode="&#x109;" horiz-adv-x="436" d=" M164,643 L138,674 L267,779 L303,779 L433,674 L407,643 L285,728 M285,534 Q372,534 433,481 L404,443 Q352,484 288,484 Q214,484 170,426.5 Q126,369 126,259 Q126,150 169.5,95 Q213,40 287,40 Q350,40 408,84 L436,45 Q370,-11 286,-11 Q184,-11 124,60.5 Q64,132 64,258 Q64,384 124,459 Q184,534 285,534"/> 
            <glyph glyph-name="Ċ" unicode="&#x10A;" horiz-adv-x="527" d=" M343,879 Q363,879 375,867 Q387,855 387,837 Q387,819 375,807 Q363,795 343,795 Q324,795 312,807 Q300,819 300,837 Q300,855 312,867 Q324,879 343,879 M343,696 Q400,696 439.5,680.5 Q479,665 519,633 L487,593 Q421,645 347,645 Q250,645 189.5,571 Q129,497 129,343 Q129,194 189,118 Q249,42 344,42 Q425,42 496,99 L527,60 Q452,-11 342,-11 Q219,-11 142.5,82 Q66,175 66,343 Q66,512 144.5,604 Q223,696 343,696"/> 
            <glyph glyph-name="ċ" unicode="&#x10B;" horiz-adv-x="436" d=" M285,753 Q305,753 317,741 Q329,729 329,711 Q329,693 317,681 Q305,669 285,669 Q266,669 254,681 Q242,693 242,711 Q242,729 254,741 Q266,753 285,753 M285,534 Q372,534 433,481 L404,443 Q352,484 288,484 Q214,484 170,426.5 Q126,369 126,259 Q126,150 169.5,95 Q213,40 287,40 Q350,40 408,84 L436,45 Q370,-11 286,-11 Q184,-11 124,60.5 Q64,132 64,258 Q64,384 124,459 Q184,534 285,534"/> 
            <glyph glyph-name="Č" unicode="&#x10C;" horiz-adv-x="527" d=" M465,888 L491,857 L362,756 L326,756 L196,857 L222,888 L344,808 M343,696 Q400,696 439.5,680.5 Q479,665 519,633 L487,593 Q421,645 347,645 Q250,645 189.5,571 Q129,497 129,343 Q129,194 189,118 Q249,42 344,42 Q425,42 496,99 L527,60 Q452,-11 342,-11 Q219,-11 142.5,82 Q66,175 66,343 Q66,512 144.5,604 Q223,696 343,696"/> 
            <glyph glyph-name="č" unicode="&#x10D;" horiz-adv-x="436" d=" M407,769 L433,739 L304,633 L268,633 L138,739 L164,769 L286,685 M285,534 Q372,534 433,481 L404,443 Q352,484 288,484 Q214,484 170,426.5 Q126,369 126,259 Q126,150 169.5,95 Q213,40 287,40 Q350,40 408,84 L436,45 Q370,-11 286,-11 Q184,-11 124,60.5 Q64,132 64,258 Q64,384 124,459 Q184,534 285,534"/> 
            <glyph glyph-name="Ď" unicode="&#x10E;" horiz-adv-x="566" d=" M421,888 L447,857 L318,756 L282,756 L152,857 L178,888 L300,808 M247,685 Q299,685 341.5,677.5 Q384,670 427.5,647.5 Q471,625 500,588.5 Q529,552 547.5,491 Q566,430 566,348 Q566,266 547,203 Q528,140 498.5,102.5 Q469,65 427,41 Q385,17 344.5,8.5 Q304,0 258,0 L111,0 L111,685 M255,635 L171,635 L171,50 L262,50 Q503,50 503,348 Q503,421 488,474 Q473,527 450.5,557.5 Q428,588 393.5,606 Q359,624 327,629.5 Q295,635 255,635"/> 
            <glyph glyph-name="ď" unicode="&#x10F;" horiz-adv-x="613" d=" M421,463 L421,743 L479,736 L479,0 L429,0 L422,80 Q368,-11 265,-11 Q174,-11 121.5,61.5 Q69,134 69,259 Q69,382 124,458 Q179,534 274,534 Q363,534 421,463 M557,742 L613,736 L574,572 L538,577 M274,37 Q365,37 421,134 L421,407 Q365,486 284,486 Q213,486 171.5,427 Q130,368 131,260 Q131,152 169,94.5 Q207,37 274,37"/> 
            <glyph glyph-name="Đ" unicode="&#x110;" horiz-adv-x="571" d=" M252,685 Q304,685 346.5,677.5 Q389,670 432.5,647.5 Q476,625 505,588.5 Q534,552 552.5,491 Q571,430 571,348 Q571,266 552,203 Q533,140 503.5,102.5 Q474,65 432,41 Q390,17 349.5,8.5 Q309,0 263,0 L116,0 L116,328 L23,328 L23,376 L116,376 L116,685 M267,50 Q508,50 508,348 Q508,421 493,474 Q478,527 455.5,557.5 Q433,588 398.5,606 Q364,624 332,629.5 Q300,635 260,635 L176,635 L176,376 L351,376 L351,328 L176,328 L176,50"/> 
            <glyph glyph-name="đ" unicode="&#x111;" horiz-adv-x="556" d=" M479,663 L556,663 L556,616 L479,616 L479,0 L429,0 L422,80 Q368,-11 265,-11 Q174,-11 121.5,61.5 Q69,134 69,259 Q69,382 124,458 Q179,534 274,534 Q363,534 421,463 L421,616 L257,616 L257,663 L421,663 L421,743 L479,736 M274,37 Q365,37 421,134 L421,407 Q365,486 284,486 Q213,486 171.5,427 Q130,368 131,260 Q131,152 169,94.5 Q207,37 274,37"/> 
            <glyph glyph-name="Ē" unicode="&#x112;" horiz-adv-x="466" d=" M409,802 L168,802 L168,849 L409,849 M459,685 L452,635 L171,635 L171,380 L414,380 L414,330 L171,330 L171,50 L466,50 L466,0 L111,0 L111,685"/> 
            <glyph glyph-name="ē" unicode="&#x113;" horiz-adv-x="477" d=" M396,723 L396,676 L155,676 L155,723 M477,281 Q477,259 475,239 L126,239 Q131,137 174.5,87.5 Q218,38 289,38 Q360,38 430,90 L457,53 Q379,-11 286,-11 Q182,-11 123,60 Q64,131 64,257 Q64,383 120.5,458.5 Q177,534 273,534 Q373,534 425,466.5 Q477,399 477,281 M420,284 L420,299 Q420,387 383.5,436.5 Q347,486 275,486 Q210,486 170,436 Q130,386 126,284"/> 
            <glyph glyph-name="Ĕ" unicode="&#x114;" horiz-adv-x="466" d=" M339,765 Q237,765 201,793.5 Q165,822 158,865 L198,874 Q220,812 288,812 Q357,812 379,874 L419,865 Q412,822 339,765 M459,685 L452,635 L171,635 L171,380 L414,380 L414,330 L171,330 L171,50 L466,50 L466,0 L111,0 L111,685"/> 
            <glyph glyph-name="ĕ" unicode="&#x115;" horiz-adv-x="477" d=" M327,653 Q223,653 187.5,683 Q152,713 145,763 L185,772 Q205,700 275,700 Q346,700 366,772 L406,763 Q399,713 327,653 M477,281 Q477,259 475,239 L126,239 Q131,137 174.5,87.5 Q218,38 289,38 Q360,38 430,90 L457,53 Q379,-11 286,-11 Q182,-11 123,60 Q64,131 64,257 Q64,383 120.5,458.5 Q177,534 273,534 Q373,534 425,466.5 Q477,399 477,281 M420,284 L420,299 Q420,387 383.5,436.5 Q347,486 275,486 Q210,486 170,436 Q130,386 126,284"/> 
            <glyph glyph-name="Ė" unicode="&#x116;" horiz-adv-x="466" d=" M288,879 Q308,879 320,867 Q332,855 332,837 Q332,819 320,807 Q308,795 288,795 Q269,795 257,807 Q245,819 245,837 Q245,855 257,867 Q269,879 288,879 M459,685 L452,635 L171,635 L171,380 L414,380 L414,330 L171,330 L171,50 L466,50 L466,0 L111,0 L111,685"/> 
            <glyph glyph-name="ė" unicode="&#x117;" horiz-adv-x="477" d=" M275,669 Q256,669 244,681 Q232,693 232,711 Q232,729 244,741 Q256,753 275,753 Q295,753 307,741 Q319,729 319,711 Q319,693 307,681 Q295,669 275,669 M477,281 Q477,259 475,239 L126,239 Q131,137 174.5,87.5 Q218,38 289,38 Q360,38 430,90 L457,53 Q379,-11 286,-11 Q182,-11 123,60 Q64,131 64,257 Q64,383 120.5,458.5 Q177,534 273,534 Q373,534 425,466.5 Q477,399 477,281 M420,284 L420,299 Q420,387 383.5,436.5 Q347,486 275,486 Q210,486 170,436 Q130,386 126,284"/> 
            <glyph glyph-name="Ę" unicode="&#x118;" horiz-adv-x="466" d=" M171,50 L466,50 L466,0 L434,0 Q367,-30 339.5,-56.5 Q312,-83 312,-118 Q312,-170 375,-170 Q402,-170 433,-163 L427,-211 Q392,-218 369,-218 Q316,-218 287,-192.5 Q258,-167 258,-126 Q258,-50 362,0 L111,0 L111,685 L459,685 L452,635 L171,635 L171,380 L414,380 L414,330 L171,330"/> 
            <glyph glyph-name="ę" unicode="&#x119;" horiz-adv-x="477" d=" M477,281 Q477,259 475,239 L126,239 Q131,137 174.5,87.5 Q218,38 289,38 Q360,38 430,90 L457,53 Q415,19 374,4 Q308,-25 281,-51.5 Q254,-78 254,-113 Q254,-165 318,-165 Q343,-165 375,-158 L369,-206 Q334,-213 311,-213 Q258,-213 229,-187.5 Q200,-162 200,-121 Q200,-53 283,-11 Q181,-10 122.5,61 Q64,132 64,257 Q64,383 120.5,458.5 Q177,534 273,534 Q373,534 425,466.5 Q477,399 477,281 M420,284 L420,299 Q420,387 383.5,436.5 Q347,486 275,486 Q210,486 170,436 Q130,386 126,284"/> 
            <glyph glyph-name="Ě" unicode="&#x11A;" horiz-adv-x="466" d=" M410,888 L436,857 L307,756 L271,756 L141,857 L167,888 L289,808 M459,685 L452,635 L171,635 L171,380 L414,380 L414,330 L171,330 L171,50 L466,50 L466,0 L111,0 L111,685"/> 
            <glyph glyph-name="ě" unicode="&#x11B;" horiz-adv-x="477" d=" M294,633 L258,633 L128,739 L154,769 L276,685 L397,769 L423,739 M477,281 Q477,259 475,239 L126,239 Q131,137 174.5,87.5 Q218,38 289,38 Q360,38 430,90 L457,53 Q379,-11 286,-11 Q182,-11 123,60 Q64,131 64,257 Q64,383 120.5,458.5 Q177,534 273,534 Q373,534 425,466.5 Q477,399 477,281 M420,284 L420,299 Q420,387 383.5,436.5 Q347,486 275,486 Q210,486 170,436 Q130,386 126,284"/> 
            <glyph glyph-name="Ĝ" unicode="&#x11C;" horiz-adv-x="552" d=" M230,762 L204,792 L334,894 L370,894 L499,792 L473,762 L352,842 M352,696 Q410,696 453,679.5 Q496,663 540,628 L504,590 Q435,645 352,645 Q259,645 194,571 Q129,497 129,345 Q129,192 187,116 Q245,40 349,40 Q429,40 493,76 L493,319 L359,319 L352,369 L552,369 L552,45 Q454,-11 349,-11 Q218,-11 142,80 Q66,171 66,345 Q66,513 149.5,604.5 Q233,696 352,696"/> 
            <glyph glyph-name="ĝ" unicode="&#x11D;" horiz-adv-x="495" d=" M130,643 L104,674 L233,779 L269,779 L399,674 L373,643 L251,728 M477,568 L495,512 Q447,499 350,497 Q439,455 439,355 Q439,278 388,230.5 Q337,183 250,183 Q211,183 182,193 Q142,171 142,133 Q142,79 225,79 L310,79 Q387,79 432.5,41.5 Q478,4 478,-55 Q478,-127 421,-166 Q364,-205 251,-205 Q134,-205 83.5,-169.5 Q33,-134 33,-55 L87,-55 Q88,-111 123.5,-134 Q159,-157 251,-157 Q419,-157 419,-58 Q419,-16 388,6.5 Q357,29 301,29 L216,29 Q154,29 120.5,55 Q87,81 87,121 Q87,174 144,210 Q56,255 56,357 Q56,436 109,485 Q162,534 248,534 Q314,533 359.5,538 Q405,543 425,549 Q445,555 477,568 M313,489 Q183,489 149.5,453 Q116,417 116,357 Q116,295 151.5,260 Q187,225 248,225 Q312,225 346,259.5 Q380,294 380,356 Q380,419 313,489"/> 
            <glyph glyph-name="Ğ" unicode="&#x11E;" horiz-adv-x="552" d=" M402,765 Q300,765 264,793.5 Q228,822 221,865 L261,874 Q283,812 351,812 Q420,812 442,874 L482,865 Q475,822 402,765 M352,696 Q410,696 453,679.5 Q496,663 540,628 L504,590 Q435,645 352,645 Q259,645 194,571 Q129,497 129,345 Q129,192 187,116 Q245,40 349,40 Q429,40 493,76 L493,319 L359,319 L352,369 L552,369 L552,45 Q454,-11 349,-11 Q218,-11 142,80 Q66,171 66,345 Q66,513 149.5,604.5 Q233,696 352,696"/> 
            <glyph glyph-name="ğ" unicode="&#x11F;" horiz-adv-x="495" d=" M303,653 Q199,653 163.5,683 Q128,713 121,763 L161,772 Q181,700 251,700 Q322,700 342,772 L382,763 Q375,713 303,653 M477,568 L495,512 Q447,499 350,497 Q439,455 439,355 Q439,278 388,230.5 Q337,183 250,183 Q211,183 182,193 Q142,171 142,133 Q142,79 225,79 L310,79 Q387,79 432.5,41.5 Q478,4 478,-55 Q478,-127 421,-166 Q364,-205 251,-205 Q134,-205 83.5,-169.5 Q33,-134 33,-55 L87,-55 Q88,-111 123.5,-134 Q159,-157 251,-157 Q419,-157 419,-58 Q419,-16 388,6.5 Q357,29 301,29 L216,29 Q154,29 120.5,55 Q87,81 87,121 Q87,174 144,210 Q56,255 56,357 Q56,436 109,485 Q162,534 248,534 Q314,533 359.5,538 Q405,543 425,549 Q445,555 477,568 M313,489 Q183,489 149.5,453 Q116,417 116,357 Q116,295 151.5,260 Q187,225 248,225 Q312,225 346,259.5 Q380,294 380,356 Q380,419 313,489"/> 
            <glyph glyph-name="Ġ" unicode="&#x120;" horiz-adv-x="552" d=" M351,879 Q371,879 383,867 Q395,855 395,837 Q395,819 383,807 Q371,795 351,795 Q332,795 320,807 Q308,819 308,837 Q308,855 320,867 Q332,879 351,879 M352,696 Q410,696 453,679.5 Q496,663 540,628 L504,590 Q435,645 352,645 Q259,645 194,571 Q129,497 129,345 Q129,192 187,116 Q245,40 349,40 Q429,40 493,76 L493,319 L359,319 L352,369 L552,369 L552,45 Q454,-11 349,-11 Q218,-11 142,80 Q66,171 66,345 Q66,513 149.5,604.5 Q233,696 352,696"/> 
            <glyph glyph-name="ġ" unicode="&#x121;" horiz-adv-x="495" d=" M251,753 Q271,753 283,741 Q295,729 295,711 Q295,693 283,681 Q271,669 251,669 Q232,669 220,681 Q208,693 208,711 Q208,729 220,741 Q232,753 251,753 M477,568 L495,512 Q447,499 350,497 Q439,455 439,355 Q439,278 388,230.5 Q337,183 250,183 Q211,183 182,193 Q142,171 142,133 Q142,79 225,79 L310,79 Q387,79 432.5,41.5 Q478,4 478,-55 Q478,-127 421,-166 Q364,-205 251,-205 Q134,-205 83.5,-169.5 Q33,-134 33,-55 L87,-55 Q88,-111 123.5,-134 Q159,-157 251,-157 Q419,-157 419,-58 Q419,-16 388,6.5 Q357,29 301,29 L216,29 Q154,29 120.5,55 Q87,81 87,121 Q87,174 144,210 Q56,255 56,357 Q56,436 109,485 Q162,534 248,534 Q314,533 359.5,538 Q405,543 425,549 Q445,555 477,568 M313,489 Q183,489 149.5,453 Q116,417 116,357 Q116,295 151.5,260 Q187,225 248,225 Q312,225 346,259.5 Q380,294 380,356 Q380,419 313,489"/> 
            <glyph glyph-name="Ģ" unicode="&#x122;" horiz-adv-x="552" d=" M352,696 Q410,696 453,679.5 Q496,663 540,628 L504,590 Q435,645 352,645 Q259,645 194,571 Q129,497 129,345 Q129,192 187,116 Q245,40 349,40 Q429,40 493,76 L493,319 L359,319 L352,369 L552,369 L552,45 Q454,-11 349,-11 Q218,-11 142,80 Q66,171 66,345 Q66,513 149.5,604.5 Q233,696 352,696 M321,-85 Q359,-85 371.5,-97 Q384,-109 384,-127 Q384,-146 361,-193 L321,-279 L286,-279 L318,-165 Q296,-151 296,-127 Q296,-109 321,-85"/> 
            <glyph glyph-name="ģ" unicode="&#x123;" horiz-adv-x="495" d=" M268,589 Q230,589 217.5,601 Q205,613 205,631 Q205,650 228,697 L268,783 L303,783 L271,669 Q293,655 293,631 Q293,613 268,589 M477,568 L495,512 Q447,499 350,497 Q439,455 439,355 Q439,278 388,230.5 Q337,183 250,183 Q211,183 182,193 Q142,171 142,133 Q142,79 225,79 L310,79 Q387,79 432.5,41.5 Q478,4 478,-55 Q478,-127 421,-166 Q364,-205 251,-205 Q134,-205 83.5,-169.5 Q33,-134 33,-55 L87,-55 Q88,-111 123.5,-134 Q159,-157 251,-157 Q419,-157 419,-58 Q419,-16 388,6.5 Q357,29 301,29 L216,29 Q154,29 120.5,55 Q87,81 87,121 Q87,174 144,210 Q56,255 56,357 Q56,436 109,485 Q162,534 248,534 Q314,533 359.5,538 Q405,543 425,549 Q445,555 477,568 M313,489 Q183,489 149.5,453 Q116,417 116,357 Q116,295 151.5,260 Q187,225 248,225 Q312,225 346,259.5 Q380,294 380,356 Q380,419 313,489"/> 
            <glyph glyph-name="Ĥ" unicode="&#x124;" horiz-adv-x="559" d=" M212,762 L186,792 L316,894 L352,894 L481,792 L455,762 L334,842 M499,0 L499,335 L171,335 L171,0 L111,0 L111,685 L171,685 L171,386 L499,386 L499,685 L559,685 L559,0"/> 
            <glyph glyph-name="ĥ" unicode="&#x125;" horiz-adv-x="483" d=" M294,893 L172,813 L146,843 L276,945 L312,945 L441,843 L415,813 M337,534 Q407,534 445,491.5 Q483,449 483,374 L483,0 L425,0 L425,366 Q425,487 326,487 Q276,487 237.5,459.5 Q199,432 164,379 L164,0 L106,0 L106,736 L164,743 L164,436 Q234,534 337,534"/> 
            <glyph glyph-name="Ħ" unicode="&#x126;" horiz-adv-x="627" d=" M627,558 L627,513 L561,513 L561,0 L501,0 L501,335 L173,335 L173,0 L113,0 L113,513 L47,513 L47,558 L113,558 L113,685 L173,685 L173,558 L501,558 L501,685 L561,685 L561,558 M501,386 L501,513 L173,513 L173,386"/> 
            <glyph glyph-name="ħ" unicode="&#x127;" horiz-adv-x="488" d=" M342,534 Q412,534 450,491.5 Q488,449 488,374 L488,0 L430,0 L430,366 Q430,487 331,487 Q281,487 242.5,459.5 Q204,432 169,379 L169,0 L111,0 L111,616 L35,616 L35,663 L111,663 L111,736 L169,743 L169,663 L334,663 L334,616 L169,616 L169,436 Q239,534 342,534"/> 
            <glyph glyph-name="Ĩ" unicode="&#x128;" horiz-adv-x="290" d=" M198,792 Q170,792 133,815 Q96,838 81,838 Q52,838 25,798 L-11,816 Q26,884 81,884 Q106,884 143,861.5 Q180,839 198,839 Q226,839 254,882 L290,864 Q255,792 198,792 M171,685 L171,0 L111,0 L111,685"/> 
            <glyph glyph-name="ĩ" unicode="&#x129;" horiz-adv-x="285" d=" M193,666 Q165,666 128,689 Q91,712 76,712 Q47,712 20,672 L-16,690 Q21,758 76,758 Q101,758 137.5,735.5 Q174,713 193,713 Q221,713 249,756 L285,738 Q250,666 193,666 M164,523 L164,0 L106,0 L106,523"/> 
            <glyph glyph-name="Ī" unicode="&#x12A;" horiz-adv-x="260" d=" M260,802 L19,802 L19,849 L260,849 M171,685 L171,0 L111,0 L111,685"/> 
            <glyph glyph-name="ī" unicode="&#x12B;" horiz-adv-x="255" d=" M255,676 L14,676 L14,723 L255,723 M164,523 L164,0 L106,0 L106,523"/> 
            <glyph glyph-name="Ĭ" unicode="&#x12C;" horiz-adv-x="270" d=" M190,765 Q88,765 52,793.5 Q16,822 9,865 L49,874 Q71,812 139,812 Q208,812 230,874 L270,865 Q263,822 190,765 M171,685 L171,0 L111,0 L111,685"/> 
            <glyph glyph-name="ĭ" unicode="&#x12D;" horiz-adv-x="265" d=" M186,653 Q82,653 46.5,683 Q11,713 4,763 L44,772 Q64,700 134,700 Q205,700 225,772 L265,763 Q258,713 186,653 M164,523 L164,0 L106,0 L106,523"/> 
            <glyph glyph-name="Į" unicode="&#x12E;" horiz-adv-x="171" d=" M171,0 Q104,-30 76.5,-56.5 Q49,-83 49,-118 Q49,-170 112,-170 Q139,-170 170,-163 L164,-211 Q129,-218 106,-218 Q53,-218 24,-192.5 Q-5,-167 -5,-126 Q-5,-47 111,6 L111,685 L171,685"/> 
            <glyph glyph-name="į" unicode="&#x12F;" horiz-adv-x="178" d=" M134,753 Q154,753 166,741 Q178,729 178,711 Q178,693 166,681 Q154,669 134,669 Q115,669 103,681 Q91,693 91,711 Q91,729 103,741 Q115,753 134,753 M106,7 L106,523 L164,523 L164,0 Q97,-30 69.5,-56.5 Q42,-83 42,-118 Q42,-170 105,-170 Q132,-170 163,-163 L157,-211 Q122,-218 99,-218 Q46,-218 17,-192.5 Q-12,-167 -12,-126 Q-12,-46 106,7"/> 
            <glyph glyph-name="İ" unicode="&#x130;" horiz-adv-x="183" d=" M139,879 Q159,879 171,867 Q183,855 183,837 Q183,819 171,807 Q159,795 139,795 Q120,795 108,807 Q96,819 96,837 Q96,855 108,867 Q120,879 139,879 M171,685 L171,0 L111,0 L111,685"/> 
            <glyph glyph-name="ı" unicode="&#x131;" horiz-adv-x="164" d=" M164,523 L164,0 L106,0 L106,523"/> 
            <glyph glyph-name="Ĳ" unicode="&#x132;" horiz-adv-x="467" d=" M171,685 L171,0 L111,0 L111,685 M467,685 L467,92 Q467,3 432.5,-41.5 Q398,-86 311,-119 L295,-75 Q362,-45 384.5,-10.5 Q407,24 407,95 L407,685"/> 
            <glyph glyph-name="ĳ" unicode="&#x133;" horiz-adv-x="448" d=" M134,753 Q154,753 166,741 Q178,729 178,711 Q178,693 166,681 Q154,669 134,669 Q115,669 103,681 Q91,693 91,711 Q91,729 103,741 Q115,753 134,753 M404,753 Q424,753 436,741 Q448,729 448,711 Q448,693 436,681 Q424,669 404,669 Q385,669 373,681 Q361,693 361,711 Q361,729 373,741 Q385,753 404,753 M164,523 L164,0 L106,0 L106,523 M434,523 L434,19 Q434,-80 402.5,-123.5 Q371,-167 293,-203 L276,-161 Q333,-133 354.5,-99 Q376,-65 376,17 L376,523"/> 
            <glyph glyph-name="Ĵ" unicode="&#x134;" horiz-adv-x="301" d=" M32,762 L6,792 L136,894 L172,894 L301,792 L275,762 L154,842 M185,685 L185,92 Q185,3 150.5,-41.5 Q116,-86 29,-119 L13,-75 Q80,-45 102.5,-10.5 Q125,24 125,95 L125,685"/> 
            <glyph glyph-name="ĵ" unicode="&#x135;" horiz-adv-x="282" d=" M13,643 L-13,674 L116,779 L152,779 L282,674 L256,643 L134,728 M164,523 L164,19 Q164,-80 132.5,-123.5 Q101,-167 23,-203 L6,-161 Q63,-133 84.5,-99 Q106,-65 106,17 L106,523"/> 
            <glyph glyph-name="Ķ" unicode="&#x136;" horiz-adv-x="547" d=" M171,685 L171,0 L111,0 L111,685 M530,685 L246,370 L547,0 L474,0 L175,367 L461,685 M288,-85 Q326,-85 338.5,-97 Q351,-109 351,-127 Q351,-146 328,-193 L288,-279 L253,-279 L285,-165 Q263,-151 263,-127 Q263,-109 288,-85"/> 
            <glyph glyph-name="ķ" unicode="&#x137;" horiz-adv-x="480" d=" M164,743 L164,0 L106,0 L106,736 M457,523 L237,289 L480,0 L410,0 L170,286 L390,523 M244,-85 Q282,-85 294.5,-97 Q307,-109 307,-127 Q307,-146 284,-193 L244,-279 L209,-279 L241,-165 Q219,-151 219,-127 Q219,-109 244,-85"/> 
            <glyph glyph-name="ĸ" unicode="&#x138;" horiz-adv-x="479" d=" M164,523 L164,0 L106,0 L106,523 M456,523 L236,279 L479,0 L409,0 L169,276 L388,523"/> 
            <glyph glyph-name="Ĺ" unicode="&#x139;" horiz-adv-x="457" d=" M222,888 L248,836 L50,758 L34,792 M171,685 L171,54 L457,54 L449,0 L111,0 L111,685"/> 
            <glyph glyph-name="ĺ" unicode="&#x13A;" horiz-adv-x="253" d=" M211,939 L237,887 L39,809 L23,843 M193,-11 Q150,-11 125.5,14 Q101,39 101,88 L101,736 L159,743 L159,90 Q159,39 201,39 Q222,39 237,46 L253,3 Q225,-11 193,-11"/> 
            <glyph glyph-name="Ļ" unicode="&#x13B;" horiz-adv-x="457" d=" M171,685 L171,54 L457,54 L449,0 L111,0 L111,685 M263,-85 Q301,-85 313.5,-97 Q326,-109 326,-127 Q326,-146 303,-193 L263,-279 L228,-279 L260,-165 Q238,-151 238,-127 Q238,-109 263,-85"/> 
            <glyph glyph-name="ļ" unicode="&#x13C;" horiz-adv-x="253" d=" M193,-11 Q150,-11 125.5,14 Q101,39 101,88 L101,736 L159,743 L159,90 Q159,39 201,39 Q222,39 237,46 L253,3 Q225,-11 193,-11 M161,-85 Q199,-85 211.5,-97 Q224,-109 224,-127 Q224,-146 201,-193 L161,-279 L126,-279 L158,-165 Q136,-151 136,-127 Q136,-109 161,-85"/> 
            <glyph glyph-name="Ľ" unicode="&#x13D;" horiz-adv-x="457" d=" M270,521 L309,685 L253,691 L234,526 M171,685 L171,54 L457,54 L449,0 L111,0 L111,685"/> 
            <glyph glyph-name="ľ" unicode="&#x13E;" horiz-adv-x="293" d=" M193,-11 Q150,-11 125.5,14 Q101,39 101,88 L101,736 L159,743 L159,90 Q159,39 201,39 Q222,39 237,46 L253,3 Q225,-11 193,-11 M254,572 L293,736 L237,742 L218,577"/> 
            <glyph glyph-name="Ŀ" unicode="&#x13F;" horiz-adv-x="457" d=" M171,685 L171,54 L457,54 L449,0 L111,0 L111,685 M369,411 Q389,411 401,399 Q413,387 413,369 Q413,351 401,339 Q389,327 369,327 Q350,327 338,339 Q326,351 326,369 Q326,387 338,399 Q350,411 369,411"/> 
            <glyph glyph-name="ŀ" unicode="&#x140;" horiz-adv-x="322" d=" M193,-11 Q150,-11 125.5,14 Q101,39 101,88 L101,736 L159,743 L159,90 Q159,39 201,39 Q222,39 237,46 L253,3 Q225,-11 193,-11 M278,418 Q298,418 310,406 Q322,394 322,376 Q322,358 310,346 Q298,334 278,334 Q259,334 247,346 Q235,358 235,376 Q235,394 247,406 Q259,418 278,418"/> 
            <glyph glyph-name="Ł" unicode="&#x141;" horiz-adv-x="468" d=" M182,54 L468,54 L460,0 L122,0 L122,281 L57,241 L33,280 L121,335 L122,336 L122,685 L182,685 L182,373 L362,485 L387,446 L182,319"/> 
            <glyph glyph-name="ł" unicode="&#x142;" horiz-adv-x="286" d=" M208,39 Q229,39 244,46 L260,3 Q232,-11 200,-11 Q157,-11 132.5,14 Q108,39 108,88 L108,322 L50,287 L27,325 L108,375 L108,736 L166,743 L166,410 L264,470 L286,431 L166,358 L166,90 Q166,39 208,39"/> 
            <glyph glyph-name="Ń" unicode="&#x143;" horiz-adv-x="562" d=" M426,888 L452,836 L254,758 L238,792 M562,685 L562,0 L483,0 L160,619 Q168,494 168,383 L168,0 L111,0 L111,685 L188,685 L513,66 Q505,182 505,269 L505,685"/> 
            <glyph glyph-name="ń" unicode="&#x144;" horiz-adv-x="483" d=" M398,730 L203,645 L184,679 L372,782 M337,534 Q408,534 445.5,492 Q483,450 483,374 L483,0 L425,0 L425,366 Q425,487 326,487 Q276,487 237.5,459.5 Q199,432 164,379 L164,0 L106,0 L106,523 L156,523 L162,434 Q230,534 337,534"/> 
            <glyph glyph-name="Ņ" unicode="&#x145;" horiz-adv-x="562" d=" M562,685 L562,0 L483,0 L160,619 Q168,494 168,383 L168,0 L111,0 L111,685 L188,685 L513,66 Q505,182 505,269 L505,685 M318,-85 Q356,-85 368.5,-97 Q381,-109 381,-127 Q381,-146 358,-193 L318,-279 L283,-279 L315,-165 Q293,-151 293,-127 Q293,-109 318,-85"/> 
            <glyph glyph-name="ņ" unicode="&#x146;" horiz-adv-x="483" d=" M337,534 Q408,534 445.5,492 Q483,450 483,374 L483,0 L425,0 L425,366 Q425,487 326,487 Q276,487 237.5,459.5 Q199,432 164,379 L164,0 L106,0 L106,523 L156,523 L162,434 Q230,534 337,534 M273,-85 Q311,-85 323.5,-97 Q336,-109 336,-127 Q336,-146 313,-193 L273,-279 L238,-279 L270,-165 Q248,-151 248,-127 Q248,-109 273,-85"/> 
            <glyph glyph-name="Ň" unicode="&#x147;" horiz-adv-x="562" d=" M466,888 L492,857 L363,756 L327,756 L197,857 L223,888 L345,808 M562,685 L562,0 L483,0 L160,619 Q168,494 168,383 L168,0 L111,0 L111,685 L188,685 L513,66 Q505,182 505,269 L505,685"/> 
            <glyph glyph-name="ň" unicode="&#x148;" horiz-adv-x="483" d=" M315,633 L279,633 L149,739 L175,769 L297,685 L418,769 L444,739 M337,534 Q408,534 445.5,492 Q483,450 483,374 L483,0 L425,0 L425,366 Q425,487 326,487 Q276,487 237.5,459.5 Q199,432 164,379 L164,0 L106,0 L106,523 L156,523 L162,434 Q230,534 337,534"/> 
            <glyph glyph-name="ŉ" unicode="&#x149;" horiz-adv-x="566" d=" M98,745 Q118,745 130,732.5 Q142,720 142,702 Q142,688 120,636 L84,547 L48,547 L76,665 Q54,677 54,702 Q54,720 66.5,732.5 Q79,745 98,745 M420,534 Q491,534 528.5,492 Q566,450 566,374 L566,0 L508,0 L508,366 Q508,487 409,487 Q359,487 320.5,459.5 Q282,432 247,379 L247,0 L189,0 L189,523 L239,523 L245,434 Q313,534 420,534"/> 
            <glyph glyph-name="Ŋ" unicode="&#x14A;" horiz-adv-x="562" d=" M505,685 L562,685 L562,-71 Q562,-137 528,-171 Q494,-205 437,-205 Q379,-205 335,-171 L360,-133 Q395,-156 435,-156 Q502,-156 502,-72 L502,0 L483,0 L160,619 Q168,494 168,383 L168,0 L111,0 L111,685 L188,685 L513,66 Q505,182 505,269"/> 
            <glyph glyph-name="ŋ" unicode="&#x14B;" horiz-adv-x="483" d=" M337,534 Q408,534 445.5,492 Q483,450 483,374 L483,-71 Q483,-137 449,-171 Q415,-205 358,-205 Q300,-205 256,-171 L280,-134 Q317,-157 356,-157 Q425,-157 425,-74 L425,366 Q425,487 326,487 Q276,487 237.5,459.5 Q199,432 164,379 L164,0 L106,0 L106,523 L156,523 L162,434 Q230,534 337,534"/> 
            <glyph glyph-name="Ō" unicode="&#x14C;" horiz-adv-x="625" d=" M465,802 L224,802 L224,849 L465,849 M345,696 Q473,696 549,604 Q625,512 625,342 Q625,175 549.5,82 Q474,-11 345,-11 Q218,-11 142,81.5 Q66,174 66,341 Q66,507 143,601.5 Q220,696 345,696 M345,645 Q245,645 187,568.5 Q129,492 129,341 Q129,192 187.5,116 Q246,40 345,40 Q448,40 505,115.5 Q562,191 562,342 Q562,494 504.5,569.5 Q447,645 345,645"/> 
            <glyph glyph-name="ō" unicode="&#x14D;" horiz-adv-x="507" d=" M406,676 L165,676 L165,723 L406,723 M286,534 Q390,534 448.5,462.5 Q507,391 507,263 Q507,136 447.5,62.5 Q388,-11 285,-11 Q181,-11 122.5,61.5 Q64,134 64,261 Q64,387 123.5,460.5 Q183,534 286,534 M286,485 Q210,485 168,428 Q126,371 126,261 Q126,152 167.5,95 Q209,38 285,38 Q361,38 403.5,95 Q446,152 446,263 Q446,372 404.5,428.5 Q363,485 286,485"/> 
            <glyph glyph-name="Ŏ" unicode="&#x14E;" horiz-adv-x="625" d=" M395,765 Q293,765 257,793.5 Q221,822 214,865 L254,874 Q276,812 344,812 Q413,812 435,874 L475,865 Q468,822 395,765 M345,696 Q473,696 549,604 Q625,512 625,342 Q625,175 549.5,82 Q474,-11 345,-11 Q218,-11 142,81.5 Q66,174 66,341 Q66,507 143,601.5 Q220,696 345,696 M345,645 Q245,645 187,568.5 Q129,492 129,341 Q129,192 187.5,116 Q246,40 345,40 Q448,40 505,115.5 Q562,191 562,342 Q562,494 504.5,569.5 Q447,645 345,645"/> 
            <glyph glyph-name="ŏ" unicode="&#x14F;" horiz-adv-x="507" d=" M337,653 Q233,653 197.5,683 Q162,713 155,763 L195,772 Q215,700 285,700 Q356,700 376,772 L416,763 Q409,713 337,653 M286,534 Q390,534 448.5,462.5 Q507,391 507,263 Q507,136 447.5,62.5 Q388,-11 285,-11 Q181,-11 122.5,61.5 Q64,134 64,261 Q64,387 123.5,460.5 Q183,534 286,534 M286,485 Q210,485 168,428 Q126,371 126,261 Q126,152 167.5,95 Q209,38 285,38 Q361,38 403.5,95 Q446,152 446,263 Q446,372 404.5,428.5 Q363,485 286,485"/> 
            <glyph glyph-name="Ő" unicode="&#x150;" horiz-adv-x="625" d=" M324,937 L376,909 L291,773 L253,790 M453,937 L505,910 L412,768 L374,786 M345,696 Q473,696 549,604 Q625,512 625,342 Q625,175 549.5,82 Q474,-11 345,-11 Q218,-11 142,81.5 Q66,174 66,341 Q66,507 143,601.5 Q220,696 345,696 M345,645 Q245,645 187,568.5 Q129,492 129,341 Q129,192 187.5,116 Q246,40 345,40 Q448,40 505,115.5 Q562,191 562,342 Q562,494 504.5,569.5 Q447,645 345,645"/> 
            <glyph glyph-name="ő" unicode="&#x151;" horiz-adv-x="507" d=" M272,811 L324,783 L239,647 L201,664 M401,811 L453,784 L360,642 L322,660 M286,534 Q390,534 448.5,462.5 Q507,391 507,263 Q507,136 447.5,62.5 Q388,-11 285,-11 Q181,-11 122.5,61.5 Q64,134 64,261 Q64,387 123.5,460.5 Q183,534 286,534 M286,485 Q210,485 168,428 Q126,371 126,261 Q126,152 167.5,95 Q209,38 285,38 Q361,38 403.5,95 Q446,152 446,263 Q446,372 404.5,428.5 Q363,485 286,485"/> 
            <glyph glyph-name="Œ" unicode="&#x152;" horiz-adv-x="824" d=" M824,50 L824,0 L403,0 Q370,-11 334,-11 Q215,-11 140.5,82 Q66,175 66,341 Q66,506 141,601 Q216,696 334,696 Q371,696 406,685 L817,685 L810,635 L493,635 Q595,555 604,380 L772,380 L772,330 L605,330 Q600,135 489,50 M129,341 Q129,193 186,116.5 Q243,40 335,40 Q431,40 486.5,117 Q542,194 542,347 Q542,494 486,569.5 Q430,645 335,645 Q242,645 185.5,568 Q129,491 129,341"/> 
            <glyph glyph-name="œ" unicode="&#x153;" horiz-adv-x="859" d=" M859,281 Q859,259 857,239 L507,239 Q512,137 555.5,87.5 Q599,38 670,38 Q742,38 811,90 L838,53 Q761,-11 667,-11 Q531,-11 475,120 Q418,-11 285,-11 Q181,-11 122.5,61.5 Q64,134 64,261 Q64,387 123.5,460.5 Q183,534 286,534 Q423,534 477,405 Q533,534 657,534 Q755,534 807,466.5 Q859,399 859,281 M801,284 L801,299 Q801,387 765,436.5 Q729,486 659,486 Q593,486 552,436 Q511,386 507,284 M209,38 Q361,38 403.5,95 Q446,152 446,263 Q446,372 404.5,428.5 Q363,485 286,485 Q210,485 168,428 Q126,371 126,261 Q126,152 209,38"/> 
            <glyph glyph-name="Ŕ" unicode="&#x154;" horiz-adv-x="556" d=" M398,836 L200,758 L184,792 L372,888 M485,0 L308,307 L171,307 L171,0 L111,0 L111,685 L277,685 Q521,685 521,499 Q521,357 368,318 L556,0 M171,356 L285,356 Q457,356 457,499 Q457,569 414,602.5 Q371,636 275,636 L171,636"/> 
            <glyph glyph-name="ŕ" unicode="&#x155;" horiz-adv-x="361" d=" M334,730 L139,645 L120,679 L308,782 M309,534 Q340,534 361,528 L350,473 Q328,479 304,479 Q251,479 218.5,440.5 Q186,402 164,320 L164,0 L106,0 L106,523 L156,523 L161,406 Q203,534 309,534"/> 
            <glyph glyph-name="Ŗ" unicode="&#x156;" horiz-adv-x="556" d=" M368,318 L556,0 L485,0 L308,307 L171,307 L171,0 L111,0 L111,685 L277,685 Q521,685 521,499 Q521,357 368,318 M171,356 L285,356 Q457,356 457,499 Q457,569 414,602.5 Q371,636 275,636 L171,636 M288,-85 Q326,-85 338.5,-97 Q351,-109 351,-127 Q351,-146 328,-193 L288,-279 L253,-279 L285,-165 Q263,-151 263,-127 Q263,-109 288,-85"/> 
            <glyph glyph-name="ŗ" unicode="&#x157;" horiz-adv-x="361" d=" M309,534 Q340,534 361,528 L350,473 Q328,479 304,479 Q251,479 218.5,440.5 Q186,402 164,320 L164,0 L106,0 L106,523 L156,523 L161,406 Q203,534 309,534 M116,-85 Q154,-85 166.5,-97 Q179,-109 179,-127 Q179,-146 156,-193 L116,-279 L81,-279 L113,-165 Q91,-151 91,-127 Q91,-109 116,-85"/> 
            <glyph glyph-name="Ř" unicode="&#x158;" horiz-adv-x="556" d=" M309,756 L273,756 L143,857 L169,888 L291,808 L412,888 L438,857 M485,0 L308,307 L171,307 L171,0 L111,0 L111,685 L277,685 Q521,685 521,499 Q521,357 368,318 L556,0 M171,356 L285,356 Q457,356 457,499 Q457,569 414,602.5 Q371,636 275,636 L171,636"/> 
            <glyph glyph-name="ř" unicode="&#x159;" horiz-adv-x="380" d=" M251,633 L215,633 L85,739 L111,769 L233,685 L354,769 L380,739 M161,406 Q203,534 309,534 Q340,534 361,528 L350,473 Q328,479 304,479 Q251,479 218.5,440.5 Q186,402 164,320 L164,0 L106,0 L106,523 L156,523"/> 
            <glyph glyph-name="Ś" unicode="&#x15A;" horiz-adv-x="485" d=" M353,888 L379,836 L181,758 L165,792 M267,696 Q330,696 375.5,677.5 Q421,659 464,620 L429,582 Q356,645 269,645 Q205,645 166,613.5 Q127,582 127,529 Q127,477 161,447.5 Q195,418 287,390 Q389,358 437,315 Q485,272 485,187 Q485,99 423,44 Q361,-11 258,-11 Q130,-11 39,75 L73,113 Q158,40 257,40 Q331,40 377.5,79 Q424,118 424,185 Q424,246 389,278.5 Q354,311 261,340 Q156,372 111,414 Q66,456 66,528 Q66,601 122,648.5 Q178,696 267,696"/> 
            <glyph glyph-name="ś" unicode="&#x15B;" horiz-adv-x="415" d=" M315,782 L341,730 L146,645 L127,679 M234,534 Q326,534 401,476 L374,438 Q305,486 236,486 Q184,486 152,462 Q120,438 120,398 Q120,360 147.5,339 Q175,318 247,299 Q336,276 375.5,241 Q415,206 415,141 Q415,71 361,30 Q307,-11 226,-11 Q118,-11 39,56 L71,93 Q140,38 225,38 Q283,38 318.5,64.5 Q354,91 354,138 Q354,185 326,208 Q298,231 216,254 Q133,276 96.5,309 Q60,342 60,397 Q60,457 109.5,495.5 Q159,534 234,534"/> 
            <glyph glyph-name="Ŝ" unicode="&#x15C;" horiz-adv-x="485" d=" M150,762 L124,792 L254,894 L290,894 L419,792 L393,762 L272,842 M267,696 Q330,696 375.5,677.5 Q421,659 464,620 L429,582 Q356,645 269,645 Q205,645 166,613.5 Q127,582 127,529 Q127,477 161,447.5 Q195,418 287,390 Q389,358 437,315 Q485,272 485,187 Q485,99 423,44 Q361,-11 258,-11 Q130,-11 39,75 L73,113 Q158,40 257,40 Q331,40 377.5,79 Q424,118 424,185 Q424,246 389,278.5 Q354,311 261,340 Q156,372 111,414 Q66,456 66,528 Q66,601 122,648.5 Q178,696 267,696"/> 
            <glyph glyph-name="ŝ" unicode="&#x15D;" horiz-adv-x="415" d=" M118,643 L92,674 L221,779 L257,779 L387,674 L361,643 L239,728 M234,534 Q326,534 401,476 L374,438 Q305,486 236,486 Q184,486 152,462 Q120,438 120,398 Q120,360 147.5,339 Q175,318 247,299 Q336,276 375.5,241 Q415,206 415,141 Q415,71 361,30 Q307,-11 226,-11 Q118,-11 39,56 L71,93 Q140,38 225,38 Q283,38 318.5,64.5 Q354,91 354,138 Q354,185 326,208 Q298,231 216,254 Q133,276 96.5,309 Q60,342 60,397 Q60,457 109.5,495.5 Q159,534 234,534"/> 
            <glyph glyph-name="Ş" unicode="&#x15E;" horiz-adv-x="485" d=" M485,187 Q485,103 429,49 Q373,-5 279,-10 L279,-64 Q371,-71 371,-140 Q371,-181 341,-204 Q311,-227 266,-227 Q218,-227 186,-206 L204,-170 Q231,-185 265,-185 Q320,-185 320,-140 Q320,-96 231,-96 L239,-11 Q123,-4 39,75 L73,113 Q158,40 257,40 Q331,40 377.5,79 Q424,118 424,185 Q424,246 389,278.5 Q354,311 261,340 Q156,372 111,414 Q66,456 66,528 Q66,601 122,648.5 Q178,696 267,696 Q330,696 375.5,677.5 Q421,659 464,620 L429,582 Q356,645 269,645 Q205,645 166,613.5 Q127,582 127,529 Q127,477 161,447.5 Q195,418 287,390 Q389,358 437,315 Q485,272 485,187"/> 
            <glyph glyph-name="ş" unicode="&#x15F;" horiz-adv-x="415" d=" M415,206 Q415,76 367.5,35.5 Q320,-5 247,-10 L247,-64 Q339,-71 339,-140 Q339,-181 309,-204 Q279,-227 234,-227 Q186,-227 154,-206 L172,-170 Q199,-185 233,-185 Q288,-185 288,-140 Q288,-96 199,-96 L207,-10 Q110,-5 39,56 L71,93 Q140,38 225,38 Q283,38 318.5,64.5 Q354,91 354,138 Q354,185 326,208 Q298,231 216,254 Q133,276 96.5,309 Q60,342 60,397 Q60,457 109.5,495.5 Q159,534 234,534 Q326,534 401,476 L374,438 Q305,486 236,486 Q184,486 152,462 Q120,438 120,398 Q120,360 147.5,339 Q175,318 247,299 Q336,276 415,206"/> 
            <glyph glyph-name="Š" unicode="&#x160;" horiz-adv-x="485" d=" M393,888 L419,857 L290,756 L254,756 L124,857 L150,888 L272,808 M267,696 Q330,696 375.5,677.5 Q421,659 464,620 L429,582 Q356,645 269,645 Q205,645 166,613.5 Q127,582 127,529 Q127,477 161,447.5 Q195,418 287,390 Q389,358 437,315 Q485,272 485,187 Q485,99 423,44 Q361,-11 258,-11 Q130,-11 39,75 L73,113 Q158,40 257,40 Q331,40 377.5,79 Q424,118 424,185 Q424,246 389,278.5 Q354,311 261,340 Q156,372 111,414 Q66,456 66,528 Q66,601 122,648.5 Q178,696 267,696"/> 
            <glyph glyph-name="š" unicode="&#x161;" horiz-adv-x="415" d=" M361,769 L387,739 L258,633 L222,633 L92,739 L118,769 L240,685 M234,534 Q326,534 401,476 L374,438 Q305,486 236,486 Q184,486 152,462 Q120,438 120,398 Q120,360 147.5,339 Q175,318 247,299 Q336,276 375.5,241 Q415,206 415,141 Q415,71 361,30 Q307,-11 226,-11 Q118,-11 39,56 L71,93 Q140,38 225,38 Q283,38 318.5,64.5 Q354,91 354,138 Q354,185 326,208 Q298,231 216,254 Q133,276 96.5,309 Q60,342 60,397 Q60,457 109.5,495.5 Q159,534 234,534"/> 
            <glyph glyph-name="Ţ" unicode="&#x162;" horiz-adv-x="485" d=" M277,-64 Q370,-71 370,-140 Q370,-181 339.5,-204 Q309,-227 263,-227 Q216,-227 185,-206 L203,-170 Q230,-185 262,-185 Q319,-185 319,-140 Q319,-96 230,-96 L239,0 L218,0 L218,632 L15,632 L15,685 L485,685 L478,632 L277,632"/> 
            <glyph glyph-name="ţ" unicode="&#x163;" horiz-adv-x="344" d=" M242,-64 Q334,-71 334,-140 Q334,-181 304,-204 Q274,-227 229,-227 Q180,-227 149,-206 L167,-170 Q194,-185 228,-185 Q283,-185 283,-140 Q283,-96 194,-96 L202,-8 Q106,10 106,127 L106,476 L18,476 L18,523 L106,523 L106,648 L164,655 L164,523 L299,523 L292,476 L164,476 L164,130 Q164,39 241,39 Q281,39 321,62 L344,22 Q299,-8 242,-11"/> 
            <glyph glyph-name="Ť" unicode="&#x164;" horiz-adv-x="485" d=" M369,888 L395,857 L266,756 L230,756 L100,857 L126,888 L248,808 M485,685 L478,632 L277,632 L277,0 L218,0 L218,632 L15,632 L15,685"/> 
            </font>
</defs>
</svg>
