<?xml version="1.0" standalone="no"?>
<!DOCTYPE svg PUBLIC "-//W3C//DTD SVG 1.1//EN" "http://www.w3.org/Graphics/SVG/1.1/DTD/svg11.dtd" >
<svg xmlns="http://www.w3.org/2000/svg">
    <defs>
        <font id="FiraSans-Medium">
            <font-face font-family="FiraSans-Medium"
                       units-per-em="1000"
                       ascent="935"
                       descent="-265"
                       bbox="-771 -354 1360 1152"
                    />
            <missing-glyph horiz-adv-x="0" />
            
            <glyph glyph-name="!" unicode="&#x21;" horiz-adv-x="201" d=" M188,691 L173,244 L66,244 L50,691 M86,147 Q154,147 177.5,123.5 Q201,100 201,66 Q201,33 177.5,9 Q154,-15 120,-15 Q86,-15 62.5,9 Q39,33 39,66 Q39,100 86,147"/> 
            <glyph glyph-name="&quot;" unicode="&#x22;" horiz-adv-x="368" d=" M71,420 L53,691 L176,691 L159,420 M263,420 L245,691 L368,691 L351,420"/> 
            <glyph glyph-name="#" unicode="&#x23;" horiz-adv-x="524" d=" M524,443 L452,443 L425,240 L487,240 L487,152 L413,152 L393,0 L286,0 L306,152 L181,152 L161,0 L55,0 L75,152 L15,152 L15,240 L86,240 L113,443 L52,443 L52,532 L125,532 L143,673 L250,673 L231,532 L356,532 L375,673 L482,673 L463,532 L524,532 M318,240 L345,443 L220,443 L193,240"/> 
            <glyph glyph-name="$" unicode="&#x24;" horiz-adv-x="509" d=" M509,193 Q509,116 461,63.5 Q413,11 326,-5 L326,-158 L228,-158 L228,-10 Q100,-2 17,80 L85,155 Q158,87 254,87 Q309,87 343,113 Q377,139 377,186 Q377,228 350,251.5 Q323,275 245,299 Q138,331 91,378 Q44,425 44,499 Q44,572 94.5,620.5 Q145,669 228,680 L228,827 L326,827 L326,680 Q420,668 490,601 L425,528 Q361,586 278,586 Q232,586 203.5,565.5 Q175,545 175,507 Q175,471 202.5,449.5 Q230,428 312,403 Q411,372 460,326 Q509,280 509,193"/> 
            <glyph glyph-name="%" unicode="&#x25;" horiz-adv-x="807" d=" M613,716 L696,663 L232,-36 L150,17 M207,685 Q281,685 329.5,637 Q378,589 378,510 Q378,431 329.5,383 Q281,335 207,335 Q134,335 85.5,383 Q37,431 37,510 Q37,589 85.5,637 Q134,685 207,685 M279,605 Q135,605 135,510 Q135,415 207,415 Q279,415 279,605 M563,335 Q711,335 759,287 Q807,239 807,160 Q807,81 759,33 Q711,-15 637,-15 Q563,-15 514.5,33 Q466,81 466,160 Q466,239 563,335 M709,255 Q565,255 565,160 Q565,65 637,65 Q709,65 709,255"/> 
            <glyph glyph-name="&amp;" unicode="&#x26;" horiz-adv-x="716" d=" M308,706 Q399,706 453.5,662 Q508,618 508,550 Q508,491 472.5,447.5 Q437,404 372,363 L526,218 Q559,290 579,374 L690,341 Q653,229 599,150 L716,44 L613,-15 L526,69 Q436,-15 306,-15 Q200,-15 134.5,37.5 Q69,90 69,176 Q69,237 103,282.5 Q137,328 207,373 Q155,424 132.5,461 Q110,498 110,545 Q110,614 161.5,660 Q213,706 308,706 M344,619 Q274,619 254,599 Q234,579 234,545 Q234,515 249.5,490.5 Q265,466 301,431 Q385,485 385,545 Q385,579 344,619 M280,304 Q203,252 203,182 Q203,135 236.5,107.5 Q270,80 326,80 Q399,80 458,133"/> 
            <glyph glyph-name="'" unicode="&#x27;" horiz-adv-x="176" d=" M71,420 L53,691 L176,691 L159,420"/> 
            <glyph glyph-name="(" unicode="&#x28;" horiz-adv-x="300" d=" M218,852 L300,797 Q226,691 192.5,591.5 Q159,492 159,350 Q159,209 192.5,109 Q226,9 300,-97 L218,-152 Q178,-97 159,-68.5 Q140,-40 109.5,14 Q79,68 65,111.5 Q51,155 39.5,218 Q28,281 28,350 Q28,419 39.5,482 Q51,545 65,588.5 Q79,632 109.5,686 Q140,740 159,768.5 Q178,797 218,852"/> 
            <glyph glyph-name=")" unicode="&#x29;" horiz-adv-x="296" d=" M106,852 Q155,785 180,745.5 Q205,706 236.5,641.5 Q268,577 282,506 Q296,435 296,350 Q296,265 282,194 Q268,123 236.5,58.5 Q205,-6 180,-45.5 Q155,-85 106,-152 L25,-97 Q98,9 132,109 Q166,209 166,350 Q166,491 132,590.5 Q98,690 25,797"/> 
            <glyph glyph-name="*" unicode="&#x2A;" horiz-adv-x="431" d=" M431,547 L284,519 L387,411 L294,343 L222,473 L151,343 L58,410 L159,520 L13,547 L48,653 L182,590 L164,741 L280,741 L262,590 L395,654"/> 
            <glyph glyph-name="+" unicode="&#x2B;" horiz-adv-x="462" d=" M313,535 L313,382 L462,382 L462,281 L313,281 L313,128 L203,128 L203,281 L55,281 L55,382 L203,382 L203,535"/> 
            <glyph glyph-name="," unicode="&#x2C;" horiz-adv-x="201" d=" M119,147 Q154,147 177.5,124 Q201,101 201,66 Q201,34 175,-24 L110,-172 L32,-172 L73,0 Q39,23 39,67 Q39,101 62,124 Q85,147 119,147"/> 
            <glyph glyph-name="-" unicode="&#x2D;" horiz-adv-x="354" d=" M52,262 L52,364 L354,364 L354,262"/> 
            <glyph glyph-name="." unicode="&#x2E;" horiz-adv-x="201" d=" M85,147 Q153,147 177,123.5 Q201,100 201,66 Q201,33 177,9 Q153,-15 119,-15 Q86,-15 62.5,9 Q39,33 39,66 Q39,100 85,147"/> 
            <glyph glyph-name="/" unicode="&#x2F;" horiz-adv-x="432" d=" M322,812 L432,787 L199,-108 L88,-82"/> 
            <glyph glyph-name="0" unicode="&#x30;" horiz-adv-x="527" d=" M168,685 Q404,685 465.5,595 Q527,505 527,336 Q527,166 465.5,75.5 Q404,-15 286,-15 Q168,-15 106.5,75.5 Q45,166 45,336 Q45,505 168,685 M343,588 Q229,588 203,530.5 Q177,473 177,336 Q177,198 203,140 Q229,82 286,82 Q343,82 369,139.5 Q395,197 395,336 Q395,474 343,588"/> 
            <glyph glyph-name="1" unicode="&#x31;" horiz-adv-x="355" d=" M355,673 L355,0 L229,0 L229,544 L79,453 L23,539 L242,673"/> 
            <glyph glyph-name="2" unicode="&#x32;" horiz-adv-x="467" d=" M233,685 Q334,685 393,631 Q452,577 452,496 Q452,413 396,333.5 Q340,254 179,101 L467,101 L453,0 L34,0 L34,94 Q216,279 268,348.5 Q320,418 320,486 Q320,532 293.5,558 Q267,584 223,584 Q184,584 154.5,567.5 Q125,551 93,513 L15,575 Q100,685 233,685"/> 
            <glyph glyph-name="3" unicode="&#x33;" horiz-adv-x="467" d=" M232,685 Q332,685 388.5,636 Q445,587 445,514 Q445,453 410,412.5 Q375,372 314,356 Q381,350 424,308 Q467,266 467,192 Q467,103 401,44 Q335,-15 223,-15 Q85,-15 5,82 L76,150 Q141,85 216,85 Q270,85 302.5,115.5 Q335,146 335,198 Q335,256 304.5,281 Q274,306 214,306 L161,306 L176,397 L212,397 Q261,397 290.5,424 Q320,451 320,499 Q320,540 293,563.5 Q266,587 221,587 Q148,587 86,528 L21,599 Q112,685 232,685"/> 
            <glyph glyph-name="4" unicode="&#x34;" horiz-adv-x="525" d=" M525,252 L525,154 L444,154 L444,0 L319,0 L319,154 L33,154 L33,242 L229,686 L338,645 L166,252 L320,252 L333,421 L444,421 L444,252"/> 
            <glyph glyph-name="5" unicode="&#x35;" horiz-adv-x="482" d=" M454,673 L439,578 L187,578 L187,411 Q237,436 289,436 Q375,436 428.5,378 Q482,320 482,219 Q482,115 413,50 Q344,-15 231,-15 Q106,-15 19,80 L92,148 Q150,84 228,84 Q285,84 317.5,119 Q350,154 350,219 Q350,344 242,344 Q200,344 155,321 L64,321 L64,673"/> 
            <glyph glyph-name="6" unicode="&#x36;" horiz-adv-x="518" d=" M328,448 Q410,448 464,390 Q518,332 518,229 Q518,123 453.5,54 Q389,-15 288,-15 Q164,-15 104.5,72 Q45,159 45,311 Q45,481 119.5,583 Q194,685 321,685 Q404,685 468,642 L420,563 Q374,590 323,590 Q259,590 220.5,532.5 Q182,475 177,374 Q238,448 328,448 M288,80 Q338,80 363.5,119.5 Q389,159 389,227 Q389,296 365.5,325.5 Q342,355 297,355 Q229,355 178,286 Q180,177 205.5,128.5 Q231,80 288,80"/> 
            <glyph glyph-name="7" unicode="&#x37;" horiz-adv-x="434" d=" M434,673 L434,583 L185,-13 L68,25 L302,574 L18,574 L18,673"/> 
            <glyph glyph-name="8" unicode="&#x38;" horiz-adv-x="531" d=" M393,361 Q531,299 531,181 Q531,97 462.5,41 Q394,-15 281,-15 Q170,-15 103.5,40 Q37,95 37,179 Q37,295 165,349 Q64,404 64,508 Q64,588 127.5,636.5 Q191,685 284,685 Q378,685 441,639.5 Q504,594 504,513 Q504,418 393,361 M284,595 Q239,595 213.5,572 Q188,549 188,506 Q188,466 212,442.5 Q236,419 289,400 L308,393 Q347,417 363.5,443.5 Q380,470 380,507 Q380,548 355,571.5 Q330,595 284,595 M284,80 Q339,80 370,108 Q401,136 401,181 Q401,227 374,253.5 Q347,280 278,305 L247,316 Q166,272 166,183 Q166,135 198,107.5 Q230,80 284,80"/> 
            <glyph glyph-name="9" unicode="&#x39;" horiz-adv-x="505" d=" M269,685 Q383,685 444,614.5 Q505,544 505,424 Q505,287 462,198 Q419,109 336,58.5 Q253,8 113,-25 L86,66 Q218,101 286.5,156.5 Q355,212 368,308 Q313,238 224,238 Q144,238 89.5,298 Q35,358 35,457 Q35,560 102,622.5 Q169,685 269,685 M259,331 Q327,331 374,400 Q375,503 350.5,546.5 Q326,590 269,590 Q219,590 191,556 Q163,522 163,459 Q163,393 189.5,362 Q216,331 259,331"/> 
            <glyph glyph-name=":" unicode="&#x3A;" horiz-adv-x="201" d=" M85,503 Q153,503 177,479.5 Q201,456 201,422 Q201,389 177,365 Q153,341 119,341 Q86,341 62.5,365 Q39,389 39,422 Q39,456 85,503 M85,147 Q153,147 177,123.5 Q201,100 201,66 Q201,33 177,9 Q153,-15 119,-15 Q86,-15 62.5,9 Q39,33 39,66 Q39,100 85,147"/> 
            <glyph glyph-name=";" unicode="&#x3B;" horiz-adv-x="201" d=" M85,503 Q153,503 177,479.5 Q201,456 201,422 Q201,389 177,365 Q153,341 119,341 Q86,341 62.5,365 Q39,389 39,422 Q39,456 85,503 M119,147 Q154,147 177.5,124 Q201,101 201,66 Q201,34 175,-24 L110,-172 L32,-172 L73,0 Q39,23 39,67 Q39,101 62,124 Q85,147 119,147"/> 
            <glyph glyph-name="&lt;" unicode="&#x3C;" horiz-adv-x="469" d=" M427,565 L469,470 L148,333 L469,198 L427,101 L42,273 L42,392"/> 
            <glyph glyph-name="=" unicode="&#x3D;" horiz-adv-x="456" d=" M55,381 L55,483 L456,483 L456,381 M55,179 L55,281 L456,281 L456,179"/> 
            <glyph glyph-name="&gt;" unicode="&#x3E;" horiz-adv-x="469" d=" M84,565 L469,392 L469,273 L84,101 L42,198 L362,333 L42,470"/> 
            <glyph glyph-name="?" unicode="&#x3F;" horiz-adv-x="450" d=" M243,706 Q341,706 395.5,659 Q450,612 450,544 Q450,506 436.5,476.5 Q423,447 403,430 Q383,413 359.5,396 Q336,379 316,365 Q296,351 282.5,328.5 Q269,306 269,278 L269,244 L150,244 L150,283 Q150,330 167,365 Q184,400 208.5,419 Q233,438 257.5,453.5 Q282,469 299,489 Q316,509 316,534 Q316,567 293.5,585.5 Q271,604 232,604 Q161,604 105,538 L22,603 Q109,706 243,706 M177,147 Q245,147 269,123.5 Q293,100 293,66 Q293,33 269,9 Q245,-15 211,-15 Q178,-15 154.5,9 Q131,33 131,66 Q131,100 177,147"/> 
            <glyph glyph-name="@" unicode="&#x40;" horiz-adv-x="962" d=" M526,706 Q629,706 713,673.5 Q797,641 850.5,586.5 Q904,532 933,461 Q962,390 962,312 Q962,178 906.5,92 Q851,6 753,6 Q697,6 664.5,36.5 Q632,67 622,109 Q579,9 479,9 Q393,9 347,70 Q301,131 301,232 Q301,357 361.5,427.5 Q422,498 527,498 Q613,498 693,455 L693,203 Q693,141 706.5,116.5 Q720,92 749,92 Q842,92 842,310 Q842,451 762,530 Q682,609 526,609 Q364,609 271,507 Q178,405 178,241 Q178,75 269,-22.5 Q360,-120 527,-120 Q623,-120 721,-85 L753,-177 Q644,-218 526,-218 Q314,-218 186,-93 Q58,32 58,241 Q58,442 189.5,574 Q321,706 526,706 M495,94 Q556,94 582,161 L582,401 Q555,413 525,413 Q419,413 419,232 Q419,94 495,94"/> 
            <glyph glyph-name="A" unicode="&#x41;" horiz-adv-x="587" d=" M447,0 L404,160 L175,160 L132,0 L-5,0 L210,691 L373,691 L587,0 M201,260 L377,260 L289,590"/> 
            <glyph glyph-name="B" unicode="&#x42;" horiz-adv-x="578" d=" M420,366 Q453,360 478.5,349.5 Q504,339 528,320.5 Q552,302 565,271 Q578,240 578,199 Q578,0 289,0 L81,0 L81,691 L262,691 Q548,691 548,515 Q548,454 511,415.5 Q474,377 420,366 M275,594 L213,594 L213,407 L294,407 Q349,407 381,431.5 Q413,456 413,504 Q413,554 379.5,574 Q346,594 275,594 M290,99 Q363,99 401.5,121 Q440,143 440,204 Q440,315 304,315 L213,315 L213,99"/> 
            <glyph glyph-name="C" unicode="&#x43;" horiz-adv-x="555" d=" M345,706 Q458,706 547,633 L480,555 Q419,604 352,604 Q275,604 228.5,542 Q182,480 182,347 Q182,217 228,154 Q274,91 352,91 Q418,91 493,147 L555,69 Q473,-15 347,-15 Q209,-15 126,80 Q43,175 43,347 Q43,516 128,611 Q213,706 345,706"/> 
            <glyph glyph-name="D" unicode="&#x44;" horiz-adv-x="605" d=" M251,691 Q310,691 358,683 Q406,675 453.5,652.5 Q501,630 533,593 Q565,556 585,494 Q605,432 605,349 Q605,249 576.5,177.5 Q548,106 498,69 Q448,32 392,16 Q336,0 269,0 L81,0 L81,691 M274,592 L213,592 L213,99 L278,99 Q320,99 351.5,110 Q383,121 410,147 Q437,173 451.5,224 Q466,275 466,349 Q466,424 451,474 Q436,524 407.5,549 Q379,574 348,583 Q317,592 274,592"/> 
            <glyph glyph-name="E" unicode="&#x45;" horiz-adv-x="486" d=" M482,691 L468,593 L213,593 L213,400 L435,400 L435,302 L213,302 L213,99 L486,99 L486,0 L81,0 L81,691"/> 
            <glyph glyph-name="F" unicode="&#x46;" horiz-adv-x="472" d=" M81,0 L81,691 L472,691 L458,593 L213,593 L213,386 L426,386 L426,288 L213,288 L213,0"/> 
            <glyph glyph-name="G" unicode="&#x47;" horiz-adv-x="586" d=" M360,706 Q484,706 580,625 L509,551 Q439,606 364,606 Q284,606 233,542 Q182,478 182,346 Q182,208 222.5,147 Q263,86 346,86 Q409,86 456,113 L456,293 L352,293 L338,391 L586,391 L586,53 Q474,-15 348,-15 Q200,-15 121.5,77 Q43,169 43,346 Q43,515 133.5,610.5 Q224,706 360,706"/> 
            <glyph glyph-name="H" unicode="&#x48;" horiz-adv-x="592" d=" M459,0 L459,309 L213,309 L213,0 L81,0 L81,691 L213,691 L213,414 L459,414 L459,691 L592,691 L592,0"/> 
            <glyph glyph-name="I" unicode="&#x49;" horiz-adv-x="213" d=" M213,691 L213,0 L81,0 L81,691"/> 
            <glyph glyph-name="J" unicode="&#x4A;" horiz-adv-x="235" d=" M235,691 L235,101 Q235,43 220,-1 Q205,-45 175.5,-74 Q146,-103 112.5,-121.5 Q79,-140 32,-155 L-3,-60 Q61,-35 81.5,0.5 Q102,36 102,106 L102,691"/> 
            <glyph glyph-name="K" unicode="&#x4B;" horiz-adv-x="620" d=" M213,691 L213,0 L81,0 L81,691 M601,691 L362,378 L620,0 L463,0 L219,369 L458,691"/> 
            <glyph glyph-name="L" unicode="&#x4C;" horiz-adv-x="490" d=" M213,691 L213,108 L490,108 L475,0 L81,0 L81,691"/> 
            <glyph glyph-name="M" unicode="&#x4D;" horiz-adv-x="736" d=" M682,691 L736,0 L607,0 L589,289 Q578,483 580,571 L454,75 L329,75 L195,572 Q201,443 191,285 L174,0 L46,0 L101,691 L271,691 L394,207 L510,691"/> 
            <glyph glyph-name="N" unicode="&#x4E;" horiz-adv-x="591" d=" M591,691 L591,0 L420,0 L183,559 Q201,402 201,282 L201,0 L81,0 L81,691 L248,691 L489,131 Q471,245 471,367 L471,691"/> 
            <glyph glyph-name="O" unicode="&#x4F;" horiz-adv-x="648" d=" M206,706 Q486,706 567,611.5 Q648,517 648,346 Q648,176 567,80.5 Q486,-15 346,-15 Q206,-15 124.5,79.5 Q43,174 43,345 Q43,514 206,706 M346,605 Q182,605 182,345 Q182,86 346,86 Q509,86 509,346 Q509,481 467.5,543 Q426,605 346,605"/> 
            <glyph glyph-name="P" unicode="&#x50;" horiz-adv-x="565" d=" M285,691 Q418,691 491.5,636 Q565,581 565,471 Q565,356 491,298.5 Q417,241 294,241 L213,241 L213,0 L81,0 L81,691 M284,340 Q355,340 391,369.5 Q427,399 427,471 Q427,594 284,594 L213,594 L213,340"/> 
            <glyph glyph-name="Q" unicode="&#x51;" horiz-adv-x="684" d=" M487,42 Q597,42 684,-20 L602,-127 Q544,-68 486.5,-40 Q429,-12 339,-12 Q203,-12 123,81.5 Q43,175 43,345 Q43,514 124.5,610 Q206,706 346,706 Q486,706 567,611.5 Q648,517 648,346 Q648,128 487,42 M182,345 Q182,86 346,86 Q509,86 509,346 Q509,481 467.5,543 Q426,605 346,605 Q182,605 182,345"/> 
            <glyph glyph-name="R" unicode="&#x52;" horiz-adv-x="602" d=" M450,0 L297,277 L213,277 L213,0 L81,0 L81,691 L287,691 Q561,691 561,488 Q561,419 527,374 Q493,329 421,301 L602,0 M213,595 L213,372 L295,372 Q423,372 423,488 Q423,544 389.5,569.5 Q356,595 284,595"/> 
            <glyph glyph-name="S" unicode="&#x53;" horiz-adv-x="528" d=" M280,706 Q415,706 508,621 L443,546 Q371,605 288,605 Q240,605 210.5,583.5 Q181,562 181,523 Q181,485 209,463.5 Q237,442 323,415 Q425,383 476.5,335.5 Q528,288 528,197 Q528,102 458,43.5 Q388,-15 266,-15 Q114,-15 17,80 L85,156 Q167,87 263,87 Q320,87 355,114 Q390,141 390,190 Q390,234 362,258 Q334,282 253,307 Q143,341 94,389 Q45,437 45,515 Q45,600 111,653 Q177,706 280,706"/> 
            <glyph glyph-name="T" unicode="&#x54;" horiz-adv-x="525" d=" M525,691 L511,586 L331,586 L331,0 L198,0 L198,586 L12,586 L12,691"/> 
            <glyph glyph-name="U" unicode="&#x55;" horiz-adv-x="585" d=" M585,691 L585,226 Q585,118 517.5,51.5 Q450,-15 327,-15 Q203,-15 137,50.5 Q71,116 71,226 L71,691 L203,691 L203,233 Q203,88 327,88 Q452,88 452,233 L452,691"/> 
            <glyph glyph-name="V" unicode="&#x56;" horiz-adv-x="568" d=" M568,691 L363,0 L206,0 L-5,691 L137,691 L287,117 L433,691"/> 
            <glyph glyph-name="W" unicode="&#x57;" horiz-adv-x="821" d=" M821,691 L694,0 L522,0 L417,551 L309,0 L142,0 L17,691 L148,691 L236,105 L349,691 L489,691 L600,105 L696,691"/> 
            <glyph glyph-name="X" unicode="&#x58;" horiz-adv-x="563" d=" M358,373 L563,0 L416,0 L278,283 L141,0 L0,0 L200,368 L16,691 L163,691 L280,452 L402,691 L543,691"/> 
            <glyph glyph-name="Y" unicode="&#x59;" horiz-adv-x="576" d=" M576,691 L354,262 L354,0 L220,0 L220,261 L-2,691 L144,691 L290,370 L436,691"/> 
            <glyph glyph-name="Z" unicode="&#x5A;" horiz-adv-x="499" d=" M496,691 L496,589 L177,108 L499,108 L485,0 L23,0 L23,101 L348,586 L56,586 L56,691"/> 
            <glyph glyph-name="[" unicode="&#x5B;" horiz-adv-x="287" d=" M287,820 L287,720 L169,720 L169,-21 L287,-21 L287,-120 L48,-120 L48,820"/> 
            <glyph glyph-name="\" unicode="&#x5C;" horiz-adv-x="432" d=" M198,812 L432,-82 L321,-108 L88,787"/> 
            <glyph glyph-name="]" unicode="&#x5D;" horiz-adv-x="275" d=" M275,820 L275,-120 L36,-120 L36,-21 L154,-21 L154,721 L36,721 L36,820"/> 
            <glyph glyph-name="^" unicode="&#x5E;" horiz-adv-x="522" d=" M333,842 L522,527 L393,527 L274,741 L158,527 L28,527 L217,842"/> 
            <glyph glyph-name="_" unicode="&#x5F;" horiz-adv-x="507" d=" M13,-158 L13,-55 L507,-55 L507,-158"/> 
            <glyph glyph-name="`" unicode="&#x60;" horiz-adv-x="292" d=" M82,820 L292,695 L255,630 L30,720"/> 
            <glyph glyph-name="a" unicode="&#x61;" horiz-adv-x="508" d=" M468,140 Q468,109 477.5,94.5 Q487,80 508,72 L481,-13 Q393,-5 364,64 Q312,-15 206,-15 Q127,-15 81,30 Q35,75 35,148 Q35,234 97.5,279.5 Q160,325 276,325 L342,325 L342,355 Q342,406 318.5,426.5 Q295,447 243,447 Q185,447 103,419 L73,506 Q172,544 265,544 Q468,544 468,362 M240,78 Q305,78 342,143 L342,250 L289,250 Q165,250 165,158 Q165,78 240,78"/> 
            <glyph glyph-name="b" unicode="&#x62;" horiz-adv-x="547" d=" M259,544 Q443,544 495,470.5 Q547,397 547,265 Q547,140 490.5,62.5 Q434,-15 338,-15 Q253,-15 198,54 L190,0 L77,0 L77,741 L205,755 L205,469 M303,81 Q413,81 413,265 Q413,365 386,406.5 Q359,448 310,448 Q249,448 205,376 L205,142 Q242,81 303,81"/> 
            <glyph glyph-name="c" unicode="&#x63;" horiz-adv-x="462" d=" M290,544 Q390,544 462,482 L405,405 Q354,443 298,443 Q179,443 179,262 Q179,89 298,89 Q346,89 405,127 L462,46 Q387,-15 291,-15 Q176,-15 109.5,59 Q43,133 43,260 Q43,388 110,466 Q177,544 290,544"/> 
            <glyph glyph-name="d" unicode="&#x64;" horiz-adv-x="522" d=" M394,755 L522,741 L522,0 L409,0 L400,67 Q345,-15 249,-15 Q152,-15 100,60 Q48,135 48,264 Q48,388 106,466 Q164,544 261,544 Q337,544 394,487 M285,82 Q349,82 394,150 L394,392 Q348,448 293,448 Q242,448 212.5,402.5 Q183,357 183,265 Q183,82 285,82"/> 
            <glyph glyph-name="e" unicode="&#x65;" horiz-adv-x="511" d=" M511,277 Q511,267 508,225 L176,225 Q188,82 306,82 Q370,82 438,129 L491,56 Q403,-15 295,-15 Q174,-15 108.5,59 Q43,133 43,261 Q43,385 105.5,464.5 Q168,544 278,544 Q389,544 450,473.5 Q511,403 511,277 M384,308 L384,314 Q384,453 281,453 Q186,453 176,308"/> 
            <glyph glyph-name="f" unicode="&#x66;" horiz-adv-x="415" d=" M291,658 Q253,658 236.5,640.5 Q220,623 220,585 L220,529 L347,529 L333,437 L220,437 L220,0 L92,0 L92,437 L6,437 L6,529 L92,529 L92,587 Q92,662 140.5,708.5 Q189,755 278,755 Q348,755 415,724 L378,638 Q335,658 291,658"/> 
            <glyph glyph-name="g" unicode="&#x67;" horiz-adv-x="537" d=" M505,603 L537,501 Q486,483 384,483 Q480,440 480,347 Q480,268 422.5,218.5 Q365,169 267,169 Q231,169 204,177 Q182,162 182,138 Q182,101 246,101 L327,101 Q414,101 467,59 Q520,17 520,-49 Q520,-129 452,-173.5 Q384,-218 256,-218 Q121,-218 68,-177 Q15,-136 15,-52 L130,-52 Q130,-94 156,-111 Q182,-128 258,-128 Q331,-128 361,-110 Q391,-92 391,-58 Q391,-28 368,-11.5 Q345,5 301,5 L221,5 Q146,5 108,34 Q70,63 70,107 Q70,167 132,205 Q39,254 39,354 Q39,440 100,492 Q161,544 258,544 Q317,543 365,551.5 Q413,560 439,571 Q465,582 505,603 M260,457 Q217,457 192.5,429.5 Q168,402 168,356 Q168,308 193,280 Q218,252 262,252 Q308,252 332,279.5 Q356,307 356,357 Q356,457 260,457"/> 
            <glyph glyph-name="h" unicode="&#x68;" horiz-adv-x="509" d=" M359,544 Q429,544 469,501 Q509,458 509,383 L509,0 L381,0 L381,363 Q381,410 364.5,429 Q348,448 316,448 Q256,448 205,369 L205,0 L77,0 L77,740 L205,753 L205,466 Q269,544 359,544"/> 
            <glyph glyph-name="i" unicode="&#x69;" horiz-adv-x="221" d=" M140,797 Q176,797 198.5,774.5 Q221,752 221,719 Q221,686 198.5,664 Q176,642 140,642 Q105,642 82.5,664 Q60,686 60,719 Q60,752 82.5,774.5 Q105,797 140,797 M205,529 L205,0 L77,0 L77,529"/> 
            <glyph glyph-name="j" unicode="&#x6A;" horiz-adv-x="220" d=" M139,797 Q175,797 197.5,774.5 Q220,752 220,719 Q220,686 197.5,664 Q175,642 139,642 Q104,642 81.5,664 Q59,686 59,719 Q59,752 81.5,774.5 Q104,797 139,797 M204,529 L204,47 Q204,-66 157.5,-121.5 Q111,-177 11,-217 L-30,-124 Q28,-97 52,-65 Q76,-33 76,39 L76,529"/> 
            <glyph glyph-name="k" unicode="&#x6B;" horiz-adv-x="539" d=" M205,755 L205,0 L77,0 L77,741 M522,529 L346,296 L539,0 L392,0 L210,289 L387,529"/> 
            <glyph glyph-name="l" unicode="&#x6C;" horiz-adv-x="287" d=" M202,-15 Q141,-15 106.5,20.5 Q72,56 72,121 L72,741 L200,755 L200,125 Q200,88 230,88 Q245,88 260,93 L287,3 Q247,-15 202,-15"/> 
            <glyph glyph-name="m" unicode="&#x6D;" horiz-adv-x="778" d=" M638,544 Q702,544 740,500.5 Q778,457 778,383 L778,0 L650,0 L650,363 Q650,448 592,448 Q561,448 538.5,428.5 Q516,409 492,368 L492,0 L364,0 L364,363 Q364,448 306,448 Q274,448 251.5,428.5 Q229,409 205,368 L205,0 L77,0 L77,529 L188,529 L198,460 Q258,544 351,544 Q447,544 479,455 Q544,544 638,544"/> 
            <glyph glyph-name="n" unicode="&#x6E;" horiz-adv-x="509" d=" M359,544 Q430,544 469.5,501.5 Q509,459 509,383 L509,0 L381,0 L381,363 Q381,410 364.5,429 Q348,448 316,448 Q256,448 205,368 L205,0 L77,0 L77,529 L188,529 L198,460 Q263,544 359,544"/> 
            <glyph glyph-name="o" unicode="&#x6F;" horiz-adv-x="541" d=" M293,544 Q410,544 475.5,469.5 Q541,395 541,265 Q541,138 474.5,61.5 Q408,-15 292,-15 Q175,-15 109,59.5 Q43,134 43,265 Q43,391 110,467.5 Q177,544 293,544 M293,447 Q178,447 178,265 Q178,82 292,82 Q406,82 406,265 Q406,447 293,447"/> 
            <glyph glyph-name="p" unicode="&#x70;" horiz-adv-x="547" d=" M351,544 Q451,544 499,471 Q547,398 547,266 Q547,141 491.5,63 Q436,-15 338,-15 Q254,-15 205,43 L205,-204 L77,-218 L77,529 L189,529 L196,464 Q257,544 351,544 M302,83 Q413,83 413,265 Q413,362 388,405 Q363,448 313,448 Q249,448 205,376 L205,138 Q242,83 302,83"/> 
            <glyph glyph-name="q" unicode="&#x71;" horiz-adv-x="522" d=" M411,529 L522,529 L522,-218 L394,-204 L394,60 Q339,-15 249,-15 Q152,-15 100,60 Q48,135 48,264 Q48,388 106,466 Q164,544 261,544 Q345,544 404,477 M285,82 Q349,82 394,150 L394,392 Q348,448 294,448 Q242,448 212.5,402.5 Q183,357 183,265 Q183,82 285,82"/> 
            <glyph glyph-name="r" unicode="&#x72;" horiz-adv-x="391" d=" M338,543 Q367,543 391,536 L369,412 Q345,418 322,418 Q275,418 248,384.5 Q221,351 205,282 L205,0 L77,0 L77,529 L188,529 L200,425 Q219,482 255,512.5 Q291,543 338,543"/> 
            <glyph glyph-name="s" unicode="&#x73;" horiz-adv-x="449" d=" M244,544 Q351,544 432,481 L382,406 Q314,449 249,449 Q211,449 190,434.5 Q169,420 169,396 Q169,369 191,354 Q213,339 280,320 Q366,297 407.5,259 Q449,221 449,153 Q449,74 385,29.5 Q321,-15 226,-15 Q99,-15 15,60 L79,132 Q148,80 223,80 Q266,80 291.5,97 Q317,114 317,144 Q317,177 294.5,193 Q272,209 197,230 Q40,273 40,390 Q40,457 96.5,500.5 Q153,544 244,544"/> 
            <glyph glyph-name="t" unicode="&#x74;" horiz-adv-x="380" d=" M335,107 L380,25 Q324,-15 247,-15 Q88,-13 88,158 L88,437 L5,437 L5,529 L88,529 L88,646 L216,661 L216,529 L339,529 L326,437 L216,437 L216,161 Q216,122 229.5,105 Q243,88 272,88 Q301,88 335,107"/> 
            <glyph glyph-name="u" unicode="&#x75;" horiz-adv-x="500" d=" M500,529 L500,0 L389,0 L382,74 Q324,-15 220,-15 Q149,-15 110.5,28.5 Q72,72 72,149 L72,529 L200,529 L200,165 Q200,120 215.5,101 Q231,82 265,82 Q326,82 372,157 L372,529"/> 
            <glyph glyph-name="v" unicode="&#x76;" horiz-adv-x="502" d=" M502,529 L330,0 L177,0 L2,529 L141,529 L254,103 L370,529"/> 
            <glyph glyph-name="w" unicode="&#x77;" horiz-adv-x="723" d=" M723,529 L608,0 L448,0 L368,415 L286,0 L129,0 L12,529 L140,529 L214,94 L306,529 L437,529 L521,94 L600,529"/> 
            <glyph glyph-name="x" unicode="&#x78;" horiz-adv-x="503" d=" M326,283 L503,0 L355,0 L246,210 L138,0 L-3,0 L173,279 L15,529 L161,529 L251,349 L340,529 L479,529"/> 
            <glyph glyph-name="y" unicode="&#x79;" horiz-adv-x="505" d=" M505,529 L333,-2 Q301,-100 236,-154.5 Q171,-209 58,-218 L45,-125 Q121,-113 155.5,-86 Q190,-59 214,0 L170,0 L2,529 L138,529 L253,85 L373,529"/> 
            <glyph glyph-name="z" unicode="&#x7A;" horiz-adv-x="426" d=" M421,529 L421,437 L165,100 L426,100 L413,0 L18,0 L18,92 L275,429 L40,429 L40,529"/> 
            <glyph glyph-name="{" unicode="&#x7B;" horiz-adv-x="288" d=" M288,838 L288,746 Q241,746 222.5,731.5 Q204,717 204,682 L204,472 Q204,414 182,388 Q160,362 113,349 Q160,337 182,311 Q204,285 204,228 L204,18 Q204,-17 223,-31.5 Q242,-46 288,-46 L288,-138 Q173,-138 128.5,-101 Q84,-64 84,19 L84,218 Q84,262 69.5,279.5 Q55,297 17,297 L17,402 Q55,402 69.5,420 Q84,438 84,482 L84,681 Q84,764 128.5,801 Q173,838 288,838"/> 
            <glyph glyph-name="|" unicode="&#x7C;" horiz-adv-x="253" d=" M253,809 L253,-104 L135,-104 L135,809"/> 
            <glyph glyph-name="}" unicode="&#x7D;" horiz-adv-x="307" d=" M35,838 Q150,838 194.5,801 Q239,764 239,681 L239,482 Q239,438 253.5,420 Q268,402 307,402 L307,297 Q268,297 253.5,279.5 Q239,262 239,218 L239,19 Q239,-64 194.5,-101 Q150,-138 35,-138 L35,-46 Q81,-46 100,-31.5 Q119,-17 119,18 L119,228 Q119,285 141,311 Q163,337 210,349 Q163,362 141,388 Q119,414 119,472 L119,682 Q119,717 100.5,731.5 Q82,746 35,746"/> 
            <glyph glyph-name="~" unicode="&#x7E;" horiz-adv-x="477" d=" M330,240 Q294,240 263,255 Q232,270 208,285.5 Q184,301 166,301 Q130,301 96,249 L25,285 Q82,398 175,398 Q220,398 269,368 Q318,338 338,338 Q375,338 408,386 L477,349 Q422,240 330,240"/> 
            <glyph glyph-name="¡" unicode="&#xA1;" horiz-adv-x="201" d=" M121,503 Q154,503 177.5,479 Q201,455 201,422 Q201,388 178,364.5 Q155,341 121,341 Q87,341 63,364.5 Q39,388 39,422 Q39,455 63,479 Q87,503 121,503 M174,241 L190,-206 L52,-206 L68,241"/> 
            <glyph glyph-name="¢" unicode="&#xA2;" horiz-adv-x="462" d=" M405,127 L462,46 Q408,1 338,-11 L338,-158 L239,-158 L239,-11 Q147,6 95,77.5 Q43,149 43,260 Q43,373 95.5,448 Q148,523 240,540 L240,688 L338,688 L338,541 Q406,529 462,482 L405,405 Q354,443 298,443 Q179,443 179,262 Q179,89 298,89 Q346,89 405,127"/> 
            <glyph glyph-name="£" unicode="&#xA3;" horiz-adv-x="511" d=" M242,224 Q242,176 229,148 Q216,120 179,100 L492,100 L477,0 L33,0 L33,95 Q85,112 100.5,137.5 Q116,163 116,220 L116,316 L49,316 L49,388 L116,388 L116,487 Q116,575 169,630 Q222,685 318,685 Q438,685 511,593 L431,533 Q389,586 329,586 Q242,586 242,487 L242,388 L437,388 L437,316 L242,316"/> 
            <glyph glyph-name="¤" unicode="&#xA4;" horiz-adv-x="538" d=" M497,409 Q497,273 462,221 L538,146 L475,83 L397,159 Q346,128 279,128 Q216,128 163,160 L84,83 L23,146 L100,223 Q66,274 66,341 Q66,406 99,459 L23,538 L86,601 L164,522 Q215,554 279,554 Q347,554 398,523 L476,601 L538,538 L462,461 M228,219 Q334,219 362,251 Q390,283 390,342 Q390,400 362,432 Q334,464 281,464 Q228,464 200.5,432 Q173,400 173,342 Q173,284 228,219"/> 
            <glyph glyph-name="¥" unicode="&#xA5;" horiz-adv-x="555" d=" M555,673 L372,349 L477,349 L477,276 L341,276 L341,196 L477,196 L477,124 L341,124 L341,0 L213,0 L213,124 L78,124 L78,196 L213,196 L213,276 L78,276 L78,349 L182,349 L-2,673 L136,673 L280,385 L422,673"/> 
            <glyph glyph-name="¦" unicode="&#xA6;" horiz-adv-x="253" d=" M253,809 L253,443 L135,443 L135,809 M253,262 L253,-104 L135,-104 L135,262"/> 
            <glyph glyph-name="§" unicode="&#xA7;" horiz-adv-x="482" d=" M405,178 Q459,139 459,75 Q459,6 401.5,-36 Q344,-78 249,-78 Q147,-78 68,-25 L112,53 Q173,15 246,15 Q287,15 311,29 Q335,43 335,68 Q335,98 313,114.5 Q291,131 214,155 Q134,180 97,212.5 Q60,245 60,304 Q60,380 139,426 Q85,464 85,531 Q85,600 140.5,641.5 Q196,683 287,683 Q392,683 470,628 L426,553 Q362,592 292,592 Q208,592 208,537 Q208,508 230.5,490.5 Q253,473 327,450 Q407,424 444.5,390 Q482,356 482,300 Q482,227 405,178 M262,242 L334,215 Q367,248 367,283 Q367,313 346.5,330 Q326,347 264,369 Q236,378 206,390 Q176,355 176,322 Q176,291 194,275 Q212,259 262,242"/> 
            <glyph glyph-name="¨" unicode="&#xA8;" horiz-adv-x="391" d=" M100,785 Q129,785 149,765 Q169,745 169,716 Q169,687 149,667 Q129,647 100,647 Q70,647 49.5,667 Q29,687 29,716 Q29,745 49.5,765 Q70,785 100,785 M321,785 Q351,785 371,765 Q391,745 391,716 Q391,687 371,667 Q351,647 321,647 Q292,647 271.5,667 Q251,687 251,716 Q251,745 271.5,765 Q292,785 321,785"/> 
            <glyph glyph-name="©" unicode="&#xA9;" horiz-adv-x="732" d=" M268,758 Q544,758 638,666 Q732,574 732,433 Q732,292 638,200.5 Q544,109 406,109 Q268,109 173,200.5 Q78,292 78,433 Q78,574 268,758 M514,691 Q298,691 227,619 Q156,547 156,433 Q156,319 227,248 Q298,177 406,177 Q514,177 584.5,248 Q655,319 655,433 Q655,547 514,691 M408,628 Q478,628 532,582 L490,527 Q456,553 416,553 Q379,553 356.5,524 Q334,495 334,434 Q334,316 415,316 Q458,316 497,347 L536,290 Q481,240 409,240 Q331,240 284.5,291 Q238,342 238,434 Q238,524 286,576 Q334,628 408,628"/> 
            <glyph glyph-name="ª" unicode="&#xAA;" horiz-adv-x="455" d=" M252,527 L298,527 L298,544 Q298,579 281.5,592 Q265,605 224,605 Q176,605 113,584 L85,662 Q166,691 243,691 Q415,691 415,550 L415,396 Q415,373 422,362.5 Q429,352 445,347 L420,269 Q348,275 320,325 Q278,267 193,267 Q130,267 92.5,302 Q55,337 55,392 Q55,457 106,492 Q157,527 252,527 M228,352 Q272,352 298,389 L298,460 L264,460 Q176,460 176,400 Q176,352 228,352 M61,102 L455,102 L455,0 L61,0"/> 
            <glyph glyph-name="«" unicode="&#xAB;" horiz-adv-x="559" d=" M228,547 L306,494 L174,286 L306,77 L228,25 L45,244 L45,327 M481,547 L559,494 L427,286 L559,77 L481,25 L298,244 L298,327"/> 
            <glyph glyph-name="¬" unicode="&#xAC;" horiz-adv-x="462" d=" M462,377 L462,126 L353,126 L353,275 L55,275 L55,377"/> 
            <glyph glyph-name="­" unicode="&#xAD;" horiz-adv-x="354" d=" M52,262 L52,364 L354,364 L354,262"/> 
            <glyph glyph-name="®" unicode="&#xAE;" horiz-adv-x="585" d=" M319,755 Q433,755 509,678.5 Q585,602 585,488 Q585,375 509,299.5 Q433,224 319,224 Q207,224 130.5,299.5 Q54,375 54,488 Q54,601 130.5,678 Q207,755 319,755 M319,283 Q407,283 462,340 Q517,397 517,488 Q517,580 462,638 Q407,696 319,696 Q233,696 177.5,638 Q122,580 122,488 Q122,397 177.5,340 Q233,283 319,283 M430,548 Q430,494 369,471 L443,355 L368,355 L309,459 L286,459 L286,355 L221,355 L221,634 L302,634 Q430,634 430,548 M286,585 L286,511 L315,511 Q364,511 364,549 Q364,585 314,585"/> 
            <glyph glyph-name="¯" unicode="&#xAF;" horiz-adv-x="321" d=" M321,661 L30,661 L30,752 L321,752"/> 
            <glyph glyph-name="°" unicode="&#xB0;" horiz-adv-x="390" d=" M218,375 Q150,375 98.5,420.5 Q47,466 47,541 Q47,616 98.5,661 Q150,706 218,706 Q287,706 338.5,661 Q390,616 390,540 Q390,465 338.5,420 Q287,375 218,375 M184,453 Q252,453 274,476 Q296,499 296,540 Q296,581 274,604.5 Q252,628 218,628 Q184,628 162.5,605 Q141,582 141,541 Q141,500 184,453"/> 
            <glyph glyph-name="±" unicode="&#xB1;" horiz-adv-x="463" d=" M314,585 L314,432 L463,432 L463,331 L314,331 L314,178 L204,178 L204,331 L56,331 L56,432 L204,432 L204,585 M58,0 L58,102 L459,102 L459,0"/> 
            <glyph glyph-name="²" unicode="&#xB2;" horiz-adv-x="354" d=" M195,749 Q265,749 305,714 Q345,679 345,626 Q345,578 309.5,531.5 Q274,485 172,398 L354,398 L344,321 L60,321 L60,392 Q174,499 208,540 Q242,581 242,617 Q242,643 226.5,657.5 Q211,672 185,672 Q141,672 104,629 L45,676 Q103,749 195,749"/> 
            <glyph glyph-name="³" unicode="&#xB3;" horiz-adv-x="359" d=" M198,749 Q267,749 305.5,718.5 Q344,688 344,641 Q344,565 254,543 Q301,539 330,513.5 Q359,488 359,441 Q359,385 314,347.5 Q269,310 191,310 Q97,310 41,374 L97,427 Q136,387 185,387 Q217,387 236,402.5 Q255,418 255,447 Q255,506 182,506 L146,506 L158,574 L182,574 Q212,574 229,588 Q246,602 246,627 Q246,650 230,662.5 Q214,675 187,675 Q143,675 101,639 L51,692 Q112,749 198,749"/> 
            <glyph glyph-name="´" unicode="&#xB4;" horiz-adv-x="292" d=" M240,820 L292,720 L66,630 L30,695"/> 
            <glyph glyph-name="µ" unicode="&#xB5;" horiz-adv-x="526" d=" M526,0 L408,-15 Q392,20 384,76 Q335,-10 263,-10 Q202,-10 171,36 Q200,-28 200,-105 L200,-204 L77,-217 L77,529 L205,529 L205,162 Q205,88 268,88 Q332,88 373,166 L373,529 L501,529 L501,181 Q501,81 526,0"/> 
            <glyph glyph-name="¶" unicode="&#xB6;" horiz-adv-x="637" d=" M332,691 L637,691 L637,-203 L524,-219 L524,598 L422,598 L422,-203 L309,-219 L309,272 Q194,276 135,333 Q76,390 76,482 Q76,581 144,636 Q212,691 332,691"/> 
            <glyph glyph-name="·" unicode="&#xB7;" horiz-adv-x="201" d=" M85,390 Q153,390 177,366.5 Q201,343 201,309 Q201,276 177,252 Q153,228 119,228 Q86,228 62.5,252 Q39,276 39,309 Q39,343 85,390"/> 
            <glyph glyph-name="¸" unicode="&#xB8;" horiz-adv-x="270" d=" M171,16 L171,-52 Q270,-62 270,-144 Q270,-194 232,-223.5 Q194,-253 133,-253 Q70,-253 30,-225 L61,-162 Q91,-178 124,-178 Q173,-178 173,-144 Q173,-106 82,-106 L97,16"/> 
            <glyph glyph-name="¹" unicode="&#xB9;" horiz-adv-x="288" d=" M288,740 L288,321 L190,321 L190,644 L95,587 L51,654 L199,740"/> 
            <glyph glyph-name="º" unicode="&#xBA;" horiz-adv-x="455" d=" M251,691 Q347,691 401,635 Q455,579 455,479 Q455,383 400.5,325 Q346,267 250,267 Q154,267 99.5,323.5 Q45,380 45,480 Q45,576 100.5,633.5 Q156,691 251,691 M251,604 Q168,604 168,480 Q168,354 250,354 Q332,354 332,479 Q332,604 251,604 M50,0 L50,102 L451,102 L451,0"/> 
            <glyph glyph-name="»" unicode="&#xBB;" horiz-adv-x="554" d=" M123,547 L306,327 L306,244 L123,25 L45,77 L176,286 L45,494 M371,547 L554,327 L554,244 L371,25 L293,77 L424,286 L293,494"/> 
            <glyph glyph-name="¼" unicode="&#xBC;" horiz-adv-x="919" d=" M642,755 L719,717 L310,-82 L233,-44 M288,272 L190,272 L190,595 L95,538 L51,605 L199,691 L288,691 M919,164 L919,90 L869,90 L869,0 L774,0 L773,90 L584,90 L584,157 L709,428 L793,397 L687,164 L774,164 L789,263 L869,263 L869,164"/> 
            <glyph glyph-name="½" unicode="&#xBD;" horiz-adv-x="906" d=" M642,755 L719,717 L310,-82 L233,-44 M288,691 L288,272 L190,272 L190,595 L95,538 L51,605 L199,691 M747,428 Q817,428 857,393 Q897,358 897,305 Q897,257 861.5,210.5 Q826,164 724,77 L906,77 L896,0 L612,0 L612,71 Q726,178 760,219 Q794,260 794,296 Q794,322 778.5,336.5 Q763,351 737,351 Q693,351 656,308 L597,355 Q655,428 747,428"/> 
            <glyph glyph-name="¾" unicode="&#xBE;" horiz-adv-x="919" d=" M642,755 L719,717 L310,-82 L233,-44 M359,392 Q359,336 314,298.5 Q269,261 191,261 Q97,261 41,325 L97,378 Q136,338 185,338 Q217,338 236,353.5 Q255,369 255,398 Q255,457 182,457 L146,457 L158,525 L182,525 Q212,525 229,539 Q246,553 246,578 Q246,601 230,613.5 Q214,626 187,626 Q143,626 101,590 L51,643 Q112,700 198,700 Q267,700 305.5,669.5 Q344,639 344,592 Q344,516 254,494 Q301,490 330,464.5 Q359,439 359,392 M919,164 L919,90 L869,90 L869,0 L774,0 L773,90 L584,90 L584,157 L709,428 L793,397 L687,164 L774,164 L789,263 L869,263 L869,164"/> 
            <glyph glyph-name="¿" unicode="&#xBF;" horiz-adv-x="450" d=" M294,341 Q226,341 202.5,364.5 Q179,388 179,422 Q179,455 202.5,479 Q226,503 260,503 Q293,503 316.5,479 Q340,455 340,422 Q340,388 294,341 M228,-219 Q130,-219 76,-172 Q22,-125 22,-57 Q22,-13 40.5,20 Q59,53 85.5,72 Q112,91 138.5,108 Q165,125 183.5,149.5 Q202,174 202,206 L202,241 L322,241 L322,201 Q322,162 309.5,131 Q297,100 278.5,82.5 Q260,65 238.5,49 Q217,33 198.5,21.5 Q180,10 167.5,-7.5 Q155,-25 155,-47 Q155,-80 177.5,-98.5 Q200,-117 239,-117 Q310,-117 366,-51 L450,-116 Q361,-219 228,-219"/> 
            <glyph glyph-name="À" unicode="&#xC0;" horiz-adv-x="587" d=" M417,819 L384,753 L155,836 L205,936 M447,0 L404,160 L175,160 L132,0 L-5,0 L210,691 L373,691 L587,0 M201,260 L377,260 L289,590"/> 
            <glyph glyph-name="Á" unicode="&#xC1;" horiz-adv-x="587" d=" M423,836 L194,753 L161,819 L373,936 M447,0 L404,160 L175,160 L132,0 L-5,0 L210,691 L373,691 L587,0 M201,260 L377,260 L289,590"/> 
            <glyph glyph-name="Â" unicode="&#xC2;" horiz-adv-x="587" d=" M291,839 L161,757 L112,812 L251,933 L331,933 L470,812 L421,757 M447,0 L404,160 L175,160 L132,0 L-5,0 L210,691 L373,691 L587,0 M201,260 L377,260 L289,590"/> 
            <glyph glyph-name="Ã" unicode="&#xC3;" horiz-adv-x="587" d=" M235,817 Q218,817 206.5,806.5 Q195,796 182,772 L113,806 Q157,910 233,910 Q266,910 300,887 Q334,864 349,864 Q375,864 402,907 L470,873 Q427,770 350,770 Q319,770 284,793.5 Q249,817 235,817 M447,0 L404,160 L175,160 L132,0 L-5,0 L210,691 L373,691 L587,0 M201,260 L377,260 L289,590"/> 
            <glyph glyph-name="Ä" unicode="&#xC4;" horiz-adv-x="587" d=" M181,773 Q151,773 130.5,793 Q110,813 110,842 Q110,871 130.5,891 Q151,911 181,911 Q210,911 230,891 Q250,871 250,842 Q250,813 230,793 Q210,773 181,773 M402,773 Q373,773 352.5,793 Q332,813 332,842 Q332,871 352.5,891 Q373,911 402,911 Q432,911 452,891 Q472,871 472,842 Q472,813 452,793 Q432,773 402,773 M447,0 L404,160 L175,160 L132,0 L-5,0 L210,691 L373,691 L587,0 M201,260 L377,260 L289,590"/> 
            <glyph glyph-name="Å" unicode="&#xC5;" horiz-adv-x="587" d=" M292,739 Q235,739 199.5,774 Q164,809 164,859 Q164,910 199.5,944.5 Q235,979 292,979 Q349,979 384,944.5 Q419,910 419,859 Q419,809 383.5,774 Q348,739 292,739 M292,912 Q269,912 256,898 Q243,884 243,859 Q243,807 292,807 Q314,807 327,820.5 Q340,834 340,859 Q340,884 327,898 Q314,912 292,912 M447,0 L404,160 L175,160 L132,0 L-5,0 L210,691 L373,691 L587,0 M201,260 L377,260 L289,590"/> 
            <glyph glyph-name="Æ" unicode="&#xC6;" horiz-adv-x="790" d=" M560,99 L790,99 L790,0 L451,0 L419,160 L179,160 L122,0 L-18,0 L255,691 L751,691 L736,593 L448,593 L492,399 L742,399 L742,301 L514,301 M214,260 L399,260 L332,591"/> 
            <glyph glyph-name="Ç" unicode="&#xC7;" horiz-adv-x="555" d=" M555,69 Q486,-2 380,-13 L380,-52 Q479,-62 479,-144 Q479,-194 441,-223.5 Q403,-253 342,-253 Q279,-253 239,-225 L270,-162 Q300,-178 333,-178 Q382,-178 382,-144 Q382,-106 291,-106 L303,-12 Q184,3 113.5,96 Q43,189 43,347 Q43,516 128,611 Q213,706 345,706 Q458,706 547,633 L480,555 Q419,604 352,604 Q275,604 228.5,542 Q182,480 182,347 Q182,217 228,154 Q274,91 352,91 Q418,91 493,147"/> 
            <glyph glyph-name="È" unicode="&#xC8;" horiz-adv-x="486" d=" M197,936 L409,819 L376,753 L147,836 M482,691 L468,593 L213,593 L213,400 L435,400 L435,302 L213,302 L213,99 L486,99 L486,0 L81,0 L81,691"/> 
            <glyph glyph-name="É" unicode="&#xC9;" horiz-adv-x="486" d=" M365,936 L415,836 L186,753 L153,819 M482,691 L468,593 L213,593 L213,400 L435,400 L435,302 L213,302 L213,99 L486,99 L486,0 L81,0 L81,691"/> 
            <glyph glyph-name="Ê" unicode="&#xCA;" horiz-adv-x="486" d=" M153,757 L104,812 L243,933 L323,933 L462,812 L413,757 L283,839 M482,691 L468,593 L213,593 L213,400 L435,400 L435,302 L213,302 L213,99 L486,99 L486,0 L81,0 L81,691"/> 
            <glyph glyph-name="Ë" unicode="&#xCB;" horiz-adv-x="486" d=" M173,911 Q202,911 222,891 Q242,871 242,842 Q242,813 222,793 Q202,773 173,773 Q143,773 122.5,793 Q102,813 102,842 Q102,871 122.5,891 Q143,911 173,911 M394,911 Q424,911 444,891 Q464,871 464,842 Q464,813 444,793 Q424,773 394,773 Q365,773 344.5,793 Q324,813 324,842 Q324,871 344.5,891 Q365,911 394,911 M482,691 L468,593 L213,593 L213,400 L435,400 L435,302 L213,302 L213,99 L486,99 L486,0 L81,0 L81,691"/> 
            <glyph glyph-name="Ì" unicode="&#xCC;" horiz-adv-x="272" d=" M60,936 L272,819 L239,753 L10,836 M213,691 L213,0 L81,0 L81,691"/> 
            <glyph glyph-name="Í" unicode="&#xCD;" horiz-adv-x="278" d=" M228,936 L278,836 L49,753 L16,819 M213,691 L213,0 L81,0 L81,691"/> 
            <glyph glyph-name="Î" unicode="&#xCE;" horiz-adv-x="325" d=" M16,757 L-33,812 L106,933 L186,933 L325,812 L276,757 L146,839 M213,691 L213,0 L81,0 L81,691"/> 
            <glyph glyph-name="Ï" unicode="&#xCF;" horiz-adv-x="327" d=" M36,911 Q65,911 85,891 Q105,871 105,842 Q105,813 85,793 Q65,773 36,773 Q6,773 -14.5,793 Q-35,813 -35,842 Q-35,871 -14.5,891 Q6,911 36,911 M257,911 Q287,911 307,891 Q327,871 327,842 Q327,813 307,793 Q287,773 257,773 Q228,773 207.5,793 Q187,813 187,842 Q187,871 207.5,891 Q228,911 257,911 M213,691 L213,0 L81,0 L81,691"/> 
            <glyph glyph-name="Ð" unicode="&#xD0;" horiz-adv-x="618" d=" M264,691 Q323,691 371,683 Q419,675 466.5,652.5 Q514,630 546,593 Q578,556 598,494 Q618,432 618,349 Q618,249 589.5,177.5 Q561,106 511,69 Q461,32 405,16 Q349,0 282,0 L94,0 L94,310 L17,310 L17,396 L94,396 L94,691 M291,99 Q333,99 364.5,110 Q396,121 423,147 Q450,173 464.5,224 Q479,275 479,349 Q479,424 464,474 Q449,524 420.5,549 Q392,574 361,583 Q330,592 287,592 L226,592 L226,396 L371,396 L371,310 L226,310 L226,99"/> 
            <glyph glyph-name="Ñ" unicode="&#xD1;" horiz-adv-x="591" d=" M402,770 Q371,770 336,793.5 Q301,817 287,817 Q270,817 258.5,806.5 Q247,796 234,772 L165,806 Q209,910 285,910 Q318,910 352,887 Q386,864 401,864 Q427,864 454,907 L522,873 Q479,770 402,770 M591,691 L591,0 L420,0 L183,559 Q201,402 201,282 L201,0 L81,0 L81,691 L248,691 L489,131 Q471,245 471,367 L471,691"/> 
            <glyph glyph-name="Ò" unicode="&#xD2;" horiz-adv-x="648" d=" M259,936 L471,819 L438,753 L209,836 M206,706 Q486,706 567,611.5 Q648,517 648,346 Q648,176 567,80.5 Q486,-15 346,-15 Q206,-15 124.5,79.5 Q43,174 43,345 Q43,514 206,706 M346,605 Q182,605 182,345 Q182,86 346,86 Q509,86 509,346 Q509,481 467.5,543 Q426,605 346,605"/> 
            <glyph glyph-name="Ó" unicode="&#xD3;" horiz-adv-x="648" d=" M427,936 L477,836 L248,753 L215,819 M206,706 Q486,706 567,611.5 Q648,517 648,346 Q648,176 567,80.5 Q486,-15 346,-15 Q206,-15 124.5,79.5 Q43,174 43,345 Q43,514 206,706 M346,605 Q182,605 182,345 Q182,86 346,86 Q509,86 509,346 Q509,481 467.5,543 Q426,605 346,605"/> 
            <glyph glyph-name="Ô" unicode="&#xD4;" horiz-adv-x="648" d=" M215,757 L166,812 L305,933 L385,933 L524,812 L475,757 L345,839 M206,706 Q486,706 567,611.5 Q648,517 648,346 Q648,176 567,80.5 Q486,-15 346,-15 Q206,-15 124.5,79.5 Q43,174 43,345 Q43,514 206,706 M346,605 Q182,605 182,345 Q182,86 346,86 Q509,86 509,346 Q509,481 467.5,543 Q426,605 346,605"/> 
            <glyph glyph-name="Õ" unicode="&#xD5;" horiz-adv-x="648" d=" M404,770 Q373,770 338,793.5 Q303,817 289,817 Q272,817 260.5,806.5 Q249,796 236,772 L167,806 Q211,910 287,910 Q320,910 354,887 Q388,864 403,864 Q429,864 456,907 L524,873 Q481,770 404,770 M206,706 Q486,706 567,611.5 Q648,517 648,346 Q648,176 567,80.5 Q486,-15 346,-15 Q206,-15 124.5,79.5 Q43,174 43,345 Q43,514 206,706 M346,605 Q182,605 182,345 Q182,86 346,86 Q509,86 509,346 Q509,481 467.5,543 Q426,605 346,605"/> 
            <glyph glyph-name="Ö" unicode="&#xD6;" horiz-adv-x="648" d=" M235,911 Q264,911 284,891 Q304,871 304,842 Q304,813 284,793 Q264,773 235,773 Q205,773 184.5,793 Q164,813 164,842 Q164,871 184.5,891 Q205,911 235,911 M456,911 Q486,911 506,891 Q526,871 526,842 Q526,813 506,793 Q486,773 456,773 Q427,773 406.5,793 Q386,813 386,842 Q386,871 406.5,891 Q427,911 456,911 M206,706 Q486,706 567,611.5 Q648,517 648,346 Q648,176 567,80.5 Q486,-15 346,-15 Q206,-15 124.5,79.5 Q43,174 43,345 Q43,514 206,706 M346,605 Q182,605 182,345 Q182,86 346,86 Q509,86 509,346 Q509,481 467.5,543 Q426,605 346,605"/> 
            <glyph glyph-name="×" unicode="&#xD7;" horiz-adv-x="447" d=" M374,499 L447,426 L329,309 L447,188 L374,115 L257,237 L136,115 L63,188 L181,304 L63,426 L136,499 L253,376"/> 
            <glyph glyph-name="Ø" unicode="&#xD8;" horiz-adv-x="648" d=" M502,667 Q648,581 648,346 Q648,176 567,80.5 Q486,-15 346,-15 Q320,-15 288,-10 L252,-131 L149,-104 L190,24 Q43,111 43,345 Q43,514 124.5,610 Q206,706 346,706 Q378,706 402,702 L439,824 L543,796 M346,605 Q182,605 182,345 Q182,179 240,123 L384,602 Q366,605 346,605 M346,86 Q509,86 509,346 Q509,516 450,570 L307,89 Q325,86 346,86"/> 
            <glyph glyph-name="Ù" unicode="&#xD9;" horiz-adv-x="585" d=" M241,936 L453,819 L420,753 L191,836 M585,691 L585,226 Q585,118 517.5,51.5 Q450,-15 327,-15 Q203,-15 137,50.5 Q71,116 71,226 L71,691 L203,691 L203,233 Q203,88 327,88 Q452,88 452,233 L452,691"/> 
            <glyph glyph-name="Ú" unicode="&#xDA;" horiz-adv-x="585" d=" M409,936 L459,836 L230,753 L197,819 M585,691 L585,226 Q585,118 517.5,51.5 Q450,-15 327,-15 Q203,-15 137,50.5 Q71,116 71,226 L71,691 L203,691 L203,233 Q203,88 327,88 Q452,88 452,233 L452,691"/> 
            <glyph glyph-name="Û" unicode="&#xDB;" horiz-adv-x="585" d=" M197,757 L148,812 L287,933 L367,933 L506,812 L457,757 L327,839 M585,691 L585,226 Q585,118 517.5,51.5 Q450,-15 327,-15 Q203,-15 137,50.5 Q71,116 71,226 L71,691 L203,691 L203,233 Q203,88 327,88 Q452,88 452,233 L452,691"/> 
            <glyph glyph-name="Ü" unicode="&#xDC;" horiz-adv-x="585" d=" M217,911 Q246,911 266,891 Q286,871 286,842 Q286,813 266,793 Q246,773 217,773 Q187,773 166.5,793 Q146,813 146,842 Q146,871 166.5,891 Q187,911 217,911 M438,911 Q468,911 488,891 Q508,871 508,842 Q508,813 488,793 Q468,773 438,773 Q409,773 388.5,793 Q368,813 368,842 Q368,871 388.5,891 Q409,911 438,911 M585,691 L585,226 Q585,118 517.5,51.5 Q450,-15 327,-15 Q203,-15 137,50.5 Q71,116 71,226 L71,691 L203,691 L203,233 Q203,88 327,88 Q452,88 452,233 L452,691"/> 
            <glyph glyph-name="Ý" unicode="&#xDD;" horiz-adv-x="576" d=" M368,936 L418,836 L189,753 L156,819 M576,691 L354,262 L354,0 L220,0 L220,261 L-2,691 L144,691 L290,370 L436,691"/> 
            <glyph glyph-name="Þ" unicode="&#xDE;" horiz-adv-x="565" d=" M285,578 Q419,578 492,522.5 Q565,467 565,355 Q565,237 491,178.5 Q417,120 294,120 L213,120 L213,0 L81,0 L81,691 L213,691 L213,578 M284,219 Q355,219 391,249.5 Q427,280 427,355 Q427,481 284,481 L213,481 L213,219"/> 
            <glyph glyph-name="ß" unicode="&#xDF;" horiz-adv-x="572" d=" M297,755 Q387,755 439.5,712.5 Q492,670 492,608 Q492,573 475.5,545 Q459,517 439,502.5 Q419,488 402.5,468.5 Q386,449 386,429 Q386,408 405,388.5 Q424,369 451.5,351 Q479,333 506.5,310.5 Q534,288 553,250.5 Q572,213 572,164 Q572,82 517,33.5 Q462,-15 381,-15 Q318,-15 270,10 L308,98 Q331,85 366,85 Q400,85 420,106 Q440,127 440,166 Q440,199 422.5,224.5 Q405,250 380.5,268 Q356,286 331.5,304 Q307,322 289.5,349.5 Q272,377 272,412 Q272,446 287.5,471 Q303,496 321,509 Q339,522 354.5,544 Q370,566 370,595 Q370,626 349,643.5 Q328,661 295,661 Q205,661 205,538 L205,0 L77,0 L77,536 Q77,640 134,697.5 Q191,755 297,755"/> 
            <glyph glyph-name="à" unicode="&#xE0;" horiz-adv-x="508" d=" M407,695 L370,630 L145,720 L197,820 M468,140 Q468,109 477.5,94.5 Q487,80 508,72 L481,-13 Q393,-5 364,64 Q312,-15 206,-15 Q127,-15 81,30 Q35,75 35,148 Q35,234 97.5,279.5 Q160,325 276,325 L342,325 L342,355 Q342,406 318.5,426.5 Q295,447 243,447 Q185,447 103,419 L73,506 Q172,544 265,544 Q468,544 468,362 M240,78 Q305,78 342,143 L342,250 L289,250 Q165,250 165,158 Q165,78 240,78"/> 
            <glyph glyph-name="á" unicode="&#xE1;" horiz-adv-x="508" d=" M394,720 L168,630 L132,695 L342,820 M468,140 Q468,109 477.5,94.5 Q487,80 508,72 L481,-13 Q393,-5 364,64 Q312,-15 206,-15 Q127,-15 81,30 Q35,75 35,148 Q35,234 97.5,279.5 Q160,325 276,325 L342,325 L342,355 Q342,406 318.5,426.5 Q295,447 243,447 Q185,447 103,419 L73,506 Q172,544 265,544 Q468,544 468,362 M240,78 Q305,78 342,143 L342,250 L289,250 Q165,250 165,158 Q165,78 240,78"/> 
            <glyph glyph-name="â" unicode="&#xE2;" horiz-adv-x="508" d=" M266,715 L136,627 L87,682 L225,808 L306,808 L445,682 L396,627 M468,140 Q468,109 477.5,94.5 Q487,80 508,72 L481,-13 Q393,-5 364,64 Q312,-15 206,-15 Q127,-15 81,30 Q35,75 35,148 Q35,234 97.5,279.5 Q160,325 276,325 L342,325 L342,355 Q342,406 318.5,426.5 Q295,447 243,447 Q185,447 103,419 L73,506 Q172,544 265,544 Q468,544 468,362 M240,78 Q305,78 342,143 L342,250 L289,250 Q165,250 165,158 Q165,78 240,78"/> 
            <glyph glyph-name="ã" unicode="&#xE3;" horiz-adv-x="508" d=" M209,691 Q192,691 180.5,680.5 Q169,670 156,646 L87,680 Q131,784 207,784 Q240,784 274,761 Q308,738 323,738 Q349,738 376,781 L444,747 Q401,644 324,644 Q293,644 258,667.5 Q223,691 209,691 M468,140 Q468,109 477.5,94.5 Q487,80 508,72 L481,-13 Q393,-5 364,64 Q312,-15 206,-15 Q127,-15 81,30 Q35,75 35,148 Q35,234 97.5,279.5 Q160,325 276,325 L342,325 L342,355 Q342,406 318.5,426.5 Q295,447 243,447 Q185,447 103,419 L73,506 Q172,544 265,544 Q468,544 468,362 M240,78 Q305,78 342,143 L342,250 L289,250 Q165,250 165,158 Q165,78 240,78"/> 
            <glyph glyph-name="ä" unicode="&#xE4;" horiz-adv-x="508" d=" M155,647 Q125,647 104.5,667 Q84,687 84,716 Q84,745 104.5,765 Q125,785 155,785 Q184,785 204,765 Q224,745 224,716 Q224,687 204,667 Q184,647 155,647 M376,647 Q347,647 326.5,667 Q306,687 306,716 Q306,745 326.5,765 Q347,785 376,785 Q406,785 426,765 Q446,745 446,716 Q446,687 426,667 Q406,647 376,647 M468,140 Q468,109 477.5,94.5 Q487,80 508,72 L481,-13 Q393,-5 364,64 Q312,-15 206,-15 Q127,-15 81,30 Q35,75 35,148 Q35,234 97.5,279.5 Q160,325 276,325 L342,325 L342,355 Q342,406 318.5,426.5 Q295,447 243,447 Q185,447 103,419 L73,506 Q172,544 265,544 Q468,544 468,362 M240,78 Q305,78 342,143 L342,250 L289,250 Q165,250 165,158 Q165,78 240,78"/> 
            <glyph glyph-name="å" unicode="&#xE5;" horiz-adv-x="508" d=" M266,613 Q209,613 173.5,648 Q138,683 138,733 Q138,784 173.5,818.5 Q209,853 266,853 Q323,853 358,818.5 Q393,784 393,733 Q393,683 357.5,648 Q322,613 266,613 M266,786 Q243,786 230,772 Q217,758 217,733 Q217,681 266,681 Q288,681 301,694.5 Q314,708 314,733 Q314,758 301,772 Q288,786 266,786 M468,140 Q468,109 477.5,94.5 Q487,80 508,72 L481,-13 Q393,-5 364,64 Q312,-15 206,-15 Q127,-15 81,30 Q35,75 35,148 Q35,234 97.5,279.5 Q160,325 276,325 L342,325 L342,355 Q342,406 318.5,426.5 Q295,447 243,447 Q185,447 103,419 L73,506 Q172,544 265,544 Q468,544 468,362 M240,78 Q305,78 342,143 L342,250 L289,250 Q165,250 165,158 Q165,78 240,78"/> 
            <glyph glyph-name="æ" unicode="&#xE6;" horiz-adv-x="814" d=" M814,277 Q814,246 811,225 L480,225 Q492,82 609,82 Q673,82 741,129 L795,56 Q705,-15 598,-15 Q464,-15 397,78 Q331,-15 209,-15 Q129,-15 82,30 Q35,75 35,148 Q35,234 98.5,279.5 Q162,325 280,325 L347,325 L347,355 Q347,405 323.5,425.5 Q300,446 248,446 Q191,446 107,418 L78,506 Q177,544 269,544 Q381,544 430,470 Q490,544 590,544 Q694,544 754,473 Q814,402 814,277 M688,308 L688,314 Q686,453 584,453 Q490,453 479,308 M246,78 Q311,78 361,155 Q350,195 348,244 L348,248 L295,248 Q171,248 171,156 Q171,78 246,78"/> 
            <glyph glyph-name="ç" unicode="&#xE7;" horiz-adv-x="462" d=" M462,46 Q397,-7 317,-14 L317,-52 Q416,-62 416,-144 Q416,-194 378,-223.5 Q340,-253 279,-253 Q216,-253 176,-225 L207,-162 Q237,-178 270,-178 Q319,-178 319,-144 Q319,-106 228,-106 L240,-11 Q147,6 95,77.5 Q43,149 43,260 Q43,388 110,466 Q177,544 290,544 Q390,544 462,482 L405,405 Q354,443 298,443 Q179,443 179,262 Q179,89 298,89 Q346,89 405,127"/> 
            <glyph glyph-name="è" unicode="&#xE8;" horiz-adv-x="511" d=" M422,695 L385,630 L160,720 L212,820 M511,277 Q511,267 508,225 L176,225 Q188,82 306,82 Q370,82 438,129 L491,56 Q403,-15 295,-15 Q174,-15 108.5,59 Q43,133 43,261 Q43,385 105.5,464.5 Q168,544 278,544 Q389,544 450,473.5 Q511,403 511,277 M384,308 L384,314 Q384,453 281,453 Q186,453 176,308"/> 
            <glyph glyph-name="é" unicode="&#xE9;" horiz-adv-x="511" d=" M409,720 L183,630 L147,695 L357,820 M511,277 Q511,267 508,225 L176,225 Q188,82 306,82 Q370,82 438,129 L491,56 Q403,-15 295,-15 Q174,-15 108.5,59 Q43,133 43,261 Q43,385 105.5,464.5 Q168,544 278,544 Q389,544 450,473.5 Q511,403 511,277 M384,308 L384,314 Q384,453 281,453 Q186,453 176,308"/> 
            <glyph glyph-name="ê" unicode="&#xEA;" horiz-adv-x="511" d=" M281,715 L151,627 L102,682 L240,808 L321,808 L460,682 L411,627 M511,277 Q511,267 508,225 L176,225 Q188,82 306,82 Q370,82 438,129 L491,56 Q403,-15 295,-15 Q174,-15 108.5,59 Q43,133 43,261 Q43,385 105.5,464.5 Q168,544 278,544 Q389,544 450,473.5 Q511,403 511,277 M384,308 L384,314 Q384,453 281,453 Q186,453 176,308"/> 
            <glyph glyph-name="ë" unicode="&#xEB;" horiz-adv-x="511" d=" M170,647 Q140,647 119.5,667 Q99,687 99,716 Q99,745 119.5,765 Q140,785 170,785 Q199,785 219,765 Q239,745 239,716 Q239,687 219,667 Q199,647 170,647 M391,647 Q362,647 341.5,667 Q321,687 321,716 Q321,745 341.5,765 Q362,785 391,785 Q421,785 441,765 Q461,745 461,716 Q461,687 441,667 Q421,647 391,647 M511,277 Q511,267 508,225 L176,225 Q188,82 306,82 Q370,82 438,129 L491,56 Q403,-15 295,-15 Q174,-15 108.5,59 Q43,133 43,261 Q43,385 105.5,464.5 Q168,544 278,544 Q389,544 450,473.5 Q511,403 511,277 M384,308 L384,314 Q384,453 281,453 Q186,453 176,308"/> 
            <glyph glyph-name="ì" unicode="&#xEC;" horiz-adv-x="282" d=" M72,820 L282,695 L245,630 L20,720 M205,529 L205,0 L77,0 L77,529"/> 
            <glyph glyph-name="í" unicode="&#xED;" horiz-adv-x="269" d=" M217,820 L269,720 L43,630 L7,695 M205,529 L205,0 L77,0 L77,529"/> 
            <glyph glyph-name="î" unicode="&#xEE;" horiz-adv-x="320" d=" M11,627 L-38,682 L100,808 L181,808 L320,682 L271,627 L141,715 M205,529 L205,0 L77,0 L77,529"/> 
            <glyph glyph-name="ï" unicode="&#xEF;" horiz-adv-x="321" d=" M30,785 Q59,785 79,765 Q99,745 99,716 Q99,687 79,667 Q59,647 30,647 Q0,647 -20.5,667 Q-41,687 -41,716 Q-41,745 -20.5,765 Q0,785 30,785 M251,785 Q281,785 301,765 Q321,745 321,716 Q321,687 301,667 Q281,647 251,647 Q222,647 201.5,667 Q181,687 181,716 Q181,745 201.5,765 Q222,785 251,785 M205,529 L205,0 L77,0 L77,529"/> 
            <glyph glyph-name="ð" unicode="&#xF0;" horiz-adv-x="526" d=" M349,668 Q445,598 485.5,502.5 Q526,407 526,271 Q526,144 459.5,64.5 Q393,-15 281,-15 Q178,-15 110.5,52 Q43,119 43,234 Q43,335 99,406 Q155,477 248,477 Q331,477 387,421 Q361,528 277,593 L215,532 L132,571 L196,639 Q148,656 95,666 L121,754 Q202,740 269,712 L340,788 L409,728 M281,81 Q336,81 366,126.5 Q396,172 396,261 Q396,273 395.5,294.5 Q395,316 395,326 Q351,384 278,384 Q174,384 174,238 Q174,160 202.5,120.5 Q231,81 281,81"/> 
            <glyph glyph-name="ñ" unicode="&#xF1;" horiz-adv-x="509" d=" M239,691 Q222,691 210.5,680.5 Q199,670 186,646 L117,680 Q161,784 237,784 Q270,784 304,761 Q338,738 353,738 Q379,738 406,781 L474,747 Q431,644 354,644 Q323,644 288,667.5 Q253,691 239,691 M359,544 Q430,544 469.5,501.5 Q509,459 509,383 L509,0 L381,0 L381,363 Q381,410 364.5,429 Q348,448 316,448 Q256,448 205,368 L205,0 L77,0 L77,529 L188,529 L198,460 Q263,544 359,544"/> 
            <glyph glyph-name="ò" unicode="&#xF2;" horiz-adv-x="541" d=" M223,820 L433,695 L396,630 L171,720 M293,544 Q410,544 475.5,469.5 Q541,395 541,265 Q541,138 474.5,61.5 Q408,-15 292,-15 Q175,-15 109,59.5 Q43,134 43,265 Q43,391 110,467.5 Q177,544 293,544 M293,447 Q178,447 178,265 Q178,82 292,82 Q406,82 406,265 Q406,447 293,447"/> 
            <glyph glyph-name="ó" unicode="&#xF3;" horiz-adv-x="541" d=" M368,820 L420,720 L194,630 L158,695 M293,544 Q410,544 475.5,469.5 Q541,395 541,265 Q541,138 474.5,61.5 Q408,-15 292,-15 Q175,-15 109,59.5 Q43,134 43,265 Q43,391 110,467.5 Q177,544 293,544 M293,447 Q178,447 178,265 Q178,82 292,82 Q406,82 406,265 Q406,447 293,447"/> 
            <glyph glyph-name="ô" unicode="&#xF4;" horiz-adv-x="541" d=" M162,627 L113,682 L251,808 L332,808 L471,682 L422,627 L292,715 M293,544 Q410,544 475.5,469.5 Q541,395 541,265 Q541,138 474.5,61.5 Q408,-15 292,-15 Q175,-15 109,59.5 Q43,134 43,265 Q43,391 110,467.5 Q177,544 293,544 M293,447 Q178,447 178,265 Q178,82 292,82 Q406,82 406,265 Q406,447 293,447"/> 
            <glyph glyph-name="õ" unicode="&#xF5;" horiz-adv-x="541" d=" M350,644 Q319,644 284,667.5 Q249,691 235,691 Q218,691 206.5,680.5 Q195,670 182,646 L113,680 Q157,784 233,784 Q266,784 300,761 Q334,738 349,738 Q375,738 402,781 L470,747 Q427,644 350,644 M293,544 Q410,544 475.5,469.5 Q541,395 541,265 Q541,138 474.5,61.5 Q408,-15 292,-15 Q175,-15 109,59.5 Q43,134 43,265 Q43,391 110,467.5 Q177,544 293,544 M293,447 Q178,447 178,265 Q178,82 292,82 Q406,82 406,265 Q406,447 293,447"/> 
            <glyph glyph-name="ö" unicode="&#xF6;" horiz-adv-x="541" d=" M181,785 Q210,785 230,765 Q250,745 250,716 Q250,687 230,667 Q210,647 181,647 Q151,647 130.5,667 Q110,687 110,716 Q110,745 130.5,765 Q151,785 181,785 M402,785 Q432,785 452,765 Q472,745 472,716 Q472,687 452,667 Q432,647 402,647 Q373,647 352.5,667 Q332,687 332,716 Q332,745 352.5,765 Q373,785 402,785 M293,544 Q410,544 475.5,469.5 Q541,395 541,265 Q541,138 474.5,61.5 Q408,-15 292,-15 Q175,-15 109,59.5 Q43,134 43,265 Q43,391 110,467.5 Q177,544 293,544 M293,447 Q178,447 178,265 Q178,82 292,82 Q406,82 406,265 Q406,447 293,447"/> 
            <glyph glyph-name="÷" unicode="&#xF7;" horiz-adv-x="456" d=" M221,649 Q289,649 313,625.5 Q337,602 337,568 Q337,535 313,511 Q289,487 255,487 Q222,487 198.5,511 Q175,535 175,568 Q175,602 221,649 M55,281 L55,383 L456,383 L456,281 M221,178 Q289,178 313,154.5 Q337,131 337,97 Q337,64 313,40 Q289,16 255,16 Q222,16 198.5,40 Q175,64 175,97 Q175,131 221,178"/> 
            <glyph glyph-name="ø" unicode="&#xF8;" horiz-adv-x="541" d=" M428,509 Q541,441 541,265 Q541,138 474.5,61.5 Q408,-15 292,-15 Q270,-15 251,-12 L213,-133 L115,-104 L156,20 Q43,91 43,265 Q43,391 110,467.5 Q177,544 293,544 Q314,544 334,541 L373,662 L470,633 M293,447 Q171,447 171,265 Q171,153 206,112 L317,446 Q310,447 293,447 M292,82 Q413,82 413,265 Q413,377 378,417 L268,83 Q276,82 292,82"/> 
            <glyph glyph-name="ù" unicode="&#xF9;" horiz-adv-x="500" d=" M217,820 L427,695 L390,630 L165,720 M500,529 L500,0 L389,0 L382,74 Q324,-15 220,-15 Q149,-15 110.5,28.5 Q72,72 72,149 L72,529 L200,529 L200,165 Q200,120 215.5,101 Q231,82 265,82 Q326,82 372,157 L372,529"/> 
            <glyph glyph-name="ú" unicode="&#xFA;" horiz-adv-x="500" d=" M362,820 L414,720 L188,630 L152,695 M500,529 L500,0 L389,0 L382,74 Q324,-15 220,-15 Q149,-15 110.5,28.5 Q72,72 72,149 L72,529 L200,529 L200,165 Q200,120 215.5,101 Q231,82 265,82 Q326,82 372,157 L372,529"/> 
            <glyph glyph-name="û" unicode="&#xFB;" horiz-adv-x="500" d=" M156,627 L107,682 L245,808 L326,808 L465,682 L416,627 L286,715 M500,529 L500,0 L389,0 L382,74 Q324,-15 220,-15 Q149,-15 110.5,28.5 Q72,72 72,149 L72,529 L200,529 L200,165 Q200,120 215.5,101 Q231,82 265,82 Q326,82 372,157 L372,529"/> 
            <glyph glyph-name="ü" unicode="&#xFC;" horiz-adv-x="500" d=" M175,785 Q204,785 224,765 Q244,745 244,716 Q244,687 224,667 Q204,647 175,647 Q145,647 124.5,667 Q104,687 104,716 Q104,745 124.5,765 Q145,785 175,785 M396,785 Q426,785 446,765 Q466,745 466,716 Q466,687 446,667 Q426,647 396,647 Q367,647 346.5,667 Q326,687 326,716 Q326,745 346.5,765 Q367,785 396,785 M500,529 L500,0 L389,0 L382,74 Q324,-15 220,-15 Q149,-15 110.5,28.5 Q72,72 72,149 L72,529 L200,529 L200,165 Q200,120 215.5,101 Q231,82 265,82 Q326,82 372,157 L372,529"/> 
            <glyph glyph-name="ý" unicode="&#xFD;" horiz-adv-x="505" d=" M329,820 L381,720 L155,630 L119,695 M505,529 L333,-2 Q301,-100 236,-154.5 Q171,-209 58,-218 L45,-125 Q121,-113 155.5,-86 Q190,-59 214,0 L170,0 L2,529 L138,529 L253,85 L373,529"/> 
            <glyph glyph-name="þ" unicode="&#xFE;" horiz-adv-x="547" d=" M349,544 Q547,544 547,266 Q547,141 491.5,63 Q436,-15 338,-15 Q254,-15 205,43 L205,-201 L77,-218 L77,741 L205,755 L205,473 Q262,544 349,544 M302,83 Q413,83 413,265 Q413,363 387.5,405.5 Q362,448 311,448 Q249,448 205,376 L205,138 Q242,83 302,83"/> 
            <glyph glyph-name="ÿ" unicode="&#xFF;" horiz-adv-x="505" d=" M142,785 Q171,785 191,765 Q211,745 211,716 Q211,687 191,667 Q171,647 142,647 Q112,647 91.5,667 Q71,687 71,716 Q71,745 91.5,765 Q112,785 142,785 M363,785 Q393,785 413,765 Q433,745 433,716 Q433,687 413,667 Q393,647 363,647 Q334,647 313.5,667 Q293,687 293,716 Q293,745 313.5,765 Q334,785 363,785 M505,529 L333,-2 Q301,-100 236,-154.5 Q171,-209 58,-218 L45,-125 Q121,-113 155.5,-86 Q190,-59 214,0 L170,0 L2,529 L138,529 L253,85 L373,529"/> 
            <glyph glyph-name="Ā" unicode="&#x100;" horiz-adv-x="587" d=" M437,878 L437,787 L146,787 L146,878 M447,0 L404,160 L175,160 L132,0 L-5,0 L210,691 L373,691 L587,0 M201,260 L377,260 L289,590"/> 
            <glyph glyph-name="ā" unicode="&#x101;" horiz-adv-x="508" d=" M411,752 L411,661 L120,661 L120,752 M468,140 Q468,109 477.5,94.5 Q487,80 508,72 L481,-13 Q393,-5 364,64 Q312,-15 206,-15 Q127,-15 81,30 Q35,75 35,148 Q35,234 97.5,279.5 Q160,325 276,325 L342,325 L342,355 Q342,406 318.5,426.5 Q295,447 243,447 Q185,447 103,419 L73,506 Q172,544 265,544 Q468,544 468,362 M240,78 Q305,78 342,143 L342,250 L289,250 Q165,250 165,158 Q165,78 240,78"/> 
            <glyph glyph-name="Ă" unicode="&#x102;" horiz-adv-x="587" d=" M291,754 Q223,754 179,795 Q135,836 129,898 L204,913 Q226,846 291,846 Q358,846 379,913 L455,898 Q449,836 404.5,795 Q360,754 291,754 M447,0 L404,160 L175,160 L132,0 L-5,0 L210,691 L373,691 L587,0 M201,260 L377,260 L289,590"/> 
            <glyph glyph-name="ă" unicode="&#x103;" horiz-adv-x="508" d=" M334,637 Q196,637 152.5,680 Q109,723 103,792 L178,806 Q198,729 265,729 Q334,729 353,806 L429,792 Q423,723 334,637 M468,140 Q468,109 477.5,94.5 Q487,80 508,72 L481,-13 Q393,-5 364,64 Q312,-15 206,-15 Q127,-15 81,30 Q35,75 35,148 Q35,234 97.5,279.5 Q160,325 276,325 L342,325 L342,355 Q342,406 318.5,426.5 Q295,447 243,447 Q185,447 103,419 L73,506 Q172,544 265,544 Q468,544 468,362 M240,78 Q305,78 342,143 L342,250 L289,250 Q165,250 165,158 Q165,78 240,78"/> 
            <glyph glyph-name="Ą" unicode="&#x104;" horiz-adv-x="587" d=" M523,0 Q402,-48 402,-108 Q402,-154 457,-154 Q484,-154 518,-147 L508,-232 Q471,-239 441,-239 Q380,-239 342,-209 Q304,-179 304,-130 Q304,-32 441,22 L404,160 L175,160 L132,0 L-5,0 L210,691 L373,691 L587,0 M201,260 L377,260 L289,590"/> 
            <glyph glyph-name="ą" unicode="&#x105;" horiz-adv-x="508" d=" M481,-13 Q360,-61 360,-121 Q360,-167 415,-167 Q442,-167 476,-160 L466,-245 Q429,-252 399,-252 Q338,-252 300,-222 Q262,-192 262,-143 Q262,-44 404,11 Q377,30 364,64 Q312,-15 206,-15 Q127,-15 81,30 Q35,75 35,148 Q35,234 97.5,279.5 Q160,325 276,325 L342,325 L342,355 Q342,406 318.5,426.5 Q295,447 243,447 Q185,447 103,419 L73,506 Q172,544 265,544 Q468,544 468,362 L468,140 Q468,109 477.5,94.5 Q487,80 508,72 M240,78 Q305,78 342,143 L342,250 L289,250 Q165,250 165,158 Q165,78 240,78"/> 
            <glyph glyph-name="Ć" unicode="&#x106;" horiz-adv-x="555" d=" M432,936 L482,836 L253,753 L220,819 M345,706 Q458,706 547,633 L480,555 Q419,604 352,604 Q275,604 228.5,542 Q182,480 182,347 Q182,217 228,154 Q274,91 352,91 Q418,91 493,147 L555,69 Q473,-15 347,-15 Q209,-15 126,80 Q43,175 43,347 Q43,516 128,611 Q213,706 345,706"/> 
            <glyph glyph-name="ć" unicode="&#x107;" horiz-adv-x="462" d=" M366,820 L418,720 L192,630 L156,695 M290,544 Q390,544 462,482 L405,405 Q354,443 298,443 Q179,443 179,262 Q179,89 298,89 Q346,89 405,127 L462,46 Q387,-15 291,-15 Q176,-15 109.5,59 Q43,133 43,260 Q43,388 110,466 Q177,544 290,544"/> 
            <glyph glyph-name="Ĉ" unicode="&#x108;" horiz-adv-x="555" d=" M220,757 L171,812 L310,933 L390,933 L529,812 L480,757 L350,839 M345,706 Q458,706 547,633 L480,555 Q419,604 352,604 Q275,604 228.5,542 Q182,480 182,347 Q182,217 228,154 Q274,91 352,91 Q418,91 493,147 L555,69 Q473,-15 347,-15 Q209,-15 126,80 Q43,175 43,347 Q43,516 128,611 Q213,706 345,706"/> 
            <glyph glyph-name="ĉ" unicode="&#x109;" horiz-adv-x="469" d=" M160,627 L111,682 L249,808 L330,808 L469,682 L420,627 L290,715 M290,544 Q390,544 462,482 L405,405 Q354,443 298,443 Q179,443 179,262 Q179,89 298,89 Q346,89 405,127 L462,46 Q387,-15 291,-15 Q176,-15 109.5,59 Q43,133 43,260 Q43,388 110,466 Q177,544 290,544"/> 
            <glyph glyph-name="Ċ" unicode="&#x10A;" horiz-adv-x="555" d=" M350,923 Q386,923 408.5,900.5 Q431,878 431,845 Q431,812 408.5,790 Q386,768 350,768 Q315,768 292.5,790 Q270,812 270,845 Q270,878 292.5,900.5 Q315,923 350,923 M345,706 Q458,706 547,633 L480,555 Q419,604 352,604 Q275,604 228.5,542 Q182,480 182,347 Q182,217 228,154 Q274,91 352,91 Q418,91 493,147 L555,69 Q473,-15 347,-15 Q209,-15 126,80 Q43,175 43,347 Q43,516 128,611 Q213,706 345,706"/> 
            <glyph glyph-name="ċ" unicode="&#x10B;" horiz-adv-x="462" d=" M289,797 Q325,797 347.5,774.5 Q370,752 370,719 Q370,686 347.5,664 Q325,642 289,642 Q254,642 231.5,664 Q209,686 209,719 Q209,752 231.5,774.5 Q254,797 289,797 M290,544 Q390,544 462,482 L405,405 Q354,443 298,443 Q179,443 179,262 Q179,89 298,89 Q346,89 405,127 L462,46 Q387,-15 291,-15 Q176,-15 109.5,59 Q43,133 43,260 Q43,388 110,466 Q177,544 290,544"/> 
            <glyph glyph-name="Č" unicode="&#x10C;" horiz-adv-x="555" d=" M481,928 L530,872 L391,752 L311,752 L172,872 L221,928 L351,845 M345,706 Q458,706 547,633 L480,555 Q419,604 352,604 Q275,604 228.5,542 Q182,480 182,347 Q182,217 228,154 Q274,91 352,91 Q418,91 493,147 L555,69 Q473,-15 347,-15 Q209,-15 126,80 Q43,175 43,347 Q43,516 128,611 Q213,706 345,706"/> 
            <glyph glyph-name="č" unicode="&#x10D;" horiz-adv-x="469" d=" M420,800 L469,744 L330,619 L250,619 L111,744 L160,800 L290,712 M290,544 Q390,544 462,482 L405,405 Q354,443 298,443 Q179,443 179,262 Q179,89 298,89 Q346,89 405,127 L462,46 Q387,-15 291,-15 Q176,-15 109.5,59 Q43,133 43,260 Q43,388 110,466 Q177,544 290,544"/> 
            <glyph glyph-name="Ď" unicode="&#x10E;" horiz-adv-x="605" d=" M429,928 L478,872 L339,752 L259,752 L120,872 L169,928 L299,845 M251,691 Q310,691 358,683 Q406,675 453.5,652.5 Q501,630 533,593 Q565,556 585,494 Q605,432 605,349 Q605,249 576.5,177.5 Q548,106 498,69 Q448,32 392,16 Q336,0 269,0 L81,0 L81,691 M274,592 L213,592 L213,99 L278,99 Q320,99 351.5,110 Q383,121 410,147 Q437,173 451.5,224 Q466,275 466,349 Q466,424 451,474 Q436,524 407.5,549 Q379,574 348,583 Q317,592 274,592"/> 
            <glyph glyph-name="ď" unicode="&#x10F;" horiz-adv-x="688" d=" M394,487 L394,755 L522,741 L522,0 L409,0 L400,67 Q345,-15 249,-15 Q152,-15 100,60 Q48,135 48,264 Q48,388 106,466 Q164,544 261,544 Q337,544 394,487 M585,755 L688,741 L635,540 L564,551 M285,82 Q349,82 394,150 L394,392 Q348,448 293,448 Q242,448 212.5,402.5 Q183,357 183,265 Q183,82 285,82"/> 
            <glyph glyph-name="Đ" unicode="&#x110;" horiz-adv-x="618" d=" M264,691 Q323,691 371,683 Q419,675 466.5,652.5 Q514,630 546,593 Q578,556 598,494 Q618,432 618,349 Q618,249 589.5,177.5 Q561,106 511,69 Q461,32 405,16 Q349,0 282,0 L94,0 L94,310 L17,310 L17,396 L94,396 L94,691 M291,99 Q333,99 364.5,110 Q396,121 423,147 Q450,173 464.5,224 Q479,275 479,349 Q479,424 464,474 Q449,524 420.5,549 Q392,574 361,583 Q330,592 287,592 L226,592 L226,396 L371,396 L371,310 L226,310 L226,99"/> 
            <glyph glyph-name="đ" unicode="&#x111;" horiz-adv-x="592" d=" M522,683 L592,683 L592,601 L522,601 L522,0 L409,0 L400,67 Q345,-15 249,-15 Q152,-15 100,60 Q48,135 48,264 Q48,388 106,466 Q164,544 261,544 Q337,544 394,487 L394,601 L248,601 L248,683 L394,683 L394,755 L522,741 M285,82 Q349,82 394,150 L394,392 Q348,448 293,448 Q242,448 212.5,402.5 Q183,357 183,265 Q183,82 285,82"/> 
            <glyph glyph-name="Ē" unicode="&#x112;" horiz-adv-x="486" d=" M429,787 L138,787 L138,878 L429,878 M482,691 L468,593 L213,593 L213,400 L435,400 L435,302 L213,302 L213,99 L486,99 L486,0 L81,0 L81,691"/> 
            <glyph glyph-name="ē" unicode="&#x113;" horiz-adv-x="511" d=" M426,752 L426,661 L135,661 L135,752 M511,277 Q511,267 508,225 L176,225 Q188,82 306,82 Q370,82 438,129 L491,56 Q403,-15 295,-15 Q174,-15 108.5,59 Q43,133 43,261 Q43,385 105.5,464.5 Q168,544 278,544 Q389,544 450,473.5 Q511,403 511,277 M384,308 L384,314 Q384,453 281,453 Q186,453 176,308"/> 
            <glyph glyph-name="Ĕ" unicode="&#x114;" horiz-adv-x="486" d=" M283,754 Q215,754 171,795 Q127,836 121,898 L196,913 Q218,846 283,846 Q350,846 371,913 L447,898 Q441,836 396.5,795 Q352,754 283,754 M482,691 L468,593 L213,593 L213,400 L435,400 L435,302 L213,302 L213,99 L486,99 L486,0 L81,0 L81,691"/> 
            <glyph glyph-name="ĕ" unicode="&#x115;" horiz-adv-x="511" d=" M349,637 Q211,637 167.5,680 Q124,723 118,792 L193,806 Q213,729 280,729 Q349,729 368,806 L444,792 Q438,723 349,637 M511,277 Q511,267 508,225 L176,225 Q188,82 306,82 Q370,82 438,129 L491,56 Q403,-15 295,-15 Q174,-15 108.5,59 Q43,133 43,261 Q43,385 105.5,464.5 Q168,544 278,544 Q389,544 450,473.5 Q511,403 511,277 M384,308 L384,314 Q384,453 281,453 Q186,453 176,308"/> 
            <glyph glyph-name="Ė" unicode="&#x116;" horiz-adv-x="486" d=" M283,923 Q319,923 341.5,900.5 Q364,878 364,845 Q364,812 341.5,790 Q319,768 283,768 Q248,768 225.5,790 Q203,812 203,845 Q203,878 225.5,900.5 Q248,923 283,923 M482,691 L468,593 L213,593 L213,400 L435,400 L435,302 L213,302 L213,99 L486,99 L486,0 L81,0 L81,691"/> 
            <glyph glyph-name="ė" unicode="&#x117;" horiz-adv-x="511" d=" M280,642 Q245,642 222.5,664 Q200,686 200,719 Q200,752 222.5,774.5 Q245,797 280,797 Q316,797 338.5,774.5 Q361,752 361,719 Q361,686 338.5,664 Q316,642 280,642 M511,277 Q511,267 508,225 L176,225 Q188,82 306,82 Q370,82 438,129 L491,56 Q403,-15 295,-15 Q174,-15 108.5,59 Q43,133 43,261 Q43,385 105.5,464.5 Q168,544 278,544 Q389,544 450,473.5 Q511,403 511,277 M384,308 L384,314 Q384,453 281,453 Q186,453 176,308"/> 
            <glyph glyph-name="Ę" unicode="&#x118;" horiz-adv-x="486" d=" M213,99 L486,99 L486,0 L446,0 Q325,-48 325,-108 Q325,-154 380,-154 Q407,-154 441,-147 L431,-232 Q394,-239 364,-239 Q303,-239 265,-209 Q227,-179 227,-130 Q227,-50 317,0 L81,0 L81,691 L482,691 L468,593 L213,593 L213,400 L435,400 L435,302 L213,302"/> 
            <glyph glyph-name="ę" unicode="&#x119;" horiz-adv-x="511" d=" M511,277 Q511,267 508,225 L176,225 Q188,82 306,82 Q370,82 438,129 L491,56 Q441,16 386,-1 Q288,-46 288,-100 Q288,-146 342,-146 Q371,-146 403,-139 L393,-224 Q356,-231 326,-231 Q265,-231 227,-201 Q189,-171 189,-122 Q189,-54 263,-14 Q157,-4 100,69 Q43,142 43,261 Q43,385 105.5,464.5 Q168,544 278,544 Q389,544 450,473.5 Q511,403 511,277 M384,308 L384,314 Q384,453 281,453 Q186,453 176,308"/> 
            <glyph glyph-name="Ě" unicode="&#x11A;" horiz-adv-x="486" d=" M414,928 L463,872 L324,752 L244,752 L105,872 L154,928 L284,845 M482,691 L468,593 L213,593 L213,400 L435,400 L435,302 L213,302 L213,99 L486,99 L486,0 L81,0 L81,691"/> 
            <glyph glyph-name="ě" unicode="&#x11B;" horiz-adv-x="511" d=" M321,619 L241,619 L102,744 L151,800 L281,712 L411,800 L460,744 M511,277 Q511,267 508,225 L176,225 Q188,82 306,82 Q370,82 438,129 L491,56 Q403,-15 295,-15 Q174,-15 108.5,59 Q43,133 43,261 Q43,385 105.5,464.5 Q168,544 278,544 Q389,544 450,473.5 Q511,403 511,277 M384,308 L384,314 Q384,453 281,453 Q186,453 176,308"/> 
            <glyph glyph-name="Ĝ" unicode="&#x11C;" horiz-adv-x="586" d=" M222,757 L173,812 L312,933 L392,933 L531,812 L482,757 L352,839 M360,706 Q484,706 580,625 L509,551 Q439,606 364,606 Q284,606 233,542 Q182,478 182,346 Q182,208 222.5,147 Q263,86 346,86 Q409,86 456,113 L456,293 L352,293 L338,391 L586,391 L586,53 Q474,-15 348,-15 Q200,-15 121.5,77 Q43,169 43,346 Q43,515 133.5,610.5 Q224,706 360,706"/> 
            <glyph glyph-name="ĝ" unicode="&#x11D;" horiz-adv-x="537" d=" M138,627 L89,682 L227,808 L308,808 L447,682 L398,627 L268,715 M505,603 L537,501 Q486,483 384,483 Q480,440 480,347 Q480,268 422.5,218.5 Q365,169 267,169 Q231,169 204,177 Q182,162 182,138 Q182,101 246,101 L327,101 Q414,101 467,59 Q520,17 520,-49 Q520,-129 452,-173.5 Q384,-218 256,-218 Q121,-218 68,-177 Q15,-136 15,-52 L130,-52 Q130,-94 156,-111 Q182,-128 258,-128 Q331,-128 361,-110 Q391,-92 391,-58 Q391,-28 368,-11.5 Q345,5 301,5 L221,5 Q146,5 108,34 Q70,63 70,107 Q70,167 132,205 Q39,254 39,354 Q39,440 100,492 Q161,544 258,544 Q317,543 365,551.5 Q413,560 439,571 Q465,582 505,603 M260,457 Q217,457 192.5,429.5 Q168,402 168,356 Q168,308 193,280 Q218,252 262,252 Q308,252 332,279.5 Q356,307 356,357 Q356,457 260,457"/> 
            <glyph glyph-name="Ğ" unicode="&#x11E;" horiz-adv-x="586" d=" M352,754 Q284,754 240,795 Q196,836 190,898 L265,913 Q287,846 352,846 Q419,846 440,913 L516,898 Q510,836 465.5,795 Q421,754 352,754 M360,706 Q484,706 580,625 L509,551 Q439,606 364,606 Q284,606 233,542 Q182,478 182,346 Q182,208 222.5,147 Q263,86 346,86 Q409,86 456,113 L456,293 L352,293 L338,391 L586,391 L586,53 Q474,-15 348,-15 Q200,-15 121.5,77 Q43,169 43,346 Q43,515 133.5,610.5 Q224,706 360,706"/> 
            <glyph glyph-name="ğ" unicode="&#x11F;" horiz-adv-x="537" d=" M336,637 Q198,637 154.5,680 Q111,723 105,792 L180,806 Q200,729 267,729 Q336,729 355,806 L431,792 Q425,723 336,637 M505,603 L537,501 Q486,483 384,483 Q480,440 480,347 Q480,268 422.5,218.5 Q365,169 267,169 Q231,169 204,177 Q182,162 182,138 Q182,101 246,101 L327,101 Q414,101 467,59 Q520,17 520,-49 Q520,-129 452,-173.5 Q384,-218 256,-218 Q121,-218 68,-177 Q15,-136 15,-52 L130,-52 Q130,-94 156,-111 Q182,-128 258,-128 Q331,-128 361,-110 Q391,-92 391,-58 Q391,-28 368,-11.5 Q345,5 301,5 L221,5 Q146,5 108,34 Q70,63 70,107 Q70,167 132,205 Q39,254 39,354 Q39,440 100,492 Q161,544 258,544 Q317,543 365,551.5 Q413,560 439,571 Q465,582 505,603 M260,457 Q217,457 192.5,429.5 Q168,402 168,356 Q168,308 193,280 Q218,252 262,252 Q308,252 332,279.5 Q356,307 356,357 Q356,457 260,457"/> 
            <glyph glyph-name="Ġ" unicode="&#x120;" horiz-adv-x="586" d=" M352,923 Q388,923 410.5,900.5 Q433,878 433,845 Q433,812 410.5,790 Q388,768 352,768 Q317,768 294.5,790 Q272,812 272,845 Q272,878 294.5,900.5 Q317,923 352,923 M360,706 Q484,706 580,625 L509,551 Q439,606 364,606 Q284,606 233,542 Q182,478 182,346 Q182,208 222.5,147 Q263,86 346,86 Q409,86 456,113 L456,293 L352,293 L338,391 L586,391 L586,53 Q474,-15 348,-15 Q200,-15 121.5,77 Q43,169 43,346 Q43,515 133.5,610.5 Q224,706 360,706"/> 
            <glyph glyph-name="ġ" unicode="&#x121;" horiz-adv-x="537" d=" M267,797 Q303,797 325.5,774.5 Q348,752 348,719 Q348,686 325.5,664 Q303,642 267,642 Q232,642 209.5,664 Q187,686 187,719 Q187,752 209.5,774.5 Q232,797 267,797 M505,603 L537,501 Q486,483 384,483 Q480,440 480,347 Q480,268 422.5,218.5 Q365,169 267,169 Q231,169 204,177 Q182,162 182,138 Q182,101 246,101 L327,101 Q414,101 467,59 Q520,17 520,-49 Q520,-129 452,-173.5 Q384,-218 256,-218 Q121,-218 68,-177 Q15,-136 15,-52 L130,-52 Q130,-94 156,-111 Q182,-128 258,-128 Q331,-128 361,-110 Q391,-92 391,-58 Q391,-28 368,-11.5 Q345,5 301,5 L221,5 Q146,5 108,34 Q70,63 70,107 Q70,167 132,205 Q39,254 39,354 Q39,440 100,492 Q161,544 258,544 Q317,543 365,551.5 Q413,560 439,571 Q465,582 505,603 M260,457 Q217,457 192.5,429.5 Q168,402 168,356 Q168,308 193,280 Q218,252 262,252 Q308,252 332,279.5 Q356,307 356,357 Q356,457 260,457"/> 
            <glyph glyph-name="Ģ" unicode="&#x122;" horiz-adv-x="586" d=" M360,706 Q484,706 580,625 L509,551 Q439,606 364,606 Q284,606 233,542 Q182,478 182,346 Q182,208 222.5,147 Q263,86 346,86 Q409,86 456,113 L456,293 L352,293 L338,391 L586,391 L586,53 Q474,-15 348,-15 Q200,-15 121.5,77 Q43,169 43,346 Q43,515 133.5,610.5 Q224,706 360,706 M347,-72 Q376,-72 396,-91.5 Q416,-111 416,-140 Q416,-166 389,-221 L345,-312 L278,-312 L306,-196 Q277,-174 277,-140 Q277,-111 297,-91.5 Q317,-72 347,-72"/> 
            <glyph glyph-name="ģ" unicode="&#x123;" horiz-adv-x="537" d=" M267,580 Q238,580 218,599.5 Q198,619 198,648 Q198,674 225,729 L269,820 L336,820 L308,704 Q337,682 337,648 Q337,619 317,599.5 Q297,580 267,580 M505,603 L537,501 Q486,483 384,483 Q480,440 480,347 Q480,268 422.5,218.5 Q365,169 267,169 Q231,169 204,177 Q182,162 182,138 Q182,101 246,101 L327,101 Q414,101 467,59 Q520,17 520,-49 Q520,-129 452,-173.5 Q384,-218 256,-218 Q121,-218 68,-177 Q15,-136 15,-52 L130,-52 Q130,-94 156,-111 Q182,-128 258,-128 Q331,-128 361,-110 Q391,-92 391,-58 Q391,-28 368,-11.5 Q345,5 301,5 L221,5 Q146,5 108,34 Q70,63 70,107 Q70,167 132,205 Q39,254 39,354 Q39,440 100,492 Q161,544 258,544 Q317,543 365,551.5 Q413,560 439,571 Q465,582 505,603 M260,457 Q217,457 192.5,429.5 Q168,402 168,356 Q168,308 193,280 Q218,252 262,252 Q308,252 332,279.5 Q356,307 356,357 Q356,457 260,457"/> 
            <glyph glyph-name="Ĥ" unicode="&#x124;" horiz-adv-x="592" d=" M205,757 L156,812 L295,933 L375,933 L514,812 L465,757 L335,839 M459,0 L459,309 L213,309 L213,0 L81,0 L81,691 L213,691 L213,414 L459,414 L459,691 L592,691 L592,0"/> 
            <glyph glyph-name="ĥ" unicode="&#x125;" horiz-adv-x="509" d=" M289,889 L159,807 L110,862 L249,983 L329,983 L468,862 L419,807 M359,544 Q429,544 469,501 Q509,458 509,383 L509,0 L381,0 L381,363 Q381,410 364.5,429 Q348,448 316,448 Q256,448 205,369 L205,0 L77,0 L77,740 L205,753 L205,466 Q269,544 359,544"/> 
            <glyph glyph-name="Ħ" unicode="&#x126;" horiz-adv-x="659" d=" M659,585 L659,504 L597,504 L597,0 L464,0 L464,309 L218,309 L218,0 L86,0 L86,504 L23,504 L23,585 L86,585 L86,691 L218,691 L218,585 L464,585 L464,691 L597,691 L597,585 M464,414 L464,504 L218,504 L218,414"/> 
            <glyph glyph-name="ħ" unicode="&#x127;" horiz-adv-x="516" d=" M366,544 Q436,544 476,501 Q516,458 516,383 L516,0 L388,0 L388,363 Q388,410 371.5,429 Q355,448 323,448 Q263,448 212,369 L212,0 L84,0 L84,601 L15,601 L15,683 L84,683 L84,740 L212,753 L212,683 L352,683 L352,601 L212,601 L212,466 Q276,544 366,544"/> 
            <glyph glyph-name="Ĩ" unicode="&#x128;" horiz-adv-x="325" d=" M205,770 Q174,770 139,793.5 Q104,817 90,817 Q73,817 61.5,806.5 Q50,796 37,772 L-32,806 Q12,910 88,910 Q120,910 155,887 Q190,864 204,864 Q230,864 257,907 L325,873 Q282,770 205,770 M213,691 L213,0 L81,0 L81,691"/> 
            <glyph glyph-name="ĩ" unicode="&#x129;" horiz-adv-x="319" d=" M199,644 Q168,644 133,667.5 Q98,691 84,691 Q67,691 55.5,680.5 Q44,670 31,646 L-38,680 Q6,784 82,784 Q114,784 149,761 Q184,738 198,738 Q224,738 251,781 L319,747 Q276,644 199,644 M205,529 L205,0 L77,0 L77,529"/> 
            <glyph glyph-name="Ī" unicode="&#x12A;" horiz-adv-x="292" d=" M292,787 L1,787 L1,878 L292,878 M213,691 L213,0 L81,0 L81,691"/> 
            <glyph glyph-name="ī" unicode="&#x12B;" horiz-adv-x="286" d=" M286,661 L-5,661 L-5,752 L286,752 M205,529 L205,0 L77,0 L77,529"/> 
            <glyph glyph-name="Ĭ" unicode="&#x12C;" horiz-adv-x="310" d=" M146,754 Q78,754 34,795 Q-10,836 -16,898 L59,913 Q81,846 146,846 Q213,846 234,913 L310,898 Q304,836 259.5,795 Q215,754 146,754 M213,691 L213,0 L81,0 L81,691"/> 
            <glyph glyph-name="ĭ" unicode="&#x12D;" horiz-adv-x="304" d=" M209,637 Q71,637 27.5,680 Q-16,723 -22,792 L53,806 Q73,729 140,729 Q209,729 228,806 L304,792 Q298,723 209,637 M205,529 L205,0 L77,0 L77,529"/> 
            <glyph glyph-name="Į" unicode="&#x12E;" horiz-adv-x="213" d=" M81,691 L213,691 L213,0 L198,0 Q77,-48 77,-108 Q77,-154 132,-154 Q159,-154 193,-147 L183,-232 Q146,-239 116,-239 Q55,-239 17,-209 Q-21,-179 -21,-130 Q-21,-45 81,6"/> 
            <glyph glyph-name="į" unicode="&#x12F;" horiz-adv-x="221" d=" M140,642 Q105,642 82.5,664 Q60,686 60,719 Q60,752 82.5,774.5 Q105,797 140,797 Q176,797 198.5,774.5 Q221,752 221,719 Q221,686 198.5,664 Q176,642 140,642 M77,8 L77,529 L205,529 L205,0 L191,0 Q70,-48 70,-108 Q70,-154 125,-154 Q152,-154 186,-147 L176,-232 Q139,-239 109,-239 Q48,-239 10,-209 Q-28,-179 -28,-130 Q-28,-44 77,8"/> 
            <glyph glyph-name="İ" unicode="&#x130;" horiz-adv-x="227" d=" M146,923 Q182,923 204.5,900.5 Q227,878 227,845 Q227,812 204.5,790 Q182,768 146,768 Q111,768 88.5,790 Q66,812 66,845 Q66,878 88.5,900.5 Q111,923 146,923 M213,691 L213,0 L81,0 L81,691"/> 
            <glyph glyph-name="ı" unicode="&#x131;" horiz-adv-x="205" d=" M205,529 L205,0 L77,0 L77,529"/> 
            <glyph glyph-name="Ĳ" unicode="&#x132;" horiz-adv-x="529" d=" M213,691 L213,0 L81,0 L81,691 M529,691 L529,101 Q529,43 514,-1 Q499,-45 469.5,-74 Q440,-103 406.5,-121.5 Q373,-140 326,-155 L291,-60 Q355,-35 375.5,0.5 Q396,36 396,106 L396,691"/> 
            <glyph glyph-name="ĳ" unicode="&#x133;" horiz-adv-x="502" d=" M140,797 Q176,797 198.5,774.5 Q221,752 221,719 Q221,686 198.5,664 Q176,642 140,642 Q105,642 82.5,664 Q60,686 60,719 Q60,752 82.5,774.5 Q105,797 140,797 M421,797 Q457,797 479.5,774.5 Q502,752 502,719 Q502,686 479.5,664 Q457,642 421,642 Q386,642 363.5,664 Q341,686 341,719 Q341,752 363.5,774.5 Q386,797 421,797 M205,529 L205,0 L77,0 L77,529 M486,529 L486,47 Q486,-66 439.5,-121.5 Q393,-177 293,-217 L252,-124 Q310,-97 334,-65 Q358,-33 358,39 L358,529"/> 
            <glyph glyph-name="Ĵ" unicode="&#x134;" horiz-adv-x="347" d=" M38,757 L-11,812 L128,933 L208,933 L347,812 L298,757 L168,839 M235,691 L235,101 Q235,43 220,-1 Q205,-45 175.5,-74 Q146,-103 112.5,-121.5 Q79,-140 32,-155 L-3,-60 Q61,-35 81.5,0.5 Q102,36 102,106 L102,691"/> 
            <glyph glyph-name="ĵ" unicode="&#x135;" horiz-adv-x="319" d=" M10,627 L-39,682 L99,808 L180,808 L319,682 L270,627 L140,715 M204,529 L204,47 Q204,-66 157.5,-121.5 Q111,-177 11,-217 L-30,-124 Q28,-97 52,-65 Q76,-33 76,39 L76,529"/> 
            <glyph glyph-name="Ķ" unicode="&#x136;" horiz-adv-x="620" d=" M213,691 L213,0 L81,0 L81,691 M601,691 L362,378 L620,0 L463,0 L219,369 L458,691 M322,-72 Q351,-72 371,-91.5 Q391,-111 391,-140 Q391,-166 364,-221 L320,-312 L253,-312 L281,-196 Q252,-174 252,-140 Q252,-111 272,-91.5 Q292,-72 322,-72"/> 
            <glyph glyph-name="ķ" unicode="&#x137;" horiz-adv-x="539" d=" M205,755 L205,0 L77,0 L77,741 M522,529 L346,296 L539,0 L392,0 L210,289 L387,529 M268,-72 Q297,-72 317,-91.5 Q337,-111 337,-140 Q337,-166 310,-221 L266,-312 L199,-312 L227,-196 Q198,-174 198,-140 Q198,-111 218,-91.5 Q238,-72 268,-72"/> 
            <glyph glyph-name="ĸ" unicode="&#x138;" horiz-adv-x="537" d=" M205,529 L205,0 L77,0 L77,529 M520,529 L344,286 L537,0 L390,0 L208,279 L385,529"/> 
            <glyph glyph-name="Ĺ" unicode="&#x139;" horiz-adv-x="490" d=" M228,936 L278,836 L49,753 L16,819 M213,691 L213,108 L490,108 L475,0 L81,0 L81,691"/> 
            <glyph glyph-name="ĺ" unicode="&#x13A;" horiz-adv-x="287" d=" M217,986 L267,886 L38,803 L5,869 M202,-15 Q141,-15 106.5,20.5 Q72,56 72,121 L72,741 L200,755 L200,125 Q200,88 230,88 Q245,88 260,93 L287,3 Q247,-15 202,-15"/> 
            <glyph glyph-name="Ļ" unicode="&#x13B;" horiz-adv-x="490" d=" M213,691 L213,108 L490,108 L475,0 L81,0 L81,691 M280,-72 Q309,-72 329,-91.5 Q349,-111 349,-140 Q349,-166 322,-221 L278,-312 L211,-312 L239,-196 Q210,-174 210,-140 Q210,-111 230,-91.5 Q250,-72 280,-72"/> 
            <glyph glyph-name="ļ" unicode="&#x13C;" horiz-adv-x="287" d=" M202,-15 Q141,-15 106.5,20.5 Q72,56 72,121 L72,741 L200,755 L200,125 Q200,88 230,88 Q245,88 260,93 L287,3 Q247,-15 202,-15 M183,-72 Q212,-72 232,-91.5 Q252,-111 252,-140 Q252,-166 225,-221 L181,-312 L114,-312 L142,-196 Q113,-174 113,-140 Q113,-111 133,-91.5 Q153,-72 183,-72"/> 
            <glyph glyph-name="Ľ" unicode="&#x13D;" horiz-adv-x="490" d=" M333,490 L386,691 L283,705 L262,501 M213,691 L213,108 L490,108 L475,0 L81,0 L81,691"/> 
            <glyph glyph-name="ľ" unicode="&#x13E;" horiz-adv-x="367" d=" M202,-15 Q141,-15 106.5,20.5 Q72,56 72,121 L72,741 L200,755 L200,125 Q200,88 230,88 Q245,88 260,93 L287,3 Q247,-15 202,-15 M314,540 L367,741 L264,755 L243,551"/> 
            <glyph glyph-name="Ŀ" unicode="&#x13F;" horiz-adv-x="490" d=" M213,691 L213,108 L490,108 L475,0 L81,0 L81,691 M395,472 Q431,472 453.5,449.5 Q476,427 476,394 Q476,361 453.5,339 Q431,317 395,317 Q360,317 337.5,339 Q315,361 315,394 Q315,427 337.5,449.5 Q360,472 395,472"/> 
            <glyph glyph-name="ŀ" unicode="&#x140;" horiz-adv-x="410" d=" M202,-15 Q141,-15 106.5,20.5 Q72,56 72,121 L72,741 L200,755 L200,125 Q200,88 230,88 Q245,88 260,93 L287,3 Q247,-15 202,-15 M329,455 Q365,455 387.5,432.5 Q410,410 410,377 Q410,344 387.5,322 Q365,300 329,300 Q294,300 271.5,322 Q249,344 249,377 Q249,410 271.5,432.5 Q294,455 329,455"/> 
            <glyph glyph-name="Ł" unicode="&#x141;" horiz-adv-x="519" d=" M242,108 L519,108 L504,0 L110,0 L110,239 L61,209 L15,284 L110,342 L110,691 L242,691 L242,424 L385,513 L431,438 L242,321"/> 
            <glyph glyph-name="ł" unicode="&#x142;" horiz-adv-x="339" d=" M248,88 Q263,88 278,93 L305,3 Q265,-15 220,-15 Q159,-15 124.5,20.5 Q90,56 90,121 L90,283 L44,255 L0,328 L90,385 L90,741 L218,755 L218,462 L296,509 L339,435 L218,361 L218,125 Q218,88 248,88"/> 
            <glyph glyph-name="Ń" unicode="&#x143;" horiz-adv-x="591" d=" M425,936 L475,836 L246,753 L213,819 M591,691 L591,0 L420,0 L183,559 Q201,402 201,282 L201,0 L81,0 L81,691 L248,691 L489,131 Q471,245 471,367 L471,691"/> 
            <glyph glyph-name="ń" unicode="&#x144;" horiz-adv-x="509" d=" M424,720 L198,630 L162,695 L372,820 M359,544 Q430,544 469.5,501.5 Q509,459 509,383 L509,0 L381,0 L381,363 Q381,410 364.5,429 Q348,448 316,448 Q256,448 205,368 L205,0 L77,0 L77,529 L188,529 L198,460 Q263,544 359,544"/> 
            <glyph glyph-name="Ņ" unicode="&#x145;" horiz-adv-x="591" d=" M591,691 L591,0 L420,0 L183,559 Q201,402 201,282 L201,0 L81,0 L81,691 L248,691 L489,131 Q471,245 471,367 L471,691 M339,-72 Q368,-72 388,-91.5 Q408,-111 408,-140 Q408,-166 381,-221 L337,-312 L270,-312 L298,-196 Q269,-174 269,-140 Q269,-111 289,-91.5 Q309,-72 339,-72"/> 
            <glyph glyph-name="ņ" unicode="&#x146;" horiz-adv-x="509" d=" M359,544 Q430,544 469.5,501.5 Q509,459 509,383 L509,0 L381,0 L381,363 Q381,410 364.5,429 Q348,448 316,448 Q256,448 205,368 L205,0 L77,0 L77,529 L188,529 L198,460 Q263,544 359,544 M293,-72 Q322,-72 342,-91.5 Q362,-111 362,-140 Q362,-166 335,-221 L291,-312 L224,-312 L252,-196 Q223,-174 223,-140 Q223,-111 243,-91.5 Q263,-72 293,-72"/> 
            <glyph glyph-name="Ň" unicode="&#x147;" horiz-adv-x="591" d=" M474,928 L523,872 L384,752 L304,752 L165,872 L214,928 L344,845 M591,691 L591,0 L420,0 L183,559 Q201,402 201,282 L201,0 L81,0 L81,691 L248,691 L489,131 Q471,245 471,367 L471,691"/> 
            <glyph glyph-name="ň" unicode="&#x148;" horiz-adv-x="509" d=" M336,619 L256,619 L117,744 L166,800 L296,712 L426,800 L475,744 M359,544 Q430,544 469.5,501.5 Q509,459 509,383 L509,0 L381,0 L381,363 Q381,410 364.5,429 Q348,448 316,448 Q256,448 205,368 L205,0 L77,0 L77,529 L188,529 L198,460 Q263,544 359,544"/> 
            <glyph glyph-name="ŉ" unicode="&#x149;" horiz-adv-x="626" d=" M76,757 Q130,757 148,739 Q166,721 166,694 Q166,669 141,618 L100,534 L39,534 L65,642 Q38,665 38,694 Q38,720 76,757 M476,544 Q547,544 586.5,501.5 Q626,459 626,383 L626,0 L498,0 L498,363 Q498,410 481.5,429 Q465,448 433,448 Q373,448 322,368 L322,0 L194,0 L194,529 L305,529 L315,460 Q380,544 476,544"/> 
            <glyph glyph-name="Ŋ" unicode="&#x14A;" horiz-adv-x="591" d=" M471,691 L591,691 L591,-43 Q591,-129 543.5,-173.5 Q496,-218 413,-218 Q338,-218 284,-177 L330,-97 Q367,-118 401,-118 Q459,-118 459,-51 L459,0 L420,0 L183,559 Q201,402 201,282 L201,0 L81,0 L81,691 L248,691 L489,131 Q471,245 471,367"/> 
            <glyph glyph-name="ŋ" unicode="&#x14B;" horiz-adv-x="509" d=" M359,544 Q430,544 469.5,501.5 Q509,459 509,383 L509,-43 Q509,-128 461.5,-173 Q414,-218 333,-218 Q256,-218 204,-177 L249,-101 Q287,-121 321,-121 Q381,-121 381,-54 L381,363 Q381,410 364.5,429 Q348,448 316,448 Q256,448 205,368 L205,0 L77,0 L77,529 L188,529 L198,460 Q263,544 359,544"/> 
            <glyph glyph-name="Ō" unicode="&#x14C;" horiz-adv-x="648" d=" M491,787 L200,787 L200,878 L491,878 M206,706 Q486,706 567,611.5 Q648,517 648,346 Q648,176 567,80.5 Q486,-15 346,-15 Q206,-15 124.5,79.5 Q43,174 43,345 Q43,514 206,706 M346,605 Q182,605 182,345 Q182,86 346,86 Q509,86 509,346 Q509,481 467.5,543 Q426,605 346,605"/> 
            <glyph glyph-name="ō" unicode="&#x14D;" horiz-adv-x="541" d=" M437,661 L146,661 L146,752 L437,752 M293,544 Q410,544 475.5,469.5 Q541,395 541,265 Q541,138 474.5,61.5 Q408,-15 292,-15 Q175,-15 109,59.5 Q43,134 43,265 Q43,391 110,467.5 Q177,544 293,544 M293,447 Q178,447 178,265 Q178,82 292,82 Q406,82 406,265 Q406,447 293,447"/> 
            <glyph glyph-name="Ŏ" unicode="&#x14E;" horiz-adv-x="648" d=" M345,754 Q277,754 233,795 Q189,836 183,898 L258,913 Q280,846 345,846 Q412,846 433,913 L509,898 Q503,836 458.5,795 Q414,754 345,754 M206,706 Q486,706 567,611.5 Q648,517 648,346 Q648,176 567,80.5 Q486,-15 346,-15 Q206,-15 124.5,79.5 Q43,174 43,345 Q43,514 206,706 M346,605 Q182,605 182,345 Q182,86 346,86 Q509,86 509,346 Q509,481 467.5,543 Q426,605 346,605"/> 
            <glyph glyph-name="ŏ" unicode="&#x14F;" horiz-adv-x="541" d=" M360,637 Q222,637 178.5,680 Q135,723 129,792 L204,806 Q224,729 291,729 Q360,729 379,806 L455,792 Q449,723 360,637 M293,544 Q410,544 475.5,469.5 Q541,395 541,265 Q541,138 474.5,61.5 Q408,-15 292,-15 Q175,-15 109,59.5 Q43,134 43,265 Q43,391 110,467.5 Q177,544 293,544 M293,447 Q178,447 178,265 Q178,82 292,82 Q406,82 406,265 Q406,447 293,447"/> 
            <glyph glyph-name="Ő" unicode="&#x150;" horiz-adv-x="648" d=" M305,973 L399,927 L294,760 L222,790 M470,973 L563,925 L448,755 L378,787 M206,706 Q486,706 567,611.5 Q648,517 648,346 Q648,176 567,80.5 Q486,-15 346,-15 Q206,-15 124.5,79.5 Q43,174 43,345 Q43,514 206,706 M346,605 Q182,605 182,345 Q182,86 346,86 Q509,86 509,346 Q509,481 467.5,543 Q426,605 346,605"/> 
            <glyph glyph-name="ő" unicode="&#x151;" horiz-adv-x="541" d=" M252,847 L346,801 L241,634 L169,664 M417,847 L510,799 L395,629 L325,661 M293,544 Q410,544 475.5,469.5 Q541,395 541,265 Q541,138 474.5,61.5 Q408,-15 292,-15 Q175,-15 109,59.5 Q43,134 43,265 Q43,391 110,467.5 Q177,544 293,544 M293,447 Q178,447 178,265 Q178,82 292,82 Q406,82 406,265 Q406,447 293,447"/> 
            <glyph glyph-name="Œ" unicode="&#x152;" horiz-adv-x="857" d=" M857,99 L857,0 L416,0 Q377,-15 331,-15 Q201,-15 122,80 Q43,175 43,345 Q43,513 122,609.5 Q201,706 331,706 Q380,706 420,691 L854,691 L839,593 L551,593 Q614,519 625,400 L807,400 L807,302 L626,302 Q615,177 546,99 M182,345 Q182,211 223,148.5 Q264,86 336,86 Q489,86 489,346 Q489,605 336,605 Q182,605 182,345"/> 
            <glyph glyph-name="œ" unicode="&#x153;" horiz-adv-x="873" d=" M873,277 Q873,267 870,225 L539,225 Q551,82 668,82 Q732,82 800,129 L853,56 Q765,-15 657,-15 Q535,-15 472,77 Q407,-15 292,-15 Q175,-15 109,59.5 Q43,134 43,265 Q43,391 109.5,467.5 Q176,544 292,544 Q409,544 473,455 Q536,544 644,544 Q752,544 812.5,473 Q873,402 873,277 M747,308 L747,314 Q745,453 647,453 Q598,453 571,419 Q544,385 538,308 M178,82 Q406,82 406,265 Q406,447 292,447 Q178,447 178,265"/> 
            <glyph glyph-name="Ŕ" unicode="&#x154;" horiz-adv-x="602" d=" M431,836 L202,753 L169,819 L381,936 M450,0 L297,277 L213,277 L213,0 L81,0 L81,691 L287,691 Q561,691 561,488 Q561,419 527,374 Q493,329 421,301 L602,0 M213,595 L213,372 L295,372 Q423,372 423,488 Q423,544 389.5,569.5 Q356,595 284,595"/> 
            <glyph glyph-name="ŕ" unicode="&#x155;" horiz-adv-x="391" d=" M364,720 L138,630 L102,695 L312,820 M338,543 Q367,543 391,536 L369,412 Q345,418 322,418 Q275,418 248,384.5 Q221,351 205,282 L205,0 L77,0 L77,529 L188,529 L200,425 Q219,482 255,512.5 Q291,543 338,543"/> 
            <glyph glyph-name="Ŗ" unicode="&#x156;" horiz-adv-x="602" d=" M421,301 L602,0 L450,0 L297,277 L213,277 L213,0 L81,0 L81,691 L287,691 Q561,691 561,488 Q561,419 527,374 Q493,329 421,301 M213,595 L213,372 L295,372 Q423,372 423,488 Q423,544 389.5,569.5 Q356,595 284,595 M312,-72 Q341,-72 361,-91.5 Q381,-111 381,-140 Q381,-166 354,-221 L310,-312 L243,-312 L271,-196 Q242,-174 242,-140 Q242,-111 262,-91.5 Q282,-72 312,-72"/> 
            <glyph glyph-name="ŗ" unicode="&#x157;" horiz-adv-x="391" d=" M338,543 Q367,543 391,536 L369,412 Q345,418 322,418 Q275,418 248,384.5 Q221,351 205,282 L205,0 L77,0 L77,529 L188,529 L200,425 Q219,482 255,512.5 Q291,543 338,543 M143,-72 Q172,-72 192,-91.5 Q212,-111 212,-140 Q212,-166 185,-221 L141,-312 L74,-312 L102,-196 Q73,-174 73,-140 Q73,-111 93,-91.5 Q113,-72 143,-72"/> 
            <glyph glyph-name="Ř" unicode="&#x158;" horiz-adv-x="602" d=" M340,752 L260,752 L121,872 L170,928 L300,845 L430,928 L479,872 M450,0 L297,277 L213,277 L213,0 L81,0 L81,691 L287,691 Q561,691 561,488 Q561,419 527,374 Q493,329 421,301 L602,0 M213,595 L213,372 L295,372 Q423,372 423,488 Q423,544 389.5,569.5 Q356,595 284,595"/> 
            <glyph glyph-name="ř" unicode="&#x159;" horiz-adv-x="415" d=" M276,619 L196,619 L57,744 L106,800 L236,712 L366,800 L415,744 M200,425 Q219,482 255,512.5 Q291,543 338,543 Q367,543 391,536 L369,412 Q345,418 322,418 Q275,418 248,384.5 Q221,351 205,282 L205,0 L77,0 L77,529 L188,529"/> 
            <glyph glyph-name="Ś" unicode="&#x15A;" horiz-adv-x="528" d=" M368,936 L418,836 L189,753 L156,819 M280,706 Q415,706 508,621 L443,546 Q371,605 288,605 Q240,605 210.5,583.5 Q181,562 181,523 Q181,485 209,463.5 Q237,442 323,415 Q425,383 476.5,335.5 Q528,288 528,197 Q528,102 458,43.5 Q388,-15 266,-15 Q114,-15 17,80 L85,156 Q167,87 263,87 Q320,87 355,114 Q390,141 390,190 Q390,234 362,258 Q334,282 253,307 Q143,341 94,389 Q45,437 45,515 Q45,600 111,653 Q177,706 280,706"/> 
            <glyph glyph-name="ś" unicode="&#x15B;" horiz-adv-x="449" d=" M323,820 L375,720 L149,630 L113,695 M244,544 Q351,544 432,481 L382,406 Q314,449 249,449 Q211,449 190,434.5 Q169,420 169,396 Q169,369 191,354 Q213,339 280,320 Q366,297 407.5,259 Q449,221 449,153 Q449,74 385,29.5 Q321,-15 226,-15 Q99,-15 15,60 L79,132 Q148,80 223,80 Q266,80 291.5,97 Q317,114 317,144 Q317,177 294.5,193 Q272,209 197,230 Q40,273 40,390 Q40,457 96.5,500.5 Q153,544 244,544"/> 
            <glyph glyph-name="Ŝ" unicode="&#x15C;" horiz-adv-x="528" d=" M156,757 L107,812 L246,933 L326,933 L465,812 L416,757 L286,839 M280,706 Q415,706 508,621 L443,546 Q371,605 288,605 Q240,605 210.5,583.5 Q181,562 181,523 Q181,485 209,463.5 Q237,442 323,415 Q425,383 476.5,335.5 Q528,288 528,197 Q528,102 458,43.5 Q388,-15 266,-15 Q114,-15 17,80 L85,156 Q167,87 263,87 Q320,87 355,114 Q390,141 390,190 Q390,234 362,258 Q334,282 253,307 Q143,341 94,389 Q45,437 45,515 Q45,600 111,653 Q177,706 280,706"/> 
            <glyph glyph-name="ŝ" unicode="&#x15D;" horiz-adv-x="449" d=" M117,627 L68,682 L206,808 L287,808 L426,682 L377,627 L247,715 M244,544 Q351,544 432,481 L382,406 Q314,449 249,449 Q211,449 190,434.5 Q169,420 169,396 Q169,369 191,354 Q213,339 280,320 Q366,297 407.5,259 Q449,221 449,153 Q449,74 385,29.5 Q321,-15 226,-15 Q99,-15 15,60 L79,132 Q148,80 223,80 Q266,80 291.5,97 Q317,114 317,144 Q317,177 294.5,193 Q272,209 197,230 Q40,273 40,390 Q40,457 96.5,500.5 Q153,544 244,544"/> 
            <glyph glyph-name="Ş" unicode="&#x15E;" horiz-adv-x="528" d=" M528,197 Q528,112 470.5,55 Q413,-2 312,-13 L312,-52 Q411,-62 411,-144 Q411,-194 373,-223.5 Q335,-253 274,-253 Q211,-253 171,-225 L202,-162 Q232,-178 265,-178 Q314,-178 314,-144 Q314,-106 223,-106 L234,-14 Q103,-4 17,80 L85,156 Q167,87 263,87 Q320,87 355,114 Q390,141 390,190 Q390,234 362,258 Q334,282 253,307 Q143,341 94,389 Q45,437 45,515 Q45,600 111,653 Q177,706 280,706 Q415,706 508,621 L443,546 Q371,605 288,605 Q240,605 210.5,583.5 Q181,562 181,523 Q181,485 209,463.5 Q237,442 323,415 Q425,383 476.5,335.5 Q528,288 528,197"/> 
            <glyph glyph-name="ş" unicode="&#x15F;" horiz-adv-x="449" d=" M449,153 Q449,84 400.5,41.5 Q352,-1 274,-12 L274,-52 Q373,-62 373,-144 Q373,-194 335,-223.5 Q297,-253 236,-253 Q173,-253 133,-225 L164,-162 Q194,-178 227,-178 Q276,-178 276,-144 Q276,-106 185,-106 L196,-14 Q89,-6 15,60 L79,132 Q148,80 223,80 Q266,80 291.5,97 Q317,114 317,144 Q317,177 294.5,193 Q272,209 197,230 Q40,273 40,390 Q40,457 96.5,500.5 Q153,544 244,544 Q351,544 432,481 L382,406 Q314,449 249,449 Q211,449 190,434.5 Q169,420 169,396 Q169,369 191,354 Q213,339 280,320 Q366,297 407.5,259 Q449,221 449,153"/> 
            <glyph glyph-name="Š" unicode="&#x160;" horiz-adv-x="528" d=" M417,928 L466,872 L327,752 L247,752 L108,872 L157,928 L287,845 M280,706 Q415,706 508,621 L443,546 Q371,605 288,605 Q240,605 210.5,583.5 Q181,562 181,523 Q181,485 209,463.5 Q237,442 323,415 Q425,383 476.5,335.5 Q528,288 528,197 Q528,102 458,43.5 Q388,-15 266,-15 Q114,-15 17,80 L85,156 Q167,87 263,87 Q320,87 355,114 Q390,141 390,190 Q390,234 362,258 Q334,282 253,307 Q143,341 94,389 Q45,437 45,515 Q45,600 111,653 Q177,706 280,706"/> 
            <glyph glyph-name="š" unicode="&#x161;" horiz-adv-x="449" d=" M377,800 L426,744 L287,619 L207,619 L68,744 L117,800 L247,712 M244,544 Q351,544 432,481 L382,406 Q314,449 249,449 Q211,449 190,434.5 Q169,420 169,396 Q169,369 191,354 Q213,339 280,320 Q366,297 407.5,259 Q449,221 449,153 Q449,74 385,29.5 Q321,-15 226,-15 Q99,-15 15,60 L79,132 Q148,80 223,80 Q266,80 291.5,97 Q317,114 317,144 Q317,177 294.5,193 Q272,209 197,230 Q40,273 40,390 Q40,457 96.5,500.5 Q153,544 244,544"/> 
            <glyph glyph-name="Ţ" unicode="&#x162;" horiz-adv-x="525" d=" M331,-52 Q382,-57 407,-81.5 Q432,-106 432,-144 Q432,-194 393,-223.5 Q354,-253 292,-253 Q230,-253 192,-225 L223,-162 Q253,-178 283,-178 Q335,-178 335,-143 Q335,-106 244,-106 L257,0 L198,0 L198,586 L12,586 L12,691 L525,691 L511,586 L331,586"/> 
            <glyph glyph-name="ţ" unicode="&#x163;" horiz-adv-x="380" d=" M269,-52 Q368,-62 368,-144 Q368,-194 330,-223.5 Q292,-253 231,-253 Q168,-253 128,-225 L159,-162 Q189,-178 222,-178 Q271,-178 271,-144 Q271,-106 180,-106 L192,-8 Q88,21 88,158 L88,437 L5,437 L5,529 L88,529 L88,646 L216,661 L216,529 L339,529 L326,437 L216,437 L216,161 Q216,122 229.5,105 Q243,88 272,88 Q301,88 335,107 L380,25 Q332,-9 269,-14"/> 
            <glyph glyph-name="Ť" unicode="&#x164;" horiz-adv-x="525" d=" M395,928 L444,872 L305,752 L225,752 L86,872 L135,928 L265,845 M525,691 L511,586 L331,586 L331,0 L198,0 L198,586 L12,586 L12,691"/> 
            <glyph glyph-name="ť" unicode="&#x165;" horiz-adv-x="380" d=" M367,765 L314,564 L243,575 L264,779 M335,107 L380,25 Q324,-15 247,-15 Q88,-13 88,158 L88,437 L5,437 L5,529 L88,529 L88,646 L216,661 L216,529 L339,529 L326,437 L216,437 L216,161 Q216,122 229.5,105 Q243,88 272,88 Q301,88 335,107"/> 
            <glyph glyph-name="Ŧ" unicode="&#x166;" horiz-adv-x="525" d=" M511,585 L331,585 L331,388 L451,388 L451,306 L331,306 L331,-1 L198,-1 L198,306 L80,306 L80,388 L198,388 L198,585 L12,585 L12,690 L525,690"/> 
            <glyph glyph-name="ŧ" unicode="&#x167;" horiz-adv-x="380" d=" M335,107 L380,25 Q324,-15 247,-15 Q88,-13 88,158 L88,270 L15,270 L15,359 L88,359 L88,437 L5,437 L5,529 L88,529 L88,646 L216,661 L216,529 L339,529 L326,437 L216,437 L216,359 L322,359 L322,270 L216,270 L216,161 Q216,122 229.5,105 Q243,88 272,88 Q301,88 335,107"/> 
            <glyph glyph-name="Ũ" unicode="&#x168;" horiz-adv-x="585" d=" M386,770 Q355,770 320,793.5 Q285,817 271,817 Q254,817 242.5,806.5 Q231,796 218,772 L149,806 Q193,910 269,910 Q302,910 336,887 Q370,864 385,864 Q411,864 438,907 L506,873 Q463,770 386,770 M585,691 L585,226 Q585,118 517.5,51.5 Q450,-15 327,-15 Q203,-15 137,50.5 Q71,116 71,226 L71,691 L203,691 L203,233 Q203,88 327,88 Q452,88 452,233 L452,691"/> 
            <glyph glyph-name="ũ" unicode="&#x169;" horiz-adv-x="500" d=" M344,644 Q313,644 278,667.5 Q243,691 229,691 Q212,691 200.5,680.5 Q189,670 176,646 L107,680 Q151,784 227,784 Q260,784 294,761 Q328,738 343,738 Q369,738 396,781 L464,747 Q421,644 344,644 M500,529 L500,0 L389,0 L382,74 Q324,-15 220,-15 Q149,-15 110.5,28.5 Q72,72 72,149 L72,529 L200,529 L200,165 Q200,120 215.5,101 Q231,82 265,82 Q326,82 372,157 L372,529"/> 
            <glyph glyph-name="Ū" unicode="&#x16A;" horiz-adv-x="585" d=" M473,787 L182,787 L182,878 L473,878 M585,691 L585,226 Q585,118 517.5,51.5 Q450,-15 327,-15 Q203,-15 137,50.5 Q71,116 71,226 L71,691 L203,691 L203,233 Q203,88 327,88 Q452,88 452,233 L452,691"/> 
            <glyph glyph-name="ū" unicode="&#x16B;" horiz-adv-x="500" d=" M431,661 L140,661 L140,752 L431,752 M500,529 L500,0 L389,0 L382,74 Q324,-15 220,-15 Q149,-15 110.5,28.5 Q72,72 72,149 L72,529 L200,529 L200,165 Q200,120 215.5,101 Q231,82 265,82 Q326,82 372,157 L372,529"/> 
            <glyph glyph-name="Ŭ" unicode="&#x16C;" horiz-adv-x="585" d=" M327,754 Q259,754 215,795 Q171,836 165,898 L240,913 Q262,846 327,846 Q394,846 415,913 L491,898 Q485,836 440.5,795 Q396,754 327,754 M585,691 L585,226 Q585,118 517.5,51.5 Q450,-15 327,-15 Q203,-15 137,50.5 Q71,116 71,226 L71,691 L203,691 L203,233 Q203,88 327,88 Q452,88 452,233 L452,691"/> 
            <glyph glyph-name="ŭ" unicode="&#x16D;" horiz-adv-x="500" d=" M354,637 Q216,637 172.5,680 Q129,723 123,792 L198,806 Q218,729 285,729 Q354,729 373,806 L449,792 Q443,723 354,637 M500,529 L500,0 L389,0 L382,74 Q324,-15 220,-15 Q149,-15 110.5,28.5 Q72,72 72,149 L72,529 L200,529 L200,165 Q200,120 215.5,101 Q231,82 265,82 Q326,82 372,157 L372,529"/> 
            </font>
</defs>
</svg>
