<?xml version="1.0" standalone="no"?>
<!DOCTYPE svg PUBLIC "-//W3C//DTD SVG 1.1//EN" "http://www.w3.org/Graphics/SVG/1.1/DTD/svg11.dtd" >
<svg xmlns="http://www.w3.org/2000/svg" xmlns:xlink="http://www.w3.org/1999/xlink" version="1.1">
<metadata></metadata>
<defs>
<font id="tarnationregular" horiz-adv-x="1017" >
<font-face units-per-em="2048" ascent="1638" descent="-410" />
<missing-glyph horiz-adv-x="509" />
<glyph horiz-adv-x="0" />
<glyph unicode="&#xd;" horiz-adv-x="509" />
<glyph unicode=" "  horiz-adv-x="509" />
<glyph unicode="&#x09;" horiz-adv-x="509" />
<glyph unicode="&#xa0;" horiz-adv-x="509" />
<glyph unicode="!" horiz-adv-x="591" d="M23 1485q0 51 27.5 80.5t68.5 46t88 21.5t84 5t71.5 -2t63.5 -14t46 -37.5t17 -75.5q0 -229 -7 -457.5t-13 -457.5q-4 -147 -164 -148q-72 0 -111.5 27t-58.5 96q-14 47 -63 449q-49 395 -49 467zM100 180q0 41 18.5 73t48.5 53.5t66.5 32.5t73.5 11q98 0 157.5 -57 t59.5 -156q0 -182 -164 -182q-129 0 -194.5 60.5t-65.5 164.5z" />
<glyph unicode="&#x22;" horiz-adv-x="512" d="M23 1432q0 41 29.5 48t60.5 7q12 0 26.5 -1t28.5 -5t23.5 -13.5t9.5 -25.5q0 -70 -1 -135t-1 -133q0 -20 -10.5 -34t-32.5 -14h-68q-47 0 -49 43q-4 59 -10 132t-6 131zM283 1157v289q0 18 14 30.5t31 12.5q33 0 67 -6q43 -8 47 -74q-2 -31 -4 -68q-4 -33 -7 -77.5 t-7 -102.5q-4 -35 -22.5 -46t-53.5 -11q-27 0 -46 14.5t-19 38.5z" />
<glyph unicode="#" horiz-adv-x="1206" d="M23 551q0 18 6 33.5t26 17.5l219 12q10 0 11 9l30 229l-98 -4t-98 -2q-25 0 -36 8t-15.5 22.5t-4.5 30.5v37q0 10 1.5 21.5t11.5 19.5q8 8 46 12t81 6.5t82 2.5h53l29 192q4 23 6 46.5t8 45.5q8 29 22.5 54.5t51.5 19.5l94 -14q16 -4 28.5 -20.5t8.5 -43.5l-31 -233 q-4 -23 4 -32t35 -9l156 4q8 0 10 6l4 12l41 269q4 27 17.5 44t43.5 11l86 -15q20 -4 34.5 -22t10.5 -45l-26 -189q-2 -12 -4 -27.5t-2 -27.5q0 -2 1 -7t5 -5q12 0 40.5 1t56.5 -2t49.5 -14.5t21.5 -37.5v-39q0 -23 -15 -33q-12 -6 -35.5 -10t-49 -5t-50 -2t-37.5 -1l-8 -7 l-29 -231v-2q0 -6 9 -6h129q18 0 28.5 -10.5t13.5 -23.5t3 -30v-28q0 -6 -1 -17.5t-5 -15.5q-8 -8 -34 -12.5t-55.5 -5.5t-56 -2t-37.5 -1q-12 -2 -14 -12q-10 -66 -16.5 -133.5t-16.5 -132.5q-10 -57 -61 -55l-101 4q-51 4 -38 96l26 215q0 10 -10 10h-43q-27 0 -56.5 -1 t-56 -3t-37.5 -4q-8 -2 -8 -10l-35 -297q-4 -27 -21.5 -42.5t-43.5 -15.5h-72q-29 0 -47 8.5t-25.5 30t-1.5 64.5l29 242q0 14 -12 14q-41 0 -84 -4t-84 -4q-49 0 -53 32zM502 647q-4 -25 14 -24q47 0 91 2t91 2q8 0 9 6l32 211q2 14 -7 19t-19 5l-160 -10q-10 -2 -18.5 -6 t-10.5 -14z" />
<glyph unicode="$" horiz-adv-x="1120" d="M31 516q0 47 41 59q35 10 81 19.5t80 13.5q29 4 41 -18q14 -31 25.5 -54.5t25 -44t33 -40t54.5 -41.5q16 -10 30.5 -4t14.5 30l4 254q0 16 -8.5 21.5t-24.5 9.5q-154 35 -245 118t-91 232q0 61 20.5 113.5t55.5 95.5t82 77t102 58q18 8 29.5 18.5t11.5 34.5l-2 183 q0 14 9.5 22t21.5 8l233 11q12 0 22.5 -7.5t8.5 -23.5v-195q4 -37 51 -49q43 -10 94.5 -33.5t99.5 -56.5t87 -72.5t57 -78.5q23 -47 -18 -80q-14 -12 -32.5 -22.5t-39.5 -22.5q-23 -12 -38 -21.5t-29.5 -11.5t-30 4t-35.5 27q-12 12 -30.5 33.5t-40 43t-44 37t-43.5 15.5 q-10 0 -19 -5.5t-9 -15.5l8 -227q0 -31 35 -37q53 -10 108 -38t99.5 -74t73 -109.5t28.5 -143.5q0 -55 -22.5 -108t-59.5 -98.5t-82 -78t-90 -44.5q-41 -12 -41 -54q0 -182 -2 -192q-2 -33 -29 -33l-198 -8q-23 -2 -45.5 6t-24.5 37l-4 145q0 29 -25 33q-68 12 -132 44 t-116.5 80t-84 113.5t-31.5 145.5zM326 1075q0 -27 10 -53.5t26.5 -48t37 -34.5t40.5 -13q18 0 30.5 6t12.5 16l-6 248q0 10 -6 14t-10 4q-18 0 -42 -8t-44.5 -25.5t-34.5 -43t-14 -62.5zM635 420q0 -10 5 -12t13 -2q55 0 90 45t35 100q0 25 -13 51.5t-32.5 48t-41.5 35.5 t-38 14q-4 0 -10 -4t-6 -14z" />
<glyph unicode="%" horiz-adv-x="1556" d="M70 59q-57 51 2 115q76 86 175 196.5t209.5 234.5t225.5 253t224.5 251t207.5 230.5t172 192.5q31 35 67 39t64 -25l45 -43q27 -31 38 -52t8 -41.5t-19 -44.5t-47 -56q-70 -76 -222.5 -239t-388.5 -417q-281 -299 -427 -450.5t-158 -163.5q-33 -31 -68 -41t-63 18z M289 1403q0 117 66.5 187.5t185.5 70.5q61 0 115.5 -20.5t95.5 -58.5t64.5 -90t23.5 -114q0 -66 -23.5 -115t-62.5 -81.5t-90.5 -50t-108.5 -17.5t-105.5 22.5t-84 62.5t-56 92t-20.5 112zM426 1395q0 -27 11.5 -52.5t30.5 -45t45 -31t52 -11.5q137 0 137 156 q1 107 -149 107q-127 0 -127 -123zM784 221q0 281 271 281q68 0 129 -16.5t108 -52.5t75 -90t28 -128q0 -61 -20.5 -112.5t-56.5 -88.5t-87.5 -57t-112.5 -20t-121.5 19t-107.5 55t-76 89.5t-29 120.5zM938 225q0 -51 35 -91t88 -40q35 0 67.5 10.5t59 31t42 49t15.5 65.5 q0 59 -32.5 96t-92.5 37q-80 0 -131 -36t-51 -122z" />
<glyph unicode="&#x26;" horiz-adv-x="1431" d="M45 193q0 205 98.5 342t280.5 198q16 6 14 15.5t-16 13.5q-72 14 -133.5 40.5t-107.5 69.5t-72.5 102.5t-26.5 139.5q0 115 45 197t120 134t170 75.5t195 23.5q111 0 213.5 -29.5t180.5 -84.5q37 -27 26 -74l-31 -133q-8 -29 -30.5 -27t-44.5 12q-31 16 -97.5 41 t-158.5 25q-53 0 -101.5 -12.5t-84 -39t-57 -68.5t-21.5 -101q0 -72 49 -113t118.5 -61.5t145.5 -24.5t129 -4q31 0 48 -24.5t19 -57.5q0 -10 1.5 -38t1.5 -36q0 -41 -18.5 -56t-61.5 -15q-98 0 -187.5 -28t-157 -78t-108.5 -120.5t-41 -156.5q0 -61 28.5 -113.5t75 -91.5 t105.5 -60.5t121 -21.5q47 0 108.5 3t116.5 20.5t93 55.5t38 107q0 47 -53 51q-27 2 -75 6.5t-87 4.5q-37 0 -62.5 31.5t-25.5 66.5q0 8 2 27.5t4 41t5 41t3 27.5q4 43 21.5 67.5t66.5 24.5q63 0 326 -6q125 -4 175 -71.5t50 -169.5q0 -137 -52 -252t-146.5 -198 t-222.5 -130t-281 -47q-129 0 -244 33.5t-202 101.5t-137 168t-50 236z" />
<glyph unicode="'" horiz-adv-x="284" d="M41 1454v6q0 29 22.5 38t73.5 9q12 0 29.5 -1t34 -5t28 -13t11.5 -24l-2 -268q0 -20 -10.5 -33.5t-32.5 -13.5h-89q-45 0 -49 43z" />
<glyph unicode="(" horiz-adv-x="653" d="M25 721q0 254 110.5 432t333.5 297q20 10 35 10q29 0 45 -28l35 -68q12 -23 -2.5 -44.5t-38.5 -33.5q-74 -37 -138.5 -87t-112.5 -112.5t-75 -137.5t-27 -163q0 -104 27 -192t73 -162t110.5 -138.5t142.5 -123.5q16 -10 13 -23.5t-17 -23.5l-109 -76q-18 -14 -49 10 q-162 119 -259 289t-97 375z" />
<glyph unicode=")" horiz-adv-x="698" d="M27 37q-12 49 36 69q106 39 180 109t119.5 158t66 189.5t20.5 205.5q0 162 -68 281.5t-225 195.5q-35 16 -23 47l37 88q12 31 49 31q35 0 70 -20q342 -188 342 -660q0 -76 -14.5 -163t-43 -173t-70.5 -168t-98.5 -149.5t-128 -115.5t-155.5 -66q-8 -2 -23 -2 q-39 0 -51 49z" />
<glyph unicode="*" horiz-adv-x="1038" d="M25 952v86q0 8 9 24.5t36 20.5l239 43q20 4 26.5 8.5t6.5 26.5l-6 260q0 45 61 45l150 -2q51 0 55 -71l12 -215q2 -23 13.5 -32t25.5 -7l238 55q63 8 76 -53l30 -131q6 -27 -11 -45.5t-36 -22.5l-141 -45q-12 -4 -14 -13.5t8 -15.5l143 -108q10 -10 14.5 -27.5 t-6.5 -34.5l-77 -125q-10 -16 -36 -17t-44 9l-219 129q-10 4 -21 4q-8 0 -14 -12l-111 -211q-14 -20 -33.5 -24.5t-42.5 4.5l-135 49q-16 6 -21 34.5t1 45.5l98 243q4 10 2 23.5t-18 15.5l-205 11q-29 4 -41 26.5t-12 48.5z" />
<glyph unicode="+" horiz-adv-x="1034" d="M25 727v92q0 23 9 43.5t36 22.5l239 16q33 4 33 33v2l-6 260q0 41 61 45q37 2 84 2q49 0 86 -4q20 -2 26.5 -15.5t8.5 -35.5l12 -236q2 -33 35 -32h234q23 0 46 -19.5t25 -42.5l11 -119q4 -35 -19.5 -55t-52.5 -25l-256 -24q-18 -2 -25.5 -13.5t-7.5 -27.5l-4 -258 q0 -23 -17.5 -40t-39.5 -17l-148 -5q-20 0 -35.5 14.5t-15.5 39.5l-2 262q0 37 -25 37l-239 22q-29 4 -41 27.5t-12 50.5z" />
<glyph unicode="," horiz-adv-x="503" d="M27 244q0 88 57 133t135 45q119 0 184.5 -64.5t65.5 -187.5q0 -35 -9 -81t-22.5 -95t-31 -94t-35.5 -76q-14 -23 -36 -33t-44 -10q-51 0 -84 33q-16 16 -18.5 33.5t1.5 35.5q14 35 27.5 66t24.5 61q4 6 4 13q0 6 -8 6q-90 16 -150.5 66.5t-60.5 148.5z" />
<glyph unicode="-" horiz-adv-x="860" d="M25 850q0 47 19.5 88t72.5 45q43 2 114.5 4t147.5 2q78 0 148.5 -1t113.5 -3q90 -4 121 -26.5t31 -88.5q0 -49 -21.5 -79.5t-77.5 -32.5q-135 -6 -271 -12.5t-271 -6.5q-72 0 -99.5 21.5t-27.5 89.5z" />
<glyph unicode="." horiz-adv-x="436" d="M25 162q0 43 17 74.5t46 52t65.5 31t75.5 10.5q70 0 125.5 -39t55.5 -117q-1 -188 -189 -188q-82 0 -139 48t-57 128z" />
<glyph unicode="/" horiz-adv-x="952" d="M-55 -103.5q-2 19.5 12 44.5q172 381 330 731q68 147 137.5 302.5t136 302t123.5 273.5t100 217q23 47 50.5 55.5t64.5 -10.5l82 -40q31 -16 31 -54q0 -35 -13 -63q-43 -113 -105.5 -263.5t-135 -318.5t-151.5 -342t-154.5 -337t-143 -305t-116.5 -243q-18 -39 -47 -42 t-64 14l-100 45q-35 14 -37 33.5z" />
<glyph unicode="0" horiz-adv-x="1261" d="M25 715q0 119 47 220t127 175t185 116t220 42q137 0 247 -54.5t185.5 -145.5t115.5 -209t40 -247q0 -123 -45 -215t-121 -151.5t-178.5 -89t-214.5 -29.5q-291 0 -449.5 145.5t-158.5 442.5zM258 717q0 -80 30.5 -138.5t82 -96.5t117 -56t135.5 -18q137 0 208.5 60 t71.5 202q0 152 -92 237.5t-238 85.5q-61 0 -117.5 -18.5t-100.5 -54t-70.5 -87t-26.5 -116.5z" />
<glyph unicode="1" horiz-adv-x="880" d="M23 1305q0 55 8 88.5t35.5 52t82 25t148.5 6.5q115 0 160 -11q43 -8 63.5 -25.5t28.5 -40t8 -50.5q0 -29 2 -62q8 -207 10 -411.5t6 -411.5q0 -33 41 -37l91 -6q47 -4 76.5 -25.5t29.5 -64.5v-133q0 -31 -23.5 -55.5t-54.5 -24.5l-635 -10q-41 0 -56 22.5t-15 54.5v107 q0 53 59 69l162 39q4 2 11 8.5t7 18.5l8 682q0 27 -20 29l-139 16q-27 2 -45.5 17.5t-28.5 37t-15 46t-5 49.5z" />
<glyph unicode="2" horiz-adv-x="1105" d="M23 414q0 178 73.5 287.5t263.5 144.5q55 10 101.5 23.5t80 38t53 64.5t19.5 101q0 80 -39 134.5t-129 54.5q-70 0 -107.5 -47.5t-37.5 -141.5q0 -96 -63 -88l-160 25q-29 4 -39 18t-10 45q0 98 25.5 189.5t77.5 161t132 110.5t189 41q94 0 171.5 -34t132 -93t84 -139 t29.5 -172q0 -123 -37.5 -199t-94 -123t-123 -75.5t-123 -55.5t-94.5 -62.5t-38 -97.5q0 -33 25 -32q78 -2 155.5 -4.5t155.5 1.5q37 2 37 35l-4 131q0 12 5 21.5t21.5 17.5t45 12.5t78.5 4.5q88 0 120.5 -11.5t32.5 -52.5q0 -31 1 -69.5t2 -78.5t2 -78t1 -69 q0 -47 -18.5 -73.5t-61.5 -30.5q-94 -10 -199.5 -15.5t-214 -7.5t-216.5 -2h-201q-35 0 -55.5 15.5t-31.5 41t-14 60.5t-3 74z" />
<glyph unicode="3" horiz-adv-x="882" d="M25 262q0 33 3 62.5t14 51t33.5 34t59.5 12.5q57 0 113.5 -4t113.5 -4q45 0 74 6t45.5 23.5t21.5 46t5 73.5q0 31 -26.5 51.5t-63.5 32.5t-78 17.5t-72 5.5q-23 0 -43 1t-43 1q-55 0 -61 76q0 6 -3 24.5t-3 24.5q0 90 94 100q66 6 260 12q29 0 29 35q-2 37 -3 73t-6 58 q-4 18 -11 26.5t-27 10.5q-53 4 -135.5 11t-180.5 7q-41 0 -61.5 23t-24.5 59q-2 27 -3 60.5t3 60.5q2 18 14.5 32.5t30 26t37 16.5t35.5 5q584 0 584 -369q0 -43 -10.5 -88t-31 -83.5t-50 -65.5t-66.5 -35q55 -12 96 -50t69.5 -89t43 -107.5t14.5 -107.5 q0 -88 -33.5 -149.5t-90 -99.5t-129.5 -55.5t-148 -17.5q-20 0 -69.5 3t-104 9.5t-102.5 15.5t-64 21q-49 33 -49 117z" />
<glyph unicode="4" horiz-adv-x="1179" d="M25 983q0 117 9 236.5t32 224.5q6 33 53 43q45 8 99 11t120 3q23 -8 36 -21.5t11 -33.5l-27 -383q-4 -37 31 -37h221q25 2 25 39v348q6 49 55 57q18 6 94 7q35 0 58.5 -1t34.5 -3q20 -2 41 -27q18 -23 18 -45q0 -18 -6 -191l-6 -178q2 -33 20 -33q117 0 129 -4 q16 -10 24.5 -19t8.5 -32q2 -45 2 -78q0 -31 2 -53q0 -25 2 -45v4q0 -49 -51 -57q-66 -18 -180 -19q-23 0 -23 -22v-2l12 -506v-2q0 -33 -34 -45q-8 -4 -78 -4h-51q-51 2 -80 2t-37 2q-16 2 -21 8q-12 8 -22 43q-8 41 -8 571v2q0 12 -9.5 18.5t-19.5 6.5q-63 -2 -111 -2h-90 h-73q-33 0 -56 2q-57 2 -89 19.5t-46 45t-17 66.5t-3 84z" />
<glyph unicode="5" horiz-adv-x="1042" d="M27 162l4 205q0 20 12 33.5t33 13.5q524 0 524 147q0 74 -39 116t-95 62.5t-121.5 25.5t-121.5 5q-45 0 -69.5 13.5t-36 34t-13.5 46t-2 51.5q0 33 2 99.5t7.5 137.5t10.5 132.5t11 85.5q12 47 50 76t112 33q66 4 142.5 6t154.5 2q70 0 133 -3t113 -7q51 -4 83.5 -29 t36.5 -66q2 -27 5.5 -59.5t5.5 -64t3 -58t1 -43.5q0 -23 -5 -44t-32 -23q-57 -4 -102.5 -7.5t-98.5 0.5q-20 2 -28.5 9.5t-12.5 31.5l-18 133q-2 10 -8 20.5t-21 8.5q-41 -4 -99.5 -11t-98.5 -18q-18 -4 -23.5 -14t-5.5 -20l12 -168q2 -25 31 -25q117 0 246 -65 q242 -123 241 -402q0 -145 -58 -241.5t-153.5 -152.5t-215.5 -78.5t-240 -22.5q-55 0 -96.5 4t-94.5 20q-29 8 -47 24.5t-18 45.5z" />
<glyph unicode="6" horiz-adv-x="1048" d="M23 786q0 94 30.5 193.5t82.5 194t120 175.5t141 138q20 16 42 18t38 -20l94 -107q35 -47 -12 -88q-49 -45 -102.5 -102.5t-97.5 -125t-71.5 -142t-27.5 -154.5q0 -61 24.5 -115.5t66.5 -95.5t97.5 -64.5t116.5 -23.5q25 0 54.5 6t55 20.5t43 36t17.5 52.5 q0 35 -25.5 60.5t-61.5 42.5t-74.5 25.5t-65.5 8.5q-35 0 -56.5 -2t-37 -3t-27.5 -3t-29 -2q-10 0 -17 7t-7 23v148q0 33 28 43q53 18 97.5 21t99.5 3q86 0 163 -27.5t133 -76.5t89 -117.5t33 -150.5t-39 -149.5t-101.5 -116t-139 -75t-152.5 -26.5q-133 0 -231.5 42 t-163 118t-96 180t-31.5 231z" />
<glyph unicode="7" horiz-adv-x="1021" d="M25 1118v64q0 41 1 84t2 81.5t3 61.5q4 25 26.5 40t55.5 15q78 2 168 2q92 0 188 -1t192.5 -4t184.5 -7q74 -4 97.5 -42t4.5 -122q-10 -47 -24.5 -104.5t-29.5 -118.5t-32.5 -124.5t-32.5 -123.5q-37 -139 -75 -284q-8 -33 -11.5 -70t-3.5 -66l-2 -293q0 -61 -55 -61 h-100q-57 0 -131 6q-23 2 -33 15.5t-10 27.5l-9 250q0 33 1 54.5t5.5 39t13.5 38t21 54.5q66 166 110 328t87 334q4 10 1 17.5t-13 7.5q-29 4 -101.5 5t-185.5 1q-16 0 -21.5 -10.5t-5.5 -18.5q0 -23 1 -38t1 -44t-21.5 -43t-39.5 -14q-47 0 -93 1t-93 7q-29 4 -35 18.5 t-6 36.5z" />
<glyph unicode="8" horiz-adv-x="1071" d="M23 477q0 63 16 126t48 118t79 98t108 66q29 10 30 32.5t-21 36.5q-35 23 -68 58t-59.5 75.5t-42 85t-15.5 87.5q0 70 27 128t73 99t107.5 63.5t128.5 22.5q74 0 145.5 -21.5t129 -63.5t92.5 -104.5t35 -142.5q0 -51 -11.5 -86t-32 -60.5t-49 -49t-63.5 -50.5 q-29 -25 -22 -52.5t42 -47.5q74 -39 129.5 -80t93.5 -94t57 -124t19 -165q0 -217 -107.5 -331.5t-328.5 -114.5q-117 0 -215 36.5t-171 102t-113.5 156t-40.5 196.5zM279 522q0 -51 16 -97t46 -82t73 -56.5t96 -20.5q213 0 213 232q0 39 -20.5 82t-52.5 77.5t-72.5 57 t-81.5 22.5q-43 0 -83 -17.5t-70 -46t-47 -68.5t-17 -83zM317 1280q0 -61 42 -111.5t120 -50.5h2q63 2 102.5 40t39.5 104q0 33 -14.5 59.5t-38 44.5t-52 28.5t-55.5 10.5q-59 0 -102.5 -32t-43.5 -93z" />
<glyph unicode="9" horiz-adv-x="1079" d="M16 983q0 88 40 163t105.5 129t146.5 85t165 31q125 0 229.5 -55.5t179 -146.5t116.5 -205t42 -230q0 -104 -31.5 -214t-87 -213.5t-128 -194.5t-154.5 -155q-27 -20 -47 -20q-12 0 -19.5 6t-17.5 17l-104 114q-10 10 -11.5 21.5t-1.5 21.5q0 25 29 58q322 340 321 581 q0 74 -26.5 135.5t-71.5 105.5t-105.5 68.5t-125.5 24.5q-27 0 -57.5 -7t-58.5 -22.5t-46 -38t-18 -55.5q0 -41 26.5 -70.5t64.5 -49t81 -29t73 -9.5q41 0 82 2.5t82 2.5q18 0 19 -37l6 -160q0 -33 -37 -43q-43 -14 -91 -17.5t-100 -3.5q-92 0 -176 27t-149.5 78t-104.5 128 t-39 177z" />
<glyph unicode=":" horiz-adv-x="456" d="M25 162v2q0 78 56 119t128 41t125 -35t53 -113q0 -176 -176 -176q-37 0 -69.5 11.5t-58.5 31.5t-42 50t-16 69zM47 944q0 37 16.5 66.5t43 50t59.5 32t67 11.5q78 0 118 -44t40 -116q0 -39 -16.5 -67.5t-42 -47t-59 -27.5t-66.5 -9q-61 0 -110.5 44t-49.5 107z" />
<glyph unicode=";" horiz-adv-x="456" d="M25 170q0 35 14 61.5t38.5 44t55.5 26.5t64 9q51 0 86.5 -19.5t59.5 -52t35 -74.5t11 -87q0 -72 -9 -125t-26 -94q-18 -47 -71 -47q-39 0 -62 22q-18 18 -18 35q0 10 12 45t12 76v4q0 6 -16 6h-8q-80 0 -129 46t-49 124zM39 846q0 74 52 119t120 45q80 0 125 -46t45 -120 q0 -39 -16.5 -66.5t-42 -46t-59 -28t-66.5 -9.5q-63 0 -110.5 44t-47.5 108z" />
<glyph unicode="&#x3c;" horiz-adv-x="919" d="M25 758q0 33 11 53t32 41l536 539q20 20 47 20q14 0 22.5 -5t18.5 -15l68 -68q12 -12 12 -27q0 -14 -22 -41l-426 -471q-18 -29 8 -47l483 -319q20 -12 27.5 -31t7.5 -35q0 -25 -14 -45l-91 -119q-10 -16 -34 -16q-25 0 -52 21l-591 477q-23 18 -33 41.5t-10 46.5z" />
<glyph unicode="=" horiz-adv-x="886" d="M23 510q0 47 16 80t70 35q70 4 167 6t189 6q106 4 217 6q66 0 94.5 -20.5t28.5 -85.5q0 -23 -4 -45.5t-14.5 -42t-27.5 -33t-44 -15.5q-133 -10 -282.5 -16t-285.5 -10q-59 -2 -91.5 36t-32.5 99zM31 942q0 47 17.5 87t72.5 44q55 2 129 4t152.5 3t156.5 1t139 -2 q121 -4 121 -118q0 -49 -21.5 -80t-76.5 -33q-12 0 -42 -1t-72 -3t-92 -3t-99 -3q-117 -4 -260 -9q-70 0 -97.5 20.5t-27.5 92.5z" />
<glyph unicode="&#x3e;" horiz-adv-x="794" d="M23 201q0 20 18 37l387 305q57 45 65.5 74.5t-34.5 89.5l-316 413q-16 23 -16 39q0 14 12 25l90 73q18 12 39 13q33 0 56 -29l372 -539q35 -51 35 -96q0 -47 -51 -106q-2 -2 -23.5 -20.5t-57.5 -48.5t-80 -66.5t-89 -73.5q-109 -90 -242 -201q-16 -12 -30.5 -16t-24.5 -4 q-18 0 -31 16l-63 74q-16 20 -16 41z" />
<glyph unicode="?" horiz-adv-x="915" d="M25 1104q0 104 37.5 160.5t100 83t140.5 31.5t158 5q119 0 193.5 -21.5t117.5 -74.5t58.5 -142t15.5 -226q0 -98 -37 -142.5t-135 -56.5q-66 -8 -104 -17.5t-59.5 -24.5t-27.5 -39t-6 -60v-146q0 -47 -35.5 -70.5t-79.5 -23.5q-74 0 -113.5 24.5t-39.5 92.5q0 31 -1 82 t4 105t17.5 103.5t36.5 73.5q31 31 70 43.5t78 17.5t77.5 8t67.5 14t47.5 35t18.5 73q0 47 -3.5 82.5t-18.5 60.5t-48 37t-92 12q-35 0 -69 -6t-61.5 -21.5t-45 -43t-17.5 -68.5q0 -16 2 -33.5t2 -34.5q0 -53 -30.5 -68.5t-83.5 -15.5q-47 0 -75 14.5t-41 41t-16 60.5t-3 75 zM170 111q0 72 41 114.5t115 42.5q78 0 128 -48t50 -126q0 -33 -15.5 -58.5t-39 -43t-53 -26.5t-60.5 -9q-70 0 -118 41t-48 113z" />
<glyph unicode="@" horiz-adv-x="1271" d="M29 838q0 188 37.5 314t103.5 191q33 33 89 54.5t118.5 32t127 14.5t118.5 4q172 0 291.5 -28.5t172.5 -82.5q66 -66 102 -190.5t36 -319.5q0 -139 -21.5 -219t-73 -121t-135.5 -51t-207 -10q-49 0 -85.5 3t-63.5 15.5t-43 37t-29 67.5q-10 41 -53 43q-104 10 -160.5 53 t-56.5 154q0 57 11 92t37 53.5t67 24.5t102 6q18 0 18 26v29q0 35 48 35h145q61 0 68 -78q2 -2 6 -60.5t8 -127.5q6 -82 12 -187q2 -51 66 -51q74 0 112.5 35t57 87t20.5 113.5t2 114.5q0 98 -16.5 161t-50.5 97q-29 29 -114 41.5t-226 12.5q-31 0 -85.5 -1t-110.5 -6.5 t-105.5 -17.5t-73.5 -37q-16 -16 -28.5 -51t-20.5 -85t-13.5 -112.5t-5.5 -132.5q0 -119 18.5 -217t67.5 -168.5t135.5 -110.5t221.5 -40q86 0 157.5 13t133.5 38q29 14 46 9t23 -38l21 -108q4 -14 -7.5 -26.5t-27.5 -25.5q-137 -94 -346 -94t-335 64.5t-194.5 176.5 t-90 262.5t-21.5 322.5zM408 793q0 -49 30.5 -65.5t73.5 -16.5q29 0 27 30l-11 93q-4 37 -36 36q-84 0 -84 -77z" />
<glyph unicode="A" horiz-adv-x="1155" d="M23 1192l12 213q2 33 41 33q119 0 231.5 -2t200.5 -4q102 -2 194 -5q31 0 66 -12t64.5 -32.5t53 -47t34.5 -57.5q25 -72 49 -166t48.5 -196.5t45 -209t37 -205t26 -181.5t9.5 -140q0 -25 -11.5 -48t-42.5 -26q-72 -4 -133 -6q-53 -4 -102 -5t-66 -1q-20 0 -36.5 13.5 t-18.5 33.5q-10 82 -18 164q-8 70 -15.5 145.5t-13.5 135.5q-2 14 -19 14l-178 -14q-16 0 -16 -21l39 -547q2 -29 -11.5 -47t-35.5 -18q-10 0 -39 -2t-66 -2t-74.5 2t-64.5 8q-20 4 -30.5 15.5t-12.5 23.5q-6 39 -11 118t-7 173t-3.5 190t-1.5 168q0 14 3.5 135t7.5 353 l-92 8q-23 2 -33 19.5t-10 29.5zM428 1184l18 -281q4 -29 19 -29l156 5q12 0 18 7t4 17l-33 291q-4 18 -22 18h-137q-23 0 -23 -24v-4z" />
<glyph unicode="B" horiz-adv-x="946" d="M10 1219l8 170q2 36 53 36h3h346q80 0 166 -18t156.5 -60t116.5 -109t46 -163q0 -115 -50 -199.5t-171 -107.5q205 -137 205 -344q0 -145 -59.5 -230t-153.5 -129.5t-210 -56.5t-226 -12q-59 0 -100.5 38t-39.5 85l21 1022q0 27 -25 30l-57 7q-12 2 -20.5 16t-8.5 25z M362 983q0 -10 9.5 -20.5t19.5 -10.5q104 0 154.5 36t50.5 83q0 68 -46 101.5t-110 33.5q-23 0 -48 -4t-25 -33zM389 608l4 -362q0 -14 11.5 -19.5t17.5 -5.5q43 0 90 9.5t85 31t63.5 57.5t25.5 87q0 45 -22.5 87t-59.5 72.5t-82 49t-88 18.5q-16 0 -30.5 -1t-14.5 -24z" />
<glyph unicode="C" horiz-adv-x="952" d="M25 528q0 98 9 230.5t28.5 259.5t51 230.5t76.5 148.5q35 35 98.5 54t123.5 19q41 0 101 -8t122.5 -24.5t119 -44t91.5 -66.5q20 -23 30.5 -52.5t15.5 -62t6 -66.5t1 -61q0 -53 -3 -111.5t-11 -119.5q-4 -29 -17.5 -49.5t-44.5 -16.5l-229 21q-20 2 -28.5 15.5t-8.5 35.5 q0 8 3 34t7 58.5t7.5 66.5t3.5 62q0 72 -35 101.5t-101 29.5q-53 0 -91 -31.5t-61.5 -107.5t-34.5 -204t-11 -320q0 -57 2 -112.5t19.5 -99.5t56 -70.5t112.5 -26.5q25 0 43.5 11t31.5 45t22.5 94.5t17.5 158.5q4 53 51 53q2 0 9 -1t32 -7t75 -18.5l138 -34.5 q16 -4 26.5 -17.5t15.5 -30t6 -34t1 -31.5q0 -68 -6 -150.5t-32.5 -155.5t-78 -123t-139.5 -50q-53 0 -129 7t-153.5 22.5t-145 40t-104.5 61.5t-55.5 94t-25.5 120.5t-8 126t-1 107.5z" />
<glyph unicode="D" horiz-adv-x="1146" d="M25 1333q-2 33 17 46.5t64 19.5t79 12t66 10t64.5 6.5t73.5 2.5q180 0 317.5 -62.5t229.5 -172.5t139 -257t47 -315q0 -133 -41 -235.5t-114.5 -178.5t-175 -126t-220.5 -79q-20 -4 -52 -10t-65.5 -12.5t-66.5 -10.5t-53 -4q-31 0 -43 24.5t-15 51.5l-67 991 q-2 29 -23.5 42.5t-70.5 13.5q-76 0 -78 57zM496 1014l34 -639q0 -16 19 -17q57 0 102 29t76 73t46 97.5t15 104.5q0 57 -17 122.5t-51 122t-86 94t-120 37.5q-18 0 -18 -24z" />
<glyph unicode="E" horiz-adv-x="1042" d="M23 -18v184q0 10 6 18.5t20 12.5l166 30l-14 842q0 35 -29 35h-74q-10 0 -19 10t-9 31v10q0 14 1 51t5 115q0 6 8 19.5t25 13.5l772 4q20 0 31.5 -6t11.5 -29l-2 -362q0 -10 -7.5 -19.5t-15.5 -11.5l-160 -25q-20 -4 -24 25l-23 145q-2 27 -28 27h-11q-14 0 -50 -2 t-109 -6l-7 -310q0 -27 27 -26l209 -15q8 0 14 -9t6 -19v-2l-6 -158q0 -16 -9 -24.5t-21 -10.5l-211 -33q-25 -4 -25 -22l2 -170q0 -16 11.5 -22.5t21.5 -6.5l239 -16v110q0 33 14.5 49.5t31.5 18.5l149 8h2q31 0 33 -39l47 -413v-11q0 -33 -29 -32q-115 2 -226.5 5 t-225.5 3q-115 0 -228.5 -8.5t-228.5 -8.5h-2q-59 0 -59 50z" />
<glyph unicode="F" horiz-adv-x="1140" d="M10 1386q-2 39 19.5 58.5t54.5 21.5l954 45h6q31 0 37 -38l27 -367q2 -25 -10.5 -59.5t-46.5 -34.5l-201 -8q-10 0 -18.5 7t-10.5 19l-18 109q-4 29 -29 28h-2l-170 -10q-20 -2 -30.5 -16.5t-10.5 -22.5l10 -248q0 -31 39 -30h305q51 0 64 -45q12 -51 20.5 -86t8.5 -56 q0 -49 -41 -78l-332 -65q-10 -2 -19.5 -16.5t-9.5 -26.5v-2q8 -96 14.5 -164t11.5 -124t7 -108.5t2 -115.5q0 -29 -17.5 -44t-42 -23.5t-52 -9.5t-48.5 -1h-4q-104 0 -140 24.5t-40 73.5q-6 57 -15.5 157.5t-18.5 219.5t-15 247t-6 243q0 25 -1 55.5t-2 58t-2 50t-1 32.5 q0 43 -33 49l-131 27q-14 4 -31.5 15.5t-20.5 29.5z" />
<glyph unicode="G" horiz-adv-x="1101" d="M42 704q-2 56 -2 112t2 112q5 114 28.5 215.5t79.5 156.5q33 33 91 55.5t123.5 37t129 19.5t110.5 5q131 0 184 -37q41 -29 65 -85t36 -122.5t15 -136t3 -123.5q0 -27 -10 -40t-23 -17q-12 -4 -45.5 -9t-89.5 -5q-27 0 -36 17.5t-11 39.5l-12 180q-2 66 -78 66h-168 q-20 0 -38.5 -1t-32 -7.5t-20.5 -20.5t-7 -43v-498q0 -135 16.5 -231t59.5 -139q41 -41 102 -61.5t113 -20.5q104 0 110 119q6 88 6 131q0 16 -2 34.5t-24 22.5l-176 33q-23 4 -33 14t-8 33q4 43 8 80t8 80q6 45 57 45q2 0 10.5 -1t48.5 -6.5t122 -16.5t233 -29 q39 -6 41 -62l51 -764v-8q0 -45 -45 -49l-174 -17h-8q-23 0 -35 7.5t-16 29.5l-19 82q-2 10 -7 16.5t-21 4.5q-66 -4 -140.5 -7.5t-142.5 -3.5q-70 0 -146.5 14.5t-127.5 65.5q-57 57 -96.5 189.5t-49.5 359.5q-4 74 -9 184z" />
<glyph unicode="H" horiz-adv-x="1030" d="M23 1370q-2 29 16 42t43 13h211q39 0 45 -55l35 -387q0 -16 18 -16h193q23 0 22 16l-20 477q0 33 35 37l219 31q10 2 33.5 -8.5t25.5 -32.5q10 -129 16.5 -296t20.5 -376q4 -72 20.5 -271.5t40.5 -529.5v-4q0 -27 -30 -28l-224 -13q-27 0 -28 35l-35 514q-2 14 -9 17.5 t-16 3.5l-237 8q-27 0 -23 -25l29 -434q2 -16 0 -26.5t-21 -14.5q-14 -4 -79.5 -15.5t-186.5 -33.5h-8q-12 0 -21.5 8t-11.5 25z" />
<glyph unicode="I" horiz-adv-x="1075" d="M23 1241l16 186q6 59 72 62l854 20q25 0 42 -10t19 -41l12 -192v-7q0 -41 -43 -51q-4 -4 -54 -16t-107 -27q-68 -16 -154 -35q-23 -6 -23 -30l21 -676q0 -20 14.5 -27.5t30.5 -5.5l258 29q18 2 25.5 -8.5t9.5 -24.5l22 -334q2 -16 -12 -33.5t-31 -17.5h-157 q-66 0 -123.5 -1t-111.5 -3t-119.5 -6t-148.5 -9.5t-196 -13.5q-18 -2 -42.5 8.5t-26.5 36.5l-23 271q-2 16 8.5 33.5t32.5 21.5l227 51q31 6 31 45l-12 680q0 29 -29 33l-233 18q-35 4 -44.5 24.5t-4.5 49.5z" />
<glyph unicode="J" horiz-adv-x="1224" d="M25 662q0 41 19 57t46 18l162 15h7q36 0 38 -39l22 -277q8 -98 53.5 -147t108.5 -49q168 0 168 159v17q0 8 -2 31.5t-5 68.5t-7 125t-12.5 203t-18.5 303q-2 20 -16.5 33.5t-34.5 9.5l-373 -45q-23 -4 -33 9t-14 34l-33 205q-4 29 1 48t42 21q63 4 141 9.5t161 11.5 t168 13t165 13q186 14 379 31q23 2 34 -11t11 -36v-225q0 -23 -16.5 -33t-34.5 -14l-258 -41q-18 -4 -29.5 -9.5t-9.5 -27.5q16 -227 26.5 -381t17.5 -251t11 -150.5t6.5 -83t2.5 -46.5v-36q0 -96 -27 -153.5t-79 -86.5t-128 -37t-174 -8q-131 0 -226.5 13.5t-133.5 51.5 q-25 25 -47.5 69t-40 122t-27.5 198.5t-10 297.5z" />
<glyph unicode="K" horiz-adv-x="1292" d="M-23 801q-4 23 14.5 35t35.5 16l82 16q14 2 14 29l14 539q2 41 13.5 57t52.5 16h162q20 0 33.5 -12t13.5 -39l4 -452q0 -33 12 -33q8 0 35 16q76 47 145.5 110.5t128 137.5t104.5 155t77 160q8 20 24 19.5t33 -10.5q47 -31 92 -58q39 -25 80 -50.5t70 -43.5 q12 -8 16 -23.5t4 -31.5q0 -53 -33 -132t-82 -160t-103 -149.5t-97 -101.5q-8 -8 -9 -12q0 -8 7 -17q51 -88 107 -199.5t106.5 -229t88.5 -235.5t52 -218q4 -25 -10.5 -39.5t-30.5 -12.5l-250 25q-37 4 -47 47q-16 94 -39 181t-50.5 173t-60 174.5t-69.5 186.5q-4 10 -12 10 q-6 0 -15 -6q-45 -29 -107.5 -47.5t-115.5 -22.5q-39 -4 -37 -37l45 -602q2 -20 -2 -33.5t-24 -13.5l-234 -2q-39 0 -53.5 13.5t-16.5 37.5l-20 570q0 25 -25 24l-51 -2q-8 0 -22.5 7.5t-16.5 21.5z" />
<glyph unicode="L" horiz-adv-x="1003" d="M43 1145q0 20 2 80.5t4 127t4 124t4 73.5q4 41 19.5 55.5t54.5 18.5l184 12h8q56 0 56 -57l24 -1047q0 -41 37 -40l172 -3q16 0 22.5 12.5t6.5 22.5l2 215q0 45 40 45h3l174 -10q23 -2 44.5 -23.5t23.5 -56.5l20 -356q1 -17 1 -34q0 -25 -2 -48q-3 -39 -19.5 -66.5 t-49 -44t-87.5 -16.5q-27 0 -82.5 1t-123 3t-140 6t-135 10.5t-107.5 14.5t-58 20q-31 31 -50 77t-31.5 145.5t-16.5 274.5t-4 464z" />
<glyph unicode="M" horiz-adv-x="1519" d="M-10 1219q0 92 19.5 123.5t80.5 33.5l309 4q18 0 29.5 -10t20.5 -24l243 -474q12 -25 25.5 -18.5t23.5 20.5l385 537q14 18 33 25.5t41 7.5h2q18 0 52 -2t67 -4q37 -2 82 -4q20 -2 31.5 -19.5t11.5 -42.5q0 -119 -3 -228.5t-8 -217t-8.5 -213t-3.5 -215.5v-527 q0 -33 -3 -52t-15 -30.5t-39 -14.5t-74 -3q-70 0 -107.5 3t-57 15.5t-25.5 38t-10 68.5l-50 592q-2 12 -8 15t-14 -7l-199 -299q-27 -39 -53 -39h-111q-27 2 -41 21.5t-22 48.5l-90 321q-4 12 -12.5 13.5t-10.5 -15.5l-37 -715q0 -14 -11 -25t-36 -11h-233q-43 0 -41 57 l80 1102q2 14 -7.5 21t-21.5 7l-125 4q-35 2 -47 31t-12 101z" />
<glyph unicode="N" horiz-adv-x="1347" d="M18 1323l19 180q2 20 13 32.5t34 8.5q84 -12 164 -20q68 -10 141.5 -18.5t126.5 -16.5q37 -6 62 -47q39 -70 81 -146q37 -66 81 -145.5t87 -157.5q16 -29 36 -34t30 34q29 111 49.5 214.5t38.5 213.5q8 51 80 52q74 0 119 -4.5t61 -10.5q23 -8 34 -24.5t9 -34.5 q-2 -14 -9 -92t-18 -226q-10 -152 -15 -266.5t-7 -217.5t-2 -210v-240q0 -31 -1 -51t-8 -33.5t-23.5 -21.5t-49.5 -12q-57 -8 -103.5 -11.5t-80.5 -3.5q-45 0 -88 13.5t-62 56.5q-14 29 -76.5 201t-183.5 503q-6 14 -16.5 15.5t-14.5 -15.5q-4 -45 -9 -142t-11 -251 q-4 -129 -7 -213t-3 -125q0 -16 -3.5 -34.5t-13.5 -24.5q-31 -18 -153 -18q-16 0 -43 3t-52.5 12t-44 25.5t-18.5 40.5q0 10 3 60.5t11 171.5q4 61 7.5 122.5t7.5 157t9 238.5t13 365q0 18 -4 30.5t-27 16.5q-20 4 -51 12t-74 18q-45 12 -45 70z" />
<glyph unicode="O" horiz-adv-x="1054" d="M78 778q0 88 2 188.5t16.5 201t43 191.5t82.5 161.5t137 112.5t204 42q141 0 228.5 -46t134.5 -127t63.5 -190.5t16.5 -236.5q0 -217 -10.5 -371.5t-32 -259t-55.5 -166t-80 -94t-105 -42t-133 -9.5q-178 0 -280.5 43t-154 126t-64.5 203t-13 273zM299 840 q0 -53 3 -113.5t21.5 -113t56.5 -87t107 -34.5q47 0 80 14t52.5 51t28.5 101.5t9 164.5q0 160 -7 255.5t-25.5 145.5t-50 64.5t-82.5 14.5q-47 0 -83 -23t-60.5 -76t-37 -142t-12.5 -222z" />
<glyph unicode="P" horiz-adv-x="1087" d="M21.5 1146.5q1.5 20.5 1.5 45.5v149q0 41 21.5 66t105.5 31q35 4 95 6t107 2q217 0 342 -7t191.5 -31t90.5 -68.5t40 -120.5q23 -115 28 -208t5 -165q0 -111 -49.5 -177.5t-165.5 -78.5l-166 -19q-39 -2 -45 -45l-68 -610q-4 -39 -18.5 -49t-51.5 -6l-219 14 q-27 2 -40 10.5t-18 24.5t-6 38.5t-1 51.5l-15 991q0 14 -4 24.5t-20 16.5l-76 27q-29 10 -42 22.5t-18.5 28.5t-4 36.5zM457 879q0 -16 10 -26.5t27 -10.5l221 6q14 0 20 7t6 15l-4 242q0 10 -8 20.5t-24 12.5l-195 20q-25 4 -38 -6t-13 -39z" />
<glyph unicode="Q" horiz-adv-x="1048" d="M61 489q0 227 8.5 387t28 267.5t53 170t87 94.5t127 41t174.5 9q137 0 222 -20.5t132 -69.5t62.5 -133t15.5 -213q0 -205 -7.5 -410.5t-25.5 -410.5q-4 -29 -8 -63t-4 -62q0 -27 20 -51q29 -37 53 -70q23 -29 44.5 -59t35.5 -48t15.5 -34.5t-19.5 -30.5l-129 -90 q-12 -8 -35.5 -4t-31.5 16l-91 133q-10 16 -28 17q-8 0 -15 -2q-80 -16 -157.5 -29.5t-161.5 -13.5q-117 0 -188.5 17t-110.5 85t-52.5 204t-13.5 373zM332 279q0 -47 13 -73t38 -38t56.5 -14t68.5 -2q16 0 22.5 10t-4.5 24l-65 88q-10 14 -8 36t16 32l113 82q12 8 28.5 6 t24.5 -14l51 -76q10 -18 23 -18q8 0 13 12t5 22v238q0 195 -2 313.5t-8 163.5q-10 80 -46 105.5t-114 25.5q-63 0 -101 -19.5t-58.5 -54t-29 -85t-12.5 -113.5q-10 -162 -17 -326t-7 -325z" />
<glyph unicode="R" horiz-adv-x="1175" d="M2 1130l21 218q4 41 65 47q100 10 184 12t150 2q152 0 253 -5t168.5 -17.5t108.5 -35t76 -55.5q49 -49 78 -131t29 -198q0 -31 -6.5 -67t-21.5 -68.5t-39 -59.5t-56 -35q-12 -4 -20.5 -15t-4.5 -26l117 -673q6 -35 -5.5 -62t-33.5 -31l-145 -34q-16 -4 -36 1t-38.5 17 t-32.5 29.5t-16 38.5l-82 585q-4 23 -27 19l-106 -13q-10 -2 -16.5 -10t-4.5 -20l68 -703q4 -29 -11.5 -51t-46.5 -27l-204 -16q-6 -1 -12 -1q-32 -1 -54 19q-27 22 -33 66q-10 68 -19 167t-18.5 212t-17.5 232.5t-14 231t-9.5 205t-3.5 154.5q0 23 -22 27l-121 12 q-25 4 -34 20.5t-7 38.5zM561 1143q0 -92 6 -152.5t15 -91.5q4 -16 13 -20.5t23 -4.5t41 1.5t58 3.5t62.5 6t56.5 8t31.5 16t6.5 39q0 76 -26 191q-4 12 -15.5 29.5t-35.5 17.5q-24 1 -51 1q-28 0 -58 -1q-62 -2 -100 -6q-27 -2 -27 -37z" />
<glyph unicode="S" horiz-adv-x="1038" d="M53 -51q0 16 1 54t2 81t2 83t3 60q4 53 14.5 87t29 52.5t45 24.5t63.5 4l100 -4q33 -2 51.5 -29.5t20.5 -54.5l12 -145q2 -33 41 -43q12 -4 39 -8.5t57.5 -7.5t59.5 -6t43 -3q43 0 49 20.5t6 55.5l-4 199q-2 35 -21.5 59.5t-52.5 26.5l-288 14q-86 4 -135.5 22.5 t-76 61.5t-33.5 114.5t-7 182.5q0 137 11 234.5t32 156.5q12 39 35.5 65.5t64.5 43t105.5 24.5t160.5 8q152 0 249 -6t153.5 -22.5t80 -45t27.5 -73.5q2 -18 4 -50t4.5 -69t3.5 -73.5t1 -65.5t-7.5 -50.5t-40.5 -25.5q-16 -2 -47.5 -4t-65.5 -4t-64.5 -3t-45.5 -1 q-23 0 -31 9t-12 24q-4 16 -6 64t-8 134q0 8 -9.5 22.5t-25.5 16.5q-18 2 -46 3t-56.5 2t-54 2t-44.5 1q-25 0 -42 -12t-21 -35q-2 -20 -4 -53t-3 -67.5t-2 -68.5t-1 -57q0 -39 14 -59t57 -22l353 -17q47 -2 75.5 -19.5t45 -43t22.5 -59t8 -68.5q4 -76 6 -165t2 -181 q0 -90 -2 -179.5t-4 -164.5q-4 -90 -96 -103q-68 -8 -142.5 -12t-152.5 -5h-77h-78q-76 1 -146 3q-51 2 -89 4t-62.5 17.5t-37 49t-12.5 99.5z" />
<glyph unicode="T" horiz-adv-x="1433" d="M4 1196v25q0 57 5 94t22.5 58.5t50.5 29.5t90 12q266 14 547.5 25.5t558.5 15.5h4q107 0 109 -98q2 -47 3 -108.5t1 -94.5q0 -59 -28 -87t-101 -32q-277 -18 -392 -18q-69 0 -69 -68q0 -51 3 -141t9 -188.5t13.5 -190.5t17.5 -147q2 -18 7 -34t14.5 -27t26.5 -19t46 -10 l164 -15q49 -2 51 -59q2 -18 3 -45t2 -54.5t1 -54.5v-49q0 -29 -17.5 -35t-39.5 -10q-41 -6 -86 -10t-92 -4q-119 0 -194 18.5t-122 62.5t-72.5 116.5t-43.5 178.5q-23 131 -40.5 318.5t-29.5 437.5q0 10 -9 20.5t-26 10.5q-25 0 -60.5 -2t-72.5 -3t-72.5 -2t-60.5 -1 q-29 0 -51.5 8t-38 28.5t-23.5 56.5t-8 91z" />
<glyph unicode="U" horiz-adv-x="1294" d="M90 399q0 236 6 476.5t15 482.5q0 23 14 42t43 19l258 6q61 0 61 -71l15 -889q2 -78 48 -118t107 -40q76 0 120 29t48 119l27 784q2 53 30 73q23 16 63 16q8 0 18 -1l192 -16q25 -2 42 -22.5t17 -53.5q0 -356 -13 -706.5t-13 -706.5q0 -23 -4 -37t-18.5 -23.5t-44 -12.5 t-79.5 -3q-72 0 -112.5 8t-61 20.5t-26.5 26t-6 23.5l-5 100q0 29 -36 29h-338q-98 0 -168 35t-114 95t-64.5 141t-20.5 175z" />
<glyph unicode="V" horiz-adv-x="1345" d="M33 1468q-4 23 1 46.5t32 29.5q104 23 156 33t75 16q25 6 25 9q31 8 49 -6.5t24 -39.5l191 -815q4 -18 18 -21t25 19l393 793q12 25 29.5 26t38.5 -10l196 -106q33 -16 37 -48t-10 -61l-563 -1267q-27 -59 -88 -66q-74 -6 -136 -6q-88 0 -145 12q-39 8 -65.5 35t-36.5 74 q-66 326 -130.5 668.5t-115.5 684.5z" />
<glyph unicode="W" horiz-adv-x="1943" d="M8 1300q0 12 2 21l43 188q8 35 33 47.5t53 12.5q4 0 8.5 -1t8.5 -1l346 -45q74 -10 82 -101l73 -743q4 -29 19.5 -31t32.5 33l221 500q14 31 36 43q18 10 61 10h15l134 -2q72 0 84 -74l86 -598q4 -27 34 -27q29 0 69 1.5t62 3.5q10 0 18.5 8t8.5 22l33 721q2 23 18.5 37 t40.5 10l189 -18q25 -4 35 -19.5t8 -37.5q-16 -242 -33 -472q-6 -98 -13.5 -201.5t-13.5 -204.5t-12 -194.5t-8 -169.5q-4 -57 -21.5 -82.5t-81.5 -27.5q-95 -4 -197 -6h-33q-84 0 -161 8q-47 4 -77.5 45t-45.5 102l-121 523q-4 14 -14 14q-8 0 -12 -10l-219 -535 q-29 -65 -90 -65h-2q-23 0 -52.5 2t-61.5 7t-61.5 10t-50.5 11q-35 10 -60.5 45t-31.5 97l-104 972q-2 31 -35 43l-213 80q-29 10 -29 49z" />
<glyph unicode="X" horiz-adv-x="1212" d="M31 1315q0 25 14 45q4 6 30.5 29.5t62.5 52t71.5 57.5t58.5 45q14 12 37 12q29 0 51 -24q4 -6 19.5 -31.5t37 -63.5t47 -85t52.5 -97q61 -113 137 -256q12 -20 27 -20q16 0 26 18l250 406q6 10 24.5 15t31.5 -3q37 -16 77.5 -37.5t88.5 -52.5q14 -8 13 -21.5t-9 -23.5 q-4 -4 -90.5 -132t-253.5 -380q-10 -16 -7.5 -25.5t13.5 -25.5q162 -281 248 -436.5t110 -190.5q8 -10 6 -22.5t-18 -20.5l-228 -106q-16 -8 -33.5 -4t-29.5 22l-258 440q-6 12 -14 13q-10 0 -17 -15l-289 -555q-10 -20 -26 -20q-2 0 -15 4q-47 23 -97 54.5t-105 70.5 q-23 14 -23 37q0 18 15 43q20 39 110 192.5t234 390.5q10 16 10 33q0 12 -6 23q-94 147 -184.5 291.5t-188.5 314.5q-10 18 -10 39z" />
<glyph unicode="Y" horiz-adv-x="1148" d="M10 1190q0 14 15 27l211 147q14 10 30 10q27 0 39 -26l184 -410q12 -27 23 -27q10 0 29 27q4 8 85 114.5t236 317.5q4 6 13.5 8t19.5 2q16 0 27 -6q14 -10 44.5 -32.5t62.5 -46t58.5 -46t32.5 -32.5q8 -20 8 -31q0 -18 -12 -31q-53 -74 -122.5 -173t-135.5 -189 q-76 -104 -153 -213q-12 -18 -18.5 -44t-6.5 -49l20 -647q2 -29 -16 -42t-41 -13q-72 0 -144.5 6t-117.5 16t-45 56l-19 739q0 20 -6 33.5t-12 23.5l-279 496q-10 16 -10 35z" />
<glyph unicode="Z" horiz-adv-x="1159" d="M43 1227q-1 5 -1 10q0 33 22 63q26 36 79 39q233 16 381 27.5t235 19t127 10.5t58.5 5t26.5 2h37q45 0 73.5 -23.5t32.5 -76.5l10 -136q2 -20 -11 -57t-30 -63l-544 -805q-16 -25 -10 -39.5t36 -12.5l189 7q20 0 33.5 18t11.5 35l-6 112q-2 20 16 38t43 18l172 2 q33 0 45 -16.5t18 -47.5q6 -37 12.5 -86t11.5 -99t8 -97t3 -80q0 -23 -13 -34t-32 -13q-29 -2 -101.5 -7.5t-167.5 -11.5t-200.5 -12t-199 -11t-163 -8t-89.5 -3q-45 0 -52 30l-34 150q-4 17 -4 33q0 43 26 86l555 878q16 25 8 38t-28 11l-238 -20q-20 -2 -36.5 -11.5 t-14.5 -33.5l10 -170q2 -29 -14.5 -41.5t-30.5 -14.5l-170 -16h-3q-42 0 -48 47z" />
<glyph unicode="[" horiz-adv-x="694" d="M23 1450q0 104 2 168q2 33 17 46t44 17q39 2 96.5 5.5t118.5 4.5t121.5 2t103.5 1q35 0 46.5 -23.5t11.5 -38.5q0 -27 2 -53.5t2 -52.5q0 -29 -18.5 -42.5t-37.5 -13.5q-82 -4 -142 -7t-87 -3q-23 0 -33 -12t-10 -25q0 -8 1 -70.5t4 -151.5t5 -190.5t6 -185.5 q2 -55 5.5 -135t7.5 -167t9 -174t8 -156.5t5 -113.5t2 -46q0 -45 33 -45h227q39 0 51.5 -14.5t16.5 -41.5l10 -84q4 -23 -10 -36t-39 -15q-29 -2 -82 -5t-114.5 -5t-119 -4t-89.5 -2q-29 0 -52.5 2t-40 12t-27.5 30.5t-14 55.5q0 8 -3 61.5t-6 134.5t-7 182t-8 205.5t-7 205 t-3 180.5q0 63 -2 167.5t-3 216.5t-1 216z" />
<glyph unicode="\" horiz-adv-x="784" d="M-45 1675.5q8 30.5 33 40.5l92 37q45 18 72 -33q2 -6 30.5 -82.5t72.5 -197.5t99.5 -272.5t110.5 -307.5q53 -150 109.5 -303.5t102.5 -282.5t78.5 -218t39.5 -107q10 -25 8 -48.5t-33 -33.5l-96 -35q-41 -14 -59.5 -2t-28.5 35q-4 12 -39 101t-84 223.5t-107.5 294 t-111.5 311.5q-51 150 -101.5 293t-90.5 258.5t-66.5 188.5t-28.5 81q-10 29 -2 59.5z" />
<glyph unicode="]" horiz-adv-x="632" d="M18 1495l7 135q2 29 15 39t36 10l354 -8q33 0 57.5 -20.5t28.5 -57.5q0 -12 5 -84.5t11.5 -179t12.5 -231.5t10 -238q0 -43 2 -117.5t3 -166t3 -189.5t3 -188t2 -162t1 -111q0 -45 -34.5 -76.5t-85.5 -35.5l-371 -33q-29 -4 -38 5t-9 36l-2 104q0 39 41 43q74 4 131 11 q49 4 92 8t47 4q16 0 16 37q0 2 -1 45t-2 111.5t-3 153.5t-4 172t-5 168t-5 142q-4 90 -10.5 194.5t-12.5 194.5t-11 149.5t-5 61.5q0 29 -31 29l-209 4q-43 0 -39 41z" />
<glyph unicode="^" horiz-adv-x="1228" d="M25 963q0 16 5 32.5t19 26.5l488 461q51 47 96 47q49 0 92 -57l414 -560q8 -10 14 -28.5t6 -34.5q0 -25 -14 -41l-66 -76q-18 -23 -41 -22q-18 0 -30 18l-314 469q-31 47 -78 47q-18 0 -36.5 -8t-36.5 -31l-348 -389q-4 -6 -17.5 -12t-27.5 -6q-16 0 -32 8t-24 18l-55 84 q-14 20 -14 54z" />
<glyph unicode="_" horiz-adv-x="768" d="M-61 -84q0 53 12 68.5t53 15.5h746q49 0 64 -13.5t15 -54.5q0 -49 -10 -63t-51 -14h-782q-27 0 -37 10t-10 51z" />
<glyph unicode="`" horiz-adv-x="747" d="M21.5 1377.5q-1.5 19.5 9.5 35.5q16 29 32 44.5t41 35.5q14 10 38 6t46 -20q49 -37 111.5 -87.5t127.5 -104.5t126 -107.5t109 -98.5q14 -12 18 -28.5t-6 -30.5q-8 -12 -26.5 -40t-41.5 -52q-8 -8 -24.5 -4t-26.5 10q-57 37 -130 91t-145.5 110.5t-137 112t-105.5 96.5 q-14 12 -15.5 31.5z" />
<glyph unicode="a" d="M23 475q0 92 55 155.5t135 104.5t171 60.5t165 19.5q27 0 26 27v168q0 75 -37 75h-1l-172 5q-66 2 -120.5 3t-56.5 3q-16 0 -27 6t-14 22q-4 23 -6 50q-2 23 -3 54.5t-1 67.5q0 29 37 33q104 4 201 4h196q117 0 191 -43t115 -119.5t56 -183t15 -235.5v-287t2 -287 q0 -39 -12 -54t-39 -20l-174 -20q-20 -4 -31.5 13.5t-13.5 35.5l-10 92q-2 18 -13.5 15.5t-25.5 -7.5q-66 -16 -124 -24t-124 -8q-74 0 -139.5 14t-114.5 46t-77.5 84t-28.5 130zM283 508q0 -23 17 -40t43 -29.5t55.5 -18.5t54.5 -6q66 0 100.5 13t34.5 46q0 145 -6 170 q-4 18 -23 19q-37 0 -84 -6.5t-90 -24t-72.5 -47t-29.5 -76.5z" />
<glyph unicode="b" horiz-adv-x="1009" d="M53 1372q-4 45 12.5 52.5t38.5 5.5l197 -19q23 -2 34 -19.5t13 -37.5l55 -494q6 -41 52 -41q82 0 175 -13t173 -50t133 -102t53 -169q0 -96 -38 -156.5t-99 -94t-140 -45t-161 -11.5q-25 0 -50.5 2t-49.5 2q-31 0 -33 -39l-4 -96q-2 -23 -14.5 -32t-26.5 -9l-162 8 q-57 4 -64 82q-6 74 -14 172.5t-17.5 211t-18.5 233.5t-17 238.5t-15.5 225t-11.5 195.5zM451 473q0 -18 9 -26.5t21 -12.5q80 -20 140 -20q123 0 127 86v2q0 41 -28 68.5t-68 44t-83 22.5t-75 6q-41 0 -41 -37z" />
<glyph unicode="c" horiz-adv-x="856" d="M55 537q0 106 32 195t91.5 152.5t144.5 99.5t191 36q35 0 76 -3t80 -9.5t71.5 -15.5t51.5 -19q39 -23 38 -64v-133q0 -25 -11 -34t-28.5 -10t-36 3t-32.5 8q-74 20 -160 21q-57 0 -109.5 -11.5t-93.5 -39t-65.5 -71.5t-24.5 -110q0 -70 31 -116.5t80 -76.5t108.5 -44 t116.5 -16q8 -1 16 -1q24 0 48 5t50 5q9 0 17 -1q47 -3 59 -21q9 -14 8 -43q0 -10 -1 -22l-6 -115q0 -18 -5.5 -34.5t-18.5 -29t-36.5 -19.5t-62.5 -7q-123 0 -234.5 33.5t-196.5 101.5t-136.5 169t-51.5 237z" />
<glyph unicode="d" horiz-adv-x="856" d="M25 432q0 84 26.5 144.5t73.5 98.5t111.5 56.5t142.5 18.5q16 0 23.5 -1t37.5 -1q12 0 19.5 6t7.5 39l-2 593q0 29 15.5 37.5t37.5 6.5l146 -11q23 -2 34 -10t15 -37q6 -57 15 -147t17.5 -198.5t16.5 -224.5t13 -223.5t9 -195.5t4 -141q0 -90 -3 -154.5t-5 -138.5 q-2 -31 -21.5 -41t-35.5 -10l-131 -2q-12 0 -27.5 6t-19.5 24q-6 25 -10 49q-4 23 -6.5 48.5t-2.5 52.5t-24 26q-88 0 -174 8.5t-154 41t-108.5 99t-40.5 181.5zM270 436q0 -37 16.5 -63.5t43 -44t59.5 -24.5t66 -7q25 0 45 11t18 40l-6 205q0 31 -29 31q-35 0 -72.5 -7.5 t-68.5 -24.5t-51.5 -45t-20.5 -71z" />
<glyph unicode="e" horiz-adv-x="976" d="M37 817q0 98 32.5 186.5t91 154t139.5 103t177 37.5q129 0 215 -40.5t137.5 -112.5t73 -169t21.5 -210q0 -49 -6.5 -80t-16.5 -46t-27.5 -20.5t-37.5 -5.5l-435 -4q-25 0 -39 12.5t-16 28.5l-10 127q-2 49 72 56l317 24q14 2 25.5 14.5t11.5 36.5q0 43 -17.5 79t-47 61.5 t-68.5 40t-80 14.5q-150 0 -225.5 -87t-75.5 -237q0 -121 41 -200.5t112.5 -128t167 -69t205.5 -20.5q43 0 47 -49l8 -123q2 -27 -10 -39t-28 -14t-32 -3t-36 -1q-162 0 -290 47t-216 136.5t-134 216t-46 284.5z" />
<glyph unicode="f" horiz-adv-x="915" d="M-2 639l10 162q2 57 66 63l172 17q25 2 24 37v253q0 102 37 168t97.5 103t137 50t156.5 13q18 0 55.5 -3t76 -7t73.5 -10t53 -12q14 -4 21.5 -11.5t7.5 -23.5l-8 -193q0 -16 -12.5 -25.5t-30.5 -7.5q-23 2 -56.5 4.5t-72.5 4.5t-80 3t-76 1q-61 0 -91 -15.5t-38 -83.5 l-22 -208q-4 -35 3 -50.5t44 -17.5l172 -8q47 -2 66.5 -30t21.5 -69l8 -149q2 -29 -19.5 -40t-37.5 -13l-168 -11q-27 -2 -27 -28l-6 -529q0 -43 -45 -45h-53q-31 0 -63 2t-59.5 4.5t-41.5 4.5q-43 6 -43 59l-2 534q0 41 -41 43l-166 7q-45 0 -43 57z" />
<glyph unicode="g" horiz-adv-x="991" d="M51 186q0 57 27.5 77t48.5 22l149 8q6 0 16.5 -5t21 -13.5t18.5 -19.5t8 -26q0 -43 -1 -59t-1 -23v-6v-12q0 -43 12 -69.5t34 -40t52.5 -17.5t69.5 -4q53 0 79.5 13.5t41.5 64.5q12 43 12 366q0 16 -9 22.5t-22 0.5q-16 -8 -52 -19.5t-112 -11.5q-74 0 -142.5 16.5 t-121.5 52.5t-86 94t-33 142q0 150 46.5 229t125 112.5t181 38.5t213.5 7q16 0 16 21l-2 90q0 43 35 43l153 -6q45 -2 52 -62q12 -106 20 -191t12.5 -173t6.5 -192.5t2 -247.5q0 -133 -5.5 -229.5t-15.5 -163t-26.5 -107.5t-36.5 -62q-23 -23 -51.5 -37t-68.5 -23t-93.5 -13 t-126.5 -4q-154 0 -253.5 19t-135.5 56q-12 12 -23.5 33t-19 58.5t-11.5 98t-4 152.5zM301 774q0 -37 22.5 -58.5t54.5 -32.5t66.5 -14t59.5 -3q51 0 104 12q29 6 31 35q3 27 3 56q0 14 -1 28q-2 43 -6 84q-2 27 -17.5 34t-37.5 7q-31 0 -79 -7.5t-92 -24t-76 -45t-32 -71.5 z" />
<glyph unicode="h" horiz-adv-x="940" d="M45 1522q0 51 45 51l162 -2q51 0 57 -66l74 -602q4 -35 29 -35q215 -4 314 -57t112 -154l67 -542q2 -16 -9 -35t-32 -19l-184 2q-10 0 -22.5 8.5t-14.5 26.5l-29 387q-4 37 -26.5 53.5t-55.5 16.5q-29 0 -55 -20.5t-26 -53.5v-2v-22v-56q0 -33 1 -75.5t1 -87.5l4 -242 q0 -23 -12.5 -38t-28.5 -15l-193 -2q-23 0 -39 11t-20 34q-16 106 -30.5 236t-28 271.5t-24.5 287t-19.5 280.5t-12.5 254t-4 207z" />
<glyph unicode="i" horiz-adv-x="634" d="M12 700q0 43 15.5 65.5t66.5 22.5h252q41 0 66.5 -11t41 -32.5t24.5 -50t16 -61.5q31 -156 54.5 -318.5t43.5 -322.5q2 -18 -8.5 -38t-24.5 -22q-16 -2 -33.5 -4t-42 -4t-59.5 -3t-84 -1q-14 0 -25.5 7t-15.5 24q-4 18 -13.5 89t-19.5 156t-19 163.5t-14 113.5 q-2 16 -7 26.5t-15 10.5l-148 -4q-14 0 -26 12t-17 41q-4 27 -6 67t-2 74zM137 1069q0 59 40 99t102 40q61 0 104 -46t43 -109q0 -25 -13.5 -45.5t-35 -36t-46 -23.5t-46.5 -8q-59 0 -103.5 30.5t-44.5 98.5z" />
<glyph unicode="j" horiz-adv-x="684" d="M-49 20q0 53 25 77q24 22 56 22h5l80 -2q16 0 32.5 -17.5t20.5 -40.5l31 -225q4 -29 13 -46t46 -17q61 0 94 17t46.5 48t15.5 76t2 100q0 111 -8.5 222.5t-19.5 210t-22.5 176t-19.5 118.5q-4 16 -8 26.5t-25 12.5l-176 13q-23 2 -31 13t-12 34l-10 104q-4 35 16.5 54.5 t55.5 17.5l311 -8q39 -2 52.5 -25t19.5 -61q41 -229 67.5 -469t26.5 -471q0 -139 -16.5 -225.5t-60.5 -134.5t-125 -65.5t-210 -17.5q-100 0 -155.5 8.5t-81 54.5t-30.5 143t-5 277zM119 1282q0 53 40 91t99 38q57 0 104.5 -37t47.5 -96q0 -57 -40 -93t-98 -36 q-61 0 -107 31.5t-46 101.5z" />
<glyph unicode="k" horiz-adv-x="950" d="M23 1694q0 31 26 35q41 6 86 7h10q40 0 76 -7q31 -6 33 -37q12 -248 16 -477.5t4 -464.5q0 -37 35 -27l461 137q12 4 21.5 5t19.5 -11q4 -6 14.5 -30.5t21.5 -54.5t20.5 -57.5t11.5 -37.5q2 -9 2 -21q0 -27 -23 -37l-168 -61q-20 -8 -24 -20.5t0 -30.5l88 -398 q4 -18 -4.5 -33.5t-30.5 -19.5l-141 -16q-25 -4 -39.5 7t-18.5 28l-88 399q-2 10 -9 23.5t-17 13.5l-39 -2q-14 0 -24.5 -12.5t-12.5 -28.5l-31 -373q-2 -23 -12.5 -29t-30.5 -4l-184 17q-20 2 -21 28v5q4 94 7 205.5t3 197.5q0 168 -3 313.5t-9 284.5t-13 280.5t-13 303.5z " />
<glyph unicode="l" horiz-adv-x="483" d="M-49 1401l14 160q4 29 19.5 52t52.5 23l215 -2q27 0 45 -27.5t22 -76.5l74 -1313q2 -18 -5 -38.5t-32 -24.5l-206 -21q-25 -4 -41.5 12.5t-16.5 40.5l-4 1119q0 16 -8 21t-23 9q-2 0 -11 2t-19 4l-29 5q-16 4 -32.5 17t-14.5 38z" />
<glyph unicode="m" horiz-adv-x="1468" d="M61 1081q0 61 54 70q49 6 76.5 10t41 6t15.5 2h4q35 0 39 -30l8 -80q4 -27 17.5 -28t31.5 9q68 31 121 48.5t117 17.5q47 0 84 -21.5t61.5 -56.5t37.5 -79t13 -87q0 -37 29 -39q23 -4 27 -4h6q10 0 20 8.5t15 24.5q8 45 21 88t37 75t59.5 51t90.5 19q59 0 102.5 -17 t74.5 -48q33 -33 58.5 -82t42.5 -135t26.5 -219t9.5 -334q0 -41 -17.5 -57.5t-58.5 -12.5l-168 13q-18 2 -27.5 17t-7.5 34q6 86 14.5 191.5t8.5 205.5q0 14 -2 36.5t-8.5 43t-19.5 36t-36 15.5q-31 0 -51 -18.5t-33.5 -62.5t-22.5 -115.5t-18 -178.5q-6 -59 -53 -59 q-203 0 -209 2q-63 12 -69 90q-4 45 -6.5 113.5t-16.5 132t-47 109.5t-96 46q-51 0 -81 -25.5t-45.5 -64.5t-20.5 -84t-4 -84q0 -39 2.5 -86t10.5 -106q4 -35 7.5 -60.5t5.5 -44.5q2 -23 4 -38q2 -16 -1 -29.5t-24 -15.5l-182 -13q-25 -2 -36 14.5t-13 38.5q-6 82 -9 197 t-5.5 233.5t-3.5 229t-1 188.5z" />
<glyph unicode="n" horiz-adv-x="962" d="M41 872q-2 23 9 36.5t30 15.5q39 4 67 8q25 4 45.5 6t22.5 2q16 2 31.5 -4t19.5 -51l6 -92q2 -33 41 -21q47 16 111.5 26.5t130.5 10.5q158 0 236.5 -108.5t103.5 -303.5l37 -299q2 -18 -2 -31.5t-23 -13.5q-43 -4 -82 -6q-35 -2 -71.5 -3t-63.5 1q-33 2 -35 37l-12 158 q-4 39 -6 94t-15.5 106.5t-43 88t-84.5 36.5q-35 0 -71 -6t-62.5 -21.5t-42.5 -43.5q-12 -23 -12 -55q0 -8 1 -17l37 -359q2 -16 -5 -26t-24 -8l-174 8q-35 4 -39 39z" />
<glyph unicode="o" horiz-adv-x="997" d="M39 717q0 104 40 189t107.5 144.5t156.5 92.5t189 33t179.5 -37t132.5 -99.5t81.5 -145.5t28.5 -175q0 -109 -38.5 -189.5t-103 -136t-147.5 -83t-173 -27.5q-102 0 -185.5 35.5t-143 95t-92 138.5t-32.5 165zM311 717q0 -43 18.5 -78t48.5 -58.5t67.5 -37t78.5 -13.5 q100 0 154.5 48.5t54.5 152.5q0 82 -59.5 127t-136.5 45q-43 0 -83 -11t-72 -34.5t-51.5 -58.5t-19.5 -82z" />
<glyph unicode="p" horiz-adv-x="870" d="M23 1223q0 33 11 41t38 10l143 6q31 0 35 -49l4 -66q2 -20 14.5 -26t28.5 -4q57 6 101 8t75 2q100 0 163.5 -36t99.5 -95.5t49.5 -138t13.5 -166.5q0 -86 -20.5 -141.5t-60.5 -87t-99.5 -45t-137.5 -13.5q-29 0 -60.5 5t-60.5 9q-23 4 -35 -8t-12 -33l4 -213q0 -41 1 -80 t4 -67q2 -37 2 -66t-15.5 -45t-32.5 -18l-155 -12q-27 -2 -47.5 17t-22.5 58zM387 907l2 -202q0 -27 9.5 -35t43.5 -8q90 0 126 37.5t36 123.5q0 53 -38 84t-142 31q-37 0 -37 -31z" />
<glyph unicode="q" horiz-adv-x="792" d="M35 373q0 104 15.5 177t52 118t101 64.5t163.5 19.5q12 0 24 8t15 18l8 76q4 23 16 37t37 14h180q29 0 41 -22.5t12 -44.5l-2 -1037q0 -29 23 -28l106 -4q10 0 20.5 8t10.5 24l4 107q2 33 19.5 51t46.5 14l133 -20q23 -4 30 -18.5t7 -34.5l-6 -320q0 -35 -26 -53.5 t-58 -18.5q-184 0 -294 10.5t-167.5 32t-75.5 54.5t-18 78l-4 438q0 16 -10.5 23.5t-26.5 5.5q-23 -2 -45.5 -3.5t-44.5 -1.5q-135 0 -211 50.5t-76 177.5zM211 444q0 -41 7 -64.5t25.5 -34.5t52.5 -14t87 -3q16 0 30.5 10t14.5 27v196q0 27 -33 29q-23 2 -39 2h-28 q-68 0 -92.5 -41t-24.5 -107z" />
<glyph unicode="r" horiz-adv-x="770" d="M57 1008v7q0 52 60 52l159 2q37 0 50.5 -35t13.5 -76q0 -20 12.5 -22t24.5 8q16 12 52 22.5t76 17.5t78 10t60 3q66 0 76 -4q37 -14 37 -59l4 -186q0 -25 -29 -25q-27 0 -44 5t-54 5q-70 0 -111 -9t-62.5 -39t-29.5 -83t-10 -141l-6 -266q-2 -47 -21.5 -73t-52.5 -24 l-182 8q-45 4 -47 46z" />
<glyph unicode="s" horiz-adv-x="872" d="M55 680q0 104 27 177t78 124t123.5 85t156.5 34q74 0 142.5 -29t121 -80t84 -118.5t31.5 -143.5q0 -29 -7 -41t-36 -12h-155q-39 0 -50 45q-6 25 -10 52.5t-15 49t-32.5 35.5t-58.5 14q-78 0 -125 -56t-47 -132q0 -78 36.5 -102.5t108.5 -24.5q31 0 52.5 2t41 5t41 6 t51.5 3q94 0 129 -34q29 -29 47.5 -74t28.5 -95.5t13.5 -100.5t3.5 -91q0 -143 -93 -176q-35 -12 -99 -27.5t-135 -29t-136.5 -21.5t-102.5 -8q-53 0 -92 13.5t-55 70.5q-16 47 -32.5 113.5t-16.5 117.5q0 47 49 48l149 4q35 0 45 -37l25 -103q4 -18 18 -18t31 4l119 29 q27 8 20 35l-30 159q-4 12 -8.5 19.5t-18.5 5.5q-31 -2 -61.5 -5t-61.5 -3q-160 0 -227.5 75.5t-67.5 235.5z" />
<glyph unicode="t" horiz-adv-x="786" d="M-12 1053l4 147q0 31 37 31h116q18 0 27.5 15.5t9.5 31.5l-4 229q0 52 52 52h6l151 -13q18 -2 28.5 -14t10.5 -29l-4 -180q0 -39 31 -41l231 -25q35 -4 48 -26.5t9 -52.5l-8 -107q-2 -25 -20.5 -39t-42.5 -16l-221 -19q-16 -2 -28.5 -7t-10.5 -25l18 -402 q4 -80 70.5 -116.5t222.5 -36.5q16 0 26.5 -5.5t12.5 -27.5l6 -94q2 -18 -11.5 -32.5t-25.5 -19.5q-49 -16 -107.5 -25t-140.5 -9q-154 0 -222.5 63.5t-82.5 218.5l-24 510q-2 33 -27 33h-109q-16 0 -22 9t-6 22z" />
<glyph unicode="u" horiz-adv-x="890" d="M51 805l10 330q0 43 42 43h8l172 -7q27 -2 34 -19t5 -40l-19 -336q-2 -37 10.5 -59.5t59.5 -22.5h131q18 0 28.5 13.5t10.5 29.5v187q0 53 2 106q0 23 13 32t30 11l145 8q23 2 39 -11t19 -42l38 -706q2 -29 -8 -48.5t-33 -23.5l-165 -19q-23 -4 -41.5 14.5t-20.5 41.5 l-8 125q-2 16 -13.5 26.5t-25.5 7.5l-235 -14q-12 -1 -23 -1q-53 -1 -90 15q-45 18 -72 62q-26 44 -36 118q-8 53 -8 123q0 27 1 56z" />
<glyph unicode="v" horiz-adv-x="1007" d="M27 748q-5 13 -5 24q0 24 25 33l193 74q16 6 32.5 -2.5t24.5 -26.5l176 -426q8 -20 17.5 -16t19.5 18l235 387q8 12 25.5 17.5t32.5 -5.5l155 -100q27 -16 29 -33.5t-14 -42.5l-363 -612q-31 -53 -75 -62q-16 -4 -53.5 -5t-73.5 -3q-29 -2 -51.5 14.5t-32.5 41.5z" />
<glyph unicode="w" horiz-adv-x="1425" d="M39 748v135q0 66 1 115t1 65q0 12 11 29.5t34 15.5l145 -10q35 -4 35 -45l-8 -357q0 -32 14 -62q13 -28 49 -28h5l104 4q72 4 72 88l4 320q0 20 20.5 41.5t42.5 21.5h90t99 -8q23 -4 33 -18.5t10 -42.5q0 -29 -1 -69t-2 -82t-2 -81t-1 -63q0 -55 46 -85t95 -30 q72 0 97.5 25.5t27.5 91.5l10 381q0 16 13.5 31.5t29.5 13.5l191 -21q23 -2 30 -16t11 -35q2 -27 5 -83t6 -129t6 -156.5t5 -166.5t3 -159t1 -133q0 -35 -19.5 -62.5t-47.5 -31.5q-28 -3 -63 -3h-18q-46 1 -83 5q-45 6 -45 47v49q0 25 -23 24q-20 0 -37 -4q-29 -6 -53 -6 q-141 0 -213 66.5t-82 191.5q-2 12 -9 21.5t-24 9.5q-39 0 -41 -27q-8 -63 -15 -109t-28.5 -75t-64.5 -43t-121 -14q-172 0 -252 87t-90 249q-4 57 -4 127z" />
<glyph unicode="x" horiz-adv-x="1042" d="M25 408.5q4 17.5 16 33.5l215 254q15 19 15 38q0 15 -9 30l-170 272q-12 20 10 37q39 31 74 53q29 20 54.5 36t31.5 16q10 8 24.5 7t24.5 -11l215 -273q16 -20 43 -4l269 170q16 10 34.5 6t28.5 -18l111 -168q10 -16 6 -29.5t-14 -21.5l-218 -160q-16 -12 -21 -25.5 t5 -32.5l123 -235q10 -23 1 -47.5t-32 -40.5l-90 -59q-20 -14 -40.5 -8.5t-35.5 22.5l-178 219q-14 18 -28.5 17t-30.5 -11l-299 -188q-10 -6 -27 -6q-16 0 -27 10l-71 84q-14 16 -10 33.5z" />
<glyph unicode="y" horiz-adv-x="1064" d="M25 -25q-4 18 4 34t28 20l140 34q25 6 39 -6t18 -30l20 -103q6 -33 27 -45t72 -12q129 0 207.5 3t124 15.5t60.5 35t15 61.5v16q-8 111 -30 266q-4 25 -29 25q-23 0 -35 -1t-28.5 -3t-45 -3t-82.5 -3l-159 -5h-20q-73 0 -123 12q-56 15 -87.5 57t-45 119t-13.5 200 q0 37 1 77.5t3 87.5q2 29 17.5 44.5t35.5 17.5l168 14q29 4 43.5 -11t14.5 -44v-205q0 -74 28.5 -103.5t118.5 -29.5q57 0 92 5t53.5 21.5t24.5 48t6 85.5q0 78 6 161q4 41 45 41h4l142 -12q29 -2 45 -10t24.5 -22.5t10.5 -33t4 -40.5l47 -899q1 -11 1 -21q0 -38 -13 -61 q-15 -29 -48 -41q-53 -23 -130.5 -34t-160.5 -17.5t-165 -7.5t-144 -1q-102 0 -160.5 5.5t-90 35t-47 91t-33.5 171.5z" />
<glyph unicode="z" horiz-adv-x="909" d="M27 809v303q0 25 16 41t41 16h2q57 -2 140 -5t174.5 -8t182.5 -11t165 -12q23 -2 29.5 -10.5t6.5 -20.5q0 -10 -4 -20.5t-8 -20.5l-334 -631q-4 -10 -2 -23.5t19 -13.5l204 13q27 0 23 34l-10 88q-4 25 4 43.5t29 22.5l118 22q10 2 21.5 -9t15.5 -29q10 -72 17.5 -148 t7.5 -154q0 -49 -35 -53q-84 -8 -184.5 -14t-202 -11t-194.5 -7.5t-163 -2.5h-34q-39 0 -39 33q0 14 10 31q35 57 85 137t102.5 165t101.5 167t80 143q2 4 2 13q0 18 -21 18q-39 0 -75.5 3t-75.5 3q-31 0 -31 -20v-72q0 -39 -29 -39h-116q-39 0 -39 39z" />
<glyph unicode="{" horiz-adv-x="655" d="M25 696q0 23 16 33q23 20 50.5 41t58.5 43q12 6 12 12q0 10 -15 23q-43 37 -77 125q-31 76 -31 143v17q20 344 303 344q84 0 133 -21q35 -10 35 -41v-10t2 -16v-35q0 -39 -25 -39h-6q-10 2 -22.5 3t-22.5 1q-109 0 -184 -62q-78 -61 -78 -161v-2q0 -156 172 -176 q55 -6 55 -52q0 -27 -14 -41l-119 -104q-14 -12 -14 -25q0 -14 18 -22l125 -111q14 -12 15 -26q0 -10 -15 -23q-47 -35 -104 -104q-86 -109 -86 -183q0 -25 8 -43q16 -39 60 -66.5t116 -41.5q41 -8 80 -13.5t78 -9.5q33 0 33 -28q2 -10 2 -25q0 -16 2 -39v-27v-10 q-10 -16 -62 -28q-20 -4 -37 -5q-86 0 -192 41q-129 49 -193 131q-37 45 -36 115q0 82 53 193q39 82 61 100q4 4 4 14q0 8 -6 25q-92 92 -141 160q-12 12 -12 26z" />
<glyph unicode="|" horiz-adv-x="372" d="M25 1425v15q8 45 12 55q14 31 57 31h105q31 0 43 -21q4 -6 12 -45q8 -33 20.5 -368.5t30.5 -980.5v-7q0 -41 -18 -53q-4 -4 -33 -10l-119 -2h-4q-41 0 -57 16q-18 18 -21 78q-2 27 -6 193t-10 475q-12 541 -12 624z" />
<glyph unicode="}" horiz-adv-x="675" d="M23 20v82q0 37 63 37q340 0 377 129q2 8 3 14.5t1 14.5q0 78 -127 143q-74 37 -158 56q-41 10 -41 57q0 35 35 59l148 101q16 12 16 20q0 14 -25 27q-12 6 -34.5 17t-57.5 28q-27 18 -26 53q0 45 51 66q213 94 217 237v4q0 92 -90 162q-94 72 -232 72q-49 0 -53 28l2 72 q0 35 51 37q10 2 23 2h22q98 0 195 -37q219 -84 219 -321q0 -188 -172 -283q-31 -16 -31 -31q0 -12 21 -20q27 -18 59.5 -39t69.5 -47q27 -18 26 -45q0 -31 -71 -62q-23 -10 -45.5 -18t-44.5 -19q-20 -6 -21 -16q0 -8 13 -16q203 -145 202 -305q0 -20 -2 -31 q-31 -266 -430 -266q-145 0 -153 38z" />
<glyph unicode="~" horiz-adv-x="1126" d="M25 625q0 4 1 13t3 21q10 61 26.5 116.5t38.5 103.5q90 188 240 188q178 0 258 -193q63 -154 139 -153q25 0 47 8q49 14 49 203q0 55 45 55q125 0 142 -10q43 -10 43 -49q0 -141 -19 -209q-51 -186 -227 -187q-186 0 -281 160q-53 88 -84 123q-27 27 -63 27h-6 q-49 -4 -86 -82q-37 -80 -37 -191q0 -43 -82 -43q-47 0 -86 19q-61 27 -61 80z" />
<glyph unicode="&#xa1;" horiz-adv-x="612" d="M23 1438q0 47 16 81.5t45 57t66.5 34t80.5 11.5q63 0 107.5 -19.5t72 -51t41 -74.5t13.5 -91q0 -43 -18.5 -74.5t-49 -53t-69.5 -31.5t-78 -10q-98 0 -162.5 58t-64.5 163zM61 8q0 6 1 79t4.5 200t7.5 299t8 377q2 156 170 155q78 0 118 -29.5t58 -101.5q2 -4 10 -75.5 t21.5 -176t28 -225.5t27.5 -225.5t21.5 -175t8.5 -72.5q0 -106 -127 -141q-74 -18 -158 -19q-98 0 -148.5 24.5t-50.5 106.5z" />
<glyph unicode="&#xa2;" horiz-adv-x="966" d="M43 741q0 119 29.5 218.5t83 169t125 108.5t157.5 39q23 0 23 27q-2 41 -4 71q-2 27 -3 47.5t-1 18.5q0 20 24 20l148 -2q27 0 26 -26v-117q0 -16 10.5 -27.5t32.5 -11.5q12 0 37 -6t53.5 -17.5t57 -26t49.5 -28.5q29 -23 29 -57q0 -6 -4.5 -19.5t-10.5 -31t-14 -35 t-19 -29.5q-16 -20 -31.5 -15t-31.5 15q-39 27 -65.5 35t-45.5 8q-25 0 -32 -9t-7 -28l-14 -479q0 -10 7 -29.5t30 -19.5t66.5 -1t109.5 5q12 2 18.5 -7t6.5 -20l-4 -123q0 -68 -63.5 -97.5t-168.5 -29.5q-23 0 -22 -24v-2v-12t1 -35t1 -72q0 -14 -6.5 -25.5t-22.5 -11.5 l-147 4q-12 0 -21.5 8.5t-9.5 24.5v115q0 39 -33 51q-182 49 -263 161.5t-81 327.5zM240 768q0 -35 10 -69.5t31.5 -65.5t54.5 -54.5t80 -35.5q41 -10 43 30l18 463q0 20 -6 24.5t-16 4.5q-68 -16 -110 -51t-65.5 -77t-31.5 -87t-8 -82z" />
<glyph unicode="&#xa3;" horiz-adv-x="1409" d="M23 188q0 88 29.5 143.5t76.5 87.5t105.5 43t115.5 11q27 0 52.5 -5t48.5 -11q12 -4 21 5t-1 27q-35 41 -56.5 70t-35.5 64q-6 20 -19.5 24t-29.5 4h-254q-43 6 -45 39l-8 156q-2 45 51 51q70 2 170 6q14 0 21 12.5t5 28.5q-2 20 -3 35.5t-1 30.5q0 94 22.5 177t71 143.5 t122 95t177.5 34.5q63 0 124 -25.5t107 -69.5t74.5 -101.5t28.5 -120.5q0 -57 -19.5 -84t-74.5 -31l-92 -6q-16 -2 -35.5 10t-23.5 27q-10 29 -20.5 60.5t-26 57t-38 43t-57.5 17.5q-41 0 -79 -18.5t-66.5 -47t-45 -66.5t-16.5 -77q0 -20 4.5 -45t13.5 -47.5t23.5 -37.5 t32.5 -15q276 0 318 -6q80 -12 79 -82q0 -16 -2 -25q-14 -82 -41 -98q-29 -18 -69 -19h-146q-10 0 -20 -8q-10 -6 -10 -12v-2q29 -45 102 -207q6 -14 27 -29q37 -10 73.5 -22.5t75.5 -22.5q131 -39 176 -39h8q37 4 64 62q10 18 17.5 37.5t15.5 40.5q10 33 39 32q6 0 13 -2 t17 -6q21 -10 160 -55q20 -20 21 -55q0 -10 -2.5 -22.5t-6.5 -23.5q-18 -68 -65 -126q-72 -90 -168 -95h-12q-96 0 -224 58q-104 45 -129 69q-6 2 -16 2t-16 -2q-10 -4 -11 -14q0 -4 2 -8q25 -72 25 -140q0 -262 -356 -262q-63 0 -132 24.5t-126.5 74t-94 121t-36.5 167.5z M285 215q0 -39 22.5 -65.5t57 -43t73.5 -23.5t74 -7q33 0 52.5 16t19.5 45q0 80 -27 130t-108 50q-86 0 -125 -25.5t-39 -76.5z" />
<glyph unicode="&#xa4;" horiz-adv-x="1198" d="M29.5 1293.5q17.5 31.5 52.5 58.5q39 31 64.5 41t58.5 -15q2 -2 51 -40t123 -132q23 -29 47 -14q23 14 67 23.5t91 9.5q49 0 83.5 -7.5t69.5 -39.5q27 -29 51 -2l144 161q23 25 47.5 30t46.5 -17l80 -80q33 -33 -2 -70l-160 -182q-14 -25 -2 -37q12 -29 20.5 -48.5 t13.5 -35.5t6 -31.5t1 -38.5q0 -59 -13.5 -88.5t-13.5 -52.5q0 -6 18.5 -26.5t44 -46t54.5 -53t49 -50.5q8 -20 8 -29q0 -6 -10 -20.5t-65 -63.5q-35 -29 -76 9l-123 106q-10 6 -26.5 13t-24.5 -1q-29 -16 -71 -27.5t-83 -11.5q-59 0 -97 10.5t-60 10.5q-18 0 -26.5 -4 t-23.5 -19l-139 -157q-35 -35 -73.5 -29t-67.5 35q-33 33 -38 62.5t21 62.5l119 141q14 16 18.5 24.5t-12.5 24.5q-23 27 -39 51.5t-26 50t-15.5 55.5t-5.5 70q0 45 11.5 70t19.5 41q4 6 4 16t-8 21q-10 12 -31.5 33.5t-58.5 66.5q-35 41 -55.5 65.5t-30.5 39.5 q-25 35 -7.5 66.5zM369 846q0 -37 17 -70t46 -57.5t67 -38.5t79 -14q172 0 180 180q0 88 -43 141t-135 53q-90 0 -150.5 -56t-60.5 -138z" />
<glyph unicode="&#xa5;" horiz-adv-x="1212" d="M25 1319q0 14 14 29q12 10 41 30.5t74 53.5q96 70 110 69q27 0 27 2q12 -2 28 -37l185 -397q12 -27 22 -27t29 27q4 8 85 114.5t237 317.5q8 10 22 10h8q18 0 29 -6q4 -4 28.5 -21.5t71.5 -51.5q47 -35 70.5 -55.5t28.5 -28.5q8 -16 8 -31q0 -18 -13 -31 q-59 -102 -393 -565q0 -2 -2 -2v-2q0 -6 8 -6q33 0 56.5 -1t40.5 -3q125 -14 129 -84v-29q0 -45 -8 -72q-33 -55 -101 -57q-41 -4 -149 -6q-10 0 -11 -8q0 -4 1 -13.5t1 -23.5v-17v-22q0 -14 19 -15q41 0 70.5 -1t46.5 -3q125 -14 129 -84v-30q0 -49 -11 -70 q-25 -49 -98 -55q-86 -6 -137 -6q-10 0 -10 -11v-43t2 -43q0 -10 1 -18t1 -12v-11q0 -18 -17 -39q-16 -18 -41 -18q-137 0 -262 23q-37 16 -45 55q-2 8 -3 30.5t-1 63.5q0 10 -10 10h-39q-10 -2 -16 -2h-7q-10 -2 -20 -2h-21q-106 0 -118 70q-2 12 -3 24.5t-1 22.5 q0 33 10 63q8 78 92 82q31 2 57 2h54q14 0 14 13v67q0 8 -10 8h-21q-12 0 -35 -2h-24q-49 0 -74 7q-53 12 -61 61q-4 14 -4 25v24q0 16 2 33t8 31q10 80 92 82q2 0 28.5 1l79.5 3q12 0 13 12v8q0 41 -19 60q-6 6 -278 495q-10 20 -10 33z" />
<glyph unicode="&#xa6;" horiz-adv-x="329" d="M25 72v229v219q0 78 2 88q8 68 55 68h106q37 0 45 -51q2 -10 6.5 -178t10.5 -496v-2q0 -47 -39 -53l-121 -2h-2q-35 0 -46 15t-15 60q-2 20 -2 103zM35 920v118v185q0 86 1 150.5t2 102t1 42.5q6 68 53 67h109q37 0 45 -51q2 -12 6 -180t10 -494v-2q0 -45 -39 -51 l-121 -2q-23 0 -33 3t-16 11q-8 8 -12 13.5t-5 26t-1 61.5z" />
<glyph unicode="&#xa7;" horiz-adv-x="808" d="M23 639q0 72 24.5 124t71.5 101q25 25 26.5 44.5t-16.5 43.5q-35 47 -58.5 101.5t-23.5 113.5q0 63 20.5 125t58.5 110t92 77.5t122 29.5q106 0 219 -47q23 -10 34 -29.5t7 -39.5q-2 -12 -4 -29.5l-6 -52.5q-4 -29 -19 -29q-12 0 -32 8q-47 16 -88 28.5t-89 12.5 q-170 0 -169 -160q0 -53 24.5 -83.5t65.5 -49t94 -28t108 -19.5q63 -12 111.5 -44t81.5 -80t49 -106.5t16 -121.5q0 -61 -15 -123.5t-52 -109.5q-23 -29 -28 -45.5t18 -45.5q61 -84 61 -188q0 -59 -21.5 -114.5t-62.5 -100.5t-102.5 -71.5t-141.5 -26.5q-47 0 -97 11 t-107 34q-23 8 -29 20t-6 31q0 14 1 30.5t5 45.5q4 33 24 32q20 0 46 -10q70 -29 143 -28q72 0 127 31.5t59 97.5q0 53 -21.5 86.5t-56 55t-83 33t-99.5 19.5q-63 10 -115.5 42t-89.5 78t-57 102.5t-20 113.5zM240 639q0 -66 47.5 -109t115.5 -49q39 0 70 7.5t53.5 24.5 t35.5 48t18 78q0 33 -17.5 59.5t-43 45t-57.5 27.5t-61 9q-72 0 -116.5 -35.5t-44.5 -105.5z" />
<glyph unicode="&#xa8;" horiz-adv-x="1007" d="M23 1450q0 92 60.5 154.5t164.5 62.5q47 0 85 -21.5t63.5 -55.5t40 -75.5t14.5 -82.5q0 -92 -58.5 -139.5t-152.5 -47.5q-102 0 -159.5 59.5t-57.5 145.5zM113 1440q0 -51 31.5 -83t103.5 -32q121 0 121 119q0 53 -38 94t-98 41q-66 0 -93 -39t-27 -100zM516 1499 q0 41 15.5 79t42 67.5t62.5 47t77 17.5q104 0 169.5 -61.5t65.5 -155.5q0 -98 -54 -164.5t-151 -66.5q-104 0 -165.5 66.5t-61.5 170.5zM604 1483q0 -61 36.5 -99t102.5 -38q53 0 85 30.5t32 93.5q0 135 -143 136q-45 0 -79 -37t-34 -86z" />
<glyph unicode="&#xa9;" horiz-adv-x="1314" d="M43 741q0 135 41 254t118 206t187.5 137.5t249.5 50.5q156 0 282 -49.5t215 -140.5t137 -220t48 -287q0 -311 -170 -497t-446 -187q-147 0 -268.5 60.5t-209.5 162t-136 234.5t-48 276zM168 705q0 -123 40 -226.5t113.5 -178.5t177 -116t230.5 -41q113 0 197 42t141 113 t86 163t29 194q0 186 -44 303t-119 183.5t-176.5 91t-215.5 24.5q-113 0 -199 -48t-143.5 -125.5t-87 -177t-29.5 -201.5zM283 686q0 82 27.5 157t76.5 132t117.5 91t152.5 34q49 0 98.5 -14.5t94.5 -40t82 -63.5t59 -85q18 -35 17.5 -58.5t-39.5 -45.5q-23 -16 -38.5 -25.5 t-25.5 -15.5q-35 -23 -67 20q-78 109 -187 109q-92 0 -136 -47.5t-44 -133.5q0 -90 55.5 -127.5t145.5 -37.5q152 0 217 49q55 27 84 -23q12 -27 20 -43l11 -22q12 -27 11 -53.5t-28 -45.5q-74 -43 -143.5 -60.5t-153.5 -17.5q-88 0 -162.5 21.5t-129 67t-85 115 t-30.5 163.5z" />
<glyph unicode="&#xaa;" horiz-adv-x="544" d="M31 928q0 72 84 119q76 43 170 45q12 0 12 12v82q0 33 -18 37h-25q-18 0 -59 2l-84 2q-16 0 -21 16q-4 20 -4 80q0 16 18 16h105q47 0 80 2h8q115 0 158 -116q23 -61 22 -187v-39v-141v-65v-2q0 -43 -35 -46q-18 -2 -36.5 -3t-34.5 -3h-2q-14 0 -21 33q0 10 -2 19 q-2 8 -2 16t-6 8l-8 -4q-70 -16 -123 -16q-131 0 -166 84q-10 27 -10 49zM156 944q0 -41 73 -41q55 0 60 2q14 3 14 21q0 78 -2 84q-2 8 -10 8l-55 -6q-53 -12 -72 -45q-8 -16 -8 -23z" />
<glyph unicode="&#xab;" horiz-adv-x="1314" d="M25 727q0 16 36 76l435 436q16 16 34 16q23 0 33 -16l111 -111q14 -6 14 -18q0 -14 -20 -35l-328 -325q-6 -10 -6 -19q0 -12 12 -20q4 -4 45 -32t119 -83t120 -87t52 -40q31 -25 31 -53q0 -20 -13 -35q-18 -23 -41.5 -51.5t-50.5 -63.5q-12 -12 -28 -12q-20 0 -41 14 q-29 18 -478 387q-37 37 -36 72zM598 745q0 16 37 78l379 402q16 16 33 16q20 0 32 -16l109 -105q10 -10 10 -20q0 -16 -18 -35l-295 -293q-4 -6 -6 -10t-2 -8q0 -12 16 -19q74 -53 154.5 -112.5t171.5 -124.5q29 -20 28 -54q0 -16 -10 -32q-20 -23 -43 -50.5t-47 -60.5 q-12 -12 -29 -12q-14 0 -41 16q-23 14 -442 375q-37 31 -37 65z" />
<glyph unicode="&#xac;" horiz-adv-x="1196" d="M35 799q-12 59 0 110q10 35 27.5 55.5t52.5 22.5q2 0 65.5 1t157.5 1h207q113 0 213 -1t174 -2t92 -3q100 -12 115 -106q12 -66 12 -138t-10 -141q-12 -111 -76 -115q-16 -2 -39 -2h-29q-47 0 -62 18.5t-20 67.5l-10 154q0 10 -11 22.5t-22 10.5q-172 0 -350 -7.5 t-364 -7.5q-59 0 -88 13.5t-35 46.5z" />
<glyph unicode="&#xad;" horiz-adv-x="860" d="M25 850q0 47 19.5 88t72.5 45q43 2 114.5 4t147.5 2q78 0 148.5 -1t113.5 -3q90 -4 121 -26.5t31 -88.5q0 -49 -21.5 -79.5t-77.5 -32.5q-135 -6 -271 -12.5t-271 -6.5q-72 0 -99.5 21.5t-27.5 89.5z" />
<glyph unicode="&#xae;" horiz-adv-x="1374" d="M43 741q0 135 41 254t118 206t187.5 137.5t249.5 50.5q156 0 282 -49.5t215 -140.5t137 -220t48 -287q0 -311 -170 -497t-446 -187q-147 0 -268.5 60.5t-209.5 162t-136 234.5t-48 276zM168 705q0 -123 40 -226.5t113.5 -178.5t177 -116t230.5 -41q113 0 197 42t141 113 t86 163t29 194q0 186 -44 303t-119 183.5t-176.5 91t-215.5 24.5q-113 0 -199 -48t-143.5 -125.5t-87 -177t-29.5 -201.5zM369 1047q-2 16 3 26t29 17q70 20 134.5 32.5t111.5 12.5q113 0 177.5 -68t64.5 -170q0 -39 -11.5 -72.5t-29.5 -60.5q-8 -23 0 -41q8 -21 162 -287 q10 -25 4 -43t-29 -37q-25 -16 -72 -39q-18 -6 -32.5 -2t-24.5 27l-129 285q-4 10 -11 16t-18 2q-31 -10 -69 -10q-14 0 -15 -19q0 -86 4.5 -153.5t10.5 -120.5q4 -16 -5.5 -29.5t-31.5 -13.5h-98q-29 0 -45.5 15.5t-16.5 47.5q-2 18 -2 66q0 47 2 107.5t3 128t3 126 t3 100.5t1 52q0 18 -18 19q-18 2 -30.5 -2.5t-14.5 12.5zM600 985q0 -14 2 -68.5t8 -140.5q2 -18 9.5 -19t15.5 -1q23 0 47.5 10t45 28.5t31.5 42t9 50.5q0 47 -33 83t-98 36q-27 0 -32 -5.5t-5 -15.5z" />
<glyph unicode="&#xaf;" horiz-adv-x="983" d="M25 1477v12q0 49 65 57q20 4 117.5 8.5t275.5 8.5q223 6 318 6q57 0 63 -2q51 -8 51 -76q-8 -63 -57 -64q-23 0 -397 -6q-375 -6 -389 -6q-45 0 -47 62z" />
<glyph unicode="&#xb0;" horiz-adv-x="831" d="M47 1231q0 74 24.5 141.5t69.5 118.5t107.5 82t136.5 31q84 0 153.5 -26t119 -72t76 -112.5t26.5 -146.5q0 -68 -23.5 -130t-68.5 -108t-107.5 -74t-140.5 -28t-145.5 28t-119 73t-80 103t-28.5 120zM145 1243q0 -111 68 -172t215 -61q240 0 240 241q0 252 -273 252 q-55 0 -100 -19.5t-79 -54t-52.5 -83t-18.5 -103.5z" />
<glyph unicode="&#xb1;" horiz-adv-x="1034" d="M25 51q0 35 12 64q16 80 98 82q27 2 107 2q82 0 219 2h123q92 0 144 -1t69 -3q131 -18 137 -84q2 -8 2 -17v-16q0 -43 -12 -76q-8 -10 -14.5 -17t-14.5 -12q-37 -27 -76 -26q-141 -4 -294.5 -8t-323.5 -13h-25q-133 0 -145 68q-6 31 -6 55zM25 727v25v61q2 14 45 45 q92 33 239 43q33 4 33 33v2l-6 258v2q0 41 61 45h60h49q23 0 41 -2q49 -2 55 -72q12 -158 12 -215q0 -33 35 -32h213q76 0 92 -103q4 -31 7.5 -49t3.5 -27v-2q0 -18 -15 -41q-20 -33 -57 -39q-135 -25 -223 -24h-25h-8q-35 0 -35 -19q0 -299 -2 -301q-18 -43 -63 -45 q-53 -12 -93 -12q-35 0 -53 8q-37 14 -47 62q-2 16 -2 80v182q0 37 -25 37q-188 0 -239 24q-53 25 -53 76z" />
<glyph unicode="&#xb2;" horiz-adv-x="542" d="M45 922q0 84 45 137t125 69q129 23 129 107q0 43 -19.5 72.5t-66.5 29.5q-35 0 -47 -21.5t-18.5 -48t-12.5 -48t-26 -21.5l-56 6q-47 6 -47 47q0 61 17.5 106.5t46 75t67.5 45t80 15.5q96 0 151.5 -63.5t55.5 -155.5q0 -35 -5 -63.5t-22.5 -55.5t-52.5 -51.5t-94 -50.5 q-80 -35 -80 -84q0 -6 -3 -10.5t9 -6.5t47 -2h115q18 2 18 19l-2 63q0 10 19.5 19.5t54.5 9.5q37 0 54.5 -8.5t23.5 -26.5t5 -48t-1 -71q0 -61 -41 -78l-82 -10q-18 -2 -41 -2h-123q-68 0 -110.5 -2t-68.5 5t-35 29.5t-9 72.5z" />
<glyph unicode="&#xb3;" horiz-adv-x="499" d="M39 864q0 78 61 78h148q23 14 25.5 25.5t2.5 38.5q0 35 -31.5 47t-84.5 12h-43q-27 0 -33 51q0 41 29.5 52.5t64.5 11.5h66q31 0 30 20q-2 10 -3 25.5t-1 36.5q0 12 -17 17t-43 8t-57.5 4t-58.5 3q-29 4 -37 20.5t-8 47.5q0 8 1 16.5t1 16.5q6 39 58 39q291 0 290 -183 q0 -63 -22.5 -99t-44.5 -36q100 -33 100 -176q0 -72 -52 -117t-149 -45q-25 0 -58.5 2t-63 10.5t-50 26t-20.5 47.5z" />
<glyph unicode="&#xb4;" horiz-adv-x="700" d="M23 1198q0 23 14 45q4 4 61.5 41t167.5 105q205 125 246 147q29 14 37 14q20 0 37 -22q10 -12 20 -30.5t25 -41.5v-12q0 -51 -29 -76q-10 -10 -67.5 -45t-161.5 -92q-57 -33 -114.5 -63.5t-115.5 -63.5q-16 -8 -28 -8q-14 0 -39 10q-8 2 -29 33q-20 29 -22 47q0 4 -1 6 t-1 6z" />
<glyph unicode="&#xb5;" horiz-adv-x="870" d="M-39 -328q4 23 29.5 203t75.5 518q10 59 57 62l158 -27q41 -20 41 -45v-2q-8 -76 -13.5 -155t-13.5 -165v-4q0 -20 22 -26l152 -13h10q45 0 64 37l1 30t3 75t4 98t5 96t4 71t1 24q0 59 45 57l178 -8q49 -4 50 -49q-4 -137 -13 -269q-8 -131 -21.5 -216t-29.5 -126 q-43 -104 -164 -104q-25 0 -35 2l-278 37h-6q-25 0 -31 -31q-10 -51 -18 -131q-6 -37 -60 -51q-4 -2 -31.5 3l-60.5 11t-59.5 12t-30.5 8q-20 10 -29.5 32t-5.5 46z" />
<glyph unicode="&#xb6;" horiz-adv-x="1044" d="M23 1018q0 55 6 122.5t16 145.5q8 82 50 113t120 51q100 25 352 25h86t68 -2.5t74 -4.5t108 -6q29 -4 37 -15t12 -38q2 -14 6.5 -154.5t8.5 -408.5q2 -131 4 -263t3 -241t2 -182.5t1 -85.5q0 -59 -39 -60l-88 -2q-43 -2 -50 18.5t-12 61.5q0 6 -3 90t-5 223.5t-4 322.5 t-2 386q0 10 -7 19.5t-24 9.5q-10 0 -19 -8.5t-9 -24.5l4 -995q0 -80 -57 -101q-18 0 -71.5 -4t-103.5 -4q-29 0 -44 17.5t-15 46.5l4 635q0 27 -21.5 47t-41.5 20q-72 0 -135.5 7t-110.5 32t-73.5 74t-26.5 133zM268 1012q0 -20 23 -21l180 -2q23 0 23 23v205 q0 16 -10.5 26t-30.5 8l-154 -14q-12 -2 -20.5 -10t-8.5 -19z" />
<glyph unicode="&#xb7;" horiz-adv-x="436" d="M25 807q0 63 48 113.5t134 50.5q23 0 51.5 -12.5t53 -33t42 -47t17.5 -53.5q0 -90 -37 -134t-123 -48q-80 0 -133 40t-53 124z" />
<glyph unicode="&#xb8;" horiz-adv-x="651" d="M41 -682l8 127q2 12 11.5 17.5t21.5 5.5q313 0 313 88v4q0 61 -57 92t-168 31q-59 0 -75.5 37.5t-10.5 99.5l18 188h189v2q4 0 4 -2h-4l-6 -129q-2 -16 8 -28.5t26 -12.5q59 0 111.5 -20.5t91.5 -57t61.5 -89t22.5 -113.5q0 -86 -34.5 -143.5t-90 -92.5t-127 -49 t-145.5 -14q-55 0 -89 3t-51.5 11t-22.5 18.5t-5 26.5z" />
<glyph unicode="&#xb9;" horiz-adv-x="491" d="M43 1395q0 35 12 55.5t51 24.5q6 2 37 2q86 0 120 -7.5t38 -44.5q4 -53 6 -160.5t2 -273.5q0 -18 21 -18l43 -2q23 -2 37 -12.5t14 -30.5v-64q0 -39 -37 -39h-301q-39 6 -39 37v45q0 23 15.5 29t36 8t39 6t24.5 23l4 334q0 8 -19.5 7t-42 2t-42 19.5t-19.5 59.5z" />
<glyph unicode="&#xba;" horiz-adv-x="747" d="M23 1194q0 123 81 219q93 113 240 113q162 0 254 -105q82 -94 82 -223q0 -121 -82 -203q-86 -88 -223 -88q-139 0 -246 90q-106 90 -106 197zM117 1206q0 -100 76 -151q69 -47 184 -47q203 0 203 204q0 211 -234 211q-86 0 -153 -55q-76 -63 -76 -162z" />
<glyph unicode="&#xbb;" horiz-adv-x="1318" d="M23 430q0 27 28 55q84 59 169 120t171 122q14 8 15 23q0 8 -7 18l-331 328q-20 18 -21 34q0 12 14 19l113 113q10 16 33 16q18 0 35 -16l438 -443q37 -59 37 -74q0 -35 -37 -71l-481 -391q-27 -16 -43 -17q-14 0 -27 13q-18 20 -42 48.5t-52 67.5q-12 18 -12 35zM596 465 q0 25 29 53q10 8 54 39t122 88l153 113q16 6 17 18q0 4 -2 8t-6 11l-297 295q-20 20 -21 34q0 10 12 21l109 108q16 16 33 17q16 0 32 -17l383 -407q37 -53 37 -76q0 -37 -37 -68l-446 -380q-23 -12 -41 -13q-18 0 -29 10q-16 20 -39.5 49t-52.5 64q-10 16 -10 33z" />
<glyph unicode="&#xbc;" horiz-adv-x="1259" d="M18 182q0 20 29 60q444 565 686 868t281 344q49 37 63 37q16 0 37 -14l37 -33q29 -29 29 -58q0 -23 -27 -77q-416 -545 -647.5 -836t-274.5 -336q-29 -29 -46 -44t-35 -15q-23 0 -62 26l-45 41q-25 14 -25 37zM90 1419q0 39 12.5 59.5t53.5 24.5q6 2 39 2h84t52 -10 t28.5 -37.5t11.5 -85t1 -150t-1 -229.5q0 -20 22 -20l45 -2q25 -2 40.5 -13.5t15.5 -33.5v-68q0 -39 -41 -39h-320q-41 6 -41 37v49q0 23 19.5 30t42 10t42 8t19.5 22l4 352q0 12 -20 12t-44 4.5t-44.5 19.5t-20.5 58zM674 481q0 41 6 90.5t16 104.5q4 20 41 23t90 3 q12 -4 15.5 -7t7.5 -19q0 -6 -6 -92t-6 -90q0 -18 14 -19h104q12 2 13 21v166q4 18 17 24t54 6t56.5 -6t15.5 -31v-24q0 -23 -2 -66q-2 -23 -2 -39v-26q0 -12 -2 -21q4 -16 10 -16q29 0 45.5 3t23.5 -4t9 -30.5t2 -77.5q0 -18 -19.5 -24t-42 -7t-41 -2.5t-18.5 -13.5l6 -241 q0 -14 -9 -19.5t-38 -5.5q-84 0 -86 2h-12q-4 0 -7 13.5t-4 49t-1 109.5q0 8 1 30.5t0 46t-3 42t-9 18.5q-94 0 -143 4t-70.5 17.5t-23.5 39t-2 68.5z" />
<glyph unicode="&#xbd;" horiz-adv-x="952" d="M-70 145q0 20 29 60q444 565 686 868t281 344q49 37 63 37q16 0 37 -14l37 -33q29 -29 29 -57q0 -23 -27 -78q-416 -545 -647.5 -836t-274.5 -336q-29 -29 -46 -44t-36 -15q-23 0 -61 27l-45 41q-25 14 -25 36zM37 1366q0 33 10 52.5t47 23.5q4 2 33 2q82 0 109.5 -8.5 t31.5 -38.5q4 -47 6 -145.5t2 -247.5q0 -16 19 -17l39 -2q41 -4 47 -39v-59q0 -35 -35 -35h-272q-35 4 -35 33v43q0 25 33 33t47 11t19 5t4 3t1 7l4 301q0 8 -18 8q-16 0 -36.5 3.5t-38 16.5t-17.5 50zM500 47q0 84 45 137.5t125 69.5q129 23 129 106q0 43 -19.5 73 t-66.5 30q-35 0 -47.5 -21.5t-18.5 -48t-12 -48t-27 -21.5l-55 6q-47 6 -47 47q0 61 17.5 106t46 75t67.5 45t80 15q96 0 151.5 -63t55.5 -156q0 -35 -5.5 -63.5t-22.5 -55t-52 -51t-94 -51.5q-80 -35 -80 -84q0 -6 -3 -10t9 -6t47 -2h115q18 2 18 18l-2 64q0 10 19.5 19 t54.5 9q37 0 54 -8t23.5 -26.5t5.5 -48t-1 -70.5q0 -61 -41 -78l-82 -10q-18 -2 -41 -2h-123q-68 0 -111 -2t-68.5 5t-34.5 29.5t-9 71.5z" />
<glyph unicode="&#xbe;" horiz-adv-x="1210" d="M4 154q0 20 29 59q444 565 686 868t280 344q49 37 64 37q16 0 37 -14l37 -33q29 -29 28 -57q0 -23 -26 -78q-416 -545 -647.5 -835.5t-274.5 -335.5q-29 -29 -46 -44.5t-36 -15.5q-23 0 -61 27l-45 41q-25 14 -25 37zM23 786q0 94 69 91l47 -3q23 -2 39 -2h33 q33 0 50.5 9.5t23.5 21.5t6 25v24q0 25 -13.5 36t-35 14.5t-50 5.5t-61.5 8h-20q-31 0 -37 57q0 29 5 43t24.5 20.5t59.5 8.5t109 4q14 0 15 20q-2 16 -2 31q-2 12 -2 23v14q0 14 -18.5 20.5t-48.5 9.5t-64.5 4t-67.5 3q-33 4 -42 22.5t-9 51.5q0 10 1 19t1 19q8 45 65 46 q330 0 330 -207q0 -70 -22.5 -112t-55.5 -42q45 -4 79 -60.5t34 -138.5q0 -80 -58.5 -130t-166.5 -50q-20 0 -56.5 1t-72 9.5t-62 28t-26.5 55.5zM657 432q0 86 25 201q2 10 16.5 16t34 9.5t39.5 3.5h41q23 -11 25 -27q0 -8 -7 -94q-4 -43 -6 -66.5t-2 -25.5q0 -18 17 -19 h106q12 2 12 19v169q2 16 15.5 23.5t56.5 7.5t59.5 -6t16.5 -31v-26q0 -23 -2 -66l-4 -88q0 -18 26 -18q45 0 45 2q14 -6 16.5 -28.5t2.5 -80.5q0 -20 -19.5 -26.5t-43 -7.5t-42 -2t-18.5 -13l6 -248q0 -18 -16 -22h-121q-6 0 -21 24q-2 12 -3 81t-1 198v2q0 12 -8 12 q-33 0 -58.5 -1t-47.5 -1q-53 0 -82 7t-41 22.5t-14.5 40t-2.5 59.5z" />
<glyph unicode="&#xbf;" horiz-adv-x="884" d="M23 420q0 98 36.5 142t135.5 56q63 8 102 17.5t60.5 25t27.5 39t6 60.5v145q0 47 36 70.5t79 23.5q74 0 113.5 -24.5t39.5 -91.5q0 -31 1.5 -82t-4 -105.5t-17.5 -103.5t-37 -74q-31 -31 -69.5 -43t-77.5 -17t-78 -8.5t-67.5 -14.5t-47 -35.5t-18.5 -71.5t3 -83 t18.5 -60.5t48 -37t92.5 -12.5q35 0 68.5 6t61 21.5t45 43t17.5 68.5q0 16 -2 34t-2 34q0 53 30.5 68.5t84.5 15.5q47 0 74.5 -14.5t41 -41t16.5 -61.5t3 -73q0 -104 -38 -161t-100.5 -83.5t-140.5 -31.5t-157 -5q-119 0 -194 21.5t-118 74.5t-58 142.5t-15 226.5zM365 1245 q0 33 15 58.5t38.5 43t53.5 26.5t60 9q70 0 118 -41t48 -112q0 -72 -41 -115t-114 -43q-78 0 -128 48t-50 126z" />
<glyph unicode="&#xc0;" horiz-adv-x="1165" d="M23 1192l12 213q2 33 41 33q119 0 231.5 -2t200.5 -4q102 -2 194 -5q31 0 66 -12t64.5 -32.5t53 -47t34.5 -57.5q25 -72 49 -166t48.5 -196.5t45 -209t37 -205t26 -181.5t9.5 -140q0 -25 -11.5 -48t-42.5 -26q-72 -4 -133 -6q-53 -4 -102 -5t-66 -1q-20 0 -36.5 13.5 t-18.5 33.5q-10 82 -18 164q-8 70 -15.5 145.5t-13.5 135.5q-2 14 -19 14l-178 -14q-16 0 -16 -21l39 -547q2 -29 -11.5 -47t-35.5 -18q-10 0 -39 -2t-66 -2t-74.5 2t-64.5 8q-20 4 -30.5 15.5t-12.5 23.5q-6 39 -11 118t-7 173t-3.5 190t-1.5 168q0 14 3.5 135t7.5 353 l-92 8q-23 2 -33 19.5t-10 29.5zM152.5 1920.5q-1.5 19.5 9.5 35.5q16 29 32 44.5t41 35.5q14 10 38 6t46 -20q49 -37 111.5 -87.5t127.5 -104.5t126 -107.5t109 -98.5q14 -12 18 -28.5t-6 -30.5q-8 -12 -26.5 -40t-41.5 -52q-8 -8 -24.5 -4t-26.5 10q-57 37 -130 91 t-145.5 110.5t-137 112t-105.5 96.5q-14 12 -15.5 31.5zM428 1184l18 -281q4 -29 19 -29l156 5q12 0 18 7t4 17l-33 291q-4 18 -22 18h-137q-23 0 -23 -24v-4z" />
<glyph unicode="&#xc1;" horiz-adv-x="1202" d="M23 1051l2 196q0 33 41 33q657 0 712 -27q115 -53 142 -133q35 -100 67.5 -229t65.5 -291q45 -225 67 -412q8 -59 11.5 -100t3.5 -65q0 -23 -2 -29q-12 -33 -52 -45q-12 -6 -149 -12q-31 -2 -58 -3h-43q-45 0 -51 3q-45 23 -55 47q-10 109 -22.5 218t-24.5 226 q-2 14 -19 14q-2 0 -88 -6q-88 -6 -90 -8q-16 0 -16 -22q0 -31 4 -74q4 -37 7 -92.5t9 -126.5q18 -262 19 -289v-4q-2 -27 -45 -27h-2l-205 2q-10 0 -20.5 2t-18.5 4q-39 8 -43 35q-2 12 -6 94t-8 236q-4 143 -6.5 223t-2.5 100q0 14 3.5 135t7.5 353l-92 8q-4 2 -25 25 q-18 20 -18 41zM94 1491q0 25 19 59q8 10 290 185q131 80 209 127t105 61q29 16 45 16q25 0 47 -28q12 -16 26.5 -39t30.5 -51v-19q0 -63 -37 -94q-27 -31 -290 -176q-72 -41 -146 -80t-145 -80q-23 -12 -39 -12q-18 0 -47 16q-8 2 -35 41q-25 39 -31 60q-2 4 -2 14z M428 1026l18 -281q4 -29 19 -28l156 4q23 6 22 24l-33 291q0 18 -22 19h-137q-23 0 -23 -25v-4z" />
<glyph unicode="&#xc2;" horiz-adv-x="1206" d="M23 1192l12 213q2 33 41 33q119 0 231.5 -2t200.5 -4q102 -2 194 -5q31 0 66 -12t64.5 -32.5t53 -47t34.5 -57.5q25 -72 49 -166t48.5 -196.5t45 -209t37 -205t26 -181.5t9.5 -140q0 -25 -11.5 -48t-42.5 -26q-72 -4 -133 -6q-53 -4 -102 -5t-66 -1q-20 0 -36.5 13.5 t-18.5 33.5q-10 82 -18 164q-8 70 -15.5 145.5t-13.5 135.5q-2 14 -19 14l-178 -14q-16 0 -16 -21l39 -547q2 -29 -11.5 -47t-35.5 -18q-10 0 -39 -2t-66 -2t-74.5 2t-64.5 8q-20 4 -30.5 15.5t-12.5 23.5q-6 39 -11 118t-7 173t-3.5 190t-1.5 168q0 14 3.5 135t7.5 353 l-92 8q-23 2 -33 19.5t-10 29.5zM166 1771q0 25 18 43l340 320q37 33 66 33q33 0 67 -37q4 -6 76 -103.5t211 -289.5q16 -27 17 -45q0 -16 -11 -27l-94 -86q-18 -14 -29 -14q-10 0 -20 14l-201 295q-14 23 -31 22q-10 0 -32 -16l-256 -242q-18 -14 -29 -14q-12 0 -14 8 l-66 105q-12 14 -12 34zM428 1184l18 -281q4 -29 19 -29l156 5q12 0 18 7t4 17l-33 291q-4 18 -22 18h-137q-23 0 -23 -24v-4z" />
<glyph unicode="&#xc3;" horiz-adv-x="1220" d="M25 1532q0 12 2 20q6 31 20 43t154 105q70 47 111 71.5t55 30.5q20 10 29.5 11.5t19.5 1.5q41 0 76 -31q8 -8 45.5 -41t107.5 -92q14 -18 43 -19q20 0 39 13q111 74 211 161q14 14 29 15q27 0 69 -49q35 -37 56 -76q8 -14 8 -31q0 -20 -17 -41q-6 -10 -35.5 -39 t-82.5 -76t-87 -75.5t-47 -36.5q-16 -10 -43 -11q-43 0 -92 25q-29 20 -59.5 41t-61.5 43q-88 59 -126 59h-5q-39 -2 -122 -71q-27 -23 -51.5 -43.5t-51.5 -42.5q-23 -20 -43 -21q-18 0 -39 19q-59 47 -106 112q-6 8 -6 25zM41 1051l2 196q0 33 41 33q657 0 713 -27 q115 -53 141 -133q35 -100 67.5 -229t65.5 -291q45 -225 68 -412q8 -59 11 -100t3 -65q0 -23 -2 -29q-12 -33 -51 -45q-12 -6 -150 -12q-31 -2 -57 -3h-43q-45 0 -51 3q-45 23 -56 47q-10 109 -22 218t-25 226q-2 14 -18 14q-2 0 -88 -6q-88 -6 -90 -8q-16 0 -17 -22 q0 -31 4 -74q4 -37 7.5 -92.5t9.5 -126.5q18 -262 18 -289v-4q-2 -27 -45 -27h-2l-205 2q-10 0 -20 2t-19 4q-39 8 -43 35q-2 12 -6 94t-8 236q-4 143 -6 223t-2 100q0 14 3 135t7 353l-92 8q-4 2 -25 25q-18 20 -18 41zM446 1026l19 -281q4 -29 18 -28l156 4q23 6 23 24 l-33 291q0 18 -23 19h-137q-23 0 -23 -25v-4z" />
<glyph unicode="&#xc4;" horiz-adv-x="1150" d="M23 1192l12 213q2 33 41 33q119 0 231.5 -2t200.5 -4q102 -2 194 -5q31 0 66 -12t64.5 -32.5t53 -47t34.5 -57.5q25 -72 49 -166t48.5 -196.5t45 -209t37 -205t26 -181.5t9.5 -140q0 -25 -11.5 -48t-42.5 -26q-72 -4 -133 -6q-53 -4 -102 -5t-66 -1q-20 0 -36.5 13.5 t-18.5 33.5q-10 82 -18 164q-8 70 -15.5 145.5t-13.5 135.5q-2 14 -19 14l-178 -14q-16 0 -16 -21l39 -547q2 -29 -11.5 -47t-35.5 -18q-10 0 -39 -2t-66 -2t-74.5 2t-64.5 8q-20 4 -30.5 15.5t-12.5 23.5q-6 39 -11 118t-7 173t-3.5 190t-1.5 168q0 14 3.5 135t7.5 353 l-92 8q-23 2 -33 19.5t-10 29.5zM46 1747q0 92 60.5 154.5t164.5 62.5q47 0 85 -21.5t63.5 -55.5t40 -75.5t14.5 -82.5q0 -92 -58.5 -139.5t-152.5 -47.5q-102 0 -159.5 59.5t-57.5 145.5zM136 1737q0 -51 31.5 -83t103.5 -32q121 0 121 119q0 53 -38 94t-98 41 q-66 0 -93 -39t-27 -100zM428 1184l18 -281q4 -29 19 -29l156 5q12 0 18 7t4 17l-33 291q-4 18 -22 18h-137q-23 0 -23 -24v-4zM539 1796q0 41 15.5 79t42 67.5t62.5 47t77 17.5q104 0 169.5 -61.5t65.5 -155.5q0 -98 -54 -164.5t-151 -66.5q-104 0 -165.5 66.5t-61.5 170.5 zM627 1780q0 -61 36.5 -99t102.5 -38q53 0 85 30.5t32 93.5q0 135 -143 136q-45 0 -79 -37t-34 -86z" />
<glyph unicode="&#xc5;" horiz-adv-x="1202" d="M23 1192l12 213q2 33 41 33q119 0 231.5 -2t200.5 -4q102 -2 194 -5q31 0 66 -12t64.5 -32.5t53 -47t34.5 -57.5q25 -72 49 -166t48.5 -196.5t45 -209t37 -205t26 -181.5t9.5 -140q0 -25 -11.5 -48t-42.5 -26q-72 -4 -133 -6q-53 -4 -102 -5t-66 -1q-20 0 -36.5 13.5 t-18.5 33.5q-10 82 -18 164q-8 70 -15.5 145.5t-13.5 135.5q-2 14 -19 14l-178 -14q-16 0 -16 -21l39 -547q2 -29 -11.5 -47t-35.5 -18q-10 0 -39 -2t-66 -2t-74.5 2t-64.5 8q-20 4 -30.5 15.5t-12.5 23.5q-6 39 -11 118t-7 173t-3.5 190t-1.5 168q0 14 3.5 135t7.5 353 l-92 8q-23 2 -33 19.5t-10 29.5zM259 1773q0 63 23.5 114.5t64.5 85.5t97 52.5t122 18.5q115 0 180 -80t65 -205q0 -66 -21.5 -115t-56 -83t-80.5 -50t-95 -16q-63 0 -117.5 16t-94.5 50t-63.5 87.5t-23.5 124.5zM363 1745q0 -53 42 -93.5t144 -40.5q156 0 156 154 q0 84 -41 129t-133 45q-168 0 -168 -194zM428 1184l18 -281q4 -29 19 -29l156 5q12 0 18 7t4 17l-33 291q-4 18 -22 18h-137q-23 0 -23 -24v-4z" />
<glyph unicode="&#xc6;" horiz-adv-x="1597" d="M23 1036l2 199q0 4 18 16q10 10 45 15q47 4 113 4h157h185q100 0 223 -2q242 -4 392.5 -6t215.5 -7q41 -4 41 -36l-2 -338q0 -23 -14 -31q-18 -10 -76 -16q-27 -4 -45 -5h-29h-10q-16 4 -25 23q-4 16 -8 49t-12 86q-2 27 -27 27h-2l-114 -8l-9 -304q0 -12 25 -14l162 -12 q14 0 14 -17v-2l-6 -172q0 -18 -25 -18l-159 -33q-25 -6 -25 -22l2 -170q0 -14 21 -17l194 -14v104q14 53 43 64l139 8h3q29 0 32 -37l45 -389v-8q0 -29 -26 -29h-187h-514q-33 0 -55 47q-10 109 -22.5 218.5t-24.5 224.5q-6 14 -10 14q-12 0 -95 -6q-90 -6 -92 -8 q-16 -4 -16 -13l6 -73q4 -37 7 -93.5t9 -130.5q10 -121 13.5 -193.5t3.5 -94.5v-11q-2 -27 -45 -26h-2l-205 2q-10 0 -20.5 2t-18.5 4q-39 8 -43 35q-2 12 -6 95t-8 237q-4 141 -6.5 221t-2.5 100q0 14 3.5 135t7.5 355l-92 6q-4 2 -25 24q-18 20 -18 41zM428 1012l18 -279 q2 -31 19 -31l156 5q23 10 22 26l-33 289q0 18 -22 18h-137q-23 0 -23 -24v-4z" />
<glyph unicode="&#xc7;" horiz-adv-x="942" d="M25 528q0 98 9 230.5t28.5 259.5t51 230.5t76.5 148.5q35 35 98.5 54t123.5 19q41 0 101 -8t122.5 -24.5t119 -44t91.5 -66.5q20 -23 30.5 -52.5t15.5 -62t6 -66.5t1 -61q0 -53 -3 -111.5t-11 -119.5q-4 -29 -17.5 -49.5t-44.5 -16.5l-229 21q-20 2 -28.5 15.5t-8.5 35.5 q0 8 3 34t7 58.5t7.5 66.5t3.5 62q0 72 -35 101.5t-101 29.5q-53 0 -91 -31.5t-61.5 -107.5t-34.5 -204t-11 -320q0 -57 2 -112.5t19.5 -99.5t56 -70.5t112.5 -26.5q25 0 43.5 11t31.5 45t22.5 94.5t17.5 158.5q4 53 51 53q8 0 29 -4l225 -57q16 -4 26.5 -17.5t15.5 -30 t6 -34t1 -31.5q0 -68 -6 -150.5t-32.5 -155.5t-78 -123t-139.5 -50q-31 0 -68.5 2t-80.5 6q-6 0 -13.5 -2t-13.5 -23q-2 -16 8 -28.5t27 -12.5q59 0 111.5 -20.5t91.5 -57t61.5 -89t22.5 -113.5q0 -86 -35 -143.5t-90.5 -92t-127 -49t-145.5 -14.5q-55 0 -89 3t-51 11 t-22.5 18.5t-5.5 26.5l9 127q2 12 11 17.5t21 5.5q313 0 314 88v4q0 61 -57.5 92t-168.5 31q-59 0 -75.5 38t-10.5 99l9 90q4 29 -5.5 34t-15.5 7q-96 29 -143 76q-37 37 -55.5 94t-25.5 120.5t-8 126t-1 107.5z" />
<glyph unicode="&#xc8;" horiz-adv-x="1048" d="M23 -18v184q0 18 26 31l166 30l-14 863q0 10 -29 14h-82q-20 0 -20 41v4l4 192q2 12 35 13l772 4q27 0 34 -8q8 -8 9 -27l-2 -362q0 -20 -13 -29q-18 -12 -82 -19q-39 -4 -60.5 -6t-27.5 -2q-16 2 -24 25q-4 16 -9.5 53t-13.5 92q-2 27 -28 27h-2l-168 -8l-7 -322 q0 -16 27 -16l213 -13q16 0 16 -16v-2l-6 -186q0 -18 -24 -19l-217 -33q-25 -4 -25 -22l2 -182q0 -14 21 -17l251 -16v110q14 61 46 68l149 8h2q31 0 33 -39l47 -413v-11q0 -33 -29 -32l-207 4q-102 2 -162.5 3t-82.5 1q-16 0 -77 -2t-165 -6q-96 -4 -149.5 -6.5t-65.5 -2.5 h-2q-59 4 -59 50zM109 1812q0 14 8 29q16 28 57 55q20 20 49 21q23 0 45 -14q10 -6 75 -49.5t181 -122.5q231 -158 246 -177q16 -12 16 -32q0 -6 -4 -19q-4 -6 -10 -17t-20 -28q-25 -31 -39 -35q-8 -2 -14.5 -3t-12.5 -1q-18 0 -27 8q-27 10 -272 168q-258 166 -264 187 q-14 14 -14 30z" />
<glyph unicode="&#xc9;" horiz-adv-x="1048" d="M23 -18v184q0 10 6 18.5t20 12.5l166 30l-14 842q0 35 -29 35h-74q-10 0 -19 10t-9 31v10q0 14 1 51t5 115q0 6 8 19.5t25 13.5l772 4q20 0 31.5 -6t11.5 -29l-2 -362q0 -10 -7.5 -19.5t-15.5 -11.5l-160 -25q-20 -4 -24 25l-23 145q-2 27 -28 27h-11q-14 0 -50 -2 t-109 -6l-7 -310q0 -27 27 -26l209 -15q8 0 14 -9t6 -19v-2l-6 -158q0 -16 -9 -24.5t-21 -10.5l-211 -33q-25 -4 -25 -22l2 -170q0 -16 11.5 -22.5t21.5 -6.5l239 -16v110q0 33 14.5 49.5t31.5 18.5l149 8h2q31 0 33 -39l47 -413v-11q0 -33 -29 -32q-115 2 -226.5 5 t-225.5 3q-115 0 -228.5 -8.5t-228.5 -8.5h-2q-59 0 -59 50zM170 1507q0 23 14 45q4 4 61.5 41t167.5 105q205 125 246 147q29 14 37 14q20 0 37 -22q10 -12 20 -30.5t25 -41.5v-12q0 -51 -29 -76q-10 -10 -67.5 -45t-161.5 -92q-57 -33 -114.5 -63.5t-115.5 -63.5 q-16 -8 -28 -8q-14 0 -39 10q-8 2 -29 33q-20 29 -22 47q0 4 -1 6t-1 6z" />
<glyph unicode="&#xca;" horiz-adv-x="1064" d="M25 -18v184q0 18 26 31l166 30l-14 863q0 10 -29 14h-82q-20 0 -20 41v4l4 192q2 12 35 13l772 4q27 0 35 -8t8 -27l-2 -362q0 -20 -13 -29q-18 -12 -82 -19q-39 -4 -60 -6t-28 -2q-16 2 -24 25q-4 16 -9.5 53t-13.5 92q-2 27 -28 27h-2l-168 -8l-7 -322q0 -16 27 -16 l213 -13q16 0 16 -16v-2l-6 -186q0 -18 -24 -19l-217 -33q-25 -4 -25 -22l2 -182q0 -14 21 -17l252 -16v110q14 61 45 68l149 8h2q31 0 33 -39l47 -413v-11q0 -33 -29 -32l-207 4q-102 2 -162.5 3t-82.5 1q-16 0 -76.5 -2t-165.5 -6q-96 -4 -149.5 -6.5t-65.5 -2.5h-2 q-59 4 -59 50zM25 1614q0 25 20 41l418 315q39 31 82 31q35 0 82 -35q6 -6 93 -102.5t259 -282.5q18 -29 18 -45q0 -18 -12 -27l-115 -84q-20 -14 -36 -14q-12 0 -25 12l-246 291q-18 23 -39 23q-16 0 -39 -17l-313 -235q-16 -14 -35 -15q-10 0 -18 7l-82 102q-12 14 -12 35 z" />
<glyph unicode="&#xcb;" horiz-adv-x="1048" d="M23 -18v184q0 18 26 31l166 30l-14 863q0 10 -29 14h-82q-20 0 -20 41v4l4 192q2 12 35 13l772 4q27 0 34 -8q8 -8 9 -27l-2 -362q0 -20 -13 -29q-18 -12 -82 -19q-39 -4 -60.5 -6t-27.5 -2q-16 2 -24 25q-4 16 -9.5 53t-13.5 92q-2 27 -28 27h-2l-168 -8l-7 -322 q0 -16 27 -16l213 -13q16 0 16 -16v-2l-6 -186q0 -18 -24 -19l-217 -33q-25 -4 -25 -22l2 -182q0 -14 21 -17l251 -16v110q14 61 46 68l149 8h2q31 0 33 -39l47 -413v-11q0 -33 -29 -32l-207 4q-102 2 -162.5 3t-82.5 1q-16 0 -77 -2t-165 -6q-96 -4 -149.5 -6.5t-65.5 -2.5 h-2q-59 4 -59 50zM23 1587q0 66 43 119q54 68 163 68q86 0 133 -84q35 -63 35 -119q0 -59 -30 -105q-45 -70 -142 -69q-98 0 -157 71q-45 53 -45 119zM94 1569q0 -90 125 -90q106 0 107 104q0 47 -33 82t-86 35q-113 0 -113 -131zM535 1630q0 74 51 131q49 56 121 56 q100 0 159 -66q47 -57 47 -125q0 -72 -34 -129q-49 -76 -146 -76q-96 0 -151 68q-47 59 -47 141zM612 1616q0 -61 45 -94q33 -27 86 -27q92 0 93 111q0 119 -125 118q-25 0 -58 -22q-41 -31 -41 -86z" />
<glyph unicode="&#xcc;" horiz-adv-x="1142" d="M23 1237q0 29 5 67.5t13 90.5q6 47 29 71q23 23 41 23q10 0 235 5t670 15q14 0 31 -22q16 -23 16 -45l12 -189v-4q0 -33 -45 -41l-53 -12q-70 -16 -144.5 -31.5t-152.5 -34.5q-20 -6 -23 -32l21 -674q0 -35 14 -35q6 0 8 2l291 29q20 0 25 -29q10 -143 16 -226t6 -106v-6 q-2 -33 -32 -51q-98 -2 -209 -2q-109 0 -234 -2q-29 0 -133 -8t-291 -21h-14q-55 0 -57 31l-23 293v4q0 33 43 43q57 12 116.5 25.5t125.5 29.5q18 2 18 17q0 2 -1 4t-1 4l-12 696q0 29 -29 33l-233 18q-47 10 -47 47q0 4 -1 10.5t-1 12.5zM106 1939q0 16 9 31q8 16 22.5 31 t34.5 29q20 20 49 20q23 0 45 -14q27 -14 256 -185q231 -170 246 -188q16 -12 16 -33q0 -6 -4 -22q-2 -10 -30 -45q-29 -35 -39 -39q-8 -2 -13.5 -3t-11.5 -1q-18 0 -29 10q-25 6 -272 178q-258 178 -264 199q-14 14 -15 32z" />
<glyph unicode="&#xcd;" horiz-adv-x="1142" d="M23 1237q0 29 5 67.5t13 90.5q6 47 29 71q23 23 41 23q10 0 235 5t670 15q14 0 31 -22q16 -23 16 -45l12 -189v-4q0 -33 -45 -41l-53 -12q-70 -16 -144.5 -31.5t-152.5 -34.5q-20 -6 -23 -32l21 -674q0 -35 14 -35q6 0 8 2l291 29q20 0 25 -29q10 -143 16 -226t6 -106v-6 q-2 -33 -32 -51q-98 -2 -209 -2q-109 0 -234 -2q-29 0 -133 -8t-291 -21h-14q-55 0 -57 31l-23 293v4q0 33 43 43q57 12 116.5 25.5t125.5 29.5q18 2 18 17q0 2 -1 4t-1 4l-12 696q0 29 -29 33l-233 18q-47 10 -47 47q0 4 -1 10.5t-1 12.5zM98 1671q0 23 19 58 q10 12 286 182q123 76 201 122t107 62q31 18 47 19q23 0 43 -29q10 -16 25.5 -39t33.5 -51v-15q0 -63 -37 -94q-29 -31 -288 -174q-72 -39 -142.5 -78t-142.5 -80q-20 -14 -39 -14q-14 0 -47 16q-14 6 -35 43q-25 41 -29 58q-2 4 -2 14z" />
<glyph unicode="&#xce;" horiz-adv-x="1142" d="M23 999q0 29 5 68t13 90q6 47 29 72q23 23 41 22q10 0 235 5.5t670 15.5q14 0 31 -23q16 -23 16 -45l12 -188v-4q0 -33 -45 -41l-53 -13q-70 -16 -144.5 -31.5t-152.5 -33.5q-20 -6 -23 -33l21 -674q0 -35 14 -34q6 0 8 2l291 28q20 0 25 -28q10 -143 16 -226.5t6 -105.5 v-6q-2 -33 -32 -52q-98 -2 -209 -2q-109 0 -234 -2q-29 0 -133 -8t-291 -20h-14q-55 0 -57 30l-23 293v4q0 33 43 43q57 12 116.5 25.5t125.5 30.5q18 2 18 16q0 2 -1 4t-1 4l-12 697q0 29 -29 32l-233 19q-47 10 -47 47q0 4 -1 10t-1 12zM39 1622q0 31 20 49l430 373 q43 37 84 37q45 0 86 -43q8 -8 365 -455q18 -31 18 -53q0 -23 -12 -31l-119 -100q-23 -18 -37 -19q-14 0 -26 17l-254 344q-18 27 -39 26q-18 0 -41 -20l-324 -279q-16 -16 -34 -16q-12 0 -21 8l-84 121q-12 18 -12 41z" />
<glyph unicode="&#xcf;" horiz-adv-x="1142" d="M16 1176l17 186q6 59 71 61l889 21q25 0 43.5 -18.5t20.5 -49.5l12 -192q4 -31 -45 -41q-2 -2 -18.5 -6t-42 -10.5t-56 -13.5t-63.5 -13q-76 -16 -170 -35q-23 -6 -23 -31l21 -676q0 -20 14 -27t31 -5l258 28q18 2 25.5 -8t9.5 -24l22 -334q2 -16 -12 -33.5t-31 -17.5 q-102 0 -204.5 -1.5t-227.5 -3.5q-29 0 -133.5 -8t-290.5 -20q-18 -2 -44 3t-28 27l-20 285q-2 16 8 33.5t33 21.5l227 52q31 6 31 45l-12 680q0 29 -29 32l-233 19q-35 4 -44.5 24.5t-5.5 49.5zM23 1692q0 76 49 135q63 76 188 76q96 0 152 -97q39 -72 39 -133 q0 -70 -33 -121q-47 -78 -164 -77q-117 0 -180 79q-51 63 -51 138zM104 1669q1 -102 144 -102q121 0 121 119q0 51 -37 94q-35 41 -99 41q-129 0 -129 -152zM608 1741q0 84 58 147q57 64 139 64q117 0 182 -74q53 -63 53 -143q0 -82 -41 -148q-55 -84 -163 -84 q-113 0 -174 76q-53 66 -54 162zM696 1724q0 -70 52 -106q39 -31 98 -31q106 0 106 125q0 135 -143 135q-33 0 -66 -24q-47 -35 -47 -99z" />
<glyph unicode="&#xd0;" horiz-adv-x="1236" d="M25 1333q-2 63 159 80q86 8 136.5 12.5t68.5 4.5q180 0 317.5 -62.5t229.5 -172.5t139 -257t47 -315q0 -160 -67.5 -283t-178 -206t-253 -125t-289.5 -42q-31 0 -43 24.5t-15 51.5l-30 426l-24.5 -14t-20.5 -11q-10 -6 -19 -12q-20 -12 -37.5 -10t-38.5 12q-6 4 -17 18.5 t-20.5 32t-16.5 35t-7 27.5t1 21.5t15 21.5q20 12 45 28q23 14 53.5 35t71.5 45l-22 336q-2 29 -27.5 42.5t-66.5 13.5q-76 0 -78 57q-2 23 -3 55.5t-3 61.5q-2 35 -6 69zM496 993l8 -129l94 56q27 16 45.5 17t38.5 -26q16 -20 33.5 -46.5t17.5 -53.5q0 -55 -33 -80 q-18 -23 -182 -115l12 -241q0 -16 19 -17h4q61 4 106.5 34t74 76t43 101.5t11.5 110.5q-2 63 -20 124.5t-51 111t-80 79t-109 29.5q-23 0 -28.5 -3t-3.5 -28z" />
<glyph unicode="&#xd1;" horiz-adv-x="1425" d="M22 1323l19 180q2 20 13 32.5t34 8.5q84 -12 164 -20q68 -10 141.5 -18.5t126.5 -16.5q37 -6 62 -47q39 -70 81 -146q37 -66 81 -145.5t87 -157.5q16 -29 36 -34t30 34q29 111 49.5 214.5t38.5 213.5q8 51 80 52q74 0 119 -4.5t61 -10.5q23 -8 34 -24.5t9 -34.5 q-2 -14 -9 -92t-18 -226q-10 -152 -15 -266.5t-7 -217.5t-2 -210v-240q0 -31 -1 -51t-8 -33.5t-23.5 -21.5t-49.5 -12q-57 -8 -103.5 -11.5t-80.5 -3.5q-45 0 -88 13.5t-62 56.5q-14 29 -76.5 201t-183.5 503q-6 14 -16.5 15.5t-14.5 -15.5q-4 -45 -9 -142t-11 -251 q-4 -129 -7 -213t-3 -125q0 -16 -3.5 -34.5t-13.5 -24.5q-31 -18 -153 -18q-16 0 -43 3t-52.5 12t-44 25.5t-18.5 40.5q0 10 3 60.5t11 171.5q4 61 7.5 122.5t7.5 157t9 238.5t13 365q0 18 -4 30.5t-27 16.5q-20 4 -51 12t-74 18q-45 12 -45 70zM307 1712.5q6 20.5 17 28.5 q6 4 34.5 24.5t79.5 53.5q101 68 121 76q49 20 92 -15q49 -43 111 -98q33 -25 61 -4q41 29 79 57.5t75 61.5q18 18 34.5 7t39.5 -34q12 -16 21 -29.5t18 -23.5q14 -29 -7 -55q-4 -6 -26.5 -27t-61.5 -55q-41 -37 -63.5 -57.5t-30.5 -24.5q-23 -16 -49.5 -9t-50.5 19 q-23 14 -44.5 29.5t-43.5 29.5q-35 25 -58.5 35t-40.5 10q-35 -6 -165 -116q-29 -29 -60 0q-37 27 -78 82q-10 14 -4 34.5z" />
<glyph unicode="&#xd2;" horiz-adv-x="1026" d="M27 567q0 29 1 76t3 113q4 156 26.5 273.5t63.5 199.5q117 236 391 235h14q201 -2 320 -143q100 -119 106 -291q2 -35 2 -76v-90v-110q0 -57 -2 -125q-2 -123 -4 -193.5t-6 -91.5q-10 -78 -16 -123t-11 -55q-41 -152 -135 -197q-98 -47 -241 -47q-270 0 -420 141 q-92 86 -92 504zM156 1903q0 14 6 30q14 23 67 66q20 18 58 18h4q27 0 55 -14q25 -16 295 -197q141 -94 213 -145t80 -59q18 -16 18 -37q0 -6 -4 -23q-6 -14 -37 -51t-45 -41q-8 -2 -16 -2h-12q-25 0 -35 8q-23 8 -322 195q-303 190 -311 215q-14 14 -14 37zM248 629 q0 -104 16 -180q25 -104 60 -138q33 -31 112 -30h8q162 2 162 331q0 51 -5 121t-15 160q-12 117 -35 151q-31 47 -111 48q-126 -1 -153 -101q-10 -29 -23 -127q-8 -63 -12 -122.5t-4 -112.5z" />
<glyph unicode="&#xd3;" horiz-adv-x="1026" d="M27 594q0 29 1 76t3 112q4 156 26.5 274t63.5 199q117 236 391 236h14q201 -2 320 -143q100 -119 106 -291q2 -35 2 -76v-90v-111q0 -57 -2 -125q-2 -123 -4 -193.5t-6 -90.5q-10 -78 -16 -123t-11 -55q-41 -152 -135 -197q-98 -47 -241 -47q-270 0 -420 141 q-92 86 -92 504zM115 1559q0 23 14 49q35 37 537 329q29 16 43 17q16 0 39 -25q10 -12 22 -32.5t29 -49.5v-18q0 -53 -31 -80q-10 -12 -75.5 -51t-184.5 -105l-258 -143q-18 -12 -35 -12q-14 0 -41 14q-10 6 -31 39q-10 16 -16 28.5t-10 22.5q-2 4 -2 17zM248 655 q0 -104 16 -180q25 -104 60 -137q33 -31 112 -31h8q162 2 162 332q0 51 -5 120.5t-15 160.5q-12 117 -35 151q-31 47 -111 47q-126 0 -153 -100q-10 -29 -23 -127q-8 -63 -12 -122.5t-4 -113.5z" />
<glyph unicode="&#xd4;" horiz-adv-x="1099" d="M20 600q0 88 2.5 188.5t16.5 201t43 191.5t83 161.5t137 112.5t204 42q141 0 228 -46t134 -127t63.5 -190.5t16.5 -236.5q0 -217 -10 -371.5t-31.5 -259t-55.5 -166t-80 -94.5t-105.5 -42t-133.5 -9q-178 0 -280 43t-153.5 126t-65 202.5t-13.5 273.5zM23 1708 q0 31 22 53l432 408q45 41 84 41q43 0 86 -47q6 -8 96.5 -132t268.5 -366q18 -35 18 -59q0 -20 -12 -33l-119 -109q-23 -18 -37 -18t-26 16l-254 375q-23 31 -39 31q-14 0 -41 -23l-326 -305q-23 -18 -37 -18q-12 0 -18 8l-84 133q-14 20 -14 45zM242 662q0 -53 3 -114 t21.5 -113t56 -87t107.5 -35q47 0 80 14.5t52.5 51.5t28.5 101.5t9 164.5q0 160 -7 255t-25.5 145.5t-50.5 64.5t-83 14q-47 0 -83 -22.5t-60.5 -75.5t-36.5 -142t-12 -222z" />
<glyph unicode="&#xd5;" horiz-adv-x="1050" d="M27 508q0 29 1 76t3 112q4 156 26.5 273.5t63.5 199.5q117 236 391 236h14q201 -2 320 -143q100 -119 106 -291q2 -35 2 -76v-90v-111q0 -57 -2 -125q-2 -123 -4 -193.5t-6 -90.5q-10 -78 -16 -123t-11 -56q-41 -152 -135 -196q-98 -47 -241 -47q-270 0 -420 141 q-92 86 -92 504zM57 1593q0 10 2 17q2 27 19 39q16 14 133 88q59 39 95 61.5t46 26.5q16 8 24.5 9t18.5 1q37 0 66 -27l131 -114q12 -16 35 -17q16 0 35 13q59 41 105 74.5t75 62.5q14 14 26 14q18 0 60 -43q33 -35 47 -65q8 -14 8 -27q0 -16 -14 -35q-12 -16 -105 -98 q-47 -41 -74.5 -65.5t-37.5 -30.5q-16 -10 -39 -11q-16 0 -35 5.5t-41 17.5q-27 18 -52.5 35.5t-52.5 36.5q-76 51 -108 51h-4q-39 -4 -195 -135q-23 -18 -37 -19q-12 0 -32 17q-47 33 -93 96q-6 8 -6 22zM248 569q0 -104 16 -180q25 -104 60 -137q33 -31 112 -31h8 q162 2 162 332q0 51 -5 120.5t-15 160.5q-12 117 -35 151q-31 47 -111 47q-126 0 -153 -100q-10 -29 -23 -127q-8 -63 -12 -122.5t-4 -113.5z" />
<glyph unicode="&#xd6;" horiz-adv-x="1071" d="M78 778q0 88 2 188.5t16.5 201t43 191.5t82.5 161.5t137 112.5t204 42q141 0 228.5 -46t134.5 -127t63.5 -190.5t16.5 -236.5q0 -217 -10.5 -371.5t-32 -259t-55.5 -166t-80 -94t-105 -42t-133 -9.5q-178 0 -280.5 43t-154 126t-64.5 203t-13 273zM89 1931 q0 92 60.5 154.5t164.5 62.5q47 0 85 -21.5t63.5 -55.5t40 -75.5t14.5 -82.5q0 -92 -58.5 -139.5t-152.5 -47.5q-102 0 -159.5 59.5t-57.5 145.5zM179 1921q0 -51 31.5 -83t103.5 -32q121 0 121 119q0 53 -38 94t-98 41q-66 0 -93 -39t-27 -100zM299 840q0 -53 3 -113.5 t21.5 -113t56.5 -87t107 -34.5q47 0 80 14t52.5 51t28.5 101.5t9 164.5q0 160 -7 255.5t-25.5 145.5t-50 64.5t-82.5 14.5q-47 0 -83 -23t-60.5 -76t-37 -142t-12.5 -222zM582 1980q0 41 15.5 79t42 67.5t62.5 47t77 17.5q104 0 169.5 -61.5t65.5 -155.5q0 -98 -54 -164.5 t-151 -66.5q-104 0 -165.5 66.5t-61.5 170.5zM670 1964q0 -61 36.5 -99t102.5 -38q53 0 85 30.5t32 93.5q0 135 -143 136q-45 0 -79 -37t-34 -86z" />
<glyph unicode="&#xd7;" horiz-adv-x="1030" d="M22 368.5q1 8.5 13 24.5l4 5t24.5 33t62.5 85t120 164q10 16 2.5 30.5t-19.5 30.5q-47 59 -93 124t-97 130q-10 10 -7 19.5t13 19.5q47 47 76 73t44 36t22.5 12t11.5 4q10 4 22 3t27 -15l237 -246q20 -20 41 6q53 49 111.5 99.5t124.5 103.5q14 6 29.5 8t25.5 -8 q59 -49 89 -83t40 -54q10 -16 8 -28.5t-10 -24.5q-16 -29 -50 -68t-67.5 -77t-58.5 -69.5t-25 -43.5q0 -10 2 -15q37 -59 77 -125.5t85 -138.5q12 -23 13.5 -44.5t-21.5 -37.5q-8 -6 -27.5 -21.5t-41 -32t-41 -29.5t-27.5 -13q-14 0 -35 24q-59 61 -98 105.5t-61.5 73 t-34 44t-15.5 19.5q-10 12 -31 12q-18 0 -32 -12q-66 -57 -140.5 -111.5t-154.5 -113.5q-8 -8 -23 -2q-8 6 -22.5 17t-30.5 24.5t-30.5 29t-22.5 29.5q-10 16 -9 24.5z" />
<glyph unicode="&#xd8;" horiz-adv-x="1026" d="M20 41q0 25 15 59q4 14 14 41t27 68q-25 61 -36 175t-11 280v79q0 43 2 88q4 156 26.5 274t63.5 200q117 236 393 235h12q35 0 64 -6q16 41 26.5 64.5t12.5 27.5q41 59 61 60q8 0 25 -7l82 -34q45 -31 45 -82q0 -20 -11 -58q-6 -12 -24 -67q135 -121 145 -332 q2 -35 2 -76v-90v-111q0 -57 -2 -124q-4 -123 -5 -194t-5 -91q-10 -78 -16 -123t-11 -55q-41 -152 -135 -197q-98 -47 -241 -47q-145 0 -258 43l-7 -14q-35 -90 -73 -90q-23 0 -51 14l-95 49q-35 16 -35 41zM238 776q0 -33 3 -62.5t7 -58.5l198 512l-6 2q-18 6 -34 7 q-49 0 -89 -43q-28 -31 -36 -62q-43 -102 -43 -295zM403 356h50q164 0 163 273q0 47 -5 106.5t-15 130.5q-14 -35 -61.5 -161.5t-131.5 -348.5z" />
<glyph unicode="&#xd9;" horiz-adv-x="1210" d="M25 344q0 8 2 127t8 348q4 205 7 318.5t3 138.5v6v4q0 49 57 49l258 6h2q59 0 60 -71q0 -23 2 -136.5t6 -322.5q6 -416 6 -430q6 -158 144 -158q88 0 112 19q37 25 56 123q14 88 30 462q12 297 13 377q0 39 106 39h18q94 -4 197 -24q31 -6 31 -60q0 -10 -2 -117.5 t-6 -316.5q-4 -229 -6.5 -356t-2.5 -154q-2 -135 -3 -253t-1 -224q0 -35 -16 -51q-29 -25 -117 -25h-12q-59 2 -97 5t-61 11q-43 14 -49 62q-2 29 -2 55q0 25 -2 45q-4 29 -37 29h-338q-86 0 -154.5 28.5t-121.5 94.5q-90 115 -90 352zM115 1823q0 20 8 37q17 34 72 75 q20 20 61 21q35 0 61 -14q14 -8 92 -64.5t224 -163.5q150 -111 228.5 -168t86.5 -67q20 -14 21 -43q0 -8 -4 -25q-4 -8 -14.5 -21.5t-26.5 -35.5q-35 -45 -50 -47q-18 -6 -30 -7q-20 0 -35 13q-16 4 -101 60.5t-245 162.5q-324 217 -332 246q-16 20 -16 41z" />
<glyph unicode="&#xda;" horiz-adv-x="1210" d="M25 428q0 8 2 127t8 348q4 205 7 318.5t3 138.5v6v4q0 49 57 49l258 6h2q59 0 60 -71q0 -23 2 -136.5t6 -322.5q6 -416 6 -430q6 -158 144 -158q88 0 112 19q37 25 56 123q14 88 30 462q12 297 13 377q0 39 106 39h18q94 -4 197 -24q31 -6 31 -60q0 -10 -2 -117.5 t-6 -316.5q-4 -229 -6.5 -356t-2.5 -154q-2 -135 -3 -253t-1 -224q0 -35 -16 -51q-29 -25 -117 -25h-12q-59 2 -97 5t-61 11q-43 14 -49 62q-2 29 -2 55q0 25 -2 45q-4 29 -37 29h-338q-86 0 -154.5 28.5t-121.5 94.5q-90 115 -90 352zM168 1587q0 29 20 58q10 16 314 200 q139 86 223 136.5t113 66.5q33 18 51 18q25 0 49 -30q12 -16 27.5 -41t35.5 -58v-18q1 -69 -40 -102q-29 -33 -316 -191l-311 -172q-12 -6 -21.5 -10t-19.5 -4q-18 0 -51 18q-12 4 -39 45q-23 35 -33 64q-2 6 -2 20z" />
<glyph unicode="&#xdb;" horiz-adv-x="1210" d="M25 428q0 8 2 127t8 348q4 205 7 318.5t3 138.5v6v4q0 49 57 49l258 6h2q59 0 60 -71q0 -23 2 -136.5t6 -322.5q6 -416 6 -430q6 -158 144 -158q88 0 112 19q37 25 56 123q14 88 30 462q12 297 13 377q0 39 106 39h18q94 -4 197 -24q31 -6 31 -60q0 -10 -2 -117.5 t-6 -316.5q-4 -229 -6.5 -356t-2.5 -154q-2 -135 -3 -253t-1 -224q0 -35 -16 -51q-29 -25 -117 -25h-12q-59 2 -97 5t-61 11q-43 14 -49 62q-2 29 -2 55q0 25 -2 45q-4 29 -37 29h-338q-86 0 -154.5 28.5t-121.5 94.5q-90 115 -90 352zM55 1645q0 27 23 45l446 354 q45 37 88 37q47 0 88 -43q6 -6 99.5 -112.5t277.5 -317.5q20 -29 21 -52q0 -20 -15 -28l-122 -94q-23 -16 -39 -17q-14 0 -27 15l-262 323q-20 27 -41 27q-16 0 -41 -19l-338 -264q-23 -18 -39 -18q-6 0 -18 8l-86 117q-14 16 -15 39z" />
<glyph unicode="&#xdc;" horiz-adv-x="1310" d="M90 399q0 236 6 476.5t15 482.5q0 23 14 42t43 19l258 6q61 0 61 -71l15 -889q2 -78 48 -118t107 -40q76 0 120 29t48 119l27 784q2 53 29.5 72.5t81.5 15.5l192 -16q25 -2 42 -22.5t17 -53.5q0 -356 -13 -706.5t-13 -706.5q0 -23 -4 -37t-18.5 -23.5t-44 -12.5t-79.5 -3 q-72 0 -112.5 8t-61 20.5t-26.5 26t-6 23.5l-5 100q0 29 -36 29h-338q-98 0 -168 35t-114 95t-64.5 141t-20.5 175zM189 1722q0 92 60.5 154.5t164.5 62.5q47 0 85 -21.5t63.5 -55.5t40 -75.5t14.5 -82.5q0 -92 -58.5 -139.5t-152.5 -47.5q-102 0 -159.5 59.5t-57.5 145.5z M279 1712q0 -51 31.5 -83t103.5 -32q121 0 121 119q0 53 -38 94t-98 41q-66 0 -93 -39t-27 -100zM682 1771q0 41 15.5 79t42 67.5t62.5 47t77 17.5q104 0 169.5 -61.5t65.5 -155.5q0 -98 -54 -164.5t-151 -66.5q-104 0 -165.5 66.5t-61.5 170.5zM770 1755q0 -61 36.5 -99 t102.5 -38q53 0 85 30.5t32 93.5q0 135 -143 136q-45 0 -79 -37t-34 -86z" />
<glyph unicode="&#xdd;" horiz-adv-x="1257" d="M24 1190q0 14 15 27l211 147q14 10 30 10q27 0 39 -26l184 -410q12 -27 23 -27q10 0 29 27q4 8 85 114.5t236 317.5q4 6 13.5 8t19.5 2q16 0 27 -6q14 -10 44.5 -32.5t62.5 -46t58.5 -46t32.5 -32.5q8 -20 8 -31q0 -18 -12 -31q-53 -74 -122.5 -173t-135.5 -189 q-76 -104 -153 -213q-12 -18 -18.5 -44t-6.5 -49l20 -647q2 -29 -16 -42t-41 -13q-72 0 -144.5 6t-117.5 16t-45 56l-19 739q0 20 -6 33.5t-12 23.5l-279 496q-10 16 -10 35zM240 1505q0 23 14 45q4 4 61.5 41t167.5 105q205 125 246 147q29 14 37 14q20 0 37 -22 q10 -12 20 -30.5t25 -41.5v-12q0 -51 -29 -76q-10 -10 -67.5 -45t-161.5 -92q-57 -33 -114.5 -63.5t-115.5 -63.5q-16 -8 -28 -8q-14 0 -39 10q-8 2 -29 33q-20 29 -22 47q0 4 -1 6t-1 6z" />
<glyph unicode="&#xde;" horiz-adv-x="829" d="M23 1509q0 4 4 17q6 12 18 12l158 10h2q25 0 24 -26l21 -203q2 -18 37 -31q229 -37 342 -125t129 -254q2 -20 3 -38.5t1 -34.5q0 -410 -440 -457q-20 -2 -21 -23v-6l29 -248q0 -18 -23 -22l-188 -17h-4q-20 0 -21 21l-69 1415q-2 4 -2 10zM246 1006q2 -16 3 -65.5 t5 -135.5q6 -145 6 -182v-11q2 -27 21 -26h4q109 25 145 41q133 59 141 155q0 6 1 11.5t1 11.5q0 190 -284 227h-13q-31 0 -30 -24v-2z" />
<glyph unicode="&#xdf;" horiz-adv-x="1165" d="M23 -127l22 1268q2 231 197 315q27 10 68.5 18.5t91 14.5t103.5 9t105 3q207 0 322 -67q164 -98 164 -344q0 -109 -27 -163.5t-78 -82.5q-23 -12 -31 -29.5t-6 -34t14.5 -30t35.5 -19.5q43 -10 68.5 -90t25.5 -205q0 -219 -168 -301q-86 -43 -195 -43q-55 0 -99 1t-79 5 q-59 8 -94 45t-31 107l4 74q2 51 23.5 73.5t99.5 22.5q8 0 28.5 -1t45 -2t45 -2t29.5 -1q53 0 79.5 19.5t40.5 70.5l11 65q6 43 -12.5 66.5t-53.5 36t-82 15.5t-96 3q-57 0 -70 111q0 6 -1 12t-1 10q0 94 103 107q35 4 75.5 8t92.5 8q18 2 28 16.5t6 30.5l-18 133 q-4 29 -26.5 49.5t-47.5 22.5q-92 6 -159.5 5t-143.5 -5q-37 -2 -60.5 -13t-38 -40t-19.5 -78t-5 -125q0 -72 5 -201t16 -319q10 -190 15 -331.5t5 -240.5q0 -47 -49 -49q-23 -2 -59 -2q-35 0 -71 1t-64.5 4t-38.5 10q-45 10 -45 59z" />
<glyph unicode="&#xe0;" d="M23 475q0 92 55 155.5t135 104.5t171 60.5t165 19.5q27 0 26 27v168q0 76 -38 75l-172 5q-66 2 -120.5 3t-56.5 3q-16 0 -27 6t-14 22q-4 23 -6 50q-2 23 -3 54.5t-1 67.5q0 29 37 33q104 4 201 4h196q117 0 191 -43t115 -119.5t56 -183t15 -235.5v-287t2 -287 q0 -39 -12 -54t-39 -20l-174 -20q-20 -4 -31.5 13.5t-13.5 35.5l-10 92q-2 18 -13.5 15.5t-25.5 -7.5q-66 -16 -124 -24t-124 -8q-74 0 -139.5 14t-114.5 46t-77.5 84t-28.5 130zM199.5 1858.5q-1.5 19.5 9.5 35.5q16 29 32 44.5t41 35.5q14 10 38 6t46 -20 q49 -37 111.5 -87.5t127.5 -104.5t126 -107.5t109 -98.5q14 -12 18 -28.5t-6 -30.5q-8 -12 -26.5 -40t-41.5 -52q-8 -8 -24.5 -4t-26.5 10q-57 37 -130 91t-145.5 110.5t-137 112t-105.5 96.5q-14 12 -15.5 31.5zM283 508q0 -23 17 -40t43 -29.5t55.5 -18.5t54.5 -6 q66 0 100.5 13t34.5 46q0 145 -6 170q-4 18 -23 19q-37 0 -84 -6.5t-90 -24t-72.5 -47t-29.5 -76.5z" />
<glyph unicode="&#xe1;" d="M23 475q0 92 55 155.5t135 104.5t171 60.5t165 19.5q27 0 26 27v168q0 76 -38 75l-172 5q-66 2 -120.5 3t-56.5 3q-16 0 -27 6t-14 22q-4 23 -6 50q-2 23 -3 54.5t-1 67.5q0 29 37 33q104 4 201 4h196q117 0 191 -43t115 -119.5t56 -183t15 -235.5v-287t2 -287 q0 -39 -12 -54t-39 -20l-174 -20q-20 -4 -31.5 13.5t-13.5 35.5l-10 92q-2 18 -13.5 15.5t-25.5 -7.5q-66 -16 -124 -24t-124 -8q-74 0 -139.5 14t-114.5 46t-77.5 84t-28.5 130zM207 1495q0 23 14 45q4 4 61.5 41t167.5 105q205 125 246 147q29 14 37 14q20 0 37 -22 q10 -12 20 -30.5t25 -41.5v-12q0 -51 -29 -76q-10 -10 -67.5 -45t-161.5 -92q-57 -33 -114.5 -63.5t-115.5 -63.5q-16 -8 -28 -8q-14 0 -39 10q-8 2 -29 33q-20 29 -22 47q0 4 -1 6t-1 6zM283 508q0 -23 17 -40t43 -29.5t55.5 -18.5t54.5 -6q66 0 100.5 13t34.5 46 q0 145 -6 170q-4 18 -23 19q-37 0 -84 -6.5t-90 -24t-72.5 -47t-29.5 -76.5z" />
<glyph unicode="&#xe2;" d="M23 475q0 92 55 155.5t135 104.5t171 60.5t165 19.5q27 0 26 27v168q0 76 -38 75l-172 5q-66 2 -120.5 3t-56.5 3q-16 0 -27 6t-14 22q-4 23 -6 50q-2 23 -3 54.5t-1 67.5q0 29 37 33q104 4 201 4h196q117 0 191 -43t115 -119.5t56 -183t15 -235.5v-287t2 -287 q0 -39 -12 -54t-39 -20l-174 -20q-20 -4 -31.5 13.5t-13.5 35.5l-10 92q-2 18 -13.5 15.5t-25.5 -7.5q-66 -16 -124 -24t-124 -8q-74 0 -139.5 14t-114.5 46t-77.5 84t-28.5 130zM94 1593q0 25 18 43l340 320q37 33 66 33q33 0 67 -37q4 -6 76 -103.5t211 -289.5 q16 -27 17 -45q0 -16 -11 -27l-94 -86q-18 -14 -29 -14q-10 0 -20 14l-201 295q-14 23 -31 22q-10 0 -32 -16l-256 -242q-18 -14 -29 -14q-12 0 -14 8l-66 105q-12 14 -12 34zM283 508q0 -23 17 -40t43 -29.5t55.5 -18.5t54.5 -6q66 0 100.5 13t34.5 46q0 145 -6 170 q-4 18 -23 19q-37 0 -84 -6.5t-90 -24t-72.5 -47t-29.5 -76.5z" />
<glyph unicode="&#xe3;" d="M23 475q0 92 55 155.5t135 104.5t171 60.5t165 19.5q27 0 26 27v168q0 76 -38 75l-172 5q-66 2 -120.5 3t-56.5 3q-16 0 -27 6t-14 22q-4 23 -6 50q-2 23 -3 54.5t-1 67.5q0 29 37 33q104 4 201 4h196q117 0 191 -43t115 -119.5t56 -183t15 -235.5v-287t2 -287 q0 -39 -12 -54t-39 -20l-174 -20q-20 -4 -31.5 13.5t-13.5 35.5l-10 92q-2 18 -13.5 15.5t-25.5 -7.5q-66 -16 -124 -24t-124 -8q-74 0 -139.5 14t-114.5 46t-77.5 84t-28.5 130zM94 1587.5q6 20.5 17 28.5q6 4 34.5 24.5t79.5 53.5q101 68 121 76q49 20 92 -15 q49 -43 111 -98q33 -25 61 -4q41 29 79 57.5t75 61.5q18 18 34.5 7t39.5 -34q12 -16 21 -29.5t18 -23.5q14 -29 -7 -55q-4 -6 -26.5 -27t-61.5 -55q-41 -37 -63.5 -57.5t-30.5 -24.5q-23 -16 -49.5 -9t-50.5 19q-23 14 -44.5 29.5t-43.5 29.5q-35 25 -58.5 35t-40.5 10 q-35 -6 -165 -116q-29 -29 -60 0q-37 27 -78 82q-10 14 -4 34.5zM283 508q0 -23 17 -40t43 -29.5t55.5 -18.5t54.5 -6q66 0 100.5 13t34.5 46q0 145 -6 170q-4 18 -23 19q-37 0 -84 -6.5t-90 -24t-72.5 -47t-29.5 -76.5z" />
<glyph unicode="&#xe4;" d="M23 475q0 92 55 155.5t135 104.5t171 60.5t165 19.5q27 0 26 27v168q0 76 -38 75l-172 5q-66 2 -120.5 3t-56.5 3q-16 0 -27 6t-14 22q-4 23 -6 50q-2 23 -3 54.5t-1 67.5q0 29 37 33q104 4 201 4h196q117 0 191 -43t115 -119.5t56 -183t15 -235.5v-287t2 -287 q0 -39 -12 -54t-39 -20l-174 -20q-20 -4 -31.5 13.5t-13.5 35.5l-10 92q-2 18 -13.5 15.5t-25.5 -7.5q-66 -16 -124 -24t-124 -8q-74 0 -139.5 14t-114.5 46t-77.5 84t-28.5 130zM25 1581q0 92 60.5 154.5t164.5 62.5q47 0 85 -21.5t63.5 -55.5t40 -75.5t14.5 -82.5 q0 -92 -58.5 -139.5t-152.5 -47.5q-102 0 -159.5 59.5t-57.5 145.5zM115 1571q0 -51 31.5 -83t103.5 -32q121 0 121 119q0 53 -38 94t-98 41q-66 0 -93 -39t-27 -100zM283 508q0 -23 17 -40t43 -29.5t55.5 -18.5t54.5 -6q66 0 100.5 13t34.5 46q0 145 -6 170q-4 18 -23 19 q-37 0 -84 -6.5t-90 -24t-72.5 -47t-29.5 -76.5zM518 1630q0 41 15.5 79t42 67.5t62.5 47t77 17.5q104 0 169.5 -61.5t65.5 -155.5q0 -98 -54 -164.5t-151 -66.5q-104 0 -165.5 66.5t-61.5 170.5zM606 1614q0 -61 36.5 -99t102.5 -38q53 0 85 30.5t32 93.5q0 135 -143 136 q-45 0 -79 -37t-34 -86z" />
<glyph unicode="&#xe5;" d="M23 475q0 92 55 155.5t135 104.5t171 60.5t165 19.5q27 0 26 27v168q0 76 -38 75l-172 5q-66 2 -120.5 3t-56.5 3q-16 0 -27 6t-14 22q-4 23 -6 50q-2 23 -3 54.5t-1 67.5q0 29 37 33q104 4 201 4h196q117 0 191 -43t115 -119.5t56 -183t15 -235.5v-287t2 -287 q0 -39 -12 -54t-39 -20l-174 -20q-20 -4 -31.5 13.5t-13.5 35.5l-10 92q-2 18 -13.5 15.5t-25.5 -7.5q-66 -16 -124 -24t-124 -8q-74 0 -139.5 14t-114.5 46t-77.5 84t-28.5 130zM218 1669q0 63 23.5 114.5t64.5 85.5t97 52.5t122 18.5q115 0 180 -80t65 -205 q0 -66 -21.5 -115t-56 -83t-80.5 -50t-95 -16q-63 0 -117.5 16t-94.5 50t-63.5 87.5t-23.5 124.5zM283 508q0 -23 17 -40t43 -29.5t55.5 -18.5t54.5 -6q66 0 100.5 13t34.5 46q0 145 -6 170q-4 18 -23 19q-37 0 -84 -6.5t-90 -24t-72.5 -47t-29.5 -76.5zM322 1641 q0 -53 42 -93.5t144 -40.5q156 0 156 154q0 84 -41 129t-133 45q-168 0 -168 -194z" />
<glyph unicode="&#xe6;" horiz-adv-x="1751" d="M23 475q0 152 172 250q154 86 354 90q27 0 26 27v168q0 74 -38 75q-66 6 -152 8.5t-197 2.5q-31 0 -41 28q-10 31 -10 172q0 33 37 33q131 0 226.5 1t154.5 3h16q209 0 308 -194q6 -10 12 -11q6 0 12 11q66 98 211 121q45 6 92 6q184 0 322 -109q115 -92 135 -205 q10 -53 15 -106t5 -109q0 -96 -14 -116q-14 -35 -74 -35l-434 -4q-49 10 -55 41q-4 29 -7 60.5t-3 66.5q0 51 71 55q129 8 210 14t118 10q27 2 27 52q0 55 -35 108q-59 86 -178 86q-37 0 -88 -10q-111 -23 -166 -117q-25 -41 -36 -90t-11 -106q0 -160 73 -254 q129 -164 453 -164q43 0 47 -62l6 -114v-6q0 -41 -28 -43q-16 -2 -35 -3.5t-39 -1.5q-352 0 -527 203q-2 4 -6 4t-4 -10v-106q0 -47 -10 -64q-14 -27 -66 -33q-35 -4 -71.5 -7t-75.5 -7h-2q-31 0 -43 70q-4 14 -5 31.5t-5 39.5q-4 16 -13 17q-2 0 -14 -9q-20 -4 -40.5 -8 t-43.5 -8q-47 -8 -91 -12t-85 -4q-272 0 -340 172q-20 49 -20 102zM283 508q0 -45 61 -66q45 -16 88 -16q102 0 123 4q31 10 33 43q0 145 -6 170q-4 18 -23 19l-113 -13q-109 -25 -147 -92q-16 -29 -16 -49z" />
<glyph unicode="&#xe7;" horiz-adv-x="856" d="M41 537q0 106 31.5 195t91 152.5t144.5 99.5t192 36q35 0 75.5 -3t79.5 -9.5t72 -15.5t51 -19q39 -23 39 -64v-133q0 -25 -11 -34t-28.5 -10t-36 3t-32.5 8q-74 20 -160 21q-57 0 -109.5 -11.5t-93.5 -39t-65.5 -71.5t-24.5 -110q0 -70 30.5 -116.5t80 -76.5t109 -44 t116.5 -16q33 -2 64.5 4t66.5 4q47 -2 58.5 -20.5t6.5 -65.5l-6 -115q0 -18 -5 -34.5t-18.5 -29t-37 -19.5t-62.5 -7q-55 0 -106 6l-2 -43q-2 -16 8 -28.5t27 -12.5q59 0 111.5 -20.5t91 -57.5t61 -89t22.5 -113q0 -86 -34.5 -143.5t-90 -92.5t-127 -49.5t-145.5 -14.5 q-55 0 -89 3.5t-51.5 11.5t-22.5 18.5t-5 26.5l8 127q2 12 11.5 17t21.5 5q313 0 314 88v5q0 61 -57.5 91.5t-168.5 30.5q-59 0 -75.5 38t-10.5 100l15 151q-141 59 -232.5 180t-91.5 306z" />
<glyph unicode="&#xe8;" horiz-adv-x="976" d="M37 817q0 98 32.5 186.5t91 154t139.5 103t177 37.5q129 0 215 -40.5t137.5 -112.5t73 -169t21.5 -210q0 -49 -6.5 -80t-16.5 -46t-27.5 -20.5t-37.5 -5.5l-435 -4q-25 0 -39 12.5t-16 28.5l-10 127q-2 49 72 56l317 24q14 2 25.5 14.5t11.5 36.5q0 43 -17.5 79t-47 61.5 t-68.5 40t-80 14.5q-150 0 -225.5 -87t-75.5 -237q0 -121 41 -200.5t112.5 -128t167 -69t205.5 -20.5q43 0 47 -49l8 -123q2 -27 -10 -39t-28 -14t-32 -3t-36 -1q-162 0 -290 47t-216 136.5t-134 216t-46 284.5zM125.5 1768.5q-1.5 19.5 9.5 35.5q16 29 32 44.5t41 35.5 q14 10 38 6t46 -20q49 -37 111.5 -87.5t127.5 -104.5t126 -107.5t109 -98.5q14 -12 18 -28.5t-6 -30.5q-8 -12 -26.5 -40t-41.5 -52q-8 -8 -24.5 -4t-26.5 10q-57 37 -130 91t-145.5 110.5t-137 112t-105.5 96.5q-14 12 -15.5 31.5z" />
<glyph unicode="&#xe9;" horiz-adv-x="976" d="M37 817q0 98 32.5 186.5t91 154t139.5 103t177 37.5q129 0 215 -40.5t137.5 -112.5t73 -169t21.5 -210q0 -49 -6.5 -80t-16.5 -46t-27.5 -20.5t-37.5 -5.5l-435 -4q-25 0 -39 12.5t-16 28.5l-10 127q-2 49 72 56l317 24q14 2 25.5 14.5t11.5 36.5q0 43 -17.5 79t-47 61.5 t-68.5 40t-80 14.5q-150 0 -225.5 -87t-75.5 -237q0 -121 41 -200.5t112.5 -128t167 -69t205.5 -20.5q43 0 47 -49l8 -123q2 -27 -10 -39t-28 -14t-32 -3t-36 -1q-162 0 -290 47t-216 136.5t-134 216t-46 284.5zM189 1434q0 23 14 45q4 4 61.5 41t167.5 105q205 125 246 147 q29 14 37 14q20 0 37 -22q10 -12 20 -30.5t25 -41.5v-12q0 -51 -29 -76q-10 -10 -67.5 -45t-161.5 -92q-57 -33 -114.5 -63.5t-115.5 -63.5q-16 -8 -28 -8q-14 0 -39 10q-8 2 -29 33q-20 29 -22 47q0 4 -1 6t-1 6z" />
<glyph unicode="&#xea;" horiz-adv-x="976" d="M37 817q0 98 32.5 186.5t91 154t139.5 103t177 37.5q129 0 215 -40.5t137.5 -112.5t73 -169t21.5 -210q0 -49 -6.5 -80t-16.5 -46t-27.5 -20.5t-37.5 -5.5l-435 -4q-25 0 -39 12.5t-16 28.5l-10 127q-2 49 72 56l317 24q14 2 25.5 14.5t11.5 36.5q0 43 -17.5 79t-47 61.5 t-68.5 40t-80 14.5q-150 0 -225.5 -87t-75.5 -237q0 -121 41 -200.5t112.5 -128t167 -69t205.5 -20.5q43 0 47 -49l8 -123q2 -27 -10 -39t-28 -14t-32 -3t-36 -1q-162 0 -290 47t-216 136.5t-134 216t-46 284.5zM115 1552q0 25 18 43l340 320q37 33 66 33q33 0 67 -37 q4 -6 76 -103.5t211 -289.5q16 -27 17 -45q0 -16 -11 -27l-94 -86q-18 -14 -29 -14q-10 0 -20 14l-201 295q-14 23 -31 22q-10 0 -32 -16l-256 -242q-18 -14 -29 -14q-12 0 -14 8l-66 105q-12 14 -12 34z" />
<glyph unicode="&#xeb;" horiz-adv-x="976" d="M23 1556q0 92 60.5 154.5t164.5 62.5q47 0 85 -21.5t63.5 -55.5t40 -75.5t14.5 -82.5q0 -92 -58.5 -139.5t-152.5 -47.5q-102 0 -159.5 59.5t-57.5 145.5zM37 817q0 98 32.5 186.5t91 154t139.5 103t177 37.5q129 0 215 -40.5t137.5 -112.5t73 -169t21.5 -210 q0 -49 -6.5 -80t-16.5 -46t-27.5 -20.5t-37.5 -5.5l-435 -4q-25 0 -39 12.5t-16 28.5l-10 127q-2 49 72 56l317 24q14 2 25.5 14.5t11.5 36.5q0 43 -17.5 79t-47 61.5t-68.5 40t-80 14.5q-150 0 -225.5 -87t-75.5 -237q0 -121 41 -200.5t112.5 -128t167 -69t205.5 -20.5 q43 0 47 -49l8 -123q2 -27 -10 -39t-28 -14t-32 -3t-36 -1q-162 0 -290 47t-216 136.5t-134 216t-46 284.5zM113 1546q0 -51 31.5 -83t103.5 -32q121 0 121 119q0 53 -38 94t-98 41q-66 0 -93 -39t-27 -100zM516 1605q0 41 15.5 79t42 67.5t62.5 47t77 17.5 q104 0 169.5 -61.5t65.5 -155.5q0 -98 -54 -164.5t-151 -66.5q-104 0 -165.5 66.5t-61.5 170.5zM604 1589q0 -61 36.5 -99t102.5 -38q53 0 85 30.5t32 93.5q0 135 -143 136q-45 0 -79 -37t-34 -86z" />
<glyph unicode="&#xec;" horiz-adv-x="612" d="M-21.5 1258.5q-1.5 19.5 9.5 35.5q16 29 32 44.5t41 35.5q14 10 38 6t46 -20q49 -37 111.5 -87.5t127.5 -104.5t126 -107.5t109 -98.5q14 -12 18 -28.5t-6 -30.5q-8 -12 -26.5 -40t-41.5 -52q-8 -8 -24.5 -4t-26.5 10q-57 37 -130 91t-145.5 110.5t-137 112t-105.5 96.5 q-14 12 -15.5 31.5zM8 700q0 43 15.5 65.5t66.5 22.5h252q41 0 66.5 -11t41 -32.5t24.5 -50t15 -61.5q31 -156 55 -318.5t44 -322.5q2 -18 -8.5 -38t-24.5 -22q-16 -2 -33.5 -4t-42 -4t-59.5 -3t-84 -1q-14 0 -25.5 7t-15.5 24q-4 18 -13.5 89t-19.5 156t-19.5 163.5 t-13.5 113.5q-2 16 -7 26.5t-15 10.5l-148 -4q-14 0 -26.5 12t-16.5 41q-4 27 -6 67t-2 74z" />
<glyph unicode="&#xed;" horiz-adv-x="612" d="M-20 1008q0 23 14 45q4 4 61.5 41t167.5 105q205 125 246 147q29 14 37 14q20 0 37 -22q10 -12 20 -30.5t25 -41.5v-12q0 -51 -29 -76q-10 -10 -67.5 -45t-161.5 -92q-57 -33 -114.5 -63.5t-115.5 -63.5q-16 -8 -28 -8q-14 0 -39 10q-8 2 -29 33q-20 29 -22 47q0 4 -1 6 t-1 6zM8 700q0 43 15.5 65.5t66.5 22.5h252q41 0 66.5 -11t41 -32.5t24.5 -50t15 -61.5q31 -156 55 -318.5t44 -322.5q2 -18 -8.5 -38t-24.5 -22q-16 -2 -33.5 -4t-42 -4t-59.5 -3t-84 -1q-14 0 -25.5 7t-15.5 24q-4 18 -13.5 89t-19.5 156t-19.5 163.5t-13.5 113.5 q-2 16 -7 26.5t-15 10.5l-148 -4q-14 0 -26.5 12t-16.5 41q-4 27 -6 67t-2 74z" />
<glyph unicode="&#xee;" horiz-adv-x="612" d="M-108 987q0 25 18 43l340 320q37 33 66 33q33 0 67 -37q4 -6 76 -103.5t211 -289.5q16 -27 17 -45q0 -16 -11 -27l-94 -86q-18 -14 -29 -14q-10 0 -20 14l-201 295q-14 23 -31 22q-10 0 -32 -16l-256 -242q-18 -14 -29 -14q-12 0 -14 8l-66 105q-12 14 -12 34zM8 700 q0 43 15.5 65.5t66.5 22.5h252q41 0 66.5 -11t41 -32.5t24.5 -50t15 -61.5q31 -156 55 -318.5t44 -322.5q2 -18 -8.5 -38t-24.5 -22q-16 -2 -33.5 -4t-42 -4t-59.5 -3t-84 -1q-14 0 -25.5 7t-15.5 24q-4 18 -13.5 89t-19.5 156t-19.5 163.5t-13.5 113.5q-2 16 -7 26.5 t-15 10.5l-148 -4q-14 0 -26.5 12t-16.5 41q-4 27 -6 67t-2 74z" />
<glyph unicode="&#xef;" horiz-adv-x="612" d="M-184 1081q0 92 60.5 154.5t164.5 62.5q47 0 85 -21.5t63.5 -55.5t40 -75.5t14.5 -82.5q0 -92 -58.5 -139.5t-152.5 -47.5q-102 0 -159.5 59.5t-57.5 145.5zM-94 1071q0 -51 31.5 -83t103.5 -32q121 0 121 119q0 53 -38 94t-98 41q-66 0 -93 -39t-27 -100zM8 700 q0 43 15.5 65.5t66.5 22.5h252q41 0 66.5 -11t41 -32.5t24.5 -50t15 -61.5q31 -156 55 -318.5t44 -322.5q2 -18 -8.5 -38t-24.5 -22q-16 -2 -33.5 -4t-42 -4t-59.5 -3t-84 -1q-14 0 -25.5 7t-15.5 24q-4 18 -13.5 89t-19.5 156t-19.5 163.5t-13.5 113.5q-2 16 -7 26.5 t-15 10.5l-148 -4q-14 0 -26.5 12t-16.5 41q-4 27 -6 67t-2 74zM309 1130q0 41 15.5 79t42 67.5t62.5 47t77 17.5q104 0 169.5 -61.5t65.5 -155.5q0 -98 -54 -164.5t-151 -66.5q-104 0 -165.5 66.5t-61.5 170.5zM397 1114q0 -61 36.5 -99t102.5 -38q53 0 85 30.5t32 93.5 q0 135 -143 136q-45 0 -79 -37t-34 -86z" />
<glyph unicode="&#xf0;" horiz-adv-x="913" d="M12 387q0 100 51.5 176t129 127t170 77t176.5 26q37 0 20 24q-41 47 -100 101l-183 -101q-18 -10 -38 -10q-18 0 -33 10q-6 4 -13.5 15.5t-13.5 23.5t-12 24.5t-8 18.5q-14 37 12 57q6 4 36 23.5t89 58.5q-8 4 -15.5 10.5t-17.5 10.5q-55 29 -33 82l66 121q10 20 34.5 24 t41.5 -4q39 -18 80 -43t81 -57q45 29 74 46t41 23q23 10 42.5 9.5t29.5 -19.5l45 -78q10 -18 6 -39.5t-27 -38.5l-57 -38q102 -111 157.5 -228t55.5 -252q0 -92 -38 -187t-102.5 -172t-150.5 -126t-182 -49q-80 0 -154.5 23.5t-132 68.5t-92.5 110.5t-35 151.5zM244 399 q0 -29 15 -50t39 -35.5t51.5 -21.5t53.5 -7q47 0 94.5 19.5t84 53t60.5 81.5t24 106q0 39 -17.5 46t-48.5 7q-43 0 -104.5 -10t-117.5 -34t-95 -62t-39 -93z" />
<glyph unicode="&#xf1;" horiz-adv-x="946" d="M27 872q-2 23 9 36.5t30 15.5q39 4 67 8q25 4 45.5 6t22.5 2q16 2 31.5 -4t19.5 -51l6 -92q2 -33 41 -21q47 16 111.5 26.5t130.5 10.5q158 0 236.5 -108.5t103.5 -303.5l37 -299q2 -18 -2 -31.5t-23 -13.5q-43 -4 -82 -6q-35 -2 -71.5 -3t-63.5 1q-33 2 -35 37l-12 158 q-4 39 -6 94t-15.5 106.5t-43 88t-84.5 36.5q-35 0 -71 -6t-62.5 -21.5t-42 -44t-11.5 -71.5l37 -359q2 -16 -5 -26t-24 -8l-174 8q-35 4 -39 39zM76 1159.5q6 20.5 17 28.5q6 4 34.5 24.5t79.5 53.5q101 68 121 76q49 20 92 -15q49 -43 111 -98q33 -25 61 -4q41 29 79 57.5 t75 61.5q18 18 34.5 7t39.5 -34q12 -16 21 -29.5t18 -23.5q14 -29 -7 -55q-4 -6 -26.5 -27t-61.5 -55q-41 -37 -63.5 -57.5t-30.5 -24.5q-23 -16 -49.5 -9t-50.5 19q-23 14 -44.5 29.5t-43.5 29.5q-35 25 -58.5 35t-40.5 10q-35 -6 -165 -116q-29 -29 -60 0q-37 27 -78 82 q-10 14 -4 34.5z" />
<glyph unicode="&#xf2;" horiz-adv-x="997" d="M39 717q0 104 40 189t107.5 144.5t156.5 92.5t189 33t179.5 -37t132.5 -99.5t81.5 -145.5t28.5 -175q0 -109 -38.5 -189.5t-103 -136t-147.5 -83t-173 -27.5q-102 0 -185.5 35.5t-143 95t-92 138.5t-32.5 165zM193.5 1639.5q-1.5 19.5 9.5 35.5q16 29 32 44.5t41 35.5 q14 10 38 6t46 -20q49 -37 111.5 -87.5t127.5 -104.5t126 -107.5t109 -98.5q14 -12 18 -28.5t-6 -30.5q-8 -12 -26.5 -40t-41.5 -52q-8 -8 -24.5 -4t-26.5 10q-57 37 -130 91t-145.5 110.5t-137 112t-105.5 96.5q-14 12 -15.5 31.5zM311 717q0 -43 18.5 -78t48.5 -58.5 t67.5 -37t78.5 -13.5q100 0 154.5 48.5t54.5 152.5q0 82 -59.5 127t-136.5 45q-43 0 -83 -11t-72 -34.5t-51.5 -58.5t-19.5 -82z" />
<glyph unicode="&#xf3;" horiz-adv-x="997" d="M39 717q0 104 40 189t107.5 144.5t156.5 92.5t189 33t179.5 -37t132.5 -99.5t81.5 -145.5t28.5 -175q0 -109 -38.5 -189.5t-103 -136t-147.5 -83t-173 -27.5q-102 0 -185.5 35.5t-143 95t-92 138.5t-32.5 165zM205 1354q0 23 14 45q4 4 61.5 41t167.5 105 q205 125 246 147q29 14 37 14q20 0 37 -22q10 -12 20 -30.5t25 -41.5v-12q0 -51 -29 -76q-10 -10 -67.5 -45t-161.5 -92q-57 -33 -114.5 -63.5t-115.5 -63.5q-16 -8 -28 -8q-14 0 -39 10q-8 2 -29 33q-20 29 -22 47q0 4 -1 6t-1 6zM311 717q0 -43 18.5 -78t48.5 -58.5 t67.5 -37t78.5 -13.5q100 0 154.5 48.5t54.5 152.5q0 82 -59.5 127t-136.5 45q-43 0 -83 -11t-72 -34.5t-51.5 -58.5t-19.5 -82z" />
<glyph unicode="&#xf4;" horiz-adv-x="997" d="M39 717q0 104 40 189t107.5 144.5t156.5 92.5t189 33t179.5 -37t132.5 -99.5t81.5 -145.5t28.5 -175q0 -109 -38.5 -189.5t-103 -136t-147.5 -83t-173 -27.5q-102 0 -185.5 35.5t-143 95t-92 138.5t-32.5 165zM113 1415q0 25 18 43l340 320q37 33 66 33q33 0 67 -37 q4 -6 76 -103.5t211 -289.5q16 -27 17 -45q0 -16 -11 -27l-94 -86q-18 -14 -29 -14q-10 0 -20 14l-201 295q-14 23 -31 22q-10 0 -32 -16l-256 -242q-18 -14 -29 -14q-12 0 -14 8l-66 105q-12 14 -12 34zM311 717q0 -43 18.5 -78t48.5 -58.5t67.5 -37t78.5 -13.5 q100 0 154.5 48.5t54.5 152.5q0 82 -59.5 127t-136.5 45q-43 0 -83 -11t-72 -34.5t-51.5 -58.5t-19.5 -82z" />
<glyph unicode="&#xf5;" horiz-adv-x="997" d="M39 717q0 104 40 189t107.5 144.5t156.5 92.5t189 33t179.5 -37t132.5 -99.5t81.5 -145.5t28.5 -175q0 -109 -38.5 -189.5t-103 -136t-147.5 -83t-173 -27.5q-102 0 -185.5 35.5t-143 95t-92 138.5t-32.5 165zM125 1384.5q6 20.5 17 28.5q6 4 34.5 24.5t79.5 53.5 q101 68 121 76q49 20 92 -15q49 -43 111 -98q33 -25 61 -4q41 29 79 57.5t75 61.5q18 18 34.5 7t39.5 -34q12 -16 21 -29.5t18 -23.5q14 -29 -7 -55q-4 -6 -26.5 -27t-61.5 -55q-41 -37 -63.5 -57.5t-30.5 -24.5q-23 -16 -49.5 -9t-50.5 19q-23 14 -44.5 29.5t-43.5 29.5 q-35 25 -58.5 35t-40.5 10q-35 -6 -165 -116q-29 -29 -60 0q-37 27 -78 82q-10 14 -4 34.5zM311 717q0 -43 18.5 -78t48.5 -58.5t67.5 -37t78.5 -13.5q100 0 154.5 48.5t54.5 152.5q0 82 -59.5 127t-136.5 45q-43 0 -83 -11t-72 -34.5t-51.5 -58.5t-19.5 -82z" />
<glyph unicode="&#xf6;" horiz-adv-x="997" d="M23 1450q0 92 60.5 154.5t164.5 62.5q47 0 85 -21.5t63.5 -55.5t40 -75.5t14.5 -82.5q0 -92 -58.5 -139.5t-152.5 -47.5q-102 0 -159.5 59.5t-57.5 145.5zM39 717q0 104 40 189t107.5 144.5t156.5 92.5t189 33t179.5 -37t132.5 -99.5t81.5 -145.5t28.5 -175 q0 -109 -38.5 -189.5t-103 -136t-147.5 -83t-173 -27.5q-102 0 -185.5 35.5t-143 95t-92 138.5t-32.5 165zM113 1440q0 -51 31.5 -83t103.5 -32q121 0 121 119q0 53 -38 94t-98 41q-66 0 -93 -39t-27 -100zM311 717q0 -43 18.5 -78t48.5 -58.5t67.5 -37t78.5 -13.5 q100 0 154.5 48.5t54.5 152.5q0 82 -59.5 127t-136.5 45q-43 0 -83 -11t-72 -34.5t-51.5 -58.5t-19.5 -82zM516 1499q0 41 15.5 79t42 67.5t62.5 47t77 17.5q104 0 169.5 -61.5t65.5 -155.5q0 -98 -54 -164.5t-151 -66.5q-104 0 -165.5 66.5t-61.5 170.5zM604 1483 q0 -61 36.5 -99t102.5 -38q53 0 85 30.5t32 93.5q0 135 -143 136q-45 0 -79 -37t-34 -86z" />
<glyph unicode="&#xf7;" horiz-adv-x="974" d="M23 829q0 35 14 68q10 78 94 84q23 2 101.5 3t216.5 1q166 0 259 -3t137 -16.5t53 -40t9 -71.5q0 -41 -10 -65.5t-26.5 -39t-37 -20.5t-38.5 -6q-16 0 -62.5 -2t-106 -4t-127 -5t-128 -5t-108.5 -4.5t-68 -2.5q-53 0 -87 6.5t-52.5 21.5t-25.5 40t-7 61zM252 453v2 q0 63 48 106t134 43q23 0 50.5 -8t51 -23.5t40 -38t18.5 -49.5q0 -90 -35 -136t-121 -50q-80 0 -133 44t-53 110zM281 1278q0 53 44 93t115 40q18 0 42 -8t44.5 -21.5t34.5 -33t17 -41.5q-1 -154 -136 -160q-70 0 -115.5 38t-45.5 93z" />
<glyph unicode="&#xf8;" horiz-adv-x="997" d="M25 705v6q0 199 141 331q137 131 336 134h8h27q14 0 26 -2q27 59 55.5 123.5t61.5 129.5q37 51 59 52q14 0 25 -4l84 -31q47 -29 47 -74q0 -10 -2 -21.5t-8 -27.5q-4 -8 -30 -68.5t-73 -177.5q145 -137 146 -373v-36q-8 -215 -180 -318q-119 -70 -281 -69h-23 q-29 -63 -58.5 -130t-61.5 -139q-37 -80 -74 -80q-20 0 -51 15l-95 43q-35 12 -34 35q0 23 14 53q16 35 48 108.5t79 186.5q-182 131 -186 334zM283 717q0 -25 41 -90l116 266q-86 -25 -114 -51q-43 -41 -43 -119v-6zM551 532q178 18 178 187v18q0 9 -2 19q-2 35 -47 80z " />
<glyph unicode="&#xf9;" horiz-adv-x="890" d="M51 805l10 330q0 47 50 43l172 -7q27 -2 34 -19t5 -40l-19 -336q-2 -37 10.5 -59.5t59.5 -22.5h131q18 0 28.5 13.5t10.5 29.5v187q0 53 2 106q0 23 13 32t30 11l145 8q23 2 39 -11t19 -42l38 -706q2 -29 -8 -48.5t-33 -23.5l-165 -19q-23 -4 -41.5 14.5t-20.5 41.5 l-8 125q-2 16 -13.5 26.5t-25.5 7.5l-235 -14q-68 -4 -113 14.5t-71.5 62.5t-37 117.5t-6.5 178.5zM123.5 1625.5q-1.5 19.5 9.5 35.5q16 29 32 44.5t41 35.5q14 10 38 6t46 -20q49 -37 111.5 -87.5t127.5 -104.5t126 -107.5t109 -98.5q14 -12 18 -28.5t-6 -30.5 q-8 -12 -26.5 -40t-41.5 -52q-8 -8 -24.5 -4t-26.5 10q-57 37 -130 91t-145.5 110.5t-137 112t-105.5 96.5q-14 12 -15.5 31.5z" />
<glyph unicode="&#xfa;" horiz-adv-x="890" d="M51 805l10 330q0 47 50 43l172 -7q27 -2 34 -19t5 -40l-19 -336q-2 -37 10.5 -59.5t59.5 -22.5h131q18 0 28.5 13.5t10.5 29.5v187q0 53 2 106q0 23 13 32t30 11l145 8q23 2 39 -11t19 -42l38 -706q2 -29 -8 -48.5t-33 -23.5l-165 -19q-23 -4 -41.5 14.5t-20.5 41.5 l-8 125q-2 16 -13.5 26.5t-25.5 7.5l-235 -14q-68 -4 -113 14.5t-71.5 62.5t-37 117.5t-6.5 178.5zM125 1364q0 23 14 45q4 4 61.5 41t167.5 105q205 125 246 147q29 14 37 14q20 0 37 -22q10 -12 20 -30.5t25 -41.5v-12q0 -51 -29 -76q-10 -10 -67.5 -45t-161.5 -92 q-57 -33 -114.5 -63.5t-115.5 -63.5q-16 -8 -28 -8q-14 0 -39 10q-8 2 -29 33q-20 29 -22 47q0 4 -1 6t-1 6z" />
<glyph unicode="&#xfb;" horiz-adv-x="890" d="M51 805l10 330q0 47 50 43l172 -7q27 -2 34 -19t5 -40l-19 -336q-2 -37 10.5 -59.5t59.5 -22.5h131q18 0 28.5 13.5t10.5 29.5v187q0 53 2 106q0 23 13 32t30 11l145 8q23 2 39 -11t19 -42l38 -706q2 -29 -8 -48.5t-33 -23.5l-165 -19q-23 -4 -41.5 14.5t-20.5 41.5 l-8 125q-2 16 -13.5 26.5t-25.5 7.5l-235 -14q-68 -4 -113 14.5t-71.5 62.5t-37 117.5t-6.5 178.5zM66 1421q0 25 18 43l340 320q37 33 66 33q33 0 67 -37q4 -6 76 -103.5t211 -289.5q16 -27 17 -45q0 -16 -11 -27l-94 -86q-18 -14 -29 -14q-10 0 -20 14l-201 295 q-14 23 -31 22q-10 0 -32 -16l-256 -242q-18 -14 -29 -14q-12 0 -14 8l-66 105q-12 14 -12 34z" />
<glyph unicode="&#xfc;" horiz-adv-x="890" d="M-16 1493q0 92 60.5 154.5t164.5 62.5q47 0 85 -21.5t63.5 -55.5t40 -75.5t14.5 -82.5q0 -92 -58.5 -139.5t-152.5 -47.5q-102 0 -159.5 59.5t-57.5 145.5zM51 805l10 330q0 47 50 43l172 -7q27 -2 34 -19t5 -40l-19 -336q-2 -37 10.5 -59.5t59.5 -22.5h131 q18 0 28.5 13.5t10.5 29.5v187q0 53 2 106q0 23 13 32t30 11l145 8q23 2 39 -11t19 -42l38 -706q2 -29 -8 -48.5t-33 -23.5l-165 -19q-23 -4 -41.5 14.5t-20.5 41.5l-8 125q-2 16 -13.5 26.5t-25.5 7.5l-235 -14q-68 -4 -113 14.5t-71.5 62.5t-37 117.5t-6.5 178.5zM74 1483 q0 -51 31.5 -83t103.5 -32q121 0 121 119q0 53 -38 94t-98 41q-66 0 -93 -39t-27 -100zM477 1542q0 41 15.5 79t42 67.5t62.5 47t77 17.5q104 0 169.5 -61.5t65.5 -155.5q0 -98 -54 -164.5t-151 -66.5q-104 0 -165.5 66.5t-61.5 170.5zM565 1526q0 -61 36.5 -99t102.5 -38 q53 0 85 30.5t32 93.5q0 135 -143 136q-45 0 -79 -37t-34 -86z" />
<glyph unicode="&#xfd;" horiz-adv-x="1083" d="M25 -25q-4 18 4 34t28 20l140 34q25 6 39 -6t18 -30l20 -103q6 -33 27 -45t72 -12q129 0 207.5 3t124 15.5t60.5 35t15 61.5v16q-8 111 -30 266q-4 25 -29 25q-23 0 -35 -1t-28.5 -3t-45 -3t-82.5 -3l-159 -5q-86 -2 -142.5 12.5t-88 56.5t-45 119t-13.5 200q0 37 1 77.5 t3 87.5q2 29 17.5 44.5t35.5 17.5l168 14q29 4 43.5 -11t14.5 -44v-205q0 -74 28.5 -103.5t118.5 -29.5q57 0 92 5t53.5 21.5t24.5 48t6 85.5q0 78 6 161q4 43 49 41l142 -12q29 -2 45 -10t24.5 -22.5t10.5 -33t4 -40.5l47 -899q4 -53 -11.5 -82t-48.5 -41 q-53 -23 -130.5 -34t-160.5 -17.5t-165 -7.5t-144 -1q-102 0 -160.5 5.5t-90 35t-47 91t-33.5 171.5zM240 1055q0 23 14 45q4 4 61.5 41t167.5 105q205 125 246 147q29 14 37 14q20 0 37 -22q10 -12 20 -30.5t25 -41.5v-12q0 -51 -29 -76q-10 -10 -67.5 -45t-161.5 -92 q-57 -33 -114.5 -63.5t-115.5 -63.5q-16 -8 -28 -8q-14 0 -39 10q-8 2 -29 33q-20 29 -22 47q0 4 -1 6t-1 6z" />
<glyph unicode="&#xfe;" horiz-adv-x="806" d="M23 1503v2q0 20 22 21l193 2q14 -6 24 -21l-8 -250v-2q0 -25 22 -24q141 0 238 -49q225 -115 225 -441q0 -332 -411 -444q-33 -12 -33 -31v-180q0 -33 -25 -33l-159 -4q-12 0 -19 12q-2 4 -4 7.5t-2 7.5t1 5t1 5zM238 991q2 -8 4 -52t6 -126t6 -129t2 -61q0 -29 20 -29 q10 0 23 6q248 51 248 207q0 10 -1 21.5t-3 23.5q-16 96 -146 139q-35 8 -68.5 14.5t-68.5 14.5h-6q-16 0 -16 -29z" />
<glyph unicode="&#xff;" horiz-adv-x="1083" d="M25 -27q0 41 45 56q90 29 127 28q51 0 57 -37l20 -102q12 -35 17 -39q20 -14 96 -18h47q174 0 279 26q68 18 67 88v17q-8 111 -30 266q-4 25 -29 25q-4 0 -25 -4h2q-16 -2 -41 -3q-23 -2 -55 -2q-31 0 -72 -2q-49 -2 -89 -3t-70 -1h-35q-16 0 -27 2q-90 6 -133 37 q-61 45 -84 172q-4 33 -7 76t-3 100q0 37 1 78t3 88q2 53 43 58q4 0 24.5 3t61.5 7q37 4 59.5 6t32.5 2q57 0 58 -55v-205q0 -29 6 -51.5t16 -36.5q33 -45 125 -45q123 0 139 10q37 20 37 150q0 78 6 161q4 41 49 41q14 0 21 -2l88 -6q63 -6 84 -27q29 -35 41 -192 q18 -281 28.5 -477.5t10.5 -313.5q0 -78 -6 -86q-51 -74 -410 -90q-141 -6 -244 -6q-248 0 -270 33q-23 20 -61 270v4zM76 1239q0 61 43 115q56 65 162 65q86 0 131 -82q33 -61 32 -114q0 -59 -28 -103q-43 -68 -142 -67q-96 0 -153 69q-45 57 -45 117zM147 1219 q0 -89 123 -89q104 0 105 103q0 45 -33 80q-35 37 -84 37q-111 0 -111 -131zM580 1280q0 72 49 127t119 55q102 0 157 -63q45 -51 45 -123q0 -76 -35 -127q-47 -72 -141 -72q-96 0 -149 66q-45 53 -45 137zM655 1268q0 -59 43 -92q33 -27 86 -27q90 0 90 106q0 117 -122 117 q-29 0 -56 -20q-41 -31 -41 -84z" />
<glyph unicode="&#x152;" horiz-adv-x="1566" d="M27 666q0 29 1 75.5t3 112.5q4 156 26.5 273.5t63.5 199.5q117 236 393 236h12q35 0 64 -7l2 50q2 12 35 12l772 4q27 0 35 -8t8 -27l-2 -362q0 -20 -13 -29q-18 -12 -81 -18q-39 -4 -60.5 -6.5t-28.5 -2.5q-16 2 -24 25q-4 16 -9 53t-14 92q-2 27 -28 27h-2l-168 -8 l-6 -322q0 -16 26 -16l213 -12q16 0 17 -17v-2l-7 -186q0 -18 -24 -19l-217 -32q-25 -4 -25 -23l2 -182q0 -14 21 -17l252 -16v111q14 61 45 67l149 8h2q31 0 33 -38l47 -414v-10q0 -33 -29 -33l-206 4q-102 2 -163 3t-83 1q-53 0 -164 -6q-41 -104 -117 -141 q-92 -45 -239 -46q-270 0 -420 142q-92 86 -92 504zM248 727q0 -104 16 -180q25 -104 60 -137q33 -31 114 -31h6q57 0 97 45v6q0 16 20 29q45 82 45 254q0 51 -5 120.5t-15 157.5q-12 117 -35 152q-31 47 -111 47q-126 0 -153 -100q-10 -29 -23 -127q-8 -63 -12 -123 t-4 -113z" />
<glyph unicode="&#x153;" horiz-adv-x="1773" d="M25 705v12q0 195 139 325q133 127 338 134h14q215 0 332 -183q76 240 289 271q45 6 92 6q184 0 321 -109q115 -92 136 -205q10 -53 15 -106t5 -109q0 -96 -14 -116q-14 -35 -74 -35l-434 -4q-49 10 -56 41q-4 29 -7 60.5t-3 66.5q0 51 72 55q129 8 210 14t118 11 q27 2 26 51q0 55 -35 108q-59 86 -178 86q-37 0 -88 -10q-111 -23 -166 -117q-25 -41 -36 -90t-11 -106q0 -160 74 -254q129 -164 452 -164q43 0 48 -62l6 -114v-6q0 -41 -31 -43q-16 -2 -34.5 -3t-39.5 -1q-424 0 -583 288q-29 49 -43 86q-111 -205 -412 -204 q-137 0 -274 106q-166 127 -168 320zM297 717q0 -59 47 -117q57 -70 166 -70h16q193 8 193 201v25q-4 59 -62 102q-57 41 -118 45h-17q-100 0 -162 -49q-63 -51 -63 -135v-2z" />
<glyph unicode="&#x178;" horiz-adv-x="1212" d="M24 1190q0 14 15 27l211 147q14 10 30 10q27 0 39 -26l184 -410q12 -27 23 -27q10 0 29 27q4 8 85 114.5t236 317.5q4 6 13.5 8t19.5 2q16 0 27 -6q14 -10 44.5 -32.5t62.5 -46t58.5 -46t32.5 -32.5q8 -20 8 -31q0 -18 -12 -31q-53 -74 -122.5 -173t-135.5 -189 q-76 -104 -153 -213q-12 -18 -18.5 -44t-6.5 -49l20 -647q2 -29 -16 -42t-41 -13q-72 0 -144.5 6t-117.5 16t-45 56l-19 739q0 20 -6 33.5t-12 23.5l-279 496q-10 16 -10 35zM80 1606q0 92 60.5 154.5t164.5 62.5q47 0 85 -21.5t63.5 -55.5t40 -75.5t14.5 -82.5 q0 -92 -58.5 -139.5t-152.5 -47.5q-102 0 -159.5 59.5t-57.5 145.5zM170 1596q0 -51 31.5 -83t103.5 -32q121 0 121 119q0 53 -38 94t-98 41q-66 0 -93 -39t-27 -100zM573 1655q0 41 15.5 79t42 67.5t62.5 47t77 17.5q104 0 169.5 -61.5t65.5 -155.5q0 -98 -54 -164.5 t-151 -66.5q-104 0 -165.5 66.5t-61.5 170.5zM661 1639q0 -61 36.5 -99t102.5 -38q53 0 85 30.5t32 93.5q0 135 -143 136q-45 0 -79 -37t-34 -86z" />
<glyph unicode="&#x2c6;" horiz-adv-x="1099" d="M166 1296q0 25 18 43l340 320q37 33 66 33q33 0 67 -37q4 -6 76 -103.5t211 -289.5q16 -27 17 -45q0 -16 -11 -27l-94 -86q-18 -14 -29 -14q-10 0 -20 14l-201 295q-14 23 -31 22q-10 0 -32 -16l-256 -242q-18 -14 -29 -14q-12 0 -14 8l-66 105q-12 14 -12 34z" />
<glyph unicode="&#x2dc;" horiz-adv-x="1056" d="M180 1384.5q6 20.5 17 28.5q6 4 34.5 24.5t79.5 53.5q101 68 121 76q49 20 92 -15q49 -43 111 -98q33 -25 61 -4q41 29 79 57.5t75 61.5q18 18 34.5 7t39.5 -34q12 -16 21 -29.5t18 -23.5q14 -29 -7 -55q-4 -6 -26.5 -27t-61.5 -55q-41 -37 -63.5 -57.5t-30.5 -24.5 q-23 -16 -49.5 -9t-50.5 19q-23 14 -44.5 29.5t-43.5 29.5q-35 25 -58.5 35t-40.5 10q-35 -6 -165 -116q-29 -29 -60 0q-37 27 -78 82q-10 14 -4 34.5z" />
<glyph unicode="&#x2000;" horiz-adv-x="1105" />
<glyph unicode="&#x2001;" horiz-adv-x="2210" />
<glyph unicode="&#x2002;" horiz-adv-x="1105" />
<glyph unicode="&#x2003;" horiz-adv-x="2210" />
<glyph unicode="&#x2004;" horiz-adv-x="736" />
<glyph unicode="&#x2005;" horiz-adv-x="552" />
<glyph unicode="&#x2006;" horiz-adv-x="368" />
<glyph unicode="&#x2007;" horiz-adv-x="368" />
<glyph unicode="&#x2008;" horiz-adv-x="276" />
<glyph unicode="&#x2009;" horiz-adv-x="442" />
<glyph unicode="&#x200a;" horiz-adv-x="122" />
<glyph unicode="&#x2010;" horiz-adv-x="860" d="M25 850q0 47 19.5 88t72.5 45q43 2 114.5 4t147.5 2q78 0 148.5 -1t113.5 -3q90 -4 121 -26.5t31 -88.5q0 -49 -21.5 -79.5t-77.5 -32.5q-135 -6 -271 -12.5t-271 -6.5q-72 0 -99.5 21.5t-27.5 89.5z" />
<glyph unicode="&#x2011;" horiz-adv-x="860" d="M25 850q0 47 19.5 88t72.5 45q43 2 114.5 4t147.5 2q78 0 148.5 -1t113.5 -3q90 -4 121 -26.5t31 -88.5q0 -49 -21.5 -79.5t-77.5 -32.5q-135 -6 -271 -12.5t-271 -6.5q-72 0 -99.5 21.5t-27.5 89.5z" />
<glyph unicode="&#x2012;" horiz-adv-x="860" d="M25 850q0 47 19.5 88t72.5 45q43 2 114.5 4t147.5 2q78 0 148.5 -1t113.5 -3q90 -4 121 -26.5t31 -88.5q0 -49 -21.5 -79.5t-77.5 -32.5q-135 -6 -271 -12.5t-271 -6.5q-72 0 -99.5 21.5t-27.5 89.5z" />
<glyph unicode="&#x2013;" horiz-adv-x="673" d="M23 803q0 12 4 20q2 45 71 45q66 8 177.5 12.5t271.5 4.5q29 0 45 -23q12 -18 12 -39v-6q0 -33 -2 -37q-8 -20 -47 -28q-20 -4 -78.5 -6.5t-157.5 -4.5q-47 0 -83.5 -1t-65.5 -1q-27 0 -44 1t-28 1q-70 2 -73 39q-2 8 -2 23z" />
<glyph unicode="&#x2014;" horiz-adv-x="1165" d="M23 813v8q0 31 12 41q14 10 61 15q23 2 143.5 6t338.5 8q180 4 288.5 6t145.5 2h18q68 -10 68 -53v-39q0 -35 -54 -45q-10 -2 -127.5 -7t-345.5 -14q-217 -8 -339.5 -13t-151.5 -5h-2q-47 0 -53 39z" />
<glyph unicode="&#x2018;" horiz-adv-x="503" d="M27 1102q0 41 17 110.5t46 136t67 115.5t79 49q43 0 75.5 -25.5t32.5 -60.5q0 -14 -12.5 -36.5t-25.5 -45t-25.5 -44t-12.5 -33.5q0 -6 6 -8q80 -23 134.5 -73t54.5 -136q0 -88 -55.5 -136.5t-133.5 -48.5q-119 0 -183 66t-64 170z" />
<glyph unicode="&#x2019;" horiz-adv-x="509" d="M27 1333q0 88 57 133t135 45q119 0 184.5 -64.5t65.5 -186.5q0 -35 -9 -81t-22.5 -95.5t-31 -94.5t-35.5 -76q-14 -23 -36 -33t-44 -10q-41 0 -73 22.5t-32 57.5q0 16 9.5 38t20.5 44.5t20.5 43t9.5 34.5q0 8 -8 8q-90 16 -150.5 66.5t-60.5 148.5z" />
<glyph unicode="&#x201a;" horiz-adv-x="503" d="M27 221q0 41 17 110.5t46 136.5t67 116t79 49q43 0 75.5 -25.5t32.5 -60.5q0 -14 -12.5 -37t-25.5 -45.5t-25.5 -44t-12.5 -33.5q0 -6 6 -8q80 -23 134.5 -73t54.5 -136q0 -88 -55.5 -136t-133.5 -48q-119 0 -183 65.5t-64 169.5z" />
<glyph unicode="&#x201c;" horiz-adv-x="983" d="M27 1102q0 41 17 110.5t46 136t67 115.5t79 49q43 0 75.5 -25.5t32.5 -60.5q0 -14 -12.5 -36.5t-25.5 -45t-25.5 -44t-12.5 -33.5q0 -6 6 -8q80 -23 134.5 -73t54.5 -136q0 -88 -55.5 -136.5t-133.5 -48.5q-119 0 -183 66t-64 170zM510 1120q0 33 9 80t22.5 96.5t31 94.5 t35.5 75q14 23 36 33t44 10q41 0 73 -22.5t32 -56.5q0 -16 -9.5 -38t-20.5 -44.5t-20.5 -43t-9.5 -34.5q0 -8 8 -8q90 -16 150.5 -66.5t60.5 -148.5q0 -88 -57 -133.5t-135 -45.5q-119 0 -184.5 64.5t-65.5 187.5z" />
<glyph unicode="&#x201d;" horiz-adv-x="983" d="M27 1333q0 88 57 133t135 45q119 0 184.5 -64.5t65.5 -186.5q0 -35 -9 -81t-22.5 -95.5t-31 -94.5t-35.5 -76q-14 -23 -36 -33t-44 -10q-41 0 -73 22.5t-32 57.5q0 16 9.5 38t20.5 44.5t20.5 43t9.5 34.5q0 8 -8 8q-90 16 -150.5 66.5t-60.5 148.5zM516 1329 q0 88 55.5 136t133.5 48q119 0 183 -65.5t64 -169.5q0 -41 -17 -110.5t-46 -136t-67 -116t-79 -49.5q-43 0 -75.5 26t-32.5 60q0 14 12 37t25.5 45.5t26 44t12.5 33.5q0 4 -6 8q-80 23 -134.5 73t-54.5 136z" />
<glyph unicode="&#x201e;" horiz-adv-x="983" d="M27 213q0 41 17 110.5t46 136t67 116t79 49.5q43 0 75.5 -26t32.5 -60q0 -14 -12.5 -37t-25.5 -45.5t-25.5 -44t-12.5 -33.5q0 -6 6 -8q80 -23 134.5 -73t54.5 -136q0 -88 -55.5 -136.5t-133.5 -48.5q-119 0 -183 66t-64 170zM510 231q0 33 9 80t22.5 96.5t31 94.5 t35.5 76q14 23 36 33t44 10q41 0 73 -23t32 -57q0 -16 -9.5 -38t-20.5 -44.5t-20.5 -43t-9.5 -34.5q0 -8 8 -8q90 -16 150.5 -66.5t60.5 -148.5q0 -88 -57 -133t-135 -45q-119 0 -184.5 64.5t-65.5 186.5z" />
<glyph unicode="&#x2022;" horiz-adv-x="868" d="M51 791q0 84 26.5 155.5t76 123.5t120 82t158.5 30q182 0 287.5 -93.5t105.5 -254.5q0 -184 -98 -283.5t-281 -99.5q-98 0 -172.5 25.5t-124 71.5t-74 107.5t-24.5 135.5z" />
<glyph unicode="&#x2026;" horiz-adv-x="1415" d="M25 160v2q0 63 48 106t134 43q23 0 50.5 -8t51 -23.5t40 -38t18.5 -48.5q0 -90 -35 -136.5t-121 -50.5q-80 0 -133 44t-53 110zM489 135v2q0 78 60.5 132.5t167.5 54.5q29 0 62.5 -10.5t62 -30t48 -47t21.5 -60.5q0 -111 -41.5 -168t-150.5 -61q-102 0 -166 52t-64 136z M1001 131v2q0 63 48.5 106.5t134.5 43.5q23 0 50.5 -8.5t51 -23.5t39.5 -38t18 -49q0 -90 -34.5 -136.5t-120.5 -50.5q-80 0 -133.5 44.5t-53.5 109.5z" />
<glyph unicode="&#x202f;" horiz-adv-x="442" />
<glyph unicode="&#x2039;" horiz-adv-x="780" d="M20.5 730q6.5 36 40.5 73l435 436q12 16 32.5 15t34.5 -15l111 -111q16 -16 12 -28.5t-18 -24.5l-328 -325q-16 -23 6 -39l336 -242q31 -23 31 -53q0 -20 -13 -35q-18 -23 -41.5 -51.5t-50.5 -63.5q-16 -16 -36.5 -15t-36.5 15l-474 389q-47 39 -40.5 75z" />
<glyph unicode="&#x203a;" horiz-adv-x="786" d="M24 442.5q5 20.5 27 42.5q84 59 169 120t171 122q27 16 8 41l-331 328q-31 29 -7 53l113 113q16 16 33 16q18 0 35 -16l438 -443q25 -25 31 -45t6 -29q0 -35 -37 -71l-481 -391q-20 -12 -37 -16.5t-33 12.5q-18 20 -42 48.5t-52 67.5q-16 27 -11 47.5z" />
<glyph unicode="&#x205f;" horiz-adv-x="552" />
<glyph unicode="&#x20ac;" horiz-adv-x="1200" d="M10 565q0 16 2 31.5t6 32.5q8 68 84 71q27 2 50 2h43q29 0 28 21q0 33 2 41q0 16 -2 18t-20 2h-19q-10 0 -26 -2h-25q-98 0 -106 60q-2 8 -2 14q0 8 -2 16v11q0 16 2 34.5t6 34.5q16 68 84 74q2 0 10 1t25 1h22h45h33q8 2 14 29q49 260 139 340q82 76 203 76 q49 0 135 -19q250 -53 326 -176q59 -96 59 -215q0 -14 -1 -27.5t-3 -23.5q-10 -66 -57 -66h-6l-228 21q-23 2 -26 59q-4 82 -14 107q-27 59 -113 75q-12 2 -23.5 3t-21.5 1q-111 0 -154 -155q-2 -8 -3 -12.5t-1 -8.5v-2q4 -4 25 -4q66 0 105.5 -1t56.5 -3q111 -16 116 -76 q2 -10 2 -28q0 -41 -12 -72q-18 -43 -88 -49q-23 -2 -75 -4t-134 -6h-6h-14q-6 -4 -7 -13l-2 -41q-2 -8 -2 -18q0 -8 2 -10q4 -4 27 -4q76 0 123 -1.5t67 -3.5q86 -10 93 -73q2 -10 2 -19v-16q0 -18 -3 -33.5t-8 -32.5q-4 -10 -12 -26q-18 -25 -53 -25q-35 -2 -95.5 -3 t-148.5 -5q8 -133 43 -180q27 -37 101 -41h6q63 0 106 43q33 33 74 125q4 37 45 43q8 2 20 2q10 0 27 -4l211 -49q37 -10 49 -68v-8q0 -49 -20 -125q-27 -109 -84 -176q-72 -80 -172 -80q-20 0 -63.5 3t-108.5 11q-367 39 -420 203q-27 86 -31 293h-31q-14 0 -30 -2h-27 q-102 0 -115 61q-2 12 -3 23.5t-1 23.5z" />
<glyph unicode="&#x2122;" horiz-adv-x="1382" d="M25 1503q0 25 22 25l494 10h2q49 0 49 -37v-16t-2 -19q-2 -10 -2 -16v-10q0 -8 -41 -37q-47 -2 -119 -12q-31 0 -31 -33q0 -27 6 -176q6 -158 11 -170q0 -37 -29 -37q-20 -4 -45 -4q-35 0 -86 6q-27 8 -27 33l-4 346q0 12 -12 12l-125 10q-14 0 -27 4q-20 6 -22 21 q-12 45 -12 100zM635 987q0 61 102 399v5q0 6 -6 12q-4 4 -6 4l-4 -4h-29q-2 0 -8 12q-6 8 -6 17v2l4 79q14 33 53 33l135 -12q25 0 31 -23q10 -16 26.5 -39.5t37.5 -56.5q6 -20 16 -20t27 22l100 105q27 12 47 12q4 0 5 -1t5 -1q29 -6 43 -39q8 -12 105 -563v-4 q0 -12 -17 -23q-12 -4 -94 -4q-25 0 -33 25q-33 166 -49 255t-16 105q0 20 -14 21q-2 0 -5 -2q-10 -12 -65 -62q-55 -49 -74 -53h-2q-12 0 -45 43q-10 12 -18.5 25.5t-18.5 25.5q-4 4 -8 4h-4q-10 -4 -10 -10l-76 -301q-10 -31 -41 -31q-2 0 -33 10t-31 11q-25 0 -24 22z " />
<glyph unicode="&#x25fc;" horiz-adv-x="1187" d="M0 0v1188h1188v-1188h-1188z" />
<glyph unicode="&#xfb01;" horiz-adv-x="1435" d="M20 655v52q0 27 3.5 49t7.5 35q0 39 67 45q35 4 77 8t95 8q25 2 25 35v256q0 98 30.5 162.5t86 102.5t134.5 53.5t177 15.5q20 0 56 -3.5t74 -7.5t73 -9t57 -9q27 -6 27 -39v-192q-8 -33 -60 -33q-4 0 -42 2t-84 5t-87 5t-49 2q-59 0 -96 -19.5t-47 -80.5 q-25 -141 -25 -207q0 -29 6 -49.5t43 -22.5l551 -24q78 -4 104.5 -44t43.5 -112q0 -4 8 -50t18.5 -112.5l22.5 -142.5t22.5 -141.5t17.5 -111.5t7 -50q4 -35 1 -53.5t-32 -38.5q-16 -10 -221 -11q-6 0 -16.5 3t-17.5 8.5t-9 9.5t4 8q2 0 -1 22.5t-7 59.5t-10 84t-13 96 q-16 113 -34 260q0 16 -13.5 25.5t-23.5 9.5l-359 -14q-27 0 -26 -27l-6 -530q0 -43 -45 -45q-23 -2 -56 -2t-65.5 1t-60 4t-36.5 9q-41 10 -43 59q-2 66 -3 206t-1 357q0 10 -28 15l-80 4q-41 2 -66 2h-30q-41 0 -43 57q-2 18 -3 45zM1024 1030q0 61 37.5 99t109.5 36 q53 -2 97.5 -42t44.5 -109q0 -49 -41 -79t-90 -30q-66 0 -112 32t-46 93z" />
<glyph unicode="&#xfb02;" horiz-adv-x="1292" d="M29 639l8 180q2 39 67 45q35 4 60.5 8.5t79.5 8.5q25 2 24 37v253q0 98 35 163t94.5 103t139 53t170.5 15q35 0 79.5 -4t88 -8t79 -8t54.5 -4q33 0 59.5 1t44.5 -6.5t28.5 -26.5t10.5 -63q0 -12 10 -170.5t27 -470.5q16 -299 24.5 -463.5t10.5 -197.5q2 -8 2 -21 q0 -12 -3 -31.5t-34 -23.5l-207 -20q-23 -2 -40 13t-17 36q0 76 8 234.5t8 416.5q0 166 -5 283.5t-15 189.5q-2 20 -27 33.5t-59.5 20t-72.5 8.5t-67 2q-27 0 -56.5 -5.5t-55 -16.5t-43 -29.5t-21.5 -47.5q-10 -72 -16 -124t-6 -84q0 -29 5 -46.5t42 -21.5q23 -2 64.5 -3 t107.5 -5q70 -2 86 -82q2 -8 4 -25.5t4 -38t3 -41t1 -34.5q0 -31 -20.5 -55.5t-38.5 -24.5t-60.5 -3t-107.5 -8q-27 -2 -27 -28l-6 -529q0 -43 -45 -45q-23 -2 -55 -2q-31 0 -64 1t-59.5 3t-38.5 9q-39 8 -43 59q-2 66 -2 197v348q0 10 -8.5 22.5t-22.5 12.5q-49 0 -76.5 1 t-42.5 1q-12 0 -16 1t-8 1q-45 0 -43 57z" />
</font>
</defs>
</svg>
