<?xml version="1.0" standalone="no"?>
<!DOCTYPE svg PUBLIC "-//W3C//DTD SVG 1.1//EN" "http://www.w3.org/Graphics/SVG/1.1/DTD/svg11.dtd" >
<svg xmlns="http://www.w3.org/2000/svg">
    <defs>
        <font id="SourceCodePro-LightIt">
            <font-face font-family="Source Code Pro Light"
                       units-per-em="1000"
                       ascent="984"
                       descent="-273"
                       bbox="-276 -400 805 1060"
                    />
            <missing-glyph horiz-adv-x="0" />
            
            <glyph glyph-name="!" unicode="&#x21;" horiz-adv-x="395" d=" M267,219 L336,599 L350,672 L395,672 L381,599 L299,219 M239,-12 Q218,-12 205.5,1.5 Q193,15 193,38 Q193,67 213,89.5 Q233,112 260,112 Q282,112 294.5,98 Q307,84 307,61 Q307,33 286.5,10.5 Q266,-12 239,-12"/> 
            <glyph glyph-name="&quot;" unicode="&#x22;" horiz-adv-x="516" d=" M194,384 L218,601 L237,688 L308,688 L291,601 L227,384 M402,384 L426,601 L445,688 L516,688 L499,601 L435,384"/> 
            <glyph glyph-name="#" unicode="&#x23;" horiz-adv-x="539" d=" M282,0 L349,215 L190,215 L123,0 L88,0 L155,215 L74,215 L84,249 L166,249 L219,421 L134,421 L144,456 L230,456 L291,650 L325,650 L265,456 L424,456 L484,650 L518,650 L458,456 L539,456 L530,421 L447,421 L394,249 L480,249 L470,215 L383,215 L317,0 M359,249 L413,421 L254,421 L200,249"/> 
            <glyph glyph-name="$" unicode="&#x24;" horiz-adv-x="515" d=" M275,34 L266,34 L238,-110 L202,-110 L231,37 Q132,53 63,133 L93,159 Q166,70 278,70 Q346,70 388.5,100 Q431,130 431,184 Q431,208 422.5,226 Q414,244 391.5,261 Q369,278 350.5,288 Q332,298 293,318 Q220,355 187.5,389 Q155,423 155,476 Q155,547 204,582.5 Q253,618 332,618 L338,618 L365,750 L400,750 L372,614 Q417,605 456,578.5 Q495,552 515,522 L486,499 Q422,582 329,582 Q269,582 232.5,556 Q196,530 196,483 Q196,443 223,414.5 Q250,386 317,353 Q357,333 378.5,320.5 Q400,308 425,288 Q450,268 461,244 Q472,220 472,189 Q472,111 415,72.5 Q358,34 275,34"/> 
            <glyph glyph-name="%" unicode="&#x25;" horiz-adv-x="619" d=" M102,326 Q54,326 23,359 Q-8,392 -8,449 Q-8,535 41.5,593 Q91,651 163,651 Q212,651 243,618 Q274,585 274,528 Q274,443 224.5,384.5 Q175,326 102,326 M109,358 Q160,358 198,406 Q236,454 236,522 Q236,569 215,594.5 Q194,620 157,620 Q106,620 68,572 Q30,524 30,455 Q30,408 51,383 Q72,358 109,358 M9,33 L-15,61 L205,259 L222,240 M400,399 L383,418 L594,623 L619,596 M378,-12 Q330,-12 299,21 Q268,54 268,111 Q268,197 317.5,255 Q367,313 439,313 Q488,313 519,280 Q550,247 550,190 Q550,105 500.5,46.5 Q451,-12 378,-12 M385,20 Q436,20 474,68 Q512,116 512,184 Q512,231 491,256.5 Q470,282 433,282 Q382,282 344,234 Q306,186 306,117 Q306,70 327,45 Q348,20 385,20"/> 
            <glyph glyph-name="&amp;" unicode="&#x26;" horiz-adv-x="567" d=" M180,-12 Q113,-12 70,27 Q27,66 27,132 Q27,205 72.5,256.5 Q118,308 203,363 Q185,428 185,480 Q185,564 232,617.5 Q279,671 344,671 Q389,671 413,644.5 Q437,618 437,578 Q437,541 422.5,508.5 Q408,476 375,446 Q342,416 318,398.5 Q294,381 247,350 Q290,225 380,122 Q467,210 526,343 L567,343 Q501,198 404,97 Q450,51 514,22 L495,-12 Q431,15 376,69 Q285,-12 180,-12 M223,484 Q223,437 237,384 Q277,409 299.5,425.5 Q322,442 349,466.5 Q376,491 388,517 Q400,543 400,572 Q400,599 385.5,618 Q371,637 343,637 Q292,637 257.5,593.5 Q223,550 223,484 M187,24 Q269,24 352,95 Q262,198 215,329 Q145,282 107,239 Q69,196 69,139 Q69,85 101.5,54.5 Q134,24 187,24"/> 
            <glyph glyph-name="'" unicode="&#x27;" horiz-adv-x="412" d=" M298,384 L322,601 L341,688 L412,688 L395,601 L331,384"/> 
            <glyph glyph-name="(" unicode="&#x28;" horiz-adv-x="564" d=" M365,-175 Q291,-113 250.5,-20.5 Q210,72 210,182 Q210,356 298,497 Q386,638 545,730 L564,700 Q252,508 252,184 Q252,-22 394,-146"/> 
            <glyph glyph-name=")" unicode="&#x29;" horiz-adv-x="387" d=" M56,-184 L36,-154 Q345,36 345,362 Q345,567 204,694 L231,720 Q305,659 346,566 Q387,473 387,364 Q387,189 300.5,48 Q214,-93 56,-184"/> 
            <glyph glyph-name="*" unicode="&#x2A;" horiz-adv-x="518" d=" M144,131 L120,150 L259,317 L113,388 L128,415 L284,358 L329,547 L360,547 L332,355 L509,415 L518,388 L339,312 L422,140 L393,123 L297,287"/> 
            <glyph glyph-name="+" unicode="&#x2B;" horiz-adv-x="504" d=" M281,110 L281,313 L96,313 L96,347 L281,347 L281,550 L319,550 L319,347 L504,347 L504,313 L319,313 L319,110"/> 
            <glyph glyph-name="," unicode="&#x2C;" horiz-adv-x="322" d=" M105,-202 L97,-171 Q168,-150 213,-104 Q258,-58 265,-2 Q253,-4 248,-4 Q226,-4 213,10 Q200,24 200,47 Q200,76 220.5,97 Q241,118 269,118 Q322,118 322,45 Q322,-43 261.5,-109.5 Q201,-176 105,-202"/> 
            <glyph glyph-name="-" unicode="&#x2D;" horiz-adv-x="504" d=" M96,313 L96,347 L504,347 L504,313"/> 
            <glyph glyph-name="." unicode="&#x2E;" horiz-adv-x="308" d=" M238,-12 Q216,-12 203.5,2.5 Q191,17 191,40 Q191,69 212,92 Q233,115 260,115 Q282,115 295,101 Q308,87 308,63 Q308,34 286.5,11 Q265,-12 238,-12"/> 
            <glyph glyph-name="/" unicode="&#x2F;" horiz-adv-x="568" d=" M25,-160 L526,710 L568,710 L68,-160"/> 
            <glyph glyph-name="0" unicode="&#x30;" horiz-adv-x="532" d=" M252,-12 Q165,-12 117.5,54 Q70,120 70,231 Q70,329 100.5,422.5 Q131,516 197,583.5 Q263,651 350,651 Q437,651 484.5,584.5 Q532,518 532,406 Q532,335 514,262.5 Q496,190 462,128 Q428,66 373,27 Q318,-12 252,-12 M256,24 Q328,24 384,87 Q440,150 466,234 Q492,318 492,400 Q492,501 455.5,558.5 Q419,616 347,616 Q275,616 218.5,552.5 Q162,489 136,404.5 Q110,320 110,238 Q110,137 146.5,80.5 Q183,24 256,24 M297,266 Q276,266 263,280.5 Q250,295 250,319 Q250,348 268,369.5 Q286,391 309,391 Q330,391 343,376.5 Q356,362 356,338 Q356,309 338,287.5 Q320,266 297,266"/> 
            <glyph glyph-name="1" unicode="&#x31;" horiz-adv-x="471" d=" M50,0 L58,36 L247,36 L355,571 L218,571 L223,599 Q323,611 377,639 L410,639 L288,36 L471,36 L465,0"/> 
            <glyph glyph-name="2" unicode="&#x32;" horiz-adv-x="494" d=" M48,0 L51,27 Q153,113 202.5,156.5 Q252,200 311,256.5 Q370,313 394.5,347 Q419,381 436,420 Q453,459 453,497 Q453,615 330,615 Q235,615 149,522 L124,549 Q221,651 339,651 Q412,651 453,610.5 Q494,570 494,501 Q494,465 484.5,432 Q475,399 448.5,360.5 Q422,322 397.5,292.5 Q373,263 320,213.5 Q267,164 229,131 Q191,98 114,33 Q165,37 232,37 L489,37 L483,0"/> 
            <glyph glyph-name="3" unicode="&#x33;" horiz-adv-x="509" d=" M249,-12 Q119,-12 37,93 L67,116 Q133,24 251,24 Q330,24 383.5,65 Q437,106 437,177 Q437,312 216,316 L222,351 Q345,351 406,394 Q467,437 467,507 Q467,558 432,586.5 Q397,615 339,615 Q243,615 164,543 L141,571 Q230,651 344,651 Q418,651 463.5,615.5 Q509,580 509,515 Q509,445 464.5,397.5 Q420,350 332,334 L332,331 Q478,303 478,182 Q478,90 414,39 Q350,-12 249,-12"/> 
            <glyph glyph-name="4" unicode="&#x34;" horiz-adv-x="530" d=" M333,0 L371,192 L28,192 L33,217 L468,639 L501,639 L419,228 L530,228 L522,192 L411,192 L373,0 M95,228 L378,228 L429,485 Q437,524 452,580 L449,580 Q399,524 372,497"/> 
            <glyph glyph-name="5" unicode="&#x35;" horiz-adv-x="535" d=" M249,-12 Q114,-12 32,93 L62,118 Q130,24 250,24 Q333,24 393.5,77 Q454,130 454,221 Q454,291 417.5,327.5 Q381,364 313,364 Q282,364 251.5,356.5 Q221,349 201.5,340.5 Q182,332 149,316 L124,335 L198,639 L535,639 L529,603 L229,603 L170,360 Q258,399 322,399 Q401,399 448,357.5 Q495,316 495,229 Q495,118 424,53 Q353,-12 249,-12"/> 
            <glyph glyph-name="6" unicode="&#x36;" horiz-adv-x="548" d=" M272,-12 Q184,-12 128,51 Q72,114 72,220 Q72,326 99,410.5 Q126,495 171.5,546.5 Q217,598 272,624.5 Q327,651 387,651 Q494,651 548,569 L518,546 Q468,615 384,615 Q287,615 208,529.5 Q129,444 115,284 Q154,334 211,364.5 Q268,395 334,395 Q405,395 453,352.5 Q501,310 501,225 Q501,124 435.5,56 Q370,-12 272,-12 M275,23 Q354,23 407.5,81 Q461,139 461,218 Q461,289 422,324.5 Q383,360 327,360 Q207,360 112,240 L112,224 Q112,130 157.5,76.5 Q203,23 275,23"/> 
            <glyph glyph-name="7" unicode="&#x37;" horiz-adv-x="572" d=" M169,0 Q220,205 295,337 Q370,469 511,603 L123,603 L130,639 L572,639 L567,612 Q412,465 339.5,334 Q267,203 218,0"/> 
            <glyph glyph-name="8" unicode="&#x38;" horiz-adv-x="527" d=" M270,-12 Q186,-12 130,31.5 Q74,75 74,153 Q74,282 239,353 L239,357 Q171,422 171,489 Q171,565 225.5,608 Q280,651 362,651 Q433,651 480,613 Q527,575 527,506 Q527,383 393,314 L393,310 Q489,246 489,168 Q489,84 427.5,36 Q366,-12 270,-12 M364,329 Q420,357 454,401.5 Q488,446 488,501 Q488,556 451,586.5 Q414,617 359,617 Q297,617 254,583.5 Q211,550 211,492 Q211,439 252,400.5 Q293,362 364,329 M271,23 Q347,23 398.5,59.5 Q450,96 450,161 Q450,175 447,188 Q444,201 436,213.5 Q428,226 421.5,235 Q415,244 400.5,255.5 Q386,267 377.5,273.5 Q369,280 350.5,291 Q332,302 324,306.5 Q316,311 294,322.5 Q272,334 266,337 Q191,301 152,259.5 Q113,218 113,158 Q113,94 159,58.5 Q205,23 271,23"/> 
            <glyph glyph-name="9" unicode="&#x39;" horiz-adv-x="530" d=" M274,279 Q395,279 490,399 L490,416 Q490,510 444.5,563 Q399,616 327,616 Q248,616 194.5,558.5 Q141,501 141,421 Q141,350 179.5,314.5 Q218,279 274,279 M215,-12 Q107,-12 54,71 L84,94 Q132,24 218,24 Q263,24 307,44 Q351,64 389,103.5 Q427,143 453.5,208.5 Q480,274 487,356 Q448,306 391,275.5 Q334,245 268,245 Q197,245 149,287.5 Q101,330 101,414 Q101,515 166.5,583 Q232,651 329,651 Q418,651 474,588.5 Q530,526 530,420 Q530,314 503,229 Q476,144 430.5,92.5 Q385,41 330,14.5 Q275,-12 215,-12"/> 
            <glyph glyph-name=":" unicode="&#x3A;" horiz-adv-x="382" d=" M312,366 Q290,366 277.5,380.5 Q265,395 265,418 Q265,447 286,470 Q307,493 334,493 Q356,493 369,479 Q382,465 382,441 Q382,412 360.5,389 Q339,366 312,366 M238,-12 Q216,-12 203.5,2.5 Q191,17 191,40 Q191,69 212,92 Q233,115 260,115 Q282,115 295,101 Q308,87 308,63 Q308,34 286.5,11 Q265,-12 238,-12"/> 
            <glyph glyph-name=";" unicode="&#x3B;" horiz-adv-x="382" d=" M312,366 Q290,366 277.5,380.5 Q265,395 265,418 Q265,447 286,470 Q307,493 334,493 Q356,493 369,479 Q382,465 382,441 Q382,412 360.5,389 Q339,366 312,366 M105,-202 L97,-171 Q168,-150 213,-104 Q258,-58 265,-2 Q253,-4 248,-4 Q226,-4 213,10 Q200,24 200,47 Q200,76 220.5,97 Q241,118 269,118 Q322,118 322,45 Q322,-43 261.5,-109.5 Q201,-176 105,-202"/> 
            <glyph glyph-name="&lt;" unicode="&#x3C;" horiz-adv-x="488" d=" M488,59 L123,313 L123,351 L488,606 L488,560 L163,334 L163,330 L488,105"/> 
            <glyph glyph-name="=" unicode="&#x3D;" horiz-adv-x="504" d=" M96,415 L96,449 L504,449 L504,415 M96,211 L96,245 L504,245 L504,211"/> 
            <glyph glyph-name="&gt;" unicode="&#x3E;" horiz-adv-x="477" d=" M112,59 L112,105 L437,330 L437,334 L112,560 L112,606 L477,351 L477,313"/> 
            <glyph glyph-name="?" unicode="&#x3F;" horiz-adv-x="508" d=" M233,219 Q233,244 241.5,267.5 Q250,291 258,305 Q266,319 289,342 Q312,365 319,371.5 Q326,378 356,403 Q360,406 376.5,419.5 Q393,433 397.5,436.5 Q402,440 415.5,452 Q429,464 433.5,469.5 Q438,475 446.5,486.5 Q455,498 458,506.5 Q461,515 464,526.5 Q467,538 467,550 Q467,592 439.5,619 Q412,646 358,646 Q272,646 206,569 L180,591 Q257,682 363,682 Q432,682 470,647.5 Q508,613 508,559 Q508,538 501.5,518 Q495,498 489.5,485.5 Q484,473 465.5,453.5 Q447,434 441.5,428.5 Q436,423 410,402 Q384,381 382,379 Q317,325 300,304 Q271,267 270,219 M218,-12 Q196,-12 183.5,1.5 Q171,15 171,38 Q171,67 191.5,89.5 Q212,112 239,112 Q260,112 272.5,98 Q285,84 285,61 Q285,33 265,10.5 Q245,-12 218,-12"/> 
            <glyph glyph-name="@" unicode="&#x40;" horiz-adv-x="566" d=" M269,-143 Q156,-143 94.5,-66.5 Q33,10 33,149 Q33,357 140.5,493.5 Q248,630 395,630 Q566,630 566,477 Q566,435 558,399 L499,100 L470,100 L477,164 L473,164 Q401,88 324,88 Q275,88 242.5,114 Q210,140 210,189 Q210,272 285.5,318.5 Q361,365 519,382 Q532,435 532,471 Q532,597 392,597 Q266,597 168,471 Q70,345 70,155 Q70,30 123.5,-40 Q177,-110 273,-110 Q344,-110 416,-57 L433,-85 Q355,-143 269,-143 M331,121 Q398,121 484,207 L513,352 Q376,333 311.5,295 Q247,257 247,195 Q247,159 270.5,140 Q294,121 331,121"/> 
            <glyph glyph-name="A" unicode="&#x41;" horiz-adv-x="492" d=" M250,394 L179,264 L416,264 L401,391 Q395,433 386,513 Q377,593 374,617 L369,617 Q358,597 250,394 M-12,0 L357,659 L403,659 L492,0 L448,0 L420,229 L160,229 L34,0"/> 
            <glyph glyph-name="B" unicode="&#x42;" horiz-adv-x="536" d=" M50,0 L182,659 L342,659 Q439,659 487.5,622 Q536,585 536,516 Q536,449 489.5,404.5 Q443,360 387,351 L387,347 Q441,335 476,299.5 Q511,264 511,207 Q511,104 439.5,52 Q368,0 245,0 M166,368 L277,368 Q382,368 437,407 Q492,446 492,512 Q492,567 453,594.5 Q414,622 325,622 L218,622 M100,37 L230,37 Q469,37 469,204 Q469,261 422,296 Q375,331 293,331 L160,331"/> 
            <glyph glyph-name="C" unicode="&#x43;" horiz-adv-x="571" d=" M306,-12 Q198,-12 140,60 Q82,132 82,248 Q82,349 121,444.5 Q160,540 238.5,605.5 Q317,671 416,671 Q514,671 571,578 L538,555 Q494,634 413,634 Q348,634 292,598.5 Q236,563 200.5,506.5 Q165,450 145.5,384 Q126,318 126,254 Q126,151 172,88 Q218,25 311,25 Q390,25 467,89 L489,61 Q401,-12 306,-12"/> 
            <glyph glyph-name="D" unicode="&#x44;" horiz-adv-x="552" d=" M28,0 L160,659 L281,659 Q414,659 483,591 Q552,523 552,403 Q552,225 457,112.5 Q362,0 190,0 M77,36 L191,36 Q340,36 424,137.5 Q508,239 508,400 Q508,505 450,564 Q392,623 279,623 L195,623"/> 
            <glyph glyph-name="E" unicode="&#x45;" horiz-adv-x="596" d=" M73,0 L205,659 L596,659 L588,622 L240,622 L189,368 L480,368 L472,331 L183,331 L122,37 L480,37 L472,0"/> 
            <glyph glyph-name="F" unicode="&#x46;" horiz-adv-x="610" d=" M93,0 L225,659 L610,659 L602,622 L259,622 L206,355 L492,355 L484,318 L200,318 L136,0"/> 
            <glyph glyph-name="G" unicode="&#x47;" horiz-adv-x="569" d=" M303,-12 Q189,-12 130,58.5 Q71,129 71,248 Q71,324 94,398.5 Q117,473 159,534 Q201,595 267.5,633 Q334,671 413,671 Q511,671 569,578 L536,555 Q492,634 411,634 Q321,634 251,573 Q181,512 147.5,426.5 Q114,341 114,254 Q114,152 161,88.5 Q208,25 307,25 Q388,25 443,75 L485,286 L333,286 L341,322 L533,322 L479,54 Q401,-12 303,-12"/> 
            <glyph glyph-name="H" unicode="&#x48;" horiz-adv-x="581" d=" M27,0 L159,659 L202,659 L143,368 L479,368 L538,659 L581,659 L449,0 L406,0 L473,331 L136,331 L70,0"/> 
            <glyph glyph-name="I" unicode="&#x49;" horiz-adv-x="562" d=" M46,0 L54,37 L222,37 L339,622 L170,622 L178,659 L562,659 L554,622 L382,622 L265,37 L436,37 L428,0"/> 
            <glyph glyph-name="J" unicode="&#x4A;" horiz-adv-x="523" d=" M201,-12 Q144,-12 100.5,15.5 Q57,43 33,84 L63,108 Q112,25 205,25 Q282,25 327,72.5 Q372,120 391,217 L472,622 L186,622 L194,659 L523,659 L433,211 Q410,98 354.5,43 Q299,-12 201,-12"/> 
            <glyph glyph-name="K" unicode="&#x4B;" horiz-adv-x="605" d=" M605,659 L323,395 L511,0 L464,0 L292,366 L147,229 L101,0 L58,0 L190,659 L233,659 L159,292 L163,292 L553,659"/> 
            <glyph glyph-name="L" unicode="&#x4C;" horiz-adv-x="514" d=" M119,0 L250,659 L293,659 L170,37 L514,37 L506,0"/> 
            <glyph glyph-name="M" unicode="&#x4D;" horiz-adv-x="581" d=" M26,0 L158,659 L215,659 L269,326 L280,231 L284,231 L333,326 L524,659 L581,659 L450,0 L408,0 L503,470 Q512,518 537,610 L533,610 Q504,549 473,496 L293,180 L254,180 L205,495 Q194,558 188,610 L184,610 Q165,487 162,473 L67,0"/> 
            <glyph glyph-name="N" unicode="&#x4E;" horiz-adv-x="578" d=" M33,0 L165,659 L210,659 L376,189 L419,57 L423,57 Q444,192 455,243 L536,659 L578,659 L446,0 L402,0 L236,470 L192,602 L188,602 Q169,482 156,414 L75,0"/> 
            <glyph glyph-name="O" unicode="&#x4F;" horiz-adv-x="562" d=" M255,-12 Q158,-12 103,58 Q48,128 48,243 Q48,319 69,394.5 Q90,470 127.5,532 Q165,594 224.5,632.5 Q284,671 354,671 Q452,671 507,601 Q562,531 562,416 Q562,340 541,264.5 Q520,189 482.5,127 Q445,65 385.5,26.5 Q326,-12 255,-12 M259,25 Q338,25 399.5,87 Q461,149 490,236.5 Q519,324 519,414 Q519,515 476,574.5 Q433,634 351,634 Q272,634 210.5,572 Q149,510 120,422.5 Q91,335 91,245 Q91,144 134,84.5 Q177,25 259,25"/> 
            <glyph glyph-name="P" unicode="&#x50;" horiz-adv-x="565" d=" M65,0 L197,659 L369,659 Q565,659 565,506 Q565,398 490.5,342 Q416,286 286,286 L165,286 L108,0 M172,322 L282,322 Q522,322 522,502 Q522,565 479.5,594 Q437,623 350,623 L232,623"/> 
            <glyph glyph-name="Q" unicode="&#x51;" horiz-adv-x="562" d=" M259,24 Q319,24 369.5,60 Q420,96 452,154 Q484,212 501.5,279.5 Q519,347 519,414 Q519,515 476,574.5 Q433,634 351,634 Q272,634 210.5,572 Q149,510 120,422.5 Q91,335 91,245 Q91,143 134,83.5 Q177,24 259,24 M393,-154 Q328,-154 281.5,-118 Q235,-82 221,-10 Q139,3 93.5,71 Q48,139 48,243 Q48,319 69,394.5 Q90,470 127.5,532 Q165,594 224.5,632.5 Q284,671 354,671 Q452,671 507,601 Q562,531 562,416 Q562,314 528,219.5 Q494,125 424.5,58 Q355,-9 264,-12 Q274,-62 309.5,-89 Q345,-116 397,-116 Q448,-116 477,-102 L487,-137 Q443,-154 393,-154"/> 
            <glyph glyph-name="R" unicode="&#x52;" horiz-adv-x="537" d=" M46,0 L178,659 L342,659 Q537,659 537,513 Q537,426 478.5,370.5 Q420,315 326,303 L452,0 L404,0 L282,301 L149,301 L89,0 M157,337 L272,337 Q377,337 435.5,383 Q494,429 494,510 Q494,570 452.5,596.5 Q411,623 324,623 L213,623"/> 
            <glyph glyph-name="S" unicode="&#x53;" horiz-adv-x="525" d=" M257,-12 Q115,-12 45,100 L77,124 Q141,25 260,25 Q333,25 381,67 Q429,109 429,176 Q429,252 344,301 L260,351 Q155,412 155,502 Q155,572 208.5,621.5 Q262,671 344,671 Q402,671 449,646 Q496,621 525,581 L495,556 Q433,634 338,634 Q278,634 238.5,595.5 Q199,557 199,507 Q199,435 283,387 L367,337 Q472,277 472,181 Q472,94 411,41 Q350,-12 257,-12"/> 
            <glyph glyph-name="T" unicode="&#x54;" horiz-adv-x="620" d=" M216,0 L339,620 L110,620 L118,659 L620,659 L612,620 L382,620 L259,0"/> 
            <glyph glyph-name="U" unicode="&#x55;" horiz-adv-x="581" d=" M259,-12 Q170,-12 120.5,39.5 Q71,91 71,182 Q71,218 80,267 L159,659 L202,659 L124,272 Q114,226 114,190 Q114,111 152.5,68 Q191,25 264,25 Q331,25 382,77.5 Q433,130 455,242 L538,659 L581,659 L496,234 Q470,105 407.5,46.5 Q345,-12 259,-12"/> 
            <glyph glyph-name="V" unicode="&#x56;" horiz-adv-x="621" d=" M213,0 L143,659 L185,659 L224,270 Q240,106 246,48 L250,48 Q273,93 366,269 L576,659 L621,659 L263,0"/> 
            <glyph glyph-name="W" unicode="&#x57;" horiz-adv-x="633" d=" M71,0 L103,659 L145,659 L117,157 Q113,56 108,33 L112,33 Q113,35 138.5,96 Q164,157 165,159 L308,469 L352,469 L381,221 Q396,90 399,38 L405,38 Q405,40 421,100.5 Q437,161 438,164 L592,659 L633,659 L427,0 L368,0 L335,302 Q330,345 324,422 L319,422 Q300,367 270,302 L131,0"/> 
            <glyph glyph-name="X" unicode="&#x58;" horiz-adv-x="586" d=" M12,0 L278,344 L146,659 L192,659 L274,462 Q293,417 308,369 L312,369 Q356,432 380,461 L536,659 L586,659 L330,338 L470,0 L424,0 L339,205 Q333,218 318,257 Q303,296 299,307 L295,307 Q260,257 220,205 L61,0"/> 
            <glyph glyph-name="Y" unicode="&#x59;" horiz-adv-x="614" d=" M217,0 L266,241 L121,659 L165,659 L240,440 Q276,335 291,275 L295,275 Q338,341 408,440 L569,659 L614,659 L307,236 L260,0"/> 
            <glyph glyph-name="Z" unicode="&#x5A;" horiz-adv-x="579" d=" M481,0 L22,0 L28,25 L513,623 L135,623 L143,659 L579,659 L573,633 L88,37 L489,37"/> 
            <glyph glyph-name="[" unicode="&#x5B;" horiz-adv-x="570" d=" M138,-152 L310,708 L570,708 L565,680 L338,680 L179,-124 L405,-124 L400,-152"/> 
            <glyph glyph-name="\" unicode="&#x5C;" horiz-adv-x="393" d=" M356,-160 L204,710 L241,710 L393,-160"/> 
            <glyph glyph-name="]" unicode="&#x5D;" horiz-adv-x="448" d=" M16,-152 L21,-124 L248,-124 L408,680 L181,680 L186,708 L448,708 L276,-152"/> 
            <glyph glyph-name="^" unicode="&#x5E;" horiz-adv-x="472" d=" M128,290 L278,670 L322,670 L472,290 L432,290 L353,496 L302,628 L298,628 L247,496 L168,290"/> 
            <glyph glyph-name="_" unicode="&#x5F;" horiz-adv-x="463" d=" M-26,-124 L-17,-80 L463,-80 L454,-124"/> 
            <glyph glyph-name="`" unicode="&#x60;" horiz-adv-x="417" d=" M390,570 L271,731 L308,758 L417,590"/> 
            <glyph glyph-name="a" unicode="&#x61;" horiz-adv-x="542" d=" M231,-12 Q153,-12 107.5,35.5 Q62,83 62,171 Q62,301 140,396.5 Q218,492 330,492 Q437,492 485,414 L489,414 L508,480 L542,480 L446,0 L411,0 L422,77 L418,77 Q327,-12 231,-12 M239,24 Q334,24 430,129 L480,369 Q422,456 331,456 Q237,456 170.5,371.5 Q104,287 104,179 Q104,102 140,63 Q176,24 239,24"/> 
            <glyph glyph-name="b" unicode="&#x62;" horiz-adv-x="528" d=" M260,-12 Q160,-12 103,66 L99,66 L82,0 L48,0 L191,719 L232,719 L190,510 L165,403 L169,403 Q270,492 358,492 Q437,492 482.5,442 Q528,392 528,300 Q528,168 452.5,78 Q377,-12 260,-12 M259,24 Q357,24 421.5,104 Q486,184 486,293 Q486,372 450,414 Q414,456 350,456 Q308,456 256.5,428 Q205,400 160,355 L110,107 Q168,24 259,24"/> 
            <glyph glyph-name="c" unicode="&#x63;" horiz-adv-x="536" d=" M287,-12 Q189,-12 130,43 Q71,98 71,201 Q71,327 157.5,409.5 Q244,492 359,492 Q473,492 536,407 L507,382 Q451,456 349,456 Q260,456 186,382 Q112,308 112,207 Q112,118 160.5,71 Q209,24 292,24 Q382,24 463,98 L485,69 Q445,32 392,10 Q339,-12 287,-12"/> 
            <glyph glyph-name="d" unicode="&#x64;" horiz-adv-x="591" d=" M231,-12 Q153,-12 107.5,35.5 Q62,83 62,171 Q62,301 140,396.5 Q218,492 330,492 Q435,492 485,415 L489,415 L508,510 L550,719 L591,719 L446,0 L411,0 L422,77 L418,77 Q327,-12 231,-12 M239,24 Q334,24 430,129 L480,369 Q422,456 331,456 Q237,456 170.5,371.5 Q104,287 104,179 Q104,102 140,63 Q176,24 239,24"/> 
            <glyph glyph-name="e" unicode="&#x65;" horiz-adv-x="518" d=" M271,-12 Q178,-12 125,42 Q72,96 72,192 Q72,319 152.5,405.5 Q233,492 343,492 Q426,492 472,441.5 Q518,391 518,310 Q518,264 508,237 L117,237 Q114,216 114,195 Q114,117 157.5,70.5 Q201,24 277,24 Q375,24 453,93 L473,63 Q386,-12 271,-12 M339,457 Q269,457 208,405 Q147,353 124,272 L474,272 Q478,289 478,313 Q478,379 440.5,418 Q403,457 339,457"/> 
            <glyph glyph-name="f" unicode="&#x66;" horiz-adv-x="624" d=" M184,0 L273,444 L130,444 L136,476 L280,480 L295,553 Q331,731 494,731 Q568,731 624,683 L601,655 Q551,695 493,695 Q365,695 336,549 L322,480 L545,480 L537,444 L315,444 L226,0"/> 
            <glyph glyph-name="g" unicode="&#x67;" horiz-adv-x="542" d=" M197,-229 Q94,-229 23,-172 L46,-141 Q107,-193 201,-193 Q279,-193 331.5,-153 Q384,-113 399,-36 L422,83 L418,83 Q329,-3 233,-3 Q155,-3 109,44 Q63,91 63,177 Q63,305 140.5,398.5 Q218,492 330,492 Q437,492 485,414 L489,414 L508,480 L542,480 L437,-45 Q419,-136 355,-182.5 Q291,-229 197,-229 M240,33 Q334,33 430,135 L480,369 Q422,456 331,456 Q237,456 171,373.5 Q105,291 105,185 Q105,109 140.5,71 Q176,33 240,33"/> 
            <glyph glyph-name="h" unicode="&#x68;" horiz-adv-x="521" d=" M48,0 L191,719 L232,719 L173,424 L161,374 L165,374 Q225,430 279,461 Q333,492 398,492 Q461,492 491,460.5 Q521,429 521,375 Q521,339 511,292 L453,0 L412,0 L470,288 Q480,336 480,367 Q480,409 456,432 Q432,455 387,455 Q280,455 154,321 L89,0"/> 
            <glyph glyph-name="i" unicode="&#x69;" horiz-adv-x="474" d=" M350,-12 Q298,-12 266.5,16 Q235,44 235,98 Q235,120 241,148 L305,444 L119,444 L127,480 L353,480 L281,140 Q277,123 277,105 Q277,24 359,24 Q399,24 462,53 L474,21 Q405,-12 350,-12 M342,597 Q324,597 313,607.5 Q302,618 302,636 Q302,658 317.5,674 Q333,690 353,690 Q372,690 382.5,679 Q393,668 393,651 Q393,629 377.5,613 Q362,597 342,597"/> 
            <glyph glyph-name="j" unicode="&#x6A;" horiz-adv-x="464" d=" M112,-229 Q42,-229 -15,-187 L6,-156 Q53,-193 116,-193 Q247,-193 278,-43 L376,444 L141,444 L149,480 L425,480 L321,-39 Q301,-135 253,-182 Q205,-229 112,-229 M413,597 Q395,597 384,607.5 Q373,618 373,636 Q373,658 388.5,674 Q404,690 424,690 Q442,690 453,679 Q464,668 464,651 Q464,629 448.5,613 Q433,597 413,597"/> 
            <glyph glyph-name="k" unicode="&#x6B;" horiz-adv-x="571" d=" M66,0 L209,719 L251,719 L146,190 L150,190 L517,480 L571,480 L339,292 L499,0 L454,0 L308,267 L134,134 L107,0"/> 
            <glyph glyph-name="l" unicode="&#x6C;" horiz-adv-x="449" d=" M324,-12 Q271,-12 239,17 Q207,46 207,102 Q207,123 214,150 L323,684 L149,684 L157,719 L370,719 L256,155 Q250,130 250,106 Q250,24 333,24 Q380,24 436,53 L449,20 Q387,-12 324,-12"/> 
            <glyph glyph-name="m" unicode="&#x6D;" horiz-adv-x="556" d=" M12,0 L108,480 L141,480 L132,413 L135,413 Q199,492 268,492 Q341,492 341,409 Q412,492 482,492 Q556,492 556,409 Q556,383 550,352 L480,0 L439,0 L509,351 Q514,383 514,398 Q514,455 468,455 Q404,455 338,359 L266,0 L225,0 L296,351 Q301,375 301,398 Q301,455 254,455 Q221,455 191,432 Q161,409 124,359 L53,0"/> 
            <glyph glyph-name="n" unicode="&#x6E;" horiz-adv-x="521" d=" M48,0 L144,480 L178,480 L162,373 L166,373 Q224,429 278.5,460.5 Q333,492 398,492 Q461,492 491,460.5 Q521,429 521,375 Q521,339 511,292 L453,0 L412,0 L470,288 Q480,336 480,367 Q480,409 456,432 Q432,455 387,455 Q280,455 154,321 L89,0"/> 
            <glyph glyph-name="o" unicode="&#x6F;" horiz-adv-x="521" d=" M247,-12 Q157,-12 105,45.5 Q53,103 53,196 Q53,319 134,405.5 Q215,492 327,492 Q417,492 469,434.5 Q521,377 521,284 Q521,161 440,74.5 Q359,-12 247,-12 M250,24 Q341,24 410.5,100 Q480,176 480,279 Q480,360 438.5,408 Q397,456 324,456 Q233,456 164,380 Q95,304 95,202 Q95,120 136,72 Q177,24 250,24"/> 
            <glyph glyph-name="p" unicode="&#x70;" horiz-adv-x="528" d=" M4,-217 L144,480 L179,480 L166,401 L170,401 Q271,492 359,492 Q436,492 482,441.5 Q528,391 528,300 Q528,168 452.5,78 Q377,-12 260,-12 Q212,-12 171,9 Q130,30 103,65 L100,65 L79,-43 L46,-217 M260,24 Q357,24 421.5,104 Q486,184 486,293 Q486,372 450,414 Q414,456 350,456 Q308,456 256.5,428 Q205,400 160,355 L110,107 Q168,24 260,24"/> 
            <glyph glyph-name="q" unicode="&#x71;" horiz-adv-x="542" d=" M362,-217 L397,-43 Q397,-41 410,16 Q423,73 424,77 L420,77 Q329,-12 231,-12 Q153,-12 107.5,35.5 Q62,83 62,171 Q62,301 140,396.5 Q218,492 330,492 Q437,492 485,414 L489,414 L508,480 L542,480 L403,-217 M239,24 Q334,24 430,129 L480,369 Q422,456 331,456 Q237,456 170.5,371.5 Q104,287 104,179 Q104,102 140,63 Q176,24 239,24"/> 
            <glyph glyph-name="r" unicode="&#x72;" horiz-adv-x="544" d=" M111,0 L207,480 L242,480 L217,338 L221,338 Q330,492 446,492 Q504,492 544,465 L524,430 Q490,453 440,453 Q330,453 207,273 L152,0"/> 
            <glyph glyph-name="s" unicode="&#x73;" horiz-adv-x="504" d=" M272,-12 Q212,-12 154.5,12 Q97,36 64,76 L91,103 Q158,23 281,23 Q346,23 385.5,47.5 Q425,72 425,121 Q425,160 391,182 Q357,204 279,230 Q203,256 170.5,288 Q138,320 138,367 Q138,428 184.5,460 Q231,492 304,492 Q426,492 504,414 L479,387 Q399,457 301,457 Q243,457 210.5,434 Q178,411 178,371 Q178,332 209,309.5 Q240,287 308,264 Q389,237 427.5,208 Q466,179 466,125 Q466,55 412.5,21.5 Q359,-12 272,-12"/> 
            <glyph glyph-name="t" unicode="&#x74;" horiz-adv-x="537" d=" M306,-12 Q239,-12 204.5,24 Q170,60 170,120 Q170,141 178,183 L232,444 L84,444 L90,476 L240,480 L278,639 L313,639 L281,480 L537,480 L529,444 L273,444 L217,176 Q211,149 211,128 Q211,77 238,50.5 Q265,24 313,24 Q383,24 448,59 L463,28 Q399,-12 306,-12"/> 
            <glyph glyph-name="u" unicode="&#x75;" horiz-adv-x="539" d=" M190,-12 Q127,-12 96.5,19.5 Q66,51 66,105 Q66,143 76,188 L134,480 L176,480 L118,192 Q108,144 108,114 Q108,71 131.5,48 Q155,25 200,25 Q307,25 433,159 L498,480 L539,480 L443,0 L409,0 L425,107 L421,107 Q363,51 309,19.5 Q255,-12 190,-12"/> 
            <glyph glyph-name="v" unicode="&#x76;" horiz-adv-x="570" d=" M218,0 L96,480 L137,480 L214,175 Q237,75 248,37 L252,37 Q266,63 336,176 L526,480 L570,480 L267,0"/> 
            <glyph glyph-name="w" unicode="&#x77;" horiz-adv-x="620" d=" M74,0 L46,480 L89,480 L104,166 Q106,120 108,38 L112,38 Q163,157 167,166 L305,473 L356,473 L373,166 Q376,119 378,38 L382,38 Q404,87 437,166 L576,480 L620,480 L402,0 L346,0 L330,298 Q328,321 326.5,364.5 Q325,408 324,432 L321,432 Q277,327 264,297 L130,0"/> 
            <glyph glyph-name="x" unicode="&#x78;" horiz-adv-x="536" d=" M25,0 L264,251 L134,480 L179,480 L248,355 L255,342 Q262,329 269.5,314 Q277,299 283.5,286 Q290,273 290,272 L294,272 Q295,274 329.5,314 Q364,354 366,355 L484,480 L536,480 L311,245 L455,0 L408,0 L333,133 Q333,134 321,155 Q309,176 297,197.5 Q285,219 285,220 L279,220 Q278,218 244,180 Q210,142 208,140 L78,0"/> 
            <glyph glyph-name="y" unicode="&#x79;" horiz-adv-x="571" d=" M26,-219 Q-12,-219 -41,-203 L-26,-171 Q-2,-183 29,-183 Q77,-183 108.5,-157.5 Q140,-132 185,-63 L223,-5 L96,480 L137,480 L214,175 Q218,157 224,132.5 Q230,108 237,77.5 Q244,47 247,33 L251,33 Q301,119 336,175 L526,480 L571,480 L220,-74 Q170,-153 130,-186 Q90,-219 26,-219"/> 
            <glyph glyph-name="z" unicode="&#x7A;" horiz-adv-x="526" d=" M41,0 L45,26 L461,445 L121,445 L129,480 L526,480 L522,455 L106,36 L467,36 L459,0"/> 
            <glyph glyph-name="{" unicode="&#x7B;" horiz-adv-x="585" d=" M323,-152 Q201,-152 201,-66 Q201,-32 230,68.5 Q259,169 259,198 Q259,262 121,263 L128,293 Q278,294 294,375 Q299,401 310,470.5 Q321,540 329,578 Q356,708 493,708 L585,708 L580,680 L493,680 Q443,680 407.5,652.5 Q372,625 361,574 Q355,543 345.5,478.5 Q336,414 330,384 Q320,337 295.5,310.5 Q271,284 227,278 L227,274 Q260,270 275.5,251 Q291,232 291,208 Q291,174 263.5,73 Q236,-28 236,-58 Q236,-124 336,-124 L420,-124 L413,-152"/> 
            <glyph glyph-name="|" unicode="&#x7C;" horiz-adv-x="320" d=" M280,-250 L280,750 L320,750 L320,-250"/> 
            <glyph glyph-name="}" unicode="&#x7D;" horiz-adv-x="471" d=" M6,-152 L11,-124 L98,-124 Q148,-124 184,-96.5 Q220,-69 230,-18 Q236,13 246,78 Q256,143 262,172 Q281,267 364,278 L364,282 Q332,286 316,305.5 Q300,325 300,348 Q300,382 327.5,483 Q355,584 355,614 Q355,680 256,680 L171,680 L178,708 L268,708 Q390,708 390,622 Q390,588 361.5,487.5 Q333,387 333,358 Q333,294 471,293 L463,263 Q313,262 297,181 Q292,154 281.5,84.5 Q271,15 263,-22 Q236,-152 98,-152"/> 
            <glyph glyph-name="~" unicode="&#x7E;" horiz-adv-x="508" d=" M389,267 Q363,267 336.5,281 Q310,295 291.5,312.5 Q273,330 250.5,344 Q228,358 209,358 Q180,358 160,340 Q140,322 122,269 L92,279 Q130,393 211,393 Q237,393 263.5,379 Q290,365 308.5,347.5 Q327,330 349.5,316 Q372,302 391,302 Q421,302 441,319.5 Q461,337 478,391 L508,379 Q469,267 389,267"/> 
            <glyph glyph-name="¡" unicode="&#xA1;" horiz-adv-x="381" d=" M307,261 L238,-119 L224,-192 L179,-192 L193,-119 L275,261 M335,492 Q356,492 368.5,478.5 Q381,465 381,442 Q381,413 361,390.5 Q341,368 314,368 Q292,368 279.5,382 Q267,396 267,419 Q267,447 287.5,469.5 Q308,492 335,492"/> 
            <glyph glyph-name="¢" unicode="&#xA2;" horiz-adv-x="506" d=" M151,270 Q151,207 180.5,168 Q210,129 264,121 L343,504 Q261,494 206,428.5 Q151,363 151,270 M233,-29 L256,84 Q189,92 149,139.5 Q109,187 109,264 Q109,383 179.5,458.5 Q250,534 350,542 L373,652 L405,652 L383,543 Q455,538 506,479 L479,456 Q435,503 375,506 L296,119 Q369,120 438,175 L457,148 Q379,82 289,82 L266,-29"/> 
            <glyph glyph-name="£" unicode="&#xA3;" horiz-adv-x="545" d=" M26,0 L31,24 Q202,101 202,251 Q202,265 200,297 L80,297 L87,324 L197,327 Q187,432 187,448 Q187,546 241.5,598.5 Q296,651 387,651 Q488,651 545,563 L515,541 Q468,617 386,617 Q312,617 269.5,574 Q227,531 227,449 Q227,413 237,327 L438,327 L431,297 L239,297 Q241,271 241,259 Q242,116 115,41 L115,36 L464,36 L455,0"/> 
            <glyph glyph-name="¤" unicode="&#xA4;" horiz-adv-x="572" d=" M59,94 L34,122 L136,208 Q118,246 118,292 Q118,387 182,453 L116,538 L147,565 L213,479 Q273,521 341,521 Q406,521 445,478 L549,566 L572,536 L468,449 Q486,414 486,364 Q486,269 424,205 L493,114 L462,87 L393,180 Q336,137 264,137 Q197,137 158,179 M270,173 Q339,173 392,226.5 Q445,280 445,359 Q445,418 415.5,452 Q386,486 335,486 Q267,486 213.5,431 Q160,376 160,298 Q160,240 188,206.5 Q216,173 270,173"/> 
            <glyph glyph-name="¥" unicode="&#xA5;" horiz-adv-x="598" d=" M220,0 L253,169 L62,169 L68,196 L258,196 L273,274 L82,274 L89,301 L266,301 L136,640 L178,640 L249,443 Q288,337 298,305 L301,305 Q344,366 402,443 L551,640 L598,640 L333,301 L511,301 L505,274 L313,274 L298,196 L491,196 L484,169 L293,169 L260,0"/> 
            <glyph glyph-name="¦" unicode="&#xA6;" horiz-adv-x="320" d=" M280,-250 L280,190 L320,190 L320,-250 M280,310 L280,750 L320,750 L320,310"/> 
            <glyph glyph-name="§" unicode="&#xA7;" horiz-adv-x="493" d=" M237,-48 Q154,-48 83,26 L109,55 Q169,-13 239,-13 Q284,-13 316,13 Q348,39 348,80 Q348,102 340.5,119 Q333,136 314.5,151.5 Q296,167 282.5,175.5 Q269,184 239,201 Q182,232 153,265.5 Q124,299 124,347 Q124,442 238,490 Q219,520 219,560 Q219,614 258.5,647.5 Q298,681 356,681 Q427,681 493,608 L464,583 Q415,646 354,646 Q313,646 286,623.5 Q259,601 259,561 Q259,541 265.5,524.5 Q272,508 289,493.5 Q306,479 319,469.5 Q332,460 359,444 Q387,427 403.5,415 Q420,403 440,383.5 Q460,364 470,340.5 Q480,317 480,289 Q480,234 452.5,202.5 Q425,171 370,148 Q387,122 387,85 Q387,25 344.5,-11.5 Q302,-48 237,-48 M261,234 Q326,198 350,173 Q395,190 418,214.5 Q441,239 441,283 Q441,326 415.5,353 Q390,380 338,411 Q276,449 258,466 Q213,446 188,420.5 Q163,395 163,355 Q163,315 185,289 Q207,263 261,234"/> 
            <glyph glyph-name="¨" unicode="&#xA8;" horiz-adv-x="491" d=" M275,598 Q260,598 250.5,608 Q241,618 241,634 Q241,655 254,669 Q267,683 286,683 Q319,683 319,648 Q319,627 306.5,612.5 Q294,598 275,598 M446,598 Q432,598 422.5,608 Q413,618 413,634 Q413,655 426,669 Q439,683 457,683 Q472,683 481.5,673.5 Q491,664 491,648 Q491,627 478,612.5 Q465,598 446,598"/> 
            <glyph glyph-name="©" unicode="&#xA9;" horiz-adv-x="575" d=" M236,-12 Q141,-12 86,57 Q31,126 31,242 Q31,420 127.5,536.5 Q224,653 369,652 Q465,652 520,584 Q575,516 575,401 Q575,223 478.5,105.5 Q382,-12 236,-12 M242,19 Q367,19 454,128.5 Q541,238 541,397 Q541,501 494,561.5 Q447,622 363,622 Q238,622 151.5,514 Q65,406 65,246 Q65,142 111.5,80.5 Q158,19 242,19 M280,130 Q225,130 192,170 Q159,210 159,280 Q159,384 218.5,448.5 Q278,513 356,513 Q415,513 451,461 L426,439 Q409,462 393,471.5 Q377,481 351,481 Q293,481 245.5,423.5 Q198,366 198,282 Q198,227 221,196 Q244,165 286,164 Q337,164 386,208 L405,182 Q348,130 280,130"/> 
            <glyph glyph-name="ª" unicode="&#xAA;" horiz-adv-x="504" d=" M291,398 Q239,398 210,430.5 Q181,463 181,522 Q181,615 237,673 Q293,731 369,731 Q418,731 461,693 L464,693 L472,723 L504,723 L441,406 L409,406 L413,446 L412,446 Q347,398 291,398 M306,431 Q357,431 419,481 L453,662 Q413,699 366,699 Q309,699 265.5,650.5 Q222,602 222,530 Q222,483 243.5,457 Q265,431 306,431"/> 
            <glyph glyph-name="«" unicode="&#xAB;" horiz-adv-x="496" d=" M198,66 L88,234 L94,271 L268,435 L288,413 L134,249 L225,84 M406,66 L296,234 L302,271 L476,435 L496,413 L342,249 L433,84"/> 
            <glyph glyph-name="¬" unicode="&#xAC;" horiz-adv-x="504" d=" M466,110 L466,313 L96,313 L96,347 L504,347 L504,110"/> 
            <glyph glyph-name="­" unicode="&#xAD;" horiz-adv-x="504" d=" M96,313 L96,347 L504,347 L504,313"/> 
            <glyph glyph-name="®" unicode="&#xAE;" horiz-adv-x="536" d=" M312,324 Q247,324 205.5,368 Q164,412 164,482 Q164,582 228.5,647 Q293,712 389,712 Q453,712 494.5,668.5 Q536,625 536,554 Q536,453 473,388.5 Q410,324 312,324 M318,352 Q399,352 453,408.5 Q507,465 507,549 Q507,613 473,649.5 Q439,686 383,686 Q305,686 249,628 Q193,570 193,486 Q193,424 227.5,388 Q262,352 318,352 M363,600 L329,600 L313,518 L343,518 Q404,518 404,567 Q404,600 363,600 M263,418 L304,625 L372,625 Q436,625 436,568 Q436,515 381,499 L417,418 L383,418 L353,494 L345,494 L308,494 L293,418"/> 
            <glyph glyph-name="¯" unicode="&#xAF;" horiz-adv-x="484" d=" M241,606 L246,640 L484,640 L479,606"/> 
            <glyph glyph-name="°" unicode="&#xB0;" horiz-adv-x="465" d=" M326,449 Q287,449 260.5,475 Q234,501 234,545 Q234,607 275,645.5 Q316,684 373,684 Q413,684 439,658.5 Q465,633 465,588 Q465,525 424.5,487 Q384,449 326,449 M332,479 Q373,479 402.5,510 Q432,541 432,584 Q432,616 415,635.5 Q398,655 367,655 Q325,655 296,624 Q267,593 267,549 Q267,518 284,498.5 Q301,479 332,479"/> 
            <glyph glyph-name="±" unicode="&#xB1;" horiz-adv-x="504" d=" M281,107 L281,310 L96,310 L96,346 L281,346 L281,550 L319,550 L319,346 L504,346 L504,310 L319,310 L319,107 M96,0 L96,36 L504,36 L504,0"/> 
            <glyph glyph-name="²" unicode="&#xB2;" horiz-adv-x="470" d=" M183,406 L188,434 Q330,537 381.5,591.5 Q433,646 433,704 Q433,776 359,776 Q315,776 267,723 L244,746 Q304,808 363,808 Q412,808 441,781 Q470,754 470,708 Q470,645 419,586.5 Q368,528 245,437 L435,437 L430,406"/> 
            <glyph glyph-name="³" unicode="&#xB3;" horiz-adv-x="465" d=" M307,394 Q264,394 230.5,417 Q197,440 180,474 L208,492 Q242,425 308,425 Q349,425 377,447.5 Q405,470 405,510 Q405,545 374,569 Q343,593 286,593 L293,622 Q361,622 395,648.5 Q429,675 429,712 Q429,742 409.5,759.5 Q390,777 357,777 Q310,777 264,740 L247,767 Q298,808 361,808 Q408,808 436.5,783 Q465,758 465,714 Q465,677 438.5,647 Q412,617 368,604 Q403,593 422.5,568 Q442,543 442,515 Q442,459 403,426.5 Q364,394 307,394"/> 
            <glyph glyph-name="´" unicode="&#xB4;" horiz-adv-x="489" d=" M325,580 L304,605 L462,750 L489,716"/> 
            <glyph glyph-name="µ" unicode="&#xB5;" horiz-adv-x="539" d=" M2,-182 L134,480 L175,480 L116,186 Q100,107 119,66 Q138,25 201,25 Q306,25 433,158 L498,480 L539,480 Q451,50 451,47 Q451,24 469,24 Q478,24 488,26 L488,-7 Q473,-12 457,-12 Q424,-12 417,15 Q410,42 425,107 L421,107 Q365,51 312,19.5 Q259,-12 196,-12 Q155,-12 128.5,3 Q102,18 87,59 Q52,-118 43,-182"/> 
            <glyph glyph-name="¶" unicode="&#xB6;" horiz-adv-x="522" d=" M327,242 Q232,242 168,287.5 Q104,333 104,414 Q104,530 181.5,594.5 Q259,659 366,659 L430,659 L345,242 M333,-80 L480,659 L522,659 L374,-80"/> 
            <glyph glyph-name="·" unicode="&#xB7;" horiz-adv-x="359" d=" M289,278 Q267,278 254.5,292.5 Q242,307 242,330 Q242,359 263,382 Q284,405 311,405 Q333,405 346,391 Q359,377 359,353 Q359,324 337.5,301 Q316,278 289,278"/> 
            <glyph glyph-name="¸" unicode="&#xB8;" horiz-adv-x="272" d=" M112,-219 L110,-191 Q232,-186 232,-132 Q232,-93 164,-87 L224,5 L259,5 L214,-67 Q248,-76 260,-89 Q272,-102 271,-125 Q270,-168 227,-192.5 Q184,-217 112,-219"/> 
            <glyph glyph-name="¹" unicode="&#xB9;" horiz-adv-x="460" d=" M178,406 L183,437 L307,437 L366,734 L263,734 L268,759 Q345,768 385,796 L414,796 L342,437 L460,437 L455,406"/> 
            <glyph glyph-name="º" unicode="&#xBA;" horiz-adv-x="500" d=" M311,398 Q257,398 222.5,433.5 Q188,469 188,530 Q188,619 244,675 Q300,731 377,731 Q433,731 466.5,695.5 Q500,660 500,598 Q500,509 444,453.5 Q388,398 311,398 M317,432 Q377,432 418.5,478.5 Q460,525 460,594 Q460,642 436,670.5 Q412,699 372,699 Q314,699 271,650.5 Q228,602 228,535 Q228,486 252,459 Q276,432 317,432"/> 
            <glyph glyph-name="»" unicode="&#xBB;" horiz-adv-x="466" d=" M77,67 L58,88 L211,253 L121,418 L148,435 L258,267 L251,231 M285,67 L266,88 L419,253 L329,418 L356,435 L466,267 L459,231"/> 
            <glyph glyph-name="¼" unicode="&#xBC;" horiz-adv-x="619" d=" M98,338 L147,580 L65,580 L71,608 Q121,617 164,639 L193,639 L133,338 M9,33 L-15,61 L205,259 L222,240 M400,399 L383,418 L594,623 L619,596 M419,0 L436,81 L271,81 L275,99 L445,313 L469,299 L320,109 L442,109 L461,196 L493,196 L475,109 L524,109 L518,81 L470,81 L453,0"/> 
            <glyph glyph-name="½" unicode="&#xBD;" horiz-adv-x="619" d=" M98,338 L147,580 L65,580 L71,608 Q121,617 164,639 L193,639 L133,338 M9,33 L-15,61 L205,259 L222,240 M400,399 L383,418 L594,623 L619,596 M270,0 L275,23 Q396,110 436,149 Q476,188 476,232 Q476,283 423,283 Q372,283 330,234 L309,255 Q360,313 429,313 Q468,313 491,292.5 Q514,272 514,235 Q514,184 472.5,140.5 Q431,97 334,31 L510,31 L504,0"/> 
            <glyph glyph-name="¾" unicode="&#xBE;" horiz-adv-x="619" d=" M112,326 Q45,326 3,383 L25,403 Q58,356 113,356 Q147,356 170,374 Q193,392 193,422 Q193,480 94,480 L99,505 Q150,505 179,525 Q208,545 208,575 Q208,621 152,621 Q107,621 67,583 L49,604 Q94,651 161,651 Q198,651 221,633 Q244,615 244,581 Q244,547 221.5,524 Q199,501 161,493 Q191,487 210,468.5 Q229,450 229,421 Q229,377 195.5,351.5 Q162,326 112,326 M9,33 L-15,61 L205,259 L222,240 M400,399 L383,418 L594,623 L619,596 M419,0 L436,81 L271,81 L275,99 L445,313 L469,299 L320,109 L442,109 L461,196 L493,196 L475,109 L524,109 L518,81 L470,81 L453,0"/> 
            <glyph glyph-name="¿" unicode="&#xBF;" horiz-adv-x="403" d=" M341,261 Q341,236 332.5,212.5 Q324,189 316,175 Q308,161 285,138 Q262,115 255,108.5 Q248,102 218,77 Q214,74 197.5,60.5 Q181,47 176.5,43.5 Q172,40 158.5,28 Q145,16 140.5,10.5 Q136,5 127.5,-6.5 Q119,-18 116,-26.5 Q113,-35 110,-46.5 Q107,-58 107,-70 Q107,-112 134.5,-139 Q162,-166 216,-166 Q302,-166 368,-89 L394,-111 Q317,-202 211,-202 Q142,-202 104,-167.5 Q66,-133 66,-79 Q66,-58 72.5,-38 Q79,-18 84.5,-5.5 Q90,7 108.5,26.5 Q127,46 132.5,51.5 Q138,57 164,78 Q190,99 192,101 Q257,155 274,176 Q303,213 304,261 M356,492 Q378,492 390.5,478.5 Q403,465 403,442 Q403,413 382.5,390.5 Q362,368 335,368 Q314,368 301.5,382 Q289,396 289,419 Q289,447 309,469.5 Q329,492 356,492"/> 
            <glyph glyph-name="À" unicode="&#xC0;" horiz-adv-x="492" d=" M250,394 L179,264 L416,264 L401,391 Q395,433 386,513 Q377,593 374,617 L369,617 Q358,597 250,394 M-12,0 L357,659 L403,659 L492,0 L448,0 L420,229 L160,229 L34,0 M402,702 L285,826 L318,854 L425,723"/> 
            <glyph glyph-name="Á" unicode="&#xC1;" horiz-adv-x="521" d=" M250,394 L179,264 L416,264 L401,391 Q395,433 386,513 Q377,593 374,617 L369,617 Q358,597 250,394 M-12,0 L357,659 L403,659 L492,0 L448,0 L420,229 L160,229 L34,0 M368,712 L351,736 L498,848 L521,813"/> 
            <glyph glyph-name="Â" unicode="&#xC2;" horiz-adv-x="518" d=" M250,394 L179,264 L416,264 L401,391 Q395,433 386,513 Q377,593 374,617 L369,617 Q358,597 250,394 M-12,0 L357,659 L403,659 L492,0 L448,0 L420,229 L160,229 L34,0 M265,707 L245,726 L380,842 L424,842 L518,726 L496,709 L401,808 L397,808"/> 
            <glyph glyph-name="Ã" unicode="&#xC3;" horiz-adv-x="563" d=" M250,394 L179,264 L416,264 L401,391 Q395,433 386,513 Q377,593 374,617 L369,617 Q358,597 250,394 M-12,0 L357,659 L403,659 L492,0 L448,0 L420,229 L160,229 L34,0 M457,718 Q434,718 414.5,730.5 Q395,743 384,758.5 Q373,774 357,786.5 Q341,799 324,799 Q278,799 255,721 L224,724 Q233,773 262,803.5 Q291,834 331,834 Q360,834 382,814 Q404,794 423.5,774 Q443,754 464,754 Q507,754 533,832 L563,829 Q555,780 526,749 Q497,718 457,718"/> 
            <glyph glyph-name="Ä" unicode="&#xC4;" horiz-adv-x="509" d=" M250,394 L179,264 L416,264 L401,391 Q395,433 386,513 Q377,593 374,617 L369,617 Q358,597 250,394 M-12,0 L357,659 L403,659 L492,0 L448,0 L420,229 L160,229 L34,0 M301,723 Q271,723 271,753 Q271,771 282,783 Q293,795 308,795 Q338,795 338,764 Q338,748 326.5,735.5 Q315,723 301,723 M472,723 Q443,723 443,753 Q443,771 454,783 Q465,795 480,795 Q509,795 509,764 Q509,747 498,735 Q487,723 472,723"/> 
            <glyph glyph-name="Å" unicode="&#xC5;" horiz-adv-x="492" d=" M250,394 L179,264 L416,264 L401,391 Q395,433 386,513 Q377,593 374,617 L369,617 Q358,597 250,394 M-12,0 L357,659 L403,659 L492,0 L448,0 L420,229 L160,229 L34,0 M386,701 Q354,701 332,721 Q310,741 310,777 Q310,815 338,842 Q366,869 406,869 Q438,869 460,849.5 Q482,830 482,794 Q482,755 454,728 Q426,701 386,701 M388,727 Q414,727 433,745.5 Q452,764 452,791 Q452,843 404,843 Q378,843 359,824.5 Q340,806 340,779 Q340,755 353,741 Q366,727 388,727"/> 
            <glyph glyph-name="Æ" unicode="&#xC6;" horiz-adv-x="651" d=" M234,391 L148,255 L314,255 L387,622 L381,622 Q353,578 234,391 M-60,0 L366,659 L651,659 L643,623 L427,623 L376,369 L549,369 L542,333 L369,333 L310,37 L536,37 L529,0 L263,0 L307,220 L126,220 L-14,0"/> 
            <glyph glyph-name="Ç" unicode="&#xC7;" horiz-adv-x="571" d=" M306,-12 L299,-12 L265,-67 Q299,-76 311,-89 Q323,-102 322,-125 Q321,-168 278,-192.5 Q235,-217 163,-219 L161,-191 Q283,-186 283,-132 Q283,-93 215,-87 L266,-9 Q177,4 129.5,73.5 Q82,143 82,248 Q82,349 121,444.5 Q160,540 238.5,605.5 Q317,671 416,671 Q514,671 571,578 L538,555 Q494,634 413,634 Q348,634 292,598.5 Q236,563 200.5,506.5 Q165,450 145.5,384 Q126,318 126,254 Q126,151 172,88 Q218,25 311,25 Q390,25 467,89 L489,61 Q401,-12 306,-12"/> 
            <glyph glyph-name="È" unicode="&#xC8;" horiz-adv-x="596" d=" M73,0 L205,659 L596,659 L588,622 L240,622 L189,368 L480,368 L472,331 L183,331 L122,37 L480,37 L472,0 M443,702 L326,826 L359,854 L466,723"/> 
            <glyph glyph-name="É" unicode="&#xC9;" horiz-adv-x="596" d=" M73,0 L205,659 L596,659 L588,622 L240,622 L189,368 L480,368 L472,331 L183,331 L122,37 L480,37 L472,0 M409,712 L392,736 L539,848 L562,813"/> 
            <glyph glyph-name="Ê" unicode="&#xCA;" horiz-adv-x="596" d=" M73,0 L205,659 L596,659 L588,622 L240,622 L189,368 L480,368 L472,331 L183,331 L122,37 L480,37 L472,0 M306,707 L286,726 L421,842 L465,842 L559,726 L537,709 L442,808 L438,808"/> 
            <glyph glyph-name="Ë" unicode="&#xCB;" horiz-adv-x="596" d=" M73,0 L205,659 L596,659 L588,622 L240,622 L189,368 L480,368 L472,331 L183,331 L122,37 L480,37 L472,0 M342,723 Q312,723 312,753 Q312,771 323,783 Q334,795 349,795 Q379,795 379,764 Q379,748 367.5,735.5 Q356,723 342,723 M513,723 Q484,723 484,753 Q484,771 495,783 Q506,795 521,795 Q550,795 550,764 Q550,747 539,735 Q528,723 513,723"/> 
            <glyph glyph-name="Ì" unicode="&#xCC;" horiz-adv-x="562" d=" M46,0 L54,37 L222,37 L339,622 L170,622 L178,659 L562,659 L554,622 L382,622 L265,37 L436,37 L428,0 M402,702 L285,826 L318,854 L425,723"/> 
            <glyph glyph-name="Í" unicode="&#xCD;" horiz-adv-x="562" d=" M46,0 L54,37 L222,37 L339,622 L170,622 L178,659 L562,659 L554,622 L382,622 L265,37 L436,37 L428,0 M368,712 L351,736 L498,848 L521,813"/> 
            <glyph glyph-name="Î" unicode="&#xCE;" horiz-adv-x="562" d=" M46,0 L54,37 L222,37 L339,622 L170,622 L178,659 L562,659 L554,622 L382,622 L265,37 L436,37 L428,0 M265,707 L245,726 L380,842 L424,842 L518,726 L496,709 L401,808 L397,808"/> 
            <glyph glyph-name="Ï" unicode="&#xCF;" horiz-adv-x="562" d=" M46,0 L54,37 L222,37 L339,622 L170,622 L178,659 L562,659 L554,622 L382,622 L265,37 L436,37 L428,0 M301,723 Q271,723 271,753 Q271,771 282,783 Q293,795 308,795 Q338,795 338,764 Q338,748 326.5,735.5 Q315,723 301,723 M472,723 Q443,723 443,753 Q443,771 454,783 Q465,795 480,795 Q509,795 509,764 Q509,747 498,735 Q487,723 472,723"/> 
            <glyph glyph-name="Ð" unicode="&#xD0;" horiz-adv-x="556" d=" M32,0 L99,333 L20,333 L28,364 L105,367 L164,659 L285,659 Q418,659 487,591 Q556,523 556,403 Q556,225 461,112.5 Q366,0 194,0 M81,36 L195,36 Q344,36 428,137.5 Q512,239 512,400 Q512,505 454,564 Q396,623 283,623 L199,623 L148,367 L312,367 L304,333 L141,333"/> 
            <glyph glyph-name="Ñ" unicode="&#xD1;" horiz-adv-x="578" d=" M33,0 L165,659 L210,659 L376,189 L419,57 L423,57 Q444,192 455,243 L536,659 L578,659 L446,0 L402,0 L236,470 L192,602 L188,602 Q169,482 156,414 L75,0 M461,718 Q438,718 418.5,730.5 Q399,743 388,758.5 Q377,774 361,786.5 Q345,799 328,799 Q282,799 259,721 L228,724 Q237,773 266,803.5 Q295,834 335,834 Q364,834 386,814 Q408,794 427.5,774 Q447,754 468,754 Q511,754 537,832 L567,829 Q559,780 530,749 Q501,718 461,718"/> 
            <glyph glyph-name="Ò" unicode="&#xD2;" horiz-adv-x="562" d=" M255,-12 Q158,-12 103,58 Q48,128 48,243 Q48,319 69,394.5 Q90,470 127.5,532 Q165,594 224.5,632.5 Q284,671 354,671 Q452,671 507,601 Q562,531 562,416 Q562,340 541,264.5 Q520,189 482.5,127 Q445,65 385.5,26.5 Q326,-12 255,-12 M259,25 Q338,25 399.5,87 Q461,149 490,236.5 Q519,324 519,414 Q519,515 476,574.5 Q433,634 351,634 Q272,634 210.5,572 Q149,510 120,422.5 Q91,335 91,245 Q91,144 134,84.5 Q177,25 259,25 M402,702 L285,826 L318,854 L425,723"/> 
            <glyph glyph-name="Ó" unicode="&#xD3;" horiz-adv-x="562" d=" M255,-12 Q158,-12 103,58 Q48,128 48,243 Q48,319 69,394.5 Q90,470 127.5,532 Q165,594 224.5,632.5 Q284,671 354,671 Q452,671 507,601 Q562,531 562,416 Q562,340 541,264.5 Q520,189 482.5,127 Q445,65 385.5,26.5 Q326,-12 255,-12 M259,25 Q338,25 399.5,87 Q461,149 490,236.5 Q519,324 519,414 Q519,515 476,574.5 Q433,634 351,634 Q272,634 210.5,572 Q149,510 120,422.5 Q91,335 91,245 Q91,144 134,84.5 Q177,25 259,25 M368,712 L351,736 L498,848 L521,813"/> 
            <glyph glyph-name="Ô" unicode="&#xD4;" horiz-adv-x="562" d=" M255,-12 Q158,-12 103,58 Q48,128 48,243 Q48,319 69,394.5 Q90,470 127.5,532 Q165,594 224.5,632.5 Q284,671 354,671 Q452,671 507,601 Q562,531 562,416 Q562,340 541,264.5 Q520,189 482.5,127 Q445,65 385.5,26.5 Q326,-12 255,-12 M259,25 Q338,25 399.5,87 Q461,149 490,236.5 Q519,324 519,414 Q519,515 476,574.5 Q433,634 351,634 Q272,634 210.5,572 Q149,510 120,422.5 Q91,335 91,245 Q91,144 134,84.5 Q177,25 259,25 M265,707 L245,726 L380,842 L424,842 L518,726 L496,709 L401,808 L397,808"/> 
            <glyph glyph-name="Õ" unicode="&#xD5;" horiz-adv-x="563" d=" M255,-12 Q158,-12 103,58 Q48,128 48,243 Q48,319 69,394.5 Q90,470 127.5,532 Q165,594 224.5,632.5 Q284,671 354,671 Q452,671 507,601 Q562,531 562,416 Q562,340 541,264.5 Q520,189 482.5,127 Q445,65 385.5,26.5 Q326,-12 255,-12 M259,25 Q338,25 399.5,87 Q461,149 490,236.5 Q519,324 519,414 Q519,515 476,574.5 Q433,634 351,634 Q272,634 210.5,572 Q149,510 120,422.5 Q91,335 91,245 Q91,144 134,84.5 Q177,25 259,25 M457,718 Q434,718 414.5,730.5 Q395,743 384,758.5 Q373,774 357,786.5 Q341,799 324,799 Q278,799 255,721 L224,724 Q233,773 262,803.5 Q291,834 331,834 Q360,834 382,814 Q404,794 423.5,774 Q443,754 464,754 Q507,754 533,832 L563,829 Q555,780 526,749 Q497,718 457,718"/> 
            <glyph glyph-name="Ö" unicode="&#xD6;" horiz-adv-x="562" d=" M255,-12 Q158,-12 103,58 Q48,128 48,243 Q48,319 69,394.5 Q90,470 127.5,532 Q165,594 224.5,632.5 Q284,671 354,671 Q452,671 507,601 Q562,531 562,416 Q562,340 541,264.5 Q520,189 482.5,127 Q445,65 385.5,26.5 Q326,-12 255,-12 M259,25 Q338,25 399.5,87 Q461,149 490,236.5 Q519,324 519,414 Q519,515 476,574.5 Q433,634 351,634 Q272,634 210.5,572 Q149,510 120,422.5 Q91,335 91,245 Q91,144 134,84.5 Q177,25 259,25 M301,723 Q271,723 271,753 Q271,771 282,783 Q293,795 308,795 Q338,795 338,764 Q338,748 326.5,735.5 Q315,723 301,723 M472,723 Q443,723 443,753 Q443,771 454,783 Q465,795 480,795 Q509,795 509,764 Q509,747 498,735 Q487,723 472,723"/> 
            <glyph glyph-name="×" unicode="&#xD7;" horiz-adv-x="487" d=" M138,135 L113,163 L275,330 L113,497 L138,525 L300,355 L462,525 L487,497 L325,330 L487,163 L462,135 L300,305"/> 
            <glyph glyph-name="Ø" unicode="&#xD8;" horiz-adv-x="614" d=" M255,-12 Q155,-12 98,64 L22,-24 L-4,-1 L79,95 Q48,159 48,243 Q48,319 69,394.5 Q90,470 127.5,532 Q165,594 224.5,632.5 Q284,671 354,671 Q455,671 512,595 L588,683 L614,660 L531,564 Q562,500 562,416 Q562,340 541,264.5 Q520,189 482.5,127 Q445,65 385.5,26.5 Q326,-12 255,-12 M90,245 Q90,177 109,130 L484,563 Q440,634 351,634 Q272,634 210.5,572 Q149,510 119.5,422.5 Q90,335 90,245 M259,25 Q338,25 399.5,87 Q461,149 490,236.5 Q519,324 519,414 Q519,480 501,529 L126,96 Q170,25 259,25"/> 
            <glyph glyph-name="Ù" unicode="&#xD9;" horiz-adv-x="581" d=" M259,-12 Q170,-12 120.5,39.5 Q71,91 71,182 Q71,218 80,267 L159,659 L202,659 L124,272 Q114,226 114,190 Q114,111 152.5,68 Q191,25 264,25 Q331,25 382,77.5 Q433,130 455,242 L538,659 L581,659 L496,234 Q470,105 407.5,46.5 Q345,-12 259,-12 M402,702 L285,826 L318,854 L425,723"/> 
            <glyph glyph-name="Ú" unicode="&#xDA;" horiz-adv-x="581" d=" M259,-12 Q170,-12 120.5,39.5 Q71,91 71,182 Q71,218 80,267 L159,659 L202,659 L124,272 Q114,226 114,190 Q114,111 152.5,68 Q191,25 264,25 Q331,25 382,77.5 Q433,130 455,242 L538,659 L581,659 L496,234 Q470,105 407.5,46.5 Q345,-12 259,-12 M368,712 L351,736 L498,848 L521,813"/> 
            <glyph glyph-name="Û" unicode="&#xDB;" horiz-adv-x="581" d=" M259,-12 Q170,-12 120.5,39.5 Q71,91 71,182 Q71,218 80,267 L159,659 L202,659 L124,272 Q114,226 114,190 Q114,111 152.5,68 Q191,25 264,25 Q331,25 382,77.5 Q433,130 455,242 L538,659 L581,659 L496,234 Q470,105 407.5,46.5 Q345,-12 259,-12 M265,707 L245,726 L380,842 L424,842 L518,726 L496,709 L401,808 L397,808"/> 
            <glyph glyph-name="Ü" unicode="&#xDC;" horiz-adv-x="581" d=" M259,-12 Q170,-12 120.5,39.5 Q71,91 71,182 Q71,218 80,267 L159,659 L202,659 L124,272 Q114,226 114,190 Q114,111 152.5,68 Q191,25 264,25 Q331,25 382,77.5 Q433,130 455,242 L538,659 L581,659 L496,234 Q470,105 407.5,46.5 Q345,-12 259,-12 M301,723 Q271,723 271,753 Q271,771 282,783 Q293,795 308,795 Q338,795 338,764 Q338,748 326.5,735.5 Q315,723 301,723 M472,723 Q443,723 443,753 Q443,771 454,783 Q465,795 480,795 Q509,795 509,764 Q509,747 498,735 Q487,723 472,723"/> 
            <glyph glyph-name="Ý" unicode="&#xDD;" horiz-adv-x="614" d=" M217,0 L266,241 L121,659 L165,659 L240,440 Q276,335 291,275 L295,275 Q338,341 408,440 L569,659 L614,659 L307,236 L260,0 M354,712 L337,736 L484,848 L507,813"/> 
            <glyph glyph-name="Þ" unicode="&#xDE;" horiz-adv-x="546" d=" M59,0 L191,659 L234,659 L211,538 L352,538 Q546,538 546,385 Q546,276 471.5,220.5 Q397,165 266,165 L135,165 L102,0 M143,201 L263,201 Q503,201 503,381 Q503,444 460.5,473 Q418,502 332,502 L203,502"/> 
            <glyph glyph-name="ß" unicode="&#xDF;" horiz-adv-x="526" d=" M353,-12 Q270,-12 210,41 L231,72 Q289,23 354,23 Q407,23 446,52 Q485,81 485,124 Q485,155 466.5,181 Q448,207 422,225.5 Q396,244 370,262 Q344,280 325.5,304 Q307,328 307,357 Q307,387 323,413.5 Q339,440 361.5,459.5 Q384,479 407,499.5 Q430,520 446,547.5 Q462,575 462,607 Q462,695 364,695 Q300,695 254,648 Q208,601 191,515 L89,0 L47,0 L153,527 Q172,623 228.5,677 Q285,731 366,731 Q428,731 465.5,699.5 Q503,668 503,610 Q503,573 487,542.5 Q471,512 448.5,491 Q426,470 403,451 Q380,432 364,409.5 Q348,387 348,362 Q348,339 366.5,318.5 Q385,298 411,281 Q437,264 463,244.5 Q489,225 507.5,195.5 Q526,166 526,129 Q526,68 477.5,28 Q429,-12 353,-12"/> 
            <glyph glyph-name="à" unicode="&#xE0;" horiz-adv-x="542" d=" M231,-12 Q153,-12 107.5,35.5 Q62,83 62,171 Q62,301 140,396.5 Q218,492 330,492 Q437,492 485,414 L489,414 L508,480 L542,480 L446,0 L411,0 L422,77 L418,77 Q327,-12 231,-12 M239,24 Q334,24 430,129 L480,369 Q422,456 331,456 Q237,456 170.5,371.5 Q104,287 104,179 Q104,102 140,63 Q176,24 239,24 M409,570 L290,731 L327,758 L436,590"/> 
            <glyph glyph-name="á" unicode="&#xE1;" horiz-adv-x="542" d=" M231,-12 Q153,-12 107.5,35.5 Q62,83 62,171 Q62,301 140,396.5 Q218,492 330,492 Q437,492 485,414 L489,414 L508,480 L542,480 L446,0 L411,0 L422,77 L418,77 Q327,-12 231,-12 M239,24 Q334,24 430,129 L480,369 Q422,456 331,456 Q237,456 170.5,371.5 Q104,287 104,179 Q104,102 140,63 Q176,24 239,24 M344,580 L323,605 L481,750 L508,716"/> 
            <glyph glyph-name="â" unicode="&#xE2;" horiz-adv-x="542" d=" M231,-12 Q153,-12 107.5,35.5 Q62,83 62,171 Q62,301 140,396.5 Q218,492 330,492 Q437,492 485,414 L489,414 L508,480 L542,480 L446,0 L411,0 L422,77 L418,77 Q327,-12 231,-12 M239,24 Q334,24 430,129 L480,369 Q422,456 331,456 Q237,456 170.5,371.5 Q104,287 104,179 Q104,102 140,63 Q176,24 239,24 M258,572 L237,593 L379,737 L422,737 L513,591 L488,572 L400,700 L396,700"/> 
            <glyph glyph-name="ã" unicode="&#xE3;" horiz-adv-x="563" d=" M231,-12 Q153,-12 107.5,35.5 Q62,83 62,171 Q62,301 140,396.5 Q218,492 330,492 Q437,492 485,414 L489,414 L508,480 L542,480 L446,0 L411,0 L422,77 L418,77 Q327,-12 231,-12 M239,24 Q334,24 430,129 L480,369 Q422,456 331,456 Q237,456 170.5,371.5 Q104,287 104,179 Q104,102 140,63 Q176,24 239,24 M456,579 Q433,579 414.5,594.5 Q396,610 386,628 Q376,646 360,661.5 Q344,677 325,677 Q278,677 256,582 L222,584 Q252,710 329,710 Q353,710 371.5,695 Q390,680 400,661.5 Q410,643 425.5,628 Q441,613 460,613 Q509,613 529,707 L563,705 Q533,579 456,579"/> 
            <glyph glyph-name="ä" unicode="&#xE4;" horiz-adv-x="542" d=" M231,-12 Q153,-12 107.5,35.5 Q62,83 62,171 Q62,301 140,396.5 Q218,492 330,492 Q437,492 485,414 L489,414 L508,480 L542,480 L446,0 L411,0 L422,77 L418,77 Q327,-12 231,-12 M239,24 Q334,24 430,129 L480,369 Q422,456 331,456 Q237,456 170.5,371.5 Q104,287 104,179 Q104,102 140,63 Q176,24 239,24 M294,598 Q279,598 269.5,608 Q260,618 260,634 Q260,655 273,669 Q286,683 305,683 Q338,683 338,648 Q338,627 325.5,612.5 Q313,598 294,598 M465,598 Q451,598 441.5,608 Q432,618 432,634 Q432,655 445,669 Q458,683 476,683 Q491,683 500.5,673.5 Q510,664 510,648 Q510,627 497,612.5 Q484,598 465,598"/> 
            <glyph glyph-name="å" unicode="&#xE5;" horiz-adv-x="542" d=" M231,-12 Q153,-12 107.5,35.5 Q62,83 62,171 Q62,301 140,396.5 Q218,492 330,492 Q437,492 485,414 L489,414 L508,480 L542,480 L446,0 L411,0 L422,77 L418,77 Q327,-12 231,-12 M239,24 Q334,24 430,129 L480,369 Q422,456 331,456 Q237,456 170.5,371.5 Q104,287 104,179 Q104,102 140,63 Q176,24 239,24 M377,550 Q340,550 316.5,570.5 Q293,591 293,628 Q293,673 322,705 Q351,737 396,737 Q433,737 456.5,716.5 Q480,696 480,659 Q480,614 451,582 Q422,550 377,550 M380,576 Q408,576 428.5,600 Q449,624 449,657 Q449,681 434,696 Q419,711 393,711 Q365,711 344.5,687 Q324,663 324,630 Q324,605 339,590.5 Q354,576 380,576"/> 
            <glyph glyph-name="æ" unicode="&#xE6;" horiz-adv-x="601" d=" M80,-12 Q32,-12 4,15 Q-24,42 -24,93 Q-24,180 51.5,228 Q127,276 278,300 Q296,371 276.5,413.5 Q257,456 200,456 Q139,456 71,408 L53,437 Q131,492 208,492 Q258,492 288,462.5 Q318,433 322,383 Q353,436 397.5,464 Q442,492 490,492 Q546,492 573.5,451 Q601,410 601,345 Q601,291 583,237 L302,237 Q295,203 295,163 Q295,99 322.5,61.5 Q350,24 404,24 Q463,24 521,64 L537,35 Q477,-12 397,-12 Q299,-12 267,86 Q176,-12 80,-12 M88,24 Q126,24 175,50.5 Q224,77 260,121 Q258,139 258,147 Q258,213 270,267 Q142,244 79.5,206 Q17,168 17,99 Q17,62 36.5,43 Q56,24 88,24 M483,457 Q426,457 379,405 Q332,353 309,272 L555,272 Q563,312 563,344 Q563,457 483,457"/> 
            <glyph glyph-name="ç" unicode="&#xE7;" horiz-adv-x="536" d=" M287,-12 L279,-12 L245,-67 Q279,-76 291,-89 Q303,-102 302,-125 Q301,-168 258,-192.5 Q215,-217 143,-219 L141,-191 Q263,-186 263,-132 Q263,-93 195,-87 L246,-9 Q165,2 118,56 Q71,110 71,201 Q71,327 157.5,409.5 Q244,492 359,492 Q473,492 536,407 L507,382 Q451,456 349,456 Q260,456 186,382 Q112,308 112,207 Q112,118 160.5,71 Q209,24 292,24 Q382,24 463,98 L485,69 Q445,32 392,10 Q339,-12 287,-12"/> 
            <glyph glyph-name="è" unicode="&#xE8;" horiz-adv-x="518" d=" M271,-12 Q178,-12 125,42 Q72,96 72,192 Q72,319 152.5,405.5 Q233,492 343,492 Q426,492 472,441.5 Q518,391 518,310 Q518,264 508,237 L117,237 Q114,216 114,195 Q114,117 157.5,70.5 Q201,24 277,24 Q375,24 453,93 L473,63 Q386,-12 271,-12 M339,457 Q269,457 208,405 Q147,353 124,272 L474,272 Q478,289 478,313 Q478,379 440.5,418 Q403,457 339,457 M401,570 L282,731 L319,758 L428,590"/> 
            <glyph glyph-name="é" unicode="&#xE9;" horiz-adv-x="518" d=" M271,-12 Q178,-12 125,42 Q72,96 72,192 Q72,319 152.5,405.5 Q233,492 343,492 Q426,492 472,441.5 Q518,391 518,310 Q518,264 508,237 L117,237 Q114,216 114,195 Q114,117 157.5,70.5 Q201,24 277,24 Q375,24 453,93 L473,63 Q386,-12 271,-12 M339,457 Q269,457 208,405 Q147,353 124,272 L474,272 Q478,289 478,313 Q478,379 440.5,418 Q403,457 339,457 M336,580 L315,605 L473,750 L500,716"/> 
            <glyph glyph-name="ê" unicode="&#xEA;" horiz-adv-x="518" d=" M271,-12 Q178,-12 125,42 Q72,96 72,192 Q72,319 152.5,405.5 Q233,492 343,492 Q426,492 472,441.5 Q518,391 518,310 Q518,264 508,237 L117,237 Q114,216 114,195 Q114,117 157.5,70.5 Q201,24 277,24 Q375,24 453,93 L473,63 Q386,-12 271,-12 M339,457 Q269,457 208,405 Q147,353 124,272 L474,272 Q478,289 478,313 Q478,379 440.5,418 Q403,457 339,457 M250,572 L229,593 L371,737 L414,737 L505,591 L480,572 L392,700 L388,700"/> 
            <glyph glyph-name="ë" unicode="&#xEB;" horiz-adv-x="518" d=" M271,-12 Q178,-12 125,42 Q72,96 72,192 Q72,319 152.5,405.5 Q233,492 343,492 Q426,492 472,441.5 Q518,391 518,310 Q518,264 508,237 L117,237 Q114,216 114,195 Q114,117 157.5,70.5 Q201,24 277,24 Q375,24 453,93 L473,63 Q386,-12 271,-12 M339,457 Q269,457 208,405 Q147,353 124,272 L474,272 Q478,289 478,313 Q478,379 440.5,418 Q403,457 339,457 M286,598 Q271,598 261.5,608 Q252,618 252,634 Q252,655 265,669 Q278,683 297,683 Q330,683 330,648 Q330,627 317.5,612.5 Q305,598 286,598 M457,598 Q443,598 433.5,608 Q424,618 424,634 Q424,655 437,669 Q450,683 468,683 Q483,683 492.5,673.5 Q502,664 502,648 Q502,627 489,612.5 Q476,598 457,598"/> 
            <glyph glyph-name="ì" unicode="&#xEC;" horiz-adv-x="474" d=" M350,-12 Q298,-12 266.5,16 Q235,44 235,98 Q235,120 241,148 L305,444 L119,444 L127,480 L353,480 L281,140 Q277,123 277,105 Q277,24 359,24 Q399,24 462,53 L474,21 Q405,-12 350,-12 M372,570 L253,731 L290,758 L399,590"/> 
            <glyph glyph-name="í" unicode="&#xED;" horiz-adv-x="474" d=" M350,-12 Q298,-12 266.5,16 Q235,44 235,98 Q235,120 241,148 L305,444 L119,444 L127,480 L353,480 L281,140 Q277,123 277,105 Q277,24 359,24 Q399,24 462,53 L474,21 Q405,-12 350,-12 M307,580 L286,605 L444,750 L471,716"/> 
            <glyph glyph-name="î" unicode="&#xEE;" horiz-adv-x="476" d=" M350,-12 Q298,-12 266.5,16 Q235,44 235,98 Q235,120 241,148 L305,444 L119,444 L127,480 L353,480 L281,140 Q277,123 277,105 Q277,24 359,24 Q399,24 462,53 L474,21 Q405,-12 350,-12 M221,572 L200,593 L342,737 L385,737 L476,591 L451,572 L363,700 L359,700"/> 
            <glyph glyph-name="ï" unicode="&#xEF;" horiz-adv-x="474" d=" M350,-12 Q298,-12 266.5,16 Q235,44 235,98 Q235,120 241,148 L305,444 L119,444 L127,480 L353,480 L281,140 Q277,123 277,105 Q277,24 359,24 Q399,24 462,53 L474,21 Q405,-12 350,-12 M257,598 Q242,598 232.5,608 Q223,618 223,634 Q223,655 236,669 Q249,683 268,683 Q301,683 301,648 Q301,627 288.5,612.5 Q276,598 257,598 M428,598 Q414,598 404.5,608 Q395,618 395,634 Q395,655 408,669 Q421,683 439,683 Q454,683 463.5,673.5 Q473,664 473,648 Q473,627 460,612.5 Q447,598 428,598"/> 
            <glyph glyph-name="ð" unicode="&#xF0;" horiz-adv-x="580" d=" M238,-12 Q156,-12 101,39.5 Q46,91 46,178 Q46,293 124.5,367.5 Q203,442 322,442 Q372,442 415.5,420.5 Q459,399 487,365 Q481,499 403,590 L244,515 L230,544 L381,615 Q332,663 270,693 L290,725 Q366,687 418,632 L568,703 L580,674 L440,608 Q530,497 530,339 Q530,179 451.5,83.5 Q373,-12 238,-12 M244,24 Q355,24 418,107 Q481,190 487,317 Q459,362 414.5,384.5 Q370,407 323,407 Q215,407 152,340 Q89,273 89,184 Q89,112 132,68 Q175,24 244,24"/> 
            <glyph glyph-name="ñ" unicode="&#xF1;" horiz-adv-x="556" d=" M48,0 L144,480 L178,480 L162,373 L166,373 Q224,429 278.5,460.5 Q333,492 398,492 Q461,492 491,460.5 Q521,429 521,375 Q521,339 511,292 L453,0 L412,0 L470,288 Q480,336 480,367 Q480,409 456,432 Q432,455 387,455 Q280,455 154,321 L89,0 M449,579 Q426,579 407.5,594.5 Q389,610 379,628 Q369,646 353,661.5 Q337,677 318,677 Q271,677 249,582 L215,584 Q245,710 322,710 Q346,710 364.5,695 Q383,680 393,661.5 Q403,643 418.5,628 Q434,613 453,613 Q502,613 522,707 L556,705 Q526,579 449,579"/> 
            <glyph glyph-name="ò" unicode="&#xF2;" horiz-adv-x="521" d=" M247,-12 Q157,-12 105,45.5 Q53,103 53,196 Q53,319 134,405.5 Q215,492 327,492 Q417,492 469,434.5 Q521,377 521,284 Q521,161 440,74.5 Q359,-12 247,-12 M250,24 Q341,24 410.5,100 Q480,176 480,279 Q480,360 438.5,408 Q397,456 324,456 Q233,456 164,380 Q95,304 95,202 Q95,120 136,72 Q177,24 250,24 M390,570 L271,731 L308,758 L417,590"/> 
            <glyph glyph-name="ó" unicode="&#xF3;" horiz-adv-x="521" d=" M247,-12 Q157,-12 105,45.5 Q53,103 53,196 Q53,319 134,405.5 Q215,492 327,492 Q417,492 469,434.5 Q521,377 521,284 Q521,161 440,74.5 Q359,-12 247,-12 M250,24 Q341,24 410.5,100 Q480,176 480,279 Q480,360 438.5,408 Q397,456 324,456 Q233,456 164,380 Q95,304 95,202 Q95,120 136,72 Q177,24 250,24 M325,580 L304,605 L462,750 L489,716"/> 
            <glyph glyph-name="ô" unicode="&#xF4;" horiz-adv-x="521" d=" M247,-12 Q157,-12 105,45.5 Q53,103 53,196 Q53,319 134,405.5 Q215,492 327,492 Q417,492 469,434.5 Q521,377 521,284 Q521,161 440,74.5 Q359,-12 247,-12 M250,24 Q341,24 410.5,100 Q480,176 480,279 Q480,360 438.5,408 Q397,456 324,456 Q233,456 164,380 Q95,304 95,202 Q95,120 136,72 Q177,24 250,24 M239,572 L218,593 L360,737 L403,737 L494,591 L469,572 L381,700 L377,700"/> 
            <glyph glyph-name="õ" unicode="&#xF5;" horiz-adv-x="544" d=" M247,-12 Q157,-12 105,45.5 Q53,103 53,196 Q53,319 134,405.5 Q215,492 327,492 Q417,492 469,434.5 Q521,377 521,284 Q521,161 440,74.5 Q359,-12 247,-12 M250,24 Q341,24 410.5,100 Q480,176 480,279 Q480,360 438.5,408 Q397,456 324,456 Q233,456 164,380 Q95,304 95,202 Q95,120 136,72 Q177,24 250,24 M437,579 Q414,579 395.5,594.5 Q377,610 367,628 Q357,646 341,661.5 Q325,677 306,677 Q259,677 237,582 L203,584 Q233,710 310,710 Q334,710 352.5,695 Q371,680 381,661.5 Q391,643 406.5,628 Q422,613 441,613 Q490,613 510,707 L544,705 Q514,579 437,579"/> 
            <glyph glyph-name="ö" unicode="&#xF6;" horiz-adv-x="521" d=" M247,-12 Q157,-12 105,45.5 Q53,103 53,196 Q53,319 134,405.5 Q215,492 327,492 Q417,492 469,434.5 Q521,377 521,284 Q521,161 440,74.5 Q359,-12 247,-12 M250,24 Q341,24 410.5,100 Q480,176 480,279 Q480,360 438.5,408 Q397,456 324,456 Q233,456 164,380 Q95,304 95,202 Q95,120 136,72 Q177,24 250,24 M275,598 Q260,598 250.5,608 Q241,618 241,634 Q241,655 254,669 Q267,683 286,683 Q319,683 319,648 Q319,627 306.5,612.5 Q294,598 275,598 M446,598 Q432,598 422.5,608 Q413,618 413,634 Q413,655 426,669 Q439,683 457,683 Q472,683 481.5,673.5 Q491,664 491,648 Q491,627 478,612.5 Q465,598 446,598"/> 
            <glyph glyph-name="÷" unicode="&#xF7;" horiz-adv-x="504" d=" M316,470 Q284,470 273.5,481 Q263,492 263,510 Q263,527 274,537.5 Q285,548 300,548 Q315,548 326,537.5 Q337,527 337,510 Q337,492 316,470 M316,110 Q284,110 273.5,121 Q263,132 263,150 Q263,167 274,177.5 Q285,188 300,188 Q315,188 326,177.5 Q337,167 337,150 Q337,132 316,110 M96,313 L96,347 L504,347 L504,313"/> 
            <glyph glyph-name="ø" unicode="&#xF8;" horiz-adv-x="567" d=" M247,-12 Q157,-12 105,45 L32,-23 L7,2 L84,74 Q53,125 53,196 Q53,319 134,405.5 Q215,492 327,492 Q417,492 469,435 L542,503 L567,478 L490,406 Q521,355 521,284 Q521,161 440,74.5 Q359,-12 247,-12 M94,201 Q94,144 115,103 L440,407 Q397,456 325,456 Q232,456 163,380 Q94,304 94,201 M249,24 Q342,24 411,100 Q480,176 480,279 Q480,336 459,377 L135,73 Q176,24 249,24"/> 
            <glyph glyph-name="ù" unicode="&#xF9;" horiz-adv-x="539" d=" M190,-12 Q127,-12 96.5,19.5 Q66,51 66,105 Q66,143 76,188 L134,480 L176,480 L118,192 Q108,144 108,114 Q108,71 131.5,48 Q155,25 200,25 Q307,25 433,159 L498,480 L539,480 L443,0 L409,0 L425,107 L421,107 Q363,51 309,19.5 Q255,-12 190,-12 M389,570 L270,731 L307,758 L416,590"/> 
            <glyph glyph-name="ú" unicode="&#xFA;" horiz-adv-x="539" d=" M190,-12 Q127,-12 96.5,19.5 Q66,51 66,105 Q66,143 76,188 L134,480 L176,480 L118,192 Q108,144 108,114 Q108,71 131.5,48 Q155,25 200,25 Q307,25 433,159 L498,480 L539,480 L443,0 L409,0 L425,107 L421,107 Q363,51 309,19.5 Q255,-12 190,-12 M324,580 L303,605 L461,750 L488,716"/> 
            <glyph glyph-name="û" unicode="&#xFB;" horiz-adv-x="539" d=" M190,-12 Q127,-12 96.5,19.5 Q66,51 66,105 Q66,143 76,188 L134,480 L176,480 L118,192 Q108,144 108,114 Q108,71 131.5,48 Q155,25 200,25 Q307,25 433,159 L498,480 L539,480 L443,0 L409,0 L425,107 L421,107 Q363,51 309,19.5 Q255,-12 190,-12 M238,572 L217,593 L359,737 L402,737 L493,591 L468,572 L380,700 L376,700"/> 
            <glyph glyph-name="ü" unicode="&#xFC;" horiz-adv-x="539" d=" M190,-12 Q127,-12 96.5,19.5 Q66,51 66,105 Q66,143 76,188 L134,480 L176,480 L118,192 Q108,144 108,114 Q108,71 131.5,48 Q155,25 200,25 Q307,25 433,159 L498,480 L539,480 L443,0 L409,0 L425,107 L421,107 Q363,51 309,19.5 Q255,-12 190,-12 M274,598 Q259,598 249.5,608 Q240,618 240,634 Q240,655 253,669 Q266,683 285,683 Q318,683 318,648 Q318,627 305.5,612.5 Q293,598 274,598 M445,598 Q431,598 421.5,608 Q412,618 412,634 Q412,655 425,669 Q438,683 456,683 Q471,683 480.5,673.5 Q490,664 490,648 Q490,627 477,612.5 Q464,598 445,598"/> 
            <glyph glyph-name="ý" unicode="&#xFD;" horiz-adv-x="571" d=" M26,-219 Q-12,-219 -41,-203 L-26,-171 Q-2,-183 29,-183 Q77,-183 108.5,-157.5 Q140,-132 185,-63 L223,-5 L96,480 L137,480 L214,175 Q218,157 224,132.5 Q230,108 237,77.5 Q244,47 247,33 L251,33 Q301,119 336,175 L526,480 L571,480 L220,-74 Q170,-153 130,-186 Q90,-219 26,-219 M317,580 L296,605 L454,750 L481,716"/> 
            <glyph glyph-name="þ" unicode="&#xFE;" horiz-adv-x="528" d=" M4,-217 L191,719 L232,719 L190,510 L165,403 L169,403 Q270,492 358,492 Q437,492 482.5,442 Q528,392 528,300 Q528,168 452.5,78 Q377,-12 260,-12 Q212,-12 171,9 Q130,30 103,65 L100,65 L79,-43 L46,-217 M260,24 Q357,24 421.5,104 Q486,184 486,293 Q486,372 450,414 Q414,456 350,456 Q308,456 256.5,428 Q205,400 160,355 L110,107 Q168,24 260,24"/> 
            <glyph glyph-name="ÿ" unicode="&#xFF;" horiz-adv-x="571" d=" M26,-219 Q-12,-219 -41,-203 L-26,-171 Q-2,-183 29,-183 Q77,-183 108.5,-157.5 Q140,-132 185,-63 L223,-5 L96,480 L137,480 L214,175 Q218,157 224,132.5 Q230,108 237,77.5 Q244,47 247,33 L251,33 Q301,119 336,175 L526,480 L571,480 L220,-74 Q170,-153 130,-186 Q90,-219 26,-219 M267,598 Q252,598 242.5,608 Q233,618 233,634 Q233,655 246,669 Q259,683 278,683 Q311,683 311,648 Q311,627 298.5,612.5 Q286,598 267,598 M438,598 Q424,598 414.5,608 Q405,618 405,634 Q405,655 418,669 Q431,683 449,683 Q464,683 473.5,673.5 Q483,664 483,648 Q483,627 470,612.5 Q457,598 438,598"/> 
            <glyph glyph-name="Ā" unicode="&#x100;" horiz-adv-x="511" d=" M250,394 L179,264 L416,264 L401,391 Q395,433 386,513 Q377,593 374,617 L369,617 Q358,597 250,394 M-12,0 L357,659 L403,659 L492,0 L448,0 L420,229 L160,229 L34,0 M266,734 L274,768 L511,768 L503,734"/> 
            <glyph glyph-name="ā" unicode="&#x101;" horiz-adv-x="542" d=" M231,-12 Q153,-12 107.5,35.5 Q62,83 62,171 Q62,301 140,396.5 Q218,492 330,492 Q437,492 485,414 L489,414 L508,480 L542,480 L446,0 L411,0 L422,77 L418,77 Q327,-12 231,-12 M239,24 Q334,24 430,129 L480,369 Q422,456 331,456 Q237,456 170.5,371.5 Q104,287 104,179 Q104,102 140,63 Q176,24 239,24 M260,606 L265,640 L503,640 L498,606"/> 
            <glyph glyph-name="Ă" unicode="&#x102;" horiz-adv-x="538" d=" M250,394 L179,264 L416,264 L401,391 Q395,433 386,513 Q377,593 374,617 L369,617 Q358,597 250,394 M-12,0 L357,659 L403,659 L492,0 L448,0 L420,229 L160,229 L34,0 M378,710 Q318,710 290.5,747 Q263,784 266,835 L299,840 Q297,799 318.5,771 Q340,743 385,743 Q430,743 460.5,770.5 Q491,798 506,840 L538,835 Q524,784 482.5,747 Q441,710 378,710"/> 
            <glyph glyph-name="ă" unicode="&#x103;" horiz-adv-x="550" d=" M231,-12 Q153,-12 107.5,35.5 Q62,83 62,171 Q62,301 140,396.5 Q218,492 330,492 Q437,492 485,414 L489,414 L508,480 L542,480 L446,0 L411,0 L422,77 L418,77 Q327,-12 231,-12 M239,24 Q334,24 430,129 L480,369 Q422,456 331,456 Q237,456 170.5,371.5 Q104,287 104,179 Q104,102 140,63 Q176,24 239,24 M373,570 Q305,570 277,614 Q249,658 252,718 L286,723 Q283,676 306.5,640 Q330,604 380,604 Q430,604 465.5,639 Q501,674 517,723 L550,718 Q534,659 489,614.5 Q444,570 373,570"/> 
            <glyph glyph-name="Ą" unicode="&#x104;" horiz-adv-x="506" d=" M427,-224 Q390,-224 364.5,-206 Q339,-188 339,-151 Q339,-68 454,0 L448,0 L420,229 L160,229 L34,0 L-12,0 L357,659 L403,659 L492,0 Q443,-29 410,-66.5 Q377,-104 377,-139 Q377,-165 394,-178 Q411,-191 438,-191 Q464,-191 492,-172 L506,-196 Q471,-224 427,-224 M250,394 L179,264 L416,264 L401,391 Q395,433 386,513 Q377,593 374,617 L369,617 Q358,597 250,394"/> 
            <glyph glyph-name="ą" unicode="&#x105;" horiz-adv-x="542" d=" M372,-224 Q335,-224 309.5,-206 Q284,-188 284,-151 Q284,-67 411,0 L422,77 L418,77 Q327,-12 231,-12 Q153,-12 107.5,35.5 Q62,83 62,171 Q62,301 140,396.5 Q218,492 330,492 Q437,492 485,414 L489,414 L508,480 L542,480 L444,-7 Q321,-71 321,-139 Q321,-192 383,-192 Q409,-192 437,-173 L451,-195 Q417,-224 372,-224 M239,24 Q334,24 430,129 L480,369 Q422,456 331,456 Q237,456 170.5,371.5 Q104,287 104,179 Q104,102 140,63 Q176,24 239,24"/> 
            <glyph glyph-name="Ć" unicode="&#x106;" horiz-adv-x="571" d=" M306,-12 Q198,-12 140,60 Q82,132 82,248 Q82,349 121,444.5 Q160,540 238.5,605.5 Q317,671 416,671 Q514,671 571,578 L538,555 Q494,634 413,634 Q348,634 292,598.5 Q236,563 200.5,506.5 Q165,450 145.5,384 Q126,318 126,254 Q126,151 172,88 Q218,25 311,25 Q390,25 467,89 L489,61 Q401,-12 306,-12 M396,712 L379,736 L526,848 L549,813"/> 
            <glyph glyph-name="ć" unicode="&#x107;" horiz-adv-x="536" d=" M287,-12 Q189,-12 130,43 Q71,98 71,201 Q71,327 157.5,409.5 Q244,492 359,492 Q473,492 536,407 L507,382 Q451,456 349,456 Q260,456 186,382 Q112,308 112,207 Q112,118 160.5,71 Q209,24 292,24 Q382,24 463,98 L485,69 Q445,32 392,10 Q339,-12 287,-12 M343,580 L322,605 L480,750 L507,716"/> 
            <glyph glyph-name="Ĉ" unicode="&#x108;" horiz-adv-x="571" d=" M306,-12 Q198,-12 140,60 Q82,132 82,248 Q82,349 121,444.5 Q160,540 238.5,605.5 Q317,671 416,671 Q514,671 571,578 L538,555 Q494,634 413,634 Q348,634 292,598.5 Q236,563 200.5,506.5 Q165,450 145.5,384 Q126,318 126,254 Q126,151 172,88 Q218,25 311,25 Q390,25 467,89 L489,61 Q401,-12 306,-12 M293,707 L273,726 L408,842 L452,842 L546,726 L524,709 L429,808 L425,808"/> 
            <glyph glyph-name="ĉ" unicode="&#x109;" horiz-adv-x="536" d=" M287,-12 Q189,-12 130,43 Q71,98 71,201 Q71,327 157.5,409.5 Q244,492 359,492 Q473,492 536,407 L507,382 Q451,456 349,456 Q260,456 186,382 Q112,308 112,207 Q112,118 160.5,71 Q209,24 292,24 Q382,24 463,98 L485,69 Q445,32 392,10 Q339,-12 287,-12 M257,572 L236,593 L378,737 L421,737 L512,591 L487,572 L399,700 L395,700"/> 
            <glyph glyph-name="Ċ" unicode="&#x10A;" horiz-adv-x="571" d=" M306,-12 Q198,-12 140,60 Q82,132 82,248 Q82,349 121,444.5 Q160,540 238.5,605.5 Q317,671 416,671 Q514,671 571,578 L538,555 Q494,634 413,634 Q348,634 292,598.5 Q236,563 200.5,506.5 Q165,450 145.5,384 Q126,318 126,254 Q126,151 172,88 Q218,25 311,25 Q390,25 467,89 L489,61 Q401,-12 306,-12 M414,723 Q400,723 390.5,732 Q381,741 381,756 Q381,775 393.5,788 Q406,801 423,801 Q437,801 446.5,791 Q456,781 456,766 Q456,748 443.5,735.5 Q431,723 414,723"/> 
            <glyph glyph-name="ċ" unicode="&#x10B;" horiz-adv-x="536" d=" M287,-12 Q189,-12 130,43 Q71,98 71,201 Q71,327 157.5,409.5 Q244,492 359,492 Q473,492 536,407 L507,382 Q451,456 349,456 Q260,456 186,382 Q112,308 112,207 Q112,118 160.5,71 Q209,24 292,24 Q382,24 463,98 L485,69 Q445,32 392,10 Q339,-12 287,-12 M378,597 Q360,597 349,607.5 Q338,618 338,636 Q338,658 353.5,674 Q369,690 389,690 Q408,690 418.5,679 Q429,668 429,651 Q429,629 413.5,613 Q398,597 378,597"/> 
            <glyph glyph-name="Č" unicode="&#x10C;" horiz-adv-x="571" d=" M306,-12 Q198,-12 140,60 Q82,132 82,248 Q82,349 121,444.5 Q160,540 238.5,605.5 Q317,671 416,671 Q514,671 571,578 L538,555 Q494,634 413,634 Q348,634 292,598.5 Q236,563 200.5,506.5 Q165,450 145.5,384 Q126,318 126,254 Q126,151 172,88 Q218,25 311,25 Q390,25 467,89 L489,61 Q401,-12 306,-12 M390,709 L296,825 L318,842 L413,743 L417,743 L549,844 L569,824 L434,709"/> 
            <glyph glyph-name="č" unicode="&#x10D;" horiz-adv-x="536" d=" M287,-12 Q189,-12 130,43 Q71,98 71,201 Q71,327 157.5,409.5 Q244,492 359,492 Q473,492 536,407 L507,382 Q451,456 349,456 Q260,456 186,382 Q112,308 112,207 Q112,118 160.5,71 Q209,24 292,24 Q382,24 463,98 L485,69 Q445,32 392,10 Q339,-12 287,-12 M350,573 L259,719 L284,737 L372,610 L376,610 L513,737 L535,717 L393,573"/> 
            <glyph glyph-name="Ď" unicode="&#x10E;" horiz-adv-x="552" d=" M28,0 L160,659 L281,659 Q414,659 483,591 Q552,523 552,403 Q552,225 457,112.5 Q362,0 190,0 M77,36 L191,36 Q340,36 424,137.5 Q508,239 508,400 Q508,505 450,564 Q392,623 279,623 L195,623 M349,709 L255,825 L277,842 L372,743 L376,743 L508,844 L528,824 L393,709"/> 
            <glyph glyph-name="ď" unicode="&#x10F;" horiz-adv-x="722" d=" M224,-12 Q148,-12 103.5,35.5 Q59,83 59,171 Q59,301 136,396.5 Q213,492 325,492 Q428,492 476,416 L480,416 L499,511 L541,719 L582,719 L437,0 L402,0 L413,75 L409,75 Q319,-12 224,-12 M234,24 Q327,24 421,127 L471,370 Q415,456 326,456 Q232,456 166.5,371.5 Q101,287 101,179 Q101,102 136.5,63 Q172,24 234,24 M633,548 L682,813 L722,813 L707,742 L661,548"/> 
            <glyph glyph-name="Đ" unicode="&#x110;" horiz-adv-x="556" d=" M32,0 L99,333 L20,333 L28,364 L105,367 L164,659 L285,659 Q418,659 487,591 Q556,523 556,403 Q556,225 461,112.5 Q366,0 194,0 M81,36 L195,36 Q344,36 428,137.5 Q512,239 512,400 Q512,505 454,564 Q396,623 283,623 L199,623 L148,367 L312,367 L304,333 L141,333"/> 
            <glyph glyph-name="đ" unicode="&#x111;" horiz-adv-x="642" d=" M230,-12 Q152,-12 106.5,35.5 Q61,83 61,171 Q61,293 138.5,382.5 Q216,472 328,472 Q430,472 480,395 L483,395 L502,490 L521,581 L333,581 L342,616 L528,616 L549,719 L590,719 L569,616 L642,616 L637,585 L562,581 L445,0 L410,0 L421,77 L417,77 Q326,-12 230,-12 M238,24 Q333,24 429,129 L475,349 Q417,436 330,436 Q236,436 169.5,357.5 Q103,279 103,179 Q103,102 138.5,63 Q174,24 238,24"/> 
            <glyph glyph-name="Ē" unicode="&#x112;" horiz-adv-x="596" d=" M73,0 L205,659 L596,659 L588,622 L240,622 L189,368 L480,368 L472,331 L183,331 L122,37 L480,37 L472,0 M307,734 L315,768 L552,768 L544,734"/> 
            <glyph glyph-name="ē" unicode="&#x113;" horiz-adv-x="518" d=" M271,-12 Q178,-12 125,42 Q72,96 72,192 Q72,319 152.5,405.5 Q233,492 343,492 Q426,492 472,441.5 Q518,391 518,310 Q518,264 508,237 L117,237 Q114,216 114,195 Q114,117 157.5,70.5 Q201,24 277,24 Q375,24 453,93 L473,63 Q386,-12 271,-12 M339,457 Q269,457 208,405 Q147,353 124,272 L474,272 Q478,289 478,313 Q478,379 440.5,418 Q403,457 339,457 M252,606 L257,640 L495,640 L490,606"/> 
            <glyph glyph-name="Ĕ" unicode="&#x114;" horiz-adv-x="596" d=" M73,0 L205,659 L596,659 L588,622 L240,622 L189,368 L480,368 L472,331 L183,331 L122,37 L480,37 L472,0 M419,710 Q359,710 331.5,747 Q304,784 307,835 L340,840 Q338,799 359.5,771 Q381,743 426,743 Q471,743 501.5,770.5 Q532,798 547,840 L579,835 Q565,784 523.5,747 Q482,710 419,710"/> 
            <glyph glyph-name="ĕ" unicode="&#x115;" horiz-adv-x="542" d=" M271,-12 Q178,-12 125,42 Q72,96 72,192 Q72,319 152.5,405.5 Q233,492 343,492 Q426,492 472,441.5 Q518,391 518,310 Q518,264 508,237 L117,237 Q114,216 114,195 Q114,117 157.5,70.5 Q201,24 277,24 Q375,24 453,93 L473,63 Q386,-12 271,-12 M339,457 Q269,457 208,405 Q147,353 124,272 L474,272 Q478,289 478,313 Q478,379 440.5,418 Q403,457 339,457 M365,570 Q297,570 269,614 Q241,658 244,718 L278,723 Q275,676 298.5,640 Q322,604 372,604 Q422,604 457.5,639 Q493,674 509,723 L542,718 Q526,659 481,614.5 Q436,570 365,570"/> 
            <glyph glyph-name="Ė" unicode="&#x116;" horiz-adv-x="596" d=" M73,0 L205,659 L596,659 L588,622 L240,622 L189,368 L480,368 L472,331 L183,331 L122,37 L480,37 L472,0 M427,723 Q413,723 403.5,732 Q394,741 394,756 Q394,775 406.5,788 Q419,801 436,801 Q450,801 459.5,791 Q469,781 469,766 Q469,748 456.5,735.5 Q444,723 427,723"/> 
            <glyph glyph-name="ė" unicode="&#x117;" horiz-adv-x="518" d=" M271,-12 Q178,-12 125,42 Q72,96 72,192 Q72,319 152.5,405.5 Q233,492 343,492 Q426,492 472,441.5 Q518,391 518,310 Q518,264 508,237 L117,237 Q114,216 114,195 Q114,117 157.5,70.5 Q201,24 277,24 Q375,24 453,93 L473,63 Q386,-12 271,-12 M339,457 Q269,457 208,405 Q147,353 124,272 L474,272 Q478,289 478,313 Q478,379 440.5,418 Q403,457 339,457 M371,597 Q353,597 342,607.5 Q331,618 331,636 Q331,658 346.5,674 Q362,690 382,690 Q400,690 411,679 Q422,668 422,651 Q422,629 406.5,613 Q391,597 371,597"/> 
            <glyph glyph-name="Ę" unicode="&#x118;" horiz-adv-x="596" d=" M378,-224 Q341,-224 315.5,-206 Q290,-188 290,-151 Q290,-106 323,-65.5 Q356,-25 404,0 L73,0 L205,659 L596,659 L588,622 L240,622 L189,368 L480,368 L472,331 L183,331 L122,37 L480,37 L472,0 L470,0 Q431,0 379.5,-47.5 Q328,-95 328,-139 Q328,-165 345,-178 Q362,-191 389,-191 Q415,-191 443,-172 L457,-196 Q422,-224 378,-224"/> 
            <glyph glyph-name="ę" unicode="&#x119;" horiz-adv-x="518" d=" M340,-224 Q304,-224 278.5,-205.5 Q253,-187 253,-151 Q253,-110 279.5,-74 Q306,-38 354,2 Q308,-12 271,-12 Q178,-12 125,42 Q72,96 72,192 Q72,319 152.5,405.5 Q233,492 343,492 Q426,492 472,441.5 Q518,391 518,310 Q518,264 508,237 L117,237 Q114,216 114,195 Q114,117 157.5,70.5 Q201,24 277,24 Q375,24 453,93 L473,63 Q289,-63 289,-139 Q289,-191 352,-191 Q380,-191 406,-173 L420,-195 Q386,-224 340,-224 M339,457 Q269,457 208,405 Q147,353 124,272 L474,272 Q478,289 478,313 Q478,379 440.5,418 Q403,457 339,457"/> 
            <glyph glyph-name="Ě" unicode="&#x11A;" horiz-adv-x="596" d=" M73,0 L205,659 L596,659 L588,622 L240,622 L189,368 L480,368 L472,331 L183,331 L122,37 L480,37 L472,0 M403,709 L309,825 L331,842 L426,743 L430,743 L562,844 L582,824 L447,709"/> 
            <glyph glyph-name="ě" unicode="&#x11B;" horiz-adv-x="528" d=" M271,-12 Q178,-12 125,42 Q72,96 72,192 Q72,319 152.5,405.5 Q233,492 343,492 Q426,492 472,441.5 Q518,391 518,310 Q518,264 508,237 L117,237 Q114,216 114,195 Q114,117 157.5,70.5 Q201,24 277,24 Q375,24 453,93 L473,63 Q386,-12 271,-12 M339,457 Q269,457 208,405 Q147,353 124,272 L474,272 Q478,289 478,313 Q478,379 440.5,418 Q403,457 339,457 M343,573 L252,719 L277,737 L365,610 L369,610 L506,737 L528,717 L386,573"/> 
            <glyph glyph-name="Ĝ" unicode="&#x11C;" horiz-adv-x="569" d=" M303,-12 Q189,-12 130,58.5 Q71,129 71,248 Q71,324 94,398.5 Q117,473 159,534 Q201,595 267.5,633 Q334,671 413,671 Q511,671 569,578 L536,555 Q492,634 411,634 Q321,634 251,573 Q181,512 147.5,426.5 Q114,341 114,254 Q114,152 161,88.5 Q208,25 307,25 Q388,25 443,75 L485,286 L333,286 L341,322 L533,322 L479,54 Q401,-12 303,-12 M290,707 L270,726 L405,842 L449,842 L543,726 L521,709 L426,808 L422,808"/> 
            <glyph glyph-name="ĝ" unicode="&#x11D;" horiz-adv-x="542" d=" M197,-229 Q94,-229 23,-172 L46,-141 Q107,-193 201,-193 Q279,-193 331.5,-153 Q384,-113 399,-36 L422,83 L418,83 Q329,-3 233,-3 Q155,-3 109,44 Q63,91 63,177 Q63,305 140.5,398.5 Q218,492 330,492 Q437,492 485,414 L489,414 L508,480 L542,480 L437,-45 Q419,-136 355,-182.5 Q291,-229 197,-229 M240,33 Q334,33 430,135 L480,369 Q422,456 331,456 Q237,456 171,373.5 Q105,291 105,185 Q105,109 140.5,71 Q176,33 240,33 M258,572 L237,593 L379,737 L422,737 L513,591 L488,572 L400,700 L396,700"/> 
            <glyph glyph-name="Ğ" unicode="&#x11E;" horiz-adv-x="569" d=" M303,-12 Q189,-12 130,58.5 Q71,129 71,248 Q71,324 94,398.5 Q117,473 159,534 Q201,595 267.5,633 Q334,671 413,671 Q511,671 569,578 L536,555 Q492,634 411,634 Q321,634 251,573 Q181,512 147.5,426.5 Q114,341 114,254 Q114,152 161,88.5 Q208,25 307,25 Q388,25 443,75 L485,286 L333,286 L341,322 L533,322 L479,54 Q401,-12 303,-12 M403,710 Q343,710 315.5,747 Q288,784 291,835 L324,840 Q322,799 343.5,771 Q365,743 410,743 Q455,743 485.5,770.5 Q516,798 531,840 L563,835 Q549,784 507.5,747 Q466,710 403,710"/> 
            <glyph glyph-name="ğ" unicode="&#x11F;" horiz-adv-x="550" d=" M197,-229 Q94,-229 23,-172 L46,-141 Q107,-193 201,-193 Q279,-193 331.5,-153 Q384,-113 399,-36 L422,83 L418,83 Q329,-3 233,-3 Q155,-3 109,44 Q63,91 63,177 Q63,305 140.5,398.5 Q218,492 330,492 Q437,492 485,414 L489,414 L508,480 L542,480 L437,-45 Q419,-136 355,-182.5 Q291,-229 197,-229 M240,33 Q334,33 430,135 L480,369 Q422,456 331,456 Q237,456 171,373.5 Q105,291 105,185 Q105,109 140.5,71 Q176,33 240,33 M373,570 Q305,570 277,614 Q249,658 252,718 L286,723 Q283,676 306.5,640 Q330,604 380,604 Q430,604 465.5,639 Q501,674 517,723 L550,718 Q534,659 489,614.5 Q444,570 373,570"/> 
            <glyph glyph-name="Ġ" unicode="&#x120;" horiz-adv-x="569" d=" M303,-12 Q189,-12 130,58.5 Q71,129 71,248 Q71,324 94,398.5 Q117,473 159,534 Q201,595 267.5,633 Q334,671 413,671 Q511,671 569,578 L536,555 Q492,634 411,634 Q321,634 251,573 Q181,512 147.5,426.5 Q114,341 114,254 Q114,152 161,88.5 Q208,25 307,25 Q388,25 443,75 L485,286 L333,286 L341,322 L533,322 L479,54 Q401,-12 303,-12 M411,723 Q397,723 387.5,732 Q378,741 378,756 Q378,775 390.5,788 Q403,801 420,801 Q434,801 443.5,791 Q453,781 453,766 Q453,748 440.5,735.5 Q428,723 411,723"/> 
            <glyph glyph-name="ġ" unicode="&#x121;" horiz-adv-x="542" d=" M197,-229 Q94,-229 23,-172 L46,-141 Q107,-193 201,-193 Q279,-193 331.5,-153 Q384,-113 399,-36 L422,83 L418,83 Q329,-3 233,-3 Q155,-3 109,44 Q63,91 63,177 Q63,305 140.5,398.5 Q218,492 330,492 Q437,492 485,414 L489,414 L508,480 L542,480 L437,-45 Q419,-136 355,-182.5 Q291,-229 197,-229 M240,33 Q334,33 430,135 L480,369 Q422,456 331,456 Q237,456 171,373.5 Q105,291 105,185 Q105,109 140.5,71 Q176,33 240,33 M379,597 Q361,597 350,607.5 Q339,618 339,636 Q339,658 354.5,674 Q370,690 390,690 Q408,690 419,679 Q430,668 430,651 Q430,629 414.5,613 Q399,597 379,597"/> 
            <glyph glyph-name="Ģ" unicode="&#x122;" horiz-adv-x="569" d=" M303,-12 Q189,-12 130,58.5 Q71,129 71,248 Q71,324 94,398.5 Q117,473 159,534 Q201,595 267.5,633 Q334,671 413,671 Q511,671 569,578 L536,555 Q492,634 411,634 Q321,634 251,573 Q181,512 147.5,426.5 Q114,341 114,254 Q114,152 161,88.5 Q208,25 307,25 Q388,25 443,75 L485,286 L333,286 L341,322 L533,322 L479,54 Q401,-12 303,-12 M180,-219 L179,-191 Q301,-186 301,-133 Q301,-94 234,-88 L248,-61 Q302,-67 321,-81.5 Q340,-96 340,-124 Q340,-168 296.5,-192.5 Q253,-217 180,-219"/> 
            <glyph glyph-name="ģ" unicode="&#x123;" horiz-adv-x="542" d=" M197,-229 Q94,-229 23,-172 L46,-141 Q107,-193 201,-193 Q279,-193 331.5,-153 Q384,-113 399,-36 L422,83 L418,83 Q329,-3 233,-3 Q155,-3 109,44 Q63,91 63,177 Q63,305 140.5,398.5 Q218,492 330,492 Q437,492 485,414 L489,414 L508,480 L542,480 L437,-45 Q419,-136 355,-182.5 Q291,-229 197,-229 M240,33 Q334,33 430,135 L480,369 Q422,456 331,456 Q237,456 171,373.5 Q105,291 105,185 Q105,109 140.5,71 Q176,33 240,33 M390,539 Q320,556 320,604 Q320,643 359.5,666 Q399,689 463,695 L464,666 Q419,661 389,646.5 Q359,632 359,609 Q359,577 408,567"/> 
            <glyph glyph-name="Ĥ" unicode="&#x124;" horiz-adv-x="581" d=" M27,0 L159,659 L202,659 L143,368 L479,368 L538,659 L581,659 L449,0 L406,0 L473,331 L136,331 L70,0 M265,707 L245,726 L380,842 L424,842 L518,726 L496,709 L401,808 L397,808"/> 
            <glyph glyph-name="ĥ" unicode="&#x125;" horiz-adv-x="521" d=" M48,0 L191,719 L232,719 L173,424 L161,374 L165,374 Q225,430 279,461 Q333,492 398,492 Q461,492 491,460.5 Q521,429 521,375 Q521,339 511,292 L453,0 L412,0 L470,288 Q480,336 480,367 Q480,409 456,432 Q432,455 387,455 Q280,455 154,321 L89,0 M103,767 L83,786 L218,902 L262,902 L356,786 L334,769 L239,868 L235,868"/> 
            <glyph glyph-name="Ħ" unicode="&#x126;" horiz-adv-x="629" d=" M50,495 L55,523 L133,528 L159,659 L202,659 L175,528 L511,528 L538,659 L581,659 L555,528 L629,528 L621,495 L548,495 L449,0 L406,0 L473,331 L136,331 L70,0 L27,0 L126,495 M143,368 L479,368 L505,495 L169,495"/> 
            <glyph glyph-name="ħ" unicode="&#x127;" horiz-adv-x="518" d=" M48,0 L164,581 L86,581 L91,611 L171,616 L191,719 L233,719 L212,616 L443,616 L435,581 L205,581 L169,404 L158,353 L162,353 Q220,409 274.5,440.5 Q329,472 395,472 Q458,472 488,440.5 Q518,409 518,355 Q518,317 508,272 L453,0 L412,0 L466,268 Q476,316 476,346 Q476,435 383,435 Q276,435 150,301 L89,0"/> 
            <glyph glyph-name="Ĩ" unicode="&#x128;" horiz-adv-x="563" d=" M46,0 L54,37 L222,37 L339,622 L170,622 L178,659 L562,659 L554,622 L382,622 L265,37 L436,37 L428,0 M457,718 Q434,718 414.5,730.5 Q395,743 384,758.5 Q373,774 357,786.5 Q341,799 324,799 Q278,799 255,721 L224,724 Q233,773 262,803.5 Q291,834 331,834 Q360,834 382,814 Q404,794 423.5,774 Q443,754 464,754 Q507,754 533,832 L563,829 Q555,780 526,749 Q497,718 457,718"/> 
            <glyph glyph-name="ĩ" unicode="&#x129;" horiz-adv-x="526" d=" M350,-12 Q298,-12 266.5,16 Q235,44 235,98 Q235,120 241,148 L305,444 L119,444 L127,480 L353,480 L281,140 Q277,123 277,105 Q277,24 359,24 Q399,24 462,53 L474,21 Q405,-12 350,-12 M419,579 Q396,579 377.5,594.5 Q359,610 349,628 Q339,646 323,661.5 Q307,677 288,677 Q241,677 219,582 L185,584 Q215,710 292,710 Q316,710 334.5,695 Q353,680 363,661.5 Q373,643 388.5,628 Q404,613 423,613 Q472,613 492,707 L526,705 Q496,579 419,579"/> 
            <glyph glyph-name="Ī" unicode="&#x12A;" horiz-adv-x="562" d=" M46,0 L54,37 L222,37 L339,622 L170,622 L178,659 L562,659 L554,622 L382,622 L265,37 L436,37 L428,0 M266,734 L274,768 L511,768 L503,734"/> 
            <glyph glyph-name="ī" unicode="&#x12B;" horiz-adv-x="474" d=" M350,-12 Q298,-12 266.5,16 Q235,44 235,98 Q235,120 241,148 L305,444 L119,444 L127,480 L353,480 L281,140 Q277,123 277,105 Q277,24 359,24 Q399,24 462,53 L474,21 Q405,-12 350,-12 M223,606 L228,640 L466,640 L461,606"/> 
            <glyph glyph-name="Ĭ" unicode="&#x12C;" horiz-adv-x="562" d=" M46,0 L54,37 L222,37 L339,622 L170,622 L178,659 L562,659 L554,622 L382,622 L265,37 L436,37 L428,0 M378,710 Q318,710 290.5,747 Q263,784 266,835 L299,840 Q297,799 318.5,771 Q340,743 385,743 Q430,743 460.5,770.5 Q491,798 506,840 L538,835 Q524,784 482.5,747 Q441,710 378,710"/> 
            <glyph glyph-name="ĭ" unicode="&#x12D;" horiz-adv-x="513" d=" M350,-12 Q298,-12 266.5,16 Q235,44 235,98 Q235,120 241,148 L305,444 L119,444 L127,480 L353,480 L281,140 Q277,123 277,105 Q277,24 359,24 Q399,24 462,53 L474,21 Q405,-12 350,-12 M336,570 Q268,570 240,614 Q212,658 215,718 L249,723 Q246,676 269.5,640 Q293,604 343,604 Q393,604 428.5,639 Q464,674 480,723 L513,718 Q497,659 452,614.5 Q407,570 336,570"/> 
            <glyph glyph-name="Į" unicode="&#x12E;" horiz-adv-x="562" d=" M212,-224 Q176,-224 150.5,-205.5 Q125,-187 125,-151 Q125,-71 220,0 L46,0 L54,37 L222,37 L339,622 L170,622 L178,659 L562,659 L554,622 L382,622 L265,37 L436,37 L428,0 L262,0 Q217,-29 189.5,-67 Q162,-105 162,-139 Q162,-165 179,-178 Q196,-191 224,-191 Q251,-191 277,-172 L291,-196 Q258,-224 212,-224"/> 
            <glyph glyph-name="į" unicode="&#x12F;" horiz-adv-x="474" d=" M351,-224 Q314,-224 288.5,-206 Q263,-188 263,-151 Q263,-77 359,-12 L349,-12 Q297,-12 266,16 Q235,44 235,98 Q235,120 241,148 L305,444 L119,444 L127,480 L353,480 L281,140 Q277,123 277,105 Q277,24 359,24 Q399,24 462,53 L474,21 Q300,-59 300,-139 Q300,-192 362,-192 Q389,-192 417,-173 L430,-195 Q398,-224 351,-224 M342,597 Q324,597 313,607.5 Q302,618 302,636 Q302,658 317.5,674 Q333,690 353,690 Q372,690 382.5,679 Q393,668 393,651 Q393,629 377.5,613 Q362,597 342,597"/> 
            <glyph glyph-name="İ" unicode="&#x130;" horiz-adv-x="562" d=" M46,0 L54,37 L222,37 L339,622 L170,622 L178,659 L562,659 L554,622 L382,622 L265,37 L436,37 L428,0 M386,723 Q372,723 362.5,732 Q353,741 353,756 Q353,775 365.5,788 Q378,801 395,801 Q409,801 418.5,791 Q428,781 428,766 Q428,748 415.5,735.5 Q403,723 386,723"/> 
            <glyph glyph-name="ı" unicode="&#x131;" horiz-adv-x="474" d=" M350,-12 Q298,-12 266.5,16 Q235,44 235,98 Q235,120 241,148 L305,444 L119,444 L127,480 L353,480 L281,140 Q277,123 277,105 Q277,24 359,24 Q399,24 462,53 L474,21 Q405,-12 350,-12"/> 
            <glyph glyph-name="Ĳ" unicode="&#x132;" horiz-adv-x="548" d=" M61,0 L193,659 L236,659 L104,0 M292,-153 Q260,-153 230,-136 L245,-102 Q266,-115 293,-115 Q349,-115 370,-16 L505,659 L548,659 L415,-10 Q387,-153 292,-153"/> 
            <glyph glyph-name="ĳ" unicode="&#x133;" horiz-adv-x="527" d=" M92,0 L189,480 L230,480 L133,0 M235,596 Q218,596 206.5,607.5 Q195,619 195,636 Q195,658 210.5,673.5 Q226,689 245,689 Q263,689 274,677.5 Q285,666 285,647 Q285,626 270,611 Q255,596 235,596 M236,-229 Q203,-229 173,-213 L189,-180 Q208,-193 236,-193 Q291,-193 314,-93 L430,480 L471,480 L357,-88 Q327,-229 236,-229 M477,596 Q460,596 448,607.5 Q436,619 436,636 Q436,658 451,673.5 Q466,689 486,689 Q504,689 515.5,677.5 Q527,666 527,647 Q527,626 511.5,611 Q496,596 477,596"/> 
            <glyph glyph-name="Ĵ" unicode="&#x134;" horiz-adv-x="523" d=" M201,-12 Q144,-12 100.5,15.5 Q57,43 33,84 L63,108 Q112,25 205,25 Q282,25 327,72.5 Q372,120 391,217 L472,622 L186,622 L194,659 L523,659 L433,211 Q410,98 354.5,43 Q299,-12 201,-12 M254,707 L234,726 L369,842 L413,842 L507,726 L485,709 L390,808 L386,808"/> 
            <glyph glyph-name="ĵ" unicode="&#x135;" horiz-adv-x="547" d=" M112,-229 Q42,-229 -15,-187 L6,-156 Q53,-193 116,-193 Q247,-193 278,-43 L376,444 L141,444 L149,480 L425,480 L321,-39 Q301,-135 253,-182 Q205,-229 112,-229 M292,572 L271,593 L413,737 L456,737 L547,591 L522,572 L434,700 L430,700"/> 
            <glyph glyph-name="Ķ" unicode="&#x136;" horiz-adv-x="605" d=" M605,659 L323,395 L511,0 L464,0 L292,366 L147,229 L101,0 L58,0 L190,659 L233,659 L159,292 L163,292 L553,659 M177,-219 L176,-191 Q298,-186 298,-133 Q298,-94 231,-88 L245,-61 Q299,-67 318,-81.5 Q337,-96 337,-124 Q337,-168 293.5,-192.5 Q250,-217 177,-219"/> 
            <glyph glyph-name="ķ" unicode="&#x137;" horiz-adv-x="571" d=" M66,0 L209,719 L251,719 L146,190 L150,190 L517,480 L571,480 L339,292 L499,0 L454,0 L308,267 L134,134 L107,0 M164,-219 L163,-191 Q285,-186 285,-133 Q285,-94 218,-88 L232,-61 Q286,-67 305,-81.5 Q324,-96 324,-124 Q324,-168 280.5,-192.5 Q237,-217 164,-219"/> 
            <glyph glyph-name="ĸ" unicode="&#x138;" horiz-adv-x="571" d=" M66,0 L162,480 L203,480 L146,190 L150,190 L517,480 L571,480 L339,292 L499,0 L455,0 L308,267 L134,134 L107,0"/> 
            <glyph glyph-name="Ĺ" unicode="&#x139;" horiz-adv-x="514" d=" M119,0 L250,659 L293,659 L170,37 L514,37 L506,0 M273,712 L256,736 L403,848 L426,813"/> 
            <glyph glyph-name="ĺ" unicode="&#x13A;" horiz-adv-x="493" d=" M324,-12 Q271,-12 239,17 Q207,46 207,102 Q207,123 214,150 L323,684 L149,684 L157,719 L370,719 L256,155 Q250,130 250,106 Q250,24 333,24 Q380,24 436,53 L449,20 Q387,-12 324,-12 M340,772 L323,796 L470,908 L493,873"/> 
            <glyph glyph-name="Ļ" unicode="&#x13B;" horiz-adv-x="514" d=" M119,0 L250,659 L293,659 L170,37 L514,37 L506,0 M197,-219 L196,-191 Q318,-186 318,-133 Q318,-94 251,-88 L265,-61 Q319,-67 338,-81.5 Q357,-96 357,-124 Q357,-168 313.5,-192.5 Q270,-217 197,-219"/> 
            <glyph glyph-name="ļ" unicode="&#x13C;" horiz-adv-x="449" d=" M324,-12 Q271,-12 239,17 Q207,46 207,102 Q207,123 214,150 L323,684 L149,684 L157,719 L370,719 L256,155 Q250,130 250,106 Q250,24 333,24 Q380,24 436,53 L449,20 Q387,-12 324,-12 M209,-219 L208,-191 Q330,-186 330,-133 Q330,-94 263,-88 L277,-61 Q331,-67 350,-81.5 Q369,-96 369,-124 Q369,-168 325.5,-192.5 Q282,-217 209,-219"/> 
            <glyph glyph-name="Ľ" unicode="&#x13D;" horiz-adv-x="516" d=" M119,0 L250,659 L293,659 L170,37 L514,37 L506,0 M427,544 L476,809 L516,809 L501,738 L455,544"/> 
            <glyph glyph-name="ľ" unicode="&#x13E;" horiz-adv-x="534" d=" M324,-12 Q271,-12 239,17 Q207,46 207,102 Q207,123 214,150 L323,684 L149,684 L157,719 L370,719 L256,155 Q250,130 250,106 Q250,24 333,24 Q380,24 436,53 L449,20 Q387,-12 324,-12 M445,548 L494,813 L534,813 L519,742 L473,548"/> 
            <glyph glyph-name="Ŀ" unicode="&#x13F;" horiz-adv-x="540" d=" M119,0 L250,659 L293,659 L170,37 L514,37 L506,0 M489,296 Q471,296 460,306.5 Q449,317 449,335 Q449,357 464.5,373 Q480,389 500,389 Q518,389 529,378.5 Q540,368 540,350 Q540,328 524.5,312 Q509,296 489,296"/> 
            <glyph glyph-name="ŀ" unicode="&#x140;" horiz-adv-x="600" d=" M293,-12 Q240,-12 208,17 Q176,46 176,102 Q176,123 183,150 L292,684 L118,684 L126,719 L339,719 L225,155 Q219,130 219,106 Q219,24 302,24 Q349,24 405,53 L418,20 Q356,-12 293,-12 M549,296 Q531,296 520,306.5 Q509,317 509,335 Q509,357 524.5,373 Q540,389 560,389 Q578,389 589,378.5 Q600,368 600,350 Q600,328 584.5,312 Q569,296 549,296"/> 
            <glyph glyph-name="Ł" unicode="&#x141;" horiz-adv-x="514" d=" M75,213 L63,244 L178,297 L250,659 L293,659 L225,317 L462,430 L475,398 L218,277 L170,37 L514,37 L506,0 L119,0 L170,257"/> 
            <glyph glyph-name="ł" unicode="&#x142;" horiz-adv-x="502" d=" M324,-12 Q271,-12 239,17 Q207,46 207,102 Q207,123 214,150 L258,366 L125,298 L113,327 L267,408 L323,684 L149,684 L157,719 L370,719 L311,429 L490,521 L502,492 L303,387 L256,155 Q250,130 250,106 Q250,24 333,24 Q380,24 436,53 L449,20 Q387,-12 324,-12"/> 
            <glyph glyph-name="Ń" unicode="&#x143;" horiz-adv-x="578" d=" M33,0 L165,659 L210,659 L376,189 L419,57 L423,57 Q444,192 455,243 L536,659 L578,659 L446,0 L402,0 L236,470 L192,602 L188,602 Q169,482 156,414 L75,0 M372,712 L355,736 L502,848 L525,813"/> 
            <glyph glyph-name="ń" unicode="&#x144;" horiz-adv-x="521" d=" M48,0 L144,480 L178,480 L162,373 L166,373 Q224,429 278.5,460.5 Q333,492 398,492 Q461,492 491,460.5 Q521,429 521,375 Q521,339 511,292 L453,0 L412,0 L470,288 Q480,336 480,367 Q480,409 456,432 Q432,455 387,455 Q280,455 154,321 L89,0 M337,580 L316,605 L474,750 L501,716"/> 
            <glyph glyph-name="Ņ" unicode="&#x145;" horiz-adv-x="578" d=" M33,0 L165,659 L210,659 L376,189 L419,57 L423,57 Q444,192 455,243 L536,659 L578,659 L446,0 L402,0 L236,470 L192,602 L188,602 Q169,482 156,414 L75,0 M131,-219 L130,-191 Q252,-186 252,-133 Q252,-94 185,-88 L199,-61 Q253,-67 272,-81.5 Q291,-96 291,-124 Q291,-168 247.5,-192.5 Q204,-217 131,-219"/> 
            <glyph glyph-name="ņ" unicode="&#x146;" horiz-adv-x="521" d=" M48,0 L144,480 L178,480 L162,373 L166,373 Q224,429 278.5,460.5 Q333,492 398,492 Q461,492 491,460.5 Q521,429 521,375 Q521,339 511,292 L453,0 L412,0 L470,288 Q480,336 480,367 Q480,409 456,432 Q432,455 387,455 Q280,455 154,321 L89,0 M138,-219 L137,-191 Q259,-186 259,-133 Q259,-94 192,-88 L206,-61 Q260,-67 279,-81.5 Q298,-96 298,-124 Q298,-168 254.5,-192.5 Q211,-217 138,-219"/> 
            <glyph glyph-name="Ň" unicode="&#x147;" horiz-adv-x="578" d=" M33,0 L165,659 L210,659 L376,189 L419,57 L423,57 Q444,192 455,243 L536,659 L578,659 L446,0 L402,0 L236,470 L192,602 L188,602 Q169,482 156,414 L75,0 M366,709 L272,825 L294,842 L389,743 L393,743 L525,844 L545,824 L410,709"/> 
            <glyph glyph-name="ň" unicode="&#x148;" horiz-adv-x="529" d=" M48,0 L144,480 L178,480 L162,373 L166,373 Q224,429 278.5,460.5 Q333,492 398,492 Q461,492 491,460.5 Q521,429 521,375 Q521,339 511,292 L453,0 L412,0 L470,288 Q480,336 480,367 Q480,409 456,432 Q432,455 387,455 Q280,455 154,321 L89,0 M344,573 L253,719 L278,737 L366,610 L370,610 L507,737 L529,717 L387,573"/> 
            <glyph glyph-name="ŉ" unicode="&#x149;" horiz-adv-x="579" d=" M127,0 L223,480 L258,480 L242,375 L246,375 Q306,433 355,462.5 Q404,492 467,492 Q524,492 551.5,460.5 Q579,429 579,375 Q579,339 569,292 L511,0 L470,0 L528,288 Q537,340 537,366 Q537,455 455,455 Q402,455 349.5,422 Q297,389 234,324 L168,0 M16,406 L7,436 Q132,479 152,583 Q138,577 123,577 Q102,577 90,591 Q78,605 78,627 Q78,657 99,678.5 Q120,700 149,700 Q175,700 191.5,682 Q208,664 208,627 Q208,553 157,493 Q106,433 16,406"/> 
            <glyph glyph-name="Ŋ" unicode="&#x14A;" horiz-adv-x="552" d=" M322,-12 Q282,-12 248,6 L268,40 Q295,25 322,25 Q370,25 414,87 Q458,149 483.5,247 Q509,345 509,447 Q509,634 368,634 Q330,634 276.5,607 Q223,580 178,534 L71,0 L28,0 L160,659 L202,659 L187,581 Q225,619 280,645 Q335,671 377,671 Q459,671 505.5,618 Q552,565 552,453 Q552,333 523,227 Q494,121 440.5,54.5 Q387,-12 322,-12"/> 
            <glyph glyph-name="ŋ" unicode="&#x14B;" horiz-adv-x="521" d=" M323,-181 Q291,-181 261,-164 L276,-131 Q297,-145 324,-145 Q382,-145 403,-44 L470,288 Q480,336 480,367 Q480,409 456,432 Q432,455 387,455 Q280,455 154,321 L89,0 L48,0 L144,480 L178,480 L162,373 L166,373 Q224,429 278.5,460.5 Q333,492 398,492 Q461,492 491,460.5 Q521,429 521,375 Q521,339 511,292 L444,-43 Q430,-113 401.5,-147 Q373,-181 323,-181"/> 
            <glyph glyph-name="Ō" unicode="&#x14C;" horiz-adv-x="562" d=" M255,-12 Q158,-12 103,58 Q48,128 48,243 Q48,319 69,394.5 Q90,470 127.5,532 Q165,594 224.5,632.5 Q284,671 354,671 Q452,671 507,601 Q562,531 562,416 Q562,340 541,264.5 Q520,189 482.5,127 Q445,65 385.5,26.5 Q326,-12 255,-12 M259,25 Q338,25 399.5,87 Q461,149 490,236.5 Q519,324 519,414 Q519,515 476,574.5 Q433,634 351,634 Q272,634 210.5,572 Q149,510 120,422.5 Q91,335 91,245 Q91,144 134,84.5 Q177,25 259,25 M266,734 L274,768 L511,768 L503,734"/> 
            <glyph glyph-name="ō" unicode="&#x14D;" horiz-adv-x="521" d=" M247,-12 Q157,-12 105,45.5 Q53,103 53,196 Q53,319 134,405.5 Q215,492 327,492 Q417,492 469,434.5 Q521,377 521,284 Q521,161 440,74.5 Q359,-12 247,-12 M250,24 Q341,24 410.5,100 Q480,176 480,279 Q480,360 438.5,408 Q397,456 324,456 Q233,456 164,380 Q95,304 95,202 Q95,120 136,72 Q177,24 250,24 M241,606 L246,640 L484,640 L479,606"/> 
            <glyph glyph-name="Ŏ" unicode="&#x14E;" horiz-adv-x="562" d=" M255,-12 Q158,-12 103,58 Q48,128 48,243 Q48,319 69,394.5 Q90,470 127.5,532 Q165,594 224.5,632.5 Q284,671 354,671 Q452,671 507,601 Q562,531 562,416 Q562,340 541,264.5 Q520,189 482.5,127 Q445,65 385.5,26.5 Q326,-12 255,-12 M259,25 Q338,25 399.5,87 Q461,149 490,236.5 Q519,324 519,414 Q519,515 476,574.5 Q433,634 351,634 Q272,634 210.5,572 Q149,510 120,422.5 Q91,335 91,245 Q91,144 134,84.5 Q177,25 259,25 M378,710 Q318,710 290.5,747 Q263,784 266,835 L299,840 Q297,799 318.5,771 Q340,743 385,743 Q430,743 460.5,770.5 Q491,798 506,840 L538,835 Q524,784 482.5,747 Q441,710 378,710"/> 
            </font>
</defs>
</svg>
