<?xml version="1.0" standalone="no"?>
<!DOCTYPE svg PUBLIC "-//W3C//DTD SVG 1.1//EN" "http://www.w3.org/Graphics/SVG/1.1/DTD/svg11.dtd" >
<svg xmlns="http://www.w3.org/2000/svg">
    <defs>
        <font id="SourceCodePro-BoldIt">
            <font-face font-family="SourceCodePro-BoldIt"
                       units-per-em="1000"
                       ascent="984"
                       descent="-273"
                       bbox="-302 -400 802 1060"
                    />
            <missing-glyph horiz-adv-x="0" />
            
            <glyph glyph-name="!" unicode="&#x21;" horiz-adv-x="444" d=" M245,255 L281,537 L303,670 L444,670 L417,537 L335,255 M246,-12 Q212,-12 190,11 Q168,34 168,70 Q168,116 198.5,148.5 Q229,181 276,181 Q310,181 332,158 Q354,135 354,99 Q354,52 323.5,20 Q293,-12 246,-12"/> 
            <glyph glyph-name="&quot;" unicode="&#x22;" horiz-adv-x="595" d=" M133,312 L147,547 L171,685 L329,685 L297,547 L216,312 M399,312 L413,547 L437,685 L595,685 L563,547 L482,312"/> 
            <glyph glyph-name="#" unicode="&#x23;" horiz-adv-x="564" d=" M256,0 L314,189 L200,189 L141,0 L61,0 L121,189 L47,189 L68,269 L146,269 L188,402 L104,402 L125,482 L213,482 L266,650 L344,650 L292,482 L404,482 L455,650 L534,650 L483,482 L564,482 L542,402 L458,402 L418,269 L506,269 L485,189 L394,189 L336,0 M338,269 L379,402 L267,402 L225,269"/> 
            <glyph glyph-name="$" unicode="&#x24;" horiz-adv-x="536" d=" M173,-110 L204,41 Q109,62 44,140 L126,223 Q194,143 278,143 Q366,143 366,197 Q366,218 343.5,234 Q321,250 266,276 Q195,309 157.5,346.5 Q120,384 120,446 Q120,525 171,568.5 Q222,612 310,617 L334,746 L424,746 L399,610 Q487,587 536,520 L456,445 Q398,509 323,509 Q290,509 270.5,496.5 Q251,484 251,460 Q251,436 274,419 Q297,402 349,378 Q424,343 461.5,308 Q499,273 499,212 Q499,130 441.5,85 Q384,40 292,35 L264,-110"/> 
            <glyph glyph-name="%" unicode="&#x25;" horiz-adv-x="602" d=" M116,312 Q60,312 25,347.5 Q-10,383 -10,446 Q-10,531 43,589.5 Q96,648 170,648 Q225,648 260.5,612 Q296,576 296,514 Q296,428 243,370 Q190,312 116,312 M127,386 Q157,386 179,421.5 Q201,457 201,511 Q201,574 159,574 Q129,574 107,538.5 Q85,503 85,448 Q85,386 127,386 M5,22 L-51,90 L170,266 L209,222 M382,373 L344,417 L546,617 L602,549 M370,-12 Q314,-12 279,23.5 Q244,59 244,122 Q244,207 297,265.5 Q350,324 424,324 Q479,324 514.5,288 Q550,252 550,190 Q550,104 497,46 Q444,-12 370,-12 M381,62 Q411,62 433,97.5 Q455,133 455,187 Q455,250 413,250 Q383,250 361,214.5 Q339,179 339,124 Q339,62 381,62"/> 
            <glyph glyph-name="&amp;" unicode="&#x26;" horiz-adv-x="593" d=" M186,-12 Q102,-12 53.5,32 Q5,76 5,150 Q5,217 42.5,263.5 Q80,310 147,351 Q125,415 125,469 Q125,551 179,607.5 Q233,664 320,664 Q384,664 419,628.5 Q454,593 454,533 Q454,495 441,462.5 Q428,430 401,403.5 Q374,377 350,359.5 Q326,342 288,319 Q327,255 386,199 Q431,255 473,358 L593,358 Q536,227 465,138 Q509,110 564,96 L510,-12 Q442,4 375,49 Q289,-12 186,-12 M238,473 Q238,442 247,409 Q296,439 321.5,468 Q347,497 347,534 Q347,573 312,573 Q280,573 259,545.5 Q238,518 238,473 M210,92 Q250,92 295,117 Q234,179 191,255 Q137,213 137,164 Q137,132 156.5,112 Q176,92 210,92"/> 
            <glyph glyph-name="'" unicode="&#x27;" horiz-adv-x="462" d=" M266,312 L280,547 L304,685 L462,685 L430,547 L349,312"/> 
            <glyph glyph-name="(" unicode="&#x28;" horiz-adv-x="553" d=" M309,-178 Q246,-112 210.5,-17.5 Q175,77 175,186 Q175,363 256.5,503 Q338,643 487,740 L553,664 Q290,474 290,186 Q290,9 399,-117"/> 
            <glyph glyph-name=")" unicode="&#x29;" horiz-adv-x="413" d=" M103,-188 L37,-111 Q299,79 299,366 Q299,543 190,670 L278,731 Q341,664 377,569.5 Q413,475 413,366 Q413,189 332.5,49 Q252,-91 103,-188"/> 
            <glyph glyph-name="*" unicode="&#x2A;" horiz-adv-x="544" d=" M142,98 L90,142 L212,295 L80,369 L114,430 L263,385 L311,553 L383,553 L364,383 L524,429 L544,362 L378,288 L448,129 L382,90 L288,235"/> 
            <glyph glyph-name="+" unicode="&#x2B;" horiz-adv-x="527" d=" M250,96 L250,282 L73,282 L73,378 L250,378 L250,564 L350,564 L350,378 L527,378 L527,282 L350,282 L350,96"/> 
            <glyph glyph-name="," unicode="&#x2C;" horiz-adv-x="373" d=" M104,-205 L90,-136 Q228,-93 253,6 Q249,5 240,5 Q207,5 184,28.5 Q161,52 161,90 Q161,138 196,171 Q231,204 280,204 Q323,204 348,173 Q373,142 373,87 Q373,-21 298.5,-100 Q224,-179 104,-205"/> 
            <glyph glyph-name="-" unicode="&#x2D;" horiz-adv-x="527" d=" M73,282 L73,378 L527,378 L527,282"/> 
            <glyph glyph-name="." unicode="&#x2E;" horiz-adv-x="366" d=" M241,-12 Q201,-12 176.5,15 Q152,42 152,83 Q152,136 187,173.5 Q222,211 276,211 Q316,211 341,184 Q366,157 366,115 Q366,62 330.5,25 Q295,-12 241,-12"/> 
            <glyph glyph-name="/" unicode="&#x2F;" horiz-adv-x="614" d=" M-10,-160 L493,710 L614,710 L111,-160"/> 
            <glyph glyph-name="0" unicode="&#x30;" horiz-adv-x="563" d=" M255,-12 Q158,-12 99.5,56.5 Q41,125 41,240 Q41,348 76.5,439.5 Q112,531 183.5,589 Q255,647 348,647 Q446,647 504.5,578.5 Q563,510 563,395 Q563,287 527.5,195.5 Q492,104 420.5,46 Q349,-12 255,-12 M267,93 Q342,93 389,181 Q436,269 436,386 Q436,542 336,542 Q261,542 214.5,454 Q168,366 168,249 Q168,93 267,93 M293,250 Q239,250 239,312 Q239,349 260,375.5 Q281,402 313,402 Q339,402 353,385.5 Q367,369 367,340 Q367,303 346,276.5 Q325,250 293,250"/> 
            <glyph glyph-name="1" unicode="&#x31;" horiz-adv-x="496" d=" M24,0 L47,110 L211,110 L288,493 L157,493 L174,579 Q288,597 352,635 L453,635 L348,110 L496,110 L474,0"/> 
            <glyph glyph-name="2" unicode="&#x32;" horiz-adv-x="510" d=" M17,0 L33,78 Q218,229 269,278 Q376,384 377,462 Q377,498 357,518.5 Q337,539 299,539 Q242,539 172,467 L106,547 Q206,647 317,647 Q406,647 458,600.5 Q510,554 510,476 Q510,432 494,391.5 Q478,351 438,304 Q398,257 366,225.5 Q334,194 266,132 Q251,118 243,111 Q284,115 366,115 L509,115 L487,0"/> 
            <glyph glyph-name="3" unicode="&#x33;" horiz-adv-x="529" d=" M243,-12 Q177,-12 117.5,16.5 Q58,45 17,102 L103,172 Q129,138 166.5,118 Q204,98 244,98 Q296,98 326.5,121.5 Q357,145 357,186 Q357,231 320.5,253 Q284,275 190,276 L209,373 Q389,373 389,472 Q389,503 367,521 Q345,539 306,539 Q256,539 193,496 L132,580 Q223,647 331,647 Q419,647 474,605.5 Q529,564 529,495 Q529,432 495,390.5 Q461,349 382,324 L382,320 Q494,281 494,185 Q494,91 424,39.5 Q354,-12 243,-12"/> 
            <glyph glyph-name="4" unicode="&#x34;" horiz-adv-x="548" d=" M292,0 L322,155 L7,155 L26,250 L378,635 L542,635 L468,260 L548,260 L527,155 L447,155 L416,0 M168,260 L343,260 L367,384 Q378,443 397,522 L394,522 Q322,429 308,413"/> 
            <glyph glyph-name="5" unicode="&#x35;" horiz-adv-x="544" d=" M234,-12 Q88,-12 6,102 L93,173 Q148,98 236,98 Q290,98 328.5,130 Q367,162 367,217 Q367,306 266,306 Q209,306 145,274 L93,317 L171,635 L544,635 L522,520 L267,520 L233,392 Q275,408 322,408 Q403,408 454.5,364.5 Q506,321 506,240 Q506,127 424.5,57.5 Q343,-12 234,-12"/> 
            <glyph glyph-name="6" unicode="&#x36;" horiz-adv-x="574" d=" M275,-12 Q175,-12 114.5,51 Q54,114 54,218 Q54,414 150,530.5 Q246,647 394,647 Q455,647 501,621 Q547,595 574,558 L487,486 Q452,537 386,537 Q319,537 267,485.5 Q215,434 193,334 Q222,364 265,381.5 Q308,399 345,399 Q422,399 471.5,357 Q521,315 521,232 Q521,135 450.5,61.5 Q380,-12 275,-12 M282,90 Q335,90 365.5,130.5 Q396,171 396,220 Q396,261 373,283 Q350,305 309,305 Q238,305 182,237 Q181,227 181,206 Q181,151 209,120.5 Q237,90 282,90"/> 
            <glyph glyph-name="7" unicode="&#x37;" horiz-adv-x="588" d=" M128,0 Q167,174 230.5,294 Q294,414 404,520 L100,520 L122,635 L588,635 L571,549 Q511,496 468,446 Q425,396 396,351.5 Q367,307 343.5,247.5 Q320,188 305.5,136.5 Q291,85 270,0"/> 
            <glyph glyph-name="8" unicode="&#x38;" horiz-adv-x="536" d=" M254,-12 Q155,-12 99,29.5 Q43,71 43,142 Q43,207 78.5,251.5 Q114,296 190,328 L190,332 Q124,398 124,466 Q124,549 186,598 Q248,647 346,647 Q428,647 482,609 Q536,571 536,503 Q536,390 416,332 L416,328 Q500,270 500,184 Q500,96 433,42 Q366,-12 254,-12 M348,366 Q419,410 419,479 Q419,512 396.5,531 Q374,550 336,550 Q297,550 270.5,529 Q244,508 244,474 Q244,417 348,366 M264,85 Q310,85 342,106.5 Q374,128 374,168 Q374,186 366.5,201 Q359,216 338,231.5 Q317,247 301.5,256.5 Q286,266 248,286 Q165,235 165,169 Q165,129 193.5,107 Q222,85 264,85"/> 
            <glyph glyph-name="9" unicode="&#x39;" horiz-adv-x="546" d=" M292,330 Q363,330 418,398 Q419,408 419,429 Q419,485 391.5,515 Q364,545 318,545 Q265,545 235,504.5 Q205,464 205,415 Q205,374 228,352 Q251,330 292,330 M206,-12 Q145,-12 99,14 Q53,40 27,77 L113,149 Q149,98 215,98 Q281,98 333,149.5 Q385,201 407,301 Q378,271 335,253.5 Q292,236 255,236 Q178,236 128.5,278 Q79,320 79,403 Q79,500 149.5,573.5 Q220,647 325,647 Q425,647 485.5,584 Q546,521 546,417 Q546,221 450,104.5 Q354,-12 206,-12"/> 
            <glyph glyph-name=":" unicode="&#x3A;" horiz-adv-x="429" d=" M304,311 Q264,311 239.5,338 Q215,365 215,406 Q215,459 250,496.5 Q285,534 339,534 Q379,534 404,507 Q429,480 429,438 Q429,385 393.5,348 Q358,311 304,311 M241,-12 Q201,-12 176.5,15 Q152,42 152,83 Q152,136 187,173.5 Q222,211 276,211 Q316,211 341,184 Q366,157 366,115 Q366,62 330.5,25 Q295,-12 241,-12"/> 
            <glyph glyph-name=";" unicode="&#x3B;" horiz-adv-x="429" d=" M304,311 Q264,311 239.5,338 Q215,365 215,406 Q215,459 250,496.5 Q285,534 339,534 Q379,534 404,507 Q429,480 429,438 Q429,385 393.5,348 Q358,311 304,311 M104,-205 L90,-136 Q228,-93 253,6 Q249,5 240,5 Q207,5 184,28.5 Q161,52 161,90 Q161,138 196,171 Q231,204 280,204 Q323,204 348,173 Q373,142 373,87 Q373,-21 298.5,-100 Q224,-179 104,-205"/> 
            <glyph glyph-name="&lt;" unicode="&#x3C;" horiz-adv-x="501" d=" M501,33 L117,284 L117,380 L501,631 L501,505 L230,334 L230,330 L501,159"/> 
            <glyph glyph-name="=" unicode="&#x3D;" horiz-adv-x="527" d=" M73,397 L73,493 L527,493 L527,397 M73,167 L73,263 L527,263 L527,167"/> 
            <glyph glyph-name="&gt;" unicode="&#x3E;" horiz-adv-x="483" d=" M99,33 L99,159 L370,330 L370,334 L99,505 L99,631 L483,380 L483,284"/> 
            <glyph glyph-name="?" unicode="&#x3F;" horiz-adv-x="537" d=" M213,255 Q215,318 246.5,358.5 Q278,399 330,436 Q367,462 383.5,480.5 Q400,499 400,523 Q400,572 345,572 Q292,572 235,515 L164,582 Q245,682 370,682 Q444,682 490.5,648.5 Q537,615 537,552 Q537,525 529,501.5 Q521,478 512.5,463.5 Q504,449 482,428.5 Q460,408 449.5,400 Q439,392 408,370 Q381,350 367.5,337.5 Q354,325 341.5,304 Q329,283 326,255 M231,-12 Q197,-12 175,11 Q153,34 153,70 Q153,117 183.5,149 Q214,181 261,181 Q295,181 317,158 Q339,135 339,99 Q339,53 308.5,20.5 Q278,-12 231,-12"/> 
            <glyph glyph-name="@" unicode="&#x40;" horiz-adv-x="579" d=" M280,-147 Q164,-147 88.5,-68.5 Q13,10 13,153 Q13,267 44,361 Q75,455 127.5,516 Q180,577 247.5,610 Q315,643 389,643 Q485,643 532,594.5 Q579,546 579,458 Q579,438 571,392 L513,100 L440,100 L441,151 L437,151 Q380,88 308,88 Q262,88 230.5,117 Q199,146 199,195 Q199,282 267.5,329 Q336,376 484,393 Q492,424 492,446 Q492,562 378,562 Q331,562 284,535 Q237,508 198.5,459 Q160,410 136,333 Q112,256 112,164 Q112,56 165,-3.5 Q218,-63 296,-63 Q357,-63 413,-21 L453,-92 Q381,-147 280,-147 M349,173 Q391,173 439,213 L461,320 Q373,307 337,282 Q301,257 301,218 Q301,197 314,185 Q327,173 349,173"/> 
            <glyph glyph-name="A" unicode="&#x41;" horiz-adv-x="523" d=" M266,354 L227,267 L366,267 L362,353 Q361,371 353,547 L349,547 Q337,520 309.5,455 Q282,390 266,354 M-43,0 L292,652 L455,652 L523,0 L379,0 L371,164 L181,164 L108,0"/> 
            <glyph glyph-name="B" unicode="&#x42;" horiz-adv-x="565" d=" M26,0 L156,652 L345,652 Q448,652 506.5,615 Q565,578 565,503 Q565,447 526,403 Q487,359 423,341 L422,337 Q534,309 534,214 Q534,106 455,53 Q376,0 252,0 M240,387 L296,387 Q424,387 424,480 Q424,545 321,545 L273,545 M184,106 L259,106 Q402,106 402,209 Q402,290 297,290 L221,290"/> 
            <glyph glyph-name="C" unicode="&#x43;" horiz-adv-x="589" d=" M317,-12 Q203,-12 136,61 Q69,134 69,261 Q69,430 169.5,547 Q270,664 416,664 Q531,664 589,560 L496,488 Q460,545 409,545 Q327,545 268.5,462.5 Q210,380 210,270 Q210,106 346,106 Q399,106 456,156 L514,68 Q425,-12 317,-12"/> 
            <glyph glyph-name="D" unicode="&#x44;" horiz-adv-x="565" d=" M12,0 L142,652 L288,652 Q421,652 493,587.5 Q565,523 565,396 Q565,208 468.5,104 Q372,0 216,0 M171,110 L213,110 Q307,110 365.5,179.5 Q424,249 424,387 Q424,466 387,504 Q350,542 285,542 L257,542"/> 
            <glyph glyph-name="E" unicode="&#x45;" horiz-adv-x="594" d=" M38,0 L169,652 L594,652 L572,537 L282,537 L254,395 L496,395 L474,280 L232,280 L198,115 L496,115 L474,0"/> 
            <glyph glyph-name="F" unicode="&#x46;" horiz-adv-x="607" d=" M55,0 L186,652 L607,652 L584,537 L298,537 L267,377 L505,377 L482,262 L245,262 L192,0"/> 
            <glyph glyph-name="G" unicode="&#x47;" horiz-adv-x="575" d=" M294,-12 Q178,-12 112,60 Q46,132 46,261 Q46,431 145,547.5 Q244,664 393,664 Q516,664 575,560 L481,488 Q445,545 386,545 Q301,545 243.5,463 Q186,381 186,270 Q186,105 318,105 Q359,105 389,127 L417,255 L310,255 L330,367 L558,367 L497,56 Q412,-12 294,-12"/> 
            <glyph glyph-name="H" unicode="&#x48;" horiz-adv-x="601" d=" M4,0 L134,652 L271,652 L219,399 L414,399 L464,652 L601,652 L471,0 L334,0 L390,279 L196,279 L141,0"/> 
            <glyph glyph-name="I" unicode="&#x49;" horiz-adv-x="591" d=" M15,0 L40,115 L191,115 L277,537 L123,537 L147,652 L591,652 L567,537 L414,537 L329,115 L483,115 L459,0"/> 
            <glyph glyph-name="J" unicode="&#x4A;" horiz-adv-x="570" d=" M223,-12 Q87,-12 8,100 L96,182 Q150,106 223,106 Q279,106 309,137.5 Q339,169 353,242 L412,537 L155,537 L178,652 L570,652 L482,212 Q461,107 396.5,47.5 Q332,-12 223,-12"/> 
            <glyph glyph-name="K" unicode="&#x4B;" horiz-adv-x="640" d=" M640,652 L382,385 L533,0 L377,0 L280,279 L186,182 L150,0 L15,0 L145,652 L281,652 L223,364 L227,364 L489,652"/> 
            <glyph glyph-name="L" unicode="&#x4C;" horiz-adv-x="517" d=" M65,0 L195,652 L332,652 L225,115 L517,115 L495,0"/> 
            <glyph glyph-name="M" unicode="&#x4D;" horiz-adv-x="606" d=" M0,0 L130,652 L275,652 L294,416 L297,317 L301,317 L339,413 L461,652 L606,652 L476,0 L357,0 L406,243 Q419,309 481,516 L477,516 Q475,513 457,473.5 Q439,434 420,393 Q401,352 399,348 L313,175 L231,175 L215,335 Q214,338 209,425.5 Q204,513 204,516 L200,516 Q181,320 169,263 L115,0"/> 
            <glyph glyph-name="N" unicode="&#x4E;" horiz-adv-x="594" d=" M11,0 L142,652 L279,652 L357,310 L383,169 L387,169 Q401,332 415,400 L465,652 L594,652 L464,0 L330,0 L246,341 L221,483 L217,483 Q199,301 188,243 L141,0"/> 
            <glyph glyph-name="O" unicode="&#x4F;" horiz-adv-x="576" d=" M251,-12 Q149,-12 89.5,59.5 Q30,131 30,254 Q30,425 122.5,544.5 Q215,664 357,664 Q458,664 517,593 Q576,522 576,398 Q576,227 484.5,107.5 Q393,-12 251,-12 M265,106 Q339,106 387.5,195 Q436,284 436,411 Q436,545 344,545 Q269,545 220,456.5 Q171,368 171,241 Q171,106 265,106"/> 
            <glyph glyph-name="P" unicode="&#x50;" horiz-adv-x="588" d=" M29,0 L159,652 L362,652 Q464,652 526,610 Q588,568 588,479 Q588,413 564.5,363 Q541,313 499,284 Q457,255 404,240.5 Q351,226 288,226 L212,226 L166,0 M233,335 L296,335 Q371,335 410.5,366.5 Q450,398 450,459 Q450,543 338,543 L274,543"/> 
            <glyph glyph-name="Q" unicode="&#x51;" horiz-adv-x="576" d=" M266,100 Q340,100 388,189.5 Q436,279 436,411 Q436,545 344,545 Q269,545 220,456.5 Q171,368 171,241 Q171,100 266,100 M407,-181 Q326,-181 267.5,-136 Q209,-91 180,-1 Q110,21 70,87.5 Q30,154 30,254 Q30,425 122.5,544.5 Q215,664 357,664 Q458,664 517,593 Q576,522 576,398 Q576,249 504.5,136 Q433,23 317,-4 Q345,-71 423,-71 Q460,-71 501,-58 L522,-162 Q480,-181 407,-181"/> 
            <glyph glyph-name="R" unicode="&#x52;" horiz-adv-x="572" d=" M15,0 L146,652 L345,652 Q449,652 510.5,610.5 Q572,569 572,479 Q572,395 525.5,339 Q479,283 404,258 L510,0 L358,0 L272,239 L200,239 L153,0 M222,348 L282,348 Q354,348 394,379.5 Q434,411 434,465 Q434,543 326,543 L260,543"/> 
            <glyph glyph-name="S" unicode="&#x53;" horiz-adv-x="557" d=" M267,-12 Q104,-12 24,115 L113,193 Q171,105 263,105 Q309,105 336.5,124.5 Q364,144 364,178 Q364,204 346.5,222 Q329,240 289,264 L228,300 Q119,367 119,474 Q119,559 182.5,611.5 Q246,664 341,664 Q408,664 465.5,633.5 Q523,603 557,555 L470,480 Q413,548 340,548 Q305,548 282.5,530.5 Q260,513 260,484 Q260,460 275.5,443 Q291,426 322,407 L392,362 Q447,327 475.5,288 Q504,249 504,188 Q504,94 437,41 Q370,-12 267,-12"/> 
            <glyph glyph-name="T" unicode="&#x54;" horiz-adv-x="633" d=" M169,0 L275,536 L78,536 L100,652 L633,652 L610,536 L413,536 L306,0"/> 
            <glyph glyph-name="U" unicode="&#x55;" horiz-adv-x="601" d=" M249,-12 Q153,-12 103,43.5 Q53,99 53,193 Q53,249 64,300 L134,652 L271,652 L198,285 Q186,218 186,204 Q186,106 267,106 Q315,106 344,141.5 Q373,177 391,269 L467,652 L601,652 L523,261 Q493,113 427,50.5 Q361,-12 249,-12"/> 
            <glyph glyph-name="V" unicode="&#x56;" horiz-adv-x="650" d=" M145,0 L88,652 L232,652 L249,331 Q255,193 256,122 L260,122 Q322,267 352,331 L499,652 L650,652 L311,0"/> 
            <glyph glyph-name="W" unicode="&#x57;" horiz-adv-x="657" d=" M25,0 L78,653 L208,653 L161,284 Q155,226 138,125 L142,125 Q175,219 203,285 L289,483 L376,483 L386,297 Q389,243 389,127 L394,127 Q410,204 431,286 L527,653 L657,653 L457,0 L305,0 L305,213 Q303,277 307,339 L304,339 Q286,279 262,213 L181,0"/> 
            <glyph glyph-name="X" unicode="&#x58;" horiz-adv-x="629" d=" M-31,0 L221,344 L102,653 L252,653 L295,522 Q300,508 310.5,469.5 Q321,431 326,415 L330,415 Q338,428 360.5,468.5 Q383,509 392,522 L481,653 L629,653 L386,322 L515,0 L366,0 L316,141 Q312,154 300.5,192 Q289,230 285,243 L281,243 Q230,159 217,140 L119,0"/> 
            <glyph glyph-name="Y" unicode="&#x59;" horiz-adv-x="645" d=" M169,0 L211,208 L88,653 L230,653 L268,481 Q284,404 301,322 L305,322 Q369,435 397,481 L501,653 L645,653 L345,194 L304,0"/> 
            <glyph glyph-name="Z" unicode="&#x5A;" horiz-adv-x="597" d=" M489,0 L8,0 L24,81 L395,539 L112,539 L136,653 L597,653 L581,571 L209,113 L512,113"/> 
            <glyph glyph-name="[" unicode="&#x5B;" horiz-adv-x="573" d=" M109,-152 L283,708 L573,708 L559,635 L370,635 L226,-79 L414,-79 L400,-152"/> 
            <glyph glyph-name="\" unicode="&#x5C;" horiz-adv-x="431" d=" M323,-160 L168,710 L276,710 L431,-160"/> 
            <glyph glyph-name="]" unicode="&#x5D;" horiz-adv-x="479" d=" M14,-152 L28,-79 L217,-79 L361,635 L174,635 L188,708 L479,708 L305,-152"/> 
            <glyph glyph-name="^" unicode="&#x5E;" horiz-adv-x="511" d=" M89,276 L244,670 L356,670 L511,276 L397,276 L348,411 L302,546 L298,546 L252,411 L203,276"/> 
            <glyph glyph-name="_" unicode="&#x5F;" horiz-adv-x="469" d=" M-32,-159 L-11,-56 L469,-56 L448,-159"/> 
            <glyph glyph-name="`" unicode="&#x60;" horiz-adv-x="471" d=" M387,569 L233,740 L350,827 L471,634"/> 
            <glyph glyph-name="a" unicode="&#x61;" horiz-adv-x="573" d=" M197,-12 Q122,-12 78.5,38.5 Q35,89 35,180 Q35,315 114.5,411.5 Q194,508 301,508 Q399,508 438,443 L442,443 L463,496 L573,496 L473,0 L362,0 L364,68 L360,68 Q285,-12 197,-12 M248,100 Q316,100 372,176 L408,349 Q381,396 325,396 Q264,396 220,338.5 Q176,281 176,197 Q176,100 248,100"/> 
            <glyph glyph-name="b" unicode="&#x62;" horiz-adv-x="554" d=" M287,-12 Q245,-12 208.5,5.5 Q172,23 152,53 L150,53 L129,0 L16,0 L156,701 L293,701 L261,542 L232,436 L234,436 Q308,508 390,508 Q468,508 511,457.5 Q554,407 554,314 Q554,180 474.5,84 Q395,-12 287,-12 M210,100 Q326,100 369,157 Q412,214 412,297 Q412,347 392,371.5 Q372,396 337,396 Q272,396 216,316 L182,146"/> 
            <glyph glyph-name="c" unicode="&#x63;" horiz-adv-x="554" d=" M298,-12 Q195,-12 127.5,44.5 Q60,101 60,205 Q60,338 149,423 Q238,508 363,508 Q425,508 474.5,482.5 Q524,457 554,418 L471,342 Q423,396 353,396 Q293,396 246,344 Q199,292 199,218 Q199,160 232.5,130 Q266,100 318,100 Q375,100 443,156 L491,63 Q411,-12 298,-12"/> 
            <glyph glyph-name="d" unicode="&#x64;" horiz-adv-x="614" d=" M196,-12 Q122,-12 78.5,38.5 Q35,89 35,180 Q35,315 114.5,411.5 Q194,508 301,508 Q391,508 433,448 L435,448 L447,542 L478,701 L614,701 L473,0 L362,0 L364,68 L360,68 Q285,-12 196,-12 M248,100 Q316,100 372,176 L408,349 Q380,396 325,396 Q264,396 220,338.5 Q176,281 176,197 Q176,100 248,100"/> 
            <glyph glyph-name="e" unicode="&#x65;" horiz-adv-x="536" d=" M267,-12 Q167,-12 106.5,44 Q46,100 46,208 Q46,339 131,423.5 Q216,508 334,508 Q429,508 482.5,454.5 Q536,401 536,313 Q536,255 519,210 L183,210 Q186,93 299,93 Q369,93 447,145 L493,54 Q400,-12 267,-12 M330,403 Q292,403 254,375.5 Q216,348 197,298 L409,298 Q410,304 410,316 Q410,358 388.5,380.5 Q367,403 330,403"/> 
            <glyph glyph-name="f" unicode="&#x66;" horiz-adv-x="640" d=" M144,0 L222,389 L88,389 L109,490 L244,496 L248,517 Q287,713 481,713 Q573,713 640,661 L579,575 Q540,604 487,604 Q401,604 383,516 L379,496 L552,496 L531,389 L358,389 L281,0"/> 
            <glyph glyph-name="g" unicode="&#x67;" horiz-adv-x="573" d=" M207,-196 Q87,-196 3,-131 L62,-36 Q124,-88 204,-88 Q318,-88 345,4 L366,79 L362,79 Q332,51 291,33 Q250,15 210,15 Q132,15 86.5,65 Q41,115 41,200 Q41,330 119.5,419 Q198,508 301,508 Q399,508 438,443 L442,443 L465,496 L573,496 L475,9 Q433,-196 207,-196 M258,127 Q319,127 374,187 L408,347 Q374,396 323,396 Q270,396 226.5,346.5 Q183,297 183,221 Q183,127 258,127"/> 
            <glyph glyph-name="h" unicode="&#x68;" horiz-adv-x="544" d=" M16,0 L156,701 L293,701 L251,495 L228,414 L232,414 Q321,508 416,508 Q478,508 511,475.5 Q544,443 544,381 Q544,346 536,306 L475,0 L338,0 L396,290 Q403,325 403,341 Q403,391 352,391 Q282,391 212,303 L153,0"/> 
            <glyph glyph-name="i" unicode="&#x69;" horiz-adv-x="490" d=" M342,-12 Q270,-12 227,26 Q184,64 184,130 Q184,153 194,190 L243,389 L80,389 L102,496 L402,496 L328,183 Q324,165 324,157 Q324,100 384,100 Q414,100 462,120 L490,17 Q421,-12 342,-12 M343,575 Q307,575 282,595.5 Q257,616 257,653 Q257,692 286,720 Q315,748 357,748 Q396,748 420,727.5 Q444,707 444,670 Q444,630 414.5,602.5 Q385,575 343,575"/> 
            <glyph glyph-name="j" unicode="&#x6A;" horiz-adv-x="521" d=" M138,-196 Q45,-196 -24,-149 L32,-53 Q81,-88 130,-88 Q180,-88 207.5,-58.5 Q235,-29 249,37 L320,389 L116,389 L138,496 L477,496 L383,26 Q361,-84 301.5,-140 Q242,-196 138,-196 M420,575 Q384,575 359,595.5 Q334,616 334,653 Q334,692 363,720 Q392,748 434,748 Q473,748 497,727.5 Q521,707 521,670 Q521,630 491.5,602.5 Q462,575 420,575"/> 
            <glyph glyph-name="k" unicode="&#x6B;" horiz-adv-x="609" d=" M21,0 L162,701 L298,701 L215,291 L219,291 L450,496 L609,496 L385,292 L524,0 L385,0 L290,209 L181,118 L158,0"/> 
            <glyph glyph-name="l" unicode="&#x6C;" horiz-adv-x="479" d=" M326,-12 Q258,-12 216,29.5 Q174,71 174,144 Q174,175 182,206 L269,594 L127,594 L150,701 L426,701 L314,190 Q310,170 310,153 Q310,100 368,100 Q404,100 450,121 L479,20 Q408,-12 326,-12"/> 
            <glyph glyph-name="m" unicode="&#x6D;" horiz-adv-x="587" d=" M-20,0 L78,496 L176,496 L174,432 L178,432 Q234,508 310,508 Q372,508 379,436 Q432,508 509,508 Q546,508 566.5,485 Q587,462 587,419 Q587,398 581,368 L506,0 L379,0 L449,342 Q452,354 452,366 Q452,392 431,392 Q401,392 368,340 L299,0 L189,0 L260,342 Q262,354 262,366 Q262,392 240,392 Q206,392 173,339 L108,0"/> 
            <glyph glyph-name="n" unicode="&#x6E;" horiz-adv-x="544" d=" M16,0 L113,496 L224,496 L218,411 L222,411 Q321,508 416,508 Q478,508 511,475.5 Q544,443 544,381 Q544,346 536,306 L475,0 L338,0 L396,290 Q403,325 403,341 Q403,391 352,391 Q282,391 212,303 L153,0"/> 
            <glyph glyph-name="o" unicode="&#x6F;" horiz-adv-x="543" d=" M254,-12 Q153,-12 94,48 Q35,108 35,209 Q35,339 121,423.5 Q207,508 323,508 Q425,508 484,448 Q543,388 543,287 Q543,157 457,72.5 Q371,-12 254,-12 M264,100 Q320,100 362,152.5 Q404,205 404,283 Q404,337 379.5,366.5 Q355,396 313,396 Q257,396 215,344 Q173,292 173,213 Q173,159 197.5,129.5 Q222,100 264,100"/> 
            <glyph glyph-name="p" unicode="&#x70;" horiz-adv-x="554" d=" M-22,-184 L115,496 L226,496 L225,426 L228,426 Q310,508 392,508 Q468,508 511,457 Q554,406 554,314 Q554,176 479.5,82 Q405,-12 287,-12 Q200,-12 157,47 L155,47 L141,-50 L115,-184 M273,100 Q331,100 371.5,156.5 Q412,213 412,297 Q412,347 392,371.5 Q372,396 337,396 Q274,396 218,316 L182,146 Q210,100 273,100"/> 
            <glyph glyph-name="q" unicode="&#x71;" horiz-adv-x="573" d=" M301,-184 L329,-47 Q344,20 364,68 L360,68 Q285,-12 196,-12 Q122,-12 78.5,38.5 Q35,89 35,180 Q35,315 114.5,411.5 Q194,508 301,508 Q399,508 438,443 L442,443 L465,496 L573,496 L436,-184 M248,100 Q316,100 372,176 L408,349 Q380,396 325,396 Q264,396 220,338.5 Q176,281 176,197 Q176,100 248,100"/> 
            <glyph glyph-name="r" unicode="&#x72;" horiz-adv-x="575" d=" M73,0 L171,497 L282,496 L268,364 L272,364 Q311,431 365.5,469.5 Q420,508 477,508 Q543,508 575,487 L526,369 Q493,386 450,386 Q401,386 349.5,341.5 Q298,297 254,219 L210,0"/> 
            <glyph glyph-name="s" unicode="&#x73;" horiz-adv-x="530" d=" M266,-12 Q127,-12 38,79 L114,165 Q188,90 288,90 Q363,90 363,132 Q363,153 343,165.5 Q323,178 265,196 Q187,222 149,258 Q111,294 111,349 Q111,424 171.5,466 Q232,508 320,508 Q445,508 530,427 L455,347 Q381,406 305,406 Q239,406 239,365 Q239,346 260,333.5 Q281,321 343,299 Q417,274 454.5,240.5 Q492,207 492,150 Q492,70 429.5,29 Q367,-12 266,-12"/> 
            <glyph glyph-name="t" unicode="&#x74;" horiz-adv-x="555" d=" M309,-12 Q223,-12 182,27.5 Q141,67 141,138 Q141,167 149,203 L187,389 L57,389 L77,490 L214,496 L265,648 L377,648 L345,496 L555,496 L535,389 L322,389 L284,208 Q279,186 279,170 Q279,100 351,100 Q403,100 461,135 L502,40 Q426,-12 309,-12"/> 
            <glyph glyph-name="u" unicode="&#x75;" horiz-adv-x="564" d=" M167,-12 Q105,-12 72,21 Q39,54 39,116 Q39,150 47,190 L108,496 L245,496 L187,206 Q179,166 179,156 Q179,105 231,105 Q296,105 368,194 L427,496 L564,496 L466,0 L355,0 L361,85 L357,85 Q260,-12 167,-12"/> 
            <glyph glyph-name="v" unicode="&#x76;" horiz-adv-x="602" d=" M162,0 L70,496 L205,496 L241,251 Q248,200 258,101 L262,101 Q299,179 338,252 L466,496 L602,496 L321,0"/> 
            <glyph glyph-name="w" unicode="&#x77;" horiz-adv-x="625" d=" M31,0 L47,496 L178,496 L161,255 Q160,238 157,209 Q154,180 152,155.5 Q150,131 149,109 L153,109 Q184,205 205,256 L276,435 L376,435 L378,256 Q378,176 374,109 L378,109 Q381,118 423,255 L499,496 L625,496 L447,0 L292,0 L296,181 Q297,207 300.5,256 Q304,305 305,322 L301,322 Q272,220 258,179 L192,0"/> 
            <glyph glyph-name="x" unicode="&#x78;" horiz-adv-x="583" d=" M-14,0 L211,257 L95,496 L232,496 L273,409 Q300,345 306,326 L310,326 Q328,357 364,409 L430,496 L583,496 L366,247 L494,0 L353,0 L310,89 Q290,131 274,168 L268,168 Q259,157 237.5,128 Q216,99 209,89 L139,0"/> 
            <glyph glyph-name="y" unicode="&#x79;" horiz-adv-x="604" d=" M44,-194 Q-11,-194 -48,-170 L-10,-77 Q20,-92 52,-92 Q126,-92 165,-27 L183,2 L70,496 L202,496 L243,280 Q255,208 265,124 L269,124 Q304,197 347,280 L465,496 L604,496 L307,-14 Q252,-108 190.5,-151 Q129,-194 44,-194"/> 
            <glyph glyph-name="z" unicode="&#x7A;" horiz-adv-x="553" d=" M23,0 L38,81 L356,391 L99,391 L122,496 L553,496 L538,416 L222,107 L490,107 L470,0"/> 
            <glyph glyph-name="{" unicode="&#x7B;" horiz-adv-x="580" d=" M288,-152 Q168,-152 168,-55 Q168,-15 194,67.5 Q220,150 220,169 Q220,200 194.5,218.5 Q169,237 96,238 L114,318 Q248,320 265,395 Q272,427 277.5,479 Q283,531 290,565 Q306,644 346,676 Q386,708 459,708 L580,708 L565,635 L488,635 Q414,635 398,560 Q393,534 384.5,480.5 Q376,427 370,397 Q359,341 334.5,313 Q310,285 266,276 L266,272 Q327,259 327,192 Q327,160 304,77 Q281,-6 281,-31 Q281,-79 347,-79 L422,-79 L407,-152"/> 
            <glyph glyph-name="|" unicode="&#x7C;" horiz-adv-x="360" d=" M240,-250 L240,750 L360,750 L360,-250"/> 
            <glyph glyph-name="}" unicode="&#x7D;" horiz-adv-x="497" d=" M13,-152 L29,-79 L105,-79 Q180,-79 195,-4 Q201,25 209.5,79.5 Q218,134 223,159 Q235,215 259.5,243 Q284,271 327,280 L328,284 Q266,297 266,364 Q266,396 289,479 Q312,562 312,587 Q312,635 246,635 L172,635 L186,708 L305,708 Q425,708 425,611 Q425,571 399.5,488.5 Q374,406 374,387 Q374,356 399.5,337.5 Q425,319 497,318 L480,238 Q345,236 328,161 Q322,130 316.5,78 Q311,26 304,-9 Q287,-88 247,-120 Q207,-152 134,-152"/> 
            <glyph glyph-name="~" unicode="&#x7E;" horiz-adv-x="545" d=" M385,243 Q350,243 318.5,262 Q287,281 261,300 Q235,319 213,319 Q167,319 138,238 L55,275 Q113,417 215,417 Q250,417 281.5,398 Q313,379 339,360 Q365,341 387,341 Q434,341 462,422 L545,384 Q487,243 385,243"/> 
            <glyph glyph-name="¡" unicode="&#xA1;" horiz-adv-x="409" d=" M332,239 L296,-43 L274,-176 L133,-176 L160,-43 L242,239 M331,506 Q365,506 387,483 Q409,460 409,424 Q409,378 378.5,345.5 Q348,313 301,313 Q267,313 245,336 Q223,359 223,395 Q223,442 253.5,474 Q284,506 331,506"/> 
            <glyph glyph-name="¢" unicode="&#xA2;" horiz-adv-x="546" d=" M218,272 Q218,196 273,174 L328,442 Q278,425 248,379 Q218,333 218,272 M227,-47 L248,56 Q173,67 128,121.5 Q83,176 83,260 Q83,385 158.5,465 Q234,545 352,559 L372,655 L447,655 L427,558 Q500,546 546,486 L470,409 Q437,442 405,449 L347,169 Q387,177 434,214 L483,129 Q416,68 324,56 L303,-47"/> 
            <glyph glyph-name="£" unicode="&#xA3;" horiz-adv-x="571" d=" M15,0 L32,84 Q99,112 138,161.5 Q177,211 179,275 L67,275 L83,351 L174,357 Q169,397 169,424 Q169,527 231,587 Q293,647 394,647 Q449,647 495.5,623.5 Q542,600 571,559 L484,487 Q447,537 394,537 Q295,537 295,405 Q295,397 296.5,378.5 Q298,360 298,357 L465,357 L449,275 L302,275 Q297,185 222,119 L220,115 L478,115 L457,0"/> 
            <glyph glyph-name="¤" unicode="&#xA4;" horiz-adv-x="603" d=" M74,69 L8,138 L101,217 Q84,251 84,295 Q84,378 142,442 L76,520 L161,591 L231,505 Q284,529 341,529 Q400,529 441,503 L541,587 L603,510 L505,431 Q518,402 518,363 Q518,278 459,214 L526,130 L443,61 L371,154 Q320,131 262,131 Q206,131 168,153 M281,227 Q328,227 362.5,262.5 Q397,298 397,353 Q397,391 376.5,413.5 Q356,436 323,436 Q276,436 241.5,399.5 Q207,363 207,309 Q207,271 227,249 Q247,227 281,227"/> 
            <glyph glyph-name="¥" unicode="&#xA5;" horiz-adv-x="632" d=" M173,0 L201,141 L31,141 L45,206 L213,206 L224,263 L55,263 L70,329 L211,329 L102,636 L239,636 L280,495 Q301,413 312,353 L315,353 Q358,436 395,495 L487,636 L632,636 L402,329 L547,329 L531,263 L360,263 L349,206 L523,206 L509,141 L337,141 L311,0"/> 
            <glyph glyph-name="¦" unicode="&#xA6;" horiz-adv-x="360" d=" M240,-250 L240,190 L360,190 L360,-250 M240,310 L240,750 L360,750 L360,310"/> 
            <glyph glyph-name="§" unicode="&#xA7;" horiz-adv-x="520" d=" M229,-74 Q112,-74 34,14 L103,94 Q166,27 229,27 Q261,27 278.5,40 Q296,53 296,76 Q296,83 293.5,90 Q291,97 285,103.5 Q279,110 273.5,115 Q268,120 257,127 Q246,134 239.5,138 Q233,142 218.5,150 Q204,158 198,162 Q142,194 113.5,229 Q85,264 85,319 Q85,367 113.5,404.5 Q142,442 189,465 Q173,494 173,528 Q173,598 222.5,644 Q272,690 350,690 Q446,690 520,606 L446,534 Q398,586 349,586 Q326,586 311.5,575 Q297,564 297,542 Q297,528 307.5,515 Q318,502 328.5,495 Q339,488 369,469 Q378,463 383,460 Q445,422 478.5,385 Q512,348 512,291 Q512,190 410,138 Q419,117 419,91 Q419,16 366.5,-29 Q314,-74 229,-74 M279,252 Q330,223 352,206 Q393,228 393,272 Q393,300 372.5,320.5 Q352,341 312,364 Q256,399 248,404 Q202,381 202,339 Q202,314 219.5,296 Q237,278 279,252"/> 
            <glyph glyph-name="¨" unicode="&#xA8;" horiz-adv-x="540" d=" M253,572 Q227,572 210.5,588 Q194,604 194,632 Q194,663 216,685.5 Q238,708 270,708 Q296,708 313,691.5 Q330,675 330,648 Q330,616 308,594 Q286,572 253,572 M464,572 Q438,572 421,588 Q404,604 404,632 Q404,663 426,685.5 Q448,708 480,708 Q506,708 523,691.5 Q540,675 540,648 Q540,616 518,594 Q496,572 464,572"/> 
            <glyph glyph-name="©" unicode="&#xA9;" horiz-adv-x="590" d=" M234,-9 Q136,-9 76,61.5 Q16,132 16,252 Q16,431 118.5,544 Q221,657 371,655 Q470,654 530,585 Q590,516 590,397 Q590,216 490.5,103.5 Q391,-9 234,-9 M246,48 Q365,48 446.5,146.5 Q528,245 528,391 Q528,486 483,542 Q438,598 358,598 Q239,598 158.5,501.5 Q78,405 78,258 Q78,160 122.5,104 Q167,48 246,48 M279,128 Q217,128 181,169 Q145,210 145,280 Q145,385 207,450.5 Q269,516 355,516 Q424,516 463,457 L403,405 Q384,435 352,435 Q306,435 275.5,391.5 Q245,348 245,285 Q245,213 299,211 Q331,210 370,240 L406,176 Q351,128 279,128"/> 
            <glyph glyph-name="ª" unicode="&#xAA;" horiz-adv-x="527" d=" M269,367 Q223,367 196,399.5 Q169,432 169,496 Q169,592 223.5,651.5 Q278,711 354,711 Q404,711 435,670 L438,670 L453,703 L527,703 L463,375 L384,375 L383,411 L381,411 Q326,367 269,367 M319,445 Q353,445 387,476 L412,610 Q390,632 358,632 Q323,632 296,598 Q269,564 269,508 Q269,445 319,445"/> 
            <glyph glyph-name="«" unicode="&#xAB;" horiz-adv-x="577" d=" M174,29 L41,201 L61,311 L262,474 L311,419 L165,245 L243,80 M440,29 L307,201 L327,311 L528,474 L577,419 L431,245 L509,80"/> 
            <glyph glyph-name="¬" unicode="&#xAC;" horiz-adv-x="527" d=" M427,96 L427,282 L73,282 L73,378 L527,378 L527,96"/> 
            <glyph glyph-name="­" unicode="&#xAD;" horiz-adv-x="527" d=" M73,282 L73,378 L527,378 L527,282"/> 
            <glyph glyph-name="®" unicode="&#xAE;" horiz-adv-x="549" d=" M308,313 Q237,313 192,359 Q147,405 147,478 Q147,580 215.5,647.5 Q284,715 388,715 Q459,715 504,668.5 Q549,622 549,549 Q549,447 481.5,380 Q414,313 308,313 M317,358 Q393,358 444.5,411 Q496,464 496,545 Q496,602 464,636.5 Q432,671 379,671 Q304,671 251.5,617 Q199,563 199,482 Q199,426 231,392 Q263,358 317,358 M357,574 L335,574 L324,516 L345,516 Q363,516 374,526 Q385,536 385,550 Q385,574 357,574 M249,416 L289,614 L375,614 Q444,614 444,557 Q444,506 391,487 L423,416 L366,416 L339,478 L316,478 L304,416"/> 
            <glyph glyph-name="¯" unicode="&#xAF;" horiz-adv-x="516" d=" M216,593 L233,680 L516,680 L499,593"/> 
            <glyph glyph-name="°" unicode="&#xB0;" horiz-adv-x="489" d=" M317,404 Q266,404 233.5,436.5 Q201,469 201,520 Q201,593 250,639.5 Q299,686 371,686 Q426,686 457.5,654 Q489,622 489,570 Q489,497 440,450.5 Q391,404 317,404 M330,468 Q366,468 391,495 Q416,522 416,561 Q416,590 401.5,607 Q387,624 361,624 Q325,624 299.5,596 Q274,568 274,530 Q274,502 289,485 Q304,468 330,468"/> 
            <glyph glyph-name="±" unicode="&#xB1;" horiz-adv-x="527" d=" M250,154 L250,296 L73,296 L73,393 L250,393 L250,564 L350,564 L350,393 L527,393 L527,296 L350,296 L350,154 M73,0 L73,98 L527,98 L527,0"/> 
            <glyph glyph-name="²" unicode="&#xB2;" horiz-adv-x="499" d=" M179,376 L190,431 Q296,501 347,552.5 Q398,604 398,646 Q398,691 350,691 Q327,691 289,655 L233,714 Q270,747 300,762.5 Q330,778 369,778 Q429,778 464,747.5 Q499,717 499,665 Q499,614 463.5,567 Q428,520 355,460 L473,460 L456,376"/> 
            <glyph glyph-name="³" unicode="&#xB3;" horiz-adv-x="504" d=" M330,364 Q232,364 183,444 L248,490 Q277,444 322,444 Q351,444 368,457 Q385,470 385,492 Q385,518 366,531 Q347,544 299,544 L311,605 Q404,605 404,663 Q404,679 392.5,689 Q381,699 361,699 Q329,699 295,674 L253,740 Q314,778 384,778 Q437,778 470.5,751 Q504,724 504,680 Q504,603 424,574 Q482,544 482,488 Q482,431 438.5,397.5 Q395,364 330,364"/> 
            <glyph glyph-name="´" unicode="&#xB4;" horiz-adv-x="541" d=" M334,578 L274,656 L459,822 L541,718"/> 
            <glyph glyph-name="µ" unicode="&#xB5;" horiz-adv-x="563" d=" M-32,-195 L108,496 L245,496 L184,207 Q172,152 185,127.5 Q198,103 236,103 Q299,103 365,187 L427,496 L563,496 Q482,152 482,126 Q482,97 508,97 Q518,97 527,99 L523,-1 Q492,-12 452,-12 Q363,-12 360,85 L356,85 Q289,-8 207,-8 Q155,-8 139,23 Q114,-107 105,-195"/> 
            <glyph glyph-name="¶" unicode="&#xB6;" horiz-adv-x="583" d=" M284,200 Q192,200 129.5,249 Q67,298 67,383 Q67,473 109.5,535.5 Q152,598 216.5,625 Q281,652 361,652 L395,652 L304,200 M302,-80 L446,652 L583,652 L438,-80"/> 
            <glyph glyph-name="·" unicode="&#xB7;" horiz-adv-x="376" d=" M251,236 Q211,236 186.5,263 Q162,290 162,331 Q162,384 197,421.5 Q232,459 286,459 Q326,459 351,432 Q376,405 376,363 Q376,310 340.5,273 Q305,236 251,236"/> 
            <glyph glyph-name="¸" unicode="&#xB8;" horiz-adv-x="314" d=" M94,-239 L94,-180 Q151,-178 176,-167.5 Q201,-157 205,-135 Q206,-119 191,-109.5 Q176,-100 135,-94 L206,11 L292,11 L246,-61 Q284,-70 299,-87 Q314,-104 310,-134 Q294,-233 94,-239"/> 
            <glyph glyph-name="¹" unicode="&#xB9;" horiz-adv-x="520" d=" M175,376 L192,460 L309,460 L350,660 L243,660 L255,723 Q334,731 392,766 L470,766 L410,460 L520,460 L502,376"/> 
            <glyph glyph-name="º" unicode="&#xBA;" horiz-adv-x="513" d=" M313,367 Q252,367 213,403.5 Q174,440 174,506 Q174,603 233,657 Q292,711 375,711 Q436,711 474.5,674 Q513,637 513,572 Q513,475 455,421 Q397,367 313,367 M325,446 Q367,446 390.5,483.5 Q414,521 414,570 Q414,634 364,634 Q323,634 297.5,596 Q272,558 272,510 Q272,446 325,446"/> 
            <glyph glyph-name="»" unicode="&#xBB;" horiz-adv-x="538" d=" M51,29 L3,84 L149,259 L71,424 L140,474 L272,302 L253,192 M317,29 L269,84 L415,259 L337,424 L406,474 L538,302 L519,192"/> 
            <glyph glyph-name="¼" unicode="&#xBC;" horiz-adv-x="602" d=" M68,324 L111,540 L31,540 L43,600 Q102,608 151,636 L229,636 L168,324 M5,22 L-51,90 L170,266 L209,222 M382,373 L344,417 L546,617 L602,549 M386,0 L399,63 L234,63 L244,110 L401,323 L462,288 L336,124 L411,124 L425,193 L508,193 L494,124 L545,124 L533,63 L482,63 L470,0"/> 
            <glyph glyph-name="½" unicode="&#xBD;" horiz-adv-x="602" d=" M68,324 L111,540 L31,540 L43,600 Q102,608 151,636 L229,636 L168,324 M5,22 L-51,90 L170,266 L209,222 M382,373 L344,417 L546,617 L602,549 M260,0 L270,53 Q329,93 358.5,114.5 Q388,136 413.5,164 Q439,192 439,213 Q439,244 408,244 Q373,244 337,206 L289,259 Q347,323 435,323 Q482,323 510,299.5 Q538,276 538,232 Q538,189 507.5,152.5 Q477,116 421,76 L541,76 L525,0"/> 
            <glyph glyph-name="¾" unicode="&#xBE;" horiz-adv-x="602" d=" M107,312 Q32,312 -20,366 L26,420 Q60,381 104,381 Q155,381 155,418 Q155,455 83,455 L93,506 Q166,506 166,547 Q166,573 130,573 Q98,573 64,546 L27,599 Q84,647 161,647 Q206,647 234.5,626.5 Q263,606 263,570 Q263,537 241.5,515 Q220,493 185,485 Q249,469 249,413 Q249,366 208,339 Q167,312 107,312 M5,22 L-51,90 L170,266 L209,222 M382,373 L344,417 L546,617 L602,549 M386,0 L399,63 L234,63 L244,110 L401,323 L462,288 L336,124 L411,124 L425,193 L508,193 L494,124 L545,124 L533,63 L482,63 L470,0"/> 
            <glyph glyph-name="¿" unicode="&#xBF;" horiz-adv-x="424" d=" M364,240 Q362,177 330.5,136.5 Q299,96 247,59 Q210,33 193.5,14.5 Q177,-4 177,-28 Q177,-77 232,-77 Q285,-77 342,-20 L413,-87 Q332,-187 207,-187 Q133,-187 86.5,-153.5 Q40,-120 40,-57 Q40,-30 48,-6.5 Q56,17 64.5,31.5 Q73,46 95,66.5 Q117,87 127.5,95 Q138,103 169,125 Q196,145 209.5,157.5 Q223,170 235.5,191 Q248,212 251,240 M346,507 Q380,507 402,484 Q424,461 424,425 Q424,378 393.5,346 Q363,314 316,314 Q282,314 260,337 Q238,360 238,396 Q238,442 268.5,474.5 Q299,507 346,507"/> 
            <glyph glyph-name="À" unicode="&#xC0;" horiz-adv-x="523" d=" M266,354 L227,267 L366,267 L362,353 Q361,371 353,547 L349,547 Q337,520 309.5,455 Q282,390 266,354 M-43,0 L292,652 L455,652 L523,0 L379,0 L371,164 L181,164 L108,0 M399,676 L235,810 L329,897 L476,743"/> 
            <glyph glyph-name="Á" unicode="&#xC1;" horiz-adv-x="543" d=" M266,354 L227,267 L366,267 L362,353 Q361,371 353,547 L349,547 Q337,520 309.5,455 Q282,390 266,354 M-43,0 L292,652 L455,652 L523,0 L379,0 L371,164 L181,164 L108,0 M339,686 L287,765 L482,889 L543,788"/> 
            <glyph glyph-name="Â" unicode="&#xC2;" horiz-adv-x="560" d=" M266,354 L227,267 L366,267 L362,353 Q361,371 353,547 L349,547 Q337,520 309.5,455 Q282,390 266,354 M-43,0 L292,652 L455,652 L523,0 L379,0 L371,164 L181,164 L108,0 M254,685 L198,729 L320,853 L480,853 L560,724 L493,686 L395,777 L391,777"/> 
            <glyph glyph-name="Ã" unicode="&#xC3;" horiz-adv-x="601" d=" M266,354 L227,267 L366,267 L362,353 Q361,371 353,547 L349,547 Q337,520 309.5,455 Q282,390 266,354 M-43,0 L292,652 L455,652 L523,0 L379,0 L371,164 L181,164 L108,0 M450,692 Q420,692 395,706.5 Q370,721 352.5,735.5 Q335,750 322,750 Q290,750 277,701 L184,708 Q201,781 241,816.5 Q281,852 335,852 Q365,852 390,837.5 Q415,823 432.5,808.5 Q450,794 462,794 Q493,794 508,843 L601,836 Q584,763 544,727.5 Q504,692 450,692"/> 
            <glyph glyph-name="Ä" unicode="&#xC4;" horiz-adv-x="563" d=" M266,354 L227,267 L366,267 L362,353 Q361,371 353,547 L349,547 Q337,520 309.5,455 Q282,390 266,354 M-43,0 L292,652 L455,652 L523,0 L379,0 L371,164 L181,164 L108,0 M279,701 Q254,701 238,717 Q222,733 222,759 Q222,787 243.5,810.5 Q265,834 295,834 Q319,834 335.5,818.5 Q352,803 352,777 Q352,748 331,724.5 Q310,701 279,701 M490,701 Q465,701 448.5,717 Q432,733 432,759 Q432,787 453.5,810.5 Q475,834 506,834 Q530,834 546.5,818.5 Q563,803 563,777 Q563,748 541.5,724.5 Q520,701 490,701"/> 
            <glyph glyph-name="Å" unicode="&#xC5;" horiz-adv-x="523" d=" M266,354 L227,267 L366,267 L362,353 Q361,371 353,547 L349,547 Q337,520 309.5,455 Q282,390 266,354 M-43,0 L292,652 L455,652 L523,0 L379,0 L371,164 L181,164 L108,0 M389,697 Q343,697 313,718.5 Q283,740 283,783 Q283,827 319,859.5 Q355,892 406,892 Q451,892 482,870 Q513,848 513,807 Q513,761 477,729 Q441,697 389,697 M391,750 Q410,750 424.5,765.5 Q439,781 439,802 Q439,818 430,828.5 Q421,839 404,839 Q384,839 370,823.5 Q356,808 356,788 Q356,772 365.5,761 Q375,750 391,750"/> 
            <glyph glyph-name="Æ" unicode="&#xC6;" horiz-adv-x="647" d=" M257,360 L207,262 L300,262 L358,550 L354,550 Q319,480 257,360 M-65,0 L287,652 L647,652 L625,537 L475,537 L447,395 L567,395 L545,281 L424,281 L390,115 L549,115 L527,0 L248,0 L280,159 L155,159 L75,0"/> 
            <glyph glyph-name="Ç" unicode="&#xC7;" horiz-adv-x="589" d=" M151,-239 L151,-180 Q208,-178 233,-167.5 Q258,-157 262,-135 Q263,-119 248,-109.5 Q233,-100 192,-94 L252,-5 Q166,15 117.5,84 Q69,153 69,261 Q69,430 169.5,547 Q270,664 416,664 Q531,664 589,560 L496,488 Q460,545 409,545 Q327,545 268.5,462.5 Q210,380 210,270 Q210,106 346,106 Q399,106 456,156 L514,68 Q435,-5 335,-11 L303,-61 Q341,-70 356,-87 Q371,-104 367,-134 Q351,-233 151,-239"/> 
            <glyph glyph-name="È" unicode="&#xC8;" horiz-adv-x="594" d=" M38,0 L169,652 L594,652 L572,537 L282,537 L254,395 L496,395 L474,280 L232,280 L198,115 L496,115 L474,0 M420,676 L256,810 L350,897 L497,743"/> 
            <glyph glyph-name="É" unicode="&#xC9;" horiz-adv-x="594" d=" M38,0 L169,652 L594,652 L572,537 L282,537 L254,395 L496,395 L474,280 L232,280 L198,115 L496,115 L474,0 M360,686 L308,765 L503,889 L564,788"/> 
            <glyph glyph-name="Ê" unicode="&#xCA;" horiz-adv-x="594" d=" M38,0 L169,652 L594,652 L572,537 L282,537 L254,395 L496,395 L474,280 L232,280 L198,115 L496,115 L474,0 M275,685 L219,729 L341,853 L501,853 L581,724 L514,686 L416,777 L412,777"/> 
            <glyph glyph-name="Ë" unicode="&#xCB;" horiz-adv-x="594" d=" M38,0 L169,652 L594,652 L572,537 L282,537 L254,395 L496,395 L474,280 L232,280 L198,115 L496,115 L474,0 M300,701 Q275,701 259,717 Q243,733 243,759 Q243,787 264.5,810.5 Q286,834 316,834 Q340,834 356.5,818.5 Q373,803 373,777 Q373,748 352,724.5 Q331,701 300,701 M511,701 Q486,701 469.5,717 Q453,733 453,759 Q453,787 474.5,810.5 Q496,834 527,834 Q551,834 567.5,818.5 Q584,803 584,777 Q584,748 562.5,724.5 Q541,701 511,701"/> 
            <glyph glyph-name="Ì" unicode="&#xCC;" horiz-adv-x="591" d=" M15,0 L40,115 L191,115 L277,537 L123,537 L147,652 L591,652 L567,537 L414,537 L329,115 L483,115 L459,0 M399,676 L235,810 L329,897 L476,743"/> 
            <glyph glyph-name="Í" unicode="&#xCD;" horiz-adv-x="591" d=" M15,0 L40,115 L191,115 L277,537 L123,537 L147,652 L591,652 L567,537 L414,537 L329,115 L483,115 L459,0 M339,686 L287,765 L482,889 L543,788"/> 
            <glyph glyph-name="Î" unicode="&#xCE;" horiz-adv-x="591" d=" M15,0 L40,115 L191,115 L277,537 L123,537 L147,652 L591,652 L567,537 L414,537 L329,115 L483,115 L459,0 M254,685 L198,729 L320,853 L480,853 L560,724 L493,686 L395,777 L391,777"/> 
            <glyph glyph-name="Ï" unicode="&#xCF;" horiz-adv-x="591" d=" M15,0 L40,115 L191,115 L277,537 L123,537 L147,652 L591,652 L567,537 L414,537 L329,115 L483,115 L459,0 M279,701 Q254,701 238,717 Q222,733 222,759 Q222,787 243.5,810.5 Q265,834 295,834 Q319,834 335.5,818.5 Q352,803 352,777 Q352,748 331,724.5 Q310,701 279,701 M490,701 Q465,701 448.5,717 Q432,733 432,759 Q432,787 453.5,810.5 Q475,834 506,834 Q530,834 546.5,818.5 Q563,803 563,777 Q563,748 541.5,724.5 Q520,701 490,701"/> 
            <glyph glyph-name="Ð" unicode="&#xD0;" horiz-adv-x="569" d=" M16,0 L77,304 L5,304 L19,369 L91,374 L146,652 L292,652 Q425,652 497,587.5 Q569,523 569,396 Q569,208 472.5,104 Q376,0 220,0 M175,110 L217,110 Q311,110 369.5,179.5 Q428,249 428,387 Q428,466 391,504 Q354,542 289,542 L261,542 L228,374 L343,374 L327,304 L214,304"/> 
            <glyph glyph-name="Ñ" unicode="&#xD1;" horiz-adv-x="594" d=" M11,0 L142,652 L279,652 L357,310 L383,169 L387,169 Q401,332 415,400 L465,652 L594,652 L464,0 L330,0 L246,341 L221,483 L217,483 Q199,301 188,243 L141,0 M443,692 Q413,692 388,706.5 Q363,721 345.5,735.5 Q328,750 315,750 Q283,750 270,701 L177,708 Q194,781 234,816.5 Q274,852 328,852 Q358,852 383,837.5 Q408,823 425.5,808.5 Q443,794 455,794 Q486,794 501,843 L594,836 Q577,763 537,727.5 Q497,692 443,692"/> 
            <glyph glyph-name="Ò" unicode="&#xD2;" horiz-adv-x="576" d=" M251,-12 Q149,-12 89.5,59.5 Q30,131 30,254 Q30,425 122.5,544.5 Q215,664 357,664 Q458,664 517,593 Q576,522 576,398 Q576,227 484.5,107.5 Q393,-12 251,-12 M265,106 Q339,106 387.5,195 Q436,284 436,411 Q436,545 344,545 Q269,545 220,456.5 Q171,368 171,241 Q171,106 265,106 M399,676 L235,810 L329,897 L476,743"/> 
            <glyph glyph-name="Ó" unicode="&#xD3;" horiz-adv-x="576" d=" M251,-12 Q149,-12 89.5,59.5 Q30,131 30,254 Q30,425 122.5,544.5 Q215,664 357,664 Q458,664 517,593 Q576,522 576,398 Q576,227 484.5,107.5 Q393,-12 251,-12 M265,106 Q339,106 387.5,195 Q436,284 436,411 Q436,545 344,545 Q269,545 220,456.5 Q171,368 171,241 Q171,106 265,106 M339,686 L287,765 L482,889 L543,788"/> 
            <glyph glyph-name="Ô" unicode="&#xD4;" horiz-adv-x="576" d=" M251,-12 Q149,-12 89.5,59.5 Q30,131 30,254 Q30,425 122.5,544.5 Q215,664 357,664 Q458,664 517,593 Q576,522 576,398 Q576,227 484.5,107.5 Q393,-12 251,-12 M265,106 Q339,106 387.5,195 Q436,284 436,411 Q436,545 344,545 Q269,545 220,456.5 Q171,368 171,241 Q171,106 265,106 M254,685 L198,729 L320,853 L480,853 L560,724 L493,686 L395,777 L391,777"/> 
            <glyph glyph-name="Õ" unicode="&#xD5;" horiz-adv-x="601" d=" M251,-12 Q149,-12 89.5,59.5 Q30,131 30,254 Q30,425 122.5,544.5 Q215,664 357,664 Q458,664 517,593 Q576,522 576,398 Q576,227 484.5,107.5 Q393,-12 251,-12 M265,106 Q339,106 387.5,195 Q436,284 436,411 Q436,545 344,545 Q269,545 220,456.5 Q171,368 171,241 Q171,106 265,106 M450,692 Q420,692 395,706.5 Q370,721 352.5,735.5 Q335,750 322,750 Q290,750 277,701 L184,708 Q201,781 241,816.5 Q281,852 335,852 Q365,852 390,837.5 Q415,823 432.5,808.5 Q450,794 462,794 Q493,794 508,843 L601,836 Q584,763 544,727.5 Q504,692 450,692"/> 
            <glyph glyph-name="Ö" unicode="&#xD6;" horiz-adv-x="576" d=" M251,-12 Q149,-12 89.5,59.5 Q30,131 30,254 Q30,425 122.5,544.5 Q215,664 357,664 Q458,664 517,593 Q576,522 576,398 Q576,227 484.5,107.5 Q393,-12 251,-12 M265,106 Q339,106 387.5,195 Q436,284 436,411 Q436,545 344,545 Q269,545 220,456.5 Q171,368 171,241 Q171,106 265,106 M279,701 Q254,701 238,717 Q222,733 222,759 Q222,787 243.5,810.5 Q265,834 295,834 Q319,834 335.5,818.5 Q352,803 352,777 Q352,748 331,724.5 Q310,701 279,701 M490,701 Q465,701 448.5,717 Q432,733 432,759 Q432,787 453.5,810.5 Q475,834 506,834 Q530,834 546.5,818.5 Q563,803 563,777 Q563,748 541.5,724.5 Q520,701 490,701"/> 
            <glyph glyph-name="×" unicode="&#xD7;" horiz-adv-x="513" d=" M156,114 L87,184 L231,329 L87,475 L156,545 L300,398 L444,545 L513,475 L369,329 L513,184 L444,114 L300,260"/> 
            <glyph glyph-name="Ø" unicode="&#xD8;" horiz-adv-x="633" d=" M251,-12 Q166,-12 110,38 L41,-41 L-24,9 L60,106 Q30,166 30,253 Q30,425 122.5,544.5 Q215,664 357,664 Q442,664 498,613 L567,693 L633,643 L547,544 Q576,483 576,398 Q576,227 484.5,107.5 Q393,-12 251,-12 M166,263 Q166,240 167,230 L412,514 Q389,545 344,545 Q270,545 218,458.5 Q166,372 166,263 M265,106 Q314,106 355,147.5 Q396,189 418.5,253.5 Q441,318 441,389 Q441,411 440,420 L195,137 Q220,106 265,106"/> 
            <glyph glyph-name="Ù" unicode="&#xD9;" horiz-adv-x="601" d=" M249,-12 Q153,-12 103,43.5 Q53,99 53,193 Q53,249 64,300 L134,652 L271,652 L198,285 Q186,218 186,204 Q186,106 267,106 Q315,106 344,141.5 Q373,177 391,269 L467,652 L601,652 L523,261 Q493,113 427,50.5 Q361,-12 249,-12 M399,676 L235,810 L329,897 L476,743"/> 
            <glyph glyph-name="Ú" unicode="&#xDA;" horiz-adv-x="601" d=" M249,-12 Q153,-12 103,43.5 Q53,99 53,193 Q53,249 64,300 L134,652 L271,652 L198,285 Q186,218 186,204 Q186,106 267,106 Q315,106 344,141.5 Q373,177 391,269 L467,652 L601,652 L523,261 Q493,113 427,50.5 Q361,-12 249,-12 M339,686 L287,765 L482,889 L543,788"/> 
            <glyph glyph-name="Û" unicode="&#xDB;" horiz-adv-x="601" d=" M249,-12 Q153,-12 103,43.5 Q53,99 53,193 Q53,249 64,300 L134,652 L271,652 L198,285 Q186,218 186,204 Q186,106 267,106 Q315,106 344,141.5 Q373,177 391,269 L467,652 L601,652 L523,261 Q493,113 427,50.5 Q361,-12 249,-12 M254,685 L198,729 L320,853 L480,853 L560,724 L493,686 L395,777 L391,777"/> 
            <glyph glyph-name="Ü" unicode="&#xDC;" horiz-adv-x="601" d=" M249,-12 Q153,-12 103,43.5 Q53,99 53,193 Q53,249 64,300 L134,652 L271,652 L198,285 Q186,218 186,204 Q186,106 267,106 Q315,106 344,141.5 Q373,177 391,269 L467,652 L601,652 L523,261 Q493,113 427,50.5 Q361,-12 249,-12 M279,701 Q254,701 238,717 Q222,733 222,759 Q222,787 243.5,810.5 Q265,834 295,834 Q319,834 335.5,818.5 Q352,803 352,777 Q352,748 331,724.5 Q310,701 279,701 M490,701 Q465,701 448.5,717 Q432,733 432,759 Q432,787 453.5,810.5 Q475,834 506,834 Q530,834 546.5,818.5 Q563,803 563,777 Q563,748 541.5,724.5 Q520,701 490,701"/> 
            <glyph glyph-name="Ý" unicode="&#xDD;" horiz-adv-x="645" d=" M169,0 L211,208 L88,653 L230,653 L268,481 Q284,404 301,322 L305,322 Q369,435 397,481 L501,653 L645,653 L345,194 L304,0 M328,686 L276,765 L471,889 L532,788"/> 
            <glyph glyph-name="Þ" unicode="&#xDE;" horiz-adv-x="564" d=" M18,0 L148,652 L286,652 L265,551 L355,551 Q450,551 507,509 Q564,467 564,378 Q564,291 521.5,232.5 Q479,174 413,150 Q347,126 261,126 L179,126 L155,0 M202,234 L275,234 Q349,234 388.5,265.5 Q428,297 428,358 Q428,442 326,442 L242,442"/> 
            <glyph glyph-name="ß" unicode="&#xDF;" horiz-adv-x="544" d=" M354,-12 Q267,-12 205,36 L261,128 Q306,90 350,90 Q379,90 398,106 Q417,122 417,148 Q417,170 397,192 Q377,214 352.5,231 Q328,248 308,276.5 Q288,305 288,339 Q288,370 304.5,398 Q321,426 341,444 Q361,462 377.5,489 Q394,516 394,545 Q394,604 341,604 Q262,604 237,477 L143,0 L6,0 L107,504 Q126,598 188,655.5 Q250,713 347,713 Q424,713 475,675 Q526,637 526,563 Q526,525 510,493.5 Q494,462 474,444.5 Q454,427 438,405.5 Q422,384 422,365 Q422,347 441,326 Q460,305 483,286.5 Q506,268 525,235 Q544,202 544,162 Q544,87 491.5,37.5 Q439,-12 354,-12"/> 
            <glyph glyph-name="à" unicode="&#xE0;" horiz-adv-x="573" d=" M197,-12 Q122,-12 78.5,38.5 Q35,89 35,180 Q35,315 114.5,411.5 Q194,508 301,508 Q399,508 438,443 L442,443 L463,496 L573,496 L473,0 L362,0 L364,68 L360,68 Q285,-12 197,-12 M248,100 Q316,100 372,176 L408,349 Q381,396 325,396 Q264,396 220,338.5 Q176,281 176,197 Q176,100 248,100 M395,569 L241,740 L358,827 L479,634"/> 
            <glyph glyph-name="á" unicode="&#xE1;" horiz-adv-x="573" d=" M197,-12 Q122,-12 78.5,38.5 Q35,89 35,180 Q35,315 114.5,411.5 Q194,508 301,508 Q399,508 438,443 L442,443 L463,496 L573,496 L473,0 L362,0 L364,68 L360,68 Q285,-12 197,-12 M248,100 Q316,100 372,176 L408,349 Q381,396 325,396 Q264,396 220,338.5 Q176,281 176,197 Q176,100 248,100 M342,578 L282,656 L467,822 L549,718"/> 
            <glyph glyph-name="â" unicode="&#xE2;" horiz-adv-x="573" d=" M197,-12 Q122,-12 78.5,38.5 Q35,89 35,180 Q35,315 114.5,411.5 Q194,508 301,508 Q399,508 438,443 L442,443 L463,496 L573,496 L473,0 L362,0 L364,68 L360,68 Q285,-12 197,-12 M248,100 Q316,100 372,176 L408,349 Q381,396 325,396 Q264,396 220,338.5 Q176,281 176,197 Q176,100 248,100 M229,561 L181,616 L312,744 L462,744 L547,613 L486,561 L380,657 L376,657"/> 
            <glyph glyph-name="ã" unicode="&#xE3;" horiz-adv-x="579" d=" M197,-12 Q122,-12 78.5,38.5 Q35,89 35,180 Q35,315 114.5,411.5 Q194,508 301,508 Q399,508 438,443 L442,443 L463,496 L573,496 L473,0 L362,0 L364,68 L360,68 Q285,-12 197,-12 M248,100 Q316,100 372,176 L408,349 Q381,396 325,396 Q264,396 220,338.5 Q176,281 176,197 Q176,100 248,100 M438,573 Q410,573 387.5,589.5 Q365,606 347,622 Q329,638 312,638 Q278,638 268,582 L178,587 Q203,739 320,739 Q348,739 370.5,723 Q393,707 410.5,691 Q428,675 445,675 Q479,675 489,730 L579,725 Q567,649 530,611 Q493,573 438,573"/> 
            <glyph glyph-name="ä" unicode="&#xE4;" horiz-adv-x="573" d=" M197,-12 Q122,-12 78.5,38.5 Q35,89 35,180 Q35,315 114.5,411.5 Q194,508 301,508 Q399,508 438,443 L442,443 L463,496 L573,496 L473,0 L362,0 L364,68 L360,68 Q285,-12 197,-12 M248,100 Q316,100 372,176 L408,349 Q381,396 325,396 Q264,396 220,338.5 Q176,281 176,197 Q176,100 248,100 M261,572 Q235,572 218.5,588 Q202,604 202,632 Q202,663 224,685.5 Q246,708 278,708 Q304,708 321,691.5 Q338,675 338,648 Q338,616 316,594 Q294,572 261,572 M472,572 Q446,572 429,588 Q412,604 412,632 Q412,663 434,685.5 Q456,708 488,708 Q514,708 531,691.5 Q548,675 548,648 Q548,616 526,594 Q504,572 472,572"/> 
            <glyph glyph-name="å" unicode="&#xE5;" horiz-adv-x="573" d=" M197,-12 Q122,-12 78.5,38.5 Q35,89 35,180 Q35,315 114.5,411.5 Q194,508 301,508 Q399,508 438,443 L442,443 L463,496 L573,496 L473,0 L362,0 L364,68 L360,68 Q285,-12 197,-12 M248,100 Q316,100 372,176 L408,349 Q381,396 325,396 Q264,396 220,338.5 Q176,281 176,197 Q176,100 248,100 M364,566 Q313,566 281.5,590 Q250,614 250,655 Q250,704 290.5,737 Q331,770 394,770 Q445,770 476.5,746 Q508,722 508,681 Q508,632 467.5,599 Q427,566 364,566 M373,619 Q393,619 407.5,636.5 Q422,654 422,677 Q422,694 412.5,705.5 Q403,717 385,717 Q365,717 350.5,699.5 Q336,682 336,659 Q336,619 373,619"/> 
            <glyph glyph-name="æ" unicode="&#xE6;" horiz-adv-x="596" d=" M101,-12 Q43,-12 12,20.5 Q-19,53 -19,105 Q-19,194 45.5,244 Q110,294 249,316 Q256,353 243,377 Q230,401 198,401 Q150,401 93,365 L47,444 Q132,508 232,508 Q270,508 297,489 Q324,470 335,438 Q395,508 476,508 Q535,508 565.5,462 Q596,416 596,347 Q596,267 570,210 L335,210 Q334,200 334,180 Q334,139 353,116 Q372,93 407,93 Q457,93 501,124 L539,39 Q475,-12 395,-12 Q298,-12 253,59 Q180,-12 101,-12 M105,92 Q183,92 227,134 Q226,142 226,159 Q226,197 231,232 Q105,207 105,134 M448,403 Q418,403 392.5,374.5 Q367,346 352,298 L487,298 Q491,328 491,342 Q491,403 448,403"/> 
            <glyph glyph-name="ç" unicode="&#xE7;" horiz-adv-x="554" d=" M132,-239 L132,-180 Q189,-178 214,-167.5 Q239,-157 243,-135 Q244,-119 229,-109.5 Q214,-100 173,-94 L233,-5 Q155,11 107.5,64.5 Q60,118 60,205 Q60,338 149,423 Q238,508 363,508 Q425,508 474.5,482.5 Q524,457 554,418 L471,342 Q423,396 353,396 Q293,396 246,344 Q199,292 199,218 Q199,160 232.5,130 Q266,100 318,100 Q375,100 443,156 L491,63 Q418,-5 316,-11 L284,-61 Q322,-70 337,-87 Q352,-104 348,-134 Q332,-233 132,-239"/> 
            <glyph glyph-name="è" unicode="&#xE8;" horiz-adv-x="536" d=" M267,-12 Q167,-12 106.5,44 Q46,100 46,208 Q46,339 131,423.5 Q216,508 334,508 Q429,508 482.5,454.5 Q536,401 536,313 Q536,255 519,210 L183,210 Q186,93 299,93 Q369,93 447,145 L493,54 Q400,-12 267,-12 M330,403 Q292,403 254,375.5 Q216,348 197,298 L409,298 Q410,304 410,316 Q410,358 388.5,380.5 Q367,403 330,403 M389,569 L235,740 L352,827 L473,634"/> 
            <glyph glyph-name="é" unicode="&#xE9;" horiz-adv-x="543" d=" M267,-12 Q167,-12 106.5,44 Q46,100 46,208 Q46,339 131,423.5 Q216,508 334,508 Q429,508 482.5,454.5 Q536,401 536,313 Q536,255 519,210 L183,210 Q186,93 299,93 Q369,93 447,145 L493,54 Q400,-12 267,-12 M330,403 Q292,403 254,375.5 Q216,348 197,298 L409,298 Q410,304 410,316 Q410,358 388.5,380.5 Q367,403 330,403 M336,578 L276,656 L461,822 L543,718"/> 
            <glyph glyph-name="ê" unicode="&#xEA;" horiz-adv-x="541" d=" M267,-12 Q167,-12 106.5,44 Q46,100 46,208 Q46,339 131,423.5 Q216,508 334,508 Q429,508 482.5,454.5 Q536,401 536,313 Q536,255 519,210 L183,210 Q186,93 299,93 Q369,93 447,145 L493,54 Q400,-12 267,-12 M330,403 Q292,403 254,375.5 Q216,348 197,298 L409,298 Q410,304 410,316 Q410,358 388.5,380.5 Q367,403 330,403 M223,561 L175,616 L306,744 L456,744 L541,613 L480,561 L374,657 L370,657"/> 
            <glyph glyph-name="ë" unicode="&#xEB;" horiz-adv-x="542" d=" M267,-12 Q167,-12 106.5,44 Q46,100 46,208 Q46,339 131,423.5 Q216,508 334,508 Q429,508 482.5,454.5 Q536,401 536,313 Q536,255 519,210 L183,210 Q186,93 299,93 Q369,93 447,145 L493,54 Q400,-12 267,-12 M330,403 Q292,403 254,375.5 Q216,348 197,298 L409,298 Q410,304 410,316 Q410,358 388.5,380.5 Q367,403 330,403 M255,572 Q229,572 212.5,588 Q196,604 196,632 Q196,663 218,685.5 Q240,708 272,708 Q298,708 315,691.5 Q332,675 332,648 Q332,616 310,594 Q288,572 255,572 M466,572 Q440,572 423,588 Q406,604 406,632 Q406,663 428,685.5 Q450,708 482,708 Q508,708 525,691.5 Q542,675 542,648 Q542,616 520,594 Q498,572 466,572"/> 
            <glyph glyph-name="ì" unicode="&#xEC;" horiz-adv-x="490" d=" M342,-12 Q270,-12 227,26 Q184,64 184,130 Q184,153 194,190 L243,389 L80,389 L102,496 L402,496 L328,183 Q324,165 324,157 Q324,100 384,100 Q414,100 462,120 L490,17 Q421,-12 342,-12 M367,569 L213,740 L330,827 L451,634"/> 
            <glyph glyph-name="í" unicode="&#xED;" horiz-adv-x="521" d=" M342,-12 Q270,-12 227,26 Q184,64 184,130 Q184,153 194,190 L243,389 L80,389 L102,496 L402,496 L328,183 Q324,165 324,157 Q324,100 384,100 Q414,100 462,120 L490,17 Q421,-12 342,-12 M314,578 L254,656 L439,822 L521,718"/> 
            <glyph glyph-name="î" unicode="&#xEE;" horiz-adv-x="519" d=" M342,-12 Q270,-12 227,26 Q184,64 184,130 Q184,153 194,190 L243,389 L80,389 L102,496 L402,496 L328,183 Q324,165 324,157 Q324,100 384,100 Q414,100 462,120 L490,17 Q421,-12 342,-12 M201,561 L153,616 L284,744 L434,744 L519,613 L458,561 L352,657 L348,657"/> 
            <glyph glyph-name="ï" unicode="&#xEF;" horiz-adv-x="520" d=" M342,-12 Q270,-12 227,26 Q184,64 184,130 Q184,153 194,190 L243,389 L80,389 L102,496 L402,496 L328,183 Q324,165 324,157 Q324,100 384,100 Q414,100 462,120 L490,17 Q421,-12 342,-12 M233,572 Q207,572 190.5,588 Q174,604 174,632 Q174,663 196,685.5 Q218,708 250,708 Q276,708 293,691.5 Q310,675 310,648 Q310,616 288,594 Q266,572 233,572 M444,572 Q418,572 401,588 Q384,604 384,632 Q384,663 406,685.5 Q428,708 460,708 Q486,708 503,691.5 Q520,675 520,648 Q520,616 498,594 Q476,572 444,572"/> 
            <glyph glyph-name="ð" unicode="&#xF0;" horiz-adv-x="591" d=" M241,-12 Q147,-12 86.5,42 Q26,96 26,194 Q26,310 100.5,381 Q175,452 279,452 Q374,452 420,393 Q410,486 355,551 L216,486 L189,550 L300,602 Q263,630 218,653 L276,749 Q358,713 419,657 L565,726 L591,661 L468,603 Q554,490 554,339 Q554,174 468,81 Q382,-12 241,-12 M254,98 Q321,98 366.5,149 Q412,200 421,297 Q379,353 304,353 Q238,353 198,309.5 Q158,266 158,203 Q158,152 183.5,125 Q209,98 254,98"/> 
            <glyph glyph-name="ñ" unicode="&#xF1;" horiz-adv-x="585" d=" M16,0 L113,496 L224,496 L218,411 L222,411 Q321,508 416,508 Q478,508 511,475.5 Q544,443 544,381 Q544,346 536,306 L475,0 L338,0 L396,290 Q403,325 403,341 Q403,391 352,391 Q282,391 212,303 L153,0 M444,573 Q416,573 393.5,589.5 Q371,606 353,622 Q335,638 318,638 Q284,638 274,582 L184,587 Q209,739 326,739 Q354,739 376.5,723 Q399,707 416.5,691 Q434,675 451,675 Q485,675 495,730 L585,725 Q573,649 536,611 Q499,573 444,573"/> 
            <glyph glyph-name="ò" unicode="&#xF2;" horiz-adv-x="543" d=" M254,-12 Q153,-12 94,48 Q35,108 35,209 Q35,339 121,423.5 Q207,508 323,508 Q425,508 484,448 Q543,388 543,287 Q543,157 457,72.5 Q371,-12 254,-12 M264,100 Q320,100 362,152.5 Q404,205 404,283 Q404,337 379.5,366.5 Q355,396 313,396 Q257,396 215,344 Q173,292 173,213 Q173,159 197.5,129.5 Q222,100 264,100 M387,569 L233,740 L350,827 L471,634"/> 
            <glyph glyph-name="ó" unicode="&#xF3;" horiz-adv-x="543" d=" M254,-12 Q153,-12 94,48 Q35,108 35,209 Q35,339 121,423.5 Q207,508 323,508 Q425,508 484,448 Q543,388 543,287 Q543,157 457,72.5 Q371,-12 254,-12 M264,100 Q320,100 362,152.5 Q404,205 404,283 Q404,337 379.5,366.5 Q355,396 313,396 Q257,396 215,344 Q173,292 173,213 Q173,159 197.5,129.5 Q222,100 264,100 M334,578 L274,656 L459,822 L541,718"/> 
            <glyph glyph-name="ô" unicode="&#xF4;" horiz-adv-x="543" d=" M254,-12 Q153,-12 94,48 Q35,108 35,209 Q35,339 121,423.5 Q207,508 323,508 Q425,508 484,448 Q543,388 543,287 Q543,157 457,72.5 Q371,-12 254,-12 M264,100 Q320,100 362,152.5 Q404,205 404,283 Q404,337 379.5,366.5 Q355,396 313,396 Q257,396 215,344 Q173,292 173,213 Q173,159 197.5,129.5 Q222,100 264,100 M221,561 L173,616 L304,744 L454,744 L539,613 L478,561 L372,657 L368,657"/> 
            <glyph glyph-name="õ" unicode="&#xF5;" horiz-adv-x="571" d=" M254,-12 Q153,-12 94,48 Q35,108 35,209 Q35,339 121,423.5 Q207,508 323,508 Q425,508 484,448 Q543,388 543,287 Q543,157 457,72.5 Q371,-12 254,-12 M264,100 Q320,100 362,152.5 Q404,205 404,283 Q404,337 379.5,366.5 Q355,396 313,396 Q257,396 215,344 Q173,292 173,213 Q173,159 197.5,129.5 Q222,100 264,100 M430,573 Q402,573 379.5,589.5 Q357,606 339,622 Q321,638 304,638 Q270,638 260,582 L170,587 Q195,739 312,739 Q340,739 362.5,723 Q385,707 402.5,691 Q420,675 437,675 Q471,675 481,730 L571,725 Q559,649 522,611 Q485,573 430,573"/> 
            <glyph glyph-name="ö" unicode="&#xF6;" horiz-adv-x="543" d=" M254,-12 Q153,-12 94,48 Q35,108 35,209 Q35,339 121,423.5 Q207,508 323,508 Q425,508 484,448 Q543,388 543,287 Q543,157 457,72.5 Q371,-12 254,-12 M264,100 Q320,100 362,152.5 Q404,205 404,283 Q404,337 379.5,366.5 Q355,396 313,396 Q257,396 215,344 Q173,292 173,213 Q173,159 197.5,129.5 Q222,100 264,100 M253,572 Q227,572 210.5,588 Q194,604 194,632 Q194,663 216,685.5 Q238,708 270,708 Q296,708 313,691.5 Q330,675 330,648 Q330,616 308,594 Q286,572 253,572 M464,572 Q438,572 421,588 Q404,604 404,632 Q404,663 426,685.5 Q448,708 480,708 Q506,708 523,691.5 Q540,675 540,648 Q540,616 518,594 Q496,572 464,572"/> 
            <glyph glyph-name="÷" unicode="&#xF7;" horiz-adv-x="527" d=" M333,436 Q267,436 245,457 Q223,478 223,510 Q223,542 245,562.5 Q267,583 300,583 Q333,583 355,562.5 Q377,542 377,510 Q377,478 333,436 M333,76 Q267,76 245,97 Q223,118 223,150 Q223,182 245,202.5 Q267,223 300,223 Q333,223 355,202.5 Q377,182 377,150 Q377,118 333,76 M73,282 L73,378 L527,378 L527,282"/> 
            <glyph glyph-name="ø" unicode="&#xF8;" horiz-adv-x="576" d=" M254,-12 Q165,-12 110,34 L46,-27 L1,18 L67,81 Q34,136 34,209 Q34,339 120,423.5 Q206,508 323,508 Q412,508 467,462 L531,523 L576,478 L510,415 Q543,360 543,287 Q543,157 456.5,72.5 Q370,-12 254,-12 M166,207 Q166,197 168,177 L380,379 Q356,401 319,401 Q252,401 209,345.5 Q166,290 166,207 M258,95 Q326,95 368.5,150.5 Q411,206 411,289 Q411,299 409,319 L198,117 Q222,95 258,95"/> 
            <glyph glyph-name="ù" unicode="&#xF9;" horiz-adv-x="564" d=" M167,-12 Q105,-12 72,21 Q39,54 39,116 Q39,150 47,190 L108,496 L245,496 L187,206 Q179,166 179,156 Q179,105 231,105 Q296,105 368,194 L427,496 L564,496 L466,0 L355,0 L361,85 L357,85 Q260,-12 167,-12 M382,569 L228,740 L345,827 L466,634"/> 
            <glyph glyph-name="ú" unicode="&#xFA;" horiz-adv-x="564" d=" M167,-12 Q105,-12 72,21 Q39,54 39,116 Q39,150 47,190 L108,496 L245,496 L187,206 Q179,166 179,156 Q179,105 231,105 Q296,105 368,194 L427,496 L564,496 L466,0 L355,0 L361,85 L357,85 Q260,-12 167,-12 M329,578 L269,656 L454,822 L536,718"/> 
            <glyph glyph-name="û" unicode="&#xFB;" horiz-adv-x="564" d=" M167,-12 Q105,-12 72,21 Q39,54 39,116 Q39,150 47,190 L108,496 L245,496 L187,206 Q179,166 179,156 Q179,105 231,105 Q296,105 368,194 L427,496 L564,496 L466,0 L355,0 L361,85 L357,85 Q260,-12 167,-12 M216,561 L168,616 L299,744 L449,744 L534,613 L473,561 L367,657 L363,657"/> 
            <glyph glyph-name="ü" unicode="&#xFC;" horiz-adv-x="564" d=" M167,-12 Q105,-12 72,21 Q39,54 39,116 Q39,150 47,190 L108,496 L245,496 L187,206 Q179,166 179,156 Q179,105 231,105 Q296,105 368,194 L427,496 L564,496 L466,0 L355,0 L361,85 L357,85 Q260,-12 167,-12 M248,572 Q222,572 205.5,588 Q189,604 189,632 Q189,663 211,685.5 Q233,708 265,708 Q291,708 308,691.5 Q325,675 325,648 Q325,616 303,594 Q281,572 248,572 M459,572 Q433,572 416,588 Q399,604 399,632 Q399,663 421,685.5 Q443,708 475,708 Q501,708 518,691.5 Q535,675 535,648 Q535,616 513,594 Q491,572 459,572"/> 
            <glyph glyph-name="ý" unicode="&#xFD;" horiz-adv-x="604" d=" M44,-194 Q-11,-194 -48,-170 L-10,-77 Q20,-92 52,-92 Q126,-92 165,-27 L183,2 L70,496 L202,496 L243,280 Q255,208 265,124 L269,124 Q304,197 347,280 L465,496 L604,496 L307,-14 Q252,-108 190.5,-151 Q129,-194 44,-194 M324,578 L264,656 L449,822 L531,718"/> 
            <glyph glyph-name="þ" unicode="&#xFE;" horiz-adv-x="554" d=" M-22,-184 L156,701 L293,701 L261,542 L232,436 L234,436 Q308,508 390,508 Q468,508 511,457.5 Q554,407 554,314 Q554,176 479.5,82 Q405,-12 287,-12 Q200,-12 157,47 L155,47 L141,-50 L115,-184 M273,100 Q331,100 371.5,156.5 Q412,213 412,297 Q412,347 392,371.5 Q372,396 337,396 Q274,396 218,316 L182,146 Q210,100 273,100"/> 
            <glyph glyph-name="ÿ" unicode="&#xFF;" horiz-adv-x="604" d=" M44,-194 Q-11,-194 -48,-170 L-10,-77 Q20,-92 52,-92 Q126,-92 165,-27 L183,2 L70,496 L202,496 L243,280 Q255,208 265,124 L269,124 Q304,197 347,280 L465,496 L604,496 L307,-14 Q252,-108 190.5,-151 Q129,-194 44,-194 M243,572 Q217,572 200.5,588 Q184,604 184,632 Q184,663 206,685.5 Q228,708 260,708 Q286,708 303,691.5 Q320,675 320,648 Q320,616 298,594 Q276,572 243,572 M454,572 Q428,572 411,588 Q394,604 394,632 Q394,663 416,685.5 Q438,708 470,708 Q496,708 513,691.5 Q530,675 530,648 Q530,616 508,594 Q486,572 454,572"/> 
            <glyph glyph-name="Ā" unicode="&#x100;" horiz-adv-x="544" d=" M266,354 L227,267 L366,267 L362,353 Q361,371 353,547 L349,547 Q337,520 309.5,455 Q282,390 266,354 M-43,0 L292,652 L455,652 L523,0 L379,0 L371,164 L181,164 L108,0 M239,720 L256,808 L544,808 L526,720"/> 
            <glyph glyph-name="ā" unicode="&#x101;" horiz-adv-x="573" d=" M197,-12 Q122,-12 78.5,38.5 Q35,89 35,180 Q35,315 114.5,411.5 Q194,508 301,508 Q399,508 438,443 L442,443 L463,496 L573,496 L473,0 L362,0 L364,68 L360,68 Q285,-12 197,-12 M248,100 Q316,100 372,176 L408,349 Q381,396 325,396 Q264,396 220,338.5 Q176,281 176,197 Q176,100 248,100 M224,593 L241,680 L524,680 L507,593"/> 
            <glyph glyph-name="Ă" unicode="&#x102;" horiz-adv-x="567" d=" M266,354 L227,267 L366,267 L362,353 Q361,371 353,547 L349,547 Q337,520 309.5,455 Q282,390 266,354 M-43,0 L292,652 L455,652 L523,0 L379,0 L371,164 L181,164 L108,0 M376,697 Q225,697 234,842 L317,856 Q318,821 337.5,801.5 Q357,782 392,782 Q459,782 490,856 L567,842 Q526,697 376,697"/> 
            <glyph glyph-name="ă" unicode="&#x103;" horiz-adv-x="573" d=" M197,-12 Q122,-12 78.5,38.5 Q35,89 35,180 Q35,315 114.5,411.5 Q194,508 301,508 Q399,508 438,443 L442,443 L463,496 L573,496 L473,0 L362,0 L364,68 L360,68 Q285,-12 197,-12 M248,100 Q316,100 372,176 L408,349 Q381,396 325,396 Q264,396 220,338.5 Q176,281 176,197 Q176,100 248,100 M444,572 Q280,572 245.5,615.5 Q211,659 221,729 L308,743 Q306,708 324,686 Q342,664 380,664 Q451,664 479,743 L559,729 Q545,659 444,572"/> 
            <glyph glyph-name="Ą" unicode="&#x104;" horiz-adv-x="523" d=" M405,-227 Q360,-227 332,-206 Q304,-185 304,-147 Q304,-100 339,-60.5 Q374,-21 414,0 L379,0 L371,164 L181,164 L108,0 L-43,0 L292,652 L455,652 L523,0 Q479,-7 445.5,-39 Q412,-71 412,-103 Q412,-120 424.5,-129.5 Q437,-139 456,-139 Q473,-139 490,-129 L517,-194 Q471,-227 405,-227 M266,354 L227,267 L366,267 L362,353 Q356,451 353,547 L349,547 Q291,408 266,354"/> 
            <glyph glyph-name="ą" unicode="&#x105;" horiz-adv-x="573" d=" M356,-227 Q311,-227 284,-205 Q257,-183 257,-142 Q257,-96 289,-58.5 Q321,-21 362,2 L364,68 L360,68 Q285,-12 197,-12 Q122,-12 78.5,38.5 Q35,89 35,180 Q35,315 114.5,411.5 Q194,508 301,508 Q399,508 438,443 L442,443 L463,496 L573,496 L473,-1 Q356,-38 356,-103 Q356,-123 370,-134 Q384,-145 405,-145 Q426,-145 448,-134 L471,-189 Q423,-227 356,-227 M248,100 Q316,100 372,176 L408,349 Q381,396 325,396 Q264,396 220,338.5 Q176,281 176,197 Q176,100 248,100"/> 
            <glyph glyph-name="Ć" unicode="&#x106;" horiz-adv-x="589" d=" M317,-12 Q203,-12 136,61 Q69,134 69,261 Q69,430 169.5,547 Q270,664 416,664 Q531,664 589,560 L496,488 Q460,545 409,545 Q327,545 268.5,462.5 Q210,380 210,270 Q210,106 346,106 Q399,106 456,156 L514,68 Q425,-12 317,-12 M385,686 L333,765 L528,889 L589,788"/> 
            <glyph glyph-name="ć" unicode="&#x107;" horiz-adv-x="577" d=" M298,-12 Q195,-12 127.5,44.5 Q60,101 60,205 Q60,338 149,423 Q238,508 363,508 Q425,508 474.5,482.5 Q524,457 554,418 L471,342 Q423,396 353,396 Q293,396 246,344 Q199,292 199,218 Q199,160 232.5,130 Q266,100 318,100 Q375,100 443,156 L491,63 Q411,-12 298,-12 M370,578 L310,656 L495,822 L577,718"/> 
            <glyph glyph-name="Ĉ" unicode="&#x108;" horiz-adv-x="606" d=" M317,-12 Q203,-12 136,61 Q69,134 69,261 Q69,430 169.5,547 Q270,664 416,664 Q531,664 589,560 L496,488 Q460,545 409,545 Q327,545 268.5,462.5 Q210,380 210,270 Q210,106 346,106 Q399,106 456,156 L514,68 Q425,-12 317,-12 M300,685 L244,729 L366,853 L526,853 L606,724 L539,686 L441,777 L437,777"/> 
            <glyph glyph-name="ĉ" unicode="&#x109;" horiz-adv-x="575" d=" M298,-12 Q195,-12 127.5,44.5 Q60,101 60,205 Q60,338 149,423 Q238,508 363,508 Q425,508 474.5,482.5 Q524,457 554,418 L471,342 Q423,396 353,396 Q293,396 246,344 Q199,292 199,218 Q199,160 232.5,130 Q266,100 318,100 Q375,100 443,156 L491,63 Q411,-12 298,-12 M257,561 L209,616 L340,744 L490,744 L575,613 L514,561 L408,657 L404,657"/> 
            <glyph glyph-name="Ċ" unicode="&#x10A;" horiz-adv-x="589" d=" M317,-12 Q203,-12 136,61 Q69,134 69,261 Q69,430 169.5,547 Q270,664 416,664 Q531,664 589,560 L496,488 Q460,545 409,545 Q327,545 268.5,462.5 Q210,380 210,270 Q210,106 346,106 Q399,106 456,156 L514,68 Q425,-12 317,-12 M434,703 Q403,703 381.5,720.5 Q360,738 360,769 Q360,802 384.5,826 Q409,850 445,850 Q475,850 497,832 Q519,814 519,784 Q519,749 494.5,726 Q470,703 434,703"/> 
            <glyph glyph-name="ċ" unicode="&#x10B;" horiz-adv-x="554" d=" M298,-12 Q195,-12 127.5,44.5 Q60,101 60,205 Q60,338 149,423 Q238,508 363,508 Q425,508 474.5,482.5 Q524,457 554,418 L471,342 Q423,396 353,396 Q293,396 246,344 Q199,292 199,218 Q199,160 232.5,130 Q266,100 318,100 Q375,100 443,156 L491,63 Q411,-12 298,-12 M399,575 Q363,575 338,595.5 Q313,616 313,653 Q313,692 342,720 Q371,748 413,748 Q452,748 476,727.5 Q500,707 500,670 Q500,630 470.5,602.5 Q441,575 399,575"/> 
            <glyph glyph-name="Č" unicode="&#x10C;" horiz-adv-x="634" d=" M317,-12 Q203,-12 136,61 Q69,134 69,261 Q69,430 169.5,547 Q270,664 416,664 Q531,664 589,560 L496,488 Q460,545 409,545 Q327,545 268.5,462.5 Q210,380 210,270 Q210,106 346,106 Q399,106 456,156 L514,68 Q425,-12 317,-12 M352,702 L272,831 L339,869 L437,778 L441,778 L578,870 L634,826 L512,702"/> 
            <glyph glyph-name="č" unicode="&#x10D;" horiz-adv-x="604" d=" M298,-12 Q195,-12 127.5,44.5 Q60,101 60,205 Q60,338 149,423 Q238,508 363,508 Q425,508 474.5,482.5 Q524,457 554,418 L471,342 Q423,396 353,396 Q293,396 246,344 Q199,292 199,218 Q199,160 232.5,130 Q266,100 318,100 Q375,100 443,156 L491,63 Q411,-12 298,-12 M323,579 L238,710 L299,762 L404,666 L408,666 L556,762 L604,706 L473,579"/> 
            <glyph glyph-name="Ď" unicode="&#x10E;" horiz-adv-x="586" d=" M12,0 L142,652 L288,652 Q421,652 493,587.5 Q565,523 565,396 Q565,208 468.5,104 Q372,0 216,0 M171,110 L213,110 Q307,110 365.5,179.5 Q424,249 424,387 Q424,466 387,504 Q350,542 285,542 L257,542 M304,702 L224,831 L291,869 L389,778 L393,778 L530,870 L586,826 L464,702"/> 
            <glyph glyph-name="ď" unicode="&#x10F;" horiz-adv-x="737" d=" M140,-12 Q81,-12 46.5,38.5 Q12,89 12,180 Q12,315 86,411.5 Q160,508 263,508 Q324,508 362,456 L364,456 L376,550 L405,701 L542,701 L401,0 L289,0 L288,52 L286,52 Q225,-12 140,-12 M207,100 Q255,100 296,160 L337,357 Q315,396 279,396 Q228,396 190.5,338.5 Q153,281 153,197 Q153,100 207,100 M563,548 L610,822 L737,822 L714,724 L651,548"/> 
            <glyph glyph-name="Đ" unicode="&#x110;" horiz-adv-x="569" d=" M16,0 L77,304 L5,304 L19,369 L91,374 L146,652 L292,652 Q425,652 497,587.5 Q569,523 569,396 Q569,208 472.5,104 Q376,0 220,0 M175,110 L217,110 Q311,110 369.5,179.5 Q428,249 428,387 Q428,466 391,504 Q354,542 289,542 L261,542 L228,374 L343,374 L327,304 L214,304"/> 
            <glyph glyph-name="đ" unicode="&#x111;" horiz-adv-x="657" d=" M187,-12 Q112,-12 68.5,38.5 Q25,89 25,180 Q25,308 101.5,398 Q178,488 288,488 Q377,488 419,428 L421,428 L433,522 L440,557 L283,557 L296,627 L454,627 L468,700 L604,700 L589,627 L657,627 L644,563 L576,558 L464,0 L352,0 L354,68 L350,68 Q275,-12 187,-12 M238,100 Q306,100 362,176 L394,329 Q366,376 312,376 Q248,376 207,325 Q166,274 166,198 Q166,100 238,100"/> 
            <glyph glyph-name="Ē" unicode="&#x112;" horiz-adv-x="594" d=" M38,0 L169,652 L594,652 L572,537 L282,537 L254,395 L496,395 L474,280 L232,280 L198,115 L496,115 L474,0 M260,720 L277,808 L565,808 L547,720"/> 
            <glyph glyph-name="ē" unicode="&#x113;" horiz-adv-x="536" d=" M267,-12 Q167,-12 106.5,44 Q46,100 46,208 Q46,339 131,423.5 Q216,508 334,508 Q429,508 482.5,454.5 Q536,401 536,313 Q536,255 519,210 L183,210 Q186,93 299,93 Q369,93 447,145 L493,54 Q400,-12 267,-12 M330,403 Q292,403 254,375.5 Q216,348 197,298 L409,298 Q410,304 410,316 Q410,358 388.5,380.5 Q367,403 330,403 M218,593 L235,680 L518,680 L501,593"/> 
            <glyph glyph-name="Ĕ" unicode="&#x114;" horiz-adv-x="594" d=" M38,0 L169,652 L594,652 L572,537 L282,537 L254,395 L496,395 L474,280 L232,280 L198,115 L496,115 L474,0 M397,697 Q246,697 255,842 L338,856 Q339,821 358.5,801.5 Q378,782 413,782 Q480,782 511,856 L588,842 Q547,697 397,697"/> 
            <glyph glyph-name="ĕ" unicode="&#x115;" horiz-adv-x="553" d=" M267,-12 Q167,-12 106.5,44 Q46,100 46,208 Q46,339 131,423.5 Q216,508 334,508 Q429,508 482.5,454.5 Q536,401 536,313 Q536,255 519,210 L183,210 Q186,93 299,93 Q369,93 447,145 L493,54 Q400,-12 267,-12 M330,403 Q292,403 254,375.5 Q216,348 197,298 L409,298 Q410,304 410,316 Q410,358 388.5,380.5 Q367,403 330,403 M438,572 Q274,572 239.5,615.5 Q205,659 215,729 L302,743 Q300,708 318,686 Q336,664 374,664 Q445,664 473,743 L553,729 Q539,659 438,572"/> 
            <glyph glyph-name="Ė" unicode="&#x116;" horiz-adv-x="594" d=" M38,0 L169,652 L594,652 L572,537 L282,537 L254,395 L496,395 L474,280 L232,280 L198,115 L496,115 L474,0 M409,703 Q378,703 356.5,720.5 Q335,738 335,769 Q335,802 359.5,826 Q384,850 420,850 Q450,850 472,832 Q494,814 494,784 Q494,749 469.5,726 Q445,703 409,703"/> 
            <glyph glyph-name="ė" unicode="&#x117;" horiz-adv-x="536" d=" M267,-12 Q167,-12 106.5,44 Q46,100 46,208 Q46,339 131,423.5 Q216,508 334,508 Q429,508 482.5,454.5 Q536,401 536,313 Q536,255 519,210 L183,210 Q186,93 299,93 Q369,93 447,145 L493,54 Q400,-12 267,-12 M330,403 Q292,403 254,375.5 Q216,348 197,298 L409,298 Q410,304 410,316 Q410,358 388.5,380.5 Q367,403 330,403 M365,575 Q329,575 304,595.5 Q279,616 279,653 Q279,692 308,720 Q337,748 379,748 Q418,748 442,727.5 Q466,707 466,670 Q466,630 436.5,602.5 Q407,575 365,575"/> 
            <glyph glyph-name="Ę" unicode="&#x118;" horiz-adv-x="594" d=" M349,-227 Q304,-227 276,-206 Q248,-185 248,-147 Q248,-100 282.5,-61.5 Q317,-23 362,0 L38,0 L169,652 L594,652 L572,537 L282,537 L254,395 L496,395 L474,280 L232,280 L198,115 L496,115 L474,0 L472,0 Q435,0 395,-33.5 Q355,-67 355,-103 Q355,-120 368,-129.5 Q381,-139 400,-139 Q415,-139 434,-129 L461,-194 Q414,-227 349,-227"/> 
            <glyph glyph-name="ę" unicode="&#x119;" horiz-adv-x="536" d=" M329,-227 Q284,-227 257,-205 Q230,-183 230,-142 Q230,-73 318,-6 Q290,-12 267,-12 Q167,-12 106.5,44 Q46,100 46,208 Q46,339 131,423.5 Q216,508 334,508 Q429,508 482.5,454.5 Q536,401 536,313 Q536,255 519,210 L183,210 Q186,93 299,93 Q369,93 447,145 L493,54 Q409,4 369,-33 Q329,-70 329,-103 Q329,-123 343,-134 Q357,-145 378,-145 Q399,-145 420,-133 L444,-189 Q394,-227 329,-227 M330,403 Q292,403 254,375.5 Q216,348 197,298 L409,298 Q410,304 410,316 Q410,358 388.5,380.5 Q367,403 330,403"/> 
            <glyph glyph-name="Ě" unicode="&#x11A;" horiz-adv-x="609" d=" M38,0 L169,652 L594,652 L572,537 L282,537 L254,395 L496,395 L474,280 L232,280 L198,115 L496,115 L474,0 M327,702 L247,831 L314,869 L412,778 L416,778 L553,870 L609,826 L487,702"/> 
            <glyph glyph-name="ě" unicode="&#x11B;" horiz-adv-x="570" d=" M267,-12 Q167,-12 106.5,44 Q46,100 46,208 Q46,339 131,423.5 Q216,508 334,508 Q429,508 482.5,454.5 Q536,401 536,313 Q536,255 519,210 L183,210 Q186,93 299,93 Q369,93 447,145 L493,54 Q400,-12 267,-12 M330,403 Q292,403 254,375.5 Q216,348 197,298 L409,298 Q410,304 410,316 Q410,358 388.5,380.5 Q367,403 330,403 M289,579 L204,710 L265,762 L370,666 L374,666 L522,762 L570,706 L439,579"/> 
            <glyph glyph-name="Ĝ" unicode="&#x11C;" horiz-adv-x="579" d=" M294,-12 Q178,-12 112,60 Q46,132 46,261 Q46,431 145,547.5 Q244,664 393,664 Q516,664 575,560 L481,488 Q445,545 386,545 Q301,545 243.5,463 Q186,381 186,270 Q186,105 318,105 Q359,105 389,127 L417,255 L310,255 L330,367 L558,367 L497,56 Q412,-12 294,-12 M273,685 L217,729 L339,853 L499,853 L579,724 L512,686 L414,777 L410,777"/> 
            <glyph glyph-name="ĝ" unicode="&#x11D;" horiz-adv-x="573" d=" M207,-196 Q87,-196 3,-131 L62,-36 Q124,-88 204,-88 Q318,-88 345,4 L366,79 L362,79 Q332,51 291,33 Q250,15 210,15 Q132,15 86.5,65 Q41,115 41,200 Q41,330 119.5,419 Q198,508 301,508 Q399,508 438,443 L442,443 L465,496 L573,496 L475,9 Q433,-196 207,-196 M258,127 Q319,127 374,187 L408,347 Q374,396 323,396 Q270,396 226.5,346.5 Q183,297 183,221 Q183,127 258,127 M229,561 L181,616 L312,744 L462,744 L547,613 L486,561 L380,657 L376,657"/> 
            <glyph glyph-name="Ğ" unicode="&#x11E;" horiz-adv-x="586" d=" M294,-12 Q178,-12 112,60 Q46,132 46,261 Q46,431 145,547.5 Q244,664 393,664 Q516,664 575,560 L481,488 Q445,545 386,545 Q301,545 243.5,463 Q186,381 186,270 Q186,105 318,105 Q359,105 389,127 L417,255 L310,255 L330,367 L558,367 L497,56 Q412,-12 294,-12 M395,697 Q244,697 253,842 L336,856 Q337,821 356.5,801.5 Q376,782 411,782 Q478,782 509,856 L586,842 Q545,697 395,697"/> 
            <glyph glyph-name="ğ" unicode="&#x11F;" horiz-adv-x="573" d=" M207,-196 Q87,-196 3,-131 L62,-36 Q124,-88 204,-88 Q318,-88 345,4 L366,79 L362,79 Q332,51 291,33 Q250,15 210,15 Q132,15 86.5,65 Q41,115 41,200 Q41,330 119.5,419 Q198,508 301,508 Q399,508 438,443 L442,443 L465,496 L573,496 L475,9 Q433,-196 207,-196 M258,127 Q319,127 374,187 L408,347 Q374,396 323,396 Q270,396 226.5,346.5 Q183,297 183,221 Q183,127 258,127 M444,572 Q280,572 245.5,615.5 Q211,659 221,729 L308,743 Q306,708 324,686 Q342,664 380,664 Q451,664 479,743 L559,729 Q545,659 444,572"/> 
            <glyph glyph-name="Ġ" unicode="&#x120;" horiz-adv-x="575" d=" M294,-12 Q178,-12 112,60 Q46,132 46,261 Q46,431 145,547.5 Q244,664 393,664 Q516,664 575,560 L481,488 Q445,545 386,545 Q301,545 243.5,463 Q186,381 186,270 Q186,105 318,105 Q359,105 389,127 L417,255 L310,255 L330,367 L558,367 L497,56 Q412,-12 294,-12 M407,703 Q376,703 354.5,720.5 Q333,738 333,769 Q333,802 357.5,826 Q382,850 418,850 Q448,850 470,832 Q492,814 492,784 Q492,749 467.5,726 Q443,703 407,703"/> 
            <glyph glyph-name="ġ" unicode="&#x121;" horiz-adv-x="573" d=" M207,-196 Q87,-196 3,-131 L62,-36 Q124,-88 204,-88 Q318,-88 345,4 L366,79 L362,79 Q332,51 291,33 Q250,15 210,15 Q132,15 86.5,65 Q41,115 41,200 Q41,330 119.5,419 Q198,508 301,508 Q399,508 438,443 L442,443 L465,496 L573,496 L475,9 Q433,-196 207,-196 M258,127 Q319,127 374,187 L408,347 Q374,396 323,396 Q270,396 226.5,346.5 Q183,297 183,221 Q183,127 258,127 M371,575 Q335,575 310,595.5 Q285,616 285,653 Q285,692 314,720 Q343,748 385,748 Q424,748 448,727.5 Q472,707 472,670 Q472,630 442.5,602.5 Q413,575 371,575"/> 
            <glyph glyph-name="Ģ" unicode="&#x122;" horiz-adv-x="575" d=" M294,-12 Q178,-12 112,60 Q46,132 46,261 Q46,431 145,547.5 Q244,664 393,664 Q516,664 575,560 L481,488 Q445,545 386,545 Q301,545 243.5,463 Q186,381 186,270 Q186,105 318,105 Q359,105 389,127 L417,255 L310,255 L330,367 L558,367 L497,56 Q412,-12 294,-12 M155,-239 L157,-180 Q266,-176 266,-137 Q266,-106 209,-106 L247,-52 Q320,-55 347,-73.5 Q374,-92 374,-124 Q374,-232 155,-239"/> 
            <glyph glyph-name="ģ" unicode="&#x123;" horiz-adv-x="573" d=" M207,-196 Q87,-196 3,-131 L62,-36 Q124,-88 204,-88 Q318,-88 345,4 L366,79 L362,79 Q332,51 291,33 Q250,15 210,15 Q132,15 86.5,65 Q41,115 41,200 Q41,330 119.5,419 Q198,508 301,508 Q399,508 438,443 L442,443 L465,496 L573,496 L475,9 Q433,-196 207,-196 M258,127 Q319,127 374,187 L408,347 Q374,396 323,396 Q270,396 226.5,346.5 Q183,297 183,221 Q183,127 258,127 M390,545 Q290,555 290,613 Q290,719 483,728 L483,672 Q391,663 391,628 Q391,606 426,596"/> 
            <glyph glyph-name="Ĥ" unicode="&#x124;" horiz-adv-x="601" d=" M4,0 L134,652 L271,652 L219,399 L414,399 L464,652 L601,652 L471,0 L334,0 L390,279 L196,279 L141,0 M254,685 L198,729 L320,853 L480,853 L560,724 L493,686 L395,777 L391,777"/> 
            <glyph glyph-name="ĥ" unicode="&#x125;" horiz-adv-x="544" d=" M16,0 L156,701 L293,701 L251,495 L228,414 L232,414 Q321,508 416,508 Q478,508 511,475.5 Q544,443 544,381 Q544,346 536,306 L475,0 L338,0 L396,290 Q403,325 403,341 Q403,391 352,391 Q282,391 212,303 L153,0 M110,745 L54,789 L176,913 L336,913 L416,784 L349,746 L251,837 L247,837"/> 
            <glyph glyph-name="Ħ" unicode="&#x126;" horiz-adv-x="645" d=" M39,485 L51,550 L115,556 L134,652 L271,652 L251,556 L445,556 L464,652 L601,652 L582,556 L645,556 L629,485 L568,485 L471,0 L334,0 L390,279 L196,279 L141,0 L4,0 L101,485 M219,399 L414,399 L431,485 L237,485"/> 
            <glyph glyph-name="ħ" unicode="&#x127;" horiz-adv-x="542" d=" M18,0 L129,557 L60,557 L72,621 L143,626 L158,700 L295,700 L280,627 L465,627 L452,557 L266,557 L249,473 L226,393 L230,393 Q318,486 414,486 Q476,486 509,453.5 Q542,421 542,359 Q542,323 534,285 L476,0 L340,0 L394,268 Q401,303 401,319 Q401,370 350,370 Q281,370 210,281 L154,0"/> 
            <glyph glyph-name="Ĩ" unicode="&#x128;" horiz-adv-x="601" d=" M15,0 L40,115 L191,115 L277,537 L123,537 L147,652 L591,652 L567,537 L414,537 L329,115 L483,115 L459,0 M450,692 Q420,692 395,706.5 Q370,721 352.5,735.5 Q335,750 322,750 Q290,750 277,701 L184,708 Q201,781 241,816.5 Q281,852 335,852 Q365,852 390,837.5 Q415,823 432.5,808.5 Q450,794 462,794 Q493,794 508,843 L601,836 Q584,763 544,727.5 Q504,692 450,692"/> 
            <glyph glyph-name="ĩ" unicode="&#x129;" horiz-adv-x="551" d=" M342,-12 Q270,-12 227,26 Q184,64 184,130 Q184,153 194,190 L243,389 L80,389 L102,496 L402,496 L328,183 Q324,165 324,157 Q324,100 384,100 Q414,100 462,120 L490,17 Q421,-12 342,-12 M410,573 Q382,573 359.5,589.5 Q337,606 319,622 Q301,638 284,638 Q250,638 240,582 L150,587 Q175,739 292,739 Q320,739 342.5,723 Q365,707 382.5,691 Q400,675 417,675 Q451,675 461,730 L551,725 Q539,649 502,611 Q465,573 410,573"/> 
            <glyph glyph-name="Ī" unicode="&#x12A;" horiz-adv-x="591" d=" M15,0 L40,115 L191,115 L277,537 L123,537 L147,652 L591,652 L567,537 L414,537 L329,115 L483,115 L459,0 M239,720 L256,808 L544,808 L526,720"/> 
            <glyph glyph-name="ī" unicode="&#x12B;" horiz-adv-x="496" d=" M342,-12 Q270,-12 227,26 Q184,64 184,130 Q184,153 194,190 L243,389 L80,389 L102,496 L402,496 L328,183 Q324,165 324,157 Q324,100 384,100 Q414,100 462,120 L490,17 Q421,-12 342,-12 M196,593 L213,680 L496,680 L479,593"/> 
            <glyph glyph-name="Ĭ" unicode="&#x12C;" horiz-adv-x="591" d=" M15,0 L40,115 L191,115 L277,537 L123,537 L147,652 L591,652 L567,537 L414,537 L329,115 L483,115 L459,0 M376,697 Q225,697 234,842 L317,856 Q318,821 337.5,801.5 Q357,782 392,782 Q459,782 490,856 L567,842 Q526,697 376,697"/> 
            <glyph glyph-name="ĭ" unicode="&#x12D;" horiz-adv-x="531" d=" M342,-12 Q270,-12 227,26 Q184,64 184,130 Q184,153 194,190 L243,389 L80,389 L102,496 L402,496 L328,183 Q324,165 324,157 Q324,100 384,100 Q414,100 462,120 L490,17 Q421,-12 342,-12 M416,572 Q252,572 217.5,615.5 Q183,659 193,729 L280,743 Q278,708 296,686 Q314,664 352,664 Q423,664 451,743 L531,729 Q517,659 416,572"/> 
            <glyph glyph-name="Į" unicode="&#x12E;" horiz-adv-x="591" d=" M215,-227 Q170,-227 142,-206 Q114,-185 114,-147 Q114,-103 146.5,-63 Q179,-23 217,0 L15,0 L40,115 L191,115 L277,537 L123,537 L147,652 L591,652 L567,537 L414,537 L329,115 L483,115 L459,0 L317,0 Q272,-19 247,-48.5 Q222,-78 222,-103 Q222,-120 234.5,-129.5 Q247,-139 266,-139 Q283,-139 300,-129 L327,-194 Q281,-227 215,-227"/> 
            <glyph glyph-name="į" unicode="&#x12F;" horiz-adv-x="490" d=" M344,-227 Q299,-227 272,-205 Q245,-183 245,-142 Q245,-71 339,-12 L334,-12 Q268,-12 226,26.5 Q184,65 184,130 Q184,153 194,190 L243,389 L80,389 L102,496 L402,496 L328,183 Q324,165 324,157 Q324,100 384,100 Q414,100 462,120 L490,17 Q411,-17 377,-45.5 Q343,-74 343,-103 Q343,-123 357.5,-134 Q372,-145 393,-145 Q413,-145 435,-134 L459,-189 Q409,-227 344,-227 M343,575 Q307,575 282,595.5 Q257,616 257,653 Q257,692 286,720 Q315,748 357,748 Q396,748 420,727.5 Q444,707 444,670 Q444,630 414.5,602.5 Q385,575 343,575"/> 
            <glyph glyph-name="İ" unicode="&#x130;" horiz-adv-x="591" d=" M15,0 L40,115 L191,115 L277,537 L123,537 L147,652 L591,652 L567,537 L414,537 L329,115 L483,115 L459,0 M388,703 Q357,703 335.5,720.5 Q314,738 314,769 Q314,802 338.5,826 Q363,850 399,850 Q429,850 451,832 Q473,814 473,784 Q473,749 448.5,726 Q424,703 388,703"/> 
            <glyph glyph-name="ı" unicode="&#x131;" horiz-adv-x="490" d=" M342,-12 Q270,-12 227,26 Q184,64 184,130 Q184,153 194,190 L243,389 L80,389 L102,496 L402,496 L328,183 Q324,165 324,157 Q324,100 384,100 Q414,100 462,120 L490,17 Q421,-12 342,-12"/> 
            <glyph glyph-name="Ĳ" unicode="&#x132;" horiz-adv-x="595" d=" M12,0 L142,652 L279,652 L149,0 M281,-176 Q229,-176 185,-154 L227,-55 Q248,-68 270,-68 Q294,-68 307.5,-50 Q321,-32 330,10 L458,652 L595,652 L466,4 Q428,-176 281,-176"/> 
            <glyph glyph-name="ĳ" unicode="&#x133;" horiz-adv-x="610" d=" M21,0 L121,496 L257,496 L158,0 M216,570 Q180,570 154.5,590.5 Q129,611 129,648 Q129,687 158,715 Q187,743 229,743 Q268,743 292,722.5 Q316,702 316,665 Q316,625 287,597.5 Q258,570 216,570 M265,-196 Q213,-196 169,-174 L211,-75 Q232,-88 254,-88 Q278,-88 291.5,-70 Q305,-52 314,-10 L416,496 L552,496 L449,-16 Q411,-196 265,-196 M509,570 Q473,570 447.5,590.5 Q422,611 422,648 Q422,686 451.5,714.5 Q481,743 522,743 Q561,743 585.5,722.5 Q610,702 610,665 Q610,625 580.5,597.5 Q551,570 509,570"/> 
            <glyph glyph-name="Ĵ" unicode="&#x134;" horiz-adv-x="574" d=" M223,-12 Q87,-12 8,100 L96,182 Q150,106 223,106 Q279,106 309,137.5 Q339,169 353,242 L412,537 L155,537 L178,652 L570,652 L482,212 Q461,107 396.5,47.5 Q332,-12 223,-12 M268,685 L212,729 L334,853 L494,853 L574,724 L507,686 L409,777 L405,777"/> 
            <glyph glyph-name="ĵ" unicode="&#x135;" horiz-adv-x="596" d=" M138,-196 Q45,-196 -24,-149 L32,-53 Q81,-88 130,-88 Q180,-88 207.5,-58.5 Q235,-29 249,37 L320,389 L116,389 L138,496 L477,496 L383,26 Q361,-84 301.5,-140 Q242,-196 138,-196 M278,561 L230,616 L361,744 L511,744 L596,613 L535,561 L429,657 L425,657"/> 
            <glyph glyph-name="Ķ" unicode="&#x136;" horiz-adv-x="640" d=" M640,652 L382,385 L533,0 L377,0 L280,279 L186,182 L150,0 L15,0 L145,652 L281,652 L223,364 L227,364 L489,652 M130,-239 L132,-180 Q241,-176 241,-137 Q241,-106 184,-106 L222,-52 Q295,-55 322,-73.5 Q349,-92 349,-124 Q349,-232 130,-239"/> 
            <glyph glyph-name="ķ" unicode="&#x137;" horiz-adv-x="609" d=" M21,0 L162,701 L298,701 L215,291 L219,291 L450,496 L609,496 L385,292 L524,0 L385,0 L290,209 L181,118 L158,0 M132,-239 L134,-180 Q243,-176 243,-137 Q243,-106 186,-106 L224,-52 Q297,-55 324,-73.5 Q351,-92 351,-124 Q351,-232 132,-239"/> 
            <glyph glyph-name="ĸ" unicode="&#x138;" horiz-adv-x="609" d=" M21,0 L119,496 L255,496 L215,291 L219,291 L450,496 L609,496 L385,292 L524,0 L387,0 L291,211 L181,118 L158,0"/> 
            <glyph glyph-name="Ĺ" unicode="&#x139;" horiz-adv-x="517" d=" M65,0 L195,652 L332,652 L225,115 L517,115 L495,0 M237,686 L185,765 L380,889 L441,788"/> 
            <glyph glyph-name="ĺ" unicode="&#x13A;" horiz-adv-x="529" d=" M326,-12 Q258,-12 216,29.5 Q174,71 174,144 Q174,175 182,206 L269,594 L127,594 L150,701 L426,701 L314,190 Q310,170 310,153 Q310,100 368,100 Q404,100 450,121 L479,20 Q408,-12 326,-12 M325,746 L273,825 L468,949 L529,848"/> 
            <glyph glyph-name="Ļ" unicode="&#x13B;" horiz-adv-x="517" d=" M65,0 L195,652 L332,652 L225,115 L517,115 L495,0 M147,-239 L149,-180 Q258,-176 258,-137 Q258,-106 201,-106 L239,-52 Q312,-55 339,-73.5 Q366,-92 366,-124 Q366,-232 147,-239"/> 
            <glyph glyph-name="ļ" unicode="&#x13C;" horiz-adv-x="479" d=" M326,-12 Q258,-12 216,29.5 Q174,71 174,144 Q174,175 182,206 L269,594 L127,594 L150,701 L426,701 L314,190 Q310,170 310,153 Q310,100 368,100 Q404,100 450,121 L479,20 Q408,-12 326,-12 M174,-239 L176,-180 Q285,-176 285,-137 Q285,-106 228,-106 L266,-52 Q339,-55 366,-73.5 Q393,-92 393,-124 Q393,-232 174,-239"/> 
            <glyph glyph-name="Ľ" unicode="&#x13D;" horiz-adv-x="594" d=" M65,0 L195,652 L332,652 L225,115 L517,115 L495,0 M420,515 L467,789 L594,789 L571,691 L508,515"/> 
            <glyph glyph-name="ľ" unicode="&#x13E;" horiz-adv-x="641" d=" M326,-12 Q258,-12 216,29.5 Q174,71 174,144 Q174,175 182,206 L269,594 L127,594 L150,701 L426,701 L314,190 Q310,170 310,153 Q310,100 368,100 Q404,100 450,121 L479,20 Q408,-12 326,-12 M467,548 L514,822 L641,822 L618,724 L555,548"/> 
            <glyph glyph-name="Ŀ" unicode="&#x13F;" horiz-adv-x="586" d=" M65,0 L195,652 L332,652 L225,115 L517,115 L495,0 M485,270 Q449,270 424,290.5 Q399,311 399,348 Q399,387 428,415 Q457,443 499,443 Q538,443 562,422.5 Q586,402 586,365 Q586,325 556.5,297.5 Q527,270 485,270"/> 
            <glyph glyph-name="ŀ" unicode="&#x140;" horiz-adv-x="646" d=" M278,-12 Q210,-12 168,29.5 Q126,71 126,144 Q126,175 134,206 L221,594 L79,594 L102,701 L378,701 L266,190 Q262,170 262,153 Q262,100 320,100 Q356,100 402,121 L431,20 Q360,-12 278,-12 M545,270 Q509,270 484,290.5 Q459,311 459,348 Q459,387 488,415 Q517,443 559,443 Q598,443 622,422.5 Q646,402 646,365 Q646,325 616.5,297.5 Q587,270 545,270"/> 
            <glyph glyph-name="Ł" unicode="&#x141;" horiz-adv-x="517" d=" M41,174 L8,262 L129,320 L195,652 L332,652 L280,391 L474,488 L507,400 L257,277 L225,115 L517,115 L495,0 L65,0 L106,206"/> 
            <glyph glyph-name="ł" unicode="&#x142;" horiz-adv-x="549" d=" M326,-12 Q258,-12 216,29.5 Q174,71 174,144 Q174,175 182,206 L199,283 L107,237 L75,318 L224,392 L269,594 L127,594 L150,701 L426,701 L373,457 L516,530 L549,449 L349,349 L314,190 Q310,170 310,153 Q310,100 368,100 Q404,100 450,121 L479,20 Q408,-12 326,-12"/> 
            <glyph glyph-name="Ń" unicode="&#x143;" horiz-adv-x="594" d=" M11,0 L142,652 L279,652 L357,310 L383,169 L387,169 Q401,332 415,400 L465,652 L594,652 L464,0 L330,0 L246,341 L221,483 L217,483 Q199,301 188,243 L141,0 M332,686 L280,765 L475,889 L536,788"/> 
            <glyph glyph-name="ń" unicode="&#x144;" horiz-adv-x="555" d=" M16,0 L113,496 L224,496 L218,411 L222,411 Q321,508 416,508 Q478,508 511,475.5 Q544,443 544,381 Q544,346 536,306 L475,0 L338,0 L396,290 Q403,325 403,341 Q403,391 352,391 Q282,391 212,303 L153,0 M348,578 L288,656 L473,822 L555,718"/> 
            <glyph glyph-name="Ņ" unicode="&#x145;" horiz-adv-x="594" d=" M11,0 L142,652 L279,652 L357,310 L383,169 L387,169 Q401,332 415,400 L465,652 L594,652 L464,0 L330,0 L246,341 L221,483 L217,483 Q199,301 188,243 L141,0 M108,-239 L110,-180 Q219,-176 219,-137 Q219,-106 162,-106 L200,-52 Q273,-55 300,-73.5 Q327,-92 327,-124 Q327,-232 108,-239"/> 
            <glyph glyph-name="ņ" unicode="&#x146;" horiz-adv-x="544" d=" M16,0 L113,496 L224,496 L218,411 L222,411 Q321,508 416,508 Q478,508 511,475.5 Q544,443 544,381 Q544,346 536,306 L475,0 L338,0 L396,290 Q403,325 403,341 Q403,391 352,391 Q282,391 212,303 L153,0 M111,-239 L113,-180 Q222,-176 222,-137 Q222,-106 165,-106 L203,-52 Q276,-55 303,-73.5 Q330,-92 330,-124 Q330,-232 111,-239"/> 
            <glyph glyph-name="Ň" unicode="&#x147;" horiz-adv-x="594" d=" M11,0 L142,652 L279,652 L357,310 L383,169 L387,169 Q401,332 415,400 L465,652 L594,652 L464,0 L330,0 L246,341 L221,483 L217,483 Q199,301 188,243 L141,0 M299,702 L219,831 L286,869 L384,778 L388,778 L525,870 L581,826 L459,702"/> 
            <glyph glyph-name="ň" unicode="&#x148;" horiz-adv-x="582" d=" M16,0 L113,496 L224,496 L218,411 L222,411 Q321,508 416,508 Q478,508 511,475.5 Q544,443 544,381 Q544,346 536,306 L475,0 L338,0 L396,290 Q403,325 403,341 Q403,391 352,391 Q282,391 212,303 L153,0 M301,579 L216,710 L277,762 L382,666 L386,666 L534,762 L582,706 L451,579"/> 
            <glyph glyph-name="ŉ" unicode="&#x149;" horiz-adv-x="659" d=" M165,0 L262,496 L374,496 L371,424 L375,424 Q467,508 547,508 Q659,508 659,381 Q659,351 650,306 L589,0 L452,0 L510,290 Q519,326 519,340 Q519,391 473,391 Q428,391 364,321 L302,0 M-21,317 L-37,388 Q21,402 60,433.5 Q99,465 112,505 Q100,502 88,502 Q59,502 39.5,523.5 Q20,545 20,583 Q20,631 51.5,664 Q83,697 129,697 Q175,697 202,666.5 Q229,636 229,581 Q229,485 160.5,414 Q92,343 -21,317"/> 
            <glyph glyph-name="Ŋ" unicode="&#x14A;" horiz-adv-x="566" d=" M320,-12 Q250,-12 222,7 L272,116 Q288,106 304,106 Q351,106 388.5,205 Q426,304 426,422 Q426,545 356,545 Q299,545 232,472 L139,0 L2,0 L133,652 L263,652 L251,590 Q322,664 410,664 Q566,664 566,431 Q566,248 497.5,118 Q429,-12 320,-12"/> 
            <glyph glyph-name="ŋ" unicode="&#x14B;" horiz-adv-x="544" d=" M288,-187 Q239,-187 193,-164 L234,-66 Q255,-78 277,-78 Q302,-78 315,-61 Q328,-44 338,-2 L396,290 Q403,325 403,341 Q403,391 352,391 Q282,391 212,303 L153,0 L16,0 L113,496 L224,496 L218,411 L222,411 Q321,508 416,508 Q478,508 511,475.5 Q544,443 544,381 Q544,346 536,306 L473,-8 Q436,-187 288,-187"/> 
            <glyph glyph-name="Ō" unicode="&#x14C;" horiz-adv-x="576" d=" M251,-12 Q149,-12 89.5,59.5 Q30,131 30,254 Q30,425 122.5,544.5 Q215,664 357,664 Q458,664 517,593 Q576,522 576,398 Q576,227 484.5,107.5 Q393,-12 251,-12 M265,106 Q339,106 387.5,195 Q436,284 436,411 Q436,545 344,545 Q269,545 220,456.5 Q171,368 171,241 Q171,106 265,106 M239,720 L256,808 L544,808 L526,720"/> 
            <glyph glyph-name="ō" unicode="&#x14D;" horiz-adv-x="543" d=" M254,-12 Q153,-12 94,48 Q35,108 35,209 Q35,339 121,423.5 Q207,508 323,508 Q425,508 484,448 Q543,388 543,287 Q543,157 457,72.5 Q371,-12 254,-12 M264,100 Q320,100 362,152.5 Q404,205 404,283 Q404,337 379.5,366.5 Q355,396 313,396 Q257,396 215,344 Q173,292 173,213 Q173,159 197.5,129.5 Q222,100 264,100 M216,593 L233,680 L516,680 L499,593"/> 
            <glyph glyph-name="Ŏ" unicode="&#x14E;" horiz-adv-x="576" d=" M251,-12 Q149,-12 89.5,59.5 Q30,131 30,254 Q30,425 122.5,544.5 Q215,664 357,664 Q458,664 517,593 Q576,522 576,398 Q576,227 484.5,107.5 Q393,-12 251,-12 M265,106 Q339,106 387.5,195 Q436,284 436,411 Q436,545 344,545 Q269,545 220,456.5 Q171,368 171,241 Q171,106 265,106 M376,697 Q225,697 234,842 L317,856 Q318,821 337.5,801.5 Q357,782 392,782 Q459,782 490,856 L567,842 Q526,697 376,697"/> 
            <glyph glyph-name="ŏ" unicode="&#x14F;" horiz-adv-x="551" d=" M254,-12 Q153,-12 94,48 Q35,108 35,209 Q35,339 121,423.5 Q207,508 323,508 Q425,508 484,448 Q543,388 543,287 Q543,157 457,72.5 Q371,-12 254,-12 M264,100 Q320,100 362,152.5 Q404,205 404,283 Q404,337 379.5,366.5 Q355,396 313,396 Q257,396 215,344 Q173,292 173,213 Q173,159 197.5,129.5 Q222,100 264,100 M436,572 Q272,572 237.5,615.5 Q203,659 213,729 L300,743 Q298,708 316,686 Q334,664 372,664 Q443,664 471,743 L551,729 Q537,659 436,572"/> 
            <glyph glyph-name="Ő" unicode="&#x150;" horiz-adv-x="645" d=" M251,-12 Q149,-12 89.5,59.5 Q30,131 30,254 Q30,425 122.5,544.5 Q215,664 357,664 Q458,664 517,593 Q576,522 576,398 Q576,227 484.5,107.5 Q393,-12 251,-12 M265,106 Q339,106 387.5,195 Q436,284 436,411 Q436,545 344,545 Q269,545 220,456.5 Q171,368 171,241 Q171,106 265,106 M311,697 L245,738 L374,888 L458,828 M499,697 L433,738 L561,888 L645,828"/> 
            <glyph glyph-name="ő" unicode="&#x151;" horiz-adv-x="624" d=" M254,-12 Q153,-12 94,48 Q35,108 35,209 Q35,339 121,423.5 Q207,508 323,508 Q425,508 484,448 Q543,388 543,287 Q543,157 457,72.5 Q371,-12 254,-12 M264,100 Q320,100 362,152.5 Q404,205 404,283 Q404,337 379.5,366.5 Q355,396 313,396 Q257,396 215,344 Q173,292 173,213 Q173,159 197.5,129.5 Q222,100 264,100 M307,567 L236,609 L356,780 L445,727 M486,567 L415,609 L535,780 L624,727"/> 
            <glyph glyph-name="Œ" unicode="&#x152;" horiz-adv-x="656" d=" M253,0 Q14,0 14,246 Q14,431 113.5,541.5 Q213,652 356,652 L656,652 L633,537 L465,537 L438,395 L563,395 L541,280 L416,280 L381,115 L557,115 L535,0 M257,110 L261,110 L347,542 L334,542 Q261,542 208,461.5 Q155,381 155,255 Q155,110 257,110"/> 
            <glyph glyph-name="œ" unicode="&#x153;" horiz-adv-x="596" d=" M130,-12 Q67,-12 29.5,39 Q-8,90 -8,179 Q-8,323 62.5,415.5 Q133,508 231,508 Q314,508 334,427 Q358,467 395.5,487.5 Q433,508 471,508 Q533,508 564.5,463.5 Q596,419 596,341 Q596,276 571,210 L340,210 Q339,200 339,181 Q339,93 413,93 Q454,93 509,129 L547,41 Q481,-12 392,-12 Q353,-12 320,6 Q287,24 273,56 Q221,-12 130,-12 M447,403 Q419,403 395.5,374 Q372,345 357,298 L486,298 Q491,323 491,340 Q491,403 447,403 M114,185 Q114,97 160,97 Q204,97 233,163 Q262,229 262,309 Q262,397 218,397 Q188,397 163,360.5 Q138,324 126,276 Q114,228 114,185"/> 
            <glyph glyph-name="Ŕ" unicode="&#x154;" horiz-adv-x="572" d=" M15,0 L146,652 L345,652 Q449,652 510.5,610.5 Q572,569 572,479 Q572,395 525.5,339 Q479,283 404,258 L510,0 L358,0 L272,239 L200,239 L153,0 M222,348 L282,348 Q354,348 394,379.5 Q434,411 434,465 Q434,543 326,543 L260,543 M338,686 L286,765 L481,889 L542,788"/> 
            <glyph glyph-name="ŕ" unicode="&#x155;" horiz-adv-x="580" d=" M73,0 L171,497 L282,496 L268,364 L272,364 Q311,431 365.5,469.5 Q420,508 477,508 Q543,508 575,487 L526,369 Q493,386 450,386 Q401,386 349.5,341.5 Q298,297 254,219 L210,0 M373,578 L313,656 L498,822 L580,718"/> 
            <glyph glyph-name="Ŗ" unicode="&#x156;" horiz-adv-x="572" d=" M15,0 L146,652 L345,652 Q449,652 510.5,610.5 Q572,569 572,479 Q572,395 525.5,339 Q479,283 404,258 L510,0 L358,0 L272,239 L200,239 L153,0 M222,348 L282,348 Q354,348 394,379.5 Q434,411 434,465 Q434,543 326,543 L260,543 M120,-239 L122,-180 Q231,-176 231,-137 Q231,-106 174,-106 L212,-52 Q285,-55 312,-73.5 Q339,-92 339,-124 Q339,-232 120,-239"/> 
            <glyph glyph-name="ŗ" unicode="&#x157;" horiz-adv-x="575" d=" M73,0 L171,497 L282,496 L268,364 L272,364 Q311,431 365.5,469.5 Q420,508 477,508 Q543,508 575,487 L526,369 Q493,386 450,386 Q401,386 349.5,341.5 Q298,297 254,219 L210,0 M6,-239 L8,-180 Q117,-176 117,-137 Q117,-106 60,-106 L98,-52 Q171,-55 198,-73.5 Q225,-92 225,-124 Q225,-232 6,-239"/> 
            <glyph glyph-name="Ř" unicode="&#x158;" horiz-adv-x="587" d=" M15,0 L146,652 L345,652 Q449,652 510.5,610.5 Q572,569 572,479 Q572,395 525.5,339 Q479,283 404,258 L510,0 L358,0 L272,239 L200,239 L153,0 M222,348 L282,348 Q354,348 394,379.5 Q434,411 434,465 Q434,543 326,543 L260,543 M305,702 L225,831 L292,869 L390,778 L394,778 L531,870 L587,826 L465,702"/> 
            <glyph glyph-name="ř" unicode="&#x159;" horiz-adv-x="607" d=" M73,0 L171,497 L282,496 L268,364 L272,364 Q311,431 365.5,469.5 Q420,508 477,508 Q543,508 575,487 L526,369 Q493,386 450,386 Q401,386 349.5,341.5 Q298,297 254,219 L210,0 M326,579 L241,710 L302,762 L407,666 L411,666 L559,762 L607,706 L476,579"/> 
            <glyph glyph-name="Ś" unicode="&#x15A;" horiz-adv-x="557" d=" M267,-12 Q104,-12 24,115 L113,193 Q171,105 263,105 Q309,105 336.5,124.5 Q364,144 364,178 Q364,204 346.5,222 Q329,240 289,264 L228,300 Q119,367 119,474 Q119,559 182.5,611.5 Q246,664 341,664 Q408,664 465.5,633.5 Q523,603 557,555 L470,480 Q413,548 340,548 Q305,548 282.5,530.5 Q260,513 260,484 Q260,460 275.5,443 Q291,426 322,407 L392,362 Q447,327 475.5,288 Q504,249 504,188 Q504,94 437,41 Q370,-12 267,-12 M323,686 L271,765 L466,889 L527,788"/> 
            </font>
</defs>
</svg>
