<?xml version="1.0" standalone="no"?>
<!DOCTYPE svg PUBLIC "-//W3C//DTD SVG 1.1//EN" "http://www.w3.org/Graphics/SVG/1.1/DTD/svg11.dtd" >
<svg xmlns="http://www.w3.org/2000/svg">
    <defs>
        <font id="SourceCodePro-Light">
            <font-face font-family="Source Code Pro Light"
                       units-per-em="1000"
                       ascent="984"
                       descent="-273"
                       bbox="-183 -400 783 1060"
                    />
            <missing-glyph horiz-adv-x="0" />
            
            <glyph glyph-name="!" unicode="&#x21;" horiz-adv-x="358" d=" M284,219 L279,599 L279,670 L321,670 L321,599 L316,219 M324,-12 Q276,-12 259,5 Q242,22 242,51 Q242,80 259,97 Q276,114 300,114 Q324,114 341,97 Q358,80 358,51 Q358,22 324,-12"/> 
            <glyph glyph-name="&quot;" unicode="&#x22;" horiz-adv-x="442" d=" M178,381 L158,599 L159,688 L234,688 L234,599 L214,381 M386,381 L366,599 L367,688 L442,688 L442,599 L422,381"/> 
            <glyph glyph-name="#" unicode="&#x23;" horiz-adv-x="509" d=" M338,0 L364,214 L215,214 L189,0 L154,0 L180,214 L96,214 L96,250 L185,250 L206,420 L116,420 L116,456 L210,456 L234,650 L268,650 L244,456 L394,456 L418,650 L453,650 L429,456 L509,456 L509,420 L425,420 L404,250 L489,250 L489,214 L399,214 L373,0 M369,250 L390,420 L240,420 L219,250"/> 
            <glyph glyph-name="$" unicode="&#x24;" horiz-adv-x="505" d=" M97,112 L121,144 Q208,73 311,73 Q381,73 420,103.5 Q459,134 459,184 Q459,224 425,253.5 Q391,283 342,301.5 Q293,320 244,340 Q195,360 161,393.5 Q127,427 127,473 Q127,535 171.5,573.5 Q216,612 288,617 L288,749 L327,749 L327,618 Q414,612 484,546 L458,518 Q419,551 387.5,565 Q356,579 305,579 Q245,579 208.5,550.5 Q172,522 172,475 Q172,439 206.5,412.5 Q241,386 289.5,368.5 Q338,351 387,330.5 Q436,310 470.5,274 Q505,238 505,187 Q505,122 454.5,81 Q404,40 327,35 L327,-110 L288,-110 L288,35 Q181,42 97,112"/> 
            <glyph glyph-name="%" unicode="&#x25;" horiz-adv-x="572" d=" M222,326 Q102,326 65,370 Q28,414 28,491 Q28,567 64.5,609 Q101,651 162,651 Q223,651 259.5,609 Q296,567 296,491 Q296,414 222,326 M120,358 Q204,358 230.5,393.5 Q257,429 257,491 Q257,553 230.5,586 Q204,619 162,619 Q120,619 93.5,586 Q67,553 67,491 Q67,429 120,358 M67,35 L35,63 L216,260 L238,240 M384,399 L362,419 L533,624 L565,596 M498,-12 Q378,-12 341,32 Q304,76 304,153 Q304,229 340.5,271 Q377,313 438,313 Q499,313 535.5,271 Q572,229 572,153 Q572,76 498,-12 M396,20 Q480,20 506.5,55.5 Q533,91 533,153 Q533,215 506.5,248 Q480,281 438,281 Q396,281 369.5,248 Q343,215 343,153 Q343,91 396,20"/> 
            <glyph glyph-name="&amp;" unicode="&#x26;" horiz-adv-x="571" d=" M242,-12 Q161,-12 107,37.5 Q53,87 53,167 Q53,225 87.5,269 Q122,313 186,361 Q141,451 141,524 Q141,588 178.5,629.5 Q216,671 275,671 Q328,671 357,637.5 Q386,604 386,551 Q386,521 375,494.5 Q364,468 336,440 Q308,412 292,398 Q276,384 235,353 Q305,227 417,128 Q481,210 518,345 L561,345 Q519,198 446,103 Q511,50 571,27 L556,-12 Q491,12 419,71 Q338,-12 242,-12 M182,526 Q182,464 219,385 Q250,408 267.5,422.5 Q285,437 306,459 Q327,481 336.5,503 Q346,525 346,549 Q346,585 328.5,610 Q311,635 274,635 Q232,635 207,604 Q182,573 182,526 M246,26 Q321,26 390,97 Q272,205 203,328 Q153,288 125.5,251.5 Q98,215 98,170 Q98,106 141,66 Q184,26 246,26"/> 
            <glyph glyph-name="'" unicode="&#x27;" horiz-adv-x="338" d=" M282,381 L262,599 L263,688 L338,688 L338,599 L318,381"/> 
            <glyph glyph-name="(" unicode="&#x28;" horiz-adv-x="481" d=" M456,-174 Q224,-6 224,278 Q224,562 456,730 L481,702 Q269,539 269,278 Q269,17 481,-146"/> 
            <glyph glyph-name=")" unicode="&#x29;" horiz-adv-x="376" d=" M144,-174 L119,-146 Q331,17 331,278 Q331,539 119,702 L144,730 Q376,562 376,278 Q376,-6 144,-174"/> 
            <glyph glyph-name="*" unicode="&#x2A;" horiz-adv-x="504" d=" M177,124 L148,144 L264,315 L97,386 L107,416 L278,355 L284,550 L316,550 L322,355 L493,416 L504,386 L336,315 L452,144 L423,124 L300,292"/> 
            <glyph glyph-name="+" unicode="&#x2B;" horiz-adv-x="505" d=" M279,110 L279,311 L95,311 L95,349 L279,349 L279,550 L321,550 L321,349 L505,349 L505,311 L321,311 L321,110"/> 
            <glyph glyph-name="," unicode="&#x2C;" horiz-adv-x="376" d=" M221,-211 L205,-179 Q266,-148 296.5,-105 Q327,-62 329,3 Q317,0 306,0 Q279,0 262.5,15 Q246,30 246,59 Q246,88 263.5,103.5 Q281,119 306,119 Q340,119 358,91.5 Q376,64 376,17 Q376,-144 221,-211"/> 
            <glyph glyph-name="-" unicode="&#x2D;" horiz-adv-x="505" d=" M95,311 L95,349 L505,349 L505,311"/> 
            <glyph glyph-name="." unicode="&#x2E;" horiz-adv-x="360" d=" M324,-12 Q276,-12 258,6 Q240,24 240,53 Q240,83 257.5,100.5 Q275,118 300,118 Q325,118 342.5,100.5 Q360,83 360,53 Q360,24 324,-12"/> 
            <glyph glyph-name="/" unicode="&#x2F;" horiz-adv-x="486" d=" M114,-160 L441,710 L486,710 L159,-160"/> 
            <glyph glyph-name="0" unicode="&#x30;" horiz-adv-x="519" d=" M404,-12 Q196,-12 138.5,76 Q81,164 81,322 Q81,480 138,565.5 Q195,651 300,651 Q405,651 462,565.5 Q519,480 519,322 Q519,164 404,-12 M220,26 Q380,26 427.5,103 Q475,180 475,322 Q475,464 427.5,538.5 Q380,613 300,613 Q220,613 172.5,538.5 Q125,464 125,322 Q125,180 220,26 M322,271 Q278,271 261.5,287 Q245,303 245,331 Q245,359 261.5,375 Q278,391 300,391 Q322,391 338.5,375 Q355,359 355,331 Q355,303 322,271"/> 
            <glyph glyph-name="1" unicode="&#x31;" horiz-adv-x="522" d=" M108,0 L108,39 L299,39 L299,569 L160,569 L160,599 Q251,612 310,639 L343,639 L343,39 L522,39 L522,0"/> 
            <glyph glyph-name="2" unicode="&#x32;" horiz-adv-x="514" d=" M82,0 L82,28 Q182,118 238.5,172.5 Q295,227 344.5,284.5 Q394,342 414,385.5 Q434,429 434,471 Q434,535 394.5,574 Q355,613 276,613 Q185,613 108,529 L79,557 Q173,651 280,651 Q373,651 425.5,602.5 Q478,554 478,472 Q478,426 457.5,379.5 Q437,333 387,274 Q337,215 288.5,167.5 Q240,120 149,35 Q252,40 269,40 L514,40 L514,0"/> 
            <glyph glyph-name="3" unicode="&#x33;" horiz-adv-x="511" d=" M292,-12 Q159,-12 67,78 L92,109 Q174,27 292,27 Q367,27 416,66 Q465,105 465,168 Q465,237 402,276.5 Q339,316 210,316 L210,355 Q329,355 385,393.5 Q441,432 441,494 Q441,548 399,580.5 Q357,613 289,613 Q192,613 120,543 L93,573 Q180,651 290,651 Q375,651 431,609.5 Q487,568 487,497 Q487,437 447.5,397.5 Q408,358 342,339 L342,335 Q413,321 462,277 Q511,233 511,169 Q511,88 448.5,38 Q386,-12 292,-12"/> 
            <glyph glyph-name="4" unicode="&#x34;" horiz-adv-x="538" d=" M384,0 L384,191 L42,191 L42,218 L392,640 L427,640 L427,230 L538,230 L538,191 L427,191 L427,0 M102,230 L384,230 L384,481 Q385,497 386.5,529.5 Q388,562 389,578 L383,578 Q372,562 350.5,533 Q329,504 321,493"/> 
            <glyph glyph-name="5" unicode="&#x35;" horiz-adv-x="516" d=" M287,-12 Q209,-12 158,11 Q107,34 62,74 L87,105 Q128,68 173,47.5 Q218,27 287,27 Q363,27 416.5,75 Q470,123 470,199 Q470,276 421.5,320 Q373,364 289,364 Q224,364 146,321 L115,340 L139,639 L483,639 L483,600 L179,600 L158,369 Q228,403 296,403 Q395,403 455.5,352.5 Q516,302 516,201 Q516,104 448,46 Q380,-12 287,-12"/> 
            <glyph glyph-name="6" unicode="&#x36;" horiz-adv-x="527" d=" M323,-12 Q213,-12 149.5,67 Q86,146 86,290 Q86,387 107.5,459 Q129,531 166.5,571.5 Q204,612 250,631.5 Q296,651 350,651 Q444,651 513,589 L486,559 Q431,612 350,612 Q253,612 192,536 Q131,460 131,296 Q221,386 327,386 Q420,386 473.5,334.5 Q527,283 527,188 Q527,103 466.5,45.5 Q406,-12 323,-12 M325,26 Q392,26 437,72.5 Q482,119 482,188 Q482,265 441,306.5 Q400,348 321,348 Q219,348 132,251 Q140,146 188,86 Q236,26 325,26"/> 
            <glyph glyph-name="7" unicode="&#x37;" horiz-adv-x="528" d=" M245,0 Q252,192 303.5,325.5 Q355,459 472,600 L74,600 L74,639 L528,639 L528,613 Q400,465 350.5,330 Q301,195 294,0"/> 
            <glyph glyph-name="8" unicode="&#x38;" horiz-adv-x="526" d=" M304,-12 Q199,-12 135.5,37.5 Q72,87 72,164 Q72,276 220,343 L220,347 Q120,404 120,495 Q120,564 172.5,607.5 Q225,651 305,651 Q396,651 447,604.5 Q498,558 498,484 Q498,440 469.5,398 Q441,356 396,324 L396,320 Q462,288 494,253 Q526,218 526,155 Q526,83 466.5,35.5 Q407,-12 304,-12 M357,335 Q455,401 455,483 Q455,539 415.5,576.5 Q376,614 305,614 Q242,614 202.5,580.5 Q163,547 163,495 Q163,433 212,399 Q261,365 357,335 M305,25 Q388,25 434.5,62 Q481,99 481,156 Q481,191 467,217 Q453,243 422,261 Q391,279 361.5,291 Q332,303 283,318 Q264,324 254,327 Q187,295 151.5,258 Q116,221 116,166 Q116,105 167.5,65 Q219,25 305,25"/> 
            <glyph glyph-name="9" unicode="&#x39;" horiz-adv-x="515" d=" M280,291 Q327,291 377,315.5 Q427,340 470,389 Q462,494 414,553.5 Q366,613 277,613 Q210,613 164.5,566.5 Q119,520 119,452 Q119,375 160,333 Q201,291 280,291 M252,-12 Q158,-12 88,50 L115,80 Q171,27 252,27 Q348,27 409.5,103 Q471,179 471,343 Q379,254 275,254 Q181,254 128,305.5 Q75,357 75,452 Q75,537 135,594 Q195,651 278,651 Q388,651 451.5,572.5 Q515,494 515,350 Q515,253 493.5,181 Q472,109 434.5,68 Q397,27 351.5,7.5 Q306,-12 252,-12"/> 
            <glyph glyph-name=":" unicode="&#x3A;" horiz-adv-x="360" d=" M324,366 Q276,366 258,384 Q240,402 240,431 Q240,461 257.5,478.5 Q275,496 300,496 Q325,496 342.5,478.5 Q360,461 360,431 Q360,402 324,366 M324,-12 Q276,-12 258,6 Q240,24 240,53 Q240,83 257.5,100.5 Q275,118 300,118 Q325,118 342.5,100.5 Q360,83 360,53 Q360,24 324,-12"/> 
            <glyph glyph-name=";" unicode="&#x3B;" horiz-adv-x="376" d=" M324,366 Q276,366 258,384 Q240,402 240,431 Q240,461 257.5,478.5 Q275,496 300,496 Q325,496 342.5,478.5 Q360,461 360,431 Q360,402 324,366 M221,-211 L205,-179 Q266,-148 296.5,-105 Q327,-62 329,3 Q317,0 306,0 Q279,0 262.5,15 Q246,30 246,59 Q246,88 263.5,103.5 Q281,119 306,119 Q340,119 358,91.5 Q376,64 376,17 Q376,-144 221,-211"/> 
            <glyph glyph-name="&lt;" unicode="&#x3C;" horiz-adv-x="488" d=" M488,58 L123,312 L123,352 L488,606 L488,558 L166,334 L166,330 L488,106"/> 
            <glyph glyph-name="=" unicode="&#x3D;" horiz-adv-x="505" d=" M95,413 L95,451 L505,451 L505,413 M95,209 L95,247 L505,247 L505,209"/> 
            <glyph glyph-name="&gt;" unicode="&#x3E;" horiz-adv-x="477" d=" M112,58 L112,106 L434,330 L434,334 L112,558 L112,606 L477,352 L477,312"/> 
            <glyph glyph-name="?" unicode="&#x3F;" horiz-adv-x="468" d=" M257,219 Q250,260 264.5,295.5 Q279,331 304.5,357.5 Q330,384 357,409 Q384,434 403.5,464 Q423,494 423,526 Q423,577 389.5,610 Q356,643 291,643 Q206,643 145,579 L116,606 Q190,682 294,682 Q374,682 421,639 Q468,596 468,530 Q468,492 448.5,458.5 Q429,425 402,399.5 Q375,374 348.5,348.5 Q322,323 306.5,290 Q291,257 297,219 M310,-12 Q262,-12 245,5 Q228,22 228,51 Q228,80 245,97 Q262,114 286,114 Q310,114 327,97 Q344,80 344,51 Q344,22 310,-12"/> 
            <glyph glyph-name="@" unicode="&#x40;" horiz-adv-x="543" d=" M342,-143 Q221,-143 140.5,-38 Q60,67 60,249 Q60,427 141,528.5 Q222,630 350,630 Q444,630 493.5,565 Q543,500 543,396 L543,100 L511,100 L506,162 L502,162 Q477,132 438,110 Q399,88 363,88 Q308,88 270.5,121 Q233,154 233,214 Q233,286 300.5,327 Q368,368 506,384 L506,398 Q506,485 466.5,540 Q427,595 346,595 Q240,595 170,501 Q100,407 100,246 Q100,85 167.5,-11 Q235,-107 342,-107 Q430,-107 488,-59 L508,-87 Q434,-143 342,-143 M370,124 Q436,124 504,204 L504,351 Q382,334 328,301.5 Q274,269 274,214 Q274,172 300,148 Q326,124 370,124"/> 
            <glyph glyph-name="A" unicode="&#x41;" horiz-adv-x="555" d=" M225,388 L183,265 L417,265 L375,388 Q329,521 302,616 L298,616 Q281,555 225,388 M45,0 L277,659 L323,659 L555,0 L506,0 L430,226 L169,226 L91,0"/> 
            <glyph glyph-name="B" unicode="&#x42;" horiz-adv-x="538" d=" M114,0 L114,659 L281,659 Q497,659 497,499 Q497,446 467,408 Q437,370 380,355 L380,351 Q455,340 496.5,299.5 Q538,259 538,192 Q538,98 474,49 Q410,0 294,0 M160,370 L263,370 Q362,370 406.5,401.5 Q451,433 451,497 Q451,562 406.5,591 Q362,620 268,620 L160,620 M160,39 L282,39 Q492,39 492,192 Q492,330 282,330 L160,330"/> 
            <glyph glyph-name="C" unicode="&#x43;" horiz-adv-x="545" d=" M348,-12 Q225,-12 148.5,81.5 Q72,175 72,331 Q72,487 149.5,579 Q227,671 355,671 Q459,671 526,592 L498,562 Q439,629 355,629 Q246,629 183,548.5 Q120,468 120,331 Q120,194 183,112 Q246,30 352,30 Q445,30 517,111 L545,82 Q462,-12 348,-12"/> 
            <glyph glyph-name="D" unicode="&#x44;" horiz-adv-x="546" d=" M96,0 L96,659 L248,659 Q396,659 471,572.5 Q546,486 546,332 Q546,177 471,88.5 Q396,0 249,0 M142,39 L244,39 Q372,39 435,118 Q498,197 498,332 Q498,466 435,543 Q372,620 244,620 L142,620"/> 
            <glyph glyph-name="E" unicode="&#x45;" horiz-adv-x="527" d=" M127,0 L127,659 L517,659 L517,619 L173,619 L173,370 L463,370 L463,330 L173,330 L173,40 L527,40 L527,0"/> 
            <glyph glyph-name="F" unicode="&#x46;" horiz-adv-x="535" d=" M150,0 L150,659 L535,659 L535,619 L196,619 L196,357 L481,357 L481,317 L196,317 L196,0"/> 
            <glyph glyph-name="G" unicode="&#x47;" horiz-adv-x="525" d=" M334,-12 Q210,-12 134.5,81 Q59,174 59,331 Q59,487 137,579 Q215,671 343,671 Q445,671 518,592 L491,562 Q431,629 343,629 Q234,629 170.5,548.5 Q107,468 107,331 Q107,193 168.5,111.5 Q230,30 337,30 Q432,30 480,80 L480,285 L328,285 L328,324 L525,324 L525,63 Q457,-12 334,-12"/> 
            <glyph glyph-name="H" unicode="&#x48;" horiz-adv-x="511" d=" M89,0 L89,659 L135,659 L135,370 L465,370 L465,659 L511,659 L511,0 L465,0 L465,330 L135,330 L135,0"/> 
            <glyph glyph-name="I" unicode="&#x49;" horiz-adv-x="493" d=" M107,0 L107,40 L277,40 L277,619 L107,619 L107,659 L493,659 L493,619 L323,619 L323,40 L493,40 L493,0"/> 
            <glyph glyph-name="J" unicode="&#x4A;" horiz-adv-x="480" d=" M277,-12 Q220,-12 170.5,16.5 Q121,45 93,98 L126,125 Q181,30 277,30 Q359,30 396.5,73.5 Q434,117 434,208 L434,621 L147,621 L147,660 L480,660 L480,204 Q480,-12 277,-12"/> 
            <glyph glyph-name="K" unicode="&#x4B;" horiz-adv-x="571" d=" M115,0 L115,659 L162,659 L162,293 L164,293 L489,659 L544,659 L329,416 L571,0 L518,0 L298,381 L162,227 L162,0"/> 
            <glyph glyph-name="L" unicode="&#x4C;" horiz-adv-x="539" d=" M150,0 L150,659 L194,659 L194,40 L539,40 L539,0"/> 
            <glyph glyph-name="M" unicode="&#x4D;" horiz-adv-x="519" d=" M81,0 L81,659 L142,659 L257,350 L298,235 L302,235 L341,350 L458,659 L519,659 L519,0 L474,0 L474,450 Q474,471 480,606 L477,606 L441,493 L317,175 L281,175 L159,493 L120,606 L118,606 Q119,592 121,559 Q123,526 124,498.5 Q125,471 125,450 L125,0"/> 
            <glyph glyph-name="N" unicode="&#x4E;" horiz-adv-x="508" d=" M92,0 L92,659 L141,659 L398,193 L468,63 L470,63 Q470,90 467,154.5 Q464,219 464,254 L464,659 L508,659 L508,0 L459,0 L202,466 L132,596 L130,596 Q130,568 133,505.5 Q136,443 136,409 L136,0"/> 
            <glyph glyph-name="O" unicode="&#x4F;" horiz-adv-x="546" d=" M409,-12 Q191,-12 122.5,82 Q54,176 54,332 Q54,487 122.5,579 Q191,671 300,671 Q409,671 477.5,579 Q546,487 546,332 Q546,176 409,-12 M211,30 Q389,30 443.5,112.5 Q498,195 498,332 Q498,468 443.5,548.5 Q389,629 300,629 Q211,629 156.5,548.5 Q102,468 102,332 Q102,195 211,30"/> 
            <glyph glyph-name="P" unicode="&#x50;" horiz-adv-x="532" d=" M118,0 L118,659 L297,659 Q413,659 472.5,616 Q532,573 532,475 Q532,380 470.5,331.5 Q409,283 297,283 L164,283 L164,0 M164,322 L286,322 Q388,322 436.5,358.5 Q485,395 485,475 Q485,556 437.5,588 Q390,620 286,620 L164,620"/> 
            <glyph glyph-name="Q" unicode="&#x51;" horiz-adv-x="543" d=" M210,27 Q390,27 443,110 Q496,193 496,332 Q496,469 443,550.5 Q390,632 300,632 Q210,632 157,550.5 Q104,469 104,332 Q104,193 210,27 M477,-153 Q399,-153 348.5,-114 Q298,-75 275,-11 Q177,0 117,93 Q57,186 57,332 Q57,487 124,579.5 Q191,672 300,672 Q410,672 476.5,580 Q543,488 543,332 Q543,186 484,93.5 Q425,1 326,-10 Q360,-110 482,-110 Q511,-110 529,-102 L538,-144 Q506,-153 477,-153"/> 
            <glyph glyph-name="R" unicode="&#x52;" horiz-adv-x="535" d=" M117,0 L117,659 L305,659 Q522,659 522,485 Q522,408 477,362.5 Q432,317 353,306 L535,0 L481,0 L303,303 L163,303 L163,0 M163,341 L293,341 Q475,341 475,485 Q475,557 429.5,588.5 Q384,620 293,620 L163,620"/> 
            <glyph glyph-name="S" unicode="&#x53;" horiz-adv-x="529" d=" M309,-12 Q170,-12 76,87 L106,119 Q188,30 310,30 Q389,30 436,66.5 Q483,103 483,161 Q483,191 474,213 Q465,235 443.5,251.5 Q422,268 405,277 Q388,286 354,300 L255,345 Q226,357 205.5,368.5 Q185,380 161,399 Q137,418 124,446 Q111,474 111,509 Q111,580 168,625.5 Q225,671 312,671 Q427,671 506,592 L479,562 Q410,629 311,629 Q242,629 199.5,597 Q157,565 157,511 Q157,484 167.5,463 Q178,442 201,426.5 Q224,411 238.5,403.5 Q253,396 281,384 L380,340 Q452,310 490.5,272 Q529,234 529,165 Q529,88 468,38 Q407,-12 309,-12"/> 
            <glyph glyph-name="T" unicode="&#x54;" horiz-adv-x="552" d=" M277,0 L277,619 L48,619 L48,659 L552,659 L552,619 L323,619 L323,0"/> 
            <glyph glyph-name="U" unicode="&#x55;" horiz-adv-x="511" d=" M300,-12 Q207,-12 148,48 Q89,108 89,247 L89,659 L135,659 L135,252 Q135,133 180.5,81.5 Q226,30 300,30 Q375,30 421.5,81.5 Q468,133 468,252 L468,659 L511,659 L511,247 Q511,108 452.5,48 Q394,-12 300,-12"/> 
            <glyph glyph-name="V" unicode="&#x56;" horiz-adv-x="541" d=" M276,0 L59,659 L108,659 L230,274 Q239,246 252,203 Q265,160 276,124.5 Q287,89 299,53 L303,53 Q316,90 373,274 L495,659 L541,659 L326,0"/> 
            <glyph glyph-name="W" unicode="&#x57;" horiz-adv-x="586" d=" M122,0 L14,660 L60,660 L130,209 Q132,189 139.5,136.5 Q147,84 150,53 L153,53 Q160,79 174.5,130 Q189,181 196,209 L278,488 L325,488 L407,209 Q415,179 430,125.5 Q445,72 450,53 L454,53 Q457,79 474,209 L541,660 L586,660 L480,0 L421,0 L330,313 Q325,333 316,371.5 Q307,410 302,428 L299,428 Q272,322 269,313 L181,0"/> 
            <glyph glyph-name="X" unicode="&#x58;" horiz-adv-x="525" d=" M75,0 L274,341 L89,659 L139,659 L248,465 Q254,455 264,438 Q274,421 283,406 Q292,391 302,375 L306,375 Q333,426 355,465 L464,659 L511,659 L326,339 L525,0 L475,0 L359,202 Q352,215 299,307 L295,307 Q282,284 263,248.5 Q244,213 238,202 L122,0"/> 
            <glyph glyph-name="Y" unicode="&#x59;" horiz-adv-x="549" d=" M277,0 L277,242 L51,659 L98,659 L215,441 Q232,413 260,360 Q288,307 300,286 L304,286 Q340,347 390,442 L504,659 L549,659 L323,242 L323,0"/> 
            <glyph glyph-name="Z" unicode="&#x5A;" horiz-adv-x="535" d=" M70,0 L70,28 L473,621 L104,621 L104,660 L528,660 L528,632 L125,40 L535,40 L535,0"/> 
            <glyph glyph-name="[" unicode="&#x5B;" horiz-adv-x="505" d=" M240,-152 L240,708 L505,708 L505,679 L279,679 L279,-123 L505,-123 L505,-152"/> 
            <glyph glyph-name="\" unicode="&#x5C;" horiz-adv-x="486" d=" M441,-160 L114,710 L159,710 L486,-160"/> 
            <glyph glyph-name="]" unicode="&#x5D;" horiz-adv-x="360" d=" M95,-152 L95,-123 L321,-123 L321,679 L95,679 L95,708 L360,708 L360,-152"/> 
            <glyph glyph-name="^" unicode="&#x5E;" horiz-adv-x="474" d=" M126,290 L277,670 L323,670 L474,290 L431,290 L353,493 L302,626 L298,626 L247,493 L169,290"/> 
            <glyph glyph-name="_" unicode="&#x5F;" horiz-adv-x="540" d=" M60,-125 L60,-79 L540,-79 L540,-125"/> 
            <glyph glyph-name="`" unicode="&#x60;" horiz-adv-x="355" d=" M331,572 L187,723 L221,754 L355,595"/> 
            <glyph glyph-name="a" unicode="&#x61;" horiz-adv-x="504" d=" M259,-12 Q189,-12 140.5,22 Q92,56 92,120 Q92,200 178,242 Q264,284 460,301 Q458,453 317,453 Q228,453 135,388 L115,421 Q152,447 208.5,469.5 Q265,492 322,492 Q414,492 459,441 Q504,390 504,307 L504,0 L467,0 L462,72 L460,72 Q355,-12 259,-12 M267,26 Q358,26 460,113 L460,267 Q282,251 209.5,216.5 Q137,182 137,122 Q137,74 175,50 Q213,26 267,26"/> 
            <glyph glyph-name="b" unicode="&#x62;" horiz-adv-x="533" d=" M310,-12 Q273,-12 229,6 Q185,24 149,54 L147,54 L142,0 L105,0 L105,719 L150,719 L150,511 L147,408 L149,408 Q186,446 234.5,469 Q283,492 329,492 Q429,492 481,426.5 Q533,361 533,247 Q533,129 468,58.5 Q403,-12 310,-12 M308,27 Q386,27 436,88.5 Q486,150 486,247 Q486,341 446,397 Q406,453 322,453 Q238,453 150,365 L150,98 Q228,27 308,27"/> 
            <glyph glyph-name="c" unicode="&#x63;" horiz-adv-x="534" d=" M347,-12 Q232,-12 159.5,55 Q87,122 87,239 Q87,356 162,424 Q237,492 349,492 Q445,492 522,419 L496,389 Q427,453 350,453 Q254,453 194,393.5 Q134,334 134,239 Q134,144 193,85.5 Q252,27 349,27 Q437,27 511,96 L534,65 Q450,-12 347,-12"/> 
            <glyph glyph-name="d" unicode="&#x64;" horiz-adv-x="495" d=" M279,-12 Q183,-12 125,54 Q67,120 67,239 Q67,352 133.5,422 Q200,492 293,492 Q375,492 451,424 L453,424 L450,521 L450,719 L495,719 L495,0 L457,0 L452,71 L450,71 Q371,-12 279,-12 M285,27 Q367,27 450,115 L450,382 Q376,453 296,453 Q220,453 167,391 Q114,329 114,239 Q114,143 160,85 Q206,27 285,27"/> 
            <glyph glyph-name="e" unicode="&#x65;" horiz-adv-x="532" d=" M330,-12 Q222,-12 149.5,56.5 Q77,125 77,240 Q77,353 148,422.5 Q219,492 317,492 Q416,492 474,432.5 Q532,373 532,270 Q532,245 530,233 L122,233 Q125,136 185,81 Q245,26 333,26 Q419,26 494,78 L512,45 Q427,-12 330,-12 M318,454 Q246,454 189.5,404.5 Q133,355 124,271 L492,271 Q487,361 440.5,407.5 Q394,454 318,454"/> 
            <glyph glyph-name="f" unicode="&#x66;" horiz-adv-x="574" d=" M260,0 L260,442 L115,442 L115,476 L260,480 L260,538 Q260,630 305,680.5 Q350,731 439,731 Q512,731 574,702 L560,668 Q504,693 442,693 Q302,693 302,542 L302,480 L525,480 L525,442 L302,442 L302,0"/> 
            <glyph glyph-name="g" unicode="&#x67;" horiz-adv-x="562" d=" M308,-231 Q198,-231 141,-194 Q84,-157 84,-92 Q84,-29 165,21 L165,25 Q115,50 115,102 Q115,153 173,193 L173,197 Q116,243 116,321 Q116,394 168.5,443 Q221,492 295,492 Q332,492 361,480 L561,480 L561,442 L416,442 Q472,386 472,320 Q472,247 421,200 Q370,153 295,153 Q247,153 204,175 Q157,146 157,108 Q157,41 268,41 L387,41 Q479,41 520.5,16 Q562,-9 562,-67 Q562,-132 491,-181.5 Q420,-231 308,-231 M239,188 Q351,188 389.5,225.5 Q428,263 428,321 Q428,379 389.5,417 Q351,455 295,455 Q239,455 200,417 Q161,379 161,321 Q161,263 239,188 M305,-195 Q399,-195 457.5,-157.5 Q516,-120 516,-72 Q516,-33 486,-17 Q456,-1 391,-1 L277,-1 Q232,-1 204,8 Q126,-34 126,-93 Q126,-138 172,-166.5 Q218,-195 305,-195"/> 
            <glyph glyph-name="h" unicode="&#x68;" horiz-adv-x="514" d=" M105,0 L105,719 L150,719 L150,511 L147,385 L149,385 Q247,492 341,492 Q514,492 514,299 L514,0 L469,0 L469,293 Q469,375 437,413.5 Q405,452 334,452 Q285,452 245,427 Q205,402 150,344 L150,0"/> 
            <glyph glyph-name="i" unicode="&#x69;" horiz-adv-x="396" d=" M338,0 L338,442 L97,442 L97,480 L382,480 L382,0 M369,597 Q329,597 315.5,610 Q302,623 302,645 Q302,666 315.5,679.5 Q329,693 349,693 Q369,693 382.5,679.5 Q396,666 396,645 Q396,623 369,597"/> 
            <glyph glyph-name="j" unicode="&#x6A;" horiz-adv-x="396" d=" M194,-229 Q127,-229 63,-197 L81,-162 Q139,-191 197,-191 Q276,-191 307,-153.5 Q338,-116 338,-43 L338,442 L97,442 L97,480 L382,480 L382,-37 Q382,-131 339,-180 Q296,-229 194,-229 M369,597 Q329,597 315.5,610 Q302,623 302,645 Q302,666 315.5,679.5 Q329,693 349,693 Q369,693 382.5,679.5 Q396,666 396,645 Q396,623 369,597"/> 
            <glyph glyph-name="k" unicode="&#x6B;" horiz-adv-x="567" d=" M123,0 L123,719 L168,719 L168,191 L172,191 L480,480 L535,480 L338,295 L567,0 L516,0 L308,267 L168,136 L168,0"/> 
            <glyph glyph-name="l" unicode="&#x6C;" horiz-adv-x="533" d=" M414,-12 Q271,-12 271,145 L271,681 L92,681 L92,719 L315,719 L315,139 Q315,27 420,27 Q468,27 519,52 L533,18 Q472,-12 414,-12"/> 
            <glyph glyph-name="m" unicode="&#x6D;" horiz-adv-x="546" d=" M74,0 L74,480 L111,480 L116,415 L118,415 Q141,454 166,473 Q191,492 229,492 Q305,492 324,407 Q353,452 378.5,472 Q404,492 442,492 Q546,492 546,348 L546,0 L502,0 L502,343 Q502,452 433,452 Q402,452 379,430.5 Q356,409 331,362 L331,0 L289,0 L289,343 Q289,452 221,452 Q189,452 165.5,430.5 Q142,409 118,362 L118,0"/> 
            <glyph glyph-name="n" unicode="&#x6E;" horiz-adv-x="514" d=" M105,0 L105,480 L143,480 L148,388 L152,388 Q199,438 243.5,465 Q288,492 341,492 Q514,492 514,299 L514,0 L469,0 L469,293 Q469,375 437,413.5 Q405,452 334,452 Q285,452 245,427 Q205,402 150,344 L150,0"/> 
            <glyph glyph-name="o" unicode="&#x6F;" horiz-adv-x="533" d=" M398,-12 Q202,-12 134.5,56 Q67,124 67,239 Q67,356 134,424 Q201,492 300,492 Q399,492 466,424 Q533,356 533,239 Q533,124 398,-12 M219,27 Q381,27 433.5,86 Q486,145 486,239 Q486,334 433.5,393.5 Q381,453 300,453 Q219,453 166.5,393.5 Q114,334 114,239 Q114,145 219,27"/> 
            <glyph glyph-name="p" unicode="&#x70;" horiz-adv-x="533" d=" M105,-217 L105,480 L143,480 L148,411 L150,411 Q187,447 235.5,469.5 Q284,492 329,492 Q429,492 481,426.5 Q533,361 533,247 Q533,129 467.5,58.5 Q402,-12 308,-12 Q272,-12 228,6.5 Q184,25 149,56 L147,56 L150,-42 L150,-217 M306,27 Q385,27 435.5,88.5 Q486,150 486,247 Q486,341 446,397 Q406,453 322,453 Q238,453 150,365 L150,98 Q189,62 231.5,44.5 Q274,27 306,27"/> 
            <glyph glyph-name="q" unicode="&#x71;" horiz-adv-x="495" d=" M450,-217 L450,-24 L453,72 L451,72 Q369,-12 279,-12 Q183,-12 125,54 Q67,120 67,239 Q67,352 133.5,422 Q200,492 293,492 Q374,492 451,425 L453,425 L458,480 L495,480 L495,-217 M285,27 Q367,27 450,115 L450,382 Q376,453 296,453 Q220,453 167,391 Q114,329 114,239 Q114,143 160,85 Q206,27 285,27"/> 
            <glyph glyph-name="r" unicode="&#x72;" horiz-adv-x="530" d=" M163,0 L163,480 L201,480 L206,362 L208,362 Q297,492 434,492 Q493,492 530,472 L518,433 Q468,450 427,450 Q299,450 208,300 L208,0"/> 
            <glyph glyph-name="s" unicode="&#x73;" horiz-adv-x="517" d=" M319,-12 Q190,-12 82,64 L105,96 Q197,26 323,26 Q393,26 432,53.5 Q471,81 471,121 Q471,159 438.5,184 Q406,209 302,230 Q110,268 110,364 Q110,420 158,456 Q206,492 298,492 Q345,492 396,475.5 Q447,459 482,433 L458,401 Q387,454 295,454 Q222,454 189,429.5 Q156,405 156,367 Q156,330 193,308 Q230,286 314,268 Q434,243 475.5,211 Q517,179 517,123 Q517,66 463.5,27 Q410,-12 319,-12"/> 
            <glyph glyph-name="t" unicode="&#x74;" horiz-adv-x="543" d=" M397,-12 Q303,-12 264,37.5 Q225,87 225,180 L225,442 L80,442 L80,476 L226,480 L232,639 L269,639 L269,480 L525,480 L525,442 L269,442 L269,176 Q269,101 298,64 Q327,27 403,27 Q470,27 531,52 L543,18 Q470,-12 397,-12"/> 
            <glyph glyph-name="u" unicode="&#x75;" horiz-adv-x="494" d=" M259,-12 Q87,-12 87,181 L87,480 L131,480 L131,187 Q131,106 163.5,67 Q196,28 266,28 Q316,28 357.5,53.5 Q399,79 450,137 L450,480 L494,480 L494,0 L457,0 L452,93 L448,93 Q358,-12 259,-12"/> 
            <glyph glyph-name="v" unicode="&#x76;" horiz-adv-x="538" d=" M278,0 L62,480 L108,480 L240,179 Q273,107 300,41 L304,41 Q312,61 331.5,107 Q351,153 362,179 L495,480 L538,480 L325,0"/> 
            <glyph glyph-name="w" unicode="&#x77;" horiz-adv-x="589" d=" M134,0 L11,480 L58,480 L134,169 Q154,88 163,41 L167,41 Q172,66 198,169 L275,472 L328,472 L404,169 L436,41 L440,41 Q448,73 470,169 L545,480 L589,480 L468,0 L408,0 L333,290 Q327,313 317,359 Q307,405 302,428 L298,428 Q278,329 267,289 L194,0"/> 
            <glyph glyph-name="x" unicode="&#x78;" horiz-adv-x="520" d=" M80,0 L272,249 L96,480 L146,480 L239,358 Q286,294 299,277 L303,277 Q342,327 366,360 L456,480 L505,480 L326,247 L520,0 L469,0 L367,130 Q361,138 336.5,170.5 Q312,203 299,219 L295,219 Q258,171 228,129 L129,0"/> 
            <glyph glyph-name="y" unicode="&#x79;" horiz-adv-x="540" d=" M125,-219 Q90,-219 67,-209 L79,-170 Q103,-178 126,-178 Q226,-178 276,-51 L293,-9 L60,480 L106,480 L246,178 Q295,74 312,43 L316,43 Q316,44 372,178 L497,480 L540,480 L314,-60 Q290,-129 242.5,-174 Q195,-219 125,-219"/> 
            <glyph glyph-name="z" unicode="&#x7A;" horiz-adv-x="526" d=" M72,0 L72,24 L448,442 L112,442 L112,480 L515,480 L515,457 L139,39 L526,39 L526,0"/> 
            <glyph glyph-name="{" unicode="&#x7B;" horiz-adv-x="505" d=" M453,-152 Q356,-152 312.5,-124 Q269,-96 269,-24 Q269,14 273.5,81 Q278,148 278,182 Q278,262 129,262 L129,294 Q278,294 278,374 Q278,406 273.5,476 Q269,546 269,580 Q269,652 312.5,680 Q356,708 453,708 L505,708 L505,679 L447,679 Q366,679 338,655.5 Q310,632 310,576 Q310,546 313.5,481 Q317,416 317,384 Q317,338 298.5,313.5 Q280,289 232,280 L232,276 Q280,267 298.5,242.5 Q317,218 317,172 Q317,135 313.5,73.5 Q310,12 310,-20 Q310,-76 338,-99.5 Q366,-123 447,-123 L505,-123 L505,-152"/> 
            <glyph glyph-name="|" unicode="&#x7C;" horiz-adv-x="320" d=" M280,-250 L280,750 L320,750 L320,-250"/> 
            <glyph glyph-name="}" unicode="&#x7D;" horiz-adv-x="470" d=" M95,-152 L95,-123 L153,-123 Q234,-123 263,-99.5 Q292,-76 292,-20 Q292,12 288,73.5 Q284,135 284,172 Q284,218 302,242.5 Q320,267 369,276 L369,280 Q320,289 302,313.5 Q284,338 284,384 Q284,416 288,481 Q292,546 292,576 Q292,632 263,655.5 Q234,679 153,679 L95,679 L95,708 L147,708 Q244,708 287,680 Q330,652 330,580 Q330,546 326,476 Q322,406 322,374 Q322,294 470,294 L470,262 Q322,262 322,182 Q322,148 326,81 Q330,14 330,-24 Q330,-96 287,-124 Q244,-152 147,-152"/> 
            <glyph glyph-name="~" unicode="&#x7E;" horiz-adv-x="509" d=" M389,266 Q357,266 324,288.5 Q291,311 261.5,333.5 Q232,356 209,356 Q180,356 160,338 Q140,320 122,267 L91,279 Q128,394 211,394 Q243,394 276,371.5 Q309,349 338.5,326.5 Q368,304 391,304 Q420,304 440,321 Q460,338 478,393 L509,379 Q471,266 389,266"/> 
            <glyph glyph-name="¡" unicode="&#xA1;" horiz-adv-x="358" d=" M279,-190 L279,-119 L284,261 L316,261 L321,-119 L321,-190 M324,366 Q276,366 259,383 Q242,400 242,429 Q242,458 259,475 Q276,492 300,492 Q324,492 341,475 Q358,458 358,429 Q358,400 324,366"/> 
            <glyph glyph-name="¢" unicode="&#xA2;" horiz-adv-x="496" d=" M168,311 Q168,233 207.5,182 Q247,131 315,121 L315,502 Q250,491 209,439.5 Q168,388 168,311 M315,-28 L315,81 Q229,89 175.5,150 Q122,211 122,311 Q122,410 176.5,471 Q231,532 315,541 L315,652 L350,652 L350,543 Q424,541 484,483 L460,455 Q406,504 350,504 L350,119 Q416,122 473,173 L496,144 Q428,83 350,80 L350,-28"/> 
            <glyph glyph-name="£" unicode="&#xA3;" horiz-adv-x="520" d=" M85,0 L85,27 Q212,86 212,221 Q212,251 201,293 L81,293 L81,326 L189,329 Q186,338 178.5,358.5 Q171,379 167.5,390 Q164,401 159,418.5 Q154,436 152,451 Q150,466 150,481 Q150,560 203.5,605.5 Q257,651 349,651 Q454,651 518,580 L489,553 Q430,612 347,612 Q273,612 232.5,575 Q192,538 192,481 Q192,462 196.5,440.5 Q201,419 204.5,406.5 Q208,394 218.5,365.5 Q229,337 232,329 L433,329 L433,293 L243,293 Q252,252 252,221 Q252,161 232,119.5 Q212,78 169,44 L169,40 L520,40 L520,0"/> 
            <glyph glyph-name="¤" unicode="&#xA4;" horiz-adv-x="529" d=" M98,94 L71,122 L157,209 Q119,260 119,328 Q119,399 156,450 L71,538 L98,566 L184,477 Q233,521 300,521 Q366,521 416,477 L502,566 L529,538 L443,450 Q481,397 481,328 Q481,262 443,209 L529,122 L502,94 L416,182 Q368,137 300,137 Q233,137 183,182 M243,174 Q357,174 397,217.5 Q437,261 437,328 Q437,396 397,440 Q357,484 300,484 Q243,484 203,440 Q163,396 163,328 Q163,261 243,174"/> 
            <glyph glyph-name="¥" unicode="&#xA5;" horiz-adv-x="535" d=" M277,0 L277,165 L88,165 L88,199 L277,199 L277,270 L88,270 L88,303 L263,303 L65,639 L112,639 L222,446 Q239,416 298,309 L302,309 Q355,406 380,446 L491,639 L535,639 L335,303 L512,303 L512,270 L321,270 L321,199 L512,199 L512,165 L321,165 L321,0"/> 
            <glyph glyph-name="¦" unicode="&#xA6;" horiz-adv-x="320" d=" M280,-250 L280,190 L320,190 L320,-250 M280,310 L280,750 L320,750 L320,310"/> 
            <glyph glyph-name="§" unicode="&#xA7;" horiz-adv-x="498" d=" M294,-52 Q194,-52 124,11 L154,39 Q215,-15 294,-15 Q339,-15 366.5,9.5 Q394,34 394,70 Q394,107 364,133 Q334,159 291,176 Q248,193 205,212.5 Q162,232 132,267 Q102,302 102,352 Q102,435 200,483 Q166,517 166,564 Q166,611 201.5,646 Q237,681 302,681 Q380,681 451,628 L427,597 Q365,643 303,643 Q256,643 232.5,621 Q209,599 209,567 Q209,531 239,505.5 Q269,480 311.5,463 Q354,446 396,426.5 Q438,407 468,371 Q498,335 498,284 Q498,237 473.5,208 Q449,179 403,155 Q436,120 436,72 Q436,19 394,-16.5 Q352,-52 294,-52 M143,355 Q143,318 168,290.5 Q193,263 224,249.5 Q255,236 301,216 Q347,196 372,180 Q416,198 436.5,220 Q457,242 457,281 Q457,319 432,347.5 Q407,376 376.5,390 Q346,404 300,424 Q254,444 230,460 Q186,438 164.5,414.5 Q143,391 143,355"/> 
            <glyph glyph-name="¨" unicode="&#xA8;" horiz-adv-x="429" d=" M228,598 Q194,598 182.5,610.5 Q171,623 171,640 Q171,657 182.5,669 Q194,681 211,681 Q228,681 239.5,669 Q251,657 251,640 Q251,623 228,598 M406,598 Q372,598 360.5,610.5 Q349,623 349,640 Q349,657 360.5,669 Q372,681 389,681 Q406,681 417.5,669 Q429,657 429,640 Q429,623 406,598"/> 
            <glyph glyph-name="©" unicode="&#xA9;" horiz-adv-x="563" d=" M416,-12 Q184,-12 110.5,80 Q37,172 37,322 Q37,472 110,562 Q183,652 300,652 Q417,652 490,562 Q563,472 563,322 Q563,172 416,-12 M197,19 Q403,19 465.5,102.5 Q528,186 528,322 Q528,458 465.5,540 Q403,622 300,622 Q197,622 134.5,540 Q72,458 72,322 Q72,186 197,19 M305,124 Q239,124 194.5,177.5 Q150,231 150,322 Q150,406 197,457.5 Q244,509 310,509 Q367,509 410,464 L388,438 Q349,472 310,472 Q259,472 226,430.5 Q193,389 193,322 Q193,248 224.5,204.5 Q256,161 307,161 Q354,161 401,201 L420,173 Q366,124 305,124"/> 
            <glyph glyph-name="ª" unicode="&#xAA;" horiz-adv-x="437" d=" M277,398 Q233,398 203.5,421 Q174,444 174,486 Q174,538 227.5,566 Q281,594 397,605 Q395,698 316,698 Q267,698 206,662 L189,690 Q254,731 321,731 Q437,731 437,606 L437,406 L403,406 L400,446 L399,446 Q334,398 277,398 M286,431 Q336,431 397,478 L397,577 Q299,567 256.5,546 Q214,525 214,489 Q214,460 234.5,445.5 Q255,431 286,431"/> 
            <glyph glyph-name="«" unicode="&#xAB;" horiz-adv-x="481" d=" M248,68 L106,231 L106,273 L248,436 L273,413 L147,252 L273,89 M456,68 L314,231 L314,273 L456,436 L481,413 L355,252 L481,89"/> 
            <glyph glyph-name="¬" unicode="&#xAC;" horiz-adv-x="505" d=" M464,110 L464,311 L95,311 L95,349 L505,349 L505,110"/> 
            <glyph glyph-name="­" unicode="&#xAD;" horiz-adv-x="505" d=" M95,311 L95,349 L505,349 L505,311"/> 
            <glyph glyph-name="®" unicode="&#xAE;" horiz-adv-x="482" d=" M376,324 Q224,324 171,378 Q118,432 118,517 Q118,603 171,657.5 Q224,712 300,712 Q376,712 429,657.5 Q482,603 482,517 Q482,432 376,324 M236,353 Q364,353 407.5,399.5 Q451,446 451,517 Q451,588 407,636 Q363,684 300,684 Q237,684 193,636 Q149,588 149,517 Q149,446 236,353 M232,418 L232,624 L301,624 Q378,624 378,560 Q378,541 366.5,525 Q355,509 338,504 L387,418 L350,418 L311,494 L264,494 L264,418 M264,521 L293,521 Q344,521 344,558 Q344,596 296,596 L264,596"/> 
            <glyph glyph-name="¯" unicode="&#xAF;" horiz-adv-x="423" d=" M177,606 L177,642 L423,642 L423,606"/> 
            <glyph glyph-name="°" unicode="&#xB0;" horiz-adv-x="414" d=" M347,447 Q253,447 219.5,479.5 Q186,512 186,565 Q186,619 219.5,651.5 Q253,684 300,684 Q347,684 380.5,651.5 Q414,619 414,565 Q414,512 347,447 M265,479 Q335,479 357.5,503.5 Q380,528 380,565 Q380,603 357.5,628 Q335,653 300,653 Q265,653 242.5,628 Q220,603 220,565 Q220,528 265,479"/> 
            <glyph glyph-name="±" unicode="&#xB1;" horiz-adv-x="505" d=" M279,109 L279,310 L95,310 L95,347 L279,347 L279,550 L321,550 L321,347 L505,347 L505,310 L321,310 L321,109 M95,0 L95,37 L505,37 L505,0"/> 
            <glyph glyph-name="²" unicode="&#xB2;" horiz-adv-x="440" d=" M166,406 L165,431 Q182,446 209.5,471 Q237,496 250,507.5 Q263,519 283.5,538.5 Q304,558 313,567.5 Q322,577 335.5,592 Q349,607 355,616 Q361,625 367.5,637 Q374,649 376,659.5 Q378,670 378,681 Q378,724 352,749 Q326,774 282,774 Q222,774 181,712 L156,735 Q175,767 211,787.5 Q247,808 286,808 Q346,808 381.5,776.5 Q417,745 417,685 Q417,661 409.5,640 Q402,619 379.5,591.5 Q357,564 343.5,549.5 Q330,535 287,495.5 Q244,456 228,440 L440,440 L440,406"/> 
            <glyph glyph-name="³" unicode="&#xB3;" horiz-adv-x="437" d=" M296,394 Q249,394 210,415 Q171,436 149,469 L178,491 Q197,462 229,444.5 Q261,427 297,427 Q339,427 368.5,449.5 Q398,472 398,510 Q398,590 250,590 L250,618 Q316,618 349,642 Q382,666 382,702 Q382,735 356.5,755 Q331,775 289,775 Q232,775 190,723 L165,745 Q214,808 293,808 Q348,808 384.5,780 Q421,752 421,705 Q421,635 336,606 Q382,600 409.5,574.5 Q437,549 437,509 Q437,456 397,425 Q357,394 296,394"/> 
            <glyph glyph-name="´" unicode="&#xB4;" horiz-adv-x="413" d=" M269,572 L245,595 L379,754 L413,723"/> 
            <glyph glyph-name="µ" unicode="&#xB5;" horiz-adv-x="531" d=" M96,-182 L96,480 L140,480 L140,187 Q140,28 264,28 Q314,28 356,52 Q398,76 441,149 L441,480 L485,480 Q482,60 482,58 Q482,27 506,27 Q514,27 524,29 L531,-7 Q516,-12 500,-12 Q467,-12 454,11.5 Q441,35 443,99 L441,99 Q375,-11 267,-11 Q173,-11 135,58 Q135,-76 140,-182"/> 
            <glyph glyph-name="¶" unicode="&#xB6;" horiz-adv-x="461" d=" M336,244 Q87,244 87,451 Q87,559 148.5,609 Q210,659 319,659 L363,659 L363,244 M419,-80 L419,659 L461,659 L461,-80"/> 
            <glyph glyph-name="·" unicode="&#xB7;" horiz-adv-x="360" d=" M324,278 Q276,278 258,296 Q240,314 240,343 Q240,373 257.5,390.5 Q275,408 300,408 Q325,408 342.5,390.5 Q360,373 360,343 Q360,314 324,278"/> 
            <glyph glyph-name="¸" unicode="&#xB8;" horiz-adv-x="368" d=" M223,-219 L216,-189 Q279,-185 304,-172 Q329,-159 329,-136 Q329,-114 311,-102.5 Q293,-91 251,-85 L285,7 L320,7 L297,-65 Q368,-83 368,-134 Q368,-210 223,-219"/> 
            <glyph glyph-name="¹" unicode="&#xB9;" horiz-adv-x="461" d=" M180,406 L180,440 L305,440 L305,730 L203,730 L203,757 Q273,767 310,796 L343,796 L343,440 L461,440 L461,406"/> 
            <glyph glyph-name="º" unicode="&#xBA;" horiz-adv-x="452" d=" M300,398 Q236,398 192,443 Q148,488 148,565 Q148,642 192,686.5 Q236,731 300,731 Q365,731 408.5,686.5 Q452,642 452,565 Q452,488 408.5,443 Q365,398 300,398 M251,432 Q349,432 379.5,469 Q410,506 410,565 Q410,624 379.5,661 Q349,698 300,698 Q251,698 220.5,661 Q190,624 190,565 Q190,506 251,432"/> 
            <glyph glyph-name="»" unicode="&#xBB;" horiz-adv-x="494" d=" M144,68 L119,89 L245,252 L119,413 L144,436 L286,273 L286,231 M352,68 L327,89 L453,252 L327,413 L352,436 L494,273 L494,231"/> 
            <glyph glyph-name="¼" unicode="&#xBC;" horiz-adv-x="565" d=" M157,338 L157,579 L75,579 L75,608 Q124,617 164,639 L195,639 L195,338 M67,35 L35,63 L216,260 L238,240 M384,399 L362,419 L533,624 L565,596 M479,0 L479,81 L316,81 L316,101 L440,313 L468,298 L359,110 L479,110 L479,212 L515,212 L515,110 L565,110 L565,81 L515,81 L515,0"/> 
            <glyph glyph-name="½" unicode="&#xBD;" horiz-adv-x="565" d=" M157,338 L157,579 L75,579 L75,608 Q124,617 164,639 L195,639 L195,338 M67,35 L35,63 L216,260 L238,240 M384,399 L362,419 L533,624 L565,596 M330,0 L330,24 Q403,83 430,106.5 Q457,130 478.5,158.5 Q500,187 500,212 Q500,244 482,262 Q464,280 430,280 Q383,280 349,234 L322,255 Q369,313 432,313 Q483,313 511,287 Q539,261 539,213 Q539,203 537,194 Q535,185 529.5,174.5 Q524,164 520,156.5 Q516,149 505.5,137 Q495,125 489,118.5 Q483,112 468,98.5 Q453,85 446,78.5 Q439,72 421,56 Q403,40 395,33 L556,33 L556,0"/> 
            <glyph glyph-name="¾" unicode="&#xBE;" horiz-adv-x="601" d=" M158,326 Q123,326 89.5,343.5 Q56,361 36,387 L63,411 Q98,358 159,358 Q232,358 232,416 Q232,477 123,477 L123,505 Q170,505 193.5,522 Q217,539 217,567 Q217,619 152,619 Q106,619 74,581 L51,604 Q88,651 157,651 Q202,651 229,630 Q256,609 256,570 Q256,514 198,493 Q231,487 251,467 Q271,447 271,415 Q271,372 240,349 Q209,326 158,326 M103,35 L71,63 L252,260 L274,240 M420,399 L398,419 L569,624 L601,596 M479,0 L479,81 L316,81 L316,101 L440,313 L468,298 L359,110 L479,110 L479,212 L515,212 L515,110 L565,110 L565,81 L515,81 L515,0"/> 
            <glyph glyph-name="¿" unicode="&#xBF;" horiz-adv-x="484" d=" M306,-202 Q226,-202 179,-159 Q132,-116 132,-50 Q132,-12 151.5,21.5 Q171,55 198,80.5 Q225,106 251.5,131.5 Q278,157 293.5,190 Q309,223 303,261 L343,261 Q350,220 335.5,184.5 Q321,149 295.5,122.5 Q270,96 243,71 Q216,46 196.5,16 Q177,-14 177,-46 Q177,-97 210.5,-130 Q244,-163 309,-163 Q393,-163 455,-99 L484,-126 Q410,-202 306,-202 M338,366 Q290,366 273,383 Q256,400 256,429 Q256,458 273,475 Q290,492 314,492 Q338,492 355,475 Q372,458 372,429 Q372,400 338,366"/> 
            <glyph glyph-name="À" unicode="&#xC0;" horiz-adv-x="555" d=" M225,388 L183,265 L417,265 L375,388 Q329,521 302,616 L298,616 Q281,555 225,388 M45,0 L277,659 L323,659 L555,0 L506,0 L430,226 L169,226 L91,0 M324,706 L191,819 L220,852 L344,729"/> 
            <glyph glyph-name="Á" unicode="&#xC1;" horiz-adv-x="555" d=" M225,388 L183,265 L417,265 L375,388 Q329,521 302,616 L298,616 Q281,555 225,388 M45,0 L277,659 L323,659 L555,0 L506,0 L430,226 L169,226 L91,0 M276,706 L256,729 L380,852 L409,819"/> 
            <glyph glyph-name="Â" unicode="&#xC2;" horiz-adv-x="555" d=" M225,388 L183,265 L417,265 L375,388 Q329,521 302,616 L298,616 Q281,555 225,388 M45,0 L277,659 L323,659 L555,0 L506,0 L430,226 L169,226 L91,0 M185,707 L165,726 L278,839 L322,839 L435,726 L415,707 L302,805 L298,805"/> 
            <glyph glyph-name="Ã" unicode="&#xC3;" horiz-adv-x="555" d=" M225,388 L183,265 L417,265 L375,388 Q329,521 302,616 L298,616 Q281,555 225,388 M45,0 L277,659 L323,659 L555,0 L506,0 L430,226 L169,226 L91,0 M377,718 Q351,718 328,730.5 Q305,743 291.5,757.5 Q278,772 259.5,784.5 Q241,797 223,797 Q201,797 186,776.5 Q171,756 168,721 L135,724 Q137,772 160.5,803 Q184,834 223,834 Q249,834 272,821.5 Q295,809 308.5,794.5 Q322,780 340.5,767.5 Q359,755 377,755 Q398,755 412.5,775.5 Q427,796 432,832 L465,829 Q463,781 439.5,749.5 Q416,718 377,718"/> 
            <glyph glyph-name="Ä" unicode="&#xC4;" horiz-adv-x="555" d=" M225,388 L183,265 L417,265 L375,388 Q329,521 302,616 L298,616 Q281,555 225,388 M45,0 L277,659 L323,659 L555,0 L506,0 L430,226 L169,226 L91,0 M236,725 Q204,725 193.5,735 Q183,745 183,762 Q183,778 193.5,788.5 Q204,799 220,799 Q236,799 246.5,788.5 Q257,778 257,762 Q257,745 236,725 M396,725 Q364,725 353.5,735 Q343,745 343,762 Q343,778 353.5,788.5 Q364,799 380,799 Q396,799 406.5,788.5 Q417,778 417,762 Q417,745 396,725"/> 
            <glyph glyph-name="Å" unicode="&#xC5;" horiz-adv-x="555" d=" M225,388 L183,265 L417,265 L375,388 Q329,521 302,616 L298,616 Q281,555 225,388 M45,0 L277,659 L323,659 L555,0 L506,0 L430,226 L169,226 L91,0 M337,700 Q263,700 237.5,723.5 Q212,747 212,785 Q212,824 237,847.5 Q262,871 300,871 Q337,871 362.5,847.5 Q388,824 388,785 Q388,748 337,700 M300,726 Q324,726 340,741.5 Q356,757 356,785 Q356,812 340,828.5 Q324,845 300,845 Q275,845 258.5,829 Q242,813 242,785 Q242,757 258.5,741.5 Q275,726 300,726"/> 
            <glyph glyph-name="Æ" unicode="&#xC6;" horiz-adv-x="589" d=" M217,389 L159,255 L321,255 L321,619 L317,619 Q299,576 264.5,497.5 Q230,419 217,389 M0,0 L291,659 L579,659 L579,619 L365,619 L365,370 L528,370 L528,330 L365,330 L365,40 L589,40 L589,0 L321,0 L321,217 L143,217 L50,0"/> 
            <glyph glyph-name="Ç" unicode="&#xC7;" horiz-adv-x="545" d=" M277,-219 L270,-189 Q333,-185 358,-172 Q383,-159 383,-136 Q383,-114 365,-102.5 Q347,-91 305,-85 L332,-12 Q216,-5 144,88 Q72,181 72,331 Q72,487 149.5,579 Q227,671 355,671 Q459,671 526,592 L498,562 Q439,629 355,629 Q246,629 183,548.5 Q120,468 120,331 Q120,194 183,112 Q246,30 352,30 Q445,30 517,111 L545,82 Q468,-4 368,-11 L351,-65 Q422,-83 422,-134 Q422,-210 277,-219"/> 
            <glyph glyph-name="È" unicode="&#xC8;" horiz-adv-x="527" d=" M127,0 L127,659 L517,659 L517,619 L173,619 L173,370 L463,370 L463,330 L173,330 L173,40 L527,40 L527,0 M360,706 L227,819 L256,852 L380,729"/> 
            <glyph glyph-name="É" unicode="&#xC9;" horiz-adv-x="527" d=" M127,0 L127,659 L517,659 L517,619 L173,619 L173,370 L463,370 L463,330 L173,330 L173,40 L527,40 L527,0 M312,706 L292,729 L416,852 L445,819"/> 
            <glyph glyph-name="Ê" unicode="&#xCA;" horiz-adv-x="527" d=" M127,0 L127,659 L517,659 L517,619 L173,619 L173,370 L463,370 L463,330 L173,330 L173,40 L527,40 L527,0 M221,707 L201,726 L314,839 L358,839 L471,726 L451,707 L338,805 L334,805"/> 
            <glyph glyph-name="Ë" unicode="&#xCB;" horiz-adv-x="527" d=" M127,0 L127,659 L517,659 L517,619 L173,619 L173,370 L463,370 L463,330 L173,330 L173,40 L527,40 L527,0 M272,725 Q240,725 229.5,735 Q219,745 219,762 Q219,778 229.5,788.5 Q240,799 256,799 Q272,799 282.5,788.5 Q293,778 293,762 Q293,745 272,725 M432,725 Q400,725 389.5,735 Q379,745 379,762 Q379,778 389.5,788.5 Q400,799 416,799 Q432,799 442.5,788.5 Q453,778 453,762 Q453,745 432,725"/> 
            <glyph glyph-name="Ì" unicode="&#xCC;" horiz-adv-x="493" d=" M107,0 L107,40 L277,40 L277,619 L107,619 L107,659 L493,659 L493,619 L323,619 L323,40 L493,40 L493,0 M324,706 L191,819 L220,852 L344,729"/> 
            <glyph glyph-name="Í" unicode="&#xCD;" horiz-adv-x="493" d=" M107,0 L107,40 L277,40 L277,619 L107,619 L107,659 L493,659 L493,619 L323,619 L323,40 L493,40 L493,0 M276,706 L256,729 L380,852 L409,819"/> 
            <glyph glyph-name="Î" unicode="&#xCE;" horiz-adv-x="493" d=" M107,0 L107,40 L277,40 L277,619 L107,619 L107,659 L493,659 L493,619 L323,619 L323,40 L493,40 L493,0 M185,707 L165,726 L278,839 L322,839 L435,726 L415,707 L302,805 L298,805"/> 
            <glyph glyph-name="Ï" unicode="&#xCF;" horiz-adv-x="493" d=" M107,0 L107,40 L277,40 L277,619 L107,619 L107,659 L493,659 L493,619 L323,619 L323,40 L493,40 L493,0 M236,725 Q204,725 193.5,735 Q183,745 183,762 Q183,778 193.5,788.5 Q204,799 220,799 Q236,799 246.5,788.5 Q257,778 257,762 Q257,745 236,725 M396,725 Q364,725 353.5,735 Q343,745 343,762 Q343,778 353.5,788.5 Q364,799 380,799 Q396,799 406.5,788.5 Q417,778 417,762 Q417,745 396,725"/> 
            <glyph glyph-name="Ð" unicode="&#xD0;" horiz-adv-x="546" d=" M96,0 L96,331 L19,331 L19,364 L96,369 L96,659 L248,659 Q396,659 471,572.5 Q546,486 546,332 Q546,177 471,88.5 Q396,0 249,0 M142,39 L244,39 Q372,39 435,118 Q498,197 498,332 Q498,466 435,543 Q372,620 244,620 L142,620 L142,369 L307,369 L307,331 L142,331"/> 
            <glyph glyph-name="Ñ" unicode="&#xD1;" horiz-adv-x="508" d=" M92,0 L92,659 L141,659 L398,193 L468,63 L470,63 Q470,90 467,154.5 Q464,219 464,254 L464,659 L508,659 L508,0 L459,0 L202,466 L132,596 L130,596 Q130,568 133,505.5 Q136,443 136,409 L136,0 M387,718 Q361,718 338,730.5 Q315,743 301.5,757.5 Q288,772 269.5,784.5 Q251,797 233,797 Q211,797 196,776.5 Q181,756 178,721 L145,724 Q147,772 170.5,803 Q194,834 233,834 Q259,834 282,821.5 Q305,809 318.5,794.5 Q332,780 350.5,767.5 Q369,755 387,755 Q408,755 422.5,775.5 Q437,796 442,832 L475,829 Q473,781 449.5,749.5 Q426,718 387,718"/> 
            <glyph glyph-name="Ò" unicode="&#xD2;" horiz-adv-x="546" d=" M409,-12 Q191,-12 122.5,82 Q54,176 54,332 Q54,487 122.5,579 Q191,671 300,671 Q409,671 477.5,579 Q546,487 546,332 Q546,176 409,-12 M211,30 Q389,30 443.5,112.5 Q498,195 498,332 Q498,468 443.5,548.5 Q389,629 300,629 Q211,629 156.5,548.5 Q102,468 102,332 Q102,195 211,30 M324,706 L191,819 L220,852 L344,729"/> 
            <glyph glyph-name="Ó" unicode="&#xD3;" horiz-adv-x="546" d=" M409,-12 Q191,-12 122.5,82 Q54,176 54,332 Q54,487 122.5,579 Q191,671 300,671 Q409,671 477.5,579 Q546,487 546,332 Q546,176 409,-12 M211,30 Q389,30 443.5,112.5 Q498,195 498,332 Q498,468 443.5,548.5 Q389,629 300,629 Q211,629 156.5,548.5 Q102,468 102,332 Q102,195 211,30 M276,706 L256,729 L380,852 L409,819"/> 
            <glyph glyph-name="Ô" unicode="&#xD4;" horiz-adv-x="546" d=" M409,-12 Q191,-12 122.5,82 Q54,176 54,332 Q54,487 122.5,579 Q191,671 300,671 Q409,671 477.5,579 Q546,487 546,332 Q546,176 409,-12 M211,30 Q389,30 443.5,112.5 Q498,195 498,332 Q498,468 443.5,548.5 Q389,629 300,629 Q211,629 156.5,548.5 Q102,468 102,332 Q102,195 211,30 M185,707 L165,726 L278,839 L322,839 L435,726 L415,707 L302,805 L298,805"/> 
            <glyph glyph-name="Õ" unicode="&#xD5;" horiz-adv-x="546" d=" M409,-12 Q191,-12 122.5,82 Q54,176 54,332 Q54,487 122.5,579 Q191,671 300,671 Q409,671 477.5,579 Q546,487 546,332 Q546,176 409,-12 M211,30 Q389,30 443.5,112.5 Q498,195 498,332 Q498,468 443.5,548.5 Q389,629 300,629 Q211,629 156.5,548.5 Q102,468 102,332 Q102,195 211,30 M377,718 Q351,718 328,730.5 Q305,743 291.5,757.5 Q278,772 259.5,784.5 Q241,797 223,797 Q201,797 186,776.5 Q171,756 168,721 L135,724 Q137,772 160.5,803 Q184,834 223,834 Q249,834 272,821.5 Q295,809 308.5,794.5 Q322,780 340.5,767.5 Q359,755 377,755 Q398,755 412.5,775.5 Q427,796 432,832 L465,829 Q463,781 439.5,749.5 Q416,718 377,718"/> 
            <glyph glyph-name="Ö" unicode="&#xD6;" horiz-adv-x="546" d=" M409,-12 Q191,-12 122.5,82 Q54,176 54,332 Q54,487 122.5,579 Q191,671 300,671 Q409,671 477.5,579 Q546,487 546,332 Q546,176 409,-12 M211,30 Q389,30 443.5,112.5 Q498,195 498,332 Q498,468 443.5,548.5 Q389,629 300,629 Q211,629 156.5,548.5 Q102,468 102,332 Q102,195 211,30 M236,725 Q204,725 193.5,735 Q183,745 183,762 Q183,778 193.5,788.5 Q204,799 220,799 Q236,799 246.5,788.5 Q257,778 257,762 Q257,745 236,725 M396,725 Q364,725 353.5,735 Q343,745 343,762 Q343,778 353.5,788.5 Q364,799 380,799 Q396,799 406.5,788.5 Q417,778 417,762 Q417,745 396,725"/> 
            <glyph glyph-name="×" unicode="&#xD7;" horiz-adv-x="488" d=" M139,135 L112,163 L274,330 L112,497 L139,525 L300,356 L461,525 L488,497 L327,330 L488,163 L461,135 L300,303"/> 
            <glyph glyph-name="Ø" unicode="&#xD8;" horiz-adv-x="546" d=" M300,-12 Q204,-12 139,61 L83,-23 L52,-2 L115,92 Q54,187 54,332 Q54,487 122.5,579 Q191,671 300,671 Q395,671 459,602 L513,682 L544,661 L483,571 Q546,480 546,332 Q546,176 477.5,82 Q409,-12 300,-12 M102,332 Q102,213 144,134 L433,563 Q381,629 300,629 Q211,629 156.5,548.5 Q102,468 102,332 M300,30 Q389,30 443.5,112.5 Q498,195 498,332 Q498,452 455,529 L166,100 Q219,30 300,30"/> 
            <glyph glyph-name="Ù" unicode="&#xD9;" horiz-adv-x="511" d=" M300,-12 Q207,-12 148,48 Q89,108 89,247 L89,659 L135,659 L135,252 Q135,133 180.5,81.5 Q226,30 300,30 Q375,30 421.5,81.5 Q468,133 468,252 L468,659 L511,659 L511,247 Q511,108 452.5,48 Q394,-12 300,-12 M324,706 L191,819 L220,852 L344,729"/> 
            <glyph glyph-name="Ú" unicode="&#xDA;" horiz-adv-x="511" d=" M300,-12 Q207,-12 148,48 Q89,108 89,247 L89,659 L135,659 L135,252 Q135,133 180.5,81.5 Q226,30 300,30 Q375,30 421.5,81.5 Q468,133 468,252 L468,659 L511,659 L511,247 Q511,108 452.5,48 Q394,-12 300,-12 M276,706 L256,729 L380,852 L409,819"/> 
            <glyph glyph-name="Û" unicode="&#xDB;" horiz-adv-x="511" d=" M300,-12 Q207,-12 148,48 Q89,108 89,247 L89,659 L135,659 L135,252 Q135,133 180.5,81.5 Q226,30 300,30 Q375,30 421.5,81.5 Q468,133 468,252 L468,659 L511,659 L511,247 Q511,108 452.5,48 Q394,-12 300,-12 M185,707 L165,726 L278,839 L322,839 L435,726 L415,707 L302,805 L298,805"/> 
            <glyph glyph-name="Ü" unicode="&#xDC;" horiz-adv-x="511" d=" M300,-12 Q207,-12 148,48 Q89,108 89,247 L89,659 L135,659 L135,252 Q135,133 180.5,81.5 Q226,30 300,30 Q375,30 421.5,81.5 Q468,133 468,252 L468,659 L511,659 L511,247 Q511,108 452.5,48 Q394,-12 300,-12 M236,725 Q204,725 193.5,735 Q183,745 183,762 Q183,778 193.5,788.5 Q204,799 220,799 Q236,799 246.5,788.5 Q257,778 257,762 Q257,745 236,725 M396,725 Q364,725 353.5,735 Q343,745 343,762 Q343,778 353.5,788.5 Q364,799 380,799 Q396,799 406.5,788.5 Q417,778 417,762 Q417,745 396,725"/> 
            <glyph glyph-name="Ý" unicode="&#xDD;" horiz-adv-x="549" d=" M277,0 L277,242 L51,659 L98,659 L215,441 Q232,413 260,360 Q288,307 300,286 L304,286 Q340,347 390,442 L504,659 L549,659 L323,242 L323,0 M276,706 L256,729 L380,852 L409,819"/> 
            <glyph glyph-name="Þ" unicode="&#xDE;" horiz-adv-x="533" d=" M118,0 L118,659 L164,659 L164,542 L298,542 Q413,542 473,499 Q533,456 533,358 Q533,263 471.5,214.5 Q410,166 298,166 L164,166 L164,0 M164,205 L286,205 Q388,205 436.5,241.5 Q485,278 485,358 Q485,438 437.5,470.5 Q390,503 286,503 L164,503"/> 
            <glyph glyph-name="ß" unicode="&#xDF;" horiz-adv-x="560" d=" M403,-12 Q322,-12 257,38 L280,71 Q340,26 403,26 Q456,26 485.5,55 Q515,84 515,124 Q515,162 491.5,188.5 Q468,215 434.5,231 Q401,247 367.5,262.5 Q334,278 310.5,305.5 Q287,333 287,373 Q287,405 304,435.5 Q321,466 341,485.5 Q361,505 378,533.5 Q395,562 395,592 Q395,636 366.5,664.5 Q338,693 288,693 Q223,693 185.5,649 Q148,605 148,519 L148,0 L104,0 L104,533 Q104,623 155.5,677 Q207,731 290,731 Q357,731 398,692 Q439,653 439,595 Q439,560 422.5,528.5 Q406,497 385.5,477 Q365,457 348.5,430 Q332,403 332,377 Q332,346 355.5,324 Q379,302 412.5,287 Q446,272 479.5,255 Q513,238 536.5,205.5 Q560,173 560,127 Q560,68 515,28 Q470,-12 403,-12"/> 
            <glyph glyph-name="à" unicode="&#xE0;" horiz-adv-x="504" d=" M259,-12 Q189,-12 140.5,22 Q92,56 92,120 Q92,200 178,242 Q264,284 460,301 Q458,453 317,453 Q228,453 135,388 L115,421 Q152,447 208.5,469.5 Q265,492 322,492 Q414,492 459,441 Q504,390 504,307 L504,0 L467,0 L462,72 L460,72 Q355,-12 259,-12 M267,26 Q358,26 460,113 L460,267 Q282,251 209.5,216.5 Q137,182 137,122 Q137,74 175,50 Q213,26 267,26 M351,572 L207,723 L241,754 L375,595"/> 
            <glyph glyph-name="á" unicode="&#xE1;" horiz-adv-x="504" d=" M259,-12 Q189,-12 140.5,22 Q92,56 92,120 Q92,200 178,242 Q264,284 460,301 Q458,453 317,453 Q228,453 135,388 L115,421 Q152,447 208.5,469.5 Q265,492 322,492 Q414,492 459,441 Q504,390 504,307 L504,0 L467,0 L462,72 L460,72 Q355,-12 259,-12 M267,26 Q358,26 460,113 L460,267 Q282,251 209.5,216.5 Q137,182 137,122 Q137,74 175,50 Q213,26 267,26 M289,572 L265,595 L399,754 L433,723"/> 
            <glyph glyph-name="â" unicode="&#xE2;" horiz-adv-x="504" d=" M259,-12 Q189,-12 140.5,22 Q92,56 92,120 Q92,200 178,242 Q264,284 460,301 Q458,453 317,453 Q228,453 135,388 L115,421 Q152,447 208.5,469.5 Q265,492 322,492 Q414,492 459,441 Q504,390 504,307 L504,0 L467,0 L462,72 L460,72 Q355,-12 259,-12 M267,26 Q358,26 460,113 L460,267 Q282,251 209.5,216.5 Q137,182 137,122 Q137,74 175,50 Q213,26 267,26 M204,572 L182,593 L299,737 L341,737 L458,593 L436,572 L322,698 L318,698"/> 
            <glyph glyph-name="ã" unicode="&#xE3;" horiz-adv-x="504" d=" M259,-12 Q189,-12 140.5,22 Q92,56 92,120 Q92,200 178,242 Q264,284 460,301 Q458,453 317,453 Q228,453 135,388 L115,421 Q152,447 208.5,469.5 Q265,492 322,492 Q414,492 459,441 Q504,390 504,307 L504,0 L467,0 L462,72 L460,72 Q355,-12 259,-12 M267,26 Q358,26 460,113 L460,267 Q282,251 209.5,216.5 Q137,182 137,122 Q137,74 175,50 Q213,26 267,26 M396,579 Q370,579 348,594 Q326,609 312.5,627 Q299,645 280.5,660 Q262,675 244,675 Q195,675 190,582 L156,584 Q164,710 245,710 Q277,710 303,686 Q329,662 351.5,638 Q374,614 397,614 Q444,614 450,707 L484,705 Q476,579 396,579"/> 
            <glyph glyph-name="ä" unicode="&#xE4;" horiz-adv-x="504" d=" M259,-12 Q189,-12 140.5,22 Q92,56 92,120 Q92,200 178,242 Q264,284 460,301 Q458,453 317,453 Q228,453 135,388 L115,421 Q152,447 208.5,469.5 Q265,492 322,492 Q414,492 459,441 Q504,390 504,307 L504,0 L467,0 L462,72 L460,72 Q355,-12 259,-12 M267,26 Q358,26 460,113 L460,267 Q282,251 209.5,216.5 Q137,182 137,122 Q137,74 175,50 Q213,26 267,26 M248,598 Q214,598 202.5,610.5 Q191,623 191,640 Q191,657 202.5,669 Q214,681 231,681 Q248,681 259.5,669 Q271,657 271,640 Q271,623 248,598 M426,598 Q392,598 380.5,610.5 Q369,623 369,640 Q369,657 380.5,669 Q392,681 409,681 Q426,681 437.5,669 Q449,657 449,640 Q449,623 426,598"/> 
            <glyph glyph-name="å" unicode="&#xE5;" horiz-adv-x="504" d=" M259,-12 Q189,-12 140.5,22 Q92,56 92,120 Q92,200 178,242 Q264,284 460,301 Q458,453 317,453 Q228,453 135,388 L115,421 Q152,447 208.5,469.5 Q265,492 322,492 Q414,492 459,441 Q504,390 504,307 L504,0 L467,0 L462,72 L460,72 Q355,-12 259,-12 M267,26 Q358,26 460,113 L460,267 Q282,251 209.5,216.5 Q137,182 137,122 Q137,74 175,50 Q213,26 267,26 M363,570 Q277,570 250,596 Q223,622 223,661 Q223,701 250,727 Q277,753 320,753 Q363,753 390,727 Q417,701 417,661 Q417,622 363,570 M293,596 Q347,596 366,615 Q385,634 385,661 Q385,689 366,708 Q347,727 320,727 Q293,727 274,708 Q255,689 255,661 Q255,634 293,596"/> 
            <glyph glyph-name="æ" unicode="&#xE6;" horiz-adv-x="599" d=" M143,-12 Q88,-12 53,21.5 Q18,55 18,114 Q18,188 79.5,232.5 Q141,277 279,295 Q278,453 177,453 Q113,453 54,410 L35,442 Q111,492 181,492 Q280,492 307,375 Q329,433 368.5,462.5 Q408,492 455,492 Q525,492 562,431.5 Q599,371 599,280 Q599,252 597,233 L319,233 Q321,138 356.5,82.5 Q392,27 461,27 Q516,27 567,62 L585,29 Q524,-12 459,-12 Q359,-12 311,84 Q232,-12 143,-12 M151,26 Q188,26 228.5,50.5 Q269,75 298,117 Q279,171 279,243 L279,261 Q157,244 109.5,209 Q62,174 62,116 Q62,74 86.5,50 Q111,26 151,26 M454,454 Q402,454 364,409 Q326,364 320,271 L561,271 Q556,454 454,454"/> 
            <glyph glyph-name="ç" unicode="&#xE7;" horiz-adv-x="534" d=" M272,-219 L265,-189 Q328,-185 353,-172 Q378,-159 378,-136 Q378,-114 360,-102.5 Q342,-91 300,-85 L327,-11 Q220,-6 153.5,61 Q87,128 87,239 Q87,356 162,424 Q237,492 349,492 Q445,492 522,419 L496,389 Q427,453 350,453 Q254,453 194,393.5 Q134,334 134,239 Q134,144 193,85.5 Q252,27 349,27 Q437,27 511,96 L534,65 Q459,-5 363,-12 L346,-65 Q417,-83 417,-134 Q417,-210 272,-219"/> 
            <glyph glyph-name="è" unicode="&#xE8;" horiz-adv-x="532" d=" M330,-12 Q222,-12 149.5,56.5 Q77,125 77,240 Q77,353 148,422.5 Q219,492 317,492 Q416,492 474,432.5 Q532,373 532,270 Q532,245 530,233 L122,233 Q125,136 185,81 Q245,26 333,26 Q419,26 494,78 L512,45 Q427,-12 330,-12 M318,454 Q246,454 189.5,404.5 Q133,355 124,271 L492,271 Q487,361 440.5,407.5 Q394,454 318,454 M350,572 L206,723 L240,754 L374,595"/> 
            <glyph glyph-name="é" unicode="&#xE9;" horiz-adv-x="532" d=" M330,-12 Q222,-12 149.5,56.5 Q77,125 77,240 Q77,353 148,422.5 Q219,492 317,492 Q416,492 474,432.5 Q532,373 532,270 Q532,245 530,233 L122,233 Q125,136 185,81 Q245,26 333,26 Q419,26 494,78 L512,45 Q427,-12 330,-12 M318,454 Q246,454 189.5,404.5 Q133,355 124,271 L492,271 Q487,361 440.5,407.5 Q394,454 318,454 M288,572 L264,595 L398,754 L432,723"/> 
            <glyph glyph-name="ê" unicode="&#xEA;" horiz-adv-x="532" d=" M330,-12 Q222,-12 149.5,56.5 Q77,125 77,240 Q77,353 148,422.5 Q219,492 317,492 Q416,492 474,432.5 Q532,373 532,270 Q532,245 530,233 L122,233 Q125,136 185,81 Q245,26 333,26 Q419,26 494,78 L512,45 Q427,-12 330,-12 M318,454 Q246,454 189.5,404.5 Q133,355 124,271 L492,271 Q487,361 440.5,407.5 Q394,454 318,454 M203,572 L181,593 L298,737 L340,737 L457,593 L435,572 L321,698 L317,698"/> 
            <glyph glyph-name="ë" unicode="&#xEB;" horiz-adv-x="532" d=" M330,-12 Q222,-12 149.5,56.5 Q77,125 77,240 Q77,353 148,422.5 Q219,492 317,492 Q416,492 474,432.5 Q532,373 532,270 Q532,245 530,233 L122,233 Q125,136 185,81 Q245,26 333,26 Q419,26 494,78 L512,45 Q427,-12 330,-12 M318,454 Q246,454 189.5,404.5 Q133,355 124,271 L492,271 Q487,361 440.5,407.5 Q394,454 318,454 M247,598 Q213,598 201.5,610.5 Q190,623 190,640 Q190,657 201.5,669 Q213,681 230,681 Q247,681 258.5,669 Q270,657 270,640 Q270,623 247,598 M425,598 Q391,598 379.5,610.5 Q368,623 368,640 Q368,657 379.5,669 Q391,681 408,681 Q425,681 436.5,669 Q448,657 448,640 Q448,623 425,598"/> 
            <glyph glyph-name="ì" unicode="&#xEC;" horiz-adv-x="404" d=" M338,0 L338,442 L97,442 L97,480 L382,480 L382,0 M380,572 L236,723 L270,754 L404,595"/> 
            <glyph glyph-name="í" unicode="&#xED;" horiz-adv-x="462" d=" M338,0 L338,442 L97,442 L97,480 L382,480 L382,0 M318,572 L294,595 L428,754 L462,723"/> 
            <glyph glyph-name="î" unicode="&#xEE;" horiz-adv-x="487" d=" M338,0 L338,442 L97,442 L97,480 L382,480 L382,0 M233,572 L211,593 L328,737 L370,737 L487,593 L465,572 L351,698 L347,698"/> 
            <glyph glyph-name="ï" unicode="&#xEF;" horiz-adv-x="478" d=" M338,0 L338,442 L97,442 L97,480 L382,480 L382,0 M277,598 Q243,598 231.5,610.5 Q220,623 220,640 Q220,657 231.5,669 Q243,681 260,681 Q277,681 288.5,669 Q300,657 300,640 Q300,623 277,598 M455,598 Q421,598 409.5,610.5 Q398,623 398,640 Q398,657 409.5,669 Q421,681 438,681 Q455,681 466.5,669 Q478,657 478,640 Q478,623 455,598"/> 
            <glyph glyph-name="ð" unicode="&#xF0;" horiz-adv-x="527" d=" M299,-12 Q205,-12 136,51.5 Q67,115 67,219 Q67,319 131,380.5 Q195,442 300,442 Q350,442 396,417 Q442,392 474,352 Q451,498 345,591 L195,513 L178,543 L316,615 Q261,656 183,694 L205,724 Q295,682 354,634 L488,704 L505,675 L382,611 Q527,476 527,252 Q527,132 465,60 Q403,-12 299,-12 M300,27 Q392,27 437,89 Q482,151 482,251 Q482,269 480,303 Q408,404 301,404 Q210,404 161,351 Q112,298 112,219 Q112,135 166.5,81 Q221,27 300,27"/> 
            <glyph glyph-name="ñ" unicode="&#xF1;" horiz-adv-x="514" d=" M105,0 L105,480 L143,480 L148,388 L152,388 Q199,438 243.5,465 Q288,492 341,492 Q514,492 514,299 L514,0 L469,0 L469,293 Q469,375 437,413.5 Q405,452 334,452 Q285,452 245,427 Q205,402 150,344 L150,0 M395,579 Q369,579 347,594 Q325,609 311.5,627 Q298,645 279.5,660 Q261,675 243,675 Q194,675 189,582 L155,584 Q163,710 244,710 Q276,710 302,686 Q328,662 350.5,638 Q373,614 396,614 Q443,614 449,707 L483,705 Q475,579 395,579"/> 
            <glyph glyph-name="ò" unicode="&#xF2;" horiz-adv-x="533" d=" M398,-12 Q202,-12 134.5,56 Q67,124 67,239 Q67,356 134,424 Q201,492 300,492 Q399,492 466,424 Q533,356 533,239 Q533,124 398,-12 M219,27 Q381,27 433.5,86 Q486,145 486,239 Q486,334 433.5,393.5 Q381,453 300,453 Q219,453 166.5,393.5 Q114,334 114,239 Q114,145 219,27 M331,572 L187,723 L221,754 L355,595"/> 
            <glyph glyph-name="ó" unicode="&#xF3;" horiz-adv-x="533" d=" M398,-12 Q202,-12 134.5,56 Q67,124 67,239 Q67,356 134,424 Q201,492 300,492 Q399,492 466,424 Q533,356 533,239 Q533,124 398,-12 M219,27 Q381,27 433.5,86 Q486,145 486,239 Q486,334 433.5,393.5 Q381,453 300,453 Q219,453 166.5,393.5 Q114,334 114,239 Q114,145 219,27 M269,572 L245,595 L379,754 L413,723"/> 
            <glyph glyph-name="ô" unicode="&#xF4;" horiz-adv-x="533" d=" M398,-12 Q202,-12 134.5,56 Q67,124 67,239 Q67,356 134,424 Q201,492 300,492 Q399,492 466,424 Q533,356 533,239 Q533,124 398,-12 M219,27 Q381,27 433.5,86 Q486,145 486,239 Q486,334 433.5,393.5 Q381,453 300,453 Q219,453 166.5,393.5 Q114,334 114,239 Q114,145 219,27 M184,572 L162,593 L279,737 L321,737 L438,593 L416,572 L302,698 L298,698"/> 
            <glyph glyph-name="õ" unicode="&#xF5;" horiz-adv-x="533" d=" M398,-12 Q202,-12 134.5,56 Q67,124 67,239 Q67,356 134,424 Q201,492 300,492 Q399,492 466,424 Q533,356 533,239 Q533,124 398,-12 M219,27 Q381,27 433.5,86 Q486,145 486,239 Q486,334 433.5,393.5 Q381,453 300,453 Q219,453 166.5,393.5 Q114,334 114,239 Q114,145 219,27 M376,579 Q350,579 328,594 Q306,609 292.5,627 Q279,645 260.5,660 Q242,675 224,675 Q175,675 170,582 L136,584 Q144,710 225,710 Q257,710 283,686 Q309,662 331.5,638 Q354,614 377,614 Q424,614 430,707 L464,705 Q456,579 376,579"/> 
            <glyph glyph-name="ö" unicode="&#xF6;" horiz-adv-x="533" d=" M398,-12 Q202,-12 134.5,56 Q67,124 67,239 Q67,356 134,424 Q201,492 300,492 Q399,492 466,424 Q533,356 533,239 Q533,124 398,-12 M219,27 Q381,27 433.5,86 Q486,145 486,239 Q486,334 433.5,393.5 Q381,453 300,453 Q219,453 166.5,393.5 Q114,334 114,239 Q114,145 219,27 M228,598 Q194,598 182.5,610.5 Q171,623 171,640 Q171,657 182.5,669 Q194,681 211,681 Q228,681 239.5,669 Q251,657 251,640 Q251,623 228,598 M406,598 Q372,598 360.5,610.5 Q349,623 349,640 Q349,657 360.5,669 Q372,681 389,681 Q406,681 417.5,669 Q429,657 429,640 Q429,623 406,598"/> 
            <glyph glyph-name="÷" unicode="&#xF7;" horiz-adv-x="505" d=" M316,469 Q284,469 273,480.5 Q262,492 262,510 Q262,527 273,538 Q284,549 300,549 Q316,549 327,538 Q338,527 338,510 Q338,492 316,469 M316,109 Q284,109 273,120.5 Q262,132 262,150 Q262,167 273,178 Q284,189 300,189 Q316,189 327,178 Q338,167 338,150 Q338,132 316,109 M95,311 L95,349 L505,349 L505,311"/> 
            <glyph glyph-name="ø" unicode="&#xF8;" horiz-adv-x="533" d=" M300,-12 Q213,-12 152,40 L96,-24 L68,0 L125,66 Q67,134 67,239 Q67,356 134,424 Q201,492 300,492 Q386,492 449,440 L504,503 L532,478 L475,413 Q533,344 533,239 Q533,124 465.5,56 Q398,-12 300,-12 M114,239 Q114,157 155,100 L421,407 Q371,454 300,454 Q219,454 166.5,394 Q114,334 114,239 M300,26 Q381,26 433.5,85.5 Q486,145 486,239 Q486,320 446,379 L179,72 Q230,26 300,26"/> 
            <glyph glyph-name="ù" unicode="&#xF9;" horiz-adv-x="494" d=" M259,-12 Q87,-12 87,181 L87,480 L131,480 L131,187 Q131,106 163.5,67 Q196,28 266,28 Q316,28 357.5,53.5 Q399,79 450,137 L450,480 L494,480 L494,0 L457,0 L452,93 L448,93 Q358,-12 259,-12 M325,572 L181,723 L215,754 L349,595"/> 
            <glyph glyph-name="ú" unicode="&#xFA;" horiz-adv-x="494" d=" M259,-12 Q87,-12 87,181 L87,480 L131,480 L131,187 Q131,106 163.5,67 Q196,28 266,28 Q316,28 357.5,53.5 Q399,79 450,137 L450,480 L494,480 L494,0 L457,0 L452,93 L448,93 Q358,-12 259,-12 M263,572 L239,595 L373,754 L407,723"/> 
            <glyph glyph-name="û" unicode="&#xFB;" horiz-adv-x="494" d=" M259,-12 Q87,-12 87,181 L87,480 L131,480 L131,187 Q131,106 163.5,67 Q196,28 266,28 Q316,28 357.5,53.5 Q399,79 450,137 L450,480 L494,480 L494,0 L457,0 L452,93 L448,93 Q358,-12 259,-12 M178,572 L156,593 L273,737 L315,737 L432,593 L410,572 L296,698 L292,698"/> 
            <glyph glyph-name="ü" unicode="&#xFC;" horiz-adv-x="494" d=" M259,-12 Q87,-12 87,181 L87,480 L131,480 L131,187 Q131,106 163.5,67 Q196,28 266,28 Q316,28 357.5,53.5 Q399,79 450,137 L450,480 L494,480 L494,0 L457,0 L452,93 L448,93 Q358,-12 259,-12 M222,598 Q188,598 176.5,610.5 Q165,623 165,640 Q165,657 176.5,669 Q188,681 205,681 Q222,681 233.5,669 Q245,657 245,640 Q245,623 222,598 M400,598 Q366,598 354.5,610.5 Q343,623 343,640 Q343,657 354.5,669 Q366,681 383,681 Q400,681 411.5,669 Q423,657 423,640 Q423,623 400,598"/> 
            <glyph glyph-name="ý" unicode="&#xFD;" horiz-adv-x="540" d=" M125,-219 Q90,-219 67,-209 L79,-170 Q103,-178 126,-178 Q226,-178 276,-51 L293,-9 L60,480 L106,480 L246,178 Q295,74 312,43 L316,43 Q316,44 372,178 L497,480 L540,480 L314,-60 Q290,-129 242.5,-174 Q195,-219 125,-219 M270,572 L246,595 L380,754 L414,723"/> 
            <glyph glyph-name="þ" unicode="&#xFE;" horiz-adv-x="533" d=" M105,-217 L105,719 L150,719 L150,502 L147,408 L149,408 Q235,492 328,492 Q427,492 480,426.5 Q533,361 533,247 Q533,129 467,58.5 Q401,-12 308,-12 Q230,-12 149,56 L147,56 L150,-42 L150,-217 M228,27 Q384,27 435,88.5 Q486,150 486,247 Q486,341 445.5,397 Q405,453 321,453 Q238,453 150,365 L150,98"/> 
            <glyph glyph-name="ÿ" unicode="&#xFF;" horiz-adv-x="540" d=" M125,-219 Q90,-219 67,-209 L79,-170 Q103,-178 126,-178 Q226,-178 276,-51 L293,-9 L60,480 L106,480 L246,178 Q295,74 312,43 L316,43 Q316,44 372,178 L497,480 L540,480 L314,-60 Q290,-129 242.5,-174 Q195,-219 125,-219 M229,598 Q195,598 183.5,610.5 Q172,623 172,640 Q172,657 183.5,669 Q195,681 212,681 Q229,681 240.5,669 Q252,657 252,640 Q252,623 229,598 M407,598 Q373,598 361.5,610.5 Q350,623 350,640 Q350,657 361.5,669 Q373,681 390,681 Q407,681 418.5,669 Q430,657 430,640 Q430,623 407,598"/> 
            <glyph glyph-name="Ā" unicode="&#x100;" horiz-adv-x="555" d=" M225,388 L183,265 L417,265 L375,388 Q329,521 302,616 L298,616 Q281,555 225,388 M45,0 L277,659 L323,659 L555,0 L506,0 L430,226 L169,226 L91,0 M176,743 L176,779 L424,779 L424,743"/> 
            <glyph glyph-name="ā" unicode="&#x101;" horiz-adv-x="504" d=" M259,-12 Q189,-12 140.5,22 Q92,56 92,120 Q92,200 178,242 Q264,284 460,301 Q458,453 317,453 Q228,453 135,388 L115,421 Q152,447 208.5,469.5 Q265,492 322,492 Q414,492 459,441 Q504,390 504,307 L504,0 L467,0 L462,72 L460,72 Q355,-12 259,-12 M267,26 Q358,26 460,113 L460,267 Q282,251 209.5,216.5 Q137,182 137,122 Q137,74 175,50 Q213,26 267,26 M197,606 L197,642 L443,642 L443,606"/> 
            <glyph glyph-name="Ă" unicode="&#x102;" horiz-adv-x="555" d=" M225,388 L183,265 L417,265 L375,388 Q329,521 302,616 L298,616 Q281,555 225,388 M45,0 L277,659 L323,659 L555,0 L506,0 L430,226 L169,226 L91,0 M300,710 Q239,710 205,746.5 Q171,783 164,834 L197,839 Q203,798 229,770.5 Q255,743 300,743 Q345,743 371,770.5 Q397,798 403,839 L436,834 Q430,783 396,746.5 Q362,710 300,710"/> 
            <glyph glyph-name="ă" unicode="&#x103;" horiz-adv-x="504" d=" M259,-12 Q189,-12 140.5,22 Q92,56 92,120 Q92,200 178,242 Q264,284 460,301 Q458,453 317,453 Q228,453 135,388 L115,421 Q152,447 208.5,469.5 Q265,492 322,492 Q414,492 459,441 Q504,390 504,307 L504,0 L467,0 L462,72 L460,72 Q355,-12 259,-12 M267,26 Q358,26 460,113 L460,267 Q282,251 209.5,216.5 Q137,182 137,122 Q137,74 175,50 Q213,26 267,26 M390,570 Q250,570 214,614 Q178,658 171,718 L204,723 Q211,675 240.5,639.5 Q270,604 320,604 Q370,604 399.5,639.5 Q429,675 436,723 L469,718 Q462,658 390,570"/> 
            <glyph glyph-name="Ą" unicode="&#x104;" horiz-adv-x="602" d=" M520,-224 Q477,-224 451,-201.5 Q425,-179 425,-135 Q425,-63 513,0 L506,0 L430,226 L169,226 L91,0 L45,0 L277,659 L323,659 L555,0 Q465,-59 465,-129 Q465,-157 482.5,-172.5 Q500,-188 526,-188 Q557,-188 582,-163 L602,-188 Q564,-224 520,-224 M225,388 L183,265 L417,265 L375,388 Q329,521 302,616 L298,616 Q281,555 225,388"/> 
            <glyph glyph-name="ą" unicode="&#x105;" horiz-adv-x="544" d=" M462,-224 Q419,-224 393,-201.5 Q367,-179 367,-135 Q367,-53 467,9 L462,72 L460,72 Q355,-12 259,-12 Q189,-12 140.5,22 Q92,56 92,120 Q92,200 178,242 Q264,284 460,301 Q458,453 317,453 Q228,453 135,388 L115,421 Q152,447 208.5,469.5 Q265,492 322,492 Q414,492 459,441 Q504,390 504,307 L504,0 Q405,-54 405,-129 Q405,-158 423.5,-173.5 Q442,-189 468,-189 Q500,-189 524,-165 L544,-188 Q508,-224 462,-224 M267,26 Q358,26 460,113 L460,267 Q282,251 209.5,216.5 Q137,182 137,122 Q137,74 175,50 Q213,26 267,26"/> 
            <glyph glyph-name="Ć" unicode="&#x106;" horiz-adv-x="545" d=" M348,-12 Q225,-12 148.5,81.5 Q72,175 72,331 Q72,487 149.5,579 Q227,671 355,671 Q459,671 526,592 L498,562 Q439,629 355,629 Q246,629 183,548.5 Q120,468 120,331 Q120,194 183,112 Q246,30 352,30 Q445,30 517,111 L545,82 Q462,-12 348,-12 M318,706 L298,729 L422,852 L451,819"/> 
            <glyph glyph-name="ć" unicode="&#x107;" horiz-adv-x="534" d=" M347,-12 Q232,-12 159.5,55 Q87,122 87,239 Q87,356 162,424 Q237,492 349,492 Q445,492 522,419 L496,389 Q427,453 350,453 Q254,453 194,393.5 Q134,334 134,239 Q134,144 193,85.5 Q252,27 349,27 Q437,27 511,96 L534,65 Q450,-12 347,-12 M318,572 L294,595 L428,754 L462,723"/> 
            <glyph glyph-name="Ĉ" unicode="&#x108;" horiz-adv-x="545" d=" M348,-12 Q225,-12 148.5,81.5 Q72,175 72,331 Q72,487 149.5,579 Q227,671 355,671 Q459,671 526,592 L498,562 Q439,629 355,629 Q246,629 183,548.5 Q120,468 120,331 Q120,194 183,112 Q246,30 352,30 Q445,30 517,111 L545,82 Q462,-12 348,-12 M227,707 L207,726 L320,839 L364,839 L477,726 L457,707 L344,805 L340,805"/> 
            <glyph glyph-name="ĉ" unicode="&#x109;" horiz-adv-x="534" d=" M347,-12 Q232,-12 159.5,55 Q87,122 87,239 Q87,356 162,424 Q237,492 349,492 Q445,492 522,419 L496,389 Q427,453 350,453 Q254,453 194,393.5 Q134,334 134,239 Q134,144 193,85.5 Q252,27 349,27 Q437,27 511,96 L534,65 Q450,-12 347,-12 M233,572 L211,593 L328,737 L370,737 L487,593 L465,572 L351,698 L347,698"/> 
            <glyph glyph-name="Ċ" unicode="&#x10A;" horiz-adv-x="545" d=" M348,-12 Q225,-12 148.5,81.5 Q72,175 72,331 Q72,487 149.5,579 Q227,671 355,671 Q459,671 526,592 L498,562 Q439,629 355,629 Q246,629 183,548.5 Q120,468 120,331 Q120,194 183,112 Q246,30 352,30 Q445,30 517,111 L545,82 Q462,-12 348,-12 M359,721 Q325,721 313,733 Q301,745 301,763 Q301,781 313,792 Q325,803 342,803 Q359,803 371,792 Q383,781 383,763 Q383,745 359,721"/> 
            <glyph glyph-name="ċ" unicode="&#x10B;" horiz-adv-x="534" d=" M347,-12 Q232,-12 159.5,55 Q87,122 87,239 Q87,356 162,424 Q237,492 349,492 Q445,492 522,419 L496,389 Q427,453 350,453 Q254,453 194,393.5 Q134,334 134,239 Q134,144 193,85.5 Q252,27 349,27 Q437,27 511,96 L534,65 Q450,-12 347,-12 M369,597 Q329,597 315.5,610 Q302,623 302,645 Q302,666 315.5,679.5 Q329,693 349,693 Q369,693 382.5,679.5 Q396,666 396,645 Q396,623 369,597"/> 
            <glyph glyph-name="Č" unicode="&#x10C;" horiz-adv-x="545" d=" M348,-12 Q225,-12 148.5,81.5 Q72,175 72,331 Q72,487 149.5,579 Q227,671 355,671 Q459,671 526,592 L498,562 Q439,629 355,629 Q246,629 183,548.5 Q120,468 120,331 Q120,194 183,112 Q246,30 352,30 Q445,30 517,111 L545,82 Q462,-12 348,-12 M320,709 L207,823 L227,841 L340,743 L344,743 L457,841 L477,823 L364,709"/> 
            <glyph glyph-name="č" unicode="&#x10D;" horiz-adv-x="534" d=" M347,-12 Q232,-12 159.5,55 Q87,122 87,239 Q87,356 162,424 Q237,492 349,492 Q445,492 522,419 L496,389 Q427,453 350,453 Q254,453 194,393.5 Q134,334 134,239 Q134,144 193,85.5 Q252,27 349,27 Q437,27 511,96 L534,65 Q450,-12 347,-12 M328,573 L211,717 L233,737 L347,612 L351,612 L465,737 L487,717 L370,573"/> 
            <glyph glyph-name="Ď" unicode="&#x10E;" horiz-adv-x="546" d=" M96,0 L96,659 L248,659 Q396,659 471,572.5 Q546,486 546,332 Q546,177 471,88.5 Q396,0 249,0 M142,39 L244,39 Q372,39 435,118 Q498,197 498,332 Q498,466 435,543 Q372,620 244,620 L142,620 M278,709 L165,823 L185,841 L298,743 L302,743 L415,841 L435,823 L322,709"/> 
            <glyph glyph-name="ď" unicode="&#x10F;" horiz-adv-x="611" d=" M274,-12 Q179,-12 122.5,54 Q66,120 66,239 Q66,352 131.5,422 Q197,492 289,492 Q368,492 444,424 L446,424 L444,521 L444,719 L487,719 L487,0 L451,0 L446,71 L444,71 Q363,-12 274,-12 M281,27 Q361,27 444,115 L444,382 Q369,453 292,453 Q216,453 163.5,391 Q111,329 111,239 Q111,143 156.5,85 Q202,27 281,27 M571,548 L569,813 L611,813 L611,742 L603,548"/> 
            <glyph glyph-name="Đ" unicode="&#x110;" horiz-adv-x="546" d=" M96,0 L96,331 L19,331 L19,364 L96,369 L96,659 L248,659 Q396,659 471,572.5 Q546,486 546,332 Q546,177 471,88.5 Q396,0 249,0 M142,39 L244,39 Q372,39 435,118 Q498,197 498,332 Q498,466 435,543 Q372,620 244,620 L142,620 L142,369 L307,369 L307,331 L142,331"/> 
            <glyph glyph-name="đ" unicode="&#x111;" horiz-adv-x="570" d=" M279,-12 Q182,-12 124.5,51 Q67,114 67,229 Q67,337 133.5,404.5 Q200,472 293,472 Q375,472 451,404 L453,404 L450,501 L450,578 L266,578 L266,616 L450,616 L450,719 L495,719 L495,616 L570,616 L570,583 L495,578 L495,0 L457,0 L452,71 L450,71 Q371,-12 279,-12 M285,27 Q367,27 450,115 L450,362 Q375,433 297,433 Q220,433 167,373.5 Q114,314 114,229 Q114,137 160,82 Q206,27 285,27"/> 
            <glyph glyph-name="Ē" unicode="&#x112;" horiz-adv-x="527" d=" M127,0 L127,659 L517,659 L517,619 L173,619 L173,370 L463,370 L463,330 L173,330 L173,40 L527,40 L527,0 M212,743 L212,779 L460,779 L460,743"/> 
            <glyph glyph-name="ē" unicode="&#x113;" horiz-adv-x="532" d=" M330,-12 Q222,-12 149.5,56.5 Q77,125 77,240 Q77,353 148,422.5 Q219,492 317,492 Q416,492 474,432.5 Q532,373 532,270 Q532,245 530,233 L122,233 Q125,136 185,81 Q245,26 333,26 Q419,26 494,78 L512,45 Q427,-12 330,-12 M318,454 Q246,454 189.5,404.5 Q133,355 124,271 L492,271 Q487,361 440.5,407.5 Q394,454 318,454 M196,606 L196,642 L442,642 L442,606"/> 
            <glyph glyph-name="Ĕ" unicode="&#x114;" horiz-adv-x="527" d=" M127,0 L127,659 L517,659 L517,619 L173,619 L173,370 L463,370 L463,330 L173,330 L173,40 L527,40 L527,0 M336,710 Q275,710 241,746.5 Q207,783 200,834 L233,839 Q239,798 265,770.5 Q291,743 336,743 Q381,743 407,770.5 Q433,798 439,839 L472,834 Q466,783 432,746.5 Q398,710 336,710"/> 
            <glyph glyph-name="ĕ" unicode="&#x115;" horiz-adv-x="532" d=" M330,-12 Q222,-12 149.5,56.5 Q77,125 77,240 Q77,353 148,422.5 Q219,492 317,492 Q416,492 474,432.5 Q532,373 532,270 Q532,245 530,233 L122,233 Q125,136 185,81 Q245,26 333,26 Q419,26 494,78 L512,45 Q427,-12 330,-12 M318,454 Q246,454 189.5,404.5 Q133,355 124,271 L492,271 Q487,361 440.5,407.5 Q394,454 318,454 M389,570 Q249,570 213,614 Q177,658 170,718 L203,723 Q210,675 239.5,639.5 Q269,604 319,604 Q369,604 398.5,639.5 Q428,675 435,723 L468,718 Q461,658 389,570"/> 
            <glyph glyph-name="Ė" unicode="&#x116;" horiz-adv-x="527" d=" M127,0 L127,659 L517,659 L517,619 L173,619 L173,370 L463,370 L463,330 L173,330 L173,40 L527,40 L527,0 M353,721 Q319,721 307,733 Q295,745 295,763 Q295,781 307,792 Q319,803 336,803 Q353,803 365,792 Q377,781 377,763 Q377,745 353,721"/> 
            <glyph glyph-name="ė" unicode="&#x117;" horiz-adv-x="532" d=" M330,-12 Q222,-12 149.5,56.5 Q77,125 77,240 Q77,353 148,422.5 Q219,492 317,492 Q416,492 474,432.5 Q532,373 532,270 Q532,245 530,233 L122,233 Q125,136 185,81 Q245,26 333,26 Q419,26 494,78 L512,45 Q427,-12 330,-12 M318,454 Q246,454 189.5,404.5 Q133,355 124,271 L492,271 Q487,361 440.5,407.5 Q394,454 318,454 M339,597 Q299,597 285.5,610 Q272,623 272,645 Q272,666 285.5,679.5 Q299,693 319,693 Q339,693 352.5,679.5 Q366,666 366,645 Q366,623 339,597"/> 
            <glyph glyph-name="Ę" unicode="&#x118;" horiz-adv-x="551" d=" M469,-224 Q426,-224 400,-201.5 Q374,-179 374,-135 Q374,-54 463,0 L127,0 L127,659 L517,659 L517,619 L173,619 L173,370 L463,370 L463,330 L173,330 L173,40 L527,40 L527,0 L525,0 Q483,-8 448.5,-47.5 Q414,-87 414,-129 Q414,-157 432,-172.5 Q450,-188 475,-188 Q506,-188 531,-163 L551,-188 Q513,-224 469,-224"/> 
            <glyph glyph-name="ę" unicode="&#x119;" horiz-adv-x="532" d=" M426,-224 Q384,-224 357.5,-201.5 Q331,-179 331,-135 Q331,-63 414,1 Q380,-12 330,-12 Q222,-12 149.5,56.5 Q77,125 77,239 Q77,352 148,422 Q219,492 317,492 Q416,492 474,432.5 Q532,373 532,270 Q532,245 530,233 L122,233 Q125,136 185,81 Q245,26 333,26 Q422,26 494,78 L512,45 Q433,-13 401.5,-50 Q370,-87 370,-129 Q370,-158 388.5,-173.5 Q407,-189 432,-189 Q467,-189 489,-165 L509,-188 Q475,-224 426,-224 M318,454 Q246,454 189.5,404.5 Q133,355 124,271 L492,271 Q487,361 440.5,407.5 Q394,454 318,454"/> 
            <glyph glyph-name="Ě" unicode="&#x11A;" horiz-adv-x="527" d=" M127,0 L127,659 L517,659 L517,619 L173,619 L173,370 L463,370 L463,330 L173,330 L173,40 L527,40 L527,0 M314,709 L201,823 L221,841 L334,743 L338,743 L451,841 L471,823 L358,709"/> 
            <glyph glyph-name="ě" unicode="&#x11B;" horiz-adv-x="532" d=" M330,-12 Q222,-12 149.5,56.5 Q77,125 77,240 Q77,353 148,422.5 Q219,492 317,492 Q416,492 474,432.5 Q532,373 532,270 Q532,245 530,233 L122,233 Q125,136 185,81 Q245,26 333,26 Q419,26 494,78 L512,45 Q427,-12 330,-12 M318,454 Q246,454 189.5,404.5 Q133,355 124,271 L492,271 Q487,361 440.5,407.5 Q394,454 318,454 M298,573 L181,717 L203,737 L317,612 L321,612 L435,737 L457,717 L340,573"/> 
            <glyph glyph-name="Ĝ" unicode="&#x11C;" horiz-adv-x="525" d=" M334,-12 Q210,-12 134.5,81 Q59,174 59,331 Q59,487 137,579 Q215,671 343,671 Q445,671 518,592 L491,562 Q431,629 343,629 Q234,629 170.5,548.5 Q107,468 107,331 Q107,193 168.5,111.5 Q230,30 337,30 Q432,30 480,80 L480,285 L328,285 L328,324 L525,324 L525,63 Q457,-12 334,-12 M215,707 L195,726 L308,839 L352,839 L465,726 L445,707 L332,805 L328,805"/> 
            <glyph glyph-name="ĝ" unicode="&#x11D;" horiz-adv-x="562" d=" M308,-231 Q198,-231 141,-194 Q84,-157 84,-92 Q84,-29 165,21 L165,25 Q115,50 115,102 Q115,153 173,193 L173,197 Q116,243 116,321 Q116,394 168.5,443 Q221,492 295,492 Q332,492 361,480 L561,480 L561,442 L416,442 Q472,386 472,320 Q472,247 421,200 Q370,153 295,153 Q247,153 204,175 Q157,146 157,108 Q157,41 268,41 L387,41 Q479,41 520.5,16 Q562,-9 562,-67 Q562,-132 491,-181.5 Q420,-231 308,-231 M239,188 Q351,188 389.5,225.5 Q428,263 428,321 Q428,379 389.5,417 Q351,455 295,455 Q239,455 200,417 Q161,379 161,321 Q161,263 239,188 M305,-195 Q399,-195 457.5,-157.5 Q516,-120 516,-72 Q516,-33 486,-17 Q456,-1 391,-1 L277,-1 Q232,-1 204,8 Q126,-34 126,-93 Q126,-138 172,-166.5 Q218,-195 305,-195 M193,572 L171,593 L288,737 L330,737 L447,593 L425,572 L311,698 L307,698"/> 
            <glyph glyph-name="Ğ" unicode="&#x11E;" horiz-adv-x="525" d=" M334,-12 Q210,-12 134.5,81 Q59,174 59,331 Q59,487 137,579 Q215,671 343,671 Q445,671 518,592 L491,562 Q431,629 343,629 Q234,629 170.5,548.5 Q107,468 107,331 Q107,193 168.5,111.5 Q230,30 337,30 Q432,30 480,80 L480,285 L328,285 L328,324 L525,324 L525,63 Q457,-12 334,-12 M330,710 Q269,710 235,746.5 Q201,783 194,834 L227,839 Q233,798 259,770.5 Q285,743 330,743 Q375,743 401,770.5 Q427,798 433,839 L466,834 Q460,783 426,746.5 Q392,710 330,710"/> 
            <glyph glyph-name="ğ" unicode="&#x11F;" horiz-adv-x="562" d=" M308,-231 Q198,-231 141,-194 Q84,-157 84,-92 Q84,-29 165,21 L165,25 Q115,50 115,102 Q115,153 173,193 L173,197 Q116,243 116,321 Q116,394 168.5,443 Q221,492 295,492 Q332,492 361,480 L561,480 L561,442 L416,442 Q472,386 472,320 Q472,247 421,200 Q370,153 295,153 Q247,153 204,175 Q157,146 157,108 Q157,41 268,41 L387,41 Q479,41 520.5,16 Q562,-9 562,-67 Q562,-132 491,-181.5 Q420,-231 308,-231 M239,188 Q351,188 389.5,225.5 Q428,263 428,321 Q428,379 389.5,417 Q351,455 295,455 Q239,455 200,417 Q161,379 161,321 Q161,263 239,188 M305,-195 Q399,-195 457.5,-157.5 Q516,-120 516,-72 Q516,-33 486,-17 Q456,-1 391,-1 L277,-1 Q232,-1 204,8 Q126,-34 126,-93 Q126,-138 172,-166.5 Q218,-195 305,-195 M379,570 Q239,570 203,614 Q167,658 160,718 L193,723 Q200,675 229.5,639.5 Q259,604 309,604 Q359,604 388.5,639.5 Q418,675 425,723 L458,718 Q451,658 379,570"/> 
            <glyph glyph-name="Ġ" unicode="&#x120;" horiz-adv-x="525" d=" M334,-12 Q210,-12 134.5,81 Q59,174 59,331 Q59,487 137,579 Q215,671 343,671 Q445,671 518,592 L491,562 Q431,629 343,629 Q234,629 170.5,548.5 Q107,468 107,331 Q107,193 168.5,111.5 Q230,30 337,30 Q432,30 480,80 L480,285 L328,285 L328,324 L525,324 L525,63 Q457,-12 334,-12 M347,721 Q313,721 301,733 Q289,745 289,763 Q289,781 301,792 Q313,803 330,803 Q347,803 359,792 Q371,781 371,763 Q371,745 347,721"/> 
            <glyph glyph-name="ġ" unicode="&#x121;" horiz-adv-x="562" d=" M308,-231 Q198,-231 141,-194 Q84,-157 84,-92 Q84,-29 165,21 L165,25 Q115,50 115,102 Q115,153 173,193 L173,197 Q116,243 116,321 Q116,394 168.5,443 Q221,492 295,492 Q332,492 361,480 L561,480 L561,442 L416,442 Q472,386 472,320 Q472,247 421,200 Q370,153 295,153 Q247,153 204,175 Q157,146 157,108 Q157,41 268,41 L387,41 Q479,41 520.5,16 Q562,-9 562,-67 Q562,-132 491,-181.5 Q420,-231 308,-231 M239,188 Q351,188 389.5,225.5 Q428,263 428,321 Q428,379 389.5,417 Q351,455 295,455 Q239,455 200,417 Q161,379 161,321 Q161,263 239,188 M305,-195 Q399,-195 457.5,-157.5 Q516,-120 516,-72 Q516,-33 486,-17 Q456,-1 391,-1 L277,-1 Q232,-1 204,8 Q126,-34 126,-93 Q126,-138 172,-166.5 Q218,-195 305,-195 M329,597 Q289,597 275.5,610 Q262,623 262,645 Q262,666 275.5,679.5 Q289,693 309,693 Q329,693 342.5,679.5 Q356,666 356,645 Q356,623 329,597"/> 
            <glyph glyph-name="Ģ" unicode="&#x122;" horiz-adv-x="525" d=" M334,-12 Q210,-12 134.5,81 Q59,174 59,331 Q59,487 137,579 Q215,671 343,671 Q445,671 518,592 L491,562 Q431,629 343,629 Q234,629 170.5,548.5 Q107,468 107,331 Q107,193 168.5,111.5 Q230,30 337,30 Q432,30 480,80 L480,285 L328,285 L328,324 L525,324 L525,63 Q457,-12 334,-12 M257,-219 L250,-189 Q313,-185 338,-172.5 Q363,-160 363,-137 Q363,-96 286,-90 L299,-61 Q356,-69 379,-85.5 Q402,-102 402,-134 Q402,-210 257,-219"/> 
            <glyph glyph-name="ģ" unicode="&#x123;" horiz-adv-x="562" d=" M308,-231 Q198,-231 141,-194 Q84,-157 84,-92 Q84,-29 165,21 L165,25 Q115,50 115,102 Q115,153 173,193 L173,197 Q116,243 116,321 Q116,394 168.5,443 Q221,492 295,492 Q332,492 361,480 L561,480 L561,442 L416,442 Q472,386 472,320 Q472,247 421,200 Q370,153 295,153 Q247,153 204,175 Q157,146 157,108 Q157,41 268,41 L387,41 Q479,41 520.5,16 Q562,-9 562,-67 Q562,-132 491,-181.5 Q420,-231 308,-231 M239,188 Q351,188 389.5,225.5 Q428,263 428,321 Q428,379 389.5,417 Q351,455 295,455 Q239,455 200,417 Q161,379 161,321 Q161,263 239,188 M305,-195 Q399,-195 457.5,-157.5 Q516,-120 516,-72 Q516,-33 486,-17 Q456,-1 391,-1 L277,-1 Q232,-1 204,8 Q126,-34 126,-93 Q126,-138 172,-166.5 Q218,-195 305,-195 M344,579 Q287,587 264,603.5 Q241,620 241,652 Q241,728 386,737 L393,707 Q330,703 305,690 Q280,677 280,654 Q280,614 357,608"/> 
            <glyph glyph-name="Ĥ" unicode="&#x124;" horiz-adv-x="511" d=" M89,0 L89,659 L135,659 L135,370 L465,370 L465,659 L511,659 L511,0 L465,0 L465,330 L135,330 L135,0 M185,707 L165,726 L278,839 L322,839 L435,726 L415,707 L302,805 L298,805"/> 
            <glyph glyph-name="ĥ" unicode="&#x125;" horiz-adv-x="514" d=" M105,0 L105,719 L150,719 L150,511 L147,385 L149,385 Q247,492 341,492 Q514,492 514,299 L514,0 L469,0 L469,293 Q469,375 437,413.5 Q405,452 334,452 Q285,452 245,427 Q205,402 150,344 L150,0 M8,767 L-12,786 L101,899 L145,899 L258,786 L238,767 L125,865 L121,865"/> 
            <glyph glyph-name="Ħ" unicode="&#x126;" horiz-adv-x="586" d=" M14,493 L14,525 L89,530 L89,659 L135,659 L135,530 L465,530 L465,659 L511,659 L511,530 L586,530 L586,493 L511,493 L511,0 L465,0 L465,330 L135,330 L135,0 L89,0 L89,493 M135,370 L465,370 L465,493 L135,493"/> 
            <glyph glyph-name="ħ" unicode="&#x127;" horiz-adv-x="514" d=" M105,0 L105,578 L29,578 L29,611 L105,616 L105,719 L150,719 L150,616 L379,616 L379,578 L150,578 L150,491 L147,365 L149,365 Q196,417 241.5,444.5 Q287,472 341,472 Q514,472 514,279 L514,0 L469,0 L469,273 Q469,354 436.5,393 Q404,432 334,432 Q285,432 245,407 Q205,382 150,324 L150,0"/> 
            <glyph glyph-name="Ĩ" unicode="&#x128;" horiz-adv-x="493" d=" M107,0 L107,40 L277,40 L277,619 L107,619 L107,659 L493,659 L493,619 L323,619 L323,40 L493,40 L493,0 M377,718 Q351,718 328,730.5 Q305,743 291.5,757.5 Q278,772 259.5,784.5 Q241,797 223,797 Q201,797 186,776.5 Q171,756 168,721 L135,724 Q137,772 160.5,803 Q184,834 223,834 Q249,834 272,821.5 Q295,809 308.5,794.5 Q322,780 340.5,767.5 Q359,755 377,755 Q398,755 412.5,775.5 Q427,796 432,832 L465,829 Q463,781 439.5,749.5 Q416,718 377,718"/> 
            <glyph glyph-name="ĩ" unicode="&#x129;" horiz-adv-x="513" d=" M338,0 L338,442 L97,442 L97,480 L382,480 L382,0 M425,579 Q399,579 377,594 Q355,609 341.5,627 Q328,645 309.5,660 Q291,675 273,675 Q224,675 219,582 L185,584 Q193,710 274,710 Q306,710 332,686 Q358,662 380.5,638 Q403,614 426,614 Q473,614 479,707 L513,705 Q505,579 425,579"/> 
            <glyph glyph-name="Ī" unicode="&#x12A;" horiz-adv-x="493" d=" M107,0 L107,40 L277,40 L277,619 L107,619 L107,659 L493,659 L493,619 L323,619 L323,40 L493,40 L493,0 M176,743 L176,779 L424,779 L424,743"/> 
            <glyph glyph-name="ī" unicode="&#x12B;" horiz-adv-x="472" d=" M338,0 L338,442 L97,442 L97,480 L382,480 L382,0 M226,606 L226,642 L472,642 L472,606"/> 
            <glyph glyph-name="Ĭ" unicode="&#x12C;" horiz-adv-x="493" d=" M107,0 L107,40 L277,40 L277,619 L107,619 L107,659 L493,659 L493,619 L323,619 L323,40 L493,40 L493,0 M300,710 Q239,710 205,746.5 Q171,783 164,834 L197,839 Q203,798 229,770.5 Q255,743 300,743 Q345,743 371,770.5 Q397,798 403,839 L436,834 Q430,783 396,746.5 Q362,710 300,710"/> 
            <glyph glyph-name="ĭ" unicode="&#x12D;" horiz-adv-x="498" d=" M338,0 L338,442 L97,442 L97,480 L382,480 L382,0 M419,570 Q279,570 243,614 Q207,658 200,718 L233,723 Q240,675 269.5,639.5 Q299,604 349,604 Q399,604 428.5,639.5 Q458,675 465,723 L498,718 Q491,658 419,570"/> 
            <glyph glyph-name="Į" unicode="&#x12E;" horiz-adv-x="493" d=" M313,-224 Q270,-224 244,-201.5 Q218,-179 218,-135 Q218,-75 287,0 L107,0 L107,40 L277,40 L277,619 L107,619 L107,659 L493,659 L493,619 L323,619 L323,40 L493,40 L493,0 L330,0 Q258,-72 258,-129 Q258,-157 276,-172.5 Q294,-188 319,-188 Q350,-188 375,-163 L395,-188 Q357,-224 313,-224"/> 
            <glyph glyph-name="į" unicode="&#x12F;" horiz-adv-x="436" d=" M354,-224 Q311,-224 285,-201.5 Q259,-179 259,-135 Q259,-61 345,0 L338,0 L338,442 L97,442 L97,480 L382,480 L382,-7 Q342,-32 319.5,-64 Q297,-96 297,-129 Q297,-158 315,-173.5 Q333,-189 360,-189 Q390,-189 416,-165 L436,-188 Q400,-224 354,-224 M369,597 Q329,597 315.5,610 Q302,623 302,645 Q302,666 315.5,679.5 Q329,693 349,693 Q369,693 382.5,679.5 Q396,666 396,645 Q396,623 369,597"/> 
            <glyph glyph-name="İ" unicode="&#x130;" horiz-adv-x="493" d=" M107,0 L107,40 L277,40 L277,619 L107,619 L107,659 L493,659 L493,619 L323,619 L323,40 L493,40 L493,0 M317,721 Q283,721 271,733 Q259,745 259,763 Q259,781 271,792 Q283,803 300,803 Q317,803 329,792 Q341,781 341,763 Q341,745 317,721"/> 
            <glyph glyph-name="ı" unicode="&#x131;" horiz-adv-x="382" d=" M338,0 L338,442 L97,442 L97,480 L382,480 L382,0"/> 
            <glyph glyph-name="Ĳ" unicode="&#x132;" horiz-adv-x="466" d=" M134,0 L134,659 L180,659 L180,0 M356,-156 Q327,-156 294,-143 L304,-104 Q333,-113 355,-113 Q393,-113 406.5,-87 Q420,-61 420,-9 L420,659 L466,659 L466,-15 Q466,-156 356,-156"/> 
            <glyph glyph-name="ĳ" unicode="&#x133;" horiz-adv-x="511" d=" M132,0 L132,480 L177,480 L177,0 M155,596 Q136,596 123,609 Q110,622 110,643 Q110,664 123,676.5 Q136,689 155,689 Q175,689 188,676.5 Q201,664 201,643 Q201,622 188,609 Q175,596 155,596 M379,-229 Q347,-229 317,-217 L328,-181 Q358,-191 378,-191 Q416,-191 429,-164.5 Q442,-138 442,-86 L442,480 L487,480 L487,-89 Q487,-229 379,-229 M465,596 Q446,596 433,609 Q420,622 420,643 Q420,664 433,676.5 Q446,689 465,689 Q485,689 498,676.5 Q511,664 511,643 Q511,622 498,609 Q485,596 465,596"/> 
            <glyph glyph-name="Ĵ" unicode="&#x134;" horiz-adv-x="480" d=" M277,-12 Q220,-12 170.5,16.5 Q121,45 93,98 L126,125 Q181,30 277,30 Q359,30 396.5,73.5 Q434,117 434,208 L434,621 L147,621 L147,660 L480,660 L480,204 Q480,-12 277,-12 M206,707 L186,726 L299,839 L343,839 L456,726 L436,707 L323,805 L319,805"/> 
            <glyph glyph-name="ĵ" unicode="&#x135;" horiz-adv-x="487" d=" M194,-229 Q127,-229 63,-197 L81,-162 Q139,-191 197,-191 Q276,-191 307,-153.5 Q338,-116 338,-43 L338,442 L97,442 L97,480 L382,480 L382,-37 Q382,-131 339,-180 Q296,-229 194,-229 M233,572 L211,593 L328,737 L370,737 L487,593 L465,572 L351,698 L347,698"/> 
            <glyph glyph-name="Ķ" unicode="&#x136;" horiz-adv-x="571" d=" M115,0 L115,659 L162,659 L162,293 L164,293 L489,659 L544,659 L329,416 L571,0 L518,0 L298,381 L162,227 L162,0 M269,-219 L262,-189 Q325,-185 350,-172.5 Q375,-160 375,-137 Q375,-96 298,-90 L311,-61 Q368,-69 391,-85.5 Q414,-102 414,-134 Q414,-210 269,-219"/> 
            <glyph glyph-name="ķ" unicode="&#x137;" horiz-adv-x="567" d=" M123,0 L123,719 L168,719 L168,191 L172,191 L480,480 L535,480 L338,295 L567,0 L516,0 L308,267 L168,136 L168,0 M265,-219 L258,-189 Q321,-185 346,-172.5 Q371,-160 371,-137 Q371,-96 294,-90 L307,-61 Q364,-69 387,-85.5 Q410,-102 410,-134 Q410,-210 265,-219"/> 
            <glyph glyph-name="ĸ" unicode="&#x138;" horiz-adv-x="567" d=" M123,0 L123,480 L168,480 L168,189 L170,191 L480,480 L535,480 L338,294 L567,0 L516,0 L307,266 L168,134 L168,0"/> 
            <glyph glyph-name="Ĺ" unicode="&#x139;" horiz-adv-x="539" d=" M150,0 L150,659 L194,659 L194,40 L539,40 L539,0 M163,706 L143,729 L267,852 L296,819"/> 
            <glyph glyph-name="ĺ" unicode="&#x13A;" horiz-adv-x="533" d=" M414,-12 Q271,-12 271,145 L271,681 L92,681 L92,719 L315,719 L315,139 Q315,27 420,27 Q468,27 519,52 L533,18 Q472,-12 414,-12 M268,766 L248,789 L372,912 L401,879"/> 
            <glyph glyph-name="Ļ" unicode="&#x13B;" horiz-adv-x="539" d=" M150,0 L150,659 L194,659 L194,40 L539,40 L539,0 M280,-219 L273,-189 Q336,-185 361,-172.5 Q386,-160 386,-137 Q386,-96 309,-90 L322,-61 Q379,-69 402,-85.5 Q425,-102 425,-134 Q425,-210 280,-219"/> 
            <glyph glyph-name="ļ" unicode="&#x13C;" horiz-adv-x="533" d=" M414,-12 Q271,-12 271,145 L271,681 L92,681 L92,719 L315,719 L315,139 Q315,27 420,27 Q468,27 519,52 L533,18 Q472,-12 414,-12 M319,-219 L312,-189 Q375,-185 400,-172.5 Q425,-160 425,-137 Q425,-96 348,-90 L361,-61 Q418,-69 441,-85.5 Q464,-102 464,-134 Q464,-210 319,-219"/> 
            <glyph glyph-name="Ľ" unicode="&#x13D;" horiz-adv-x="539" d=" M150,0 L150,659 L194,659 L194,40 L539,40 L539,0 M389,517 L387,782 L429,782 L429,711 L421,517"/> 
            <glyph glyph-name="ľ" unicode="&#x13E;" horiz-adv-x="533" d=" M414,-12 Q271,-12 271,145 L271,681 L92,681 L92,719 L315,719 L315,139 Q315,27 420,27 Q468,27 519,52 L533,18 Q472,-12 414,-12 M398,548 L396,813 L438,813 L438,742 L430,548"/> 
            <glyph glyph-name="Ŀ" unicode="&#x13F;" horiz-adv-x="539" d=" M150,0 L150,659 L194,659 L194,40 L539,40 L539,0 M482,296 Q442,296 428.5,309 Q415,322 415,344 Q415,365 428.5,378.5 Q442,392 462,392 Q482,392 495.5,378.5 Q509,365 509,344 Q509,322 482,296"/> 
            <glyph glyph-name="ŀ" unicode="&#x140;" horiz-adv-x="624" d=" M382,-12 Q239,-12 239,145 L239,681 L60,681 L60,719 L283,719 L283,139 Q283,27 388,27 Q436,27 487,52 L501,18 Q440,-12 382,-12 M597,296 Q557,296 543.5,309 Q530,322 530,344 Q530,365 543.5,378.5 Q557,392 577,392 Q597,392 610.5,378.5 Q624,365 624,344 Q624,322 597,296"/> 
            <glyph glyph-name="Ł" unicode="&#x141;" horiz-adv-x="539" d=" M37,188 L20,219 L150,286 L150,659 L194,659 L194,307 L423,427 L440,395 L194,266 L194,40 L539,40 L539,0 L150,0 L150,246"/> 
            <glyph glyph-name="ł" unicode="&#x142;" horiz-adv-x="533" d=" M414,-12 Q271,-12 271,145 L271,366 L150,295 L133,327 L271,408 L271,681 L92,681 L92,719 L315,719 L315,430 L478,523 L494,491 L315,388 L315,139 Q315,27 420,27 Q468,27 519,52 L533,18 Q472,-12 414,-12"/> 
            <glyph glyph-name="Ń" unicode="&#x143;" horiz-adv-x="508" d=" M92,0 L92,659 L141,659 L398,193 L468,63 L470,63 Q470,90 467,154.5 Q464,219 464,254 L464,659 L508,659 L508,0 L459,0 L202,466 L132,596 L130,596 Q130,568 133,505.5 Q136,443 136,409 L136,0 M286,706 L266,729 L390,852 L419,819"/> 
            <glyph glyph-name="ń" unicode="&#x144;" horiz-adv-x="514" d=" M105,0 L105,480 L143,480 L148,388 L152,388 Q199,438 243.5,465 Q288,492 341,492 Q514,492 514,299 L514,0 L469,0 L469,293 Q469,375 437,413.5 Q405,452 334,452 Q285,452 245,427 Q205,402 150,344 L150,0 M288,572 L264,595 L398,754 L432,723"/> 
            <glyph glyph-name="Ņ" unicode="&#x145;" horiz-adv-x="508" d=" M92,0 L92,659 L141,659 L398,193 L468,63 L470,63 Q470,90 467,154.5 Q464,219 464,254 L464,659 L508,659 L508,0 L459,0 L202,466 L132,596 L130,596 Q130,568 133,505.5 Q136,443 136,409 L136,0 M223,-219 L216,-189 Q279,-185 304,-172.5 Q329,-160 329,-137 Q329,-96 252,-90 L265,-61 Q322,-69 345,-85.5 Q368,-102 368,-134 Q368,-210 223,-219"/> 
            <glyph glyph-name="ņ" unicode="&#x146;" horiz-adv-x="514" d=" M105,0 L105,480 L143,480 L148,388 L152,388 Q199,438 243.5,465 Q288,492 341,492 Q514,492 514,299 L514,0 L469,0 L469,293 Q469,375 437,413.5 Q405,452 334,452 Q285,452 245,427 Q205,402 150,344 L150,0 M240,-219 L233,-189 Q296,-185 321,-172.5 Q346,-160 346,-137 Q346,-96 269,-90 L282,-61 Q339,-69 362,-85.5 Q385,-102 385,-134 Q385,-210 240,-219"/> 
            <glyph glyph-name="Ň" unicode="&#x147;" horiz-adv-x="508" d=" M92,0 L92,659 L141,659 L398,193 L468,63 L470,63 Q470,90 467,154.5 Q464,219 464,254 L464,659 L508,659 L508,0 L459,0 L202,466 L132,596 L130,596 Q130,568 133,505.5 Q136,443 136,409 L136,0 M288,709 L175,823 L195,841 L308,743 L312,743 L425,841 L445,823 L332,709"/> 
            <glyph glyph-name="ň" unicode="&#x148;" horiz-adv-x="514" d=" M105,0 L105,480 L143,480 L148,388 L152,388 Q199,438 243.5,465 Q288,492 341,492 Q514,492 514,299 L514,0 L469,0 L469,293 Q469,375 437,413.5 Q405,452 334,452 Q285,452 245,427 Q205,402 150,344 L150,0 M298,573 L181,717 L203,737 L317,612 L321,612 L435,737 L457,717 L340,573"/> 
            <glyph glyph-name="ŉ" unicode="&#x149;" horiz-adv-x="570" d=" M184,0 L184,480 L222,480 L227,397 L231,397 Q322,492 409,492 Q570,492 570,308 L570,0 L526,0 L526,302 Q526,379 496.5,415.5 Q467,452 402,452 Q356,452 318.5,429.5 Q281,407 229,353 L229,0 M13,385 L-7,415 Q85,476 92,586 Q75,576 62,576 Q36,576 19.5,593 Q3,610 3,636 Q3,664 20,682 Q37,700 64,700 Q95,700 116.5,673 Q138,646 138,602 Q138,532 104,474.5 Q70,417 13,385"/> 
            <glyph glyph-name="Ŋ" unicode="&#x14A;" horiz-adv-x="545" d=" M388,-12 Q343,-12 317,1 L331,44 Q355,33 384,33 Q497,33 497,337 Q497,497 450,563 Q403,629 316,629 Q274,629 224,598 Q174,567 142,524 L142,0 L96,0 L96,659 L141,659 L141,572 Q178,614 226,642.5 Q274,671 322,671 Q425,671 485,591.5 Q545,512 545,337 Q545,-12 388,-12"/> 
            <glyph glyph-name="ŋ" unicode="&#x14B;" horiz-adv-x="514" d=" M398,-181 Q360,-181 328,-167 L338,-131 Q369,-142 397,-142 Q439,-142 454,-113.5 Q469,-85 469,-29 L469,293 Q469,375 437,413.5 Q405,452 334,452 Q285,452 245,427 Q205,402 150,344 L150,0 L105,0 L105,480 L143,480 L148,388 L152,388 Q199,438 243.5,465 Q288,492 341,492 Q514,492 514,299 L514,-32 Q514,-181 398,-181"/> 
            <glyph glyph-name="Ō" unicode="&#x14C;" horiz-adv-x="546" d=" M409,-12 Q191,-12 122.5,82 Q54,176 54,332 Q54,487 122.5,579 Q191,671 300,671 Q409,671 477.5,579 Q546,487 546,332 Q546,176 409,-12 M211,30 Q389,30 443.5,112.5 Q498,195 498,332 Q498,468 443.5,548.5 Q389,629 300,629 Q211,629 156.5,548.5 Q102,468 102,332 Q102,195 211,30 M176,743 L176,779 L424,779 L424,743"/> 
            <glyph glyph-name="ō" unicode="&#x14D;" horiz-adv-x="533" d=" M398,-12 Q202,-12 134.5,56 Q67,124 67,239 Q67,356 134,424 Q201,492 300,492 Q399,492 466,424 Q533,356 533,239 Q533,124 398,-12 M219,27 Q381,27 433.5,86 Q486,145 486,239 Q486,334 433.5,393.5 Q381,453 300,453 Q219,453 166.5,393.5 Q114,334 114,239 Q114,145 219,27 M177,606 L177,642 L423,642 L423,606"/> 
            <glyph glyph-name="Ŏ" unicode="&#x14E;" horiz-adv-x="546" d=" M409,-12 Q191,-12 122.5,82 Q54,176 54,332 Q54,487 122.5,579 Q191,671 300,671 Q409,671 477.5,579 Q546,487 546,332 Q546,176 409,-12 M211,30 Q389,30 443.5,112.5 Q498,195 498,332 Q498,468 443.5,548.5 Q389,629 300,629 Q211,629 156.5,548.5 Q102,468 102,332 Q102,195 211,30 M300,710 Q239,710 205,746.5 Q171,783 164,834 L197,839 Q203,798 229,770.5 Q255,743 300,743 Q345,743 371,770.5 Q397,798 403,839 L436,834 Q430,783 396,746.5 Q362,710 300,710"/> 
            <glyph glyph-name="ŏ" unicode="&#x14F;" horiz-adv-x="533" d=" M398,-12 Q202,-12 134.5,56 Q67,124 67,239 Q67,356 134,424 Q201,492 300,492 Q399,492 466,424 Q533,356 533,239 Q533,124 398,-12 M219,27 Q381,27 433.5,86 Q486,145 486,239 Q486,334 433.5,393.5 Q381,453 300,453 Q219,453 166.5,393.5 Q114,334 114,239 Q114,145 219,27 M370,570 Q230,570 194,614 Q158,658 151,718 L184,723 Q191,675 220.5,639.5 Q250,604 300,604 Q350,604 379.5,639.5 Q409,675 416,723 L449,718 Q442,658 370,570"/> 
            <glyph glyph-name="Ő" unicode="&#x150;" horiz-adv-x="546" d=" M409,-12 Q191,-12 122.5,82 Q54,176 54,332 Q54,487 122.5,579 Q191,671 300,671 Q409,671 477.5,579 Q546,487 546,332 Q546,176 409,-12 M211,30 Q389,30 443.5,112.5 Q498,195 498,332 Q498,468 443.5,548.5 Q389,629 300,629 Q211,629 156.5,548.5 Q102,468 102,332 Q102,195 211,30 M225,708 L199,721 L287,869 L321,848 M369,708 L343,721 L431,869 L465,848"/> 
            <glyph glyph-name="ő" unicode="&#x151;" horiz-adv-x="533" d=" M398,-12 Q202,-12 134.5,56 Q67,124 67,239 Q67,356 134,424 Q201,492 300,492 Q399,492 466,424 Q533,356 533,239 Q533,124 398,-12 M219,27 Q381,27 433.5,86 Q486,145 486,239 Q486,334 433.5,393.5 Q381,453 300,453 Q219,453 166.5,393.5 Q114,334 114,239 Q114,145 219,27 M241,569 L214,582 L300,750 L335,731 M375,569 L348,582 L434,750 L469,731"/> 
            <glyph glyph-name="Œ" unicode="&#x152;" horiz-adv-x="589" d=" M301,0 Q175,0 108,89.5 Q41,179 41,332 Q41,484 108.5,572 Q176,660 301,660 L579,660 L579,621 L364,621 L364,370 L528,370 L528,330 L364,330 L364,40 L589,40 L589,0 M296,39 L320,39 L320,621 L296,621 Q192,621 140.5,544 Q89,467 89,332 Q89,197 140.5,118 Q192,39 296,39"/> 
            <glyph glyph-name="œ" unicode="&#x153;" horiz-adv-x="599" d=" M178,27 Q231,27 265,86.5 Q299,146 299,240 Q299,334 265,393.5 Q231,453 178,453 Q120,453 87.5,395 Q55,337 55,239 Q55,143 87.5,85 Q120,27 178,27 M176,-12 Q102,-12 56,55 Q10,122 10,239 Q10,357 56.5,424.5 Q103,492 177,492 Q277,492 317,354 Q354,492 462,492 Q528,492 563.5,431.5 Q599,371 599,280 Q599,252 597,233 L337,233 Q338,133 375.5,80 Q413,27 473,27 Q516,27 567,62 L585,29 Q532,-12 472,-12 Q357,-12 317,124 Q277,-12 176,-12 M459,454 Q408,454 375.5,406 Q343,358 338,271 L561,271 Q556,454 459,454"/> 
            <glyph glyph-name="Ŕ" unicode="&#x154;" horiz-adv-x="535" d=" M117,0 L117,659 L305,659 Q522,659 522,485 Q522,408 477,362.5 Q432,317 353,306 L535,0 L481,0 L303,303 L163,303 L163,0 M163,341 L293,341 Q475,341 475,485 Q475,557 429.5,588.5 Q384,620 293,620 L163,620 M281,706 L261,729 L385,852 L414,819"/> 
            <glyph glyph-name="ŕ" unicode="&#x155;" horiz-adv-x="530" d=" M163,0 L163,480 L201,480 L206,362 L208,362 Q297,492 434,492 Q493,492 530,472 L518,433 Q468,450 427,450 Q299,450 208,300 L208,0 M314,572 L290,595 L424,754 L458,723"/> 
            <glyph glyph-name="Ŗ" unicode="&#x156;" horiz-adv-x="535" d=" M117,0 L117,659 L305,659 Q522,659 522,485 Q522,408 477,362.5 Q432,317 353,306 L535,0 L481,0 L303,303 L163,303 L163,0 M163,341 L293,341 Q475,341 475,485 Q475,557 429.5,588.5 Q384,620 293,620 L163,620 M243,-219 L236,-189 Q299,-185 324,-172.5 Q349,-160 349,-137 Q349,-96 272,-90 L285,-61 Q342,-69 365,-85.5 Q388,-102 388,-134 Q388,-210 243,-219"/> 
            <glyph glyph-name="ŗ" unicode="&#x157;" horiz-adv-x="530" d=" M163,0 L163,480 L201,480 L206,362 L208,362 Q297,492 434,492 Q493,492 530,472 L518,433 Q468,450 427,450 Q299,450 208,300 L208,0 M121,-219 L114,-189 Q177,-185 202,-172.5 Q227,-160 227,-137 Q227,-96 150,-90 L163,-61 Q220,-69 243,-85.5 Q266,-102 266,-134 Q266,-210 121,-219"/> 
            </font>
</defs>
</svg>
