<?xml version="1.0" standalone="no"?>
<!DOCTYPE svg PUBLIC "-//W3C//DTD SVG 1.1//EN" "http://www.w3.org/Graphics/SVG/1.1/DTD/svg11.dtd" >
<svg xmlns="http://www.w3.org/2000/svg">
    <defs>
        <font id="SourceCodePro-ExtraLightIt">
            <font-face font-family="Source Code Pro ExtraLight"
                       units-per-em="1000"
                       ascent="984"
                       descent="-273"
                       bbox="-272 -400 805 1060"
                    />
            <missing-glyph horiz-adv-x="0" />
            
            <glyph glyph-name="!" unicode="&#x21;" horiz-adv-x="388" d=" M270,214 L344,608 L356,672 L388,672 L376,608 L294,214 M238,-12 Q219,-12 207.5,0.5 Q196,13 196,34 Q196,60 215,81 Q234,102 258,102 Q277,102 288.5,89.5 Q300,77 300,56 Q300,30 281,9 Q262,-12 238,-12"/> 
            <glyph glyph-name="&quot;" unicode="&#x22;" horiz-adv-x="505" d=" M202,394 L228,608 L246,688 L305,688 L290,608 L228,394 M402,394 L428,608 L446,688 L505,688 L490,608 L428,394"/> 
            <glyph glyph-name="#" unicode="&#x23;" horiz-adv-x="536" d=" M286,0 L354,218 L188,218 L120,0 L92,0 L160,218 L78,218 L86,246 L168,246 L224,424 L138,424 L146,452 L232,452 L294,650 L322,650 L260,452 L426,452 L488,650 L516,650 L454,452 L536,452 L528,424 L446,424 L390,246 L476,246 L468,218 L382,218 L314,0 M362,246 L418,424 L252,424 L196,246"/> 
            <glyph glyph-name="$" unicode="&#x24;" horiz-adv-x="512" d=" M276,34 L262,34 L234,-110 L206,-110 L235,37 Q136,52 66,132 L88,150 Q164,60 278,60 Q349,60 394.5,92 Q440,124 440,182 Q440,207 431,226.5 Q422,246 398,264 Q374,282 356.5,292.5 Q339,303 297,324 Q224,362 192,395.5 Q160,429 160,480 Q160,550 207.5,584 Q255,618 332,618 L341,618 L369,750 L397,750 L369,614 Q413,606 452.5,579 Q492,552 512,522 L490,506 Q463,542 421,567 Q379,592 330,592 Q266,592 227,564.5 Q188,537 188,486 Q188,443 216,413.5 Q244,384 312,350 Q352,330 374,317.5 Q396,305 421,284.5 Q446,264 457,240 Q468,216 468,186 Q468,109 412.5,71.5 Q357,34 276,34"/> 
            <glyph glyph-name="%" unicode="&#x25;" horiz-adv-x="621" d=" M100,328 Q53,328 22.5,361 Q-8,394 -8,450 Q-8,536 41,594 Q90,652 162,652 Q209,652 239.5,619 Q270,586 270,530 Q270,444 221,386 Q172,328 100,328 M106,354 Q159,354 199.5,403.5 Q240,453 240,524 Q240,573 217.5,599.5 Q195,626 156,626 Q103,626 62.5,576.5 Q22,527 22,456 Q22,407 44.5,380.5 Q67,354 106,354 M10,35 L-10,57 L210,258 L224,242 M402,403 L388,418 L601,624 L621,602 M380,-12 Q333,-12 302.5,21 Q272,54 272,110 Q272,196 321,254 Q370,312 442,312 Q489,312 519.5,279 Q550,246 550,190 Q550,104 501,46 Q452,-12 380,-12 M386,14 Q439,14 479.5,63.5 Q520,113 520,184 Q520,233 497.5,259.5 Q475,286 436,286 Q383,286 342.5,236.5 Q302,187 302,116 Q302,67 324.5,40.5 Q347,14 386,14"/> 
            <glyph glyph-name="&amp;" unicode="&#x26;" horiz-adv-x="563" d=" M179,-12 Q114,-12 72,26 Q30,64 30,130 Q30,169 44,203.5 Q58,238 87,267.5 Q116,297 142.5,317.5 Q169,338 211,365 Q193,430 193,482 Q193,565 239.5,618.5 Q286,672 347,672 Q390,672 412.5,646.5 Q435,621 435,584 Q435,547 420.5,515 Q406,483 372,452 Q338,421 315,404.5 Q292,388 242,355 Q284,221 379,111 Q471,203 533,341 L563,341 Q495,194 396,92 Q444,42 507,12 L493,-12 Q428,19 376,73 Q284,-12 179,-12 M221,486 Q221,436 235,380 Q270,402 288,414.5 Q306,427 333,448.5 Q360,470 373,487.5 Q386,505 396.5,528.5 Q407,552 407,577 Q407,606 392,626 Q377,646 347,646 Q294,646 257.5,600 Q221,554 221,486 M184,15 Q272,15 359,92 Q264,204 219,340 Q141,288 100,242.5 Q59,197 59,136 Q59,79 93.5,47 Q128,15 184,15"/> 
            <glyph glyph-name="'" unicode="&#x27;" horiz-adv-x="405" d=" M302,394 L328,608 L346,688 L405,688 L390,608 L328,394"/> 
            <glyph glyph-name="(" unicode="&#x28;" horiz-adv-x="566" d=" M373,-174 Q298,-113 256.5,-21 Q215,71 215,181 Q215,356 304,496.5 Q393,637 553,728 L566,705 Q247,513 247,184 Q247,-26 393,-150"/> 
            <glyph glyph-name=")" unicode="&#x29;" horiz-adv-x="383" d=" M49,-183 L36,-160 Q351,30 351,361 Q351,572 206,697 L224,719 Q300,658 341.5,565.5 Q383,473 383,364 Q383,189 295.5,48.5 Q208,-92 49,-183"/> 
            <glyph glyph-name="*" unicode="&#x2A;" horiz-adv-x="514" d=" M144,135 L124,151 L266,320 L118,391 L130,413 L287,354 L332,546 L357,546 L327,351 L507,413 L514,391 L334,315 L418,141 L394,128 L298,294"/> 
            <glyph glyph-name="+" unicode="&#x2B;" horiz-adv-x="501" d=" M285,112 L285,317 L99,317 L99,343 L285,343 L285,548 L315,548 L315,343 L501,343 L501,317 L315,317 L315,112"/> 
            <glyph glyph-name="," unicode="&#x2C;" horiz-adv-x="315" d=" M105,-201 L98,-176 Q170,-155 215,-108 Q260,-61 266,-3 Q254,-5 249,-5 Q229,-5 217,7.5 Q205,20 205,41 Q205,68 223,87 Q241,106 267,106 Q315,106 315,39 Q315,-46 256.5,-111 Q198,-176 105,-201"/> 
            <glyph glyph-name="-" unicode="&#x2D;" horiz-adv-x="501" d=" M99,317 L99,343 L501,343 L501,317"/> 
            <glyph glyph-name="." unicode="&#x2E;" horiz-adv-x="300" d=" M238,-12 Q219,-12 207.5,0.5 Q196,13 196,34 Q196,60 215,81 Q234,102 258,102 Q277,102 288.5,89.5 Q300,77 300,56 Q300,30 281,9 Q262,-12 238,-12"/> 
            <glyph glyph-name="/" unicode="&#x2F;" horiz-adv-x="562" d=" M30,-160 L530,710 L562,710 L62,-160"/> 
            <glyph glyph-name="0" unicode="&#x30;" horiz-adv-x="528" d=" M252,-12 Q166,-12 120,53.5 Q74,119 74,230 Q74,300 92,373 Q110,446 143,509 Q176,572 230.5,612 Q285,652 350,652 Q436,652 482,585.5 Q528,519 528,408 Q528,338 510,265.5 Q492,193 459,130 Q426,67 372,27.5 Q318,-12 252,-12 M254,14 Q311,14 359.5,52.5 Q408,91 437.5,150 Q467,209 483.5,275 Q500,341 500,402 Q500,506 462,566 Q424,626 348,626 Q291,626 242.5,587.5 Q194,549 164.5,489.5 Q135,430 118.5,363.5 Q102,297 102,236 Q102,132 140,73 Q178,14 254,14 M319,268 Q277,268 264.5,282 Q252,296 252,320 Q252,348 269.5,369 Q287,390 308,390 Q329,390 341.5,376 Q354,362 354,338 Q354,310 319,268"/> 
            <glyph glyph-name="1" unicode="&#x31;" horiz-adv-x="468" d=" M54,0 L60,26 L252,26 L364,582 L226,582 L230,602 Q327,612 380,640 L404,640 L280,26 L468,26 L464,0"/> 
            <glyph glyph-name="2" unicode="&#x32;" horiz-adv-x="492" d=" M52,0 L54,20 Q140,93 186.5,133 Q233,173 288,224 Q343,275 369,305.5 Q395,336 420.5,372.5 Q446,409 455,439.5 Q464,470 464,502 Q464,626 334,626 Q235,626 146,530 L126,549 Q224,652 342,652 Q413,652 452.5,612 Q492,572 492,504 Q492,468 482,434 Q472,400 445,361 Q418,322 392.5,291.5 Q367,261 311.5,210 Q256,159 216.5,124.5 Q177,90 96,22 Q148,26 214,26 L486,26 L482,0"/> 
            <glyph glyph-name="3" unicode="&#x33;" horiz-adv-x="506" d=" M250,-12 Q121,-12 40,92 L62,108 Q131,14 252,14 Q335,14 391.5,57.5 Q448,101 448,176 Q448,316 220,322 L224,348 Q350,348 414,393.5 Q478,439 478,512 Q478,566 441,596 Q404,626 344,626 Q243,626 160,550 L142,570 Q232,652 346,652 Q417,652 461.5,617 Q506,582 506,518 Q506,446 460,398 Q414,350 325,335 L325,332 Q399,320 437.5,281.5 Q476,243 476,182 Q476,90 412.5,39 Q349,-12 250,-12"/> 
            <glyph glyph-name="4" unicode="&#x34;" horiz-adv-x="528" d=" M339,0 L378,197 L31,197 L34,212 L480,640 L495,640 L412,223 L528,223 L521,197 L406,197 L367,0 M85,223 L383,223 L438,499 Q443,525 460,588 L457,588 Q407,534 381,509"/> 
            <glyph glyph-name="5" unicode="&#x35;" horiz-adv-x="534" d=" M251,-12 Q117,-12 36,92 L58,110 Q129,14 252,14 Q339,14 402.5,69.5 Q466,125 466,222 Q466,296 428,334 Q390,372 320,372 Q287,372 254.5,364 Q222,356 203,347.5 Q184,339 150,322 L128,338 L202,640 L534,640 L530,614 L224,614 L161,355 Q253,398 322,398 Q402,398 448,356.5 Q494,315 494,228 Q494,117 424,52.5 Q354,-12 251,-12"/> 
            <glyph glyph-name="6" unicode="&#x36;" horiz-adv-x="544" d=" M272,-12 Q185,-12 129.5,51 Q74,114 74,220 Q74,327 101.5,412.5 Q129,498 174,548.5 Q219,599 273.5,625.5 Q328,652 386,652 Q492,652 544,570 L522,554 Q471,626 384,626 Q282,626 199,535.5 Q116,445 104,277 Q145,329 204,361.5 Q263,394 332,394 Q402,394 450,351.5 Q498,309 498,224 Q498,122 433,55 Q368,-12 272,-12 M274,14 Q357,14 413.5,74 Q470,134 470,218 Q470,293 429,330.5 Q388,368 330,368 Q204,368 102,241 L102,226 Q102,127 150,70.5 Q198,14 274,14"/> 
            <glyph glyph-name="7" unicode="&#x37;" horiz-adv-x="570" d=" M175,0 Q227,208 303.5,341.5 Q380,475 525,614 L126,614 L131,640 L570,640 L566,621 Q409,469 334,336 Q259,203 211,0"/> 
            <glyph glyph-name="8" unicode="&#x38;" horiz-adv-x="526" d=" M272,-12 Q191,-12 134.5,31.5 Q78,75 78,154 Q78,285 246,356 L246,360 Q211,394 194.5,423.5 Q178,453 178,492 Q178,567 231.5,609.5 Q285,652 364,652 Q433,652 479.5,613.5 Q526,575 526,506 Q526,383 390,312 L390,308 Q409,295 420,286 Q431,277 450,258 Q469,239 478.5,216 Q488,193 488,166 Q488,83 427.5,35.5 Q367,-12 272,-12 M366,324 Q425,353 461.5,400 Q498,447 498,504 Q498,561 458.5,593.5 Q419,626 362,626 Q297,626 251.5,591 Q206,556 206,494 Q206,438 249.5,398 Q293,358 366,324 M272,14 Q351,14 405.5,52.5 Q460,91 460,160 Q460,177 454.5,193 Q449,209 443,221 Q437,233 421.5,247 Q406,261 397,269 Q388,277 365.5,290.5 Q343,304 335,308.5 Q327,313 300,327 Q273,341 268,344 Q188,306 147,263 Q106,220 106,156 Q106,89 154.5,51.5 Q203,14 272,14"/> 
            <glyph glyph-name="9" unicode="&#x39;" horiz-adv-x="528" d=" M272,272 Q398,272 500,399 L500,414 Q500,513 452,569.5 Q404,626 328,626 Q245,626 188.5,566 Q132,506 132,422 Q132,347 173,309.5 Q214,272 272,272 M216,-12 Q110,-12 58,70 L80,86 Q131,14 218,14 Q320,14 403,104.5 Q486,195 498,363 Q457,311 398,278.5 Q339,246 270,246 Q200,246 152,288.5 Q104,331 104,416 Q104,518 169,585 Q234,652 330,652 Q417,652 472.5,589 Q528,526 528,420 Q528,313 500.5,227.5 Q473,142 428,91.5 Q383,41 328.5,14.5 Q274,-12 216,-12"/> 
            <glyph glyph-name=":" unicode="&#x3A;" horiz-adv-x="376" d=" M314,374 Q295,374 283.5,386.5 Q272,399 272,420 Q272,446 291,467 Q310,488 334,488 Q353,488 364.5,475.5 Q376,463 376,442 Q376,416 357,395 Q338,374 314,374 M238,-12 Q219,-12 207.5,0.5 Q196,13 196,34 Q196,60 215,81 Q234,102 258,102 Q277,102 288.5,89.5 Q300,77 300,56 Q300,30 281,9 Q262,-12 238,-12"/> 
            <glyph glyph-name=";" unicode="&#x3B;" horiz-adv-x="376" d=" M314,374 Q295,374 283.5,386.5 Q272,399 272,420 Q272,446 291,467 Q310,488 334,488 Q353,488 364.5,475.5 Q376,463 376,442 Q376,416 357,395 Q338,374 314,374 M105,-201 L98,-176 Q170,-155 215,-108 Q260,-61 266,-3 Q254,-5 249,-5 Q229,-5 217,7.5 Q205,20 205,41 Q205,68 223,87 Q241,106 267,106 Q315,106 315,39 Q315,-46 256.5,-111 Q198,-176 105,-201"/> 
            <glyph glyph-name="&lt;" unicode="&#x3C;" horiz-adv-x="486" d=" M486,62 L124,317 L124,347 L486,602 L486,567 L154,334 L154,330 L486,97"/> 
            <glyph glyph-name="=" unicode="&#x3D;" horiz-adv-x="501" d=" M99,417 L99,443 L501,443 L501,417 M99,217 L99,243 L501,243 L501,217"/> 
            <glyph glyph-name="&gt;" unicode="&#x3E;" horiz-adv-x="476" d=" M114,62 L114,97 L446,330 L446,334 L114,567 L114,602 L476,347 L476,317"/> 
            <glyph glyph-name="?" unicode="&#x3F;" horiz-adv-x="504" d=" M236,214 Q236,238 244.5,261.5 Q253,285 260.5,299 Q268,313 290.5,335.5 Q313,358 322,365.5 Q331,373 360,398 Q365,402 384,417.5 Q403,433 409,438.5 Q415,444 429.5,457 Q444,470 449.5,478.5 Q455,487 462.5,500 Q470,513 473,526 Q476,539 476,554 Q476,599 447,627.5 Q418,656 360,656 Q269,656 202,576 L182,592 Q258,682 362,682 Q431,682 467.5,647.5 Q504,613 504,560 Q504,539 497.5,519 Q491,499 484.5,486.5 Q478,474 461,455 Q444,436 437,429.5 Q430,423 406,403 Q382,383 378,380 Q374,377 354.5,360.5 Q335,344 331.5,340.5 Q328,337 313,323.5 Q298,310 294.5,304 Q291,298 282,285.5 Q273,273 270.5,263.5 Q268,254 265,241 Q262,228 262,214 M216,-12 Q197,-12 185.5,0.5 Q174,13 174,34 Q174,60 193,81 Q212,102 236,102 Q255,102 266.5,89.5 Q278,77 278,56 Q278,30 259,9 Q240,-12 216,-12"/> 
            <glyph glyph-name="@" unicode="&#x40;" horiz-adv-x="564" d=" M268,-142 Q155,-142 95.5,-66 Q36,10 36,148 Q36,355 143,491.5 Q250,628 396,628 Q564,628 564,480 Q564,437 556,400 L497,100 L474,100 L482,166 L478,166 Q404,88 326,88 Q277,88 244.5,113.5 Q212,139 212,188 Q212,270 288,316.5 Q364,363 524,380 Q538,442 538,474 Q538,602 394,602 Q311,602 235.5,546 Q160,490 112,385.5 Q64,281 64,154 Q64,27 118,-44.5 Q172,-116 270,-116 Q345,-116 416,-62 L430,-84 Q354,-142 268,-142 M328,114 Q398,114 490,206 L520,356 Q376,337 308,297 Q240,257 240,192 Q240,153 265,133.5 Q290,114 328,114"/> 
            <glyph glyph-name="A" unicode="&#x41;" horiz-adv-x="488" d=" M248,400 L172,264 L423,264 L406,396 Q401,432 391.5,510.5 Q382,589 377,627 L372,627 Q319,531 248,400 M-8,0 L366,660 L396,660 L488,0 L458,0 L427,238 L157,238 L24,0"/> 
            <glyph glyph-name="B" unicode="&#x42;" horiz-adv-x="532" d=" M54,0 L186,660 L342,660 Q437,660 484.5,623 Q532,586 532,518 Q532,450 484.5,405.5 Q437,361 382,352 L382,348 Q436,336 472,300.5 Q508,265 508,206 Q508,104 437.5,52 Q367,0 244,0 M156,364 L274,364 Q384,364 443,405.5 Q502,447 502,516 Q502,574 461,604 Q420,634 326,634 L210,634 M88,26 L226,26 Q478,26 478,203 Q478,262 428,300 Q378,338 292,338 L152,338"/> 
            <glyph glyph-name="C" unicode="&#x43;" horiz-adv-x="568" d=" M304,-12 Q197,-12 140.5,59.5 Q84,131 84,246 Q84,346 122,441.5 Q160,537 238,604.5 Q316,672 416,672 Q513,672 568,580 L544,564 Q500,646 414,646 Q345,646 286.5,608.5 Q228,571 191.5,512.5 Q155,454 134.5,385.5 Q114,317 114,252 Q114,145 162,79.5 Q210,14 306,14 Q389,14 468,80 L486,60 Q398,-12 304,-12"/> 
            <glyph glyph-name="D" unicode="&#x44;" horiz-adv-x="550" d=" M30,0 L162,660 L280,660 Q413,660 481.5,592 Q550,524 550,404 Q550,290 510.5,200 Q471,110 387,55 Q303,0 186,0 M64,26 L188,26 Q345,26 432.5,132 Q520,238 520,402 Q520,510 459,572 Q398,634 278,634 L186,634"/> 
            <glyph glyph-name="E" unicode="&#x45;" horiz-adv-x="596" d=" M78,0 L210,660 L596,660 L590,634 L234,634 L180,364 L478,364 L472,338 L176,338 L112,26 L478,26 L472,0"/> 
            <glyph glyph-name="F" unicode="&#x46;" horiz-adv-x="610" d=" M98,0 L230,660 L610,660 L604,634 L254,634 L198,352 L490,352 L484,326 L194,326 L128,0"/> 
            <glyph glyph-name="G" unicode="&#x47;" horiz-adv-x="568" d=" M304,-12 Q191,-12 132.5,58.5 Q74,129 74,246 Q74,321 97,395 Q120,469 161.5,531.5 Q203,594 269.5,633 Q336,672 416,672 Q510,672 568,580 L544,564 Q498,646 414,646 Q342,646 281.5,608.5 Q221,571 183.5,512.5 Q146,454 125,385.5 Q104,317 104,252 Q104,146 153.5,80 Q203,14 306,14 Q392,14 450,68 L494,290 L336,290 L342,316 L530,316 L476,54 Q400,-12 304,-12"/> 
            <glyph glyph-name="H" unicode="&#x48;" horiz-adv-x="578" d=" M30,0 L162,660 L192,660 L132,364 L488,364 L548,660 L578,660 L446,0 L416,0 L484,338 L128,338 L60,0"/> 
            <glyph glyph-name="I" unicode="&#x49;" horiz-adv-x="558" d=" M50,0 L56,26 L226,26 L348,634 L176,634 L182,660 L558,660 L552,634 L378,634 L256,26 L430,26 L424,0"/> 
            <glyph glyph-name="J" unicode="&#x4A;" horiz-adv-x="516" d=" M198,-12 Q144,-12 101,15 Q58,42 36,82 L58,98 Q108,14 202,14 Q282,14 329,64 Q376,114 396,214 L480,634 L190,634 L196,660 L516,660 L426,211 Q403,97 348.5,42.5 Q294,-12 198,-12"/> 
            <glyph glyph-name="K" unicode="&#x4B;" horiz-adv-x="600" d=" M600,660 L315,396 L508,0 L476,0 L294,376 L142,236 L94,0 L64,0 L196,660 L226,660 L150,282 L154,282 L562,660"/> 
            <glyph glyph-name="L" unicode="&#x4C;" horiz-adv-x="514" d=" M126,0 L258,660 L288,660 L162,26 L514,26 L508,0"/> 
            <glyph glyph-name="M" unicode="&#x4D;" horiz-adv-x="578" d=" M30,0 L162,660 L206,660 L266,313 L279,219 L283,219 L333,314 L535,660 L578,660 L446,0 L416,0 L517,502 Q530,565 546,626 L542,626 Q523,583 484,516 L289,181 L259,181 L204,517 Q202,531 195.5,568.5 Q189,606 186,626 L182,626 Q166,530 160,502 L60,0"/> 
            <glyph glyph-name="N" unicode="&#x4E;" horiz-adv-x="576" d=" M36,0 L168,660 L200,660 L378,172 L424,42 L428,42 Q445,145 460,222 L546,660 L576,660 L444,0 L412,0 L234,488 L188,618 L184,618 Q170,530 152,438 L66,0"/> 
            <glyph glyph-name="O" unicode="&#x4F;" horiz-adv-x="560" d=" M256,-12 Q159,-12 104.5,58 Q50,128 50,242 Q50,344 84,440.5 Q118,537 189.5,604.5 Q261,672 354,672 Q451,672 505.5,602 Q560,532 560,418 Q560,316 526,219.5 Q492,123 420.5,55.5 Q349,-12 256,-12 M258,14 Q341,14 405.5,79 Q470,144 500,233.5 Q530,323 530,414 Q530,520 484.5,583 Q439,646 352,646 Q269,646 204.5,581 Q140,516 110,426.5 Q80,337 80,246 Q80,140 125.5,77 Q171,14 258,14"/> 
            <glyph glyph-name="P" unicode="&#x50;" horiz-adv-x="562" d=" M70,0 L202,660 L370,660 Q562,660 562,510 Q562,404 489,349 Q416,294 286,294 L158,294 L100,0 M164,320 L280,320 Q532,320 532,508 Q532,574 487.5,604 Q443,634 352,634 L226,634"/> 
            <glyph glyph-name="Q" unicode="&#x51;" horiz-adv-x="560" d=" M256,-12 Q266,-65 302.5,-93.5 Q339,-122 393,-122 Q443,-122 474,-108 L482,-134 Q440,-150 391,-150 Q327,-150 282.5,-115 Q238,-80 226,-10 Q143,1 96.5,69 Q50,137 50,242 Q50,344 84,440.5 Q118,537 189.5,604.5 Q261,672 354,672 Q451,672 505.5,602 Q560,532 560,418 Q560,316 526,219.5 Q492,123 420.5,55.5 Q349,-12 256,-12 M258,14 Q341,14 405.5,79 Q470,144 500,233.5 Q530,323 530,414 Q530,520 484.5,583 Q439,646 352,646 Q269,646 204.5,581 Q140,516 110,426.5 Q80,337 80,246 Q80,140 125.5,77 Q171,14 258,14"/> 
            <glyph glyph-name="R" unicode="&#x52;" horiz-adv-x="532" d=" M50,0 L182,660 L342,660 Q532,660 532,518 Q532,431 471.5,375 Q411,319 315,311 L444,0 L410,0 L283,310 L142,310 L80,0 M148,336 L270,336 Q380,336 441,383.5 Q502,431 502,516 Q502,579 458.5,606.5 Q415,634 324,634 L206,634"/> 
            <glyph glyph-name="S" unicode="&#x53;" horiz-adv-x="520" d=" M256,-12 Q117,-12 48,98 L72,114 Q138,14 260,14 Q336,14 387,59 Q438,104 438,176 Q438,256 352,306 L264,358 Q160,420 160,506 Q160,574 212,623 Q264,672 344,672 Q401,672 447,647.5 Q493,623 520,584 L498,566 Q436,646 338,646 Q274,646 232,604 Q190,562 190,510 Q190,434 278,384 L364,334 Q468,274 468,180 Q468,94 407.5,41 Q347,-12 256,-12"/> 
            <glyph glyph-name="T" unicode="&#x54;" horiz-adv-x="618" d=" M222,0 L348,632 L114,632 L120,660 L618,660 L612,632 L378,632 L252,0"/> 
            <glyph glyph-name="U" unicode="&#x55;" horiz-adv-x="578" d=" M260,-12 Q173,-12 123.5,38.5 Q74,89 74,180 Q74,219 82,262 L162,660 L192,660 L114,270 Q104,230 104,188 Q104,105 144.5,59.5 Q185,14 264,14 Q334,14 387.5,68.5 Q441,123 464,238 L548,660 L578,660 L492,230 Q467,103 404.5,45.5 Q342,-12 260,-12"/> 
            <glyph glyph-name="V" unicode="&#x56;" horiz-adv-x="617" d=" M222,0 L150,660 L178,660 L220,261 Q225,219 233,141 Q241,63 244,38 L248,38 Q266,72 368,260 L586,660 L617,660 L256,0"/> 
            <glyph glyph-name="W" unicode="&#x57;" horiz-adv-x="629" d=" M77,0 L107,660 L136,660 L111,140 L104,20 L108,20 L160,142 L312,467 L347,467 L380,210 Q396,88 401,26 L407,26 L440,147 L601,660 L629,660 L423,0 L378,0 L339,316 Q337,333 334.5,355 Q332,377 329.5,401 Q327,425 326,433 L321,433 Q306,390 271,315 L123,0"/> 
            <glyph glyph-name="X" unicode="&#x58;" horiz-adv-x="580" d=" M18,0 L286,344 L152,660 L184,660 L271,454 Q288,415 306,363 L310,363 Q355,425 378,453 L544,660 L580,660 L322,340 L464,0 L432,0 L342,214 Q336,227 320,268 Q304,309 301,316 L297,316 Q249,251 220,214 L53,0"/> 
            <glyph glyph-name="Y" unicode="&#x59;" horiz-adv-x="610" d=" M224,0 L274,246 L126,660 L156,660 L236,434 Q269,342 290,268 L294,268 Q339,340 410,434 L578,660 L610,660 L302,242 L254,0"/> 
            <glyph glyph-name="Z" unicode="&#x5A;" horiz-adv-x="576" d=" M480,0 L24,0 L28,17 L528,634 L138,634 L144,660 L576,660 L572,642 L71,26 L486,26"/> 
            <glyph glyph-name="[" unicode="&#x5B;" horiz-adv-x="570" d=" M142,-152 L314,708 L570,708 L566,686 L334,686 L172,-130 L404,-130 L400,-152"/> 
            <glyph glyph-name="\" unicode="&#x5C;" horiz-adv-x="388" d=" M361,-160 L209,710 L236,710 L388,-160"/> 
            <glyph glyph-name="]" unicode="&#x5D;" horiz-adv-x="444" d=" M16,-152 L20,-130 L252,-130 L414,686 L182,686 L186,708 L444,708 L272,-152"/> 
            <glyph glyph-name="^" unicode="&#x5E;" horiz-adv-x="467" d=" M133,292 L283,670 L317,670 L467,292 L437,292 L354,508 L302,639 L298,639 L246,508 L163,292"/> 
            <glyph glyph-name="_" unicode="&#x5F;" horiz-adv-x="462" d=" M-25,-119 L-18,-83 L462,-83 L455,-119"/> 
            <glyph glyph-name="`" unicode="&#x60;" horiz-adv-x="410" d=" M390,570 L276,730 L302,748 L410,584"/> 
            <glyph glyph-name="a" unicode="&#x61;" horiz-adv-x="538" d=" M236,-12 Q158,-12 112,35 Q66,82 66,170 Q66,299 143.5,394.5 Q221,490 334,490 Q442,490 492,410 L496,410 L514,478 L538,478 L442,0 L418,0 L430,78 L426,78 Q333,-12 236,-12 M238,14 Q336,14 438,122 L490,372 Q429,464 332,464 Q233,464 163.5,376 Q94,288 94,176 Q94,95 132,54.5 Q170,14 238,14"/> 
            <glyph glyph-name="b" unicode="&#x62;" horiz-adv-x="524" d=" M256,-12 Q155,-12 96,68 L92,68 L76,0 L52,0 L196,722 L224,722 L180,506 L156,398 L160,398 Q264,490 354,490 Q432,490 478,439.5 Q524,389 524,298 Q524,167 449,77.5 Q374,-12 256,-12 M258,14 Q360,14 428,96.5 Q496,179 496,292 Q496,376 457.5,420 Q419,464 352,464 Q308,464 254,435 Q200,406 152,360 L100,102 Q161,14 258,14"/> 
            <glyph glyph-name="c" unicode="&#x63;" horiz-adv-x="534" d=" M286,-12 Q189,-12 130.5,43 Q72,98 72,200 Q72,325 158,407.5 Q244,490 358,490 Q472,490 534,406 L512,388 Q454,464 348,464 Q255,464 177.5,387 Q100,310 100,206 Q100,112 151,63 Q202,14 288,14 Q383,14 466,90 L484,70 Q444,33 390,10.5 Q336,-12 286,-12"/> 
            <glyph glyph-name="d" unicode="&#x64;" horiz-adv-x="588" d=" M236,-12 Q158,-12 112,35 Q66,82 66,170 Q66,299 143.5,394.5 Q221,490 334,490 Q442,490 492,410 L496,410 L516,506 L560,722 L588,722 L442,0 L418,0 L430,78 L426,78 Q333,-12 236,-12 M238,14 Q336,14 438,122 L490,372 Q429,464 332,464 Q233,464 163.5,376 Q94,288 94,176 Q94,95 132,54.5 Q170,14 238,14"/> 
            <glyph glyph-name="e" unicode="&#x65;" horiz-adv-x="516" d=" M272,-12 Q179,-12 127.5,42 Q76,96 76,190 Q76,317 155.5,403.5 Q235,490 344,490 Q426,490 471,439.5 Q516,389 516,309 Q516,267 506,242 L108,242 Q104,221 104,192 Q104,112 149,63 Q194,14 274,14 Q375,14 454,86 L470,64 Q434,32 382,10 Q330,-12 272,-12 M340,464 Q266,464 201.5,409 Q137,354 114,268 L483,268 Q488,291 488,312 Q488,381 448.5,422.5 Q409,464 340,464"/> 
            <glyph glyph-name="f" unicode="&#x66;" horiz-adv-x="622" d=" M190,0 L281,452 L136,452 L140,474 L286,478 L302,558 Q337,734 496,734 Q568,734 622,686 L604,666 Q554,708 494,708 Q361,708 330,554 L315,478 L544,478 L538,452 L309,452 L218,0"/> 
            <glyph glyph-name="g" unicode="&#x67;" horiz-adv-x="538" d=" M196,-234 Q96,-234 26,-178 L44,-156 Q105,-208 200,-208 Q282,-208 336.5,-164.5 Q391,-121 406,-42 L430,84 L426,84 Q333,-6 236,-6 Q158,-6 112,40.5 Q66,87 66,174 Q66,301 143.5,395.5 Q221,490 334,490 Q442,490 492,410 L496,410 L514,478 L538,478 L432,-52 Q414,-141 351,-187.5 Q288,-234 196,-234 M238,20 Q336,20 438,128 L490,372 Q429,464 332,464 Q233,464 163.5,377 Q94,290 94,180 Q94,101 132,60.5 Q170,20 238,20"/> 
            <glyph glyph-name="h" unicode="&#x68;" horiz-adv-x="518" d=" M52,0 L196,722 L224,722 L162,414 L152,368 L156,368 Q218,427 273,458.5 Q328,490 396,490 Q459,490 488.5,458.5 Q518,427 518,374 Q518,337 508,290 L450,0 L422,0 L480,288 Q490,338 490,370 Q490,415 465,439.5 Q440,464 392,464 Q279,464 146,324 L80,0"/> 
            <glyph glyph-name="i" unicode="&#x69;" horiz-adv-x="472" d=" M351,-12 Q301,-12 271.5,14.5 Q242,41 242,94 Q242,115 248,142 L314,452 L124,452 L130,478 L346,478 L274,134 Q270,115 270,98 Q270,14 356,14 Q399,14 462,44 L472,22 Q404,-12 351,-12 M342,600 Q308,600 308,634 Q308,653 321.5,667.5 Q335,682 352,682 Q386,682 386,648 Q386,629 372.5,614.5 Q359,600 342,600"/> 
            <glyph glyph-name="j" unicode="&#x6A;" horiz-adv-x="456" d=" M108,-234 Q41,-234 -14,-192 L2,-170 Q50,-208 114,-208 Q250,-208 282,-54 L384,452 L144,452 L150,478 L418,478 L312,-48 Q293,-142 246,-188 Q199,-234 108,-234 M412,600 Q378,600 378,634 Q378,653 391.5,667.5 Q405,682 422,682 Q456,682 456,648 Q456,629 442.5,614.5 Q429,600 412,600"/> 
            <glyph glyph-name="k" unicode="&#x6B;" horiz-adv-x="566" d=" M72,0 L216,722 L244,722 L136,176 L140,176 L526,478 L566,478 L332,292 L496,0 L464,0 L310,275 L128,136 L100,0"/> 
            <glyph glyph-name="l" unicode="&#x6C;" horiz-adv-x="445" d=" M324,-12 Q274,-12 243,15.5 Q212,43 212,96 Q212,115 218,142 L330,696 L152,696 L158,722 L362,722 L248,150 Q242,123 242,100 Q242,14 328,14 Q377,14 434,44 L445,20 Q386,-12 324,-12"/> 
            <glyph glyph-name="m" unicode="&#x6D;" horiz-adv-x="552" d=" M16,0 L112,478 L136,478 L126,410 L128,410 Q194,490 262,490 Q336,490 336,405 Q409,490 478,490 Q552,490 552,408 Q552,386 545,350 L476,0 L448,0 L518,352 Q524,382 524,402 Q524,464 473,464 Q404,464 332,362 L260,0 L232,0 L302,352 Q308,382 308,402 Q308,464 256,464 Q220,464 187.5,439.5 Q155,415 116,362 L44,0"/> 
            <glyph glyph-name="n" unicode="&#x6E;" horiz-adv-x="518" d=" M52,0 L148,478 L172,478 L154,368 L158,368 Q218,426 273,458 Q328,490 396,490 Q459,490 488.5,458.5 Q518,427 518,374 Q518,337 508,290 L450,0 L422,0 L480,288 Q490,338 490,370 Q490,415 465,439.5 Q440,464 392,464 Q279,464 146,324 L80,0"/> 
            <glyph glyph-name="o" unicode="&#x6F;" horiz-adv-x="518" d=" M246,-12 Q158,-12 107,45 Q56,102 56,194 Q56,316 136.5,403 Q217,490 328,490 Q416,490 467,433 Q518,376 518,284 Q518,162 437.5,75 Q357,-12 246,-12 M248,14 Q344,14 417,93 Q490,172 490,278 Q490,363 446.5,413.5 Q403,464 326,464 Q230,464 157,385 Q84,306 84,200 Q84,115 127.5,64.5 Q171,14 248,14"/> 
            <glyph glyph-name="p" unicode="&#x70;" horiz-adv-x="524" d=" M8,-222 L148,478 L172,478 L158,398 L162,398 Q266,490 354,490 Q432,490 478,439.5 Q524,389 524,298 Q524,167 448.5,77.5 Q373,-12 256,-12 Q207,-12 165,10 Q123,32 96,68 L92,68 L70,-42 L36,-222 M258,14 Q360,14 428,96.5 Q496,179 496,292 Q496,376 457.5,420 Q419,464 352,464 Q308,464 254,435 Q200,406 152,360 L100,102 Q161,14 258,14"/> 
            <glyph glyph-name="q" unicode="&#x71;" horiz-adv-x="538" d=" M370,-222 L406,-42 L432,78 L428,78 Q335,-12 236,-12 Q158,-12 112,35 Q66,82 66,170 Q66,299 143.5,394.5 Q221,490 334,490 Q442,490 492,410 L496,410 L514,478 L538,478 L398,-222 M238,14 Q336,14 438,122 L490,372 Q429,464 332,464 Q233,464 163.5,376 Q94,288 94,176 Q94,95 132,54.5 Q170,14 238,14"/> 
            <glyph glyph-name="r" unicode="&#x72;" horiz-adv-x="540" d=" M116,0 L212,478 L236,478 L210,334 L214,334 Q326,490 442,490 Q500,490 540,462 L524,438 Q489,462 439,462 Q327,462 200,280 L144,0"/> 
            <glyph glyph-name="s" unicode="&#x73;" horiz-adv-x="500" d=" M273,-12 Q214,-12 156.5,12 Q99,36 68,76 L88,94 Q153,14 280,14 Q349,14 391.5,40 Q434,66 434,120 Q434,138 425.5,153 Q417,168 406,178.5 Q395,189 372,200 Q349,211 331.5,217.5 Q314,224 281,235 Q206,261 174,292 Q142,323 142,370 Q142,429 186.5,459.5 Q231,490 302,490 Q364,490 415.5,467.5 Q467,445 500,412 L482,392 Q402,464 300,464 Q239,464 204.5,439 Q170,414 170,372 Q170,331 202.5,306.5 Q235,282 303,259 Q385,231 423.5,203 Q462,175 462,122 Q462,53 410,20.5 Q358,-12 273,-12"/> 
            <glyph glyph-name="t" unicode="&#x74;" horiz-adv-x="534" d=" M306,-12 Q241,-12 207.5,23.5 Q174,59 174,118 Q174,140 182,180 L238,452 L88,452 L92,474 L244,478 L280,638 L304,638 L272,478 L534,478 L528,452 L266,452 L208,172 Q202,145 202,122 Q202,69 230,41.5 Q258,14 308,14 Q381,14 446,48 L458,26 Q395,-12 306,-12"/> 
            <glyph glyph-name="u" unicode="&#x75;" horiz-adv-x="536" d=" M193,-12 Q130,-12 100,19.5 Q70,51 70,104 Q70,141 80,188 L138,478 L166,478 L108,190 Q98,140 98,108 Q98,63 123,38.5 Q148,14 196,14 Q309,14 442,154 L508,478 L536,478 L440,0 L416,0 L434,110 L430,110 Q370,52 315,20 Q260,-12 193,-12"/> 
            <glyph glyph-name="v" unicode="&#x76;" horiz-adv-x="566" d=" M226,0 L100,478 L128,478 L210,164 Q240,49 246,28 L250,28 Q269,62 336,166 L534,478 L566,478 L260,0"/> 
            <glyph glyph-name="w" unicode="&#x77;" horiz-adv-x="619" d=" M80,0 L46,478 L76,478 L96,154 Q101,87 102,27 L106,27 Q117,51 137,95 Q157,139 163,153 L311,478 L351,478 L371,153 Q374,104 378,27 L382,27 Q388,41 399.5,66 Q411,91 420.5,112 Q430,133 439,153 L587,478 L619,478 L396,0 L355,0 L335,316 Q334,330 331.5,377 Q329,424 327,450 L325,450 Q313,424 292.5,377.5 Q272,331 264,314 L120,0"/> 
            <glyph glyph-name="x" unicode="&#x78;" horiz-adv-x="530" d=" M30,0 L271,250 L139,478 L172,478 L244,348 L288,265 L292,265 L366,348 L491,478 L530,478 L303,245 L450,0 L416,0 L336,139 L286,227 L281,227 L208,147 L69,0"/> 
            <glyph glyph-name="y" unicode="&#x79;" horiz-adv-x="566" d=" M24,-222 Q-12,-222 -40,-208 L-28,-184 Q-4,-196 26,-196 Q74,-196 107,-169 Q140,-142 188,-68 L228,-6 L100,478 L128,478 L210,160 Q226,99 244,20 L248,20 Q283,80 334,160 L534,478 L566,478 L208,-82 Q158,-160 121,-191 Q84,-222 24,-222"/> 
            <glyph glyph-name="z" unicode="&#x7A;" horiz-adv-x="522" d=" M44,0 L46,18 L476,452 L124,452 L130,478 L522,478 L520,460 L90,26 L464,26 L458,0"/> 
            <glyph glyph-name="{" unicode="&#x7B;" horiz-adv-x="586" d=" M328,-152 Q206,-152 206,-68 Q206,-35 235,68.5 Q264,172 264,202 Q264,266 124,266 L130,290 Q282,290 298,372 Q303,397 314.5,469.5 Q326,542 334,580 Q361,708 498,708 L586,708 L582,686 L494,686 Q442,686 404.5,657.5 Q367,629 356,576 Q350,544 340,478 Q330,412 324,382 Q304,289 222,278 L222,274 Q255,271 270.5,251.5 Q286,232 286,210 Q286,176 258,72.5 Q230,-31 230,-62 Q230,-130 334,-130 L420,-130 L414,-152"/> 
            <glyph glyph-name="|" unicode="&#x7C;" horiz-adv-x="314" d=" M286,-250 L286,750 L314,750 L314,-250"/> 
            <glyph glyph-name="}" unicode="&#x7D;" horiz-adv-x="467" d=" M5,-152 L9,-130 L97,-130 Q149,-130 186.5,-101.5 Q224,-73 235,-20 Q241,12 251,78 Q261,144 267,174 Q287,267 369,278 L369,282 Q336,285 320.5,304.5 Q305,324 305,346 Q305,381 333,483.5 Q361,586 361,618 Q361,686 257,686 L171,686 L177,708 L263,708 Q385,708 385,624 Q385,590 356,487 Q327,384 327,354 Q327,290 467,290 L461,266 Q309,266 293,184 Q288,159 276.5,86.5 Q265,14 257,-24 Q230,-152 93,-152"/> 
            <glyph glyph-name="~" unicode="&#x7E;" horiz-adv-x="503" d=" M390,270 Q364,270 337.5,284.5 Q311,299 292,316.5 Q273,334 250,348.5 Q227,363 208,363 Q178,363 158,345.5 Q138,328 120,273 L97,280 Q133,390 210,390 Q236,390 262.5,375.5 Q289,361 308,343.5 Q327,326 350,311.5 Q373,297 392,297 Q422,297 442,314 Q462,331 480,387 L503,378 Q467,270 390,270"/> 
            <glyph glyph-name="¡" unicode="&#xA1;" horiz-adv-x="378" d=" M304,264 L230,-130 L218,-194 L186,-194 L198,-130 L280,264 M336,490 Q355,490 366.5,477.5 Q378,465 378,444 Q378,418 359,397 Q340,376 316,376 Q297,376 285.5,388.5 Q274,401 274,422 Q274,448 293,469 Q312,490 336,490"/> 
            <glyph glyph-name="¢" unicode="&#xA2;" horiz-adv-x="500" d=" M142,270 Q142,203 174,162.5 Q206,122 263,114 L344,513 Q259,505 200.5,436.5 Q142,368 142,270 M234,-26 L257,87 Q191,95 151.5,141.5 Q112,188 112,264 Q112,382 182.5,457 Q253,532 350,539 L373,652 L399,652 L376,540 Q447,536 500,478 L480,462 Q434,514 371,514 L289,112 Q366,112 438,170 L453,150 Q375,86 284,86 L261,-26"/> 
            <glyph glyph-name="£" unicode="&#xA3;" horiz-adv-x="541" d=" M28,0 L31,16 Q205,94 205,247 Q205,273 202,300 L82,300 L87,320 L200,323 Q190,433 190,451 Q190,548 243,600 Q296,652 386,652 Q485,652 541,563 L519,548 Q471,628 385,628 Q308,628 262.5,583 Q217,538 217,455 Q217,424 228,323 L434,323 L429,300 L230,300 Q232,268 232,254 Q233,105 100,30 L100,25 L462,25 L455,0"/> 
            <glyph glyph-name="¤" unicode="&#xA4;" horiz-adv-x="568" d=" M57,97 L38,120 L141,207 Q123,245 123,292 Q123,389 188,454 L122,540 L145,561 L211,475 Q270,520 341,520 Q407,520 446,475 L550,563 L568,540 L463,451 Q482,415 482,364 Q482,269 419,204 L488,112 L465,91 L396,183 Q337,138 264,138 Q196,138 157,183 M269,166 Q341,166 396.5,222 Q452,278 452,360 Q452,422 421,457.5 Q390,493 337,493 Q266,493 209.5,435.5 Q153,378 153,296 Q153,236 183,201 Q213,166 269,166"/> 
            <glyph glyph-name="¥" unicode="&#xA5;" horiz-adv-x="593" d=" M226,0 L259,173 L66,173 L71,195 L264,195 L279,275 L86,275 L92,297 L273,297 L141,640 L170,640 L245,436 Q249,424 267.5,375.5 Q286,327 296,298 L299,298 Q333,346 403,436 L560,640 L593,640 L323,297 L506,297 L501,275 L307,275 L291,195 L486,195 L480,173 L287,173 L253,0"/> 
            <glyph glyph-name="¦" unicode="&#xA6;" horiz-adv-x="314" d=" M286,-250 L286,190 L314,190 L314,-250 M286,310 L286,750 L314,750 L314,310"/> 
            <glyph glyph-name="§" unicode="&#xA7;" horiz-adv-x="489" d=" M238,-44 Q159,-44 90,28 L110,50 Q168,-18 240,-18 Q287,-18 321,9.5 Q355,37 355,81 Q355,104 347.5,122 Q340,140 321.5,156 Q303,172 288.5,181 Q274,190 245,206 Q188,237 158.5,270.5 Q129,304 129,351 Q129,445 245,494 Q225,522 225,564 Q225,616 263,648 Q301,680 357,680 Q426,680 489,608 L467,590 Q416,654 355,654 Q311,654 282.5,630 Q254,606 254,564 Q254,523 278.5,498.5 Q303,474 356,442 Q393,420 414.5,404 Q436,388 456,356.5 Q476,325 476,289 Q476,233 448.5,202.5 Q421,172 365,150 Q383,121 383,84 Q383,26 341.5,-9 Q300,-44 238,-44 M258,231 Q325,194 349,169 Q398,186 422.5,212 Q447,238 447,284 Q447,329 420.5,357.5 Q394,386 342,418 Q279,456 260,475 Q210,454 183.5,427 Q157,400 157,357 Q157,316 180,288.5 Q203,261 258,231"/> 
            <glyph glyph-name="¨" unicode="&#xA8;" horiz-adv-x="484" d=" M278,602 Q248,602 248,634 Q248,653 259.5,666.5 Q271,680 288,680 Q318,680 318,648 Q318,629 306.5,615.5 Q295,602 278,602 M444,602 Q414,602 414,634 Q414,653 425.5,666.5 Q437,680 454,680 Q484,680 484,648 Q484,629 472.5,615.5 Q461,602 444,602"/> 
            <glyph glyph-name="©" unicode="&#xA9;" horiz-adv-x="573" d=" M236,-12 Q142,-12 87.5,56.5 Q33,125 33,241 Q33,419 129,535.5 Q225,652 369,652 Q464,652 518.5,584.5 Q573,517 573,402 Q573,224 476.5,106 Q380,-12 236,-12 M241,15 Q367,15 455,126 Q543,237 543,398 Q543,502 495.5,563.5 Q448,625 364,625 Q237,625 150,516 Q63,407 63,244 Q63,139 110,77 Q157,15 241,15 M280,130 Q227,130 194,170 Q161,210 161,280 Q161,384 220,448.5 Q279,513 356,513 Q413,513 449,461 L429,444 Q411,468 394,477.5 Q377,487 351,487 Q292,487 242,428 Q192,369 192,282 Q192,224 216,191 Q240,158 284,158 Q338,158 388,203 L405,183 Q349,130 280,130"/> 
            <glyph glyph-name="ª" unicode="&#xAA;" horiz-adv-x="501" d=" M294,402 Q242,402 212.5,434.5 Q183,467 183,526 Q183,618 239,676 Q295,734 371,734 Q421,734 465,696 L467,696 L475,726 L501,726 L438,410 L412,410 L417,451 L416,451 Q352,402 294,402 M304,429 Q358,429 423,482 L459,669 Q417,708 367,708 Q307,708 261,657.5 Q215,607 215,533 Q215,485 238,457 Q261,429 304,429"/> 
            <glyph glyph-name="«" unicode="&#xAB;" horiz-adv-x="485" d=" M201,71 L94,239 L99,265 L269,429 L285,412 L130,249 L222,84 M401,71 L294,239 L299,265 L469,429 L485,412 L330,249 L422,84"/> 
            <glyph glyph-name="¬" unicode="&#xAC;" horiz-adv-x="501" d=" M471,112 L471,317 L99,317 L99,343 L501,343 L501,112"/> 
            <glyph glyph-name="­" unicode="&#xAD;" horiz-adv-x="501" d=" M99,317 L99,343 L501,343 L501,317"/> 
            <glyph glyph-name="®" unicode="&#xAE;" horiz-adv-x="534" d=" M313,326 Q249,326 207.5,369.5 Q166,413 166,482 Q166,582 230,647 Q294,712 389,712 Q453,712 493.5,668.5 Q534,625 534,555 Q534,454 472,390 Q410,326 313,326 M318,351 Q399,351 453.5,408 Q508,465 508,549 Q508,614 474,651 Q440,688 384,688 Q305,688 248.5,629.5 Q192,571 192,487 Q192,424 227,387.5 Q262,351 318,351 M364,604 L328,604 L311,518 L343,518 Q407,518 407,569 Q407,604 364,604 M265,418 L306,626 L371,626 Q435,626 435,570 Q435,516 380,500 L416,418 L385,418 L354,496 L346,496 L307,496 L292,418"/> 
            <glyph glyph-name="¯" unicode="&#xAF;" horiz-adv-x="480" d=" M244,608 L248,634 L480,634 L476,608"/> 
            <glyph glyph-name="°" unicode="&#xB0;" horiz-adv-x="462" d=" M327,455 Q289,455 263.5,480 Q238,505 238,548 Q238,609 278,646.5 Q318,684 373,684 Q411,684 436.5,659.5 Q462,635 462,591 Q462,529 422.5,492 Q383,455 327,455 M332,480 Q374,480 404,511.5 Q434,543 434,587 Q434,619 416.5,639 Q399,659 368,659 Q325,659 295.5,627.5 Q266,596 266,552 Q266,520 283.5,500 Q301,480 332,480"/> 
            <glyph glyph-name="±" unicode="&#xB1;" horiz-adv-x="501" d=" M285,101 L285,312 L99,312 L99,339 L285,339 L285,548 L315,548 L315,339 L501,339 L501,312 L315,312 L315,101 M99,0 L99,27 L501,27 L501,0"/> 
            <glyph glyph-name="²" unicode="&#xB2;" horiz-adv-x="466" d=" M184,410 L188,434 Q334,541 386,596.5 Q438,652 438,712 Q438,788 360,788 Q313,788 264,732 L246,750 Q304,812 362,812 Q410,812 438,785.5 Q466,759 466,714 Q466,648 413,588.5 Q360,529 230,434 L430,434 L426,410"/> 
            <glyph glyph-name="³" unicode="&#xB3;" horiz-adv-x="460" d=" M304,398 Q262,398 229.5,421.5 Q197,445 180,478 L202,492 Q239,422 306,422 Q349,422 378.5,446 Q408,470 408,512 Q408,549 375.5,574.5 Q343,600 284,600 L290,624 Q361,624 396.5,652 Q432,680 432,718 Q432,750 412,769 Q392,788 356,788 Q307,788 260,749 L246,770 Q297,812 358,812 Q404,812 432,787 Q460,762 460,718 Q460,682 432.5,651 Q405,620 360,608 Q397,598 416.5,572 Q436,546 436,518 Q436,463 397.5,430.5 Q359,398 304,398"/> 
            <glyph glyph-name="´" unicode="&#xB4;" horiz-adv-x="482" d=" M324,580 L308,598 L462,740 L482,716"/> 
            <glyph glyph-name="µ" unicode="&#xB5;" horiz-adv-x="536" d=" M7,-180 L138,478 L165,478 L107,183 Q90,101 110,57.5 Q130,14 196,14 Q309,14 442,154 L508,478 L536,478 Q447,38 447,36 Q447,14 464,14 Q472,14 482,16 L483,-8 Q467,-12 458,-12 Q427,-12 422,15 Q417,42 434,110 L430,110 Q370,52 315.5,20 Q261,-12 194,-12 Q150,-12 122.5,4 Q95,20 80,64 Q42,-125 34,-180"/> 
            <glyph glyph-name="¶" unicode="&#xB6;" horiz-adv-x="513" d=" M333,248 Q237,248 173,292.5 Q109,337 109,418 Q109,532 185.5,596 Q262,660 367,660 L435,660 L351,248 M337,-80 L485,660 L513,660 L365,-80"/> 
            <glyph glyph-name="·" unicode="&#xB7;" horiz-adv-x="357" d=" M295,284 Q276,284 264.5,296.5 Q253,309 253,330 Q253,356 272,377 Q291,398 315,398 Q334,398 345.5,385.5 Q357,373 357,352 Q357,326 338,305 Q319,284 295,284"/> 
            <glyph glyph-name="¸" unicode="&#xB8;" horiz-adv-x="266" d=" M114,-216 L112,-192 Q172,-191 204,-174.5 Q236,-158 236,-132 Q236,-92 168,-86 L226,4 L254,4 L210,-68 Q243,-77 254.5,-89.5 Q266,-102 266,-124 Q266,-166 224.5,-190 Q183,-214 114,-216"/> 
            <glyph glyph-name="¹" unicode="&#xB9;" horiz-adv-x="452" d=" M178,410 L182,434 L307,434 L368,744 L266,744 L270,764 Q346,773 384,800 L406,800 L333,434 L452,434 L448,410"/> 
            <glyph glyph-name="º" unicode="&#xBA;" horiz-adv-x="498" d=" M311,402 Q257,402 223.5,437.5 Q190,473 190,533 Q190,621 245.5,677.5 Q301,734 377,734 Q432,734 465,698.5 Q498,663 498,602 Q498,514 442.5,458 Q387,402 311,402 M316,430 Q378,430 422,478 Q466,526 466,597 Q466,648 441,678 Q416,708 373,708 Q312,708 267,658 Q222,608 222,538 Q222,487 247,458.5 Q272,430 316,430"/> 
            <glyph glyph-name="»" unicode="&#xBB;" horiz-adv-x="456" d=" M81,72 L65,89 L220,252 L128,417 L149,430 L256,262 L251,236 M281,72 L265,89 L420,252 L328,417 L349,430 L456,262 L451,236"/> 
            <glyph glyph-name="¼" unicode="&#xBC;" horiz-adv-x="621" d=" M102,340 L151,586 L69,586 L74,609 Q124,618 165,640 L188,640 L128,340 M10,35 L-10,57 L210,258 L224,242 M402,403 L388,418 L601,624 L621,602 M424,0 L442,84 L277,84 L280,98 L452,312 L470,300 L318,107 L447,107 L466,196 L491,196 L473,107 L521,107 L516,84 L468,84 L451,0"/> 
            <glyph glyph-name="½" unicode="&#xBD;" horiz-adv-x="621" d=" M102,340 L151,586 L69,586 L74,609 Q124,618 165,640 L188,640 L128,340 M10,35 L-10,57 L210,258 L224,242 M402,403 L388,418 L601,624 L621,602 M272,0 L276,19 Q401,109 441.5,148.5 Q482,188 482,234 Q482,288 426,288 Q373,288 329,238 L312,254 Q363,312 428,312 Q467,312 489,291.5 Q511,271 511,235 Q511,183 467.5,138.5 Q424,94 323,25 L506,25 L501,0"/> 
            <glyph glyph-name="¾" unicode="&#xBE;" horiz-adv-x="621" d=" M112,328 Q45,328 6,385 L24,401 Q59,352 114,352 Q149,352 173.5,371 Q198,390 198,422 Q198,483 95,483 L99,505 Q153,505 183,526 Q213,547 213,579 Q213,628 154,628 Q109,628 67,588 L51,605 Q96,652 160,652 Q197,652 219,634 Q241,616 241,582 Q241,549 219,525.5 Q197,502 157,494 Q188,489 207,470.5 Q226,452 226,422 Q226,378 193.5,353 Q161,328 112,328 M10,35 L-10,57 L210,258 L224,242 M402,403 L388,418 L601,624 L621,602 M424,0 L442,84 L277,84 L280,98 L452,312 L470,300 L318,107 L447,107 L466,196 L491,196 L473,107 L521,107 L516,84 L468,84 L451,0"/> 
            <glyph glyph-name="¿" unicode="&#xBF;" horiz-adv-x="400" d=" M338,264 Q338,240 329.5,216.5 Q321,193 313.5,179 Q306,165 283.5,142.5 Q261,120 252,112.5 Q243,105 214,80 Q209,76 190,60.5 Q171,45 165,39.5 Q159,34 144.5,21 Q130,8 124.5,-0.5 Q119,-9 111.5,-22 Q104,-35 101,-48 Q98,-61 98,-76 Q98,-121 127,-149.5 Q156,-178 214,-178 Q305,-178 372,-98 L392,-114 Q316,-204 212,-204 Q143,-204 106.5,-169.5 Q70,-135 70,-82 Q70,-61 76.5,-41 Q83,-21 89.5,-8.5 Q96,4 113,23 Q130,42 137,48.5 Q144,55 168,75 Q192,95 196,98 Q200,101 219.5,117.5 Q239,134 242.5,137.5 Q246,141 261,154.5 Q276,168 279.5,174 Q283,180 292,192.5 Q301,205 303.5,214.5 Q306,224 309,237 Q312,250 312,264 M358,490 Q377,490 388.5,477.5 Q400,465 400,444 Q400,418 381,397 Q362,376 338,376 Q319,376 307.5,388.5 Q296,401 296,422 Q296,448 315,469 Q334,490 358,490"/> 
            <glyph glyph-name="À" unicode="&#xC0;" horiz-adv-x="488" d=" M248,400 L172,264 L423,264 L406,396 Q401,432 391.5,510.5 Q382,589 377,627 L372,627 Q319,531 248,400 M-8,0 L366,660 L396,660 L488,0 L458,0 L427,238 L157,238 L24,0 M402,706 L292,828 L316,848 L418,720"/> 
            <glyph glyph-name="Á" unicode="&#xC1;" horiz-adv-x="518" d=" M248,400 L172,264 L423,264 L406,396 Q401,432 391.5,510.5 Q382,589 377,627 L372,627 Q319,531 248,400 M-8,0 L366,660 L396,660 L488,0 L458,0 L427,238 L157,238 L24,0 M372,716 L360,732 L500,842 L518,816"/> 
            <glyph glyph-name="Â" unicode="&#xC2;" horiz-adv-x="512" d=" M248,400 L172,264 L423,264 L406,396 Q401,432 391.5,510.5 Q382,589 377,627 L372,627 Q319,531 248,400 M-8,0 L366,660 L396,660 L488,0 L458,0 L427,238 L157,238 L24,0 M266,710 L252,726 L388,840 L416,840 L512,726 L496,712 L402,812 L398,812"/> 
            <glyph glyph-name="Ã" unicode="&#xC3;" horiz-adv-x="558" d=" M248,400 L172,264 L423,264 L406,396 Q401,432 391.5,510.5 Q382,589 377,627 L372,627 Q319,531 248,400 M-8,0 L366,660 L396,660 L488,0 L458,0 L427,238 L157,238 L24,0 M458,722 Q435,722 416,735 Q397,748 386,764 Q375,780 358.5,793 Q342,806 324,806 Q301,806 282,783.5 Q263,761 252,724 L230,726 Q238,772 265,802 Q292,832 330,832 Q353,832 372,819 Q391,806 402,790 Q413,774 429.5,761 Q446,748 464,748 Q509,748 536,830 L558,828 Q550,782 523,752 Q496,722 458,722"/> 
            <glyph glyph-name="Ä" unicode="&#xC4;" horiz-adv-x="502" d=" M248,400 L172,264 L423,264 L406,396 Q401,432 391.5,510.5 Q382,589 377,627 L372,627 Q319,531 248,400 M-8,0 L366,660 L396,660 L488,0 L458,0 L427,238 L157,238 L24,0 M304,726 Q278,726 278,752 Q278,768 288,779 Q298,790 310,790 Q336,790 336,762 Q336,747 326,736.5 Q316,726 304,726 M470,726 Q444,726 444,752 Q444,768 454,779 Q464,790 476,790 Q502,790 502,762 Q502,747 492,736.5 Q482,726 470,726"/> 
            <glyph glyph-name="Å" unicode="&#xC5;" horiz-adv-x="488" d=" M248,400 L172,264 L423,264 L406,396 Q401,432 391.5,510.5 Q382,589 377,627 L372,627 Q319,531 248,400 M-8,0 L366,660 L396,660 L488,0 L458,0 L427,238 L157,238 L24,0 M386,702 Q355,702 334.5,721 Q314,740 314,776 Q314,814 340.5,840 Q367,866 406,866 Q437,866 457.5,847 Q478,828 478,792 Q478,754 451.5,728 Q425,702 386,702 M388,724 Q415,724 434.5,743 Q454,762 454,790 Q454,844 404,844 Q377,844 357.5,825 Q338,806 338,778 Q338,753 351.5,738.5 Q365,724 388,724"/> 
            <glyph glyph-name="Æ" unicode="&#xC6;" horiz-adv-x="651" d=" M231,395 L139,254 L316,254 L391,632 L385,632 Q362,595 310.5,517 Q259,439 231,395 M-59,0 L377,660 L651,660 L646,635 L420,635 L366,365 L546,365 L541,340 L361,340 L299,26 L534,26 L529,0 L265,0 L310,228 L122,228 L-26,0"/> 
            <glyph glyph-name="Ç" unicode="&#xC7;" horiz-adv-x="568" d=" M304,-12 L294,-12 L260,-68 Q293,-77 304.5,-89.5 Q316,-102 316,-124 Q316,-166 274.5,-190 Q233,-214 164,-216 L162,-192 Q222,-191 254,-174.5 Q286,-158 286,-132 Q286,-92 218,-86 L267,-10 Q178,3 131,72.5 Q84,142 84,246 Q84,346 122,441.5 Q160,537 238,604.5 Q316,672 416,672 Q513,672 568,580 L544,564 Q500,646 414,646 Q345,646 286.5,608.5 Q228,571 191.5,512.5 Q155,454 134.5,385.5 Q114,317 114,252 Q114,145 162,79.5 Q210,14 306,14 Q389,14 468,80 L486,60 Q398,-12 304,-12"/> 
            <glyph glyph-name="È" unicode="&#xC8;" horiz-adv-x="596" d=" M78,0 L210,660 L596,660 L590,634 L234,634 L180,364 L478,364 L472,338 L176,338 L112,26 L478,26 L472,0 M446,706 L336,828 L360,848 L462,720"/> 
            <glyph glyph-name="É" unicode="&#xC9;" horiz-adv-x="596" d=" M78,0 L210,660 L596,660 L590,634 L234,634 L180,364 L478,364 L472,338 L176,338 L112,26 L478,26 L472,0 M416,716 L404,732 L544,842 L562,816"/> 
            <glyph glyph-name="Ê" unicode="&#xCA;" horiz-adv-x="596" d=" M78,0 L210,660 L596,660 L590,634 L234,634 L180,364 L478,364 L472,338 L176,338 L112,26 L478,26 L472,0 M310,710 L296,726 L432,840 L460,840 L556,726 L540,712 L446,812 L442,812"/> 
            <glyph glyph-name="Ë" unicode="&#xCB;" horiz-adv-x="596" d=" M78,0 L210,660 L596,660 L590,634 L234,634 L180,364 L478,364 L472,338 L176,338 L112,26 L478,26 L472,0 M348,726 Q322,726 322,752 Q322,768 332,779 Q342,790 354,790 Q380,790 380,762 Q380,747 370,736.5 Q360,726 348,726 M514,726 Q488,726 488,752 Q488,768 498,779 Q508,790 520,790 Q546,790 546,762 Q546,747 536,736.5 Q526,726 514,726"/> 
            <glyph glyph-name="Ì" unicode="&#xCC;" horiz-adv-x="558" d=" M50,0 L56,26 L226,26 L348,634 L176,634 L182,660 L558,660 L552,634 L378,634 L256,26 L430,26 L424,0 M402,706 L292,828 L316,848 L418,720"/> 
            <glyph glyph-name="Í" unicode="&#xCD;" horiz-adv-x="558" d=" M50,0 L56,26 L226,26 L348,634 L176,634 L182,660 L558,660 L552,634 L378,634 L256,26 L430,26 L424,0 M372,716 L360,732 L500,842 L518,816"/> 
            <glyph glyph-name="Î" unicode="&#xCE;" horiz-adv-x="558" d=" M50,0 L56,26 L226,26 L348,634 L176,634 L182,660 L558,660 L552,634 L378,634 L256,26 L430,26 L424,0 M266,710 L252,726 L388,840 L416,840 L512,726 L496,712 L402,812 L398,812"/> 
            <glyph glyph-name="Ï" unicode="&#xCF;" horiz-adv-x="558" d=" M50,0 L56,26 L226,26 L348,634 L176,634 L182,660 L558,660 L552,634 L378,634 L256,26 L430,26 L424,0 M304,726 Q278,726 278,752 Q278,768 288,779 Q298,790 310,790 Q336,790 336,762 Q336,747 326,736.5 Q316,726 304,726 M470,726 Q444,726 444,752 Q444,768 454,779 Q464,790 476,790 Q502,790 502,762 Q502,747 492,736.5 Q482,726 470,726"/> 
            <glyph glyph-name="Ð" unicode="&#xD0;" horiz-adv-x="550" d=" M30,0 L98,338 L18,338 L24,362 L103,364 L162,660 L280,660 Q413,660 481.5,592 Q550,524 550,404 Q550,290 510.5,200 Q471,110 387,55 Q303,0 186,0 M64,26 L188,26 Q345,26 432.5,132 Q520,238 520,402 Q520,510 459,572 Q398,634 278,634 L186,634 L132,364 L304,364 L298,338 L127,338"/> 
            <glyph glyph-name="Ñ" unicode="&#xD1;" horiz-adv-x="576" d=" M36,0 L168,660 L200,660 L378,172 L424,42 L428,42 Q445,145 460,222 L546,660 L576,660 L444,0 L412,0 L234,488 L188,618 L184,618 Q170,530 152,438 L66,0 M464,722 Q441,722 422,735 Q403,748 392,764 Q381,780 364.5,793 Q348,806 330,806 Q307,806 288,783.5 Q269,761 258,724 L236,726 Q244,772 271,802 Q298,832 336,832 Q359,832 378,819 Q397,806 408,790 Q419,774 435.5,761 Q452,748 470,748 Q515,748 542,830 L564,828 Q556,782 529,752 Q502,722 464,722"/> 
            <glyph glyph-name="Ò" unicode="&#xD2;" horiz-adv-x="560" d=" M256,-12 Q159,-12 104.5,58 Q50,128 50,242 Q50,344 84,440.5 Q118,537 189.5,604.5 Q261,672 354,672 Q451,672 505.5,602 Q560,532 560,418 Q560,316 526,219.5 Q492,123 420.5,55.5 Q349,-12 256,-12 M258,14 Q341,14 405.5,79 Q470,144 500,233.5 Q530,323 530,414 Q530,520 484.5,583 Q439,646 352,646 Q269,646 204.5,581 Q140,516 110,426.5 Q80,337 80,246 Q80,140 125.5,77 Q171,14 258,14 M402,706 L292,828 L316,848 L418,720"/> 
            <glyph glyph-name="Ó" unicode="&#xD3;" horiz-adv-x="560" d=" M256,-12 Q159,-12 104.5,58 Q50,128 50,242 Q50,344 84,440.5 Q118,537 189.5,604.5 Q261,672 354,672 Q451,672 505.5,602 Q560,532 560,418 Q560,316 526,219.5 Q492,123 420.5,55.5 Q349,-12 256,-12 M258,14 Q341,14 405.5,79 Q470,144 500,233.5 Q530,323 530,414 Q530,520 484.5,583 Q439,646 352,646 Q269,646 204.5,581 Q140,516 110,426.5 Q80,337 80,246 Q80,140 125.5,77 Q171,14 258,14 M372,716 L360,732 L500,842 L518,816"/> 
            <glyph glyph-name="Ô" unicode="&#xD4;" horiz-adv-x="560" d=" M256,-12 Q159,-12 104.5,58 Q50,128 50,242 Q50,344 84,440.5 Q118,537 189.5,604.5 Q261,672 354,672 Q451,672 505.5,602 Q560,532 560,418 Q560,316 526,219.5 Q492,123 420.5,55.5 Q349,-12 256,-12 M258,14 Q341,14 405.5,79 Q470,144 500,233.5 Q530,323 530,414 Q530,520 484.5,583 Q439,646 352,646 Q269,646 204.5,581 Q140,516 110,426.5 Q80,337 80,246 Q80,140 125.5,77 Q171,14 258,14 M266,710 L252,726 L388,840 L416,840 L512,726 L496,712 L402,812 L398,812"/> 
            <glyph glyph-name="Õ" unicode="&#xD5;" horiz-adv-x="560" d=" M256,-12 Q159,-12 104.5,58 Q50,128 50,242 Q50,344 84,440.5 Q118,537 189.5,604.5 Q261,672 354,672 Q451,672 505.5,602 Q560,532 560,418 Q560,316 526,219.5 Q492,123 420.5,55.5 Q349,-12 256,-12 M258,14 Q341,14 405.5,79 Q470,144 500,233.5 Q530,323 530,414 Q530,520 484.5,583 Q439,646 352,646 Q269,646 204.5,581 Q140,516 110,426.5 Q80,337 80,246 Q80,140 125.5,77 Q171,14 258,14 M458,722 Q435,722 416,735 Q397,748 386,764 Q375,780 358.5,793 Q342,806 324,806 Q301,806 282,783.5 Q263,761 252,724 L230,726 Q238,772 265,802 Q292,832 330,832 Q353,832 372,819 Q391,806 402,790 Q413,774 429.5,761 Q446,748 464,748 Q509,748 536,830 L558,828 Q550,782 523,752 Q496,722 458,722"/> 
            <glyph glyph-name="Ö" unicode="&#xD6;" horiz-adv-x="560" d=" M256,-12 Q159,-12 104.5,58 Q50,128 50,242 Q50,344 84,440.5 Q118,537 189.5,604.5 Q261,672 354,672 Q451,672 505.5,602 Q560,532 560,418 Q560,316 526,219.5 Q492,123 420.5,55.5 Q349,-12 256,-12 M258,14 Q341,14 405.5,79 Q470,144 500,233.5 Q530,323 530,414 Q530,520 484.5,583 Q439,646 352,646 Q269,646 204.5,581 Q140,516 110,426.5 Q80,337 80,246 Q80,140 125.5,77 Q171,14 258,14 M304,726 Q278,726 278,752 Q278,768 288,779 Q298,790 310,790 Q336,790 336,762 Q336,747 326,736.5 Q316,726 304,726 M470,726 Q444,726 444,752 Q444,768 454,779 Q464,790 476,790 Q502,790 502,762 Q502,747 492,736.5 Q482,726 470,726"/> 
            <glyph glyph-name="×" unicode="&#xD7;" horiz-adv-x="483" d=" M136,138 L117,160 L281,330 L117,500 L136,522 L300,349 L464,522 L483,500 L319,330 L483,160 L464,138 L300,311"/> 
            <glyph glyph-name="Ø" unicode="&#xD8;" horiz-adv-x="610" d=" M256,-12 Q152,-12 96,70 L18,-20 L0,-4 L83,92 Q50,154 50,242 Q50,344 84,440.5 Q118,537 189.5,604.5 Q261,672 354,672 Q458,672 514,590 L592,680 L610,664 L527,568 Q560,506 560,418 Q560,316 526,219.5 Q492,123 420.5,55.5 Q349,-12 256,-12 M80,246 Q80,171 103,116 L495,568 Q449,646 352,646 Q269,646 204.5,581 Q140,516 110,426.5 Q80,337 80,246 M258,14 Q341,14 405.5,79 Q470,144 500,233.5 Q530,323 530,414 Q530,489 507,544 L115,92 Q161,14 258,14"/> 
            <glyph glyph-name="Ù" unicode="&#xD9;" horiz-adv-x="578" d=" M260,-12 Q173,-12 123.5,38.5 Q74,89 74,180 Q74,219 82,262 L162,660 L192,660 L114,270 Q104,230 104,188 Q104,105 144.5,59.5 Q185,14 264,14 Q334,14 387.5,68.5 Q441,123 464,238 L548,660 L578,660 L492,230 Q467,103 404.5,45.5 Q342,-12 260,-12 M402,706 L292,828 L316,848 L418,720"/> 
            <glyph glyph-name="Ú" unicode="&#xDA;" horiz-adv-x="578" d=" M260,-12 Q173,-12 123.5,38.5 Q74,89 74,180 Q74,219 82,262 L162,660 L192,660 L114,270 Q104,230 104,188 Q104,105 144.5,59.5 Q185,14 264,14 Q334,14 387.5,68.5 Q441,123 464,238 L548,660 L578,660 L492,230 Q467,103 404.5,45.5 Q342,-12 260,-12 M372,716 L360,732 L500,842 L518,816"/> 
            <glyph glyph-name="Û" unicode="&#xDB;" horiz-adv-x="578" d=" M260,-12 Q173,-12 123.5,38.5 Q74,89 74,180 Q74,219 82,262 L162,660 L192,660 L114,270 Q104,230 104,188 Q104,105 144.5,59.5 Q185,14 264,14 Q334,14 387.5,68.5 Q441,123 464,238 L548,660 L578,660 L492,230 Q467,103 404.5,45.5 Q342,-12 260,-12 M266,710 L252,726 L388,840 L416,840 L512,726 L496,712 L402,812 L398,812"/> 
            <glyph glyph-name="Ü" unicode="&#xDC;" horiz-adv-x="578" d=" M260,-12 Q173,-12 123.5,38.5 Q74,89 74,180 Q74,219 82,262 L162,660 L192,660 L114,270 Q104,230 104,188 Q104,105 144.5,59.5 Q185,14 264,14 Q334,14 387.5,68.5 Q441,123 464,238 L548,660 L578,660 L492,230 Q467,103 404.5,45.5 Q342,-12 260,-12 M304,726 Q278,726 278,752 Q278,768 288,779 Q298,790 310,790 Q336,790 336,762 Q336,747 326,736.5 Q316,726 304,726 M470,726 Q444,726 444,752 Q444,768 454,779 Q464,790 476,790 Q502,790 502,762 Q502,747 492,736.5 Q482,726 470,726"/> 
            <glyph glyph-name="Ý" unicode="&#xDD;" horiz-adv-x="610" d=" M224,0 L274,246 L126,660 L156,660 L236,434 Q269,342 290,268 L294,268 Q339,340 410,434 L578,660 L610,660 L302,242 L254,0 M358,716 L346,732 L486,842 L504,816"/> 
            <glyph glyph-name="Þ" unicode="&#xDE;" horiz-adv-x="543" d=" M65,0 L197,660 L227,660 L203,536 L351,536 Q543,536 543,386 Q543,280 470,225 Q397,170 267,170 L129,170 L95,0 M135,196 L261,196 Q513,196 513,384 Q513,450 468.5,480 Q424,510 333,510 L197,510"/> 
            <glyph glyph-name="ß" unicode="&#xDF;" horiz-adv-x="523" d=" M353,-12 Q269,-12 211,42 L227,64 Q286,14 355,14 Q411,14 452.5,45 Q494,76 494,121 Q494,154 475,181 Q456,208 429,227 Q402,246 374.5,264 Q347,282 328,306 Q309,330 309,359 Q309,390 325.5,417 Q342,444 366,464 Q390,484 414,504.5 Q438,525 454.5,553.5 Q471,582 471,616 Q471,658 445.5,683 Q420,708 367,708 Q300,708 251.5,659 Q203,610 185,520 L81,0 L53,0 L159,530 Q179,626 234.5,680 Q290,734 369,734 Q429,734 464.5,703 Q500,672 500,616 Q500,579 483.5,548 Q467,517 443,495.5 Q419,474 395,454 Q371,434 354.5,411 Q338,388 338,362 Q338,333 367,306.5 Q396,280 430.5,260.5 Q465,241 494,205 Q523,169 523,124 Q523,66 475,27 Q427,-12 353,-12"/> 
            <glyph glyph-name="à" unicode="&#xE0;" horiz-adv-x="538" d=" M236,-12 Q158,-12 112,35 Q66,82 66,170 Q66,299 143.5,394.5 Q221,490 334,490 Q442,490 492,410 L496,410 L514,478 L538,478 L442,0 L418,0 L430,78 L426,78 Q333,-12 236,-12 M238,14 Q336,14 438,122 L490,372 Q429,464 332,464 Q233,464 163.5,376 Q94,288 94,176 Q94,95 132,54.5 Q170,14 238,14 M410,570 L296,730 L322,748 L430,584"/> 
            <glyph glyph-name="á" unicode="&#xE1;" horiz-adv-x="538" d=" M236,-12 Q158,-12 112,35 Q66,82 66,170 Q66,299 143.5,394.5 Q221,490 334,490 Q442,490 492,410 L496,410 L514,478 L538,478 L442,0 L418,0 L430,78 L426,78 Q333,-12 236,-12 M238,14 Q336,14 438,122 L490,372 Q429,464 332,464 Q233,464 163.5,376 Q94,288 94,176 Q94,95 132,54.5 Q170,14 238,14 M344,580 L328,598 L482,740 L502,716"/> 
            <glyph glyph-name="â" unicode="&#xE2;" horiz-adv-x="538" d=" M236,-12 Q158,-12 112,35 Q66,82 66,170 Q66,299 143.5,394.5 Q221,490 334,490 Q442,490 492,410 L496,410 L514,478 L538,478 L442,0 L418,0 L430,78 L426,78 Q333,-12 236,-12 M238,14 Q336,14 438,122 L490,372 Q429,464 332,464 Q233,464 163.5,376 Q94,288 94,176 Q94,95 132,54.5 Q170,14 238,14 M262,574 L244,590 L388,736 L416,736 L508,588 L488,574 L402,706 L398,706"/> 
            <glyph glyph-name="ã" unicode="&#xE3;" horiz-adv-x="560" d=" M236,-12 Q158,-12 112,35 Q66,82 66,170 Q66,299 143.5,394.5 Q221,490 334,490 Q442,490 492,410 L496,410 L514,478 L538,478 L442,0 L418,0 L430,78 L426,78 Q333,-12 236,-12 M238,14 Q336,14 438,122 L490,372 Q429,464 332,464 Q233,464 163.5,376 Q94,288 94,176 Q94,95 132,54.5 Q170,14 238,14 M458,580 Q434,580 415.5,596 Q397,612 387.5,631 Q378,650 362,666 Q346,682 326,682 Q276,682 254,582 L228,584 Q257,706 330,706 Q354,706 372.5,690 Q391,674 400.5,655 Q410,636 426,620 Q442,604 462,604 Q511,604 534,704 L560,702 Q530,580 458,580"/> 
            <glyph glyph-name="ä" unicode="&#xE4;" horiz-adv-x="538" d=" M236,-12 Q158,-12 112,35 Q66,82 66,170 Q66,299 143.5,394.5 Q221,490 334,490 Q442,490 492,410 L496,410 L514,478 L538,478 L442,0 L418,0 L430,78 L426,78 Q333,-12 236,-12 M238,14 Q336,14 438,122 L490,372 Q429,464 332,464 Q233,464 163.5,376 Q94,288 94,176 Q94,95 132,54.5 Q170,14 238,14 M298,602 Q268,602 268,634 Q268,653 279.5,666.5 Q291,680 308,680 Q338,680 338,648 Q338,629 326.5,615.5 Q315,602 298,602 M464,602 Q434,602 434,634 Q434,653 445.5,666.5 Q457,680 474,680 Q504,680 504,648 Q504,629 492.5,615.5 Q481,602 464,602"/> 
            <glyph glyph-name="å" unicode="&#xE5;" horiz-adv-x="538" d=" M236,-12 Q158,-12 112,35 Q66,82 66,170 Q66,299 143.5,394.5 Q221,490 334,490 Q442,490 492,410 L496,410 L514,478 L538,478 L442,0 L418,0 L430,78 L426,78 Q333,-12 236,-12 M238,14 Q336,14 438,122 L490,372 Q429,464 332,464 Q233,464 163.5,376 Q94,288 94,176 Q94,95 132,54.5 Q170,14 238,14 M378,548 Q343,548 320.5,568 Q298,588 298,624 Q298,668 326,700 Q354,732 396,732 Q431,732 453.5,712 Q476,692 476,656 Q476,612 448,580 Q420,548 378,548 M380,570 Q409,570 430.5,595 Q452,620 452,654 Q452,680 436.5,695 Q421,710 394,710 Q365,710 343.5,685 Q322,660 322,626 Q322,600 337.5,585 Q353,570 380,570"/> 
            <glyph glyph-name="æ" unicode="&#xE6;" horiz-adv-x="602" d=" M77,-12 Q30,-12 2.5,14.5 Q-25,41 -25,91 Q-25,177 52.5,225.5 Q130,274 282,298 Q302,373 281,418.5 Q260,464 200,464 Q136,464 68,414 L54,436 Q133,490 204,490 Q257,490 288,458 Q319,426 319,373 Q350,430 396,460 Q442,490 492,490 Q547,490 574.5,449.5 Q602,409 602,345 Q602,299 585,242 L298,242 Q290,200 290,161 Q290,94 318.5,54 Q347,14 403,14 Q462,14 524,56 L537,34 Q475,-12 397,-12 Q344,-12 313,17 Q282,46 270,90 Q223,38 172,13 Q121,-12 77,-12 M80,14 Q121,14 173,42 Q225,70 264,118 Q262,136 262,145 Q262,214 275,272 Q138,247 71.5,207.5 Q5,168 5,94 Q5,55 25.5,34.5 Q46,14 80,14 M488,464 Q426,464 376.5,408.5 Q327,353 304,268 L565,268 Q573,310 573,344 Q573,464 488,464"/> 
            <glyph glyph-name="ç" unicode="&#xE7;" horiz-adv-x="534" d=" M286,-12 L274,-12 L240,-68 Q273,-77 284.5,-89.5 Q296,-102 296,-124 Q296,-166 254.5,-190 Q213,-214 144,-216 L142,-192 Q202,-191 234,-174.5 Q266,-158 266,-132 Q266,-92 198,-86 L247,-10 Q166,1 119,55 Q72,109 72,200 Q72,325 158,407.5 Q244,490 358,490 Q472,490 534,406 L512,388 Q454,464 348,464 Q255,464 177.5,387 Q100,310 100,206 Q100,112 151,63 Q202,14 288,14 Q383,14 466,90 L484,70 Q444,33 390,10.5 Q336,-12 286,-12"/> 
            <glyph glyph-name="è" unicode="&#xE8;" horiz-adv-x="516" d=" M272,-12 Q179,-12 127.5,42 Q76,96 76,190 Q76,317 155.5,403.5 Q235,490 344,490 Q426,490 471,439.5 Q516,389 516,309 Q516,267 506,242 L108,242 Q104,221 104,192 Q104,112 149,63 Q194,14 274,14 Q375,14 454,86 L470,64 Q434,32 382,10 Q330,-12 272,-12 M340,464 Q266,464 201.5,409 Q137,354 114,268 L483,268 Q488,291 488,312 Q488,381 448.5,422.5 Q409,464 340,464 M402,570 L288,730 L314,748 L422,584"/> 
            <glyph glyph-name="é" unicode="&#xE9;" horiz-adv-x="516" d=" M272,-12 Q179,-12 127.5,42 Q76,96 76,190 Q76,317 155.5,403.5 Q235,490 344,490 Q426,490 471,439.5 Q516,389 516,309 Q516,267 506,242 L108,242 Q104,221 104,192 Q104,112 149,63 Q194,14 274,14 Q375,14 454,86 L470,64 Q434,32 382,10 Q330,-12 272,-12 M340,464 Q266,464 201.5,409 Q137,354 114,268 L483,268 Q488,291 488,312 Q488,381 448.5,422.5 Q409,464 340,464 M336,580 L320,598 L474,740 L494,716"/> 
            <glyph glyph-name="ê" unicode="&#xEA;" horiz-adv-x="516" d=" M272,-12 Q179,-12 127.5,42 Q76,96 76,190 Q76,317 155.5,403.5 Q235,490 344,490 Q426,490 471,439.5 Q516,389 516,309 Q516,267 506,242 L108,242 Q104,221 104,192 Q104,112 149,63 Q194,14 274,14 Q375,14 454,86 L470,64 Q434,32 382,10 Q330,-12 272,-12 M340,464 Q266,464 201.5,409 Q137,354 114,268 L483,268 Q488,291 488,312 Q488,381 448.5,422.5 Q409,464 340,464 M254,574 L236,590 L380,736 L408,736 L500,588 L480,574 L394,706 L390,706"/> 
            <glyph glyph-name="ë" unicode="&#xEB;" horiz-adv-x="516" d=" M272,-12 Q179,-12 127.5,42 Q76,96 76,190 Q76,317 155.5,403.5 Q235,490 344,490 Q426,490 471,439.5 Q516,389 516,309 Q516,267 506,242 L108,242 Q104,221 104,192 Q104,112 149,63 Q194,14 274,14 Q375,14 454,86 L470,64 Q434,32 382,10 Q330,-12 272,-12 M340,464 Q266,464 201.5,409 Q137,354 114,268 L483,268 Q488,291 488,312 Q488,381 448.5,422.5 Q409,464 340,464 M290,602 Q260,602 260,634 Q260,653 271.5,666.5 Q283,680 300,680 Q330,680 330,648 Q330,629 318.5,615.5 Q307,602 290,602 M456,602 Q426,602 426,634 Q426,653 437.5,666.5 Q449,680 466,680 Q496,680 496,648 Q496,629 484.5,615.5 Q473,602 456,602"/> 
            <glyph glyph-name="ì" unicode="&#xEC;" horiz-adv-x="472" d=" M351,-12 Q301,-12 271.5,14.5 Q242,41 242,94 Q242,115 248,142 L314,452 L124,452 L130,478 L346,478 L274,134 Q270,115 270,98 Q270,14 356,14 Q399,14 462,44 L472,22 Q404,-12 351,-12 M372,570 L258,730 L284,748 L392,584"/> 
            <glyph glyph-name="í" unicode="&#xED;" horiz-adv-x="472" d=" M351,-12 Q301,-12 271.5,14.5 Q242,41 242,94 Q242,115 248,142 L314,452 L124,452 L130,478 L346,478 L274,134 Q270,115 270,98 Q270,14 356,14 Q399,14 462,44 L472,22 Q404,-12 351,-12 M306,580 L290,598 L444,740 L464,716"/> 
            <glyph glyph-name="î" unicode="&#xEE;" horiz-adv-x="472" d=" M351,-12 Q301,-12 271.5,14.5 Q242,41 242,94 Q242,115 248,142 L314,452 L124,452 L130,478 L346,478 L274,134 Q270,115 270,98 Q270,14 356,14 Q399,14 462,44 L472,22 Q404,-12 351,-12 M224,574 L206,590 L350,736 L378,736 L470,588 L450,574 L364,706 L360,706"/> 
            <glyph glyph-name="ï" unicode="&#xEF;" horiz-adv-x="472" d=" M351,-12 Q301,-12 271.5,14.5 Q242,41 242,94 Q242,115 248,142 L314,452 L124,452 L130,478 L346,478 L274,134 Q270,115 270,98 Q270,14 356,14 Q399,14 462,44 L472,22 Q404,-12 351,-12 M260,602 Q230,602 230,634 Q230,653 241.5,666.5 Q253,680 270,680 Q300,680 300,648 Q300,629 288.5,615.5 Q277,602 260,602 M426,602 Q396,602 396,634 Q396,653 407.5,666.5 Q419,680 436,680 Q466,680 466,648 Q466,629 454.5,615.5 Q443,602 426,602"/> 
            <glyph glyph-name="ð" unicode="&#xF0;" horiz-adv-x="577" d=" M238,-12 Q158,-12 103.5,39.5 Q49,91 49,176 Q49,291 128,365.5 Q207,440 328,440 Q377,440 422.5,418 Q468,396 497,362 Q490,503 408,598 L246,521 L237,542 L392,615 Q344,665 277,698 L292,722 Q367,683 419,628 L569,699 L577,678 L434,610 Q526,500 526,339 Q526,180 449,84 Q372,-12 238,-12 M243,14 Q360,14 425.5,101.5 Q491,189 497,321 Q467,368 420.5,391 Q374,414 325,414 Q212,414 145.5,344 Q79,274 79,182 Q79,107 125,60.5 Q171,14 243,14"/> 
            <glyph glyph-name="ñ" unicode="&#xF1;" horiz-adv-x="552" d=" M52,0 L148,478 L172,478 L154,368 L158,368 Q218,426 273,458 Q328,490 396,490 Q459,490 488.5,458.5 Q518,427 518,374 Q518,337 508,290 L450,0 L422,0 L480,288 Q490,338 490,370 Q490,415 465,439.5 Q440,464 392,464 Q279,464 146,324 L80,0 M450,580 Q426,580 407.5,596 Q389,612 379.5,631 Q370,650 354,666 Q338,682 318,682 Q268,682 246,582 L220,584 Q249,706 322,706 Q346,706 364.5,690 Q383,674 392.5,655 Q402,636 418,620 Q434,604 454,604 Q503,604 526,704 L552,702 Q522,580 450,580"/> 
            <glyph glyph-name="ò" unicode="&#xF2;" horiz-adv-x="518" d=" M246,-12 Q158,-12 107,45 Q56,102 56,194 Q56,316 136.5,403 Q217,490 328,490 Q416,490 467,433 Q518,376 518,284 Q518,162 437.5,75 Q357,-12 246,-12 M248,14 Q344,14 417,93 Q490,172 490,278 Q490,363 446.5,413.5 Q403,464 326,464 Q230,464 157,385 Q84,306 84,200 Q84,115 127.5,64.5 Q171,14 248,14 M390,570 L276,730 L302,748 L410,584"/> 
            <glyph glyph-name="ó" unicode="&#xF3;" horiz-adv-x="518" d=" M246,-12 Q158,-12 107,45 Q56,102 56,194 Q56,316 136.5,403 Q217,490 328,490 Q416,490 467,433 Q518,376 518,284 Q518,162 437.5,75 Q357,-12 246,-12 M248,14 Q344,14 417,93 Q490,172 490,278 Q490,363 446.5,413.5 Q403,464 326,464 Q230,464 157,385 Q84,306 84,200 Q84,115 127.5,64.5 Q171,14 248,14 M324,580 L308,598 L462,740 L482,716"/> 
            <glyph glyph-name="ô" unicode="&#xF4;" horiz-adv-x="518" d=" M246,-12 Q158,-12 107,45 Q56,102 56,194 Q56,316 136.5,403 Q217,490 328,490 Q416,490 467,433 Q518,376 518,284 Q518,162 437.5,75 Q357,-12 246,-12 M248,14 Q344,14 417,93 Q490,172 490,278 Q490,363 446.5,413.5 Q403,464 326,464 Q230,464 157,385 Q84,306 84,200 Q84,115 127.5,64.5 Q171,14 248,14 M242,574 L224,590 L368,736 L396,736 L488,588 L468,574 L382,706 L378,706"/> 
            <glyph glyph-name="õ" unicode="&#xF5;" horiz-adv-x="540" d=" M246,-12 Q158,-12 107,45 Q56,102 56,194 Q56,316 136.5,403 Q217,490 328,490 Q416,490 467,433 Q518,376 518,284 Q518,162 437.5,75 Q357,-12 246,-12 M248,14 Q344,14 417,93 Q490,172 490,278 Q490,363 446.5,413.5 Q403,464 326,464 Q230,464 157,385 Q84,306 84,200 Q84,115 127.5,64.5 Q171,14 248,14 M438,580 Q414,580 395.5,596 Q377,612 367.5,631 Q358,650 342,666 Q326,682 306,682 Q256,682 234,582 L208,584 Q237,706 310,706 Q334,706 352.5,690 Q371,674 380.5,655 Q390,636 406,620 Q422,604 442,604 Q491,604 514,704 L540,702 Q510,580 438,580"/> 
            <glyph glyph-name="ö" unicode="&#xF6;" horiz-adv-x="518" d=" M246,-12 Q158,-12 107,45 Q56,102 56,194 Q56,316 136.5,403 Q217,490 328,490 Q416,490 467,433 Q518,376 518,284 Q518,162 437.5,75 Q357,-12 246,-12 M248,14 Q344,14 417,93 Q490,172 490,278 Q490,363 446.5,413.5 Q403,464 326,464 Q230,464 157,385 Q84,306 84,200 Q84,115 127.5,64.5 Q171,14 248,14 M278,602 Q248,602 248,634 Q248,653 259.5,666.5 Q271,680 288,680 Q318,680 318,648 Q318,629 306.5,615.5 Q295,602 278,602 M444,602 Q414,602 414,634 Q414,653 425.5,666.5 Q437,680 454,680 Q484,680 484,648 Q484,629 472.5,615.5 Q461,602 444,602"/> 
            <glyph glyph-name="÷" unicode="&#xF7;" horiz-adv-x="501" d=" M313,475 Q287,475 278,484.5 Q269,494 269,510 Q269,525 278,534 Q287,543 300,543 Q313,543 322,534 Q331,525 331,510 Q331,494 313,475 M313,115 Q287,115 278,124.5 Q269,134 269,150 Q269,165 278,174 Q287,183 300,183 Q313,183 322,174 Q331,165 331,150 Q331,134 313,115 M99,317 L99,343 L501,343 L501,317"/> 
            <glyph glyph-name="ø" unicode="&#xF8;" horiz-adv-x="564" d=" M246,-12 Q154,-12 103,50 L28,-20 L10,-2 L88,71 Q56,121 56,194 Q56,316 136.5,403 Q217,490 328,490 Q420,490 471,428 L546,498 L564,480 L486,407 Q518,357 518,284 Q518,162 437.5,75 Q357,-12 246,-12 M84,200 Q84,136 109,91 L450,409 Q406,464 326,464 Q230,464 157,385 Q84,306 84,200 M248,14 Q344,14 417,93 Q490,172 490,278 Q490,342 465,387 L124,69 Q168,14 248,14"/> 
            <glyph glyph-name="ù" unicode="&#xF9;" horiz-adv-x="536" d=" M193,-12 Q130,-12 100,19.5 Q70,51 70,104 Q70,141 80,188 L138,478 L166,478 L108,190 Q98,140 98,108 Q98,63 123,38.5 Q148,14 196,14 Q309,14 442,154 L508,478 L536,478 L440,0 L416,0 L434,110 L430,110 Q370,52 315,20 Q260,-12 193,-12 M390,570 L276,730 L302,748 L410,584"/> 
            <glyph glyph-name="ú" unicode="&#xFA;" horiz-adv-x="536" d=" M193,-12 Q130,-12 100,19.5 Q70,51 70,104 Q70,141 80,188 L138,478 L166,478 L108,190 Q98,140 98,108 Q98,63 123,38.5 Q148,14 196,14 Q309,14 442,154 L508,478 L536,478 L440,0 L416,0 L434,110 L430,110 Q370,52 315,20 Q260,-12 193,-12 M324,580 L308,598 L462,740 L482,716"/> 
            <glyph glyph-name="û" unicode="&#xFB;" horiz-adv-x="536" d=" M193,-12 Q130,-12 100,19.5 Q70,51 70,104 Q70,141 80,188 L138,478 L166,478 L108,190 Q98,140 98,108 Q98,63 123,38.5 Q148,14 196,14 Q309,14 442,154 L508,478 L536,478 L440,0 L416,0 L434,110 L430,110 Q370,52 315,20 Q260,-12 193,-12 M242,574 L224,590 L368,736 L396,736 L488,588 L468,574 L382,706 L378,706"/> 
            <glyph glyph-name="ü" unicode="&#xFC;" horiz-adv-x="536" d=" M193,-12 Q130,-12 100,19.5 Q70,51 70,104 Q70,141 80,188 L138,478 L166,478 L108,190 Q98,140 98,108 Q98,63 123,38.5 Q148,14 196,14 Q309,14 442,154 L508,478 L536,478 L440,0 L416,0 L434,110 L430,110 Q370,52 315,20 Q260,-12 193,-12 M278,602 Q248,602 248,634 Q248,653 259.5,666.5 Q271,680 288,680 Q318,680 318,648 Q318,629 306.5,615.5 Q295,602 278,602 M444,602 Q414,602 414,634 Q414,653 425.5,666.5 Q437,680 454,680 Q484,680 484,648 Q484,629 472.5,615.5 Q461,602 444,602"/> 
            <glyph glyph-name="ý" unicode="&#xFD;" horiz-adv-x="566" d=" M24,-222 Q-12,-222 -40,-208 L-28,-184 Q-4,-196 26,-196 Q74,-196 107,-169 Q140,-142 188,-68 L228,-6 L100,478 L128,478 L210,160 Q226,99 244,20 L248,20 Q283,80 334,160 L534,478 L566,478 L208,-82 Q158,-160 121,-191 Q84,-222 24,-222 M316,580 L300,598 L454,740 L474,716"/> 
            <glyph glyph-name="þ" unicode="&#xFE;" horiz-adv-x="524" d=" M8,-222 L196,722 L224,722 L180,506 L156,398 L160,398 Q264,490 354,490 Q432,490 478,439.5 Q524,389 524,298 Q524,167 448.5,77.5 Q373,-12 256,-12 Q207,-12 165,10 Q123,32 96,68 L92,68 L70,-42 L36,-222 M258,14 Q360,14 428,96.5 Q496,179 496,292 Q496,376 457.5,420 Q419,464 352,464 Q308,464 254,435 Q200,406 152,360 L100,102 Q161,14 258,14"/> 
            <glyph glyph-name="ÿ" unicode="&#xFF;" horiz-adv-x="566" d=" M24,-222 Q-12,-222 -40,-208 L-28,-184 Q-4,-196 26,-196 Q74,-196 107,-169 Q140,-142 188,-68 L228,-6 L100,478 L128,478 L210,160 Q226,99 244,20 L248,20 Q283,80 334,160 L534,478 L566,478 L208,-82 Q158,-160 121,-191 Q84,-222 24,-222 M270,602 Q240,602 240,634 Q240,653 251.5,666.5 Q263,680 280,680 Q310,680 310,648 Q310,629 298.5,615.5 Q287,602 270,602 M436,602 Q406,602 406,634 Q406,653 417.5,666.5 Q429,680 446,680 Q476,680 476,648 Q476,629 464.5,615.5 Q453,602 436,602"/> 
            <glyph glyph-name="Ā" unicode="&#x100;" horiz-adv-x="506" d=" M248,400 L172,264 L423,264 L406,396 Q401,432 391.5,510.5 Q382,589 377,627 L372,627 Q319,531 248,400 M-8,0 L366,660 L396,660 L488,0 L458,0 L427,238 L157,238 L24,0 M270,736 L276,762 L506,762 L500,736"/> 
            <glyph glyph-name="ā" unicode="&#x101;" horiz-adv-x="538" d=" M236,-12 Q158,-12 112,35 Q66,82 66,170 Q66,299 143.5,394.5 Q221,490 334,490 Q442,490 492,410 L496,410 L514,478 L538,478 L442,0 L418,0 L430,78 L426,78 Q333,-12 236,-12 M238,14 Q336,14 438,122 L490,372 Q429,464 332,464 Q233,464 163.5,376 Q94,288 94,176 Q94,95 132,54.5 Q170,14 238,14 M264,608 L268,634 L500,634 L496,608"/> 
            <glyph glyph-name="Ă" unicode="&#x102;" horiz-adv-x="534" d=" M248,400 L172,264 L423,264 L406,396 Q401,432 391.5,510.5 Q382,589 377,627 L372,627 Q319,531 248,400 M-8,0 L366,660 L396,660 L488,0 L458,0 L427,238 L157,238 L24,0 M378,712 Q320,712 293.5,749 Q267,786 270,834 L296,838 Q294,795 315.5,766.5 Q337,738 384,738 Q430,738 461.5,766.5 Q493,795 508,838 L534,834 Q520,786 479.5,749 Q439,712 378,712"/> 
            <glyph glyph-name="ă" unicode="&#x103;" horiz-adv-x="548" d=" M236,-12 Q158,-12 112,35 Q66,82 66,170 Q66,299 143.5,394.5 Q221,490 334,490 Q442,490 492,410 L496,410 L514,478 L538,478 L442,0 L418,0 L430,78 L426,78 Q333,-12 236,-12 M238,14 Q336,14 438,122 L490,372 Q429,464 332,464 Q233,464 163.5,376 Q94,288 94,176 Q94,95 132,54.5 Q170,14 238,14 M374,570 Q308,570 281,614 Q254,658 256,716 L282,720 Q279,671 303.5,633.5 Q328,596 380,596 Q431,596 468,633 Q505,670 522,720 L548,716 Q531,659 487,614.5 Q443,570 374,570"/> 
            <glyph glyph-name="Ą" unicode="&#x104;" horiz-adv-x="504" d=" M430,-224 Q394,-224 369,-206 Q344,-188 344,-152 Q344,-68 460,0 L458,0 L427,238 L157,238 L24,0 L-8,0 L366,660 L396,660 L488,0 Q372,-77 372,-144 Q372,-198 436,-198 Q465,-198 492,-178 L504,-196 Q472,-224 430,-224 M248,400 L172,264 L423,264 L406,396 Q401,432 391.5,510.5 Q382,589 377,627 L372,627 Q319,531 248,400"/> 
            <glyph glyph-name="ą" unicode="&#x105;" horiz-adv-x="538" d=" M374,-224 Q338,-224 313,-206 Q288,-188 288,-152 Q288,-105 322.5,-68.5 Q357,-32 418,0 L430,78 L426,78 Q333,-12 236,-12 Q158,-12 112,35 Q66,82 66,170 Q66,299 143.5,394.5 Q221,490 334,490 Q442,490 492,410 L496,410 L514,478 L538,478 L440,-8 Q316,-77 316,-144 Q316,-198 380,-198 Q409,-198 436,-178 L448,-196 Q416,-224 374,-224 M238,14 Q336,14 438,122 L490,372 Q429,464 332,464 Q233,464 163.5,376 Q94,288 94,176 Q94,95 132,54.5 Q170,14 238,14"/> 
            <glyph glyph-name="Ć" unicode="&#x106;" horiz-adv-x="568" d=" M304,-12 Q197,-12 140.5,59.5 Q84,131 84,246 Q84,346 122,441.5 Q160,537 238,604.5 Q316,672 416,672 Q513,672 568,580 L544,564 Q500,646 414,646 Q345,646 286.5,608.5 Q228,571 191.5,512.5 Q155,454 134.5,385.5 Q114,317 114,252 Q114,145 162,79.5 Q210,14 306,14 Q389,14 468,80 L486,60 Q398,-12 304,-12 M398,716 L386,732 L526,842 L544,816"/> 
            <glyph glyph-name="ć" unicode="&#x107;" horiz-adv-x="534" d=" M286,-12 Q189,-12 130.5,43 Q72,98 72,200 Q72,325 158,407.5 Q244,490 358,490 Q472,490 534,406 L512,388 Q454,464 348,464 Q255,464 177.5,387 Q100,310 100,206 Q100,112 151,63 Q202,14 288,14 Q383,14 466,90 L484,70 Q444,33 390,10.5 Q336,-12 286,-12 M340,580 L324,598 L478,740 L498,716"/> 
            <glyph glyph-name="Ĉ" unicode="&#x108;" horiz-adv-x="568" d=" M304,-12 Q197,-12 140.5,59.5 Q84,131 84,246 Q84,346 122,441.5 Q160,537 238,604.5 Q316,672 416,672 Q513,672 568,580 L544,564 Q500,646 414,646 Q345,646 286.5,608.5 Q228,571 191.5,512.5 Q155,454 134.5,385.5 Q114,317 114,252 Q114,145 162,79.5 Q210,14 306,14 Q389,14 468,80 L486,60 Q398,-12 304,-12 M292,710 L278,726 L414,840 L442,840 L538,726 L522,712 L428,812 L424,812"/> 
            <glyph glyph-name="ĉ" unicode="&#x109;" horiz-adv-x="534" d=" M286,-12 Q189,-12 130.5,43 Q72,98 72,200 Q72,325 158,407.5 Q244,490 358,490 Q472,490 534,406 L512,388 Q454,464 348,464 Q255,464 177.5,387 Q100,310 100,206 Q100,112 151,63 Q202,14 288,14 Q383,14 466,90 L484,70 Q444,33 390,10.5 Q336,-12 286,-12 M258,574 L240,590 L384,736 L412,736 L504,588 L484,574 L398,706 L394,706"/> 
            <glyph glyph-name="Ċ" unicode="&#x10A;" horiz-adv-x="568" d=" M304,-12 Q197,-12 140.5,59.5 Q84,131 84,246 Q84,346 122,441.5 Q160,537 238,604.5 Q316,672 416,672 Q513,672 568,580 L544,564 Q500,646 414,646 Q345,646 286.5,608.5 Q228,571 191.5,512.5 Q155,454 134.5,385.5 Q114,317 114,252 Q114,145 162,79.5 Q210,14 306,14 Q389,14 468,80 L486,60 Q398,-12 304,-12 M412,726 Q400,726 392,734 Q384,742 384,754 Q384,771 395,782.5 Q406,794 420,794 Q432,794 440,785.5 Q448,777 448,764 Q448,748 437,737 Q426,726 412,726"/> 
            <glyph glyph-name="ċ" unicode="&#x10B;" horiz-adv-x="534" d=" M286,-12 Q189,-12 130.5,43 Q72,98 72,200 Q72,325 158,407.5 Q244,490 358,490 Q472,490 534,406 L512,388 Q454,464 348,464 Q255,464 177.5,387 Q100,310 100,206 Q100,112 151,63 Q202,14 288,14 Q383,14 466,90 L484,70 Q444,33 390,10.5 Q336,-12 286,-12 M376,600 Q342,600 342,634 Q342,653 355.5,667.5 Q369,682 386,682 Q420,682 420,648 Q420,629 406.5,614.5 Q393,600 376,600"/> 
            <glyph glyph-name="Č" unicode="&#x10C;" horiz-adv-x="568" d=" M304,-12 Q197,-12 140.5,59.5 Q84,131 84,246 Q84,346 122,441.5 Q160,537 238,604.5 Q316,672 416,672 Q513,672 568,580 L544,564 Q500,646 414,646 Q345,646 286.5,608.5 Q228,571 191.5,512.5 Q155,454 134.5,385.5 Q114,317 114,252 Q114,145 162,79.5 Q210,14 306,14 Q389,14 468,80 L486,60 Q398,-12 304,-12 M396,710 L300,824 L316,838 L410,738 L414,738 L546,840 L560,824 L424,710"/> 
            <glyph glyph-name="č" unicode="&#x10D;" horiz-adv-x="534" d=" M286,-12 Q189,-12 130.5,43 Q72,98 72,200 Q72,325 158,407.5 Q244,490 358,490 Q472,490 534,406 L512,388 Q454,464 348,464 Q255,464 177.5,387 Q100,310 100,206 Q100,112 151,63 Q202,14 288,14 Q383,14 466,90 L484,70 Q444,33 390,10.5 Q336,-12 286,-12 M354,572 L262,720 L282,734 L368,602 L372,602 L508,734 L526,718 L382,572"/> 
            <glyph glyph-name="Ď" unicode="&#x10E;" horiz-adv-x="550" d=" M30,0 L162,660 L280,660 Q413,660 481.5,592 Q550,524 550,404 Q550,290 510.5,200 Q471,110 387,55 Q303,0 186,0 M64,26 L188,26 Q345,26 432.5,132 Q520,238 520,402 Q520,510 459,572 Q398,634 278,634 L186,634 M356,710 L260,824 L276,838 L370,738 L374,738 L506,840 L520,824 L384,710"/> 
            <glyph glyph-name="ď" unicode="&#x10F;" horiz-adv-x="720" d=" M236,-12 Q158,-12 112,35 Q66,82 66,170 Q66,299 143.5,394.5 Q221,490 334,490 Q442,490 492,410 L496,410 L516,506 L560,722 L588,722 L442,0 L418,0 L430,78 L426,78 Q333,-12 236,-12 M238,14 Q336,14 438,122 L490,372 Q429,464 332,464 Q233,464 163.5,376 Q94,288 94,176 Q94,95 132,54.5 Q170,14 238,14 M642,548 L692,812 L720,812 L706,744 L662,548"/> 
            <glyph glyph-name="Đ" unicode="&#x110;" horiz-adv-x="550" d=" M30,0 L98,338 L18,338 L24,362 L103,364 L162,660 L280,660 Q413,660 481.5,592 Q550,524 550,404 Q550,290 510.5,200 Q471,110 387,55 Q303,0 186,0 M64,26 L188,26 Q345,26 432.5,132 Q520,238 520,402 Q520,510 459,572 Q398,634 278,634 L186,634 L132,364 L304,364 L298,338 L127,338"/> 
            <glyph glyph-name="đ" unicode="&#x111;" horiz-adv-x="640" d=" M236,-12 Q158,-12 112,35 Q66,82 66,170 Q66,291 144,380.5 Q222,470 334,470 Q438,470 488,390 L492,390 L512,486 L532,586 L340,586 L348,612 L538,612 L560,722 L588,722 L566,612 L640,612 L636,590 L561,586 L442,0 L418,0 L430,78 L426,78 Q333,-12 236,-12 M238,14 Q336,14 438,122 L486,352 Q425,444 332,444 Q234,444 164,361.5 Q94,279 94,176 Q94,95 132,54.5 Q170,14 238,14"/> 
            <glyph glyph-name="Ē" unicode="&#x112;" horiz-adv-x="596" d=" M78,0 L210,660 L596,660 L590,634 L234,634 L180,364 L478,364 L472,338 L176,338 L112,26 L478,26 L472,0 M314,736 L320,762 L550,762 L544,736"/> 
            <glyph glyph-name="ē" unicode="&#x113;" horiz-adv-x="516" d=" M272,-12 Q179,-12 127.5,42 Q76,96 76,190 Q76,317 155.5,403.5 Q235,490 344,490 Q426,490 471,439.5 Q516,389 516,309 Q516,267 506,242 L108,242 Q104,221 104,192 Q104,112 149,63 Q194,14 274,14 Q375,14 454,86 L470,64 Q434,32 382,10 Q330,-12 272,-12 M340,464 Q266,464 201.5,409 Q137,354 114,268 L483,268 Q488,291 488,312 Q488,381 448.5,422.5 Q409,464 340,464 M256,608 L260,634 L492,634 L488,608"/> 
            <glyph glyph-name="Ĕ" unicode="&#x114;" horiz-adv-x="596" d=" M78,0 L210,660 L596,660 L590,634 L234,634 L180,364 L478,364 L472,338 L176,338 L112,26 L478,26 L472,0 M422,712 Q364,712 337.5,749 Q311,786 314,834 L340,838 Q338,795 359.5,766.5 Q381,738 428,738 Q474,738 505.5,766.5 Q537,795 552,838 L578,834 Q564,786 523.5,749 Q483,712 422,712"/> 
            <glyph glyph-name="ĕ" unicode="&#x115;" horiz-adv-x="540" d=" M272,-12 Q179,-12 127.5,42 Q76,96 76,190 Q76,317 155.5,403.5 Q235,490 344,490 Q426,490 471,439.5 Q516,389 516,309 Q516,267 506,242 L108,242 Q104,221 104,192 Q104,112 149,63 Q194,14 274,14 Q375,14 454,86 L470,64 Q434,32 382,10 Q330,-12 272,-12 M340,464 Q266,464 201.5,409 Q137,354 114,268 L483,268 Q488,291 488,312 Q488,381 448.5,422.5 Q409,464 340,464 M366,570 Q300,570 273,614 Q246,658 248,716 L274,720 Q271,671 295.5,633.5 Q320,596 372,596 Q423,596 460,633 Q497,670 514,720 L540,716 Q523,659 479,614.5 Q435,570 366,570"/> 
            <glyph glyph-name="Ė" unicode="&#x116;" horiz-adv-x="596" d=" M78,0 L210,660 L596,660 L590,634 L234,634 L180,364 L478,364 L472,338 L176,338 L112,26 L478,26 L472,0 M430,726 Q418,726 410,734 Q402,742 402,754 Q402,771 413,782.5 Q424,794 438,794 Q450,794 458,785.5 Q466,777 466,764 Q466,748 455,737 Q444,726 430,726"/> 
            <glyph glyph-name="ė" unicode="&#x117;" horiz-adv-x="516" d=" M272,-12 Q179,-12 127.5,42 Q76,96 76,190 Q76,317 155.5,403.5 Q235,490 344,490 Q426,490 471,439.5 Q516,389 516,309 Q516,267 506,242 L108,242 Q104,221 104,192 Q104,112 149,63 Q194,14 274,14 Q375,14 454,86 L470,64 Q434,32 382,10 Q330,-12 272,-12 M340,464 Q266,464 201.5,409 Q137,354 114,268 L483,268 Q488,291 488,312 Q488,381 448.5,422.5 Q409,464 340,464 M372,600 Q338,600 338,634 Q338,653 351.5,667.5 Q365,682 382,682 Q416,682 416,648 Q416,629 402.5,614.5 Q389,600 372,600"/> 
            <glyph glyph-name="Ę" unicode="&#x118;" horiz-adv-x="596" d=" M382,-224 Q346,-224 321,-206 Q296,-188 296,-152 Q296,-107 328.5,-66.5 Q361,-26 410,0 L78,0 L210,660 L596,660 L590,634 L234,634 L180,364 L478,364 L472,338 L176,338 L112,26 L478,26 L472,0 L470,0 Q430,0 377,-49 Q324,-98 324,-144 Q324,-198 388,-198 Q417,-198 444,-178 L456,-196 Q424,-224 382,-224"/> 
            <glyph glyph-name="ę" unicode="&#x119;" horiz-adv-x="516" d=" M342,-224 Q306,-224 281,-206 Q256,-188 256,-152 Q256,-111 283,-75 Q310,-39 360,3 Q309,-12 271,-12 Q179,-12 127.5,42 Q76,96 76,190 Q76,317 155.5,403.5 Q235,490 344,490 Q426,490 471,439.5 Q516,389 516,309 Q516,267 506,242 L108,242 Q104,221 104,192 Q104,112 149,63 Q194,14 274,14 Q375,14 454,86 L470,64 Q284,-67 284,-144 Q284,-198 348,-198 Q377,-198 404,-178 L416,-196 Q385,-224 342,-224 M340,464 Q266,464 201.5,409 Q137,354 114,268 L483,268 Q488,291 488,312 Q488,381 448.5,422.5 Q409,464 340,464"/> 
            <glyph glyph-name="Ě" unicode="&#x11A;" horiz-adv-x="596" d=" M78,0 L210,660 L596,660 L590,634 L234,634 L180,364 L478,364 L472,338 L176,338 L112,26 L478,26 L472,0 M414,710 L318,824 L334,838 L428,738 L432,738 L564,840 L578,824 L442,710"/> 
            <glyph glyph-name="ě" unicode="&#x11B;" horiz-adv-x="522" d=" M272,-12 Q179,-12 127.5,42 Q76,96 76,190 Q76,317 155.5,403.5 Q235,490 344,490 Q426,490 471,439.5 Q516,389 516,309 Q516,267 506,242 L108,242 Q104,221 104,192 Q104,112 149,63 Q194,14 274,14 Q375,14 454,86 L470,64 Q434,32 382,10 Q330,-12 272,-12 M340,464 Q266,464 201.5,409 Q137,354 114,268 L483,268 Q488,291 488,312 Q488,381 448.5,422.5 Q409,464 340,464 M350,572 L258,720 L278,734 L364,602 L368,602 L504,734 L522,718 L378,572"/> 
            <glyph glyph-name="Ĝ" unicode="&#x11C;" horiz-adv-x="568" d=" M304,-12 Q191,-12 132.5,58.5 Q74,129 74,246 Q74,321 97,395 Q120,469 161.5,531.5 Q203,594 269.5,633 Q336,672 416,672 Q510,672 568,580 L544,564 Q498,646 414,646 Q342,646 281.5,608.5 Q221,571 183.5,512.5 Q146,454 125,385.5 Q104,317 104,252 Q104,146 153.5,80 Q203,14 306,14 Q392,14 450,68 L494,290 L336,290 L342,316 L530,316 L476,54 Q400,-12 304,-12 M292,710 L278,726 L414,840 L442,840 L538,726 L522,712 L428,812 L424,812"/> 
            <glyph glyph-name="ĝ" unicode="&#x11D;" horiz-adv-x="538" d=" M196,-234 Q96,-234 26,-178 L44,-156 Q105,-208 200,-208 Q282,-208 336.5,-164.5 Q391,-121 406,-42 L430,84 L426,84 Q333,-6 236,-6 Q158,-6 112,40.5 Q66,87 66,174 Q66,301 143.5,395.5 Q221,490 334,490 Q442,490 492,410 L496,410 L514,478 L538,478 L432,-52 Q414,-141 351,-187.5 Q288,-234 196,-234 M238,20 Q336,20 438,128 L490,372 Q429,464 332,464 Q233,464 163.5,377 Q94,290 94,180 Q94,101 132,60.5 Q170,20 238,20 M262,574 L244,590 L388,736 L416,736 L508,588 L488,574 L402,706 L398,706"/> 
            <glyph glyph-name="Ğ" unicode="&#x11E;" horiz-adv-x="568" d=" M304,-12 Q191,-12 132.5,58.5 Q74,129 74,246 Q74,321 97,395 Q120,469 161.5,531.5 Q203,594 269.5,633 Q336,672 416,672 Q510,672 568,580 L544,564 Q498,646 414,646 Q342,646 281.5,608.5 Q221,571 183.5,512.5 Q146,454 125,385.5 Q104,317 104,252 Q104,146 153.5,80 Q203,14 306,14 Q392,14 450,68 L494,290 L336,290 L342,316 L530,316 L476,54 Q400,-12 304,-12 M404,712 Q346,712 319.5,749 Q293,786 296,834 L322,838 Q320,795 341.5,766.5 Q363,738 410,738 Q456,738 487.5,766.5 Q519,795 534,838 L560,834 Q546,786 505.5,749 Q465,712 404,712"/> 
            <glyph glyph-name="ğ" unicode="&#x11F;" horiz-adv-x="548" d=" M196,-234 Q96,-234 26,-178 L44,-156 Q105,-208 200,-208 Q282,-208 336.5,-164.5 Q391,-121 406,-42 L430,84 L426,84 Q333,-6 236,-6 Q158,-6 112,40.5 Q66,87 66,174 Q66,301 143.5,395.5 Q221,490 334,490 Q442,490 492,410 L496,410 L514,478 L538,478 L432,-52 Q414,-141 351,-187.5 Q288,-234 196,-234 M238,20 Q336,20 438,128 L490,372 Q429,464 332,464 Q233,464 163.5,377 Q94,290 94,180 Q94,101 132,60.5 Q170,20 238,20 M374,570 Q308,570 281,614 Q254,658 256,716 L282,720 Q279,671 303.5,633.5 Q328,596 380,596 Q431,596 468,633 Q505,670 522,720 L548,716 Q531,659 487,614.5 Q443,570 374,570"/> 
            <glyph glyph-name="Ġ" unicode="&#x120;" horiz-adv-x="568" d=" M304,-12 Q191,-12 132.5,58.5 Q74,129 74,246 Q74,321 97,395 Q120,469 161.5,531.5 Q203,594 269.5,633 Q336,672 416,672 Q510,672 568,580 L544,564 Q498,646 414,646 Q342,646 281.5,608.5 Q221,571 183.5,512.5 Q146,454 125,385.5 Q104,317 104,252 Q104,146 153.5,80 Q203,14 306,14 Q392,14 450,68 L494,290 L336,290 L342,316 L530,316 L476,54 Q400,-12 304,-12 M412,726 Q400,726 392,734 Q384,742 384,754 Q384,771 395,782.5 Q406,794 420,794 Q432,794 440,785.5 Q448,777 448,764 Q448,748 437,737 Q426,726 412,726"/> 
            <glyph glyph-name="ġ" unicode="&#x121;" horiz-adv-x="538" d=" M196,-234 Q96,-234 26,-178 L44,-156 Q105,-208 200,-208 Q282,-208 336.5,-164.5 Q391,-121 406,-42 L430,84 L426,84 Q333,-6 236,-6 Q158,-6 112,40.5 Q66,87 66,174 Q66,301 143.5,395.5 Q221,490 334,490 Q442,490 492,410 L496,410 L514,478 L538,478 L432,-52 Q414,-141 351,-187.5 Q288,-234 196,-234 M238,20 Q336,20 438,128 L490,372 Q429,464 332,464 Q233,464 163.5,377 Q94,290 94,180 Q94,101 132,60.5 Q170,20 238,20 M380,600 Q346,600 346,634 Q346,653 359.5,667.5 Q373,682 390,682 Q424,682 424,648 Q424,629 410.5,614.5 Q397,600 380,600"/> 
            <glyph glyph-name="Ģ" unicode="&#x122;" horiz-adv-x="568" d=" M304,-12 Q191,-12 132.5,58.5 Q74,129 74,246 Q74,321 97,395 Q120,469 161.5,531.5 Q203,594 269.5,633 Q336,672 416,672 Q510,672 568,580 L544,564 Q498,646 414,646 Q342,646 281.5,608.5 Q221,571 183.5,512.5 Q146,454 125,385.5 Q104,317 104,252 Q104,146 153.5,80 Q203,14 306,14 Q392,14 450,68 L494,290 L336,290 L342,316 L530,316 L476,54 Q400,-12 304,-12 M184,-216 L182,-192 Q242,-191 274,-174.5 Q306,-158 306,-132 Q306,-92 238,-86 L248,-62 Q300,-69 318,-83 Q336,-97 336,-124 Q336,-166 294.5,-190 Q253,-214 184,-216"/> 
            <glyph glyph-name="ģ" unicode="&#x123;" horiz-adv-x="538" d=" M196,-234 Q96,-234 26,-178 L44,-156 Q105,-208 200,-208 Q282,-208 336.5,-164.5 Q391,-121 406,-42 L430,84 L426,84 Q333,-6 236,-6 Q158,-6 112,40.5 Q66,87 66,174 Q66,301 143.5,395.5 Q221,490 334,490 Q442,490 492,410 L496,410 L514,478 L538,478 L432,-52 Q414,-141 351,-187.5 Q288,-234 196,-234 M238,20 Q336,20 438,128 L490,372 Q429,464 332,464 Q233,464 163.5,377 Q94,290 94,180 Q94,101 132,60.5 Q170,20 238,20 M390,538 Q324,555 324,603 Q324,640 361.5,662 Q399,684 460,690 L461,665 Q415,660 384.5,644.5 Q354,629 354,606 Q354,573 405,563"/> 
            <glyph glyph-name="Ĥ" unicode="&#x124;" horiz-adv-x="578" d=" M30,0 L162,660 L192,660 L132,364 L488,364 L548,660 L578,660 L446,0 L416,0 L484,338 L128,338 L60,0 M266,710 L252,726 L388,840 L416,840 L512,726 L496,712 L402,812 L398,812"/> 
            <glyph glyph-name="ĥ" unicode="&#x125;" horiz-adv-x="518" d=" M52,0 L196,722 L224,722 L162,414 L152,368 L156,368 Q218,427 273,458.5 Q328,490 396,490 Q459,490 488.5,458.5 Q518,427 518,374 Q518,337 508,290 L450,0 L422,0 L480,288 Q490,338 490,370 Q490,415 465,439.5 Q440,464 392,464 Q279,464 146,324 L80,0 M102,770 L88,786 L224,900 L252,900 L348,786 L332,772 L238,872 L234,872"/> 
            <glyph glyph-name="Ħ" unicode="&#x126;" horiz-adv-x="626" d=" M52,498 L56,518 L134,522 L162,660 L192,660 L164,522 L520,522 L548,660 L578,660 L550,522 L626,522 L620,498 L546,498 L446,0 L416,0 L484,338 L128,338 L60,0 L30,0 L130,498 M132,364 L488,364 L515,498 L159,498"/> 
            <glyph glyph-name="ħ" unicode="&#x127;" horiz-adv-x="514" d=" M52,0 L169,586 L90,586 L94,608 L174,612 L196,722 L224,722 L202,612 L440,612 L432,586 L197,586 L158,394 L148,348 L152,348 Q214,407 269,438.5 Q324,470 392,470 Q455,470 484.5,438.5 Q514,407 514,354 Q514,317 504,270 L450,0 L422,0 L476,268 Q486,318 486,350 Q486,395 461,419.5 Q436,444 388,444 Q275,444 142,304 L80,0"/> 
            <glyph glyph-name="Ĩ" unicode="&#x128;" horiz-adv-x="558" d=" M50,0 L56,26 L226,26 L348,634 L176,634 L182,660 L558,660 L552,634 L378,634 L256,26 L430,26 L424,0 M458,722 Q435,722 416,735 Q397,748 386,764 Q375,780 358.5,793 Q342,806 324,806 Q301,806 282,783.5 Q263,761 252,724 L230,726 Q238,772 265,802 Q292,832 330,832 Q353,832 372,819 Q391,806 402,790 Q413,774 429.5,761 Q446,748 464,748 Q509,748 536,830 L558,828 Q550,782 523,752 Q496,722 458,722"/> 
            <glyph glyph-name="ĩ" unicode="&#x129;" horiz-adv-x="522" d=" M351,-12 Q301,-12 271.5,14.5 Q242,41 242,94 Q242,115 248,142 L314,452 L124,452 L130,478 L346,478 L274,134 Q270,115 270,98 Q270,14 356,14 Q399,14 462,44 L472,22 Q404,-12 351,-12 M420,580 Q396,580 377.5,596 Q359,612 349.5,631 Q340,650 324,666 Q308,682 288,682 Q238,682 216,582 L190,584 Q219,706 292,706 Q316,706 334.5,690 Q353,674 362.5,655 Q372,636 388,620 Q404,604 424,604 Q473,604 496,704 L522,702 Q492,580 420,580"/> 
            <glyph glyph-name="Ī" unicode="&#x12A;" horiz-adv-x="558" d=" M50,0 L56,26 L226,26 L348,634 L176,634 L182,660 L558,660 L552,634 L378,634 L256,26 L430,26 L424,0 M270,736 L276,762 L506,762 L500,736"/> 
            <glyph glyph-name="ī" unicode="&#x12B;" horiz-adv-x="472" d=" M351,-12 Q301,-12 271.5,14.5 Q242,41 242,94 Q242,115 248,142 L314,452 L124,452 L130,478 L346,478 L274,134 Q270,115 270,98 Q270,14 356,14 Q399,14 462,44 L472,22 Q404,-12 351,-12 M226,608 L230,634 L462,634 L458,608"/> 
            <glyph glyph-name="Ĭ" unicode="&#x12C;" horiz-adv-x="558" d=" M50,0 L56,26 L226,26 L348,634 L176,634 L182,660 L558,660 L552,634 L378,634 L256,26 L430,26 L424,0 M378,712 Q320,712 293.5,749 Q267,786 270,834 L296,838 Q294,795 315.5,766.5 Q337,738 384,738 Q430,738 461.5,766.5 Q493,795 508,838 L534,834 Q520,786 479.5,749 Q439,712 378,712"/> 
            <glyph glyph-name="ĭ" unicode="&#x12D;" horiz-adv-x="510" d=" M351,-12 Q301,-12 271.5,14.5 Q242,41 242,94 Q242,115 248,142 L314,452 L124,452 L130,478 L346,478 L274,134 Q270,115 270,98 Q270,14 356,14 Q399,14 462,44 L472,22 Q404,-12 351,-12 M336,570 Q270,570 243,614 Q216,658 218,716 L244,720 Q241,671 265.5,633.5 Q290,596 342,596 Q393,596 430,633 Q467,670 484,720 L510,716 Q493,659 449,614.5 Q405,570 336,570"/> 
            <glyph glyph-name="Į" unicode="&#x12E;" horiz-adv-x="558" d=" M212,-224 Q176,-224 151,-206 Q126,-188 126,-152 Q126,-73 220,0 L50,0 L56,26 L226,26 L348,634 L176,634 L182,660 L558,660 L552,634 L378,634 L256,26 L430,26 L424,0 L254,0 Q210,-30 182,-69.5 Q154,-109 154,-144 Q154,-198 218,-198 Q247,-198 274,-178 L286,-196 Q254,-224 212,-224"/> 
            <glyph glyph-name="į" unicode="&#x12F;" horiz-adv-x="472" d=" M352,-224 Q316,-224 291,-206 Q266,-188 266,-152 Q266,-77 362,-12 L351,-12 Q301,-12 271.5,14.5 Q242,41 242,94 Q242,115 248,142 L314,452 L124,452 L130,478 L346,478 L274,134 Q270,115 270,98 Q270,14 356,14 Q399,14 462,44 L472,22 Q294,-62 294,-144 Q294,-198 358,-198 Q387,-198 414,-178 L426,-196 Q394,-224 352,-224 M342,600 Q308,600 308,634 Q308,653 321.5,667.5 Q335,682 352,682 Q386,682 386,648 Q386,629 372.5,614.5 Q359,600 342,600"/> 
            <glyph glyph-name="İ" unicode="&#x130;" horiz-adv-x="558" d=" M50,0 L56,26 L226,26 L348,634 L176,634 L182,660 L558,660 L552,634 L378,634 L256,26 L430,26 L424,0 M386,726 Q374,726 366,734 Q358,742 358,754 Q358,771 369,782.5 Q380,794 394,794 Q406,794 414,785.5 Q422,777 422,764 Q422,748 411,737 Q400,726 386,726"/> 
            <glyph glyph-name="ı" unicode="&#x131;" horiz-adv-x="472" d=" M351,-12 Q301,-12 271.5,14.5 Q242,41 242,94 Q242,115 248,142 L314,452 L124,452 L130,478 L346,478 L274,134 Q270,115 270,98 Q270,14 356,14 Q399,14 462,44 L472,22 Q404,-12 351,-12"/> 
            <glyph glyph-name="Ĳ" unicode="&#x132;" horiz-adv-x="542" d=" M68,0 L200,660 L230,660 L98,0 M294,-150 Q264,-150 236,-134 L248,-108 Q269,-122 296,-122 Q353,-122 376,-20 L512,660 L542,660 L408,-12 Q381,-150 294,-150"/> 
            <glyph glyph-name="ĳ" unicode="&#x133;" horiz-adv-x="515" d=" M102,0 L198,478 L226,478 L130,0 M238,600 Q224,600 214,610 Q204,620 204,634 Q204,654 217.5,668 Q231,682 247,682 Q261,682 271,671.5 Q281,661 281,645 Q281,626 267.5,613 Q254,600 238,600 M232,-234 Q202,-234 174,-218 L186,-194 Q207,-208 234,-208 Q291,-208 314,-104 L432,478 L460,478 L344,-98 Q316,-234 232,-234 M472,600 Q458,600 448,610 Q438,620 438,634 Q438,654 451.5,668 Q465,682 481,682 Q495,682 505,671.5 Q515,661 515,645 Q515,626 501.5,613 Q488,600 472,600"/> 
            <glyph glyph-name="Ĵ" unicode="&#x134;" horiz-adv-x="516" d=" M198,-12 Q144,-12 101,15 Q58,42 36,82 L58,98 Q108,14 202,14 Q282,14 329,64 Q376,114 396,214 L480,634 L190,634 L196,660 L516,660 L426,211 Q403,97 348.5,42.5 Q294,-12 198,-12 M252,710 L238,726 L374,840 L402,840 L498,726 L482,712 L388,812 L384,812"/> 
            <glyph glyph-name="ĵ" unicode="&#x135;" horiz-adv-x="540" d=" M108,-234 Q41,-234 -14,-192 L2,-170 Q50,-208 114,-208 Q250,-208 282,-54 L384,452 L144,452 L150,478 L418,478 L312,-48 Q293,-142 246,-188 Q199,-234 108,-234 M294,574 L276,590 L420,736 L448,736 L540,588 L520,574 L434,706 L430,706"/> 
            <glyph glyph-name="Ķ" unicode="&#x136;" horiz-adv-x="600" d=" M600,660 L315,396 L508,0 L476,0 L294,376 L142,236 L94,0 L64,0 L196,660 L226,660 L150,282 L154,282 L562,660 M184,-216 L182,-192 Q242,-191 274,-174.5 Q306,-158 306,-132 Q306,-92 238,-86 L248,-62 Q300,-69 318,-83 Q336,-97 336,-124 Q336,-166 294.5,-190 Q253,-214 184,-216"/> 
            <glyph glyph-name="ķ" unicode="&#x137;" horiz-adv-x="566" d=" M72,0 L216,722 L244,722 L136,176 L140,176 L526,478 L566,478 L332,292 L496,0 L464,0 L310,275 L128,136 L100,0 M168,-216 L166,-192 Q226,-191 258,-174.5 Q290,-158 290,-132 Q290,-92 222,-86 L232,-62 Q284,-69 302,-83 Q320,-97 320,-124 Q320,-166 278.5,-190 Q237,-214 168,-216"/> 
            <glyph glyph-name="ĸ" unicode="&#x138;" horiz-adv-x="566" d=" M72,0 L168,478 L196,478 L136,176 L140,176 L526,478 L566,478 L332,292 L496,0 L464,0 L310,275 L128,136 L100,0"/> 
            <glyph glyph-name="Ĺ" unicode="&#x139;" horiz-adv-x="514" d=" M126,0 L258,660 L288,660 L162,26 L514,26 L508,0 M278,716 L266,732 L406,842 L424,816"/> 
            <glyph glyph-name="ĺ" unicode="&#x13A;" horiz-adv-x="488" d=" M324,-12 Q274,-12 243,15.5 Q212,43 212,96 Q212,115 218,142 L330,696 L152,696 L158,722 L362,722 L248,150 Q242,123 242,100 Q242,14 328,14 Q377,14 434,44 L445,20 Q386,-12 324,-12 M342,776 L330,792 L470,902 L488,876"/> 
            <glyph glyph-name="Ļ" unicode="&#x13B;" horiz-adv-x="514" d=" M126,0 L258,660 L288,660 L162,26 L514,26 L508,0 M204,-216 L202,-192 Q262,-191 294,-174.5 Q326,-158 326,-132 Q326,-92 258,-86 L268,-62 Q320,-69 338,-83 Q356,-97 356,-124 Q356,-166 314.5,-190 Q273,-214 204,-216"/> 
            <glyph glyph-name="ļ" unicode="&#x13C;" horiz-adv-x="445" d=" M324,-12 Q274,-12 243,15.5 Q212,43 212,96 Q212,115 218,142 L330,696 L152,696 L158,722 L362,722 L248,150 Q242,123 242,100 Q242,14 328,14 Q377,14 434,44 L445,20 Q386,-12 324,-12 M214,-216 L212,-192 Q272,-191 304,-174.5 Q336,-158 336,-132 Q336,-92 268,-86 L278,-62 Q330,-69 348,-83 Q366,-97 366,-124 Q366,-166 324.5,-190 Q283,-214 214,-216"/> 
            <glyph glyph-name="Ľ" unicode="&#x13D;" horiz-adv-x="514" d=" M126,0 L258,660 L288,660 L162,26 L514,26 L508,0 M428,548 L478,812 L506,812 L492,744 L448,548"/> 
            <glyph glyph-name="ľ" unicode="&#x13E;" horiz-adv-x="520" d=" M324,-12 Q274,-12 243,15.5 Q212,43 212,96 Q212,115 218,142 L330,696 L152,696 L158,722 L362,722 L248,150 Q242,123 242,100 Q242,14 328,14 Q377,14 434,44 L445,20 Q386,-12 324,-12 M442,548 L492,812 L520,812 L506,744 L462,548"/> 
            <glyph glyph-name="Ŀ" unicode="&#x13F;" horiz-adv-x="534" d=" M126,0 L258,660 L288,660 L162,26 L514,26 L508,0 M490,300 Q456,300 456,334 Q456,353 469.5,367.5 Q483,382 500,382 Q534,382 534,348 Q534,329 520.5,314.5 Q507,300 490,300"/> 
            <glyph glyph-name="ŀ" unicode="&#x140;" horiz-adv-x="594" d=" M295,-12 Q245,-12 214,15.5 Q183,43 183,96 Q183,115 189,142 L301,696 L123,696 L129,722 L333,722 L219,150 Q213,123 213,100 Q213,14 299,14 Q348,14 405,44 L416,20 Q357,-12 295,-12 M550,300 Q516,300 516,334 Q516,353 529.5,367.5 Q543,382 560,382 Q594,382 594,348 Q594,329 580.5,314.5 Q567,300 550,300"/> 
            <glyph glyph-name="Ł" unicode="&#x141;" horiz-adv-x="514" d=" M80,218 L70,242 L185,294 L258,660 L288,660 L218,307 L460,422 L470,398 L212,277 L162,26 L514,26 L508,0 L126,0 L179,264"/> 
            <glyph glyph-name="ł" unicode="&#x142;" horiz-adv-x="496" d=" M324,-12 Q274,-12 243,15.5 Q212,43 212,96 Q212,115 218,142 L266,378 L128,306 L118,328 L272,410 L330,696 L152,696 L158,722 L362,722 L303,425 L486,520 L496,498 L296,393 L248,150 Q242,123 242,100 Q242,14 328,14 Q377,14 434,44 L445,20 Q386,-12 324,-12"/> 
            <glyph glyph-name="Ń" unicode="&#x143;" horiz-adv-x="576" d=" M36,0 L168,660 L200,660 L378,172 L424,42 L428,42 Q445,145 460,222 L546,660 L576,660 L444,0 L412,0 L234,488 L188,618 L184,618 Q170,530 152,438 L66,0 M378,716 L366,732 L506,842 L524,816"/> 
            <glyph glyph-name="ń" unicode="&#x144;" horiz-adv-x="518" d=" M52,0 L148,478 L172,478 L154,368 L158,368 Q218,426 273,458 Q328,490 396,490 Q459,490 488.5,458.5 Q518,427 518,374 Q518,337 508,290 L450,0 L422,0 L480,288 Q490,338 490,370 Q490,415 465,439.5 Q440,464 392,464 Q279,464 146,324 L80,0 M336,580 L320,598 L474,740 L494,716"/> 
            <glyph glyph-name="Ņ" unicode="&#x145;" horiz-adv-x="576" d=" M36,0 L168,660 L200,660 L378,172 L424,42 L428,42 Q445,145 460,222 L546,660 L576,660 L444,0 L412,0 L234,488 L188,618 L184,618 Q170,530 152,438 L66,0 M134,-216 L132,-192 Q192,-191 224,-174.5 Q256,-158 256,-132 Q256,-92 188,-86 L198,-62 Q250,-69 268,-83 Q286,-97 286,-124 Q286,-166 244.5,-190 Q203,-214 134,-216"/> 
            <glyph glyph-name="ņ" unicode="&#x146;" horiz-adv-x="518" d=" M52,0 L148,478 L172,478 L154,368 L158,368 Q218,426 273,458 Q328,490 396,490 Q459,490 488.5,458.5 Q518,427 518,374 Q518,337 508,290 L450,0 L422,0 L480,288 Q490,338 490,370 Q490,415 465,439.5 Q440,464 392,464 Q279,464 146,324 L80,0 M142,-216 L140,-192 Q200,-191 232,-174.5 Q264,-158 264,-132 Q264,-92 196,-86 L206,-62 Q258,-69 276,-83 Q294,-97 294,-124 Q294,-166 252.5,-190 Q211,-214 142,-216"/> 
            <glyph glyph-name="Ň" unicode="&#x147;" horiz-adv-x="576" d=" M36,0 L168,660 L200,660 L378,172 L424,42 L428,42 Q445,145 460,222 L546,660 L576,660 L444,0 L412,0 L234,488 L188,618 L184,618 Q170,530 152,438 L66,0 M376,710 L280,824 L296,838 L390,738 L394,738 L526,840 L540,824 L404,710"/> 
            <glyph glyph-name="ň" unicode="&#x148;" horiz-adv-x="522" d=" M52,0 L148,478 L172,478 L154,368 L158,368 Q218,426 273,458 Q328,490 396,490 Q459,490 488.5,458.5 Q518,427 518,374 Q518,337 508,290 L450,0 L422,0 L480,288 Q490,338 490,370 Q490,415 465,439.5 Q440,464 392,464 Q279,464 146,324 L80,0 M350,572 L258,720 L278,734 L364,602 L368,602 L504,734 L522,718 L378,572"/> 
            <glyph glyph-name="ŉ" unicode="&#x149;" horiz-adv-x="568" d=" M122,0 L218,478 L242,478 L224,368 L228,368 Q290,428 340.5,459 Q391,490 456,490 Q513,490 540.5,458.5 Q568,427 568,374 Q568,337 558,290 L500,0 L472,0 L530,288 Q540,338 540,370 Q540,464 452,464 Q396,464 339.5,428.5 Q283,393 216,324 L150,0 M21,418 L13,443 Q138,488 157,594 Q144,587 127,587 Q108,587 97,600 Q86,613 86,633 Q86,660 105.5,680 Q125,700 151,700 Q174,700 189.5,683.5 Q205,667 205,633 Q205,562 156.5,504 Q108,446 21,418"/> 
            <glyph glyph-name="Ŋ" unicode="&#x14A;" horiz-adv-x="550" d=" M322,-12 Q284,-12 252,6 L267,30 Q294,14 324,14 Q375,14 421,78 Q467,142 493.5,243 Q520,344 520,450 Q520,646 370,646 Q330,646 273.5,618 Q217,590 170,542 L62,0 L32,0 L164,660 L194,660 L178,580 Q217,618 273.5,645 Q330,672 372,672 Q455,672 502.5,619 Q550,566 550,456 Q550,271 484,129.5 Q418,-12 322,-12"/> 
            <glyph glyph-name="ŋ" unicode="&#x14B;" horiz-adv-x="518" d=" M328,-180 Q298,-180 270,-164 L282,-140 Q303,-154 330,-154 Q391,-154 412,-50 L480,288 Q490,338 490,370 Q490,415 465,439.5 Q440,464 392,464 Q279,464 146,324 L80,0 L52,0 L148,478 L172,478 L154,368 L158,368 Q218,426 273,458 Q328,490 396,490 Q459,490 488.5,458.5 Q518,427 518,374 Q518,337 508,290 L440,-48 Q426,-116 400,-148 Q374,-180 328,-180"/> 
            <glyph glyph-name="Ō" unicode="&#x14C;" horiz-adv-x="560" d=" M256,-12 Q159,-12 104.5,58 Q50,128 50,242 Q50,344 84,440.5 Q118,537 189.5,604.5 Q261,672 354,672 Q451,672 505.5,602 Q560,532 560,418 Q560,316 526,219.5 Q492,123 420.5,55.5 Q349,-12 256,-12 M258,14 Q341,14 405.5,79 Q470,144 500,233.5 Q530,323 530,414 Q530,520 484.5,583 Q439,646 352,646 Q269,646 204.5,581 Q140,516 110,426.5 Q80,337 80,246 Q80,140 125.5,77 Q171,14 258,14 M270,736 L276,762 L506,762 L500,736"/> 
            <glyph glyph-name="ō" unicode="&#x14D;" horiz-adv-x="518" d=" M246,-12 Q158,-12 107,45 Q56,102 56,194 Q56,316 136.5,403 Q217,490 328,490 Q416,490 467,433 Q518,376 518,284 Q518,162 437.5,75 Q357,-12 246,-12 M248,14 Q344,14 417,93 Q490,172 490,278 Q490,363 446.5,413.5 Q403,464 326,464 Q230,464 157,385 Q84,306 84,200 Q84,115 127.5,64.5 Q171,14 248,14 M244,608 L248,634 L480,634 L476,608"/> 
            <glyph glyph-name="Ŏ" unicode="&#x14E;" horiz-adv-x="560" d=" M256,-12 Q159,-12 104.5,58 Q50,128 50,242 Q50,344 84,440.5 Q118,537 189.5,604.5 Q261,672 354,672 Q451,672 505.5,602 Q560,532 560,418 Q560,316 526,219.5 Q492,123 420.5,55.5 Q349,-12 256,-12 M258,14 Q341,14 405.5,79 Q470,144 500,233.5 Q530,323 530,414 Q530,520 484.5,583 Q439,646 352,646 Q269,646 204.5,581 Q140,516 110,426.5 Q80,337 80,246 Q80,140 125.5,77 Q171,14 258,14 M378,712 Q320,712 293.5,749 Q267,786 270,834 L296,838 Q294,795 315.5,766.5 Q337,738 384,738 Q430,738 461.5,766.5 Q493,795 508,838 L534,834 Q520,786 479.5,749 Q439,712 378,712"/> 
            </font>
</defs>
</svg>
