<?xml version="1.0" standalone="no"?>
<!DOCTYPE svg PUBLIC "-//W3C//DTD SVG 1.1//EN" "http://www.w3.org/Graphics/SVG/1.1/DTD/svg11.dtd" >
<svg xmlns="http://www.w3.org/2000/svg">
    <defs>
        <font id="Canaro-BoldItalic">
            <font-face font-family="Canaro-BoldItalic"
                       units-per-em="1000"
                       ascent="745"
                       descent="-255"
                       bbox="-120 -289 1465 964"
                    />
            <missing-glyph horiz-adv-x="0" />
            
            <glyph glyph-name="!" unicode="&#x21;" horiz-adv-x="306" d=" M306,680 L212,213 L54,213 L124,680 M115,-18 Q75,-18 47,9 Q19,36 19,75 Q19,113 47,139.5 Q75,166 115,166 Q154,166 182.5,139.5 Q211,113 211,75 Q211,36 182.5,9 Q154,-18 115,-18"/> 
            <glyph glyph-name="&quot;" unicode="&#x22;" horiz-adv-x="490" d=" M307,768 L228,501 L98,501 L145,768 M490,768 L412,501 L281,501 L328,768"/> 
            <glyph glyph-name="#" unicode="&#x23;" horiz-adv-x="815" d=" M611,282 L719,282 L695,146 L545,146 L473,0 L314,0 L386,146 L253,146 L181,0 L23,0 L95,146 L10,146 L34,282 L161,282 L210,382 L107,382 L130,518 L276,518 L356,681 L514,681 L435,518 L568,518 L647,681 L806,681 L726,518 L815,518 L792,382 L660,382 M369,382 L319,282 L452,282 L501,382"/> 
            <glyph glyph-name="$" unicode="&#x24;" horiz-adv-x="681" d=" M422,409 Q526,385 573,348 Q622,312 622,230 Q622,126 551.5,62.5 Q481,-1 354,-12 L332,-130 L195,-130 L218,-10 Q105,3 4,44 L68,193 Q211,135 317,135 Q374,134 405,151.5 Q436,169 436,199 Q436,240 378,254 Q320,268 319,268 L287,275 Q184,298 141,335 Q97,373 97,445 Q97,541 164,605 Q231,669 346,685 L366,799 L497,799 L477,687 Q596,676 681,645 L619,499 Q476,543 390,543 Q340,543 312,526 Q284,509 284,478 Q284,460 294.5,450 Q305,440 330,431 L386,417"/> 
            <glyph glyph-name="%" unicode="&#x25;" horiz-adv-x="1020" d=" M352,695 Q429,695 476.5,649 Q524,603 524,528 Q524,428 452,360 Q382,294 281,294 Q204,294 156.5,340 Q109,386 109,462 Q109,563 180,629 Q252,695 352,695 M306,0 L225,0 L816,680 L897,680 M301,400 Q344,400 378,432 Q412,463 412,511 Q412,546 390,568 Q368,590 334,590 Q290,590 255,558 Q222,526 222,479 Q222,443 244,421.5 Q266,400 301,400 M847,386 Q924,386 972,340 Q1020,294 1020,219 Q1020,117 948,51 Q878,-15 776,-15 Q699,-15 652,31 Q605,77 605,153 Q605,253 676,319 Q747,386 847,386 M796,90 Q839,90 874,122 Q908,153 908,201 Q908,236 885.5,258 Q863,280 829,280 Q786,280 751,248 Q718,216 718,170 Q718,134 739.5,112 Q761,90 796,90"/> 
            <glyph glyph-name="&amp;" unicode="&#x26;" horiz-adv-x="648" d=" M566,287 L553,213 Q535,110 450,47 Q365,-15 245,-15 Q137,-15 73.5,34.5 Q10,84 10,166 Q10,301 150,354 Q101,385 101,461 Q101,563 182,629 Q264,695 393,695 Q476,695 548,673 L495,541 Q419,558 367,558 Q316,558 285,533 Q254,508 254,466 Q254,438 271.5,425 Q289,412 330,412 L648,412 L626,287 M413,287 L308,287 Q240,287 203.5,263.5 Q167,240 167,197 Q167,163 194.5,142.5 Q222,122 269,122 Q321,122 357,147 Q393,172 400,213"/> 
            <glyph glyph-name="'" unicode="&#x27;" horiz-adv-x="307" d=" M307,768 L228,501 L98,501 L145,768"/> 
            <glyph glyph-name="(" unicode="&#x28;" horiz-adv-x="481" d=" M370,788 L481,724 L452,681 L423,637 L398,597 Q376,563 372,555 L350,515 Q331,481 327,469 Q323,456 310,425 Q300,402 291,374 Q273,309 265,263 Q240,122 258,9 Q274,-91 312,-197 L181,-261 Q56,-19 110,285 Q160,561 370,788"/> 
            <glyph glyph-name=")" unicode="&#x29;" horiz-adv-x="376" d=" M64,-261 L-48,-197 L-16,-150 Q6,-117 16,-101 Q17,-99 21,-93.5 Q25,-88 31,-78 Q37,-68 44,-57 Q69,-17 72,-9 L95,35 Q113,67 119,88 L136,139 Q154,188 168,265 Q193,402 175,518 Q161,615 122,724 L253,788 Q376,550 324,242 Q274,-33 64,-261"/> 
            <glyph glyph-name="*" unicode="&#x2A;" horiz-adv-x="432" d=" M413,441 L360,377 L281,445 L264,350 L181,365 L198,460 L101,422 L72,501 L172,539 L92,609 L145,674 L224,606 L240,698 L324,683 L307,591 L404,628 L432,549 L333,511"/> 
            <glyph glyph-name="+" unicode="&#x2B;" horiz-adv-x="598" d=" M405,264 L374,91 L241,91 L272,264 L101,264 L123,392 L294,392 L325,566 L458,566 L427,392 L598,392 L576,264"/> 
            <glyph glyph-name="," unicode="&#x2C;" horiz-adv-x="241" d=" M30,-130 L90,0 Q30,26 30,84 Q30,127 60.5,156 Q91,185 135,185 Q179,185 210,155.5 Q241,126 241,84 Q241,55 224,23 Q201,-21 135,-130"/> 
            <glyph glyph-name="-" unicode="&#x2D;" horiz-adv-x="444" d=" M444,335 L417,181 L86,181 L113,335"/> 
            <glyph glyph-name="." unicode="&#x2E;" horiz-adv-x="241" d=" M241,84 Q241,41 210,11.5 Q179,-18 135,-18 Q91,-18 60.5,11.5 Q30,41 30,84 Q30,127 60.5,156 Q91,185 135,185 Q179,185 210,155.5 Q241,126 241,84"/> 
            <glyph glyph-name="/" unicode="&#x2F;" horiz-adv-x="589" d=" M88,-272 L-77,-272 L424,768 L589,768"/> 
            <glyph glyph-name="0" unicode="&#x30;" horiz-adv-x="716" d=" M447,695 Q572,695 644,617 Q716,539 716,407 Q716,225 603,104 Q490,-15 321,-15 Q196,-15 122,63 Q50,142 50,273 Q50,456 163,575 Q277,695 447,695 M347,132 Q436,132 494,204 Q554,276 554,385 Q554,460 518,504 Q482,548 420,548 Q332,548 272,476 Q213,403 213,295 Q213,220 249,176 Q285,132 347,132"/> 
            <glyph glyph-name="1" unicode="&#x31;" horiz-adv-x="436" d=" M316,0 L154,0 L242,493 L84,456 L73,595 L383,680 L436,680"/> 
            <glyph glyph-name="2" unicode="&#x32;" horiz-adv-x="582" d=" M503,0 L8,0 L27,110 L288,318 Q356,370 383,402 Q408,431 408,472 Q408,545 320,545 Q238,545 124,508 L113,647 Q256,695 362,695 Q467,695 524.5,644.5 Q582,594 582,511 Q582,428 533,364 Q480,295 384,219 L289,139 L528,139"/> 
            <glyph glyph-name="3" unicode="&#x33;" horiz-adv-x="618" d=" M602,588 L413,398 L421,397 Q486,393 526,349 Q566,305 566,241 Q566,125 484,55 Q402,-15 250,-15 Q114,-15 0,41 L71,169 Q177,122 275,122 Q340,122 375,147 Q410,172 410,217 Q410,244 380.5,261 Q351,278 301,278 L173,278 L185,348 L373,532 L116,532 L141,680 L618,680"/> 
            <glyph glyph-name="4" unicode="&#x34;" horiz-adv-x="643" d=" M564,243 L643,243 L619,112 L541,112 L521,0 L370,0 L390,112 L9,112 L30,228 L490,680 L641,680 M223,243 L413,243 L456,480"/> 
            <glyph glyph-name="5" unicode="&#x35;" horiz-adv-x="624" d=" M296,432 L355,429 Q460,423 517.5,376.5 Q575,330 575,250 Q575,137 488,60 Q402,-15 255,-15 Q121,-15 7,42 L77,172 Q188,124 277,124 Q341,124 378.5,151.5 Q416,179 416,224 Q416,289 303,295 L106,305 L205,680 L624,680 L596,529 L321,529"/> 
            <glyph glyph-name="6" unicode="&#x36;" horiz-adv-x="604" d=" M543,680 L382,490 Q485,485 544.5,430 Q604,375 604,284 Q604,155 509,69 Q414,-15 271,-15 Q160,-15 93,44 Q28,104 28,203 Q28,302 107,390 L351,680 M294,120 Q361,120 405,161 Q449,202 449,265 Q449,311 419,338.5 Q389,366 338,366 Q271,366 227,325 Q183,284 183,224 Q183,177 213,148.5 Q243,120 294,120"/> 
            <glyph glyph-name="7" unicode="&#x37;" horiz-adv-x="627" d=" M610,585 L258,0 L76,0 L399,529 L84,529 L111,680 L627,680"/> 
            <glyph glyph-name="8" unicode="&#x38;" horiz-adv-x="634" d=" M504,353 Q609,311 609,213 Q609,113 517,48 Q426,-15 278,-15 Q158,-15 89,32 Q20,79 20,160 Q20,295 183,353 Q105,390 105,475 Q105,572 190,633 Q276,695 404,695 Q509,695 571,649 Q634,602 634,527 Q634,405 504,353 M265,479 Q265,446 288.5,427 Q312,408 352,408 Q404,408 437.5,435 Q471,462 471,505 Q471,533 446,551.5 Q421,570 382,570 Q332,570 298.5,544 Q265,518 265,479 M302,119 Q362,119 401,147 Q440,175 440,218 Q440,249 410,271.5 Q380,294 334,294 Q276,294 236,263 Q196,233 196,196 Q196,161 224.5,140 Q253,119 302,119"/> 
            <glyph glyph-name="9" unicode="&#x39;" horiz-adv-x="640" d=" M398,695 Q510,695 575,635 Q640,576 640,477 Q640,387 561,290 L331,0 L143,0 L295,189 Q188,193 126,248.5 Q64,304 64,396 Q64,526 159,610 Q254,695 398,695 M220,415 Q220,369 250,341.5 Q280,314 331,314 Q399,314 442,354 Q486,395 486,456 Q486,503 455.5,531.5 Q425,560 374,560 Q308,560 264,519 Q220,478 220,415"/> 
            <glyph glyph-name=":" unicode="&#x3A;" horiz-adv-x="298" d=" M267,328 Q236,299 193,299 Q150,299 118,328 Q88,356 88,400 Q88,444 118,472 Q150,501 193,501 Q236,501 267,472 Q298,444 298,400 Q298,356 267,328 M241,84 Q241,41 210,11.5 Q179,-18 135,-18 Q91,-18 60.5,11.5 Q30,41 30,84 Q30,127 60.5,156 Q91,185 135,185 Q179,185 210,155.5 Q241,126 241,84"/> 
            <glyph glyph-name=";" unicode="&#x3B;" horiz-adv-x="302" d=" M271,328 Q240,299 197,299 Q154,299 122,328 Q92,356 92,400 Q92,444 122,472 Q154,501 197,501 Q240,501 271,472 Q302,444 302,400 Q302,356 271,328 M30,-130 L91,0 Q30,25 30,84 Q30,126 61,155.5 Q92,185 135,185 Q179,185 210,155.5 Q241,126 241,84 Q241,55 224,23 Q201,-21 135,-130"/> 
            <glyph glyph-name="&lt;" unicode="&#x3C;" horiz-adv-x="521" d=" M42,233 L68,380 L521,570 L497,423 L218,306 L454,190 L430,43"/> 
            <glyph glyph-name="=" unicode="&#x3D;" horiz-adv-x="622" d=" M600,361 L118,361 L140,489 L622,489 M563,154 L81,154 L104,282 L586,282"/> 
            <glyph glyph-name="&gt;" unicode="&#x3E;" horiz-adv-x="508" d=" M508,380 L482,233 L29,43 L53,190 L333,307 L96,423 L120,570"/> 
            <glyph glyph-name="?" unicode="&#x3F;" horiz-adv-x="516" d=" M299,695 Q398,695 457,646 Q516,597 516,515 Q516,416 444,343 Q372,271 268,271 L261,271 L243,210 L99,210 L131,389 L236,389 Q291,389 325,417 Q359,445 359,491 Q359,522 336,540 Q313,558 272,558 Q222,558 96,540 L98,671 Q204,695 299,695 M158,166 Q198,166 226,139.5 Q254,113 254,75 Q254,36 226,9 Q198,-18 158,-18 Q119,-18 91,9 Q63,36 63,75 Q63,113 91,139.5 Q119,166 158,166"/> 
            <glyph glyph-name="@" unicode="&#x40;" horiz-adv-x="967" d=" M577,690 Q754,690 861,586 Q967,483 967,316 Q967,159 885,77 Q804,-4 679,-4 Q576,-4 554,56 Q478,-5 395,-5 Q304,-5 251,63 Q199,130 219,245 Q244,355 315.5,417 Q387,479 499,479 Q574,479 677,466 Q705,462 756,456 L704,159 Q696,119 702.5,103.5 Q709,88 736,88 Q796,88 842,125 Q899,172 899,305 Q899,459 811.5,542.5 Q724,626 568,626 Q445,626 338,565 Q230,505 164,399 Q99,292 99,169 Q99,36 182,-52 Q264,-140 411,-140 Q513,-140 686,-103 L687,-163 Q516,-205 400,-205 Q228,-205 129,-101 Q31,3 31,167 Q31,312 106,433 Q182,554 307,622 Q434,690 577,690 M496,357 Q432,357 397.5,317 Q363,277 363,215 Q363,172 386,146 Q409,120 446,120 Q498,120 553,161 Q555,169 558,187 L587,351 Q541,357 496,357"/> 
            <glyph glyph-name="A" unicode="&#x41;" horiz-adv-x="725" d=" M214,113 L147,0 L-37,0 L387,684 L543,684 L725,0 L546,0 L519,113 M433,484 L296,255 L486,255"/> 
            <glyph glyph-name="B" unicode="&#x42;" horiz-adv-x="657" d=" M506,344 Q562,331 594.5,293.5 Q627,256 627,207 Q627,108 546,50 Q466,-8 331,-8 Q205,-8 24,0 L143,680 Q313,686 441,686 Q544,686 600.5,645.5 Q657,605 657,532 Q657,466 615,414 Q573,362 506,344 M396,548 L289,548 L263,398 L382,398 Q430,398 461,423.5 Q492,449 492,489 Q492,548 396,548 M335,130 Q397,130 430.5,153 Q464,176 464,219 Q464,248 441,263.5 Q418,279 378,279 L242,279 L216,133 Q219,133 225,133 Q231,133 237.5,132.5 Q244,132 254.5,131.5 Q265,131 274,131 Q303,130 335,130"/> 
            <glyph glyph-name="C" unicode="&#x43;" horiz-adv-x="749" d=" M749,659 L694,509 Q559,536 498,536 Q380,536 309,473 Q240,412 240,308 Q240,237 289.5,193.5 Q339,150 420,150 Q492,150 634,177 L637,26 Q496,-15 381,-15 Q235,-15 145,66 Q56,147 56,280 Q56,467 179,581 Q303,695 505,695 Q610,695 749,659"/> 
            <glyph glyph-name="D" unicode="&#x44;" horiz-adv-x="715" d=" M399,688 Q543,688 628,609 Q715,530 715,400 Q715,223 592,107 Q471,-8 293,-8 Q182,-8 24,0 L144,680 Q304,688 399,688 M323,143 Q410,143 473,210 Q537,277 537,378 Q537,450 494,493.5 Q451,537 379,537 Q329,537 287,535 L219,145 Q265,143 323,143"/> 
            <glyph glyph-name="E" unicode="&#x45;" horiz-adv-x="658" d=" M265,412 L566,412 L540,268 L240,268 L218,147 L564,147 L538,0 L24,0 L144,680 L658,680 L632,533 L287,533"/> 
            <glyph glyph-name="F" unicode="&#x46;" horiz-adv-x="644" d=" M260,384 L546,384 L520,231 L234,231 L193,0 L24,0 L144,680 L644,680 L617,531 L286,531"/> 
            <glyph glyph-name="G" unicode="&#x47;" horiz-adv-x="759" d=" M759,402 L698,51 Q497,-15 370,-15 Q232,-15 144,68 Q57,150 57,281 Q57,467 176,581 Q294,695 489,695 Q615,695 750,660 L695,513 Q557,537 477,537 Q368,537 303,473 Q237,410 237,307 Q237,234 282.5,188.5 Q328,143 401,143 Q469,143 573,166 L590,264 L374,264 L398,402"/> 
            <glyph glyph-name="H" unicode="&#x48;" horiz-adv-x="765" d=" M645,0 L476,0 L521,255 L237,255 L193,0 L24,0 L144,680 L313,680 L265,407 L548,407 L596,680 L765,680"/> 
            <glyph glyph-name="I" unicode="&#x49;" horiz-adv-x="311" d=" M311,680 L191,0 L22,0 L142,680"/> 
            <glyph glyph-name="J" unicode="&#x4A;" horiz-adv-x="580" d=" M580,680 L510,281 Q484,136 404.5,60.5 Q325,-15 197,-15 Q88,-15 -29,28 L28,175 Q132,148 213,148 Q261,148 294,182.5 Q327,217 338,277 L409,680"/> 
            <glyph glyph-name="K" unicode="&#x4B;" horiz-adv-x="773" d=" M233,229 L193,0 L24,0 L144,680 L313,680 L262,393 L293,393 L566,680 L773,680 L468,359 L666,0 L469,0 L346,229"/> 
            <glyph glyph-name="L" unicode="&#x4C;" horiz-adv-x="552" d=" M526,0 L24,0 L144,680 L313,680 L219,149 L552,149"/> 
            <glyph glyph-name="M" unicode="&#x4D;" horiz-adv-x="918" d=" M708,328 L487,0 L363,0 L259,328 L178,0 L14,0 L170,680 L319,680 L459,220 L766,680 L918,680 L833,0 L669,0"/> 
            <glyph glyph-name="N" unicode="&#x4E;" horiz-adv-x="783" d=" M783,680 L663,0 L517,0 L264,395 L193,0 L24,0 L144,680 L294,680 L542,282 L614,680"/> 
            <glyph glyph-name="O" unicode="&#x4F;" horiz-adv-x="801" d=" M491,695 Q633,695 717,614 Q801,533 801,399 Q801,219 675,102 Q549,-15 365,-15 Q224,-15 140,66 Q56,147 56,281 Q56,461 181,578 Q307,695 491,695 M393,140 Q489,140 556,207 Q623,274 623,376 Q623,450 579.5,494.5 Q536,539 464,539 Q368,539 301,472 Q234,406 234,304 Q234,230 277.5,185 Q321,140 393,140"/> 
            <glyph glyph-name="P" unicode="&#x50;" horiz-adv-x="664" d=" M408,688 Q528,688 596,632.5 Q664,577 664,479 Q664,347 567,265 Q471,184 319,184 L225,184 L192,0 L23,0 L143,680 Q316,688 408,688 M250,331 L354,331 Q415,331 453.5,365 Q492,399 492,455 Q492,496 464.5,518.5 Q437,541 391,541 Q377,541 287,539"/> 
            <glyph glyph-name="Q" unicode="&#x51;" horiz-adv-x="801" d=" M801,399 Q801,273 735,174 Q670,76 560,26 L686,-165 L487,-165 L386,-15 L365,-15 Q224,-15 140,66 Q56,147 56,281 Q56,461 181,578 Q307,695 491,695 Q633,695 717,614 Q801,533 801,399 M234,304 Q234,230 277.5,185 Q321,140 393,140 Q489,140 556,207 Q623,274 623,376 Q623,450 579.5,494.5 Q536,539 464,539 Q368,539 301,472 Q234,406 234,304"/> 
            <glyph glyph-name="R" unicode="&#x52;" horiz-adv-x="667" d=" M338,195 L298,195 L227,195 L193,0 L24,0 L144,680 Q286,686 418,686 Q536,686 601.5,634 Q667,582 667,487 Q667,407 625,342 Q583,277 508,238 L629,0 L429,0 M252,337 L360,337 Q417,337 457,372 Q496,406 496,460 Q496,541 389,541 Q362,541 339,540 L288,540"/> 
            <glyph glyph-name="S" unicode="&#x53;" horiz-adv-x="681" d=" M681,645 L619,499 Q476,543 390,543 Q340,543 312,526 Q284,509 284,478 Q284,460 294.5,450 Q305,440 330,431 L386,417 L422,409 Q526,385 573,348 Q622,312 622,230 Q622,114 535.5,49.5 Q449,-15 297,-15 Q151,-15 4,44 L68,193 Q211,135 317,135 Q374,134 405,151.5 Q436,169 436,199 Q436,240 378,254 Q320,268 319,268 L287,275 Q184,298 141,335 Q97,373 97,445 Q97,555 185,622 Q274,690 418,690 Q560,690 681,645"/> 
            <glyph glyph-name="T" unicode="&#x54;" horiz-adv-x="726" d=" M474,529 L381,0 L212,0 L306,529 L81,529 L107,680 L726,680 L699,529"/> 
            <glyph glyph-name="U" unicode="&#x55;" horiz-adv-x="797" d=" M797,680 L731,308 Q705,159 606,72 Q509,-15 362,-15 Q215,-15 141,71 Q68,156 95,308 L161,680 L333,680 L267,308 Q254,231 285.5,188 Q317,145 384,145 Q453,145 499.5,188 Q546,231 559,308 L625,680"/> 
            <glyph glyph-name="V" unicode="&#x56;" horiz-adv-x="871" d=" M446,0 L278,0 L93,680 L281,680 L396,224 L679,680 L871,680"/> 
            <glyph glyph-name="W" unicode="&#x57;" horiz-adv-x="1130" d=" M794,0 L631,0 L563,400 L351,0 L188,0 L93,680 L269,680 L320,264 L539,680 L678,680 L747,264 L948,680 L1130,680"/> 
            <glyph glyph-name="X" unicode="&#x58;" horiz-adv-x="812" d=" M500,329 L694,0 L500,0 L373,208 L180,0 L-29,0 L285,340 L98,680 L301,680 L414,469 L597,680 L812,680"/> 
            <glyph glyph-name="Y" unicode="&#x59;" horiz-adv-x="809" d=" M280,215 L91,680 L278,680 L394,394 L617,680 L809,680 L455,215 L417,0 L242,0"/> 
            <glyph glyph-name="Z" unicode="&#x5A;" horiz-adv-x="697" d=" M680,574 L279,151 L610,151 L584,0 L-2,0 L16,106 L424,529 L108,529 L135,680 L697,680"/> 
            <glyph glyph-name="[" unicode="&#x5B;" horiz-adv-x="449" d=" M151,-99 L296,-99 L270,-250 L-38,-250 L142,770 L449,770 L423,619 L278,619"/> 
            <glyph glyph-name="\" unicode="&#x5C;" horiz-adv-x="448" d=" M253,768 L448,-272 L289,-272 L94,768"/> 
            <glyph glyph-name="]" unicode="&#x5D;" horiz-adv-x="427" d=" M238,619 L92,619 L119,770 L427,770 L247,-250 L-61,-250 L-34,-99 L111,-99"/> 
            <glyph glyph-name="^" unicode="&#x5E;" horiz-adv-x="462" d=" M277,562 L191,457 L49,457 L232,680 L355,680 L462,457 L325,457"/> 
            <glyph glyph-name="_" unicode="&#x5F;" horiz-adv-x="536" d=" M-32,-91 L536,-91 L512,-228 L-56,-228"/> 
            <glyph glyph-name="`" unicode="&#x60;" horiz-adv-x="482" d=" M482,560 L348,560 L242,707 L440,707"/> 
            <glyph glyph-name="a" unicode="&#x61;" horiz-adv-x="631" d=" M356,500 Q433,500 631,476 L547,0 L385,0 L391,33 Q320,-15 242,-15 Q146,-15 91,55 Q35,126 59,245 Q81,359 161,430 Q241,500 356,500 M352,369 Q291,369 251.5,327 Q212,285 212,219 Q212,174 236,146.5 Q260,119 301,119 Q356,119 413,161 L449,364 Q391,369 352,369"/> 
            <glyph glyph-name="b" unicode="&#x62;" horiz-adv-x="605" d=" M308,710 L270,491 Q343,500 398,500 Q498,500 551.5,440.5 Q605,381 599,279 Q594,148 508,64.5 Q422,-19 314,-15 Q194,-15 23,10 L146,710 M346,369 Q305,369 246,361 L205,126 Q251,119 309,119 Q365,119 404,162 Q443,206 443,271 Q443,317 418.5,343 Q394,369 346,369"/> 
            <glyph glyph-name="c" unicode="&#x63;" horiz-adv-x="524" d=" M524,473 L482,348 Q392,366 340,366 Q275,366 232,326 Q189,286 189,223 Q189,177 218,151 Q247,125 298,125 Q356,125 448,143 L444,15 Q349,-15 265,-15 Q159,-15 94,44 Q30,102 30,201 Q30,333 122,417 Q215,501 356,501 Q437,501 524,473"/> 
            <glyph glyph-name="d" unicode="&#x64;" horiz-adv-x="658" d=" M658,710 L534,10 Q353,-15 234,-15 Q145,-15 88,45 Q31,105 40,212 Q49,343 127,421 Q206,500 331,500 Q385,500 457,491 L495,710 M337,369 Q267,369 232,327.5 Q197,286 197,219 Q197,174 221.5,146.5 Q246,119 287,119 Q344,119 392,126 L434,361 Q378,369 337,369"/> 
            <glyph glyph-name="e" unicode="&#x65;" horiz-adv-x="549" d=" M332,500 Q433,500 490,443 Q548,388 538,296 Q534,249 512,190 L186,190 Q193,153 217.5,137.5 Q242,122 291,122 Q352,122 470,146 L472,23 Q349,-15 268,-15 Q154,-15 91,43.5 Q28,102 28,200 Q28,330 116,415 Q204,500 332,500 M316,377 Q231,377 197,289 L397,289 Q402,329 380,353 Q358,377 316,377"/> 
            <glyph glyph-name="f" unicode="&#x66;" horiz-adv-x="500" d=" M307,485 L465,485 L439,340 L282,340 L222,0 L60,0 L120,340 L17,340 L43,485 L146,485 L157,548 Q175,650 240.5,707 Q306,764 400,764 Q439,764 500,753 L459,621 Q436,625 405,625 Q334,625 317,539"/> 
            <glyph glyph-name="g" unicode="&#x67;" horiz-adv-x="614" d=" M335,500 Q407,500 614,476 L530,0 Q509,-121 422,-189.5 Q335,-258 196,-258 Q116,-258 25,-228 L69,-104 Q184,-124 214,-124 Q340,-124 365,-10 Q307,-15 231,-15 Q132,-15 74,54 Q17,124 41,245 Q64,361 142,430 Q221,500 335,500 M334,369 Q273,369 233.5,327 Q194,285 194,219 Q194,174 218.5,146.5 Q243,119 284,119 Q341,119 389,126 L431,364 Q373,369 334,369"/> 
            <glyph glyph-name="h" unicode="&#x68;" horiz-adv-x="588" d=" M407,500 Q496,500 542,448 Q588,397 573,313 L518,0 L355,0 L402,265 Q411,331 369.5,346.5 Q328,362 236,344 L175,0 L12,0 L138,710 L300,710 L261,489 Q351,500 407,500"/> 
            <glyph glyph-name="i" unicode="&#x69;" horiz-adv-x="301" d=" M104,640 Q104,682 132.5,710 Q161,738 202,738 Q244,738 272.5,710 Q301,682 301,640 Q301,599 272.5,571.5 Q244,544 202,544 Q161,544 132.5,571.5 Q104,599 104,640 M262,485 L177,0 L14,0 L100,485"/> 
            <glyph glyph-name="j" unicode="&#x6A;" horiz-adv-x="298" d=" M200,544 Q158,544 129.5,571.5 Q101,599 101,640 Q101,682 129.5,710 Q158,738 200,738 Q240,738 269,709.5 Q298,681 298,640 Q298,599 269,571.5 Q240,544 200,544 M259,485 L172,-7 Q160,-74 143.5,-115 Q127,-156 96,-190 Q32,-260 -120,-261 L-106,-126 Q-45,-116 -23,-94 Q-2,-74 7,-22 L96,485"/> 
            <glyph glyph-name="k" unicode="&#x6B;" horiz-adv-x="623" d=" M239,319 L259,319 L425,485 L623,485 L413,273 L550,0 L370,0 L286,169 L213,169 L183,0 L21,0 L146,710 L308,710"/> 
            <glyph glyph-name="l" unicode="&#x6C;" horiz-adv-x="308" d=" M308,710 L183,0 L21,0 L146,710"/> 
            <glyph glyph-name="m" unicode="&#x6D;" horiz-adv-x="912" d=" M725,500 Q821,500 866.5,452.5 Q912,405 895,313 L840,0 L678,0 L725,265 Q733,312 715.5,332.5 Q698,353 655,353 Q615,353 572,345 Q570,317 565,292 L514,0 L352,0 L399,265 Q407,312 389.5,332.5 Q372,353 329,353 Q286,353 250,349 L188,0 L26,0 L109,474 Q291,500 400,500 Q471,500 511,475 Q632,500 725,500"/> 
            <glyph glyph-name="n" unicode="&#x6E;" horiz-adv-x="602" d=" M421,500 Q510,500 556,448 Q602,397 587,313 L531,0 L369,0 L416,265 Q424,308 406,330.5 Q388,353 350,353 Q325,353 250,348 L188,0 L26,0 L110,476 Q313,500 421,500"/> 
            <glyph glyph-name="o" unicode="&#x6F;" horiz-adv-x="589" d=" M355,504 Q463,504 526,445.5 Q589,387 589,288 Q589,156 496,69 Q404,-17 263,-17 Q155,-17 92,42.5 Q29,102 29,202 Q29,334 122,419 Q214,504 355,504 M288,122 Q350,122 391,163 Q432,204 432,267 Q432,312 405,338.5 Q378,365 331,365 Q270,365 227,324 Q186,283 186,222 Q186,176 213,149 Q240,122 288,122"/> 
            <glyph glyph-name="p" unicode="&#x70;" horiz-adv-x="619" d=" M404,500 Q515,500 567,431.5 Q619,363 601,245 Q582,124 500,54 Q417,-15 319,-15 Q244,-15 186,-10 L149,-225 L-14,-225 L110,476 Q306,500 404,500 M314,119 Q370,119 409,162 Q448,206 448,271 Q448,317 423.5,343 Q399,369 352,369 Q315,369 252,364 L210,126 Q256,119 314,119"/> 
            <glyph glyph-name="q" unicode="&#x71;" horiz-adv-x="630" d=" M375,500 Q462,500 630,476 L506,-225 L344,-225 L382,-10 Q322,-15 247,-15 Q148,-15 90,55 Q33,125 57,245 Q110,500 375,500 M300,119 Q358,119 406,126 L448,364 Q386,369 350,369 Q287,369 249,328 Q211,287 211,219 Q211,174 235,146.5 Q259,119 300,119"/> 
            <glyph glyph-name="r" unicode="&#x72;" horiz-adv-x="442" d=" M442,502 L414,344 Q314,344 247,338 L189,0 L27,0 L109,470 Q286,502 442,502"/> 
            <glyph glyph-name="s" unicode="&#x73;" horiz-adv-x="516" d=" M8,28 L61,154 Q168,111 241,111 Q309,111 309,142 Q309,147 306.5,151.5 Q304,156 298.5,159.5 Q293,163 287.5,165.5 Q282,168 272,170.5 Q262,173 254.5,174.5 Q247,176 234,178.5 Q221,181 213,183 Q139,199 105,228 Q71,257 71,309 Q71,401 135,450.5 Q199,500 315,500 Q420,500 516,465 L464,340 Q370,376 297,376 Q237,376 237,339 Q237,320 274,311 Q281,309 306.5,305 Q332,301 335,300 Q406,284 439.5,255 Q473,226 473,176 Q473,85 406.5,35 Q340,-15 225,-15 Q115,-15 8,28"/> 
            <glyph glyph-name="t" unicode="&#x74;" horiz-adv-x="462" d=" M415,138 L407,5 Q325,-15 251,-15 Q160,-15 121,38 Q82,91 99,191 L125,340 L26,340 L52,485 L151,485 L180,650 L342,650 L313,485 L462,485 L436,340 L287,340 L264,207 Q250,130 320,130 Q351,130 415,138"/> 
            <glyph glyph-name="u" unicode="&#x75;" horiz-adv-x="626" d=" M626,485 L543,9 Q361,-13 232,-13 Q139,-13 94,34.5 Q49,82 66,174 L121,485 L283,485 L235,209 Q218,121 301,121 Q323,121 401,126 L464,485"/> 
            <glyph glyph-name="v" unicode="&#x76;" horiz-adv-x="657" d=" M356,0 L191,0 L60,485 L232,485 L304,193 L479,485 L657,485"/> 
            <glyph glyph-name="w" unicode="&#x77;" horiz-adv-x="852" d=" M616,0 L460,0 L419,260 L283,0 L128,0 L62,485 L224,485 L252,211 L395,485 L517,485 L561,210 L687,485 L852,485"/> 
            <glyph glyph-name="x" unicode="&#x78;" horiz-adv-x="618" d=" M402,241 L532,0 L355,0 L279,140 L152,0 L-25,0 L190,242 L60,485 L244,485 L316,357 L434,485 L618,485"/> 
            <glyph glyph-name="y" unicode="&#x79;" horiz-adv-x="693" d=" M693,486 L237,-224 L72,-224 L225,23 L61,486 L236,486 L335,199 L514,486"/> 
            <glyph glyph-name="z" unicode="&#x7A;" horiz-adv-x="513" d=" M498,399 L249,137 L469,137 L444,0 L-7,0 L7,80 L265,348 L57,348 L81,485 L513,485"/> 
            <glyph glyph-name="{" unicode="&#x7B;" horiz-adv-x="452" d=" M335,562 L301,373 Q293,321 269,294.5 Q245,268 189,251 Q275,224 257,124 L224,-65 Q217,-100 229.5,-108.5 Q242,-117 293,-117 L265,-268 Q149,-268 97.5,-213.5 Q46,-159 63,-59 L99,140 Q105,173 90.5,181.5 Q76,190 22,190 L45,319 Q130,319 141,381 L176,580 Q193,681 259.5,729 Q326,777 452,777 L424,626 Q382,626 361.5,611.5 Q341,597 335,562"/> 
            <glyph glyph-name="|" unicode="&#x7C;" horiz-adv-x="329" d=" M329,761 L167,-157 L23,-157 L185,761"/> 
            <glyph glyph-name="}" unicode="&#x7D;" horiz-adv-x="360" d=" M47,-53 L80,136 Q89,188 112,214 Q136,241 192,258 Q106,287 125,385 L158,574 Q164,608 151.5,617 Q139,626 89,626 L117,777 Q233,777 284,723 Q335,669 318,568 L283,369 Q277,336 291.5,327.5 Q306,319 360,319 L336,190 Q252,190 241,128 L206,-71 Q188,-172 121.5,-220 Q55,-268 -70,-268 L-42,-117 Q0,-117 20.5,-102.5 Q41,-88 47,-53"/> 
            <glyph glyph-name="~" unicode="&#x7E;" horiz-adv-x="487" d=" M350,418 L487,418 Q477,358 447,317 Q417,276 380.5,260.5 Q344,245 307,246 Q270,247 242,265 L204,291 Q161,313 154,263 L17,263 Q27,322 56.5,363 Q86,404 122.5,419.5 Q159,435 196,434 Q233,433 261,415 L300,390 Q342,369 350,418"/> 
            <glyph glyph-name="¡" unicode="&#xA1;" horiz-adv-x="261" d=" M166,503 Q205,503 233,476.5 Q261,450 261,411 Q261,372 233,345.5 Q205,319 166,319 Q126,319 98,345.5 Q70,372 70,411 Q70,450 98,476.5 Q126,503 166,503 M-26,-195 L68,272 L226,272 L156,-195"/> 
            <glyph glyph-name="¢" unicode="&#xA2;" horiz-adv-x="520" d=" M445,150 L440,25 Q369,4 322,0 L303,-110 L172,-110 L192,2 Q114,18 69.5,74 Q25,130 25,211 Q25,323 96,403 Q166,482 280,505 L301,619 L432,619 L412,507 Q457,503 520,482 L477,357 Q381,374 336,374 Q272,374 229,334 Q186,295 186,233 Q186,187 215,159.5 Q244,132 294,132 Q352,132 445,150"/> 
            <glyph glyph-name="£" unicode="&#xA3;" horiz-adv-x="611" d=" M534,0 L-10,0 L14,139 L70,139 L93,269 L37,269 L59,395 L115,395 L130,480 Q147,576 225,634 Q304,692 418,692 Q507,692 611,669 L566,538 Q453,555 402,555 Q356,555 326,529.5 Q296,504 288,460 L276,395 L458,395 L436,269 L253,269 L231,139 L558,139"/> 
            <glyph glyph-name="¥" unicode="&#xA5;" horiz-adv-x="802" d=" M661,296 L645,199 L444,199 L437,156 L637,156 L620,59 L419,59 L409,0 L239,0 L250,59 L57,59 L74,156 L267,156 L274,199 L82,199 L98,296 L243,296 L85,680 L274,680 L392,394 L613,680 L802,680 L509,296"/> 
            <glyph glyph-name="¦" unicode="&#xA6;" horiz-adv-x="328" d=" M256,352 L112,352 L184,760 L328,760 M167,-158 L23,-158 L94,250 L238,250"/> 
            <glyph glyph-name="§" unicode="&#xA7;" horiz-adv-x="578" d=" M379,695 Q495,695 578,648 L511,529 Q425,572 357,572 Q268,572 268,516 Q268,505 273,496.5 Q278,488 290.5,481.5 Q303,475 313.5,471.5 Q324,468 347.5,461 Q371,454 385,449 Q471,423 510,388 Q549,353 549,293 Q549,185 440,118 Q465,89 465,41 Q465,-52 392,-107 Q319,-163 200,-163 Q82,-163 1,-115 L68,4 Q156,-40 222,-40 Q311,-40 311,16 Q311,38 291,50 Q271,62 215,78 L194,84 Q109,109 69.5,144 Q30,179 30,239 Q30,347 139,414 Q114,445 114,491 Q114,584 186,639 Q260,695 379,695 M231,353 Q186,312 186,276 Q186,251 211.5,234.5 Q237,218 294,199 Q328,188 348,179 Q393,222 393,256 Q393,281 368,298 Q343,315 286,333 Q255,343 231,353"/> 
            <glyph glyph-name="¨" unicode="&#xA8;" horiz-adv-x="554" d=" M235,717 Q272,717 298,692 Q324,667 324,631 Q324,595 298,570 Q272,545 235,545 Q197,545 171,569.5 Q145,594 145,631 Q145,668 171,692.5 Q197,717 235,717 M464,717 Q501,717 527.5,692 Q554,667 554,631 Q554,595 527.5,570 Q501,545 464,545 Q426,545 400,569.5 Q374,594 374,631 Q374,668 400,692.5 Q426,717 464,717"/> 
            <glyph glyph-name="©" unicode="&#xA9;" horiz-adv-x="782" d=" M157,593 Q262,695 418,695 Q574,695 678,593 Q782,492 782,340 Q782,188 678,86 Q574,-15 418,-15 Q263,-15 157,86 Q53,188 53,340 Q53,492 157,593 M622,539 Q540,620 418,620 Q296,620 214,539 Q132,460 132,340 Q132,221 214,140 Q297,60 418,60 Q539,60 622,140 Q704,221 704,340 Q704,460 622,539 M579,508 L550,420 Q481,433 450,433 Q400,433 369.5,404 Q339,375 339,328 Q339,296 364,276.5 Q389,257 429,257 Q462,257 535,269 L532,182 Q465,160 407,160 Q326,160 276,202 Q226,244 226,312 Q226,410 291,470 Q356,530 462,530 Q519,530 579,508"/> 
            <glyph glyph-name="ª" unicode="&#xAA;" horiz-adv-x="478" d=" M327,695 Q407,696 442.5,662 Q478,628 467,563 L429,347 Q296,329 200,329 Q143,329 111.5,354.5 Q80,380 80,425 Q80,485 122,514.5 Q164,544 255,549 L349,554 L350,557 Q352,575 341,583.5 Q330,592 303,592 Q258,592 152,580 L156,678 Q273,695 327,695 M337,481 L249,476 Q221,475 210,467.5 Q199,460 199,443 Q199,417 243,417 Q258,417 326,422"/> 
            <glyph glyph-name="«" unicode="&#xAB;" horiz-adv-x="597" d=" M300,111 L193,28 L34,249 L262,466 L343,383 L198,246 M554,111 L446,28 L287,249 L516,466 L597,383 L451,246"/> 
            <glyph glyph-name="®" unicode="&#xAE;" horiz-adv-x="789" d=" M163,593 Q268,695 424,695 Q580,695 684,593 Q789,492 789,340 Q789,188 684,86 Q580,-15 424,-15 Q269,-15 163,86 Q59,188 59,340 Q59,492 163,593 M628,539 Q546,620 424,620 Q302,620 220,539 Q138,460 138,340 Q138,221 220,140 Q303,60 424,60 Q545,60 628,140 Q710,221 710,340 Q710,460 628,539 M465,536 Q538,536 573.5,502 Q609,468 598,406 Q586,338 520,301 L584,178 L464,178 L417,277 L410,277 L369,277 L352,178 L250,178 L313,534 Q346,534 382,535 Q419,536 465,536 M451,451 Q411,451 399,450 L384,360 L438,360 Q459,360 476,374 Q493,388 497,407 Q501,428 488.5,439.5 Q476,451 451,451"/> 
            <glyph glyph-name="¯" unicode="&#xAF;" horiz-adv-x="521" d=" M521,692 L499,568 L212,568 L234,692"/> 
            <glyph glyph-name="°" unicode="&#xB0;" horiz-adv-x="457" d=" M305,695 Q376,695 416.5,656 Q457,617 457,551 Q457,462 396,404 Q334,347 244,347 Q174,347 133.5,386.5 Q93,426 93,492 Q93,580 153,637 Q214,695 305,695 M262,451 Q298,451 322.5,474 Q347,497 347,533 Q347,559 331,575 Q315,591 287,591 Q251,591 226.5,568 Q202,545 202,510 Q202,484 218,467.5 Q234,451 262,451"/> 
            <glyph glyph-name="±" unicode="&#xB1;" horiz-adv-x="609" d=" M587,324 L416,324 L393,198 L260,198 L283,324 L111,324 L134,452 L305,452 L327,576 L460,576 L438,452 L609,452 M558,162 L536,34 L60,34 L83,162"/> 
            <glyph glyph-name="²" unicode="&#xB2;" horiz-adv-x="378" d=" M335,281 L24,281 L38,358 L212,487 Q236,503 245,516 Q254,529 254,549 Q254,583 205,583 Q156,583 90,564 L86,662 Q169,688 243,688 Q310,688 344,658.5 Q378,629 378,580 Q378,531 350,492 Q322,453 255,404 L222,379 L352,379"/> 
            <glyph glyph-name="³" unicode="&#xB3;" horiz-adv-x="403" d=" M391,617 L279,519 L285,518 Q325,511 348,486 Q371,461 371,426 Q371,355 323.5,314 Q276,273 185,273 Q88,273 19,306 L70,396 Q134,369 191,369 Q259,369 259,410 Q259,435 221,435 L117,435 L125,485 L231,580 L83,580 L100,680 L403,680"/> 
            <glyph glyph-name="´" unicode="&#xB4;" horiz-adv-x="552" d=" M552,707 L403,560 L246,560 L348,707"/> 
            <glyph glyph-name="¶" unicode="&#xB6;" horiz-adv-x="792" d=" M364,689 Q666,689 792,680 L652,-111 L505,-111 L622,550 Q560,552 551,552 L434,-111 L288,-111 L343,203 L279,203 Q173,203 112,258.5 Q51,314 51,408 Q51,534 138,611 Q225,689 364,689 M405,555 L325,556 Q264,556 228.5,521 Q193,486 193,425 Q193,382 217,357.5 Q241,333 286,333 L366,333"/> 
            <glyph glyph-name="·" unicode="&#xB7;" horiz-adv-x="273" d=" M167,166 Q124,166 93,195.5 Q62,225 62,267 Q62,309 93,338.5 Q124,368 167,368 Q211,368 242,338.5 Q273,309 273,267 Q273,224 242,195 Q211,166 167,166"/> 
            <glyph glyph-name="¸" unicode="&#xB8;" horiz-adv-x="345" d=" M250,-211 L127,-211 L199,-48 L345,-48"/> 
            <glyph glyph-name="¹" unicode="&#xB9;" horiz-adv-x="317" d=" M317,382 L298,281 L31,281 L50,382 L121,382 L151,548 L75,530 L68,627 L251,680 L287,680 L235,382"/> 
            <glyph glyph-name="º" unicode="&#xBA;" horiz-adv-x="474" d=" M309,695 Q384,695 429,653 Q474,611 474,542 Q474,450 408,388 Q343,327 245,327 Q170,327 125,369.5 Q80,412 80,483 Q80,575 146,635 Q214,695 309,695 M263,435 Q300,435 327,461 Q354,487 354,525 Q354,553 336,570.5 Q318,588 290,588 Q253,588 226.5,562.5 Q200,537 200,499 Q200,470 217.5,452.5 Q235,435 263,435"/> 
            <glyph glyph-name="»" unicode="&#xBB;" horiz-adv-x="593" d=" M73,383 L181,466 L339,246 L111,28 L30,111 L175,248 M326,383 L434,466 L593,246 L364,28 L283,111 L429,248"/> 
            <glyph glyph-name="¼" unicode="&#xBC;" horiz-adv-x="841" d=" M58,281 L77,382 L148,382 L178,548 L102,530 L95,627 L278,680 L314,680 L262,382 L344,382 L325,281 M812,680 L221,0 L140,0 L731,680 M841,170 L825,78 L770,78 L757,0 L648,0 L662,78 L433,78 L447,157 L710,399 L827,399 L787,170 M698,278 L585,170 L678,170"/> 
            <glyph glyph-name="½" unicode="&#xBD;" horiz-adv-x="876" d=" M58,281 L77,382 L148,382 L178,548 L102,530 L95,627 L278,680 L314,680 L262,382 L344,382 L325,281 M802,680 L211,0 L130,0 L720,680 M720,98 L851,98 L833,0 L522,0 L536,77 L711,206 Q735,222 743.5,235 Q752,248 752,268 Q752,302 703,302 Q654,302 588,283 L585,381 Q666,407 741,407 Q808,407 842,377.5 Q876,348 876,299 Q876,250 848,211.5 Q820,173 754,123"/> 
            <glyph glyph-name="¾" unicode="&#xBE;" horiz-adv-x="871" d=" M412,617 L300,519 L306,518 Q346,511 369,486 Q392,461 392,426 Q392,355 344.5,314 Q297,273 206,273 Q109,273 40,306 L91,396 Q155,369 212,369 Q280,369 280,410 Q280,435 242,435 L138,435 L146,485 L252,580 L104,580 L121,680 L424,680 M238,0 L157,0 L747,680 L829,680 M817,170 L871,170 L855,78 L801,78 L787,0 L678,0 L692,78 L463,78 L477,157 L740,399 L857,399 M616,170 L709,170 L728,278"/> 
            <glyph glyph-name="¿" unicode="&#xBF;" horiz-adv-x="447" d=" M352,333 Q312,333 284,359 Q256,385 256,424 Q256,463 284,489.5 Q312,516 352,516 Q391,516 419,489.5 Q447,463 447,424 Q447,385 419,359 Q391,333 352,333 M212,-196 Q111,-196 53,-147.5 Q-5,-99 -5,-17 Q-5,82 67,154 Q139,227 242,227 L249,227 L267,289 L411,289 L379,110 L274,110 Q220,110 185.5,82 Q151,54 151,8 Q151,-22 174,-40.5 Q197,-59 238,-59 Q293,-59 414,-42 L412,-173 Q300,-196 212,-196"/> 
            <glyph glyph-name="À" unicode="&#xC0;" horiz-adv-x="725" d=" M556,743 L420,743 L300,890 L499,890 M214,113 L148,0 L-37,0 L388,684 L543,684 L725,0 L546,0 L520,113 M433,484 L296,255 L486,255"/> 
            <glyph glyph-name="Á" unicode="&#xC1;" horiz-adv-x="726" d=" M726,890 L570,743 L406,743 L521,890 M214,113 L148,0 L-37,0 L388,684 L543,684 L725,0 L546,0 L520,113 M433,484 L296,255 L486,255"/> 
            <glyph glyph-name="Â" unicode="&#xC2;" horiz-adv-x="725" d=" M496,803 L438,743 L288,743 L437,890 L578,890 L675,743 L529,743 M214,113 L148,0 L-37,0 L388,684 L543,684 L725,0 L546,0 L520,113 M433,484 L296,255 L486,255"/> 
            <glyph glyph-name="Ã" unicode="&#xC3;" horiz-adv-x="725" d=" M590,892 L712,892 Q702,839 675.5,803 Q649,767 617,753.5 Q585,740 552.5,740.5 Q520,741 495,757 L461,780 Q423,800 416,755 L294,755 Q303,808 329,844 Q355,880 387.5,893.5 Q420,907 453,906 Q486,905 511,890 L545,867 Q581,845 590,892 M214,113 L148,0 L-37,0 L388,684 L543,684 L725,0 L546,0 L520,113 M433,484 L296,255 L486,255"/> 
            <glyph glyph-name="Ä" unicode="&#xC4;" horiz-adv-x="725" d=" M441,758 Q414,733 376,733 Q338,733 311,758 Q285,784 285,821 Q285,858 311,883 Q338,909 376,909 Q414,909 441,883 Q468,858 468,821 Q468,784 441,758 M670,758 Q644,733 606,733 Q568,733 541,758 Q514,784 514,821 Q514,858 541,883 Q568,909 606,909 Q644,909 670,883 Q697,858 697,821 Q697,784 670,758 M214,113 L148,0 L-37,0 L388,684 L543,684 L725,0 L546,0 L520,113 M433,484 L296,255 L486,255"/> 
            <glyph glyph-name="Å" unicode="&#xC5;" horiz-adv-x="725" d=" M497,964 Q551,964 583.5,933.5 Q616,903 616,853 Q616,797 576,761 Q536,725 476,725 Q422,725 389.5,755.5 Q357,786 357,836 Q357,892 396.5,928 Q436,964 497,964 M482,800 Q504,800 518.5,813.5 Q533,827 533,848 Q533,867 521.5,878 Q510,889 490,889 Q468,889 454,875.5 Q440,862 440,841 Q440,822 451.5,811 Q463,800 482,800 M214,113 L148,0 L-37,0 L388,684 L543,684 L725,0 L546,0 L520,113 M433,484 L296,255 L486,255"/> 
            <glyph glyph-name="Æ" unicode="&#xC6;" horiz-adv-x="1133" d=" M741,412 L1041,412 L1016,268 L715,268 L694,147 L1039,147 L1013,0 L499,0 L519,110 L262,110 L169,0 L-31,0 L556,680 L1133,680 L1107,533 L762,533 M589,499 L383,255 L544,255"/> 
            <glyph glyph-name="Ç" unicode="&#xC7;" horiz-adv-x="748" d=" M748,659 L694,509 Q559,536 498,536 Q380,536 309,473 Q240,412 240,308 Q240,237 289.5,193.5 Q339,150 420,150 Q492,150 634,177 L637,26 Q493,-15 380,-15 Q234,-15 145,66 Q56,147 56,280 Q56,467 179,581 Q303,695 505,695 Q610,695 748,659 M326,-211 L203,-211 L275,-48 L421,-48"/> 
            <glyph glyph-name="È" unicode="&#xC8;" horiz-adv-x="658" d=" M265,412 L566,412 L540,268 L240,268 L218,147 L564,147 L538,0 L24,0 L144,680 L658,680 L632,533 L287,533 M480,743 L344,743 L224,890 L423,890"/> 
            <glyph glyph-name="É" unicode="&#xC9;" horiz-adv-x="658" d=" M265,412 L566,412 L540,268 L240,268 L218,147 L564,147 L538,0 L24,0 L144,680 L658,680 L632,533 L287,533 M650,890 L494,743 L330,743 L445,890"/> 
            <glyph glyph-name="Ê" unicode="&#xCA;" horiz-adv-x="658" d=" M265,412 L566,412 L540,268 L240,268 L218,147 L564,147 L538,0 L24,0 L144,680 L658,680 L632,533 L287,533 M421,803 L363,743 L213,743 L362,890 L503,890 L600,743 L454,743"/> 
            <glyph glyph-name="Ë" unicode="&#xCB;" horiz-adv-x="658" d=" M265,412 L566,412 L540,268 L240,268 L218,147 L564,147 L538,0 L24,0 L144,680 L658,680 L632,533 L287,533 M366,758 Q339,733 301,733 Q263,733 236,758 Q210,784 210,821 Q210,858 236,883 Q263,909 301,909 Q339,909 366,883 Q393,858 393,821 Q393,784 366,758 M595,758 Q569,733 531,733 Q493,733 466,758 Q439,784 439,821 Q439,858 466,883 Q493,909 531,909 Q569,909 595,883 Q622,858 622,821 Q622,784 595,758"/> 
            <glyph glyph-name="Ì" unicode="&#xCC;" horiz-adv-x="311" d=" M311,680 L191,0 L22,0 L142,680 M311,743 L175,743 L55,890 L254,890"/> 
            <glyph glyph-name="Í" unicode="&#xCD;" horiz-adv-x="481" d=" M311,680 L191,0 L22,0 L142,680 M481,890 L325,743 L161,743 L276,890"/> 
            <glyph glyph-name="Î" unicode="&#xCE;" horiz-adv-x="430" d=" M311,680 L191,0 L22,0 L142,680 M251,803 L193,743 L43,743 L192,890 L333,890 L430,743 L284,743"/> 
            <glyph glyph-name="Ï" unicode="&#xCF;" horiz-adv-x="452" d=" M196,758 Q169,733 131,733 Q93,733 66,758 Q40,784 40,821 Q40,858 66,883 Q93,909 131,909 Q169,909 196,883 Q223,858 223,821 Q223,784 196,758 M425,758 Q399,733 361,733 Q323,733 296,758 Q269,784 269,821 Q269,858 296,883 Q323,909 361,909 Q399,909 425,883 Q452,858 452,821 Q452,784 425,758 M311,680 L191,0 L22,0 L142,680"/> 
            <glyph glyph-name="Ð" unicode="&#xD0;" horiz-adv-x="714" d=" M399,688 Q543,688 628,609 Q714,529 714,400 Q714,223 592,107 Q471,-8 293,-8 Q182,-8 24,0 L70,259 L13,259 L38,405 L95,405 L144,680 Q304,688 399,688 M324,143 Q410,143 474,210 Q538,277 538,378 Q538,450 495,493.5 Q452,537 380,537 Q329,537 287,535 L264,405 L373,405 L347,259 L239,259 L219,145 Q265,143 324,143"/> 
            <glyph glyph-name="Ñ" unicode="&#xD1;" horiz-adv-x="783" d=" M783,680 L663,0 L517,0 L264,395 L193,0 L24,0 L144,680 L294,680 L542,282 L614,680 M575,892 L697,892 Q687,839 660.5,803 Q634,767 602,753.5 Q570,740 537.5,740.5 Q505,741 480,757 L446,780 Q408,800 401,755 L279,755 Q288,808 314,844 Q340,880 372.5,893.5 Q405,907 438,906 Q471,905 496,890 L530,867 Q566,845 575,892"/> 
            <glyph glyph-name="Ò" unicode="&#xD2;" horiz-adv-x="801" d=" M491,695 Q633,695 717,614 Q801,533 801,399 Q801,219 675,102 Q549,-15 365,-15 Q224,-15 140,66 Q56,147 56,281 Q56,461 181,578 Q307,695 491,695 M393,140 Q489,140 556,207 Q623,274 623,376 Q623,450 579.5,494.5 Q536,539 464,539 Q368,539 301,472 Q234,406 234,304 Q234,230 277.5,185 Q321,140 393,140 M571,743 L435,743 L315,890 L514,890"/> 
            <glyph glyph-name="Ó" unicode="&#xD3;" horiz-adv-x="801" d=" M491,695 Q633,695 717,614 Q801,533 801,399 Q801,219 675,102 Q549,-15 365,-15 Q224,-15 140,66 Q56,147 56,281 Q56,461 181,578 Q307,695 491,695 M393,140 Q489,140 556,207 Q623,274 623,376 Q623,450 579.5,494.5 Q536,539 464,539 Q368,539 301,472 Q234,406 234,304 Q234,230 277.5,185 Q321,140 393,140 M741,890 L585,743 L421,743 L536,890"/> 
            <glyph glyph-name="Ô" unicode="&#xD4;" horiz-adv-x="801" d=" M491,695 Q633,695 717,614 Q801,533 801,399 Q801,219 675,102 Q549,-15 365,-15 Q224,-15 140,66 Q56,147 56,281 Q56,461 181,578 Q307,695 491,695 M393,140 Q489,140 556,207 Q623,274 623,376 Q623,450 579.5,494.5 Q536,539 464,539 Q368,539 301,472 Q234,406 234,304 Q234,230 277.5,185 Q321,140 393,140 M511,803 L453,743 L303,743 L452,890 L593,890 L690,743 L544,743"/> 
            <glyph glyph-name="Õ" unicode="&#xD5;" horiz-adv-x="801" d=" M491,695 Q633,695 717,614 Q801,533 801,399 Q801,219 675,102 Q549,-15 365,-15 Q224,-15 140,66 Q56,147 56,281 Q56,461 181,578 Q307,695 491,695 M393,140 Q489,140 556,207 Q623,274 623,376 Q623,450 579.5,494.5 Q536,539 464,539 Q368,539 301,472 Q234,406 234,304 Q234,230 277.5,185 Q321,140 393,140 M605,892 L727,892 Q717,839 690.5,803 Q664,767 632,753.5 Q600,740 567.5,740.5 Q535,741 510,757 L476,780 Q438,800 431,755 L309,755 Q318,808 344,844 Q370,880 402.5,893.5 Q435,907 468,906 Q501,905 526,890 L560,867 Q596,845 605,892"/> 
            <glyph glyph-name="Ö" unicode="&#xD6;" horiz-adv-x="801" d=" M491,695 Q633,695 717,614 Q801,533 801,399 Q801,219 675,102 Q549,-15 365,-15 Q224,-15 140,66 Q56,147 56,281 Q56,461 181,578 Q307,695 491,695 M393,140 Q489,140 556,207 Q623,274 623,376 Q623,450 579.5,494.5 Q536,539 464,539 Q368,539 301,472 Q234,406 234,304 Q234,230 277.5,185 Q321,140 393,140 M456,758 Q429,733 391,733 Q353,733 326,758 Q300,784 300,821 Q300,858 326,883 Q353,909 391,909 Q429,909 456,883 Q483,858 483,821 Q483,784 456,758 M685,758 Q659,733 621,733 Q583,733 556,758 Q529,784 529,821 Q529,858 556,883 Q583,909 621,909 Q659,909 685,883 Q712,858 712,821 Q712,784 685,758"/> 
            <glyph glyph-name="×" unicode="&#xD7;" horiz-adv-x="596" d=" M547,183 L443,92 L329,231 L165,92 L87,183 L250,322 L136,461 L239,552 L354,413 L517,552 L596,461 L432,322"/> 
            <glyph glyph-name="Ø" unicode="&#xD8;" horiz-adv-x="801" d=" M794,628 L746,582 Q801,506 801,399 Q801,219 675,102 Q549,-15 365,-15 Q254,-15 177,36 L126,-13 L52,57 L105,108 Q56,179 56,281 Q56,461 181,578 Q307,695 491,695 Q596,695 669,650 L720,699 M234,304 Q234,267 244,241 L538,524 Q505,539 464,539 Q368,539 301,472 Q234,406 234,304 M393,140 Q489,140 556,207 Q623,274 623,376 Q623,416 609,450 L308,161 Q346,140 393,140"/> 
            <glyph glyph-name="Ù" unicode="&#xD9;" horiz-adv-x="796" d=" M564,743 L428,743 L308,890 L507,890 M796,680 L731,308 Q705,159 606,72 Q509,-15 362,-15 Q215,-15 141,71 Q68,156 95,308 L160,680 L332,680 L267,308 Q253,231 284,188 Q315,145 384,145 Q451,145 498,188 Q545,231 559,308 L624,680"/> 
            <glyph glyph-name="Ú" unicode="&#xDA;" horiz-adv-x="796" d=" M734,890 L578,743 L414,743 L529,890 M796,680 L731,308 Q705,159 606,72 Q509,-15 362,-15 Q215,-15 141,71 Q68,156 95,308 L160,680 L332,680 L267,308 Q253,231 284,188 Q315,145 384,145 Q451,145 498,188 Q545,231 559,308 L624,680"/> 
            <glyph glyph-name="Û" unicode="&#xDB;" horiz-adv-x="796" d=" M504,803 L446,743 L296,743 L445,890 L586,890 L683,743 L537,743 M796,680 L731,308 Q705,159 606,72 Q509,-15 362,-15 Q215,-15 141,71 Q68,156 95,308 L160,680 L332,680 L267,308 Q253,231 284,188 Q315,145 384,145 Q451,145 498,188 Q545,231 559,308 L624,680"/> 
            <glyph glyph-name="Ü" unicode="&#xDC;" horiz-adv-x="796" d=" M449,758 Q422,733 384,733 Q346,733 319,758 Q293,784 293,821 Q293,858 319,883 Q346,909 384,909 Q422,909 449,883 Q476,858 476,821 Q476,784 449,758 M678,758 Q652,733 614,733 Q576,733 549,758 Q522,784 522,821 Q522,858 549,883 Q576,909 614,909 Q652,909 678,883 Q705,858 705,821 Q705,784 678,758 M796,680 L731,308 Q705,159 606,72 Q509,-15 362,-15 Q215,-15 141,71 Q68,156 95,308 L160,680 L332,680 L267,308 Q253,231 284,188 Q315,145 384,145 Q451,145 498,188 Q545,231 559,308 L624,680"/> 
            <glyph glyph-name="Ý" unicode="&#xDD;" horiz-adv-x="808" d=" M705,890 L549,743 L385,743 L500,890 M280,215 L91,680 L277,680 L394,394 L617,680 L808,680 L455,215 L416,0 L241,0"/> 
            <glyph glyph-name="Þ" unicode="&#xDE;" horiz-adv-x="648" d=" M392,598 Q512,598 580,543 Q648,488 648,389 Q648,258 552,175 Q456,94 303,94 L209,94 L193,0 L24,0 L144,680 L313,680 L298,597 Q319,598 392,598 M236,241 L339,241 Q400,241 439,275 Q478,309 478,365 Q478,406 451,428.5 Q424,451 376,451 Q362,451 272,449"/> 
            <glyph glyph-name="ß" unicode="&#xDF;" horiz-adv-x="659" d=" M391,764 L366,625 Q293,625 280,549 L269,485 L659,485 L642,393 L495,229 L500,228 Q555,217 588,172.5 Q621,128 621,63 Q621,-54 539,-129 Q456,-204 326,-204 Q251,-204 170,-182 L213,-53 Q290,-66 348,-66 Q399,-66 432.5,-35 Q466,-4 466,41 Q466,71 444,90 Q422,109 385,109 L288,109 L301,180 L433,341 L243,341 L183,0 L21,0 L120,561 Q155,764 391,764"/> 
            <glyph glyph-name="à" unicode="&#xE0;" horiz-adv-x="631" d=" M356,500 Q433,500 631,476 L547,0 L385,0 L391,33 Q320,-15 242,-15 Q146,-15 91,55 Q35,126 59,245 Q81,359 161,430 Q241,500 356,500 M352,369 Q291,369 251.5,327 Q212,285 212,219 Q212,174 236,146.5 Q260,119 301,119 Q356,119 413,161 L449,364 Q391,369 352,369 M492,560 L358,560 L252,707 L450,707"/> 
            <glyph glyph-name="á" unicode="&#xE1;" horiz-adv-x="631" d=" M356,500 Q433,500 631,476 L547,0 L385,0 L391,33 Q320,-15 242,-15 Q146,-15 91,55 Q35,126 59,245 Q81,359 161,430 Q241,500 356,500 M352,369 Q291,369 251.5,327 Q212,285 212,219 Q212,174 236,146.5 Q260,119 301,119 Q356,119 413,161 L449,364 Q391,369 352,369 M629,707 L480,560 L323,560 L425,707"/> 
            <glyph glyph-name="â" unicode="&#xE2;" horiz-adv-x="631" d=" M356,500 Q433,500 631,476 L547,0 L385,0 L391,33 Q320,-15 242,-15 Q146,-15 91,55 Q35,126 59,245 Q81,359 161,430 Q241,500 356,500 M352,369 Q291,369 251.5,327 Q212,285 212,219 Q212,174 236,146.5 Q260,119 301,119 Q356,119 413,161 L449,364 Q391,369 352,369 M428,616 L371,563 L220,563 L368,707 L509,707 L607,563 L462,563"/> 
            <glyph glyph-name="ã" unicode="&#xE3;" horiz-adv-x="631" d=" M356,500 Q433,500 631,476 L547,0 L385,0 L391,33 Q320,-15 242,-15 Q146,-15 91,55 Q35,126 59,245 Q81,359 161,430 Q241,500 356,500 M352,369 Q291,369 251.5,327 Q212,285 212,219 Q212,174 236,146.5 Q260,119 301,119 Q356,119 413,161 L449,364 Q391,369 352,369 M512,705 L630,705 Q621,653 595.5,617.5 Q570,582 538.5,568.5 Q507,555 474.5,556 Q442,557 418,573 L384,595 Q347,615 340,571 L222,571 Q231,623 256.5,658 Q282,693 313.5,706.5 Q345,720 377,719 Q409,718 434,703 L468,681 Q505,661 512,705"/> 
            <glyph glyph-name="ä" unicode="&#xE4;" horiz-adv-x="631" d=" M356,500 Q433,500 631,476 L547,0 L385,0 L391,33 Q320,-15 242,-15 Q146,-15 91,55 Q35,126 59,245 Q81,359 161,430 Q241,500 356,500 M352,369 Q291,369 251.5,327 Q212,285 212,219 Q212,174 236,146.5 Q260,119 301,119 Q356,119 413,161 L449,364 Q391,369 352,369 M302,717 Q339,717 365,692 Q391,667 391,631 Q391,595 365,570 Q339,545 302,545 Q264,545 238,569.5 Q212,594 212,631 Q212,668 238,692.5 Q264,717 302,717 M531,717 Q568,717 594.5,692 Q621,667 621,631 Q621,595 594.5,570 Q568,545 531,545 Q493,545 467,569.5 Q441,594 441,631 Q441,668 467,692.5 Q493,717 531,717"/> 
            <glyph glyph-name="å" unicode="&#xE5;" horiz-adv-x="631" d=" M356,500 Q433,500 631,476 L547,0 L385,0 L391,33 Q320,-15 242,-15 Q146,-15 91,55 Q35,126 59,245 Q81,359 161,430 Q241,500 356,500 M352,369 Q291,369 251.5,327 Q212,285 212,219 Q212,174 236,146.5 Q260,119 301,119 Q356,119 413,161 L449,364 Q391,369 352,369 M423,787 Q476,787 508.5,757 Q541,727 541,677 Q541,621 501.5,584.5 Q462,548 401,548 Q348,548 315,578.5 Q282,609 282,659 Q282,715 322,751 Q362,787 423,787 M407,623 Q429,623 443.5,636.5 Q458,650 458,671 Q458,690 446.5,701 Q435,712 415,712 Q393,712 379,698.5 Q365,685 365,664 Q365,645 376.5,634 Q388,623 407,623"/> 
            <glyph glyph-name="æ" unicode="&#xE6;" horiz-adv-x="882" d=" M661,500 Q768,500 825,438 Q882,376 864,279 Q856,239 840,190 L515,190 Q531,117 626,117 Q682,117 801,141 L800,23 Q677,-15 597,-15 Q502,-15 440,27 Q302,-12 240,-14 Q226,-15 181,-15 Q103,-15 60.5,20.5 Q18,56 18,119 Q18,207 75,248 Q132,289 258,288 L365,287 L366,301 Q371,337 354.5,353 Q338,369 294,369 Q237,369 107,352 L112,480 Q247,501 334,503 Q447,503 492,452 Q566,500 661,500 M687,377 Q601,377 569.5,353.5 Q538,330 523,289 L726,289 Q731,329 687,377 M172,138 Q172,101 241,101 Q296,101 370,119 Q359,149 357,181 L249,180 Q206,180 189,170 Q172,160 172,138"/> 
            <glyph glyph-name="ç" unicode="&#xE7;" horiz-adv-x="525" d=" M525,473 L483,348 Q392,366 341,366 Q276,366 232,325 Q189,285 189,223 Q189,177 218.5,151 Q248,125 298,125 Q356,125 449,143 L444,15 Q349,-15 266,-15 Q159,-15 94,44 Q30,102 30,201 Q30,333 122,417 Q215,501 356,501 Q435,501 525,473 M205,-211 L82,-211 L154,-48 L300,-48"/> 
            <glyph glyph-name="è" unicode="&#xE8;" horiz-adv-x="548" d=" M430,560 L296,560 L190,707 L388,707 M333,500 Q434,500 491,443 Q548,387 538,296 Q534,249 512,190 L186,190 Q193,153 217.5,137.5 Q242,122 291,122 Q352,122 470,146 L473,23 Q350,-15 269,-15 Q155,-15 91.5,43.5 Q28,102 28,200 Q28,331 116,415 Q204,500 333,500 M316,377 Q231,377 197,289 L397,289 Q402,329 380,353 Q358,377 316,377"/> 
            <glyph glyph-name="é" unicode="&#xE9;" horiz-adv-x="568" d=" M568,707 L419,560 L262,560 L364,707 M333,500 Q434,500 491,443 Q548,387 538,296 Q534,249 512,190 L186,190 Q193,153 217.5,137.5 Q242,122 291,122 Q352,122 470,146 L473,23 Q350,-15 269,-15 Q155,-15 91.5,43.5 Q28,102 28,200 Q28,331 116,415 Q204,500 333,500 M316,377 Q231,377 197,289 L397,289 Q402,329 380,353 Q358,377 316,377"/> 
            <glyph glyph-name="ê" unicode="&#xEA;" horiz-adv-x="548" d=" M367,616 L310,563 L159,563 L307,707 L448,707 L546,563 L401,563 M333,500 Q434,500 491,443 Q548,387 538,296 Q534,249 512,190 L186,190 Q193,153 217.5,137.5 Q242,122 291,122 Q352,122 470,146 L473,23 Q350,-15 269,-15 Q155,-15 91.5,43.5 Q28,102 28,200 Q28,331 116,415 Q204,500 333,500 M316,377 Q231,377 197,289 L397,289 Q402,329 380,353 Q358,377 316,377"/> 
            <glyph glyph-name="ë" unicode="&#xEB;" horiz-adv-x="559" d=" M240,717 Q277,717 303,692 Q329,667 329,631 Q329,595 303,570 Q277,545 240,545 Q202,545 176,569.5 Q150,594 150,631 Q150,668 176,692.5 Q202,717 240,717 M469,717 Q506,717 532.5,692 Q559,667 559,631 Q559,595 532.5,570 Q506,545 469,545 Q431,545 405,569.5 Q379,594 379,631 Q379,668 405,692.5 Q431,717 469,717 M333,500 Q434,500 491,443 Q548,387 538,296 Q534,249 512,190 L186,190 Q193,153 217.5,137.5 Q242,122 291,122 Q352,122 470,146 L473,23 Q350,-15 269,-15 Q155,-15 91.5,43.5 Q28,102 28,200 Q28,331 116,415 Q204,500 333,500 M316,377 Q231,377 197,289 L397,289 Q402,329 380,353 Q358,377 316,377"/> 
            <glyph glyph-name="ì" unicode="&#xEC;" horiz-adv-x="281" d=" M281,560 L147,560 L41,707 L239,707 M262,485 L176,0 L14,0 L99,485"/> 
            <glyph glyph-name="í" unicode="&#xED;" horiz-adv-x="419" d=" M419,707 L270,560 L113,560 L215,707 M262,485 L176,0 L14,0 L99,485"/> 
            <glyph glyph-name="î" unicode="&#xEE;" horiz-adv-x="397" d=" M218,616 L161,563 L10,563 L158,707 L299,707 L397,563 L252,563 M262,485 L176,0 L14,0 L99,485"/> 
            <glyph glyph-name="ï" unicode="&#xEF;" horiz-adv-x="410" d=" M91,717 Q128,717 154,692 Q180,667 180,631 Q180,595 154,570 Q128,545 91,545 Q53,545 27,569.5 Q1,594 1,631 Q1,668 27,692.5 Q53,717 91,717 M320,717 Q357,717 383.5,692 Q410,667 410,631 Q410,595 383.5,570 Q357,545 320,545 Q282,545 256,569.5 Q230,594 230,631 Q230,668 256,692.5 Q282,717 320,717 M262,485 L176,0 L14,0 L99,485"/> 
            <glyph glyph-name="ð" unicode="&#xF0;" horiz-adv-x="607" d=" M219,676 L353,725 Q394,708 440,672 L548,710 L566,627 L508,605 Q560,547 583.5,463.5 Q607,380 595,288 Q580,146 492,64 Q405,-17 278,-17 Q160,-17 96,53 Q32,123 46,236 Q60,355 144,429 Q230,504 339,504 Q380,504 427,488 Q393,540 369,560 L211,506 L192,588 L298,625 Q265,649 219,676 M337,365 Q278,365 237,325 Q196,284 196,223 Q196,178 223,150 Q250,122 294,122 Q352,122 393,163 Q435,204 435,266 Q435,310 408,337.5 Q381,365 337,365"/> 
            <glyph glyph-name="ñ" unicode="&#xF1;" horiz-adv-x="602" d=" M421,500 Q510,500 556,448 Q602,397 587,313 L531,0 L369,0 L416,265 Q424,308 406,330.5 Q388,353 350,353 Q325,353 250,348 L188,0 L26,0 L110,476 Q313,500 421,500 M481,705 L599,705 Q590,653 564.5,617.5 Q539,582 507.5,568.5 Q476,555 443.5,556 Q411,557 387,573 L353,595 Q316,615 309,571 L191,571 Q200,623 225.5,658 Q251,693 282.5,706.5 Q314,720 346,719 Q378,718 403,703 L437,681 Q474,661 481,705"/> 
            <glyph glyph-name="ò" unicode="&#xF2;" horiz-adv-x="588" d=" M451,560 L317,560 L211,707 L409,707 M354,504 Q462,504 525,445.5 Q588,387 588,288 Q588,156 495,69 Q403,-17 263,-17 Q155,-17 92,42.5 Q29,102 29,202 Q29,333 121,419 Q213,504 354,504 M287,122 Q349,122 390,163 Q431,204 431,267 Q431,312 404,338.5 Q377,365 331,365 Q270,365 227,324 Q186,283 186,222 Q186,177 213,149.5 Q240,122 287,122"/> 
            <glyph glyph-name="ó" unicode="&#xF3;" horiz-adv-x="588" d=" M588,707 L439,560 L282,560 L384,707 M354,504 Q462,504 525,445.5 Q588,387 588,288 Q588,156 495,69 Q403,-17 263,-17 Q155,-17 92,42.5 Q29,102 29,202 Q29,333 121,419 Q213,504 354,504 M287,122 Q349,122 390,163 Q431,204 431,267 Q431,312 404,338.5 Q377,365 331,365 Q270,365 227,324 Q186,283 186,222 Q186,177 213,149.5 Q240,122 287,122"/> 
            <glyph glyph-name="ô" unicode="&#xF4;" horiz-adv-x="588" d=" M388,616 L331,563 L180,563 L328,707 L469,707 L567,563 L422,563 M354,504 Q462,504 525,445.5 Q588,387 588,288 Q588,156 495,69 Q403,-17 263,-17 Q155,-17 92,42.5 Q29,102 29,202 Q29,333 121,419 Q213,504 354,504 M287,122 Q349,122 390,163 Q431,204 431,267 Q431,312 404,338.5 Q377,365 331,365 Q270,365 227,324 Q186,283 186,222 Q186,177 213,149.5 Q240,122 287,122"/> 
            <glyph glyph-name="õ" unicode="&#xF5;" horiz-adv-x="589" d=" M471,705 L589,705 Q580,653 554.5,617.5 Q529,582 497.5,568.5 Q466,555 433.5,556 Q401,557 377,573 L343,595 Q306,615 299,571 L181,571 Q190,623 215.5,658 Q241,693 272.5,706.5 Q304,720 336,719 Q368,718 393,703 L427,681 Q464,661 471,705 M354,504 Q462,504 525,445.5 Q588,387 588,288 Q588,156 495,69 Q403,-17 263,-17 Q155,-17 92,42.5 Q29,102 29,202 Q29,333 121,419 Q213,504 354,504 M287,122 Q349,122 390,163 Q431,204 431,267 Q431,312 404,338.5 Q377,365 331,365 Q270,365 227,324 Q186,283 186,222 Q186,177 213,149.5 Q240,122 287,122"/> 
            <glyph glyph-name="ö" unicode="&#xF6;" horiz-adv-x="588" d=" M261,717 Q298,717 324,692 Q350,667 350,631 Q350,595 324,570 Q298,545 261,545 Q223,545 197,569.5 Q171,594 171,631 Q171,668 197,692.5 Q223,717 261,717 M490,717 Q527,717 553.5,692 Q580,667 580,631 Q580,595 553.5,570 Q527,545 490,545 Q452,545 426,569.5 Q400,594 400,631 Q400,668 426,692.5 Q452,717 490,717 M354,504 Q462,504 525,445.5 Q588,387 588,288 Q588,156 495,69 Q403,-17 263,-17 Q155,-17 92,42.5 Q29,102 29,202 Q29,333 121,419 Q213,504 354,504 M287,122 Q349,122 390,163 Q431,204 431,267 Q431,312 404,338.5 Q377,365 331,365 Q270,365 227,324 Q186,283 186,222 Q186,177 213,149.5 Q240,122 287,122"/> 
            <glyph glyph-name="÷" unicode="&#xF7;" horiz-adv-x="612" d=" M461,470 Q436,447 401,447 Q366,447 341,470 Q317,494 317,528 Q317,562 341,585 Q366,609 401,609 Q436,609 461,585 Q486,562 486,528 Q486,494 461,470 M123,392 L612,392 L589,264 L101,264 M361,75 Q336,52 301,52 Q266,52 241,75 Q217,99 217,133 Q217,167 241,190 Q266,214 301,214 Q336,214 361,190 Q386,167 386,133 Q386,99 361,75"/> 
            <glyph glyph-name="ø" unicode="&#xF8;" horiz-adv-x="598" d=" M598,476 L545,424 Q588,369 588,288 Q588,156 495,69 Q403,-17 263,-17 Q190,-17 133,13 L72,-48 L12,8 L71,66 Q29,122 29,202 Q29,333 121,419 Q213,504 354,504 Q429,504 482,476 L538,532 M186,222 Q186,206 191,186 L366,360 Q346,365 331,365 Q270,365 227,324 Q186,283 186,222 M431,267 Q431,288 425,304 L248,128 Q266,122 287,122 Q349,122 390,163 Q431,204 431,267"/> 
            <glyph glyph-name="ù" unicode="&#xF9;" horiz-adv-x="626" d=" M626,485 L543,9 Q361,-13 232,-13 Q139,-13 94,34.5 Q49,82 66,174 L121,485 L283,485 L235,209 Q218,121 301,121 Q323,121 401,126 L464,485 M472,560 L338,560 L232,707 L430,707"/> 
            <glyph glyph-name="ú" unicode="&#xFA;" horiz-adv-x="626" d=" M626,485 L543,9 Q361,-13 232,-13 Q139,-13 94,34.5 Q49,82 66,174 L121,485 L283,485 L235,209 Q218,121 301,121 Q323,121 401,126 L464,485 M610,707 L461,560 L304,560 L406,707"/> 
            <glyph glyph-name="û" unicode="&#xFB;" horiz-adv-x="626" d=" M626,485 L543,9 Q361,-13 232,-13 Q139,-13 94,34.5 Q49,82 66,174 L121,485 L283,485 L235,209 Q218,121 301,121 Q323,121 401,126 L464,485 M409,616 L352,563 L201,563 L349,707 L490,707 L588,563 L443,563"/> 
            <glyph glyph-name="ü" unicode="&#xFC;" horiz-adv-x="626" d=" M626,485 L543,9 Q361,-13 232,-13 Q139,-13 94,34.5 Q49,82 66,174 L121,485 L283,485 L235,209 Q218,121 301,121 Q323,121 401,126 L464,485 M282,717 Q319,717 345,692 Q371,667 371,631 Q371,595 345,570 Q319,545 282,545 Q244,545 218,569.5 Q192,594 192,631 Q192,668 218,692.5 Q244,717 282,717 M511,717 Q548,717 574.5,692 Q601,667 601,631 Q601,595 574.5,570 Q548,545 511,545 Q473,545 447,569.5 Q421,594 421,631 Q421,668 447,692.5 Q473,717 511,717"/> 
            <glyph glyph-name="ý" unicode="&#xFD;" horiz-adv-x="694" d=" M457,561 L300,561 L402,708 L606,708 M694,486 L237,-224 L72,-224 L225,23 L61,486 L236,486 L335,199 L514,486"/> 
            <glyph glyph-name="þ" unicode="&#xFE;" horiz-adv-x="606" d=" M392,500 Q502,500 554,431.5 Q606,363 589,245 Q567,124 486,54 Q405,-15 307,-15 Q232,-15 174,-10 L137,-225 L-26,-225 L139,710 L301,710 L264,494 Q324,500 392,500 M302,119 Q358,119 397,162 Q436,206 436,271 Q436,317 411.5,343 Q387,369 340,369 Q303,369 240,364 L198,126 Q244,119 302,119"/> 
            <glyph glyph-name="ÿ" unicode="&#xFF;" horiz-adv-x="694" d=" M278,546 Q240,546 214,570.5 Q188,595 188,632 Q188,669 214,693.5 Q240,718 278,718 Q315,718 341,693 Q367,668 367,632 Q367,596 341,571 Q315,546 278,546 M507,546 Q469,546 443,570.5 Q417,595 417,632 Q417,669 443,693.5 Q469,718 507,718 Q544,718 570.5,693 Q597,668 597,632 Q597,596 570.5,571 Q544,546 507,546 M694,486 L237,-224 L72,-224 L225,23 L61,486 L236,486 L335,199 L514,486"/> 
            <glyph glyph-name="Ā" unicode="&#x100;" horiz-adv-x="725" d=" M673,880 L652,758 L319,758 L340,880 M214,113 L148,0 L-37,0 L388,684 L543,684 L725,0 L546,0 L520,113 M433,484 L296,255 L486,255"/> 
            <glyph glyph-name="ā" unicode="&#x101;" horiz-adv-x="631" d=" M356,500 Q433,500 631,476 L547,0 L385,0 L391,33 Q320,-15 242,-15 Q146,-15 91,55 Q35,126 59,245 Q81,359 161,430 Q241,500 356,500 M352,369 Q291,369 251.5,327 Q212,285 212,219 Q212,174 236,146.5 Q260,119 301,119 Q356,119 413,161 L449,364 Q391,369 352,369 M570,692 L548,568 L261,568 L283,692"/> 
            <glyph glyph-name="Ă" unicode="&#x102;" horiz-adv-x="725" d=" M555,892 L669,892 Q656,821 605.5,780 Q555,739 482,739 Q409,739 373.5,779.5 Q338,820 351,892 L463,892 Q455,845 501,845 Q547,845 555,892 M214,113 L148,0 L-37,0 L388,684 L543,684 L725,0 L546,0 L520,113 M433,484 L296,255 L486,255"/> 
            <glyph glyph-name="ă" unicode="&#x103;" horiz-adv-x="631" d=" M356,500 Q433,500 631,476 L547,0 L385,0 L391,33 Q320,-15 242,-15 Q146,-15 91,55 Q35,126 59,245 Q81,359 161,430 Q241,500 356,500 M352,369 Q291,369 251.5,327 Q212,285 212,219 Q212,174 236,146.5 Q260,119 301,119 Q356,119 413,161 L449,364 Q391,369 352,369 M476,707 L589,707 Q576,635 526,594 Q476,553 403,553 Q330,553 294,594 Q258,635 271,707 L384,707 Q380,684 390.5,671.5 Q401,659 422,659 Q467,659 476,707"/> 
            <glyph glyph-name="Ą" unicode="&#x104;" horiz-adv-x="725" d=" M634,-76 Q656,-76 683,-69 L691,-181 Q643,-197 590,-197 Q532,-197 496.5,-169.5 Q461,-142 461,-98 Q461,-27 542,18 L520,113 L214,113 L148,0 L-37,0 L388,684 L543,684 L725,0 L620,0 Q592,-21 592,-47 Q592,-76 634,-76 M486,255 L433,484 L296,255"/> 
            <glyph glyph-name="ą" unicode="&#x105;" horiz-adv-x="631" d=" M547,0 L472,0 Q427,-22 427,-57 Q427,-86 469,-86 Q491,-86 518,-79 L526,-191 Q478,-207 425,-207 Q367,-207 331.5,-179.5 Q296,-152 296,-108 Q296,-32 387,13 L391,33 Q320,-15 242,-15 Q146,-15 91,55 Q35,126 59,245 Q81,359 161,430 Q241,500 356,500 Q433,500 631,476 M301,119 Q356,119 413,161 L449,364 Q391,369 352,369 Q291,369 251.5,327 Q212,285 212,219 Q212,174 236,146.5 Q260,119 301,119"/> 
            <glyph glyph-name="Ć" unicode="&#x106;" horiz-adv-x="750" d=" M750,890 L594,743 L430,743 L545,890 M748,659 L694,509 Q559,536 498,536 Q380,536 309,473 Q240,412 240,308 Q240,237 289.5,193.5 Q339,150 420,150 Q492,150 634,177 L637,26 Q493,-15 380,-15 Q234,-15 145,66 Q56,147 56,280 Q56,467 179,581 Q303,695 505,695 Q610,695 748,659"/> 
            <glyph glyph-name="ć" unicode="&#x107;" horiz-adv-x="572" d=" M572,706 L423,559 L266,559 L368,706 M525,473 L483,348 Q392,366 341,366 Q276,366 232,325 Q189,285 189,223 Q189,177 218.5,151 Q248,125 298,125 Q356,125 449,143 L444,15 Q349,-15 266,-15 Q159,-15 94,44 Q30,102 30,201 Q30,333 122,417 Q215,501 356,501 Q435,501 525,473"/> 
            <glyph glyph-name="Ċ" unicode="&#x10A;" horiz-adv-x="748" d=" M509,744 Q471,744 445,768.5 Q419,793 419,830 Q419,867 445,891.5 Q471,916 509,916 Q546,916 572,891 Q598,866 598,830 Q598,794 572,769 Q546,744 509,744 M748,659 L694,509 Q559,536 498,536 Q380,536 309,473 Q240,412 240,308 Q240,237 289.5,193.5 Q339,150 420,150 Q492,150 634,177 L637,26 Q493,-15 380,-15 Q234,-15 145,66 Q56,147 56,280 Q56,467 179,581 Q303,695 505,695 Q610,695 748,659"/> 
            <glyph glyph-name="ċ" unicode="&#x10B;" horiz-adv-x="525" d=" M425,574 Q399,549 361,549 Q323,549 296,574 Q269,600 269,637 Q269,674 296,699 Q323,725 361,725 Q399,725 425,699 Q452,674 452,637 Q452,600 425,574 M525,473 L483,348 Q392,366 341,366 Q276,366 232,325 Q189,285 189,223 Q189,177 218.5,151 Q248,125 298,125 Q356,125 449,143 L444,15 Q349,-15 266,-15 Q159,-15 94,44 Q30,102 30,201 Q30,333 122,417 Q215,501 356,501 Q435,501 525,473"/> 
            <glyph glyph-name="Č" unicode="&#x10C;" horiz-adv-x="748" d=" M576,735 L435,735 L339,888 L484,888 L517,829 L575,888 L726,888 M748,659 L694,509 Q559,536 498,536 Q380,536 309,473 Q240,412 240,308 Q240,237 289.5,193.5 Q339,150 420,150 Q492,150 634,177 L637,26 Q493,-15 380,-15 Q234,-15 145,66 Q56,147 56,280 Q56,467 179,581 Q303,695 505,695 Q610,695 748,659"/> 
            <glyph glyph-name="č" unicode="&#x10D;" horiz-adv-x="569" d=" M419,559 L278,559 L182,712 L327,712 L360,653 L418,712 L569,712 M525,473 L483,348 Q392,366 341,366 Q276,366 232,325 Q189,285 189,223 Q189,177 218.5,151 Q248,125 298,125 Q356,125 449,143 L444,15 Q349,-15 266,-15 Q159,-15 94,44 Q30,102 30,201 Q30,333 122,417 Q215,501 356,501 Q435,501 525,473"/> 
            <glyph glyph-name="Ď" unicode="&#x10E;" horiz-adv-x="714" d=" M491,735 L350,735 L254,888 L399,888 L432,829 L490,888 L641,888 M399,688 Q543,688 628,609 Q714,529 714,400 Q714,223 592,107 Q471,-8 293,-8 Q182,-8 24,0 L144,680 Q304,688 399,688 M324,143 Q410,143 474,210 Q538,277 538,378 Q538,450 495,493.5 Q452,537 380,537 Q329,537 287,535 L219,145 Q265,143 324,143"/> 
            <glyph glyph-name="ď" unicode="&#x10F;" horiz-adv-x="842" d=" M658,710 L535,10 Q354,-15 234,-15 Q145,-15 88,45 Q32,106 41,212 Q48,343 127,421 Q206,500 332,500 Q386,500 457,491 L496,710 M842,710 L767,500 L648,500 L689,710 M336,369 Q267,369 232,327.5 Q197,286 197,219 Q197,174 221,146.5 Q245,119 286,119 Q344,119 392,126 L433,361 Q379,369 336,369"/> 
            <glyph glyph-name="Đ" unicode="&#x110;" horiz-adv-x="714" d=" M399,688 Q543,688 628,609 Q714,529 714,400 Q714,223 592,107 Q471,-8 293,-8 Q182,-8 24,0 L70,259 L13,259 L38,405 L95,405 L144,680 Q304,688 399,688 M324,143 Q410,143 474,210 Q538,277 538,378 Q538,450 495,493.5 Q452,537 380,537 Q329,537 287,535 L264,405 L373,405 L347,259 L239,259 L219,145 Q265,143 324,143"/> 
            <glyph glyph-name="đ" unicode="&#x111;" horiz-adv-x="682" d=" M662,545 L629,545 L535,10 Q354,-15 234,-15 Q145,-15 88,45 Q32,106 41,212 Q48,343 127,421 Q206,500 332,500 Q386,500 457,491 L467,545 L322,545 L342,659 L487,659 L496,710 L658,710 L649,659 L682,659 M392,126 L433,361 Q379,369 336,369 Q267,369 232,327.5 Q197,286 197,219 Q197,174 221,146.5 Q245,119 286,119 Q344,119 392,126"/> 
            <glyph glyph-name="Ē" unicode="&#x112;" horiz-adv-x="658" d=" M265,412 L566,412 L540,268 L240,268 L218,147 L564,147 L538,0 L24,0 L144,680 L658,680 L632,533 L287,533 M598,880 L577,758 L244,758 L265,880"/> 
            <glyph glyph-name="ē" unicode="&#x113;" horiz-adv-x="548" d=" M509,692 L487,568 L200,568 L222,692 M333,500 Q434,500 491,443 Q548,387 538,296 Q534,249 512,190 L186,190 Q193,153 217.5,137.5 Q242,122 291,122 Q352,122 470,146 L473,23 Q350,-15 269,-15 Q155,-15 91.5,43.5 Q28,102 28,200 Q28,331 116,415 Q204,500 333,500 M316,377 Q231,377 197,289 L397,289 Q402,329 380,353 Q358,377 316,377"/> 
            <glyph glyph-name="Ė" unicode="&#x116;" horiz-adv-x="658" d=" M265,412 L566,412 L540,268 L240,268 L218,147 L564,147 L538,0 L24,0 L144,680 L658,680 L632,533 L287,533 M409,744 Q371,744 345,768.5 Q319,793 319,830 Q319,867 345,891.5 Q371,916 409,916 Q446,916 472,891 Q498,866 498,830 Q498,794 472,769 Q446,744 409,744"/> 
            <glyph glyph-name="ė" unicode="&#x117;" horiz-adv-x="548" d=" M421,575 Q395,550 357,550 Q319,550 292,575 Q265,601 265,638 Q265,675 292,700 Q319,726 357,726 Q395,726 421,700 Q448,675 448,638 Q448,601 421,575 M333,500 Q434,500 491,443 Q548,387 538,296 Q534,249 512,190 L186,190 Q193,153 217.5,137.5 Q242,122 291,122 Q352,122 470,146 L473,23 Q350,-15 269,-15 Q155,-15 91.5,43.5 Q28,102 28,200 Q28,331 116,415 Q204,500 333,500 M316,377 Q231,377 197,289 L397,289 Q402,329 380,353 Q358,377 316,377"/> 
            <glyph glyph-name="Ę" unicode="&#x118;" horiz-adv-x="658" d=" M287,533 L265,412 L566,412 L540,268 L240,268 L218,147 L564,147 L538,0 L468,0 Q391,-24 391,-70 Q391,-99 433,-99 Q455,-99 482,-92 L490,-204 Q442,-220 389,-220 Q331,-220 295.5,-192.5 Q260,-165 260,-121 Q260,-45 351,0 L24,0 L144,680 L658,680 L632,533"/> 
            <glyph glyph-name="ę" unicode="&#x119;" horiz-adv-x="548" d=" M333,500 Q434,500 491,443 Q548,387 538,296 Q534,249 512,190 L186,190 Q193,153 217.5,137.5 Q242,122 291,122 Q352,122 470,146 L473,23 Q459,18 407,4 Q335,-20 335,-64 Q335,-93 377,-93 Q399,-93 426,-86 L434,-198 Q386,-214 333,-214 Q275,-214 239.5,-186.5 Q204,-159 204,-115 Q204,-56 261,-15 Q151,-13 89.5,45 Q28,103 28,200 Q28,331 116,415 Q204,500 333,500 M197,289 L397,289 Q402,329 380,353 Q358,377 316,377 Q231,377 197,289"/> 
            <glyph glyph-name="Ě" unicode="&#x11A;" horiz-adv-x="658" d=" M265,412 L566,412 L540,268 L240,268 L218,147 L564,147 L538,0 L24,0 L144,680 L658,680 L632,533 L287,533 M476,735 L335,735 L239,888 L384,888 L417,829 L475,888 L626,888"/> 
            <glyph glyph-name="ě" unicode="&#x11B;" horiz-adv-x="565" d=" M415,560 L274,560 L178,713 L323,713 L356,654 L414,713 L565,713 M333,500 Q434,500 491,443 Q548,387 538,296 Q534,249 512,190 L186,190 Q193,153 217.5,137.5 Q242,122 291,122 Q352,122 470,146 L473,23 Q350,-15 269,-15 Q155,-15 91.5,43.5 Q28,102 28,200 Q28,331 116,415 Q204,500 333,500 M316,377 Q231,377 197,289 L397,289 Q402,329 380,353 Q358,377 316,377"/> 
            <glyph glyph-name="Ğ" unicode="&#x11E;" horiz-adv-x="759" d=" M759,402 L698,51 Q497,-15 370,-15 Q232,-15 144,68 Q57,150 57,281 Q57,467 176,581 Q294,695 489,695 Q615,695 750,660 L695,513 Q557,537 477,537 Q368,537 303,473 Q237,410 237,307 Q237,234 282.5,188.5 Q328,143 401,143 Q469,143 573,166 L590,264 L374,264 L398,402 M576,892 L690,892 Q677,821 626.5,780 Q576,739 503,739 Q430,739 394.5,779.5 Q359,820 372,892 L484,892 Q476,845 522,845 Q568,845 576,892"/> 
            <glyph glyph-name="ğ" unicode="&#x11F;" horiz-adv-x="614" d=" M445,707 L558,707 Q545,635 495,594 Q445,553 372,553 Q299,553 263,594 Q227,635 240,707 L353,707 Q349,684 359.5,671.5 Q370,659 391,659 Q436,659 445,707 M335,500 Q407,500 614,476 L530,0 Q509,-121 422,-189.5 Q335,-258 196,-258 Q116,-258 25,-228 L69,-104 Q184,-124 214,-124 Q340,-124 365,-10 Q307,-15 231,-15 Q132,-15 74,54 Q17,124 41,245 Q64,361 142,430 Q221,500 335,500 M334,369 Q273,369 233.5,327 Q194,285 194,219 Q194,174 218,146.5 Q242,119 283,119 Q340,119 389,126 L431,364 Q373,369 334,369"/> 
            <glyph glyph-name="Ġ" unicode="&#x120;" horiz-adv-x="759" d=" M759,402 L698,51 Q497,-15 370,-15 Q232,-15 144,68 Q57,150 57,281 Q57,467 176,581 Q294,695 489,695 Q615,695 750,660 L695,513 Q557,537 477,537 Q368,537 303,473 Q237,410 237,307 Q237,234 282.5,188.5 Q328,143 401,143 Q469,143 573,166 L590,264 L374,264 L398,402 M506,744 Q468,744 442,768.5 Q416,793 416,830 Q416,867 442,891.5 Q468,916 506,916 Q543,916 569,891 Q595,866 595,830 Q595,794 569,769 Q543,744 506,744"/> 
            <glyph glyph-name="ġ" unicode="&#x121;" horiz-adv-x="614" d=" M451,575 Q425,550 387,550 Q349,550 322,575 Q295,601 295,638 Q295,675 322,700 Q349,726 387,726 Q425,726 451,700 Q478,675 478,638 Q478,601 451,575 M335,500 Q407,500 614,476 L530,0 Q509,-121 422,-189.5 Q335,-258 196,-258 Q116,-258 25,-228 L69,-104 Q184,-124 214,-124 Q340,-124 365,-10 Q307,-15 231,-15 Q132,-15 74,54 Q17,124 41,245 Q64,361 142,430 Q221,500 335,500 M334,369 Q273,369 233.5,327 Q194,285 194,219 Q194,174 218,146.5 Q242,119 283,119 Q340,119 389,126 L431,364 Q373,369 334,369"/> 
            <glyph glyph-name="Ģ" unicode="&#x122;" horiz-adv-x="759" d=" M759,402 L698,51 Q497,-15 370,-15 Q232,-15 144,68 Q57,150 57,281 Q57,467 176,581 Q294,695 489,695 Q615,695 750,660 L695,513 Q557,537 477,537 Q368,537 303,473 Q237,410 237,307 Q237,234 282.5,188.5 Q328,143 401,143 Q469,143 573,166 L590,264 L374,264 L398,402 M255,-289 L299,-200 Q247,-179 247,-128 Q247,-93 274,-68 Q301,-43 338,-43 Q375,-43 401.5,-68 Q428,-93 428,-128 Q428,-151 414,-177 Q396,-211 344,-289"/> 
            <glyph glyph-name="ģ" unicode="&#x123;" horiz-adv-x="614" d=" M481,804 L437,715 Q489,694 489,643 Q489,608 462,583 Q435,558 398,558 Q361,558 334.5,583 Q308,608 308,643 Q308,667 321,692 Q335,719 392,804 M335,500 Q407,500 614,476 L530,0 Q509,-121 422,-189.5 Q335,-258 196,-258 Q116,-258 25,-228 L69,-104 Q184,-124 214,-124 Q340,-124 365,-10 Q307,-15 231,-15 Q132,-15 74,54 Q17,124 41,245 Q64,361 142,430 Q221,500 335,500 M334,369 Q273,369 233.5,327 Q194,285 194,219 Q194,174 218,146.5 Q242,119 283,119 Q340,119 389,126 L431,364 Q373,369 334,369"/> 
            <glyph glyph-name="Ħ" unicode="&#x126;" horiz-adv-x="789" d=" M768,485 L731,485 L645,0 L476,0 L521,255 L237,255 L193,0 L24,0 L110,485 L72,485 L92,600 L130,600 L144,680 L313,680 L299,600 L582,600 L596,680 L765,680 L751,600 L789,600 M562,485 L279,485 L265,407 L548,407"/> 
            <glyph glyph-name="ħ" unicode="&#x127;" horiz-adv-x="588" d=" M407,500 Q496,500 542,448 Q588,397 573,313 L517,0 L355,0 L402,265 Q410,308 392,330.5 Q374,353 336,353 Q298,353 235,344 L174,0 L12,0 L113,575 L81,575 L98,670 L130,670 L137,710 L300,710 L293,670 L402,670 L386,575 L276,575 L261,489 Q351,500 407,500"/> 
            <glyph glyph-name="Ī" unicode="&#x12A;" horiz-adv-x="428" d=" M311,680 L191,0 L22,0 L142,680 M428,880 L407,758 L74,758 L95,880"/> 
            <glyph glyph-name="ī" unicode="&#x12B;" horiz-adv-x="360" d=" M360,692 L338,568 L51,568 L73,692 M262,485 L176,0 L14,0 L99,485"/> 
            <glyph glyph-name="Į" unicode="&#x12E;" horiz-adv-x="311" d=" M191,0 L126,0 Q69,-24 69,-63 Q69,-92 111,-92 Q133,-92 160,-85 L168,-197 Q120,-213 67,-213 Q9,-213 -26.5,-185.5 Q-62,-158 -62,-114 Q-62,-40 23,3 L142,680 L311,680"/> 
            <glyph glyph-name="į" unicode="&#x12F;" horiz-adv-x="299" d=" M143,700 Q170,726 208,726 Q246,726 272,700 Q299,675 299,638 Q299,601 272,575 Q246,550 208,550 Q170,550 143,575 Q116,601 116,638 Q116,675 143,700 M99,485 L262,485 L176,0 L114,0 Q61,-24 61,-61 Q61,-90 103,-90 Q125,-90 152,-83 L160,-195 Q112,-211 59,-211 Q1,-211 -34.5,-183.5 Q-70,-156 -70,-112 Q-70,-39 15,6"/> 
            <glyph glyph-name="İ" unicode="&#x130;" horiz-adv-x="341" d=" M141,848 Q141,888 170,915.5 Q199,943 241,943 Q283,943 312,915.5 Q341,888 341,848 Q341,807 312,779.5 Q283,752 241,752 Q199,752 170,779.5 Q141,807 141,848 M311,680 L191,0 L22,0 L142,680"/> 
            <glyph glyph-name="ı" unicode="&#x131;" horiz-adv-x="262" d=" M262,485 L177,0 L14,0 L100,485"/> 
            <glyph glyph-name="Ĳ" unicode="&#x132;" horiz-adv-x="879" d=" M879,680 L809,281 Q783,136 703.5,60.5 Q624,-15 496,-15 Q387,-15 270,28 L327,175 Q430,148 512,148 Q560,148 593,182.5 Q626,217 637,277 L708,680 M311,680 L191,0 L22,0 L142,680"/> 
            <glyph glyph-name="ĳ" unicode="&#x133;" horiz-adv-x="601" d=" M203,544 Q161,544 132.5,571.5 Q104,599 104,640 Q104,682 132.5,710 Q161,738 203,738 Q243,738 272,709.5 Q301,681 301,640 Q301,599 272,571.5 Q243,544 203,544 M503,544 Q461,544 432.5,571.5 Q404,599 404,640 Q404,682 432.5,710 Q461,738 503,738 Q543,738 572,709.5 Q601,681 601,640 Q601,599 572,571.5 Q543,544 503,544 M262,485 L176,0 L14,0 L99,485 M562,485 L475,-7 Q463,-74 446.5,-115 Q430,-156 399,-190 Q335,-260 183,-261 L197,-126 Q258,-116 280,-94 Q301,-74 310,-22 L399,485"/> 
            <glyph glyph-name="Ķ" unicode="&#x136;" horiz-adv-x="773" d=" M233,229 L193,0 L24,0 L144,680 L313,680 L262,393 L293,393 L566,680 L773,680 L468,359 L666,0 L469,0 L346,229 M225,-289 L269,-200 Q217,-179 217,-128 Q217,-93 244,-68 Q271,-43 308,-43 Q345,-43 371.5,-68 Q398,-93 398,-128 Q398,-151 384,-177 Q366,-211 314,-289"/> 
            <glyph glyph-name="ķ" unicode="&#x137;" horiz-adv-x="623" d=" M239,319 L259,319 L426,485 L623,485 L414,273 L551,0 L370,0 L286,169 L213,169 L183,0 L21,0 L146,710 L308,710 M162,-289 L206,-200 Q154,-179 154,-128 Q154,-93 181,-68 Q208,-43 245,-43 Q282,-43 308.5,-68 Q335,-93 335,-128 Q335,-151 321,-177 Q303,-211 251,-289"/> 
            <glyph glyph-name="Ĺ" unicode="&#x139;" horiz-adv-x="552" d=" M526,0 L24,0 L144,680 L313,680 L219,149 L552,149 M486,890 L330,743 L166,743 L281,890"/> 
            <glyph glyph-name="ĺ" unicode="&#x13A;" horiz-adv-x="461" d=" M461,898 L313,751 L155,751 L257,898 M308,710 L183,0 L21,0 L146,710"/> 
            <glyph glyph-name="Ļ" unicode="&#x13B;" horiz-adv-x="552" d=" M526,0 L24,0 L144,680 L313,680 L219,149 L552,149 M172,-289 L216,-200 Q164,-179 164,-128 Q164,-93 191,-68 Q218,-43 255,-43 Q292,-43 318.5,-68 Q345,-93 345,-128 Q345,-151 331,-177 Q313,-211 261,-289"/> 
            <glyph glyph-name="ļ" unicode="&#x13C;" horiz-adv-x="308" d=" M308,710 L183,0 L21,0 L146,710 M-8,-289 L36,-200 Q-16,-179 -16,-128 Q-16,-93 11,-68 Q38,-43 75,-43 Q112,-43 138.5,-68 Q165,-93 165,-128 Q165,-151 151,-177 Q133,-211 81,-289"/> 
            <glyph glyph-name="Ľ" unicode="&#x13D;" horiz-adv-x="552" d=" M526,0 L24,0 L144,680 L313,680 L219,149 L552,149 M543,680 L468,470 L349,470 L390,680"/> 
            <glyph glyph-name="ľ" unicode="&#x13E;" horiz-adv-x="489" d=" M308,710 L183,0 L21,0 L146,710 M489,710 L414,500 L295,500 L336,710"/> 
            <glyph glyph-name="Ŀ" unicode="&#x13F;" horiz-adv-x="552" d=" M526,0 L24,0 L144,680 L313,680 L219,149 L552,149 M489,278 Q463,253 425,253 Q387,253 360,278 Q333,304 333,341 Q333,378 360,403 Q387,429 425,429 Q463,429 489,403 Q516,378 516,341 Q516,304 489,278"/> 
            <glyph glyph-name="ŀ" unicode="&#x140;" horiz-adv-x="463" d=" M308,710 L183,0 L21,0 L146,710 M436,273 Q410,248 372,248 Q334,248 307,273 Q280,299 280,336 Q280,373 307,398 Q334,424 372,424 Q410,424 436,398 Q463,373 463,336 Q463,299 436,273"/> 
            <glyph glyph-name="Ł" unicode="&#x141;" horiz-adv-x="552" d=" M552,149 L526,0 L24,0 L61,211 L-2,190 L21,323 L85,345 L144,680 L313,680 L264,405 L418,457 L394,324 L241,272 L219,149"/> 
            <glyph glyph-name="ł" unicode="&#x142;" horiz-adv-x="318" d=" M295,324 L237,304 L183,0 L21,0 L64,246 L11,228 L34,361 L88,379 L146,710 L308,710 L260,437 L318,457"/> 
            <glyph glyph-name="Ń" unicode="&#x143;" horiz-adv-x="783" d=" M783,680 L663,0 L517,0 L264,395 L193,0 L24,0 L144,680 L294,680 L542,282 L614,680 M711,890 L555,743 L391,743 L506,890"/> 
            <glyph glyph-name="ń" unicode="&#x144;" horiz-adv-x="602" d=" M421,500 Q510,500 556,448 Q602,397 587,313 L531,0 L369,0 L416,265 Q424,308 406,330.5 Q388,353 350,353 Q325,353 250,348 L188,0 L26,0 L110,476 Q313,500 421,500 M599,707 L450,560 L293,560 L395,707"/> 
            <glyph glyph-name="Ņ" unicode="&#x145;" horiz-adv-x="783" d=" M783,680 L663,0 L517,0 L264,395 L193,0 L24,0 L144,680 L294,680 L542,282 L614,680 M247,-289 L291,-200 Q239,-179 239,-128 Q239,-93 266,-68 Q293,-43 330,-43 Q367,-43 393.5,-68 Q420,-93 420,-128 Q420,-151 406,-177 Q388,-211 336,-289"/> 
            <glyph glyph-name="ņ" unicode="&#x146;" horiz-adv-x="602" d=" M421,500 Q510,500 556,448 Q602,397 587,313 L531,0 L369,0 L416,265 Q424,308 406,330.5 Q388,353 350,353 Q325,353 250,348 L188,0 L26,0 L110,476 Q313,500 421,500 M170,-289 L214,-200 Q162,-179 162,-128 Q162,-93 189,-68 Q216,-43 253,-43 Q290,-43 316.5,-68 Q343,-93 343,-128 Q343,-151 329,-177 Q311,-211 259,-289"/> 
            <glyph glyph-name="Ň" unicode="&#x147;" horiz-adv-x="783" d=" M783,680 L663,0 L517,0 L264,395 L193,0 L24,0 L144,680 L294,680 L542,282 L614,680 M537,735 L396,735 L300,888 L445,888 L478,829 L536,888 L687,888"/> 
            <glyph glyph-name="ň" unicode="&#x148;" horiz-adv-x="602" d=" M421,500 Q510,500 556,448 Q602,397 587,313 L531,0 L369,0 L416,265 Q424,308 406,330.5 Q388,353 350,353 Q325,353 250,348 L188,0 L26,0 L110,476 Q313,500 421,500 M446,560 L305,560 L209,713 L354,713 L387,654 L445,713 L596,713"/> 
            <glyph glyph-name="Ō" unicode="&#x14C;" horiz-adv-x="801" d=" M491,695 Q633,695 717,614 Q801,533 801,399 Q801,219 675,102 Q549,-15 365,-15 Q224,-15 140,66 Q56,147 56,281 Q56,461 181,578 Q307,695 491,695 M393,140 Q489,140 556,207 Q623,274 623,376 Q623,450 579.5,494.5 Q536,539 464,539 Q368,539 301,472 Q234,406 234,304 Q234,230 277.5,185 Q321,140 393,140 M688,880 L667,758 L334,758 L355,880"/> 
            <glyph glyph-name="ō" unicode="&#x14D;" horiz-adv-x="588" d=" M529,692 L507,568 L220,568 L242,692 M354,504 Q462,504 525,445.5 Q588,387 588,288 Q588,156 495,69 Q403,-17 263,-17 Q155,-17 92,42.5 Q29,102 29,202 Q29,333 121,419 Q213,504 354,504 M287,122 Q349,122 390,163 Q431,204 431,267 Q431,312 404,338.5 Q377,365 331,365 Q270,365 227,324 Q186,283 186,222 Q186,177 213,149.5 Q240,122 287,122"/> 
            <glyph glyph-name="Ő" unicode="&#x150;" horiz-adv-x="801" d=" M491,695 Q633,695 717,614 Q801,533 801,399 Q801,219 675,102 Q549,-15 365,-15 Q224,-15 140,66 Q56,147 56,281 Q56,461 181,578 Q307,695 491,695 M393,140 Q489,140 556,207 Q623,274 623,376 Q623,450 579.5,494.5 Q536,539 464,539 Q368,539 301,472 Q234,406 234,304 Q234,230 277.5,185 Q321,140 393,140 M559,902 L467,738 L326,738 L397,902 M753,902 L661,738 L520,738 L591,902"/> 
            <glyph glyph-name="ő" unicode="&#x151;" horiz-adv-x="615" d=" M346,563 L213,563 L279,717 L431,717 M529,563 L397,563 L463,717 L615,717 M354,504 Q462,504 525,445.5 Q588,387 588,288 Q588,156 495,69 Q403,-17 263,-17 Q155,-17 92,42.5 Q29,102 29,202 Q29,333 121,419 Q213,504 354,504 M287,122 Q349,122 390,163 Q431,204 431,267 Q431,312 404,338.5 Q377,365 331,365 Q270,365 227,324 Q186,283 186,222 Q186,177 213,149.5 Q240,122 287,122"/> 
            <glyph glyph-name="Œ" unicode="&#x152;" horiz-adv-x="1037" d=" M644,412 L944,412 L919,268 L619,268 L597,147 L943,147 L917,0 L403,0 Q246,2 151,78 Q57,154 57,288 Q57,465 190,571 Q323,678 523,680 L1037,680 L1011,533 L665,533 M234,308 Q234,235 284.5,195.5 Q335,156 430,155 L495,524 Q372,523 303,466.5 Q234,410 234,308"/> 
            <glyph glyph-name="œ" unicode="&#x153;" horiz-adv-x="946" d=" M731,500 Q832,500 889,443 Q946,388 937,296 Q931,247 910,190 L585,190 Q592,152 616,137 Q640,122 689,122 Q750,122 868,146 L871,23 Q748,-15 667,-15 Q542,-15 478,55 Q390,-17 263,-17 Q155,-17 92,42.5 Q29,102 29,202 Q29,333 121,419 Q213,504 354,504 Q473,504 537,434 Q620,500 731,500 M596,289 L796,289 Q801,329 779,353 Q757,377 715,377 Q630,377 596,289 M287,122 Q340,122 378.5,153 Q417,184 428,235 L431,254 L431,267 Q431,312 404,338.5 Q377,365 331,365 Q270,365 227,324 Q186,283 186,222 Q186,177 213,149.5 Q240,122 287,122"/> 
            <glyph glyph-name="Ŕ" unicode="&#x154;" horiz-adv-x="666" d=" M642,890 L486,743 L322,743 L437,890 M337,195 L298,195 L227,195 L193,0 L24,0 L143,680 Q286,686 418,686 Q536,686 601,634 Q666,582 666,487 Q666,407 624.5,342 Q583,277 508,238 L628,0 L428,0 M252,337 L360,337 Q417,337 457,372 Q496,406 496,460 Q496,541 389,541 Q362,541 339,540 L288,540"/> 
            <glyph glyph-name="ŕ" unicode="&#x155;" horiz-adv-x="515" d=" M515,707 L366,560 L209,560 L311,707 M442,502 L414,344 Q314,344 248,338 L189,0 L27,0 L109,470 Q287,502 442,502"/> 
            <glyph glyph-name="Ŗ" unicode="&#x156;" horiz-adv-x="666" d=" M337,195 L298,195 L227,195 L193,0 L24,0 L143,680 Q286,686 418,686 Q536,686 601,634 Q666,582 666,487 Q666,407 624.5,342 Q583,277 508,238 L628,0 L428,0 M252,337 L360,337 Q417,337 457,372 Q496,406 496,460 Q496,541 389,541 Q362,541 339,540 L288,540 M212,-289 L256,-200 Q204,-179 204,-128 Q204,-93 231,-68 Q258,-43 295,-43 Q332,-43 358.5,-68 Q385,-93 385,-128 Q385,-151 371,-177 Q353,-211 301,-289"/> 
            <glyph glyph-name="ŗ" unicode="&#x157;" horiz-adv-x="442" d=" M442,502 L414,344 Q314,344 248,338 L189,0 L27,0 L109,470 Q287,502 442,502 M4,-289 L48,-200 Q-4,-179 -4,-128 Q-4,-93 23,-68 Q50,-43 87,-43 Q124,-43 150.5,-68 Q177,-93 177,-128 Q177,-151 163,-177 Q145,-211 93,-289"/> 
            <glyph glyph-name="Ř" unicode="&#x158;" horiz-adv-x="666" d=" M467,735 L326,735 L230,888 L375,888 L408,829 L466,888 L617,888 M337,195 L298,195 L227,195 L193,0 L24,0 L143,680 Q286,686 418,686 Q536,686 601,634 Q666,582 666,487 Q666,407 624.5,342 Q583,277 508,238 L628,0 L428,0 M252,337 L360,337 Q417,337 457,372 Q496,406 496,460 Q496,541 389,541 Q362,541 339,540 L288,540"/> 
            <glyph glyph-name="ř" unicode="&#x159;" horiz-adv-x="512" d=" M362,560 L221,560 L125,713 L270,713 L303,654 L361,713 L512,713 M442,502 L414,344 Q314,344 248,338 L189,0 L27,0 L109,470 Q287,502 442,502"/> 
            <glyph glyph-name="Ś" unicode="&#x15A;" horiz-adv-x="681" d=" M681,645 L619,499 Q476,543 390,543 Q340,543 312,526 Q284,509 284,478 Q284,460 294.5,450 Q305,440 330,431 L386,417 L422,409 Q526,385 573,348 Q622,312 622,230 Q622,114 535.5,49.5 Q449,-15 297,-15 Q151,-15 4,44 L68,193 Q211,135 317,135 Q374,134 405,151.5 Q436,169 436,199 Q436,240 378,254 Q320,268 319,268 L287,275 Q184,298 141,335 Q97,373 97,445 Q97,555 185,622 Q274,690 418,690 Q560,690 681,645 M672,890 L516,743 L352,743 L467,890"/> 
            <glyph glyph-name="ś" unicode="&#x15B;" horiz-adv-x="551" d=" M551,709 L402,562 L245,562 L347,709 M8,28 L61,154 Q168,111 242,111 Q309,111 309,142 Q309,147 306.5,151.5 Q304,156 298.5,159.5 Q293,163 288,165.5 Q283,168 272.5,170.5 Q262,173 255,174.5 Q248,176 234.5,178.5 Q221,181 213,183 Q139,199 105,228 Q71,257 71,309 Q71,401 135,450.5 Q199,500 315,500 Q420,500 516,465 L464,340 Q371,376 298,376 Q238,376 238,339 Q238,320 275,311 Q280,310 291,308 Q302,306 316,303.5 Q330,301 335,300 Q406,284 439.5,255 Q473,226 473,176 Q473,85 407,35 Q341,-15 226,-15 Q115,-15 8,28"/> 
            <glyph glyph-name="Ş" unicode="&#x15E;" horiz-adv-x="681" d=" M681,645 L619,499 Q476,543 390,543 Q340,543 312,526 Q284,509 284,478 Q284,460 294.5,450 Q305,440 330,431 L386,417 L422,409 Q526,385 573,348 Q622,312 622,230 Q622,114 535.5,49.5 Q449,-15 297,-15 Q151,-15 4,44 L68,193 Q211,135 317,135 Q374,134 405,151.5 Q436,169 436,199 Q436,240 378,254 Q320,268 319,268 L287,275 Q184,298 141,335 Q97,373 97,445 Q97,555 185,622 Q274,690 418,690 Q560,690 681,645 M260,-211 L137,-211 L209,-48 L355,-48"/> 
            <glyph glyph-name="ş" unicode="&#x15F;" horiz-adv-x="516" d=" M8,28 L61,154 Q168,111 242,111 Q309,111 309,142 Q309,147 306.5,151.5 Q304,156 298.5,159.5 Q293,163 288,165.5 Q283,168 272.5,170.5 Q262,173 255,174.5 Q248,176 234.5,178.5 Q221,181 213,183 Q139,199 105,228 Q71,257 71,309 Q71,401 135,450.5 Q199,500 315,500 Q420,500 516,465 L464,340 Q371,376 298,376 Q238,376 238,339 Q238,320 275,311 Q280,310 291,308 Q302,306 316,303.5 Q330,301 335,300 Q406,284 439.5,255 Q473,226 473,176 Q473,85 407,35 Q341,-15 226,-15 Q115,-15 8,28 M200,-211 L77,-211 L149,-48 L295,-48"/> 
            <glyph glyph-name="Š" unicode="&#x160;" horiz-adv-x="681" d=" M681,645 L619,499 Q476,543 390,543 Q340,543 312,526 Q284,509 284,478 Q284,460 294.5,450 Q305,440 330,431 L386,417 L422,409 Q526,385 573,348 Q622,312 622,230 Q622,114 535.5,49.5 Q449,-15 297,-15 Q151,-15 4,44 L68,193 Q211,135 317,135 Q374,134 405,151.5 Q436,169 436,199 Q436,240 378,254 Q320,268 319,268 L287,275 Q184,298 141,335 Q97,373 97,445 Q97,555 185,622 Q274,690 418,690 Q560,690 681,645 M497,735 L356,735 L260,888 L405,888 L438,829 L496,888 L647,888"/> 
            <glyph glyph-name="š" unicode="&#x161;" horiz-adv-x="548" d=" M398,562 L257,562 L161,715 L306,715 L339,656 L397,715 L548,715 M8,28 L61,154 Q168,111 242,111 Q309,111 309,142 Q309,147 306.5,151.5 Q304,156 298.5,159.5 Q293,163 288,165.5 Q283,168 272.5,170.5 Q262,173 255,174.5 Q248,176 234.5,178.5 Q221,181 213,183 Q139,199 105,228 Q71,257 71,309 Q71,401 135,450.5 Q199,500 315,500 Q420,500 516,465 L464,340 Q371,376 298,376 Q238,376 238,339 Q238,320 275,311 Q280,310 291,308 Q302,306 316,303.5 Q330,301 335,300 Q406,284 439.5,255 Q473,226 473,176 Q473,85 407,35 Q341,-15 226,-15 Q115,-15 8,28"/> 
            <glyph glyph-name="Ť" unicode="&#x164;" horiz-adv-x="726" d=" M496,735 L355,735 L259,888 L404,888 L437,829 L495,888 L646,888 M475,529 L381,0 L212,0 L306,529 L81,529 L107,680 L726,680 L700,529"/> 
            <glyph glyph-name="ť" unicode="&#x165;" horiz-adv-x="551" d=" M551,733 L476,523 L357,523 L398,733 M415,138 L407,5 Q325,-15 251,-15 Q160,-15 121,38 Q82,91 100,191 L125,340 L26,340 L52,485 L151,485 L180,650 L342,650 L314,485 L462,485 L436,340 L288,340 L264,207 Q250,130 320,130 Q351,130 415,138"/> 
            <glyph glyph-name="Ū" unicode="&#x16A;" horiz-adv-x="796" d=" M681,880 L660,758 L327,758 L348,880 M796,680 L731,308 Q705,159 606,72 Q509,-15 362,-15 Q215,-15 141,71 Q68,156 95,308 L160,680 L332,680 L267,308 Q253,231 284,188 Q315,145 384,145 Q451,145 498,188 Q545,231 559,308 L624,680"/> 
            <glyph glyph-name="ū" unicode="&#x16B;" horiz-adv-x="626" d=" M626,485 L543,9 Q361,-13 232,-13 Q139,-13 94,34.5 Q49,82 66,174 L121,485 L283,485 L235,209 Q218,121 301,121 Q323,121 401,126 L464,485 M551,692 L529,568 L242,568 L264,692"/> 
            <glyph glyph-name="Ů" unicode="&#x16E;" horiz-adv-x="796" d=" M504,964 Q558,964 590.5,933.5 Q623,903 623,853 Q623,797 583,761 Q543,725 483,725 Q429,725 396.5,755.5 Q364,786 364,836 Q364,892 403.5,928 Q443,964 504,964 M489,800 Q511,800 525.5,813.5 Q540,827 540,848 Q540,867 528.5,878 Q517,889 497,889 Q475,889 461,875.5 Q447,862 447,841 Q447,822 458.5,811 Q470,800 489,800 M796,680 L731,308 Q705,159 606,72 Q509,-15 362,-15 Q215,-15 141,71 Q68,156 95,308 L160,680 L332,680 L267,308 Q253,231 284,188 Q315,145 384,145 Q451,145 498,188 Q545,231 559,308 L624,680"/> 
            <glyph glyph-name="ů" unicode="&#x16F;" horiz-adv-x="626" d=" M402,787 Q456,787 488.5,757 Q521,727 521,677 Q521,621 481.5,584.5 Q442,548 381,548 Q328,548 295,578.5 Q262,609 262,659 Q262,715 301.5,751 Q341,787 402,787 M387,623 Q409,623 423.5,636.5 Q438,650 438,671 Q438,690 426.5,701 Q415,712 395,712 Q373,712 359,698.5 Q345,685 345,664 Q345,645 356.5,634 Q368,623 387,623 M626,485 L543,9 Q361,-13 232,-13 Q139,-13 94,34.5 Q49,82 66,174 L121,485 L283,485 L235,209 Q218,121 301,121 Q323,121 401,126 L464,485"/> 
            <glyph glyph-name="Ű" unicode="&#x170;" horiz-adv-x="796" d=" M552,902 L460,738 L319,738 L390,902 M746,902 L654,738 L513,738 L584,902 M796,680 L731,308 Q705,159 606,72 Q509,-15 362,-15 Q215,-15 141,71 Q68,156 95,308 L160,680 L332,680 L267,308 Q253,231 284,188 Q315,145 384,145 Q451,145 498,188 Q545,231 559,308 L624,680"/> 
            <glyph glyph-name="ű" unicode="&#x171;" horiz-adv-x="636" d=" M626,485 L543,9 Q361,-13 232,-13 Q139,-13 94,34.5 Q49,82 66,174 L121,485 L283,485 L235,209 Q218,121 301,121 Q323,121 401,126 L464,485 M367,563 L234,563 L300,717 L452,717 M550,563 L418,563 L484,717 L636,717"/> 
            <glyph glyph-name="Ų" unicode="&#x172;" horiz-adv-x="794" d=" M794,680 L729,308 Q708,188 639.5,107.5 Q571,27 467,-1 Q400,-25 400,-68 Q400,-97 442,-97 Q464,-97 491,-90 L499,-202 Q451,-218 398,-218 Q340,-218 304.5,-190.5 Q269,-163 269,-119 Q269,-56 332,-14 Q197,-6 133,79 Q68,166 93,308 L158,680 L330,680 L265,308 Q251,231 282,188 Q313,145 382,145 Q449,145 496,188 Q543,231 557,308 L622,680"/> 
            <glyph glyph-name="ų" unicode="&#x173;" horiz-adv-x="626" d=" M508,-90 Q530,-90 557,-83 L565,-195 Q517,-211 464,-211 Q406,-211 370.5,-183.5 Q335,-156 335,-112 Q335,-49 401,-5 Q297,-13 232,-13 Q139,-13 94,34.5 Q49,82 66,174 L121,485 L283,485 L235,209 Q218,121 301,121 Q323,121 401,126 L464,485 L626,485 L543,9 Q466,-15 466,-61 Q466,-90 508,-90"/> 
            <glyph glyph-name="Ŵ" unicode="&#x174;" horiz-adv-x="1130" d=" M635,803 L577,743 L427,743 L576,890 L717,890 L814,743 L668,743 M795,0 L631,0 L564,400 L352,0 L188,0 L93,680 L270,680 L321,264 L539,680 L679,680 L747,264 L948,680 L1130,680"/> 
            <glyph glyph-name="ŵ" unicode="&#x175;" horiz-adv-x="852" d=" M616,0 L460,0 L419,260 L283,0 L128,0 L62,485 L224,485 L252,211 L395,485 L517,485 L561,210 L687,485 L852,485 M493,616 L436,563 L285,563 L433,707 L574,707 L672,563 L527,563"/> 
            <glyph glyph-name="Ŷ" unicode="&#x176;" horiz-adv-x="808" d=" M475,803 L417,743 L267,743 L416,890 L557,890 L654,743 L508,743 M280,215 L91,680 L277,680 L394,394 L617,680 L808,680 L455,215 L416,0 L241,0"/> 
            <glyph glyph-name="ŷ" unicode="&#x177;" horiz-adv-x="694" d=" M348,564 L197,564 L345,708 L486,708 L584,564 L439,564 L405,617 M694,486 L237,-224 L72,-224 L225,23 L61,486 L236,486 L335,199 L514,486"/> 
            <glyph glyph-name="Ÿ" unicode="&#x178;" horiz-adv-x="808" d=" M420,758 Q393,733 355,733 Q317,733 290,758 Q264,784 264,821 Q264,858 290,883 Q317,909 355,909 Q393,909 420,883 Q447,858 447,821 Q447,784 420,758 M649,758 Q623,733 585,733 Q547,733 520,758 Q493,784 493,821 Q493,858 520,883 Q547,909 585,909 Q623,909 649,883 Q676,858 676,821 Q676,784 649,758 M280,215 L91,680 L277,680 L394,394 L617,680 L808,680 L455,215 L416,0 L241,0"/> 
            <glyph glyph-name="Ź" unicode="&#x179;" horiz-adv-x="698" d=" M681,574 L280,151 L611,151 L585,0 L-1,0 L17,106 L425,529 L109,529 L136,680 L698,680 M666,890 L510,743 L346,743 L461,890"/> 
            <glyph glyph-name="ź" unicode="&#x17A;" horiz-adv-x="533" d=" M498,399 L249,137 L469,137 L444,0 L-7,0 L7,80 L265,348 L57,348 L81,485 L513,485 M533,707 L384,560 L227,560 L329,707"/> 
            <glyph glyph-name="Ż" unicode="&#x17B;" horiz-adv-x="698" d=" M681,574 L280,151 L611,151 L585,0 L-1,0 L17,106 L425,529 L109,529 L136,680 L698,680 M425,744 Q387,744 361,768.5 Q335,793 335,830 Q335,867 361,891.5 Q387,916 425,916 Q462,916 488,891 Q514,866 514,830 Q514,794 488,769 Q462,744 425,744"/> 
            <glyph glyph-name="ż" unicode="&#x17C;" horiz-adv-x="513" d=" M498,399 L249,137 L469,137 L444,0 L-7,0 L7,80 L265,348 L57,348 L81,485 L513,485 M386,575 Q360,550 322,550 Q284,550 257,575 Q230,601 230,638 Q230,675 257,700 Q284,726 322,726 Q360,726 386,700 Q413,675 413,638 Q413,601 386,575"/> 
            <glyph glyph-name="Ž" unicode="&#x17D;" horiz-adv-x="698" d=" M681,574 L280,151 L611,151 L585,0 L-1,0 L17,106 L425,529 L109,529 L136,680 L698,680 M492,735 L351,735 L255,888 L400,888 L433,829 L491,888 L642,888"/> 
            <glyph glyph-name="ž" unicode="&#x17E;" horiz-adv-x="530" d=" M498,399 L249,137 L469,137 L444,0 L-7,0 L7,80 L265,348 L57,348 L81,485 L513,485 M380,560 L239,560 L143,713 L288,713 L321,654 L379,713 L530,713"/> 
            <glyph glyph-name="ƒ" unicode="&#x192;" horiz-adv-x="638" d=" M510,695 Q566,695 638,677 L596,550 Q546,556 516,556 Q481,556 461,536.5 Q441,517 427,470 L414,429 L570,429 L545,285 L369,285 L343,201 Q276,-15 99,-15 Q43,-15 -28,3 L13,130 Q62,124 94,124 Q127,124 147.5,144 Q168,164 182,210 L206,285 L93,285 L118,429 L251,429 L267,479 Q333,695 510,695"/> 
            <glyph glyph-name="Ǎ" unicode="&#x1CD;" horiz-adv-x="725" d=" M551,735 L410,735 L314,888 L459,888 L492,829 L550,888 L701,888 M214,113 L148,0 L-37,0 L388,684 L543,684 L725,0 L546,0 L520,113 M433,484 L296,255 L486,255"/> 
            <glyph glyph-name="ǎ" unicode="&#x1CE;" horiz-adv-x="631" d=" M356,500 Q433,500 631,476 L547,0 L385,0 L391,33 Q320,-15 242,-15 Q146,-15 91,55 Q35,126 59,245 Q81,359 161,430 Q241,500 356,500 M352,369 Q291,369 251.5,327 Q212,285 212,219 Q212,174 236,146.5 Q260,119 301,119 Q356,119 413,161 L449,364 Q391,369 352,369 M476,560 L335,560 L239,713 L384,713 L417,654 L475,713 L626,713"/> 
            <glyph glyph-name="Ș" unicode="&#x218;" horiz-adv-x="681" d=" M681,645 L619,499 Q476,543 390,543 Q340,543 312,526 Q284,509 284,478 Q284,460 294.5,450 Q305,440 330,431 L386,417 L422,409 Q526,385 573,348 Q622,312 622,230 Q622,114 535.5,49.5 Q449,-15 297,-15 Q151,-15 4,44 L68,193 Q211,135 317,135 Q374,134 405,151.5 Q436,169 436,199 Q436,240 378,254 Q320,268 319,268 L287,275 Q184,298 141,335 Q97,373 97,445 Q97,555 185,622 Q274,690 418,690 Q560,690 681,645 M172,-289 L216,-200 Q164,-179 164,-128 Q164,-93 191,-68 Q218,-43 255,-43 Q292,-43 318.5,-68 Q345,-93 345,-128 Q345,-151 331,-177 Q313,-211 261,-289"/> 
            <glyph glyph-name="ș" unicode="&#x219;" horiz-adv-x="516" d=" M8,28 L61,154 Q168,111 242,111 Q309,111 309,142 Q309,147 306.5,151.5 Q304,156 298.5,159.5 Q293,163 288,165.5 Q283,168 272.5,170.5 Q262,173 255,174.5 Q248,176 234.5,178.5 Q221,181 213,183 Q139,199 105,228 Q71,257 71,309 Q71,401 135,450.5 Q199,500 315,500 Q420,500 516,465 L464,340 Q371,376 298,376 Q238,376 238,339 Q238,320 275,311 Q280,310 291,308 Q302,306 316,303.5 Q330,301 335,300 Q406,284 439.5,255 Q473,226 473,176 Q473,85 407,35 Q341,-15 226,-15 Q115,-15 8,28 M105,-289 L149,-200 Q97,-179 97,-128 Q97,-93 124,-68 Q151,-43 188,-43 Q225,-43 251.5,-68 Q278,-93 278,-128 Q278,-151 264,-177 Q246,-211 194,-289"/> 
            <glyph glyph-name="Ț" unicode="&#x21A;" horiz-adv-x="726" d=" M475,529 L381,0 L212,0 L306,529 L81,529 L107,680 L726,680 L700,529 M199,-282 L243,-193 Q191,-172 191,-121 Q191,-86 218,-61 Q245,-36 282,-36 Q319,-36 345.5,-61 Q372,-86 372,-121 Q372,-144 358,-170 Q340,-204 288,-282"/> 
            <glyph glyph-name="ț" unicode="&#x21B;" horiz-adv-x="462" d=" M415,138 L407,5 Q325,-15 251,-15 Q160,-15 121,38 Q82,91 100,191 L125,340 L26,340 L52,485 L151,485 L180,650 L342,650 L314,485 L462,485 L436,340 L288,340 L264,207 Q250,130 320,130 Q351,130 415,138 M120,-289 L164,-200 Q112,-179 112,-128 Q112,-93 139,-68 Q166,-43 203,-43 Q240,-43 266.5,-68 Q293,-93 293,-128 Q293,-151 279,-177 Q261,-211 209,-289"/> 
            <glyph glyph-name="ˆ" unicode="&#x2C6;" horiz-adv-x="549" d=" M370,616 L313,563 L162,563 L310,707 L451,707 L549,563 L404,563"/> 
            <glyph glyph-name="ˇ" unicode="&#x2C7;" horiz-adv-x="578" d=" M428,560 L287,560 L191,713 L336,713 L369,654 L427,713 L578,713"/> 
            <glyph glyph-name="˘" unicode="&#x2D8;" horiz-adv-x="537" d=" M424,707 L537,707 Q524,635 474,594 Q424,553 351,553 Q278,553 242,594 Q206,635 219,707 L332,707 Q328,684 338.5,671.5 Q349,659 370,659 Q415,659 424,707"/> 
            <glyph glyph-name="˙" unicode="&#x2D9;" horiz-adv-x="451" d=" M424,575 Q398,550 360,550 Q322,550 295,575 Q268,601 268,638 Q268,675 295,700 Q322,726 360,726 Q398,726 424,700 Q451,675 451,638 Q451,601 424,575"/> 
            <glyph glyph-name="˚" unicode="&#x2DA;" horiz-adv-x="504" d=" M386,787 Q439,787 471.5,757 Q504,727 504,677 Q504,621 464.5,584.5 Q425,548 364,548 Q311,548 278,578.5 Q245,609 245,659 Q245,715 285,751 Q325,787 386,787 M370,623 Q392,623 406.5,636.5 Q421,650 421,671 Q421,690 409.5,701 Q398,712 378,712 Q356,712 342,698.5 Q328,685 328,664 Q328,645 339.5,634 Q351,623 370,623"/> 
            <glyph glyph-name="˛" unicode="&#x2DB;" horiz-adv-x="373" d=" M290,42 L351,20 Q274,-4 274,-50 Q274,-79 316,-79 Q338,-79 365,-72 L373,-184 Q325,-200 272,-200 Q214,-200 178.5,-172.5 Q143,-145 143,-101 Q143,-4 290,42"/> 
            <glyph glyph-name="˜" unicode="&#x2DC;" horiz-adv-x="568" d=" M450,705 L568,705 Q559,653 533.5,617.5 Q508,582 476.5,568.5 Q445,555 412.5,556 Q380,557 356,573 L322,595 Q285,615 278,571 L160,571 Q169,623 194.5,658 Q220,693 251.5,706.5 Q283,720 315,719 Q347,718 372,703 L406,681 Q443,661 450,705"/> 
            <glyph glyph-name="˝" unicode="&#x2DD;" horiz-adv-x="591" d=" M322,563 L189,563 L255,717 L407,717 M505,563 L373,563 L439,717 L591,717"/> 
            <glyph glyph-name="̦" unicode="&#x326;" horiz-adv-x="375" d=" M202,-282 L246,-193 Q194,-172 194,-121 Q194,-86 221,-61 Q248,-36 285,-36 Q322,-36 348.5,-61 Q375,-86 375,-121 Q375,-144 361,-170 Q343,-204 291,-282"/> 
            <glyph glyph-name="Ẁ" unicode="&#x1E80;" horiz-adv-x="1130" d=" M695,743 L559,743 L439,890 L638,890 M795,0 L631,0 L564,400 L352,0 L188,0 L93,680 L270,680 L321,264 L539,680 L679,680 L747,264 L948,680 L1130,680"/> 
            <glyph glyph-name="ẁ" unicode="&#x1E81;" horiz-adv-x="852" d=" M616,0 L460,0 L419,260 L283,0 L128,0 L62,485 L224,485 L252,211 L395,485 L517,485 L561,210 L687,485 L852,485 M511,560 L377,560 L271,707 L469,707"/> 
            <glyph glyph-name="Ẃ" unicode="&#x1E82;" horiz-adv-x="1130" d=" M865,890 L709,743 L545,743 L660,890 M795,0 L631,0 L564,400 L352,0 L188,0 L93,680 L270,680 L321,264 L539,680 L679,680 L747,264 L948,680 L1130,680"/> 
            <glyph glyph-name="ẃ" unicode="&#x1E83;" horiz-adv-x="852" d=" M704,707 L555,560 L398,560 L499,707 M616,0 L460,0 L419,260 L283,0 L128,0 L62,485 L224,485 L252,211 L395,485 L517,485 L561,210 L687,485 L852,485"/> 
            <glyph glyph-name="Ẅ" unicode="&#x1E84;" horiz-adv-x="1130" d=" M580,758 Q553,733 515,733 Q477,733 450,758 Q424,784 424,821 Q424,858 450,883 Q477,909 515,909 Q553,909 580,883 Q607,858 607,821 Q607,784 580,758 M809,758 Q783,733 745,733 Q707,733 680,758 Q653,784 653,821 Q653,858 680,883 Q707,909 745,909 Q783,909 809,883 Q836,858 836,821 Q836,784 809,758 M795,0 L631,0 L564,400 L352,0 L188,0 L93,680 L270,680 L321,264 L539,680 L679,680 L747,264 L948,680 L1130,680"/> 
            <glyph glyph-name="ẅ" unicode="&#x1E85;" horiz-adv-x="852" d=" M616,0 L460,0 L419,260 L283,0 L128,0 L62,485 L224,485 L252,211 L395,485 L517,485 L561,210 L687,485 L852,485 M366,717 Q403,717 429,692 Q455,667 455,631 Q455,595 429,570 Q403,545 366,545 Q328,545 302,569.5 Q276,594 276,631 Q276,668 302,692.5 Q328,717 366,717 M595,717 Q632,717 658.5,692 Q685,667 685,631 Q685,595 658.5,570 Q632,545 595,545 Q557,545 531,569.5 Q505,594 505,631 Q505,668 531,692.5 Q557,717 595,717"/> 
            <glyph glyph-name="Ỳ" unicode="&#x1EF2;" horiz-adv-x="808" d=" M535,743 L399,743 L279,890 L478,890 M280,215 L91,680 L277,680 L394,394 L617,680 L808,680 L455,215 L416,0 L241,0"/> 
            <glyph glyph-name="ỳ" unicode="&#x1EF3;" horiz-adv-x="694" d=" M334,561 L228,708 L426,708 L468,561 M694,486 L237,-224 L72,-224 L225,23 L61,486 L236,486 L335,199 L514,486"/> 
            <glyph glyph-name="–" unicode="&#x2013;" horiz-adv-x="580" d=" M580,337 L553,182 L56,182 L83,337"/> 
            <glyph glyph-name="—" unicode="&#x2014;" horiz-adv-x="969" d=" M969,337 L941,182 L66,182 L93,337"/> 
            <glyph glyph-name="‘" unicode="&#x2018;" horiz-adv-x="324" d=" M324,767 L263,636 Q324,611 324,552 Q324,510 293,481 Q262,452 219,452 Q175,452 144,481 Q113,510 113,552 Q113,582 129,613 Q149,652 219,767"/> 
            <glyph glyph-name="’" unicode="&#x2019;" horiz-adv-x="345" d=" M134,460 L195,590 Q134,617 134,675 Q134,717 165,746 Q196,775 239,775 Q283,775 314,746 Q345,717 345,675 Q345,645 329,614 Q309,575 239,460"/> 
            <glyph glyph-name="‚" unicode="&#x201A;" horiz-adv-x="241" d=" M30,-130 L91,0 Q30,25 30,84 Q30,126 61,155.5 Q92,185 135,185 Q179,185 210,155.5 Q241,126 241,84 Q241,55 224,23 Q201,-21 135,-130"/> 
            </font>
</defs>
</svg>
