<?xml version="1.0" standalone="no"?>
<!DOCTYPE svg PUBLIC "-//W3C//DTD SVG 1.1//EN" "http://www.w3.org/Graphics/SVG/1.1/DTD/svg11.dtd" >
<svg xmlns="http://www.w3.org/2000/svg">
    <defs>
        <font id="Canaro-ExtraLightItalic">
            <font-face font-family="Canaro-ExtraLightItalic"
                       units-per-em="1000"
                       ascent="755"
                       descent="-245"
                       bbox="-104 -272 1409 907"
                    />
            <missing-glyph horiz-adv-x="0" />
            
            <glyph glyph-name="!" unicode="&#x21;" horiz-adv-x="220" d=" M220,680 L128,168 L83,168 L171,680 M83,-10 Q67,-10 56.5,0 Q46,10 46,26 Q46,41 56.5,51.5 Q67,62 83,62 Q98,62 108.5,51.5 Q119,41 119,26 Q119,10 108.5,0 Q98,-10 83,-10"/> 
            <glyph glyph-name="&quot;" unicode="&#x22;" horiz-adv-x="352" d=" M222,760 L169,533 L129,533 L171,760 M352,760 L299,533 L259,533 L302,760"/> 
            <glyph glyph-name="#" unicode="&#x23;" horiz-adv-x="719" d=" M494,251 L626,251 L619,212 L476,212 L371,0 L325,0 L429,212 L201,212 L96,0 L50,0 L154,212 L43,212 L50,251 L173,251 L260,429 L136,429 L143,467 L278,467 L383,681 L429,681 L324,467 L553,467 L658,681 L704,681 L599,467 L719,467 L712,429 L581,429 M306,429 L219,251 L448,251 L534,429"/> 
            <glyph glyph-name="$" unicode="&#x24;" horiz-adv-x="651" d=" M410,651 Q319,651 260,607 Q202,564 202,489 Q202,446 235.5,422.5 Q269,399 355,380 Q380,375 432,361 Q460,354 495,340 Q528,327 548,309 Q592,270 592,208 Q592,107 515,47 Q438,-13 316,-15 L290,-152 L248,-152 L274,-14 Q150,-6 40,42 L61,84 Q190,28 321,28 Q419,28 481,74 Q544,120 544,198 Q548,227 529.5,252 Q511,277 485,292 Q473,301 442,310 L400,322 Q376,328 351,333 L329,338 Q232,359 192,390.5 Q152,422 152,479 Q152,571 220,630 Q289,689 398,693 L421,823 L462,823 L440,694 Q555,690 651,655 L632,614 Q521,651 410,651"/> 
            <glyph glyph-name="%" unicode="&#x25;" horiz-adv-x="978" d=" M361,695 Q429,695 470.5,652.5 Q512,610 512,541 Q512,445 448,384 Q383,322 295,322 Q227,322 185.5,364 Q144,406 144,476 Q144,571 208,632 Q272,695 361,695 M285,0 L250,0 L819,680 L854,680 M302,359 Q370,359 422,409 Q474,458 474,534 Q474,590 441,624.5 Q408,659 355,659 Q285,659 233,609 Q182,560 182,483 Q182,428 215.5,393.5 Q249,359 302,359 M827,358 Q895,358 936.5,315.5 Q978,273 978,204 Q978,108 914,47 Q850,-15 761,-15 Q693,-15 651.5,27.5 Q610,70 610,140 Q610,234 674,295 Q738,358 827,358 M768,22 Q837,22 889,72 Q941,121 941,197 Q941,253 907.5,287.5 Q874,322 821,322 Q752,322 700,272 Q649,222 649,146 Q649,91 682,56.5 Q715,22 768,22"/> 
            <glyph glyph-name="&amp;" unicode="&#x26;" horiz-adv-x="623" d=" M541,327 L517,189 Q500,96 427,41 Q354,-14 243,-14 Q145,-14 90,31.5 Q35,77 35,155 Q35,227 81,277.5 Q127,328 211,348 Q164,363 139.5,395.5 Q115,428 115,474 Q115,566 185,624 Q256,683 371,683 Q435,683 500,666 L483,626 Q420,643 363,643 Q270,643 215,597 Q160,552 160,479 Q160,427 201,397 Q242,367 317,367 L623,367 L616,327 M497,327 L310,327 Q203,327 141.5,282 Q80,237 80,162 Q80,99 124.5,62.5 Q169,26 249,26 Q339,26 399.5,70 Q460,114 473,189"/> 
            <glyph glyph-name="'" unicode="&#x27;" horiz-adv-x="222" d=" M222,760 L168,533 L129,533 L171,760"/> 
            <glyph glyph-name="(" unicode="&#x28;" horiz-adv-x="395" d=" M365,748 L395,728 Q302,623 243,513 Q186,403 162,266 Q115,6 230,-198 L193,-216 Q70,-8 119,271 Q167,542 365,748"/> 
            <glyph glyph-name=")" unicode="&#x29;" horiz-adv-x="304" d=" M7,-218 L-23,-198 Q70,-93 129,17 Q186,125 211,264 Q258,524 142,728 L179,746 Q304,540 254,259 Q206,-12 7,-218"/> 
            <glyph glyph-name="*" unicode="&#x2A;" horiz-adv-x="401" d=" M378,445 L359,423 L259,509 L237,389 L208,394 L229,514 L106,468 L96,495 L220,542 L120,629 L138,652 L238,566 L259,683 L289,678 L268,560 L391,607 L401,579 L277,532"/> 
            <glyph glyph-name="+" unicode="&#x2B;" horiz-adv-x="594" d=" M384,298 L348,94 L303,94 L339,298 L136,298 L144,340 L347,340 L383,545 L428,545 L392,340 L594,340 L586,298"/> 
            <glyph glyph-name="," unicode="&#x2C;" horiz-adv-x="126" d=" M24,-153 L76,-5 Q49,2 49,28 Q49,44 60,54.5 Q71,65 88,65 Q104,65 115,54.5 Q126,44 126,28 Q126,16 120,-1 Q117,-13 82,-95 L58,-153"/> 
            <glyph glyph-name="-" unicode="&#x2D;" horiz-adv-x="428" d=" M428,298 L420,254 L128,254 L136,298"/> 
            <glyph glyph-name="." unicode="&#x2E;" horiz-adv-x="137" d=" M95,-10 Q71,-12 61,7.5 Q51,27 61,46.5 Q71,66 95,65 Q118,66 127.5,46.5 Q137,27 127.5,7.5 Q118,-12 95,-10"/> 
            <glyph glyph-name="/" unicode="&#x2F;" horiz-adv-x="518" d=" M-14,-272 L-61,-272 L471,768 L518,768"/> 
            <glyph glyph-name="0" unicode="&#x30;" horiz-adv-x="709" d=" M457,695 Q573,695 641,618 Q709,541 709,411 Q709,228 601,106 Q493,-15 331,-15 Q214,-15 146,62 Q79,139 79,269 Q79,452 187,574 Q296,695 457,695 M339,27 Q476,27 569,134 Q662,242 662,405 Q662,518 605,585 Q548,653 450,653 Q313,653 220,545 Q127,438 127,275 Q127,162 184,94 Q241,27 339,27"/> 
            <glyph glyph-name="1" unicode="&#x31;" horiz-adv-x="352" d=" M232,0 L186,0 L298,628 L94,568 L91,607 L336,680 L352,680"/> 
            <glyph glyph-name="2" unicode="&#x32;" horiz-adv-x="563" d=" M482,0 L20,0 L25,30 L307,254 L373,307 Q379,312 424,353 Q457,383 472,405 Q509,466 509,516 Q509,579 467,615.5 Q425,652 351,652 Q249,652 137,594 L128,632 Q243,695 361,695 Q452,695 505,648.5 Q558,602 558,525 Q563,452 492,363 Q472,339 444,314 L392,268 L332,219 L107,40 L490,40"/> 
            <glyph glyph-name="3" unicode="&#x33;" horiz-adv-x="588" d=" M583,650 L293,374 L316,374 Q417,374 472,333.5 Q527,293 527,219 Q527,119 442,52 Q359,-15 239,-15 Q118,-15 11,42 L34,77 Q144,26 247,26 Q340,26 411,79 Q482,132 482,211 Q482,272 433.5,303.5 Q385,335 294,335 L213,335 L217,357 L512,637 L148,637 L155,680 L588,680"/> 
            <glyph glyph-name="4" unicode="&#x34;" horiz-adv-x="604" d=" M504,177 L604,177 L597,137 L497,137 L473,0 L428,0 L452,137 L32,137 L38,169 L548,680 L593,680 M102,177 L460,177 L538,616"/> 
            <glyph glyph-name="5" unicode="&#x35;" horiz-adv-x="600" d=" M172,404 L330,396 Q432,391 487,347 Q542,303 542,228 Q542,120 461,52 Q381,-15 263,-15 Q134,-15 25,42 L47,79 Q161,26 270,26 Q364,26 431,79 Q497,133 497,221 Q497,281 451,316 Q405,351 318,355 L116,365 L202,680 L600,680 L592,637 L237,637"/> 
            <glyph glyph-name="6" unicode="&#x36;" horiz-adv-x="583" d=" M360,454 Q465,454 524,392 Q582,330 569,230 Q556,120 473,53 Q390,-15 279,-15 Q172,-15 114,48 Q56,111 70,214 Q81,300 145,369 L418,680 L476,680 L266,440 Q314,454 360,454 M523,228 Q536,312 488,363 Q442,415 354,415 Q262,415 195,359 Q129,304 116,216 Q103,131 150,77 Q196,25 284,25 Q374,25 442,81 Q510,138 523,228"/> 
            <glyph glyph-name="7" unicode="&#x37;" horiz-adv-x="592" d=" M587,651 L156,0 L102,0 L527,637 L105,637 L112,680 L592,680"/> 
            <glyph glyph-name="8" unicode="&#x38;" horiz-adv-x="619" d=" M449,358 Q524,341 561.5,296.5 Q599,252 589,189 Q577,98 494,41 Q411,-15 290,-15 Q174,-15 110,39 Q47,93 59,180 Q69,246 122,293 Q175,340 261,359 Q205,376 178,417.5 Q151,459 159,516 Q170,597 239,646 Q309,695 413,695 Q512,695 565.5,648.5 Q619,602 608,526 Q588,400 449,358 M205,516 Q195,452 236,414 Q277,376 356,376 Q438,376 494,417 Q550,458 560,525 Q570,584 528.5,620.5 Q487,657 408,657 Q327,657 271,617.5 Q215,578 205,516 M295,25 Q394,25 461,71 Q531,118 541,191 Q552,257 500,297.5 Q448,338 352,338 Q253,338 186,295 Q118,252 108,184 Q97,113 148,69 Q199,25 295,25"/> 
            <glyph glyph-name="9" unicode="&#x39;" horiz-adv-x="615" d=" M393,695 Q499,695 557,631 Q615,569 601,466 Q590,389 526,311 L257,0 L201,0 L404,236 Q365,226 312,226 Q204,226 146,287 Q88,348 102,450 Q117,560 198,627 Q281,695 393,695 M555,464 Q568,549 520,602 Q473,655 387,655 Q296,655 229,598 Q162,543 148,452 Q135,369 182,316 Q230,265 317,265 Q411,265 476,320 Q541,375 555,464"/> 
            <glyph glyph-name=":" unicode="&#x3A;" horiz-adv-x="213" d=" M171,392 Q147,390 137,409.5 Q127,429 137,448.5 Q147,468 171,467 Q194,468 203.5,448.5 Q213,429 203.5,409.5 Q194,390 171,392 M94,-10 Q71,-12 61.5,7.5 Q52,27 61.5,46.5 Q71,66 94,65 Q118,66 128,46.5 Q138,27 128,7.5 Q118,-12 94,-10"/> 
            <glyph glyph-name=";" unicode="&#x3B;" horiz-adv-x="223" d=" M179,392 Q156,390 146.5,409.5 Q137,429 146.5,448.5 Q156,468 179,467 Q203,468 213,448.5 Q223,429 213,409.5 Q203,390 179,392 M24,-153 L76,-5 Q49,2 49,28 Q49,44 60,54.5 Q71,65 88,65 Q104,65 115,54.5 Q126,44 126,28 Q126,13 119,-5 Q107,-38 84,-93 Q66,-138 59,-153"/> 
            <glyph glyph-name="&lt;" unicode="&#x3C;" horiz-adv-x="533" d=" M67,278 L75,324 L533,530 L525,480 L122,300 L460,118 L452,72"/> 
            <glyph glyph-name="=" unicode="&#x3D;" horiz-adv-x="644" d=" M636,402 L154,402 L162,445 L644,445 M603,210 L121,210 L128,252 L610,252"/> 
            <glyph glyph-name="&gt;" unicode="&#x3E;" horiz-adv-x="516" d=" M516,324 L508,278 L51,72 L58,122 L461,302 L123,483 L131,530"/> 
            <glyph glyph-name="?" unicode="&#x3F;" horiz-adv-x="501" d=" M295,695 Q389,695 445,647.5 Q501,600 501,519 Q501,419 424,348 Q348,278 235,278 L205,278 L187,168 L145,168 L166,319 L235,319 Q328,319 392,375 Q455,432 455,514 Q455,579 410.5,616.5 Q366,654 287,654 Q210,654 131,635 L128,674 Q212,695 295,695 M147,62 Q162,62 172.5,51.5 Q183,41 183,26 Q183,10 172.5,0 Q162,-10 147,-10 Q131,-10 120.5,0 Q110,10 110,26 Q110,41 120.5,51.5 Q131,62 147,62"/> 
            <glyph glyph-name="@" unicode="&#x40;" horiz-adv-x="957" d=" M580,690 Q754,690 855,592 Q957,495 957,332 Q957,184 901,101 Q845,18 750,18 Q663,18 645,84 Q530,15 435,15 Q343,15 292,72 Q241,128 246,223 Q250,333 327,407 Q403,480 519,480 Q627,480 738,456 L689,179 Q678,114 694,83.5 Q710,53 760,53 Q837,53 881,124.5 Q925,196 925,326 Q925,480 832,570 Q740,661 576,661 Q448,661 334,598 Q220,536 153,428 Q85,319 85,193 Q85,47 180,-50 Q274,-147 428,-147 Q525,-147 674,-115 L674,-143 Q532,-177 423,-177 Q256,-177 154,-74 Q52,29 52,189 Q52,326 124,442 Q199,559 318,624 Q440,690 580,690 M517,442 Q416,442 353,377 Q290,312 290,218 Q290,143 332,98 Q374,53 446,53 Q530,53 642,117 Q640,152 646,184 L689,426 Q605,442 517,442"/> 
            <glyph glyph-name="A" unicode="&#x41;" horiz-adv-x="664" d=" M165,180 L53,0 L-1,0 L429,685 L476,685 L664,0 L613,0 L565,180 M445,627 L191,222 L553,222"/> 
            <glyph glyph-name="B" unicode="&#x42;" horiz-adv-x="620" d=" M454,352 Q525,339 562,302.5 Q599,266 599,210 Q599,109 519,50 Q440,-7 309,-7 Q243,-7 67,0 L187,680 Q340,687 427,687 Q518,687 569,649 Q620,611 620,542 Q620,471 577,421.5 Q534,372 454,352 M417,645 Q340,645 227,640 L178,368 L356,368 Q457,368 515,411.5 Q573,455 573,532 Q573,588 532.5,616.5 Q492,645 417,645 M312,34 Q423,34 488,80 Q553,126 553,208 Q553,265 505,296 Q457,327 369,327 L171,327 L120,40 Q262,34 312,34"/> 
            <glyph glyph-name="C" unicode="&#x43;" horiz-adv-x="751" d=" M751,658 L734,618 Q623,651 527,651 Q352,651 243,549 Q134,449 134,290 Q134,169 206.5,100 Q279,31 408,31 Q514,31 656,70 L659,29 Q513,-15 399,-15 Q251,-15 167.5,64.5 Q84,144 84,285 Q84,466 207,580 Q329,695 529,695 Q641,695 751,658"/> 
            <glyph glyph-name="D" unicode="&#x44;" horiz-adv-x="713" d=" M411,687 Q551,687 632,612 Q713,537 713,406 Q713,224 593,108 Q474,-6 294,-6 Q256,-6 67,0 L187,680 Q326,687 411,687 M302,37 Q458,37 561,137 Q664,237 664,400 Q664,514 594,579.5 Q524,645 404,645 Q342,645 226,639 L120,41 Q225,37 302,37"/> 
            <glyph glyph-name="E" unicode="&#x45;" horiz-adv-x="649" d=" M177,361 L553,361 L546,319 L170,319 L121,43 L537,43 L529,0 L67,0 L187,680 L649,680 L642,637 L226,637"/> 
            <glyph glyph-name="F" unicode="&#x46;" horiz-adv-x="639" d=" M174,339 L538,339 L531,297 L166,297 L114,0 L67,0 L187,680 L639,680 L631,637 L226,637"/> 
            <glyph glyph-name="G" unicode="&#x47;" horiz-adv-x="763" d=" M763,360 L709,50 Q544,-15 391,-15 Q254,-15 169,66 Q84,148 84,279 Q84,466 203,580 Q321,695 516,695 Q640,695 751,659 L733,618 Q618,651 511,651 Q340,651 237,551 Q133,450 133,287 Q133,170 206,100 Q280,29 399,29 Q528,29 669,79 L711,318 L426,318 L433,360"/> 
            <glyph glyph-name="H" unicode="&#x48;" horiz-adv-x="724" d=" M604,0 L557,0 L614,317 L170,317 L114,0 L67,0 L187,680 L234,680 L177,360 L621,360 L677,680 L724,680"/> 
            <glyph glyph-name="I" unicode="&#x49;" horiz-adv-x="234" d=" M234,680 L114,0 L67,0 L187,680"/> 
            <glyph glyph-name="J" unicode="&#x4A;" horiz-adv-x="557" d=" M557,680 L480,242 Q458,118 387.5,51.5 Q317,-15 207,-15 Q106,-15 -4,30 L14,71 Q119,30 212,30 Q300,30 358,85.5 Q416,141 433,242 L510,680"/> 
            <glyph glyph-name="K" unicode="&#x4B;" horiz-adv-x="692" d=" M166,296 L114,0 L67,0 L187,680 L234,680 L174,340 L251,340 L631,680 L692,680 L313,339 L604,0 L544,0 L287,296"/> 
            <glyph glyph-name="L" unicode="&#x4C;" horiz-adv-x="511" d=" M503,0 L67,0 L187,680 L234,680 L121,42 L511,42"/> 
            <glyph glyph-name="M" unicode="&#x4D;" horiz-adv-x="888" d=" M830,582 L456,0 L410,0 L240,582 L102,0 L56,0 L215,680 L262,680 L441,56 L839,680 L888,680 L808,0 L761,0"/> 
            <glyph glyph-name="N" unicode="&#x4E;" horiz-adv-x="753" d=" M753,680 L633,0 L588,0 L220,608 L113,0 L66,0 L186,680 L231,680 L599,71 L706,680"/> 
            <glyph glyph-name="O" unicode="&#x4F;" horiz-adv-x="809" d=" M510,695 Q648,695 728,615 Q809,536 809,402 Q809,222 687,103 Q566,-15 384,-15 Q249,-15 166,65 Q84,146 84,278 Q84,464 202,579 Q321,695 510,695 M392,28 Q548,28 654,132 Q760,237 760,396 Q760,512 690,582 Q620,652 502,652 Q338,652 236,550 Q134,448 134,283 Q134,169 205,98 Q275,28 392,28"/> 
            <glyph glyph-name="P" unicode="&#x50;" horiz-adv-x="637" d=" M413,687 Q518,687 577.5,638 Q637,589 637,500 Q637,387 551,313 Q466,241 334,241 L156,241 L114,0 L67,0 L187,680 Q295,687 413,687 M163,283 L344,283 Q449,283 520,342 Q590,400 590,494 Q590,566 541.5,605.5 Q493,645 408,645 Q331,645 226,639"/> 
            <glyph glyph-name="Q" unicode="&#x51;" horiz-adv-x="809" d=" M809,402 Q809,262 733,156 Q656,51 531,9 L650,-165 L591,-165 L482,-5 Q438,-15 383,-15 Q249,-15 166,65 Q84,146 84,278 Q84,464 202,579 Q321,695 509,695 Q646,695 728,615 Q809,536 809,402 M392,28 Q549,28 655,132 Q760,236 760,396 Q760,512 690,582 Q621,652 502,652 Q338,652 236,550 Q134,448 134,283 Q134,169 205,98 Q275,28 392,28"/> 
            <glyph glyph-name="R" unicode="&#x52;" horiz-adv-x="624" d=" M519,0 L371,261 Q353,258 315,258 L159,258 L114,0 L67,0 L187,680 Q309,687 399,687 Q505,687 564.5,641.5 Q624,596 624,513 Q624,422 569.5,358.5 Q515,295 420,271 L576,0 M166,299 L334,299 Q441,299 509,355 Q577,411 577,506 Q577,574 528.5,609.5 Q480,645 392,645 Q343,645 226,640"/> 
            <glyph glyph-name="S" unicode="&#x53;" horiz-adv-x="651" d=" M651,655 L632,614 Q521,651 410,651 Q319,651 260,607 Q202,564 202,489 Q202,446 235.5,422.5 Q269,399 355,380 Q380,375 432,361 Q460,354 495,340 Q528,327 548,309 Q592,270 592,208 Q592,106 513,45 Q435,-15 311,-15 Q169,-15 40,42 L61,84 Q190,28 321,28 Q419,28 481,74 Q544,120 544,198 Q548,227 529.5,252 Q511,277 485,292 Q473,301 442,310 L400,322 Q376,328 351,333 L329,338 Q232,359 192,390.5 Q152,422 152,479 Q152,576 227,635 Q303,694 420,694 Q543,694 651,655"/> 
            <glyph glyph-name="T" unicode="&#x54;" horiz-adv-x="717" d=" M431,637 L318,0 L271,0 L384,637 L104,637 L111,680 L717,680 L709,637"/> 
            <glyph glyph-name="U" unicode="&#x55;" horiz-adv-x="769" d=" M769,680 L695,265 Q672,138 581,62 Q490,-15 363,-15 Q233,-15 169,61 Q104,138 126,265 L199,680 L246,680 L173,265 Q154,159 207,93 Q261,29 369,29 Q475,29 552,94 Q628,158 648,265 L722,680"/> 
            <glyph glyph-name="V" unicode="&#x56;" horiz-adv-x="806" d=" M370,0 L322,0 L123,680 L176,680 L354,61 L751,680 L806,680"/> 
            <glyph glyph-name="W" unicode="&#x57;" horiz-adv-x="1092" d=" M736,0 L691,0 L596,605 L284,0 L239,0 L123,680 L173,680 L274,72 L585,680 L630,680 L725,73 L1042,680 L1092,680"/> 
            <glyph glyph-name="X" unicode="&#x58;" horiz-adv-x="719" d=" M390,336 L608,0 L553,0 L356,302 L53,0 L-8,0 L330,341 L122,680 L180,680 L365,376 L656,680 L719,680"/> 
            <glyph glyph-name="Y" unicode="&#x59;" horiz-adv-x="728" d=" M318,250 L107,680 L160,680 L349,298 L674,680 L728,680 L367,250 L322,0 L273,0"/> 
            <glyph glyph-name="Z" unicode="&#x5A;" horiz-adv-x="663" d=" M658,649 L107,43 L552,43 L544,0 L29,0 L35,31 L589,637 L153,637 L161,680 L663,680"/> 
            <glyph glyph-name="[" unicode="&#x5B;" horiz-adv-x="360" d=" M64,-174 L198,-174 L190,-216 L11,-216 L181,744 L360,744 L352,702 L218,702"/> 
            <glyph glyph-name="\" unicode="&#x5C;" horiz-adv-x="384" d=" M159,768 L384,-272 L338,-272 L113,768"/> 
            <glyph glyph-name="]" unicode="&#x5D;" horiz-adv-x="323" d=" M270,702 L136,702 L144,744 L323,744 L153,-216 L-26,-216 L-18,-174 L116,-174"/> 
            <glyph glyph-name="^" unicode="&#x5E;" horiz-adv-x="409" d=" M272,638 L111,441 L64,441 L260,680 L298,680 L409,441 L363,441"/> 
            <glyph glyph-name="_" unicode="&#x5F;" horiz-adv-x="548" d=" M-20,-143 L548,-143 L541,-183 L-27,-183"/> 
            <glyph glyph-name="`" unicode="&#x60;" horiz-adv-x="419" d=" M419,576 L377,576 L299,731 L360,731"/> 
            <glyph glyph-name="a" unicode="&#x61;" horiz-adv-x="561" d=" M340,471 Q451,471 561,446 L483,0 L438,0 L446,43 Q343,-15 252,-15 Q160,-15 108,42 Q56,99 61,195 Q66,317 144,393 Q224,471 340,471 M337,431 Q236,431 171,363 Q106,295 106,190 Q106,114 148,69 Q190,24 264,24 Q346,24 453,84 L511,415 Q432,431 337,431"/> 
            <glyph glyph-name="b" unicode="&#x62;" horiz-adv-x="557" d=" M223,710 L177,446 Q258,471 346,471 Q450,471 503.5,419 Q557,367 557,272 Q557,144 472,65 Q386,-15 240,-15 Q162,-15 55,10 L179,710 M335,431 Q256,431 170,407 L105,41 Q182,25 245,25 Q365,25 438,92 Q512,160 512,267 Q512,346 467.5,388.5 Q423,431 335,431"/> 
            <glyph glyph-name="c" unicode="&#x63;" horiz-adv-x="507" d=" M507,446 L493,410 Q411,431 348,431 Q242,431 172,364 Q102,297 102,193 Q102,117 147.5,72 Q193,27 270,27 Q338,27 442,54 L443,14 Q342,-15 264,-15 Q168,-15 112,40 Q56,95 56,186 Q56,312 141,391 Q227,471 356,471 Q438,471 507,446"/> 
            <glyph glyph-name="d" unicode="&#x64;" horiz-adv-x="603" d=" M603,710 L480,10 Q375,-12 316,-14 Q301,-15 248,-15 Q159,-15 107.5,39.5 Q56,94 56,185 Q56,310 134,390 Q214,471 336,471 Q440,471 512,446 L559,710 M332,431 Q228,431 164,362 Q101,294 101,190 Q101,114 143,69 Q185,24 259,24 Q353,24 441,41 L505,407 Q429,431 332,431"/> 
            <glyph glyph-name="e" unicode="&#x65;" horiz-adv-x="544" d=" M351,471 Q450,471 497,412 Q544,353 528,248 Q527,235 520,211 L117,211 Q109,123 151.5,75 Q194,27 281,27 Q332,27 453,53 L455,16 Q350,-15 277,-15 Q165,-15 111,49 Q57,113 72,220 Q89,335 165,402 Q243,471 351,471 M345,433 Q263,433 202.5,382.5 Q142,332 123,248 L485,248 Q511,433 345,433"/> 
            <glyph glyph-name="f" unicode="&#x66;" horiz-adv-x="456" d=" M372,713 Q324,713 288.5,680 Q253,647 243,593 L219,456 L409,456 L402,415 L212,415 L139,0 L94,0 L167,415 L35,415 L43,456 L175,456 L199,594 Q211,666 260,710 Q309,754 378,754 Q414,754 456,742 L441,704 Q406,713 372,713"/> 
            <glyph glyph-name="g" unicode="&#x67;" horiz-adv-x="556" d=" M335,471 Q449,471 556,446 L478,0 Q459,-108 381,-177 Q304,-245 194,-245 Q101,-245 26,-208 L43,-171 Q120,-204 200,-204 Q288,-204 352,-148 Q416,-92 433,2 Q345,-15 247,-15 Q156,-15 103,42 Q51,99 56,195 Q61,317 139,393 Q219,471 335,471 M332,431 Q231,431 166,363 Q101,295 101,190 Q101,115 143.5,69.5 Q186,24 258,24 Q352,24 440,41 L506,415 Q427,431 332,431"/> 
            <glyph glyph-name="h" unicode="&#x68;" horiz-adv-x="552" d=" M386,471 Q473,471 512.5,421 Q552,371 536,280 L487,0 L442,0 L490,272 Q503,347 472.5,388.5 Q442,430 373,430 Q269,430 176,405 L105,0 L60,0 L185,710 L230,710 L183,446 Q270,471 386,471"/> 
            <glyph glyph-name="i" unicode="&#x69;" horiz-adv-x="228" d=" M191,593 Q176,593 165.5,603.5 Q155,614 155,629 Q155,645 165.5,655 Q176,665 191,665 Q207,665 217.5,655 Q228,645 228,629 Q228,614 217.5,603.5 Q207,593 191,593 M185,456 L104,0 L60,0 L141,456"/> 
            <glyph glyph-name="j" unicode="&#x6A;" horiz-adv-x="218" d=" M145,629 Q145,652 163.5,660.5 Q182,669 200,660 Q218,651 218,629 Q218,614 207,603.5 Q196,593 181,593 Q166,593 155.5,603.5 Q145,614 145,629 M175,456 L85,-54 Q68,-152 25.5,-194 Q-17,-236 -104,-236 L-99,-196 Q-35,-194 -4.5,-163 Q26,-132 40,-57 L131,456"/> 
            <glyph glyph-name="k" unicode="&#x6B;" horiz-adv-x="531" d=" M151,251 L227,251 L472,456 L531,456 L282,244 L491,0 L438,0 L255,209 L144,209 L107,0 L62,0 L188,710 L232,710"/> 
            <glyph glyph-name="l" unicode="&#x6C;" horiz-adv-x="232" d=" M232,710 L107,0 L62,0 L188,710"/> 
            <glyph glyph-name="m" unicode="&#x6D;" horiz-adv-x="844" d=" M692,471 Q775,471 809.5,422 Q844,373 828,279 L778,0 L734,0 L782,273 Q810,430 681,430 Q594,430 491,394 Q502,355 490,287 L439,0 L395,0 L444,280 Q459,363 434,396.5 Q409,430 334,430 Q255,426 174,413 L101,0 L56,0 L134,446 Q244,467 346,471 Q441,471 472,428 Q583,471 692,471"/> 
            <glyph glyph-name="n" unicode="&#x6E;" horiz-adv-x="548" d=" M382,471 Q468,471 508,420.5 Q548,370 532,279 L483,0 L438,0 L486,273 Q499,348 468.5,389 Q438,430 370,430 Q274,430 174,413 L101,0 L56,0 L134,446 Q241,471 382,471"/> 
            <glyph glyph-name="o" unicode="&#x6F;" horiz-adv-x="558" d=" M348,472 Q445,472 501.5,417.5 Q558,363 558,269 Q558,149 472,66 Q387,-16 265,-16 Q169,-16 112.5,40 Q56,96 56,190 Q56,313 141,392 Q227,472 348,472 M272,26 Q371,26 441,94 Q511,161 511,262 Q511,340 465.5,385.5 Q420,431 341,431 Q241,431 171,364 Q102,296 102,196 Q102,118 148,72 Q194,26 272,26"/> 
            <glyph glyph-name="p" unicode="&#x70;" horiz-adv-x="563" d=" M364,471 Q459,471 511,414.5 Q563,358 558,264 Q553,141 475,63 Q397,-15 280,-15 Q183,-15 101,2 L61,-223 L17,-223 L135,446 Q257,471 364,471 M284,24 Q384,24 449,93 Q514,164 514,269 Q514,344 471.5,387.5 Q429,431 353,431 Q257,431 174,415 L108,41 Q190,24 284,24"/> 
            <glyph glyph-name="q" unicode="&#x71;" horiz-adv-x="561" d=" M347,471 Q462,471 561,446 L443,-223 L399,-223 L439,2 Q351,-15 252,-15 Q160,-15 108,42 Q56,99 61,195 Q65,317 144,394 Q224,471 347,471 M264,24 Q357,24 445,41 L511,415 Q432,431 337,431 Q236,431 171,363 Q106,295 106,190 Q106,114 148,69 Q190,24 264,24"/> 
            <glyph glyph-name="r" unicode="&#x72;" horiz-adv-x="379" d=" M379,470 L373,427 Q274,427 175,415 L102,0 L57,0 L135,449 Q264,470 379,470"/> 
            <glyph glyph-name="s" unicode="&#x73;" horiz-adv-x="469" d=" M33,32 L51,71 Q150,24 235,24 Q302,24 343.5,52 Q385,80 385,127 Q391,158 345,185 Q339,190 315,198 Q292,206 284,207 L248,216 L236,219 Q171,234 139.5,258.5 Q108,283 108,326 Q108,392 161,431.5 Q214,471 302,471 Q394,471 469,440 L450,402 Q374,432 293,432 Q230,432 192,405 Q154,378 154,333 Q154,304 178,288 Q202,272 262,257 Q353,235 391.5,210.5 Q430,186 430,138 Q430,67 374.5,26 Q319,-15 226,-15 Q132,-15 33,32"/> 
            <glyph glyph-name="t" unicode="&#x74;" horiz-adv-x="391" d=" M333,35 L335,-2 Q284,-15 241,-15 Q164,-15 136,26 Q108,67 124,157 L169,415 L59,415 L66,456 L177,456 L212,658 L257,658 L221,456 L391,456 L383,415 L214,415 L169,158 Q156,87 175,56.5 Q194,26 252,26 Q290,26 333,35"/> 
            <glyph glyph-name="u" unicode="&#x75;" horiz-adv-x="570" d=" M570,456 L492,10 Q385,-15 245,-15 Q157,-15 117.5,35 Q78,85 95,177 L144,456 L188,456 L140,182 Q127,106 157,65.5 Q187,25 256,25 Q356,25 452,41 L526,456"/> 
            <glyph glyph-name="v" unicode="&#x76;" horiz-adv-x="590" d=" M281,0 L232,0 L85,456 L134,456 L264,51 L539,456 L590,456"/> 
            <glyph glyph-name="w" unicode="&#x77;" horiz-adv-x="813" d=" M557,0 L512,0 L442,389 L232,0 L187,0 L93,456 L139,456 L221,64 L433,456 L473,456 L543,63 L766,456 L813,456"/> 
            <glyph glyph-name="x" unicode="&#x78;" horiz-adv-x="528" d=" M295,227 L451,0 L397,0 L261,196 L57,0 L0,0 L237,227 L86,456 L140,456 L271,260 L470,456 L528,456"/> 
            <glyph glyph-name="y" unicode="&#x79;" horiz-adv-x="605" d=" M605,456 L130,-223 L81,-223 L258,31 L81,456 L131,456 L290,77 L553,456"/> 
            <glyph glyph-name="z" unicode="&#x7A;" horiz-adv-x="475" d=" M469,427 L88,40 L405,40 L398,0 L16,0 L20,27 L404,416 L101,416 L108,456 L475,456"/> 
            <glyph glyph-name="{" unicode="&#x7B;" horiz-adv-x="401" d=" M260,578 L229,406 Q218,342 196,308.5 Q174,275 132,260 Q201,235 178,114 L148,-58 Q135,-129 155,-157 Q175,-185 237,-185 L228,-226 Q147,-226 117.5,-184.5 Q88,-143 104,-53 L134,117 Q146,188 126.5,215 Q107,242 45,242 L53,282 Q113,282 143,311 Q173,340 186,411 L216,580 Q232,670 274.5,709.5 Q317,749 401,749 L393,708 Q334,708 303.5,678 Q273,648 260,578"/> 
            <glyph glyph-name="|" unicode="&#x7C;" horiz-adv-x="270" d=" M270,766 L108,-152 L65,-152 L227,766"/> 
            <glyph glyph-name="}" unicode="&#x7D;" horiz-adv-x="328" d=" M113,-54 L143,118 Q154,182 176,215 Q198,248 240,263 Q172,288 195,410 L225,581 Q237,652 217,680 Q197,708 135,708 L144,749 Q226,749 255.5,708 Q285,667 268,576 L238,407 Q226,337 246,309.5 Q266,282 328,282 L319,242 Q260,242 229.5,212.5 Q199,183 186,113 L156,-56 Q140,-147 97.5,-186.5 Q55,-226 -29,-226 L-21,-185 Q38,-185 69,-154.5 Q100,-124 113,-54"/> 
            <glyph glyph-name="~" unicode="&#x7E;" horiz-adv-x="430" d=" M390,391 L430,391 Q424,356 404.5,332.5 Q385,309 361.5,301 Q338,293 314,295.5 Q290,298 273,311 L213,358 Q189,378 155,365 Q120,353 113,314 L73,314 Q79,349 99,372.5 Q119,396 143.5,403.5 Q168,411 192.5,408.5 Q217,406 233,394 L292,347 Q316,327 349,339 Q383,352 390,391"/> 
            <glyph glyph-name="¡" unicode="&#xA1;" horiz-adv-x="203" d=" M162,472 Q185,472 194,454 Q203,436 194,418 Q185,400 162,400 Q147,400 136,410.5 Q125,421 125,436 Q125,451 136,461.5 Q147,472 162,472 M25,-218 L117,293 L162,293 L74,-218"/> 
            <glyph glyph-name="¢" unicode="&#xA2;" horiz-adv-x="499" d=" M433,63 L435,24 Q351,-1 278,-4 L256,-128 L214,-128 L236,-4 Q149,1 98,55 Q47,109 47,196 Q47,314 124,393 Q202,472 322,480 L343,603 L385,603 L364,481 Q436,478 499,456 L485,419 Q407,441 339,441 Q234,441 164,374 Q94,307 94,203 Q94,127 140,81.5 Q186,36 263,36 Q332,36 433,63"/> 
            <glyph glyph-name="£" unicode="&#xA3;" horiz-adv-x="614" d=" M543,0 L14,0 L21,40 L102,40 L145,287 L64,287 L72,327 L153,327 L181,491 Q198,584 272,639 Q349,695 455,695 Q538,695 614,674 L599,635 Q527,654 448,654 Q361,654 300.5,608.5 Q240,563 227,489 L198,327 L453,327 L446,287 L191,287 L148,40 L550,40"/> 
            <glyph glyph-name="¥" unicode="&#xA5;" horiz-adv-x="718" d=" M580,277 L574,241 L355,241 L336,136 L555,136 L549,99 L330,99 L312,0 L265,0 L283,99 L65,99 L71,136 L289,136 L308,241 L90,241 L95,277 L296,277 L97,680 L151,680 L340,297 L665,680 L718,680 L379,277"/> 
            <glyph glyph-name="¦" unicode="&#xA6;" horiz-adv-x="270" d=" M198,357 L154,357 L226,765 L270,765 M108,-153 L65,-153 L136,255 L180,255"/> 
            <glyph glyph-name="§" unicode="&#xA7;" horiz-adv-x="516" d=" M351,695 Q440,695 516,663 L496,627 Q416,657 342,657 Q272,657 232.5,629.5 Q193,602 193,554 Q193,524 219,504 Q241,488 322,446 Q413,400 449,365 Q488,329 488,276 Q488,218 456.5,179.5 Q425,141 353,103 Q395,70 395,26 Q395,-40 340.5,-80.5 Q286,-121 194,-121 Q107,-121 29,-88 L49,-52 Q124,-83 202,-83 Q272,-83 311.5,-55.5 Q351,-28 351,20 Q351,49 325,69 Q298,90 223,128 Q133,174 95,209 Q57,245 57,298 Q57,356 88.5,394.5 Q120,433 191,471 Q149,504 149,548 Q149,614 204,654.5 Q259,695 351,695 M220,452 Q153,417 126,386.5 Q99,356 99,309 Q99,264 132,236 Q167,207 245,166 Q302,137 325,123 Q390,156 417.5,187.5 Q445,219 445,266 Q445,310 412,338 Q381,365 299,408 Q258,430 220,452"/> 
            <glyph glyph-name="¨" unicode="&#xA8;" horiz-adv-x="511" d=" M268,663 Q282,663 292.5,653 Q303,643 303,629 Q303,614 292.5,604 Q282,594 268,594 Q253,594 242.5,604 Q232,614 232,629 Q232,643 242.5,653 Q253,663 268,663 M476,663 Q490,663 500.5,653 Q511,643 511,629 Q511,614 500.5,604 Q490,594 476,594 Q461,594 450.5,604 Q440,614 440,629 Q440,643 450.5,653 Q461,663 476,663"/> 
            <glyph glyph-name="©" unicode="&#xA9;" horiz-adv-x="806" d=" M181,593 Q284,695 441,695 Q598,695 701,593 Q806,492 806,340 Q806,188 701,86 Q597,-15 441,-15 Q285,-15 181,86 Q77,188 77,340 Q77,492 181,593 M441,667 Q298,667 203,573 Q107,478 107,340 Q107,202 203,107 Q298,13 441,13 Q585,13 680,107 Q777,201 777,340 Q777,479 680,573 Q585,667 441,667 M613,522 L599,490 Q525,511 477,511 Q389,511 334,456 Q280,400 280,317 Q280,184 430,184 Q470,184 567,204 L569,173 Q487,149 424,149 Q336,149 288,191.5 Q240,234 240,314 Q240,416 307,480 Q374,546 481,546 Q541,546 613,522"/> 
            <glyph glyph-name="ª" unicode="&#xAA;" horiz-adv-x="459" d=" M330,695 Q402,695 430.5,665 Q459,635 448,572 L413,370 Q310,352 235,352 Q105,352 105,438 Q105,546 276,554 L409,560 L412,571 Q419,619 398.5,640 Q378,661 324,661 Q264,661 184,650 L186,683 Q266,695 330,695 M404,529 L268,523 Q143,518 143,445 Q143,384 247,384 Q300,384 380,396"/> 
            <glyph glyph-name="«" unicode="&#xAB;" horiz-adv-x="484" d=" M241,79 L211,54 L59,246 L277,438 L301,411 L112,244 M424,79 L394,54 L242,246 L460,438 L484,411 L295,244"/> 
            <glyph glyph-name="®" unicode="&#xAE;" horiz-adv-x="813" d=" M188,593 Q293,695 449,695 Q606,695 709,593 Q813,492 813,340 Q813,188 709,86 Q605,-15 449,-15 Q294,-15 188,86 Q84,188 84,340 Q84,492 188,593 M687,573 Q592,667 449,667 Q307,667 210,573 Q114,478 114,340 Q114,202 210,107 Q307,13 449,13 Q592,13 687,107 Q784,201 784,340 Q784,479 687,573 M485,543 Q557,543 592,511.5 Q627,480 617,421 Q599,328 500,303 L590,151 L546,151 L463,295 Q459,295 453,294.5 Q447,294 444,293.5 Q441,293 439,293 L348,293 L322,151 L286,151 L355,539 Q428,543 485,543 M480,511 Q438,511 385,508 L353,325 L448,325 Q500,325 537,351 Q574,377 581,421 Q589,465 562,488 Q535,511 480,511"/> 
            <glyph glyph-name="¯" unicode="&#xAF;" horiz-adv-x="511" d=" M511,670 L505,634 L237,634 L244,670"/> 
            <glyph glyph-name="°" unicode="&#xB0;" horiz-adv-x="463" d=" M324,695 Q389,695 426,659 Q463,623 463,563 Q463,481 407,427 Q351,374 267,374 Q203,374 166,410 Q129,446 129,507 Q129,590 184,642 Q240,695 324,695 M274,412 Q338,412 381,452 Q424,492 424,556 Q424,603 395.5,631 Q367,659 318,659 Q255,659 211,618 Q168,578 168,514 Q168,467 196.5,439.5 Q225,412 274,412"/> 
            <glyph glyph-name="±" unicode="&#xB1;" horiz-adv-x="598" d=" M591,324 L384,324 L355,155 L310,155 L340,324 L140,324 L148,367 L347,367 L377,537 L422,537 L392,367 L598,367 M550,93 L543,50 L92,50 L99,93"/> 
            <glyph glyph-name="²" unicode="&#xB2;" horiz-adv-x="362" d=" M324,315 L59,315 L63,340 L221,459 Q260,486 277,501 Q294,516 308,538 Q323,562 323,587 Q323,653 239,653 Q185,653 122,625 L117,656 Q183,688 247,688 Q300,688 331,662 Q362,636 362,594 Q362,552 333.5,517 Q305,482 235,430 L126,348 L329,348"/> 
            <glyph glyph-name="³" unicode="&#xB3;" horiz-adv-x="376" d=" M372,656 L218,519 L227,519 Q284,518 315,495.5 Q346,473 346,434 Q346,379 299,343 Q252,307 182,307 Q105,307 50,338 L68,367 Q128,340 186,340 Q237,340 273,365 Q309,390 309,428 Q309,487 214,487 L157,487 L161,505 L317,646 L122,646 L128,680 L376,680"/> 
            <glyph glyph-name="´" unicode="&#xB4;" horiz-adv-x="467" d=" M467,731 L337,576 L292,576 L406,731"/> 
            <glyph glyph-name="¶" unicode="&#xB6;" horiz-adv-x="712" d=" M364,687 Q607,687 712,680 L574,-102 L528,-102 L659,639 Q573,642 502,643 L370,-102 L324,-102 L384,241 L285,241 Q187,241 133.5,289 Q80,337 80,422 Q80,546 155,616.5 Q230,687 364,687 M455,644 L354,645 Q245,645 186,588 Q127,531 127,428 Q127,360 169,321.5 Q211,283 290,283 L391,283"/> 
            <glyph glyph-name="·" unicode="&#xB7;" horiz-adv-x="178" d=" M134,215 Q111,214 101.5,233.5 Q92,253 101.5,272.5 Q111,292 134,290 Q158,292 168,272.5 Q178,253 168,233.5 Q158,214 134,215"/> 
            <glyph glyph-name="¸" unicode="&#xB8;" horiz-adv-x="275" d=" M190,-202 L150,-202 L230,-50 L275,-50"/> 
            <glyph glyph-name="¹" unicode="&#xB9;" horiz-adv-x="291" d=" M291,348 L284,315 L43,315 L50,348 L147,348 L198,635 L99,606 L97,639 L231,680 L242,680 L184,348"/> 
            <glyph glyph-name="º" unicode="&#xBA;" horiz-adv-x="456" d=" M308,695 Q375,695 415.5,655.5 Q456,616 456,552 Q456,466 395,408 Q334,351 247,351 Q180,351 139,391 Q98,431 98,497 Q98,584 159,639 Q221,695 308,695 M252,387 Q321,387 369,432 Q417,478 417,548 Q417,599 385,630 Q353,661 301,661 Q233,661 185,616 Q137,571 137,501 Q137,449 168.5,418 Q200,387 252,387"/> 
            <glyph glyph-name="»" unicode="&#xBB;" horiz-adv-x="467" d=" M102,413 L131,438 L284,245 L65,54 L41,80 L230,248 M285,413 L314,438 L467,245 L248,54 L224,80 L413,248"/> 
            <glyph glyph-name="¼" unicode="&#xBC;" horiz-adv-x="769" d=" M95,315 L102,348 L199,348 L250,635 L151,606 L149,639 L283,680 L294,680 L236,348 L343,348 L336,315 M758,680 L188,0 L153,0 L723,680 M769,116 L763,84 L705,84 L690,0 L653,0 L668,84 L434,84 L438,110 L716,365 L754,365 L710,116 M710,320 L489,116 L674,116"/> 
            <glyph glyph-name="½" unicode="&#xBD;" horiz-adv-x="804" d=" M66,315 L73,348 L170,348 L221,635 L122,606 L120,639 L254,680 L265,680 L207,348 L314,348 L307,315 M727,680 L157,0 L122,0 L692,680 M568,33 L772,33 L766,0 L501,0 L505,25 L663,144 Q702,171 719,186 Q736,201 750,223 Q765,247 765,272 Q765,338 681,338 Q627,338 564,310 L559,341 Q625,373 690,373 Q743,373 773.5,347 Q804,321 804,279 Q804,221 743,168 Q709,138 678,115"/> 
            <glyph glyph-name="¾" unicode="&#xBE;" horiz-adv-x="811" d=" M421,656 L267,519 L276,519 Q333,518 364,495.5 Q395,473 395,434 Q395,379 348,343 Q302,307 231,307 Q154,307 99,338 L117,367 Q177,340 235,340 Q286,340 322,365 Q358,390 358,428 Q358,487 263,487 L206,487 L210,505 L366,646 L171,646 L177,680 L425,680 M231,0 L196,0 L765,680 L800,680 M752,116 L811,116 L805,84 L746,84 L731,0 L695,0 L709,84 L475,84 L480,110 L758,365 L796,365 M530,116 L715,116 L752,320"/> 
            <glyph glyph-name="¿" unicode="&#xBF;" horiz-adv-x="395" d=" M359,444 Q343,444 332.5,454 Q322,464 322,479 Q322,495 332.5,505 Q343,515 359,515 Q374,515 384.5,505 Q395,495 395,479 Q395,464 384.5,454 Q374,444 359,444 M211,-190 Q117,-190 61,-142.5 Q5,-95 5,-14 Q5,87 81,157 Q157,227 271,227 L300,227 L318,337 L360,337 L339,186 L270,186 Q176,186 113,129 Q50,74 50,-9 Q50,-74 95,-111.5 Q140,-149 218,-149 Q293,-149 375,-129 L377,-169 Q293,-190 211,-190"/> 
            <glyph glyph-name="À" unicode="&#xC0;" horiz-adv-x="665" d=" M486,742 L443,742 L364,898 L424,898 M166,180 L54,0 L0,0 L430,685 L477,685 L665,0 L614,0 L566,180 M444,627 L191,222 L553,222"/> 
            <glyph glyph-name="Á" unicode="&#xC1;" horiz-adv-x="665" d=" M626,898 L494,742 L447,742 L565,898 M166,180 L54,0 L0,0 L430,685 L477,685 L665,0 L614,0 L566,180 M444,627 L191,222 L553,222"/> 
            <glyph glyph-name="Â" unicode="&#xC2;" horiz-adv-x="665" d=" M489,862 L362,742 L314,742 L472,898 L516,898 L618,742 L572,742 M166,180 L54,0 L0,0 L430,685 L477,685 L665,0 L614,0 L566,180 M444,627 L191,222 L553,222"/> 
            <glyph glyph-name="Ã" unicode="&#xC3;" horiz-adv-x="665" d=" M588,834 L628,834 Q623,804 606,783.5 Q589,763 568,756.5 Q547,750 526,752 Q505,754 491,765 L440,804 Q422,820 395,810 Q368,799 362,767 L323,767 Q328,797 345,817.5 Q362,838 382.5,844.5 Q403,851 424,849 Q445,847 459,837 L510,797 Q530,780 555,791 Q582,802 588,834 M166,180 L54,0 L0,0 L430,685 L477,685 L665,0 L614,0 L566,180 M444,627 L191,222 L553,222"/> 
            <glyph glyph-name="Ä" unicode="&#xC4;" horiz-adv-x="665" d=" M335,819 Q334,840 352.5,849 Q371,858 389.5,849 Q408,840 406,819 Q408,798 389.5,789.5 Q371,781 352.5,789.5 Q334,798 335,819 M543,819 Q542,840 560.5,849 Q579,858 597.5,849 Q616,840 614,819 Q616,798 597.5,789.5 Q579,781 560.5,789.5 Q542,798 543,819 M166,180 L54,0 L0,0 L430,685 L477,685 L665,0 L614,0 L566,180 M444,627 L191,222 L553,222"/> 
            <glyph glyph-name="Å" unicode="&#xC5;" horiz-adv-x="665" d=" M476,906 Q511,906 534.5,883 Q558,860 558,824 Q558,783 529.5,756 Q501,729 459,729 Q424,729 400.5,752.5 Q377,776 377,812 Q377,853 405.5,879.5 Q434,906 476,906 M463,759 Q490,759 508.5,777 Q527,795 527,823 Q527,847 511.5,862 Q496,877 472,877 Q445,877 426.5,858.5 Q408,840 408,813 Q408,789 423.5,774 Q439,759 463,759 M166,180 L54,0 L0,0 L430,685 L477,685 L665,0 L614,0 L566,180 M444,627 L191,222 L553,222"/> 
            <glyph glyph-name="Æ" unicode="&#xC6;" horiz-adv-x="1116" d=" M644,361 L1019,361 L1012,319 L637,319 L588,43 L1003,43 L996,0 L533,0 L565,179 L227,179 L59,0 L0,0 L638,680 L1116,680 L1109,637 L693,637 M644,625 L266,222 L573,222"/> 
            <glyph glyph-name="Ç" unicode="&#xC7;" horiz-adv-x="751" d=" M751,658 L734,618 Q623,651 527,651 Q352,651 243,549 Q134,449 134,290 Q134,169 206.5,100 Q279,31 408,31 Q514,31 656,70 L659,29 Q513,-15 399,-15 Q251,-15 167.5,64.5 Q84,144 84,285 Q84,466 206,580 Q328,695 528,695 Q641,695 751,658 M313,-202 L273,-202 L353,-50 L398,-50"/> 
            <glyph glyph-name="È" unicode="&#xC8;" horiz-adv-x="649" d=" M177,361 L553,361 L546,319 L170,319 L121,43 L537,43 L529,0 L67,0 L187,680 L649,680 L642,637 L226,637 M447,742 L404,742 L325,898 L385,898"/> 
            <glyph glyph-name="É" unicode="&#xC9;" horiz-adv-x="649" d=" M177,361 L553,361 L546,319 L170,319 L121,43 L537,43 L529,0 L67,0 L187,680 L649,680 L642,637 L226,637 M586,898 L454,742 L407,742 L525,898"/> 
            <glyph glyph-name="Ê" unicode="&#xCA;" horiz-adv-x="649" d=" M177,361 L553,361 L546,319 L170,319 L121,43 L537,43 L529,0 L67,0 L187,680 L649,680 L642,637 L226,637 M449,862 L322,742 L274,742 L432,898 L476,898 L578,742 L532,742"/> 
            <glyph glyph-name="Ë" unicode="&#xCB;" horiz-adv-x="649" d=" M177,361 L553,361 L546,319 L170,319 L121,43 L537,43 L529,0 L67,0 L187,680 L649,680 L642,637 L226,637 M296,819 Q295,840 313.5,849 Q332,858 350.5,849 Q369,840 367,819 Q369,798 350.5,789.5 Q332,781 313.5,789.5 Q295,798 296,819 M504,819 Q503,840 521.5,849 Q540,858 558.5,849 Q577,840 575,819 Q577,798 558.5,789.5 Q540,781 521.5,789.5 Q503,798 504,819"/> 
            <glyph glyph-name="Ì" unicode="&#xCC;" horiz-adv-x="241" d=" M241,742 L198,742 L119,898 L179,898 M233,680 L113,0 L67,0 L187,680"/> 
            <glyph glyph-name="Í" unicode="&#xCD;" horiz-adv-x="381" d=" M381,898 L249,742 L202,742 L320,898 M233,680 L113,0 L67,0 L187,680"/> 
            <glyph glyph-name="Î" unicode="&#xCE;" horiz-adv-x="373" d=" M244,862 L117,742 L69,742 L227,898 L271,898 L373,742 L327,742 M233,680 L113,0 L67,0 L187,680"/> 
            <glyph glyph-name="Ï" unicode="&#xCF;" horiz-adv-x="371" d=" M90,819 Q89,840 107.5,849 Q126,858 144.5,849 Q163,840 161,819 Q163,798 144.5,789.5 Q126,781 107.5,789.5 Q89,798 90,819 M298,819 Q297,840 315.5,849 Q334,858 352.5,849 Q371,840 369,819 Q371,798 352.5,789.5 Q334,781 315.5,789.5 Q297,798 298,819 M233,680 L113,0 L67,0 L187,680"/> 
            <glyph glyph-name="Ð" unicode="&#xD0;" horiz-adv-x="713" d=" M411,687 Q551,687 632,612 Q713,537 713,406 Q713,224 593,108 Q474,-6 294,-6 Q256,-6 67,0 L123,317 L41,317 L49,360 L131,360 L187,680 Q326,687 411,687 M301,37 Q457,37 560,137 Q663,237 663,400 Q663,514 593.5,579.5 Q524,645 404,645 Q340,645 226,639 L177,360 L367,360 L359,317 L169,317 L120,41 Q223,37 301,37"/> 
            <glyph glyph-name="Ñ" unicode="&#xD1;" horiz-adv-x="752" d=" M600,834 L640,834 Q635,804 618,783.5 Q601,763 580,756.5 Q559,750 538,752 Q517,754 503,765 L452,804 Q434,820 407,810 Q380,799 374,767 L335,767 Q340,797 357,817.5 Q374,838 394.5,844.5 Q415,851 436,849 Q457,847 471,837 L522,797 Q542,780 567,791 Q594,802 600,834 M752,680 L632,0 L587,0 L220,608 L112,0 L66,0 L186,680 L230,680 L598,71 L706,680"/> 
            <glyph glyph-name="Ò" unicode="&#xD2;" horiz-adv-x="809" d=" M536,742 L493,742 L414,898 L474,898 M509,695 Q646,695 728,615 Q809,536 809,402 Q809,222 687,103 Q566,-15 383,-15 Q249,-15 166,65 Q84,146 84,278 Q84,464 202,579 Q321,695 509,695 M392,28 Q549,28 655,132 Q760,236 760,396 Q760,512 690,582 Q621,652 502,652 Q338,652 236,550 Q134,448 134,283 Q134,169 205,98 Q275,28 392,28"/> 
            <glyph glyph-name="Ó" unicode="&#xD3;" horiz-adv-x="809" d=" M676,898 L544,742 L497,742 L615,898 M509,695 Q646,695 728,615 Q809,536 809,402 Q809,222 687,103 Q566,-15 383,-15 Q249,-15 166,65 Q84,146 84,278 Q84,464 202,579 Q321,695 509,695 M392,28 Q549,28 655,132 Q760,236 760,396 Q760,512 690,582 Q621,652 502,652 Q338,652 236,550 Q134,448 134,283 Q134,169 205,98 Q275,28 392,28"/> 
            <glyph glyph-name="Ô" unicode="&#xD4;" horiz-adv-x="809" d=" M539,862 L412,742 L364,742 L522,898 L566,898 L668,742 L622,742 M509,695 Q646,695 728,615 Q809,536 809,402 Q809,222 687,103 Q566,-15 383,-15 Q249,-15 166,65 Q84,146 84,278 Q84,464 202,579 Q321,695 509,695 M392,28 Q549,28 655,132 Q760,236 760,396 Q760,512 690,582 Q621,652 502,652 Q338,652 236,550 Q134,448 134,283 Q134,169 205,98 Q275,28 392,28"/> 
            <glyph glyph-name="Õ" unicode="&#xD5;" horiz-adv-x="809" d=" M638,834 L678,834 Q673,804 656,783.5 Q639,763 618,756.5 Q597,750 576,752 Q555,754 541,765 L490,804 Q472,820 445,810 Q418,799 412,767 L373,767 Q378,797 395,817.5 Q412,838 432.5,844.5 Q453,851 474,849 Q495,847 509,837 L560,797 Q580,780 605,791 Q632,802 638,834 M509,695 Q646,695 728,615 Q809,536 809,402 Q809,222 687,103 Q566,-15 383,-15 Q249,-15 166,65 Q84,146 84,278 Q84,464 202,579 Q321,695 509,695 M392,28 Q549,28 655,132 Q760,236 760,396 Q760,512 690,582 Q621,652 502,652 Q338,652 236,550 Q134,448 134,283 Q134,169 205,98 Q275,28 392,28"/> 
            <glyph glyph-name="Ö" unicode="&#xD6;" horiz-adv-x="809" d=" M385,819 Q384,840 402.5,849 Q421,858 439.5,849 Q458,840 456,819 Q458,798 439.5,789.5 Q421,781 402.5,789.5 Q384,798 385,819 M593,819 Q592,840 610.5,849 Q629,858 647.5,849 Q666,840 664,819 Q666,798 647.5,789.5 Q629,781 610.5,789.5 Q592,798 593,819 M509,695 Q646,695 728,615 Q809,536 809,402 Q809,222 687,103 Q566,-15 383,-15 Q249,-15 166,65 Q84,146 84,278 Q84,464 202,579 Q321,695 509,695 M392,28 Q549,28 655,132 Q760,236 760,396 Q760,512 690,582 Q621,652 502,652 Q338,652 236,550 Q134,448 134,283 Q134,169 205,98 Q275,28 392,28"/> 
            <glyph glyph-name="×" unicode="&#xD7;" horiz-adv-x="567" d=" M509,153 L474,123 L339,287 L146,123 L120,154 L313,318 L179,481 L213,511 L348,349 L540,512 L567,481 L374,317"/> 
            <glyph glyph-name="Ø" unicode="&#xD8;" horiz-adv-x="809" d=" M807,665 L741,601 Q809,524 809,402 Q809,222 687,103 Q566,-15 383,-15 Q262,-15 180,53 L112,-13 L84,14 L152,80 Q84,160 84,278 Q84,464 202,579 Q321,695 509,695 Q634,695 713,629 L778,693 M134,283 Q134,184 188,116 L677,594 Q609,652 502,652 Q338,652 236,550 Q134,448 134,283 M392,28 Q549,28 655,132 Q760,236 760,396 Q760,499 705,566 L216,88 Q285,28 392,28"/> 
            <glyph glyph-name="Ù" unicode="&#xD9;" horiz-adv-x="768" d=" M515,742 L472,742 L393,898 L453,898 M768,680 L695,265 Q672,138 581,62 Q489,-15 362,-15 Q234,-15 168,61 Q103,138 125,265 L199,680 L246,680 L172,265 Q152,158 207,93 Q261,29 369,29 Q475,29 552,94 Q628,158 648,265 L721,680"/> 
            <glyph glyph-name="Ú" unicode="&#xDA;" horiz-adv-x="768" d=" M655,898 L523,742 L476,742 L594,898 M768,680 L695,265 Q672,138 581,62 Q489,-15 362,-15 Q234,-15 168,61 Q103,138 125,265 L199,680 L246,680 L172,265 Q152,158 207,93 Q261,29 369,29 Q475,29 552,94 Q628,158 648,265 L721,680"/> 
            <glyph glyph-name="Û" unicode="&#xDB;" horiz-adv-x="768" d=" M517,862 L390,742 L342,742 L500,898 L544,898 L646,742 L600,742 M768,680 L695,265 Q672,138 581,62 Q489,-15 362,-15 Q234,-15 168,61 Q103,138 125,265 L199,680 L246,680 L172,265 Q152,158 207,93 Q261,29 369,29 Q475,29 552,94 Q628,158 648,265 L721,680"/> 
            <glyph glyph-name="Ü" unicode="&#xDC;" horiz-adv-x="768" d=" M364,819 Q363,840 381.5,849 Q400,858 418.5,849 Q437,840 435,819 Q437,798 418.5,789.5 Q400,781 381.5,789.5 Q363,798 364,819 M572,819 Q571,840 589.5,849 Q608,858 626.5,849 Q645,840 643,819 Q645,798 626.5,789.5 Q608,781 589.5,789.5 Q571,798 572,819 M768,680 L695,265 Q672,138 581,62 Q489,-15 362,-15 Q234,-15 168,61 Q103,138 125,265 L199,680 L246,680 L172,265 Q152,158 207,93 Q261,29 369,29 Q475,29 552,94 Q628,158 648,265 L721,680"/> 
            <glyph glyph-name="Ý" unicode="&#xDD;" horiz-adv-x="728" d=" M589,898 L457,742 L410,742 L528,898 M318,250 L107,680 L160,680 L349,298 L674,680 L728,680 L366,250 L322,0 L273,0"/> 
            <glyph glyph-name="Þ" unicode="&#xDE;" horiz-adv-x="617" d=" M393,574 Q497,574 557,524.5 Q617,475 617,387 Q617,273 531,199 Q446,127 314,127 L136,127 L114,0 L67,0 L187,680 L234,680 L214,569 Q342,574 393,574 M144,169 L325,169 Q430,169 500,228 Q570,286 570,380 Q570,452 521.5,491.5 Q473,531 388,531 Q304,531 206,526"/> 
            <glyph glyph-name="ß" unicode="&#xDF;" horiz-adv-x="617" d=" M347,754 L342,713 Q284,713 253,681.5 Q222,650 209,579 L188,456 L617,456 L612,426 L346,183 L384,182 Q477,180 525.5,131 Q574,82 563,1 Q549,-94 471,-152 Q392,-211 280,-211 Q214,-211 143,-191 L156,-153 Q230,-171 288,-171 Q378,-171 443,-124 Q507,-78 518,-2 Q528,65 486.5,104 Q445,143 365,143 L273,143 L278,165 L545,414 L180,414 L107,0 L62,0 L165,584 Q182,675 224,714.5 Q266,754 347,754"/> 
            <glyph glyph-name="à" unicode="&#xE0;" horiz-adv-x="561" d=" M421,576 L379,576 L301,731 L362,731 M340,471 Q451,471 561,446 L482,0 L438,0 L445,43 Q342,-15 252,-15 Q159,-15 107.5,42 Q56,99 61,195 Q66,317 144,393 Q224,471 340,471 M337,431 Q236,431 171,363 Q106,295 106,190 Q106,114 148,69 Q190,24 264,24 Q346,24 453,84 L511,415 Q432,431 337,431"/> 
            <glyph glyph-name="á" unicode="&#xE1;" horiz-adv-x="561" d=" M520,731 L390,576 L345,576 L459,731 M340,471 Q451,471 561,446 L482,0 L438,0 L445,43 Q342,-15 252,-15 Q159,-15 107.5,42 Q56,99 61,195 Q66,317 144,393 Q224,471 340,471 M337,431 Q236,431 171,363 Q106,295 106,190 Q106,114 148,69 Q190,24 264,24 Q346,24 453,84 L511,415 Q432,431 337,431"/> 
            <glyph glyph-name="â" unicode="&#xE2;" horiz-adv-x="561" d=" M404,687 L277,569 L230,569 L387,724 L431,724 L534,569 L487,569 M340,471 Q451,471 561,446 L482,0 L438,0 L445,43 Q342,-15 252,-15 Q159,-15 107.5,42 Q56,99 61,195 Q66,317 144,393 Q224,471 340,471 M337,431 Q236,431 171,363 Q106,295 106,190 Q106,114 148,69 Q190,24 264,24 Q346,24 453,84 L511,415 Q432,431 337,431"/> 
            <glyph glyph-name="ã" unicode="&#xE3;" horiz-adv-x="561" d=" M504,667 L543,667 Q536,627 509.5,605 Q483,583 455.5,584.5 Q428,586 407,598 L356,638 Q339,654 310,643 Q283,632 277,601 L238,601 Q245,641 271.5,663 Q298,685 325.5,683.5 Q353,682 375,670 L426,631 Q444,615 471,624 Q498,635 504,667 M340,471 Q451,471 561,446 L482,0 L438,0 L445,43 Q342,-15 252,-15 Q159,-15 107.5,42 Q56,99 61,195 Q66,317 144,393 Q224,471 340,471 M337,431 Q236,431 171,363 Q106,295 106,190 Q106,114 148,69 Q190,24 264,24 Q346,24 453,84 L511,415 Q432,431 337,431"/> 
            <glyph glyph-name="ä" unicode="&#xE4;" horiz-adv-x="561" d=" M285,663 Q299,663 309.5,653 Q320,643 320,629 Q320,614 309.5,604 Q299,594 285,594 Q270,594 259.5,604 Q249,614 249,629 Q249,643 259.5,653 Q270,663 285,663 M493,663 Q507,663 517.5,653 Q528,643 528,629 Q528,614 517.5,604 Q507,594 493,594 Q478,594 467.5,604 Q457,614 457,629 Q457,643 467.5,653 Q478,663 493,663 M340,471 Q451,471 561,446 L482,0 L438,0 L445,43 Q342,-15 252,-15 Q159,-15 107.5,42 Q56,99 61,195 Q66,317 144,393 Q224,471 340,471 M337,431 Q236,431 171,363 Q106,295 106,190 Q106,114 148,69 Q190,24 264,24 Q346,24 453,84 L511,415 Q432,431 337,431"/> 
            <glyph glyph-name="å" unicode="&#xE5;" horiz-adv-x="561" d=" M386,731 Q422,731 445,708.5 Q468,686 468,650 Q468,609 439.5,582 Q411,555 369,555 Q333,555 310,578 Q287,601 287,637 Q287,679 315,705 Q343,731 386,731 M373,584 Q400,584 418.5,602 Q437,620 437,648 Q437,672 421.5,687.5 Q406,703 382,703 Q355,703 336.5,684.5 Q318,666 318,639 Q318,615 333.5,599.5 Q349,584 373,584 M340,471 Q451,471 561,446 L482,0 L438,0 L445,43 Q342,-15 252,-15 Q159,-15 107.5,42 Q56,99 61,195 Q66,317 144,393 Q224,471 340,471 M337,431 Q236,431 171,363 Q106,295 106,190 Q106,114 148,69 Q190,24 264,24 Q346,24 453,84 L511,415 Q432,431 337,431"/> 
            <glyph glyph-name="æ" unicode="&#xE6;" horiz-adv-x="871" d=" M675,471 Q773,471 822,410 Q871,350 852,247 L844,211 L440,211 L439,192 Q439,116 483,71 Q527,26 602,26 Q656,26 777,52 L778,16 Q678,-15 594,-15 Q503,-15 447,38 Q312,-15 205,-15 Q30,-15 30,104 Q30,251 257,249 L398,247 L404,274 L408,294 Q419,358 387.5,394.5 Q356,431 297,431 Q208,431 113,416 L115,454 Q217,472 305,472 Q366,472 404.5,445 Q443,418 452,367 Q535,471 675,471 M669,433 Q584,433 522,382 Q461,331 444,248 L810,248 Q826,332 787,382.5 Q748,433 669,433 M75,112 Q75,23 220,23 Q304,23 423,68 Q392,117 392,186 L393,208 L247,209 Q75,210 75,112"/> 
            <glyph glyph-name="ç" unicode="&#xE7;" horiz-adv-x="507" d=" M507,446 L493,410 Q411,431 348,431 Q242,431 172,364 Q102,297 102,193 Q102,117 148,72 Q194,27 271,27 Q338,27 442,54 L444,14 Q342,-15 265,-15 Q169,-15 112.5,40 Q56,95 56,186 Q56,312 141,391 Q227,471 356,471 Q438,471 507,446 M177,-202 L137,-202 L217,-50 L262,-50"/> 
            <glyph glyph-name="è" unicode="&#xE8;" horiz-adv-x="544" d=" M408,576 L366,576 L288,731 L349,731 M351,471 Q450,471 497,412 Q544,353 528,248 Q526,229 520,211 L117,211 Q109,123 151.5,75 Q194,27 281,27 Q332,27 453,53 L455,16 Q350,-15 277,-15 Q166,-15 111.5,49 Q57,113 72,220 Q89,335 166,402 Q244,471 351,471 M345,433 Q263,433 203,382 Q143,332 123,248 L485,248 Q511,433 345,433"/> 
            <glyph glyph-name="é" unicode="&#xE9;" horiz-adv-x="544" d=" M507,731 L377,576 L332,576 L446,731 M351,471 Q450,471 497,412 Q544,353 528,248 Q526,229 520,211 L117,211 Q109,123 151.5,75 Q194,27 281,27 Q332,27 453,53 L455,16 Q350,-15 277,-15 Q166,-15 111.5,49 Q57,113 72,220 Q89,335 166,402 Q244,471 351,471 M345,433 Q263,433 203,382 Q143,332 123,248 L485,248 Q511,433 345,433"/> 
            <glyph glyph-name="ê" unicode="&#xEA;" horiz-adv-x="544" d=" M391,687 L264,569 L217,569 L374,724 L418,724 L521,569 L474,569 M351,471 Q450,471 497,412 Q544,353 528,248 Q526,229 520,211 L117,211 Q109,123 151.5,75 Q194,27 281,27 Q332,27 453,53 L455,16 Q350,-15 277,-15 Q166,-15 111.5,49 Q57,113 72,220 Q89,335 166,402 Q244,471 351,471 M345,433 Q263,433 203,382 Q143,332 123,248 L485,248 Q511,433 345,433"/> 
            <glyph glyph-name="ë" unicode="&#xEB;" horiz-adv-x="544" d=" M272,663 Q286,663 296.5,653 Q307,643 307,629 Q307,614 296.5,604 Q286,594 272,594 Q257,594 246.5,604 Q236,614 236,629 Q236,643 246.5,653 Q257,663 272,663 M480,663 Q494,663 504.5,653 Q515,643 515,629 Q515,614 504.5,604 Q494,594 480,594 Q465,594 454.5,604 Q444,614 444,629 Q444,643 454.5,653 Q465,663 480,663 M351,471 Q450,471 497,412 Q544,353 528,248 Q526,229 520,211 L117,211 Q109,123 151.5,75 Q194,27 281,27 Q332,27 453,53 L455,16 Q350,-15 277,-15 Q166,-15 111.5,49 Q57,113 72,220 Q89,335 166,402 Q244,471 351,471 M345,433 Q263,433 203,382 Q143,332 123,248 L485,248 Q511,433 345,433"/> 
            <glyph glyph-name="ì" unicode="&#xEC;" horiz-adv-x="186" d=" M186,576 L144,576 L66,731 L127,731 M185,456 L105,0 L60,0 L141,456"/> 
            <glyph glyph-name="í" unicode="&#xED;" horiz-adv-x="334" d=" M334,731 L204,576 L159,576 L273,731 M185,456 L105,0 L60,0 L141,456"/> 
            <glyph glyph-name="î" unicode="&#xEE;" horiz-adv-x="337" d=" M207,687 L80,569 L33,569 L190,724 L234,724 L337,569 L290,569 M185,456 L105,0 L60,0 L141,456"/> 
            <glyph glyph-name="ï" unicode="&#xEF;" horiz-adv-x="331" d=" M88,663 Q102,663 112.5,653 Q123,643 123,629 Q123,614 112.5,604 Q102,594 88,594 Q73,594 62.5,604 Q52,614 52,629 Q52,643 62.5,653 Q73,663 88,663 M296,663 Q310,663 320.5,653 Q331,643 331,629 Q331,614 320.5,604 Q310,594 296,594 Q281,594 270.5,604 Q260,614 260,629 Q260,643 270.5,653 Q281,663 296,663 M185,456 L105,0 L60,0 L141,456"/> 
            <glyph glyph-name="ð" unicode="&#xF0;" horiz-adv-x="594" d=" M292,691 L343,709 Q408,688 455,645 L542,676 L548,645 L482,621 Q545,555 569.5,456.5 Q594,358 574,240 Q552,118 476,51 Q400,-16 285,-16 Q176,-16 117,53 Q59,123 79,233 Q99,341 177,406 Q256,472 361,472 Q426,472 471.5,445.5 Q517,419 534,371 Q528,520 438,606 L260,544 L254,575 L410,630 Q358,672 292,691 M361,431 Q270,431 203,373 Q137,317 123,224 Q110,136 155,80 Q202,26 287,26 Q384,26 447.5,83.5 Q511,141 527,244 Q540,330 494.5,380.5 Q449,431 361,431"/> 
            <glyph glyph-name="ñ" unicode="&#xF1;" horiz-adv-x="548" d=" M489,667 L528,667 Q521,627 494.5,605 Q468,583 440.5,584.5 Q413,586 392,598 L341,638 Q324,654 295,643 Q268,632 262,601 L223,601 Q230,641 256.5,663 Q283,685 310.5,683.5 Q338,682 360,670 L411,631 Q429,615 456,624 Q483,635 489,667 M382,471 Q468,471 508,420.5 Q548,370 532,279 L483,0 L438,0 L486,273 Q499,348 468.5,389 Q438,430 370,430 Q274,430 174,413 L101,0 L56,0 L134,446 Q243,471 382,471"/> 
            <glyph glyph-name="ò" unicode="&#xF2;" horiz-adv-x="558" d=" M407,576 L365,576 L287,731 L348,731 M348,472 Q445,472 501.5,417.5 Q558,363 558,269 Q558,149 472,66 Q387,-16 265,-16 Q169,-16 112.5,40 Q56,96 56,190 Q56,313 141,392 Q227,472 348,472 M272,26 Q371,26 441,94 Q511,161 511,262 Q511,340 465.5,385.5 Q420,431 341,431 Q241,431 171,364 Q102,296 102,196 Q102,118 147.5,72 Q193,26 272,26"/> 
            <glyph glyph-name="ó" unicode="&#xF3;" horiz-adv-x="558" d=" M506,731 L376,576 L331,576 L445,731 M348,472 Q445,472 501.5,417.5 Q558,363 558,269 Q558,149 472,66 Q387,-16 265,-16 Q169,-16 112.5,40 Q56,96 56,190 Q56,313 141,392 Q227,472 348,472 M272,26 Q371,26 441,94 Q511,161 511,262 Q511,340 465.5,385.5 Q420,431 341,431 Q241,431 171,364 Q102,296 102,196 Q102,118 147.5,72 Q193,26 272,26"/> 
            <glyph glyph-name="ô" unicode="&#xF4;" horiz-adv-x="558" d=" M391,687 L264,569 L217,569 L374,724 L418,724 L521,569 L474,569 M348,472 Q445,472 501.5,417.5 Q558,363 558,269 Q558,149 472,66 Q387,-16 265,-16 Q169,-16 112.5,40 Q56,96 56,190 Q56,313 141,392 Q227,472 348,472 M272,26 Q371,26 441,94 Q511,161 511,262 Q511,340 465.5,385.5 Q420,431 341,431 Q241,431 171,364 Q102,296 102,196 Q102,118 147.5,72 Q193,26 272,26"/> 
            <glyph glyph-name="õ" unicode="&#xF5;" horiz-adv-x="558" d=" M491,667 L530,667 Q523,627 496.5,605 Q470,583 442.5,584.5 Q415,586 394,598 L343,638 Q326,654 297,643 Q270,632 264,601 L225,601 Q232,641 258.5,663 Q285,685 312.5,683.5 Q340,682 362,670 L413,631 Q431,615 458,624 Q485,635 491,667 M348,472 Q445,472 501.5,417.5 Q558,363 558,269 Q558,149 472,66 Q387,-16 265,-16 Q169,-16 112.5,40 Q56,96 56,190 Q56,313 141,392 Q227,472 348,472 M272,26 Q371,26 441,94 Q511,161 511,262 Q511,340 465.5,385.5 Q420,431 341,431 Q241,431 171,364 Q102,296 102,196 Q102,118 147.5,72 Q193,26 272,26"/> 
            <glyph glyph-name="ö" unicode="&#xF6;" horiz-adv-x="558" d=" M272,663 Q286,663 296.5,653 Q307,643 307,629 Q307,614 296.5,604 Q286,594 272,594 Q257,594 246.5,604 Q236,614 236,629 Q236,643 246.5,653 Q257,663 272,663 M480,663 Q494,663 504.5,653 Q515,643 515,629 Q515,614 504.5,604 Q494,594 480,594 Q465,594 454.5,604 Q444,614 444,629 Q444,643 454.5,653 Q465,663 480,663 M348,472 Q445,472 501.5,417.5 Q558,363 558,269 Q558,149 472,66 Q387,-16 265,-16 Q169,-16 112.5,40 Q56,96 56,190 Q56,313 141,392 Q227,472 348,472 M272,26 Q371,26 441,94 Q511,161 511,262 Q511,340 465.5,385.5 Q420,431 341,431 Q241,431 171,364 Q102,296 102,196 Q102,118 147.5,72 Q193,26 272,26"/> 
            <glyph glyph-name="÷" unicode="&#xF7;" horiz-adv-x="594" d=" M367,502 Q367,517 377,526.5 Q387,536 401,536 Q416,536 426,526.5 Q436,517 436,502 Q436,482 419,473.5 Q402,465 384.5,473.5 Q367,482 367,502 M144,340 L594,340 L586,298 L136,298 M325,112 Q302,89 278,113 Q254,137 277,160 Q290,176 309.5,169 Q329,162 334.5,145 Q340,128 325,112"/> 
            <glyph glyph-name="ø" unicode="&#xF8;" horiz-adv-x="576" d=" M576,477 L508,410 Q558,357 558,269 Q558,149 472,66 Q387,-16 265,-16 Q179,-16 123,30 L53,-39 L28,-16 L99,55 Q56,107 56,190 Q56,313 141,392 Q227,472 348,472 Q430,472 482,433 L551,501 M102,196 Q102,132 134,88 L449,400 Q406,431 341,431 Q241,431 171,364 Q102,296 102,196 M511,262 Q511,333 474,376 L157,63 Q201,26 272,26 Q371,26 441,94 Q511,161 511,262"/> 
            <glyph glyph-name="ù" unicode="&#xF9;" horiz-adv-x="569" d=" M419,576 L377,576 L299,731 L360,731 M569,456 L491,10 Q384,-15 244,-15 Q156,-15 116.5,34.5 Q77,84 93,177 L143,456 L187,456 L139,182 Q126,106 156,65.5 Q186,25 255,25 Q355,25 451,41 L525,456"/> 
            <glyph glyph-name="ú" unicode="&#xFA;" horiz-adv-x="569" d=" M519,731 L389,576 L344,576 L458,731 M569,456 L491,10 Q384,-15 244,-15 Q156,-15 116.5,34.5 Q77,84 93,177 L143,456 L187,456 L139,182 Q126,106 156,65.5 Q186,25 255,25 Q355,25 451,41 L525,456"/> 
            <glyph glyph-name="û" unicode="&#xFB;" horiz-adv-x="569" d=" M403,687 L276,569 L229,569 L386,724 L430,724 L533,569 L486,569 M569,456 L491,10 Q384,-15 244,-15 Q156,-15 116.5,34.5 Q77,84 93,177 L143,456 L187,456 L139,182 Q126,106 156,65.5 Q186,25 255,25 Q355,25 451,41 L525,456"/> 
            <glyph glyph-name="ü" unicode="&#xFC;" horiz-adv-x="569" d=" M283,663 Q298,663 308.5,653 Q319,643 319,629 Q319,614 308.5,604 Q298,594 283,594 Q269,594 258.5,604 Q248,614 248,629 Q248,643 258.5,653 Q269,663 283,663 M491,663 Q506,663 516.5,653 Q527,643 527,629 Q527,614 516.5,604 Q506,594 491,594 Q477,594 466.5,604 Q456,614 456,629 Q456,643 466.5,653 Q477,663 491,663 M569,456 L491,10 Q384,-15 244,-15 Q156,-15 116.5,34.5 Q77,84 93,177 L143,456 L187,456 L139,182 Q126,106 156,65.5 Q186,25 255,25 Q355,25 451,41 L525,456"/> 
            <glyph glyph-name="ý" unicode="&#xFD;" horiz-adv-x="605" d=" M362,576 L317,576 L431,731 L492,731 M605,456 L131,-223 L81,-223 L258,31 L81,456 L131,456 L290,77 L554,456"/> 
            <glyph glyph-name="þ" unicode="&#xFE;" horiz-adv-x="567" d=" M562,264 Q557,141 479,63 Q401,-15 284,-15 Q187,-15 105,2 L65,-223 L21,-223 L185,710 L230,710 L184,454 Q275,471 368,471 Q463,471 514,414 Q566,358 562,264 M285,24 Q385,24 451,93 Q518,163 518,269 Q518,344 475.5,387.5 Q433,431 357,431 Q261,431 178,415 L112,41 Q194,24 285,24"/> 
            <glyph glyph-name="ÿ" unicode="&#xFF;" horiz-adv-x="605" d=" M257,594 Q242,594 231.5,604 Q221,614 221,629 Q221,643 231.5,653 Q242,663 257,663 Q271,663 281.5,653 Q292,643 292,629 Q292,614 281.5,604 Q271,594 257,594 M465,594 Q450,594 439.5,604 Q429,614 429,629 Q429,643 439.5,653 Q450,663 465,663 Q479,663 489.5,653 Q500,643 500,629 Q500,614 489.5,604 Q479,594 465,594 M605,456 L131,-223 L81,-223 L258,31 L81,456 L131,456 L290,77 L554,456"/> 
            <glyph glyph-name="Ā" unicode="&#x100;" horiz-adv-x="665" d=" M618,822 L612,786 L336,786 L342,822 M166,180 L54,0 L0,0 L430,685 L477,685 L665,0 L614,0 L566,180 M444,627 L191,222 L553,222"/> 
            <glyph glyph-name="ā" unicode="&#x101;" horiz-adv-x="561" d=" M531,670 L525,634 L257,634 L264,670 M340,471 Q451,471 561,446 L482,0 L438,0 L445,43 Q342,-15 252,-15 Q159,-15 107.5,42 Q56,99 61,195 Q66,317 144,393 Q224,471 340,471 M337,431 Q236,431 171,363 Q106,295 106,190 Q106,114 148,69 Q190,24 264,24 Q346,24 453,84 L511,415 Q432,431 337,431"/> 
            <glyph glyph-name="Ă" unicode="&#x102;" horiz-adv-x="665" d=" M592,885 L629,885 Q618,824 573.5,787 Q529,750 467,750 Q406,750 374.5,787.5 Q343,825 354,885 L391,885 Q384,839 406.5,812 Q429,785 474,785 Q519,785 551.5,812 Q584,839 592,885 M166,180 L54,0 L0,0 L430,685 L477,685 L665,0 L614,0 L566,180 M444,627 L191,222 L553,222"/> 
            <glyph glyph-name="ă" unicode="&#x103;" horiz-adv-x="561" d=" M504,703 L541,703 Q531,642 486.5,604.5 Q442,567 380,567 Q318,567 287,604.5 Q256,642 267,703 L304,703 Q296,657 319,629.5 Q342,602 387,602 Q432,602 464.5,630 Q497,658 504,703 M340,471 Q451,471 561,446 L482,0 L438,0 L445,43 Q342,-15 252,-15 Q159,-15 107.5,42 Q56,99 61,195 Q66,317 144,393 Q224,471 340,471 M337,431 Q236,431 171,363 Q106,295 106,190 Q106,114 148,69 Q190,24 264,24 Q346,24 453,84 L511,415 Q432,431 337,431"/> 
            <glyph glyph-name="Ą" unicode="&#x104;" horiz-adv-x="665" d=" M618,-163 Q620,-163 650,-160 L652,-197 Q632,-202 606,-202 Q555,-202 526.5,-175.5 Q498,-149 504,-107 Q514,-39 612,8 L566,180 L166,180 L54,0 L0,0 L430,685 L477,685 L665,0 L648,0 Q555,-40 545,-98 Q540,-128 559.5,-145.5 Q579,-163 618,-163 M553,222 L444,627 L191,222"/> 
            <glyph glyph-name="ą" unicode="&#x105;" horiz-adv-x="561" d=" M482,0 L470,0 Q420,-21 394,-44.5 Q368,-68 363,-100 Q358,-130 377.5,-147.5 Q397,-165 436,-165 Q438,-165 468,-162 L470,-199 Q450,-204 424,-204 Q373,-204 344.5,-177.5 Q316,-151 322,-109 Q332,-37 440,10 L445,43 Q342,-15 252,-15 Q159,-15 107.5,42 Q56,99 61,195 Q66,317 144,393 Q224,471 340,471 Q451,471 561,446 M264,24 Q346,24 453,84 L511,415 Q432,431 337,431 Q236,431 171,363 Q106,295 106,190 Q106,114 148,69 Q190,24 264,24"/> 
            <glyph glyph-name="Ć" unicode="&#x106;" horiz-adv-x="751" d=" M690,898 L558,742 L511,742 L629,898 M751,658 L734,618 Q623,651 527,651 Q352,651 243,549 Q134,449 134,290 Q134,169 206.5,100 Q279,31 408,31 Q514,31 656,70 L659,29 Q513,-15 399,-15 Q251,-15 167.5,64.5 Q84,144 84,285 Q84,466 206,580 Q328,695 528,695 Q641,695 751,658"/> 
            <glyph glyph-name="ć" unicode="&#x107;" horiz-adv-x="507" d=" M496,731 L366,576 L321,576 L435,731 M507,446 L493,410 Q411,431 348,431 Q242,431 172,364 Q102,297 102,193 Q102,117 148,72 Q194,27 271,27 Q338,27 442,54 L444,14 Q342,-15 265,-15 Q169,-15 112.5,40 Q56,95 56,186 Q56,312 141,391 Q227,471 356,471 Q438,471 507,446"/> 
            <glyph glyph-name="Ċ" unicode="&#x10A;" horiz-adv-x="751" d=" M542,787 Q528,787 517.5,797 Q507,807 507,822 Q507,836 517.5,846.5 Q528,857 542,857 Q557,857 567.5,846.5 Q578,836 578,822 Q578,807 567.5,797 Q557,787 542,787 M751,658 L734,618 Q623,651 527,651 Q352,651 243,549 Q134,449 134,290 Q134,169 206.5,100 Q279,31 408,31 Q514,31 656,70 L659,29 Q513,-15 399,-15 Q251,-15 167.5,64.5 Q84,144 84,285 Q84,466 206,580 Q328,695 528,695 Q641,695 751,658"/> 
            <glyph glyph-name="ċ" unicode="&#x10B;" horiz-adv-x="507" d=" M332,629 Q331,650 349,658.5 Q367,667 385,658.5 Q403,650 402,629 Q402,608 384.5,599 Q367,590 349.5,599 Q332,608 332,629 M507,446 L493,410 Q411,431 348,431 Q242,431 172,364 Q102,297 102,193 Q102,117 148,72 Q194,27 271,27 Q338,27 442,54 L444,14 Q342,-15 265,-15 Q169,-15 112.5,40 Q56,95 56,186 Q56,312 141,391 Q227,471 356,471 Q438,471 507,446"/> 
            <glyph glyph-name="Č" unicode="&#x10C;" horiz-adv-x="751" d=" M552,739 L508,739 L406,897 L454,897 L535,773 L661,897 L710,897 M751,658 L734,618 Q623,651 527,651 Q352,651 243,549 Q134,449 134,290 Q134,169 206.5,100 Q279,31 408,31 Q514,31 656,70 L659,29 Q513,-15 399,-15 Q251,-15 167.5,64.5 Q84,144 84,285 Q84,466 206,580 Q328,695 528,695 Q641,695 751,658"/> 
            <glyph glyph-name="č" unicode="&#x10D;" horiz-adv-x="536" d=" M379,568 L334,568 L232,726 L280,726 L361,602 L487,726 L536,726 M507,446 L493,410 Q411,431 348,431 Q242,431 172,364 Q102,297 102,193 Q102,117 148,72 Q194,27 271,27 Q338,27 442,54 L444,14 Q342,-15 265,-15 Q169,-15 112.5,40 Q56,95 56,186 Q56,312 141,391 Q227,471 356,471 Q438,471 507,446"/> 
            <glyph glyph-name="Ď" unicode="&#x10E;" horiz-adv-x="713" d=" M459,739 L415,739 L313,897 L361,897 L442,773 L568,897 L617,897 M411,687 Q551,687 632,612 Q713,537 713,406 Q713,224 593,108 Q474,-6 294,-6 Q256,-6 67,0 L187,680 Q326,687 411,687 M301,37 Q457,37 560,137 Q663,237 663,400 Q663,514 593.5,579.5 Q524,645 404,645 Q340,645 226,639 L120,41 Q223,37 301,37"/> 
            <glyph glyph-name="ď" unicode="&#x10F;" horiz-adv-x="724" d=" M603,710 L480,10 Q375,-12 316,-14 Q301,-15 248,-15 Q159,-15 107.5,39.5 Q56,94 56,185 Q56,310 134,390 Q214,471 336,471 Q439,471 513,446 L559,710 M724,710 L667,517 L631,517 L676,710 M332,431 Q228,431 164,362 Q101,294 101,190 Q101,114 143,69 Q185,24 259,24 Q352,24 440,41 L504,407 Q428,431 332,431"/> 
            <glyph glyph-name="Đ" unicode="&#x110;" horiz-adv-x="713" d=" M411,687 Q551,687 632,612 Q713,537 713,406 Q713,224 593,108 Q474,-6 294,-6 Q256,-6 67,0 L123,317 L41,317 L49,360 L131,360 L187,680 Q326,687 411,687 M301,37 Q457,37 560,137 Q663,237 663,400 Q663,514 593.5,579.5 Q524,645 404,645 Q340,645 226,639 L177,360 L367,360 L359,317 L169,317 L120,41 Q223,37 301,37"/> 
            <glyph glyph-name="đ" unicode="&#x111;" horiz-adv-x="640" d=" M633,586 L581,586 L480,10 Q375,-12 316,-14 Q301,-15 248,-15 Q159,-15 107.5,39.5 Q56,94 56,185 Q56,310 134,390 Q214,471 336,471 Q439,471 513,446 L537,586 L339,586 L345,624 L544,624 L559,710 L603,710 L588,624 L640,624 M440,41 L504,407 Q428,431 332,431 Q228,431 164,362 Q101,294 101,190 Q101,114 143,69 Q185,24 259,24 Q352,24 440,41"/> 
            <glyph glyph-name="Ē" unicode="&#x112;" horiz-adv-x="649" d=" M177,361 L553,361 L546,319 L170,319 L121,43 L537,43 L529,0 L67,0 L187,680 L649,680 L642,637 L226,637 M579,822 L573,786 L297,786 L303,822"/> 
            <glyph glyph-name="ē" unicode="&#x113;" horiz-adv-x="544" d=" M518,670 L512,634 L244,634 L251,670 M351,471 Q450,471 497,412 Q544,353 528,248 Q526,229 520,211 L117,211 Q109,123 151.5,75 Q194,27 281,27 Q332,27 453,53 L455,16 Q350,-15 277,-15 Q166,-15 111.5,49 Q57,113 72,220 Q89,335 166,402 Q244,471 351,471 M345,433 Q263,433 203,382 Q143,332 123,248 L485,248 Q511,433 345,433"/> 
            <glyph glyph-name="Ė" unicode="&#x116;" horiz-adv-x="649" d=" M177,361 L553,361 L546,319 L170,319 L121,43 L537,43 L529,0 L67,0 L187,680 L649,680 L642,637 L226,637 M438,787 Q424,787 413.5,797 Q403,807 403,822 Q403,836 413.5,846.5 Q424,857 438,857 Q453,857 463.5,846.5 Q474,836 474,822 Q474,807 463.5,797 Q453,787 438,787"/> 
            <glyph glyph-name="ė" unicode="&#x117;" horiz-adv-x="544" d=" M343,629 Q342,650 360,658.5 Q378,667 396,658.5 Q414,650 413,629 Q413,608 395.5,599 Q378,590 360.5,599 Q343,608 343,629 M351,471 Q450,471 497,412 Q544,353 528,248 Q526,229 520,211 L117,211 Q109,123 151.5,75 Q194,27 281,27 Q332,27 453,53 L455,16 Q350,-15 277,-15 Q166,-15 111.5,49 Q57,113 72,220 Q89,335 166,402 Q244,471 351,471 M345,433 Q263,433 203,382 Q143,332 123,248 L485,248 Q511,433 345,433"/> 
            <glyph glyph-name="Ę" unicode="&#x118;" horiz-adv-x="649" d=" M226,637 L177,361 L553,361 L546,319 L170,319 L121,43 L537,43 L529,0 L483,0 Q431,-22 403.5,-45.5 Q376,-69 371,-102 Q366,-132 385.5,-149.5 Q405,-167 444,-167 Q446,-167 476,-164 L478,-201 Q458,-206 432,-206 Q381,-206 352.5,-179.5 Q324,-153 330,-111 Q341,-45 430,0 L67,0 L187,680 L649,680 L642,637"/> 
            <glyph glyph-name="ę" unicode="&#x119;" horiz-adv-x="544" d=" M351,471 Q450,471 497,412 Q544,353 528,248 Q526,229 520,211 L117,211 Q109,123 151.5,75 Q194,27 281,27 Q332,27 453,53 L455,16 Q431,8 399,1 Q300,-39 291,-99 Q286,-129 305.5,-146.5 Q325,-164 364,-164 Q366,-164 396,-161 L398,-198 Q378,-203 352,-203 Q301,-203 272.5,-176.5 Q244,-150 250,-108 Q258,-52 322,-12 Q300,-15 277,-15 Q166,-15 111.5,49 Q57,113 72,220 Q89,335 166,402 Q244,471 351,471 M123,248 L485,248 Q511,433 345,433 Q263,433 203,382 Q143,332 123,248"/> 
            <glyph glyph-name="Ě" unicode="&#x11A;" horiz-adv-x="649" d=" M177,361 L553,361 L546,319 L170,319 L121,43 L537,43 L529,0 L67,0 L187,680 L649,680 L642,637 L226,637 M448,739 L404,739 L302,897 L350,897 L431,773 L557,897 L606,897"/> 
            <glyph glyph-name="ě" unicode="&#x11B;" horiz-adv-x="547" d=" M390,568 L345,568 L243,726 L291,726 L372,602 L498,726 L547,726 M351,471 Q450,471 497,412 Q544,353 528,248 Q526,229 520,211 L117,211 Q109,123 151.5,75 Q194,27 281,27 Q332,27 453,53 L455,16 Q350,-15 277,-15 Q166,-15 111.5,49 Q57,113 72,220 Q89,335 166,402 Q244,471 351,471 M345,433 Q263,433 203,382 Q143,332 123,248 L485,248 Q511,433 345,433"/> 
            <glyph glyph-name="Ğ" unicode="&#x11E;" horiz-adv-x="762" d=" M648,885 L685,885 Q674,824 629.5,787 Q585,750 523,750 Q462,750 430.5,787.5 Q399,825 410,885 L447,885 Q440,839 462.5,812 Q485,785 530,785 Q575,785 607.5,812 Q640,839 648,885 M762,360 L708,50 Q543,-15 391,-15 Q254,-15 168,66 Q84,148 84,279 Q84,466 203,580 Q321,695 516,695 Q640,695 750,659 L733,618 Q618,651 511,651 Q340,651 237,551 Q133,450 133,287 Q133,170 206,100 Q280,29 398,29 Q528,29 669,79 L711,318 L426,318 L433,360"/> 
            <glyph glyph-name="ğ" unicode="&#x11F;" horiz-adv-x="556" d=" M493,703 L530,703 Q520,642 475.5,604.5 Q431,567 369,567 Q307,567 276,604.5 Q245,642 256,703 L293,703 Q285,657 308,629.5 Q331,602 376,602 Q421,602 453.5,630 Q486,658 493,703 M335,471 Q446,471 556,446 L477,0 Q458,-110 381,-177 Q304,-245 194,-245 Q101,-245 26,-208 L42,-171 Q120,-204 200,-204 Q288,-204 352,-148 Q416,-92 433,2 Q345,-15 247,-15 Q156,-15 103,42 Q51,99 56,195 Q61,317 139,393 Q219,471 335,471 M332,431 Q231,431 166,363 Q101,295 101,190 Q101,115 143.5,69.5 Q186,24 258,24 Q352,24 440,41 L506,415 Q427,431 332,431"/> 
            <glyph glyph-name="Ġ" unicode="&#x120;" horiz-adv-x="762" d=" M534,787 Q520,787 509.5,797 Q499,807 499,822 Q499,836 509.5,846.5 Q520,857 534,857 Q549,857 559.5,846.5 Q570,836 570,822 Q570,807 559.5,797 Q549,787 534,787 M762,360 L708,50 Q543,-15 391,-15 Q254,-15 168,66 Q84,148 84,279 Q84,466 203,580 Q321,695 516,695 Q640,695 750,659 L733,618 Q618,651 511,651 Q340,651 237,551 Q133,450 133,287 Q133,170 206,100 Q280,29 398,29 Q528,29 669,79 L711,318 L426,318 L433,360"/> 
            <glyph glyph-name="ġ" unicode="&#x121;" horiz-adv-x="556" d=" M344,629 Q343,650 361,658.5 Q379,667 397,658.5 Q415,650 414,629 Q414,608 396.5,599 Q379,590 361.5,599 Q344,608 344,629 M335,471 Q446,471 556,446 L477,0 Q458,-110 381,-177 Q304,-245 194,-245 Q101,-245 26,-208 L42,-171 Q120,-204 200,-204 Q288,-204 352,-148 Q416,-92 433,2 Q345,-15 247,-15 Q156,-15 103,42 Q51,99 56,195 Q61,317 139,393 Q219,471 335,471 M332,431 Q231,431 166,363 Q101,295 101,190 Q101,115 143.5,69.5 Q186,24 258,24 Q352,24 440,41 L506,415 Q427,431 332,431"/> 
            <glyph glyph-name="Ģ" unicode="&#x122;" horiz-adv-x="762" d=" M762,360 L708,50 Q543,-15 391,-15 Q254,-15 168,66 Q84,148 84,279 Q84,466 203,580 Q321,695 516,695 Q640,695 750,659 L733,618 Q618,651 511,651 Q340,651 237,551 Q133,450 133,287 Q133,170 206,100 Q280,29 398,29 Q528,29 669,79 L711,318 L426,318 L433,360 M321,-242 L356,-146 Q331,-140 331,-115 Q331,-101 341,-91 Q351,-81 367,-81 Q381,-81 391.5,-91 Q402,-101 402,-115 Q402,-127 397,-140 Q387,-167 368,-208 L353,-242"/> 
            <glyph glyph-name="ģ" unicode="&#x123;" horiz-adv-x="556" d=" M410,752 L375,656 Q400,650 400,625 Q400,611 390,601 Q380,591 364,591 Q350,591 339.5,601 Q329,611 329,625 Q329,639 333,650 Q339,665 363,718 L378,752 M335,471 Q446,471 556,446 L477,0 Q458,-110 381,-177 Q304,-245 194,-245 Q101,-245 26,-208 L42,-171 Q120,-204 200,-204 Q288,-204 352,-148 Q416,-92 433,2 Q345,-15 247,-15 Q156,-15 103,42 Q51,99 56,195 Q61,317 139,393 Q219,471 335,471 M332,431 Q231,431 166,363 Q101,295 101,190 Q101,115 143.5,69.5 Q186,24 258,24 Q352,24 440,41 L506,415 Q427,431 332,431"/> 
            <glyph glyph-name="Ħ" unicode="&#x126;" horiz-adv-x="752" d=" M745,511 L694,511 L604,0 L557,0 L614,317 L170,317 L113,0 L67,0 L157,511 L106,511 L113,551 L164,551 L187,680 L233,680 L210,551 L654,551 L677,680 L724,680 L701,551 L752,551 M647,511 L203,511 L177,360 L621,360"/> 
            <glyph glyph-name="ħ" unicode="&#x127;" horiz-adv-x="552" d=" M387,471 Q473,471 512.5,421 Q552,371 536,280 L487,0 L442,0 L490,272 Q503,347 472.5,388.5 Q442,430 373,430 Q269,430 176,405 L105,0 L60,0 L163,586 L92,586 L99,621 L169,621 L185,710 L230,710 L214,621 L397,621 L390,586 L208,586 L183,446 Q270,471 387,471"/> 
            <glyph glyph-name="Ī" unicode="&#x12A;" horiz-adv-x="373" d=" M373,822 L367,786 L91,786 L97,822 M233,680 L113,0 L67,0 L187,680"/> 
            <glyph glyph-name="ī" unicode="&#x12B;" horiz-adv-x="334" d=" M334,670 L328,634 L60,634 L67,670 M185,456 L105,0 L60,0 L141,456"/> 
            <glyph glyph-name="Į" unicode="&#x12E;" horiz-adv-x="239" d=" M119,0 L112,0 Q11,-44 2,-101 Q-3,-131 16.5,-148.5 Q36,-166 75,-166 Q77,-166 107,-163 L109,-200 Q89,-205 63,-205 Q11,-205 -17,-178.5 Q-45,-152 -39,-110 Q-28,-38 74,8 L193,680 L239,680"/> 
            <glyph glyph-name="į" unicode="&#x12F;" horiz-adv-x="235" d=" M234,629 Q234,608 216.5,599 Q199,590 181.5,599 Q164,608 164,629 Q163,650 181,658.5 Q199,667 217,658.5 Q235,650 234,629 M147,456 L191,456 L111,0 L101,0 Q51,-21 25,-44.5 Q-1,-68 -6,-100 Q-11,-130 8.5,-147.5 Q28,-165 67,-165 Q69,-165 99,-162 L101,-199 Q81,-204 55,-204 Q3,-204 -25,-177.5 Q-53,-151 -47,-109 Q-36,-37 68,9"/> 
            <glyph glyph-name="İ" unicode="&#x130;" horiz-adv-x="278" d=" M263,809 Q252,798 235,798 Q218,798 207,809 Q196,820 196,836 Q196,852 207,863 Q223,880 245,872.5 Q267,865 272.5,846 Q278,827 263,809 M233,680 L113,0 L67,0 L187,680"/> 
            <glyph glyph-name="ı" unicode="&#x131;" horiz-adv-x="185" d=" M185,456 L104,0 L60,0 L141,456"/> 
            <glyph glyph-name="Ĳ" unicode="&#x132;" horiz-adv-x="818" d=" M233,680 L113,0 L67,0 L187,680 M818,680 L741,242 Q719,118 648.5,51.5 Q578,-15 468,-15 Q367,-15 257,30 L275,71 Q380,30 473,30 Q561,30 619,85.5 Q677,141 694,242 L771,680"/> 
            <glyph glyph-name="ĳ" unicode="&#x133;" horiz-adv-x="468" d=" M192,593 Q176,593 165.5,603.5 Q155,614 155,629 Q155,645 165.5,655 Q176,665 192,665 Q207,665 217.5,655 Q228,645 228,629 Q228,614 217.5,603.5 Q207,593 192,593 M395,629 Q395,652 413.5,660.5 Q432,669 450,660 Q468,651 468,629 Q468,614 457,603.5 Q446,593 431,593 Q416,593 405.5,603.5 Q395,614 395,629 M185,456 L105,0 L60,0 L141,456 M425,456 L335,-54 Q318,-152 275.5,-194 Q233,-236 146,-236 L151,-196 Q215,-194 245.5,-163 Q276,-132 290,-57 L381,456"/> 
            <glyph glyph-name="Ķ" unicode="&#x136;" horiz-adv-x="692" d=" M166,296 L113,0 L67,0 L187,680 L233,680 L174,340 L251,340 L631,680 L692,680 L313,339 L604,0 L544,0 L287,296 M228,-235 L263,-139 Q238,-133 238,-108 Q238,-94 248,-84 Q258,-74 274,-74 Q288,-74 298.5,-84 Q309,-94 309,-108 Q309,-120 304,-133 Q294,-160 275,-201 L260,-235"/> 
            <glyph glyph-name="ķ" unicode="&#x137;" horiz-adv-x="531" d=" M151,251 L227,251 L472,456 L531,456 L282,244 L491,0 L437,0 L255,209 L144,209 L107,0 L62,0 L188,710 L232,710 M181,-235 L216,-139 Q191,-133 191,-108 Q191,-94 201,-84 Q211,-74 227,-74 Q241,-74 251.5,-84 Q262,-94 262,-108 Q262,-120 257,-133 Q247,-160 228,-201 L213,-235"/> 
            <glyph glyph-name="Ĺ" unicode="&#x139;" horiz-adv-x="511" d=" M384,898 L252,742 L205,742 L323,898 M503,0 L67,0 L187,680 L233,680 L121,42 L511,42"/> 
            <glyph glyph-name="ĺ" unicode="&#x13A;" horiz-adv-x="372" d=" M372,907 L242,751 L197,751 L311,907 M232,710 L107,0 L62,0 L188,710"/> 
            <glyph glyph-name="Ļ" unicode="&#x13B;" horiz-adv-x="511" d=" M503,0 L67,0 L187,680 L233,680 L121,42 L511,42 M217,-235 L252,-139 Q227,-133 227,-108 Q227,-94 237,-84 Q247,-74 263,-74 Q277,-74 287.5,-84 Q298,-94 298,-108 Q298,-120 293,-133 Q283,-160 264,-201 L249,-235"/> 
            <glyph glyph-name="ļ" unicode="&#x13C;" horiz-adv-x="232" d=" M232,710 L107,0 L62,0 L188,710 M17,-235 L52,-139 Q27,-133 27,-108 Q27,-94 37,-84 Q47,-74 63,-74 Q77,-74 87.5,-84 Q98,-94 98,-108 Q98,-120 93,-133 Q83,-160 64,-201 L49,-235"/> 
            <glyph glyph-name="Ľ" unicode="&#x13D;" horiz-adv-x="511" d=" M503,0 L67,0 L187,680 L233,680 L121,42 L511,42 M413,680 L356,487 L320,487 L365,680"/> 
            <glyph glyph-name="ľ" unicode="&#x13E;" horiz-adv-x="353" d=" M232,710 L107,0 L62,0 L188,710 M353,710 L296,517 L260,517 L305,710"/> 
            <glyph glyph-name="Ŀ" unicode="&#x13F;" horiz-adv-x="511" d=" M503,0 L67,0 L187,680 L233,680 L121,42 L511,42 M330,292 Q329,313 347.5,322 Q366,331 384.5,322 Q403,313 401,292 Q401,278 391,267.5 Q381,257 366,257 Q351,257 340.5,267.5 Q330,278 330,292"/> 
            <glyph glyph-name="ŀ" unicode="&#x140;" horiz-adv-x="294" d=" M232,710 L107,0 L62,0 L188,710 M259,291 Q244,291 233.5,301 Q223,311 223,326 Q223,340 233.5,350 Q244,360 259,360 Q273,360 283.5,350 Q294,340 294,326 Q294,311 283.5,301 Q273,291 259,291"/> 
            <glyph glyph-name="Ł" unicode="&#x141;" horiz-adv-x="511" d=" M511,42 L503,0 L67,0 L111,249 L22,205 L29,249 L119,293 L187,680 L233,680 L170,318 L343,404 L335,361 L162,275 L121,42"/> 
            <glyph glyph-name="ł" unicode="&#x142;" horiz-adv-x="257" d=" M249,367 L164,324 L107,0 L62,0 L115,299 L31,257 L38,299 L123,341 L188,710 L232,710 L171,366 L257,409"/> 
            <glyph glyph-name="Ń" unicode="&#x143;" horiz-adv-x="752" d=" M638,898 L506,742 L459,742 L577,898 M752,680 L632,0 L587,0 L220,608 L112,0 L66,0 L186,680 L230,680 L598,71 L706,680"/> 
            <glyph glyph-name="ń" unicode="&#x144;" horiz-adv-x="548" d=" M505,731 L375,576 L330,576 L444,731 M382,471 Q468,471 508,420.5 Q548,370 532,279 L483,0 L438,0 L486,273 Q499,348 468.5,389 Q438,430 370,430 Q274,430 174,413 L101,0 L56,0 L134,446 Q243,471 382,471"/> 
            <glyph glyph-name="Ņ" unicode="&#x145;" horiz-adv-x="752" d=" M752,680 L632,0 L587,0 L220,608 L112,0 L66,0 L186,680 L230,680 L598,71 L706,680 M288,-235 L323,-139 Q298,-133 298,-108 Q298,-94 308,-84 Q318,-74 334,-74 Q348,-74 358.5,-84 Q369,-94 369,-108 Q369,-120 364,-133 Q354,-160 335,-201 L320,-235"/> 
            <glyph glyph-name="ņ" unicode="&#x146;" horiz-adv-x="548" d=" M382,471 Q468,471 508,420.5 Q548,370 532,279 L483,0 L438,0 L486,273 Q499,348 468.5,389 Q438,430 370,430 Q274,430 174,413 L101,0 L56,0 L134,446 Q243,471 382,471 M201,-235 L236,-139 Q211,-133 211,-108 Q211,-94 221,-84 Q231,-74 247,-74 Q261,-74 271.5,-84 Q282,-94 282,-108 Q282,-120 277,-133 Q267,-160 248,-201 L233,-235"/> 
            <glyph glyph-name="Ň" unicode="&#x147;" horiz-adv-x="752" d=" M500,739 L456,739 L354,897 L402,897 L483,773 L609,897 L658,897 M752,680 L632,0 L587,0 L220,608 L112,0 L66,0 L186,680 L230,680 L598,71 L706,680"/> 
            <glyph glyph-name="ň" unicode="&#x148;" horiz-adv-x="548" d=" M388,568 L343,568 L241,726 L289,726 L370,602 L496,726 L545,726 M382,471 Q468,471 508,420.5 Q548,370 532,279 L483,0 L438,0 L486,273 Q499,348 468.5,389 Q438,430 370,430 Q274,430 174,413 L101,0 L56,0 L134,446 Q243,471 382,471"/> 
            <glyph glyph-name="Ō" unicode="&#x14C;" horiz-adv-x="809" d=" M668,822 L662,786 L386,786 L392,822 M509,695 Q646,695 728,615 Q809,536 809,402 Q809,222 687,103 Q566,-15 383,-15 Q249,-15 166,65 Q84,146 84,278 Q84,464 202,579 Q321,695 509,695 M392,28 Q549,28 655,132 Q760,236 760,396 Q760,512 690,582 Q621,652 502,652 Q338,652 236,550 Q134,448 134,283 Q134,169 205,98 Q275,28 392,28"/> 
            <glyph glyph-name="ō" unicode="&#x14D;" horiz-adv-x="558" d=" M518,670 L512,634 L244,634 L251,670 M348,472 Q445,472 501.5,417.5 Q558,363 558,269 Q558,149 472,66 Q387,-16 265,-16 Q169,-16 112.5,40 Q56,96 56,190 Q56,313 141,392 Q227,472 348,472 M272,26 Q371,26 441,94 Q511,161 511,262 Q511,340 465.5,385.5 Q420,431 341,431 Q241,431 171,364 Q102,296 102,196 Q102,118 147.5,72 Q193,26 272,26"/> 
            <glyph glyph-name="Ő" unicode="&#x150;" horiz-adv-x="809" d=" M602,899 L482,741 L437,741 L548,899 M734,899 L614,741 L569,741 L680,899 M509,695 Q646,695 728,615 Q809,536 809,402 Q809,222 687,103 Q566,-15 383,-15 Q249,-15 166,65 Q84,146 84,278 Q84,464 202,579 Q321,695 509,695 M392,28 Q549,28 655,132 Q760,236 760,396 Q760,512 690,582 Q621,652 502,652 Q338,652 236,550 Q134,448 134,283 Q134,169 205,98 Q275,28 392,28"/> 
            <glyph glyph-name="ő" unicode="&#x151;" horiz-adv-x="564" d=" M318,568 L276,568 L384,724 L436,724 M447,568 L404,568 L513,724 L564,724 M348,472 Q445,472 501.5,417.5 Q558,363 558,269 Q558,149 472,66 Q387,-16 265,-16 Q169,-16 112.5,40 Q56,96 56,190 Q56,313 141,392 Q227,472 348,472 M272,26 Q371,26 441,94 Q511,161 511,262 Q511,340 465.5,385.5 Q420,431 341,431 Q241,431 171,364 Q102,296 102,196 Q102,118 147.5,72 Q193,26 272,26"/> 
            <glyph glyph-name="Œ" unicode="&#x152;" horiz-adv-x="1012" d=" M540,361 L915,361 L908,319 L533,319 L484,43 L900,43 L892,0 L430,0 Q266,1 175.5,75 Q85,149 85,282 Q85,464 210,571 Q334,678 550,680 L1012,680 L1005,637 L589,637 M134,287 Q134,171 212.5,107.5 Q291,44 438,43 L542,637 Q348,635 241,542 Q134,447 134,287"/> 
            <glyph glyph-name="œ" unicode="&#x153;" horiz-adv-x="977" d=" M784,471 Q883,471 930,412 Q977,353 961,248 Q957,223 952,211 L552,211 L549,196 Q544,115 586.5,71 Q629,27 714,27 Q764,27 885,53 L888,16 Q783,-15 710,-15 Q548,-15 510,111 Q471,52 406,18 Q341,-16 265,-16 Q169,-16 112.5,40 Q56,96 56,190 Q56,313 141,392 Q227,472 348,472 Q424,472 476,438 Q528,404 547,342 Q585,403 647,437 Q709,471 784,471 M557,248 L918,248 Q931,340 895,386.5 Q859,433 778,433 Q699,433 639.5,385.5 Q580,338 558,259 M272,26 Q354,26 418,74 Q483,122 502,198 L505,220 Q506,236 511,251 L511,262 Q511,340 465.5,385.5 Q420,431 341,431 Q241,431 171,364 Q102,296 102,196 Q102,118 147.5,72 Q193,26 272,26"/> 
            <glyph glyph-name="Ŕ" unicode="&#x154;" horiz-adv-x="623" d=" M546,898 L414,742 L367,742 L485,898 M519,0 L371,261 Q353,258 314,258 L158,258 L113,0 L67,0 L187,680 Q309,687 399,687 Q505,687 564,641.5 Q623,596 623,513 Q623,422 569,358.5 Q515,295 419,271 L576,0 M166,299 L334,299 Q441,299 509,355 Q577,411 577,506 Q577,574 528.5,609.5 Q480,645 392,645 Q343,645 226,640"/> 
            <glyph glyph-name="ŕ" unicode="&#x155;" horiz-adv-x="418" d=" M379,470 L373,427 Q274,427 175,415 L102,0 L57,0 L135,449 Q264,470 379,470 M418,731 L288,576 L243,576 L357,731"/> 
            <glyph glyph-name="Ŗ" unicode="&#x156;" horiz-adv-x="623" d=" M519,0 L371,261 Q353,258 314,258 L158,258 L113,0 L67,0 L187,680 Q309,687 399,687 Q505,687 564,641.5 Q623,596 623,513 Q623,422 569,358.5 Q515,295 419,271 L576,0 M166,299 L334,299 Q441,299 509,355 Q577,411 577,506 Q577,574 528.5,609.5 Q480,645 392,645 Q343,645 226,640 M226,-235 L261,-139 Q236,-133 236,-108 Q236,-94 246,-84 Q256,-74 272,-74 Q286,-74 296.5,-84 Q307,-94 307,-108 Q307,-120 302,-133 Q292,-160 273,-201 L258,-235"/> 
            <glyph glyph-name="ŗ" unicode="&#x157;" horiz-adv-x="379" d=" M379,470 L373,427 Q274,427 175,415 L102,0 L57,0 L135,449 Q264,470 379,470 M14,-235 L49,-139 Q24,-133 24,-108 Q24,-94 34,-84 Q44,-74 60,-74 Q74,-74 84.5,-84 Q95,-94 95,-108 Q95,-120 90,-133 Q80,-160 61,-201 Q59,-205 54.5,-216 Q50,-227 46,-235"/> 
            <glyph glyph-name="Ř" unicode="&#x158;" horiz-adv-x="623" d=" M408,739 L364,739 L262,897 L310,897 L391,773 L517,897 L566,897 M519,0 L371,261 Q353,258 314,258 L158,258 L113,0 L67,0 L187,680 Q309,687 399,687 Q505,687 564,641.5 Q623,596 623,513 Q623,422 569,358.5 Q515,295 419,271 L576,0 M166,299 L334,299 Q441,299 509,355 Q577,411 577,506 Q577,574 528.5,609.5 Q480,645 392,645 Q343,645 226,640"/> 
            <glyph glyph-name="ř" unicode="&#x159;" horiz-adv-x="458" d=" M301,568 L256,568 L154,726 L202,726 L283,602 L409,726 L458,726 M379,470 L373,427 Q274,427 175,415 L102,0 L57,0 L135,449 Q264,470 379,470"/> 
            <glyph glyph-name="Ś" unicode="&#x15A;" horiz-adv-x="651" d=" M651,655 L632,614 Q521,651 410,651 Q319,651 260,607 Q202,564 202,489 Q202,446 235.5,422.5 Q269,399 355,380 Q380,375 432,361 Q460,354 495,340 Q528,327 548,309 Q592,270 592,208 Q592,106 513,45 Q435,-15 311,-15 Q169,-15 40,42 L61,84 Q190,28 321,28 Q419,28 481,74 Q544,120 544,198 Q548,227 529.5,252 Q511,277 485,292 Q473,301 442,310 L400,322 Q376,328 351,333 L329,338 Q232,359 192,390.5 Q152,422 152,479 Q152,576 227,635 Q303,694 420,694 Q543,694 651,655 M601,898 L469,742 L422,742 L540,898"/> 
            <glyph glyph-name="ś" unicode="&#x15B;" horiz-adv-x="469" d=" M457,731 L327,576 L282,576 L396,731 M33,32 L52,71 Q151,24 235,24 Q302,24 344,52 Q386,80 386,127 Q386,173 319,197 Q304,203 236,219 Q171,234 140,258.5 Q109,283 109,326 Q109,393 161.5,432 Q214,471 303,471 Q394,471 469,440 L451,402 Q375,432 294,432 Q230,432 192.5,405 Q155,378 155,333 Q155,304 179,288 Q203,272 262,257 Q353,235 391.5,210.5 Q430,186 430,138 Q430,67 374.5,26 Q319,-15 226,-15 Q133,-15 33,32"/> 
            <glyph glyph-name="Ş" unicode="&#x15E;" horiz-adv-x="651" d=" M651,655 L632,614 Q521,651 410,651 Q319,651 260,607 Q202,564 202,489 Q202,446 235.5,422.5 Q269,399 355,380 Q380,375 432,361 Q460,354 495,340 Q528,327 548,309 Q592,270 592,208 Q592,106 513,45 Q435,-15 311,-15 Q169,-15 40,42 L61,84 Q190,28 321,28 Q419,28 481,74 Q544,120 544,198 Q548,227 529.5,252 Q511,277 485,292 Q473,301 442,310 L400,322 Q376,328 351,333 L329,338 Q232,359 192,390.5 Q152,422 152,479 Q152,576 227,635 Q303,694 420,694 Q543,694 651,655 M236,-202 L196,-202 L276,-50 L321,-50"/> 
            <glyph glyph-name="ş" unicode="&#x15F;" horiz-adv-x="469" d=" M33,32 L52,71 Q151,24 235,24 Q302,24 344,52 Q386,80 386,127 Q386,173 319,197 Q304,203 236,219 Q171,234 140,258.5 Q109,283 109,326 Q109,393 161.5,432 Q214,471 303,471 Q394,471 469,440 L451,402 Q375,432 294,432 Q230,432 192.5,405 Q155,378 155,333 Q155,304 179,288 Q203,272 262,257 Q353,235 391.5,210.5 Q430,186 430,138 Q430,67 374.5,26 Q319,-15 226,-15 Q133,-15 33,32 M144,-202 L104,-202 L184,-50 L229,-50"/> 
            <glyph glyph-name="Š" unicode="&#x160;" horiz-adv-x="651" d=" M651,655 L632,614 Q521,651 410,651 Q319,651 260,607 Q202,564 202,489 Q202,446 235.5,422.5 Q269,399 355,380 Q380,375 432,361 Q460,354 495,340 Q528,327 548,309 Q592,270 592,208 Q592,106 513,45 Q435,-15 311,-15 Q169,-15 40,42 L61,84 Q190,28 321,28 Q419,28 481,74 Q544,120 544,198 Q548,227 529.5,252 Q511,277 485,292 Q473,301 442,310 L400,322 Q376,328 351,333 L329,338 Q232,359 192,390.5 Q152,422 152,479 Q152,576 227,635 Q303,694 420,694 Q543,694 651,655 M463,739 L419,739 L317,897 L365,897 L446,773 L572,897 L621,897"/> 
            <glyph glyph-name="š" unicode="&#x161;" horiz-adv-x="497" d=" M340,568 L295,568 L193,726 L241,726 L322,602 L448,726 L497,726 M33,32 L52,71 Q151,24 235,24 Q302,24 344,52 Q386,80 386,127 Q386,173 319,197 Q304,203 236,219 Q171,234 140,258.5 Q109,283 109,326 Q109,393 161.5,432 Q214,471 303,471 Q394,471 469,440 L451,402 Q375,432 294,432 Q230,432 192.5,405 Q155,378 155,333 Q155,304 179,288 Q203,272 262,257 Q353,235 391.5,210.5 Q430,186 430,138 Q430,67 374.5,26 Q319,-15 226,-15 Q133,-15 33,32"/> 
            <glyph glyph-name="Ť" unicode="&#x164;" horiz-adv-x="717" d=" M446,739 L402,739 L300,897 L348,897 L429,773 L555,897 L604,897 M431,637 L318,0 L271,0 L384,637 L104,637 L111,680 L717,680 L709,637"/> 
            <glyph glyph-name="ť" unicode="&#x165;" horiz-adv-x="391" d=" M389,738 L332,545 L296,545 L341,738 M334,35 L336,-2 Q285,-15 241,-15 Q164,-15 136,26 Q108,67 124,157 L169,415 L59,415 L67,456 L177,456 L212,658 L257,658 L221,456 L391,456 L383,415 L214,415 L169,158 Q156,87 175,56.5 Q194,26 252,26 Q290,26 334,35"/> 
            <glyph glyph-name="Ū" unicode="&#x16A;" horiz-adv-x="768" d=" M647,822 L641,786 L365,786 L371,822 M768,680 L695,265 Q672,138 581,62 Q489,-15 362,-15 Q234,-15 168,61 Q103,138 125,265 L199,680 L246,680 L172,265 Q152,158 207,93 Q261,29 369,29 Q475,29 552,94 Q628,158 648,265 L721,680"/> 
            <glyph glyph-name="ū" unicode="&#x16B;" horiz-adv-x="569" d=" M530,670 L524,634 L256,634 L263,670 M569,456 L491,10 Q384,-15 244,-15 Q156,-15 116.5,34.5 Q77,84 93,177 L143,456 L187,456 L139,182 Q126,106 156,65.5 Q186,25 255,25 Q355,25 451,41 L525,456"/> 
            <glyph glyph-name="Ů" unicode="&#x16E;" horiz-adv-x="768" d=" M504,906 Q539,906 562.5,883 Q586,860 586,824 Q586,783 557.5,756 Q529,729 487,729 Q452,729 428.5,752.5 Q405,776 405,812 Q405,853 433.5,879.5 Q462,906 504,906 M491,759 Q518,759 536.5,777 Q555,795 555,823 Q555,847 539.5,862 Q524,877 500,877 Q473,877 454.5,858.5 Q436,840 436,813 Q436,789 451.5,774 Q467,759 491,759 M768,680 L695,265 Q672,138 581,62 Q489,-15 362,-15 Q234,-15 168,61 Q103,138 125,265 L199,680 L246,680 L172,265 Q152,158 207,93 Q261,29 369,29 Q475,29 552,94 Q628,158 648,265 L721,680"/> 
            <glyph glyph-name="ů" unicode="&#x16F;" horiz-adv-x="569" d=" M385,731 Q421,731 444,708.5 Q467,686 467,650 Q467,609 438.5,582 Q410,555 368,555 Q332,555 309,578 Q286,601 286,637 Q286,679 314,705 Q342,731 385,731 M372,584 Q399,584 417.5,602 Q436,620 436,648 Q436,672 420.5,687.5 Q405,703 381,703 Q354,703 335.5,684.5 Q317,666 317,639 Q317,615 332.5,599.5 Q348,584 372,584 M569,456 L491,10 Q384,-15 244,-15 Q156,-15 116.5,34.5 Q77,84 93,177 L143,456 L187,456 L139,182 Q126,106 156,65.5 Q186,25 255,25 Q355,25 451,41 L525,456"/> 
            <glyph glyph-name="Ű" unicode="&#x170;" horiz-adv-x="768" d=" M581,899 L461,741 L416,741 L527,899 M713,899 L593,741 L548,741 L659,899 M768,680 L695,265 Q672,138 581,62 Q489,-15 362,-15 Q234,-15 168,61 Q103,138 125,265 L199,680 L246,680 L172,265 Q152,158 207,93 Q261,29 369,29 Q475,29 552,94 Q628,158 648,265 L721,680"/> 
            <glyph glyph-name="ű" unicode="&#x171;" horiz-adv-x="577" d=" M331,568 L289,568 L397,724 L449,724 M460,568 L417,568 L526,724 L577,724 M569,456 L491,10 Q384,-15 244,-15 Q156,-15 116.5,34.5 Q77,84 93,177 L143,456 L187,456 L139,182 Q126,106 156,65.5 Q186,25 255,25 Q355,25 451,41 L525,456"/> 
            <glyph glyph-name="Ų" unicode="&#x172;" horiz-adv-x="768" d=" M768,680 L695,265 Q676,156 604,83 Q533,11 428,-9 Q336,-50 326,-107 Q321,-137 340.5,-154.5 Q360,-172 399,-172 Q401,-172 431,-169 L433,-206 Q413,-211 387,-211 Q336,-211 307.5,-184.5 Q279,-158 285,-116 Q294,-55 366,-15 L362,-15 Q234,-15 168,61 Q103,138 125,265 L199,680 L246,680 L172,265 Q152,158 207,93 Q261,29 369,29 Q475,29 552,94 Q628,158 648,265 L721,680"/> 
            <glyph glyph-name="ų" unicode="&#x173;" horiz-adv-x="569" d=" M491,11 L492,10 Q440,-12 412.5,-35.5 Q385,-59 380,-92 Q375,-122 394.5,-139.5 Q414,-157 453,-157 Q455,-157 485,-154 L487,-191 Q467,-196 441,-196 Q390,-196 361.5,-169.5 Q333,-143 339,-101 Q347,-45 413,-4 Q331,-15 244,-15 Q156,-15 116.5,34.5 Q77,84 93,177 L143,456 L187,456 L139,182 Q126,106 156,65.5 Q186,25 255,25 Q355,25 451,41 L525,456 L569,456"/> 
            <glyph glyph-name="Ŵ" unicode="&#x174;" horiz-adv-x="1091" d=" M641,862 L514,742 L466,742 L624,898 L668,898 L770,742 L724,742 M736,0 L691,0 L596,605 L284,0 L239,0 L123,680 L172,680 L273,72 L584,680 L629,680 L724,73 L1041,680 L1091,680"/> 
            <glyph glyph-name="ŵ" unicode="&#x175;" horiz-adv-x="813" d=" M497,687 L370,569 L323,569 L480,724 L524,724 L627,569 L580,569 M557,0 L512,0 L442,389 L232,0 L187,0 L93,456 L139,456 L221,64 L433,456 L472,456 L543,63 L766,456 L813,456"/> 
            <glyph glyph-name="Ŷ" unicode="&#x176;" horiz-adv-x="728" d=" M452,862 L325,742 L277,742 L435,898 L479,898 L581,742 L535,742 M318,250 L107,680 L160,680 L349,298 L674,680 L728,680 L366,250 L322,0 L273,0"/> 
            <glyph glyph-name="ŷ" unicode="&#x177;" horiz-adv-x="605" d=" M249,569 L202,569 L359,724 L403,724 L506,569 L459,569 L376,687 M605,456 L131,-223 L81,-223 L258,31 L81,456 L131,456 L290,77 L554,456"/> 
            <glyph glyph-name="Ÿ" unicode="&#x178;" horiz-adv-x="728" d=" M298,819 Q297,840 315.5,849 Q334,858 352.5,849 Q371,840 369,819 Q371,798 352.5,789.5 Q334,781 315.5,789.5 Q297,798 298,819 M506,819 Q505,840 523.5,849 Q542,858 560.5,849 Q579,840 577,819 Q579,798 560.5,789.5 Q542,781 523.5,789.5 Q505,798 506,819 M318,250 L107,680 L160,680 L349,298 L674,680 L728,680 L366,250 L322,0 L273,0"/> 
            <glyph glyph-name="Ź" unicode="&#x179;" horiz-adv-x="663" d=" M580,898 L448,742 L401,742 L519,898 M657,649 L106,43 L552,43 L544,0 L29,0 L34,31 L588,637 L153,637 L160,680 L663,680"/> 
            <glyph glyph-name="ź" unicode="&#x17A;" horiz-adv-x="474" d=" M445,731 L315,576 L270,576 L384,731 M469,427 L87,40 L405,40 L397,0 L15,0 L20,27 L403,416 L100,416 L108,456 L474,456"/> 
            <glyph glyph-name="Ż" unicode="&#x17B;" horiz-adv-x="663" d=" M432,787 Q418,787 407.5,797 Q397,807 397,822 Q397,836 407.5,846.5 Q418,857 432,857 Q447,857 457.5,846.5 Q468,836 468,822 Q468,807 457.5,797 Q447,787 432,787 M657,649 L106,43 L552,43 L544,0 L29,0 L34,31 L588,637 L153,637 L160,680 L663,680"/> 
            <glyph glyph-name="ż" unicode="&#x17C;" horiz-adv-x="474" d=" M281,629 Q280,650 298,658.5 Q316,667 334,658.5 Q352,650 351,629 Q351,608 333.5,599 Q316,590 298.5,599 Q281,608 281,629 M469,427 L87,40 L405,40 L397,0 L15,0 L20,27 L403,416 L100,416 L108,456 L474,456"/> 
            <glyph glyph-name="Ž" unicode="&#x17D;" horiz-adv-x="663" d=" M442,739 L398,739 L296,897 L344,897 L425,773 L551,897 L600,897 M657,649 L106,43 L552,43 L544,0 L29,0 L34,31 L588,637 L153,637 L160,680 L663,680"/> 
            <glyph glyph-name="ž" unicode="&#x17E;" horiz-adv-x="485" d=" M328,568 L283,568 L181,726 L229,726 L310,602 L436,726 L485,726 M469,427 L87,40 L405,40 L397,0 L15,0 L20,27 L403,416 L100,416 L108,456 L474,456"/> 
            <glyph glyph-name="ƒ" unicode="&#x192;" horiz-adv-x="586" d=" M503,695 Q541,695 586,682 L571,645 Q524,654 497,654 Q442,654 415,624 Q389,595 365,519 L327,397 L524,397 L517,356 L315,356 L255,160 Q225,63 186,24 Q147,-15 72,-15 Q35,-15 -10,-2 L4,35 Q50,26 78,26 Q133,26 159,55 Q186,85 210,161 L270,356 L138,356 L146,397 L283,397 L321,520 Q351,615 389,655 Q428,695 503,695"/> 
            <glyph glyph-name="Ǎ" unicode="&#x1CD;" horiz-adv-x="665" d=" M488,739 L444,739 L342,897 L390,897 L471,773 L597,897 L646,897 M166,180 L54,0 L0,0 L430,685 L477,685 L665,0 L614,0 L566,180 M444,627 L191,222 L553,222"/> 
            <glyph glyph-name="ǎ" unicode="&#x1CE;" horiz-adv-x="561" d=" M403,568 L358,568 L256,726 L304,726 L385,602 L511,726 L560,726 M340,471 Q451,471 561,446 L482,0 L438,0 L445,43 Q342,-15 252,-15 Q159,-15 107.5,42 Q56,99 61,195 Q66,317 144,393 Q224,471 340,471 M337,431 Q236,431 171,363 Q106,295 106,190 Q106,114 148,69 Q190,24 264,24 Q346,24 453,84 L511,415 Q432,431 337,431"/> 
            <glyph glyph-name="Ș" unicode="&#x218;" horiz-adv-x="651" d=" M651,655 L632,614 Q521,651 410,651 Q319,651 260,607 Q202,564 202,489 Q202,446 235.5,422.5 Q269,399 355,380 Q380,375 432,361 Q460,354 495,340 Q528,327 548,309 Q592,270 592,208 Q592,106 513,45 Q435,-15 311,-15 Q169,-15 40,42 L61,84 Q190,28 321,28 Q419,28 481,74 Q544,120 544,198 Q548,227 529.5,252 Q511,277 485,292 Q473,301 442,310 L400,322 Q376,328 351,333 L329,338 Q232,359 192,390.5 Q152,422 152,479 Q152,576 227,635 Q303,694 420,694 Q543,694 651,655 M233,-235 L268,-139 Q243,-133 243,-108 Q243,-94 253,-84 Q263,-74 279,-74 Q293,-74 303.5,-84 Q314,-94 314,-108 Q314,-120 309,-133 Q299,-160 280,-201 L265,-235"/> 
            <glyph glyph-name="ș" unicode="&#x219;" horiz-adv-x="469" d=" M33,32 L52,71 Q151,24 235,24 Q302,24 344,52 Q386,80 386,127 Q386,173 319,197 Q304,203 236,219 Q171,234 140,258.5 Q109,283 109,326 Q109,393 161.5,432 Q214,471 303,471 Q394,471 469,440 L451,402 Q375,432 294,432 Q230,432 192.5,405 Q155,378 155,333 Q155,304 179,288 Q203,272 262,257 Q353,235 391.5,210.5 Q430,186 430,138 Q430,67 374.5,26 Q319,-15 226,-15 Q133,-15 33,32 M140,-235 L175,-139 Q150,-133 150,-108 Q150,-94 160,-84 Q170,-74 186,-74 Q200,-74 210.5,-84 Q221,-94 221,-108 Q221,-120 216,-133 Q206,-160 187,-201 L172,-235"/> 
            <glyph glyph-name="Ț" unicode="&#x21A;" horiz-adv-x="717" d=" M431,637 L318,0 L271,0 L384,637 L104,637 L111,680 L717,680 L709,637 M228,-232 L263,-136 Q238,-130 238,-105 Q238,-91 248,-81 Q258,-71 274,-71 Q288,-71 298.5,-81 Q309,-91 309,-105 Q309,-117 304,-130 Q294,-157 275,-198 L260,-232"/> 
            <glyph glyph-name="ț" unicode="&#x21B;" horiz-adv-x="391" d=" M334,35 L336,-2 Q285,-15 241,-15 Q164,-15 136,26 Q108,67 124,157 L169,415 L59,415 L67,456 L177,456 L212,658 L257,658 L221,456 L391,456 L383,415 L214,415 L169,158 Q156,87 175,56.5 Q194,26 252,26 Q290,26 334,35 M127,-235 L162,-139 Q137,-133 137,-108 Q137,-94 147,-84 Q157,-74 173,-74 Q187,-74 197.5,-84 Q208,-94 208,-108 Q208,-120 203,-133 Q193,-160 174,-201 L159,-235"/> 
            <glyph glyph-name="ˆ" unicode="&#x2C6;" horiz-adv-x="512" d=" M382,687 L255,569 L208,569 L365,724 L409,724 L512,569 L465,569"/> 
            <glyph glyph-name="ˇ" unicode="&#x2C7;" horiz-adv-x="524" d=" M367,568 L322,568 L220,726 L268,726 L349,602 L475,726 L524,726"/> 
            <glyph glyph-name="˘" unicode="&#x2D8;" horiz-adv-x="521" d=" M484,703 L521,703 Q511,642 466.5,604.5 Q422,567 360,567 Q298,567 267,604.5 Q236,642 247,703 L284,703 Q276,657 299,629.5 Q322,602 367,602 Q412,602 444.5,630 Q477,658 484,703"/> 
            <glyph glyph-name="˙" unicode="&#x2D9;" horiz-adv-x="396" d=" M325,629 Q324,650 342,658.5 Q360,667 378,658.5 Q396,650 395,629 Q395,608 377.5,599 Q360,590 342.5,599 Q325,608 325,629"/> 
            <glyph glyph-name="˚" unicode="&#x2DA;" horiz-adv-x="462" d=" M380,731 Q416,731 439,708.5 Q462,686 462,650 Q462,609 433.5,582 Q405,555 363,555 Q327,555 304,578 Q281,601 281,637 Q281,679 309,705 Q337,731 380,731 M367,584 Q394,584 412.5,602 Q431,620 431,648 Q431,672 415.5,687.5 Q400,703 376,703 Q349,703 330.5,684.5 Q312,666 312,639 Q312,615 327.5,599.5 Q343,584 367,584"/> 
            <glyph glyph-name="˛" unicode="&#x2DB;" horiz-adv-x="329" d=" M314,17 L329,0 Q277,-22 249.5,-45.5 Q222,-69 217,-102 Q212,-132 231.5,-149.5 Q251,-167 290,-167 Q292,-167 322,-164 L324,-201 Q304,-206 278,-206 Q227,-206 198.5,-179.5 Q170,-153 176,-111 Q187,-34 314,17"/> 
            <glyph glyph-name="˜" unicode="&#x2DC;" horiz-adv-x="511" d=" M472,667 L511,667 Q504,627 477.5,605 Q451,583 423.5,584.5 Q396,586 375,598 L324,638 Q307,654 278,643 Q251,632 245,601 L206,601 Q213,641 239.5,663 Q266,685 293.5,683.5 Q321,682 343,670 L394,631 Q412,615 439,624 Q466,635 472,667"/> 
            <glyph glyph-name="˝" unicode="&#x2DD;" horiz-adv-x="565" d=" M319,568 L277,568 L385,724 L437,724 M448,568 L405,568 L514,724 L565,724"/> 
            <glyph glyph-name="̦" unicode="&#x326;" horiz-adv-x="281" d=" M200,-256 L235,-160 Q210,-154 210,-129 Q210,-115 220,-105 Q230,-95 246,-95 Q260,-95 270.5,-105 Q281,-115 281,-129 Q281,-141 276,-154 Q266,-181 247,-222 L232,-256"/> 
            <glyph glyph-name="Ẁ" unicode="&#x1E80;" horiz-adv-x="1091" d=" M638,742 L595,742 L516,898 L576,898 M736,0 L691,0 L596,605 L284,0 L239,0 L123,680 L172,680 L273,72 L584,680 L629,680 L724,73 L1041,680 L1091,680"/> 
            <glyph glyph-name="ẁ" unicode="&#x1E81;" horiz-adv-x="813" d=" M464,576 L422,576 L344,731 L404,731 M557,0 L512,0 L442,389 L232,0 L187,0 L93,456 L139,456 L221,64 L433,456 L472,456 L543,63 L766,456 L813,456"/> 
            <glyph glyph-name="Ẃ" unicode="&#x1E82;" horiz-adv-x="1091" d=" M778,898 L646,742 L599,742 L717,898 M736,0 L691,0 L596,605 L284,0 L239,0 L123,680 L172,680 L273,72 L584,680 L629,680 L724,73 L1041,680 L1091,680"/> 
            <glyph glyph-name="ẃ" unicode="&#x1E83;" horiz-adv-x="813" d=" M620,731 L490,576 L445,576 L559,731 M557,0 L512,0 L442,389 L232,0 L187,0 L93,456 L139,456 L221,64 L433,456 L472,456 L543,63 L766,456 L813,456"/> 
            <glyph glyph-name="Ẅ" unicode="&#x1E84;" horiz-adv-x="1091" d=" M488,819 Q487,840 505.5,849 Q524,858 542.5,849 Q561,840 559,819 Q561,798 542.5,789.5 Q524,781 505.5,789.5 Q487,798 488,819 M696,819 Q695,840 713.5,849 Q732,858 750.5,849 Q769,840 767,819 Q769,798 750.5,789.5 Q732,781 713.5,789.5 Q695,798 696,819 M736,0 L691,0 L596,605 L284,0 L239,0 L123,680 L172,680 L273,72 L584,680 L629,680 L724,73 L1041,680 L1091,680"/> 
            <glyph glyph-name="ẅ" unicode="&#x1E85;" horiz-adv-x="813" d=" M378,663 Q392,663 402.5,653 Q413,643 413,629 Q413,614 402.5,604 Q392,594 378,594 Q363,594 352.5,604 Q342,614 342,629 Q342,643 352.5,653 Q363,663 378,663 M586,663 Q600,663 610.5,653 Q621,643 621,629 Q621,614 610.5,604 Q600,594 586,594 Q571,594 560.5,604 Q550,614 550,629 Q550,643 560.5,653 Q571,663 586,663 M557,0 L512,0 L442,389 L232,0 L187,0 L93,456 L139,456 L221,64 L433,456 L472,456 L543,63 L766,456 L813,456"/> 
            <glyph glyph-name="Ỳ" unicode="&#x1EF2;" horiz-adv-x="728" d=" M449,742 L406,742 L327,898 L387,898 M318,250 L107,680 L160,680 L349,298 L674,680 L728,680 L366,250 L322,0 L273,0"/> 
            <glyph glyph-name="ỳ" unicode="&#x1EF3;" horiz-adv-x="605" d=" M351,576 L273,731 L334,731 L393,576 M605,456 L131,-223 L81,-223 L258,31 L81,456 L131,456 L290,77 L554,456"/> 
            <glyph glyph-name="–" unicode="&#x2013;" horiz-adv-x="590" d=" M590,299 L582,254 L85,254 L93,299"/> 
            <glyph glyph-name="—" unicode="&#x2014;" horiz-adv-x="833" d=" M833,299 L825,254 L85,254 L93,299"/> 
            <glyph glyph-name="‘" unicode="&#x2018;" horiz-adv-x="249" d=" M249,762 L197,614 Q224,606 224,581 Q224,565 213,554.5 Q202,544 185,544 Q169,544 158,554.5 Q147,565 147,581 Q147,598 185,688 Q203,732 215,762"/> 
            <glyph glyph-name="’" unicode="&#x2019;" horiz-adv-x="250" d=" M146,541 L198,690 Q171,698 171,722 Q170,745 190,754.5 Q210,764 230,754.5 Q250,745 249,722 Q249,708 238.5,680 Q228,652 181,541"/> 
            <glyph glyph-name="‚" unicode="&#x201A;" horiz-adv-x="126" d=" M24,-153 L76,-5 Q49,2 49,28 Q49,44 60,54.5 Q71,65 88,65 Q104,65 115,54.5 Q126,44 126,28 Q126,13 119,-5 Q107,-38 84,-93 Q66,-138 59,-153"/> 
            </font>
</defs>
</svg>
