<?xml version="1.0" standalone="no"?>
<!DOCTYPE svg PUBLIC "-//W3C//DTD SVG 1.1//EN" "http://www.w3.org/Graphics/SVG/1.1/DTD/svg11.dtd" >
<svg xmlns="http://www.w3.org/2000/svg">
    <defs>
        <font id="Canaro-Book">
            <font-face font-family="Canaro-Book"
                       units-per-em="1000"
                       ascent="750"
                       descent="-250"
                       bbox="-40 -272 1425 929"
                    />
            <missing-glyph horiz-adv-x="0" />
            
            <glyph glyph-name="!" unicode="&#x21;" horiz-adv-x="187" d=" M172,680 L167,184 L76,184 L71,680 M187,21 Q149,-15 123,-15 Q97,-15 78,3 Q59,21 59,47 Q59,73 78,91 Q97,109 123,109 Q149,109 168,91 Q187,73 187,21"/> 
            <glyph glyph-name="&quot;" unicode="&#x22;" horiz-adv-x="325" d=" M174,764 L154,523 L71,523 L72,764 M325,764 L306,523 L223,523 L224,764"/> 
            <glyph glyph-name="#" unicode="&#x23;" horiz-adv-x="711" d=" M536,268 L656,268 L656,186 L510,186 L452,0 L357,0 L415,186 L235,186 L177,0 L82,0 L140,186 L37,186 L37,268 L166,268 L208,402 L92,402 L92,484 L233,484 L295,681 L390,681 L328,484 L508,484 L570,681 L665,681 L603,484 L711,484 L711,402 L578,402 M303,402 L261,268 L441,268 L483,402"/> 
            <glyph glyph-name="$" unicode="&#x24;" horiz-adv-x="610" d=" M610,192 Q610,102 550,48.5 Q490,-5 386,-13 L386,-126 L303,-126 L303,-13 Q186,-6 64,42 L88,131 Q228,74 352,74 Q427,74 470.5,102.5 Q514,131 514,183 Q514,244 452,269 Q410,289 321,306 L300,310 Q184,334 137,374 Q89,414 89,494 Q89,577 146.5,629.5 Q204,682 303,690 L303,810 L386,810 L386,689 Q497,681 590,648 L565,564 Q433,604 334,604 Q267,604 228,576 Q189,548 189,497 Q189,452 227,431 Q267,409 362,390 Q479,366 541,328 Q610,286 610,192"/> 
            <glyph glyph-name="%" unicode="&#x25;" horiz-adv-x="996" d=" M467,504 Q467,418 413,365 Q358,312 277,312 Q196,312 141,365 Q87,417 87,504 Q87,590 141,642 Q196,695 277,695 Q358,695 413,642 Q467,590 467,504 M334,0 L280,0 L738,680 L792,680 M227,379 Q329,379 363,414.5 Q397,450 397,504 Q397,558 363,593 Q329,628 278,628 Q227,628 192.5,593 Q158,558 158,504 Q158,450 227,379 M996,177 Q996,91 942,38 Q887,-15 806,-15 Q725,-15 670,38 Q616,91 616,177 Q616,262 670,315 Q725,368 806,368 Q887,368 942,315 Q996,262 996,177 M686,121 Q754,53 805,53 Q856,53 890,87 Q925,122 925,177 Q925,231 890,266 Q855,301 805,301 Q755,301 720,266 Q686,232 686,177"/> 
            <glyph glyph-name="&amp;" unicode="&#x26;" horiz-adv-x="615" d=" M542,310 L542,199 Q542,102 473,43 Q406,-15 290,-15 Q175,-15 106,42 Q38,99 38,193 Q38,310 164,351 Q70,390 70,496 Q70,584 134,636 Q198,690 306,690 Q379,690 443,671 L425,591 Q362,608 303,608 Q237,608 198.5,578 Q160,548 160,499 Q160,389 292,389 L615,389 L615,310 M453,310 L292,310 Q214,310 170.5,279 Q127,248 127,196 Q127,138 171,102.5 Q215,67 290,67 Q365,67 409,103 Q453,139 453,199"/> 
            <glyph glyph-name="'" unicode="&#x27;" horiz-adv-x="173" d=" M173,764 L154,523 L71,523 L72,764"/> 
            <glyph glyph-name="(" unicode="&#x28;" horiz-adv-x="299" d=" M231,764 L299,721 Q220,608 180,505 Q139,399 139,263 Q139,128 180,20 Q220,-85 299,-195 L231,-239 Q51,-19 51,263 Q51,546 231,764"/> 
            <glyph glyph-name=")" unicode="&#x29;" horiz-adv-x="285" d=" M37,721 L105,764 Q285,546 285,263 Q285,-19 105,-239 L37,-195 Q116,-85 156,20 Q197,128 197,263 Q197,399 156,505 Q116,608 37,721"/> 
            <glyph glyph-name="*" unicode="&#x2A;" horiz-adv-x="352" d=" M352,467 L325,422 L224,482 L224,374 L169,374 L169,482 L68,422 L42,467 L145,530 L42,592 L68,639 L169,578 L169,685 L224,685 L224,578 L325,639 L352,592 L248,530"/> 
            <glyph glyph-name="+" unicode="&#x2B;" horiz-adv-x="578" d=" M389,284 L389,93 L301,93 L301,284 L111,284 L111,369 L301,369 L301,561 L389,561 L389,369 L578,369 L578,284"/> 
            <glyph glyph-name="," unicode="&#x2C;" horiz-adv-x="214" d=" M63,-139 L118,-4 Q75,12 75,53 Q75,81 95,100.5 Q115,120 144,120 Q173,120 193.5,100.5 Q214,81 214,53 Q214,33 204,12 Q193,-15 155,-90 L130,-139"/> 
            <glyph glyph-name="-" unicode="&#x2D;" horiz-adv-x="417" d=" M417,313 L417,221 L111,221 L111,313"/> 
            <glyph glyph-name="." unicode="&#x2E;" horiz-adv-x="214" d=" M193,4 Q173,-15 144,-15 Q115,-15 94,4 Q74,24 74,52 Q74,80 94,100 Q115,120 144,120 Q173,120 193,100 Q214,80 214,52 Q214,24 193,4"/> 
            <glyph glyph-name="/" unicode="&#x2F;" horiz-adv-x="470" d=" M93,-272 L11,-272 L388,768 L470,768"/> 
            <glyph glyph-name="0" unicode="&#x30;" horiz-adv-x="691" d=" M147,597 Q234,695 376,695 Q518,695 604,597 Q691,500 691,340 Q691,180 604,82 Q519,-15 376,-15 Q234,-15 147,82 Q61,180 61,340 Q61,499 147,597 M219,147 Q279,74 376,74 Q474,74 532,147 Q592,220 592,340 Q592,458 532,532 Q473,606 376,606 Q279,606 219,532 Q160,458 160,340 Q160,221 219,147"/> 
            <glyph glyph-name="1" unicode="&#x31;" horiz-adv-x="310" d=" M310,0 L215,0 L215,574 L37,524 L16,600 L282,680 L310,680"/> 
            <glyph glyph-name="2" unicode="&#x32;" horiz-adv-x="531" d=" M531,0 L60,0 L60,63 L299,291 Q330,320 362,352 Q380,370 400,405 Q421,441 421,475 Q421,537 379,572 Q337,607 266,607 Q184,607 80,561 L57,642 Q161,695 282,695 Q395,695 457,636 Q519,577 519,487 Q519,418 475,356 Q434,297 346,216 L198,86 L531,86"/> 
            <glyph glyph-name="3" unicode="&#x33;" horiz-adv-x="542" d=" M517,622 L308,385 L323,385 Q425,379 483.5,329.5 Q542,280 542,199 Q542,101 472,43 Q404,-15 281,-15 Q153,-15 43,41 L76,116 Q181,67 284,67 Q352,67 399,103 Q446,141 446,196 Q446,248 402.5,277 Q359,306 283,306 L174,306 L174,351 L387,594 L70,594 L70,680 L517,680"/> 
            <glyph glyph-name="4" unicode="&#x34;" horiz-adv-x="627" d=" M540,206 L627,206 L627,124 L540,124 L540,0 L445,0 L445,124 L44,124 L44,189 L445,680 L540,680 M166,206 L445,206 L445,555"/> 
            <glyph glyph-name="5" unicode="&#x35;" horiz-adv-x="554" d=" M192,417 L307,412 Q422,406 488,351.5 Q554,297 554,207 Q554,108 485,46 Q417,-15 305,-15 Q164,-15 54,42 L85,124 Q198,72 301,72 Q371,72 414,108.5 Q457,145 457,205 Q457,258 413.5,290.5 Q370,323 294,326 L97,335 L127,680 L529,680 L529,591 L209,591"/> 
            <glyph glyph-name="6" unicode="&#x36;" horiz-adv-x="577" d=" M313,471 Q430,471 504,406 Q577,342 577,232 Q577,122 503,53 Q429,-15 313,-15 Q196,-15 122,53 Q49,122 49,232 Q49,308 109,390 L110,392 L316,680 L429,680 L277,470 Q285,471 313,471 M485,232 Q485,305 437,350 Q389,395 313,395 Q235,395 188,350 Q141,305 141,232 Q141,158 189,112 Q236,66 313,66 Q390,66 437,112 Q485,158 485,232"/> 
            <glyph glyph-name="7" unicode="&#x37;" horiz-adv-x="525" d=" M525,622 L240,0 L136,0 L412,591 L36,591 L36,680 L525,680"/> 
            <glyph glyph-name="8" unicode="&#x38;" horiz-adv-x="584" d=" M443,355 Q584,310 584,186 Q584,97 510,41 Q436,-15 316,-15 Q196,-15 122,41 Q48,97 48,186 Q48,310 189,355 Q80,397 80,511 Q80,594 145,644 Q211,695 316,695 Q422,695 486,644 Q552,594 552,511 Q552,397 443,355 M178,506 Q178,454 216,422.5 Q254,391 316,391 Q378,391 416.5,422.5 Q455,454 455,506 Q455,556 416.5,587 Q378,618 316,618 Q254,618 216,587 Q178,556 178,506 M484,191 Q484,245 438,278.5 Q392,312 316,312 Q240,312 194,278.5 Q148,245 148,191 Q148,138 194,102 Q240,66 316,66 Q390,66 437,102 Q484,138 484,191"/> 
            <glyph glyph-name="9" unicode="&#x39;" horiz-adv-x="572" d=" M572,448 Q572,375 521,300 L312,0 L202,0 L349,211 Q315,209 308,209 Q191,209 117,274 Q44,338 44,448 Q44,559 117,626 Q191,695 308,695 Q424,695 498,626 Q572,558 572,448 M136,448 Q136,375 184,330 Q232,285 308,285 Q386,285 433,330 Q480,375 480,448 Q480,522 432,568 Q385,614 308,614 Q231,614 184,568 Q136,522 136,448"/> 
            <glyph glyph-name=":" unicode="&#x3A;" horiz-adv-x="214" d=" M193,366 Q173,347 144,347 Q115,347 94,366 Q74,386 74,414 Q74,442 94,461 Q115,481 144,481 Q173,481 193,461 Q214,442 214,414 Q214,386 193,366 M192,4 Q172,-15 143,-15 Q114,-15 94,4 Q74,24 74,52 Q74,80 94,100 Q114,120 143,120 Q172,120 192,100 Q213,80 213,52 Q213,24 192,4"/> 
            <glyph glyph-name=";" unicode="&#x3B;" horiz-adv-x="220" d=" M199,366 Q179,347 150,347 Q121,347 101,366 Q81,386 81,414 Q81,442 101,461 Q121,481 150,481 Q179,481 199,461 Q220,442 220,414 Q220,386 199,366 M63,-139 L118,-4 Q75,12 75,53 Q75,81 95,100.5 Q115,120 144,120 Q173,120 193.5,100.5 Q214,81 214,53 Q214,35 206,16 Q186,-28 156,-88 Q144,-111 131,-139"/> 
            <glyph glyph-name="&lt;" unicode="&#x3C;" horiz-adv-x="476" d=" M476,547 L476,454 L155,303 L476,152 L476,60 L54,257 L54,350"/> 
            <glyph glyph-name="=" unicode="&#x3D;" horiz-adv-x="593" d=" M593,380 L111,380 L111,466 L593,466 M593,184 L111,184 L111,269 L593,269"/> 
            <glyph glyph-name="&gt;" unicode="&#x3E;" horiz-adv-x="496" d=" M496,257 L74,60 L74,152 L394,303 L74,454 L74,547 L496,350"/> 
            <glyph glyph-name="?" unicode="&#x3F;" horiz-adv-x="468" d=" M229,695 Q338,695 402,637 Q468,580 468,486 Q468,393 406,333 Q344,273 249,273 L230,273 L233,184 L148,184 L132,351 L231,351 Q298,351 338.5,389 Q379,427 379,490 Q379,545 338.5,579 Q298,613 232,613 Q166,613 64,596 L50,673 Q144,695 229,695 M129,73 Q167,109 193,109 Q219,109 238,91 Q257,73 257,47 Q257,21 238,3 Q219,-15 193,-15 Q167,-15 148,3 Q129,21 129,73"/> 
            <glyph glyph-name="@" unicode="&#x40;" horiz-adv-x="963" d=" M510,690 Q714,690 838,569 Q963,447 963,249 Q963,131 910,68.5 Q857,6 768,6 Q675,6 645,69 Q559,5 470,5 Q369,5 308,72 Q247,139 247,249 Q249,353 309,416 Q370,480 476,480 Q579,480 715,457 L715,166 Q715,114 730,91.5 Q745,69 782,69 Q912,69 912,249 Q912,426 801,534 Q692,642 510,642 Q340,642 224,529 Q108,416 108,249 Q108,81 217,-31 Q326,-143 495,-144 Q594,-144 752,-108 L761,-154 Q604,-192 495,-192 Q302,-192 179,-67 Q57,58 57,249 Q57,438 186,564 Q316,690 510,690 M488,405 Q414,405 373.5,362 Q333,319 333,245 Q333,172 374,125.5 Q415,79 481,79 Q555,79 632,134 Q628,151 628,181 L628,395 Q571,405 488,405"/> 
            <glyph glyph-name="A" unicode="&#x41;" horiz-adv-x="739" d=" M205,153 L138,0 L31,0 L340,684 L430,684 L739,0 L632,0 L565,153 M385,561 L243,238 L527,238"/> 
            <glyph glyph-name="B" unicode="&#x42;" horiz-adv-x="625" d=" M462,349 Q538,335 581.5,291.5 Q625,248 625,186 Q625,93 557,42.5 Q489,-8 368,-8 Q247,-8 93,0 L93,680 Q291,686 359,686 Q470,686 530.5,640 Q591,594 591,508 Q591,449 557,407 Q523,365 462,349 M349,601 Q326,601 188,599 L188,383 L354,383 Q422,383 461.5,412.5 Q501,442 501,494 Q501,601 349,601 M358,76 Q531,76 531,194 Q531,245 489,273 Q447,301 374,301 L188,301 L188,81 Q300,76 358,76"/> 
            <glyph glyph-name="C" unicode="&#x43;" horiz-adv-x="679" d=" M671,663 L653,573 Q533,603 449,603 Q314,603 237,531 Q162,459 162,341 Q162,220 237,147 Q313,74 437,74 Q529,74 661,108 L679,25 Q553,-15 433,-15 Q263,-15 162,82 Q61,180 61,341 Q61,500 163,598 Q266,695 436,695 Q551,695 671,663"/> 
            <glyph glyph-name="D" unicode="&#x44;" horiz-adv-x="685" d=" M327,688 Q488,688 586,594 Q685,499 685,344 Q685,186 588,89 Q491,-8 340,-8 Q247,-8 93,0 L93,680 Q247,688 327,688 M340,81 Q447,81 516,153 Q585,225 585,344 Q585,461 514,530 Q444,600 327,600 Q268,600 188,596 L188,84 Q262,81 340,81"/> 
            <glyph glyph-name="E" unicode="&#x45;" horiz-adv-x="575" d=" M188,384 L533,384 L533,296 L188,296 L188,88 L575,88 L575,0 L93,0 L93,680 L575,680 L575,592 L188,592"/> 
            <glyph glyph-name="F" unicode="&#x46;" horiz-adv-x="563" d=" M188,358 L521,358 L521,270 L188,270 L188,0 L93,0 L93,680 L563,680 L563,592 L188,592"/> 
            <glyph glyph-name="G" unicode="&#x47;" horiz-adv-x="735" d=" M735,381 L735,56 Q569,-15 424,-15 Q262,-15 161,83 Q61,180 61,342 Q61,501 164,598 Q267,695 437,695 Q554,695 671,663 L652,574 Q513,603 443,603 Q316,603 238,531 Q161,460 161,342 Q161,224 233,150 Q305,78 424,78 Q532,78 644,114 L644,293 L386,293 L386,381"/> 
            <glyph glyph-name="H" unicode="&#x48;" horiz-adv-x="664" d=" M664,0 L569,0 L569,291 L188,291 L188,0 L93,0 L93,680 L188,680 L188,379 L569,379 L569,680 L664,680"/> 
            <glyph glyph-name="I" unicode="&#x49;" horiz-adv-x="188" d=" M188,680 L188,0 L93,0 L93,680"/> 
            <glyph glyph-name="J" unicode="&#x4A;" horiz-adv-x="486" d=" M486,680 L486,255 Q486,129 421,56 Q356,-15 247,-15 Q142,-15 21,27 L39,112 Q161,77 247,77 Q313,77 351,124.5 Q389,172 389,255 L389,680"/> 
            <glyph glyph-name="K" unicode="&#x4B;" horiz-adv-x="669" d=" M188,268 L188,0 L93,0 L93,680 L188,680 L188,360 L251,360 L531,680 L650,680 L363,353 L669,0 L550,0 L309,268"/> 
            <glyph glyph-name="L" unicode="&#x4C;" horiz-adv-x="556" d=" M556,0 L93,0 L93,680 L188,680 L188,86 L556,86"/> 
            <glyph glyph-name="M" unicode="&#x4D;" horiz-adv-x="855" d=" M733,469 L511,0 L426,0 L205,469 L176,0 L83,0 L122,680 L213,680 L469,115 L725,680 L816,680 L855,0 L762,0"/> 
            <glyph glyph-name="N" unicode="&#x4E;" horiz-adv-x="688" d=" M688,680 L688,0 L595,0 L188,520 L188,0 L93,0 L93,680 L183,680 L592,157 L592,680"/> 
            <glyph glyph-name="O" unicode="&#x4F;" horiz-adv-x="781" d=" M161,597 Q262,695 421,695 Q580,695 681,597 Q781,500 781,340 Q781,180 681,83 Q580,-15 421,-15 Q262,-15 161,83 Q61,180 61,340 Q61,500 161,597 M233,147 Q306,74 421,74 Q536,74 608,147 Q681,220 681,340 Q681,459 608,532 Q536,605 421,605 Q306,605 233,532 Q161,458 161,340 Q161,220 233,147"/> 
            <glyph glyph-name="P" unicode="&#x50;" horiz-adv-x="603" d=" M329,688 Q452,688 527,625 Q603,564 603,455 Q603,350 527,286 Q451,222 329,222 L188,222 L188,0 L93,0 L93,680 Q242,688 329,688 M188,308 L339,308 Q415,308 462,348.5 Q509,389 509,455 Q509,523 462.5,561.5 Q416,600 339,600 Q251,600 188,596"/> 
            <glyph glyph-name="Q" unicode="&#x51;" horiz-adv-x="781" d=" M781,340 Q781,227 727.5,141.5 Q674,56 580,16 L737,-165 L617,-165 L482,-11 Q458,-15 421,-15 Q262,-15 161,83 Q61,180 61,340 Q61,500 161,597 Q262,695 421,695 Q580,695 681,597 Q781,500 781,340 M233,532 Q161,458 161,340 Q161,220 233,147 Q306,74 421,74 Q536,74 608,147 Q681,220 681,340 Q681,459 608,532 Q536,605 421,605 Q306,605 233,532"/> 
            <glyph glyph-name="R" unicode="&#x52;" horiz-adv-x="638" d=" M523,0 L355,234 Q344,233 304,233 L188,233 L188,0 L93,0 L93,680 Q211,686 329,686 Q453,686 525,627.5 Q597,569 597,463 Q597,391 558.5,337 Q520,283 450,257 L638,0 M188,318 L339,318 Q412,318 457.5,358 Q503,398 503,463 Q503,530 457.5,565 Q412,600 332,600 Q266,600 188,597"/> 
            <glyph glyph-name="S" unicode="&#x53;" horiz-adv-x="610" d=" M590,648 L565,564 Q433,604 334,604 Q266,604 227.5,576 Q189,548 189,497 Q189,452 227,431 Q267,409 362,390 Q479,366 541,328 Q610,286 610,192 Q610,92 538,38 Q467,-15 348,-15 Q205,-15 64,42 L88,131 Q228,74 352,74 Q427,74 470.5,102.5 Q514,131 514,183 Q514,244 452,269 Q410,289 321,306 L300,310 Q185,334 136,374 Q88,414 88,494 Q88,584 156,637 Q225,691 337,691 Q470,691 590,648"/> 
            <glyph glyph-name="T" unicode="&#x54;" horiz-adv-x="642" d=" M384,592 L384,0 L289,0 L289,592 L30,592 L30,680 L642,680 L642,592"/> 
            <glyph glyph-name="U" unicode="&#x55;" horiz-adv-x="679" d=" M679,680 L679,282 Q679,146 597,65 Q515,-15 380,-15 Q247,-15 164,65 Q83,146 83,282 L83,680 L178,680 L178,282 Q178,186 233,130 Q288,74 380,74 Q473,74 528.5,130 Q584,186 584,282 L584,680"/> 
            <glyph glyph-name="V" unicode="&#x56;" horiz-adv-x="727" d=" M427,0 L335,0 L34,680 L144,680 L380,128 L619,680 L727,680"/> 
            <glyph glyph-name="W" unicode="&#x57;" horiz-adv-x="1028" d=" M798,0 L708,0 L530,519 L351,0 L260,0 L31,680 L132,680 L308,147 L488,680 L570,680 L751,148 L927,680 L1028,680"/> 
            <glyph glyph-name="X" unicode="&#x58;" horiz-adv-x="693" d=" M425,337 L693,0 L579,0 L360,264 L140,0 L27,0 L294,337 L34,680 L153,680 L360,415 L566,680 L685,680"/> 
            <glyph glyph-name="Y" unicode="&#x59;" horiz-adv-x="687" d=" M307,236 L24,680 L132,680 L355,336 L579,680 L687,680 L404,236 L404,0 L307,0"/> 
            <glyph glyph-name="Z" unicode="&#x5A;" horiz-adv-x="604" d=" M601,620 L199,88 L604,88 L604,0 L60,0 L60,60 L468,592 L73,592 L73,680 L601,680"/> 
            <glyph glyph-name="[" unicode="&#x5B;" horiz-adv-x="299" d=" M158,-141 L299,-141 L299,-229 L66,-229 L66,753 L299,753 L299,665 L158,665"/> 
            <glyph glyph-name="\" unicode="&#x5C;" horiz-adv-x="471" d=" M139,768 L471,-272 L376,-272 L44,768"/> 
            <glyph glyph-name="]" unicode="&#x5D;" horiz-adv-x="274" d=" M41,665 L41,753 L274,753 L274,-229 L41,-229 L41,-141 L182,-141 L182,665"/> 
            <glyph glyph-name="^" unicode="&#x5E;" horiz-adv-x="399" d=" M209,598 L112,450 L20,450 L171,680 L248,680 L399,450 L307,450"/> 
            <glyph glyph-name="_" unicode="&#x5F;" horiz-adv-x="605" d=" M37,-114 L605,-114 L605,-195 L37,-195"/> 
            <glyph glyph-name="`" unicode="&#x60;" horiz-adv-x="386" d=" M386,567 L296,567 L182,721 L306,721"/> 
            <glyph glyph-name="a" unicode="&#x61;" horiz-adv-x="533" d=" M285,482 Q389,482 533,459 L533,0 L441,0 L441,38 Q361,-15 279,-15 Q175,-15 112,54 Q49,123 49,236 Q50,347 112,415 Q175,482 285,482 M297,405 Q221,405 180,359 Q139,313 139,233 Q139,157 180.5,110 Q222,63 291,63 Q366,63 441,117 L441,394 Q362,405 297,405"/> 
            <glyph glyph-name="b" unicode="&#x62;" horiz-adv-x="566" d=" M174,710 L174,465 Q237,482 324,482 Q439,482 502.5,416.5 Q566,351 566,237 Q566,121 502,54 Q439,-12 337,-12 Q212,-12 83,8 L83,710 M313,405 Q238,405 174,387 L174,75 Q254,63 318,63 Q393,63 434.5,109.5 Q476,156 476,237 Q476,316 434.5,360.5 Q393,405 313,405"/> 
            <glyph glyph-name="c" unicode="&#x63;" horiz-adv-x="480" d=" M475,460 L461,387 Q370,408 321,408 Q239,408 190,360.5 Q141,313 141,236 Q141,159 189,112 Q238,65 313,65 Q370,65 467,89 L480,15 Q390,-15 308,-15 Q193,-15 121,54 Q49,123 49,237 Q49,351 122,418 Q196,486 314,486 Q397,486 475,460"/> 
            <glyph glyph-name="d" unicode="&#x64;" horiz-adv-x="532" d=" M532,710 L532,8 Q403,-12 278,-12 Q176,-12 112,54 Q49,122 49,237 Q49,351 112.5,416.5 Q176,482 291,482 Q378,482 441,465 L441,710 M302,405 Q222,405 180.5,360.5 Q139,316 139,237 Q139,156 180.5,109.5 Q222,63 297,63 Q362,63 441,75 L441,387 Q376,405 302,405"/> 
            <glyph glyph-name="e" unicode="&#x65;" horiz-adv-x="520" d=" M293,483 Q392,483 456,424 Q519,366 520,269 Q520,239 515,199 L147,199 Q158,137 201.5,102 Q245,67 312,67 Q366,67 481,93 L495,19 Q389,-15 309,-15 Q186,-15 117,54 Q49,125 49,235 Q49,346 118,414 Q187,483 293,483 M144,270 L437,270 Q436,334 397,372 Q358,410 295,410 Q233,410 192.5,372 Q152,334 144,270"/> 
            <glyph glyph-name="f" unicode="&#x66;" horiz-adv-x="393" d=" M393,385 L220,385 L220,0 L128,0 L128,385 L8,385 L8,467 L128,467 L128,565 Q128,651 176.5,701.5 Q225,752 307,752 Q344,752 386,741 L372,663 Q341,669 310,669 Q268,669 244,641 Q220,613 220,562 L220,467 L393,467"/> 
            <glyph glyph-name="g" unicode="&#x67;" horiz-adv-x="533" d=" M285,482 Q364,482 455,471 Q459,471 465.5,469.5 Q472,468 481.5,466.5 Q491,465 498,464 L533,459 L533,10 Q533,-109 464,-179.5 Q395,-250 273,-250 Q194,-250 101,-218 L117,-142 Q219,-168 270,-168 Q349,-168 394.5,-122 Q440,-76 441,6 Q367,-5 279,-5 Q176,-5 112,62 Q49,130 49,236 Q49,348 112,415 Q175,482 285,482 M297,405 Q221,405 180,359 Q139,313 139,233 Q139,164 181,118 Q223,73 291,73 Q375,73 441,85 L441,394 Q362,405 297,405"/> 
            <glyph glyph-name="h" unicode="&#x68;" horiz-adv-x="540" d=" M346,482 Q435,482 487.5,432 Q540,382 540,296 L540,0 L448,0 L448,271 Q448,330 415.5,364.5 Q383,399 328,399 Q248,399 176,380 L176,0 L84,0 L84,710 L176,710 L176,464 Q253,482 346,482"/> 
            <glyph glyph-name="i" unicode="&#x69;" horiz-adv-x="192" d=" M65,629 Q65,656 83.5,674.5 Q102,693 128,693 Q155,693 173.5,674.5 Q192,656 192,629 Q192,603 173,585 Q154,567 128,567 Q102,567 83.5,585 Q65,603 65,629 M174,467 L174,0 L83,0 L83,467"/> 
            <glyph glyph-name="j" unicode="&#x6A;" horiz-adv-x="180" d=" M180,629 Q180,603 161,585 Q142,567 116,567 Q90,567 71,585 Q52,603 52,629 Q52,656 70.5,674.5 Q89,693 116,693 Q143,693 161.5,674.5 Q180,656 180,629 M162,467 L162,-25 Q162,-137 121,-189 Q81,-239 -33,-241 L-40,-161 Q22,-163 46,-135 Q70,-107 70,-36 L70,467"/> 
            <glyph glyph-name="k" unicode="&#x6B;" horiz-adv-x="545" d=" M174,279 L227,279 L409,467 L522,467 L325,264 L545,0 L436,0 L267,194 L174,194 L174,0 L83,0 L83,710 L174,710"/> 
            <glyph glyph-name="l" unicode="&#x6C;" horiz-adv-x="179" d=" M179,710 L179,0 L88,0 L88,710"/> 
            <glyph glyph-name="m" unicode="&#x6D;" horiz-adv-x="844" d=" M654,482 Q844,482 844,296 L844,0 L752,0 L752,271 Q752,399 635,399 Q563,399 498,377 Q509,342 509,299 L509,0 L417,0 L417,275 Q417,341 389,370 Q361,399 298,399 Q240,398 174,388 L174,0 L83,0 L83,457 Q188,481 317,482 Q403,482 449,447 Q537,482 654,482"/> 
            <glyph glyph-name="n" unicode="&#x6E;" horiz-adv-x="538" d=" M345,482 Q434,482 486,432 Q538,382 538,296 L538,0 L447,0 L447,271 Q447,330 414.5,364.5 Q382,399 326,399 Q257,399 174,387 L174,0 L83,0 L83,459 Q201,482 345,482"/> 
            <glyph glyph-name="o" unicode="&#x6F;" horiz-adv-x="566" d=" M566,237 Q566,124 494,53 Q424,-17 308,-17 Q192,-17 121,53 Q49,124 49,237 Q49,349 121,418 Q193,487 308,487 Q424,487 494,418 Q566,349 566,237 M473,237 Q473,312 427.5,357.5 Q382,403 308,403 Q234,403 188,357.5 Q142,312 142,237 Q142,160 188,114 Q235,67 308,67 Q382,67 427.5,114 Q473,161 473,237"/> 
            <glyph glyph-name="p" unicode="&#x70;" horiz-adv-x="567" d=" M331,482 Q441,482 502,415 Q566,348 567,236 Q567,129 503,62 Q440,-5 337,-5 Q248,-5 174,6 L174,-228 L83,-228 L83,459 Q210,482 331,482 M325,73 Q394,73 434,118 Q476,164 476,233 Q476,313 435.5,359 Q395,405 319,405 Q254,405 174,394 L174,85 Q242,73 325,73"/> 
            <glyph glyph-name="q" unicode="&#x71;" horiz-adv-x="537" d=" M289,482 Q410,482 537,459 L537,-228 L446,-228 L446,6 Q372,-5 283,-5 Q180,-5 116,62 Q53,130 53,236 Q54,348 117,415 Q180,482 289,482 M295,73 Q378,73 446,85 L446,394 Q366,405 302,405 Q225,405 184.5,359 Q144,313 144,233 Q144,165 185,118 Q227,73 295,73"/> 
            <glyph glyph-name="r" unicode="&#x72;" horiz-adv-x="357" d=" M357,481 L357,390 Q252,390 174,382 L174,0 L83,0 L83,454 Q231,481 357,481"/> 
            <glyph glyph-name="s" unicode="&#x73;" horiz-adv-x="465" d=" M57,29 L77,105 Q185,61 271,61 Q320,61 350,78.5 Q380,96 380,126 Q380,164 320,182 Q305,186 230,203 Q148,219 110.5,250 Q73,281 73,336 Q73,405 124,443 Q175,481 265,481 Q362,481 451,448 L429,376 Q333,407 260,407 Q163,407 163,342 Q166,312 189,300.5 Q212,289 276,274 L287,272 Q383,252 423,225 Q465,196 465,134 Q465,62 411.5,23.5 Q358,-15 266,-15 Q162,-15 57,29"/> 
            <glyph glyph-name="t" unicode="&#x74;" horiz-adv-x="408" d=" M398,75 L408,-1 Q344,-15 294,-15 Q128,-15 128,166 L128,385 L24,385 L24,467 L128,467 L128,654 L220,654 L220,467 L380,467 L380,385 L220,385 L220,175 Q220,119 241.5,93 Q263,67 311,67 Q344,67 398,75"/> 
            <glyph glyph-name="u" unicode="&#x75;" horiz-adv-x="535" d=" M535,467 L535,10 Q431,-15 273,-15 Q179,-15 129,31.5 Q79,78 79,172 L79,467 L171,467 L171,192 Q171,64 291,64 Q353,64 443,75 L443,467"/> 
            <glyph glyph-name="v" unicode="&#x76;" horiz-adv-x="557" d=" M345,0 L247,0 L34,467 L135,467 L296,109 L456,467 L557,467"/> 
            <glyph glyph-name="w" unicode="&#x77;" horiz-adv-x="783" d=" M621,0 L531,0 L410,334 L290,0 L201,0 L38,467 L131,467 L249,126 L374,467 L447,467 L571,124 L689,467 L783,467"/> 
            <glyph glyph-name="x" unicode="&#x78;" horiz-adv-x="525" d=" M339,234 L525,0 L417,0 L279,171 L140,0 L32,0 L218,234 L34,468 L145,468 L278,300 L412,468 L523,468"/> 
            <glyph glyph-name="y" unicode="&#x79;" horiz-adv-x="597" d=" M597,467 L251,-228 L147,-228 L274,27 L39,467 L144,467 L324,128 L493,467"/> 
            <glyph glyph-name="z" unicode="&#x7A;" horiz-adv-x="457" d=" M444,416 L180,80 L457,80 L457,0 L48,0 L48,46 L318,388 L55,388 L55,468 L444,468"/> 
            <glyph glyph-name="{" unicode="&#x7B;" horiz-adv-x="324" d=" M230,580 L230,384 Q230,328 214.5,300 Q199,272 157,258 Q199,244 214.5,216 Q230,188 230,131 L230,-65 Q230,-119 251,-139.5 Q272,-160 324,-160 L324,-243 Q229,-243 184,-198.5 Q139,-154 139,-61 L139,129 Q139,180 118.5,198.5 Q98,217 45,217 L45,298 Q98,298 118.5,316.5 Q139,335 139,387 L139,576 Q139,669 184,713.5 Q229,758 324,758 L324,675 Q272,675 251,654.5 Q230,634 230,580"/> 
            <glyph glyph-name="|" unicode="&#x7C;" horiz-adv-x="201" d=" M201,762 L201,-156 L114,-156 L114,762"/> 
            <glyph glyph-name="}" unicode="&#x7D;" horiz-adv-x="319" d=" M134,384 L134,580 Q134,634 113,654.5 Q92,675 41,675 L41,758 Q136,758 181,713.5 Q226,669 226,576 L226,387 Q226,335 246,316.5 Q266,298 319,298 L319,217 Q266,217 246,198.5 Q226,180 226,129 L226,-61 Q226,-154 181,-198.5 Q136,-243 41,-243 L41,-160 Q92,-160 113,-139 Q134,-118 134,-65 L134,131 Q134,188 150,216 Q166,244 208,258 Q166,272 150,300 Q134,328 134,384"/> 
            <glyph glyph-name="~" unicode="&#x7E;" horiz-adv-x="414" d=" M333,400 L414,400 Q414,356 396.5,326 Q379,296 352.5,284.5 Q326,273 297,274.5 Q268,276 244,290 L184,329 Q157,344 137.5,333.5 Q118,323 118,295 L37,295 Q37,338 55,368 Q73,398 99,409 Q125,420 154,419 Q183,418 207,404 L267,365 Q295,350 314,360 Q333,370 333,400"/> 
            <glyph glyph-name="¡" unicode="&#xA1;" horiz-adv-x="197" d=" M197,423 Q197,398 178,380 Q159,362 133,362 Q107,362 88,380 Q69,398 69,423 Q69,450 87.5,468 Q106,486 133,486 Q160,486 178.5,468 Q197,450 197,423 M86,286 L177,286 L182,-210 L80,-210"/> 
            <glyph glyph-name="¢" unicode="&#xA2;" horiz-adv-x="478" d=" M464,101 L478,25 Q410,2 345,-2 L345,-122 L262,-122 L262,-1 Q163,11 105,77 Q46,145 46,245 Q46,344 105,411 Q163,476 262,490 L262,612 L345,612 L345,492 Q407,488 472,466 L459,391 Q374,412 312,412 Q236,412 187,366 Q139,320 139,245 Q139,170 186.5,123.5 Q234,77 310,77 Q368,77 464,101"/> 
            <glyph glyph-name="£" unicode="&#xA3;" horiz-adv-x="570" d=" M570,0 L39,0 L39,80 L108,80 L108,280 L39,280 L39,360 L108,360 L108,486 Q108,580 174,637 Q239,695 348,695 Q432,695 526,673 L512,596 Q410,613 345,613 Q278,613 239,579 Q200,545 200,487 L200,360 L422,360 L422,280 L200,280 L200,80 L570,80"/> 
            <glyph glyph-name="¥" unicode="&#xA5;" horiz-adv-x="684" d=" M611,290 L611,222 L400,222 L400,150 L611,150 L611,81 L400,81 L400,0 L304,0 L304,81 L92,81 L92,150 L304,150 L304,222 L92,222 L92,290 L270,290 L20,680 L128,680 L352,336 L575,680 L684,680 L434,290"/> 
            <glyph glyph-name="¦" unicode="&#xA6;" horiz-adv-x="201" d=" M201,353 L114,353 L114,761 L201,761 M201,-157 L114,-157 L114,251 L201,251"/> 
            <glyph glyph-name="§" unicode="&#xA7;" horiz-adv-x="501" d=" M280,695 Q386,695 467,656 L440,586 Q350,621 282,621 Q167,621 167,545 Q167,524 176.5,512.5 Q186,501 210,485 L251,467 L306,447 Q407,411 455,370 Q501,333 501,262 Q501,169 412,113 Q462,72 462,11 Q462,-60 409,-101 Q356,-142 263,-142 Q162,-142 76,-103 L102,-32 Q190,-68 261,-68 Q376,-68 376,9 Q376,40 352,56 Q327,73 263,97 L236,107 Q137,143 87,183 Q42,222 42,292 Q42,382 131,441 Q80,482 80,542 Q80,614 132.5,654.5 Q185,695 280,695 M189,408 Q123,358 123,304 Q123,258 165,230 Q188,217 211,205 Q238,193 276,179 L354,146 Q420,195 420,250 Q420,293 385,317 Q351,342 267,375 Q207,399 189,408"/> 
            <glyph glyph-name="¨" unicode="&#xA8;" horiz-adv-x="467" d=" M194,686 Q220,686 237.5,669.5 Q255,653 255,628 Q255,603 237.5,586 Q220,569 194,569 Q169,569 151.5,586 Q134,603 134,628 Q134,653 151.5,669.5 Q169,686 194,686 M406,686 Q432,686 449.5,669.5 Q467,653 467,628 Q467,603 449.5,586 Q432,569 406,569 Q381,569 363.5,586 Q346,603 346,628 Q346,653 363.5,669.5 Q381,686 406,686"/> 
            <glyph glyph-name="©" unicode="&#xA9;" horiz-adv-x="780" d=" M155,593 Q260,695 416,695 Q572,695 676,593 Q780,492 780,340 Q780,188 676,86 Q572,-15 416,-15 Q261,-15 155,86 Q51,188 51,340 Q51,492 155,593 M416,650 Q281,650 189,561 Q98,473 98,340 Q98,207 189,119 Q281,30 416,30 Q549,30 641,119 Q733,208 733,340 Q733,472 641,561 Q549,650 416,650 M555,512 L544,453 Q470,471 426,471 Q361,471 326.5,437 Q292,403 292,340 Q292,278 326.5,243.5 Q361,209 425,209 Q459,209 544,226 L555,168 Q483,144 424,144 Q326,144 272.5,196.5 Q219,249 219,340 Q219,430 273,483 Q327,536 425,536 Q486,536 555,512"/> 
            <glyph glyph-name="ª" unicode="&#xAA;" horiz-adv-x="395" d=" M244,695 Q395,695 395,569 L395,360 Q282,342 198,342 Q129,342 93,370.5 Q57,399 57,452 Q57,547 215,556 L328,561 L328,568 Q326,601 307,616 Q288,631 246,631 Q194,631 102,619 L94,680 Q181,695 244,695 M328,507 L206,501 Q126,496 126,451 Q126,400 211,400 Q255,400 328,410"/> 
            <glyph glyph-name="«" unicode="&#xAB;" horiz-adv-x="494" d=" M284,93 L233,45 L47,246 L233,446 L285,405 L151,248 M493,93 L441,45 L256,246 L441,446 L494,405 L360,248"/> 
            <glyph glyph-name="®" unicode="&#xAE;" horiz-adv-x="780" d=" M155,593 Q260,695 416,695 Q572,695 676,593 Q780,492 780,340 Q780,188 676,86 Q572,-15 416,-15 Q261,-15 155,86 Q51,188 51,340 Q51,492 155,593 M416,650 Q281,650 189,561 Q98,473 98,340 Q98,207 189,119 Q281,30 416,30 Q549,30 641,119 Q733,208 733,340 Q733,472 641,561 Q549,650 416,650 M418,538 Q490,538 532.5,504 Q575,470 575,409 Q575,326 494,294 L599,152 L517,152 L428,277 Q425,276 414,276 L343,276 L343,152 L276,152 L276,536 Q306,536 340,537 Q374,538 418,538 M421,479 Q415,479 343,477 L343,335 L425,335 Q461,335 484.5,355.5 Q508,376 508,409 Q508,479 421,479"/> 
            <glyph glyph-name="¯" unicode="&#xAF;" horiz-adv-x="437" d=" M437,676 L437,601 L163,601 L163,676"/> 
            <glyph glyph-name="°" unicode="&#xB0;" horiz-adv-x="409" d=" M117,647 Q167,695 239,695 Q312,695 360,647 Q409,601 409,529 Q409,458 360,410 Q311,363 239,363 Q167,363 117,410 Q69,458 69,529 Q69,600 117,647 M239,433 Q280,433 308.5,461 Q337,489 337,529 Q337,569 308.5,597.5 Q280,626 239,626 Q199,626 170.5,597.5 Q142,569 142,529 Q142,489 170.5,461 Q199,433 239,433"/> 
            <glyph glyph-name="±" unicode="&#xB1;" horiz-adv-x="578" d=" M578,323 L389,323 L389,175 L301,175 L301,323 L111,323 L111,408 L301,408 L301,557 L389,557 L389,408 L578,408 M578,126 L578,40 L111,40 L111,126"/> 
            <glyph glyph-name="²" unicode="&#xB2;" horiz-adv-x="314" d=" M314,297 L32,297 L32,345 L173,470 Q228,513 228,556 Q228,618 152,618 Q106,618 46,597 L29,659 Q92,685 163,685 Q230,685 267,651.5 Q304,618 304,567 Q304,527 281.5,492.5 Q259,458 207,411 L147,359 L314,359"/> 
            <glyph glyph-name="³" unicode="&#xB3;" horiz-adv-x="322" d=" M306,637 L193,520 L201,519 Q255,516 288.5,487.5 Q322,459 322,417 Q322,358 281.5,325 Q241,292 165,292 Q84,292 25,324 L50,380 Q114,354 167,354 Q206,354 230.5,370 Q255,386 255,411 Q255,460 181,460 L95,460 L95,494 L207,616 L46,616 L46,680 L306,680"/> 
            <glyph glyph-name="´" unicode="&#xB4;" horiz-adv-x="442" d=" M442,721 L329,567 L239,567 L319,721"/> 
            <glyph glyph-name="¶" unicode="&#xB6;" horiz-adv-x="676" d=" M284,688 Q524,688 676,680 L676,-106 L581,-106 L581,594 Q527,597 463,597 L463,-106 L368,-106 L368,222 L284,222 Q165,222 98,284.5 Q31,347 31,455 Q31,565 97.5,626.5 Q164,688 284,688 M368,599 L275,600 Q124,600 124,455 Q124,385 163,346.5 Q202,308 275,308 L368,308"/> 
            <glyph glyph-name="·" unicode="&#xB7;" horiz-adv-x="214" d=" M193,212 Q173,193 144,193 Q115,193 94,212 Q74,232 74,260 Q74,288 94,307 Q115,327 144,327 Q173,327 193,307 Q214,288 214,260 Q214,232 193,212"/> 
            <glyph glyph-name="¸" unicode="&#xB8;" horiz-adv-x="347" d=" M288,-206 L211,-206 L258,-50 L347,-50"/> 
            <glyph glyph-name="¹" unicode="&#xB9;" horiz-adv-x="268" d=" M268,363 L268,300 L23,300 L23,363 L112,363 L112,593 L29,569 L13,633 L163,680 L183,680 L183,363"/> 
            <glyph glyph-name="º" unicode="&#xBA;" horiz-adv-x="413" d=" M228,695 Q309,695 361,646 Q413,597 413,519 Q413,438 361,389 Q309,340 228,340 Q148,340 96,389 Q44,438 44,519 Q44,597 96,646 Q148,695 228,695 M228,406 Q277,406 308.5,437.5 Q340,469 340,519 Q340,569 308.5,599.5 Q277,630 228,630 Q180,630 148.5,598.5 Q117,567 117,519 Q117,469 148.5,437.5 Q180,406 228,406"/> 
            <glyph glyph-name="»" unicode="&#xBB;" horiz-adv-x="514" d=" M67,405 L119,446 L305,246 L119,45 L68,93 L201,248 M275,405 L328,446 L514,246 L328,45 L277,93 L409,248"/> 
            <glyph glyph-name="¼" unicode="&#xBC;" horiz-adv-x="828" d=" M69,300 L69,363 L158,363 L158,593 L75,569 L59,633 L209,680 L229,680 L229,363 L314,363 L314,300 M710,680 L252,0 L198,0 L656,680 M828,144 L828,83 L770,83 L770,0 L699,0 L699,83 L471,83 L471,133 L695,380 L770,380 L770,144 M699,299 L562,144 L699,144"/> 
            <glyph glyph-name="½" unicode="&#xBD;" horiz-adv-x="835" d=" M69,300 L69,363 L158,363 L158,593 L75,569 L59,633 L209,680 L229,680 L229,363 L314,363 L314,300 M696,680 L239,0 L185,0 L642,680 M835,62 L835,0 L553,0 L553,48 L694,173 Q750,215 750,259 Q750,321 673,321 Q627,321 567,300 L550,362 Q613,388 684,388 Q751,388 788,354.5 Q825,321 825,270 Q825,230 802.5,195.5 Q780,161 728,114 L668,62"/> 
            <glyph glyph-name="¾" unicode="&#xBE;" horiz-adv-x="855" d=" M342,637 L229,520 L237,519 Q291,516 324.5,487.5 Q358,459 358,417 Q358,358 317.5,325 Q277,292 201,292 Q120,292 61,324 L86,380 Q150,354 203,354 Q242,354 266.5,370 Q291,386 291,411 Q291,460 217,460 L131,460 L131,494 L243,616 L82,616 L82,680 L342,680 M275,0 L220,0 L678,680 L732,680 M797,144 L855,144 L855,83 L797,83 L797,0 L726,0 L726,83 L497,83 L497,133 L722,380 L797,380 M588,144 L726,144 L726,299"/> 
            <glyph glyph-name="¿" unicode="&#xBF;" horiz-adv-x="468" d=" M261,454 Q261,481 279.5,498.5 Q298,516 325,516 Q352,516 370.5,498.5 Q389,481 389,454 Q389,428 370.5,410.5 Q352,393 325,393 Q298,393 279.5,410.5 Q261,428 261,454 M289,-194 Q181,-194 116,-136 Q50,-79 50,15 Q50,108 111,168 Q172,228 270,228 L288,228 L285,317 L370,317 L386,151 L288,151 Q221,151 180,112.5 Q139,74 139,12 Q139,-44 179.5,-78 Q220,-112 287,-112 Q352,-112 454,-95 L468,-172 Q374,-194 289,-194"/> 
            <glyph glyph-name="À" unicode="&#xC0;" horiz-adv-x="740" d=" M431,746 L341,746 L228,894 L351,894 M206,153 L139,0 L31,0 L341,684 L431,684 L740,0 L633,0 L565,153 M385,561 L243,238 L528,238"/> 
            <glyph glyph-name="Á" unicode="&#xC1;" horiz-adv-x="740" d=" M554,894 L441,746 L344,746 L431,894 M206,153 L139,0 L31,0 L341,684 L431,684 L740,0 L633,0 L565,153 M385,561 L243,238 L528,238"/> 
            <glyph glyph-name="Â" unicode="&#xC2;" horiz-adv-x="740" d=" M385,835 L312,746 L220,746 L344,894 L427,894 L550,746 L459,746 M206,153 L139,0 L31,0 L341,684 L431,684 L740,0 L633,0 L565,153 M385,561 L243,238 L528,238"/> 
            <glyph glyph-name="Ã" unicode="&#xC3;" horiz-adv-x="740" d=" M479,860 L552,860 Q552,822 536,795 Q520,768 497,757.5 Q474,747 448,748 Q422,749 401,762 L348,796 Q324,810 307.5,800.5 Q291,791 291,766 L217,766 Q217,805 233,831.5 Q249,858 272.5,868 Q296,878 322,877 Q348,876 369,864 L421,830 Q446,816 462.5,825.5 Q479,835 479,860 M206,153 L139,0 L31,0 L341,684 L431,684 L740,0 L633,0 L565,153 M385,561 L243,238 L528,238"/> 
            <glyph glyph-name="Ä" unicode="&#xC4;" horiz-adv-x="740" d=" M279,760 Q253,760 236,776.5 Q219,793 219,818 Q219,843 236,859.5 Q253,876 279,876 Q304,876 321.5,859.5 Q339,843 339,818 Q339,793 321.5,776.5 Q304,760 279,760 M491,760 Q465,760 447.5,776.5 Q430,793 430,818 Q430,843 447.5,859.5 Q465,876 491,876 Q516,876 533.5,859.5 Q551,843 551,818 Q551,793 533.5,776.5 Q516,760 491,760 M206,153 L139,0 L31,0 L341,684 L431,684 L740,0 L633,0 L565,153 M385,561 L243,238 L528,238"/> 
            <glyph glyph-name="Å" unicode="&#xC5;" horiz-adv-x="740" d=" M489,830 Q489,786 460,758 Q431,730 385,730 Q339,730 310,758 Q281,786 281,830 Q281,875 310,902 Q339,929 385,929 Q431,929 460,902 Q489,875 489,830 M436,830 Q438,861 411.5,873.5 Q385,886 358.5,873.5 Q332,861 335,830 Q332,799 358.5,786 Q385,773 411.5,786 Q438,799 436,830 M206,153 L139,0 L31,0 L341,684 L431,684 L740,0 L633,0 L565,153 M385,561 L243,238 L528,238"/> 
            <glyph glyph-name="Æ" unicode="&#xC6;" horiz-adv-x="1037" d=" M649,384 L995,384 L995,296 L649,296 L649,88 L1037,88 L1037,0 L554,0 L554,150 L256,150 L147,0 L31,0 L528,680 L1037,680 L1037,592 L649,592 M554,563 L318,238 L554,238"/> 
            <glyph glyph-name="Ç" unicode="&#xC7;" horiz-adv-x="679" d=" M671,663 L653,573 Q534,603 449,603 Q314,603 237,531 Q162,459 162,341 Q162,220 237,147 Q313,74 438,74 Q529,74 661,108 L679,25 Q553,-15 433,-15 Q263,-15 162,82 Q61,180 61,341 Q61,500 163,598 Q266,695 437,695 Q551,695 671,663 M383,-206 L306,-206 L353,-50 L442,-50"/> 
            <glyph glyph-name="È" unicode="&#xC8;" horiz-adv-x="575" d=" M377,746 L287,746 L174,894 L297,894 M187,384 L533,384 L533,296 L187,296 L187,88 L575,88 L575,0 L92,0 L92,680 L575,680 L575,592 L187,592"/> 
            <glyph glyph-name="É" unicode="&#xC9;" horiz-adv-x="575" d=" M499,894 L386,746 L289,746 L376,894 M187,384 L533,384 L533,296 L187,296 L187,88 L575,88 L575,0 L92,0 L92,680 L575,680 L575,592 L187,592"/> 
            <glyph glyph-name="Ê" unicode="&#xCA;" horiz-adv-x="575" d=" M331,835 L258,746 L166,746 L290,894 L373,894 L496,746 L405,746 M187,384 L533,384 L533,296 L187,296 L187,88 L575,88 L575,0 L92,0 L92,680 L575,680 L575,592 L187,592"/> 
            <glyph glyph-name="Ë" unicode="&#xCB;" horiz-adv-x="575" d=" M225,760 Q199,760 182,776.5 Q165,793 165,818 Q165,843 182,859.5 Q199,876 225,876 Q250,876 267.5,859.5 Q285,843 285,818 Q285,793 267.5,776.5 Q250,760 225,760 M437,760 Q411,760 393.5,776.5 Q376,793 376,818 Q376,843 393.5,859.5 Q411,876 437,876 Q462,876 479.5,859.5 Q497,843 497,818 Q497,793 479.5,776.5 Q462,760 437,760 M187,384 L533,384 L533,296 L187,296 L187,88 L575,88 L575,0 L92,0 L92,680 L575,680 L575,592 L187,592"/> 
            <glyph glyph-name="Ì" unicode="&#xCC;" horiz-adv-x="187" d=" M187,680 L187,0 L92,0 L92,680 M186,746 L96,746 L-17,894 L106,894"/> 
            <glyph glyph-name="Í" unicode="&#xCD;" horiz-adv-x="309" d=" M187,680 L187,0 L92,0 L92,680 M309,894 L196,746 L99,746 L186,894"/> 
            <glyph glyph-name="Î" unicode="&#xCE;" horiz-adv-x="305" d=" M140,835 L67,746 L-25,746 L99,894 L182,894 L305,746 L214,746 M187,680 L187,0 L92,0 L92,680"/> 
            <glyph glyph-name="Ï" unicode="&#xCF;" horiz-adv-x="306" d=" M34,760 Q8,760 -9.5,776.5 Q-27,793 -27,818 Q-27,843 -9.5,859.5 Q8,876 34,876 Q59,876 76.5,859.5 Q94,843 94,818 Q94,793 76.5,776.5 Q59,760 34,760 M246,760 Q220,760 202.5,776.5 Q185,793 185,818 Q185,843 202.5,859.5 Q220,876 246,876 Q271,876 288.5,859.5 Q306,843 306,818 Q306,793 288.5,776.5 Q271,760 246,760 M187,680 L187,0 L92,0 L92,680"/> 
            <glyph glyph-name="Ð" unicode="&#xD0;" horiz-adv-x="685" d=" M326,688 Q487,688 585,594 Q685,500 685,344 Q685,187 587,89 Q490,-8 340,-8 Q249,-8 92,0 L92,291 L32,291 L32,379 L92,379 L92,680 Q249,688 326,688 M340,81 Q447,81 516,153 Q585,225 585,344 Q585,461 514,530 Q444,600 327,600 Q269,600 188,596 L188,379 L352,379 L352,291 L188,291 L188,84 Q263,81 340,81"/> 
            <glyph glyph-name="Ñ" unicode="&#xD1;" horiz-adv-x="687" d=" M478,860 L551,860 Q551,822 535,795 Q519,768 496,757.5 Q473,747 447,748 Q421,749 400,762 L347,796 Q323,810 306.5,800.5 Q290,791 290,766 L216,766 Q216,805 232,831.5 Q248,858 271.5,868 Q295,878 321,877 Q347,876 368,864 L420,830 Q445,816 461.5,825.5 Q478,835 478,860 M687,680 L687,0 L594,0 L187,520 L187,0 L92,0 L92,680 L182,680 L592,157 L592,680"/> 
            <glyph glyph-name="Ò" unicode="&#xD2;" horiz-adv-x="781" d=" M161,597 Q262,695 421,695 Q580,695 681,597 Q781,500 781,340 Q781,180 681,83 Q580,-15 421,-15 Q262,-15 161,83 Q61,180 61,340 Q61,500 161,597 M233,147 Q306,74 421,74 Q536,74 608,147 Q681,220 681,340 Q681,459 608,532 Q536,605 421,605 Q306,605 233,532 Q161,458 161,340 Q161,220 233,147 M467,746 L377,746 L264,894 L387,894"/> 
            <glyph glyph-name="Ó" unicode="&#xD3;" horiz-adv-x="781" d=" M161,597 Q262,695 421,695 Q580,695 681,597 Q781,500 781,340 Q781,180 681,83 Q580,-15 421,-15 Q262,-15 161,83 Q61,180 61,340 Q61,500 161,597 M233,147 Q306,74 421,74 Q536,74 608,147 Q681,220 681,340 Q681,459 608,532 Q536,605 421,605 Q306,605 233,532 Q161,458 161,340 Q161,220 233,147 M589,894 L476,746 L379,746 L466,894"/> 
            <glyph glyph-name="Ô" unicode="&#xD4;" horiz-adv-x="781" d=" M421,835 L348,746 L256,746 L380,894 L463,894 L586,746 L495,746 M161,597 Q262,695 421,695 Q580,695 681,597 Q781,500 781,340 Q781,180 681,83 Q580,-15 421,-15 Q262,-15 161,83 Q61,180 61,340 Q61,500 161,597 M233,147 Q306,74 421,74 Q536,74 608,147 Q681,220 681,340 Q681,459 608,532 Q536,605 421,605 Q306,605 233,532 Q161,458 161,340 Q161,220 233,147"/> 
            <glyph glyph-name="Õ" unicode="&#xD5;" horiz-adv-x="781" d=" M515,860 L588,860 Q588,822 572,795 Q556,768 533,757.5 Q510,747 484,748 Q458,749 437,762 L384,796 Q360,810 343.5,800.5 Q327,791 327,766 L253,766 Q253,805 269,831.5 Q285,858 308.5,868 Q332,878 358,877 Q384,876 405,864 L457,830 Q482,816 498.5,825.5 Q515,835 515,860 M161,597 Q262,695 421,695 Q580,695 681,597 Q781,500 781,340 Q781,180 681,83 Q580,-15 421,-15 Q262,-15 161,83 Q61,180 61,340 Q61,500 161,597 M233,147 Q306,74 421,74 Q536,74 608,147 Q681,220 681,340 Q681,459 608,532 Q536,605 421,605 Q306,605 233,532 Q161,458 161,340 Q161,220 233,147"/> 
            <glyph glyph-name="Ö" unicode="&#xD6;" horiz-adv-x="781" d=" M161,597 Q262,695 421,695 Q580,695 681,597 Q781,500 781,340 Q781,180 681,83 Q580,-15 421,-15 Q262,-15 161,83 Q61,180 61,340 Q61,500 161,597 M233,147 Q306,74 421,74 Q536,74 608,147 Q681,220 681,340 Q681,459 608,532 Q536,605 421,605 Q306,605 233,532 Q161,458 161,340 Q161,220 233,147 M315,760 Q289,760 272,776.5 Q255,793 255,818 Q255,843 272,859.5 Q289,876 315,876 Q340,876 357.5,859.5 Q375,843 375,818 Q375,793 357.5,776.5 Q340,760 315,760 M527,760 Q501,760 483.5,776.5 Q466,793 466,818 Q466,843 483.5,859.5 Q501,876 527,876 Q552,876 569.5,859.5 Q587,843 587,818 Q587,793 569.5,776.5 Q552,760 527,760"/> 
            <glyph glyph-name="×" unicode="&#xD7;" horiz-adv-x="547" d=" M547,168 L487,108 L335,260 L183,108 L123,168 L275,320 L123,472 L183,532 L335,381 L487,532 L547,472 L396,320"/> 
            <glyph glyph-name="Ø" unicode="&#xD8;" horiz-adv-x="781" d=" M732,642 L687,591 Q781,494 781,340 Q781,180 681,83 Q580,-15 421,-15 Q299,-15 211,43 L162,-13 L99,40 L148,97 Q61,193 61,340 Q61,500 161,597 Q262,695 421,695 Q534,695 622,643 L668,696 M161,340 Q161,240 213,172 L559,570 Q500,605 421,605 Q306,605 233,532 Q161,458 161,340 M421,74 Q536,74 608,147 Q681,220 681,340 Q681,445 622,516 L274,115 Q339,74 421,74"/> 
            <glyph glyph-name="Ù" unicode="&#xD9;" horiz-adv-x="679" d=" M427,746 L337,746 L224,894 L347,894 M679,680 L679,282 Q679,146 597,65 Q514,-15 380,-15 Q246,-15 163,65 Q82,146 82,282 L82,680 L177,680 L177,282 Q177,186 232,130 Q287,74 380,74 Q473,74 528,130 Q583,186 583,282 L583,680"/> 
            <glyph glyph-name="Ú" unicode="&#xDA;" horiz-adv-x="679" d=" M550,894 L437,746 L340,746 L427,894 M679,680 L679,282 Q679,146 597,65 Q514,-15 380,-15 Q246,-15 163,65 Q82,146 82,282 L82,680 L177,680 L177,282 Q177,186 232,130 Q287,74 380,74 Q473,74 528,130 Q583,186 583,282 L583,680"/> 
            <glyph glyph-name="Û" unicode="&#xDB;" horiz-adv-x="679" d=" M381,835 L308,746 L216,746 L340,894 L423,894 L546,746 L455,746 M679,680 L679,282 Q679,146 597,65 Q514,-15 380,-15 Q246,-15 163,65 Q82,146 82,282 L82,680 L177,680 L177,282 Q177,186 232,130 Q287,74 380,74 Q473,74 528,130 Q583,186 583,282 L583,680"/> 
            <glyph glyph-name="Ü" unicode="&#xDC;" horiz-adv-x="679" d=" M275,760 Q249,760 232,776.5 Q215,793 215,818 Q215,843 232,859.5 Q249,876 275,876 Q300,876 317.5,859.5 Q335,843 335,818 Q335,793 317.5,776.5 Q300,760 275,760 M487,760 Q461,760 443.5,776.5 Q426,793 426,818 Q426,843 443.5,859.5 Q461,876 487,876 Q512,876 529.5,859.5 Q547,843 547,818 Q547,793 529.5,776.5 Q512,760 487,760 M679,680 L679,282 Q679,146 597,65 Q514,-15 380,-15 Q246,-15 163,65 Q82,146 82,282 L82,680 L177,680 L177,282 Q177,186 232,130 Q287,74 380,74 Q473,74 528,130 Q583,186 583,282 L583,680"/> 
            <glyph glyph-name="Ý" unicode="&#xDD;" horiz-adv-x="688" d=" M524,894 L411,746 L314,746 L401,894 M308,236 L24,680 L132,680 L356,336 L579,680 L688,680 L404,236 L404,0 L308,0"/> 
            <glyph glyph-name="Þ" unicode="&#xDE;" horiz-adv-x="603" d=" M329,582 Q452,582 527,519 Q603,458 603,349 Q603,244 527,180 Q451,116 329,116 L188,116 L188,0 L93,0 L93,680 L188,680 L188,579 Q263,582 329,582 M188,202 L339,202 Q415,202 462,242.5 Q509,283 509,349 Q509,417 462.5,455.5 Q416,494 339,494 Q251,494 188,490"/> 
            <glyph glyph-name="ß" unicode="&#xDF;" horiz-adv-x="618" d=" M271,752 L271,669 Q222,669 200,643 Q178,617 178,561 L178,467 L581,467 L581,409 L416,210 L436,209 Q521,200 569.5,149 Q618,98 618,15 Q618,-84 551,-144 Q485,-204 376,-204 Q307,-204 222,-184 L236,-107 Q320,-122 377,-122 Q445,-122 487,-85 Q529,-48 529,13 Q529,66 492,98 Q455,130 395,130 L295,130 L295,175 L459,382 L178,382 L178,0 L86,0 L86,570 Q86,663 131,707.5 Q176,752 271,752"/> 
            <glyph glyph-name="à" unicode="&#xE0;" horiz-adv-x="533" d=" M376,567 L286,567 L172,721 L296,721 M285,482 Q389,482 533,459 L533,0 L441,0 L441,38 Q361,-15 279,-15 Q175,-15 112,54 Q49,123 49,236 Q50,347 112,415 Q175,482 285,482 M297,405 Q221,405 180,359 Q139,313 139,233 Q139,157 180.5,110 Q222,63 290,63 Q364,63 441,117 L441,394 Q362,405 297,405"/> 
            <glyph glyph-name="á" unicode="&#xE1;" horiz-adv-x="533" d=" M465,721 L352,567 L262,567 L342,721 M285,482 Q389,482 533,459 L533,0 L441,0 L441,38 Q361,-15 279,-15 Q175,-15 112,54 Q49,123 49,236 Q50,347 112,415 Q175,482 285,482 M297,405 Q221,405 180,359 Q139,313 139,233 Q139,157 180.5,110 Q222,63 290,63 Q364,63 441,117 L441,394 Q362,405 297,405"/> 
            <glyph glyph-name="â" unicode="&#xE2;" horiz-adv-x="533" d=" M315,649 L242,567 L150,567 L274,711 L357,711 L480,567 L389,567 M285,482 Q389,482 533,459 L533,0 L441,0 L441,38 Q361,-15 279,-15 Q175,-15 112,54 Q49,123 49,236 Q50,347 112,415 Q175,482 285,482 M297,405 Q221,405 180,359 Q139,313 139,233 Q139,157 180.5,110 Q222,63 290,63 Q364,63 441,117 L441,394 Q362,405 297,405"/> 
            <glyph glyph-name="ã" unicode="&#xE3;" horiz-adv-x="533" d=" M410,680 L483,680 Q483,642 467,615 Q451,588 428,578 Q405,568 379,569 Q353,570 332,583 L279,617 Q255,631 238.5,621.5 Q222,612 222,587 L148,587 Q148,625 164,652 Q180,679 203.5,689 Q227,699 253,698 Q279,697 300,684 L352,651 Q377,637 393.5,646 Q410,655 410,680 M285,482 Q389,482 533,459 L533,0 L441,0 L441,38 Q361,-15 279,-15 Q175,-15 112,54 Q49,123 49,236 Q50,347 112,415 Q175,482 285,482 M297,405 Q221,405 180,359 Q139,313 139,233 Q139,157 180.5,110 Q222,63 290,63 Q364,63 441,117 L441,394 Q362,405 297,405"/> 
            <glyph glyph-name="ä" unicode="&#xE4;" horiz-adv-x="533" d=" M210,686 Q236,686 253.5,669.5 Q271,653 271,628 Q271,603 253.5,586 Q236,569 210,569 Q185,569 167.5,586 Q150,603 150,628 Q150,653 167.5,669.5 Q185,686 210,686 M422,686 Q448,686 465.5,669.5 Q483,653 483,628 Q483,603 465.5,586 Q448,569 422,569 Q397,569 379.5,586 Q362,603 362,628 Q362,653 379.5,669.5 Q397,686 422,686 M285,482 Q389,482 533,459 L533,0 L441,0 L441,38 Q361,-15 279,-15 Q175,-15 112,54 Q49,123 49,236 Q50,347 112,415 Q175,482 285,482 M297,405 Q221,405 180,359 Q139,313 139,233 Q139,157 180.5,110 Q222,63 290,63 Q364,63 441,117 L441,394 Q362,405 297,405"/> 
            <glyph glyph-name="å" unicode="&#xE5;" horiz-adv-x="533" d=" M420,647 Q420,603 391,575 Q362,547 316,547 Q270,547 241,575 Q212,603 212,647 Q212,692 241,719 Q270,746 316,746 Q362,746 391,719 Q420,692 420,647 M266,625 Q294,597 316,597 Q338,597 352,611 Q367,625 367,647 Q367,669 352,683 Q338,697 316,697 Q294,697 280,683 Q266,669 266,625 M285,482 Q389,482 533,459 L533,0 L441,0 L441,38 Q361,-15 279,-15 Q175,-15 112,54 Q49,123 49,236 Q50,347 112,415 Q175,482 285,482 M297,405 Q221,405 180,359 Q139,313 139,233 Q139,157 180.5,110 Q222,63 290,63 Q364,63 441,117 L441,394 Q362,405 297,405"/> 
            <glyph glyph-name="æ" unicode="&#xE6;" horiz-adv-x="848" d=" M848,267 Q848,234 842,199 L472,199 Q483,138 527,102.5 Q571,67 639,67 Q685,67 809,93 L822,19 Q717,-15 637,-15 Q535,-15 470,34 Q332,-15 229,-15 Q136,-15 88,24.5 Q40,64 40,140 Q40,269 251,268 L376,267 L376,298 Q376,354 355,379.5 Q334,405 283,405 Q222,405 100,388 L90,465 Q207,486 289,486 Q406,486 442,411 Q511,483 621,483 Q719,483 783,424 Q847,366 848,269 M471,270 L764,270 Q763,334 724.5,372 Q686,410 623,410 Q560,410 519.5,372 Q479,334 471,270 M127,135 Q127,60 250,60 Q320,60 416,91 Q387,135 380,191 L244,191 Q183,191 155,178 Q127,165 127,135"/> 
            <glyph glyph-name="ç" unicode="&#xE7;" horiz-adv-x="480" d=" M475,460 L461,387 Q370,408 321,408 Q239,408 190,360.5 Q141,313 141,236 Q141,159 189,112 Q238,65 313,65 Q370,65 467,89 L480,15 Q390,-15 308,-15 Q193,-15 121,54 Q49,123 49,237 Q49,351 122,418 Q196,486 314,486 Q397,486 475,460 M272,-206 L195,-206 L242,-50 L331,-50"/> 
            <glyph glyph-name="è" unicode="&#xE8;" horiz-adv-x="520" d=" M364,567 L274,567 L160,721 L284,721 M294,483 Q392,483 456,424 Q519,366 520,269 Q520,239 515,199 L147,199 Q158,137 201.5,102 Q245,67 312,67 Q366,67 482,93 L495,19 Q389,-15 309,-15 Q186,-15 117,54 Q49,125 49,235 Q49,346 118,414 Q187,483 294,483 M144,270 L437,270 Q436,334 397,372 Q358,410 295,410 Q233,410 192.5,372 Q152,334 144,270"/> 
            <glyph glyph-name="é" unicode="&#xE9;" horiz-adv-x="520" d=" M454,721 L341,567 L251,567 L331,721 M294,483 Q392,483 456,424 Q519,366 520,269 Q520,239 515,199 L147,199 Q158,137 201.5,102 Q245,67 312,67 Q366,67 482,93 L495,19 Q389,-15 309,-15 Q186,-15 117,54 Q49,125 49,235 Q49,346 118,414 Q187,483 294,483 M144,270 L437,270 Q436,334 397,372 Q358,410 295,410 Q233,410 192.5,372 Q152,334 144,270"/> 
            <glyph glyph-name="ê" unicode="&#xEA;" horiz-adv-x="520" d=" M304,649 L231,567 L139,567 L263,711 L346,711 L469,567 L378,567 M294,483 Q392,483 456,424 Q519,366 520,269 Q520,239 515,199 L147,199 Q158,137 201.5,102 Q245,67 312,67 Q366,67 482,93 L495,19 Q389,-15 309,-15 Q186,-15 117,54 Q49,125 49,235 Q49,346 118,414 Q187,483 294,483 M144,270 L437,270 Q436,334 397,372 Q358,410 295,410 Q233,410 192.5,372 Q152,334 144,270"/> 
            <glyph glyph-name="ë" unicode="&#xEB;" horiz-adv-x="520" d=" M198,686 Q224,686 241.5,669.5 Q259,653 259,628 Q259,603 241.5,586 Q224,569 198,569 Q173,569 155.5,586 Q138,603 138,628 Q138,653 155.5,669.5 Q173,686 198,686 M410,686 Q436,686 453.5,669.5 Q471,653 471,628 Q471,603 453.5,586 Q436,569 410,569 Q385,569 367.5,586 Q350,603 350,628 Q350,653 367.5,669.5 Q385,686 410,686 M294,483 Q392,483 456,424 Q519,366 520,269 Q520,239 515,199 L147,199 Q158,137 201.5,102 Q245,67 312,67 Q366,67 482,93 L495,19 Q389,-15 309,-15 Q186,-15 117,54 Q49,125 49,235 Q49,346 118,414 Q187,483 294,483 M144,270 L437,270 Q436,334 397,372 Q358,410 295,410 Q233,410 192.5,372 Q152,334 144,270"/> 
            <glyph glyph-name="ì" unicode="&#xEC;" horiz-adv-x="175" d=" M167,567 L77,567 L-36,721 L87,721 M175,467 L175,0 L83,0 L83,467"/> 
            <glyph glyph-name="í" unicode="&#xED;" horiz-adv-x="286" d=" M286,721 L173,567 L83,567 L163,721 M175,467 L175,0 L83,0 L83,467"/> 
            <glyph glyph-name="î" unicode="&#xEE;" horiz-adv-x="293" d=" M128,649 L55,567 L-37,567 L87,711 L170,711 L293,567 L202,567 M175,467 L175,0 L83,0 L83,467"/> 
            <glyph glyph-name="ï" unicode="&#xEF;" horiz-adv-x="296" d=" M23,686 Q49,686 66.5,669.5 Q84,653 84,628 Q84,603 66.5,586 Q49,569 23,569 Q-2,569 -19.5,586 Q-37,603 -37,628 Q-37,653 -19.5,669.5 Q-2,686 23,686 M235,686 Q261,686 278.5,669.5 Q296,653 296,628 Q296,603 278.5,586 Q261,569 235,569 Q210,569 192.5,586 Q175,603 175,628 Q175,653 192.5,669.5 Q210,686 235,686 M175,467 L175,0 L83,0 L83,467"/> 
            <glyph glyph-name="ð" unicode="&#xF0;" horiz-adv-x="566" d=" M153,675 L247,714 Q310,690 361,655 L451,688 L473,632 L415,610 Q486,546 526,452.5 Q566,359 566,253 Q566,127 496.5,55 Q427,-17 308,-17 Q195,-17 122,53 Q49,123 49,237 Q49,346 120,417 Q190,487 295,487 Q383,487 437,428 Q392,529 325,578 L175,523 L153,579 L265,620 Q218,651 153,675 M142,237 Q142,163 189,114 Q236,67 308,67 Q383,67 428,113.5 Q473,160 473,240 Q473,314 427,358.5 Q381,403 308,403 Q235,403 189,357 Q142,310 142,237"/> 
            <glyph glyph-name="ñ" unicode="&#xF1;" horiz-adv-x="539" d=" M401,680 L474,680 Q474,642 458,615 Q442,588 419,578 Q396,568 370,569 Q344,570 323,583 L270,617 Q246,631 229.5,621.5 Q213,612 213,587 L139,587 Q139,625 155,652 Q171,679 194.5,689 Q218,699 244,698 Q270,697 291,684 L343,651 Q368,637 384.5,646 Q401,655 401,680 M345,482 Q434,482 486.5,432 Q539,382 539,296 L539,0 L447,0 L447,271 Q447,330 414.5,364.5 Q382,399 327,399 Q256,399 175,387 L175,0 L83,0 L83,459 Q201,482 345,482"/> 
            <glyph glyph-name="ò" unicode="&#xF2;" horiz-adv-x="566" d=" M566,237 Q566,124 494,53 Q424,-17 308,-17 Q192,-17 121,53 Q49,124 49,237 Q49,349 121,418 Q193,487 308,487 Q424,487 494,418 Q566,349 566,237 M473,237 Q473,312 427.5,357.5 Q382,403 308,403 Q234,403 188,357.5 Q142,312 142,237 Q142,160 188,114 Q235,67 308,67 Q382,67 427.5,114 Q473,161 473,237 M368,567 L278,567 L164,721 L288,721"/> 
            <glyph glyph-name="ó" unicode="&#xF3;" horiz-adv-x="566" d=" M566,237 Q566,124 494,53 Q424,-17 308,-17 Q192,-17 121,53 Q49,124 49,237 Q49,349 121,418 Q193,487 308,487 Q424,487 494,418 Q566,349 566,237 M473,237 Q473,312 427.5,357.5 Q382,403 308,403 Q234,403 188,357.5 Q142,312 142,237 Q142,160 188,114 Q235,67 308,67 Q382,67 427.5,114 Q473,161 473,237 M458,721 L345,567 L255,567 L335,721"/> 
            <glyph glyph-name="ô" unicode="&#xF4;" horiz-adv-x="566" d=" M307,649 L234,567 L142,567 L266,711 L349,711 L472,567 L381,567 M566,237 Q566,124 494,53 Q424,-17 308,-17 Q192,-17 121,53 Q49,124 49,237 Q49,349 121,418 Q193,487 308,487 Q424,487 494,418 Q566,349 566,237 M473,237 Q473,312 427.5,357.5 Q382,403 308,403 Q234,403 188,357.5 Q142,312 142,237 Q142,160 188,114 Q235,67 308,67 Q382,67 427.5,114 Q473,161 473,237"/> 
            <glyph glyph-name="õ" unicode="&#xF5;" horiz-adv-x="566" d=" M402,680 L475,680 Q475,642 459,615 Q443,588 420,578 Q397,568 371,569 Q345,570 324,583 L271,617 Q247,631 230.5,621.5 Q214,612 214,587 L140,587 Q140,625 156,652 Q172,679 195.5,689 Q219,699 245,698 Q271,697 292,684 L344,651 Q369,637 385.5,646 Q402,655 402,680 M566,237 Q566,124 494,53 Q424,-17 308,-17 Q192,-17 121,53 Q49,124 49,237 Q49,349 121,418 Q193,487 308,487 Q424,487 494,418 Q566,349 566,237 M473,237 Q473,312 427.5,357.5 Q382,403 308,403 Q234,403 188,357.5 Q142,312 142,237 Q142,160 188,114 Q235,67 308,67 Q382,67 427.5,114 Q473,161 473,237"/> 
            <glyph glyph-name="ö" unicode="&#xF6;" horiz-adv-x="566" d=" M566,237 Q566,124 494,53 Q424,-17 308,-17 Q192,-17 121,53 Q49,124 49,237 Q49,349 121,418 Q193,487 308,487 Q424,487 494,418 Q566,349 566,237 M473,237 Q473,312 427.5,357.5 Q382,403 308,403 Q234,403 188,357.5 Q142,312 142,237 Q142,160 188,114 Q235,67 308,67 Q382,67 427.5,114 Q473,161 473,237 M202,686 Q228,686 245.5,669.5 Q263,653 263,628 Q263,603 245.5,586 Q228,569 202,569 Q177,569 159.5,586 Q142,603 142,628 Q142,653 159.5,669.5 Q177,686 202,686 M414,686 Q440,686 457.5,669.5 Q475,653 475,628 Q475,603 457.5,586 Q440,569 414,569 Q389,569 371.5,586 Q354,603 354,628 Q354,653 371.5,669.5 Q389,686 414,686"/> 
            <glyph glyph-name="÷" unicode="&#xF7;" horiz-adv-x="578" d=" M345,460 Q321,460 304.5,476 Q288,492 288,515 Q288,539 304.5,555 Q321,571 345,571 Q369,571 385.5,555 Q402,539 402,515 Q402,492 385,476 Q368,460 345,460 M111,369 L578,369 L578,284 L111,284 M345,85 Q321,85 304.5,101 Q288,117 288,140 Q288,164 304.5,180 Q321,196 345,196 Q369,196 385.5,180 Q402,164 402,140 Q402,117 385,101 Q368,85 345,85"/> 
            <glyph glyph-name="ø" unicode="&#xF8;" horiz-adv-x="566" d=" M549,477 L497,415 Q566,348 566,237 Q566,124 494,53 Q424,-17 308,-17 Q229,-17 166,19 L108,-50 L57,-6 L113,61 Q49,129 49,237 Q49,349 121,418 Q193,487 308,487 Q385,487 444,455 L499,521 M142,237 Q142,175 173,132 L386,386 Q349,403 308,403 Q234,403 188,357.5 Q142,312 142,237 M308,67 Q382,67 427.5,114 Q473,161 473,237 Q473,301 438,345 L223,87 Q261,67 308,67"/> 
            <glyph glyph-name="ù" unicode="&#xF9;" horiz-adv-x="535" d=" M367,567 L277,567 L163,721 L287,721 M535,467 L535,10 Q431,-15 272,-15 Q179,-15 129,32 Q79,79 79,172 L79,467 L171,467 L171,192 Q171,64 291,64 Q353,64 443,75 L443,467"/> 
            <glyph glyph-name="ú" unicode="&#xFA;" horiz-adv-x="535" d=" M457,721 L344,567 L254,567 L334,721 M535,467 L535,10 Q431,-15 272,-15 Q179,-15 129,32 Q79,79 79,172 L79,467 L171,467 L171,192 Q171,64 291,64 Q353,64 443,75 L443,467"/> 
            <glyph glyph-name="û" unicode="&#xFB;" horiz-adv-x="535" d=" M307,649 L234,567 L142,567 L266,711 L349,711 L472,567 L381,567 M535,467 L535,10 Q431,-15 272,-15 Q179,-15 129,32 Q79,79 79,172 L79,467 L171,467 L171,192 Q171,64 291,64 Q353,64 443,75 L443,467"/> 
            <glyph glyph-name="ü" unicode="&#xFC;" horiz-adv-x="535" d=" M201,686 Q227,686 244.5,669.5 Q262,653 262,628 Q262,603 244.5,586 Q227,569 201,569 Q176,569 158.5,586 Q141,603 141,628 Q141,653 158.5,669.5 Q176,686 201,686 M413,686 Q439,686 456.5,669.5 Q474,653 474,628 Q474,603 456.5,586 Q439,569 413,569 Q388,569 370.5,586 Q353,603 353,628 Q353,653 370.5,669.5 Q388,686 413,686 M535,467 L535,10 Q431,-15 272,-15 Q179,-15 129,32 Q79,79 79,172 L79,467 L171,467 L171,192 Q171,64 291,64 Q353,64 443,75 L443,467"/> 
            <glyph glyph-name="ý" unicode="&#xFD;" horiz-adv-x="597" d=" M351,568 L261,568 L341,722 L464,722 M597,467 L251,-228 L147,-228 L275,28 L39,467 L144,467 L324,128 L493,467"/> 
            <glyph glyph-name="þ" unicode="&#xFE;" horiz-adv-x="568" d=" M332,482 Q441,482 503.5,416 Q566,350 568,236 Q568,123 505,54 Q442,-15 338,-15 Q250,-15 176,-4 L176,-228 L84,-228 L84,710 L176,710 L176,471 Q239,482 332,482 M326,63 Q395,63 436.5,110 Q478,157 478,233 Q478,313 437,359 Q396,405 320,405 Q255,405 176,394 L176,75 Q242,63 326,63"/> 
            <glyph glyph-name="ÿ" unicode="&#xFF;" horiz-adv-x="597" d=" M209,570 Q184,570 166.5,587 Q149,604 149,629 Q149,654 166.5,670.5 Q184,687 209,687 Q235,687 252.5,670.5 Q270,654 270,629 Q270,604 252.5,587 Q235,570 209,570 M421,570 Q396,570 378.5,587 Q361,604 361,629 Q361,654 378.5,670.5 Q396,687 421,687 Q447,687 464.5,670.5 Q482,654 482,629 Q482,604 464.5,587 Q447,570 421,570 M597,467 L251,-228 L147,-228 L275,28 L39,467 L144,467 L324,128 L493,467"/> 
            <glyph glyph-name="Ā" unicode="&#x100;" horiz-adv-x="740" d=" M536,850 L536,777 L236,777 L236,850 M206,153 L139,0 L31,0 L341,684 L431,684 L740,0 L633,0 L565,153 M385,561 L243,238 L528,238"/> 
            <glyph glyph-name="ā" unicode="&#x101;" horiz-adv-x="533" d=" M453,676 L453,601 L179,601 L179,676 M285,482 Q389,482 533,459 L533,0 L441,0 L441,38 Q361,-15 279,-15 Q175,-15 112,54 Q49,123 49,236 Q50,347 112,415 Q175,482 285,482 M297,405 Q221,405 180,359 Q139,313 139,233 Q139,157 180.5,110 Q222,63 290,63 Q364,63 441,117 L441,394 Q362,405 297,405"/> 
            <glyph glyph-name="Ă" unicode="&#x102;" horiz-adv-x="740" d=" M457,895 L535,895 Q535,827 494.5,787.5 Q454,748 385,748 Q316,748 275.5,787.5 Q235,827 235,895 L312,895 Q312,860 331.5,840.5 Q351,821 385,821 Q418,821 437.5,840.5 Q457,860 457,895 M206,153 L139,0 L31,0 L341,684 L431,684 L740,0 L633,0 L565,153 M385,561 L243,238 L528,238"/> 
            <glyph glyph-name="ă" unicode="&#x103;" horiz-adv-x="533" d=" M388,707 L466,707 Q466,639 425.5,599.5 Q385,560 316,560 Q247,560 206.5,599.5 Q166,639 166,707 L243,707 Q243,672 262.5,652 Q282,632 316,632 Q349,632 368.5,651.5 Q388,671 388,707 M285,482 Q389,482 533,459 L533,0 L441,0 L441,38 Q361,-15 279,-15 Q175,-15 112,54 Q49,123 49,236 Q50,347 112,415 Q175,482 285,482 M297,405 Q221,405 180,359 Q139,313 139,233 Q139,157 180.5,110 Q222,63 290,63 Q364,63 441,117 L441,394 Q362,405 297,405"/> 
            <glyph glyph-name="Ą" unicode="&#x104;" horiz-adv-x="743" d=" M734,-113 L743,-182 Q723,-191 685,-191 Q624,-191 586.5,-161 Q549,-131 549,-82 Q549,-19 626,16 L565,153 L206,153 L139,0 L31,0 L341,684 L431,684 L740,0 L680,0 Q627,-26 627,-66 Q627,-117 697,-117 Q717,-117 734,-113 M528,238 L385,561 L243,238"/> 
            <glyph glyph-name="ą" unicode="&#x105;" horiz-adv-x="559" d=" M550,-124 L559,-193 Q540,-202 501,-202 Q440,-202 402.5,-172 Q365,-142 365,-93 Q365,-30 441,4 L441,38 Q361,-15 279,-15 Q175,-15 112,54 Q49,123 49,236 Q50,347 112,415 Q175,482 285,482 Q389,482 533,459 L533,0 L520,0 Q443,-32 443,-77 Q443,-128 513,-128 Q533,-128 550,-124 M290,63 Q364,63 441,117 L441,394 Q362,405 297,405 Q221,405 180,359 Q139,313 139,233 Q139,157 180.5,110 Q222,63 290,63"/> 
            <glyph glyph-name="Ć" unicode="&#x106;" horiz-adv-x="679" d=" M599,894 L486,746 L389,746 L476,894 M671,663 L653,573 Q534,603 449,603 Q314,603 237,531 Q162,459 162,341 Q162,220 237,147 Q313,74 438,74 Q529,74 661,108 L679,25 Q553,-15 433,-15 Q263,-15 162,82 Q61,180 61,341 Q61,500 163,598 Q266,695 437,695 Q551,695 671,663"/> 
            <glyph glyph-name="ć" unicode="&#x107;" horiz-adv-x="480" d=" M475,460 L461,387 Q370,408 321,408 Q239,408 190,360.5 Q141,313 141,236 Q141,159 189,112 Q238,65 313,65 Q370,65 467,89 L480,15 Q390,-15 308,-15 Q193,-15 121,54 Q49,123 49,237 Q49,351 122,418 Q196,486 314,486 Q397,486 475,460 M445,720 L332,566 L242,566 L322,720"/> 
            <glyph glyph-name="Ċ" unicode="&#x10A;" horiz-adv-x="679" d=" M473,776 Q456,760 430,760 Q404,760 387,776 Q370,793 370,818 Q370,843 387,859 Q404,876 430,876 Q456,876 473,859 Q490,843 490,818 Q490,793 473,776 M671,663 L653,573 Q534,603 449,603 Q314,603 237,531 Q162,459 162,341 Q162,220 237,147 Q313,74 438,74 Q529,74 661,108 L679,25 Q553,-15 433,-15 Q263,-15 162,82 Q61,180 61,341 Q61,500 163,598 Q266,695 437,695 Q551,695 671,663"/> 
            <glyph glyph-name="ċ" unicode="&#x10B;" horiz-adv-x="480" d=" M475,460 L461,387 Q370,408 321,408 Q239,408 190,360.5 Q141,313 141,236 Q141,159 189,112 Q238,65 313,65 Q370,65 467,89 L480,15 Q390,-15 308,-15 Q193,-15 121,54 Q49,123 49,237 Q49,351 122,418 Q196,486 314,486 Q397,486 475,460 M337,585 Q320,568 295,568 Q270,568 252,585 Q235,602 235,627 Q235,652 252,668 Q269,685 295,685 Q321,685 338,668 Q355,652 355,627 Q355,602 337,585"/> 
            <glyph glyph-name="Č" unicode="&#x10C;" horiz-adv-x="679" d=" M472,738 L389,738 L265,892 L357,892 L430,802 L503,892 L595,892 M671,663 L653,573 Q534,603 449,603 Q314,603 237,531 Q162,459 162,341 Q162,220 237,147 Q313,74 438,74 Q529,74 661,108 L679,25 Q553,-15 433,-15 Q263,-15 162,82 Q61,180 61,341 Q61,500 163,598 Q266,695 437,695 Q551,695 671,663"/> 
            <glyph glyph-name="č" unicode="&#x10D;" horiz-adv-x="480" d=" M336,563 L253,563 L129,716 L221,716 L294,626 L367,716 L459,716 M475,460 L461,387 Q370,408 321,408 Q239,408 190,360.5 Q141,313 141,236 Q141,159 189,112 Q238,65 313,65 Q370,65 467,89 L480,15 Q390,-15 308,-15 Q193,-15 121,54 Q49,123 49,237 Q49,351 122,418 Q196,486 314,486 Q397,486 475,460"/> 
            <glyph glyph-name="Ď" unicode="&#x10E;" horiz-adv-x="685" d=" M382,738 L299,738 L175,892 L267,892 L340,802 L413,892 L505,892 M326,688 Q487,688 585,594 Q685,500 685,344 Q685,187 587,89 Q490,-8 340,-8 Q249,-8 92,0 L92,680 Q249,688 326,688 M340,81 Q447,81 516,153 Q585,225 585,344 Q585,461 514,530 Q444,600 327,600 Q269,600 188,596 L188,84 Q263,81 340,81"/> 
            <glyph glyph-name="ď" unicode="&#x10F;" horiz-adv-x="679" d=" M532,710 L532,8 Q403,-12 278,-12 Q176,-12 112,54 Q49,122 49,237 Q49,351 112.5,416.5 Q176,482 291,482 Q378,482 441,465 L441,710 M679,710 L647,511 L576,511 L584,710 M302,405 Q222,405 180.5,360.5 Q139,316 139,237 Q139,156 180.5,109.5 Q222,63 297,63 Q362,63 441,75 L441,387 Q376,405 302,405"/> 
            <glyph glyph-name="Đ" unicode="&#x110;" horiz-adv-x="685" d=" M326,688 Q487,688 585,594 Q685,500 685,344 Q685,187 587,89 Q490,-8 340,-8 Q249,-8 92,0 L92,291 L32,291 L32,379 L92,379 L92,680 Q249,688 326,688 M340,81 Q447,81 516,153 Q585,225 585,344 Q585,461 514,530 Q444,600 327,600 Q269,600 188,596 L188,379 L352,379 L352,291 L188,291 L188,84 Q263,81 340,81"/> 
            <glyph glyph-name="đ" unicode="&#x111;" horiz-adv-x="575" d=" M575,563 L532,563 L532,8 Q403,-12 278,-12 Q176,-12 112,54 Q49,122 49,237 Q49,351 112.5,416.5 Q176,482 291,482 Q378,482 441,465 L441,563 L266,563 L266,639 L441,639 L441,710 L532,710 L532,639 L575,639 M441,75 L441,387 Q376,405 302,405 Q222,405 180.5,360.5 Q139,316 139,237 Q139,156 180.5,109.5 Q222,63 297,63 Q362,63 441,75"/> 
            <glyph glyph-name="Ē" unicode="&#x112;" horiz-adv-x="575" d=" M481,850 L481,777 L181,777 L181,850 M187,384 L533,384 L533,296 L187,296 L187,88 L575,88 L575,0 L92,0 L92,680 L575,680 L575,592 L187,592"/> 
            <glyph glyph-name="ē" unicode="&#x113;" horiz-adv-x="520" d=" M441,676 L441,601 L167,601 L167,676 M294,483 Q392,483 456,424 Q519,366 520,269 Q520,239 515,199 L147,199 Q158,137 201.5,102 Q245,67 312,67 Q366,67 482,93 L495,19 Q389,-15 309,-15 Q186,-15 117,54 Q49,125 49,235 Q49,346 118,414 Q187,483 294,483 M144,270 L437,270 Q436,334 397,372 Q358,410 295,410 Q233,410 192.5,372 Q152,334 144,270"/> 
            <glyph glyph-name="Ė" unicode="&#x116;" horiz-adv-x="575" d=" M374,776 Q357,760 331,760 Q305,760 288,776 Q271,793 271,818 Q271,843 288,859 Q305,876 331,876 Q357,876 374,859 Q391,843 391,818 Q391,793 374,776 M187,384 L533,384 L533,296 L187,296 L187,88 L575,88 L575,0 L92,0 L92,680 L575,680 L575,592 L187,592"/> 
            <glyph glyph-name="ė" unicode="&#x117;" horiz-adv-x="520" d=" M346,586 Q329,569 304,569 Q279,569 261,586 Q244,603 244,628 Q244,653 261,669 Q278,686 304,686 Q330,686 347,669 Q364,653 364,628 Q364,603 346,586 M294,483 Q392,483 456,424 Q519,366 520,269 Q520,239 515,199 L147,199 Q158,137 201.5,102 Q245,67 312,67 Q366,67 482,93 L495,19 Q389,-15 309,-15 Q186,-15 117,54 Q49,125 49,235 Q49,346 118,414 Q187,483 294,483 M144,270 L437,270 Q436,334 397,372 Q358,410 295,410 Q233,410 192.5,372 Q152,334 144,270"/> 
            <glyph glyph-name="Ę" unicode="&#x118;" horiz-adv-x="575" d=" M187,592 L187,384 L533,384 L533,296 L187,296 L187,88 L575,88 L575,0 L515,0 Q448,-30 448,-73 Q448,-124 518,-124 Q538,-124 555,-120 L564,-189 Q544,-198 506,-198 Q445,-198 407.5,-168 Q370,-138 370,-89 Q370,-34 430,0 L92,0 L92,680 L575,680 L575,592"/> 
            <glyph glyph-name="ę" unicode="&#x119;" horiz-adv-x="520" d=" M520,269 Q520,239 515,199 L147,199 Q158,137 201.5,102 Q245,67 312,67 Q366,67 482,93 L495,19 Q468,10 444,4 Q367,-28 367,-73 Q367,-124 437,-124 Q457,-124 474,-120 L483,-189 Q463,-198 425,-198 Q364,-198 326.5,-168 Q289,-138 289,-89 Q289,-45 328,-15 L309,-15 Q186,-15 117,54 Q49,125 49,235 Q49,346 118,414 Q187,483 294,483 Q392,483 456,424 Q519,366 520,269 M144,270 L437,270 Q436,334 397,372 Q358,410 295,410 Q233,410 192.5,372 Q152,334 144,270"/> 
            <glyph glyph-name="Ě" unicode="&#x11A;" horiz-adv-x="575" d=" M373,738 L290,738 L166,892 L258,892 L331,802 L404,892 L496,892 M187,384 L533,384 L533,296 L187,296 L187,88 L575,88 L575,0 L92,0 L92,680 L575,680 L575,592 L187,592"/> 
            <glyph glyph-name="ě" unicode="&#x11B;" horiz-adv-x="520" d=" M346,564 L263,564 L139,717 L231,717 L304,627 L377,717 L469,717 M294,483 Q392,483 456,424 Q519,366 520,269 Q520,239 515,199 L147,199 Q158,137 201.5,102 Q245,67 312,67 Q366,67 482,93 L495,19 Q389,-15 309,-15 Q186,-15 117,54 Q49,125 49,235 Q49,346 118,414 Q187,483 294,483 M144,270 L437,270 Q436,334 397,372 Q358,410 295,410 Q233,410 192.5,372 Q152,334 144,270"/> 
            <glyph glyph-name="Ğ" unicode="&#x11E;" horiz-adv-x="735" d=" M497,895 L575,895 Q575,827 534.5,787.5 Q494,748 425,748 Q356,748 315.5,787.5 Q275,827 275,895 L352,895 Q352,860 371.5,840.5 Q391,821 425,821 Q458,821 477.5,840.5 Q497,860 497,895 M735,381 L735,56 Q569,-15 424,-15 Q262,-15 161,83 Q61,180 61,342 Q61,501 164,598 Q267,695 437,695 Q554,695 671,663 L652,574 Q513,603 443,603 Q316,603 238,531 Q161,460 161,342 Q161,224 233,150 Q305,78 424,78 Q532,78 644,114 L644,293 L386,293 L386,381"/> 
            <glyph glyph-name="ğ" unicode="&#x11F;" horiz-adv-x="533" d=" M389,707 L467,707 Q467,639 426.5,599.5 Q386,560 317,560 Q248,560 207.5,599.5 Q167,639 167,707 L244,707 Q244,672 264,652 Q284,632 317,632 Q350,632 369.5,651.5 Q389,671 389,707 M285,482 Q364,482 455,471 Q459,471 465.5,469.5 Q472,468 481.5,466.5 Q491,465 498,464 L533,459 L533,10 Q533,-109 464,-179.5 Q395,-250 273,-250 Q192,-250 102,-218 L118,-142 Q217,-168 270,-168 Q349,-168 394.5,-122 Q440,-76 441,6 Q367,-5 279,-5 Q176,-5 112,62 Q49,130 49,236 Q49,348 112,415 Q175,482 285,482 M297,405 Q221,405 180,359 Q139,313 139,233 Q139,165 180,118 Q222,73 290,73 Q375,73 441,85 L441,394 Q362,405 297,405"/> 
            <glyph glyph-name="Ġ" unicode="&#x120;" horiz-adv-x="735" d=" M468,776 Q451,760 425,760 Q399,760 382,776 Q365,793 365,818 Q365,843 382,859 Q399,876 425,876 Q451,876 468,859 Q485,843 485,818 Q485,793 468,776 M735,381 L735,56 Q569,-15 424,-15 Q262,-15 161,83 Q61,180 61,342 Q61,501 164,598 Q267,695 437,695 Q554,695 671,663 L652,574 Q513,603 443,603 Q316,603 238,531 Q161,460 161,342 Q161,224 233,150 Q305,78 424,78 Q532,78 644,114 L644,293 L386,293 L386,381"/> 
            <glyph glyph-name="ġ" unicode="&#x121;" horiz-adv-x="533" d=" M359,586 Q342,569 317,569 Q292,569 274,586 Q257,603 257,628 Q257,653 274,669 Q291,686 317,686 Q343,686 360,669 Q377,653 377,628 Q377,603 359,586 M285,482 Q364,482 455,471 Q459,471 465.5,469.5 Q472,468 481.5,466.5 Q491,465 498,464 L533,459 L533,10 Q533,-109 464,-179.5 Q395,-250 273,-250 Q192,-250 102,-218 L118,-142 Q217,-168 270,-168 Q349,-168 394.5,-122 Q440,-76 441,6 Q367,-5 279,-5 Q176,-5 112,62 Q49,130 49,236 Q49,348 112,415 Q175,482 285,482 M297,405 Q221,405 180,359 Q139,313 139,233 Q139,165 180,118 Q222,73 290,73 Q375,73 441,85 L441,394 Q362,405 297,405"/> 
            <glyph glyph-name="Ģ" unicode="&#x122;" horiz-adv-x="735" d=" M735,381 L735,56 Q569,-15 424,-15 Q262,-15 161,83 Q61,180 61,342 Q61,501 164,598 Q267,695 437,695 Q554,695 671,663 L652,574 Q513,603 443,603 Q316,603 238,531 Q161,460 161,342 Q161,224 233,150 Q305,78 424,78 Q532,78 644,114 L644,293 L386,293 L386,381 M365,-241 L400,-157 Q365,-143 365,-110 Q365,-88 381.5,-73 Q398,-58 421,-58 Q444,-58 460.5,-73 Q477,-88 477,-110 Q477,-127 470,-141 Q464,-154 431,-217 L418,-241"/> 
            <glyph glyph-name="ģ" unicode="&#x123;" horiz-adv-x="533" d=" M374,762 L338,678 Q373,664 373,631 Q373,609 356.5,594 Q340,579 317,579 Q294,579 277.5,594 Q261,609 261,631 Q261,648 268,662 Q274,675 307,738 L320,762 M285,482 Q364,482 455,471 Q459,471 465.5,469.5 Q472,468 481.5,466.5 Q491,465 498,464 L533,459 L533,10 Q533,-109 464,-179.5 Q395,-250 273,-250 Q192,-250 102,-218 L118,-142 Q217,-168 270,-168 Q349,-168 394.5,-122 Q440,-76 441,6 Q367,-5 279,-5 Q176,-5 112,62 Q49,130 49,236 Q49,348 112,415 Q175,482 285,482 M297,405 Q221,405 180,359 Q139,313 139,233 Q139,165 180,118 Q222,73 290,73 Q375,73 441,85 L441,394 Q362,405 297,405"/> 
            <glyph glyph-name="Ħ" unicode="&#x126;" horiz-adv-x="710" d=" M710,493 L664,493 L664,0 L568,0 L568,291 L187,291 L187,0 L92,0 L92,493 L47,493 L47,572 L92,572 L92,680 L187,680 L187,572 L568,572 L568,680 L664,680 L664,572 L710,572 M568,493 L187,493 L187,379 L568,379"/> 
            <glyph glyph-name="ħ" unicode="&#x127;" horiz-adv-x="540" d=" M346,482 Q435,482 487.5,432 Q540,382 540,296 L540,0 L448,0 L448,271 Q448,330 415.5,364.5 Q383,399 328,399 Q248,399 176,380 L176,0 L84,0 L84,582 L29,582 L29,648 L84,648 L84,710 L176,710 L176,648 L327,648 L327,582 L176,582 L176,464 Q253,482 346,482"/> 
            <glyph glyph-name="Ī" unicode="&#x12A;" horiz-adv-x="291" d=" M187,680 L187,0 L92,0 L92,680 M291,850 L291,777 L-9,777 L-9,850"/> 
            <glyph glyph-name="ī" unicode="&#x12B;" horiz-adv-x="266" d=" M266,676 L266,601 L-9,601 L-9,676 M175,467 L175,0 L83,0 L83,467"/> 
            <glyph glyph-name="Į" unicode="&#x12E;" horiz-adv-x="207" d=" M198,-114 L207,-183 Q188,-192 149,-192 Q88,-192 50.5,-162 Q13,-132 13,-83 Q13,-18 92,15 L92,680 L187,680 L187,0 L146,0 Q91,-27 91,-67 Q91,-118 161,-118 Q181,-118 198,-114"/> 
            <glyph glyph-name="į" unicode="&#x12F;" horiz-adv-x="189" d=" M171,586 Q154,569 129,569 Q104,569 86,586 Q69,603 69,628 Q69,653 86,669 Q103,686 129,686 Q155,686 172,669 Q189,653 189,628 Q189,603 171,586 M143,-124 Q163,-124 180,-120 L189,-189 Q169,-198 131,-198 Q70,-198 32.5,-168 Q-5,-138 -5,-89 Q-5,-55 18,-28.5 Q41,-2 83,13 L83,467 L175,467 L175,0 L140,0 Q73,-30 73,-73 Q73,-124 143,-124"/> 
            <glyph glyph-name="İ" unicode="&#x130;" horiz-adv-x="206" d=" M187,786 Q168,768 140,768 Q112,768 93,786 Q74,805 74,832 Q74,859 93,877 Q112,896 140,896 Q168,896 187,877 Q206,859 206,832 Q206,805 187,786 M187,680 L187,0 L92,0 L92,680"/> 
            <glyph glyph-name="ı" unicode="&#x131;" horiz-adv-x="174" d=" M174,467 L174,0 L83,0 L83,467"/> 
            <glyph glyph-name="Ĳ" unicode="&#x132;" horiz-adv-x="766" d=" M766,680 L766,255 Q766,129 701,56 Q636,-15 527,-15 Q422,-15 301,27 L319,112 Q441,77 527,77 Q593,77 631,124.5 Q669,172 669,255 L669,680 M187,680 L187,0 L92,0 L92,680"/> 
            <glyph glyph-name="ĳ" unicode="&#x133;" horiz-adv-x="455" d=" M128,567 Q101,567 82.5,585 Q64,603 64,629 Q64,657 82.5,675 Q101,693 128,693 Q154,693 172.5,674.5 Q191,656 191,629 Q191,603 172.5,585 Q154,567 128,567 M455,629 Q455,603 436,585 Q417,567 391,567 Q365,567 346,585 Q327,603 327,629 Q327,656 345.5,674.5 Q364,693 391,693 Q418,693 436.5,674.5 Q455,656 455,629 M175,467 L175,0 L83,0 L83,467 M437,467 L437,-25 Q437,-137 396,-189 Q356,-239 242,-241 L235,-161 Q297,-163 321,-135 Q345,-107 345,-36 L345,467"/> 
            <glyph glyph-name="Ķ" unicode="&#x136;" horiz-adv-x="669" d=" M187,268 L187,0 L92,0 L92,680 L187,680 L187,360 L251,360 L530,680 L649,680 L363,353 L669,0 L550,0 L309,268 M273,-241 L308,-157 Q273,-143 273,-110 Q273,-88 289.5,-73 Q306,-58 329,-58 Q352,-58 368.5,-73 Q385,-88 385,-110 Q385,-127 378,-141 Q372,-154 339,-217 L326,-241"/> 
            <glyph glyph-name="ķ" unicode="&#x137;" horiz-adv-x="546" d=" M175,279 L227,279 L409,467 L522,467 L326,264 L546,0 L436,0 L267,194 L175,194 L175,0 L83,0 L83,710 L175,710 M223,-241 L258,-157 Q223,-143 223,-110 Q223,-88 239.5,-73 Q256,-58 279,-58 Q302,-58 318.5,-73 Q335,-88 335,-110 Q335,-127 328,-141 Q322,-154 289,-217 L276,-241"/> 
            <glyph glyph-name="Ĺ" unicode="&#x139;" horiz-adv-x="556" d=" M311,894 L198,746 L101,746 L188,894 M556,0 L92,0 L92,680 L187,680 L187,86 L556,86"/> 
            <glyph glyph-name="ĺ" unicode="&#x13A;" horiz-adv-x="291" d=" M291,910 L178,756 L88,756 L168,910 M179,710 L179,0 L87,0 L87,710"/> 
            <glyph glyph-name="Ļ" unicode="&#x13B;" horiz-adv-x="556" d=" M556,0 L92,0 L92,680 L187,680 L187,86 L556,86 M264,-241 L299,-157 Q264,-143 264,-110 Q264,-88 280.5,-73 Q297,-58 320,-58 Q343,-58 359.5,-73 Q376,-88 376,-110 Q376,-127 369,-141 Q363,-154 330,-217 L317,-241"/> 
            <glyph glyph-name="ļ" unicode="&#x13C;" horiz-adv-x="186" d=" M179,710 L179,0 L87,0 L87,710 M74,-241 L109,-157 Q74,-143 74,-110 Q74,-88 90.5,-73 Q107,-58 130,-58 Q153,-58 169.5,-73 Q186,-88 186,-110 Q186,-127 179,-141 Q173,-154 140,-217 L127,-241"/> 
            <glyph glyph-name="Ľ" unicode="&#x13D;" horiz-adv-x="556" d=" M556,0 L92,0 L92,680 L187,680 L187,86 L556,86 M389,680 L357,481 L286,481 L294,680"/> 
            <glyph glyph-name="ľ" unicode="&#x13E;" horiz-adv-x="321" d=" M179,710 L179,0 L87,0 L87,710 M321,710 L289,511 L218,511 L226,710"/> 
            <glyph glyph-name="Ŀ" unicode="&#x13F;" horiz-adv-x="556" d=" M556,0 L92,0 L92,680 L187,680 L187,86 L556,86 M331,308 Q331,333 348.5,350 Q366,367 391,367 Q417,367 434.5,350 Q452,333 452,308 Q452,284 434,267 Q416,250 391,250 Q366,250 348.5,267 Q331,284 331,308"/> 
            <glyph glyph-name="ŀ" unicode="&#x140;" horiz-adv-x="352" d=" M179,710 L179,0 L87,0 L87,710 M292,271 Q267,271 249.5,287.5 Q232,304 232,329 Q232,354 249.5,371 Q267,388 292,388 Q317,388 334.5,371 Q352,354 352,329 Q352,304 335,287.5 Q318,271 292,271"/> 
            <glyph glyph-name="Ł" unicode="&#x141;" horiz-adv-x="556" d=" M556,86 L556,0 L92,0 L92,235 L17,201 L17,281 L92,315 L92,680 L187,680 L187,358 L342,429 L342,348 L187,278 L187,86"/> 
            <glyph glyph-name="ł" unicode="&#x142;" horiz-adv-x="249" d=" M249,352 L179,319 L179,0 L87,0 L87,277 L19,245 L19,326 L87,358 L87,710 L179,710 L179,400 L249,433"/> 
            <glyph glyph-name="Ń" unicode="&#x143;" horiz-adv-x="687" d=" M552,894 L439,746 L342,746 L429,894 M687,680 L687,0 L594,0 L187,520 L187,0 L92,0 L92,680 L182,680 L592,157 L592,680"/> 
            <glyph glyph-name="ń" unicode="&#x144;" horiz-adv-x="539" d=" M457,721 L344,567 L254,567 L334,721 M345,482 Q434,482 486.5,432 Q539,382 539,296 L539,0 L447,0 L447,271 Q447,330 414.5,364.5 Q382,399 327,399 Q256,399 175,387 L175,0 L83,0 L83,459 Q201,482 345,482"/> 
            <glyph glyph-name="Ņ" unicode="&#x145;" horiz-adv-x="687" d=" M687,680 L687,0 L594,0 L187,520 L187,0 L92,0 L92,680 L182,680 L592,157 L592,680 M326,-248 L361,-164 Q326,-150 326,-117 Q326,-95 342.5,-80 Q359,-65 382,-65 Q405,-65 421.5,-80 Q438,-95 438,-117 Q438,-134 431,-148 Q425,-161 392,-224 L379,-248"/> 
            <glyph glyph-name="ņ" unicode="&#x146;" horiz-adv-x="539" d=" M345,482 Q434,482 486.5,432 Q539,382 539,296 L539,0 L447,0 L447,271 Q447,330 414.5,364.5 Q382,399 327,399 Q256,399 175,387 L175,0 L83,0 L83,459 Q201,482 345,482 M245,-241 L280,-157 Q245,-143 245,-110 Q245,-88 261.5,-73 Q278,-58 301,-58 Q324,-58 340.5,-73 Q357,-88 357,-110 Q357,-127 350,-141 Q344,-154 311,-217 L298,-241"/> 
            <glyph glyph-name="Ň" unicode="&#x147;" horiz-adv-x="687" d=" M426,738 L343,738 L219,892 L311,892 L384,802 L457,892 L549,892 M687,680 L687,0 L594,0 L187,520 L187,0 L92,0 L92,680 L182,680 L592,157 L592,680"/> 
            <glyph glyph-name="ň" unicode="&#x148;" horiz-adv-x="539" d=" M348,564 L265,564 L141,717 L233,717 L306,627 L379,717 L471,717 M345,482 Q434,482 486.5,432 Q539,382 539,296 L539,0 L447,0 L447,271 Q447,330 414.5,364.5 Q382,399 327,399 Q256,399 175,387 L175,0 L83,0 L83,459 Q201,482 345,482"/> 
            <glyph glyph-name="Ō" unicode="&#x14C;" horiz-adv-x="781" d=" M161,597 Q262,695 421,695 Q580,695 681,597 Q781,500 781,340 Q781,180 681,83 Q580,-15 421,-15 Q262,-15 161,83 Q61,180 61,340 Q61,500 161,597 M233,147 Q306,74 421,74 Q536,74 608,147 Q681,220 681,340 Q681,459 608,532 Q536,605 421,605 Q306,605 233,532 Q161,458 161,340 Q161,220 233,147 M571,850 L571,777 L271,777 L271,850"/> 
            <glyph glyph-name="ō" unicode="&#x14D;" horiz-adv-x="566" d=" M566,237 Q566,124 494,53 Q424,-17 308,-17 Q192,-17 121,53 Q49,124 49,237 Q49,349 121,418 Q193,487 308,487 Q424,487 494,418 Q566,349 566,237 M473,237 Q473,312 427.5,357.5 Q382,403 308,403 Q234,403 188,357.5 Q142,312 142,237 Q142,160 188,114 Q235,67 308,67 Q382,67 427.5,114 Q473,161 473,237 M445,676 L445,601 L171,601 L171,676"/> 
            <glyph glyph-name="Ő" unicode="&#x150;" horiz-adv-x="781" d=" M466,894 L397,746 L314,746 L373,894 M612,894 L543,746 L460,746 L519,894 M161,597 Q262,695 421,695 Q580,695 681,597 Q781,500 781,340 Q781,180 681,83 Q580,-15 421,-15 Q262,-15 161,83 Q61,180 61,340 Q61,500 161,597 M233,147 Q306,74 421,74 Q536,74 608,147 Q681,220 681,340 Q681,459 608,532 Q536,605 421,605 Q306,605 233,532 Q161,458 161,340 Q161,220 233,147"/> 
            <glyph glyph-name="ő" unicode="&#x151;" horiz-adv-x="566" d=" M346,711 L277,564 L194,564 L253,711 M492,711 L423,564 L340,564 L399,711 M566,237 Q566,124 494,53 Q424,-17 308,-17 Q192,-17 121,53 Q49,124 49,237 Q49,349 121,418 Q193,487 308,487 Q424,487 494,418 Q566,349 566,237 M473,237 Q473,312 427.5,357.5 Q382,403 308,403 Q234,403 188,357.5 Q142,312 142,237 Q142,160 188,114 Q235,67 308,67 Q382,67 427.5,114 Q473,161 473,237"/> 
            <glyph glyph-name="Œ" unicode="&#x152;" horiz-adv-x="939" d=" M551,384 L897,384 L897,296 L551,296 L551,88 L939,88 L939,0 L456,0 Q276,2 169,92 Q61,184 61,340 Q61,496 169,588 Q276,678 456,680 L939,680 L939,592 L551,592 M456,89 L456,590 Q315,589 238,524 Q161,459 161,340 Q161,221 238,155.5 Q315,90 456,89"/> 
            <glyph glyph-name="œ" unicode="&#x153;" horiz-adv-x="945" d=" M945,269 Q945,239 940,199 L572,199 Q583,137 626.5,102 Q670,67 737,67 Q790,67 906,93 L920,19 Q814,-15 734,-15 Q589,-15 519,82 Q447,-17 308,-17 Q192,-17 121,53 Q49,124 49,237 Q49,349 121,418 Q193,487 308,487 Q448,487 520,388 Q591,483 718,483 Q817,483 881,424 Q944,366 945,269 M569,270 L861,270 Q860,334 821.5,372 Q783,410 720,410 Q658,410 617.5,372 Q577,334 569,270 M473,237 Q473,312 427.5,357.5 Q382,403 308,403 Q234,403 188,357.5 Q142,312 142,237 Q142,160 188,114 Q235,67 308,67 Q382,67 427.5,114 Q473,161 473,237"/> 
            <glyph glyph-name="Ŕ" unicode="&#x154;" horiz-adv-x="638" d=" M471,894 L358,746 L261,746 L348,894 M522,0 L355,234 Q344,233 304,233 L187,233 L187,0 L92,0 L92,680 Q212,686 329,686 Q453,686 524.5,627.5 Q596,569 596,463 Q596,391 557.5,337 Q519,283 450,257 L638,0 M188,318 L339,318 Q412,318 457.5,357.5 Q503,397 503,463 Q503,530 458,565 Q413,600 333,600 Q266,600 188,597"/> 
            <glyph glyph-name="ŕ" unicode="&#x155;" horiz-adv-x="370" d=" M370,721 L257,567 L167,567 L247,721 M357,481 L357,390 Q252,390 175,382 L175,0 L83,0 L83,454 Q231,481 357,481"/> 
            <glyph glyph-name="Ŗ" unicode="&#x156;" horiz-adv-x="638" d=" M522,0 L355,234 Q344,233 304,233 L187,233 L187,0 L92,0 L92,680 Q212,686 329,686 Q453,686 524.5,627.5 Q596,569 596,463 Q596,391 557.5,337 Q519,283 450,257 L638,0 M188,318 L339,318 Q412,318 457.5,357.5 Q503,397 503,463 Q503,530 458,565 Q413,600 333,600 Q266,600 188,597 M280,-241 L315,-157 Q280,-143 280,-110 Q280,-88 296.5,-73 Q313,-58 336,-58 Q359,-58 375.5,-73 Q392,-88 392,-110 Q392,-127 385,-141 Q379,-154 346,-217 L333,-241"/> 
            <glyph glyph-name="ŗ" unicode="&#x157;" horiz-adv-x="357" d=" M357,481 L357,390 Q252,390 175,382 L175,0 L83,0 L83,454 Q231,481 357,481 M70,-241 L105,-157 Q70,-143 70,-110 Q70,-88 86.5,-73 Q103,-58 126,-58 Q149,-58 165.5,-73 Q182,-88 182,-110 Q182,-127 175,-141 Q169,-154 136,-217 L123,-241"/> 
            <glyph glyph-name="Ř" unicode="&#x158;" horiz-adv-x="638" d=" M345,738 L262,738 L138,892 L230,892 L303,802 L376,892 L468,892 M522,0 L355,234 Q344,233 304,233 L187,233 L187,0 L92,0 L92,680 Q212,686 329,686 Q453,686 524.5,627.5 Q596,569 596,463 Q596,391 557.5,337 Q519,283 450,257 L638,0 M188,318 L339,318 Q412,318 457.5,357.5 Q503,397 503,463 Q503,530 458,565 Q413,600 333,600 Q266,600 188,597"/> 
            <glyph glyph-name="ř" unicode="&#x159;" horiz-adv-x="385" d=" M262,564 L179,564 L55,717 L147,717 L220,627 L293,717 L385,717 M357,481 L357,390 Q252,390 175,382 L175,0 L83,0 L83,454 Q231,481 357,481"/> 
            <glyph glyph-name="Ś" unicode="&#x15A;" horiz-adv-x="610" d=" M511,894 L398,746 L301,746 L388,894 M590,648 L565,564 Q433,604 334,604 Q267,604 228,576 Q189,548 189,497 Q189,452 227,431 Q267,409 362,390 Q479,366 541,328 Q610,286 610,192 Q610,92 538,38 Q467,-15 348,-15 Q205,-15 64,42 L88,131 Q228,74 352,74 Q427,74 470.5,102.5 Q514,131 514,183 Q514,244 452,269 Q410,289 321,306 L300,310 Q184,334 137,374 Q89,414 89,494 Q89,584 157,637 Q224,691 337,691 Q470,691 590,648"/> 
            <glyph glyph-name="ś" unicode="&#x15B;" horiz-adv-x="465" d=" M412,720 L299,566 L209,566 L289,720 M57,29 L77,105 Q185,61 271,61 Q320,61 350,78.5 Q380,96 380,126 Q380,164 320,182 Q305,186 230,203 Q148,219 110.5,250 Q73,281 73,336 Q73,405 124,443 Q175,481 265,481 Q362,481 451,448 L428,376 Q334,407 260,407 Q163,407 163,342 Q163,304 214,289 Q234,283 277,274 Q279,274 282,273 Q286,273 287,272 Q381,253 423,224 Q465,196 465,134 Q465,62 411,23.5 Q357,-15 265,-15 Q162,-15 57,29"/> 
            <glyph glyph-name="Ş" unicode="&#x15E;" horiz-adv-x="610" d=" M590,648 L565,564 Q433,604 334,604 Q267,604 228,576 Q189,548 189,497 Q189,452 227,431 Q267,409 362,390 Q479,366 541,328 Q610,286 610,192 Q610,92 538,38 Q467,-15 348,-15 Q205,-15 64,42 L88,131 Q228,74 352,74 Q427,74 470.5,102.5 Q514,131 514,183 Q514,244 452,269 Q410,289 321,306 L300,310 Q184,334 137,374 Q89,414 89,494 Q89,584 157,637 Q224,691 337,691 Q470,691 590,648 M327,-206 L250,-206 L297,-50 L386,-50"/> 
            <glyph glyph-name="ş" unicode="&#x15F;" horiz-adv-x="465" d=" M57,29 L77,105 Q185,61 271,61 Q320,61 350,78.5 Q380,96 380,126 Q380,164 320,182 Q305,186 230,203 Q148,219 110.5,250 Q73,281 73,336 Q73,405 124,443 Q175,481 265,481 Q362,481 451,448 L428,376 Q334,407 260,407 Q163,407 163,342 Q163,304 214,289 Q234,283 277,274 Q279,274 282,273 Q286,273 287,272 Q381,253 423,224 Q465,196 465,134 Q465,62 411,23.5 Q357,-15 265,-15 Q162,-15 57,29 M249,-206 L172,-206 L219,-50 L308,-50"/> 
            <glyph glyph-name="Š" unicode="&#x160;" horiz-adv-x="610" d=" M385,738 L302,738 L178,892 L270,892 L343,802 L416,892 L508,892 M590,648 L565,564 Q433,604 334,604 Q267,604 228,576 Q189,548 189,497 Q189,452 227,431 Q267,409 362,390 Q479,366 541,328 Q610,286 610,192 Q610,92 538,38 Q467,-15 348,-15 Q205,-15 64,42 L88,131 Q228,74 352,74 Q427,74 470.5,102.5 Q514,131 514,183 Q514,244 452,269 Q410,289 321,306 L300,310 Q184,334 137,374 Q89,414 89,494 Q89,584 157,637 Q224,691 337,691 Q470,691 590,648"/> 
            <glyph glyph-name="š" unicode="&#x161;" horiz-adv-x="465" d=" M303,563 L220,563 L96,716 L188,716 L261,626 L334,716 L426,716 M57,29 L77,105 Q185,61 271,61 Q320,61 350,78.5 Q380,96 380,126 Q380,164 320,182 Q305,186 230,203 Q148,219 110.5,250 Q73,281 73,336 Q73,405 124,443 Q175,481 265,481 Q362,481 451,448 L428,376 Q334,407 260,407 Q163,407 163,342 Q163,304 214,289 Q234,283 277,274 Q279,274 282,273 Q286,273 287,272 Q381,253 423,224 Q465,196 465,134 Q465,62 411,23.5 Q357,-15 265,-15 Q162,-15 57,29"/> 
            <glyph glyph-name="Ť" unicode="&#x164;" horiz-adv-x="642" d=" M378,738 L295,738 L171,892 L263,892 L336,802 L409,892 L501,892 M384,592 L384,0 L289,0 L289,592 L30,592 L30,680 L642,680 L642,592"/> 
            <glyph glyph-name="ť" unicode="&#x165;" horiz-adv-x="409" d=" M371,734 L339,535 L268,535 L276,734 M398,75 L409,-1 Q345,-15 295,-15 Q128,-15 128,166 L128,385 L24,385 L24,467 L128,467 L128,654 L220,654 L220,467 L380,467 L380,385 L220,385 L220,175 Q220,120 242,93.5 Q264,67 312,67 Q344,67 398,75"/> 
            <glyph glyph-name="Ū" unicode="&#x16A;" horiz-adv-x="679" d=" M531,850 L531,777 L231,777 L231,850 M679,680 L679,282 Q679,146 597,65 Q514,-15 380,-15 Q246,-15 163,65 Q82,146 82,282 L82,680 L177,680 L177,282 Q177,186 232,130 Q287,74 380,74 Q473,74 528,130 Q583,186 583,282 L583,680"/> 
            <glyph glyph-name="ū" unicode="&#x16B;" horiz-adv-x="535" d=" M444,676 L444,601 L170,601 L170,676 M535,467 L535,10 Q431,-15 272,-15 Q179,-15 129,32 Q79,79 79,172 L79,467 L171,467 L171,192 Q171,64 291,64 Q353,64 443,75 L443,467"/> 
            <glyph glyph-name="Ů" unicode="&#x16E;" horiz-adv-x="679" d=" M485,830 Q485,786 456,758 Q427,730 381,730 Q335,730 306,758 Q277,786 277,830 Q277,875 306,902 Q335,929 381,929 Q427,929 456,902 Q485,875 485,830 M432,830 Q434,861 407.5,873.5 Q381,886 354.5,873.5 Q328,861 331,830 Q328,799 354.5,786 Q381,773 407.5,786 Q434,799 432,830 M679,680 L679,282 Q679,146 597,65 Q514,-15 380,-15 Q246,-15 163,65 Q82,146 82,282 L82,680 L177,680 L177,282 Q177,186 232,130 Q287,74 380,74 Q473,74 528,130 Q583,186 583,282 L583,680"/> 
            <glyph glyph-name="ů" unicode="&#x16F;" horiz-adv-x="535" d=" M411,647 Q411,603 382,575 Q353,547 307,547 Q261,547 232,575 Q203,603 203,647 Q203,692 232,719 Q261,746 307,746 Q353,746 382,719 Q411,692 411,647 M257,625 Q285,597 307,597 Q329,597 343,611 Q358,625 358,647 Q358,669 343,683 Q329,697 307,697 Q285,697 271,683 Q257,669 257,625 M535,467 L535,10 Q431,-15 272,-15 Q179,-15 129,32 Q79,79 79,172 L79,467 L171,467 L171,192 Q171,64 291,64 Q353,64 443,75 L443,467"/> 
            <glyph glyph-name="Ű" unicode="&#x170;" horiz-adv-x="679" d=" M426,894 L357,746 L274,746 L333,894 M572,894 L503,746 L420,746 L479,894 M679,680 L679,282 Q679,146 597,65 Q514,-15 380,-15 Q246,-15 163,65 Q82,146 82,282 L82,680 L177,680 L177,282 Q177,186 232,130 Q287,74 380,74 Q473,74 528,130 Q583,186 583,282 L583,680"/> 
            <glyph glyph-name="ű" unicode="&#x171;" horiz-adv-x="535" d=" M345,711 L276,564 L193,564 L252,711 M491,711 L422,564 L339,564 L398,711 M535,467 L535,10 Q431,-15 272,-15 Q179,-15 129,32 Q79,79 79,172 L79,467 L171,467 L171,192 Q171,64 291,64 Q353,64 443,75 L443,467"/> 
            <glyph glyph-name="Ų" unicode="&#x172;" horiz-adv-x="679" d=" M679,680 L679,282 Q679,170 622,94 Q565,18 467,-5 Q402,-35 402,-77 Q402,-128 472,-128 Q492,-128 509,-124 L518,-193 Q498,-202 460,-202 Q399,-202 361.5,-172 Q324,-142 324,-93 Q324,-47 368,-15 Q238,-11 160,69 Q82,148 82,282 L82,680 L177,680 L177,282 Q177,186 232,130 Q287,74 380,74 Q473,74 528,130 Q583,186 583,282 L583,680"/> 
            <glyph glyph-name="ų" unicode="&#x173;" horiz-adv-x="574" d=" M565,-114 L574,-183 Q554,-192 516,-192 Q455,-192 417.5,-162 Q380,-132 380,-83 Q380,-39 421,-7 Q338,-15 272,-15 Q179,-15 129,32 Q79,79 79,172 L79,467 L171,467 L171,192 Q171,64 291,64 Q353,64 443,75 L443,467 L535,467 L535,10 Q458,-22 458,-67 Q458,-118 528,-118 Q548,-118 565,-114"/> 
            <glyph glyph-name="Ŵ" unicode="&#x174;" horiz-adv-x="1028" d=" M530,835 L457,746 L365,746 L489,894 L572,894 L695,746 L604,746 M799,0 L708,0 L530,519 L351,0 L260,0 L31,680 L132,680 L308,147 L489,680 L570,680 L751,148 L927,680 L1028,680"/> 
            <glyph glyph-name="ŵ" unicode="&#x175;" horiz-adv-x="783" d=" M410,649 L337,567 L245,567 L369,711 L452,711 L575,567 L484,567 M620,0 L530,0 L409,334 L289,0 L200,0 L37,467 L131,467 L249,126 L374,467 L446,467 L571,124 L689,467 L783,467"/> 
            <glyph glyph-name="Ŷ" unicode="&#x176;" horiz-adv-x="688" d=" M356,835 L283,746 L191,746 L315,894 L398,894 L521,746 L430,746 M308,236 L24,680 L132,680 L356,336 L579,680 L688,680 L404,236 L404,0 L308,0"/> 
            <glyph glyph-name="ŷ" unicode="&#x177;" horiz-adv-x="597" d=" M241,568 L149,568 L273,712 L356,712 L479,568 L388,568 L314,650 M597,467 L251,-228 L147,-228 L275,28 L39,467 L144,467 L324,128 L493,467"/> 
            <glyph glyph-name="Ÿ" unicode="&#x178;" horiz-adv-x="688" d=" M250,760 Q224,760 207,776.5 Q190,793 190,818 Q190,843 207,859.5 Q224,876 250,876 Q275,876 292.5,859.5 Q310,843 310,818 Q310,793 292.5,776.5 Q275,760 250,760 M462,760 Q436,760 418.5,776.5 Q401,793 401,818 Q401,843 418.5,859.5 Q436,876 462,876 Q487,876 504.5,859.5 Q522,843 522,818 Q522,793 504.5,776.5 Q487,760 462,760 M308,236 L24,680 L132,680 L356,336 L579,680 L688,680 L404,236 L404,0 L308,0"/> 
            <glyph glyph-name="Ź" unicode="&#x179;" horiz-adv-x="604" d=" M601,620 L199,88 L604,88 L604,0 L60,0 L60,60 L468,592 L73,592 L73,680 L601,680 M502,894 L389,746 L292,746 L379,894"/> 
            <glyph glyph-name="ź" unicode="&#x17A;" horiz-adv-x="458" d=" M396,721 L283,567 L193,567 L273,721 M445,416 L180,80 L458,80 L458,0 L48,0 L48,46 L318,388 L56,388 L56,468 L445,468"/> 
            <glyph glyph-name="Ż" unicode="&#x17B;" horiz-adv-x="604" d=" M601,620 L199,88 L604,88 L604,0 L60,0 L60,60 L468,592 L73,592 L73,680 L601,680 M377,776 Q360,760 334,760 Q308,760 291,776 Q274,793 274,818 Q274,843 291,859 Q308,876 334,876 Q360,876 377,859 Q394,843 394,818 Q394,793 377,776"/> 
            <glyph glyph-name="ż" unicode="&#x17C;" horiz-adv-x="458" d=" M288,586 Q271,569 246,569 Q221,569 203,586 Q186,603 186,628 Q186,653 203,669 Q220,686 246,686 Q272,686 289,669 Q306,653 306,628 Q306,603 288,586 M445,416 L180,80 L458,80 L458,0 L48,0 L48,46 L318,388 L56,388 L56,468 L445,468"/> 
            <glyph glyph-name="Ž" unicode="&#x17D;" horiz-adv-x="604" d=" M376,738 L293,738 L169,892 L261,892 L334,802 L407,892 L499,892 M601,620 L199,88 L604,88 L604,0 L60,0 L60,60 L468,592 L73,592 L73,680 L601,680"/> 
            <glyph glyph-name="ž" unicode="&#x17E;" horiz-adv-x="458" d=" M288,564 L205,564 L81,717 L173,717 L246,627 L319,717 L411,717 M445,416 L180,80 L458,80 L458,0 L48,0 L48,46 L318,388 L56,388 L56,468 L445,468"/> 
            <glyph glyph-name="ƒ" unicode="&#x192;" horiz-adv-x="503" d=" M409,695 Q448,695 503,680 L488,605 Q445,612 412,612 Q370,612 350,586 Q330,560 322,498 L310,411 L489,411 L489,328 L298,328 L278,179 Q263,77 222,31 Q181,-15 99,-15 Q60,-15 5,0 L19,75 Q65,68 95,68 Q137,68 157,93.5 Q177,119 186,182 L206,328 L83,328 L83,411 L218,411 L230,501 Q245,603 286,649 Q327,695 409,695"/> 
            <glyph glyph-name="Ǎ" unicode="&#x1CD;" horiz-adv-x="740" d=" M427,738 L344,738 L220,892 L312,892 L385,802 L458,892 L550,892 M206,153 L139,0 L31,0 L341,684 L431,684 L740,0 L633,0 L565,153 M385,561 L243,238 L528,238"/> 
            <glyph glyph-name="ǎ" unicode="&#x1CE;" horiz-adv-x="533" d=" M357,564 L274,564 L150,717 L242,717 L315,627 L388,717 L480,717 M285,482 Q389,482 533,459 L533,0 L441,0 L441,38 Q361,-15 279,-15 Q175,-15 112,54 Q49,123 49,236 Q50,347 112,415 Q175,482 285,482 M297,405 Q221,405 180,359 Q139,313 139,233 Q139,157 180.5,110 Q222,63 290,63 Q364,63 441,117 L441,394 Q362,405 297,405"/> 
            <glyph glyph-name="Ș" unicode="&#x218;" horiz-adv-x="610" d=" M590,648 L565,564 Q433,604 334,604 Q267,604 228,576 Q189,548 189,497 Q189,452 227,431 Q267,409 362,390 Q479,366 541,328 Q610,286 610,192 Q610,92 538,38 Q467,-15 348,-15 Q205,-15 64,42 L88,131 Q228,74 352,74 Q427,74 470.5,102.5 Q514,131 514,183 Q514,244 452,269 Q410,289 321,306 L300,310 Q184,334 137,374 Q89,414 89,494 Q89,584 157,637 Q224,691 337,691 Q470,691 590,648 M271,-241 L306,-157 Q271,-143 271,-110 Q271,-88 287.5,-73 Q304,-58 327,-58 Q350,-58 366.5,-73 Q383,-88 383,-110 Q383,-127 376,-141 Q370,-154 337,-217 L324,-241"/> 
            <glyph glyph-name="ș" unicode="&#x219;" horiz-adv-x="465" d=" M57,29 L77,105 Q185,61 271,61 Q320,61 350,78.5 Q380,96 380,126 Q380,164 320,182 Q305,186 230,203 Q148,219 110.5,250 Q73,281 73,336 Q73,405 124,443 Q175,481 265,481 Q362,481 451,448 L428,376 Q334,407 260,407 Q163,407 163,342 Q163,304 214,289 Q234,283 277,274 Q279,274 282,273 Q286,273 287,272 Q381,253 423,224 Q465,196 465,134 Q465,62 411,23.5 Q357,-15 265,-15 Q162,-15 57,29 M206,-241 L241,-157 Q206,-143 206,-110 Q206,-88 222.5,-73 Q239,-58 262,-58 Q285,-58 301.5,-73 Q318,-88 318,-110 Q318,-127 311,-141 Q305,-154 272,-217 L259,-241"/> 
            <glyph glyph-name="Ț" unicode="&#x21A;" horiz-adv-x="642" d=" M280,-241 L315,-157 Q280,-143 280,-110 Q280,-88 296.5,-73 Q313,-58 336,-58 Q359,-58 375.5,-73 Q392,-88 392,-110 Q392,-127 385,-141 Q379,-154 346,-217 L333,-241 M384,592 L384,0 L289,0 L289,592 L30,592 L30,680 L642,680 L642,592"/> 
            <glyph glyph-name="ț" unicode="&#x21B;" horiz-adv-x="409" d=" M398,75 L409,-1 Q345,-15 295,-15 Q128,-15 128,166 L128,385 L24,385 L24,467 L128,467 L128,654 L220,654 L220,467 L380,467 L380,385 L220,385 L220,175 Q220,120 242,93.5 Q264,67 312,67 Q344,67 398,75 M198,-241 L233,-157 Q198,-143 198,-110 Q198,-88 214.5,-73 Q231,-58 254,-58 Q277,-58 293.5,-73 Q310,-88 310,-110 Q310,-127 303,-141 Q297,-154 264,-217 L251,-241"/> 
            <glyph glyph-name="ˆ" unicode="&#x2C6;" horiz-adv-x="465" d=" M300,649 L227,567 L135,567 L259,711 L342,711 L465,567 L374,567"/> 
            <glyph glyph-name="ˇ" unicode="&#x2C7;" horiz-adv-x="465" d=" M342,564 L259,564 L135,717 L227,717 L300,627 L373,717 L465,717"/> 
            <glyph glyph-name="˘" unicode="&#x2D8;" horiz-adv-x="450" d=" M372,707 L450,707 Q450,639 409.5,599.5 Q369,560 300,560 Q231,560 190.5,599.5 Q150,639 150,707 L227,707 Q227,672 246.5,652 Q266,632 300,632 Q333,632 352.5,651.5 Q372,671 372,707"/> 
            <glyph glyph-name="˙" unicode="&#x2D9;" horiz-adv-x="360" d=" M342,586 Q325,569 300,569 Q275,569 257,586 Q240,603 240,628 Q240,653 257,669 Q274,686 300,686 Q326,686 343,669 Q360,653 360,628 Q360,603 342,586"/> 
            <glyph glyph-name="˚" unicode="&#x2DA;" horiz-adv-x="402" d=" M402,647 Q402,603 373,575 Q344,547 298,547 Q252,547 223,575 Q194,603 194,647 Q194,692 223,719 Q252,746 298,746 Q344,746 373,719 Q402,692 402,647 M248,625 Q276,597 298,597 Q320,597 334,611 Q349,625 349,647 Q349,669 334,683 Q320,697 298,697 Q276,697 262,683 Q248,669 248,625"/> 
            <glyph glyph-name="˛" unicode="&#x2DB;" horiz-adv-x="406" d=" M357,44 L367,20 Q290,-12 290,-57 Q290,-108 360,-108 Q380,-108 397,-104 L406,-173 Q386,-182 348,-182 Q287,-182 249.5,-152 Q212,-122 212,-73 Q212,-29 252,2.5 Q292,34 357,44"/> 
            <glyph glyph-name="˜" unicode="&#x2DC;" horiz-adv-x="468" d=" M395,680 L468,680 Q468,642 452,615 Q436,588 413,578 Q390,568 364,569 Q338,570 317,583 L264,617 Q240,631 223.5,621.5 Q207,612 207,587 L133,587 Q133,625 149,652 Q165,679 188.5,689 Q212,699 238,698 Q264,697 285,684 L337,651 Q362,637 378.5,646 Q395,655 395,680"/> 
            <glyph glyph-name="˝" unicode="&#x2DD;" horiz-adv-x="486" d=" M340,711 L271,564 L188,564 L247,711 M486,711 L417,564 L334,564 L393,711"/> 
            <glyph glyph-name="̦" unicode="&#x326;" horiz-adv-x="356" d=" M244,-252 L279,-168 Q244,-154 244,-121 Q244,-99 260.5,-84 Q277,-69 300,-69 Q323,-69 339.5,-84 Q356,-99 356,-121 Q356,-138 349,-152 Q343,-165 310,-228 L297,-252"/> 
            <glyph glyph-name="Ẁ" unicode="&#x1E80;" horiz-adv-x="1028" d=" M576,746 L486,746 L373,894 L496,894 M799,0 L708,0 L530,519 L351,0 L260,0 L31,680 L132,680 L308,147 L489,680 L570,680 L751,148 L927,680 L1028,680"/> 
            <glyph glyph-name="ẁ" unicode="&#x1E81;" horiz-adv-x="783" d=" M447,567 L357,567 L244,721 L367,721 M620,0 L530,0 L409,334 L289,0 L200,0 L37,467 L131,467 L249,126 L374,467 L446,467 L571,124 L689,467 L783,467"/> 
            <glyph glyph-name="Ẃ" unicode="&#x1E82;" horiz-adv-x="1028" d=" M698,894 L585,746 L488,746 L575,894 M799,0 L708,0 L530,519 L351,0 L260,0 L31,680 L132,680 L308,147 L489,680 L570,680 L751,148 L927,680 L1028,680"/> 
            <glyph glyph-name="ẃ" unicode="&#x1E83;" horiz-adv-x="783" d=" M578,721 L465,567 L375,567 L455,721 M620,0 L530,0 L409,334 L289,0 L200,0 L37,467 L131,467 L249,126 L374,467 L446,467 L571,124 L689,467 L783,467"/> 
            <glyph glyph-name="Ẅ" unicode="&#x1E84;" horiz-adv-x="1028" d=" M424,760 Q398,760 381,776.5 Q364,793 364,818 Q364,843 381,859.5 Q398,876 424,876 Q449,876 466.5,859.5 Q484,843 484,818 Q484,793 466.5,776.5 Q449,760 424,760 M636,760 Q610,760 592.5,776.5 Q575,793 575,818 Q575,843 592.5,859.5 Q610,876 636,876 Q661,876 678.5,859.5 Q696,843 696,818 Q696,793 678.5,776.5 Q661,760 636,760 M799,0 L708,0 L530,519 L351,0 L260,0 L31,680 L132,680 L308,147 L489,680 L570,680 L751,148 L927,680 L1028,680"/> 
            <glyph glyph-name="ẅ" unicode="&#x1E85;" horiz-adv-x="783" d=" M305,686 Q331,686 348.5,669.5 Q366,653 366,628 Q366,603 348.5,586 Q331,569 305,569 Q280,569 262.5,586 Q245,603 245,628 Q245,653 262.5,669.5 Q280,686 305,686 M517,686 Q543,686 560.5,669.5 Q578,653 578,628 Q578,603 560.5,586 Q543,569 517,569 Q492,569 474.5,586 Q457,603 457,628 Q457,653 474.5,669.5 Q492,686 517,686 M620,0 L530,0 L409,334 L289,0 L200,0 L37,467 L131,467 L249,126 L374,467 L446,467 L571,124 L689,467 L783,467"/> 
            <glyph glyph-name="Ỳ" unicode="&#x1EF2;" horiz-adv-x="688" d=" M402,746 L312,746 L199,894 L322,894 M308,236 L24,680 L132,680 L356,336 L579,680 L688,680 L404,236 L404,0 L308,0"/> 
            <glyph glyph-name="ỳ" unicode="&#x1EF3;" horiz-adv-x="597" d=" M285,568 L171,722 L295,722 L375,568 M597,467 L251,-228 L147,-228 L275,28 L39,467 L144,467 L324,128 L493,467"/> 
            <glyph glyph-name="–" unicode="&#x2013;" horiz-adv-x="577" d=" M577,314 L577,222 L80,222 L80,314"/> 
            <glyph glyph-name="—" unicode="&#x2014;" horiz-adv-x="881" d=" M881,314 L881,222 L80,222 L80,314"/> 
            <glyph glyph-name="‘" unicode="&#x2018;" horiz-adv-x="220" d=" M220,766 L165,631 Q208,615 208,574 Q208,546 188,526.5 Q168,507 139,507 Q110,507 89.5,526.5 Q69,546 69,574 Q69,595 76,610 Q84,628 127,715 Q131,724 139,739.5 Q147,755 152,766"/> 
            <glyph glyph-name="’" unicode="&#x2019;" horiz-adv-x="214" d=" M63,509 L118,645 Q75,661 75,702 Q75,730 95,749.5 Q115,769 144,769 Q173,769 193.5,749.5 Q214,730 214,702 Q214,682 205,663 Q198,646 155,559 Q136,524 130,509"/> 
            <glyph glyph-name="‚" unicode="&#x201A;" horiz-adv-x="214" d=" M63,-139 L118,-4 Q75,12 75,53 Q75,81 95,100.5 Q115,120 144,120 Q173,120 193.5,100.5 Q214,81 214,53 Q214,35 206,16 Q186,-28 156,-88 Q144,-111 131,-139"/> 
            </font>
</defs>
</svg>
