<?xml version="1.0" standalone="no"?>
<!DOCTYPE svg PUBLIC "-//W3C//DTD SVG 1.1//EN" "http://www.w3.org/Graphics/SVG/1.1/DTD/svg11.dtd" >
<svg xmlns="http://www.w3.org/2000/svg">
    <defs>
        <font id="Canaro-Medium">
            <font-face font-family="Canaro-Medium"
                       units-per-em="1000"
                       ascent="748"
                       descent="-252"
                       bbox="-49 -272 1431 940"
                    />
            <missing-glyph horiz-adv-x="0" />
            
            <glyph glyph-name="!" unicode="&#x21;" horiz-adv-x="204" d=" M188,680 L181,193 L67,193 L60,680 M126,-17 Q94,-17 71.5,4.5 Q49,26 49,58 Q49,89 71.5,110.5 Q94,132 126,132 Q158,132 181,110.5 Q204,89 204,58 Q204,26 181.5,4.5 Q159,-17 126,-17"/> 
            <glyph glyph-name="&quot;" unicode="&#x22;" horiz-adv-x="355" d=" M191,767 L169,517 L64,517 L64,767 M355,767 L332,517 L227,517 L228,767"/> 
            <glyph glyph-name="#" unicode="&#x23;" horiz-adv-x="729" d=" M559,276 L674,276 L674,172 L526,172 L472,0 L353,0 L407,172 L251,172 L197,0 L78,0 L132,172 L33,172 L33,276 L164,276 L199,388 L88,388 L88,492 L232,492 L291,681 L410,681 L351,492 L507,492 L566,681 L685,681 L626,492 L729,492 L729,388 L594,388 M319,388 L284,276 L439,276 L474,388"/> 
            <glyph glyph-name="$" unicode="&#x24;" horiz-adv-x="615" d=" M615,197 Q615,106 557.5,52.5 Q500,-1 397,-12 L397,-120 L293,-120 L293,-13 Q169,-4 59,42 L88,154 Q229,98 349,98 Q494,98 494,185 Q501,226 442,258 Q433,264 404,272 Q376,280 365,281 L319,291 L294,296 Q178,320 128.5,363 Q79,406 79,487 Q79,570 136.5,623.5 Q194,677 293,688 L293,803 L397,803 L397,687 Q512,676 596,644 L565,538 Q430,581 333,581 Q272,581 239,558.5 Q206,536 206,492 Q206,452 244,432 Q281,415 377,395 Q501,369 557,328 Q615,286 615,197"/> 
            <glyph glyph-name="%" unicode="&#x25;" horiz-adv-x="1002" d=" M472,589 Q472,415 417,360 Q362,306 278,306 Q194,306 138,360 Q83,415 83,502 Q83,589 138,641 Q194,695 278,695 Q362,695 417,641 M337,0 L273,0 L735,680 L799,680 M232,389 Q324,389 354.5,420.5 Q385,452 385,502 Q385,550 354.5,581 Q324,612 278,612 Q232,612 201,581 Q170,550 170,502 Q170,452 232,389 M1002,180 Q1002,93 947,39 Q892,-15 807,-15 Q724,-15 668,39 Q613,93 613,180 Q613,266 668,320 Q724,374 807,374 Q890,374 946,320 Q1002,266 1002,180 M915,180 Q915,228 884,259.5 Q853,291 807,291 Q761,291 730.5,259.5 Q700,228 700,180 Q700,130 730.5,99 Q761,68 807,68 Q853,68 884,99 Q915,130 915,180"/> 
            <glyph glyph-name="&amp;" unicode="&#x26;" horiz-adv-x="623" d=" M551,302 L551,205 Q551,107 480,45 Q410,-15 292,-15 Q174,-15 104,43 Q34,101 34,196 Q34,309 150,353 Q70,394 70,493 Q70,583 137,638 Q204,693 314,693 Q384,693 453,673 L431,574 Q361,591 310,591 Q252,591 217,565 Q182,539 182,498 Q182,448 206.5,424.5 Q231,401 292,401 L623,401 L623,302 M439,302 L292,302 Q221,302 183.5,275 Q146,248 146,200 Q146,149 186,118 Q226,87 292,87 Q359,87 399,119.5 Q439,152 439,205"/> 
            <glyph glyph-name="'" unicode="&#x27;" horiz-adv-x="192" d=" M192,767 L169,517 L64,517 L65,767"/> 
            <glyph glyph-name="(" unicode="&#x28;" horiz-adv-x="317" d=" M233,772 L317,719 Q235,597 196,500 Q156,401 156,262 Q156,125 197,23 Q238,-79 317,-195 L233,-249 Q46,-22 46,262 Q46,402 94.5,532.5 Q143,663 233,772"/> 
            <glyph glyph-name=")" unicode="&#x29;" horiz-adv-x="302" d=" M31,719 L115,772 Q205,663 253.5,532.5 Q302,402 302,262 Q302,-22 115,-249 L31,-195 Q110,-79 151,23 Q192,125 192,262 Q192,398 151,500 Q110,600 31,719"/> 
            <glyph glyph-name="*" unicode="&#x2A;" horiz-adv-x="357" d=" M357,467 L325,410 L229,468 L229,367 L163,367 L163,468 L68,410 L35,467 L133,526 L35,585 L68,643 L163,585 L163,685 L229,685 L229,585 L325,643 L357,585 L259,526"/> 
            <glyph glyph-name="+" unicode="&#x2B;" horiz-adv-x="581" d=" M398,277 L398,92 L288,92 L288,277 L104,277 L104,383 L288,383 L288,569 L398,569 L398,383 L581,383 L581,277"/> 
            <glyph glyph-name="," unicode="&#x2C;" horiz-adv-x="237" d=" M61,-133 L118,-4 Q67,15 67,66 Q67,100 91.5,123.5 Q116,147 151,147 Q187,147 212,123.5 Q237,100 237,66 Q237,45 228,24 Q218,1 177,-74 L145,-133"/> 
            <glyph glyph-name="-" unicode="&#x2D;" horiz-adv-x="418" d=" M418,320 L418,205 L104,205 L104,320"/> 
            <glyph glyph-name="." unicode="&#x2E;" horiz-adv-x="236" d=" M150,-17 Q115,-17 90.5,6.5 Q66,30 66,65 Q66,99 90.5,123 Q115,147 150,147 Q186,147 211,123 Q236,99 236,65 Q236,30 211,6.5 Q186,-17 150,-17"/> 
            <glyph glyph-name="/" unicode="&#x2F;" horiz-adv-x="491" d=" M107,-272 L4,-272 L389,768 L491,768"/> 
            <glyph glyph-name="0" unicode="&#x30;" horiz-adv-x="694" d=" M375,695 Q519,695 606,597 Q694,500 694,340 Q694,179 606,82 Q519,-15 375,-15 Q232,-15 144,82 Q56,179 56,340 Q56,500 144,597 Q233,695 375,695 M233,164 Q287,98 375,98 Q464,98 516,164 Q570,232 570,340 Q570,449 516,515 Q464,582 375,582 Q287,582 233,515 Q180,448 180,340 Q180,232 233,164"/> 
            <glyph glyph-name="1" unicode="&#x31;" horiz-adv-x="329" d=" M329,0 L210,0 L210,546 L39,501 L12,597 L295,680 L329,680"/> 
            <glyph glyph-name="2" unicode="&#x32;" horiz-adv-x="536" d=" M536,0 L60,0 L60,79 L298,310 Q323,333 351,361 Q367,377 384,408 Q402,440 402,468 Q402,524 364.5,554 Q327,584 262,584 Q186,584 84,544 L57,647 Q166,695 283,695 Q401,695 463,634 Q526,572 526,484 Q526,415 483,354 Q440,293 355,214 L231,108 L536,108"/> 
            <glyph glyph-name="3" unicode="&#x33;" horiz-adv-x="548" d=" M521,607 L332,390 L340,390 Q436,383 492,332.5 Q548,282 548,204 Q548,102 478.5,43.5 Q409,-15 281,-15 Q148,-15 42,41 L84,135 Q186,87 285,87 Q347,87 387,118.5 Q427,150 427,200 Q427,243 389,267.5 Q351,292 286,292 L165,292 L165,348 L358,572 L68,572 L68,680 L521,680"/> 
            <glyph glyph-name="4" unicode="&#x34;" horiz-adv-x="633" d=" M552,220 L633,220 L633,118 L552,118 L552,0 L434,0 L434,118 L41,118 L41,200 L434,680 L552,680 M194,220 L434,220 L434,524"/> 
            <glyph glyph-name="5" unicode="&#x35;" horiz-adv-x="559" d=" M219,424 L311,419 Q426,413 492.5,358.5 Q559,304 559,212 Q559,113 488,48 Q418,-15 304,-15 Q162,-15 52,42 L91,145 Q204,94 299,94 Q360,94 398.5,126 Q437,158 437,208 Q437,252 398,280.5 Q359,309 294,312 L99,321 L129,680 L534,680 L534,568 L232,568"/> 
            <glyph glyph-name="6" unicode="&#x36;" horiz-adv-x="587" d=" M306,480 L315,480 Q436,480 511,414 Q587,350 587,238 Q587,125 511,55 Q435,-15 315,-15 Q195,-15 119,55 Q44,126 44,238 Q44,312 107,400 L309,680 L451,680 M315,86 Q385,86 428.5,128 Q472,170 472,238 Q472,304 428,345 Q384,386 315,386 Q244,386 201,345 Q158,304 158,238 Q158,170 202,128 Q246,86 315,86"/> 
            <glyph glyph-name="7" unicode="&#x37;" horiz-adv-x="531" d=" M531,608 L262,0 L132,0 L391,568 L39,568 L39,680 L531,680"/> 
            <glyph glyph-name="8" unicode="&#x38;" horiz-adv-x="587" d=" M459,353 Q587,303 587,187 Q587,98 511,41 Q435,-15 315,-15 Q195,-15 119,41 Q44,98 44,187 Q44,304 171,353 Q72,396 72,506 Q72,591 139,643 Q206,695 315,695 Q423,695 490,643 Q557,591 557,506 Q557,397 459,353 M195,500 Q195,454 228,426 Q261,398 315,398 Q368,398 401.5,426 Q435,454 435,500 Q435,543 401.5,570.5 Q368,598 315,598 Q261,598 228,570.5 Q195,543 195,500 M460,193 Q460,240 420,270 Q380,300 315,300 Q250,300 209.5,270 Q169,240 169,193 Q169,149 210,117 Q250,86 315,86 Q379,86 419,117 Q460,149 460,193"/> 
            <glyph glyph-name="9" unicode="&#x39;" horiz-adv-x="585" d=" M313,695 Q435,695 509,625 Q585,555 585,442 Q585,367 533,294 L328,0 L191,0 L331,200 L313,200 Q192,200 116,266 Q41,332 41,442 Q41,555 117,625 Q193,695 313,695 M157,442 Q157,376 200.5,335 Q244,294 313,294 Q384,294 427,335 Q470,376 470,442 Q470,510 426.5,552 Q383,594 313,594 Q244,594 200.5,552 Q157,510 157,442"/> 
            <glyph glyph-name=":" unicode="&#x3A;" horiz-adv-x="236" d=" M150,324 Q115,324 90.5,348 Q66,372 66,406 Q66,441 90.5,464.5 Q115,488 150,488 Q186,488 211,464.5 Q236,441 236,406 Q236,372 211,348 Q186,324 150,324 M66,65 Q66,99 91,123 Q116,147 151,147 Q186,147 211,123 Q236,99 236,65 Q236,30 211.5,6.5 Q187,-17 151,-17 Q115,-17 90.5,6.5 Q66,30 66,65"/> 
            <glyph glyph-name=";" unicode="&#x3B;" horiz-adv-x="245" d=" M74,406 Q74,441 98.5,464.5 Q123,488 159,488 Q195,488 220,464.5 Q245,441 245,406 Q245,372 219.5,348 Q194,324 159,324 Q124,324 99,348 Q74,372 74,406 M61,-133 L118,-4 Q66,17 66,66 Q66,100 91,123.5 Q116,147 151,147 Q186,147 211.5,123.5 Q237,100 237,66 Q237,45 228,24 Q218,1 177,-74 L145,-133"/> 
            <glyph glyph-name="&lt;" unicode="&#x3C;" horiz-adv-x="473" d=" M473,555 L473,440 L179,305 L473,170 L473,54 L51,247 L51,362"/> 
            <glyph glyph-name="=" unicode="&#x3D;" horiz-adv-x="586" d=" M586,369 L104,369 L104,476 L586,476 M586,171 L104,171 L104,277 L586,277"/> 
            <glyph glyph-name="&gt;" unicode="&#x3E;" horiz-adv-x="493" d=" M493,247 L71,54 L71,170 L365,305 L71,440 L71,555 L493,362"/> 
            <glyph glyph-name="?" unicode="&#x3F;" horiz-adv-x="475" d=" M235,695 Q344,695 409,637 Q475,578 475,484 Q475,391 414,331 Q352,271 258,271 L245,271 L248,193 L141,193 L123,367 L234,367 Q292,367 327.5,400.5 Q363,434 363,488 Q363,535 329,564 Q295,593 239,593 Q173,593 65,576 L48,672 Q151,695 235,695 M274,58 Q274,26 251.5,4.5 Q229,-17 196,-17 Q164,-17 141.5,4.5 Q119,26 119,58 Q119,89 141.5,110.5 Q164,132 196,132 Q228,132 251,110.5 Q274,89 274,58"/> 
            <glyph glyph-name="@" unicode="&#x40;" horiz-adv-x="969" d=" M512,690 Q718,690 843,568 Q969,446 969,246 Q969,127 911,63.5 Q853,0 755,0 Q659,0 629,62 Q551,-1 465,-1 Q365,-1 304,66 Q244,134 244,244 Q246,353 306,416.5 Q366,480 472,480 Q589,480 672,465 Q715,458 721,458 L721,159 Q721,113 732,95 Q743,77 773,77 Q909,77 909,246 Q909,419 799,526 Q690,632 512,632 Q343,632 229,521 Q115,411 115,246 Q112,83 220,-30 Q328,-143 492,-142 Q599,-142 757,-105 L768,-159 Q607,-200 492,-200 Q297,-200 176,-73 Q55,52 55,246 Q55,436 185,563 Q315,690 512,690 M489,387 Q421,387 386.5,348 Q352,309 352,240 Q352,174 387,133 Q422,92 479,92 Q548,92 613,142 Q611,174 611,179 L611,379 Q558,387 489,387"/> 
            <glyph glyph-name="A" unicode="&#x41;" horiz-adv-x="755" d=" M220,139 L160,0 L24,0 L334,684 L446,684 L755,0 L621,0 L559,139 M390,528 L267,247 L513,247"/> 
            <glyph glyph-name="B" unicode="&#x42;" horiz-adv-x="632" d=" M473,347 Q547,333 589.5,290 Q632,247 632,187 Q632,94 563.5,42.5 Q495,-9 374,-9 Q238,-9 85,0 L85,680 Q267,685 361,685 Q476,685 537.5,638.5 Q599,592 599,506 Q599,447 565.5,405 Q532,363 473,347 M347,580 Q309,580 277,579 Q245,578 205,578 L205,390 L360,390 Q418,390 452,416.5 Q486,443 486,488 Q486,536 452.5,558 Q419,580 347,580 M360,97 Q514,97 514,197 Q514,239 478,263.5 Q442,288 381,288 L205,288 L205,101 Q302,97 360,97"/> 
            <glyph glyph-name="C" unicode="&#x43;" horiz-adv-x="672" d=" M669,664 L647,551 Q525,579 449,579 Q322,579 252,513 Q183,448 183,342 Q183,232 252,165 Q322,98 437,98 Q521,98 650,128 L672,23 Q541,-15 431,-15 Q263,-15 159,83 Q56,180 56,341 Q56,500 159,597 Q263,695 433,695 Q555,695 669,664"/> 
            <glyph glyph-name="D" unicode="&#x44;" horiz-adv-x="685" d=" M324,689 Q483,689 584,594 Q685,499 685,343 Q685,187 587,89 Q490,-8 342,-8 Q192,-8 85,0 L85,680 Q235,689 324,689 M342,102 Q435,102 496,169 Q559,236 559,343 Q559,448 493,513 Q428,578 324,578 Q252,578 205,574 L205,106 Q285,102 342,102"/> 
            <glyph glyph-name="E" unicode="&#x45;" horiz-adv-x="578" d=" M205,395 L536,395 L536,285 L205,285 L205,111 L578,111 L578,0 L85,0 L85,680 L578,680 L578,569 L205,569"/> 
            <glyph glyph-name="F" unicode="&#x46;" horiz-adv-x="565" d=" M205,368 L522,368 L522,257 L205,257 L205,0 L85,0 L85,680 L565,680 L565,569 L205,569"/> 
            <glyph glyph-name="G" unicode="&#x47;" horiz-adv-x="733" d=" M733,391 L733,59 Q559,-15 419,-15 Q256,-15 155,83 Q56,182 56,343 Q56,500 160,598 Q264,695 436,695 Q552,695 670,665 L646,553 Q501,579 445,579 Q328,579 254,514 Q182,450 182,343 Q182,235 247,168 Q312,102 419,102 Q514,102 619,132 L619,280 L374,280 L374,391"/> 
            <glyph glyph-name="H" unicode="&#x48;" horiz-adv-x="674" d=" M674,0 L555,0 L555,278 L205,278 L205,0 L85,0 L85,680 L205,680 L205,389 L555,389 L555,680 L674,680"/> 
            <glyph glyph-name="I" unicode="&#x49;" horiz-adv-x="205" d=" M205,680 L205,0 L85,0 L85,680"/> 
            <glyph glyph-name="J" unicode="&#x4A;" horiz-adv-x="489" d=" M489,680 L489,262 Q489,132 423,59 Q357,-15 246,-15 Q144,-15 15,25 L37,132 Q160,101 246,101 Q301,101 334.5,144 Q368,187 368,261 L368,680"/> 
            <glyph glyph-name="K" unicode="&#x4B;" horiz-adv-x="681" d=" M205,253 L205,0 L85,0 L85,680 L205,680 L205,370 L259,370 L519,680 L668,680 L398,359 L681,0 L533,0 L327,253"/> 
            <glyph glyph-name="L" unicode="&#x4C;" horiz-adv-x="563" d=" M563,0 L85,0 L85,680 L205,680 L205,108 L563,108"/> 
            <glyph glyph-name="M" unicode="&#x4D;" horiz-adv-x="859" d=" M715,412 L520,0 L414,0 L219,412 L192,0 L75,0 L114,680 L227,680 L467,144 L706,680 L820,680 L859,0 L742,0"/> 
            <glyph glyph-name="N" unicode="&#x4E;" horiz-adv-x="694" d=" M694,680 L694,0 L580,0 L205,476 L205,0 L85,0 L85,680 L196,680 L575,199 L575,680"/> 
            <glyph glyph-name="O" unicode="&#x4F;" horiz-adv-x="781" d=" M157,597 Q260,695 419,695 Q579,695 680,597 Q781,499 781,340 Q781,181 680,83 Q579,-15 419,-15 Q260,-15 157,83 Q56,181 56,340 Q56,499 157,597 M248,165 Q315,98 419,98 Q523,98 589,165 Q655,232 655,340 Q655,448 589,515 Q523,582 419,582 Q315,582 248,515 Q182,448 182,340 Q182,232 248,165"/> 
            <glyph glyph-name="P" unicode="&#x50;" horiz-adv-x="608" d=" M328,689 Q454,689 530,625 Q608,561 608,452 Q608,346 530,278 Q452,212 328,212 L205,212 L205,0 L85,0 L85,680 Q230,689 328,689 M205,321 L341,321 Q408,321 449.5,356.5 Q491,392 491,451 Q491,510 450,544 Q409,578 341,578 Q258,578 205,574"/> 
            <glyph glyph-name="Q" unicode="&#x51;" horiz-adv-x="781" d=" M781,340 Q781,229 729,145 Q677,61 585,19 L745,-165 L594,-165 L460,-13 Q422,-15 418,-15 Q258,-15 157,83 Q56,181 56,340 Q56,499 157,597 Q258,695 418,695 Q578,695 679,597 Q781,500 781,340 M248,515 Q182,448 182,340 Q182,232 248,165 Q315,98 419,98 Q523,98 589,165 Q655,232 655,340 Q655,448 589,515 Q523,582 419,582 Q315,582 248,515"/> 
            <glyph glyph-name="R" unicode="&#x52;" horiz-adv-x="650" d=" M504,0 L350,221 Q339,220 301,220 L205,220 L205,0 L85,0 L85,680 Q244,686 334,686 Q461,686 534,625.5 Q607,565 607,456 Q607,387 571,333 Q535,279 469,250 L650,0 M205,327 L347,327 Q409,327 449.5,363 Q490,399 490,456 Q490,516 450,547 Q410,578 339,578 Q327,578 205,576"/> 
            <glyph glyph-name="S" unicode="&#x53;" horiz-adv-x="615" d=" M595,644 L564,538 Q429,581 332,581 Q272,581 238.5,558.5 Q205,536 205,492 Q205,452 243,432 Q280,415 377,395 Q501,369 557,328 Q615,286 615,197 Q615,95 542.5,40 Q470,-15 344,-15 Q197,-15 59,42 L87,154 Q228,98 349,98 Q494,98 494,185 Q494,243 414,269 Q389,277 293,296 Q177,320 128,363 Q79,406 79,487 Q79,580 149,635 Q219,690 336,690 Q476,690 595,644"/> 
            <glyph glyph-name="T" unicode="&#x54;" horiz-adv-x="646" d=" M398,569 L398,0 L278,0 L278,569 L30,569 L30,680 L646,680 L646,569"/> 
            <glyph glyph-name="U" unicode="&#x55;" horiz-adv-x="685" d=" M685,680 L685,290 Q685,150 601,67 Q519,-15 380,-15 Q241,-15 158,67 Q75,150 75,290 L75,680 L195,680 L195,290 Q195,200 245,148.5 Q295,97 380,97 Q465,97 515,149 Q565,201 565,290 L565,680"/> 
            <glyph glyph-name="V" unicode="&#x56;" horiz-adv-x="732" d=" M438,0 L324,0 L29,680 L167,680 L380,162 L596,680 L732,680"/> 
            <glyph glyph-name="W" unicode="&#x57;" horiz-adv-x="1036" d=" M810,0 L696,0 L530,476 L364,0 L250,0 L24,680 L151,680 L310,185 L479,680 L581,680 L750,185 L909,680 L1036,680"/> 
            <glyph glyph-name="X" unicode="&#x58;" horiz-adv-x="715" d=" M452,336 L715,0 L573,0 L370,245 L167,0 L24,0 L286,336 L31,680 L179,680 L370,434 L559,680 L708,680"/> 
            <glyph glyph-name="Y" unicode="&#x59;" horiz-adv-x="706" d=" M304,229 L21,680 L157,680 L363,355 L571,680 L706,680 L425,229 L425,0 L304,0"/> 
            <glyph glyph-name="Z" unicode="&#x5A;" horiz-adv-x="614" d=" M609,606 L230,111 L614,111 L614,0 L54,0 L54,74 L441,569 L69,569 L69,680 L609,680"/> 
            <glyph glyph-name="[" unicode="&#x5B;" horiz-adv-x="318" d=" M174,-125 L318,-125 L318,-236 L58,-236 L58,757 L318,757 L318,646 L174,646"/> 
            <glyph glyph-name="\" unicode="&#x5C;" horiz-adv-x="485" d=" M161,768 L485,-272 L366,-272 L41,768"/> 
            <glyph glyph-name="]" unicode="&#x5D;" horiz-adv-x="294" d=" M34,646 L34,757 L294,757 L294,-236 L34,-236 L34,-125 L179,-125 L179,646"/> 
            <glyph glyph-name="^" unicode="&#x5E;" horiz-adv-x="412" d=" M214,578 L131,454 L17,454 L166,680 L262,680 L412,454 L298,454"/> 
            <glyph glyph-name="_" unicode="&#x5F;" horiz-adv-x="601" d=" M33,-100 L601,-100 L601,-201 L33,-201"/> 
            <glyph glyph-name="`" unicode="&#x60;" horiz-adv-x="400" d=" M400,563 L287,563 L170,714 L324,714"/> 
            <glyph glyph-name="a" unicode="&#x61;" horiz-adv-x="541" d=" M281,488 Q382,488 541,465 L541,0 L426,0 L426,36 Q354,-15 273,-15 Q170,-15 107,54 Q44,124 44,239 Q45,354 107.5,421 Q170,488 281,488 M298,391 Q227,391 192,350 Q157,309 157,236 Q157,167 193,124.5 Q229,82 289,82 Q360,82 426,133 L426,383 Q360,391 298,391"/> 
            <glyph glyph-name="b" unicode="&#x62;" horiz-adv-x="573" d=" M192,710 L192,475 Q251,488 327,488 Q446,488 509.5,422.5 Q573,357 573,241 Q573,122 510,55 Q447,-12 345,-12 Q214,-12 77,7 L77,710 M312,391 Q248,391 192,378 L192,92 Q269,82 319,82 Q388,82 424.5,124 Q461,166 461,241 Q461,391 312,391"/> 
            <glyph glyph-name="c" unicode="&#x63;" horiz-adv-x="480" d=" M478,467 L462,375 Q368,395 325,395 Q248,395 203,352 Q158,309 158,239 Q158,170 202,128 Q246,86 316,86 Q377,86 464,108 L480,15 Q392,-15 309,-15 Q191,-15 118,55 Q44,126 44,240 Q44,355 118,423 Q191,492 314,492 Q403,492 478,467"/> 
            <glyph glyph-name="d" unicode="&#x64;" horiz-adv-x="540" d=" M540,710 L540,7 Q403,-12 272,-12 Q170,-12 107,55 Q44,122 44,241 Q44,357 107.5,422.5 Q171,488 290,488 Q366,488 425,475 L425,710 M305,391 Q156,391 156,241 Q156,166 192.5,124 Q229,82 298,82 Q348,82 425,92 L425,378 Q369,391 305,391"/> 
            <glyph glyph-name="e" unicode="&#x65;" horiz-adv-x="524" d=" M293,489 Q394,489 458,431 Q523,374 524,280 Q524,232 517,193 L167,193 Q180,144 219,116 Q258,88 317,88 Q366,88 487,114 L503,20 Q389,-15 314,-15 Q184,-15 114,55 Q44,125 44,237 Q44,351 114,420 Q184,489 293,489 M295,398 Q242,398 206.5,366.5 Q171,335 163,281 L420,281 Q418,334 383.5,366 Q349,398 295,398"/> 
            <glyph glyph-name="f" unicode="&#x66;" horiz-adv-x="408" d=" M408,370 L239,370 L239,0 L124,0 L124,370 L9,370 L9,473 L124,473 L124,550 Q124,643 176.5,697 Q229,751 317,751 Q356,751 395,740 L378,643 Q346,647 322,647 Q283,647 261,621 Q239,595 239,546 L239,473 L408,473"/> 
            <glyph glyph-name="g" unicode="&#x67;" horiz-adv-x="541" d=" M281,488 Q387,488 489,473 Q502,471 515,469 Q528,467 534,466 Q540,465 541,465 L541,10 Q541,-110 471,-181 Q400,-253 271,-253 Q198,-253 101,-223 L120,-128 Q226,-150 267,-150 Q340,-150 381.5,-110 Q423,-70 426,3 Q357,-5 273,-5 Q172,-5 107,63 Q44,130 44,239 Q44,354 107,421 Q170,488 281,488 M298,391 Q227,391 192,350 Q157,309 157,236 Q157,173 193.5,132.5 Q230,92 289,92 Q370,92 426,102 L426,383 Q360,391 298,391"/> 
            <glyph glyph-name="h" unicode="&#x68;" horiz-adv-x="549" d=" M350,488 Q440,488 494.5,438 Q549,388 549,304 L549,0 L434,0 L434,271 Q434,322 404,352.5 Q374,383 325,383 Q263,383 194,368 L194,0 L79,0 L79,710 L194,710 L194,473 Q274,488 350,488"/> 
            <glyph glyph-name="i" unicode="&#x69;" horiz-adv-x="208" d=" M54,629 Q54,662 76,684 Q98,706 131,706 Q163,706 185.5,684 Q208,662 208,629 Q208,597 185.5,575.5 Q163,554 131,554 Q99,554 76.5,575.5 Q54,597 54,629 M189,473 L189,0 L74,0 L74,473"/> 
            <glyph glyph-name="j" unicode="&#x6A;" horiz-adv-x="196" d=" M85,706 Q151,706 173.5,684 Q196,662 196,629 Q196,597 173.5,575.5 Q151,554 118,554 Q85,554 62.5,575.5 Q40,597 40,629 Q40,662 85,706 M176,473 L176,-14 Q176,-134 131,-189 Q85,-246 -38,-247 L-48,-146 Q14,-148 37.5,-121.5 Q61,-95 61,-28 L61,473"/> 
            <glyph glyph-name="k" unicode="&#x6B;" horiz-adv-x="557" d=" M192,294 L232,294 L400,473 L541,473 L353,272 L557,0 L422,0 L277,186 L192,186 L192,0 L77,0 L77,710 L192,710"/> 
            <glyph glyph-name="l" unicode="&#x6C;" horiz-adv-x="195" d=" M195,710 L195,0 L80,0 L80,710"/> 
            <glyph glyph-name="m" unicode="&#x6D;" horiz-adv-x="857" d=" M657,488 Q857,488 857,304 L857,0 L742,0 L742,271 Q742,383 632,383 Q570,383 517,368 Q525,338 525,305 L525,0 L409,0 L409,273 Q409,330 382,356.5 Q355,383 299,383 Q241,383 192,376 L192,0 L77,0 L77,463 Q118,472 185,479 Q261,488 324,488 Q409,488 456,457 Q539,488 657,488"/> 
            <glyph glyph-name="n" unicode="&#x6E;" horiz-adv-x="547" d=" M349,488 Q439,488 493,438 Q547,388 547,304 L547,0 L432,0 L432,271 Q432,322 402.5,352.5 Q373,383 324,383 Q270,383 192,375 L192,0 L77,0 L77,465 Q197,488 349,488"/> 
            <glyph glyph-name="o" unicode="&#x6F;" horiz-adv-x="573" d=" M309,494 Q427,494 500,424 Q573,354 573,240 Q573,123 500,53 Q426,-18 309,-18 Q191,-18 117,53 Q44,123 44,240 Q44,354 117,424 Q190,494 309,494 M309,87 Q375,87 415.5,129 Q456,171 456,240 Q456,307 415.5,348 Q375,389 309,389 Q242,389 201,348 Q160,307 160,240 Q160,171 201,129 Q242,87 309,87"/> 
            <glyph glyph-name="p" unicode="&#x70;" horiz-adv-x="574" d=" M336,488 Q447,488 509.5,421.5 Q572,355 574,239 Q574,130 510,63 Q447,-5 345,-5 Q261,-5 192,3 L192,-231 L77,-231 L77,465 Q217,488 336,488 M329,92 Q388,92 424.5,132.5 Q461,173 461,236 Q461,309 426,350 Q391,391 320,391 Q258,391 192,383 L192,102 Q248,92 329,92"/> 
            <glyph glyph-name="q" unicode="&#x71;" horiz-adv-x="546" d=" M287,488 Q406,488 546,465 L546,-231 L431,-231 L431,3 Q362,-5 278,-5 Q177,-5 112,63 Q49,130 49,239 Q51,355 113.5,421.5 Q176,488 287,488 M294,92 Q375,92 431,102 L431,383 Q365,391 303,391 Q232,391 197,350 Q162,309 162,236 Q162,173 198.5,132.5 Q235,92 294,92"/> 
            <glyph glyph-name="r" unicode="&#x72;" horiz-adv-x="368" d=" M368,488 L368,375 Q268,375 192,368 L192,0 L77,0 L77,459 Q239,488 368,488"/> 
            <glyph glyph-name="s" unicode="&#x73;" horiz-adv-x="473" d=" M53,27 L76,122 Q182,80 270,80 Q367,80 367,129 Q367,163 313,176 Q309,178 301.5,179.5 Q294,181 285,183 Q276,185 272,186 Q267,188 249,191 Q231,194 226,195 Q142,211 103.5,243.5 Q65,276 65,334 Q65,405 119,445.5 Q173,486 266,486 Q370,486 460,451 L432,362 Q327,394 260,394 Q178,394 178,342 Q178,313 222,299 Q234,294 303,281 Q394,262 433,233 Q473,205 473,141 Q473,65 417.5,25 Q362,-15 264,-15 Q156,-15 53,27"/> 
            <glyph glyph-name="t" unicode="&#x74;" horiz-adv-x="425" d=" M413,96 L425,0 Q360,-15 300,-15 Q215,-15 169.5,33 Q124,81 124,172 L124,370 L21,370 L21,473 L124,473 L124,651 L239,651 L239,473 L395,473 L395,370 L239,370 L239,184 Q239,135 258.5,111.5 Q278,88 322,88 Q363,88 413,96"/> 
            <glyph glyph-name="u" unicode="&#x75;" horiz-adv-x="546" d=" M546,473 L546,10 Q500,0 421,-7 Q333,-15 274,-15 Q178,-15 126.5,30.5 Q75,76 75,169 L75,473 L191,473 L191,196 Q191,84 299,84 Q362,84 430,93 L430,473"/> 
            <glyph glyph-name="v" unicode="&#x76;" horiz-adv-x="571" d=" M361,0 L238,0 L29,473 L155,473 L300,137 L444,473 L571,473"/> 
            <glyph glyph-name="w" unicode="&#x77;" horiz-adv-x="788" d=" M632,0 L520,0 L409,307 L298,0 L187,0 L30,473 L147,473 L248,156 L365,473 L454,473 L570,155 L671,473 L788,473"/> 
            <glyph glyph-name="x" unicode="&#x78;" horiz-adv-x="542" d=" M360,238 L542,0 L407,0 L286,159 L163,0 L28,0 L209,238 L29,474 L167,474 L285,321 L403,474 L542,474"/> 
            <glyph glyph-name="y" unicode="&#x79;" horiz-adv-x="613" d=" M613,473 L272,-230 L142,-230 L270,33 L36,473 L168,473 L332,161 L483,473"/> 
            <glyph glyph-name="z" unicode="&#x7A;" horiz-adv-x="467" d=" M450,410 L210,100 L467,100 L467,0 L44,0 L44,56 L291,374 L49,374 L49,474 L450,474"/> 
            <glyph glyph-name="{" unicode="&#x7B;" horiz-adv-x="332" d=" M246,581 L246,372 Q246,320 230.5,294.5 Q215,269 172,255 Q215,241 230.5,216 Q246,191 246,139 L246,-70 Q246,-114 265,-130.5 Q284,-147 332,-147 L332,-251 Q131,-251 131,-65 L131,135 Q131,179 114,191.5 Q97,204 45,204 L45,307 Q97,307 114,319.5 Q131,332 131,375 L131,576 Q131,762 332,762 L332,658 Q284,658 265,641.5 Q246,625 246,581"/> 
            <glyph glyph-name="|" unicode="&#x7C;" horiz-adv-x="213" d=" M213,759 L213,-159 L106,-159 L106,759"/> 
            <glyph glyph-name="}" unicode="&#x7D;" horiz-adv-x="322" d=" M120,372 L120,581 Q120,625 101.5,641.5 Q83,658 34,658 L34,762 Q236,762 236,576 L236,375 Q236,332 253,319.5 Q270,307 322,307 L322,204 Q270,204 253,191.5 Q236,179 236,135 L236,-65 Q236,-251 34,-251 L34,-147 Q83,-147 101.5,-130.5 Q120,-114 120,-70 L120,139 Q120,191 135.5,216 Q151,241 195,255 Q152,269 136,294.5 Q120,320 120,372"/> 
            <glyph glyph-name="~" unicode="&#x7E;" horiz-adv-x="420" d=" M318,404 L420,404 Q420,356 401,323 Q382,290 354,277 Q326,264 294.5,265 Q263,266 237,281 L181,315 Q153,328 139.5,319 Q126,310 126,285 L25,285 Q25,332 44,365.5 Q63,399 91,412 Q119,425 150.5,424.5 Q182,424 208,409 L263,374 Q291,361 304.5,370 Q318,379 318,404"/> 
            <glyph glyph-name="¡" unicode="&#xA1;" horiz-adv-x="212" d=" M134,492 Q167,492 189.5,470.5 Q212,449 212,417 Q212,386 189,364.5 Q166,343 134,343 Q102,343 79.5,364.5 Q57,386 57,417 Q57,449 79.5,470.5 Q102,492 134,492 M75,282 L190,282 L196,-205 L68,-205"/> 
            <glyph glyph-name="¢" unicode="&#xA2;" horiz-adv-x="480" d=" M463,119 L480,25 Q418,4 357,-2 L357,-119 L253,-119 L253,0 Q157,15 99.5,82 Q42,149 42,248 Q42,347 99.5,413.5 Q157,480 253,496 L253,616 L357,616 L357,497 Q417,492 477,472 L461,377 Q367,398 316,398 Q247,398 203.5,356.5 Q160,315 160,248 Q160,181 203,139.5 Q246,98 315,98 Q367,98 463,119"/> 
            <glyph glyph-name="£" unicode="&#xA3;" horiz-adv-x="565" d=" M565,0 L34,0 L34,101 L97,101 L97,276 L34,276 L34,377 L97,377 L97,484 Q97,578 162,637 Q227,695 337,695 Q421,695 524,672 L507,576 Q397,593 333,593 Q278,593 245,564 Q212,535 212,485 L212,377 L417,377 L417,276 L212,276 L212,101 L565,101"/> 
            <glyph glyph-name="¥" unicode="&#xA5;" horiz-adv-x="705" d=" M630,297 L630,212 L424,212 L424,156 L630,156 L630,72 L424,72 L424,0 L302,0 L302,72 L95,72 L95,156 L302,156 L302,212 L95,212 L95,297 L260,297 L20,680 L156,680 L362,355 L569,680 L705,680 L465,297"/> 
            <glyph glyph-name="¦" unicode="&#xA6;" horiz-adv-x="213" d=" M213,350 L106,350 L106,758 L213,758 M213,-160 L106,-160 L106,248 L213,248"/> 
            <glyph glyph-name="§" unicode="&#xA7;" horiz-adv-x="511" d=" M285,695 Q396,695 481,653 L447,566 Q355,603 288,603 Q239,603 211,585 Q183,567 183,534 Q182,498 226,478 Q230,476 246,470.5 Q262,465 266,463 L318,447 Q418,416 464,377 Q511,339 511,266 Q511,176 430,117 Q477,76 477,12 Q477,-64 421,-108 Q365,-152 266,-152 Q156,-152 70,-110 L104,-23 Q194,-60 263,-60 Q313,-60 341,-42 Q369,-24 369,9 Q369,29 358.5,41 Q348,53 325,65 Q322,67 285,80 Q279,82 234,96 Q134,128 87,165 Q41,204 41,277 Q41,370 122,426 Q74,466 74,531 Q74,607 130,651 Q186,695 285,695 M192,385 Q141,338 141,293 Q141,256 172,234.5 Q203,213 286,185 L359,158 Q410,204 410,250 Q410,287 379.5,308.5 Q349,330 266,358 Q226,370 192,385"/> 
            <glyph glyph-name="¨" unicode="&#xA8;" horiz-adv-x="480" d=" M194,697 Q224,697 245,677 Q266,657 266,627 Q266,598 245,577.5 Q224,557 194,557 Q163,557 142,577.5 Q121,598 121,627 Q121,657 142,677 Q163,697 194,697 M407,697 Q438,697 459,677 Q480,657 480,627 Q480,598 459,577.5 Q438,557 407,557 Q377,557 356,577.5 Q335,598 335,627 Q335,657 356,677 Q377,697 407,697"/> 
            <glyph glyph-name="©" unicode="&#xA9;" horiz-adv-x="776" d=" M150,593 Q255,695 411,695 Q568,695 671,593 Q776,492 776,340 Q776,188 671,86 Q567,-15 411,-15 Q256,-15 150,86 Q46,188 46,340 Q46,492 150,593 M720,468 Q542,642 411,642 Q280,642 191,555 Q102,468 102,340 Q102,212 191,125 Q280,38 411,38 Q542,38 631,125 Q720,212 720,468 M550,512 L537,439 Q464,456 425,456 Q368,456 336.5,425.5 Q305,395 305,341 Q305,286 336,256 Q367,226 424,226 Q469,226 537,242 L549,170 Q480,147 422,147 Q324,147 269.5,199.5 Q215,252 215,341 Q215,429 269.5,482 Q324,535 422,535 Q481,535 550,512"/> 
            <glyph glyph-name="ª" unicode="&#xAA;" horiz-adv-x="399" d=" M244,695 Q399,695 399,567 L399,354 Q270,336 190,336 Q124,336 88.5,366 Q53,396 53,450 Q53,548 214,556 L316,562 L316,566 Q314,593 297.5,604.5 Q281,616 245,616 Q188,616 98,603 L89,679 Q179,695 244,695 M316,495 L202,489 Q137,488 137,449 Q137,409 207,409 Q244,409 316,417"/> 
            <glyph glyph-name="«" unicode="&#xAB;" horiz-adv-x="516" d=" M293,99 L229,41 L43,246 L229,450 L294,399 L172,249 M514,99 L450,41 L264,246 L450,450 L516,399 L393,249"/> 
            <glyph glyph-name="®" unicode="&#xAE;" horiz-adv-x="776" d=" M150,593 Q255,695 411,695 Q568,695 671,593 Q776,492 776,340 Q776,188 671,86 Q567,-15 411,-15 Q256,-15 150,86 Q46,188 46,340 Q46,492 150,593 M720,468 Q542,642 411,642 Q280,642 191,555 Q102,468 102,340 Q102,212 191,125 Q280,38 411,38 Q542,38 631,125 Q720,212 720,468 M572,405 Q572,328 500,291 L599,155 L497,155 L418,270 L409,270 L348,270 L348,155 L264,155 L264,536 Q342,539 414,539 Q485,539 529,504 Q572,470 572,405 M417,465 Q363,465 348,464 L348,343 L423,343 Q451,343 470.5,361 Q490,379 490,406 Q490,465 417,465"/> 
            <glyph glyph-name="¯" unicode="&#xAF;" horiz-adv-x="439" d=" M439,679 L439,585 L161,585 L161,679"/> 
            <glyph glyph-name="°" unicode="&#xB0;" horiz-adv-x="409" d=" M236,695 Q310,695 359,647 Q409,599 409,527 Q409,454 359,406 Q310,358 236,358 Q162,358 112,406 Q63,454 63,527 Q63,599 112,647 Q162,695 236,695 M236,444 Q270,444 295,468.5 Q320,493 320,527 Q320,561 295.5,585 Q271,609 236,609 Q201,609 176,585 Q151,561 151,527 Q151,493 176,468.5 Q201,444 236,444"/> 
            <glyph glyph-name="±" unicode="&#xB1;" horiz-adv-x="581" d=" M581,322 L398,322 L398,185 L288,185 L288,322 L104,322 L104,429 L288,429 L288,567 L398,567 L398,429 L581,429 M581,142 L581,35 L104,35 L104,142"/> 
            <glyph glyph-name="²" unicode="&#xB2;" horiz-adv-x="318" d=" M318,289 L27,289 L27,348 L169,476 Q213,509 213,549 Q213,602 147,602 Q100,602 43,583 L24,661 Q87,685 161,685 Q235,685 271,649 Q307,613 307,562 Q307,521 284,484 Q261,447 211,403 L169,365 L318,365"/> 
            <glyph glyph-name="³" unicode="&#xB3;" horiz-adv-x="328" d=" M310,626 L207,520 L214,519 Q265,515 296.5,486 Q328,457 328,415 Q328,284 164,284 Q80,284 22,317 L53,387 Q113,361 167,361 Q203,361 224,373 Q245,385 245,407 Q245,446 187,446 L87,446 L87,489 L188,600 L44,600 L44,680 L310,680"/> 
            <glyph glyph-name="´" unicode="&#xB4;" horiz-adv-x="458" d=" M458,714 L341,563 L228,563 L304,714"/> 
            <glyph glyph-name="¶" unicode="&#xB6;" horiz-adv-x="698" d=" M285,689 Q552,689 698,680 L698,-109 L578,-109 L578,572 L480,575 L480,-109 L361,-109 L361,212 L285,212 Q164,212 93,277 Q24,343 24,452 Q24,563 93,626 Q162,689 285,689 M361,577 L272,578 Q142,578 142,451 Q142,390 175.5,355.5 Q209,321 272,321 L361,321"/> 
            <glyph glyph-name="·" unicode="&#xB7;" horiz-adv-x="236" d=" M150,181 Q115,181 90.5,205 Q66,229 66,264 Q66,298 90.5,322 Q115,346 150,346 Q186,346 211,322 Q236,298 236,264 Q236,229 211,205 Q186,181 150,181"/> 
            <glyph glyph-name="¸" unicode="&#xB8;" horiz-adv-x="360" d=" M301,-209 L205,-209 L250,-50 L360,-50"/> 
            <glyph glyph-name="¹" unicode="&#xB9;" horiz-adv-x="276" d=" M276,370 L276,292 L22,292 L22,370 L106,370 L106,572 L28,550 L8,629 L170,680 L195,680 L195,370"/> 
            <glyph glyph-name="º" unicode="&#xBA;" horiz-adv-x="420" d=" M149,695 Q313,695 366,645 Q420,596 420,516 Q420,435 366,384 Q313,334 231,334 Q149,334 94,384 Q41,435 41,516 Q41,595 94,645 M329,472 Q329,560 301.5,587 Q274,614 231,614 Q189,614 160.5,586 Q132,558 132,516 Q132,472 160,444 Q188,416 231,416 Q274,416 329,472"/> 
            <glyph glyph-name="»" unicode="&#xBB;" horiz-adv-x="535" d=" M63,399 L128,450 L314,246 L128,41 L64,99 L185,249 M284,399 L350,450 L535,246 L350,41 L286,99 L407,249"/> 
            <glyph glyph-name="¼" unicode="&#xBC;" horiz-adv-x="847" d=" M70,292 L70,370 L154,370 L154,572 L76,550 L56,629 L218,680 L243,680 L243,370 L324,370 L324,292 M726,680 L264,0 L200,0 L662,680 M847,158 L847,82 L789,82 L789,0 L702,0 L702,82 L476,82 L476,145 L696,388 L789,388 L789,158 M702,289 L587,158 L702,158"/> 
            <glyph glyph-name="½" unicode="&#xBD;" horiz-adv-x="856" d=" M70,292 L70,370 L154,370 L154,572 L76,550 L56,629 L218,680 L243,680 L243,370 L324,370 L324,292 M715,680 L253,0 L188,0 L650,680 M856,76 L856,0 L564,0 L564,59 L707,187 Q751,220 751,260 Q751,313 684,313 Q638,313 581,294 L562,372 Q625,396 699,396 Q773,396 809,360 Q845,324 845,273 Q845,232 822,195 Q799,158 749,114 L706,76"/> 
            <glyph glyph-name="¾" unicode="&#xBE;" horiz-adv-x="868" d=" M337,626 L234,520 L241,519 Q292,515 323.5,486 Q355,457 355,415 Q355,284 191,284 Q108,284 49,317 L80,387 Q140,361 194,361 Q230,361 251,373 Q272,385 272,407 Q272,446 214,446 L114,446 L114,489 L215,600 L71,600 L71,680 L337,680 M275,0 L211,0 L673,680 L737,680 M811,158 L868,158 L868,82 L811,82 L811,0 L723,0 L723,82 L497,82 L497,145 L717,388 L811,388 M608,158 L723,158 L723,289"/> 
            <glyph glyph-name="¿" unicode="&#xBF;" horiz-adv-x="475" d=" M250,441 Q250,473 273,495 Q296,517 328,517 Q360,517 382.5,495 Q405,473 405,441 Q405,410 382.5,388.5 Q360,367 328,367 Q296,367 273,388.5 Q250,410 250,441 M289,-196 Q181,-196 114,-137 Q48,-78 48,16 Q48,108 109,168 Q170,229 265,229 L279,229 L275,307 L383,307 L401,132 L289,132 Q231,132 195.5,99 Q160,66 160,11 Q160,-36 194.5,-64.5 Q229,-93 284,-93 Q352,-93 458,-77 L475,-173 Q374,-196 289,-196"/> 
            <glyph glyph-name="À" unicode="&#xC0;" horiz-adv-x="755" d=" M448,749 L335,749 L218,891 L372,891 M220,139 L159,0 L24,0 L334,684 L446,684 L755,0 L620,0 L559,139 M390,528 L267,247 L513,247"/> 
            <glyph glyph-name="Á" unicode="&#xC1;" horiz-adv-x="755" d=" M576,891 L459,749 L338,749 L422,891 M220,139 L159,0 L24,0 L334,684 L446,684 L755,0 L620,0 L559,139 M390,528 L267,247 L513,247"/> 
            <glyph glyph-name="Â" unicode="&#xC2;" horiz-adv-x="755" d=" M390,821 L332,749 L219,749 L339,891 L441,891 L562,749 L448,749 M220,139 L159,0 L24,0 L334,684 L446,684 L755,0 L620,0 L559,139 M390,528 L267,247 L513,247"/> 
            <glyph glyph-name="Ã" unicode="&#xC3;" horiz-adv-x="755" d=" M476,872 L568,872 Q568,829 551,799 Q534,769 508.5,757.5 Q483,746 455,746.5 Q427,747 403,761 L354,792 Q305,814 305,765 L212,765 Q212,808 229,838 Q246,868 271.5,880 Q297,892 325.5,891 Q354,890 377,877 L427,846 Q452,835 464,842.5 Q476,850 476,872 M220,139 L159,0 L24,0 L334,684 L446,684 L755,0 L620,0 L559,139 M390,528 L267,247 L513,247"/> 
            <glyph glyph-name="Ä" unicode="&#xC4;" horiz-adv-x="755" d=" M283,747 Q252,747 231,767.5 Q210,788 210,817 Q210,847 231,867.5 Q252,888 283,888 Q313,888 334,867.5 Q355,847 355,817 Q355,788 334,767.5 Q313,747 283,747 M496,747 Q466,747 445,767.5 Q424,788 424,817 Q424,847 445,867.5 Q466,888 496,888 Q527,888 548,867.5 Q569,847 569,817 Q569,788 548,767.5 Q527,747 496,747 M220,139 L159,0 L24,0 L334,684 L446,684 L755,0 L620,0 L559,139 M390,528 L267,247 L513,247"/> 
            <glyph glyph-name="Å" unicode="&#xC5;" horiz-adv-x="755" d=" M308,911 Q340,940 389,940 Q438,940 470,911 Q501,883 501,836 Q501,788 470,760 Q438,731 389,731 Q340,731 308,760 Q278,788 278,836 Q278,882 308,911 M389,790 Q410,790 422.5,802.5 Q435,815 435,836 Q435,856 422.5,868.5 Q410,881 389,881 Q369,881 356,868.5 Q343,856 343,836 Q343,815 356,802.5 Q369,790 389,790 M220,139 L159,0 L24,0 L334,684 L446,684 L755,0 L620,0 L559,139 M390,528 L267,247 L513,247"/> 
            <glyph glyph-name="Æ" unicode="&#xC6;" horiz-adv-x="1036" d=" M663,395 L994,395 L994,285 L663,285 L663,111 L1036,111 L1036,0 L543,0 L543,136 L266,136 L171,0 L24,0 L511,680 L1036,680 L1036,569 L663,569 M543,532 L343,247 L543,247"/> 
            <glyph glyph-name="Ç" unicode="&#xC7;" horiz-adv-x="672" d=" M669,664 L647,551 Q525,579 449,579 Q322,579 252,513 Q183,448 183,342 Q183,232 252,165 Q322,98 437,98 Q521,98 650,128 L672,23 Q540,-15 431,-15 Q263,-15 159,83 Q56,180 56,341 Q56,500 159,597 Q263,695 432,695 Q555,695 669,664 M383,-209 L287,-209 L332,-50 L442,-50"/> 
            <glyph glyph-name="È" unicode="&#xC8;" horiz-adv-x="578" d=" M205,395 L536,395 L536,285 L205,285 L205,111 L578,111 L578,0 L85,0 L85,680 L578,680 L578,569 L205,569 M386,749 L273,749 L156,891 L310,891"/> 
            <glyph glyph-name="É" unicode="&#xC9;" horiz-adv-x="578" d=" M205,395 L536,395 L536,285 L205,285 L205,111 L578,111 L578,0 L85,0 L85,680 L578,680 L578,569 L205,569 M514,891 L397,749 L276,749 L360,891"/> 
            <glyph glyph-name="Ê" unicode="&#xCA;" horiz-adv-x="578" d=" M205,395 L536,395 L536,285 L205,285 L205,111 L578,111 L578,0 L85,0 L85,680 L578,680 L578,569 L205,569 M328,821 L270,749 L157,749 L277,891 L379,891 L500,749 L386,749"/> 
            <glyph glyph-name="Ë" unicode="&#xCB;" horiz-adv-x="578" d=" M221,747 Q190,747 169,767.5 Q148,788 148,817 Q148,847 169,867.5 Q190,888 221,888 Q251,888 272,867.5 Q293,847 293,817 Q293,788 272,767.5 Q251,747 221,747 M434,747 Q404,747 383,767.5 Q362,788 362,817 Q362,847 383,867.5 Q404,888 434,888 Q465,888 486,867.5 Q507,847 507,817 Q507,788 486,767.5 Q465,747 434,747 M205,395 L536,395 L536,285 L205,285 L205,111 L578,111 L578,0 L85,0 L85,680 L578,680 L578,569 L205,569"/> 
            <glyph glyph-name="Ì" unicode="&#xCC;" horiz-adv-x="205" d=" M205,680 L205,0 L85,0 L85,680 M203,749 L90,749 L-27,891 L127,891"/> 
            <glyph glyph-name="Í" unicode="&#xCD;" horiz-adv-x="331" d=" M205,680 L205,0 L85,0 L85,680 M331,891 L214,749 L93,749 L177,891"/> 
            <glyph glyph-name="Î" unicode="&#xCE;" horiz-adv-x="317" d=" M205,680 L205,0 L85,0 L85,680 M145,821 L87,749 L-26,749 L94,891 L196,891 L317,749 L203,749"/> 
            <glyph glyph-name="Ï" unicode="&#xCF;" horiz-adv-x="324" d=" M38,747 Q7,747 -14,767.5 Q-35,788 -35,817 Q-35,847 -14,867.5 Q7,888 38,888 Q68,888 89,867.5 Q110,847 110,817 Q110,788 89,767.5 Q68,747 38,747 M251,747 Q221,747 200,767.5 Q179,788 179,817 Q179,847 200,867.5 Q221,888 251,888 Q282,888 303,867.5 Q324,847 324,817 Q324,788 303,767.5 Q282,747 251,747 M205,680 L205,0 L85,0 L85,680"/> 
            <glyph glyph-name="Ð" unicode="&#xD0;" horiz-adv-x="685" d=" M324,689 Q483,689 584,594 Q685,499 685,343 Q685,187 587,89 Q490,-8 342,-8 Q192,-8 85,0 L85,278 L29,278 L29,389 L85,389 L85,680 Q235,689 324,689 M343,102 Q436,102 497,169 Q560,236 560,343 Q560,448 494,513 Q429,578 325,578 Q252,578 205,574 L205,389 L349,389 L349,278 L205,278 L205,106 Q285,102 343,102"/> 
            <glyph glyph-name="Ñ" unicode="&#xD1;" horiz-adv-x="694" d=" M468,872 L560,872 Q560,829 543,799 Q526,769 500.5,757.5 Q475,746 447,746.5 Q419,747 395,761 L346,792 Q297,814 297,765 L204,765 Q204,808 221,838 Q238,868 263.5,880 Q289,892 317.5,891 Q346,890 369,877 L419,846 Q444,835 456,842.5 Q468,850 468,872 M694,680 L694,0 L580,0 L205,476 L205,0 L85,0 L85,680 L196,680 L575,199 L575,680"/> 
            <glyph glyph-name="Ò" unicode="&#xD2;" horiz-adv-x="781" d=" M477,749 L364,749 L247,891 L401,891 M56,499 Q258,695 418,695 Q578,695 679,597 Q781,500 781,340 Q781,180 679,83 Q578,-15 418,-15 Q258,-15 157,83 Q56,181 56,499 M248,165 Q315,98 419,98 Q523,98 589,165 Q655,232 655,340 Q655,448 589,515 Q523,582 419,582 Q315,582 248,515 Q182,448 182,340 Q182,232 248,165"/> 
            <glyph glyph-name="Ó" unicode="&#xD3;" horiz-adv-x="781" d=" M605,891 L488,749 L367,749 L451,891 M56,499 Q258,695 418,695 Q578,695 679,597 Q781,500 781,340 Q781,180 679,83 Q578,-15 418,-15 Q258,-15 157,83 Q56,181 56,499 M248,165 Q315,98 419,98 Q523,98 589,165 Q655,232 655,340 Q655,448 589,515 Q523,582 419,582 Q315,582 248,515 Q182,448 182,340 Q182,232 248,165"/> 
            <glyph glyph-name="Ô" unicode="&#xD4;" horiz-adv-x="781" d=" M419,821 L361,749 L248,749 L368,891 L470,891 L591,749 L477,749 M56,499 Q258,695 418,695 Q578,695 679,597 Q781,500 781,340 Q781,180 679,83 Q578,-15 418,-15 Q258,-15 157,83 Q56,181 56,499 M248,165 Q315,98 419,98 Q523,98 589,165 Q655,232 655,340 Q655,448 589,515 Q523,582 419,582 Q315,582 248,515 Q182,448 182,340 Q182,232 248,165"/> 
            <glyph glyph-name="Õ" unicode="&#xD5;" horiz-adv-x="781" d=" M505,872 L597,872 Q597,829 580,799 Q563,769 537.5,757.5 Q512,746 484,746.5 Q456,747 432,761 L383,792 Q358,803 346,795 Q334,787 334,765 L241,765 Q241,808 258,838 Q275,868 300.5,880 Q326,892 354.5,891 Q383,890 406,877 L456,846 Q505,824 505,872 M56,499 Q258,695 418,695 Q578,695 679,597 Q781,500 781,340 Q781,180 679,83 Q578,-15 418,-15 Q258,-15 157,83 Q56,181 56,499 M248,165 Q315,98 419,98 Q523,98 589,165 Q655,232 655,340 Q655,448 589,515 Q523,582 419,582 Q315,582 248,515 Q182,448 182,340 Q182,232 248,165"/> 
            <glyph glyph-name="Ö" unicode="&#xD6;" horiz-adv-x="781" d=" M312,747 Q281,747 260,767.5 Q239,788 239,817 Q239,847 260,867.5 Q281,888 312,888 Q342,888 363,867.5 Q384,847 384,817 Q384,788 363,767.5 Q342,747 312,747 M525,747 Q495,747 474,767.5 Q453,788 453,817 Q453,847 474,867.5 Q495,888 525,888 Q556,888 577,867.5 Q598,847 598,817 Q598,788 577,767.5 Q556,747 525,747 M56,499 Q258,695 418,695 Q578,695 679,597 Q781,500 781,340 Q781,180 679,83 Q578,-15 418,-15 Q258,-15 157,83 Q56,181 56,499 M248,165 Q315,98 419,98 Q523,98 589,165 Q655,232 655,340 Q655,448 589,515 Q523,582 419,582 Q315,582 248,515 Q182,448 182,340 Q182,232 248,165"/> 
            <glyph glyph-name="×" unicode="&#xD7;" horiz-adv-x="560" d=" M560,176 L484,100 L339,246 L193,100 L117,176 L263,322 L117,467 L193,543 L339,398 L484,543 L560,467 L415,322"/> 
            <glyph glyph-name="Ø" unicode="&#xD8;" horiz-adv-x="781" d=" M733,631 L692,584 Q781,486 781,340 Q781,180 679,83 Q578,-15 418,-15 Q300,-15 212,40 L166,-13 L88,53 L135,107 Q56,201 56,340 Q56,499 157,597 Q258,695 418,695 Q524,695 610,648 L654,698 M182,340 Q182,260 219,202 L530,557 Q481,582 419,582 Q315,582 248,515 Q182,448 182,340 M419,98 Q523,98 589,165 Q655,232 655,340 Q655,429 609,491 L292,131 Q349,98 419,98"/> 
            <glyph glyph-name="Ù" unicode="&#xD9;" horiz-adv-x="685" d=" M685,680 L685,290 Q685,150 601,67 Q519,-15 380,-15 Q241,-15 158,67 Q75,150 75,290 L75,680 L195,680 L195,290 Q195,200 245,148.5 Q295,97 380,97 Q465,97 515,149 Q565,201 565,290 L565,680 M439,749 L326,749 L209,891 L363,891"/> 
            <glyph glyph-name="Ú" unicode="&#xDA;" horiz-adv-x="685" d=" M685,680 L685,290 Q685,150 601,67 Q519,-15 380,-15 Q241,-15 158,67 Q75,150 75,290 L75,680 L195,680 L195,290 Q195,200 245,148.5 Q295,97 380,97 Q465,97 515,149 Q565,201 565,290 L565,680 M567,891 L450,749 L329,749 L413,891"/> 
            <glyph glyph-name="Û" unicode="&#xDB;" horiz-adv-x="685" d=" M685,680 L685,290 Q685,150 601,67 Q519,-15 380,-15 Q241,-15 158,67 Q75,150 75,290 L75,680 L195,680 L195,290 Q195,200 245,148.5 Q295,97 380,97 Q465,97 515,149 Q565,201 565,290 L565,680 M380,821 L322,749 L209,749 L329,891 L431,891 L552,749 L438,749"/> 
            <glyph glyph-name="Ü" unicode="&#xDC;" horiz-adv-x="685" d=" M273,747 Q242,747 221,767.5 Q200,788 200,817 Q200,847 221,867.5 Q242,888 273,888 Q303,888 324,867.5 Q345,847 345,817 Q345,788 324,767.5 Q303,747 273,747 M486,747 Q456,747 435,767.5 Q414,788 414,817 Q414,847 435,867.5 Q456,888 486,888 Q517,888 538,867.5 Q559,847 559,817 Q559,788 538,767.5 Q517,747 486,747 M685,680 L685,290 Q685,150 601,67 Q519,-15 380,-15 Q241,-15 158,67 Q75,150 75,290 L75,680 L195,680 L195,290 Q195,200 245,148.5 Q295,97 380,97 Q465,97 515,149 Q565,201 565,290 L565,680"/> 
            <glyph glyph-name="Ý" unicode="&#xDD;" horiz-adv-x="706" d=" M551,891 L434,749 L313,749 L397,891 M303,229 L21,680 L157,680 L363,355 L570,680 L706,680 L425,229 L425,0 L303,0"/> 
            <glyph glyph-name="Þ" unicode="&#xDE;" horiz-adv-x="608" d=" M328,586 Q454,586 530,522 Q608,458 608,350 Q608,242 530,176 Q452,110 328,110 L205,110 L205,0 L85,0 L85,680 L205,680 L205,584 Q317,586 328,586 M205,218 L341,218 Q407,218 449,254 Q491,290 491,349 Q491,407 449.5,441 Q408,475 341,475 Q272,475 205,472"/> 
            <glyph glyph-name="ß" unicode="&#xDF;" horiz-adv-x="627" d=" M280,751 L280,647 Q194,647 194,552 L194,473 L583,473 L583,401 L446,223 L458,222 Q537,211 582,159 Q627,107 627,24 Q627,-77 560,-138 Q493,-200 386,-200 Q314,-200 226,-180 L242,-83 Q329,-98 386,-98 Q444,-98 479.5,-65 Q515,-32 515,22 Q515,67 483.5,95 Q452,123 403,123 L299,123 L299,180 L432,367 L194,367 L194,0 L78,0 L78,564 Q78,751 280,751"/> 
            <glyph glyph-name="à" unicode="&#xE0;" horiz-adv-x="541" d=" M386,563 L273,563 L156,714 L310,714 M282,488 Q382,488 541,465 L541,0 L426,0 L426,36 Q356,-15 273,-15 Q170,-15 107,54 Q44,124 44,239 Q46,354 108.5,421 Q171,488 282,488 M298,391 Q228,391 192.5,350 Q157,309 157,236 Q157,167 193.5,124.5 Q230,82 290,82 Q360,82 426,133 L426,383 Q360,391 298,391"/> 
            <glyph glyph-name="á" unicode="&#xE1;" horiz-adv-x="541" d=" M484,714 L367,563 L254,563 L330,714 M282,488 Q382,488 541,465 L541,0 L426,0 L426,36 Q356,-15 273,-15 Q170,-15 107,54 Q44,124 44,239 Q46,354 108.5,421 Q171,488 282,488 M298,391 Q228,391 192.5,350 Q157,309 157,236 Q157,167 193.5,124.5 Q230,82 290,82 Q360,82 426,133 L426,383 Q360,391 298,391"/> 
            <glyph glyph-name="â" unicode="&#xE2;" horiz-adv-x="541" d=" M316,630 L257,566 L144,566 L264,704 L366,704 L487,566 L373,566 M282,488 Q382,488 541,465 L541,0 L426,0 L426,36 Q356,-15 273,-15 Q170,-15 107,54 Q44,124 44,239 Q46,354 108.5,421 Q171,488 282,488 M298,391 Q228,391 192.5,350 Q157,309 157,236 Q157,167 193.5,124.5 Q230,82 290,82 Q360,82 426,133 L426,383 Q360,391 298,391"/> 
            <glyph glyph-name="ã" unicode="&#xE3;" horiz-adv-x="541" d=" M402,687 L494,687 Q494,644 477,614 Q460,584 434.5,572.5 Q409,561 381,561.5 Q353,562 329,575 L280,606 Q231,628 231,580 L138,580 Q138,623 155,653 Q172,683 197.5,695 Q223,707 251.5,706 Q280,705 303,691 L353,660 Q378,649 390,657 Q402,665 402,687 M282,488 Q382,488 541,465 L541,0 L426,0 L426,36 Q356,-15 273,-15 Q170,-15 107,54 Q44,124 44,239 Q46,354 108.5,421 Q171,488 282,488 M298,391 Q228,391 192.5,350 Q157,309 157,236 Q157,167 193.5,124.5 Q230,82 290,82 Q360,82 426,133 L426,383 Q360,391 298,391"/> 
            <glyph glyph-name="ä" unicode="&#xE4;" horiz-adv-x="541" d=" M210,697 Q240,697 261,677 Q282,657 282,627 Q282,598 261,577.5 Q240,557 210,557 Q179,557 158,577.5 Q137,598 137,627 Q137,657 158,677 Q179,697 210,697 M423,697 Q454,697 475,677 Q496,657 496,627 Q496,598 475,577.5 Q454,557 423,557 Q393,557 372,577.5 Q351,598 351,627 Q351,657 372,677 Q393,697 423,697 M282,488 Q382,488 541,465 L541,0 L426,0 L426,36 Q356,-15 273,-15 Q170,-15 107,54 Q44,124 44,239 Q46,354 108.5,421 Q171,488 282,488 M298,391 Q228,391 192.5,350 Q157,309 157,236 Q157,167 193.5,124.5 Q230,82 290,82 Q360,82 426,133 L426,383 Q360,391 298,391"/> 
            <glyph glyph-name="å" unicode="&#xE5;" horiz-adv-x="541" d=" M234,724 Q266,753 315,753 Q364,753 396,724 Q427,696 427,649 Q427,601 396,573 Q364,544 315,544 Q266,544 234,573 Q204,602 204,649 Q204,696 234,724 M315,603 Q336,603 348.5,615.5 Q361,628 361,649 Q361,669 348.5,681.5 Q336,694 315,694 Q295,694 282,681.5 Q269,669 269,649 Q269,628 282,615.5 Q295,603 315,603 M282,488 Q382,488 541,465 L541,0 L426,0 L426,36 Q356,-15 273,-15 Q170,-15 107,54 Q44,124 44,239 Q46,354 108.5,421 Q171,488 282,488 M298,391 Q228,391 192.5,350 Q157,309 157,236 Q157,167 193.5,124.5 Q230,82 290,82 Q360,82 426,133 L426,383 Q360,391 298,391"/> 
            <glyph glyph-name="æ" unicode="&#xE6;" horiz-adv-x="849" d=" M849,276 Q849,232 842,193 L490,193 Q503,144 543,116 Q583,88 642,88 Q693,88 811,114 L828,20 Q714,-15 639,-15 Q535,-15 466,33 Q347,-7 280,-13 Q250,-15 221,-15 Q132,-15 84.5,26.5 Q37,68 37,145 Q37,214 89.5,246.5 Q142,279 251,278 L368,277 L368,301 Q368,350 349.5,370.5 Q331,391 282,391 Q212,391 97,373 L85,470 Q207,492 291,492 Q408,492 448,428 Q516,489 617,489 Q719,489 783,431 Q848,374 849,280 M620,398 Q567,398 532,366.5 Q497,335 487,281 L745,281 Q744,334 709.5,366 Q675,398 620,398 M146,138 Q146,78 249,78 Q316,78 401,105 Q380,140 373,183 L243,182 Q190,182 168,172 Q146,162 146,138"/> 
            <glyph glyph-name="ç" unicode="&#xE7;" horiz-adv-x="481" d=" M478,467 L462,375 Q368,395 325,395 Q248,395 203.5,352 Q159,309 159,239 Q159,170 202.5,128 Q246,86 316,86 Q380,86 464,108 L481,15 Q391,-15 309,-15 Q191,-15 118,55 Q44,126 44,240 Q44,355 118,423 Q191,492 314,492 Q404,492 478,467 M281,-209 L185,-209 L230,-50 L340,-50"/> 
            <glyph glyph-name="è" unicode="&#xE8;" horiz-adv-x="525" d=" M372,563 L259,563 L142,714 L296,714 M293,489 Q395,489 459,431 Q524,374 525,280 Q525,232 518,193 L167,193 Q180,144 219.5,116 Q259,88 318,88 Q366,88 487,114 L503,20 Q390,-15 314,-15 Q184,-15 114,55 Q44,125 44,237 Q44,351 114,420 Q184,489 293,489 M163,281 L420,281 Q419,334 384.5,366 Q350,398 296,398 Q242,398 207,366.5 Q172,335 163,281"/> 
            <glyph glyph-name="é" unicode="&#xE9;" horiz-adv-x="525" d=" M469,714 L352,563 L239,563 L315,714 M293,489 Q395,489 459,431 Q524,374 525,280 Q525,232 518,193 L167,193 Q180,144 219.5,116 Q259,88 318,88 Q366,88 487,114 L503,20 Q390,-15 314,-15 Q184,-15 114,55 Q44,125 44,237 Q44,351 114,420 Q184,489 293,489 M163,281 L420,281 Q419,334 384.5,366 Q350,398 296,398 Q242,398 207,366.5 Q172,335 163,281"/> 
            <glyph glyph-name="ê" unicode="&#xEA;" horiz-adv-x="525" d=" M301,630 L242,566 L129,566 L249,704 L351,704 L471,566 L358,566 M293,489 Q395,489 459,431 Q524,374 525,280 Q525,232 518,193 L167,193 Q180,144 219.5,116 Q259,88 318,88 Q366,88 487,114 L503,20 Q390,-15 314,-15 Q184,-15 114,55 Q44,125 44,237 Q44,351 114,420 Q184,489 293,489 M163,281 L420,281 Q419,334 384.5,366 Q350,398 296,398 Q242,398 207,366.5 Q172,335 163,281"/> 
            <glyph glyph-name="ë" unicode="&#xEB;" horiz-adv-x="525" d=" M195,697 Q225,697 246,677 Q267,657 267,627 Q267,598 246,577.5 Q225,557 195,557 Q164,557 143,577.5 Q122,598 122,627 Q122,657 143,677 Q164,697 195,697 M408,697 Q439,697 460,677 Q481,657 481,627 Q481,598 460,577.5 Q439,557 408,557 Q378,557 357,577.5 Q336,598 336,627 Q336,657 357,677 Q378,697 408,697 M293,489 Q395,489 459,431 Q524,374 525,280 Q525,232 518,193 L167,193 Q180,144 219.5,116 Q259,88 318,88 Q366,88 487,114 L503,20 Q390,-15 314,-15 Q184,-15 114,55 Q44,125 44,237 Q44,351 114,420 Q184,489 293,489 M163,281 L420,281 Q419,334 384.5,366 Q350,398 296,398 Q242,398 207,366.5 Q172,335 163,281"/> 
            <glyph glyph-name="ì" unicode="&#xEC;" horiz-adv-x="189" d=" M182,563 L69,563 L-49,714 L106,714 M189,473 L189,0 L74,0 L74,473"/> 
            <glyph glyph-name="í" unicode="&#xED;" horiz-adv-x="303" d=" M189,473 L189,0 L74,0 L74,473 M303,714 L186,563 L73,563 L149,714"/> 
            <glyph glyph-name="î" unicode="&#xEE;" horiz-adv-x="303" d=" M132,630 L73,566 L-40,566 L80,704 L182,704 L303,566 L189,566 M189,473 L189,0 L74,0 L74,473"/> 
            <glyph glyph-name="ï" unicode="&#xEF;" horiz-adv-x="312" d=" M26,697 Q56,697 77,677 Q98,657 98,627 Q98,598 77,577.5 Q56,557 26,557 Q-5,557 -26,577.5 Q-47,598 -47,627 Q-47,657 -26,677 Q-5,697 26,697 M239,697 Q270,697 291,677 Q312,657 312,627 Q312,598 291,577.5 Q270,557 239,557 Q209,557 188,577.5 Q167,598 167,627 Q167,657 188,677 Q209,697 239,697 M189,473 L189,0 L74,0 L74,473"/> 
            <glyph glyph-name="ð" unicode="&#xF0;" horiz-adv-x="573" d=" M133,667 L250,716 Q307,695 358,659 L453,694 L481,625 L424,604 Q494,541 533.5,450 Q573,359 573,258 Q573,129 500,56 Q426,-18 309,-18 Q194,-18 118,53 Q44,125 44,240 Q44,352 115,423 Q188,494 291,494 Q354,494 410,458 Q354,534 311,563 L170,512 L142,581 L237,615 Q190,645 133,667 M309,389 Q246,389 202,347 Q160,306 160,240 Q160,172 202,129 Q246,87 309,87 Q375,87 415.5,129.5 Q456,172 456,241 Q456,306 414.5,347.5 Q373,389 309,389"/> 
            <glyph glyph-name="ñ" unicode="&#xF1;" horiz-adv-x="547" d=" M395,687 L487,687 Q487,644 470,614 Q453,584 427.5,572.5 Q402,561 374,561.5 Q346,562 322,575 L273,606 Q248,617 236,609.5 Q224,602 224,580 L131,580 Q131,623 148,653 Q165,683 190.5,695 Q216,707 244.5,706 Q273,705 296,691 L346,660 Q395,638 395,687 M349,488 Q439,488 493,438 Q547,388 547,304 L547,0 L432,0 L432,271 Q432,322 402.5,352.5 Q373,383 324,383 Q270,383 192,375 L192,0 L77,0 L77,465 Q200,488 349,488"/> 
            <glyph glyph-name="ò" unicode="&#xF2;" horiz-adv-x="573" d=" M379,563 L266,563 L149,714 L303,714 M309,494 Q427,494 500,424 Q573,354 573,240 Q573,123 500,53 Q427,-18 309,-18 Q191,-18 117,53 Q44,123 44,240 Q44,354 117,424 Q190,494 309,494 M309,87 Q375,87 415.5,129 Q456,171 456,240 Q456,307 415.5,348 Q375,389 309,389 Q242,389 201,348 Q160,307 160,240 Q160,171 201,129 Q242,87 309,87"/> 
            <glyph glyph-name="ó" unicode="&#xF3;" horiz-adv-x="573" d=" M477,714 L360,563 L247,563 L323,714 M309,494 Q427,494 500,424 Q573,354 573,240 Q573,123 500,53 Q427,-18 309,-18 Q191,-18 117,53 Q44,123 44,240 Q44,354 117,424 Q190,494 309,494 M309,87 Q375,87 415.5,129 Q456,171 456,240 Q456,307 415.5,348 Q375,389 309,389 Q242,389 201,348 Q160,307 160,240 Q160,171 201,129 Q242,87 309,87"/> 
            <glyph glyph-name="ô" unicode="&#xF4;" horiz-adv-x="573" d=" M309,630 L250,566 L137,566 L257,704 L359,704 L480,566 L366,566 M309,494 Q427,494 500,424 Q573,354 573,240 Q573,123 500,53 Q427,-18 309,-18 Q191,-18 117,53 Q44,123 44,240 Q44,354 117,424 Q190,494 309,494 M309,87 Q375,87 415.5,129 Q456,171 456,240 Q456,307 415.5,348 Q375,389 309,389 Q242,389 201,348 Q160,307 160,240 Q160,171 201,129 Q242,87 309,87"/> 
            <glyph glyph-name="õ" unicode="&#xF5;" horiz-adv-x="573" d=" M395,687 L487,687 Q487,644 470,614 Q453,584 427.5,572.5 Q402,561 374,561.5 Q346,562 322,575 L273,606 Q248,617 236,609.5 Q224,602 224,580 L131,580 Q131,623 148,653 Q165,683 190.5,695 Q216,707 244.5,706 Q273,705 296,691 L346,660 Q395,638 395,687 M309,494 Q427,494 500,424 Q573,354 573,240 Q573,123 500,53 Q427,-18 309,-18 Q191,-18 117,53 Q44,123 44,240 Q44,354 117,424 Q190,494 309,494 M309,87 Q375,87 415.5,129 Q456,171 456,240 Q456,307 415.5,348 Q375,389 309,389 Q242,389 201,348 Q160,307 160,240 Q160,171 201,129 Q242,87 309,87"/> 
            <glyph glyph-name="ö" unicode="&#xF6;" horiz-adv-x="573" d=" M203,697 Q233,697 254,677 Q275,657 275,627 Q275,598 254,577.5 Q233,557 203,557 Q172,557 151,577.5 Q130,598 130,627 Q130,657 151,677 Q172,697 203,697 M416,697 Q447,697 468,677 Q489,657 489,627 Q489,598 468,577.5 Q447,557 416,557 Q386,557 365,577.5 Q344,598 344,627 Q344,657 365,677 Q386,697 416,697 M309,494 Q427,494 500,424 Q573,354 573,240 Q573,123 500,53 Q427,-18 309,-18 Q191,-18 117,53 Q44,123 44,240 Q44,354 117,424 Q190,494 309,494 M309,87 Q375,87 415.5,129 Q456,171 456,240 Q456,307 415.5,348 Q375,389 309,389 Q242,389 201,348 Q160,307 160,240 Q160,171 201,129 Q242,87 309,87"/> 
            <glyph glyph-name="÷" unicode="&#xF7;" horiz-adv-x="581" d=" M342,456 Q314,456 294,475 Q274,494 274,522 Q274,550 294,569 Q314,588 342,588 Q371,588 391.5,569 Q412,550 412,522 Q412,494 391.5,475 Q371,456 342,456 M104,383 L581,383 L581,277 L104,277 M342,77 Q314,77 294,96 Q274,115 274,143 Q274,171 294,190 Q314,209 342,209 Q371,209 391.5,190 Q412,171 412,143 Q412,115 391.5,96 Q371,77 342,77"/> 
            <glyph glyph-name="ø" unicode="&#xF8;" horiz-adv-x="573" d=" M555,474 L507,417 Q573,348 573,240 Q573,123 500,53 Q427,-18 309,-18 Q231,-18 170,15 L118,-47 L55,7 L105,66 Q44,134 44,240 Q44,354 117,424 Q190,494 309,494 Q383,494 440,466 L492,527 M160,240 Q160,192 181,156 L368,379 Q344,389 309,389 Q242,389 201,348 Q160,307 160,240 M309,87 Q375,87 415.5,129 Q456,171 456,240 Q456,292 432,328 L242,101 Q275,87 309,87"/> 
            <glyph glyph-name="ù" unicode="&#xF9;" horiz-adv-x="545" d=" M380,563 L267,563 L150,714 L304,714 M545,473 L545,10 Q501,0 421,-7 Q333,-15 274,-15 Q75,-15 75,169 L75,473 L190,473 L190,196 Q190,84 298,84 Q361,84 430,93 L430,473"/> 
            <glyph glyph-name="ú" unicode="&#xFA;" horiz-adv-x="545" d=" M478,714 L361,563 L248,563 L324,714 M545,473 L545,10 Q501,0 421,-7 Q333,-15 274,-15 Q75,-15 75,169 L75,473 L190,473 L190,196 Q190,84 298,84 Q361,84 430,93 L430,473"/> 
            <glyph glyph-name="û" unicode="&#xFB;" horiz-adv-x="545" d=" M310,630 L251,566 L138,566 L258,704 L360,704 L481,566 L367,566 M545,473 L545,10 Q501,0 421,-7 Q333,-15 274,-15 Q75,-15 75,169 L75,473 L190,473 L190,196 Q190,84 298,84 Q361,84 430,93 L430,473"/> 
            <glyph glyph-name="ü" unicode="&#xFC;" horiz-adv-x="545" d=" M204,697 Q234,697 255,677 Q276,657 276,627 Q276,598 255,577.5 Q234,557 204,557 Q173,557 152,577.5 Q131,598 131,627 Q131,657 152,677 Q173,697 204,697 M417,697 Q448,697 469,677 Q490,657 490,627 Q490,598 469,577.5 Q448,557 417,557 Q387,557 366,577.5 Q345,598 345,627 Q345,657 366,677 Q387,697 417,697 M545,473 L545,10 Q501,0 421,-7 Q333,-15 274,-15 Q75,-15 75,169 L75,473 L190,473 L190,196 Q190,84 298,84 Q361,84 430,93 L430,473"/> 
            <glyph glyph-name="ý" unicode="&#xFD;" horiz-adv-x="613" d=" M372,564 L259,564 L335,715 L489,715 M613,473 L272,-230 L142,-230 L270,33 L36,473 L168,473 L332,161 L483,473"/> 
            <glyph glyph-name="þ" unicode="&#xFE;" horiz-adv-x="576" d=" M338,488 Q449,488 511,421.5 Q573,355 576,239 Q576,124 513,54 Q450,-15 347,-15 Q263,-15 194,-7 L194,-231 L79,-231 L79,710 L194,710 L194,480 Q253,488 338,488 M330,82 Q390,82 426.5,124.5 Q463,167 463,236 Q463,309 428,350 Q393,391 322,391 Q260,391 194,383 L194,92 Q250,82 330,82"/> 
            <glyph glyph-name="ÿ" unicode="&#xFF;" horiz-adv-x="613" d=" M215,558 Q184,558 163,578.5 Q142,599 142,628 Q142,658 163,678 Q184,698 215,698 Q245,698 266,678 Q287,658 287,628 Q287,599 266,578.5 Q245,558 215,558 M428,558 Q398,558 377,578.5 Q356,599 356,628 Q356,658 377,678 Q398,698 428,698 Q459,698 480,678 Q501,658 501,628 Q501,599 480,578.5 Q459,558 428,558 M613,473 L272,-230 L142,-230 L270,33 L36,473 L168,473 L332,161 L483,473"/> 
            <glyph glyph-name="Ā" unicode="&#x100;" horiz-adv-x="755" d=" M546,865 L546,772 L234,772 L234,865 M220,139 L159,0 L24,0 L334,684 L446,684 L755,0 L620,0 L559,139 M390,528 L267,247 L513,247"/> 
            <glyph glyph-name="ā" unicode="&#x101;" horiz-adv-x="541" d=" M455,679 L455,585 L177,585 L177,679 M282,488 Q382,488 541,465 L541,0 L426,0 L426,36 Q356,-15 273,-15 Q170,-15 107,54 Q44,124 44,239 Q46,354 108.5,421 Q171,488 282,488 M298,391 Q228,391 192.5,350 Q157,309 157,236 Q157,167 193.5,124.5 Q230,82 290,82 Q360,82 426,133 L426,383 Q360,391 298,391"/> 
            <glyph glyph-name="Ă" unicode="&#x102;" horiz-adv-x="755" d=" M447,899 L546,899 Q546,828 504,788 Q462,748 390,748 Q318,748 276,788 Q234,828 234,899 L332,899 Q332,838 390,838 Q447,838 447,899 M220,139 L159,0 L24,0 L334,684 L446,684 L755,0 L620,0 L559,139 M390,528 L267,247 L513,247"/> 
            <glyph glyph-name="ă" unicode="&#x103;" horiz-adv-x="541" d=" M373,708 L472,708 Q472,637 430,596.5 Q388,556 316,556 Q244,556 202,596.5 Q160,637 160,708 L258,708 Q258,647 316,647 Q373,647 373,708 M282,488 Q382,488 541,465 L541,0 L426,0 L426,36 Q356,-15 273,-15 Q170,-15 107,54 Q44,124 44,239 Q46,354 108.5,421 Q171,488 282,488 M298,391 Q228,391 192.5,350 Q157,309 157,236 Q157,167 193.5,124.5 Q230,82 290,82 Q360,82 426,133 L426,383 Q360,391 298,391"/> 
            <glyph glyph-name="Ą" unicode="&#x104;" horiz-adv-x="755" d=" M701,-95 Q712,-95 742,-90 L753,-175 Q726,-186 686,-186 Q622,-186 583,-155 Q544,-124 544,-73 Q544,-15 612,18 L559,139 L220,139 L159,0 L24,0 L334,684 L446,684 L755,0 L677,0 Q640,-22 640,-52 Q640,-95 701,-95 M513,247 L390,528 L267,247"/> 
            <glyph glyph-name="ą" unicode="&#x105;" horiz-adv-x="566" d=" M555,-105 L566,-190 Q539,-201 499,-201 Q435,-201 396,-170 Q357,-139 357,-88 Q357,-30 426,3 L426,36 Q356,-15 273,-15 Q170,-15 107,54 Q44,124 44,239 Q46,354 108.5,421 Q171,488 282,488 Q382,488 541,465 L541,0 L522,0 Q485,-15 469,-30.5 Q453,-46 453,-67 Q453,-110 514,-110 Q525,-110 555,-105 M290,82 Q360,82 426,133 L426,383 Q360,391 298,391 Q228,391 192.5,350 Q157,309 157,236 Q157,167 193.5,124.5 Q230,82 290,82"/> 
            <glyph glyph-name="Ć" unicode="&#x106;" horiz-adv-x="672" d=" M612,891 L495,749 L374,749 L458,891 M669,664 L647,551 Q525,579 449,579 Q322,579 252,513 Q183,448 183,342 Q183,232 252,165 Q322,98 437,98 Q521,98 650,128 L672,23 Q540,-15 431,-15 Q263,-15 159,83 Q56,180 56,341 Q56,500 159,597 Q263,695 432,695 Q555,695 669,664"/> 
            <glyph glyph-name="ć" unicode="&#x107;" horiz-adv-x="481" d=" M462,713 L345,562 L232,562 L308,713 M478,467 L462,375 Q368,395 325,395 Q248,395 203.5,352 Q159,309 159,239 Q159,170 202.5,128 Q246,86 316,86 Q380,86 464,108 L481,15 Q391,-15 309,-15 Q191,-15 118,55 Q44,126 44,240 Q44,355 118,423 Q191,492 314,492 Q404,492 478,467"/> 
            <glyph glyph-name="Ċ" unicode="&#x10A;" horiz-adv-x="672" d=" M353,817 Q353,847 374.5,867.5 Q396,888 426,888 Q456,888 477.5,867.5 Q499,847 499,817 Q499,788 477.5,767.5 Q456,747 426,747 Q396,747 374.5,767.5 Q353,788 353,817 M669,664 L647,551 Q525,579 449,579 Q322,579 252,513 Q183,448 183,342 Q183,232 252,165 Q322,98 437,98 Q521,98 650,128 L672,23 Q540,-15 431,-15 Q263,-15 159,83 Q56,180 56,341 Q56,500 159,597 Q263,695 432,695 Q555,695 669,664"/> 
            <glyph glyph-name="ċ" unicode="&#x10B;" horiz-adv-x="481" d=" M221,626 Q221,656 242.5,676 Q264,696 294,696 Q324,696 345.5,676 Q367,656 367,626 Q367,597 345.5,576.5 Q324,556 294,556 Q264,556 242.5,576.5 Q221,597 221,626 M478,467 L462,375 Q368,395 325,395 Q248,395 203.5,352 Q159,309 159,239 Q159,170 202.5,128 Q246,86 316,86 Q380,86 464,108 L481,15 Q391,-15 309,-15 Q191,-15 118,55 Q44,126 44,240 Q44,355 118,423 Q191,492 314,492 Q404,492 478,467"/> 
            <glyph glyph-name="Č" unicode="&#x10C;" horiz-adv-x="672" d=" M477,737 L375,737 L255,889 L369,889 L426,816 L484,889 L598,889 M669,664 L647,551 Q525,579 449,579 Q322,579 252,513 Q183,448 183,342 Q183,232 252,165 Q322,98 437,98 Q521,98 650,128 L672,23 Q540,-15 431,-15 Q263,-15 159,83 Q56,180 56,341 Q56,500 159,597 Q263,695 432,695 Q555,695 669,664"/> 
            <glyph glyph-name="č" unicode="&#x10D;" horiz-adv-x="481" d=" M344,560 L242,560 L122,712 L236,712 L293,639 L351,712 L465,712 M478,467 L462,375 Q368,395 325,395 Q248,395 203.5,352 Q159,309 159,239 Q159,170 202.5,128 Q246,86 316,86 Q380,86 464,108 L481,15 Q391,-15 309,-15 Q191,-15 118,55 Q44,126 44,240 Q44,355 118,423 Q191,492 314,492 Q404,492 478,467"/> 
            <glyph glyph-name="Ď" unicode="&#x10E;" horiz-adv-x="685" d=" M387,737 L285,737 L165,889 L279,889 L336,816 L394,889 L508,889 M324,689 Q483,689 584,594 Q685,499 685,343 Q685,187 587,89 Q490,-8 342,-8 Q192,-8 85,0 L85,680 Q235,689 324,689 M343,102 Q436,102 497,169 Q560,236 560,343 Q560,448 494,513 Q429,578 325,578 Q252,578 205,574 L205,106 Q285,102 343,102"/> 
            <glyph glyph-name="ď" unicode="&#x10F;" horiz-adv-x="700" d=" M540,710 L540,7 Q403,-12 272,-12 Q170,-12 107,55 Q44,122 44,241 Q44,357 107.5,422.5 Q171,488 290,488 Q366,488 425,475 L425,710 M700,710 L664,508 L577,508 L583,710 M305,391 Q156,391 156,241 Q156,166 192.5,124 Q229,82 298,82 Q348,82 425,92 L425,378 Q369,391 305,391"/> 
            <glyph glyph-name="Đ" unicode="&#x110;" horiz-adv-x="685" d=" M324,689 Q483,689 584,594 Q685,499 685,343 Q685,187 587,89 Q490,-8 342,-8 Q192,-8 85,0 L85,278 L29,278 L29,389 L85,389 L85,680 Q235,689 324,689 M343,102 Q436,102 497,169 Q560,236 560,343 Q560,448 494,513 Q429,578 325,578 Q252,578 205,574 L205,389 L349,389 L349,278 L205,278 L205,106 Q285,102 343,102"/> 
            <glyph glyph-name="đ" unicode="&#x111;" horiz-adv-x="577" d=" M577,552 L540,552 L540,7 Q403,-12 272,-12 Q170,-12 107,55 Q44,122 44,241 Q44,357 107.5,422.5 Q171,488 290,488 Q366,488 425,475 L425,552 L261,552 L261,647 L425,647 L425,710 L540,710 L540,647 L577,647 M425,92 L425,378 Q369,391 305,391 Q156,391 156,241 Q156,166 192.5,124 Q229,82 298,82 Q348,82 425,92"/> 
            <glyph glyph-name="Ē" unicode="&#x112;" horiz-adv-x="578" d=" M205,395 L536,395 L536,285 L205,285 L205,111 L578,111 L578,0 L85,0 L85,680 L578,680 L578,569 L205,569 M484,865 L484,772 L172,772 L172,865"/> 
            <glyph glyph-name="ē" unicode="&#x113;" horiz-adv-x="525" d=" M440,679 L440,585 L162,585 L162,679 M293,489 Q395,489 459,431 Q524,374 525,280 Q525,232 518,193 L167,193 Q180,144 219.5,116 Q259,88 318,88 Q366,88 487,114 L503,20 Q390,-15 314,-15 Q184,-15 114,55 Q44,125 44,237 Q44,351 114,420 Q184,489 293,489 M163,281 L420,281 Q419,334 384.5,366 Q350,398 296,398 Q242,398 207,366.5 Q172,335 163,281"/> 
            <glyph glyph-name="Ė" unicode="&#x116;" horiz-adv-x="578" d=" M205,395 L536,395 L536,285 L205,285 L205,111 L578,111 L578,0 L85,0 L85,680 L578,680 L578,569 L205,569 M255,817 Q255,847 276.5,867.5 Q298,888 328,888 Q358,888 379.5,867.5 Q401,847 401,817 Q401,788 379.5,767.5 Q358,747 328,747 Q298,747 276.5,767.5 Q255,788 255,817"/> 
            <glyph glyph-name="ė" unicode="&#x117;" horiz-adv-x="525" d=" M228,627 Q228,657 249.5,677 Q271,697 301,697 Q331,697 352.5,677 Q374,657 374,627 Q374,598 352.5,577.5 Q331,557 301,557 Q271,557 249.5,577.5 Q228,598 228,627 M293,489 Q395,489 459,431 Q524,374 525,280 Q525,232 518,193 L167,193 Q180,144 219.5,116 Q259,88 318,88 Q366,88 487,114 L503,20 Q390,-15 314,-15 Q184,-15 114,55 Q44,125 44,237 Q44,351 114,420 Q184,489 293,489 M163,281 L420,281 Q419,334 384.5,366 Q350,398 296,398 Q242,398 207,366.5 Q172,335 163,281"/> 
            <glyph glyph-name="Ę" unicode="&#x118;" horiz-adv-x="578" d=" M205,569 L205,395 L536,395 L536,285 L205,285 L205,111 L578,111 L578,0 L514,0 Q459,-25 459,-61 Q459,-104 520,-104 Q531,-104 561,-99 L572,-184 Q545,-195 505,-195 Q441,-195 402,-164 Q363,-133 363,-82 Q363,-33 415,0 L85,0 L85,680 L578,680 L578,569"/> 
            <glyph glyph-name="ę" unicode="&#x119;" horiz-adv-x="525" d=" M525,280 Q525,232 518,193 L167,193 Q180,144 219.5,116 Q259,88 318,88 Q366,88 487,114 L503,20 Q490,16 479,12.5 Q468,9 462,7.5 Q456,6 455,6 Q418,-9 402,-24.5 Q386,-40 386,-61 Q386,-104 447,-104 Q458,-104 488,-99 L499,-184 Q472,-195 432,-195 Q368,-195 329,-164 Q290,-133 290,-82 Q290,-44 322,-15 L314,-15 Q184,-15 114,55 Q44,125 44,237 Q44,351 114,420 Q184,489 293,489 Q395,489 459,431 Q524,374 525,280 M163,281 L420,281 Q419,334 384.5,366 Q350,398 296,398 Q242,398 207,366.5 Q172,335 163,281"/> 
            <glyph glyph-name="Ě" unicode="&#x11A;" horiz-adv-x="578" d=" M205,395 L536,395 L536,285 L205,285 L205,111 L578,111 L578,0 L85,0 L85,680 L578,680 L578,569 L205,569 M379,737 L277,737 L157,889 L271,889 L328,816 L386,889 L500,889"/> 
            <glyph glyph-name="ě" unicode="&#x11B;" horiz-adv-x="525" d=" M351,561 L249,561 L129,713 L243,713 L300,640 L358,713 L471,713 M293,489 Q395,489 459,431 Q524,374 525,280 Q525,232 518,193 L167,193 Q180,144 219.5,116 Q259,88 318,88 Q366,88 487,114 L503,20 Q390,-15 314,-15 Q184,-15 114,55 Q44,125 44,237 Q44,351 114,420 Q184,489 293,489 M163,281 L420,281 Q419,334 384.5,366 Q350,398 296,398 Q242,398 207,366.5 Q172,335 163,281"/> 
            <glyph glyph-name="Ğ" unicode="&#x11E;" horiz-adv-x="733" d=" M478,899 L577,899 Q577,828 535,788 Q493,748 421,748 Q349,748 307,788 Q265,828 265,899 L363,899 Q363,838 421,838 Q478,838 478,899 M733,391 L733,59 Q559,-15 419,-15 Q256,-15 155,83 Q56,182 56,343 Q56,500 160,598 Q264,695 436,695 Q552,695 670,665 L646,553 Q499,579 445,579 Q328,579 254,514 Q182,450 182,343 Q182,235 247,168 Q312,102 419,102 Q514,102 619,132 L619,280 L374,280 L374,391"/> 
            <glyph glyph-name="ğ" unicode="&#x11F;" horiz-adv-x="541" d=" M373,708 L472,708 Q472,637 430,596.5 Q388,556 316,556 Q244,556 202,596.5 Q160,637 160,708 L258,708 Q258,647 316,647 Q373,647 373,708 M282,488 Q398,488 490,472 Q535,465 541,465 L541,10 Q541,-110 471,-181 Q400,-253 271,-253 Q198,-253 101,-223 L120,-128 Q227,-150 268,-150 Q341,-150 382.5,-110 Q424,-70 426,3 Q357,-5 273,-5 Q172,-5 107,63 Q44,130 44,239 Q44,354 107.5,421 Q171,488 282,488 M298,391 Q227,391 192,350 Q157,309 157,236 Q157,173 194,132.5 Q231,92 290,92 Q370,92 426,102 L426,383 Q360,391 298,391"/> 
            <glyph glyph-name="Ġ" unicode="&#x120;" horiz-adv-x="733" d=" M348,817 Q348,847 369.5,867.5 Q391,888 421,888 Q451,888 472.5,867.5 Q494,847 494,817 Q494,788 472.5,767.5 Q451,747 421,747 Q391,747 369.5,767.5 Q348,788 348,817 M733,391 L733,59 Q559,-15 419,-15 Q256,-15 155,83 Q56,182 56,343 Q56,500 160,598 Q264,695 436,695 Q552,695 670,665 L646,553 Q499,579 445,579 Q328,579 254,514 Q182,450 182,343 Q182,235 247,168 Q312,102 419,102 Q514,102 619,132 L619,280 L374,280 L374,391"/> 
            <glyph glyph-name="ġ" unicode="&#x121;" horiz-adv-x="541" d=" M243,627 Q243,657 264.5,677 Q286,697 316,697 Q346,697 367.5,677 Q389,657 389,627 Q389,598 367.5,577.5 Q346,557 316,557 Q286,557 264.5,577.5 Q243,598 243,627 M282,488 Q398,488 490,472 Q535,465 541,465 L541,10 Q541,-110 471,-181 Q400,-253 271,-253 Q198,-253 101,-223 L120,-128 Q227,-150 268,-150 Q341,-150 382.5,-110 Q424,-70 426,3 Q357,-5 273,-5 Q172,-5 107,63 Q44,130 44,239 Q44,354 107.5,421 Q171,488 282,488 M298,391 Q227,391 192,350 Q157,309 157,236 Q157,173 194,132.5 Q231,92 290,92 Q370,92 426,102 L426,383 Q360,391 298,391"/> 
            <glyph glyph-name="Ģ" unicode="&#x122;" horiz-adv-x="733" d=" M733,391 L733,59 Q559,-15 419,-15 Q256,-15 155,83 Q56,182 56,343 Q56,500 160,598 Q264,695 436,695 Q552,695 670,665 L646,553 Q499,579 445,579 Q328,579 254,514 Q182,450 182,343 Q182,235 247,168 Q312,102 419,102 Q514,102 619,132 L619,280 L374,280 L374,391 M350,-247 L386,-168 Q346,-153 346,-113 Q346,-87 366,-68.5 Q386,-50 413,-50 Q441,-50 460.5,-68.5 Q480,-87 480,-113 Q480,-130 471,-147 Q462,-168 414,-247"/> 
            <glyph glyph-name="ģ" unicode="&#x123;" horiz-adv-x="541" d=" M380,768 L344,689 Q384,674 384,634 Q384,608 364,589.5 Q344,571 317,571 Q289,571 269.5,589.5 Q250,608 250,634 Q250,650 258,668 Q278,705 316,768 M282,488 Q398,488 490,472 Q535,465 541,465 L541,10 Q541,-110 471,-181 Q400,-253 271,-253 Q198,-253 101,-223 L120,-128 Q227,-150 268,-150 Q341,-150 382.5,-110 Q424,-70 426,3 Q357,-5 273,-5 Q172,-5 107,63 Q44,130 44,239 Q44,354 107.5,421 Q171,488 282,488 M298,391 Q227,391 192,350 Q157,309 157,236 Q157,173 194,132.5 Q231,92 290,92 Q370,92 426,102 L426,383 Q360,391 298,391"/> 
            <glyph glyph-name="Ħ" unicode="&#x126;" horiz-adv-x="717" d=" M717,484 L674,484 L674,0 L555,0 L555,278 L205,278 L205,0 L85,0 L85,484 L42,484 L42,583 L85,583 L85,680 L205,680 L205,583 L555,583 L555,680 L674,680 L674,583 L717,583 M555,484 L205,484 L205,389 L555,389"/> 
            <glyph glyph-name="ħ" unicode="&#x127;" horiz-adv-x="549" d=" M351,488 Q441,488 495,438 Q549,388 549,304 L549,0 L434,0 L434,271 Q434,322 404.5,352.5 Q375,383 326,383 Q263,383 194,368 L194,0 L79,0 L79,579 L29,579 L29,661 L79,661 L79,710 L194,710 L194,661 L327,661 L327,579 L194,579 L194,473 Q273,488 351,488"/> 
            <glyph glyph-name="Ī" unicode="&#x12A;" horiz-adv-x="301" d=" M205,680 L205,0 L85,0 L85,680 M301,865 L301,772 L-11,772 L-11,865"/> 
            <glyph glyph-name="ī" unicode="&#x12B;" horiz-adv-x="271" d=" M271,679 L271,585 L-7,585 L-7,679 M189,473 L189,0 L74,0 L74,473"/> 
            <glyph glyph-name="Į" unicode="&#x12E;" horiz-adv-x="223" d=" M212,-92 L223,-177 Q196,-188 156,-188 Q92,-188 53,-157 Q14,-126 14,-75 Q14,-16 85,17 L85,680 L205,680 L205,0 L151,0 Q110,-23 110,-54 Q110,-97 171,-97 Q182,-97 212,-92"/> 
            <glyph glyph-name="į" unicode="&#x12F;" horiz-adv-x="205" d=" M59,627 Q59,657 80.5,677 Q102,697 132,697 Q162,697 183.5,677 Q205,657 205,627 Q205,598 183.5,577.5 Q162,557 132,557 Q102,557 80.5,577.5 Q59,598 59,627 M149,-104 Q160,-104 190,-99 L201,-184 Q174,-195 134,-195 Q70,-195 31,-164 Q-8,-133 -8,-82 Q-8,-16 74,15 L74,473 L189,473 L189,0 L143,0 Q88,-25 88,-61 Q88,-104 149,-104"/> 
            <glyph glyph-name="İ" unicode="&#x130;" horiz-adv-x="225" d=" M65,831 Q65,864 88.5,886 Q112,908 145,908 Q178,908 201.5,886 Q225,864 225,831 Q225,799 201.5,776.5 Q178,754 145,754 Q112,754 88.5,776.5 Q65,799 65,831 M205,680 L205,0 L85,0 L85,680"/> 
            <glyph glyph-name="ı" unicode="&#x131;" horiz-adv-x="189" d=" M189,473 L189,0 L74,0 L74,473"/> 
            <glyph glyph-name="Ĳ" unicode="&#x132;" horiz-adv-x="779" d=" M779,680 L779,262 Q779,132 713,59 Q647,-15 536,-15 Q434,-15 305,25 L327,132 Q450,101 536,101 Q591,101 624.5,144 Q658,187 658,261 L658,680 M205,680 L205,0 L85,0 L85,680"/> 
            <glyph glyph-name="ĳ" unicode="&#x133;" horiz-adv-x="484" d=" M54,629 Q54,662 76,684 Q98,706 131,706 Q163,706 185.5,684 Q208,662 208,629 Q208,597 185.5,575.5 Q163,554 131,554 Q99,554 76.5,575.5 Q54,597 54,629 M373,706 Q439,706 461.5,684 Q484,662 484,629 Q484,597 461.5,575.5 Q439,554 406,554 Q373,554 350.5,575.5 Q328,597 328,629 Q328,662 373,706 M189,473 L189,0 L74,0 L74,473 M464,473 L464,-14 Q464,-134 419,-189 Q373,-246 250,-247 L240,-146 Q302,-148 325.5,-121.5 Q349,-95 349,-28 L349,473"/> 
            <glyph glyph-name="Ķ" unicode="&#x136;" horiz-adv-x="681" d=" M205,253 L205,0 L85,0 L85,680 L205,680 L205,370 L259,370 L519,680 L668,680 L398,359 L681,0 L533,0 L327,253 M272,-247 L308,-168 Q268,-153 268,-113 Q268,-87 288,-68.5 Q308,-50 335,-50 Q363,-50 382.5,-68.5 Q402,-87 402,-113 Q402,-130 393,-147 Q384,-168 336,-247"/> 
            <glyph glyph-name="ķ" unicode="&#x137;" horiz-adv-x="557" d=" M192,294 L232,294 L401,473 L541,473 L353,272 L557,0 L422,0 L277,186 L192,186 L192,0 L77,0 L77,710 L192,710 M222,-247 L258,-168 Q218,-153 218,-113 Q218,-87 238,-68.5 Q258,-50 285,-50 Q313,-50 332.5,-68.5 Q352,-87 352,-113 Q352,-130 343,-147 Q334,-168 286,-247"/> 
            <glyph glyph-name="Ĺ" unicode="&#x139;" horiz-adv-x="563" d=" M563,0 L85,0 L85,680 L205,680 L205,108 L563,108 M334,891 L217,749 L96,749 L180,891"/> 
            <glyph glyph-name="ĺ" unicode="&#x13A;" horiz-adv-x="310" d=" M310,910 L192,759 L79,759 L155,910 M195,710 L195,0 L80,0 L80,710"/> 
            <glyph glyph-name="Ļ" unicode="&#x13B;" horiz-adv-x="563" d=" M563,0 L85,0 L85,680 L205,680 L205,108 L563,108 M256,-247 L292,-168 Q252,-153 252,-113 Q252,-87 272,-68.5 Q292,-50 319,-50 Q347,-50 366.5,-68.5 Q386,-87 386,-113 Q386,-130 377,-147 Q368,-168 320,-247"/> 
            <glyph glyph-name="ļ" unicode="&#x13C;" horiz-adv-x="201" d=" M71,-247 L107,-168 Q67,-153 67,-113 Q67,-87 87,-68.5 Q107,-50 134,-50 Q162,-50 181.5,-68.5 Q201,-87 201,-113 Q201,-130 192,-147 Q183,-168 135,-247 M195,710 L195,0 L80,0 L80,710"/> 
            <glyph glyph-name="Ľ" unicode="&#x13D;" horiz-adv-x="563" d=" M563,0 L85,0 L85,680 L205,680 L205,108 L563,108 M415,680 L379,478 L292,478 L298,680"/> 
            <glyph glyph-name="ľ" unicode="&#x13E;" horiz-adv-x="353" d=" M353,710 L317,508 L230,508 L236,710 M195,710 L195,0 L80,0 L80,710"/> 
            <glyph glyph-name="Ŀ" unicode="&#x13F;" horiz-adv-x="563" d=" M563,0 L85,0 L85,680 L205,680 L205,108 L563,108 M394,246 Q363,246 342,266.5 Q321,287 321,317 Q321,346 342,366.5 Q363,387 394,387 Q424,387 445,366.5 Q466,346 466,317 Q466,287 445,266.5 Q424,246 394,246"/> 
            <glyph glyph-name="ŀ" unicode="&#x140;" horiz-adv-x="391" d=" M195,710 L195,0 L80,0 L80,710 M318,261 Q287,261 266,281 Q245,301 245,331 Q245,360 266,380.5 Q287,401 318,401 Q348,401 369.5,380.5 Q391,360 391,331 Q391,301 369.5,281 Q348,261 318,261"/> 
            <glyph glyph-name="Ł" unicode="&#x141;" horiz-adv-x="563" d=" M563,108 L563,0 L85,0 L85,228 L13,198 L13,299 L85,329 L85,680 L205,680 L205,378 L357,441 L357,341 L205,278 L205,108"/> 
            <glyph glyph-name="ł" unicode="&#x142;" horiz-adv-x="262" d=" M262,345 L195,316 L195,0 L80,0 L80,267 L16,239 L16,339 L80,367 L80,710 L195,710 L195,416 L262,445"/> 
            <glyph glyph-name="Ń" unicode="&#x143;" horiz-adv-x="694" d=" M694,680 L694,0 L580,0 L205,476 L205,0 L85,0 L85,680 L196,680 L575,199 L575,680 M568,891 L451,749 L330,749 L414,891"/> 
            <glyph glyph-name="ń" unicode="&#x144;" horiz-adv-x="547" d=" M477,714 L360,563 L247,563 L323,714 M349,488 Q439,488 493,438 Q547,388 547,304 L547,0 L432,0 L432,271 Q432,322 402.5,352.5 Q373,383 324,383 Q270,383 192,375 L192,0 L77,0 L77,465 Q200,488 349,488"/> 
            <glyph glyph-name="Ņ" unicode="&#x145;" horiz-adv-x="694" d=" M694,680 L694,0 L580,0 L205,476 L205,0 L85,0 L85,680 L196,680 L575,199 L575,680 M319,-255 L355,-176 Q315,-161 315,-121 Q315,-95 335,-76.5 Q355,-58 382,-58 Q410,-58 429.5,-76.5 Q449,-95 449,-121 Q449,-138 440,-155 Q431,-176 383,-255"/> 
            <glyph glyph-name="ņ" unicode="&#x146;" horiz-adv-x="547" d=" M349,488 Q439,488 493,438 Q547,388 547,304 L547,0 L432,0 L432,271 Q432,322 402.5,352.5 Q373,383 324,383 Q270,383 192,375 L192,0 L77,0 L77,465 Q200,488 349,488 M241,-247 L277,-168 Q237,-153 237,-113 Q237,-87 257,-68.5 Q277,-50 304,-50 Q332,-50 351.5,-68.5 Q371,-87 371,-113 Q371,-130 362,-147 Q353,-168 305,-247"/> 
            <glyph glyph-name="Ň" unicode="&#x147;" horiz-adv-x="694" d=" M694,680 L694,0 L580,0 L205,476 L205,0 L85,0 L85,680 L196,680 L575,199 L575,680 M433,737 L331,737 L211,889 L325,889 L382,816 L440,889 L554,889"/> 
            <glyph glyph-name="ň" unicode="&#x148;" horiz-adv-x="547" d=" M359,561 L257,561 L137,713 L251,713 L308,640 L366,713 L480,713 M349,488 Q439,488 493,438 Q547,388 547,304 L547,0 L432,0 L432,271 Q432,322 402.5,352.5 Q373,383 324,383 Q270,383 192,375 L192,0 L77,0 L77,465 Q200,488 349,488"/> 
            <glyph glyph-name="Ō" unicode="&#x14C;" horiz-adv-x="781" d=" M575,865 L575,772 L263,772 L263,865 M56,499 Q258,695 418,695 Q578,695 679,597 Q781,500 781,340 Q781,180 679,83 Q578,-15 418,-15 Q258,-15 157,83 Q56,181 56,499 M248,165 Q315,98 419,98 Q523,98 589,165 Q655,232 655,340 Q655,448 589,515 Q523,582 419,582 Q315,582 248,515 Q182,448 182,340 Q182,232 248,165"/> 
            <glyph glyph-name="ō" unicode="&#x14D;" horiz-adv-x="573" d=" M448,679 L448,585 L170,585 L170,679 M309,494 Q427,494 500,424 Q573,354 573,240 Q573,123 500,53 Q427,-18 309,-18 Q191,-18 117,53 Q44,123 44,240 Q44,354 117,424 Q190,494 309,494 M309,87 Q375,87 415.5,129 Q456,171 456,240 Q456,307 415.5,348 Q375,389 309,389 Q242,389 201,348 Q160,307 160,240 Q160,171 201,129 Q242,87 309,87"/> 
            <glyph glyph-name="Ő" unicode="&#x150;" horiz-adv-x="781" d=" M457,891 L399,749 L295,749 L343,891 M611,891 L553,749 L450,749 L497,891 M56,499 Q258,695 418,695 Q578,695 679,597 Q781,500 781,340 Q781,180 679,83 Q578,-15 418,-15 Q258,-15 157,83 Q56,181 56,499 M248,165 Q315,98 419,98 Q523,98 589,165 Q655,232 655,340 Q655,448 589,515 Q523,582 419,582 Q315,582 248,515 Q182,448 182,340 Q182,232 248,165"/> 
            <glyph glyph-name="ő" unicode="&#x151;" horiz-adv-x="573" d=" M344,704 L286,561 L183,561 L230,704 M498,704 L440,561 L337,561 L384,704 M309,494 Q427,494 500,424 Q573,354 573,240 Q573,123 500,53 Q427,-18 309,-18 Q191,-18 117,53 Q44,123 44,240 Q44,354 117,424 Q190,494 309,494 M309,87 Q375,87 415.5,129 Q456,171 456,240 Q456,307 415.5,348 Q375,389 309,389 Q242,389 201,348 Q160,307 160,240 Q160,171 201,129 Q242,87 309,87"/> 
            <glyph glyph-name="Œ" unicode="&#x152;" horiz-adv-x="942" d=" M569,395 L900,395 L900,285 L569,285 L569,111 L942,111 L942,0 L449,0 Q274,2 166,92 Q56,184 56,340 Q56,495 166,587 Q275,678 449,680 L942,680 L942,569 L569,569 M449,113 L449,567 Q322,566 252,507 Q182,448 182,340 Q182,232 252,173 Q322,114 449,113"/> 
            <glyph glyph-name="œ" unicode="&#x153;" horiz-adv-x="938" d=" M938,280 Q938,232 931,193 L580,193 Q593,144 632.5,116 Q672,88 731,88 Q782,88 900,114 L916,20 Q803,-15 727,-15 Q588,-15 515,69 Q442,-18 309,-18 Q191,-18 117,53 Q44,123 44,240 Q44,354 117,424 Q190,494 309,494 Q442,494 516,407 Q586,489 706,489 Q808,489 872,431 Q937,374 938,280 M576,281 L834,281 Q832,334 797.5,366 Q763,398 709,398 Q655,398 620,366.5 Q585,335 576,281 M309,87 Q375,87 415.5,129 Q456,171 456,240 Q456,307 415.5,348 Q375,389 309,389 Q242,389 201,348 Q160,307 160,240 Q160,171 201,129 Q242,87 309,87"/> 
            <glyph glyph-name="Ŕ" unicode="&#x154;" horiz-adv-x="650" d=" M492,891 L375,749 L254,749 L338,891 M504,0 L350,221 Q339,220 301,220 L205,220 L205,0 L85,0 L85,680 Q244,686 334,686 Q461,686 534,625.5 Q607,565 607,456 Q607,387 571,333 Q535,279 469,250 L650,0 M205,327 L348,327 Q409,327 449.5,363 Q490,399 490,456 Q490,516 450,547 Q410,578 339,578 Q331,578 205,576"/> 
            <glyph glyph-name="ŕ" unicode="&#x155;" horiz-adv-x="391" d=" M391,714 L274,563 L161,563 L237,714 M368,488 L368,375 Q269,375 192,368 L192,0 L77,0 L77,459 Q239,488 368,488"/> 
            <glyph glyph-name="Ŗ" unicode="&#x156;" horiz-adv-x="650" d=" M504,0 L350,221 Q339,220 301,220 L205,220 L205,0 L85,0 L85,680 Q244,686 334,686 Q461,686 534,625.5 Q607,565 607,456 Q607,387 571,333 Q535,279 469,250 L650,0 M205,327 L348,327 Q409,327 449.5,363 Q490,399 490,456 Q490,516 450,547 Q410,578 339,578 Q331,578 205,576 M275,-247 L311,-168 Q271,-153 271,-113 Q271,-87 291,-68.5 Q311,-50 338,-50 Q366,-50 385.5,-68.5 Q405,-87 405,-113 Q405,-130 396,-147 Q387,-168 339,-247"/> 
            <glyph glyph-name="ŗ" unicode="&#x157;" horiz-adv-x="368" d=" M368,488 L368,375 Q269,375 192,368 L192,0 L77,0 L77,459 Q239,488 368,488 M69,-247 L105,-168 Q65,-153 65,-113 Q65,-87 85,-68.5 Q105,-50 132,-50 Q160,-50 179.5,-68.5 Q199,-87 199,-113 Q199,-130 190,-147 Q181,-168 133,-247"/> 
            <glyph glyph-name="Ř" unicode="&#x158;" horiz-adv-x="650" d=" M357,737 L255,737 L135,889 L249,889 L306,816 L364,889 L478,889 M504,0 L350,221 Q339,220 301,220 L205,220 L205,0 L85,0 L85,680 Q244,686 334,686 Q461,686 534,625.5 Q607,565 607,456 Q607,387 571,333 Q535,279 469,250 L650,0 M205,327 L348,327 Q409,327 449.5,363 Q490,399 490,456 Q490,516 450,547 Q410,578 339,578 Q331,578 205,576"/> 
            <glyph glyph-name="ř" unicode="&#x159;" horiz-adv-x="394" d=" M273,561 L171,561 L51,713 L165,713 L222,640 L280,713 L394,713 M368,488 L368,375 Q269,375 192,368 L192,0 L77,0 L77,459 Q239,488 368,488"/> 
            <glyph glyph-name="Ś" unicode="&#x15A;" horiz-adv-x="615" d=" M525,891 L408,749 L287,749 L371,891 M596,644 L565,538 Q430,581 333,581 Q272,581 239,558.5 Q206,536 206,492 Q206,452 244,432 Q281,415 377,395 Q501,369 557,328 Q615,286 615,197 Q615,95 542.5,40 Q470,-15 344,-15 Q197,-15 59,42 L88,154 Q229,98 349,98 Q494,98 494,185 Q501,226 442,258 Q433,264 404,272 Q376,280 365,281 L319,291 L294,296 Q178,320 128.5,363 Q79,406 79,487 Q79,580 149,635 Q219,690 336,690 Q477,690 596,644"/> 
            <glyph glyph-name="ś" unicode="&#x15B;" horiz-adv-x="474" d=" M433,712 L316,561 L203,561 L279,712 M53,27 L76,122 Q182,80 270,80 Q367,80 367,129 Q367,150 351,159 Q331,172 310,177 Q287,184 256,189 L227,195 Q142,211 103.5,243 Q65,275 65,334 Q65,405 119,445.5 Q173,486 266,486 Q370,486 460,451 L433,362 Q325,394 260,394 Q178,394 178,342 Q178,313 222,299 Q234,294 303,281 Q393,262 434,233 Q474,205 474,141 Q474,64 418.5,24.5 Q363,-15 264,-15 Q156,-15 53,27"/> 
            <glyph glyph-name="Ş" unicode="&#x15E;" horiz-adv-x="615" d=" M596,644 L565,538 Q430,581 333,581 Q272,581 239,558.5 Q206,536 206,492 Q206,452 244,432 Q281,415 377,395 Q501,369 557,328 Q615,286 615,197 Q615,95 542.5,40 Q470,-15 344,-15 Q197,-15 59,42 L88,154 Q229,98 349,98 Q494,98 494,185 Q501,226 442,258 Q433,264 404,272 Q376,280 365,281 L319,291 L294,296 Q178,320 128.5,363 Q79,406 79,487 Q79,580 149,635 Q219,690 336,690 Q477,690 596,644 M335,-209 L239,-209 L284,-50 L394,-50"/> 
            <glyph glyph-name="ş" unicode="&#x15F;" horiz-adv-x="474" d=" M53,27 L76,122 Q182,80 270,80 Q367,80 367,129 Q367,150 351,159 Q331,172 310,177 Q287,184 256,189 L227,195 Q142,211 103.5,243 Q65,275 65,334 Q65,405 119,445.5 Q173,486 266,486 Q370,486 460,451 L433,362 Q325,394 260,394 Q178,394 178,342 Q178,313 222,299 Q234,294 303,281 Q393,262 434,233 Q474,205 474,141 Q474,64 418.5,24.5 Q363,-15 264,-15 Q156,-15 53,27 M264,-209 L168,-209 L213,-50 L323,-50"/> 
            <glyph glyph-name="Š" unicode="&#x160;" horiz-adv-x="615" d=" M390,737 L288,737 L168,889 L282,889 L339,816 L397,889 L511,889 M596,644 L565,538 Q430,581 333,581 Q272,581 239,558.5 Q206,536 206,492 Q206,452 244,432 Q281,415 377,395 Q501,369 557,328 Q615,286 615,197 Q615,95 542.5,40 Q470,-15 344,-15 Q197,-15 59,42 L88,154 Q229,98 349,98 Q494,98 494,185 Q501,226 442,258 Q433,264 404,272 Q376,280 365,281 L319,291 L294,296 Q178,320 128.5,363 Q79,406 79,487 Q79,580 149,635 Q219,690 336,690 Q477,690 596,644"/> 
            <glyph glyph-name="š" unicode="&#x161;" horiz-adv-x="474" d=" M315,559 L213,559 L93,711 L207,711 L264,638 L322,711 L436,711 M53,27 L76,122 Q182,80 270,80 Q367,80 367,129 Q367,150 351,159 Q331,172 310,177 Q287,184 256,189 L227,195 Q142,211 103.5,243 Q65,275 65,334 Q65,405 119,445.5 Q173,486 266,486 Q370,486 460,451 L433,362 Q325,394 260,394 Q178,394 178,342 Q178,313 222,299 Q234,294 303,281 Q393,262 434,233 Q474,205 474,141 Q474,64 418.5,24.5 Q363,-15 264,-15 Q156,-15 53,27"/> 
            <glyph glyph-name="Ť" unicode="&#x164;" horiz-adv-x="646" d=" M398,569 L398,0 L278,0 L278,569 L30,569 L30,680 L646,680 L646,569 M389,737 L287,737 L167,889 L281,889 L338,816 L396,889 L510,889"/> 
            <glyph glyph-name="ť" unicode="&#x165;" horiz-adv-x="424" d=" M403,731 L367,529 L280,529 L286,731 M413,96 L424,0 Q360,-15 300,-15 Q214,-15 168.5,33 Q123,81 123,172 L123,370 L21,370 L21,473 L123,473 L123,651 L239,651 L239,473 L395,473 L395,370 L239,370 L239,184 Q239,135 258.5,111.5 Q278,88 322,88 Q363,88 413,96"/> 
            <glyph glyph-name="Ū" unicode="&#x16A;" horiz-adv-x="685" d=" M685,680 L685,290 Q685,150 601,67 Q519,-15 380,-15 Q241,-15 158,67 Q75,150 75,290 L75,680 L195,680 L195,290 Q195,200 245,148.5 Q295,97 380,97 Q465,97 515,149 Q565,201 565,290 L565,680 M537,865 L537,772 L225,772 L225,865"/> 
            <glyph glyph-name="ū" unicode="&#x16B;" horiz-adv-x="545" d=" M449,679 L449,585 L171,585 L171,679 M545,473 L545,10 Q501,0 421,-7 Q333,-15 274,-15 Q75,-15 75,169 L75,473 L190,473 L190,196 Q190,84 298,84 Q361,84 430,93 L430,473"/> 
            <glyph glyph-name="Ů" unicode="&#x16E;" horiz-adv-x="685" d=" M299,911 Q331,940 380,940 Q429,940 461,911 Q492,883 492,836 Q492,788 461,760 Q429,731 380,731 Q331,731 299,760 Q269,788 269,836 Q269,882 299,911 M380,790 Q401,790 413.5,802.5 Q426,815 426,836 Q426,856 413.5,868.5 Q401,881 380,881 Q360,881 347,868.5 Q334,856 334,836 Q334,815 347,802.5 Q360,790 380,790 M685,680 L685,290 Q685,150 601,67 Q519,-15 380,-15 Q241,-15 158,67 Q75,150 75,290 L75,680 L195,680 L195,290 Q195,200 245,148.5 Q295,97 380,97 Q465,97 515,149 Q565,201 565,290 L565,680"/> 
            <glyph glyph-name="ů" unicode="&#x16F;" horiz-adv-x="545" d=" M228,724 Q260,753 309,753 Q358,753 390,724 Q421,696 421,649 Q421,601 390,573 Q358,544 309,544 Q260,544 228,573 Q198,602 198,649 Q198,696 228,724 M309,603 Q330,603 342.5,615.5 Q355,628 355,649 Q355,669 342.5,681.5 Q330,694 309,694 Q289,694 276,681.5 Q263,669 263,649 Q263,628 276,615.5 Q289,603 309,603 M545,473 L545,10 Q501,0 421,-7 Q333,-15 274,-15 Q75,-15 75,169 L75,473 L190,473 L190,196 Q190,84 298,84 Q361,84 430,93 L430,473"/> 
            <glyph glyph-name="Ű" unicode="&#x170;" horiz-adv-x="685" d=" M685,680 L685,290 Q685,150 601,67 Q519,-15 380,-15 Q241,-15 158,67 Q75,150 75,290 L75,680 L195,680 L195,290 Q195,200 245,148.5 Q295,97 380,97 Q465,97 515,149 Q565,201 565,290 L565,680 M419,891 L361,749 L257,749 L305,891 M573,891 L515,749 L412,749 L459,891"/> 
            <glyph glyph-name="ű" unicode="&#x171;" horiz-adv-x="545" d=" M345,704 L287,561 L184,561 L231,704 M499,704 L441,561 L338,561 L385,704 M545,473 L545,10 Q501,0 421,-7 Q333,-15 274,-15 Q75,-15 75,169 L75,473 L190,473 L190,196 Q190,84 298,84 Q361,84 430,93 L430,473"/> 
            <glyph glyph-name="Ų" unicode="&#x172;" horiz-adv-x="685" d=" M685,680 L685,290 Q685,179 631.5,102.5 Q578,26 482,-1 Q421,-28 421,-65 Q421,-108 482,-108 Q493,-108 523,-103 L534,-188 Q507,-199 467,-199 Q403,-199 364,-168 Q325,-137 325,-86 Q325,-43 362,-15 Q230,-9 153,73 Q75,155 75,290 L75,680 L195,680 L195,290 Q195,200 245,148.5 Q295,97 380,97 Q465,97 515,149 Q565,201 565,290 L565,680"/> 
            <glyph glyph-name="ų" unicode="&#x173;" horiz-adv-x="589" d=" M578,-95 L589,-180 Q562,-191 522,-191 Q458,-191 419,-160 Q380,-129 380,-78 Q380,-38 416,-7 Q334,-15 274,-15 Q75,-15 75,169 L75,473 L190,473 L190,196 Q190,84 298,84 Q361,84 430,93 L430,473 L545,473 L545,10 Q508,-5 492,-20.5 Q476,-36 476,-57 Q476,-100 537,-100 Q548,-100 578,-95"/> 
            <glyph glyph-name="Ŵ" unicode="&#x174;" horiz-adv-x="1035" d=" M530,821 L472,749 L359,749 L479,891 L581,891 L702,749 L588,749 M809,0 L696,0 L530,476 L364,0 L250,0 L24,680 L151,680 L310,185 L479,680 L581,680 L749,185 L909,680 L1035,680"/> 
            <glyph glyph-name="ŵ" unicode="&#x175;" horiz-adv-x="788" d=" M632,0 L520,0 L409,307 L298,0 L187,0 L30,473 L147,473 L248,156 L365,473 L454,473 L570,155 L671,473 L788,473 M410,630 L351,566 L238,566 L358,704 L460,704 L581,566 L467,566"/> 
            <glyph glyph-name="Ŷ" unicode="&#x176;" horiz-adv-x="706" d=" M364,821 L306,749 L193,749 L313,891 L415,891 L536,749 L422,749 M303,229 L21,680 L157,680 L363,355 L570,680 L706,680 L425,229 L425,0 L303,0"/> 
            <glyph glyph-name="ŷ" unicode="&#x177;" horiz-adv-x="613" d=" M262,567 L149,567 L269,705 L371,705 L492,567 L378,567 L321,631 M613,473 L272,-230 L142,-230 L270,33 L36,473 L168,473 L332,161 L483,473"/> 
            <glyph glyph-name="Ÿ" unicode="&#x178;" horiz-adv-x="706" d=" M257,747 Q226,747 205,767.5 Q184,788 184,817 Q184,847 205,867.5 Q226,888 257,888 Q287,888 308,867.5 Q329,847 329,817 Q329,788 308,767.5 Q287,747 257,747 M470,747 Q440,747 419,767.5 Q398,788 398,817 Q398,847 419,867.5 Q440,888 470,888 Q501,888 522,867.5 Q543,847 543,817 Q543,788 522,767.5 Q501,747 470,747 M303,229 L21,680 L157,680 L363,355 L570,680 L706,680 L425,229 L425,0 L303,0"/> 
            <glyph glyph-name="Ź" unicode="&#x179;" horiz-adv-x="613" d=" M522,891 L405,749 L284,749 L368,891 M609,606 L230,111 L613,111 L613,0 L54,0 L54,74 L440,569 L68,569 L68,680 L609,680"/> 
            <glyph glyph-name="ź" unicode="&#x17A;" horiz-adv-x="467" d=" M450,410 L210,100 L467,100 L467,0 L44,0 L44,56 L291,374 L49,374 L49,474 L450,474 M415,714 L298,563 L185,563 L261,714"/> 
            <glyph glyph-name="Ż" unicode="&#x17B;" horiz-adv-x="613" d=" M263,817 Q263,847 284.5,867.5 Q306,888 336,888 Q366,888 387.5,867.5 Q409,847 409,817 Q409,788 387.5,767.5 Q366,747 336,747 Q306,747 284.5,767.5 Q263,788 263,817 M609,606 L230,111 L613,111 L613,0 L54,0 L54,74 L440,569 L68,569 L68,680 L609,680"/> 
            <glyph glyph-name="ż" unicode="&#x17C;" horiz-adv-x="467" d=" M450,410 L210,100 L467,100 L467,0 L44,0 L44,56 L291,374 L49,374 L49,474 L450,474 M174,627 Q174,657 195.5,677 Q217,697 247,697 Q277,697 298.5,677 Q320,657 320,627 Q320,598 298.5,577.5 Q277,557 247,557 Q217,557 195.5,577.5 Q174,598 174,627"/> 
            <glyph glyph-name="Ž" unicode="&#x17D;" horiz-adv-x="613" d=" M387,737 L285,737 L165,889 L279,889 L336,816 L394,889 L508,889 M609,606 L230,111 L613,111 L613,0 L54,0 L54,74 L440,569 L68,569 L68,680 L609,680"/> 
            <glyph glyph-name="ž" unicode="&#x17E;" horiz-adv-x="467" d=" M450,410 L210,100 L467,100 L467,0 L44,0 L44,56 L291,374 L49,374 L49,474 L450,474 M297,561 L195,561 L75,713 L189,713 L246,640 L304,713 L418,713"/> 
            <glyph glyph-name="ƒ" unicode="&#x192;" horiz-adv-x="511" d=" M413,695 Q460,695 511,679 L494,584 Q458,591 418,591 Q381,591 362,567 Q343,543 335,488 L325,417 L495,417 L495,314 L311,314 L294,189 Q279,85 232.5,35 Q186,-15 100,-15 Q53,-15 2,1 L20,96 Q55,89 96,89 Q133,89 152,113.5 Q171,138 178,192 L195,314 L76,314 L76,417 L210,417 L220,491 Q234,594 281,644.5 Q328,695 413,695"/> 
            <glyph glyph-name="Ǎ" unicode="&#x1CD;" horiz-adv-x="755" d=" M441,737 L339,737 L219,889 L333,889 L390,816 L448,889 L562,889 M220,139 L159,0 L24,0 L334,684 L446,684 L755,0 L620,0 L559,139 M390,528 L267,247 L513,247"/> 
            <glyph glyph-name="ǎ" unicode="&#x1CE;" horiz-adv-x="541" d=" M366,561 L264,561 L144,713 L258,713 L315,640 L373,713 L487,713 M282,488 Q382,488 541,465 L541,0 L426,0 L426,36 Q356,-15 273,-15 Q170,-15 107,54 Q44,124 44,239 Q46,354 108.5,421 Q171,488 282,488 M298,391 Q228,391 192.5,350 Q157,309 157,236 Q157,167 193.5,124.5 Q230,82 290,82 Q360,82 426,133 L426,383 Q360,391 298,391"/> 
            <glyph glyph-name="Ș" unicode="&#x218;" horiz-adv-x="615" d=" M596,644 L565,538 Q430,581 333,581 Q272,581 239,558.5 Q206,536 206,492 Q206,452 244,432 Q281,415 377,395 Q501,369 557,328 Q615,286 615,197 Q615,95 542.5,40 Q470,-15 344,-15 Q197,-15 59,42 L88,154 Q229,98 349,98 Q494,98 494,185 Q501,226 442,258 Q433,264 404,272 Q376,280 365,281 L319,291 L294,296 Q178,320 128.5,363 Q79,406 79,487 Q79,580 149,635 Q219,690 336,690 Q477,690 596,644 M259,-247 L295,-168 Q255,-153 255,-113 Q255,-87 275,-68.5 Q295,-50 322,-50 Q350,-50 369.5,-68.5 Q389,-87 389,-113 Q389,-130 380,-147 Q371,-168 323,-247"/> 
            <glyph glyph-name="ș" unicode="&#x219;" horiz-adv-x="474" d=" M53,27 L76,122 Q182,80 270,80 Q367,80 367,129 Q367,150 351,159 Q331,172 310,177 Q287,184 256,189 L227,195 Q142,211 103.5,243 Q65,275 65,334 Q65,405 119,445.5 Q173,486 266,486 Q370,486 460,451 L433,362 Q325,394 260,394 Q178,394 178,342 Q178,313 222,299 Q234,294 303,281 Q393,262 434,233 Q474,205 474,141 Q474,64 418.5,24.5 Q363,-15 264,-15 Q156,-15 53,27 M201,-247 L237,-168 Q197,-153 197,-113 Q197,-87 217,-68.5 Q237,-50 264,-50 Q292,-50 311.5,-68.5 Q331,-87 331,-113 Q331,-130 322,-147 Q313,-168 265,-247"/> 
            <glyph glyph-name="Ț" unicode="&#x21A;" horiz-adv-x="646" d=" M398,569 L398,0 L278,0 L278,569 L30,569 L30,680 L646,680 L646,569 M275,-247 L311,-168 Q271,-153 271,-113 Q271,-87 291,-68.5 Q311,-50 338,-50 Q366,-50 385.5,-68.5 Q405,-87 405,-113 Q405,-130 396,-147 Q387,-168 339,-247"/> 
            <glyph glyph-name="ț" unicode="&#x21B;" horiz-adv-x="424" d=" M413,96 L424,0 Q360,-15 300,-15 Q214,-15 168.5,33 Q123,81 123,172 L123,370 L21,370 L21,473 L123,473 L123,651 L239,651 L239,473 L395,473 L395,370 L239,370 L239,184 Q239,135 258.5,111.5 Q278,88 322,88 Q363,88 413,96 M198,-247 L234,-168 Q194,-153 194,-113 Q194,-87 214,-68.5 Q234,-50 261,-50 Q289,-50 308.5,-68.5 Q328,-87 328,-113 Q328,-130 319,-147 Q310,-168 262,-247"/> 
            <glyph glyph-name="ˆ" unicode="&#x2C6;" horiz-adv-x="472" d=" M301,630 L242,566 L129,566 L249,704 L351,704 L472,566 L358,566"/> 
            <glyph glyph-name="ˇ" unicode="&#x2C7;" horiz-adv-x="472" d=" M351,561 L249,561 L129,713 L243,713 L300,640 L358,713 L472,713"/> 
            <glyph glyph-name="˘" unicode="&#x2D8;" horiz-adv-x="456" d=" M357,708 L456,708 Q456,637 414,596.5 Q372,556 300,556 Q228,556 186,596.5 Q144,637 144,708 L242,708 Q242,647 300,647 Q357,647 357,708"/> 
            <glyph glyph-name="˙" unicode="&#x2D9;" horiz-adv-x="373" d=" M227,627 Q227,657 248.5,677 Q270,697 300,697 Q330,697 351.5,677 Q373,657 373,627 Q373,598 351.5,577.5 Q330,557 300,557 Q270,557 248.5,577.5 Q227,598 227,627"/> 
            <glyph glyph-name="˚" unicode="&#x2DA;" horiz-adv-x="409" d=" M216,724 Q248,753 297,753 Q346,753 378,724 Q409,696 409,649 Q409,601 378,573 Q346,544 297,544 Q248,544 216,573 Q186,602 186,649 Q186,696 216,724 M297,603 Q318,603 330.5,615.5 Q343,628 343,649 Q343,669 330.5,681.5 Q318,694 297,694 Q277,694 264,681.5 Q251,669 251,649 Q251,628 264,615.5 Q277,603 297,603"/> 
            <glyph glyph-name="˛" unicode="&#x2DB;" horiz-adv-x="413" d=" M359,55 L369,29 Q332,14 316,-1.5 Q300,-17 300,-38 Q300,-81 361,-81 Q372,-81 402,-76 L413,-161 Q386,-172 346,-172 Q282,-172 243,-141 Q204,-110 204,-59 Q204,-14 246,17 Q288,48 359,55"/> 
            <glyph glyph-name="˜" unicode="&#x2DC;" horiz-adv-x="479" d=" M387,687 L479,687 Q479,644 462,614 Q445,584 419.5,572.5 Q394,561 366,561.5 Q338,562 314,575 L265,606 Q240,617 228,609.5 Q216,602 216,580 L123,580 Q123,623 140,653 Q157,683 182.5,695 Q208,707 236.5,706 Q265,705 288,691 L338,660 Q387,638 387,687"/> 
            <glyph glyph-name="˝" unicode="&#x2DD;" horiz-adv-x="489" d=" M335,704 L277,561 L174,561 L221,704 M489,704 L431,561 L328,561 L375,704"/> 
            <glyph glyph-name="̦" unicode="&#x326;" horiz-adv-x="366" d=" M236,-251 L272,-172 Q232,-157 232,-117 Q232,-91 252,-72.5 Q272,-54 299,-54 Q327,-54 346.5,-72.5 Q366,-91 366,-117 Q366,-134 357,-151 Q348,-172 300,-251"/> 
            <glyph glyph-name="Ẁ" unicode="&#x1E80;" horiz-adv-x="1035" d=" M589,749 L476,749 L359,891 L513,891 M809,0 L696,0 L530,476 L364,0 L250,0 L24,680 L151,680 L310,185 L479,680 L581,680 L749,185 L909,680 L1035,680"/> 
            <glyph glyph-name="ẁ" unicode="&#x1E81;" horiz-adv-x="788" d=" M458,563 L346,563 L228,714 L383,714 M632,0 L520,0 L409,307 L298,0 L187,0 L30,473 L147,473 L248,156 L365,473 L454,473 L570,155 L671,473 L788,473"/> 
            <glyph glyph-name="Ẃ" unicode="&#x1E82;" horiz-adv-x="1035" d=" M717,891 L600,749 L479,749 L563,891 M809,0 L696,0 L530,476 L364,0 L250,0 L24,680 L151,680 L310,185 L479,680 L581,680 L749,185 L909,680 L1035,680"/> 
            <glyph glyph-name="ẃ" unicode="&#x1E83;" horiz-adv-x="788" d=" M632,0 L520,0 L409,307 L298,0 L187,0 L30,473 L147,473 L248,156 L365,473 L454,473 L570,155 L671,473 L788,473 M591,714 L474,563 L361,563 L437,714"/> 
            <glyph glyph-name="Ẅ" unicode="&#x1E84;" horiz-adv-x="1035" d=" M423,747 Q392,747 371,767.5 Q350,788 350,817 Q350,847 371,867.5 Q392,888 423,888 Q453,888 474,867.5 Q495,847 495,817 Q495,788 474,767.5 Q453,747 423,747 M636,747 Q606,747 585,767.5 Q564,788 564,817 Q564,847 585,867.5 Q606,888 636,888 Q667,888 688,867.5 Q709,847 709,817 Q709,788 688,767.5 Q667,747 636,747 M809,0 L696,0 L530,476 L364,0 L250,0 L24,680 L151,680 L310,185 L479,680 L581,680 L749,185 L909,680 L1035,680"/> 
            <glyph glyph-name="ẅ" unicode="&#x1E85;" horiz-adv-x="788" d=" M632,0 L520,0 L409,307 L298,0 L187,0 L30,473 L147,473 L248,156 L365,473 L454,473 L570,155 L671,473 L788,473 M304,697 Q334,697 355,677 Q376,657 376,627 Q376,598 355,577.5 Q334,557 304,557 Q273,557 252,577.5 Q231,598 231,627 Q231,657 252,677 Q273,697 304,697 M517,697 Q548,697 569,677 Q590,657 590,627 Q590,598 569,577.5 Q548,557 517,557 Q487,557 466,577.5 Q445,598 445,627 Q445,657 466,677 Q487,697 517,697"/> 
            <glyph glyph-name="Ỳ" unicode="&#x1EF2;" horiz-adv-x="706" d=" M423,749 L310,749 L193,891 L347,891 M303,229 L21,680 L157,680 L363,355 L570,680 L706,680 L425,229 L425,0 L303,0"/> 
            <glyph glyph-name="ỳ" unicode="&#x1EF3;" horiz-adv-x="613" d=" M278,564 L161,715 L315,715 L391,564 M613,473 L272,-230 L142,-230 L270,33 L36,473 L168,473 L332,161 L483,473"/> 
            <glyph glyph-name="–" unicode="&#x2013;" horiz-adv-x="577" d=" M577,321 L577,206 L80,206 L80,321"/> 
            <glyph glyph-name="—" unicode="&#x2014;" horiz-adv-x="912" d=" M912,321 L912,206 L80,206 L80,321"/> 
            <glyph glyph-name="‘" unicode="&#x2018;" horiz-adv-x="239" d=" M239,769 L182,640 Q234,619 234,570 Q234,536 209,512.5 Q184,489 149,489 Q114,489 88.5,512.5 Q63,536 63,570 Q63,591 72,612 Q82,635 123,710 L155,769"/> 
            <glyph glyph-name="’" unicode="&#x2019;" horiz-adv-x="237" d=" M61,494 L118,622 Q67,642 67,692 Q67,726 91.5,749.5 Q116,773 151,773 Q187,773 212,749.5 Q237,726 237,692 Q237,670 228,651 Q216,625 173,546 L145,494"/> 
            <glyph glyph-name="‚" unicode="&#x201A;" horiz-adv-x="237" d=" M61,-133 L118,-4 Q66,17 66,66 Q66,100 91,123.5 Q116,147 151,147 Q186,147 211.5,123.5 Q237,100 237,66 Q237,45 228,24 Q218,1 177,-74 L145,-133"/> 
            <glyph glyph-name="“" unicode="&#x201C;" horiz-adv-x="442" d=" M238,768 L181,640 Q233,619 233,570 Q233,536 208,512.5 Q183,489 148,489 Q113,489 88,512.5 Q63,536 63,570 Q63,594 75,619 Q87,644 154,768 M442,768 L385,640 Q436,620 436,570 Q436,536 411.5,512.5 Q387,489 352,489 Q316,489 291,512.5 Q266,536 266,570 Q266,592 275,611 Q287,637 330,716 L358,768"/> 
            <glyph glyph-name="”" unicode="&#x201D;" horiz-adv-x="442" d=" M238,695 Q238,672 226,646 Q214,621 147,497 L63,497 L119,625 Q68,644 68,695 Q68,729 93,752.5 Q118,776 153,776 Q188,776 213,752.5 Q238,729 238,695 M356,776 Q392,776 417,752.5 Q442,729 442,695 Q442,674 433,654 Q421,628 378,549 L350,497 L266,497 L323,625 Q272,644 272,695 Q272,729 296.5,752.5 Q321,776 356,776"/> 
            </font>
</defs>
</svg>
