<?xml version="1.0" standalone="no"?>
<!DOCTYPE svg PUBLIC "-//W3C//DTD SVG 1.1//EN" "http://www.w3.org/Graphics/SVG/1.1/DTD/svg11.dtd" >
<svg xmlns="http://www.w3.org/2000/svg">
    <defs>
        <font id="Canaro-ExtraBold">
            <font-face font-family="Canaro-ExtraBold"
                       units-per-em="1000"
                       ascent="749"
                       descent="-251"
                       bbox="-86 -292 1503 980"
                    />
            <missing-glyph horiz-adv-x="0" />
            
            <glyph glyph-name="!" unicode="&#x21;" horiz-adv-x="259" d=" M259,680 L243,229 L57,229 L41,680 M152,-16 Q108,-16 77.5,12.5 Q47,41 47,84 Q47,126 77.5,155 Q108,184 152,184 Q195,184 226,155 Q257,126 257,84 Q257,42 226,13 Q195,-16 152,-16"/> 
            <glyph glyph-name="&quot;" unicode="&#x22;" horiz-adv-x="434" d=" M238,768 L199,488 L57,488 L57,768 M434,768 L395,488 L253,488 L253,768"/> 
            <glyph glyph-name="#" unicode="&#x23;" horiz-adv-x="793" d=" M631,282 L738,282 L738,130 L583,130 L543,0 L367,0 L407,130 L275,130 L234,0 L58,0 L99,130 L23,130 L23,282 L147,282 L179,386 L78,386 L78,538 L227,538 L271,681 L447,681 L403,538 L535,538 L580,681 L756,681 L711,538 L793,538 L793,386 L663,386 M355,386 L323,282 L455,282 L487,386"/> 
            <glyph glyph-name="$" unicode="&#x24;" horiz-adv-x="641" d=" M641,206 Q641,116 584.5,60 Q528,4 424,-10 L424,-104 L280,-104 L280,-11 Q166,0 30,46 L75,216 Q238,159 331,156 Q417,155 417,200 Q417,229 369,242 Q365,244 358,245.5 Q351,247 342.5,249 Q334,251 330,252 Q324,254 306.5,257.5 Q289,261 283,262 Q159,291 107,334 Q54,378 54,467 Q54,560 113,617.5 Q172,675 280,688 L280,800 L424,800 L424,688 Q534,678 631,647 L593,475 Q431,522 350,522 Q276,522 276,478 Q276,462 285.5,454 Q295,446 317,439 Q322,437 337.5,433.5 Q353,430 355,429 L407,418 Q513,395 571,353 Q641,307 641,206"/> 
            <glyph glyph-name="%" unicode="&#x25;" horiz-adv-x="1042" d=" M112,638 Q172,695 263,695 Q354,695 413,638 Q473,582 473,491 Q473,400 413,343 Q354,286 263,286 Q172,286 112,343 Q53,400 53,491 Q53,582 112,638 M358,0 L265,0 L734,680 L827,680 M350,491 Q350,527 325,552 Q300,577 264,577 Q228,577 202.5,552 Q177,527 177,491 Q177,453 202,428 Q227,403 264,403 Q300,403 325,427.5 Q350,452 350,491 M681,337 Q741,394 832,394 Q924,394 982,337 Q1042,282 1042,190 Q1042,99 982,42 Q924,-15 832,-15 Q741,-15 681,42 Q622,99 622,190 Q622,281 681,337 M832,103 Q869,103 894,127.5 Q919,152 919,190 Q919,228 894,252.5 Q869,277 832,277 Q796,277 771,252.5 Q746,228 746,190 Q746,152 771,127.5 Q796,103 832,103"/> 
            <glyph glyph-name="&amp;" unicode="&#x26;" horiz-adv-x="620" d=" M571,278 L571,218 Q571,113 495,49 Q421,-15 297,-15 Q174,-15 99,42 Q24,101 24,194 Q24,311 131,353 Q63,398 63,496 Q63,584 132,639 Q202,695 319,695 Q416,695 497,670 L461,521 Q380,536 321,536 Q285,536 263,519.5 Q241,503 241,477 Q241,443 258,430 Q275,417 321,417 L620,417 L620,278 M392,278 L321,278 Q203,278 203,214 Q203,183 229,163.5 Q255,144 297,144 Q340,144 366,164 Q392,184 392,218"/> 
            <glyph glyph-name="'" unicode="&#x27;" horiz-adv-x="237" d=" M237,768 L198,488 L57,488 L57,768"/> 
            <glyph glyph-name="(" unicode="&#x28;" horiz-adv-x="370" d=" M214,796 L370,707 Q301,592 266,490 Q232,394 232,261 Q232,128 266,30 Q302,-72 370,-193 L214,-282 Q31,-39 31,261 Q31,564 214,796"/> 
            <glyph glyph-name=")" unicode="&#x29;" horiz-adv-x="358" d=" M19,707 L175,796 Q358,564 358,261 Q358,-39 175,-282 L19,-193 Q87,-72 123,30 Q157,128 157,261 Q157,394 123,490 Q88,592 19,707"/> 
            <glyph glyph-name="*" unicode="&#x2A;" horiz-adv-x="385" d=" M385,474 L338,393 L252,444 L252,348 L157,348 L157,444 L71,393 L24,474 L112,526 L24,578 L71,660 L157,609 L157,700 L252,700 L252,609 L338,660 L385,578 L297,526"/> 
            <glyph glyph-name="+" unicode="&#x2B;" horiz-adv-x="562" d=" M398,257 L398,90 L258,90 L258,257 L93,257 L93,392 L258,392 L258,559 L398,559 L398,392 L562,392 L562,257"/> 
            <glyph glyph-name="," unicode="&#x2C;" horiz-adv-x="284" d=" M54,-133 L117,4 Q54,32 54,95 Q54,141 87.5,172.5 Q121,204 169,204 Q217,204 250.5,172.5 Q284,141 284,95 Q284,64 264,24 Q250,-4 170,-133"/> 
            <glyph glyph-name="-" unicode="&#x2D;" horiz-adv-x="436" d=" M436,346 L436,167 L93,167 L93,346"/> 
            <glyph glyph-name="." unicode="&#x2E;" horiz-adv-x="284" d=" M284,46 Q216,-16 168,-16 Q120,-16 86,15 Q53,47 53,94 Q53,140 86,172 Q120,204 168,204 Q216,204 250,172 Q284,141 284,94"/> 
            <glyph glyph-name="/" unicode="&#x2F;" horiz-adv-x="525" d=" M158,-272 L3,-272 L370,768 L525,768"/> 
            <glyph glyph-name="0" unicode="&#x30;" horiz-adv-x="693" d=" M125,597 Q217,695 364,695 Q512,695 602,597 Q693,500 693,340 Q693,179 602,82 Q512,-15 364,-15 Q216,-15 125,82 Q34,179 34,340 Q34,500 125,597 M259,207 Q300,157 364,157 Q429,157 468,207 Q508,257 508,340 Q508,423 468,472 Q429,523 364,523 Q300,523 259,472 Q219,423 219,340 Q219,257 259,207"/> 
            <glyph glyph-name="1" unicode="&#x31;" horiz-adv-x="376" d=" M376,0 L187,0 L187,459 L47,426 L10,594 L307,680 L376,680"/> 
            <glyph glyph-name="2" unicode="&#x32;" horiz-adv-x="553" d=" M553,0 L41,0 L41,131 L253,315 Q309,363 329.5,389.5 Q350,416 350,443 Q350,521 257,521 Q187,521 67,484 L28,643 Q172,695 288,695 Q414,695 479,633 Q544,571 544,473 Q544,403 508.5,346 Q473,289 396,224 L327,168 L553,168"/> 
            <glyph glyph-name="3" unicode="&#x33;" horiz-adv-x="581" d=" M555,579 L409,403 L420,401 Q494,389 537.5,339 Q581,289 581,217 Q581,106 510,45.5 Q439,-15 307,-15 Q175,-15 27,41 L77,190 Q203,144 305,144 Q349,144 374,163 Q399,182 399,216 Q399,242 372,257.5 Q345,273 298,273 L173,273 L173,351 L315,513 L59,513 L59,680 L555,680"/> 
            <glyph glyph-name="4" unicode="&#x34;" horiz-adv-x="647" d=" M572,256 L647,256 L647,104 L572,104 L572,0 L399,0 L399,104 L23,104 L23,235 L399,680 L572,680 M232,256 L399,256 L399,469"/> 
            <glyph glyph-name="5" unicode="&#x35;" horiz-adv-x="587" d=" M277,438 L330,435 Q455,429 521,373 Q587,317 587,218 Q587,111 511.5,48 Q436,-15 295,-15 Q166,-15 33,42 L83,191 Q208,146 296,146 Q399,146 399,216 Q399,282 292,287 L87,297 L124,680 L555,680 L555,504 L284,504"/> 
            <glyph glyph-name="6" unicode="&#x36;" horiz-adv-x="609" d=" M509,680 L365,493 Q476,481 542,415 Q609,351 609,249 Q609,132 528,58 Q449,-15 318,-15 Q186,-15 107,58 Q27,132 27,249 Q27,328 84,405 L292,680 M432,248 Q432,295 400.5,324.5 Q369,354 318,354 Q266,354 234.5,324.5 Q203,295 203,248 Q203,199 235,169.5 Q267,140 318,140 Q369,140 400.5,169.5 Q432,199 432,248"/> 
            <glyph glyph-name="7" unicode="&#x37;" horiz-adv-x="564" d=" M564,573 L324,0 L117,0 L331,504 L27,504 L27,680 L564,680"/> 
            <glyph glyph-name="8" unicode="&#x38;" horiz-adv-x="600" d=" M474,354 Q600,304 600,187 Q600,92 524,38.5 Q448,-15 313,-15 Q179,-15 103,38.5 Q27,92 27,187 Q27,304 152,354 Q56,398 56,503 Q56,587 128,641 Q201,695 313,695 Q426,695 498,641 Q571,589 571,503 Q571,397 474,354 M236,486 Q236,455 257,436.5 Q278,418 313,418 Q348,418 369.5,436.5 Q391,455 391,486 Q391,516 369,535.5 Q347,555 313,555 Q279,555 257.5,535.5 Q236,516 236,486 M274,138 Q352,138 376.5,159 Q401,180 401,213 Q401,246 377,266.5 Q353,287 313,287 Q274,287 249.5,266.5 Q225,246 225,213 Q225,181 274,138"/> 
            <glyph glyph-name="9" unicode="&#x39;" horiz-adv-x="609" d=" M609,431 Q609,365 563,289 L380,0 L165,0 L284,185 Q168,194 97,260 Q27,327 27,431 Q27,548 107,622 Q186,695 318,695 Q450,695 529,622 Q609,548 609,431 M204,432 Q204,385 235.5,355.5 Q267,326 318,326 Q370,326 401,355.5 Q432,385 432,432 Q432,481 400.5,510.5 Q369,540 318,540 Q267,540 235.5,510.5 Q204,481 204,432"/> 
            <glyph glyph-name=":" unicode="&#x3A;" horiz-adv-x="284" d=" M250,320 Q216,288 168,288 Q120,288 86,320 Q53,352 53,399 Q53,446 86,477 Q120,509 168,509 Q216,509 250,477 Q284,446 284,399 Q284,351 250,320 M249,15 Q217,-16 168,-16 Q120,-16 86,15 Q53,47 53,94 Q53,140 86,172 Q121,204 168,204 Q215,204 249,172 Q283,141 283,94 Q283,46 249,15"/> 
            <glyph glyph-name=";" unicode="&#x3B;" horiz-adv-x="287" d=" M253,320 Q219,288 172,288 Q125,288 90,320 Q57,352 57,399 Q57,446 90,477 Q125,509 172,509 Q219,509 253,477 Q287,446 287,399 Q287,351 253,320 M54,-133 L118,4 Q54,32 54,95 Q54,141 87.5,172.5 Q121,204 169,204 Q217,204 250.5,172.5 Q284,141 284,95 Q284,64 264,24 Q250,-4 170,-133"/> 
            <glyph glyph-name="&lt;" unicode="&#x3C;" horiz-adv-x="459" d=" M459,580 L459,415 L219,308 L459,200 L459,35 L37,225 L37,390"/> 
            <glyph glyph-name="=" unicode="&#x3D;" horiz-adv-x="575" d=" M575,360 L93,360 L93,495 L575,495 M575,147 L93,147 L93,282 L575,282"/> 
            <glyph glyph-name="&gt;" unicode="&#x3E;" horiz-adv-x="479" d=" M479,225 L57,35 L57,200 L296,308 L57,415 L57,580 L479,390"/> 
            <glyph glyph-name="?" unicode="&#x3F;" horiz-adv-x="485" d=" M224,695 Q343,695 413,637 Q485,578 485,483 Q485,396 430,335 Q375,274 286,274 L282,274 L283,222 L112,222 L93,400 L208,400 Q254,400 280,418.5 Q306,437 306,470 Q306,501 282.5,518.5 Q259,536 215,536 Q162,536 47,518 L22,671 Q137,695 224,695 M203,184 Q246,184 277,155 Q308,126 308,84 Q308,42 277,13 Q246,-16 203,-16 Q159,-16 128.5,12.5 Q98,41 98,84 Q98,126 128.5,155 Q159,184 203,184"/> 
            <glyph glyph-name="@" unicode="&#x40;" horiz-adv-x="966" d=" M506,690 Q713,690 839,567 Q966,446 966,243 Q966,123 901.5,59.5 Q837,-4 726,-4 Q614,-4 579,56 Q517,-5 434,-5 Q356,-5 285,63 Q216,132 216,249 Q224,350 285,413 Q348,477 449,477 Q530,477 735,455 L735,164 Q735,124 743.5,108.5 Q752,93 776,93 Q797,93 819,98 Q899,124 899,243 Q899,415 790,520 Q683,626 506,626 Q339,626 226,516 Q113,406 113,243 Q113,78 215,-31 Q318,-139 483,-141 Q582,-141 754,-103 L766,-163 Q598,-205 483,-205 Q288,-205 167,-78 Q46,49 46,243 Q46,434 177,562 Q310,690 506,690 M484,338 Q441,338 416,310.5 Q391,283 391,237 Q391,194 416.5,167 Q442,140 481,140 Q519,140 558,173 L558,195 L558,334 Q519,338 484,338"/> 
            <glyph glyph-name="A" unicode="&#x41;" horiz-adv-x="784" d=" M256,93 L220,0 L7,0 L302,684 L489,684 L784,0 L571,0 L535,93 M396,459 L318,258 L472,258"/> 
            <glyph glyph-name="B" unicode="&#x42;" horiz-adv-x="633" d=" M497,341 Q559,326 596,283 Q633,240 633,185 Q633,95 563.5,43.5 Q494,-8 374,-8 Q279,-8 53,0 L53,680 Q261,686 363,686 Q477,686 543.5,637.5 Q610,589 610,505 Q610,447 579,402 Q548,357 497,341 M338,532 Q316,532 297,531 L255,531 L255,401 L344,401 Q379,401 400.5,420 Q422,439 422,471 Q422,532 338,532 M349,150 Q390,150 413,168 Q436,186 436,220 Q436,248 414.5,264 Q393,280 357,280 L255,280 L255,152 Q309,150 349,150"/> 
            <glyph glyph-name="C" unicode="&#x43;" horiz-adv-x="679" d=" M679,660 L648,482 Q506,508 440,508 Q354,508 303,462.5 Q252,417 252,341 Q252,264 302.5,217.5 Q353,171 435,171 Q490,171 648,197 L678,23 Q540,-14 419,-14 Q246,-14 140,83 Q34,180 34,340 Q34,499 140,596 Q247,694 418,694 Q539,694 679,660"/> 
            <glyph glyph-name="D" unicode="&#x44;" horiz-adv-x="696" d=" M317,688 Q492,688 594,595 Q696,503 696,341 Q696,179 596,85 Q496,-8 331,-8 Q229,-8 53,0 L53,680 Q272,688 317,688 M337,168 Q404,168 446.5,215.5 Q489,263 489,341 Q489,419 445.5,465.5 Q402,512 331,512 Q321,512 255,510 L255,169 Q277,169 296,168"/> 
            <glyph glyph-name="E" unicode="&#x45;" horiz-adv-x="581" d=" M255,422 L534,422 L534,260 L255,260 L255,169 L581,169 L581,0 L53,0 L53,680 L581,680 L581,511 L255,511"/> 
            <glyph glyph-name="F" unicode="&#x46;" horiz-adv-x="567" d=" M255,393 L520,393 L520,215 L255,215 L255,0 L53,0 L53,680 L567,680 L567,508 L255,508"/> 
            <glyph glyph-name="G" unicode="&#x47;" horiz-adv-x="725" d=" M725,407 L725,55 Q530,-15 411,-15 Q241,-15 137,83 Q34,180 34,341 Q34,500 136,597 Q239,695 405,695 Q532,695 680,660 L649,489 Q491,512 427,512 Q346,512 296.5,465 Q247,418 247,341 Q247,263 293.5,216 Q340,169 417,169 Q491,169 567,188 L567,255 L370,255 L370,407"/> 
            <glyph glyph-name="H" unicode="&#x48;" horiz-adv-x="694" d=" M694,0 L493,0 L493,242 L255,242 L255,0 L53,0 L53,680 L255,680 L255,418 L493,418 L493,680 L694,680"/> 
            <glyph glyph-name="I" unicode="&#x49;" horiz-adv-x="251" d=" M251,680 L251,0 L50,0 L50,680"/> 
            <glyph glyph-name="J" unicode="&#x4A;" horiz-adv-x="514" d=" M514,680 L514,295 Q514,145 444.5,65 Q375,-15 242,-15 Q129,-15 6,32 L44,204 Q163,175 228,175 Q309,175 309,288 L309,680"/> 
            <glyph glyph-name="K" unicode="&#x4B;" horiz-adv-x="730" d=" M255,213 L255,0 L53,0 L53,680 L255,680 L255,409 L272,409 L469,680 L707,680 L473,362 L730,0 L485,0 L340,213"/> 
            <glyph glyph-name="L" unicode="&#x4C;" horiz-adv-x="570" d=" M570,0 L53,0 L53,680 L255,680 L255,174 L570,174"/> 
            <glyph glyph-name="M" unicode="&#x4D;" horiz-adv-x="891" d=" M679,282 L531,0 L403,0 L256,282 L238,0 L43,0 L76,680 L248,680 L467,276 L686,680 L859,680 L891,0 L696,0"/> 
            <glyph glyph-name="N" unicode="&#x4E;" horiz-adv-x="712" d=" M712,680 L712,0 L533,0 L255,343 L255,0 L53,0 L53,680 L238,680 L510,336 L510,680"/> 
            <glyph glyph-name="O" unicode="&#x4F;" horiz-adv-x="768" d=" M135,597 Q238,695 401,695 Q565,695 666,597 Q768,500 768,340 Q768,180 666,83 Q565,-15 401,-15 Q238,-15 135,83 Q34,181 34,340 Q34,499 135,597 M285,214 Q330,167 401,167 Q472,167 516,214 Q561,262 561,340 Q561,418 516,465 Q472,513 401,513 Q330,513 285,465 Q241,418 241,340 Q241,263 285,214"/> 
            <glyph glyph-name="P" unicode="&#x50;" horiz-adv-x="638" d=" M332,688 Q477,688 557.5,618.5 Q638,549 638,423 Q638,300 556.5,231 Q475,162 332,162 L255,162 L255,0 L53,0 L53,680 Q266,688 332,688 M255,332 L336,332 Q381,332 408,356.5 Q435,381 435,423 Q435,469 409,493.5 Q383,518 336,518 Q272,518 255,517"/> 
            <glyph glyph-name="Q" unicode="&#x51;" horiz-adv-x="767" d=" M767,340 Q767,236 722.5,156.5 Q678,77 597,32 L751,-165 L519,-165 L400,-15 Q238,-15 135,83 Q34,181 34,340 Q34,499 135,597 Q238,695 401,695 Q565,695 666,597 Q767,499 767,340 M401,167 Q473,167 517.5,214.5 Q562,262 562,340 Q562,418 517.5,465.5 Q473,513 401,513 Q330,513 285.5,465.5 Q241,418 241,340 Q241,262 285.5,214.5 Q330,167 401,167"/> 
            <glyph glyph-name="R" unicode="&#x52;" horiz-adv-x="685" d=" M344,177 L313,177 L255,177 L255,0 L53,0 L53,680 Q253,687 342,687 Q484,687 561.5,622.5 Q639,558 639,438 Q639,301 535,230 L685,0 L450,0 M255,340 L333,340 Q381,340 408.5,365 Q436,390 436,432 Q436,518 330,518 L255,518"/> 
            <glyph glyph-name="S" unicode="&#x53;" horiz-adv-x="641" d=" M631,647 L593,475 Q431,522 350,522 Q276,522 276,478 Q276,463 286,454.5 Q296,446 317,439 Q345,430 407,418 Q513,395 571,353 Q641,307 641,206 Q641,101 564.5,43 Q488,-15 352,-15 Q212,-15 30,46 L75,216 Q238,159 332,156 Q417,155 417,200 Q417,229 369,242 Q365,244 358,245.5 Q351,247 342.5,249 Q334,251 330,252 Q324,254 306.5,257.5 Q289,261 283,262 Q161,289 108,333 Q55,378 55,467 Q55,574 131.5,633 Q208,692 344,692 Q491,692 631,647"/> 
            <glyph glyph-name="T" unicode="&#x54;" horiz-adv-x="653" d=" M437,505 L437,0 L236,0 L236,505 L20,505 L20,680 L653,680 L653,505"/> 
            <glyph glyph-name="U" unicode="&#x55;" horiz-adv-x="696" d=" M696,680 L696,319 Q696,160 610,72.5 Q524,-15 370,-15 Q216,-15 129.5,72.5 Q43,160 43,319 L43,680 L247,680 L247,319 Q247,250 280,211.5 Q313,173 370,173 Q427,173 459.5,211.5 Q492,250 492,319 L492,680"/> 
            <glyph glyph-name="V" unicode="&#x56;" horiz-adv-x="789" d=" M503,0 L297,0 L10,680 L235,680 L399,263 L565,680 L789,680"/> 
            <glyph glyph-name="W" unicode="&#x57;" horiz-adv-x="1061" d=" M854,0 L657,0 L535,353 L412,0 L215,0 L8,680 L222,680 L325,318 L452,680 L617,680 L743,318 L847,680 L1061,680"/> 
            <glyph glyph-name="X" unicode="&#x58;" horiz-adv-x="745" d=" M512,334 L745,0 L515,0 L377,184 L239,0 L9,0 L242,334 L11,680 L252,680 L377,495 L501,680 L743,680"/> 
            <glyph glyph-name="Y" unicode="&#x59;" horiz-adv-x="744" d=" M275,205 L8,680 L232,680 L375,420 L520,680 L744,680 L477,205 L477,0 L276,0"/> 
            <glyph glyph-name="Z" unicode="&#x5A;" horiz-adv-x="633" d=" M625,551 L324,175 L633,175 L633,0 L30,0 L30,129 L340,505 L49,505 L49,680 L625,680"/> 
            <glyph glyph-name="[" unicode="&#x5B;" horiz-adv-x="382" d=" M238,-83 L382,-83 L382,-260 L44,-260 L44,780 L382,780 L382,603 L238,603"/> 
            <glyph glyph-name="\" unicode="&#x5C;" horiz-adv-x="525" d=" M208,768 L525,-272 L337,-272 L20,768"/> 
            <glyph glyph-name="]" unicode="&#x5D;" horiz-adv-x="361" d=" M23,603 L23,780 L361,780 L361,-260 L23,-260 L23,-83 L167,-83 L167,603"/> 
            <glyph glyph-name="^" unicode="&#x5E;" horiz-adv-x="428" d=" M218,561 L158,458 L8,458 L150,681 L287,681 L428,458 L278,458"/> 
            <glyph glyph-name="_" unicode="&#x5F;" horiz-adv-x="591" d=" M23,-92 L591,-92 L591,-250 L23,-250"/> 
            <glyph glyph-name="`" unicode="&#x60;" horiz-adv-x="409" d=" M409,560 L228,560 L88,717 L316,717"/> 
            <glyph glyph-name="a" unicode="&#x61;" horiz-adv-x="585" d=" M274,507 Q370,507 585,483 L585,0 L392,0 L392,31 Q334,-15 257,-15 Q218,-15 179,1 Q140,17 105,47.5 Q70,78 48.5,130.5 Q27,183 27,249 Q32,366 97,436 Q165,507 274,507 M312,357 Q266,357 239,327 Q212,297 212,247 Q212,201 239.5,171.5 Q267,142 309,142 Q349,142 392,179 L392,352 Q327,357 312,357"/> 
            <glyph glyph-name="b" unicode="&#x62;" horiz-adv-x="609" d=" M245,710 L245,501 Q310,507 359,507 Q472,507 539,437 Q606,367 609,250 Q609,185 587,131.5 Q565,78 527,47 Q454,-14 365,-14 Q289,-14 51,9 L51,710 M321,357 Q291,357 245,350 L245,148 Q305,142 323,142 Q369,142 396.5,171.5 Q424,201 424,249 Q424,299 396.5,328 Q369,357 321,357"/> 
            <glyph glyph-name="c" unicode="&#x63;" horiz-adv-x="487" d=" M487,480 L463,339 Q365,354 329,354 Q274,354 242,324.5 Q210,295 210,246 Q210,198 241,170 Q272,142 326,142 Q380,142 470,157 L487,15 Q394,-15 310,-15 Q184,-15 105,56 Q27,128 27,246 Q27,365 105,437 Q184,509 312,509 Q395,509 487,480"/> 
            <glyph glyph-name="d" unicode="&#x64;" horiz-adv-x="585" d=" M585,710 L585,9 Q347,-14 271,-14 Q183,-14 108,47 Q71,78 49,131.5 Q27,185 27,250 Q30,367 97,437 Q164,507 277,507 Q326,507 391,501 L391,710 M315,357 Q267,357 239.5,328 Q212,299 212,249 Q212,201 239.5,171.5 Q267,142 313,142 Q331,142 391,148 L391,350 Q345,357 315,357"/> 
            <glyph glyph-name="e" unicode="&#x65;" horiz-adv-x="532" d=" M281,508 Q393,508 461,444 Q531,380 532,277 Q532,235 522,191 L210,191 Q234,133 311,133 Q388,133 491,155 L513,26 Q401,-15 310,-15 Q178,-15 101,58 Q23,131 23,248 Q23,365 94,436 Q166,508 281,508 M289,365 Q220,365 203,291 L368,291 Q366,325 345,345 Q324,365 289,365"/> 
            <glyph glyph-name="f" unicode="&#x66;" horiz-adv-x="439" d=" M439,321 L291,321 L291,0 L98,0 L98,321 L3,321 L3,492 L98,492 L98,555 Q98,661 154.5,719 Q211,777 306,777 Q370,777 434,765 L417,614 Q382,617 361,617 Q324,617 307.5,598.5 Q291,580 291,541 L291,492 L439,492"/> 
            <glyph glyph-name="g" unicode="&#x67;" horiz-adv-x="585" d=" M274,507 Q350,507 585,483 L585,3 Q585,-124 508.5,-192 Q432,-260 286,-260 Q202,-260 103,-231 L127,-91 Q230,-109 278,-109 Q388,-109 392,-7 Q329,-12 271,-12 Q138,-12 65,102 Q27,164 27,249 Q30,366 97,436 Q165,507 274,507 M312,357 Q266,357 239,327 Q212,297 212,247 Q212,203 239.5,174.5 Q267,146 309,146 Q352,146 392,152 L392,352 Q327,357 312,357"/> 
            <glyph glyph-name="h" unicode="&#x68;" horiz-adv-x="579" d=" M384,507 Q472,507 525.5,455 Q579,403 579,318 L579,0 L385,0 L385,258 Q385,334 322,334 Q305,334 242,328 L242,0 L48,0 L48,710 L242,710 L242,499 Q327,507 384,507"/> 
            <glyph glyph-name="i" unicode="&#x69;" horiz-adv-x="254" d=" M254,606 Q188,544 142,544 Q96,544 63,575 Q31,607 31,652 Q31,697 63,729 Q96,760 142,760 Q188,760 221,729 Q254,698 254,606 M240,492 L240,0 L46,0 L46,492"/> 
            <glyph glyph-name="j" unicode="&#x6A;" horiz-adv-x="259" d=" M148,760 Q194,760 226.5,728.5 Q259,697 259,652 Q259,607 226.5,575.5 Q194,544 148,544 Q101,544 68.5,575 Q36,606 36,652 Q36,698 68.5,729 Q101,760 148,760 M245,492 L245,18 Q245,-51 235.5,-92.5 Q226,-134 200,-170 Q150,-241 -21,-246 L-31,-90 Q30,-85 41,-60 Q51,-38 51,5 L51,492"/> 
            <glyph glyph-name="k" unicode="&#x6B;" horiz-adv-x="622" d=" M245,334 L256,334 L384,492 L601,492 L436,287 L622,0 L402,0 L302,158 L245,158 L245,0 L51,0 L51,710 L245,710"/> 
            <glyph glyph-name="l" unicode="&#x6C;" horiz-adv-x="245" d=" M245,710 L245,0 L52,0 L52,710"/> 
            <glyph glyph-name="m" unicode="&#x6D;" horiz-adv-x="887" d=" M688,507 Q780,507 833.5,458 Q887,409 887,318 L887,0 L693,0 L693,258 Q693,300 676.5,317 Q660,334 627,334 Q621,334 563,329 Q566,299 566,275 L566,0 L372,0 L372,258 Q372,300 355.5,317 Q339,334 306,334 Q288,334 245,331 L245,0 L51,0 L51,482 Q251,507 367,507 Q426,507 467,488 Q597,507 688,507"/> 
            <glyph glyph-name="n" unicode="&#x6E;" horiz-adv-x="582" d=" M386,507 Q474,507 528,455 Q582,403 582,318 L582,0 L388,0 L388,258 Q388,334 325,334 Q317,334 245,330 L245,0 L51,0 L51,483 Q264,507 386,507"/> 
            <glyph glyph-name="o" unicode="&#x6F;" horiz-adv-x="588" d=" M588,249 Q588,130 510,57 Q433,-16 308,-16 Q184,-16 105,57 Q27,130 27,249 Q27,366 105,438 Q185,510 308,510 Q433,510 510,437 Q588,365 588,249 M308,144 Q352,144 381.5,173 Q411,202 411,248 Q411,293 382,321.5 Q353,350 308,350 Q263,350 233.5,321.5 Q204,293 204,248 Q204,201 233,172.5 Q262,144 308,144"/> 
            <glyph glyph-name="p" unicode="&#x70;" horiz-adv-x="610" d=" M363,507 Q473,507 539,436 Q606,365 610,249 Q610,184 587.5,132.5 Q565,81 529,50.5 Q493,20 451,4 Q409,-12 365,-12 Q307,-12 245,-7 L245,-218 L51,-218 L51,483 Q246,507 363,507 M424,247 Q424,297 397,327 Q370,357 324,357 Q308,357 245,352 L245,152 Q286,146 327,146 Q369,146 396,174 Q424,202 424,247"/> 
            <glyph glyph-name="q" unicode="&#x71;" horiz-adv-x="587" d=" M276,507 Q392,507 587,483 L587,-218 L394,-218 L394,-7 Q329,-12 273,-12 Q140,-12 67,102 Q29,164 29,249 Q33,365 100,436 Q166,507 276,507 M394,152 L394,352 Q329,357 314,357 Q268,357 241,327 Q214,297 214,247 Q214,203 241.5,174.5 Q269,146 311,146 Q354,146 394,152"/> 
            <glyph glyph-name="r" unicode="&#x72;" horiz-adv-x="405" d=" M405,503 L405,317 Q326,317 245,311 L245,0 L51,0 L51,471 Q229,503 405,503"/> 
            <glyph glyph-name="s" unicode="&#x73;" horiz-adv-x="496" d=" M30,30 L65,168 Q199,124 258,124 Q305,124 305,143 Q305,157 271,168 Q266,170 245,174 Q224,178 219,179 Q126,201 86.5,235 Q47,269 47,335 Q47,419 105,463.5 Q163,508 271,508 Q380,508 491,474 L460,334 Q339,371 280,371 Q235,371 235,347 Q235,330 268,322 Q287,320 327,311 Q413,291 454.5,255.5 Q496,220 496,153 Q496,73 437.5,29 Q379,-15 274,-15 Q166,-15 30,30"/> 
            <glyph glyph-name="t" unicode="&#x74;" horiz-adv-x="460" d=" M443,166 L460,10 Q378,-15 288,-15 Q194,-15 144,42.5 Q94,100 94,207 L94,321 L10,321 L10,492 L94,492 L94,650 L288,650 L288,492 L432,492 L432,321 L288,321 L288,224 Q288,158 348,158 Q352,158 443,166"/> 
            <glyph glyph-name="u" unicode="&#x75;" horiz-adv-x="578" d=" M578,492 L578,8 Q376,-10 243,-10 Q153,-10 100.5,39 Q48,88 48,179 L48,492 L241,492 L241,220 Q241,178 257,161 Q273,144 305,144 Q313,144 385,148 L385,492"/> 
            <glyph glyph-name="v" unicode="&#x76;" horiz-adv-x="623" d=" M412,0 L222,0 L11,492 L216,492 L317,231 L418,492 L623,492"/> 
            <glyph glyph-name="w" unicode="&#x77;" horiz-adv-x="825" d=" M675,0 L490,0 L418,231 L345,0 L161,0 L11,492 L205,492 L269,245 L346,492 L490,492 L566,246 L630,492 L825,492"/> 
            <glyph glyph-name="x" unicode="&#x78;" horiz-adv-x="591" d=" M428,243 L591,0 L386,0 L301,127 L216,0 L11,0 L173,243 L11,493 L226,493 L301,382 L376,493 L591,493"/> 
            <glyph glyph-name="y" unicode="&#x79;" horiz-adv-x="670" d=" M670,492 L354,-217 L145,-217 L247,16 L14,492 L230,492 L347,246 L455,492"/> 
            <glyph glyph-name="z" unicode="&#x7A;" horiz-adv-x="501" d=" M488,391 L297,161 L501,161 L501,0 L30,0 L30,98 L229,332 L32,332 L32,493 L488,493"/> 
            <glyph glyph-name="{" unicode="&#x7B;" horiz-adv-x="365" d=" M300,556 L300,394 Q300,289 194,255 Q300,221 300,116 L300,-46 Q300,-76 313,-85 Q326,-94 365,-94 L365,-278 Q107,-278 107,-63 L107,129 Q107,185 28,185 L28,325 Q107,325 107,381 L107,573 Q107,788 365,788 L365,604 Q326,604 313,595 Q300,586 300,556"/> 
            <glyph glyph-name="|" unicode="&#x7C;" horiz-adv-x="252" d=" M252,765 L252,-153 L87,-153 L87,765"/> 
            <glyph glyph-name="}" unicode="&#x7D;" horiz-adv-x="360" d=" M88,394 L88,556 Q88,586 75,595 Q62,604 23,604 L23,788 Q281,788 281,573 L281,381 Q281,325 360,325 L360,185 Q281,185 281,129 L281,-63 Q281,-278 23,-278 L23,-94 Q62,-94 75,-85 Q88,-76 88,-46 L88,116 Q88,221 194,255 Q88,289 88,394"/> 
            <glyph glyph-name="~" unicode="&#x7E;" horiz-adv-x="494" d=" M334,429 L494,429 Q494,362 469.5,315 Q445,268 405,250 Q367,233 325,234.5 Q283,236 249,256 L216,275 Q173,300 173,247 L12,247 Q12,303 29,344 Q46,385 73,406 Q100,427 132.5,435 Q165,443 197.5,438.5 Q230,434 258,419 L290,400 Q334,377 334,429"/> 
            <glyph glyph-name="¡" unicode="&#xA1;" horiz-adv-x="261" d=" M154,509 Q198,509 228.5,480 Q259,451 259,408 Q259,366 228.5,337.5 Q198,309 154,309 Q111,309 80.5,337.5 Q50,366 50,408 Q50,450 80.5,479.5 Q111,509 154,509 M59,264 L245,264 L261,-187 L43,-187"/> 
            <glyph glyph-name="¢" unicode="&#xA2;" horiz-adv-x="487" d=" M470,167 L487,25 Q430,7 378,0 L378,-104 L234,-104 L234,3 Q138,23 83,90 Q27,158 27,255 Q27,354 82.5,422 Q138,490 234,510 L234,619 L378,619 L378,513 Q430,506 487,488 L464,346 Q366,361 319,361 Q271,361 241,331 Q211,302 211,255 Q211,209 241,181 Q271,153 320,153 Q372,153 470,167"/> 
            <glyph glyph-name="£" unicode="&#xA3;" horiz-adv-x="583" d=" M583,0 L27,0 L27,165 L79,165 L79,264 L27,264 L27,402 L79,402 L79,478 Q79,572 150,631 Q223,690 340,690 Q434,690 541,665 L517,512 Q399,531 361,531 Q269,531 269,450 L269,402 L440,402 L440,264 L269,264 L269,165 L583,165"/> 
            <glyph glyph-name="¥" unicode="&#xA5;" horiz-adv-x="744" d=" M666,292 L666,193 L477,193 L477,152 L666,152 L666,53 L477,53 L477,0 L276,0 L276,53 L86,53 L86,152 L275,152 L275,193 L86,193 L86,292 L227,292 L8,680 L232,680 L375,420 L520,680 L744,680 L525,292"/> 
            <glyph glyph-name="¦" unicode="&#xA6;" horiz-adv-x="252" d=" M252,356 L87,356 L87,764 L252,764 M252,-154 L87,-154 L87,254 L252,254"/> 
            <glyph glyph-name="§" unicode="&#xA7;" horiz-adv-x="575" d=" M319,695 Q444,695 531,644 L478,505 Q381,554 314,554 Q254,554 254,519 Q254,507 260,498.5 Q266,490 284,482 Q302,474 314.5,470 Q327,466 360,456 Q373,452 380,450 Q461,427 514,390 Q575,348 575,264 Q575,170 491,116 Q525,76 525,19 Q525,-67 459.5,-116.5 Q394,-166 283,-166 Q161,-166 70,-116 L124,23 Q220,-25 288,-25 Q348,-25 348,10 Q348,30 326.5,42 Q305,54 246,71 L221,78 Q135,105 87,138 Q27,180 27,265 Q27,359 110,413 Q77,452 77,510 Q77,596 142.5,645.5 Q208,695 319,695 M238,335 Q214,310 214,282 Q214,240 319,209 L364,194 Q388,222 388,247 Q388,287 282,320"/> 
            <glyph glyph-name="¨" unicode="&#xA8;" horiz-adv-x="524" d=" M178,746 Q220,746 250,718 Q280,690 280,648 Q280,606 250.5,578.5 Q221,551 178,551 Q135,551 105.5,578.5 Q76,606 76,648 Q76,690 105.5,718 Q135,746 178,746 M422,746 Q464,746 494,718 Q524,690 524,648 Q524,606 494.5,578.5 Q465,551 422,551 Q379,551 349.5,578.5 Q320,606 320,648 Q320,690 349.5,718 Q379,746 422,746"/> 
            <glyph glyph-name="©" unicode="&#xA9;" horiz-adv-x="760" d=" M135,593 Q238,695 395,695 Q552,695 655,593 Q760,492 760,340 Q760,188 655,86 Q551,-15 395,-15 Q239,-15 135,86 Q31,188 31,340 Q31,492 135,593 M395,603 Q280,603 203,527 Q126,452 126,340 Q126,229 203,152 Q281,77 395,77 Q510,77 587,152 Q665,229 665,340 Q665,452 587,527 Q511,603 395,603 M523,497 L508,403 Q448,413 411,413 Q375,413 355.5,393.5 Q336,374 336,341 Q336,308 355.5,289 Q375,270 411,270 Q445,270 512,280 L523,186 Q460,166 406,166 Q316,166 265.5,212.5 Q215,259 215,341 Q215,422 265.5,470 Q316,518 406,518 Q458,518 523,497"/> 
            <glyph glyph-name="ª" unicode="&#xAA;" horiz-adv-x="413" d=" M244,695 Q323,696 368,660.5 Q413,625 413,561 L413,342 Q278,324 178,324 Q112,324 74.5,355.5 Q37,387 37,439 Q37,489 72.5,512.5 Q108,536 182,540 L274,545 L274,549 Q273,577 231,577 Q174,577 83,566 L68,679 Q167,693 244,695 M274,474 L210,471 Q176,468 176,446 Q176,421 213,421 Q235,421 274,424"/> 
            <glyph glyph-name="«" unicode="&#xAB;" horiz-adv-x="617" d=" M340,119 L227,19 L27,249 L227,480 L340,383 L234,250 M616,119 L503,19 L303,249 L503,480 L617,383 L510,250"/> 
            <glyph glyph-name="®" unicode="&#xAE;" horiz-adv-x="760" d=" M135,593 Q238,695 395,695 Q552,695 655,593 Q760,492 760,340 Q760,188 655,86 Q551,-15 395,-15 Q239,-15 135,86 Q31,188 31,340 Q31,492 135,593 M395,603 Q280,603 203,527 Q126,452 126,340 Q126,229 203,152 Q281,77 395,77 Q510,77 587,152 Q665,229 665,340 Q665,452 587,527 Q511,603 395,603 M400,513 Q473,513 513,481 Q553,449 553,389 Q553,326 500,293 L577,179 L450,179 L396,267 L388,267 L360,267 L360,179 L250,179 L250,510 Q319,513 400,513 M401,425 Q369,425 360,424 L360,353 L403,353 Q419,353 430.5,364 Q442,375 442,390 Q442,406 430.5,415.5 Q419,425 401,425"/> 
            <glyph glyph-name="¯" unicode="&#xAF;" horiz-adv-x="447" d=" M447,702 L447,562 L153,562 L153,702"/> 
            <glyph glyph-name="°" unicode="&#xB0;" horiz-adv-x="412" d=" M412,595 Q412,441 360,390 Q307,340 229,340 Q151,340 98,390 Q46,441 46,518 Q46,595 98,644 Q151,695 229,695 Q308,695 360,644 M297,518 Q297,546 277.5,565 Q258,584 229,584 Q200,584 180.5,565 Q161,546 161,518 Q161,489 180.5,470 Q200,451 229,451 Q258,451 277.5,470 Q297,489 297,518"/> 
            <glyph glyph-name="±" unicode="&#xB1;" horiz-adv-x="562" d=" M562,327 L398,327 L398,210 L258,210 L258,327 L93,327 L93,462 L258,462 L258,579 L398,579 L398,462 L562,462 M562,172 L562,37 L93,37 L93,172"/> 
            <glyph glyph-name="²" unicode="&#xB2;" horiz-adv-x="347" d=" M347,274 L22,274 L22,361 L183,488 Q207,508 207,533 Q207,572 157,572 Q116,572 36,548 L13,657 Q99,688 179,688 Q257,688 298.5,652 Q340,616 340,557 Q340,512 319.5,478 Q299,444 251,405 L224,384 L347,384"/> 
            <glyph glyph-name="³" unicode="&#xB3;" horiz-adv-x="361" d=" M352,614 L261,518 L265,517 Q310,506 335.5,477.5 Q361,449 361,409 Q361,267 186,267 Q100,267 10,301 L44,400 Q129,372 184,373 Q239,374 239,406 Q239,433 196,433 L98,433 L98,484 L181,569 L33,569 L33,681 L352,681"/> 
            <glyph glyph-name="´" unicode="&#xB4;" horiz-adv-x="522" d=" M522,717 L382,560 L201,560 L294,717"/> 
            <glyph glyph-name="¶" unicode="&#xB6;" horiz-adv-x="717" d=" M286,689 Q602,689 717,680 L717,-111 L560,-111 L560,544 Q547,545 501,545 L501,-111 L345,-111 L345,200 L286,200 Q167,200 93,268 Q20,337 20,448 Q20,559 93,623 Q166,689 286,689 M345,549 L269,550 Q223,550 194.5,522 Q166,494 166,447 Q166,397 194.5,367 Q223,337 269,337 L345,337"/> 
            <glyph glyph-name="·" unicode="&#xB7;" horiz-adv-x="284" d=" M250,189 Q216,157 168,157 Q120,157 86,189 Q53,220 53,268 Q53,314 86,346 Q120,378 168,378 Q216,378 250,346 Q284,315 284,268 Q284,220 250,189"/> 
            <glyph glyph-name="¸" unicode="&#xB8;" horiz-adv-x="402" d=" M329,-213 L194,-213 L237,-46 L402,-46"/> 
            <glyph glyph-name="¹" unicode="&#xB9;" horiz-adv-x="310" d=" M310,388 L310,275 L26,275 L26,388 L105,388 L105,538 L33,521 L8,628 L187,680 L233,680 L233,388"/> 
            <glyph glyph-name="º" unicode="&#xBA;" horiz-adv-x="423" d=" M423,511 Q423,428 369,375 Q315,324 227,324 Q140,324 84,375 Q30,428 30,511 Q30,593 84,644 Q139,695 227,695 Q315,695 369,644 Q423,593 423,511 M227,448 Q252,448 269.5,466 Q287,484 287,511 Q287,537 269.5,554 Q252,571 227,571 Q201,571 184,554.5 Q167,538 167,511 Q167,483 184,465.5 Q201,448 227,448"/> 
            <glyph glyph-name="»" unicode="&#xBB;" horiz-adv-x="637" d=" M47,383 L160,480 L360,249 L160,19 L47,119 L153,250 M323,383 L437,480 L637,249 L437,19 L324,119 L430,250"/> 
            <glyph glyph-name="¼" unicode="&#xBC;" horiz-adv-x="892" d=" M62,275 L62,388 L141,388 L141,538 L69,521 L44,628 L223,680 L269,680 L269,388 L346,388 L346,275 M761,680 L291,0 L198,0 L668,680 M892,174 L892,73 L841,73 L841,0 L722,0 L722,73 L489,73 L489,162 L711,405 L841,405 L841,174 M722,275 L635,174 L722,174"/> 
            <glyph glyph-name="½" unicode="&#xBD;" horiz-adv-x="914" d=" M59,275 L59,388 L138,388 L138,538 L66,521 L41,628 L220,680 L266,680 L266,388 L343,388 L343,275 M754,680 L285,0 L192,0 L661,680 M914,110 L914,0 L589,0 L589,87 L749,214 Q773,234 773,259 Q773,298 723,298 Q682,298 602,274 L580,383 Q666,414 745,414 Q823,414 864.5,378 Q906,342 906,283 Q906,237 885.5,202.5 Q865,168 817,131 L791,110"/> 
            <glyph glyph-name="¾" unicode="&#xBE;" horiz-adv-x="903" d=" M375,614 L284,518 L288,517 Q333,506 358.5,477.5 Q384,449 384,409 Q384,267 209,267 Q123,267 33,301 L67,400 Q152,372 207,373 Q262,374 262,406 Q262,433 219,433 L121,433 L121,484 L204,569 L56,569 L56,681 L375,681 M852,174 L903,174 L903,73 L852,73 L852,0 L734,0 L734,73 L500,73 L500,162 L722,405 L852,405 M647,174 L734,174 L734,275 M297,0 L204,0 L674,680 L767,680"/> 
            <glyph glyph-name="¿" unicode="&#xBF;" horiz-adv-x="485" d=" M304,315 Q261,315 230,344 Q199,373 199,415 Q199,457 230,486.5 Q261,516 304,516 Q348,516 378.5,487 Q409,458 409,415 Q409,373 378.5,344 Q348,315 304,315 M283,-196 Q166,-196 93,-137 Q22,-78 22,16 Q22,103 77,164 Q133,226 221,226 L225,226 L224,277 L395,277 L414,99 L299,99 Q253,99 227,80.5 Q201,62 201,29 Q201,-2 224.5,-19.5 Q248,-37 292,-37 Q342,-37 460,-18 L485,-171 Q375,-196 283,-196"/> 
            <glyph glyph-name="À" unicode="&#xC0;" horiz-adv-x="784" d=" M490,737 L308,737 L168,890 L397,890 M256,93 L220,0 L7,0 L302,684 L489,684 L784,0 L571,0 L535,93 M395,459 L318,258 L472,258"/> 
            <glyph glyph-name="Á" unicode="&#xC1;" horiz-adv-x="784" d=" M627,890 L487,737 L303,737 L399,890 M256,93 L220,0 L7,0 L302,684 L489,684 L784,0 L571,0 L535,93 M395,459 L318,258 L472,258"/> 
            <glyph glyph-name="Â" unicode="&#xC2;" horiz-adv-x="784" d=" M395,793 L351,737 L183,737 L311,890 L478,890 L606,737 L438,737 M256,93 L220,0 L7,0 L302,684 L489,684 L784,0 L571,0 L535,93 M395,459 L318,258 L472,258"/> 
            <glyph glyph-name="Ã" unicode="&#xC3;" horiz-adv-x="784" d=" M476,903 L615,903 Q615,845 593,804 Q571,763 537,747 Q466,716 402,753 L374,770 Q336,788 336,746 L197,746 Q197,805 219,845 Q241,885 274.5,899.5 Q308,914 344,913 Q380,912 410,895 L438,878 Q476,855 476,903 M256,93 L220,0 L7,0 L302,684 L489,684 L784,0 L571,0 L535,93 M395,459 L318,258 L472,258"/> 
            <glyph glyph-name="Ä" unicode="&#xC4;" horiz-adv-x="784" d=" M273,923 Q315,923 345,895 Q375,867 375,825 Q375,783 345.5,755.5 Q316,728 273,728 Q230,728 200.5,755.5 Q171,783 171,825 Q171,867 200.5,895 Q230,923 273,923 M517,728 Q474,728 444,755.5 Q414,783 414,825 Q414,867 444,895 Q474,923 517,923 Q559,923 588.5,895 Q618,867 618,825 Q618,784 588.5,756 Q559,728 517,728 M256,93 L220,0 L7,0 L302,684 L489,684 L784,0 L571,0 L535,93 M395,459 L318,258 L472,258"/> 
            <glyph glyph-name="Å" unicode="&#xC5;" horiz-adv-x="784" d=" M535,849 Q535,791 495.5,754.5 Q456,718 394,718 Q332,718 292.5,754.5 Q253,791 253,849 Q253,908 292,944 Q331,980 394,980 Q457,980 496,944 Q535,908 535,849 M346,828 Q372,802 394,802 Q416,802 429,815 Q442,828 442,849 Q442,870 429,883 Q416,896 394,896 Q372,896 359,883 Q346,870 346,828 M256,93 L220,0 L7,0 L302,684 L489,684 L784,0 L571,0 L535,93 M395,459 L318,258 L472,258"/> 
            <glyph glyph-name="Æ" unicode="&#xC6;" horiz-adv-x="1076" d=" M749,422 L1029,422 L1029,260 L749,260 L749,169 L1076,169 L1076,0 L548,0 L548,94 L295,94 L234,0 L7,0 L461,680 L1076,680 L1076,511 L749,511 M548,487 L400,257 L548,257"/> 
            <glyph glyph-name="Ç" unicode="&#xC7;" horiz-adv-x="678" d=" M678,660 L647,482 Q505,508 440,508 Q354,508 302.5,462 Q251,416 251,341 Q251,265 301,218 Q353,171 435,171 Q493,171 647,197 L678,23 Q539,-14 418,-14 Q246,-14 140,83 Q34,180 34,340 Q34,499 140,596 Q247,694 418,694 Q539,694 678,660 M380,-213 L245,-213 L288,-46 L453,-46"/> 
            <glyph glyph-name="È" unicode="&#xC8;" horiz-adv-x="581" d=" M407,737 L225,737 L85,890 L314,890 M254,422 L534,422 L534,260 L254,260 L254,169 L581,169 L581,0 L53,0 L53,680 L581,680 L581,511 L254,511"/> 
            <glyph glyph-name="É" unicode="&#xC9;" horiz-adv-x="581" d=" M543,890 L403,737 L219,737 L315,890 M254,422 L534,422 L534,260 L254,260 L254,169 L581,169 L581,0 L53,0 L53,680 L581,680 L581,511 L254,511"/> 
            <glyph glyph-name="Ê" unicode="&#xCA;" horiz-adv-x="581" d=" M311,793 L267,737 L99,737 L227,890 L394,890 L522,737 L354,737 M254,422 L534,422 L534,260 L254,260 L254,169 L581,169 L581,0 L53,0 L53,680 L581,680 L581,511 L254,511"/> 
            <glyph glyph-name="Ë" unicode="&#xCB;" horiz-adv-x="581" d=" M189,923 Q231,923 261,895 Q291,867 291,825 Q291,783 261.5,755.5 Q232,728 189,728 Q146,728 116.5,755.5 Q87,783 87,825 Q87,867 116.5,895 Q146,923 189,923 M433,728 Q390,728 360,755.5 Q330,783 330,825 Q330,867 360,895 Q390,923 433,923 Q475,923 504.5,895 Q534,867 534,825 Q534,784 504.5,756 Q475,728 433,728 M254,422 L534,422 L534,260 L254,260 L254,169 L581,169 L581,0 L53,0 L53,680 L581,680 L581,511 L254,511"/> 
            <glyph glyph-name="Ì" unicode="&#xCC;" horiz-adv-x="251" d=" M251,680 L251,0 L50,0 L50,680 M246,737 L64,737 L-76,890 L153,890"/> 
            <glyph glyph-name="Í" unicode="&#xCD;" horiz-adv-x="383" d=" M251,680 L251,0 L50,0 L50,680 M383,890 L243,737 L59,737 L155,890"/> 
            <glyph glyph-name="Î" unicode="&#xCE;" horiz-adv-x="362" d=" M151,793 L107,737 L-61,737 L67,890 L234,890 L362,737 L194,737 M251,680 L251,0 L50,0 L50,680"/> 
            <glyph glyph-name="Ï" unicode="&#xCF;" horiz-adv-x="374" d=" M29,923 Q71,923 101,895 Q131,867 131,825 Q131,783 101.5,755.5 Q72,728 29,728 Q-14,728 -43.5,755.5 Q-73,783 -73,825 Q-73,867 -43.5,895 Q-14,923 29,923 M273,728 Q230,728 200,755.5 Q170,783 170,825 Q170,867 200,895 Q230,923 273,923 Q315,923 344.5,895 Q374,867 374,825 Q374,784 344.5,756 Q315,728 273,728 M251,680 L251,0 L50,0 L50,680"/> 
            <glyph glyph-name="Ð" unicode="&#xD0;" horiz-adv-x="695" d=" M317,688 Q491,688 593,595 Q695,503 695,341 Q695,179 595,85 Q496,-8 330,-8 Q227,-8 53,0 L53,249 L14,249 L14,415 L53,415 L53,680 Q271,688 317,688 M338,168 Q405,168 447.5,215.5 Q490,263 490,341 Q490,419 446.5,465.5 Q403,512 331,512 Q325,512 255,510 L255,415 L362,415 L362,249 L255,249 L255,169 Q277,169 296,168"/> 
            <glyph glyph-name="Ñ" unicode="&#xD1;" horiz-adv-x="711" d=" M460,903 L599,903 Q599,845 577,804 Q555,763 521,747 Q450,716 386,753 L358,770 Q320,788 320,746 L181,746 Q181,805 203,845 Q225,885 258.5,899.5 Q292,914 328,913 Q364,912 394,895 L422,878 Q460,855 460,903 M711,680 L711,0 L532,0 L254,343 L254,0 L53,0 L53,680 L238,680 L510,336 L510,680"/> 
            <glyph glyph-name="Ò" unicode="&#xD2;" horiz-adv-x="767" d=" M496,737 L314,737 L174,890 L403,890 M135,597 Q238,695 401,695 Q565,695 666,597 Q767,499 767,340 Q767,181 666,83 Q565,-15 401,-15 Q238,-15 135,83 Q34,181 34,340 Q34,499 135,597 M401,167 Q473,167 517.5,214.5 Q562,262 562,340 Q562,418 517.5,465.5 Q473,513 401,513 Q330,513 285.5,465.5 Q241,418 241,340 Q241,262 285.5,214.5 Q330,167 401,167"/> 
            <glyph glyph-name="Ó" unicode="&#xD3;" horiz-adv-x="767" d=" M633,890 L493,737 L309,737 L405,890 M135,597 Q238,695 401,695 Q565,695 666,597 Q767,499 767,340 Q767,181 666,83 Q565,-15 401,-15 Q238,-15 135,83 Q34,181 34,340 Q34,499 135,597 M401,167 Q473,167 517.5,214.5 Q562,262 562,340 Q562,418 517.5,465.5 Q473,513 401,513 Q330,513 285.5,465.5 Q241,418 241,340 Q241,262 285.5,214.5 Q330,167 401,167"/> 
            <glyph glyph-name="Ô" unicode="&#xD4;" horiz-adv-x="767" d=" M401,793 L357,737 L189,737 L317,890 L484,890 L612,737 L444,737 M135,597 Q238,695 401,695 Q565,695 666,597 Q767,499 767,340 Q767,181 666,83 Q565,-15 401,-15 Q238,-15 135,83 Q34,181 34,340 Q34,499 135,597 M401,167 Q473,167 517.5,214.5 Q562,262 562,340 Q562,418 517.5,465.5 Q473,513 401,513 Q330,513 285.5,465.5 Q241,418 241,340 Q241,262 285.5,214.5 Q330,167 401,167"/> 
            <glyph glyph-name="Õ" unicode="&#xD5;" horiz-adv-x="767" d=" M482,903 L621,903 Q621,845 599,804 Q577,763 543,747 Q472,716 408,753 L380,770 Q342,788 342,746 L203,746 Q203,805 225,845 Q247,885 280.5,899.5 Q314,914 350,913 Q386,912 416,895 L444,878 Q482,855 482,903 M135,597 Q238,695 401,695 Q565,695 666,597 Q767,499 767,340 Q767,181 666,83 Q565,-15 401,-15 Q238,-15 135,83 Q34,181 34,340 Q34,499 135,597 M401,167 Q473,167 517.5,214.5 Q562,262 562,340 Q562,418 517.5,465.5 Q473,513 401,513 Q330,513 285.5,465.5 Q241,418 241,340 Q241,262 285.5,214.5 Q330,167 401,167"/> 
            <glyph glyph-name="Ö" unicode="&#xD6;" horiz-adv-x="767" d=" M279,923 Q321,923 351,895 Q381,867 381,825 Q381,783 351.5,755.5 Q322,728 279,728 Q236,728 206.5,755.5 Q177,783 177,825 Q177,867 206.5,895 Q236,923 279,923 M523,728 Q480,728 450,755.5 Q420,783 420,825 Q420,867 450,895 Q480,923 523,923 Q565,923 594.5,895 Q624,867 624,825 Q624,784 594.5,756 Q565,728 523,728 M135,597 Q238,695 401,695 Q565,695 666,597 Q767,499 767,340 Q767,181 666,83 Q565,-15 401,-15 Q238,-15 135,83 Q34,181 34,340 Q34,499 135,597 M401,167 Q473,167 517.5,214.5 Q562,262 562,340 Q562,418 517.5,465.5 Q473,513 401,513 Q330,513 285.5,465.5 Q241,418 241,340 Q241,262 285.5,214.5 Q330,167 401,167"/> 
            <glyph glyph-name="×" unicode="&#xD7;" horiz-adv-x="546" d=" M546,184 L450,88 L314,225 L177,88 L81,184 L218,321 L81,457 L177,553 L314,417 L450,553 L546,457 L410,321"/> 
            <glyph glyph-name="Ø" unicode="&#xD8;" horiz-adv-x="767" d=" M714,634 L675,588 Q767,490 767,340 Q767,181 666,83 Q565,-15 401,-15 Q286,-15 201,34 L161,-13 L84,52 L122,97 Q34,192 34,340 Q34,499 135,597 Q238,695 401,695 Q512,695 595,649 L637,699 M241,340 Q241,295 258,256 L467,500 Q440,513 401,513 Q330,513 285.5,465.5 Q241,418 241,340 M401,167 Q473,167 517.5,214.5 Q562,262 562,340 Q562,393 541,432 L328,183 Q361,167 401,167"/> 
            <glyph glyph-name="Ù" unicode="&#xD9;" horiz-adv-x="696" d=" M465,737 L283,737 L143,890 L372,890 M696,680 L696,319 Q696,160 610,72.5 Q524,-15 369,-15 Q215,-15 129,72.5 Q43,160 43,319 L43,680 L247,680 L247,319 Q247,250 279.5,211.5 Q312,173 369,173 Q426,173 459,211.5 Q492,250 492,319 L492,680"/> 
            <glyph glyph-name="Ú" unicode="&#xDA;" horiz-adv-x="696" d=" M602,890 L462,737 L278,737 L374,890 M696,680 L696,319 Q696,160 610,72.5 Q524,-15 369,-15 Q215,-15 129,72.5 Q43,160 43,319 L43,680 L247,680 L247,319 Q247,250 279.5,211.5 Q312,173 369,173 Q426,173 459,211.5 Q492,250 492,319 L492,680"/> 
            <glyph glyph-name="Û" unicode="&#xDB;" horiz-adv-x="696" d=" M370,793 L326,737 L158,737 L286,890 L453,890 L581,737 L413,737 M696,680 L696,319 Q696,160 610,72.5 Q524,-15 369,-15 Q215,-15 129,72.5 Q43,160 43,319 L43,680 L247,680 L247,319 Q247,250 279.5,211.5 Q312,173 369,173 Q426,173 459,211.5 Q492,250 492,319 L492,680"/> 
            <glyph glyph-name="Ü" unicode="&#xDC;" horiz-adv-x="696" d=" M248,923 Q290,923 320,895 Q350,867 350,825 Q350,783 320.5,755.5 Q291,728 248,728 Q205,728 175.5,755.5 Q146,783 146,825 Q146,867 175.5,895 Q205,923 248,923 M492,728 Q449,728 419,755.5 Q389,783 389,825 Q389,867 419,895 Q449,923 492,923 Q534,923 563.5,895 Q593,867 593,825 Q593,784 563.5,756 Q534,728 492,728 M696,680 L696,319 Q696,160 610,72.5 Q524,-15 369,-15 Q215,-15 129,72.5 Q43,160 43,319 L43,680 L247,680 L247,319 Q247,250 279.5,211.5 Q312,173 369,173 Q426,173 459,211.5 Q492,250 492,319 L492,680"/> 
            <glyph glyph-name="Ý" unicode="&#xDD;" horiz-adv-x="744" d=" M275,205 L8,680 L232,680 L375,420 L520,680 L744,680 L477,205 L477,0 L276,0 M608,890 L468,737 L284,737 L380,890"/> 
            <glyph glyph-name="Þ" unicode="&#xDE;" horiz-adv-x="638" d=" M332,608 Q477,608 557.5,538.5 Q638,469 638,343 Q638,220 556.5,151 Q475,82 332,82 L255,82 L255,0 L53,0 L53,680 L255,680 L255,607 L293,607 Q310,608 332,608 M255,252 L336,252 Q381,252 408,276.5 Q435,301 435,343 Q435,389 409,413.5 Q383,438 336,438 Q272,438 255,437"/> 
            <glyph glyph-name="ß" unicode="&#xDF;" horiz-adv-x="674" d=" M309,777 L309,617 Q244,617 244,551 L244,492 L643,492 L643,391 L524,225 L529,224 Q595,213 634.5,158.5 Q674,104 674,25 Q674,-85 605,-147 Q536,-209 413,-209 Q344,-209 257,-186 L280,-37 Q366,-51 409,-51 Q448,-51 471.5,-28 Q495,-5 495,31 Q495,61 470,80 Q445,99 406,99 L318,99 L318,176 L413,326 L244,326 L244,0 L51,0 L51,562 Q51,777 309,777"/> 
            <glyph glyph-name="à" unicode="&#xE0;" horiz-adv-x="586" d=" M426,565 L245,565 L105,722 L333,722 M274,507 Q372,507 586,483 L586,0 L392,0 L392,31 Q334,-15 257,-15 Q219,-15 180,1 Q141,17 106,47.5 Q71,78 49,130.5 Q27,183 27,249 Q32,366 97,436 Q165,507 274,507 M312,357 Q266,357 239,327 Q212,297 212,247 Q212,201 239.5,171.5 Q267,142 309,142 Q349,142 392,179 L392,352 Q327,357 312,357"/> 
            <glyph glyph-name="á" unicode="&#xE1;" horiz-adv-x="586" d=" M560,722 L420,565 L239,565 L332,722 M274,507 Q372,507 586,483 L586,0 L392,0 L392,31 Q334,-15 257,-15 Q219,-15 180,1 Q141,17 106,47.5 Q71,78 49,130.5 Q27,183 27,249 Q32,366 97,436 Q165,507 274,507 M312,357 Q266,357 239,327 Q212,297 212,247 Q212,201 239.5,171.5 Q267,142 309,142 Q349,142 392,179 L392,352 Q327,357 312,357"/> 
            <glyph glyph-name="â" unicode="&#xE2;" horiz-adv-x="586" d=" M334,620 L290,567 L122,567 L250,718 L417,718 L545,567 L377,567 M274,507 Q372,507 586,483 L586,0 L392,0 L392,31 Q334,-15 257,-15 Q219,-15 180,1 Q141,17 106,47.5 Q71,78 49,130.5 Q27,183 27,249 Q32,366 97,436 Q165,507 274,507 M312,357 Q266,357 239,327 Q212,297 212,247 Q212,201 239.5,171.5 Q267,142 309,142 Q349,142 392,179 L392,352 Q327,357 312,357"/> 
            <glyph glyph-name="ã" unicode="&#xE3;" horiz-adv-x="586" d=" M408,723 L540,723 Q540,666 518.5,627.5 Q497,589 465.5,575 Q434,561 399.5,562 Q365,563 336,580 L309,597 Q272,618 272,573 L140,573 Q140,630 161,668 Q182,706 213.5,720 Q245,734 280,733 Q315,732 344,716 L371,699 Q408,680 408,723 M274,507 Q372,507 586,483 L586,0 L392,0 L392,31 Q334,-15 257,-15 Q219,-15 180,1 Q141,17 106,47.5 Q71,78 49,130.5 Q27,183 27,249 Q32,366 97,436 Q165,507 274,507 M312,357 Q266,357 239,327 Q212,297 212,247 Q212,201 239.5,171.5 Q267,142 309,142 Q349,142 392,179 L392,352 Q327,357 312,357"/> 
            <glyph glyph-name="ä" unicode="&#xE4;" horiz-adv-x="586" d=" M212,751 Q254,751 284,723 Q314,695 314,653 Q314,611 284.5,583.5 Q255,556 212,556 Q169,556 139.5,583.5 Q110,611 110,653 Q110,695 139.5,723 Q169,751 212,751 M456,751 Q498,751 528,723 Q558,695 558,653 Q558,611 528.5,583.5 Q499,556 456,556 Q413,556 383.5,583.5 Q354,611 354,653 Q354,695 383.5,723 Q413,751 456,751 M274,507 Q372,507 586,483 L586,0 L392,0 L392,31 Q334,-15 257,-15 Q219,-15 180,1 Q141,17 106,47.5 Q71,78 49,130.5 Q27,183 27,249 Q32,366 97,436 Q165,507 274,507 M312,357 Q266,357 239,327 Q212,297 212,247 Q212,201 239.5,171.5 Q267,142 309,142 Q349,142 392,179 L392,352 Q327,357 312,357"/> 
            <glyph glyph-name="å" unicode="&#xE5;" horiz-adv-x="586" d=" M231,785 Q271,822 333,822 Q396,822 434,785 Q474,749 474,691 Q474,633 434,596 Q395,560 333,560 Q272,560 231,596 Q192,634 192,691 Q192,749 231,785 M285,670 Q311,644 333,644 Q355,644 368,657 Q381,670 381,691 Q381,712 368,725 Q355,738 333,738 Q311,738 298,725 Q285,712 285,670 M274,507 Q372,507 586,483 L586,0 L392,0 L392,31 Q334,-15 257,-15 Q219,-15 180,1 Q141,17 106,47.5 Q71,78 49,130.5 Q27,183 27,249 Q32,366 97,436 Q165,507 274,507 M312,357 Q266,357 239,327 Q212,297 212,247 Q212,201 239.5,171.5 Q267,142 309,142 Q349,142 392,179 L392,352 Q327,357 312,357"/> 
            <glyph glyph-name="æ" unicode="&#xE6;" horiz-adv-x="849" d=" M849,276 Q849,235 839,191 L527,191 Q552,133 635,133 Q705,133 808,155 L831,26 Q717,-15 627,-15 Q534,-15 469,22 Q331,-15 220,-15 Q128,-15 76.5,29 Q25,73 25,147 Q25,222 74,257 Q123,292 230,291 L334,290 L333,301 Q331,333 318.5,345 Q306,357 273,357 Q208,357 89,341 L69,486 Q219,508 295,508 Q396,510 449,466 Q514,508 599,508 Q711,508 779,444 Q849,380 849,277 M607,365 Q538,365 521,291 L686,291 Q684,325 663,345 Q642,365 607,365 M204,149 Q204,111 266,111 Q314,111 370,123 Q355,154 348,184 L260,184 Q204,184 204,149"/> 
            <glyph glyph-name="ç" unicode="&#xE7;" horiz-adv-x="487" d=" M487,480 L464,339 Q366,354 329,354 Q274,354 242,324.5 Q210,295 210,246 Q210,199 241.5,170.5 Q273,142 326,142 Q380,142 470,157 L487,15 Q394,-15 311,-15 Q184,-15 105,57 Q27,129 27,246 Q27,365 105,437 Q184,509 312,509 Q395,509 487,480 M284,-213 L149,-213 L192,-46 L357,-46"/> 
            <glyph glyph-name="è" unicode="&#xE8;" horiz-adv-x="531" d=" M376,560 L195,560 L55,717 L283,717 M281,508 Q393,508 461,444 Q531,380 531,277 Q531,235 521,191 L209,191 Q234,133 311,133 Q387,133 490,155 L513,26 Q399,-15 309,-15 Q177,-15 100,58 Q23,132 23,248 Q23,365 94,436 Q166,508 281,508 M289,365 Q220,365 203,291 L368,291 Q367,325 346,345 Q325,365 289,365"/> 
            <glyph glyph-name="é" unicode="&#xE9;" horiz-adv-x="531" d=" M510,717 L370,560 L189,560 L282,717 M281,508 Q393,508 461,444 Q531,380 531,277 Q531,235 521,191 L209,191 Q234,133 311,133 Q387,133 490,155 L513,26 Q399,-15 309,-15 Q177,-15 100,58 Q23,132 23,248 Q23,365 94,436 Q166,508 281,508 M289,365 Q220,365 203,291 L368,291 Q367,325 346,345 Q325,365 289,365"/> 
            <glyph glyph-name="ê" unicode="&#xEA;" horiz-adv-x="531" d=" M284,615 L240,562 L72,562 L200,713 L367,713 L495,562 L327,562 M281,508 Q393,508 461,444 Q531,380 531,277 Q531,235 521,191 L209,191 Q234,133 311,133 Q387,133 490,155 L513,26 Q399,-15 309,-15 Q177,-15 100,58 Q23,132 23,248 Q23,365 94,436 Q166,508 281,508 M289,365 Q220,365 203,291 L368,291 Q367,325 346,345 Q325,365 289,365"/> 
            <glyph glyph-name="ë" unicode="&#xEB;" horiz-adv-x="531" d=" M162,746 Q204,746 234,718 Q264,690 264,648 Q264,606 234.5,578.5 Q205,551 162,551 Q119,551 89.5,578.5 Q60,606 60,648 Q60,690 89.5,718 Q119,746 162,746 M406,746 Q448,746 478,718 Q508,690 508,648 Q508,606 478.5,578.5 Q449,551 406,551 Q363,551 333.5,578.5 Q304,606 304,648 Q304,690 333.5,718 Q363,746 406,746 M281,508 Q393,508 461,444 Q531,380 531,277 Q531,235 521,191 L209,191 Q234,133 311,133 Q387,133 490,155 L513,26 Q399,-15 309,-15 Q177,-15 100,58 Q23,132 23,248 Q23,365 94,436 Q166,508 281,508 M289,365 Q220,365 203,291 L368,291 Q367,325 346,345 Q325,365 289,365"/> 
            <glyph glyph-name="ì" unicode="&#xEC;" horiz-adv-x="240" d=" M235,560 L54,560 L-86,717 L142,717 M240,492 L240,0 L46,0 L46,492"/> 
            <glyph glyph-name="í" unicode="&#xED;" horiz-adv-x="369" d=" M369,717 L229,560 L48,560 L141,717 M240,492 L240,0 L46,0 L46,492"/> 
            <glyph glyph-name="î" unicode="&#xEE;" horiz-adv-x="354" d=" M143,615 L99,562 L-69,562 L59,713 L226,713 L354,562 L186,562 M240,492 L240,0 L46,0 L46,492"/> 
            <glyph glyph-name="ï" unicode="&#xEF;" horiz-adv-x="367" d=" M21,746 Q63,746 93,718 Q123,690 123,648 Q123,606 93.5,578.5 Q64,551 21,551 Q-22,551 -51.5,578.5 Q-81,606 -81,648 Q-81,690 -51.5,718 Q-22,746 21,746 M265,746 Q307,746 337,718 Q367,690 367,648 Q367,606 337.5,578.5 Q308,551 265,551 Q222,551 192.5,578.5 Q163,606 163,648 Q163,690 192.5,718 Q222,746 265,746 M240,492 L240,0 L46,0 L46,492"/> 
            <glyph glyph-name="ð" unicode="&#xF0;" horiz-adv-x="575" d=" M136,688 L263,735 Q306,716 351,685 L453,722 L487,634 L436,615 Q575,479 575,275 Q575,139 500,61 Q425,-16 301,-16 Q179,-16 103,57 Q27,130 27,249 Q27,365 99,437 Q172,510 282,510 Q315,510 351,496 Q309,548 293,563 L135,506 L100,595 L212,635 M301,350 Q258,350 231,322 Q204,294 204,248 Q204,201 231,172.5 Q258,144 301,144 Q343,144 370.5,172.5 Q398,201 398,248 Q398,293 370.5,321.5 Q343,350 301,350"/> 
            <glyph glyph-name="ñ" unicode="&#xF1;" horiz-adv-x="582" d=" M386,507 Q474,507 528,455 Q582,403 582,318 L582,0 L388,0 L388,258 Q388,334 325,334 Q317,334 245,330 L245,0 L51,0 L51,483 Q264,507 386,507 M388,718 L520,718 Q520,661 498.5,622.5 Q477,584 445.5,570 Q414,556 379.5,557 Q345,558 316,575 L289,592 Q252,613 252,568 L120,568 Q120,625 141,663 Q162,701 193.5,715 Q225,729 260,728 Q295,727 324,711 L351,694 Q388,675 388,718"/> 
            <glyph glyph-name="ò" unicode="&#xF2;" horiz-adv-x="589" d=" M399,560 L218,560 L78,717 L306,717 M589,249 Q589,130 510,57 Q433,-16 308,-16 Q184,-16 105,57 Q27,130 27,249 Q27,365 105,437 Q184,510 308,510 Q433,510 510,437 Q589,365 589,249 M308,144 Q352,144 381.5,173 Q411,202 411,248 Q411,293 382,321.5 Q353,350 308,350 Q263,350 233.5,321.5 Q204,293 204,248 Q204,201 233,172.5 Q262,144 308,144"/> 
            <glyph glyph-name="ó" unicode="&#xF3;" horiz-adv-x="589" d=" M534,717 L394,560 L213,560 L306,717 M589,249 Q589,130 510,57 Q433,-16 308,-16 Q184,-16 105,57 Q27,130 27,249 Q27,365 105,437 Q184,510 308,510 Q433,510 510,437 Q589,365 589,249 M308,144 Q352,144 381.5,173 Q411,202 411,248 Q411,293 382,321.5 Q353,350 308,350 Q263,350 233.5,321.5 Q204,293 204,248 Q204,201 233,172.5 Q262,144 308,144"/> 
            <glyph glyph-name="ô" unicode="&#xF4;" horiz-adv-x="589" d=" M307,615 L263,562 L95,562 L223,713 L390,713 L518,562 L350,562 M589,249 Q589,130 510,57 Q433,-16 308,-16 Q184,-16 105,57 Q27,130 27,249 Q27,365 105,437 Q184,510 308,510 Q433,510 510,437 Q589,365 589,249 M308,144 Q352,144 381.5,173 Q411,202 411,248 Q411,293 382,321.5 Q353,350 308,350 Q263,350 233.5,321.5 Q204,293 204,248 Q204,201 233,172.5 Q262,144 308,144"/> 
            <glyph glyph-name="õ" unicode="&#xF5;" horiz-adv-x="589" d=" M381,718 L513,718 Q513,661 491.5,622.5 Q470,584 438.5,570 Q407,556 372.5,557 Q338,558 309,575 L282,592 Q245,613 245,568 L113,568 Q113,625 134,663 Q155,701 186.5,715 Q218,729 253,728 Q288,727 317,711 L344,694 Q381,675 381,718 M589,249 Q589,130 510,57 Q433,-16 308,-16 Q184,-16 105,57 Q27,130 27,249 Q27,365 105,437 Q184,510 308,510 Q433,510 510,437 Q589,365 589,249 M308,144 Q352,144 381.5,173 Q411,202 411,248 Q411,293 382,321.5 Q353,350 308,350 Q263,350 233.5,321.5 Q204,293 204,248 Q204,201 233,172.5 Q262,144 308,144"/> 
            <glyph glyph-name="ö" unicode="&#xF6;" horiz-adv-x="589" d=" M186,746 Q228,746 258,718 Q288,690 288,648 Q288,606 258.5,578.5 Q229,551 186,551 Q143,551 113.5,578.5 Q84,606 84,648 Q84,690 113.5,718 Q143,746 186,746 M430,746 Q472,746 502,718 Q532,690 532,648 Q532,606 502.5,578.5 Q473,551 430,551 Q387,551 357.5,578.5 Q328,606 328,648 Q328,690 357.5,718 Q387,746 430,746 M589,249 Q589,130 510,57 Q433,-16 308,-16 Q184,-16 105,57 Q27,130 27,249 Q27,365 105,437 Q184,510 308,510 Q433,510 510,437 Q589,365 589,249 M308,144 Q352,144 381.5,173 Q411,202 411,248 Q411,293 382,321.5 Q353,350 308,350 Q263,350 233.5,321.5 Q204,293 204,248 Q204,201 233,172.5 Q262,144 308,144"/> 
            <glyph glyph-name="÷" unicode="&#xF7;" horiz-adv-x="589" d=" M406,467 Q379,442 341,442 Q303,442 276,467 Q249,493 249,530 Q249,567 276,592 Q303,618 341,618 Q379,618 406,592 Q433,567 433,530 Q433,493 406,467 M93,392 L589,392 L589,257 L93,257 M406,58 Q379,33 341,33 Q303,33 276,58 Q249,84 249,121 Q249,158 276,183 Q303,209 341,209 Q379,209 406,183 Q433,158 433,121 Q433,84 406,58"/> 
            <glyph glyph-name="ø" unicode="&#xF8;" horiz-adv-x="589" d=" M560,488 L514,434 Q589,362 589,249 Q589,130 510,57 Q433,-16 308,-16 Q226,-16 164,16 L112,-46 L50,6 L99,64 Q27,136 27,249 Q27,365 105,437 Q184,510 308,510 Q384,510 448,480 L498,540 M204,248 Q204,220 214,201 L336,347 Q322,350 308,350 Q263,350 233.5,321.5 Q204,293 204,248 M308,144 Q352,144 381.5,173 Q411,202 411,248 Q411,273 400,297 L275,149 Q293,144 308,144"/> 
            <glyph glyph-name="ù" unicode="&#xF9;" horiz-adv-x="579" d=" M406,560 L225,560 L85,717 L313,717 M579,492 L579,8 Q375,-10 243,-10 Q153,-10 100.5,39 Q48,88 48,179 L48,492 L242,492 L242,220 Q242,178 257.5,161 Q273,144 305,144 Q313,144 385,148 L385,492"/> 
            <glyph glyph-name="ú" unicode="&#xFA;" horiz-adv-x="579" d=" M540,717 L400,560 L219,560 L312,717 M579,492 L579,8 Q375,-10 243,-10 Q153,-10 100.5,39 Q48,88 48,179 L48,492 L242,492 L242,220 Q242,178 257.5,161 Q273,144 305,144 Q313,144 385,148 L385,492"/> 
            <glyph glyph-name="û" unicode="&#xFB;" horiz-adv-x="579" d=" M314,615 L270,562 L102,562 L230,713 L397,713 L525,562 L357,562 M579,492 L579,8 Q375,-10 243,-10 Q153,-10 100.5,39 Q48,88 48,179 L48,492 L242,492 L242,220 Q242,178 257.5,161 Q273,144 305,144 Q313,144 385,148 L385,492"/> 
            <glyph glyph-name="ü" unicode="&#xFC;" horiz-adv-x="579" d=" M192,746 Q234,746 264,718 Q294,690 294,648 Q294,606 264.5,578.5 Q235,551 192,551 Q149,551 119.5,578.5 Q90,606 90,648 Q90,690 119.5,718 Q149,746 192,746 M436,746 Q478,746 508,718 Q538,690 538,648 Q538,606 508.5,578.5 Q479,551 436,551 Q393,551 363.5,578.5 Q334,606 334,648 Q334,690 363.5,718 Q393,746 436,746 M579,492 L579,8 Q375,-10 243,-10 Q153,-10 100.5,39 Q48,88 48,179 L48,492 L242,492 L242,220 Q242,178 257.5,161 Q273,144 305,144 Q313,144 385,148 L385,492"/> 
            <glyph glyph-name="ý" unicode="&#xFD;" horiz-adv-x="670" d=" M444,562 L263,562 L356,719 L584,719 M670,492 L354,-217 L145,-217 L247,15 L14,492 L229,492 L347,245 L455,492"/> 
            <glyph glyph-name="þ" unicode="&#xFE;" horiz-adv-x="610" d=" M363,507 Q473,507 539,436 Q606,365 610,249 Q610,183 588,131 Q566,79 530,48 Q494,17 452,1 Q410,-15 366,-15 Q308,-15 245,-10 L245,-218 L52,-218 L52,710 L245,710 L245,502 Q307,507 363,507 M328,142 Q370,142 397.5,171.5 Q425,201 425,247 Q425,297 398,327 Q371,357 325,357 Q310,357 245,352 L245,149 Q290,142 328,142"/> 
            <glyph glyph-name="ÿ" unicode="&#xFF;" horiz-adv-x="670" d=" M236,748 Q278,748 308,720 Q338,692 338,650 Q338,608 308.5,580.5 Q279,553 236,553 Q193,553 163.5,580.5 Q134,608 134,650 Q134,692 163.5,720 Q193,748 236,748 M480,748 Q522,748 552,720 Q582,692 582,650 Q582,608 552.5,580.5 Q523,553 480,553 Q437,553 407.5,580.5 Q378,608 378,650 Q378,692 407.5,720 Q437,748 480,748 M670,492 L354,-217 L145,-217 L247,15 L14,492 L229,492 L347,245 L455,492"/> 
            <glyph glyph-name="Ā" unicode="&#x100;" horiz-adv-x="784" d=" M568,887 L568,747 L222,747 L222,887 M256,93 L220,0 L7,0 L302,684 L489,684 L784,0 L571,0 L535,93 M395,459 L318,258 L472,258"/> 
            <glyph glyph-name="ā" unicode="&#x101;" horiz-adv-x="586" d=" M481,707 L481,567 L187,567 L187,707 M274,507 Q372,507 586,483 L586,0 L392,0 L392,31 Q334,-15 257,-15 Q219,-15 180,1 Q141,17 106,47.5 Q71,78 49,130.5 Q27,183 27,249 Q32,366 97,436 Q165,507 274,507 M312,357 Q266,357 239,327 Q212,297 212,247 Q212,201 239.5,171.5 Q267,142 309,142 Q349,142 392,179 L392,352 Q327,357 312,357"/> 
            <glyph glyph-name="Ă" unicode="&#x102;" horiz-adv-x="784" d=" M445,908 L585,908 Q585,826 533,778 Q481,730 395,730 Q309,730 257,778 Q205,826 205,908 L344,908 Q344,886 358.5,871.5 Q373,857 395,857 Q417,857 431,871.5 Q445,886 445,908 M256,93 L220,0 L7,0 L302,684 L489,684 L784,0 L571,0 L535,93 M395,459 L318,258 L472,258"/> 
            <glyph glyph-name="ă" unicode="&#x103;" horiz-adv-x="586" d=" M384,736 L524,736 Q524,653 472.5,605.5 Q421,558 334,558 Q247,558 195.5,605.5 Q144,653 144,736 L283,736 Q283,713 297,698.5 Q311,684 334,684 Q356,684 370,698.5 Q384,713 384,736 M274,507 Q372,507 586,483 L586,0 L392,0 L392,31 Q334,-15 257,-15 Q219,-15 180,1 Q141,17 106,47.5 Q71,78 49,130.5 Q27,183 27,249 Q32,366 97,436 Q165,507 274,507 M312,357 Q266,357 239,327 Q212,297 212,247 Q212,201 239.5,171.5 Q267,142 309,142 Q349,142 392,179 L392,352 Q327,357 312,357"/> 
            <glyph glyph-name="Ą" unicode="&#x104;" horiz-adv-x="784" d=" M683,-61 Q705,-61 735,-53 L753,-197 Q721,-214 662,-214 Q589,-214 542,-177.5 Q495,-141 495,-83 Q495,-21 565,15 L535,93 L256,93 L220,0 L7,0 L302,684 L489,684 L784,0 L661,0 Q640,-12 640,-31 Q640,-61 683,-61 M472,258 L395,459 L318,258"/> 
            <glyph glyph-name="ą" unicode="&#x105;" horiz-adv-x="594" d=" M576,-59 L594,-203 Q562,-220 503,-220 Q430,-220 383,-183.5 Q336,-147 336,-89 Q336,-34 392,1 L392,31 Q334,-15 257,-15 Q219,-15 180,1 Q141,17 106,47.5 Q71,78 49,130.5 Q27,183 27,249 Q32,366 97,436 Q165,507 274,507 Q372,507 586,483 L586,0 L514,0 Q481,-16 481,-37 Q481,-67 524,-67 Q546,-67 576,-59 M309,142 Q349,142 392,179 L392,352 Q327,357 312,357 Q266,357 239,327 Q212,297 212,247 Q212,201 239.5,171.5 Q267,142 309,142"/> 
            <glyph glyph-name="Ć" unicode="&#x106;" horiz-adv-x="678" d=" M646,890 L506,737 L322,737 L418,890 M678,660 L647,482 Q505,508 440,508 Q354,508 302.5,462 Q251,416 251,341 Q251,265 301,218 Q353,171 435,171 Q493,171 647,197 L678,23 Q539,-14 418,-14 Q246,-14 140,83 Q34,180 34,340 Q34,499 140,596 Q247,694 418,694 Q539,694 678,660"/> 
            <glyph glyph-name="ć" unicode="&#x107;" horiz-adv-x="519" d=" M519,717 L379,560 L198,560 L291,717 M487,480 L464,339 Q366,354 329,354 Q274,354 242,324.5 Q210,295 210,246 Q210,199 241.5,170.5 Q273,142 326,142 Q380,142 470,157 L487,15 Q394,-15 311,-15 Q184,-15 105,57 Q27,129 27,246 Q27,365 105,437 Q184,509 312,509 Q395,509 487,480"/> 
            <glyph glyph-name="Ċ" unicode="&#x10A;" horiz-adv-x="678" d=" M314,822 Q314,861 342.5,888 Q371,915 412,915 Q453,915 481.5,888 Q510,861 510,822 Q510,782 481.5,755 Q453,728 412,728 Q371,728 342.5,755 Q314,782 314,822 M678,660 L647,482 Q505,508 440,508 Q354,508 302.5,462 Q251,416 251,341 Q251,265 301,218 Q353,171 435,171 Q493,171 647,197 L678,23 Q539,-14 418,-14 Q246,-14 140,83 Q34,180 34,340 Q34,499 140,596 Q247,694 418,694 Q539,694 678,660"/> 
            <glyph glyph-name="ċ" unicode="&#x10B;" horiz-adv-x="487" d=" M293,746 Q335,746 365,718 Q395,690 395,648 Q395,606 365.5,578.5 Q336,551 293,551 Q250,551 220.5,578.5 Q191,606 191,648 Q191,690 220.5,718 Q250,746 293,746 M487,480 L464,339 Q366,354 329,354 Q274,354 242,324.5 Q210,295 210,246 Q210,199 241.5,170.5 Q273,142 326,142 Q380,142 470,157 L487,15 Q394,-15 311,-15 Q184,-15 105,57 Q27,129 27,246 Q27,365 105,437 Q184,509 312,509 Q395,509 487,480"/> 
            <glyph glyph-name="Č" unicode="&#x10C;" horiz-adv-x="678" d=" M497,732 L330,732 L202,889 L370,889 L414,832 L457,889 L625,889 M678,660 L647,482 Q505,508 440,508 Q354,508 302.5,462 Q251,416 251,341 Q251,265 301,218 Q353,171 435,171 Q493,171 647,197 L678,23 Q539,-14 418,-14 Q246,-14 140,83 Q34,180 34,340 Q34,499 140,596 Q247,694 418,694 Q539,694 678,660"/> 
            <glyph glyph-name="č" unicode="&#x10D;" horiz-adv-x="504" d=" M376,560 L209,560 L81,717 L249,717 L293,660 L336,717 L504,717 M487,480 L464,339 Q366,354 329,354 Q274,354 242,324.5 Q210,295 210,246 Q210,199 241.5,170.5 Q273,142 326,142 Q380,142 470,157 L487,15 Q394,-15 311,-15 Q184,-15 105,57 Q27,129 27,246 Q27,365 105,437 Q184,509 312,509 Q395,509 487,480"/> 
            <glyph glyph-name="Ď" unicode="&#x10E;" horiz-adv-x="695" d=" M416,732 L249,732 L121,889 L289,889 L333,832 L376,889 L544,889 M317,688 Q491,688 593,595 Q695,503 695,341 Q695,179 595,85 Q496,-8 330,-8 Q227,-8 53,0 L53,680 Q271,688 317,688 M338,168 Q405,168 447.5,215.5 Q490,263 490,341 Q490,419 446.5,465.5 Q403,512 331,512 Q325,512 255,510 L255,169 Q277,169 296,168"/> 
            <glyph glyph-name="ď" unicode="&#x10F;" horiz-adv-x="787" d=" M585,710 L585,9 Q347,-14 271,-14 Q183,-14 108,47 Q71,78 49,131.5 Q27,185 27,250 Q30,367 97,437 Q164,507 277,507 Q326,507 391,501 L391,710 M787,710 L748,507 L618,507 L623,710 M315,357 Q267,357 239.5,328 Q212,299 212,249 Q212,201 239.5,171.5 Q267,142 313,142 Q331,142 391,148 L391,350 Q345,357 315,357"/> 
            <glyph glyph-name="Đ" unicode="&#x110;" horiz-adv-x="695" d=" M317,688 Q491,688 593,595 Q695,503 695,341 Q695,179 595,85 Q496,-8 330,-8 Q227,-8 53,0 L53,249 L14,249 L14,415 L53,415 L53,680 Q271,688 317,688 M338,168 Q405,168 447.5,215.5 Q490,263 490,341 Q490,419 446.5,465.5 Q403,512 331,512 Q325,512 255,510 L255,415 L362,415 L362,249 L255,249 L255,169 Q277,169 296,168"/> 
            <glyph glyph-name="đ" unicode="&#x111;" horiz-adv-x="619" d=" M619,545 L585,545 L585,9 Q347,-14 271,-14 Q183,-14 108,47 Q71,78 49,131.5 Q27,185 27,250 Q30,367 97,437 Q164,507 277,507 Q326,507 391,501 L391,545 L261,545 L261,666 L391,666 L391,710 L585,710 L585,666 L619,666 M391,148 L391,350 Q345,357 315,357 Q267,357 239.5,328 Q212,299 212,249 Q212,201 239.5,171.5 Q267,142 313,142 Q331,142 391,148"/> 
            <glyph glyph-name="Ē" unicode="&#x112;" horiz-adv-x="581" d=" M484,887 L484,747 L138,747 L138,887 M254,422 L534,422 L534,260 L254,260 L254,169 L581,169 L581,0 L53,0 L53,680 L581,680 L581,511 L254,511"/> 
            <glyph glyph-name="ē" unicode="&#x113;" horiz-adv-x="531" d=" M431,702 L431,562 L137,562 L137,702 M281,508 Q393,508 461,444 Q531,380 531,277 Q531,235 521,191 L209,191 Q234,133 311,133 Q387,133 490,155 L513,26 Q399,-15 309,-15 Q177,-15 100,58 Q23,132 23,248 Q23,365 94,436 Q166,508 281,508 M289,365 Q220,365 203,291 L368,291 Q367,325 346,345 Q325,365 289,365"/> 
            <glyph glyph-name="Ė" unicode="&#x116;" horiz-adv-x="581" d=" M211,822 Q211,861 239.5,888 Q268,915 309,915 Q350,915 378.5,888 Q407,861 407,822 Q407,782 378.5,755 Q350,728 309,728 Q268,728 239.5,755 Q211,782 211,822 M254,422 L534,422 L534,260 L254,260 L254,169 L581,169 L581,0 L53,0 L53,680 L581,680 L581,511 L254,511"/> 
            <glyph glyph-name="ė" unicode="&#x117;" horiz-adv-x="531" d=" M284,746 Q326,746 356,718 Q386,690 386,648 Q386,606 356.5,578.5 Q327,551 284,551 Q241,551 211.5,578.5 Q182,606 182,648 Q182,690 211.5,718 Q241,746 284,746 M281,508 Q393,508 461,444 Q531,380 531,277 Q531,235 521,191 L209,191 Q234,133 311,133 Q387,133 490,155 L513,26 Q399,-15 309,-15 Q177,-15 100,58 Q23,132 23,248 Q23,365 94,436 Q166,508 281,508 M289,365 Q220,365 203,291 L368,291 Q367,325 346,345 Q325,365 289,365"/> 
            <glyph glyph-name="Ę" unicode="&#x118;" horiz-adv-x="581" d=" M254,511 L254,422 L534,422 L534,260 L254,260 L254,169 L581,169 L581,0 L512,0 Q462,-18 462,-44 Q462,-74 505,-74 Q527,-74 557,-66 L575,-210 Q543,-227 484,-227 Q411,-227 364,-190.5 Q317,-154 317,-96 Q317,-34 384,0 L53,0 L53,680 L581,680 L581,511"/> 
            <glyph glyph-name="ę" unicode="&#x119;" horiz-adv-x="531" d=" M531,277 Q531,235 521,191 L209,191 Q234,133 311,133 Q387,133 490,155 L513,26 Q482,15 452,6 Q420,-5 408,-15 Q396,-25 396,-40 Q396,-70 439,-70 Q461,-70 491,-62 L509,-206 Q477,-223 418,-223 Q345,-223 298,-186.5 Q251,-150 251,-92 Q251,-46 290,-15 Q167,-9 95,63 Q23,136 23,248 Q23,365 94,436 Q166,508 281,508 Q393,508 461,444 Q531,380 531,277 M203,291 L368,291 Q367,325 346,345 Q325,365 289,365 Q220,365 203,291"/> 
            <glyph glyph-name="Ě" unicode="&#x11A;" horiz-adv-x="581" d=" M394,732 L227,732 L99,889 L267,889 L311,832 L354,889 L522,889 M254,422 L534,422 L534,260 L254,260 L254,169 L581,169 L581,0 L53,0 L53,680 L581,680 L581,511 L254,511"/> 
            <glyph glyph-name="ě" unicode="&#x11B;" horiz-adv-x="531" d=" M367,560 L200,560 L72,717 L240,717 L284,660 L327,717 L495,717 M281,508 Q393,508 461,444 Q531,380 531,277 Q531,235 521,191 L209,191 Q234,133 311,133 Q387,133 490,155 L513,26 Q399,-15 309,-15 Q177,-15 100,58 Q23,132 23,248 Q23,365 94,436 Q166,508 281,508 M289,365 Q220,365 203,291 L368,291 Q367,325 346,345 Q325,365 289,365"/> 
            <glyph glyph-name="Ğ" unicode="&#x11E;" horiz-adv-x="724" d=" M453,908 L593,908 Q593,826 541,778 Q489,730 403,730 Q317,730 265,778 Q213,826 213,908 L352,908 Q352,886 366.5,871.5 Q381,857 403,857 Q425,857 439,871.5 Q453,886 453,908 M724,407 L724,55 Q529,-15 411,-15 Q241,-15 137,83 Q34,180 34,341 Q34,500 136,597 Q239,695 404,695 Q531,695 679,660 L648,489 Q493,512 426,512 Q346,512 296.5,465 Q247,418 247,341 Q247,263 293.5,216 Q340,169 416,169 Q491,169 566,188 L566,255 L370,255 L370,407"/> 
            <glyph glyph-name="ğ" unicode="&#x11F;" horiz-adv-x="586" d=" M370,731 L510,731 Q510,648 458.5,600.5 Q407,553 320,553 Q233,553 181.5,600.5 Q130,648 130,731 L269,731 Q269,708 283,693.5 Q297,679 320,679 Q342,679 356,693.5 Q370,708 370,731 M274,507 Q316,507 358,505 L404,501 Q409,501 450,497 L513,490 L586,483 L586,3 Q586,-124 509,-192 Q432,-260 286,-260 Q202,-260 103,-231 L127,-91 Q230,-109 278,-109 Q335,-109 362.5,-84 Q390,-59 392,-7 Q330,-12 271,-12 Q177,-12 102,56 Q27,124 27,249 Q32,366 97,436 Q165,507 274,507 M312,357 Q266,357 239,327 Q212,297 212,247 Q212,203 239.5,174.5 Q267,146 309,146 Q352,146 392,152 L392,352 Q327,357 312,357"/> 
            <glyph glyph-name="Ġ" unicode="&#x120;" horiz-adv-x="724" d=" M303,822 Q303,861 331.5,888 Q360,915 401,915 Q442,915 470.5,888 Q499,861 499,822 Q499,782 470.5,755 Q442,728 401,728 Q360,728 331.5,755 Q303,782 303,822 M724,407 L724,55 Q529,-15 411,-15 Q241,-15 137,83 Q34,180 34,341 Q34,500 136,597 Q239,695 404,695 Q531,695 679,660 L648,489 Q493,512 426,512 Q346,512 296.5,465 Q247,418 247,341 Q247,263 293.5,216 Q340,169 416,169 Q491,169 566,188 L566,255 L370,255 L370,407"/> 
            <glyph glyph-name="ġ" unicode="&#x121;" horiz-adv-x="586" d=" M320,746 Q362,746 392,718 Q422,690 422,648 Q422,606 392.5,578.5 Q363,551 320,551 Q277,551 247.5,578.5 Q218,606 218,648 Q218,690 247.5,718 Q277,746 320,746 M274,507 Q316,507 358,505 L404,501 Q409,501 450,497 L513,490 L586,483 L586,3 Q586,-124 509,-192 Q432,-260 286,-260 Q202,-260 103,-231 L127,-91 Q230,-109 278,-109 Q335,-109 362.5,-84 Q390,-59 392,-7 Q330,-12 271,-12 Q177,-12 102,56 Q27,124 27,249 Q32,366 97,436 Q165,507 274,507 M312,357 Q266,357 239,327 Q212,297 212,247 Q212,203 239.5,174.5 Q267,146 309,146 Q352,146 392,152 L392,352 Q327,357 312,357"/> 
            <glyph glyph-name="Ģ" unicode="&#x122;" horiz-adv-x="724" d=" M724,407 L724,55 Q529,-15 411,-15 Q241,-15 137,83 Q34,180 34,341 Q34,500 136,597 Q239,695 404,695 Q531,695 679,660 L648,489 Q493,512 426,512 Q346,512 296.5,465 Q247,418 247,341 Q247,263 293.5,216 Q340,169 416,169 Q491,169 566,188 L566,255 L370,255 L370,407 M325,-289 L368,-204 Q319,-183 319,-135 Q319,-99 345,-74.5 Q371,-50 408,-50 Q445,-50 471,-74.5 Q497,-99 497,-135 Q497,-160 481,-188 Q467,-215 414,-289"/> 
            <glyph glyph-name="ģ" unicode="&#x123;" horiz-adv-x="586" d=" M409,811 L366,726 Q415,705 415,657 Q415,621 389,596.5 Q363,572 326,572 Q289,572 263,596.5 Q237,621 237,657 Q237,682 252,710 Q270,741 320,811 M274,507 Q316,507 358,505 L404,501 Q409,501 450,497 L513,490 L586,483 L586,3 Q586,-124 509,-192 Q432,-260 286,-260 Q202,-260 103,-231 L127,-91 Q230,-109 278,-109 Q335,-109 362.5,-84 Q390,-59 392,-7 Q330,-12 271,-12 Q177,-12 102,56 Q27,124 27,249 Q32,366 97,436 Q165,507 274,507 M312,357 Q266,357 239,327 Q212,297 212,247 Q212,203 239.5,174.5 Q267,146 309,146 Q352,146 392,152 L392,352 Q327,357 312,357"/> 
            <glyph glyph-name="Ħ" unicode="&#x126;" horiz-adv-x="729" d=" M729,491 L694,491 L694,0 L493,0 L493,242 L254,242 L254,0 L53,0 L53,491 L19,491 L19,610 L53,610 L53,680 L254,680 L254,610 L493,610 L493,680 L694,680 L694,610 L729,610 M493,491 L254,491 L254,418 L493,418"/> 
            <glyph glyph-name="ħ" unicode="&#x127;" horiz-adv-x="579" d=" M383,507 Q471,507 525,455 Q579,403 579,318 L579,0 L385,0 L385,258 Q385,334 322,334 Q305,334 242,328 L242,0 L48,0 L48,571 L16,571 L16,670 L48,670 L48,710 L242,710 L242,670 L327,670 L327,571 L242,571 L242,499 Q327,507 383,507"/> 
            <glyph glyph-name="Ī" unicode="&#x12A;" horiz-adv-x="324" d=" M251,680 L251,0 L50,0 L50,680 M324,887 L324,747 L-22,747 L-22,887"/> 
            <glyph glyph-name="ī" unicode="&#x12B;" horiz-adv-x="290" d=" M240,492 L240,0 L46,0 L46,492 M290,702 L290,562 L-4,562 L-4,702"/> 
            <glyph glyph-name="Į" unicode="&#x12E;" horiz-adv-x="251" d=" M251,0 L159,0 Q122,-16 122,-39 Q122,-69 165,-69 Q187,-69 217,-61 L235,-205 Q203,-222 144,-222 Q71,-222 24,-185.5 Q-23,-149 -23,-91 Q-23,-28 50,8 L50,680 L251,680"/> 
            <glyph glyph-name="į" unicode="&#x12F;" horiz-adv-x="245" d=" M143,746 Q185,746 215,718 Q245,690 245,648 Q245,606 215.5,578.5 Q186,551 143,551 Q100,551 70.5,578.5 Q41,606 41,648 Q41,690 70.5,718 Q100,746 143,746 M46,492 L240,492 L240,0 L153,0 Q124,-14 124,-35 Q124,-65 167,-65 Q189,-65 219,-57 L237,-201 Q205,-218 146,-218 Q73,-218 26,-181.5 Q-21,-145 -21,-87 Q-21,-25 46,9"/> 
            <glyph glyph-name="İ" unicode="&#x130;" horiz-adv-x="263" d=" M197,736 Q101,736 68,767.5 Q35,799 35,846 Q35,892 68,923.5 Q101,955 149,955 Q195,955 229,923 Q263,892 263,846 Q263,799 197,736 M251,680 L251,0 L50,0 L50,680"/> 
            <glyph glyph-name="ı" unicode="&#x131;" horiz-adv-x="240" d=" M240,492 L240,0 L46,0 L46,492"/> 
            <glyph glyph-name="Ĳ" unicode="&#x132;" horiz-adv-x="815" d=" M815,680 L815,295 Q815,145 745.5,65 Q676,-15 543,-15 Q430,-15 307,32 L345,204 Q464,175 529,175 Q610,175 610,288 L610,680 M251,680 L251,0 L50,0 L50,680"/> 
            <glyph glyph-name="ĳ" unicode="&#x133;" horiz-adv-x="567" d=" M254,606 Q188,544 142,544 Q96,544 63,575 Q31,607 31,652 Q31,697 63,729 Q96,760 142,760 Q188,760 221,729 Q254,698 254,606 M456,760 Q502,760 534.5,728.5 Q567,697 567,652 Q567,607 534.5,575.5 Q502,544 456,544 Q409,544 376.5,575 Q344,606 344,652 Q344,698 376.5,729 Q409,760 456,760 M240,492 L240,0 L46,0 L46,492 M553,492 L553,18 Q553,-51 543.5,-92.5 Q534,-134 508,-170 Q458,-241 287,-246 L277,-90 Q338,-85 349,-60 Q359,-38 359,5 L359,492"/> 
            <glyph glyph-name="Ķ" unicode="&#x136;" horiz-adv-x="730" d=" M254,213 L254,0 L53,0 L53,680 L254,680 L254,409 L272,409 L468,680 L707,680 L472,362 L730,0 L485,0 L340,213 M261,-289 L304,-204 Q255,-183 255,-135 Q255,-99 281,-74.5 Q307,-50 344,-50 Q381,-50 407,-74.5 Q433,-99 433,-135 Q433,-160 417,-188 Q403,-215 350,-289"/> 
            <glyph glyph-name="ķ" unicode="&#x137;" horiz-adv-x="622" d=" M245,334 L256,334 L384,492 L601,492 L436,287 L622,0 L402,0 L302,158 L245,158 L245,0 L51,0 L51,710 L245,710 M218,-289 L261,-204 Q212,-183 212,-135 Q212,-99 238,-74.5 Q264,-50 301,-50 Q338,-50 364,-74.5 Q390,-99 390,-135 Q390,-160 374,-188 Q360,-215 307,-289"/> 
            <glyph glyph-name="Ĺ" unicode="&#x139;" horiz-adv-x="570" d=" M391,890 L251,737 L67,737 L163,890 M570,0 L53,0 L53,680 L254,680 L254,174 L570,174"/> 
            <glyph glyph-name="ĺ" unicode="&#x13A;" horiz-adv-x="372" d=" M372,905 L232,749 L51,749 L144,905 M246,710 L246,0 L52,0 L52,710"/> 
            <glyph glyph-name="Ļ" unicode="&#x13B;" horiz-adv-x="570" d=" M570,0 L53,0 L53,680 L254,680 L254,174 L570,174 M228,-289 L271,-204 Q222,-183 222,-135 Q222,-99 248,-74.5 Q274,-50 311,-50 Q348,-50 374,-74.5 Q400,-99 400,-135 Q400,-160 384,-188 Q370,-215 317,-289"/> 
            <glyph glyph-name="ļ" unicode="&#x13C;" horiz-adv-x="246" d=" M246,710 L246,0 L52,0 L52,710 M61,-289 L104,-204 Q55,-183 55,-135 Q55,-99 81,-74.5 Q107,-50 144,-50 Q181,-50 207,-74.5 Q233,-99 233,-135 Q233,-160 217,-188 Q203,-215 150,-289"/> 
            <glyph glyph-name="Ľ" unicode="&#x13D;" horiz-adv-x="570" d=" M570,0 L53,0 L53,680 L254,680 L254,174 L570,174 M501,680 L462,477 L332,477 L337,680"/> 
            <glyph glyph-name="ľ" unicode="&#x13E;" horiz-adv-x="441" d=" M246,710 L246,0 L52,0 L52,710 M441,710 L402,507 L272,507 L277,710"/> 
            <glyph glyph-name="Ŀ" unicode="&#x13F;" horiz-adv-x="570" d=" M570,0 L53,0 L53,680 L254,680 L254,174 L570,174 M422,249 Q379,249 349,277 Q319,305 319,347 Q319,389 349,417 Q379,445 422,445 Q464,445 493.5,417 Q523,389 523,347 Q523,305 493.5,277 Q464,249 422,249"/> 
            <glyph glyph-name="ŀ" unicode="&#x140;" horiz-adv-x="483" d=" M246,710 L246,0 L52,0 L52,710 M382,249 Q339,249 309,277 Q279,305 279,347 Q279,389 309,417 Q339,445 382,445 Q424,445 453.5,417 Q483,389 483,347 Q483,305 453.5,277 Q424,249 382,249"/> 
            <glyph glyph-name="Ł" unicode="&#x141;" horiz-adv-x="570" d=" M570,174 L570,0 L53,0 L53,198 L3,182 L3,335 L53,351 L53,680 L254,680 L254,417 L393,463 L393,310 L254,264 L254,174"/> 
            <glyph glyph-name="ł" unicode="&#x142;" horiz-adv-x="290" d=" M290,309 L246,294 L246,0 L52,0 L52,230 L8,215 L8,368 L52,383 L52,710 L246,710 L246,447 L290,462"/> 
            <glyph glyph-name="Ń" unicode="&#x143;" horiz-adv-x="711" d=" M611,890 L471,737 L287,737 L383,890 M711,680 L711,0 L532,0 L254,343 L254,0 L53,0 L53,680 L238,680 L510,336 L510,680"/> 
            <glyph glyph-name="ń" unicode="&#x144;" horiz-adv-x="582" d=" M386,507 Q474,507 528,455 Q582,403 582,318 L582,0 L388,0 L388,258 Q388,334 325,334 Q317,334 245,330 L245,0 L51,0 L51,483 Q264,507 386,507 M540,717 L400,560 L219,560 L312,717"/> 
            <glyph glyph-name="Ņ" unicode="&#x145;" horiz-adv-x="711" d=" M711,680 L711,0 L532,0 L254,343 L254,0 L53,0 L53,680 L238,680 L510,336 L510,680 M296,-292 L339,-207 Q290,-186 290,-138 Q290,-102 316,-77.5 Q342,-53 379,-53 Q416,-53 442,-77.5 Q468,-102 468,-138 Q468,-163 452,-191 Q438,-218 385,-292"/> 
            <glyph glyph-name="ņ" unicode="&#x146;" horiz-adv-x="582" d=" M386,507 Q474,507 528,455 Q582,403 582,318 L582,0 L388,0 L388,258 Q388,334 325,334 Q317,334 245,330 L245,0 L51,0 L51,483 Q264,507 386,507 M230,-289 L273,-204 Q224,-183 224,-135 Q224,-99 250,-74.5 Q276,-50 313,-50 Q350,-50 376,-74.5 Q402,-99 402,-135 Q402,-160 386,-188 Q372,-215 319,-289"/> 
            <glyph glyph-name="Ň" unicode="&#x147;" horiz-adv-x="711" d=" M462,732 L295,732 L167,889 L335,889 L379,832 L422,889 L590,889 M711,680 L711,0 L532,0 L254,343 L254,0 L53,0 L53,680 L238,680 L510,336 L510,680"/> 
            <glyph glyph-name="ň" unicode="&#x148;" horiz-adv-x="582" d=" M386,507 Q474,507 528,455 Q582,403 582,318 L582,0 L388,0 L388,258 Q388,334 325,334 Q317,334 245,330 L245,0 L51,0 L51,483 Q264,507 386,507 M397,560 L230,560 L102,717 L270,717 L314,660 L357,717 L525,717"/> 
            <glyph glyph-name="Ō" unicode="&#x14C;" horiz-adv-x="767" d=" M574,887 L574,747 L228,747 L228,887 M135,597 Q238,695 401,695 Q565,695 666,597 Q767,499 767,340 Q767,181 666,83 Q565,-15 401,-15 Q238,-15 135,83 Q34,181 34,340 Q34,499 135,597 M401,167 Q473,167 517.5,214.5 Q562,262 562,340 Q562,418 517.5,465.5 Q473,513 401,513 Q330,513 285.5,465.5 Q241,418 241,340 Q241,262 285.5,214.5 Q330,167 401,167"/> 
            <glyph glyph-name="ō" unicode="&#x14D;" horiz-adv-x="589" d=" M455,702 L455,562 L161,562 L161,702 M589,249 Q589,130 510,57 Q433,-16 308,-16 Q184,-16 105,57 Q27,130 27,249 Q27,365 105,437 Q184,510 308,510 Q433,510 510,437 Q589,365 589,249 M308,144 Q352,144 381.5,173 Q411,202 411,248 Q411,293 382,321.5 Q353,350 308,350 Q263,350 233.5,321.5 Q204,293 204,248 Q204,201 233,172.5 Q262,144 308,144"/> 
            <glyph glyph-name="Ő" unicode="&#x150;" horiz-adv-x="767" d=" M431,897 L371,743 L240,743 L275,897 M617,897 L558,743 L427,743 L461,897 M135,597 Q238,695 401,695 Q565,695 666,597 Q767,499 767,340 Q767,181 666,83 Q565,-15 401,-15 Q238,-15 135,83 Q34,181 34,340 Q34,499 135,597 M401,167 Q473,167 517.5,214.5 Q562,262 562,340 Q562,418 517.5,465.5 Q473,513 401,513 Q330,513 285.5,465.5 Q241,418 241,340 Q241,262 285.5,214.5 Q330,167 401,167"/> 
            <glyph glyph-name="ő" unicode="&#x151;" horiz-adv-x="589" d=" M353,732 L286,562 L141,562 L179,732 M547,732 L480,562 L335,562 L373,732 M589,249 Q589,130 510,57 Q433,-16 308,-16 Q184,-16 105,57 Q27,130 27,249 Q27,365 105,437 Q184,510 308,510 Q433,510 510,437 Q589,365 589,249 M308,144 Q352,144 381.5,173 Q411,202 411,248 Q411,293 382,321.5 Q353,350 308,350 Q263,350 233.5,321.5 Q204,293 204,248 Q204,201 233,172.5 Q262,144 308,144"/> 
            <glyph glyph-name="Œ" unicode="&#x152;" horiz-adv-x="970" d=" M643,422 L923,422 L923,260 L643,260 L643,169 L970,169 L970,0 L442,0 Q257,2 146,92 Q34,183 34,340 Q34,497 146,588 Q257,678 442,680 L970,680 L970,511 L643,511 M442,182 L442,498 Q241,496 241,340 Q241,184 442,182"/> 
            <glyph glyph-name="œ" unicode="&#x153;" horiz-adv-x="921" d=" M921,277 Q921,235 911,191 L599,191 Q623,133 700,133 Q777,133 880,155 L903,26 Q789,-15 699,-15 Q577,-15 501,49 Q424,-16 308,-16 Q184,-16 105,57 Q27,130 27,249 Q27,365 105,437 Q184,510 308,510 Q422,510 498,449 Q566,508 671,508 Q783,508 851,444 Q920,380 921,277 M592,291 L758,291 Q756,325 735,345 Q714,365 678,365 Q609,365 592,291 M308,144 Q352,144 381.5,173 Q411,202 411,248 Q411,293 382,321.5 Q353,350 308,350 Q263,350 233.5,321.5 Q204,293 204,248 Q204,201 233,172.5 Q262,144 308,144"/> 
            <glyph glyph-name="Ŕ" unicode="&#x154;" horiz-adv-x="685" d=" M545,890 L405,737 L221,737 L317,890 M344,177 L313,177 L254,177 L254,0 L53,0 L53,680 Q253,687 342,687 Q483,687 560.5,622.5 Q638,558 638,438 Q638,301 534,230 L685,0 L450,0 M255,340 L333,340 Q381,340 408.5,365 Q436,390 436,432 Q436,518 330,518 L255,518"/> 
            <glyph glyph-name="ŕ" unicode="&#x155;" horiz-adv-x="454" d=" M405,503 L405,317 Q326,317 245,311 L245,0 L51,0 L51,471 Q229,503 405,503 M454,717 L314,560 L133,560 L226,717"/> 
            <glyph glyph-name="Ŗ" unicode="&#x156;" horiz-adv-x="685" d=" M344,177 L313,177 L254,177 L254,0 L53,0 L53,680 Q253,687 342,687 Q483,687 560.5,622.5 Q638,558 638,438 Q638,301 534,230 L685,0 L450,0 M255,340 L333,340 Q381,340 408.5,365 Q436,390 436,432 Q436,518 330,518 L255,518 M261,-289 L304,-204 Q255,-183 255,-135 Q255,-99 281,-74.5 Q307,-50 344,-50 Q381,-50 407,-74.5 Q433,-99 433,-135 Q433,-160 417,-188 Q403,-215 350,-289"/> 
            <glyph glyph-name="ŗ" unicode="&#x157;" horiz-adv-x="405" d=" M405,503 L405,317 Q326,317 245,311 L245,0 L51,0 L51,471 Q229,503 405,503 M67,-289 L110,-204 Q61,-183 61,-135 Q61,-99 87,-74.5 Q113,-50 150,-50 Q187,-50 213,-74.5 Q239,-99 239,-135 Q239,-160 223,-188 Q209,-215 156,-289"/> 
            <glyph glyph-name="Ř" unicode="&#x158;" horiz-adv-x="685" d=" M396,732 L229,732 L101,889 L269,889 L313,832 L356,889 L524,889 M344,177 L313,177 L254,177 L254,0 L53,0 L53,680 Q253,687 342,687 Q483,687 560.5,622.5 Q638,558 638,438 Q638,301 534,230 L685,0 L450,0 M255,340 L333,340 Q381,340 408.5,365 Q436,390 436,432 Q436,518 330,518 L255,518"/> 
            <glyph glyph-name="ř" unicode="&#x159;" horiz-adv-x="439" d=" M405,503 L405,317 Q326,317 245,311 L245,0 L51,0 L51,471 Q229,503 405,503 M311,560 L144,560 L16,717 L184,717 L228,660 L271,717 L439,717"/> 
            <glyph glyph-name="Ś" unicode="&#x15A;" horiz-adv-x="641" d=" M632,890 L492,737 L308,737 L404,890 M631,647 L593,475 Q431,522 350,522 Q276,522 276,478 Q276,462 285.5,454 Q295,446 317,439 Q322,437 337.5,433.5 Q353,430 355,429 L407,418 Q513,395 571,353 Q641,307 641,206 Q641,101 564,43 Q487,-15 351,-15 Q210,-15 30,46 L75,216 Q238,159 331,156 Q417,155 417,200 Q417,229 369,242 Q365,244 358,245.5 Q351,247 342.5,249 Q334,251 330,252 Q324,254 306.5,257.5 Q289,261 283,262 Q159,291 107,334 Q54,378 54,467 Q54,574 130.5,633 Q207,692 344,692 Q491,692 631,647"/> 
            <glyph glyph-name="ś" unicode="&#x15B;" horiz-adv-x="501" d=" M30,30 L65,168 Q199,124 258,124 Q305,124 305,143 Q305,157 271,168 Q266,170 245,174 Q224,178 219,179 Q126,201 86.5,235 Q47,269 47,335 Q47,419 105,463.5 Q163,508 271,508 Q380,508 491,474 L460,334 Q339,371 280,371 Q235,371 235,347 Q235,330 268,322 Q287,320 327,311 Q413,291 454.5,255.5 Q496,220 496,153 Q496,73 437.5,29 Q379,-15 274,-15 Q166,-15 30,30 M501,722 L361,565 L180,565 L273,722"/> 
            <glyph glyph-name="Ş" unicode="&#x15E;" horiz-adv-x="641" d=" M631,647 L593,475 Q431,522 350,522 Q276,522 276,478 Q276,462 285.5,454 Q295,446 317,439 Q322,437 337.5,433.5 Q353,430 355,429 L407,418 Q513,395 571,353 Q641,307 641,206 Q641,101 564,43 Q487,-15 351,-15 Q210,-15 30,46 L75,216 Q238,159 331,156 Q417,155 417,200 Q417,229 369,242 Q365,244 358,245.5 Q351,247 342.5,249 Q334,251 330,252 Q324,254 306.5,257.5 Q289,261 283,262 Q159,291 107,334 Q54,378 54,467 Q54,574 130.5,633 Q207,692 344,692 Q491,692 631,647 M325,-213 L190,-213 L233,-46 L398,-46"/> 
            <glyph glyph-name="ş" unicode="&#x15F;" horiz-adv-x="496" d=" M30,30 L65,168 Q199,124 258,124 Q305,124 305,143 Q305,157 271,168 Q266,170 245,174 Q224,178 219,179 Q126,201 86.5,235 Q47,269 47,335 Q47,419 105,463.5 Q163,508 271,508 Q380,508 491,474 L460,334 Q339,371 280,371 Q235,371 235,347 Q235,330 268,322 Q287,320 327,311 Q413,291 454.5,255.5 Q496,220 496,153 Q496,73 437.5,29 Q379,-15 274,-15 Q166,-15 30,30 M284,-213 L149,-213 L192,-46 L357,-46"/> 
            <glyph glyph-name="Š" unicode="&#x160;" horiz-adv-x="641" d=" M483,732 L316,732 L188,889 L356,889 L400,832 L443,889 L611,889 M631,647 L593,475 Q431,522 350,522 Q276,522 276,478 Q276,462 285.5,454 Q295,446 317,439 Q322,437 337.5,433.5 Q353,430 355,429 L407,418 Q513,395 571,353 Q641,307 641,206 Q641,101 564,43 Q487,-15 351,-15 Q210,-15 30,46 L75,216 Q238,159 331,156 Q417,155 417,200 Q417,229 369,242 Q365,244 358,245.5 Q351,247 342.5,249 Q334,251 330,252 Q324,254 306.5,257.5 Q289,261 283,262 Q159,291 107,334 Q54,378 54,467 Q54,574 130.5,633 Q207,692 344,692 Q491,692 631,647"/> 
            <glyph glyph-name="š" unicode="&#x161;" horiz-adv-x="496" d=" M30,30 L65,168 Q199,124 258,124 Q305,124 305,143 Q305,157 271,168 Q266,170 245,174 Q224,178 219,179 Q126,201 86.5,235 Q47,269 47,335 Q47,419 105,463.5 Q163,508 271,508 Q380,508 491,474 L460,334 Q339,371 280,371 Q235,371 235,347 Q235,330 268,322 Q287,320 327,311 Q413,291 454.5,255.5 Q496,220 496,153 Q496,73 437.5,29 Q379,-15 274,-15 Q166,-15 30,30 M357,565 L190,565 L62,722 L230,722 L274,665 L317,722 L485,722"/> 
            <glyph glyph-name="Ť" unicode="&#x164;" horiz-adv-x="653" d=" M437,505 L437,0 L236,0 L236,505 L20,505 L20,680 L653,680 L653,505 M419,732 L252,732 L124,889 L292,889 L336,832 L379,889 L547,889"/> 
            <glyph glyph-name="ť" unicode="&#x165;" horiz-adv-x="491" d=" M443,166 L460,10 Q378,-15 288,-15 Q194,-15 144,42.5 Q94,100 94,207 L94,321 L10,321 L10,492 L94,492 L94,650 L288,650 L288,492 L432,492 L432,321 L288,321 L288,224 Q288,158 348,158 Q352,158 443,166 M491,737 L452,534 L322,534 L327,737"/> 
            <glyph glyph-name="Ū" unicode="&#x16A;" horiz-adv-x="696" d=" M543,887 L543,747 L197,747 L197,887 M696,680 L696,319 Q696,160 610,72.5 Q524,-15 369,-15 Q215,-15 129,72.5 Q43,160 43,319 L43,680 L247,680 L247,319 Q247,250 279.5,211.5 Q312,173 369,173 Q426,173 459,211.5 Q492,250 492,319 L492,680"/> 
            <glyph glyph-name="ū" unicode="&#x16B;" horiz-adv-x="579" d=" M461,702 L461,562 L167,562 L167,702 M579,492 L579,8 Q375,-10 243,-10 Q153,-10 100.5,39 Q48,88 48,179 L48,492 L242,492 L242,220 Q242,178 257.5,161 Q273,144 305,144 Q313,144 385,148 L385,492"/> 
            <glyph glyph-name="Ů" unicode="&#x16E;" horiz-adv-x="696" d=" M510,849 Q510,791 470.5,754.5 Q431,718 369,718 Q307,718 267.5,754.5 Q228,791 228,849 Q228,908 267,944 Q306,980 369,980 Q432,980 471,944 Q510,908 510,849 M321,828 Q347,802 369,802 Q391,802 404,815 Q417,828 417,849 Q417,870 404,883 Q391,896 369,896 Q347,896 334,883 Q321,870 321,828 M696,680 L696,319 Q696,160 610,72.5 Q524,-15 369,-15 Q215,-15 129,72.5 Q43,160 43,319 L43,680 L247,680 L247,319 Q247,250 279.5,211.5 Q312,173 369,173 Q426,173 459,211.5 Q492,250 492,319 L492,680"/> 
            <glyph glyph-name="ů" unicode="&#x16F;" horiz-adv-x="579" d=" M212,780 Q252,817 314,817 Q377,817 415,780 Q455,744 455,686 Q455,628 415,591 Q376,555 314,555 Q252,555 212,591 Q173,628 173,686 Q173,744 212,780 M266,665 Q292,639 314,639 Q336,639 349,652 Q362,665 362,686 Q362,707 349,720 Q336,733 314,733 Q292,733 279,720 Q266,707 266,665 M579,492 L579,8 Q375,-10 243,-10 Q153,-10 100.5,39 Q48,88 48,179 L48,492 L242,492 L242,220 Q242,178 257.5,161 Q273,144 305,144 Q313,144 385,148 L385,492"/> 
            <glyph glyph-name="Ű" unicode="&#x170;" horiz-adv-x="696" d=" M400,897 L340,743 L209,743 L244,897 M586,897 L527,743 L396,743 L430,897 M696,680 L696,319 Q696,160 610,72.5 Q524,-15 369,-15 Q215,-15 129,72.5 Q43,160 43,319 L43,680 L247,680 L247,319 Q247,250 279.5,211.5 Q312,173 369,173 Q426,173 459,211.5 Q492,250 492,319 L492,680"/> 
            <glyph glyph-name="ű" unicode="&#x171;" horiz-adv-x="579" d=" M360,732 L293,562 L148,562 L186,732 M554,732 L487,562 L342,562 L380,732 M579,492 L579,8 Q375,-10 243,-10 Q153,-10 100.5,39 Q48,88 48,179 L48,492 L242,492 L242,220 Q242,178 257.5,161 Q273,144 305,144 Q313,144 385,148 L385,492"/> 
            <glyph glyph-name="Ų" unicode="&#x172;" horiz-adv-x="696" d=" M696,680 L696,319 Q696,197 645,116.5 Q594,36 498,4 Q466,-7 454,-17 Q442,-27 442,-42 Q442,-72 485,-72 Q507,-72 537,-64 L555,-208 Q523,-225 464,-225 Q391,-225 344,-188.5 Q297,-152 297,-94 Q297,-46 339,-14 Q198,-6 120.5,81.5 Q43,169 43,319 L43,680 L247,680 L247,319 Q247,250 279.5,211.5 Q312,173 369,173 Q426,173 459,211.5 Q492,250 492,319 L492,680"/> 
            <glyph glyph-name="ų" unicode="&#x173;" horiz-adv-x="636" d=" M618,-60 L636,-204 Q604,-221 545,-221 Q472,-221 425,-184.5 Q378,-148 378,-90 Q378,-37 429,-4 Q334,-10 243,-10 Q153,-10 100.5,39 Q48,88 48,179 L48,492 L242,492 L242,220 Q242,178 257.5,161 Q273,144 305,144 Q313,144 385,148 L385,492 L579,492 L579,8 Q547,-3 535,-13 Q523,-23 523,-38 Q523,-68 566,-68 Q588,-68 618,-60"/> 
            <glyph glyph-name="Ŵ" unicode="&#x174;" horiz-adv-x="1061" d=" M854,0 L657,0 L535,353 L412,0 L215,0 L8,680 L222,680 L325,318 L452,680 L617,680 L743,318 L847,680 L1061,680 M535,793 L491,737 L323,737 L451,890 L618,890 L746,737 L578,737"/> 
            <glyph glyph-name="ŵ" unicode="&#x175;" horiz-adv-x="825" d=" M675,0 L490,0 L418,231 L345,0 L161,0 L11,492 L205,492 L269,245 L346,492 L490,492 L566,246 L630,492 L825,492 M418,615 L374,562 L206,562 L334,713 L501,713 L629,562 L461,562"/> 
            <glyph glyph-name="Ŷ" unicode="&#x176;" horiz-adv-x="744" d=" M275,205 L8,680 L232,680 L375,420 L520,680 L744,680 L477,205 L477,0 L276,0 M376,793 L332,737 L164,737 L292,890 L459,890 L587,737 L419,737"/> 
            <glyph glyph-name="ŷ" unicode="&#x177;" horiz-adv-x="670" d=" M314,564 L146,564 L274,715 L441,715 L569,564 L401,564 L358,617 M670,492 L354,-217 L145,-217 L247,15 L14,492 L229,492 L347,245 L455,492"/> 
            <glyph glyph-name="Ÿ" unicode="&#x178;" horiz-adv-x="744" d=" M275,205 L8,680 L232,680 L375,420 L520,680 L744,680 L477,205 L477,0 L276,0 M254,923 Q296,923 326,895 Q356,867 356,825 Q356,783 326.5,755.5 Q297,728 254,728 Q211,728 181.5,755.5 Q152,783 152,825 Q152,867 181.5,895 Q211,923 254,923 M498,728 Q455,728 425,755.5 Q395,783 395,825 Q395,867 425,895 Q455,923 498,923 Q540,923 569.5,895 Q599,867 599,825 Q599,784 569.5,756 Q540,728 498,728"/> 
            <glyph glyph-name="Ź" unicode="&#x179;" horiz-adv-x="632" d=" M564,890 L424,737 L240,737 L336,890 M625,551 L324,175 L632,175 L632,0 L30,0 L30,129 L339,505 L48,505 L48,680 L625,680"/> 
            <glyph glyph-name="ź" unicode="&#x17A;" horiz-adv-x="501" d=" M485,717 L345,560 L164,560 L257,717 M487,391 L297,161 L501,161 L501,0 L30,0 L30,98 L228,332 L31,332 L31,493 L487,493"/> 
            <glyph glyph-name="Ż" unicode="&#x17B;" horiz-adv-x="632" d=" M232,822 Q232,861 260.5,888 Q289,915 330,915 Q371,915 399.5,888 Q428,861 428,822 Q428,782 399.5,755 Q371,728 330,728 Q289,728 260.5,755 Q232,782 232,822 M625,551 L324,175 L632,175 L632,0 L30,0 L30,129 L339,505 L48,505 L48,680 L625,680"/> 
            <glyph glyph-name="ż" unicode="&#x17C;" horiz-adv-x="501" d=" M259,746 Q301,746 331,718 Q361,690 361,648 Q361,606 331.5,578.5 Q302,551 259,551 Q216,551 186.5,578.5 Q157,606 157,648 Q157,690 186.5,718 Q216,746 259,746 M487,391 L297,161 L501,161 L501,0 L30,0 L30,98 L228,332 L31,332 L31,493 L487,493"/> 
            <glyph glyph-name="Ž" unicode="&#x17D;" horiz-adv-x="632" d=" M415,732 L248,732 L120,889 L288,889 L332,832 L375,889 L543,889 M625,551 L324,175 L632,175 L632,0 L30,0 L30,129 L339,505 L48,505 L48,680 L625,680"/> 
            <glyph glyph-name="ž" unicode="&#x17E;" horiz-adv-x="501" d=" M342,560 L175,560 L47,717 L215,717 L259,660 L302,717 L470,717 M487,391 L297,161 L501,161 L501,0 L30,0 L30,98 L228,332 L31,332 L31,493 L487,493"/> 
            <glyph glyph-name="ƒ" unicode="&#x192;" horiz-adv-x="576" d=" M416,695 Q490,695 576,676 L558,528 Q495,535 471,535 Q436,535 421.5,518.5 Q407,502 401,459 L398,437 L546,437 L546,265 L376,265 L368,207 Q340,-15 160,-15 Q86,-15 0,4 L18,152 Q81,145 105,145 Q140,145 154.5,161.5 Q169,178 175,221 L181,265 L70,265 L70,437 L203,437 L208,473 Q236,695 416,695"/> 
            <glyph glyph-name="Ǎ" unicode="&#x1CD;" horiz-adv-x="784" d=" M478,732 L311,732 L183,889 L351,889 L395,832 L438,889 L606,889 M256,93 L220,0 L7,0 L302,684 L489,684 L784,0 L571,0 L535,93 M395,459 L318,258 L472,258"/> 
            <glyph glyph-name="ǎ" unicode="&#x1CE;" horiz-adv-x="586" d=" M417,565 L250,565 L122,722 L290,722 L334,665 L377,722 L545,722 M274,507 Q372,507 586,483 L586,0 L392,0 L392,31 Q334,-15 257,-15 Q219,-15 180,1 Q141,17 106,47.5 Q71,78 49,130.5 Q27,183 27,249 Q32,366 97,436 Q165,507 274,507 M312,357 Q266,357 239,327 Q212,297 212,247 Q212,201 239.5,171.5 Q267,142 309,142 Q349,142 392,179 L392,352 Q327,357 312,357"/> 
            <glyph glyph-name="Ș" unicode="&#x218;" horiz-adv-x="641" d=" M631,647 L593,475 Q431,522 350,522 Q276,522 276,478 Q276,462 285.5,454 Q295,446 317,439 Q322,437 337.5,433.5 Q353,430 355,429 L407,418 Q513,395 571,353 Q641,307 641,206 Q641,101 564,43 Q487,-15 351,-15 Q210,-15 30,46 L75,216 Q238,159 331,156 Q417,155 417,200 Q417,229 369,242 Q365,244 358,245.5 Q351,247 342.5,249 Q334,251 330,252 Q324,254 306.5,257.5 Q289,261 283,262 Q159,291 107,334 Q54,378 54,467 Q54,574 130.5,633 Q207,692 344,692 Q491,692 631,647 M235,-289 L278,-204 Q229,-183 229,-135 Q229,-99 255,-74.5 Q281,-50 318,-50 Q355,-50 381,-74.5 Q407,-99 407,-135 Q407,-160 391,-188 Q377,-215 324,-289"/> 
            <glyph glyph-name="ș" unicode="&#x219;" horiz-adv-x="496" d=" M30,30 L65,168 Q199,124 258,124 Q305,124 305,143 Q305,157 271,168 Q266,170 245,174 Q224,178 219,179 Q126,201 86.5,235 Q47,269 47,335 Q47,419 105,463.5 Q163,508 271,508 Q380,508 491,474 L460,334 Q339,371 280,371 Q235,371 235,347 Q235,330 268,322 Q287,320 327,311 Q413,291 454.5,255.5 Q496,220 496,153 Q496,73 437.5,29 Q379,-15 274,-15 Q166,-15 30,30 M187,-289 L230,-204 Q181,-183 181,-135 Q181,-99 207,-74.5 Q233,-50 270,-50 Q307,-50 333,-74.5 Q359,-99 359,-135 Q359,-160 343,-188 Q329,-215 276,-289"/> 
            <glyph glyph-name="Ț" unicode="&#x21A;" horiz-adv-x="653" d=" M437,505 L437,0 L236,0 L236,505 L20,505 L20,680 L653,680 L653,505 M255,-289 L298,-204 Q249,-183 249,-135 Q249,-99 275,-74.5 Q301,-50 338,-50 Q375,-50 401,-74.5 Q427,-99 427,-135 Q427,-160 411,-188 Q397,-215 344,-289"/> 
            <glyph glyph-name="ț" unicode="&#x21B;" horiz-adv-x="460" d=" M443,166 L460,10 Q378,-15 288,-15 Q194,-15 144,42.5 Q94,100 94,207 L94,321 L10,321 L10,492 L94,492 L94,650 L288,650 L288,492 L432,492 L432,321 L288,321 L288,224 Q288,158 348,158 Q352,158 443,166 M177,-289 L220,-204 Q171,-183 171,-135 Q171,-99 197,-74.5 Q223,-50 260,-50 Q297,-50 323,-74.5 Q349,-99 349,-135 Q349,-160 333,-188 Q319,-215 266,-289"/> 
            <glyph glyph-name="ˆ" unicode="&#x2C6;" horiz-adv-x="511" d=" M300,615 L256,562 L88,562 L216,713 L383,713 L511,562 L343,562"/> 
            <glyph glyph-name="ˇ" unicode="&#x2C7;" horiz-adv-x="511" d=" M383,560 L216,560 L88,717 L256,717 L300,660 L343,717 L511,717"/> 
            <glyph glyph-name="˘" unicode="&#x2D8;" horiz-adv-x="490" d=" M350,731 L490,731 Q490,648 438.5,600.5 Q387,553 300,553 Q213,553 161.5,600.5 Q110,648 110,731 L249,731 Q249,708 263,693.5 Q277,679 300,679 Q322,679 336,693.5 Q350,708 350,731"/> 
            <glyph glyph-name="˙" unicode="&#x2D9;" horiz-adv-x="402" d=" M300,746 Q342,746 372,718 Q402,690 402,648 Q402,606 372.5,578.5 Q343,551 300,551 Q257,551 227.5,578.5 Q198,606 198,648 Q198,690 227.5,718 Q257,746 300,746"/> 
            <glyph glyph-name="˚" unicode="&#x2DA;" horiz-adv-x="440" d=" M197,780 Q237,817 299,817 Q362,817 400,780 Q440,744 440,686 Q440,628 400,591 Q361,555 299,555 Q238,555 197,591 Q158,628 158,686 Q158,744 197,780 M251,665 Q277,639 299,639 Q321,639 334,652 Q347,665 347,686 Q347,707 334,720 Q321,733 299,733 Q277,733 264,720 Q251,707 251,665"/> 
            <glyph glyph-name="˛" unicode="&#x2DB;" horiz-adv-x="429" d=" M351,50 L372,20 Q340,9 328,-1 Q316,-11 316,-26 Q316,-56 359,-56 Q381,-56 411,-48 L429,-192 Q397,-209 338,-209 Q265,-209 218,-172.5 Q171,-136 171,-78 Q171,-30 216,4 Q261,38 351,50"/> 
            <glyph glyph-name="˜" unicode="&#x2DC;" horiz-adv-x="506" d=" M374,718 L506,718 Q506,661 484.5,622.5 Q463,584 431.5,570 Q400,556 365.5,557 Q331,558 302,575 L275,592 Q238,613 238,568 L106,568 Q106,625 127,663 Q148,701 179.5,715 Q211,729 246,728 Q281,727 310,711 L337,694 Q374,675 374,718"/> 
            <glyph glyph-name="˝" unicode="&#x2DD;" horiz-adv-x="543" d=" M349,732 L282,562 L137,562 L175,732 M543,732 L476,562 L331,562 L369,732"/> 
            <glyph glyph-name="̦" unicode="&#x326;" horiz-adv-x="380" d=" M208,-289 L251,-204 Q202,-183 202,-135 Q202,-99 228,-74.5 Q254,-50 291,-50 Q328,-50 354,-74.5 Q380,-99 380,-135 Q380,-160 364,-188 Q350,-215 297,-289"/> 
            <glyph glyph-name="Ẁ" unicode="&#x1E80;" horiz-adv-x="1061" d=" M854,0 L657,0 L535,353 L412,0 L215,0 L8,680 L222,680 L325,318 L452,680 L617,680 L743,318 L847,680 L1061,680 M630,737 L448,737 L308,890 L537,890"/> 
            <glyph glyph-name="ẁ" unicode="&#x1E81;" horiz-adv-x="825" d=" M675,0 L490,0 L418,231 L345,0 L161,0 L11,492 L205,492 L269,245 L346,492 L490,492 L566,246 L630,492 L825,492 M490,560 L309,560 L169,717 L397,717"/> 
            <glyph glyph-name="Ẃ" unicode="&#x1E82;" horiz-adv-x="1061" d=" M854,0 L657,0 L535,353 L412,0 L215,0 L8,680 L222,680 L325,318 L452,680 L617,680 L743,318 L847,680 L1061,680 M767,890 L627,737 L443,737 L539,890"/> 
            <glyph glyph-name="ẃ" unicode="&#x1E83;" horiz-adv-x="825" d=" M675,0 L490,0 L418,231 L345,0 L161,0 L11,492 L205,492 L269,245 L346,492 L490,492 L566,246 L630,492 L825,492 M661,717 L521,560 L340,560 L433,717"/> 
            <glyph glyph-name="Ẅ" unicode="&#x1E84;" horiz-adv-x="1061" d=" M854,0 L657,0 L535,353 L412,0 L215,0 L8,680 L222,680 L325,318 L452,680 L617,680 L743,318 L847,680 L1061,680 M413,923 Q455,923 485,895 Q515,867 515,825 Q515,783 485.5,755.5 Q456,728 413,728 Q370,728 340.5,755.5 Q311,783 311,825 Q311,867 340.5,895 Q370,923 413,923 M657,728 Q614,728 584,755.5 Q554,783 554,825 Q554,867 584,895 Q614,923 657,923 Q699,923 728.5,895 Q758,867 758,825 Q758,784 728.5,756 Q699,728 657,728"/> 
            <glyph glyph-name="ẅ" unicode="&#x1E85;" horiz-adv-x="825" d=" M675,0 L490,0 L418,231 L345,0 L161,0 L11,492 L205,492 L269,245 L346,492 L490,492 L566,246 L630,492 L825,492 M296,746 Q338,746 368,718 Q398,690 398,648 Q398,606 368.5,578.5 Q339,551 296,551 Q253,551 223.5,578.5 Q194,606 194,648 Q194,690 223.5,718 Q253,746 296,746 M540,746 Q582,746 612,718 Q642,690 642,648 Q642,606 612.5,578.5 Q583,551 540,551 Q497,551 467.5,578.5 Q438,606 438,648 Q438,690 467.5,718 Q497,746 540,746"/> 
            <glyph glyph-name="Ỳ" unicode="&#x1EF2;" horiz-adv-x="744" d=" M275,205 L8,680 L232,680 L375,420 L520,680 L744,680 L477,205 L477,0 L276,0 M471,737 L289,737 L149,890 L378,890"/> 
            <glyph glyph-name="ỳ" unicode="&#x1EF3;" horiz-adv-x="670" d=" M269,562 L129,719 L357,719 L450,562 M670,492 L354,-217 L145,-217 L247,15 L14,492 L229,492 L347,245 L455,492"/> 
            <glyph glyph-name="–" unicode="&#x2013;" horiz-adv-x="550" d=" M550,347 L550,169 L53,169 L53,347"/> 
            <glyph glyph-name="—" unicode="&#x2014;" horiz-adv-x="973" d=" M973,347 L973,169 L73,169 L73,347"/> 
            <glyph glyph-name="‘" unicode="&#x2018;" horiz-adv-x="284" d=" M283,763 L220,627 Q284,599 284,536 Q284,490 250.5,458 Q217,426 169,426 Q122,426 87,458 Q53,489 53,536 Q53,567 73,607 Q91,640 168,763"/> 
            <glyph glyph-name="’" unicode="&#x2019;" horiz-adv-x="284" d=" M54,437 L117,574 Q87,586 70.5,610.5 Q54,635 54,664 Q54,711 87.5,742.5 Q121,774 169,774 Q217,774 250.5,742.5 Q284,711 284,664 Q284,633 264,593 Q248,562 170,437"/> 
            <glyph glyph-name="‚" unicode="&#x201A;" horiz-adv-x="284" d=" M54,-133 L118,4 Q54,32 54,95 Q54,141 87.5,172.5 Q121,204 169,204 Q217,204 250.5,172.5 Q284,141 284,95 Q284,64 264,24 Q250,-4 170,-133"/> 
            <glyph glyph-name="“" unicode="&#x201C;" horiz-adv-x="532" d=" M283,762 L220,625 Q284,598 284,535 Q284,488 250.5,456.5 Q217,425 169,425 Q121,425 87,456.5 Q53,488 53,535 Q53,566 73,606 Q91,639 168,762 M532,762 L468,625 Q532,598 532,535 Q532,488 498.5,456.5 Q465,425 417,425 Q369,425 335.5,456.5 Q302,488 302,535 Q302,566 322,606 Q338,637 416,762"/> 
            <glyph glyph-name="”" unicode="&#x201D;" horiz-adv-x="539" d=" M284,665 Q284,634 264,594 Q248,563 170,438 L54,438 L117,574 Q54,602 54,665 Q54,711 87.5,743 Q121,775 169,775 Q217,775 250.5,743 Q284,711 284,665 M539,665 Q539,634 519,594 Q503,563 425,438 L309,438 L372,574 Q309,602 309,665 Q309,711 342.5,743 Q376,775 424,775 Q472,775 505.5,743 Q539,711 539,665"/> 
            </font>
</defs>
</svg>
