<?xml version="1.0" standalone="no"?>
<!DOCTYPE svg PUBLIC "-//W3C//DTD SVG 1.1//EN" "http://www.w3.org/Graphics/SVG/1.1/DTD/svg11.dtd" >
<svg xmlns="http://www.w3.org/2000/svg">
    <defs>
        <font id="Canaro-Thin">
            <font-face font-family="Canaro-Thin"
                       units-per-em="1000"
                       ascent="757"
                       descent="-243"
                       bbox="-30 -272 1408 910"
                    />
            <missing-glyph horiz-adv-x="0" />
            
            <glyph glyph-name="!" unicode="&#x21;" horiz-adv-x="138" d=" M124,680 L124,160 L102,160 L102,680 M129,-1 Q120,-12 107.5,-7.5 Q95,-3 91.5,8.5 Q88,20 96,31 Q106,41 119,36.5 Q132,32 135,20.5 Q138,9 129,-1"/> 
            <glyph glyph-name="&quot;" unicode="&#x22;" horiz-adv-x="238" d=" M118,758 L108,538 L90,538 L93,758 M238,758 L228,538 L210,538 L213,758"/> 
            <glyph glyph-name="#" unicode="&#x23;" horiz-adv-x="660" d=" M467,242 L605,242 L605,226 L462,226 L391,0 L370,0 L441,226 L187,226 L116,0 L95,0 L166,226 L50,226 L50,242 L171,242 L233,442 L105,442 L105,458 L238,458 L308,681 L329,681 L259,458 L513,458 L583,681 L604,681 L534,458 L660,458 L660,442 L529,442 M254,442 L192,242 L446,242 L508,442"/> 
            <glyph glyph-name="$" unicode="&#x24;" horiz-adv-x="601" d=" M316,374 L391,357 Q414,352 455,339 Q495,327 514,314 Q601,261 595,175 Q595,89 530,36 Q466,-15 360,-15 L352,-15 L352,-141 L331,-141 L331,-14 Q203,-8 80,42 L89,61 Q230,5 361,5 Q455,5 513,51 Q572,98 572,175 Q572,242 524,282 Q504,299 469,312 Q429,327 408,332 L338,348 L319,352 Q204,376 161,410 Q118,444 118,513 Q118,594 176,643.5 Q234,693 331,695 L331,829 L352,829 L352,695 Q471,692 573,658 L567,641 Q458,675 340,675 Q249,675 195,631.5 Q141,588 141,514 Q141,455 178,425 Q216,395 316,374"/> 
            <glyph glyph-name="%" unicode="&#x25;" horiz-adv-x="977" d=" M150,644 Q200,695 276,695 Q352,695 402,644 Q452,592 452,511 Q452,430 402,378 Q352,327 276,327 Q200,327 150,378 Q100,430 100,511 Q100,592 150,644 M326,0 L302,0 L746,680 L770,680 M165,394 Q210,349 276,349 Q342,349 386,394 Q431,439 431,511 Q431,583 386,628 Q343,674 276,674 Q210,674 165,628 Q121,582 121,511 Q121,440 165,394 M675,302 Q724,353 801,353 Q878,353 927,302 Q977,250 977,169 Q977,88 927,36 Q878,-15 801,-15 Q724,-15 675,36 Q625,88 625,169 Q625,250 675,302 M690,52 Q735,7 801,7 Q868,7 911,52 Q956,97 956,169 Q956,241 911,286 Q868,332 801,332 Q735,332 690,286 Q646,240 646,169 Q646,98 690,52"/> 
            <glyph glyph-name="&amp;" unicode="&#x26;" horiz-adv-x="591" d=" M515,336 L515,184 Q515,93 452.5,39.5 Q390,-14 283,-14 Q176,-14 113,40 Q50,94 50,184 Q50,245 90.5,288 Q131,331 203,347 Q140,363 105,404 Q70,445 70,502 Q70,583 127,631.5 Q184,680 283,680 Q348,680 413,663 L407,644 Q343,660 283,660 Q194,660 143,617.5 Q92,575 92,502 Q92,435 146,395.5 Q200,356 293,356 L591,356 L591,336 M494,336 L293,336 Q191,336 131.5,294.5 Q72,253 72,184 Q72,102 128.5,54 Q185,6 283,6 Q381,6 437.5,54 Q494,102 494,184"/> 
            <glyph glyph-name="'" unicode="&#x27;" horiz-adv-x="118" d=" M118,758 L108,538 L90,538 L93,758"/> 
            <glyph glyph-name="(" unicode="&#x28;" horiz-adv-x="244" d=" M226,739 L244,729 Q88,529 88,265 Q88,0 244,-198 L226,-209 Q65,-9 65,265 Q65,539 226,739"/> 
            <glyph glyph-name=")" unicode="&#x29;" horiz-adv-x="235" d=" M56,729 L74,739 Q235,539 235,265 Q235,-9 74,-209 L56,-198 Q212,0 212,265 Q212,529 56,729"/> 
            <glyph glyph-name="*" unicode="&#x2A;" horiz-adv-x="337" d=" M337,470 L328,455 L208,525 L208,396 L190,396 L190,525 L71,455 L62,470 L182,541 L62,611 L71,627 L190,557 L190,682 L208,682 L208,556 L328,627 L337,611 L217,541"/> 
            <glyph glyph-name="+" unicode="&#x2B;" horiz-adv-x="572" d=" M363,305 L363,95 L340,95 L340,305 L130,305 L130,326 L340,326 L340,537 L363,537 L363,326 L572,326 L572,305"/> 
            <glyph glyph-name="," unicode="&#x2C;" horiz-adv-x="146" d=" M68,-160 L118,-5 Q100,-2 100,15 Q100,29 111.5,35 Q123,41 134.5,35 Q146,29 146,15 Q146,12 146,10 Q146,8 145.5,5.5 Q145,3 143.5,-1 Q142,-5 141,-9 Q140,-13 137,-20.5 Q134,-28 131,-36 Q128,-44 123.5,-57.5 Q119,-71 114,-84.5 Q109,-98 101.5,-118.5 Q94,-139 86,-160"/> 
            <glyph glyph-name="-" unicode="&#x2D;" horiz-adv-x="414" d=" M414,291 L414,270 L130,270 L130,291"/> 
            <glyph glyph-name="." unicode="&#x2E;" horiz-adv-x="148" d=" M139,-1 Q130,-12 117.5,-7.5 Q105,-3 101.5,8.5 Q98,20 106,31 Q116,41 129,36.5 Q142,32 145,20.5 Q148,9 139,-1"/> 
            <glyph glyph-name="/" unicode="&#x2F;" horiz-adv-x="408" d=" M52,-272 L30,-272 L386,768 L408,768"/> 
            <glyph glyph-name="0" unicode="&#x30;" horiz-adv-x="681" d=" M158,597 Q242,695 378,695 Q514,695 597,597 Q681,500 681,340 Q681,180 597,82 Q515,-15 378,-15 Q242,-15 158,82 Q75,180 75,340 Q75,499 158,597 M98,189 Q252,5 378,5 Q504,5 581,97 Q658,189 658,340 Q658,491 581,583 Q504,675 378,675 Q252,675 175,583 Q98,491 98,189"/> 
            <glyph glyph-name="1" unicode="&#x31;" horiz-adv-x="253" d=" M253,0 L232,0 L232,657 L32,592 L27,610 L243,680 L253,680"/> 
            <glyph glyph-name="2" unicode="&#x32;" horiz-adv-x="517" d=" M517,0 L59,0 L59,13 L303,235 Q371,298 393,321 Q423,351 451,401 Q478,450 478,497 Q478,577 423,626 Q368,675 277,675 Q168,675 67,610 L56,627 Q159,695 277,695 Q378,695 439,640 Q500,586 500,497 Q500,420 443,350 Q416,316 388,288 Q348,248 318,221 L98,20 L517,20"/> 
            <glyph glyph-name="3" unicode="&#x33;" horiz-adv-x="524" d=" M504,664 L239,369 L271,369 Q395,369 459.5,322 Q524,275 524,183 Q524,99 452,42 Q380,-15 281,-15 Q166,-15 44,42 L52,58 Q178,5 281,5 Q370,5 436,56 Q502,108 502,183 Q502,349 271,349 L204,349 L204,360 L473,660 L78,660 L78,680 L504,680"/> 
            <glyph glyph-name="4" unicode="&#x34;" horiz-adv-x="606" d=" M501,162 L606,162 L606,142 L501,142 L501,0 L480,0 L480,142 L50,142 L50,155 L480,680 L501,680 M82,162 L480,162 L480,647"/> 
            <glyph glyph-name="5" unicode="&#x35;" horiz-adv-x="540" d=" M112,398 L297,389 Q414,383 477,332 Q540,281 540,193 Q540,96 474,40 Q409,-15 307,-15 Q182,-15 60,42 L68,58 Q194,5 307,5 Q397,5 458,55 Q518,104 518,193 Q518,272 460.5,318 Q403,364 297,369 L89,379 L120,680 L515,680 L515,660 L139,660"/> 
            <glyph glyph-name="6" unicode="&#x36;" horiz-adv-x="547" d=" M306,445 Q412,445 479,382 Q547,319 547,217 Q547,114 479,49 Q412,-15 306,-15 Q200,-15 133,49 Q65,114 65,217 Q65,294 113,362 L335,680 L363,680 L177,413 Q236,445 306,445 M524,217 Q524,310 462,367 Q401,425 306,425 Q208,425 148,368 Q88,311 88,217 Q88,122 149,64 Q211,5 306,5 Q400,5 462,64 Q524,123 524,217"/> 
            <glyph glyph-name="7" unicode="&#x37;" horiz-adv-x="506" d=" M506,666 L175,0 L148,0 L478,660 L30,660 L30,680 L506,680"/> 
            <glyph glyph-name="8" unicode="&#x38;" horiz-adv-x="578" d=" M396,360 Q481,345 529.5,298.5 Q578,252 578,184 Q578,96 506,40 Q436,-15 319,-15 Q202,-15 131,40 Q60,96 60,184 Q60,252 108.5,298.5 Q157,345 242,360 Q178,377 141,421 Q104,465 104,527 Q104,603 163,649 Q222,695 319,695 Q416,695 475.5,649 Q535,603 535,527 Q535,465 498.5,421 Q462,377 396,360 M125,527 Q125,455 178,412.5 Q231,370 319,370 Q407,370 460,412.5 Q513,455 513,527 Q513,594 460,635 Q407,676 319,676 Q231,676 178,635 Q125,594 125,527 M556,184 Q556,259 491,303 Q426,348 319,348 Q211,348 147,303 Q82,259 82,184 Q82,104 147,54 Q212,5 319,5 Q426,5 490,54 Q556,104 556,184"/> 
            <glyph glyph-name="9" unicode="&#x39;" horiz-adv-x="532" d=" M532,463 Q532,388 484,318 L262,0 L234,0 L415,259 Q364,235 291,235 Q186,235 118,298 Q50,361 50,463 Q50,565 118,630 Q186,695 291,695 Q396,695 464,630 Q532,565 532,463 M291,255 Q389,255 449,312 Q509,369 509,463 Q509,557 447,616 Q385,675 291,675 Q196,675 134,616 Q73,558 73,463 Q73,370 134,312 Q195,255 291,255"/> 
            <glyph glyph-name=":" unicode="&#x3A;" horiz-adv-x="148" d=" M139,421 Q130,410 117.5,414.5 Q105,419 101.5,430.5 Q98,442 106,453 Q116,463 129,458.5 Q142,454 145,442.5 Q148,431 139,421 M139,-1 Q130,-12 117.5,-7.5 Q105,-3 101.5,8.5 Q98,20 106,31 Q116,41 129,36.5 Q142,32 145,20.5 Q148,9 139,-1"/> 
            <glyph glyph-name=";" unicode="&#x3B;" horiz-adv-x="148" d=" M68,-160 L118,-5 Q100,-2 100,15 Q100,29 111.5,35 Q123,41 134.5,35 Q146,29 146,15 Q146,12 146,10 Q146,8 145.5,5.5 Q145,3 143.5,-1 Q142,-5 141,-9 Q140,-13 137,-20.5 Q134,-28 131,-36 Q128,-44 123.5,-57.5 Q119,-71 114,-84.5 Q109,-98 101.5,-118.5 Q94,-139 86,-160 M139,421 Q130,410 117.5,414.5 Q105,419 101.5,430.5 Q98,442 106,453 Q116,463 129,458.5 Q142,454 145,442.5 Q148,431 139,421"/> 
            <glyph glyph-name="&lt;" unicode="&#x3C;" horiz-adv-x="482" d=" M482,521 L482,498 L83,300 L482,101 L482,78 L60,288 L60,311"/> 
            <glyph glyph-name="=" unicode="&#x3D;" horiz-adv-x="612" d=" M612,413 L130,413 L130,434 L612,434 M612,223 L130,223 L130,244 L612,244"/> 
            <glyph glyph-name="&gt;" unicode="&#x3E;" horiz-adv-x="502" d=" M502,288 L80,78 L80,101 L479,300 L80,498 L80,521 L502,311"/> 
            <glyph glyph-name="?" unicode="&#x3F;" horiz-adv-x="447" d=" M210,695 Q318,695 382,640 Q447,584 447,494 Q447,398 384,339 Q323,281 219,281 L184,281 L189,160 L169,160 L162,301 L219,301 Q312,301 368.5,354 Q425,407 425,494 Q425,575 366,625 Q307,675 209,675 Q132,675 61,655 L55,674 Q128,695 210,695 M166,31 Q176,41 189,36.5 Q202,32 205,20.5 Q208,9 199,-1 Q190,-12 177.5,-7.5 Q165,-3 161.5,8.5 Q158,20 166,31"/> 
            <glyph glyph-name="@" unicode="&#x40;" horiz-adv-x="945" d=" M505,690 Q703,690 824,572 Q945,454 945,261 Q945,24 808,24 Q723,24 695,91 Q633,52 585,35 Q538,20 486,20 Q382,20 318,86 Q255,153 255,262 Q255,357 319,418 Q384,480 486,480 Q596,480 700,455 L700,186 Q700,115 725.5,80 Q751,45 808,45 Q924,45 924,261 Q924,444 808,557 Q692,670 505,670 Q328,670 207,552 Q87,435 87,261 Q87,88 207,-31 Q328,-149 505,-149 Q609,-149 736,-118 L740,-137 Q615,-169 505,-169 Q316,-169 190,-46 Q65,76 65,261 Q65,445 190,567 Q316,690 505,690 M486,460 Q394,460 335,403 Q278,348 278,262 Q278,163 334,101 Q391,40 486,40 Q535,40 580,55 Q625,70 688,109 Q679,142 679,186 L679,441 Q583,460 486,460"/> 
            <glyph glyph-name="A" unicode="&#x41;" horiz-adv-x="691" d=" M161,193 L74,0 L50,0 L359,685 L382,685 L691,0 L667,0 L580,193 M371,660 L170,214 L571,214"/> 
            <glyph glyph-name="B" unicode="&#x42;" horiz-adv-x="606" d=" M430,353 Q516,339 561,296 Q606,253 606,185 Q606,93 538.5,43 Q471,-7 353,-7 Q303,-7 115,0 L115,680 Q270,687 353,687 Q453,687 509.5,642.5 Q566,598 566,515 Q566,389 430,353 M353,667 Q269,667 137,661 L137,360 L333,360 Q434,360 488.5,400.5 Q543,441 543,515 Q543,589 492.5,628 Q442,667 353,667 M353,13 Q460,13 521.5,57.5 Q583,102 583,185 Q583,257 521,298.5 Q459,340 353,340 L137,340 L137,19 Q288,13 353,13"/> 
            <glyph glyph-name="C" unicode="&#x43;" horiz-adv-x="699" d=" M675,658 L670,640 Q554,675 448,675 Q287,675 192,583 Q98,492 98,340 Q98,189 190,97 Q284,5 438,5 Q556,5 694,47 L699,29 Q561,-15 438,-15 Q271,-15 173,82 Q75,180 75,340 Q75,501 175,598 Q275,695 448,695 Q565,695 675,658"/> 
            <glyph glyph-name="D" unicode="&#x44;" horiz-adv-x="686" d=" M333,687 Q495,687 590,596 Q686,504 686,346 Q686,182 590,88 Q494,-5 333,-5 Q303,-5 115,0 L115,680 Q263,687 333,687 M333,15 Q484,15 573,103 Q663,192 663,346 Q663,496 573,581 Q482,667 333,667 Q263,667 137,661 L137,19 Q249,15 333,15"/> 
            <glyph glyph-name="E" unicode="&#x45;" horiz-adv-x="567" d=" M137,350 L527,350 L527,330 L137,330 L137,20 L567,20 L567,0 L115,0 L115,680 L567,680 L567,660 L137,660"/> 
            <glyph glyph-name="F" unicode="&#x46;" horiz-adv-x="557" d=" M137,330 L517,330 L517,310 L137,310 L137,0 L115,0 L115,680 L557,680 L557,660 L137,660"/> 
            <glyph glyph-name="G" unicode="&#x47;" horiz-adv-x="741" d=" M741,350 L741,50 Q599,-15 438,-15 Q275,-15 175,82 Q75,179 75,340 Q75,500 175,597 Q276,695 438,695 Q565,695 675,658 L670,640 Q554,675 438,675 Q286,675 191,583 Q98,492 98,340 Q98,188 191,97 Q286,5 438,5 Q582,5 720,61 L720,330 L421,330 L421,350"/> 
            <glyph glyph-name="H" unicode="&#x48;" horiz-adv-x="634" d=" M634,0 L612,0 L612,330 L137,330 L137,0 L115,0 L115,680 L137,680 L137,350 L612,350 L612,680 L634,680"/> 
            <glyph glyph-name="I" unicode="&#x49;" horiz-adv-x="137" d=" M137,680 L137,0 L115,0 L115,680"/> 
            <glyph glyph-name="J" unicode="&#x4A;" horiz-adv-x="474" d=" M474,680 L474,236 Q474,115 416,50 Q358,-15 251,-15 Q146,-15 36,31 L44,50 Q155,5 251,5 Q348,5 400,65 Q452,125 452,236 L452,680"/> 
            <glyph glyph-name="K" unicode="&#x4B;" horiz-adv-x="633" d=" M137,310 L137,0 L115,0 L115,680 L137,680 L137,330 L228,330 L564,680 L593,680 L259,334 L633,0 L601,0 L256,310"/> 
            <glyph glyph-name="L" unicode="&#x4C;" horiz-adv-x="537" d=" M537,0 L115,0 L115,680 L137,680 L137,20 L537,20"/> 
            <glyph glyph-name="M" unicode="&#x4D;" horiz-adv-x="845" d=" M786,639 L487,0 L463,0 L164,639 L127,0 L105,0 L145,680 L169,680 L475,26 L781,680 L805,680 L845,0 L823,0"/> 
            <glyph glyph-name="N" unicode="&#x4E;" horiz-adv-x="667" d=" M667,680 L667,0 L639,0 L137,652 L137,0 L115,0 L115,680 L142,680 L645,28 L645,680"/> 
            <glyph glyph-name="O" unicode="&#x4F;" horiz-adv-x="781" d=" M172,597 Q270,695 428,695 Q586,695 684,597 Q781,500 781,340 Q781,179 684,82 Q587,-15 428,-15 Q269,-15 172,82 Q75,179 75,340 Q75,500 172,597 M189,97 Q281,5 428,5 Q575,5 667,97 Q758,188 758,340 Q758,492 667,583 Q575,675 428,675 Q281,675 189,583 Q98,492 98,340 Q98,188 189,97"/> 
            <glyph glyph-name="P" unicode="&#x50;" horiz-adv-x="586" d=" M333,687 Q450,687 518,628.5 Q586,570 586,465 Q586,367 516,309 Q446,250 333,250 L137,250 L137,0 L115,0 L115,680 Q230,687 333,687 M137,270 L333,270 Q435,270 499,323 Q563,377 563,465 Q563,561 501.5,614 Q440,667 333,667 Q252,667 137,661"/> 
            <glyph glyph-name="Q" unicode="&#x51;" horiz-adv-x="781" d=" M781,340 Q781,219 724,131.5 Q667,44 566,8 L713,-165 L685,-165 L544,1 Q490,-15 428,-15 Q269,-15 172,82 Q75,179 75,340 Q75,500 172,597 Q270,695 428,695 Q586,695 684,597 Q781,500 781,340 M189,583 Q98,492 98,340 Q98,188 189,97 Q281,5 428,5 Q575,5 667,97 Q758,188 758,340 Q758,492 667,583 Q575,675 428,675 Q281,675 189,583"/> 
            <glyph glyph-name="R" unicode="&#x52;" horiz-adv-x="605" d=" M578,0 L370,274 Q349,270 313,270 L137,270 L137,0 L115,0 L115,680 Q248,687 313,687 Q431,687 498.5,634.5 Q566,582 566,485 Q566,403 521,349.5 Q476,296 393,278 L605,0 M137,290 L313,290 Q420,290 481.5,341.5 Q543,393 543,485 Q543,573 482.5,620 Q422,667 313,667 Q239,667 137,661"/> 
            <glyph glyph-name="S" unicode="&#x53;" horiz-adv-x="601" d=" M573,658 L567,641 Q458,675 340,675 Q249,675 195,631.5 Q141,588 141,514 Q141,455 178,425 Q216,395 316,374 L391,357 Q414,352 455,339 Q495,327 514,314 Q601,261 595,175 Q595,89 530,36 Q466,-15 360,-15 Q219,-15 80,42 L89,61 Q230,5 361,5 Q455,5 513,51 Q572,98 572,175 Q572,242 524,282 Q504,299 469,312 Q429,327 408,332 L338,348 L319,352 Q204,376 161,410 Q118,444 118,513 Q118,596 179,645.5 Q240,695 340,695 Q462,695 573,658"/> 
            <glyph glyph-name="T" unicode="&#x54;" horiz-adv-x="632" d=" M342,660 L342,0 L320,0 L320,660 L30,660 L30,680 L632,680 L632,660"/> 
            <glyph glyph-name="U" unicode="&#x55;" horiz-adv-x="661" d=" M661,680 L661,256 Q661,134 584,59 Q507,-15 383,-15 Q258,-15 181,59 Q105,134 105,256 L105,680 L127,680 L127,256 Q127,143 197,74 Q268,5 383,5 Q498,5 569,74 Q639,143 639,256 L639,680"/> 
            <glyph glyph-name="V" unicode="&#x56;" horiz-adv-x="711" d=" M392,0 L369,0 L50,680 L75,680 L381,27 L686,680 L711,680"/> 
            <glyph glyph-name="W" unicode="&#x57;" horiz-adv-x="1004" d=" M765,0 L744,0 L527,648 L310,0 L289,0 L50,680 L74,680 L300,34 L516,680 L538,680 L754,35 L980,680 L1004,680"/> 
            <glyph glyph-name="X" unicode="&#x58;" horiz-adv-x="627" d=" M345,339 L627,0 L600,0 L331,322 L62,0 L35,0 L317,339 L46,680 L74,680 L331,356 L588,680 L616,680"/> 
            <glyph glyph-name="Y" unicode="&#x59;" horiz-adv-x="630" d=" M319,257 L30,680 L56,680 L330,277 L604,680 L630,680 L341,257 L341,0 L319,0"/> 
            <glyph glyph-name="Z" unicode="&#x5A;" horiz-adv-x="575" d=" M575,663 L104,20 L575,20 L575,0 L75,0 L75,17 L548,660 L85,660 L85,680 L575,680"/> 
            <glyph glyph-name="[" unicode="&#x5B;" horiz-adv-x="242" d=" M111,-190 L242,-190 L242,-210 L90,-210 L90,740 L242,740 L242,720 L111,720"/> 
            <glyph glyph-name="\" unicode="&#x5C;" horiz-adv-x="428" d=" M72,768 L428,-272 L406,-272 L50,768"/> 
            <glyph glyph-name="]" unicode="&#x5D;" horiz-adv-x="212" d=" M60,720 L60,740 L212,740 L212,-210 L60,-210 L60,-190 L191,-190 L191,720"/> 
            <glyph glyph-name="^" unicode="&#x5E;" horiz-adv-x="359" d=" M195,658 L54,437 L30,437 L185,680 L204,680 L359,437 L335,437"/> 
            <glyph glyph-name="_" unicode="&#x5F;" horiz-adv-x="618" d=" M50,-158 L618,-158 L618,-177 L50,-177"/> 
            <glyph glyph-name="`" unicode="&#x60;" horiz-adv-x="344" d=" M344,580 L322,580 L221,740 L251,740"/> 
            <glyph glyph-name="a" unicode="&#x61;" horiz-adv-x="510" d=" M296,465 Q406,465 510,440 L510,0 L489,0 L489,46 Q389,-15 296,-15 Q192,-15 128,51 Q65,118 65,227 Q65,334 128,399 Q192,465 296,465 M296,445 Q201,445 144,385 Q88,326 88,227 Q88,128 144,66 Q201,5 296,5 Q382,5 489,67 L489,426 Q393,445 296,445"/> 
            <glyph glyph-name="b" unicode="&#x62;" horiz-adv-x="545" d=" M121,710 L121,437 Q205,465 314,465 Q418,465 481,399 Q545,335 545,227 Q545,118 481,51 Q418,-15 314,-15 Q262,-15 247,-14 Q221,-12 188,-7 Q156,-3 100,10 L100,710 M314,445 Q211,445 121,417 L121,24 Q209,5 314,5 Q410,5 465,66 Q522,128 522,227 Q522,326 465,385 Q410,445 314,445"/> 
            <glyph glyph-name="c" unicode="&#x63;" horiz-adv-x="481" d=" M465,441 L460,423 Q382,445 310,445 Q210,445 149,385 Q88,325 88,226 Q88,126 148,65 Q208,5 303,5 Q373,5 475,34 L481,14 Q383,-15 306,-15 Q198,-15 131,51 Q65,117 65,225 Q65,334 133,399 Q200,465 313,465 Q391,465 465,441"/> 
            <glyph glyph-name="d" unicode="&#x64;" horiz-adv-x="510" d=" M510,710 L510,10 Q416,-12 363,-14 Q348,-15 296,-15 Q192,-15 128,51 Q65,118 65,227 Q65,334 128,399 Q192,465 296,465 Q405,465 489,437 L489,710 M296,445 Q201,445 144,385 Q88,326 88,227 Q88,128 144,66 Q201,5 296,5 Q401,5 489,24 L489,417 Q399,445 296,445"/> 
            <glyph glyph-name="e" unicode="&#x65;" horiz-adv-x="507" d=" M296,465 Q392,465 449.5,403.5 Q507,342 507,237 L507,217 L88,217 Q91,122 147,63 Q202,5 295,5 Q364,5 466,31 L471,14 Q372,-15 295,-15 Q192,-15 128,51 Q65,118 65,227 Q65,334 128,399 Q192,465 296,465 M296,445 Q204,445 147,388 Q91,330 88,237 L486,237 Q486,333 434.5,389 Q383,445 296,445"/> 
            <glyph glyph-name="f" unicode="&#x66;" horiz-adv-x="358" d=" M277,735 Q225,735 193,700.5 Q161,666 161,609 L161,450 L348,450 L348,430 L161,430 L161,0 L140,0 L140,430 L3,430 L3,450 L140,450 L140,609 Q140,675 177.5,715 Q215,755 277,755 Q312,755 358,743 L353,725 Q312,735 277,735"/> 
            <glyph glyph-name="g" unicode="&#x67;" horiz-adv-x="510" d=" M296,465 Q406,465 510,440 L510,10 Q510,-106 447,-174 Q384,-242 280,-242 Q180,-242 104,-203 L111,-186 Q190,-222 280,-222 Q376,-222 432.5,-158.5 Q489,-95 489,15 Q398,-5 296,-5 Q194,-5 129,60 Q65,124 65,227 Q65,334 128,399 Q192,465 296,465 M296,445 Q201,445 144,385 Q88,326 88,227 Q88,134 145,74 Q202,15 296,15 Q401,15 489,34 L489,426 Q393,445 296,445"/> 
            <glyph glyph-name="h" unicode="&#x68;" horiz-adv-x="512" d=" M334,465 Q420,465 466,415 Q512,365 512,272 L512,0 L491,0 L491,272 Q491,355 450,400 Q409,445 334,445 Q212,445 121,417 L121,0 L100,0 L100,710 L121,710 L121,437 Q209,465 334,465"/> 
            <glyph glyph-name="i" unicode="&#x69;" horiz-adv-x="144" d=" M135,613 Q126,602 113.5,606.5 Q101,611 97.5,622.5 Q94,634 102,645 Q112,655 125,650.5 Q138,646 141,634.5 Q144,623 135,613 M130,450 L130,0 L109,0 L109,450"/> 
            <glyph glyph-name="j" unicode="&#x6A;" horiz-adv-x="134" d=" M93,645 Q99,651 107,652 Q115,653 120.5,649 Q126,645 130,639.5 Q134,634 133,626 Q132,618 126,612 Q117,603 104.5,607.5 Q92,612 88.5,623 Q85,634 93,645 M121,450 L121,-60 Q121,-150 89.5,-188 Q58,-226 -16,-226 L-16,-206 Q47,-206 73.5,-172.5 Q100,-139 100,-60 L100,450"/> 
            <glyph glyph-name="k" unicode="&#x6B;" horiz-adv-x="512" d=" M121,237 L210,237 L433,450 L463,450 L243,239 L512,0 L479,0 L235,217 L121,217 L121,0 L100,0 L100,710 L121,710"/> 
            <glyph glyph-name="l" unicode="&#x6C;" horiz-adv-x="131" d=" M131,710 L131,0 L110,0 L110,710"/> 
            <glyph glyph-name="m" unicode="&#x6D;" horiz-adv-x="803" d=" M645,465 Q803,465 803,272 L803,0 L782,0 L782,272 Q782,445 645,445 Q538,445 439,404 Q462,361 462,282 L462,0 L441,0 L441,282 Q441,374 408.5,409.5 Q376,445 294,445 Q204,441 121,425 L121,0 L100,0 L100,440 Q198,460 294,465 Q392,465 429,419 Q530,465 645,465"/> 
            <glyph glyph-name="n" unicode="&#x6E;" horiz-adv-x="512" d=" M334,465 Q420,465 466,415 Q512,365 512,272 L512,0 L491,0 L491,272 Q491,355 450,400 Q409,445 334,445 Q219,445 121,426 L121,0 L100,0 L100,440 Q204,465 334,465"/> 
            <glyph glyph-name="o" unicode="&#x6F;" horiz-adv-x="547" d=" M547,227 Q547,120 479,52 Q412,-15 306,-15 Q200,-15 133,52 Q65,120 65,227 Q65,333 133,399 Q201,465 306,465 Q412,465 479,399 Q547,333 547,227 M524,227 Q524,325 463,385 Q402,445 306,445 Q210,445 149,385 Q88,325 88,227 Q88,127 149,66 Q210,5 306,5 Q402,5 463,66 Q524,127 524,227"/> 
            <glyph glyph-name="p" unicode="&#x70;" horiz-adv-x="545" d=" M314,465 Q418,465 481,399 Q545,335 545,227 Q545,124 481,60 Q416,-5 314,-5 Q212,-5 121,15 L121,-220 L100,-220 L100,440 Q204,465 314,465 M314,15 Q408,15 465,74 Q522,134 522,227 Q522,326 465,385 Q410,445 314,445 Q217,445 121,426 L121,34 Q209,15 314,15"/> 
            <glyph glyph-name="q" unicode="&#x71;" horiz-adv-x="510" d=" M296,465 Q406,465 510,440 L510,-220 L489,-220 L489,15 Q398,-5 296,-5 Q194,-5 129,60 Q65,124 65,227 Q65,334 128,399 Q192,465 296,465 M296,15 Q401,15 489,34 L489,426 Q393,445 296,445 Q201,445 144,385 Q88,326 88,227 Q88,134 145,74 Q202,15 296,15"/> 
            <glyph glyph-name="r" unicode="&#x72;" horiz-adv-x="324" d=" M324,458 L324,438 Q218,438 121,425 L121,0 L100,0 L100,440 Q209,458 324,458"/> 
            <glyph glyph-name="s" unicode="&#x73;" horiz-adv-x="440" d=" M70,34 L78,53 Q181,5 272,5 Q338,5 378.5,34.5 Q419,64 419,114 Q415,149 401,167.5 Q387,186 351,198 Q324,208 303,213 Q285,219 241,228 Q162,246 129.5,270.5 Q97,295 97,344 Q97,402 140.5,433.5 Q184,465 262,465 Q342,465 424,436 L417,417 Q339,445 259,445 Q118,445 118,342 Q118,303 144,283 Q170,265 241,248 L272,240 L303,233 L330,225 Q354,219 380,207 Q408,195 430,162 Q440,138 440,115 Q440,55 394,20 Q348,-15 270,-15 Q175,-15 70,34"/> 
            <glyph glyph-name="t" unicode="&#x74;" horiz-adv-x="358" d=" M353,15 L358,-3 Q312,-15 277,-15 Q203,-15 171.5,23 Q140,61 140,151 L140,430 L30,430 L30,450 L140,450 L140,660 L161,660 L161,450 L335,450 L335,430 L161,430 L161,151 Q161,72 187.5,38.5 Q214,5 277,5 Q312,5 353,15"/> 
            <glyph glyph-name="u" unicode="&#x75;" horiz-adv-x="502" d=" M502,450 L502,10 Q398,-15 268,-15 Q182,-15 136,35 Q90,85 90,178 L90,450 L111,450 L111,178 Q111,95 152,50 Q193,5 268,5 Q383,5 481,24 L481,450"/> 
            <glyph glyph-name="v" unicode="&#x76;" horiz-adv-x="516" d=" M295,0 L271,0 L50,450 L74,450 L283,23 L492,450 L516,450"/> 
            <glyph glyph-name="w" unicode="&#x77;" horiz-adv-x="767" d=" M586,0 L563,0 L413,416 L264,0 L241,0 L60,450 L83,450 L253,33 L402,450 L425,450 L575,33 L744,450 L767,450"/> 
            <glyph glyph-name="x" unicode="&#x78;" horiz-adv-x="473" d=" M273,224 L473,0 L445,0 L259,208 L72,0 L45,0 L245,224 L51,450 L78,450 L259,240 L440,450 L467,450"/> 
            <glyph glyph-name="y" unicode="&#x79;" horiz-adv-x="547" d=" M547,450 L187,-220 L163,-220 L288,13 L45,450 L69,450 L300,34 L523,450"/> 
            <glyph glyph-name="z" unicode="&#x7A;" horiz-adv-x="429" d=" M429,433 L89,20 L429,20 L429,0 L60,0 L60,17 L399,430 L74,430 L74,450 L429,450"/> 
            <glyph glyph-name="{" unicode="&#x7B;" horiz-adv-x="298" d=" M182,579 L182,420 Q182,291 111,264 Q182,237 182,108 L182,-51 Q182,-130 208.5,-163.5 Q235,-197 298,-197 L298,-217 Q224,-217 192.5,-179 Q161,-141 161,-51 L161,108 Q161,187 134.5,220.5 Q108,254 45,254 L45,274 Q108,274 134.5,307.5 Q161,341 161,420 L161,579 Q161,669 192.5,707 Q224,745 298,745 L298,725 Q235,725 208.5,691.5 Q182,658 182,579"/> 
            <glyph glyph-name="|" unicode="&#x7C;" horiz-adv-x="162" d=" M162,768 L162,-150 L140,-150 L140,768"/> 
            <glyph glyph-name="}" unicode="&#x7D;" horiz-adv-x="313" d=" M176,420 L176,579 Q176,658 149.5,691.5 Q123,725 60,725 L60,745 Q134,745 165.5,707 Q197,669 197,579 L197,420 Q197,341 223.5,307.5 Q250,274 313,274 L313,254 Q250,254 223.5,220.5 Q197,187 197,108 L197,-51 Q197,-141 165.5,-179 Q134,-217 60,-217 L60,-197 Q123,-197 149.5,-163.5 Q176,-130 176,-51 L176,108 Q176,237 247,264 Q176,291 176,420"/> 
            <glyph glyph-name="~" unicode="&#x7E;" horiz-adv-x="399" d=" M379,386 L399,386 Q399,355 384.5,335 Q370,315 349,308.5 Q328,302 305.5,305 Q283,308 266,320 L194,371 Q175,384 152,384.5 Q129,385 111,369 Q93,353 93,323 L73,323 Q73,364 98,385.5 Q123,407 152.5,404.5 Q182,402 206,389 L278,338 Q306,316 342.5,329 Q379,342 379,386"/> 
            <glyph glyph-name="¡" unicode="&#xA1;" horiz-adv-x="152" d=" M111,458 Q117,464 125,465 Q133,466 138.5,462 Q144,458 148,452.5 Q152,447 151,439 Q150,431 144,425 Q135,416 122.5,420.5 Q110,425 106.5,436 Q103,447 111,458 M117,297 L139,297 L139,-223 L117,-223"/> 
            <glyph glyph-name="¢" unicode="&#xA2;" horiz-adv-x="472" d=" M466,44 L472,24 Q388,-2 310,-5 L310,-131 L289,-131 L289,-5 Q185,-2 120,63 Q56,128 56,235 Q56,340 119,405 Q185,471 289,475 L289,599 L310,599 L310,475 Q386,473 456,451 L451,433 Q373,455 301,455 Q202,455 140,395 Q79,335 79,236 Q79,137 139,75 Q199,15 294,15 Q364,15 466,44"/> 
            <glyph glyph-name="£" unicode="&#xA3;" horiz-adv-x="583" d=" M583,0 L55,0 L55,20 L142,20 L142,290 L55,290 L55,310 L142,310 L142,494 Q142,584 207,640 Q271,695 379,695 Q460,695 534,674 L528,655 Q457,675 380,675 Q282,675 223,625 Q164,575 164,494 L164,310 L436,310 L436,290 L164,290 L164,20 L583,20"/> 
            <glyph glyph-name="¥" unicode="&#xA5;" horiz-adv-x="620" d=" M554,271 L554,250 L331,250 L331,129 L554,129 L554,108 L331,108 L331,0 L309,0 L309,108 L86,108 L86,129 L309,129 L309,250 L86,250 L86,271 L299,271 L20,680 L46,680 L320,277 L594,680 L620,680 L341,271"/> 
            <glyph glyph-name="¦" unicode="&#xA6;" horiz-adv-x="162" d=" M162,359 L140,359 L140,767 L162,767 M162,-151 L140,-151 L140,257 L162,257"/> 
            <glyph glyph-name="§" unicode="&#xA7;" horiz-adv-x="472" d=" M264,695 Q344,695 426,666 L419,647 Q341,675 261,675 Q193,675 156.5,649 Q120,623 120,577 Q120,540 149,517 Q177,495 273,446 Q383,390 428,350 Q472,311 472,249 Q472,199 446,166 Q420,133 358,99 Q391,78 404.5,57.5 Q418,37 418,8 Q418,-47 374.5,-78.5 Q331,-110 253,-110 Q173,-110 91,-81 L98,-62 Q176,-90 256,-90 Q324,-90 360.5,-64 Q397,-38 397,8 Q397,45 368,68 Q340,90 244,139 Q132,196 88,235 Q45,274 45,336 Q45,386 71,419 Q97,452 159,486 Q126,507 112.5,527.5 Q99,548 99,577 Q99,632 142.5,663.5 Q186,695 264,695 M178,474 Q116,442 91,413 Q66,384 66,338 Q66,282 105,247 Q146,212 247,160 Q325,119 339,111 Q401,143 426,172 Q451,201 451,247 Q451,304 411,338 Q372,372 270,425 Q192,466 178,474"/> 
            <glyph glyph-name="¨" unicode="&#xA8;" horiz-adv-x="427" d=" M180,645 Q184,649 188,650.5 Q192,652 195.5,652 Q199,652 203,651 Q207,650 210,647.5 Q213,645 215.5,642 Q218,639 219,635 Q220,631 220,627.5 Q220,624 218.5,620 Q217,616 213,612 Q204,603 191.5,607.5 Q179,612 175.5,623 Q172,634 180,645 M386,645 Q392,651 400,652 Q408,653 413.5,649 Q419,645 423,639.5 Q427,634 426,626 Q425,618 419,612 Q410,603 397.5,607.5 Q385,612 381.5,623 Q378,634 386,645"/> 
            <glyph glyph-name="©" unicode="&#xA9;" horiz-adv-x="793" d=" M169,593 Q272,695 429,695 Q586,695 689,593 Q793,492 793,340 Q793,188 689,86 Q585,-15 429,-15 Q273,-15 169,86 Q65,188 65,340 Q65,492 169,593 M429,676 Q283,676 185,579 Q86,483 86,340 Q86,198 185,100 Q284,4 429,4 Q576,4 674,101 Q773,199 773,340 Q773,482 674,579 Q576,676 429,676 M571,513 L564,495 Q494,517 430,517 Q346,517 300.5,470.5 Q255,424 255,338 Q255,252 300,205 Q345,158 427,158 Q475,158 564,180 L570,162 Q495,138 430,138 Q335,138 283.5,190 Q232,242 232,338 Q232,433 284,485 Q336,537 431,537 Q494,537 571,513"/> 
            <glyph glyph-name="ª" unicode="&#xAA;" horiz-adv-x="382" d=" M247,695 Q317,695 349.5,666 Q382,637 382,574 L382,375 Q296,357 220,357 Q70,357 70,457 Q70,500 108.5,525 Q147,550 219,553 L361,559 L361,573 Q361,627 334,651.5 Q307,676 247,676 Q186,676 112,665 L110,684 Q184,695 247,695 M361,540 L219,534 Q91,529 91,458 Q91,376 222,376 Q284,376 361,389"/> 
            <glyph glyph-name="«" unicode="&#xAB;" horiz-adv-x="429" d=" M259,72 L245,58 L60,246 L245,434 L259,420 L91,246 M429,72 L415,58 L230,246 L415,434 L429,420 L261,246"/> 
            <glyph glyph-name="®" unicode="&#xAE;" horiz-adv-x="793" d=" M169,593 Q272,695 429,695 Q586,695 689,593 Q793,492 793,340 Q793,188 689,86 Q585,-15 429,-15 Q273,-15 169,86 Q65,188 65,340 Q65,492 169,593 M429,676 Q283,676 185,579 Q86,483 86,340 Q86,198 185,100 Q284,4 429,4 Q576,4 674,101 Q773,199 773,340 Q773,482 674,579 Q576,676 429,676 M431,537 Q503,537 543,506.5 Q583,476 583,419 Q583,372 555.5,341 Q528,310 479,300 L602,143 L577,143 L459,296 Q433,294 430,294 L329,294 L329,143 L309,143 L309,533 Q390,537 431,537 M431,520 Q397,520 329,516 L329,312 L431,312 Q492,312 527.5,340 Q563,368 563,419 Q563,467 527.5,493.5 Q492,520 431,520"/> 
            <glyph glyph-name="¯" unicode="&#xAF;" horiz-adv-x="431" d=" M431,667 L431,650 L167,650 L167,667"/> 
            <glyph glyph-name="°" unicode="&#xB0;" horiz-adv-x="412" d=" M412,537 Q412,472 365,425 Q318,380 251,380 Q182,380 136,425 Q90,471 90,537 Q90,604 136,649 Q182,695 251,695 Q319,695 365,649 Q412,604 412,537 M390,537 Q390,594 349,635 Q309,675 251,675 Q192,675 152,635 Q112,595 112,537 Q112,480 152,440 Q192,401 251,401 Q308,401 349,440 Q390,481 390,537"/> 
            <glyph glyph-name="±" unicode="&#xB1;" horiz-adv-x="572" d=" M572,325 L363,325 L363,145 L340,145 L340,325 L130,325 L130,346 L340,346 L340,527 L363,527 L363,346 L572,346 M572,76 L572,55 L130,55 L130,76"/> 
            <glyph glyph-name="²" unicode="&#xB2;" horiz-adv-x="304" d=" M304,323 L48,323 L48,336 L183,452 Q232,493 253,521.5 Q274,550 274,581 Q274,621 245,645 Q216,669 168,669 Q110,669 54,638 L46,654 Q101,688 169,688 Q226,688 260.5,659 Q295,630 295,583 Q295,535 246,484 Q224,462 195,438 L82,341 L304,341"/> 
            <glyph glyph-name="³" unicode="&#xB3;" horiz-adv-x="304" d=" M292,666 L152,519 L163,519 Q231,519 267.5,494 Q304,469 304,421 Q304,376 264,345 Q224,315 166,315 Q97,315 34,345 L41,361 Q104,333 167,333 Q215,333 250,358.5 Q285,384 285,420 Q285,501 162,501 L120,501 L120,511 L263,662 L53,662 L53,680 L292,680"/> 
            <glyph glyph-name="´" unicode="&#xB4;" horiz-adv-x="394" d=" M394,740 L293,580 L271,580 L364,740"/> 
            <glyph glyph-name="¶" unicode="&#xB6;" horiz-adv-x="611" d=" M283,687 Q496,687 611,680 L611,-100 L589,-100 L589,661 Q530,664 411,666 L411,-100 L389,-100 L389,250 L283,250 Q172,250 111,307.5 Q50,365 50,465 Q50,573 109.5,630 Q169,687 283,687 M389,666 L283,667 Q180,667 126.5,615.5 Q73,564 73,465 Q73,374 128,322 Q183,270 283,270 L389,270"/> 
            <glyph glyph-name="·" unicode="&#xB7;" horiz-adv-x="148" d=" M139,233 Q130,222 117.5,226.5 Q105,231 101.5,242.5 Q98,254 106,265 Q116,275 129,270.5 Q142,266 145,254.5 Q148,243 139,233"/> 
            <glyph glyph-name="¸" unicode="&#xB8;" horiz-adv-x="307" d=" M250,-200 L228,-200 L284,-50 L307,-50"/> 
            <glyph glyph-name="¹" unicode="&#xB9;" horiz-adv-x="243" d=" M243,341 L243,323 L25,323 L25,341 L131,341 L131,656 L32,625 L27,642 L143,680 L150,680 L150,341"/> 
            <glyph glyph-name="º" unicode="&#xBA;" horiz-adv-x="394" d=" M394,528 Q394,452 345,404 Q296,357 222,357 Q148,357 98,404 Q50,452 50,528 Q50,602 98,648 Q148,695 222,695 Q296,695 345,648 Q394,602 394,528 M372,528 Q372,594 330,635 Q288,676 222,676 Q156,676 114,635 Q72,594 72,528 Q72,460 114,418.5 Q156,377 222,377 Q288,377 330,418.5 Q372,460 372,528"/> 
            <glyph glyph-name="»" unicode="&#xBB;" horiz-adv-x="448" d=" M79,420 L93,434 L278,246 L93,58 L79,72 L247,246 M249,420 L263,434 L448,246 L263,58 L249,72 L417,246"/> 
            <glyph glyph-name="¼" unicode="&#xBC;" horiz-adv-x="772" d=" M284,323 L66,323 L66,341 L172,341 L172,656 L73,625 L68,642 L184,680 L191,680 L191,341 L284,341 M661,680 L217,0 L193,0 L637,680 M772,102 L772,84 L713,84 L713,0 L693,0 L693,84 L456,84 L456,98 L693,357 L713,357 L713,102 M693,330 L485,102 L693,102"/> 
            <glyph glyph-name="½" unicode="&#xBD;" horiz-adv-x="775" d=" M66,323 L66,341 L172,341 L172,656 L73,625 L68,642 L184,680 L191,680 L191,341 L284,341 L284,323 M641,680 L197,0 L173,0 L617,680 M775,18 L775,0 L519,0 L519,13 L654,129 Q703,170 724,198.5 Q745,227 745,258 Q745,298 716,322 Q687,346 639,346 Q581,346 525,315 L517,331 Q572,365 640,365 Q698,365 732,336 Q766,307 766,260 Q766,212 717,161 Q695,139 666,115 L553,18"/> 
            <glyph glyph-name="¾" unicode="&#xBE;" horiz-adv-x="814" d=" M358,666 L218,519 L229,519 Q297,519 333.5,494 Q370,469 370,421 Q370,376 330,345 Q290,315 232,315 Q163,315 100,345 L107,361 Q170,333 233,333 Q281,333 316,358.5 Q351,384 351,420 Q351,501 228,501 L186,501 L186,511 L329,662 L119,662 L119,680 L358,680 M755,102 L814,102 L814,84 L755,84 L755,0 L735,0 L735,84 L498,84 L498,98 L735,357 L755,357 M527,102 L735,102 L735,330 M274,0 L250,0 L694,680 L718,680"/> 
            <glyph glyph-name="¿" unicode="&#xBF;" horiz-adv-x="447" d=" M344,484 Q326,466 313.5,470.5 Q301,475 297.5,486 Q294,497 302,508 Q310,516 319.5,515.5 Q329,515 335,508 Q341,501 344,484 M292,-188 Q184,-188 120,-133 Q55,-77 55,13 Q55,108 117,167 Q181,226 283,226 L318,226 L313,347 L333,347 L340,206 L283,206 Q190,206 133.5,153 Q77,100 77,13 Q77,-69 136,-119 Q194,-168 293,-168 Q370,-168 441,-148 L447,-167 Q374,-188 292,-188"/> 
            <glyph glyph-name="À" unicode="&#xC0;" horiz-adv-x="691" d=" M161,193 L74,0 L50,0 L359,685 L382,685 L691,0 L667,0 L580,193 M371,660 L170,214 L571,214 M380,740 L358,740 L257,900 L287,900"/> 
            <glyph glyph-name="Á" unicode="&#xC1;" horiz-adv-x="691" d=" M161,193 L74,0 L50,0 L359,685 L382,685 L691,0 L667,0 L580,193 M371,660 L170,214 L571,214 M485,900 L384,740 L362,740 L455,900"/> 
            <glyph glyph-name="Â" unicode="&#xC2;" horiz-adv-x="691" d=" M161,193 L74,0 L50,0 L359,685 L382,685 L691,0 L667,0 L580,193 M371,660 L170,214 L571,214 M371,876 L250,740 L225,740 L358,900 L383,900 L516,740 L491,740"/> 
            <glyph glyph-name="Ã" unicode="&#xC3;" horiz-adv-x="691" d=" M161,193 L74,0 L50,0 L359,685 L382,685 L691,0 L667,0 L580,193 M371,660 L170,214 L571,214 M488,821 L505,821 Q505,787 484.5,768.5 Q464,750 439.5,752.5 Q415,755 394,766 L334,808 Q312,827 281,816 Q250,805 250,768 L233,768 Q233,802 254,820.5 Q275,839 299.5,836.5 Q324,834 344,823 L404,781 Q428,762 458,773 Q488,784 488,821"/> 
            <glyph glyph-name="Ä" unicode="&#xC4;" horiz-adv-x="691" d=" M284,803 Q275,794 262.5,798.5 Q250,803 246.5,814 Q243,825 251,836 Q261,846 274,842 Q287,838 290,826.5 Q293,815 284,803 M490,803 Q481,794 468.5,798.5 Q456,803 452.5,814 Q449,825 457,836 Q467,846 480,842 Q493,838 496,826.5 Q499,815 490,803 M161,193 L74,0 L50,0 L359,685 L382,685 L691,0 L667,0 L580,193 M371,660 L170,214 L571,214"/> 
            <glyph glyph-name="Å" unicode="&#xC5;" horiz-adv-x="691" d=" M161,193 L74,0 L50,0 L359,685 L382,685 L691,0 L667,0 L580,193 M371,660 L170,214 L571,214 M454,811 Q454,776 429.5,752.5 Q405,729 371,729 Q337,729 312.5,752.5 Q288,776 288,811 Q288,847 311.5,870.5 Q335,894 371,894 Q407,894 430.5,870.5 Q454,847 454,811 M435,811 Q435,840 416.5,858 Q398,876 371,876 Q344,876 325.5,858 Q307,840 307,811 Q307,784 325.5,766 Q344,748 371,748 Q398,748 416.5,766 Q435,784 435,811"/> 
            <glyph glyph-name="Æ" unicode="&#xC6;" horiz-adv-x="1038" d=" M608,350 L998,350 L998,330 L608,330 L608,20 L1038,20 L1038,0 L586,0 L586,193 L227,193 L78,0 L50,0 L579,680 L1038,680 L1038,660 L608,660 M586,656 L244,214 L586,214"/> 
            <glyph glyph-name="Ç" unicode="&#xC7;" horiz-adv-x="699" d=" M675,658 L670,640 Q554,675 448,675 Q287,675 192,583 Q98,492 98,340 Q98,189 190,97 Q284,5 438,5 Q556,5 694,47 L699,29 Q561,-15 438,-15 Q271,-15 173,82 Q75,180 75,340 Q75,501 175,598 Q275,695 448,695 Q565,695 675,658 M383,-200 L361,-200 L417,-50 L440,-50"/> 
            <glyph glyph-name="È" unicode="&#xC8;" horiz-adv-x="567" d=" M137,350 L527,350 L527,330 L137,330 L137,20 L567,20 L567,0 L115,0 L115,680 L567,680 L567,660 L137,660 M348,740 L326,740 L225,900 L255,900"/> 
            <glyph glyph-name="É" unicode="&#xC9;" horiz-adv-x="567" d=" M137,350 L527,350 L527,330 L137,330 L137,20 L567,20 L567,0 L115,0 L115,680 L567,680 L567,660 L137,660 M453,900 L352,740 L330,740 L423,900"/> 
            <glyph glyph-name="Ê" unicode="&#xCA;" horiz-adv-x="567" d=" M339,876 L218,740 L193,740 L326,900 L351,900 L484,740 L459,740 M137,350 L527,350 L527,330 L137,330 L137,20 L567,20 L567,0 L115,0 L115,680 L567,680 L567,660 L137,660"/> 
            <glyph glyph-name="Ë" unicode="&#xCB;" horiz-adv-x="567" d=" M252,803 Q243,794 230.5,798.5 Q218,803 214.5,814 Q211,825 219,836 Q229,846 242,842 Q255,838 258,826.5 Q261,815 252,803 M458,803 Q449,794 436.5,798.5 Q424,803 420.5,814 Q417,825 425,836 Q435,846 448,842 Q461,838 464,826.5 Q467,815 458,803 M137,350 L527,350 L527,330 L137,330 L137,20 L567,20 L567,0 L115,0 L115,680 L567,680 L567,660 L137,660"/> 
            <glyph glyph-name="Ì" unicode="&#xCC;" horiz-adv-x="137" d=" M135,740 L113,740 L12,900 L42,900 M137,680 L137,0 L115,0 L115,680"/> 
            <glyph glyph-name="Í" unicode="&#xCD;" horiz-adv-x="240" d=" M240,900 L139,740 L117,740 L210,900 M137,680 L137,0 L115,0 L115,680"/> 
            <glyph glyph-name="Î" unicode="&#xCE;" horiz-adv-x="271" d=" M126,876 L5,740 L-20,740 L113,900 L138,900 L271,740 L246,740 M137,680 L137,0 L115,0 L115,680"/> 
            <glyph glyph-name="Ï" unicode="&#xCF;" horiz-adv-x="254" d=" M39,803 Q30,794 17.5,798.5 Q5,803 1.5,814 Q-2,825 6,836 Q16,846 29,842 Q42,838 45,826.5 Q48,815 39,803 M245,803 Q236,794 223.5,798.5 Q211,803 207.5,814 Q204,825 212,836 Q222,846 235,842 Q248,838 251,826.5 Q254,815 245,803 M137,680 L137,0 L115,0 L115,680"/> 
            <glyph glyph-name="Ð" unicode="&#xD0;" horiz-adv-x="686" d=" M333,687 Q495,687 590,596 Q686,504 686,346 Q686,182 590,88 Q494,-5 333,-5 Q303,-5 115,0 L115,330 L40,330 L40,350 L115,350 L115,680 Q263,687 333,687 M333,15 Q484,15 573,103 Q663,192 663,346 Q663,496 573,581 Q482,667 333,667 Q263,667 137,661 L137,350 L357,350 L357,330 L137,330 L137,19 Q249,15 333,15"/> 
            <glyph glyph-name="Ñ" unicode="&#xD1;" horiz-adv-x="667" d=" M508,821 L525,821 Q525,787 504.5,768.5 Q484,750 459.5,752.5 Q435,755 414,766 L354,808 Q332,827 301,816 Q270,805 270,768 L253,768 Q253,802 274,820.5 Q295,839 319.5,836.5 Q344,834 364,823 L424,781 Q448,762 478,773 Q508,784 508,821 M667,680 L667,0 L639,0 L137,652 L137,0 L115,0 L115,680 L142,680 L645,28 L645,680"/> 
            <glyph glyph-name="Ò" unicode="&#xD2;" horiz-adv-x="781" d=" M172,597 Q270,695 428,695 Q586,695 684,597 Q781,500 781,340 Q781,179 684,82 Q587,-15 428,-15 Q269,-15 172,82 Q75,179 75,340 Q75,500 172,597 M189,97 Q281,5 428,5 Q575,5 667,97 Q758,188 758,340 Q758,492 667,583 Q575,675 428,675 Q281,675 189,583 Q98,492 98,340 Q98,188 189,97 M437,740 L415,740 L314,900 L344,900"/> 
            <glyph glyph-name="Ó" unicode="&#xD3;" horiz-adv-x="781" d=" M172,597 Q270,695 428,695 Q586,695 684,597 Q781,500 781,340 Q781,179 684,82 Q587,-15 428,-15 Q269,-15 172,82 Q75,179 75,340 Q75,500 172,597 M189,97 Q281,5 428,5 Q575,5 667,97 Q758,188 758,340 Q758,492 667,583 Q575,675 428,675 Q281,675 189,583 Q98,492 98,340 Q98,188 189,97 M542,900 L441,740 L419,740 L512,900"/> 
            <glyph glyph-name="Ô" unicode="&#xD4;" horiz-adv-x="781" d=" M428,876 L307,740 L282,740 L415,900 L440,900 L573,740 L548,740 M172,597 Q270,695 428,695 Q586,695 684,597 Q781,500 781,340 Q781,179 684,82 Q587,-15 428,-15 Q269,-15 172,82 Q75,179 75,340 Q75,500 172,597 M189,97 Q281,5 428,5 Q575,5 667,97 Q758,188 758,340 Q758,492 667,583 Q575,675 428,675 Q281,675 189,583 Q98,492 98,340 Q98,188 189,97"/> 
            <glyph glyph-name="Õ" unicode="&#xD5;" horiz-adv-x="781" d=" M545,821 L562,821 Q562,787 541.5,768.5 Q521,750 496.5,752.5 Q472,755 451,766 L391,808 Q369,827 338,816 Q307,805 307,768 L290,768 Q290,802 311,820.5 Q332,839 356.5,836.5 Q381,834 401,823 L461,781 Q485,762 515,773 Q545,784 545,821 M172,597 Q270,695 428,695 Q586,695 684,597 Q781,500 781,340 Q781,179 684,82 Q587,-15 428,-15 Q269,-15 172,82 Q75,179 75,340 Q75,500 172,597 M189,97 Q281,5 428,5 Q575,5 667,97 Q758,188 758,340 Q758,492 667,583 Q575,675 428,675 Q281,675 189,583 Q98,492 98,340 Q98,188 189,97"/> 
            <glyph glyph-name="Ö" unicode="&#xD6;" horiz-adv-x="781" d=" M341,803 Q332,794 319.5,798.5 Q307,803 303.5,814 Q300,825 308,836 Q318,846 331,842 Q344,838 347,826.5 Q350,815 341,803 M547,803 Q538,794 525.5,798.5 Q513,803 509.5,814 Q506,825 514,836 Q524,846 537,842 Q550,838 553,826.5 Q556,815 547,803 M172,597 Q270,695 428,695 Q586,695 684,597 Q781,500 781,340 Q781,179 684,82 Q587,-15 428,-15 Q269,-15 172,82 Q75,179 75,340 Q75,500 172,597 M189,97 Q281,5 428,5 Q575,5 667,97 Q758,188 758,340 Q758,492 667,583 Q575,675 428,675 Q281,675 189,583 Q98,492 98,340 Q98,188 189,97"/> 
            <glyph glyph-name="×" unicode="&#xD7;" horiz-adv-x="510" d=" M510,145 L495,130 L325,300 L155,130 L140,145 L310,315 L140,485 L155,500 L325,330 L495,500 L510,485 L340,315"/> 
            <glyph glyph-name="Ø" unicode="&#xD8;" horiz-adv-x="781" d=" M727,677 L671,610 Q781,512 781,340 Q781,179 684,82 Q587,-15 428,-15 Q297,-15 204,54 L148,-13 L131,1 L187,68 Q75,167 75,340 Q75,500 172,597 Q270,695 428,695 Q562,695 654,624 L710,691 M98,340 Q98,178 201,85 L640,607 Q554,675 428,675 Q281,675 189,583 Q98,492 98,340 M428,5 Q575,5 667,97 Q758,188 758,340 Q758,500 657,593 L218,71 Q304,5 428,5"/> 
            <glyph glyph-name="Ù" unicode="&#xD9;" horiz-adv-x="661" d=" M661,680 L661,256 Q661,134 584,59 Q507,-15 383,-15 Q258,-15 181,59 Q105,134 105,256 L105,680 L127,680 L127,256 Q127,143 197,74 Q268,5 383,5 Q498,5 569,74 Q639,143 639,256 L639,680 M392,740 L370,740 L269,900 L299,900"/> 
            <glyph glyph-name="Ú" unicode="&#xDA;" horiz-adv-x="661" d=" M661,680 L661,256 Q661,134 584,59 Q507,-15 383,-15 Q258,-15 181,59 Q105,134 105,256 L105,680 L127,680 L127,256 Q127,143 197,74 Q268,5 383,5 Q498,5 569,74 Q639,143 639,256 L639,680 M497,900 L396,740 L374,740 L467,900"/> 
            <glyph glyph-name="Û" unicode="&#xDB;" horiz-adv-x="661" d=" M383,876 L262,740 L237,740 L370,900 L395,900 L528,740 L503,740 M661,680 L661,256 Q661,134 584,59 Q507,-15 383,-15 Q258,-15 181,59 Q105,134 105,256 L105,680 L127,680 L127,256 Q127,143 197,74 Q268,5 383,5 Q498,5 569,74 Q639,143 639,256 L639,680"/> 
            <glyph glyph-name="Ü" unicode="&#xDC;" horiz-adv-x="661" d=" M296,803 Q287,794 274.5,798.5 Q262,803 258.5,814 Q255,825 263,836 Q273,846 286,842 Q299,838 302,826.5 Q305,815 296,803 M502,803 Q493,794 480.5,798.5 Q468,803 464.5,814 Q461,825 469,836 Q479,846 492,842 Q505,838 508,826.5 Q511,815 502,803 M661,680 L661,256 Q661,134 584,59 Q507,-15 383,-15 Q258,-15 181,59 Q105,134 105,256 L105,680 L127,680 L127,256 Q127,143 197,74 Q268,5 383,5 Q498,5 569,74 Q639,143 639,256 L639,680"/> 
            <glyph glyph-name="Ý" unicode="&#xDD;" horiz-adv-x="630" d=" M319,257 L30,680 L56,680 L330,277 L604,680 L630,680 L341,257 L341,0 L319,0 M444,900 L343,740 L321,740 L414,900"/> 
            <glyph glyph-name="Þ" unicode="&#xDE;" horiz-adv-x="586" d=" M333,570 Q450,570 518,511.5 Q586,453 586,348 Q586,250 516,192 Q446,133 333,133 L137,133 L137,0 L115,0 L115,680 L137,680 L137,564 Q253,570 333,570 M137,153 L333,153 Q435,153 499,206 Q563,260 563,348 Q563,444 501.5,497 Q440,550 333,550 Q252,550 137,544"/> 
            <glyph glyph-name="ß" unicode="&#xDF;" horiz-adv-x="594" d=" M247,755 L247,735 Q184,735 157.5,701.5 Q131,668 131,589 L131,450 L574,450 L574,434 L323,169 L371,169 Q471,169 533,119 Q594,70 594,-15 Q594,-104 526,-160 Q459,-215 347,-215 Q281,-215 212,-195 L218,-176 Q284,-195 349,-195 Q448,-195 510,-145 Q572,-95 572,-15 Q572,60 517,104.5 Q462,149 371,149 L284,149 L284,160 L540,430 L131,430 L131,0 L110,0 L110,589 Q110,679 141.5,717 Q173,755 247,755"/> 
            <glyph glyph-name="à" unicode="&#xE0;" horiz-adv-x="510" d=" M296,465 Q406,465 510,440 L510,0 L489,0 L489,46 Q389,-15 296,-15 Q192,-15 128,51 Q65,118 65,227 Q65,334 128,399 Q192,465 296,465 M296,445 Q201,445 144,385 Q88,326 88,227 Q88,128 144,66 Q201,5 296,5 Q382,5 489,67 L489,426 Q393,445 296,445 M344,580 L322,580 L221,740 L251,740"/> 
            <glyph glyph-name="á" unicode="&#xE1;" horiz-adv-x="510" d=" M296,465 Q406,465 510,440 L510,0 L489,0 L489,46 Q389,-15 296,-15 Q192,-15 128,51 Q65,118 65,227 Q65,334 128,399 Q192,465 296,465 M296,445 Q201,445 144,385 Q88,326 88,227 Q88,128 144,66 Q201,5 296,5 Q382,5 489,67 L489,426 Q393,445 296,445 M409,740 L308,580 L286,580 L379,740"/> 
            <glyph glyph-name="â" unicode="&#xE2;" horiz-adv-x="510" d=" M296,465 Q406,465 510,440 L510,0 L489,0 L489,46 Q389,-15 296,-15 Q192,-15 128,51 Q65,118 65,227 Q65,334 128,399 Q192,465 296,465 M296,445 Q201,445 144,385 Q88,326 88,227 Q88,128 144,66 Q201,5 296,5 Q382,5 489,67 L489,426 Q393,445 296,445 M315,706 L194,570 L169,570 L302,730 L327,730 L460,570 L435,570"/> 
            <glyph glyph-name="ã" unicode="&#xE3;" horiz-adv-x="510" d=" M432,661 L449,661 Q449,627 428.5,608.5 Q408,590 383.5,592.5 Q359,595 338,606 L278,648 Q256,667 225,656 Q194,645 194,608 L177,608 Q177,642 198,660.5 Q219,679 243.5,676.5 Q268,674 288,663 L348,621 Q372,602 402,613 Q432,624 432,661 M296,465 Q406,465 510,440 L510,0 L489,0 L489,46 Q389,-15 296,-15 Q192,-15 128,51 Q65,118 65,227 Q65,334 128,399 Q192,465 296,465 M296,445 Q201,445 144,385 Q88,326 88,227 Q88,128 144,66 Q201,5 296,5 Q382,5 489,67 L489,426 Q393,445 296,445"/> 
            <glyph glyph-name="ä" unicode="&#xE4;" horiz-adv-x="510" d=" M296,465 Q406,465 510,440 L510,0 L489,0 L489,46 Q389,-15 296,-15 Q192,-15 128,51 Q65,118 65,227 Q65,334 128,399 Q192,465 296,465 M296,445 Q201,445 144,385 Q88,326 88,227 Q88,128 144,66 Q201,5 296,5 Q382,5 489,67 L489,426 Q393,445 296,445 M195,645 Q199,649 203,650.5 Q207,652 210.5,652 Q214,652 218,651 Q222,650 225,647.5 Q228,645 230.5,642 Q233,639 234,635 Q235,631 235,627.5 Q235,624 233.5,620 Q232,616 228,612 Q219,603 206.5,607.5 Q194,612 190.5,623 Q187,634 195,645 M401,645 Q407,651 415,652 Q423,653 428.5,649 Q434,645 438,639.5 Q442,634 441,626 Q440,618 434,612 Q425,603 412.5,607.5 Q400,612 396.5,623 Q393,634 401,645"/> 
            <glyph glyph-name="å" unicode="&#xE5;" horiz-adv-x="510" d=" M296,465 Q406,465 510,440 L510,0 L489,0 L489,46 Q389,-15 296,-15 Q192,-15 128,51 Q65,118 65,227 Q65,334 128,399 Q192,465 296,465 M296,445 Q201,445 144,385 Q88,326 88,227 Q88,128 144,66 Q201,5 296,5 Q382,5 489,67 L489,426 Q393,445 296,445 M398,641 Q398,606 373.5,582.5 Q349,559 315,559 Q281,559 256.5,582.5 Q232,606 232,641 Q232,677 255.5,700.5 Q279,724 315,724 Q351,724 374.5,700.5 Q398,677 398,641 M379,641 Q379,670 360.5,688 Q342,706 315,706 Q288,706 269.5,688 Q251,670 251,641 Q251,614 269.5,596 Q288,578 315,578 Q342,578 360.5,596 Q379,614 379,641"/> 
            <glyph glyph-name="æ" unicode="&#xE6;" horiz-adv-x="843" d=" M843,237 L843,217 L424,217 Q427,122 483,63 Q538,5 631,5 Q692,5 802,31 L807,14 Q708,-15 631,-15 Q538,-15 478,39 Q362,-15 252,-15 Q149,-15 99.5,19.5 Q50,54 50,126 Q50,183 102,211.5 Q154,240 248,239 L401,237 L401,292 Q401,445 286,445 Q198,445 106,430 L104,449 Q196,465 284,465 Q405,465 420,331 Q446,394 501.5,429.5 Q557,465 632,465 Q728,465 785.5,403.5 Q843,342 843,237 M424,237 L822,237 Q822,333 770.5,389 Q719,445 632,445 Q540,445 483,388 Q427,330 424,237 M72,127 Q72,5 252,5 Q342,5 463,53 Q404,115 401,217 L248,218 Q72,220 72,127"/> 
            <glyph glyph-name="ç" unicode="&#xE7;" horiz-adv-x="481" d=" M465,441 L460,423 Q382,445 310,445 Q210,445 149,385 Q88,325 88,226 Q88,126 148,65 Q208,5 303,5 Q373,5 475,34 L481,14 Q383,-15 306,-15 Q198,-15 131,51 Q65,117 65,225 Q65,334 133,399 Q200,465 313,465 Q391,465 465,441 M244,-200 L222,-200 L278,-50 L301,-50"/> 
            <glyph glyph-name="è" unicode="&#xE8;" horiz-adv-x="507" d=" M296,465 Q392,465 449.5,403.5 Q507,342 507,237 L507,217 L88,217 Q91,122 147,63 Q202,5 295,5 Q364,5 466,31 L471,14 Q372,-15 295,-15 Q192,-15 128,51 Q65,118 65,227 Q65,334 128,399 Q192,465 296,465 M296,445 Q204,445 147,388 Q91,330 88,237 L486,237 Q486,333 434.5,389 Q383,445 296,445 M343,580 L321,580 L220,740 L250,740"/> 
            <glyph glyph-name="é" unicode="&#xE9;" horiz-adv-x="507" d=" M296,465 Q392,465 449.5,403.5 Q507,342 507,237 L507,217 L88,217 Q91,122 147,63 Q202,5 295,5 Q364,5 466,31 L471,14 Q372,-15 295,-15 Q192,-15 128,51 Q65,118 65,227 Q65,334 128,399 Q192,465 296,465 M296,445 Q204,445 147,388 Q91,330 88,237 L486,237 Q486,333 434.5,389 Q383,445 296,445 M408,740 L307,580 L285,580 L378,740"/> 
            <glyph glyph-name="ê" unicode="&#xEA;" horiz-adv-x="507" d=" M296,465 Q392,465 449.5,403.5 Q507,342 507,237 L507,217 L88,217 Q91,122 147,63 Q202,5 295,5 Q364,5 466,31 L471,14 Q372,-15 295,-15 Q192,-15 128,51 Q65,118 65,227 Q65,334 128,399 Q192,465 296,465 M296,445 Q204,445 147,388 Q91,330 88,237 L486,237 Q486,333 434.5,389 Q383,445 296,445 M314,706 L193,570 L168,570 L301,730 L326,730 L459,570 L434,570"/> 
            <glyph glyph-name="ë" unicode="&#xEB;" horiz-adv-x="507" d=" M296,465 Q392,465 449.5,403.5 Q507,342 507,237 L507,217 L88,217 Q91,122 147,63 Q202,5 295,5 Q364,5 466,31 L471,14 Q372,-15 295,-15 Q192,-15 128,51 Q65,118 65,227 Q65,334 128,399 Q192,465 296,465 M296,445 Q204,445 147,388 Q91,330 88,237 L486,237 Q486,333 434.5,389 Q383,445 296,445 M194,645 Q210,661 226.5,646 Q243,631 229,614 Q228,613 227,612 Q218,603 205.5,607.5 Q193,612 189.5,623 Q186,634 194,645 M400,645 Q406,651 414,652 Q422,653 427.5,649 Q433,645 437,639.5 Q441,634 440,626 Q439,618 433,612 Q424,603 411.5,607.5 Q399,612 395.5,623 Q392,634 400,645"/> 
            <glyph glyph-name="ì" unicode="&#xEC;" horiz-adv-x="130" d=" M125,580 L103,580 L2,740 L32,740 M130,450 L130,0 L109,0 L109,450"/> 
            <glyph glyph-name="í" unicode="&#xED;" horiz-adv-x="234" d=" M234,740 L133,580 L111,580 L204,740 M130,450 L130,0 L109,0 L109,450"/> 
            <glyph glyph-name="î" unicode="&#xEE;" horiz-adv-x="265" d=" M120,706 L-1,570 L-26,570 L107,730 L132,730 L265,570 L240,570 M130,450 L130,0 L109,0 L109,450"/> 
            <glyph glyph-name="ï" unicode="&#xEF;" horiz-adv-x="246" d=" M0,645 Q6,651 14,652 Q22,653 27.5,649 Q33,645 37,639.5 Q41,634 40,626 Q39,618 33,612 Q24,603 11.5,607.5 Q-1,612 -4.5,623 Q-8,634 0,645 M206,645 Q210,649 214,650.5 Q218,652 221.5,652 Q225,652 229,651 Q233,650 236,647.5 Q239,645 241.5,642 Q244,639 245,635 Q246,631 246,627.5 Q246,624 244.5,620 Q243,616 239,612 Q230,603 217.5,607.5 Q205,612 201.5,623 Q198,634 206,645 M130,450 L130,0 L109,0 L109,450"/> 
            <glyph glyph-name="ð" unicode="&#xF0;" horiz-adv-x="547" d=" M211,698 L239,707 Q313,684 367,642 L443,670 L449,651 L385,627 Q462,561 504.5,460.5 Q547,360 547,237 Q547,116 484,50.5 Q421,-15 306,-15 Q200,-15 133,52 Q65,120 65,227 Q65,333 133,399 Q201,465 306,465 Q381,465 437.5,432 Q494,399 519,341 Q488,520 366,620 L191,554 L185,573 L347,634 Q285,680 211,698 M402,445 Q210,445 149,385 Q88,325 88,227 Q88,127 149,66 Q210,5 306,5 Q411,5 467.5,65.5 Q524,126 524,237 Q524,334 463,389"/> 
            <glyph glyph-name="ñ" unicode="&#xF1;" horiz-adv-x="512" d=" M418,661 L435,661 Q435,627 414.5,608.5 Q394,590 369.5,592.5 Q345,595 324,606 L264,648 Q242,667 211,656 Q180,645 180,608 L163,608 Q163,642 184,660.5 Q205,679 229.5,676.5 Q254,674 274,663 L334,621 Q358,602 388,613 Q418,624 418,661 M334,465 Q420,465 466,415 Q512,365 512,272 L512,0 L491,0 L491,272 Q491,355 450,400 Q409,445 334,445 Q219,445 121,426 L121,0 L100,0 L100,440 Q204,465 334,465"/> 
            <glyph glyph-name="ò" unicode="&#xF2;" horiz-adv-x="547" d=" M547,227 Q547,120 479,52 Q412,-15 306,-15 Q200,-15 133,52 Q65,120 65,227 Q65,333 133,399 Q201,465 306,465 Q412,465 479,399 Q547,333 547,227 M524,227 Q524,325 463,385 Q402,445 306,445 Q210,445 149,385 Q88,325 88,227 Q88,127 149,66 Q210,5 306,5 Q402,5 463,66 Q524,127 524,227 M335,580 L313,580 L212,740 L242,740"/> 
            <glyph glyph-name="ó" unicode="&#xF3;" horiz-adv-x="547" d=" M547,227 Q547,120 479,52 Q412,-15 306,-15 Q200,-15 133,52 Q65,120 65,227 Q65,333 133,399 Q201,465 306,465 Q412,465 479,399 Q547,333 547,227 M524,227 Q524,325 463,385 Q402,445 306,445 Q210,445 149,385 Q88,325 88,227 Q88,127 149,66 Q210,5 306,5 Q402,5 463,66 Q524,127 524,227 M400,740 L299,580 L277,580 L370,740"/> 
            <glyph glyph-name="ô" unicode="&#xF4;" horiz-adv-x="547" d=" M306,706 L185,570 L160,570 L293,730 L318,730 L451,570 L426,570 M547,227 Q547,120 479,52 Q412,-15 306,-15 Q200,-15 133,52 Q65,120 65,227 Q65,333 133,399 Q201,465 306,465 Q412,465 479,399 Q547,333 547,227 M524,227 Q524,325 463,385 Q402,445 306,445 Q210,445 149,385 Q88,325 88,227 Q88,127 149,66 Q210,5 306,5 Q402,5 463,66 Q524,127 524,227"/> 
            <glyph glyph-name="õ" unicode="&#xF5;" horiz-adv-x="547" d=" M423,661 L440,661 Q440,627 419.5,608.5 Q399,590 374.5,592.5 Q350,595 329,606 L269,648 Q247,667 216,656 Q185,645 185,608 L168,608 Q168,642 189,660.5 Q210,679 234.5,676.5 Q259,674 279,663 L339,621 Q363,602 393,613 Q423,624 423,661 M547,227 Q547,120 479,52 Q412,-15 306,-15 Q200,-15 133,52 Q65,120 65,227 Q65,333 133,399 Q201,465 306,465 Q412,465 479,399 Q547,333 547,227 M524,227 Q524,325 463,385 Q402,445 306,445 Q210,445 149,385 Q88,325 88,227 Q88,127 149,66 Q210,5 306,5 Q402,5 463,66 Q524,127 524,227"/> 
            <glyph glyph-name="ö" unicode="&#xF6;" horiz-adv-x="547" d=" M547,227 Q547,120 479,52 Q412,-15 306,-15 Q200,-15 133,52 Q65,120 65,227 Q65,333 133,399 Q201,465 306,465 Q412,465 479,399 Q547,333 547,227 M524,227 Q524,325 463,385 Q402,445 306,445 Q210,445 149,385 Q88,325 88,227 Q88,127 149,66 Q210,5 306,5 Q402,5 463,66 Q524,127 524,227 M186,645 Q192,651 200,652 Q208,653 213.5,649 Q219,645 223,639.5 Q227,634 226,626 Q225,618 219,612 Q210,603 197.5,607.5 Q185,612 181.5,623 Q178,634 186,645 M392,645 Q398,651 406,652 Q414,653 419.5,649 Q425,645 429,639.5 Q433,634 432,626 Q431,618 425,612 Q416,603 403.5,607.5 Q391,612 387.5,623 Q384,634 392,645"/> 
            <glyph glyph-name="÷" unicode="&#xF7;" horiz-adv-x="572" d=" M367,480 Q358,469 345.5,473.5 Q333,478 329.5,489.5 Q326,501 334,512 Q344,522 357,517.5 Q370,513 373,501.5 Q376,490 367,480 M367,118 Q358,107 345.5,111.5 Q333,116 329.5,127.5 Q326,139 334,150 Q344,160 357,155.5 Q370,151 373,139.5 Q376,128 367,118 M130,326 L572,326 L572,305 L130,305"/> 
            <glyph glyph-name="ø" unicode="&#xF8;" horiz-adv-x="547" d=" M535,486 L470,408 Q547,340 547,227 Q547,120 479,52 Q412,-15 306,-15 Q220,-15 156,32 L80,-58 L65,-44 L140,45 Q65,114 65,227 Q65,333 133,399 Q201,465 306,465 Q390,465 454,421 L520,500 M88,227 Q88,124 154,62 L440,404 Q382,445 306,445 Q210,445 149,385 Q88,325 88,227 M306,5 Q402,5 463,66 Q524,127 524,227 Q524,331 456,391 L169,49 Q228,5 306,5"/> 
            <glyph glyph-name="ù" unicode="&#xF9;" horiz-adv-x="502" d=" M502,450 L502,10 Q398,-15 268,-15 Q182,-15 136,35 Q90,85 90,178 L90,450 L111,450 L111,178 Q111,95 152,50 Q193,5 268,5 Q383,5 481,24 L481,450 M330,580 L308,580 L207,740 L237,740"/> 
            <glyph glyph-name="ú" unicode="&#xFA;" horiz-adv-x="502" d=" M502,450 L502,10 Q398,-15 268,-15 Q182,-15 136,35 Q90,85 90,178 L90,450 L111,450 L111,178 Q111,95 152,50 Q193,5 268,5 Q383,5 481,24 L481,450 M395,740 L294,580 L272,580 L365,740"/> 
            <glyph glyph-name="û" unicode="&#xFB;" horiz-adv-x="502" d=" M301,706 L180,570 L155,570 L288,730 L313,730 L446,570 L421,570 M502,450 L502,10 Q398,-15 268,-15 Q182,-15 136,35 Q90,85 90,178 L90,450 L111,450 L111,178 Q111,95 152,50 Q193,5 268,5 Q383,5 481,24 L481,450"/> 
            <glyph glyph-name="ü" unicode="&#xFC;" horiz-adv-x="502" d=" M502,450 L502,10 Q398,-15 268,-15 Q182,-15 136,35 Q90,85 90,178 L90,450 L111,450 L111,178 Q111,95 152,50 Q193,5 268,5 Q383,5 481,24 L481,450 M181,645 Q185,649 189,650.5 Q193,652 196.5,652 Q200,652 204,651 Q208,650 211,647.5 Q214,645 216.5,642 Q219,639 220,635 Q221,631 221,627.5 Q221,624 219.5,620 Q218,616 214,612 Q205,603 192.5,607.5 Q180,612 176.5,623 Q173,634 181,645 M387,645 Q393,651 401,652 Q409,653 414.5,649 Q420,645 424,639.5 Q428,634 427,626 Q426,618 420,612 Q411,603 398.5,607.5 Q386,612 382.5,623 Q379,634 387,645"/> 
            <glyph glyph-name="ý" unicode="&#xFD;" horiz-adv-x="547" d=" M289,580 L267,580 L360,740 L390,740 M547,450 L187,-220 L163,-220 L288,13 L45,450 L69,450 L300,34 L523,450"/> 
            <glyph glyph-name="þ" unicode="&#xFE;" horiz-adv-x="545" d=" M314,465 Q418,465 481,399 Q545,335 545,227 Q545,118 481,51 Q418,-15 314,-15 Q212,-15 121,5 L121,-220 L100,-220 L100,710 L121,710 L121,445 Q216,465 314,465 M314,5 Q410,5 465,66 Q522,128 522,227 Q522,326 465,385 Q410,445 314,445 Q217,445 121,426 L121,24 Q209,5 314,5"/> 
            <glyph glyph-name="ÿ" unicode="&#xFF;" horiz-adv-x="547" d=" M209,612 Q200,603 187.5,607.5 Q175,612 171.5,623 Q168,634 176,645 Q180,649 184,650.5 Q188,652 191.5,652 Q195,652 199,651 Q203,650 206,647.5 Q209,645 211.5,642 Q214,639 215,635 Q216,631 216,627.5 Q216,624 214.5,620 Q213,616 209,612 M415,612 Q406,603 393.5,607.5 Q381,612 377.5,623 Q374,634 382,645 Q388,651 396,652 Q404,653 409.5,649 Q415,645 419,639.5 Q423,634 422,626 Q421,618 415,612 M547,450 L187,-220 L163,-220 L288,13 L45,450 L69,450 L300,34 L523,450"/> 
            <glyph glyph-name="Ā" unicode="&#x100;" horiz-adv-x="691" d=" M161,193 L74,0 L50,0 L359,685 L382,685 L691,0 L667,0 L580,193 M371,660 L170,214 L571,214 M503,808 L503,790 L239,790 L239,808"/> 
            <glyph glyph-name="ā" unicode="&#x101;" horiz-adv-x="510" d=" M296,465 Q406,465 510,440 L510,0 L489,0 L489,46 Q389,-15 296,-15 Q192,-15 128,51 Q65,118 65,227 Q65,334 128,399 Q192,465 296,465 M296,445 Q201,445 144,385 Q88,326 88,227 Q88,128 144,66 Q201,5 296,5 Q382,5 489,67 L489,426 Q393,445 296,445 M446,667 L446,650 L182,650 L182,667"/> 
            <glyph glyph-name="Ă" unicode="&#x102;" horiz-adv-x="691" d=" M161,193 L74,0 L50,0 L359,685 L382,685 L691,0 L667,0 L580,193 M371,660 L170,214 L571,214 M487,885 L506,885 Q506,825 469,788 Q432,751 371,751 Q310,751 273,788 Q236,825 236,885 L256,885 Q256,833 287.5,801.5 Q319,770 371,770 Q423,770 455,801.5 Q487,833 487,885"/> 
            <glyph glyph-name="ă" unicode="&#x103;" horiz-adv-x="510" d=" M296,465 Q406,465 510,440 L510,0 L489,0 L489,46 Q389,-15 296,-15 Q192,-15 128,51 Q65,118 65,227 Q65,334 128,399 Q192,465 296,465 M296,445 Q201,445 144,385 Q88,326 88,227 Q88,128 144,66 Q201,5 296,5 Q382,5 489,67 L489,426 Q393,445 296,445 M431,705 L450,705 Q450,645 413,608 Q376,571 315,571 Q254,571 217,608 Q180,645 180,705 L200,705 Q200,653 231.5,621.5 Q263,590 315,590 Q367,590 399,621.5 Q431,653 431,705"/> 
            <glyph glyph-name="Ą" unicode="&#x104;" horiz-adv-x="716" d=" M714,-181 L716,-202 Q702,-205 683,-205 Q632,-205 600.5,-178.5 Q569,-152 569,-109 Q569,-72 593,-45.5 Q617,-19 664,7 L580,193 L161,193 L74,0 L50,0 L359,685 L382,685 L691,0 Q638,-26 614.5,-49 Q591,-72 591,-108 Q591,-142 617,-162.5 Q643,-183 686,-183 Q692,-183 714,-181 M571,214 L371,660 L170,214"/> 
            <glyph glyph-name="ą" unicode="&#x105;" horiz-adv-x="535" d=" M533,-181 L535,-202 Q522,-205 502,-205 Q451,-205 419.5,-178.5 Q388,-152 388,-109 Q388,-64 423,-34 Q449,-11 489,10 L489,46 Q389,-15 296,-15 Q192,-15 128,51 Q65,118 65,227 Q65,334 128,399 Q192,465 296,465 Q406,465 510,440 L510,0 Q457,-26 433.5,-49 Q410,-72 410,-108 Q410,-142 436,-162.5 Q462,-183 505,-183 Q511,-183 533,-181 M296,5 Q382,5 489,67 L489,426 Q393,445 296,445 Q201,445 144,385 Q88,326 88,227 Q88,128 144,66 Q201,5 296,5"/> 
            <glyph glyph-name="Ć" unicode="&#x106;" horiz-adv-x="699" d=" M675,658 L670,640 Q554,675 448,675 Q287,675 192,583 Q98,492 98,340 Q98,189 190,97 Q284,5 438,5 Q556,5 694,47 L699,29 Q561,-15 438,-15 Q271,-15 173,82 Q75,180 75,340 Q75,501 175,598 Q275,695 448,695 Q565,695 675,658 M557,900 L456,740 L434,740 L527,900"/> 
            <glyph glyph-name="ć" unicode="&#x107;" horiz-adv-x="481" d=" M465,441 L460,423 Q382,445 310,445 Q210,445 149,385 Q88,325 88,226 Q88,126 148,65 Q208,5 303,5 Q373,5 475,34 L481,14 Q383,-15 306,-15 Q198,-15 131,51 Q65,117 65,225 Q65,334 133,399 Q200,465 313,465 Q391,465 465,441 M392,740 L291,580 L269,580 L362,740"/> 
            <glyph glyph-name="Ċ" unicode="&#x10A;" horiz-adv-x="699" d=" M675,658 L670,640 Q554,675 448,675 Q287,675 192,583 Q98,492 98,340 Q98,189 190,97 Q284,5 438,5 Q556,5 694,47 L699,29 Q561,-15 438,-15 Q271,-15 173,82 Q75,180 75,340 Q75,501 175,598 Q275,695 448,695 Q565,695 675,658 M459,804 Q450,793 437.5,797.5 Q425,802 421.5,813.5 Q418,825 426,836 Q436,846 449,841.5 Q462,837 465,825.5 Q468,814 459,804"/> 
            <glyph glyph-name="ċ" unicode="&#x10B;" horiz-adv-x="481" d=" M465,441 L460,423 Q382,445 310,445 Q210,445 149,385 Q88,325 88,226 Q88,126 148,65 Q208,5 303,5 Q373,5 475,34 L481,14 Q383,-15 306,-15 Q198,-15 131,51 Q65,117 65,225 Q65,334 133,399 Q200,465 313,465 Q391,465 465,441 M314,613 Q305,602 292.5,606.5 Q280,611 276.5,622.5 Q273,634 281,645 Q291,655 304,650.5 Q317,646 320,634.5 Q323,623 314,613"/> 
            <glyph glyph-name="Č" unicode="&#x10C;" horiz-adv-x="699" d=" M455,740 L430,740 L297,900 L324,900 L443,759 L561,900 L588,900 M675,658 L670,640 Q554,675 448,675 Q287,675 192,583 Q98,492 98,340 Q98,189 190,97 Q284,5 438,5 Q556,5 694,47 L699,29 Q561,-15 438,-15 Q271,-15 173,82 Q75,180 75,340 Q75,501 175,598 Q275,695 448,695 Q565,695 675,658"/> 
            <glyph glyph-name="č" unicode="&#x10D;" horiz-adv-x="481" d=" M310,570 L285,570 L152,730 L179,730 L298,589 L416,730 L443,730 M465,441 L460,423 Q382,445 310,445 Q210,445 149,385 Q88,325 88,226 Q88,126 148,65 Q208,5 303,5 Q373,5 475,34 L481,14 Q383,-15 306,-15 Q198,-15 131,51 Q65,117 65,225 Q65,334 133,399 Q200,465 313,465 Q391,465 465,441"/> 
            <glyph glyph-name="Ď" unicode="&#x10E;" horiz-adv-x="686" d=" M363,740 L338,740 L205,900 L232,900 L351,759 L469,900 L496,900 M333,687 Q495,687 590,596 Q686,504 686,346 Q686,182 590,88 Q494,-5 333,-5 Q303,-5 115,0 L115,680 Q263,687 333,687 M333,15 Q484,15 573,103 Q663,192 663,346 Q663,496 573,581 Q482,667 333,667 Q263,667 137,661 L137,19 Q249,15 333,15"/> 
            <glyph glyph-name="ď" unicode="&#x10F;" horiz-adv-x="616" d=" M510,710 L510,10 Q416,-12 363,-14 Q348,-15 296,-15 Q192,-15 128,51 Q65,118 65,227 Q65,334 128,399 Q192,465 296,465 Q405,465 489,437 L489,710 M616,710 L596,520 L578,520 L591,710 M296,445 Q201,445 144,385 Q88,326 88,227 Q88,128 144,66 Q201,5 296,5 Q401,5 489,24 L489,417 Q399,445 296,445"/> 
            <glyph glyph-name="Đ" unicode="&#x110;" horiz-adv-x="686" d=" M333,687 Q495,687 590,596 Q686,504 686,346 Q686,182 590,88 Q494,-5 333,-5 Q303,-5 115,0 L115,330 L40,330 L40,350 L115,350 L115,680 Q263,687 333,687 M333,15 Q484,15 573,103 Q663,192 663,346 Q663,496 573,581 Q482,667 333,667 Q263,667 137,661 L137,350 L357,350 L357,330 L137,330 L137,19 Q249,15 333,15"/> 
            <glyph glyph-name="đ" unicode="&#x111;" horiz-adv-x="567" d=" M567,597 L510,597 L510,10 Q416,-12 363,-14 Q348,-15 296,-15 Q192,-15 128,51 Q65,118 65,227 Q65,334 128,399 Q192,465 296,465 Q405,465 489,437 L489,597 L280,597 L280,616 L489,616 L489,710 L510,710 L510,616 L567,616 M489,24 L489,417 Q399,445 296,445 Q201,445 144,385 Q88,326 88,227 Q88,128 144,66 Q201,5 296,5 Q401,5 489,24"/> 
            <glyph glyph-name="Ē" unicode="&#x112;" horiz-adv-x="567" d=" M137,350 L527,350 L527,330 L137,330 L137,20 L567,20 L567,0 L115,0 L115,680 L567,680 L567,660 L137,660 M471,808 L471,790 L207,790 L207,808"/> 
            <glyph glyph-name="ē" unicode="&#x113;" horiz-adv-x="507" d=" M296,465 Q392,465 449.5,403.5 Q507,342 507,237 L507,217 L88,217 Q91,122 147,63 Q202,5 295,5 Q364,5 466,31 L471,14 Q372,-15 295,-15 Q192,-15 128,51 Q65,118 65,227 Q65,334 128,399 Q192,465 296,465 M296,445 Q204,445 147,388 Q91,330 88,237 L486,237 Q486,333 434.5,389 Q383,445 296,445 M445,667 L445,650 L181,650 L181,667"/> 
            <glyph glyph-name="Ė" unicode="&#x116;" horiz-adv-x="567" d=" M137,350 L527,350 L527,330 L137,330 L137,20 L567,20 L567,0 L115,0 L115,680 L567,680 L567,660 L137,660 M355,804 Q346,793 333.5,797.5 Q321,802 317.5,813.5 Q314,825 322,836 Q332,846 345,841.5 Q358,837 361,825.5 Q364,814 355,804"/> 
            <glyph glyph-name="ė" unicode="&#x117;" horiz-adv-x="507" d=" M296,465 Q392,465 449.5,403.5 Q507,342 507,237 L507,217 L88,217 Q91,122 147,63 Q202,5 295,5 Q364,5 466,31 L471,14 Q372,-15 295,-15 Q192,-15 128,51 Q65,118 65,227 Q65,334 128,399 Q192,465 296,465 M296,445 Q204,445 147,388 Q91,330 88,237 L486,237 Q486,333 434.5,389 Q383,445 296,445 M330,613 Q321,602 308.5,606.5 Q296,611 292.5,622.5 Q289,634 297,645 Q307,655 320,650.5 Q333,646 336,634.5 Q339,623 330,613"/> 
            <glyph glyph-name="Ę" unicode="&#x118;" horiz-adv-x="567" d=" M137,660 L137,350 L527,350 L527,330 L137,330 L137,20 L567,20 L567,0 L517,0 Q464,-26 440.5,-49 Q417,-72 417,-108 Q417,-142 443,-162.5 Q469,-183 512,-183 Q518,-183 540,-181 L542,-202 Q528,-205 509,-205 Q458,-205 426.5,-178.5 Q395,-152 395,-109 Q395,-47 478,0 L115,0 L115,680 L567,680 L567,660"/> 
            <glyph glyph-name="ę" unicode="&#x119;" horiz-adv-x="507" d=" M507,237 L507,217 L88,217 Q91,122 147,63 Q202,5 295,5 Q364,5 466,31 L471,14 Q425,0 408,-3 Q356,-29 332.5,-52 Q309,-75 309,-111 Q309,-145 335,-165.5 Q361,-186 404,-186 Q410,-186 432,-184 L434,-205 Q420,-208 401,-208 Q350,-208 318.5,-181.5 Q287,-155 287,-112 Q287,-54 354,-12 Q328,-15 295,-15 Q192,-15 128,51 Q65,118 65,227 Q65,334 128,399 Q192,465 296,465 Q392,465 449.5,403.5 Q507,342 507,237 M88,237 L486,237 Q486,333 434.5,389 Q383,445 296,445 Q204,445 147,388 Q91,330 88,237"/> 
            <glyph glyph-name="Ě" unicode="&#x11A;" horiz-adv-x="567" d=" M351,740 L326,740 L193,900 L220,900 L339,759 L457,900 L484,900 M137,350 L527,350 L527,330 L137,330 L137,20 L567,20 L567,0 L115,0 L115,680 L567,680 L567,660 L137,660"/> 
            <glyph glyph-name="ě" unicode="&#x11B;" horiz-adv-x="507" d=" M296,465 Q392,465 449.5,403.5 Q507,342 507,237 L507,217 L88,217 Q91,122 147,63 Q202,5 295,5 Q364,5 466,31 L471,14 Q372,-15 295,-15 Q192,-15 128,51 Q65,118 65,227 Q65,334 128,399 Q192,465 296,465 M296,445 Q204,445 147,388 Q91,330 88,237 L486,237 Q486,333 434.5,389 Q383,445 296,445 M326,570 L301,570 L168,730 L195,730 L314,589 L432,730 L459,730"/> 
            <glyph glyph-name="Ğ" unicode="&#x11E;" horiz-adv-x="741" d=" M741,350 L741,50 Q599,-15 438,-15 Q275,-15 175,82 Q75,179 75,340 Q75,500 175,597 Q276,695 438,695 Q565,695 675,658 L670,640 Q554,675 438,675 Q286,675 191,583 Q98,492 98,340 Q98,188 191,97 Q286,5 438,5 Q582,5 720,61 L720,330 L421,330 L421,350 M551,885 L570,885 Q570,825 533,788 Q496,751 435,751 Q374,751 337,788 Q300,825 300,885 L320,885 Q320,833 351.5,801.5 Q383,770 435,770 Q487,770 519,801.5 Q551,833 551,885"/> 
            <glyph glyph-name="ğ" unicode="&#x11F;" horiz-adv-x="510" d=" M296,465 Q406,465 510,440 L510,10 Q510,-106 447,-174 Q384,-242 280,-242 Q180,-242 104,-203 L111,-186 Q190,-222 280,-222 Q376,-222 432.5,-158.5 Q489,-95 489,15 Q398,-5 296,-5 Q194,-5 129,60 Q65,124 65,227 Q65,334 128,399 Q192,465 296,465 M296,445 Q201,445 144,385 Q88,326 88,227 Q88,134 145,74 Q202,15 296,15 Q401,15 489,34 L489,426 Q393,445 296,445 M435,705 L454,705 Q454,645 417,608 Q380,571 319,571 Q258,571 221,608 Q184,645 184,705 L204,705 Q204,653 235.5,621.5 Q267,590 319,590 Q371,590 403,621.5 Q435,653 435,705"/> 
            <glyph glyph-name="Ġ" unicode="&#x120;" horiz-adv-x="741" d=" M741,350 L741,50 Q599,-15 438,-15 Q275,-15 175,82 Q75,179 75,340 Q75,500 175,597 Q276,695 438,695 Q565,695 675,658 L670,640 Q554,675 438,675 Q286,675 191,583 Q98,492 98,340 Q98,188 191,97 Q286,5 438,5 Q582,5 720,61 L720,330 L421,330 L421,350 M451,804 Q442,793 429.5,797.5 Q417,802 413.5,813.5 Q410,825 418,836 Q428,846 441,841.5 Q454,837 457,825.5 Q460,814 451,804"/> 
            <glyph glyph-name="ġ" unicode="&#x121;" horiz-adv-x="510" d=" M296,465 Q406,465 510,440 L510,10 Q510,-106 447,-174 Q384,-242 280,-242 Q180,-242 104,-203 L111,-186 Q190,-222 280,-222 Q376,-222 432.5,-158.5 Q489,-95 489,15 Q398,-5 296,-5 Q194,-5 129,60 Q65,124 65,227 Q65,334 128,399 Q192,465 296,465 M296,445 Q201,445 144,385 Q88,326 88,227 Q88,134 145,74 Q202,15 296,15 Q401,15 489,34 L489,426 Q393,445 296,445 M335,613 Q326,602 313.5,606.5 Q301,611 297.5,622.5 Q294,634 302,645 Q312,655 325,650.5 Q338,646 341,634.5 Q344,623 335,613"/> 
            <glyph glyph-name="Ģ" unicode="&#x122;" horiz-adv-x="741" d=" M741,350 L741,50 Q599,-15 438,-15 Q275,-15 175,82 Q75,179 75,340 Q75,500 175,597 Q276,695 438,695 Q565,695 675,658 L670,640 Q554,675 438,675 Q286,675 191,583 Q98,492 98,340 Q98,188 191,97 Q286,5 438,5 Q582,5 720,61 L720,330 L421,330 L421,350 M406,-224 L439,-125 Q421,-122 421,-104 Q421,-82 444,-82 Q467,-82 467,-104 Q467,-110 466.5,-113.5 Q466,-117 463,-126 Q460,-135 456,-144 Q452,-153 443,-176 Q434,-199 425,-224"/> 
            <glyph glyph-name="ģ" unicode="&#x123;" horiz-adv-x="510" d=" M354,743 L321,644 Q339,641 339,623 Q339,609 327.5,603 Q316,597 304.5,603 Q293,609 293,623 Q293,629 293.5,632.5 Q294,636 297,645 Q300,654 304,663 Q308,672 317,695 Q326,718 335,743 M296,465 Q406,465 510,440 L510,10 Q510,-106 447,-174 Q384,-242 280,-242 Q180,-242 104,-203 L111,-186 Q190,-222 280,-222 Q376,-222 432.5,-158.5 Q489,-95 489,15 Q398,-5 296,-5 Q194,-5 129,60 Q65,124 65,227 Q65,334 128,399 Q192,465 296,465 M296,445 Q201,445 144,385 Q88,326 88,227 Q88,134 145,74 Q202,15 296,15 Q401,15 489,34 L489,426 Q393,445 296,445"/> 
            <glyph glyph-name="Ħ" unicode="&#x126;" horiz-adv-x="688" d=" M688,520 L634,520 L634,0 L612,0 L612,330 L137,330 L137,0 L115,0 L115,520 L61,520 L61,540 L115,540 L115,680 L137,680 L137,540 L612,540 L612,680 L634,680 L634,540 L688,540 M612,520 L137,520 L137,350 L612,350"/> 
            <glyph glyph-name="ħ" unicode="&#x127;" horiz-adv-x="512" d=" M334,465 Q420,465 466,415 Q512,365 512,272 L512,0 L491,0 L491,272 Q491,355 450,400 Q409,445 334,445 Q212,445 121,417 L121,0 L100,0 L100,588 L29,588 L29,608 L100,608 L100,710 L121,710 L121,608 L327,608 L327,588 L121,588 L121,437 Q209,465 334,465"/> 
            <glyph glyph-name="Ī" unicode="&#x12A;" horiz-adv-x="258" d=" M137,680 L137,0 L115,0 L115,680 M258,808 L258,790 L-6,790 L-6,808"/> 
            <glyph glyph-name="ī" unicode="&#x12B;" horiz-adv-x="251" d=" M130,450 L130,0 L109,0 L109,450 M251,667 L251,650 L-13,650 L-13,667"/> 
            <glyph glyph-name="Į" unicode="&#x12E;" horiz-adv-x="162" d=" M160,-181 L162,-202 Q148,-205 129,-205 Q78,-205 46.5,-178.5 Q15,-152 15,-109 Q15,-40 115,9 L115,680 L137,680 L137,0 Q84,-26 60.5,-49 Q37,-72 37,-108 Q37,-142 63,-162.5 Q89,-183 132,-183 Q138,-183 160,-181"/> 
            <glyph glyph-name="į" unicode="&#x12F;" horiz-adv-x="155" d=" M136,612 Q127,603 114.5,607.5 Q102,612 98.5,623 Q95,634 103,645 Q109,651 117,652 Q125,653 130.5,649 Q136,645 140,639.5 Q144,634 143,626 Q142,618 136,612 M153,-181 L155,-202 Q142,-205 122,-205 Q71,-205 39.5,-178.5 Q8,-152 8,-109 Q8,-64 43,-34 Q69,-11 109,10 L109,450 L130,450 L130,0 Q77,-26 53.5,-49 Q30,-72 30,-108 Q30,-142 56,-162.5 Q82,-183 125,-183 Q131,-183 153,-181"/> 
            <glyph glyph-name="İ" unicode="&#x130;" horiz-adv-x="161" d=" M143,816 Q126,800 109,817 Q92,834 108,851 Q126,869 143.5,851.5 Q161,834 143,816 M137,680 L137,0 L115,0 L115,680"/> 
            <glyph glyph-name="ı" unicode="&#x131;" horiz-adv-x="130" d=" M130,450 L130,0 L109,0 L109,450"/> 
            <glyph glyph-name="Ĳ" unicode="&#x132;" horiz-adv-x="726" d=" M726,680 L726,236 Q726,115 668,50 Q610,-15 503,-15 Q398,-15 288,31 L296,50 Q407,5 503,5 Q600,5 652,65 Q704,125 704,236 L704,680 M137,680 L137,0 L115,0 L115,680"/> 
            <glyph glyph-name="ĳ" unicode="&#x133;" horiz-adv-x="372" d=" M135,612 Q126,603 113.5,607.5 Q101,612 97.5,623 Q94,634 102,645 Q108,651 116,652 Q124,653 129.5,649 Q135,645 139,639.5 Q143,634 142,626 Q141,618 135,612 M331,645 Q337,651 345,652 Q353,653 358.5,649 Q364,645 368,639.5 Q372,634 371,626 Q370,618 364,612 Q355,603 342.5,607.5 Q330,612 326.5,623 Q323,634 331,645 M130,450 L130,0 L109,0 L109,450 M359,450 L359,-60 Q359,-150 327.5,-188 Q296,-226 222,-226 L222,-206 Q285,-206 311.5,-172.5 Q338,-139 338,-60 L338,450"/> 
            <glyph glyph-name="Ķ" unicode="&#x136;" horiz-adv-x="633" d=" M137,310 L137,0 L115,0 L115,680 L137,680 L137,330 L228,330 L564,680 L593,680 L259,334 L633,0 L601,0 L256,310 M276,-224 L309,-125 Q291,-122 291,-104 Q291,-82 314,-82 Q337,-82 337,-104 Q337,-110 336.5,-113.5 Q336,-117 333,-126 Q330,-135 326,-144 Q322,-153 313,-176 Q304,-199 295,-224"/> 
            <glyph glyph-name="ķ" unicode="&#x137;" horiz-adv-x="512" d=" M121,237 L210,237 L433,450 L463,450 L243,239 L512,0 L479,0 L235,217 L121,217 L121,0 L100,0 L100,710 L121,710 M226,-224 L259,-125 Q241,-122 241,-104 Q241,-82 264,-82 Q287,-82 287,-104 Q287,-110 286.5,-113.5 Q286,-117 283,-126 Q280,-135 276,-144 Q272,-153 263,-176 Q254,-199 245,-224"/> 
            <glyph glyph-name="Ĺ" unicode="&#x139;" horiz-adv-x="537" d=" M243,900 L142,740 L120,740 L213,900 M537,0 L115,0 L115,680 L137,680 L137,20 L537,20"/> 
            <glyph glyph-name="ĺ" unicode="&#x13A;" horiz-adv-x="235" d=" M235,910 L134,750 L112,750 L205,910 M131,710 L131,0 L110,0 L110,710"/> 
            <glyph glyph-name="Ļ" unicode="&#x13B;" horiz-adv-x="537" d=" M286,-224 L319,-125 Q301,-122 301,-104 Q301,-82 324,-82 Q347,-82 347,-104 Q347,-110 346.5,-113.5 Q346,-117 343,-126 Q340,-135 336,-144 Q332,-153 323,-176 Q314,-199 305,-224 M537,0 L115,0 L115,680 L137,680 L137,20 L537,20"/> 
            <glyph glyph-name="ļ" unicode="&#x13C;" horiz-adv-x="142" d=" M81,-224 L114,-125 Q96,-122 96,-104 Q96,-82 119,-82 Q142,-82 142,-104 Q142,-110 141.5,-113.5 Q141,-117 138,-126 Q135,-135 131,-144 Q127,-153 118,-176 Q109,-199 100,-224 M131,710 L131,0 L110,0 L110,710"/> 
            <glyph glyph-name="Ľ" unicode="&#x13D;" horiz-adv-x="537" d=" M306,680 L286,490 L268,490 L281,680 M537,0 L115,0 L115,680 L137,680 L137,20 L537,20"/> 
            <glyph glyph-name="ľ" unicode="&#x13E;" horiz-adv-x="226" d=" M226,710 L206,520 L188,520 L201,710 M131,710 L131,0 L110,0 L110,710"/> 
            <glyph glyph-name="Ŀ" unicode="&#x13F;" horiz-adv-x="537" d=" M537,0 L115,0 L115,680 L137,680 L137,20 L537,20 M401,268 Q392,257 379.5,261.5 Q367,266 363.5,277.5 Q360,289 368,300 Q378,310 391,305.5 Q404,301 407,289.5 Q410,278 401,268"/> 
            <glyph glyph-name="ŀ" unicode="&#x140;" horiz-adv-x="240" d=" M231,308 Q222,297 209.5,301.5 Q197,306 193.5,317.5 Q190,329 198,340 Q208,350 221,345.5 Q234,341 237,329.5 Q240,318 231,308 M131,710 L131,0 L110,0 L110,710"/> 
            <glyph glyph-name="Ł" unicode="&#x141;" horiz-adv-x="537" d=" M537,20 L537,0 L115,0 L115,258 L30,207 L30,230 L115,281 L115,680 L137,680 L137,294 L297,390 L297,367 L137,271 L137,20"/> 
            <glyph glyph-name="ł" unicode="&#x142;" horiz-adv-x="211" d=" M211,373 L131,325 L131,0 L110,0 L110,312 L31,264 L31,287 L110,335 L110,710 L131,710 L131,348 L211,396"/> 
            <glyph glyph-name="Ń" unicode="&#x143;" horiz-adv-x="667" d=" M667,680 L667,0 L639,0 L137,652 L137,0 L115,0 L115,680 L142,680 L645,28 L645,680 M505,900 L404,740 L382,740 L475,900"/> 
            <glyph glyph-name="ń" unicode="&#x144;" horiz-adv-x="512" d=" M334,465 Q420,465 466,415 Q512,365 512,272 L512,0 L491,0 L491,272 Q491,355 450,400 Q409,445 334,445 Q219,445 121,426 L121,0 L100,0 L100,440 Q204,465 334,465 M395,740 L294,580 L272,580 L365,740"/> 
            <glyph glyph-name="Ņ" unicode="&#x145;" horiz-adv-x="667" d=" M667,680 L667,0 L639,0 L137,652 L137,0 L115,0 L115,680 L142,680 L645,28 L645,680 M346,-224 L379,-125 Q361,-122 361,-104 Q361,-82 384,-82 Q407,-82 407,-104 Q407,-110 406.5,-113.5 Q406,-117 403,-126 Q400,-135 396,-144 Q392,-153 383,-176 Q374,-199 365,-224"/> 
            <glyph glyph-name="ņ" unicode="&#x146;" horiz-adv-x="512" d=" M334,465 Q420,465 466,415 Q512,365 512,272 L512,0 L491,0 L491,272 Q491,355 450,400 Q409,445 334,445 Q219,445 121,426 L121,0 L100,0 L100,440 Q204,465 334,465 M256,-224 L289,-125 Q271,-122 271,-104 Q271,-82 294,-82 Q317,-82 317,-104 Q317,-110 316.5,-113.5 Q316,-117 313,-126 Q310,-135 306,-144 Q302,-153 293,-176 Q284,-199 275,-224"/> 
            <glyph glyph-name="Ň" unicode="&#x147;" horiz-adv-x="667" d=" M403,740 L378,740 L245,900 L272,900 L391,759 L509,900 L536,900 M667,680 L667,0 L639,0 L137,652 L137,0 L115,0 L115,680 L142,680 L645,28 L645,680"/> 
            <glyph glyph-name="ň" unicode="&#x148;" horiz-adv-x="512" d=" M313,570 L288,570 L155,730 L182,730 L301,589 L419,730 L446,730 M334,465 Q420,465 466,415 Q512,365 512,272 L512,0 L491,0 L491,272 Q491,355 450,400 Q409,445 334,445 Q219,445 121,426 L121,0 L100,0 L100,440 Q204,465 334,465"/> 
            <glyph glyph-name="Ō" unicode="&#x14C;" horiz-adv-x="781" d=" M172,597 Q270,695 428,695 Q586,695 684,597 Q781,500 781,340 Q781,179 684,82 Q587,-15 428,-15 Q269,-15 172,82 Q75,179 75,340 Q75,500 172,597 M189,97 Q281,5 428,5 Q575,5 667,97 Q758,188 758,340 Q758,492 667,583 Q575,675 428,675 Q281,675 189,583 Q98,492 98,340 Q98,188 189,97 M560,808 L560,790 L296,790 L296,808"/> 
            <glyph glyph-name="ō" unicode="&#x14D;" horiz-adv-x="547" d=" M547,227 Q547,120 479,52 Q412,-15 306,-15 Q200,-15 133,52 Q65,120 65,227 Q65,333 133,399 Q201,465 306,465 Q412,465 479,399 Q547,333 547,227 M524,227 Q524,325 463,385 Q402,445 306,445 Q210,445 149,385 Q88,325 88,227 Q88,127 149,66 Q210,5 306,5 Q402,5 463,66 Q524,127 524,227 M437,667 L437,650 L173,650 L173,667"/> 
            <glyph glyph-name="Ő" unicode="&#x150;" horiz-adv-x="781" d=" M492,900 L391,740 L369,740 L462,900 M612,900 L511,740 L489,740 L582,900 M172,597 Q270,695 428,695 Q586,695 684,597 Q781,500 781,340 Q781,179 684,82 Q587,-15 428,-15 Q269,-15 172,82 Q75,179 75,340 Q75,500 172,597 M189,97 Q281,5 428,5 Q575,5 667,97 Q758,188 758,340 Q758,492 667,583 Q575,675 428,675 Q281,675 189,583 Q98,492 98,340 Q98,188 189,97"/> 
            <glyph glyph-name="ő" unicode="&#x151;" horiz-adv-x="547" d=" M350,730 L249,570 L227,570 L320,730 M470,730 L369,570 L347,570 L440,730 M547,227 Q547,120 479,52 Q412,-15 306,-15 Q200,-15 133,52 Q65,120 65,227 Q65,333 133,399 Q201,465 306,465 Q412,465 479,399 Q547,333 547,227 M524,227 Q524,325 463,385 Q402,445 306,445 Q210,445 149,385 Q88,325 88,227 Q88,127 149,66 Q210,5 306,5 Q402,5 463,66 Q524,127 524,227"/> 
            <glyph glyph-name="Œ" unicode="&#x152;" horiz-adv-x="927" d=" M497,350 L887,350 L887,330 L497,330 L497,20 L927,20 L927,0 L475,0 Q283,1 179,90 Q75,179 75,340 Q75,501 179,590 Q283,679 475,680 L927,680 L927,660 L497,660 M475,20 L475,660 Q293,659 195.5,575.5 Q98,492 98,340 Q98,188 195.5,104.5 Q293,21 475,20"/> 
            <glyph glyph-name="œ" unicode="&#x153;" horiz-adv-x="966" d=" M966,237 L966,217 L547,217 Q550,122 606,63 Q661,5 754,5 Q823,5 925,31 L930,14 Q831,-15 754,-15 Q673,-15 614.5,27.5 Q556,70 535,145 Q512,71 450.5,28 Q389,-15 306,-15 Q200,-15 133,52 Q65,120 65,227 Q65,333 133,399 Q201,465 306,465 Q389,465 450.5,423 Q512,381 535,308 Q556,381 614,423 Q672,465 755,465 Q851,465 908.5,403.5 Q966,342 966,237 M524,227 Q524,325 463,385 Q402,445 306,445 Q210,445 149,385 Q88,325 88,227 Q88,127 149,66 Q210,5 306,5 Q402,5 463,66 Q524,127 524,227 M547,237 L945,237 Q945,333 893.5,389 Q842,445 755,445 Q663,445 606,388 Q550,330 547,237"/> 
            <glyph glyph-name="Ŕ" unicode="&#x154;" horiz-adv-x="605" d=" M578,0 L370,274 Q349,270 313,270 L137,270 L137,0 L115,0 L115,680 Q248,687 313,687 Q431,687 498.5,634.5 Q566,582 566,485 Q566,403 521,349.5 Q476,296 393,278 L605,0 M137,290 L313,290 Q420,290 481.5,341.5 Q543,393 543,485 Q543,573 482.5,620 Q422,667 313,667 Q239,667 137,661 M407,900 L306,740 L284,740 L377,900"/> 
            <glyph glyph-name="ŕ" unicode="&#x155;" horiz-adv-x="324" d=" M306,740 L205,580 L183,580 L276,740 M324,458 L324,438 Q218,438 121,425 L121,0 L100,0 L100,440 Q209,458 324,458"/> 
            <glyph glyph-name="Ŗ" unicode="&#x156;" horiz-adv-x="605" d=" M578,0 L370,274 Q349,270 313,270 L137,270 L137,0 L115,0 L115,680 Q248,687 313,687 Q431,687 498.5,634.5 Q566,582 566,485 Q566,403 521,349.5 Q476,296 393,278 L605,0 M137,290 L313,290 Q420,290 481.5,341.5 Q543,393 543,485 Q543,573 482.5,620 Q422,667 313,667 Q239,667 137,661 M296,-224 L329,-125 Q311,-122 311,-104 Q311,-82 334,-82 Q357,-82 357,-104 Q357,-110 356.5,-113.5 Q356,-117 353,-126 Q350,-135 346,-144 Q342,-153 333,-176 Q324,-199 315,-224"/> 
            <glyph glyph-name="ŗ" unicode="&#x157;" horiz-adv-x="324" d=" M70,-224 L103,-125 Q85,-122 85,-104 Q85,-82 108,-82 Q131,-82 131,-104 Q131,-110 130.5,-113.5 Q130,-117 127,-126 Q124,-135 120,-144 Q116,-153 107,-176 Q98,-199 89,-224 M324,458 L324,438 Q218,438 121,425 L121,0 L100,0 L100,440 Q209,458 324,458"/> 
            <glyph glyph-name="Ř" unicode="&#x158;" horiz-adv-x="605" d=" M578,0 L370,274 Q349,270 313,270 L137,270 L137,0 L115,0 L115,680 Q248,687 313,687 Q431,687 498.5,634.5 Q566,582 566,485 Q566,403 521,349.5 Q476,296 393,278 L605,0 M137,290 L313,290 Q420,290 481.5,341.5 Q543,393 543,485 Q543,573 482.5,620 Q422,667 313,667 Q239,667 137,661 M305,740 L280,740 L147,900 L174,900 L293,759 L411,900 L438,900"/> 
            <glyph glyph-name="ř" unicode="&#x159;" horiz-adv-x="357" d=" M224,570 L199,570 L66,730 L93,730 L212,589 L330,730 L357,730 M324,458 L324,438 Q218,438 121,425 L121,0 L100,0 L100,440 Q209,458 324,458"/> 
            <glyph glyph-name="Ś" unicode="&#x15A;" horiz-adv-x="601" d=" M573,658 L567,641 Q458,675 340,675 Q249,675 195,631.5 Q141,588 141,514 Q141,455 178,425 Q216,395 316,374 L391,357 Q414,352 455,339 Q495,327 514,314 Q601,261 595,175 Q595,89 530,36 Q466,-15 360,-15 Q219,-15 80,42 L89,61 Q230,5 361,5 Q455,5 513,51 Q572,98 572,175 Q572,242 524,282 Q504,299 469,312 Q429,327 408,332 L338,348 L319,352 Q204,376 161,410 Q118,444 118,513 Q118,596 179,645.5 Q240,695 340,695 Q462,695 573,658 M469,900 L368,740 L346,740 L439,900"/> 
            <glyph glyph-name="ś" unicode="&#x15B;" horiz-adv-x="440" d=" M70,34 L78,53 Q181,5 272,5 Q338,5 378.5,34.5 Q419,64 419,114 Q415,149 401,167.5 Q387,186 351,198 Q324,208 303,213 Q285,219 241,228 Q162,246 129.5,270.5 Q97,295 97,344 Q97,402 140.5,433.5 Q184,465 262,465 Q342,465 424,436 L417,417 Q339,445 259,445 Q118,445 118,342 Q118,303 144,283 Q170,265 241,248 L272,240 L303,233 L330,225 Q354,219 380,207 Q408,195 430,162 Q440,138 440,115 Q440,55 394,20 Q348,-15 270,-15 Q175,-15 70,34 M349,740 L248,580 L226,580 L319,740"/> 
            <glyph glyph-name="Ş" unicode="&#x15E;" horiz-adv-x="601" d=" M573,658 L567,641 Q458,675 340,675 Q249,675 195,631.5 Q141,588 141,514 Q141,455 178,425 Q216,395 316,374 L391,357 Q414,352 455,339 Q495,327 514,314 Q601,261 595,175 Q595,89 530,36 Q466,-15 360,-15 Q219,-15 80,42 L89,61 Q230,5 361,5 Q455,5 513,51 Q572,98 572,175 Q572,242 524,282 Q504,299 469,312 Q429,327 408,332 L338,348 L319,352 Q204,376 161,410 Q118,444 118,513 Q118,596 179,645.5 Q240,695 340,695 Q462,695 573,658 M305,-200 L283,-200 L339,-50 L362,-50"/> 
            <glyph glyph-name="ş" unicode="&#x15F;" horiz-adv-x="440" d=" M70,34 L78,53 Q181,5 272,5 Q338,5 378.5,34.5 Q419,64 419,114 Q415,149 401,167.5 Q387,186 351,198 Q324,208 303,213 Q285,219 241,228 Q162,246 129.5,270.5 Q97,295 97,344 Q97,402 140.5,433.5 Q184,465 262,465 Q342,465 424,436 L417,417 Q339,445 259,445 Q118,445 118,342 Q118,303 144,283 Q170,265 241,248 L272,240 L303,233 L330,225 Q354,219 380,207 Q408,195 430,162 Q440,138 440,115 Q440,55 394,20 Q348,-15 270,-15 Q175,-15 70,34 M205,-200 L183,-200 L239,-50 L262,-50"/> 
            <glyph glyph-name="Š" unicode="&#x160;" horiz-adv-x="601" d=" M573,658 L567,641 Q458,675 340,675 Q249,675 195,631.5 Q141,588 141,514 Q141,455 178,425 Q216,395 316,374 L391,357 Q414,352 455,339 Q495,327 514,314 Q601,261 595,175 Q595,89 530,36 Q466,-15 360,-15 Q219,-15 80,42 L89,61 Q230,5 361,5 Q455,5 513,51 Q572,98 572,175 Q572,242 524,282 Q504,299 469,312 Q429,327 408,332 L338,348 L319,352 Q204,376 161,410 Q118,444 118,513 Q118,596 179,645.5 Q240,695 340,695 Q462,695 573,658 M367,740 L342,740 L209,900 L236,900 L355,759 L473,900 L500,900"/> 
            <glyph glyph-name="š" unicode="&#x161;" horiz-adv-x="440" d=" M70,34 L78,53 Q181,5 272,5 Q338,5 378.5,34.5 Q419,64 419,114 Q415,149 401,167.5 Q387,186 351,198 Q324,208 303,213 Q285,219 241,228 Q162,246 129.5,270.5 Q97,295 97,344 Q97,402 140.5,433.5 Q184,465 262,465 Q342,465 424,436 L417,417 Q339,445 259,445 Q118,445 118,342 Q118,303 144,283 Q170,265 241,248 L272,240 L303,233 L330,225 Q354,219 380,207 Q408,195 430,162 Q440,138 440,115 Q440,55 394,20 Q348,-15 270,-15 Q175,-15 70,34 M267,570 L242,570 L109,730 L136,730 L255,589 L373,730 L400,730"/> 
            <glyph glyph-name="Ť" unicode="&#x164;" horiz-adv-x="632" d=" M343,740 L318,740 L185,900 L212,900 L331,759 L449,900 L476,900 M342,660 L342,0 L320,0 L320,660 L30,660 L30,680 L632,680 L632,660"/> 
            <glyph glyph-name="ť" unicode="&#x165;" horiz-adv-x="358" d=" M353,15 L358,-3 Q312,-15 277,-15 Q203,-15 171.5,23 Q140,61 140,151 L140,430 L30,430 L30,450 L140,450 L140,660 L161,660 L161,450 L335,450 L335,430 L161,430 L161,151 Q161,72 187.5,38.5 Q214,5 277,5 Q312,5 353,15 M276,740 L256,550 L238,550 L251,740"/> 
            <glyph glyph-name="Ū" unicode="&#x16A;" horiz-adv-x="661" d=" M661,680 L661,256 Q661,134 584,59 Q507,-15 383,-15 Q258,-15 181,59 Q105,134 105,256 L105,680 L127,680 L127,256 Q127,143 197,74 Q268,5 383,5 Q498,5 569,74 Q639,143 639,256 L639,680 M515,808 L515,790 L251,790 L251,808"/> 
            <glyph glyph-name="ū" unicode="&#x16B;" horiz-adv-x="502" d=" M502,450 L502,10 Q398,-15 268,-15 Q182,-15 136,35 Q90,85 90,178 L90,450 L111,450 L111,178 Q111,95 152,50 Q193,5 268,5 Q383,5 481,24 L481,450 M432,667 L432,650 L168,650 L168,667"/> 
            <glyph glyph-name="Ů" unicode="&#x16E;" horiz-adv-x="661" d=" M466,811 Q466,776 441.5,752.5 Q417,729 383,729 Q349,729 324.5,752.5 Q300,776 300,811 Q300,847 323.5,870.5 Q347,894 383,894 Q419,894 442.5,870.5 Q466,847 466,811 M447,811 Q447,840 428.5,858 Q410,876 383,876 Q356,876 337.5,858 Q319,840 319,811 Q319,784 337.5,766 Q356,748 383,748 Q410,748 428.5,766 Q447,784 447,811 M661,680 L661,256 Q661,134 584,59 Q507,-15 383,-15 Q258,-15 181,59 Q105,134 105,256 L105,680 L127,680 L127,256 Q127,143 197,74 Q268,5 383,5 Q498,5 569,74 Q639,143 639,256 L639,680"/> 
            <glyph glyph-name="ů" unicode="&#x16F;" horiz-adv-x="502" d=" M384,641 Q384,606 359.5,582.5 Q335,559 301,559 Q267,559 242.5,582.5 Q218,606 218,641 Q218,677 241.5,700.5 Q265,724 301,724 Q337,724 360.5,700.5 Q384,677 384,641 M365,641 Q365,670 346.5,688 Q328,706 301,706 Q274,706 255.5,688 Q237,670 237,641 Q237,614 255.5,596 Q274,578 301,578 Q328,578 346.5,596 Q365,614 365,641 M502,450 L502,10 Q398,-15 268,-15 Q182,-15 136,35 Q90,85 90,178 L90,450 L111,450 L111,178 Q111,95 152,50 Q193,5 268,5 Q383,5 481,24 L481,450"/> 
            <glyph glyph-name="Ű" unicode="&#x170;" horiz-adv-x="661" d=" M447,900 L346,740 L324,740 L417,900 M567,900 L466,740 L444,740 L537,900 M661,680 L661,256 Q661,134 584,59 Q507,-15 383,-15 Q258,-15 181,59 Q105,134 105,256 L105,680 L127,680 L127,256 Q127,143 197,74 Q268,5 383,5 Q498,5 569,74 Q639,143 639,256 L639,680"/> 
            <glyph glyph-name="ű" unicode="&#x171;" horiz-adv-x="502" d=" M345,730 L244,570 L222,570 L315,730 M465,730 L364,570 L342,570 L435,730 M502,450 L502,10 Q398,-15 268,-15 Q182,-15 136,35 Q90,85 90,178 L90,450 L111,450 L111,178 Q111,95 152,50 Q193,5 268,5 Q383,5 481,24 L481,450"/> 
            <glyph glyph-name="Ų" unicode="&#x172;" horiz-adv-x="661" d=" M661,680 L661,256 Q661,147 600,76 Q540,6 438,-11 Q391,-34 368.5,-57.5 Q346,-81 346,-115 Q346,-149 372,-169.5 Q398,-190 441,-190 Q447,-190 469,-188 L471,-209 Q458,-212 438,-212 Q387,-212 355.5,-185.5 Q324,-159 324,-116 Q324,-59 393,-15 L383,-15 Q258,-15 181,59 Q105,134 105,256 L105,680 L127,680 L127,256 Q127,143 197,74 Q268,5 383,5 Q498,5 569,74 Q639,143 639,256 L639,680"/> 
            <glyph glyph-name="ų" unicode="&#x173;" horiz-adv-x="527" d=" M525,-171 L527,-192 Q514,-195 494,-195 Q443,-195 411.5,-168.5 Q380,-142 380,-99 Q380,-42 443,-2 Q365,-15 268,-15 Q182,-15 136,35 Q90,85 90,178 L90,450 L111,450 L111,178 Q111,95 152,50 Q193,5 268,5 Q383,5 481,24 L481,450 L502,450 L502,10 Q449,-16 425.5,-39 Q402,-62 402,-98 Q402,-132 428,-152.5 Q454,-173 497,-173 Q503,-173 525,-171"/> 
            <glyph glyph-name="Ŵ" unicode="&#x174;" horiz-adv-x="1004" d=" M765,0 L744,0 L527,648 L310,0 L289,0 L50,680 L74,680 L300,34 L516,680 L538,680 L754,35 L980,680 L1004,680 M527,876 L406,740 L381,740 L514,900 L539,900 L672,740 L647,740"/> 
            <glyph glyph-name="ŵ" unicode="&#x175;" horiz-adv-x="767" d=" M586,0 L563,0 L413,416 L264,0 L241,0 L60,450 L83,450 L253,33 L402,450 L425,450 L575,33 L744,450 L767,450 M414,706 L293,570 L268,570 L401,730 L426,730 L559,570 L534,570"/> 
            <glyph glyph-name="Ŷ" unicode="&#x176;" horiz-adv-x="630" d=" M319,257 L30,680 L56,680 L330,277 L604,680 L630,680 L341,257 L341,0 L319,0 M330,876 L209,740 L184,740 L317,900 L342,900 L475,740 L450,740"/> 
            <glyph glyph-name="ŷ" unicode="&#x177;" horiz-adv-x="547" d=" M175,570 L150,570 L283,730 L308,730 L441,570 L416,570 L296,706 M547,450 L187,-220 L163,-220 L288,13 L45,450 L69,450 L300,34 L523,450"/> 
            <glyph glyph-name="Ÿ" unicode="&#x178;" horiz-adv-x="630" d=" M243,803 Q234,794 221.5,798.5 Q209,803 205.5,814 Q202,825 210,836 Q220,846 233,842 Q246,838 249,826.5 Q252,815 243,803 M449,803 Q440,794 427.5,798.5 Q415,803 411.5,814 Q408,825 416,836 Q426,846 439,842 Q452,838 455,826.5 Q458,815 449,803 M319,257 L30,680 L56,680 L330,277 L604,680 L630,680 L341,257 L341,0 L319,0"/> 
            <glyph glyph-name="Ź" unicode="&#x179;" horiz-adv-x="575" d=" M575,663 L104,20 L575,20 L575,0 L75,0 L75,17 L548,660 L85,660 L85,680 L575,680 M442,900 L341,740 L319,740 L412,900"/> 
            <glyph glyph-name="ź" unicode="&#x17A;" horiz-adv-x="429" d=" M429,433 L89,20 L429,20 L429,0 L60,0 L60,17 L399,430 L74,430 L74,450 L429,450 M339,740 L238,580 L216,580 L309,740"/> 
            <glyph glyph-name="Ż" unicode="&#x17B;" horiz-adv-x="575" d=" M575,663 L104,20 L575,20 L575,0 L75,0 L75,17 L548,660 L85,660 L85,680 L575,680 M344,804 Q335,793 322.5,797.5 Q310,802 306.5,813.5 Q303,825 311,836 Q321,846 334,841.5 Q347,837 350,825.5 Q353,814 344,804"/> 
            <glyph glyph-name="ż" unicode="&#x17C;" horiz-adv-x="429" d=" M429,433 L89,20 L429,20 L429,0 L60,0 L60,17 L399,430 L74,430 L74,450 L429,450 M261,613 Q252,602 239.5,606.5 Q227,611 223.5,622.5 Q220,634 228,645 Q238,655 251,650.5 Q264,646 267,634.5 Q270,623 261,613"/> 
            <glyph glyph-name="Ž" unicode="&#x17D;" horiz-adv-x="575" d=" M340,740 L315,740 L182,900 L209,900 L328,759 L446,900 L473,900 M575,663 L104,20 L575,20 L575,0 L75,0 L75,17 L548,660 L85,660 L85,680 L575,680"/> 
            <glyph glyph-name="ž" unicode="&#x17E;" horiz-adv-x="429" d=" M257,570 L232,570 L99,730 L126,730 L245,589 L363,730 L390,730 M429,433 L89,20 L429,20 L429,0 L60,0 L60,17 L399,430 L74,430 L74,450 L429,450"/> 
            <glyph glyph-name="ƒ" unicode="&#x192;" horiz-adv-x="478" d=" M397,695 Q432,695 478,683 L473,665 Q432,675 397,675 Q336,675 314,644 Q291,612 281,529 L263,390 L468,390 L468,370 L260,370 L231,151 Q217,54 191,20 Q165,-15 94,-15 Q60,-15 13,-3 L18,15 Q59,5 94,5 Q154,5 176,36 Q200,69 210,151 L239,370 L103,370 L103,390 L242,390 L260,529 Q274,625 299,659 Q326,695 397,695"/> 
            <glyph glyph-name="Ǎ" unicode="&#x1CD;" horiz-adv-x="691" d=" M161,193 L74,0 L50,0 L359,685 L382,685 L691,0 L667,0 L580,193 M371,660 L170,214 L571,214 M383,740 L358,740 L225,900 L252,900 L371,759 L489,900 L516,900"/> 
            <glyph glyph-name="ǎ" unicode="&#x1CE;" horiz-adv-x="510" d=" M327,570 L302,570 L169,730 L196,730 L315,589 L433,730 L460,730 M296,465 Q406,465 510,440 L510,0 L489,0 L489,46 Q389,-15 296,-15 Q192,-15 128,51 Q65,118 65,227 Q65,334 128,399 Q192,465 296,465 M296,445 Q201,445 144,385 Q88,326 88,227 Q88,128 144,66 Q201,5 296,5 Q382,5 489,67 L489,426 Q393,445 296,445"/> 
            <glyph glyph-name="Ș" unicode="&#x218;" horiz-adv-x="601" d=" M573,658 L567,641 Q458,675 340,675 Q249,675 195,631.5 Q141,588 141,514 Q141,455 178,425 Q216,395 316,374 L391,357 Q414,352 455,339 Q495,327 514,314 Q601,261 595,175 Q595,89 530,36 Q466,-15 360,-15 Q219,-15 80,42 L89,61 Q230,5 361,5 Q455,5 513,51 Q572,98 572,175 Q572,242 524,282 Q504,299 469,312 Q429,327 408,332 L338,348 L319,352 Q204,376 161,410 Q118,444 118,513 Q118,596 179,645.5 Q240,695 340,695 Q462,695 573,658 M306,-224 L339,-125 Q321,-122 321,-104 Q321,-82 344,-82 Q367,-82 367,-104 Q367,-110 366.5,-113.5 Q366,-117 363,-126 Q360,-135 356,-144 Q352,-153 343,-176 Q334,-199 325,-224"/> 
            <glyph glyph-name="ș" unicode="&#x219;" horiz-adv-x="440" d=" M70,34 L78,53 Q181,5 272,5 Q338,5 378.5,34.5 Q419,64 419,114 Q415,149 401,167.5 Q387,186 351,198 Q324,208 303,213 Q285,219 241,228 Q162,246 129.5,270.5 Q97,295 97,344 Q97,402 140.5,433.5 Q184,465 262,465 Q342,465 424,436 L417,417 Q339,445 259,445 Q118,445 118,342 Q118,303 144,283 Q170,265 241,248 L272,240 L303,233 L330,225 Q354,219 380,207 Q408,195 430,162 Q440,138 440,115 Q440,55 394,20 Q348,-15 270,-15 Q175,-15 70,34 M222,-224 L255,-125 Q237,-122 237,-104 Q237,-82 260,-82 Q283,-82 283,-104 Q283,-110 282.5,-113.5 Q282,-117 279,-126 Q276,-135 272,-144 Q268,-153 259,-176 Q250,-199 241,-224"/> 
            <glyph glyph-name="Ț" unicode="&#x21A;" horiz-adv-x="632" d=" M292,-224 L325,-125 Q307,-122 307,-104 Q307,-82 330,-82 Q353,-82 353,-104 Q353,-110 352.5,-113.5 Q352,-117 349,-126 Q346,-135 342,-144 Q338,-153 329,-176 Q320,-199 311,-224 M342,660 L342,0 L320,0 L320,660 L30,660 L30,680 L632,680 L632,660"/> 
            <glyph glyph-name="ț" unicode="&#x21B;" horiz-adv-x="358" d=" M353,15 L358,-3 Q312,-15 277,-15 Q203,-15 171.5,23 Q140,61 140,151 L140,430 L30,430 L30,450 L140,450 L140,660 L161,660 L161,450 L335,450 L335,430 L161,430 L161,151 Q161,72 187.5,38.5 Q214,5 277,5 Q312,5 353,15 M196,-224 L229,-125 Q211,-122 211,-104 Q211,-82 234,-82 Q257,-82 257,-104 Q257,-110 256.5,-113.5 Q256,-117 253,-126 Q250,-135 246,-144 Q242,-153 233,-176 Q224,-199 215,-224"/> 
            <glyph glyph-name="ˆ" unicode="&#x2C6;" horiz-adv-x="445" d=" M300,706 L179,570 L154,570 L287,730 L312,730 L445,570 L420,570"/> 
            <glyph glyph-name="ˇ" unicode="&#x2C7;" horiz-adv-x="445" d=" M312,570 L287,570 L154,730 L181,730 L300,589 L418,730 L445,730"/> 
            <glyph glyph-name="˘" unicode="&#x2D8;" horiz-adv-x="435" d=" M416,705 L435,705 Q435,645 398,608 Q361,571 300,571 Q239,571 202,608 Q165,645 165,705 L185,705 Q185,653 216.5,621.5 Q248,590 300,590 Q352,590 384,621.5 Q416,653 416,705"/> 
            <glyph glyph-name="˙" unicode="&#x2D9;" horiz-adv-x="325" d=" M316,613 Q307,602 294.5,606.5 Q282,611 278.5,622.5 Q275,634 283,645 Q293,655 306,650.5 Q319,646 322,634.5 Q325,623 316,613"/> 
            <glyph glyph-name="˚" unicode="&#x2DA;" horiz-adv-x="383" d=" M383,641 Q383,606 358.5,582.5 Q334,559 300,559 Q266,559 241.5,582.5 Q217,606 217,641 Q217,677 240.5,700.5 Q264,724 300,724 Q336,724 359.5,700.5 Q383,677 383,641 M364,641 Q364,670 345.5,688 Q327,706 300,706 Q273,706 254.5,688 Q236,670 236,641 Q236,614 254.5,596 Q273,578 300,578 Q327,578 345.5,596 Q364,614 364,641"/> 
            <glyph glyph-name="˛" unicode="&#x2DB;" horiz-adv-x="385" d=" M352,9 L360,-7 Q307,-33 283.5,-56 Q260,-79 260,-115 Q260,-149 286,-169.5 Q312,-190 355,-190 Q361,-190 383,-188 L385,-209 Q372,-212 352,-212 Q301,-212 269.5,-185.5 Q238,-159 238,-116 Q238,-67 279,-35 Q309,-12 352,9"/> 
            <glyph glyph-name="˜" unicode="&#x2DC;" horiz-adv-x="434" d=" M417,661 L434,661 Q434,627 413.5,608.5 Q393,590 368.5,592.5 Q344,595 323,606 L263,648 Q241,667 210,656 Q179,645 179,608 L162,608 Q162,642 183,660.5 Q204,679 228.5,676.5 Q253,674 273,663 L333,621 Q357,602 387,613 Q417,624 417,661"/> 
            <glyph glyph-name="˝" unicode="&#x2DD;" horiz-adv-x="474" d=" M354,730 L253,570 L231,570 L324,730 M474,730 L373,570 L351,570 L444,730"/> 
            <glyph glyph-name="̦" unicode="&#x326;" horiz-adv-x="327" d=" M266,-254 L299,-155 Q281,-152 281,-134 Q281,-112 304,-112 Q327,-112 327,-134 Q327,-140 326.5,-143.5 Q326,-147 323,-156 Q320,-165 316,-174 Q312,-183 303,-206 Q294,-229 285,-254"/> 
            <glyph glyph-name="Ẁ" unicode="&#x1E80;" horiz-adv-x="1004" d=" M765,0 L744,0 L527,648 L310,0 L289,0 L50,680 L74,680 L300,34 L516,680 L538,680 L754,35 L980,680 L1004,680 M536,740 L514,740 L413,900 L443,900"/> 
            <glyph glyph-name="ẁ" unicode="&#x1E81;" horiz-adv-x="767" d=" M586,0 L563,0 L413,416 L264,0 L241,0 L60,450 L83,450 L253,33 L402,450 L425,450 L575,33 L744,450 L767,450 M413,580 L391,580 L290,740 L320,740"/> 
            <glyph glyph-name="Ẃ" unicode="&#x1E82;" horiz-adv-x="1004" d=" M765,0 L744,0 L527,648 L310,0 L289,0 L50,680 L74,680 L300,34 L516,680 L538,680 L754,35 L980,680 L1004,680 M641,900 L540,740 L518,740 L611,900"/> 
            <glyph glyph-name="ẃ" unicode="&#x1E83;" horiz-adv-x="767" d=" M586,0 L563,0 L413,416 L264,0 L241,0 L60,450 L83,450 L253,33 L402,450 L425,450 L575,33 L744,450 L767,450 M538,740 L437,580 L415,580 L508,740"/> 
            <glyph glyph-name="Ẅ" unicode="&#x1E84;" horiz-adv-x="1004" d=" M440,803 Q431,794 418.5,798.5 Q406,803 402.5,814 Q399,825 407,836 Q417,846 430,842 Q443,838 446,826.5 Q449,815 440,803 M646,803 Q637,794 624.5,798.5 Q612,803 608.5,814 Q605,825 613,836 Q623,846 636,842 Q649,838 652,826.5 Q655,815 646,803 M765,0 L744,0 L527,648 L310,0 L289,0 L50,680 L74,680 L300,34 L516,680 L538,680 L754,35 L980,680 L1004,680"/> 
            <glyph glyph-name="ẅ" unicode="&#x1E85;" horiz-adv-x="767" d=" M586,0 L563,0 L413,416 L264,0 L241,0 L60,450 L83,450 L253,33 L402,450 L425,450 L575,33 L744,450 L767,450 M294,645 Q300,651 308,652 Q316,653 321.5,649 Q327,645 331,639.5 Q335,634 334,626 Q333,618 327,612 Q318,603 305.5,607.5 Q293,612 289.5,623 Q286,634 294,645 M500,645 Q506,651 514,652 Q522,653 527.5,649 Q533,645 537,639.5 Q541,634 540,626 Q539,618 533,612 Q524,603 511.5,607.5 Q499,612 495.5,623 Q492,634 500,645"/> 
            <glyph glyph-name="Ỳ" unicode="&#x1EF2;" horiz-adv-x="630" d=" M319,257 L30,680 L56,680 L330,277 L604,680 L630,680 L341,257 L341,0 L319,0 M339,740 L317,740 L216,900 L246,900"/> 
            <glyph glyph-name="ỳ" unicode="&#x1EF3;" horiz-adv-x="547" d=" M303,580 L202,740 L232,740 L325,580 M547,450 L187,-220 L163,-220 L288,13 L45,450 L69,450 L300,34 L523,450"/> 
            <glyph glyph-name="–" unicode="&#x2013;" horiz-adv-x="577" d=" M577,291 L577,270 L80,270 L80,291"/> 
            <glyph glyph-name="—" unicode="&#x2014;" horiz-adv-x="790" d=" M790,291 L790,270 L80,270 L80,291"/> 
            <glyph glyph-name="‘" unicode="&#x2018;" horiz-adv-x="162" d=" M162,760 L112,605 Q130,602 130,585 Q130,571 118.5,565 Q107,559 95.5,565 Q84,571 84,585 Q84,588 84,590 Q84,592 84.5,594.5 Q85,597 86.5,601 Q88,605 89,609 Q90,613 93,620.5 Q96,628 99,636 Q102,644 106.5,657.5 Q111,671 116,684.5 Q121,698 128.5,718.5 Q136,739 144,760"/> 
            <glyph glyph-name="’" unicode="&#x2019;" horiz-adv-x="146" d=" M68,557 L118,712 Q100,715 100,732 Q100,754 123,754 Q146,754 146,732 Q146,729 146,727 Q146,725 145.5,722.5 Q145,720 143.5,716 Q142,712 141,708 Q140,704 137,696.5 Q134,689 131,681 Q128,673 123.5,659.5 Q119,646 114,632.5 Q109,619 101.5,598.5 Q94,578 86,557"/> 
            </font>
</defs>
</svg>
