<?xml version="1.0" standalone="no"?>
<!DOCTYPE svg PUBLIC "-//W3C//DTD SVG 1.1//EN" "http://www.w3.org/Graphics/SVG/1.1/DTD/svg11.dtd" >
<svg xmlns="http://www.w3.org/2000/svg">
    <defs>
        <font id="VWHead-Italic">
            <font-face font-family="VWHead-Italic"
                       units-per-em="1000"
                       ascent="998"
                       descent="-221"
                       bbox="-260 -221 1054 961"
                    />
            <missing-glyph horiz-adv-x="0" />
            
            <glyph glyph-name="!" unicode="&#x21;" horiz-adv-x="257" d=" M221,509 L140,210 L82,210 L129,509 L165,680 L257,680 M13,36 Q13,70 35.5,92.5 Q58,115 92,115 Q116,115 129.5,101 Q143,87 143,64 Q143,30 120.5,7.5 Q98,-15 64,-15 Q40,-15 26.5,-1.5 Q13,12 13,36"/> 
            <glyph glyph-name="&quot;" unicode="&#x22;" horiz-adv-x="392" d=" M371,580 L317,404 L259,404 L279,580 L301,680 L392,680 M221,580 L167,404 L109,404 L129,580 L151,680 L242,680"/> 
            <glyph glyph-name="#" unicode="&#x23;" horiz-adv-x="677" d=" M130,0 L43,0 L45,10 L115,173 L25,173 L37,247 L148,247 L230,436 L138,436 L151,510 L263,510 L337,680 L424,680 L422,670 L353,510 L494,510 L568,680 L655,680 L652,670 L583,510 L677,510 L664,436 L550,436 L468,247 L563,247 L551,173 L435,173 L361,0 L274,0 L276,10 L346,173 L205,173 M320,436 L238,247 L379,247 L461,436"/> 
            <glyph glyph-name="$" unicode="&#x24;" horiz-adv-x="557" d=" M39,50 L83,124 Q146,76 219,71 L270,312 L251,321 Q195,346 163,388 Q131,430 131,482 Q131,570 190,627.5 Q249,685 352,693 L368,770 L437,770 L420,693 Q494,683 557,642 L516,568 Q449,603 402,608 L353,375 L357,373 Q492,312 492,205 Q492,114 431,54.5 Q370,-5 270,-13 L250,-108 L181,-108 L201,-13 Q113,-3 39,50 M395,192 Q395,247 333,282 L288,73 Q395,91 395,192 M228,494 Q228,432 290,403 L333,606 Q282,597 255,567.5 Q228,538 228,494"/> 
            <glyph glyph-name="%" unicode="&#x25;" horiz-adv-x="726" d=" M143,0 L63,0 L65,10 L646,680 L726,680 L724,670 M157,465 Q157,393 206,393 Q255,393 280,439 Q305,485 305,552 Q305,625 256,625 Q210,625 183.5,579 Q157,533 157,465 M377,552 Q377,462 327.5,397 Q278,332 198,332 Q143,332 114,369 Q85,406 85,466 Q85,556 134.5,621 Q184,686 264,686 Q319,686 348,649 Q377,612 377,552 M485,125 Q485,53 534,53 Q583,53 608,99 Q633,145 633,212 Q633,285 584,285 Q538,285 511.5,239 Q485,193 485,125 M705,212 Q705,122 655.5,57 Q606,-8 526,-8 Q471,-8 442,29 Q413,66 413,126 Q413,216 462.5,281 Q512,346 592,346 Q647,346 676,309 Q705,272 705,212"/> 
            <glyph glyph-name="&amp;" unicode="&#x26;" horiz-adv-x="641" d=" M575,345 L641,295 Q582,221 502,139 L604,10 L602,0 L501,0 L440,78 Q327,-15 208,-15 Q122,-15 74.5,27.5 Q27,70 27,135 Q27,175 42.5,209.5 Q58,244 87.5,270.5 Q117,297 142,314 Q167,331 203,350 L227,363 L220,373 Q173,438 173,504 Q173,578 233,636.5 Q293,695 384,695 Q454,695 497.5,650 Q541,605 541,546 Q541,434 402,362 L350,335 L451,204 Q521,276 575,345 M388,143 L273,298 L246,283 Q182,247 153,218 Q124,189 124,146 Q124,112 148.5,91 Q173,70 219,70 Q299,70 388,143 M267,504 Q267,449 298,407 L304,399 L364,428 Q446,467 446,538 Q446,567 428,588.5 Q410,610 376,610 Q322,610 294.5,578.5 Q267,547 267,504"/> 
            <glyph glyph-name="'" unicode="&#x27;" horiz-adv-x="242" d=" M221,580 L167,404 L109,404 L129,580 L151,680 L242,680"/> 
            <glyph glyph-name="(" unicode="&#x28;" horiz-adv-x="331" d=" M32,86 Q32,269 97.5,420 Q163,571 276,716 L331,674 Q222,516 172.5,367.5 Q123,219 123,63 Q123,-92 148,-189 L78,-216 Q32,-88 32,86"/> 
            <glyph glyph-name=")" unicode="&#x29;" horiz-adv-x="246" d=" M246,414 Q246,231 180.5,80 Q115,-71 2,-216 L-53,-174 Q56,-16 105.5,132.5 Q155,281 155,437 Q155,592 130,689 L200,716 Q246,588 246,414"/> 
            <glyph glyph-name="*" unicode="&#x2A;" horiz-adv-x="430" d=" M226,484 L225,485 L123,424 L101,489 L206,539 L206,541 L123,591 L170,649 L245,588 L247,589 L265,700 L335,700 L304,589 L306,588 L408,649 L430,584 L325,534 L325,532 L408,482 L361,424 L283,486 L282,485 L266,373 L196,373"/> 
            <glyph glyph-name="+" unicode="&#x2B;" horiz-adv-x="534" d=" M383,521 L337,307 L534,307 L519,233 L322,233 L276,18 L199,18 L245,233 L50,233 L66,307 L261,307 L306,521"/> 
            <glyph glyph-name="," unicode="&#x2C;" horiz-adv-x="148" d=" M-51,-161 L-49,-151 L46,102 L148,102 L146,92 L20,-161"/> 
            <glyph glyph-name="-" unicode="&#x2D;" horiz-adv-x="337" d=" M322,233 L61,233 L77,307 L337,307"/> 
            <glyph glyph-name="." unicode="&#x2E;" horiz-adv-x="141" d=" M11,36 Q11,70 33.5,92.5 Q56,115 90,115 Q114,115 127.5,101.5 Q141,88 141,64 Q141,30 118.5,7.5 Q96,-15 62,-15 Q38,-15 24.5,-1.5 Q11,12 11,36"/> 
            <glyph glyph-name="/" unicode="&#x2F;" horiz-adv-x="456" d=" M57,0 L-29,0 L-27,10 L370,680 L456,680 L454,670"/> 
            <glyph glyph-name="0" unicode="&#x30;" horiz-adv-x="578" d=" M133,232 Q133,70 251,70 Q349,70 416,168 Q483,266 483,450 Q483,610 366,610 Q268,610 200.5,512.5 Q133,415 133,232 M578,453 Q578,234 486.5,109.5 Q395,-15 244,-15 Q141,-15 89.5,50 Q38,115 38,228 Q38,447 129,571 Q220,695 373,695 Q474,695 526,630 Q578,565 578,453"/> 
            <glyph glyph-name="1" unicode="&#x31;" horiz-adv-x="457" d=" M188,538 L175,538 L192,622 L364,680 L439,680 L312,83 L457,83 L439,0 L57,0 L75,83 L220,83 L327,580 L325,580"/> 
            <glyph glyph-name="2" unicode="&#x32;" horiz-adv-x="552" d=" M173,85 L173,83 L469,83 L451,0 L17,0 L33,73 L335,324 Q375,358 396,378.5 Q417,399 436,433 Q455,467 455,503 Q455,552 427,581 Q399,610 348,610 Q296,610 257,593 Q218,576 175,544 L134,612 Q243,695 356,695 Q441,695 496.5,644 Q552,593 552,511 Q552,440 515.5,387.5 Q479,335 399,270"/> 
            <glyph glyph-name="3" unicode="&#x33;" horiz-adv-x="544" d=" M160,305 L178,388 L296,388 Q369,388 407.5,427 Q446,466 446,521 Q446,560 420,585 Q394,610 344,610 Q260,610 167,575 L145,650 Q242,695 353,695 Q444,695 494,652 Q544,609 544,538 Q544,468 505,418 Q466,368 413,343 L413,341 Q492,308 492,212 Q492,111 412.5,48 Q333,-15 215,-15 Q108,-15 17,36 L54,111 Q128,70 222,70 Q295,70 346,108.5 Q397,147 397,214 Q397,305 273,305"/> 
            <glyph glyph-name="4" unicode="&#x34;" horiz-adv-x="543" d=" M356,227 L409,480 L501,480 L447,227 L543,227 L525,144 L430,144 L399,0 L307,0 L338,144 L9,144 L24,214 L326,680 L422,680 L131,227"/> 
            <glyph glyph-name="5" unicode="&#x35;" horiz-adv-x="568" d=" M126,328 L119,339 L233,680 L568,680 L550,597 L292,597 L231,416 Q269,418 286,418 Q385,418 442,375.5 Q499,333 499,250 Q499,126 415,55.5 Q331,-15 195,-15 Q153,-15 102,-3 Q51,9 19,25 L50,105 Q122,70 203,70 Q295,70 348,111.5 Q401,153 401,236 Q401,333 266,333 Q193,333 126,328"/> 
            <glyph glyph-name="6" unicode="&#x36;" horiz-adv-x="533" d=" M470,680 L468,670 L250,419 L252,417 Q293,445 350,445 Q434,445 483.5,394 Q533,343 533,262 Q533,145 454,65 Q375,-15 249,-15 Q151,-15 96.5,39 Q42,93 42,176 Q42,292 133,403 L363,680 M436,250 Q436,303 405,331.5 Q374,360 318,360 Q237,360 188,313 Q139,266 139,186 Q139,133 170,101.5 Q201,70 257,70 Q333,70 384.5,121 Q436,172 436,250"/> 
            <glyph glyph-name="7" unicode="&#x37;" horiz-adv-x="592" d=" M112,0 L114,10 L473,595 L473,597 L145,597 L163,680 L592,680 L577,610 L210,0"/> 
            <glyph glyph-name="8" unicode="&#x38;" horiz-adv-x="564" d=" M250,70 Q336,70 381,111.5 Q426,153 426,217 Q426,262 395,288 Q364,314 302,314 Q212,314 168.5,272.5 Q125,231 125,167 Q125,122 156.5,96 Q188,70 250,70 M373,695 Q467,695 515.5,651.5 Q564,608 564,539 Q564,413 441,354 L441,352 Q477,333 499,297 Q521,261 521,215 Q521,115 447.5,50 Q374,-15 242,-15 Q138,-15 82.5,31.5 Q27,78 27,153 Q27,226 70.5,280 Q114,334 181,362 L181,364 Q121,401 121,478 Q121,570 185.5,632.5 Q250,695 373,695 M319,397 Q391,397 428.5,431.5 Q466,466 466,527 Q466,610 365,610 Q293,610 254.5,574.5 Q216,539 216,479 Q216,397 319,397"/> 
            <glyph glyph-name="9" unicode="&#x39;" horiz-adv-x="572" d=" M144,0 L146,10 L364,261 L362,263 Q321,235 264,235 Q180,235 130.5,286 Q81,337 81,418 Q81,535 160,615 Q239,695 365,695 Q463,695 517.5,641 Q572,587 572,504 Q572,388 481,277 L251,0 M178,430 Q178,377 209,348.5 Q240,320 296,320 Q377,320 426,367 Q475,414 475,494 Q475,547 444,578.5 Q413,610 357,610 Q281,610 229.5,559 Q178,508 178,430"/> 
            <glyph glyph-name=":" unicode="&#x3A;" horiz-adv-x="232" d=" M102,418 Q102,452 124.5,474.5 Q147,497 181,497 Q205,497 218.5,483.5 Q232,470 232,446 Q232,412 209.5,389.5 Q187,367 153,367 Q129,367 115.5,380.5 Q102,394 102,418 M21,36 Q21,70 43.5,92.5 Q66,115 100,115 Q124,115 137.5,101.5 Q151,88 151,64 Q151,30 128.5,7.5 Q106,-15 72,-15 Q48,-15 34.5,-1.5 Q21,12 21,36"/> 
            <glyph glyph-name=";" unicode="&#x3B;" horiz-adv-x="248" d=" M-43,-161 L-41,-151 L54,102 L156,102 L154,92 L28,-161 M118,418 Q118,452 140.5,474.5 Q163,497 197,497 Q221,497 234.5,483.5 Q248,470 248,446 Q248,412 225.5,389.5 Q203,367 169,367 Q145,367 131.5,380.5 Q118,394 118,418"/> 
            <glyph glyph-name="&lt;" unicode="&#x3C;" horiz-adv-x="566" d=" M462,25 L453,25 L38,236 L53,305 L557,516 L566,516 L548,428 L140,268 L140,265 L480,105"/> 
            <glyph glyph-name="=" unicode="&#x3D;" horiz-adv-x="538" d=" M523,343 L93,343 L109,417 L538,417 M476,126 L47,126 L63,200 L492,200"/> 
            <glyph glyph-name="&gt;" unicode="&#x3E;" horiz-adv-x="546" d=" M27,25 L18,25 L36,114 L444,274 L444,277 L105,437 L122,516 L131,516 L546,305 L531,236"/> 
            <glyph glyph-name="?" unicode="&#x3F;" horiz-adv-x="476" d=" M237,210 L166,210 L194,348 Q290,383 334,419.5 Q378,456 378,522 Q378,560 355,585 Q332,610 290,610 Q220,610 136,556 L100,622 Q198,695 298,695 Q377,695 426.5,651 Q476,607 476,536 Q476,488 458,448 Q440,408 407.5,379 Q375,350 342,330 Q309,310 267,293 M101,36 Q101,70 123.5,92.5 Q146,115 180,115 Q204,115 217.5,101 Q231,87 231,64 Q231,30 208.5,7.5 Q186,-15 152,-15 Q128,-15 114.5,-1 Q101,13 101,36"/> 
            <glyph glyph-name="@" unicode="&#x40;" horiz-adv-x="857" d=" M527,-37 L545,-100 Q451,-140 350,-140 Q209,-140 126.5,-53 Q44,34 44,178 Q44,280 81.5,376.5 Q119,473 185,548 Q251,623 349,669 Q447,715 559,715 Q701,715 779,629.5 Q857,544 857,416 Q857,249 773.5,148.5 Q690,48 590,48 Q518,48 502,112 L501,112 Q429,60 356,60 Q303,60 269.5,96 Q236,132 236,194 Q236,264 268.5,336 Q301,408 360,457 Q419,506 486,506 Q550,506 605,458 L606,458 L632,494 L687,494 L579,211 Q564,179 567.5,147 Q571,115 600,115 Q665,115 724,197 Q783,279 783,414 Q783,517 725,582.5 Q667,648 554,648 Q434,648 333.5,580.5 Q233,513 178.5,407.5 Q124,302 124,187 Q124,71 185.5,-1 Q247,-73 357,-73 Q431,-73 527,-37 M485,166 L573,404 Q542,433 494,433 Q425,433 373,359 Q321,285 321,204 Q321,132 385,132 Q436,132 485,166"/> 
            <glyph glyph-name="A" unicode="&#x41;" horiz-adv-x="548" d=" M441,680 L548,0 L456,0 L433,170 L146,170 L50,0 L-49,0 L347,680 M375,572 L373,572 L193,248 L419,248"/> 
            <glyph glyph-name="B" unicode="&#x42;" horiz-adv-x="587" d=" M186,300 L139,83 L293,83 Q372,83 412.5,114.5 Q453,146 453,218 Q453,300 338,300 M175,680 L384,680 Q587,680 587,536 Q587,467 550.5,415.5 Q514,364 463,345 L462,343 Q548,313 548,218 Q548,117 481,58.5 Q414,0 295,0 L30,0 M249,597 L203,383 L324,383 Q413,383 450.5,412.5 Q488,442 488,520 Q488,564 459.5,580.5 Q431,597 369,597"/> 
            <glyph glyph-name="C" unicode="&#x43;" horiz-adv-x="617" d=" M63,255 Q63,445 168,570 Q273,695 449,695 Q535,695 617,651 L587,578 Q523,610 441,610 Q368,610 312.5,581 Q257,552 224,501.5 Q191,451 175,390 Q159,329 159,259 Q159,170 200.5,120 Q242,70 326,70 Q408,70 486,102 L505,29 Q403,-15 318,-15 Q195,-15 129,59 Q63,133 63,255"/> 
            <glyph glyph-name="D" unicode="&#x44;" horiz-adv-x="642" d=" M30,0 L175,680 L350,680 Q642,680 642,430 Q642,0 225,0 M139,83 L220,83 Q384,83 465.5,159.5 Q547,236 547,426 Q547,515 497,556 Q447,597 329,597 L249,597"/> 
            <glyph glyph-name="E" unicode="&#x45;" horiz-adv-x="600" d=" M175,680 L600,680 L582,597 L249,597 L204,388 L506,388 L489,305 L187,305 L139,83 L476,83 L458,0 L30,0"/> 
            <glyph glyph-name="F" unicode="&#x46;" horiz-adv-x="600" d=" M175,680 L600,680 L582,597 L249,597 L201,373 L503,373 L485,290 L183,290 L122,0 L30,0"/> 
            <glyph glyph-name="G" unicode="&#x47;" horiz-adv-x="652" d=" M380,339 L603,339 L544,48 Q441,-15 311,-15 Q188,-15 126,57 Q64,129 64,248 Q64,336 86.5,414 Q109,492 153.5,556 Q198,620 274.5,657.5 Q351,695 451,695 Q556,695 652,632 L614,559 Q531,610 443,610 Q380,610 330,589.5 Q280,569 249,535 Q218,501 197.5,454 Q177,407 168.5,358 Q160,309 160,254 Q160,169 198.5,119.5 Q237,70 319,70 Q408,70 461,100 L494,256 L366,276"/> 
            <glyph glyph-name="H" unicode="&#x48;" horiz-adv-x="687" d=" M450,0 L515,305 L187,305 L122,0 L30,0 L175,680 L266,680 L204,388 L533,388 L595,680 L687,680 L542,0"/> 
            <glyph glyph-name="I" unicode="&#x49;" horiz-adv-x="266" d=" M266,680 L122,0 L30,0 L175,680"/> 
            <glyph glyph-name="J" unicode="&#x4A;" horiz-adv-x="448" d=" M-27,58 L22,122 Q66,70 125,70 Q226,70 259,223 L356,680 L448,680 L346,203 Q324,98 265,41.5 Q206,-15 117,-15 Q28,-15 -27,58"/> 
            <glyph glyph-name="K" unicode="&#x4B;" horiz-adv-x="647" d=" M190,310 L188,310 L122,0 L30,0 L175,680 L266,680 L195,346 L197,346 L534,680 L647,680 L645,670 L291,323 L518,10 L516,0 L411,0"/> 
            <glyph glyph-name="L" unicode="&#x4C;" horiz-adv-x="444" d=" M175,680 L266,680 L139,83 L444,83 L426,0 L30,0"/> 
            <glyph glyph-name="M" unicode="&#x4D;" horiz-adv-x="808" d=" M401,284 L403,284 L715,680 L808,680 L663,0 L572,0 L680,511 L678,511 L417,171 L350,171 L232,511 L230,511 L122,0 L30,0 L175,680 L256,680"/> 
            <glyph glyph-name="N" unicode="&#x4E;" horiz-adv-x="696" d=" M487,140 L489,140 L604,680 L696,680 L551,0 L456,0 L239,540 L237,540 L122,0 L30,0 L175,680 L268,680"/> 
            <glyph glyph-name="O" unicode="&#x4F;" horiz-adv-x="683" d=" M159,253 Q159,169 196.5,119.5 Q234,70 316,70 Q370,70 413.5,86.5 Q457,103 485,127.5 Q513,152 533.5,188 Q554,224 564,256 Q574,288 580,326 Q586,364 587,385 Q588,406 588,428 Q588,512 550.5,561 Q513,610 431,610 Q363,610 312,583.5 Q261,557 232.5,518.5 Q204,480 186.5,428 Q169,376 164,335 Q159,294 159,253 M683,433 Q683,366 670.5,304 Q658,242 629.5,183 Q601,124 558.5,80.5 Q516,37 451.5,11 Q387,-15 308,-15 Q187,-15 125,56.5 Q63,128 63,248 Q63,333 84,409.5 Q105,486 148,551.5 Q191,617 266,656 Q341,695 439,695 Q560,695 621.5,623.5 Q683,552 683,433"/> 
            <glyph glyph-name="P" unicode="&#x50;" horiz-adv-x="590" d=" M122,0 L30,0 L175,680 L401,680 Q495,680 542.5,636.5 Q590,593 590,518 Q590,401 525,331.5 Q460,262 332,262 L177,262 M249,597 L195,345 L332,345 Q414,345 453,389.5 Q492,434 492,503 Q492,597 386,597"/> 
            <glyph glyph-name="Q" unicode="&#x51;" horiz-adv-x="683" d=" M683,433 Q683,290 624.5,172.5 Q566,55 447,9 L591,-72 L537,-149 L323,-14 Q320,-14 315,-14.5 Q310,-15 308,-15 Q187,-15 125,56.5 Q63,128 63,248 Q63,333 84,409.5 Q105,486 148,551.5 Q191,617 266,656 Q341,695 439,695 Q560,695 621.5,623.5 Q683,552 683,433 M159,253 Q159,169 196.5,119.5 Q234,70 316,70 Q370,70 413.5,86.5 Q457,103 485,127.5 Q513,152 533.5,188 Q554,224 564,256 Q574,288 580,326 Q586,364 587,385 Q588,406 588,428 Q588,512 550.5,561 Q513,610 431,610 Q363,610 312,583.5 Q261,557 232.5,518.5 Q204,480 186.5,428 Q169,376 164,335 Q159,294 159,253"/> 
            <glyph glyph-name="R" unicode="&#x52;" horiz-adv-x="611" d=" M122,0 L30,0 L175,680 L416,680 Q508,680 559.5,638.5 Q611,597 611,523 Q611,429 556,371 Q501,313 406,297 L545,16 L542,0 L448,0 L308,292 L184,292 M202,375 L357,375 Q432,375 473,411 Q514,447 514,511 Q514,597 404,597 L249,597"/> 
            <glyph glyph-name="S" unicode="&#x53;" horiz-adv-x="527" d=" M9,50 L53,124 Q125,70 214,70 Q284,70 324.5,100 Q365,130 365,192 Q365,256 277,296 L221,321 Q165,346 133,388 Q101,430 101,482 Q101,577 169,636 Q237,695 354,695 Q448,695 527,642 L486,568 Q408,610 347,610 Q276,610 237,579 Q198,548 198,494 Q198,431 265,401 L327,373 Q462,312 462,205 Q462,107 391.5,46 Q321,-15 208,-15 Q100,-15 9,50"/> 
            <glyph glyph-name="T" unicode="&#x54;" horiz-adv-x="595" d=" M115,680 L595,680 L577,597 L384,597 L257,0 L165,0 L292,597 L97,597"/> 
            <glyph glyph-name="U" unicode="&#x55;" horiz-adv-x="683" d=" M167,680 L258,680 L169,259 Q150,170 180.5,120 Q211,70 296,70 Q461,70 502,259 L591,680 L683,680 L590,243 Q535,-15 288,-15 Q158,-15 104,58.5 Q50,132 79,268"/> 
            <glyph glyph-name="V" unicode="&#x56;" horiz-adv-x="688" d=" M688,680 L686,670 L295,0 L201,0 L96,670 L98,680 L190,680 L267,111 L269,111 L587,680"/> 
            <glyph glyph-name="W" unicode="&#x57;" horiz-adv-x="1016" d=" M1016,680 L1014,670 L680,0 L586,0 L539,568 L537,568 L250,0 L155,0 L105,670 L107,680 L199,680 L227,128 L229,128 L509,680 L607,680 L652,128 L654,128 L916,680"/> 
            <glyph glyph-name="X" unicode="&#x58;" horiz-adv-x="635" d=" M113,680 L206,680 L308,403 L310,403 L531,680 L635,680 L633,670 L359,340 L492,10 L490,0 L396,0 L293,276 L291,276 L72,0 L-32,0 L-30,10 L243,340 L110,670"/> 
            <glyph glyph-name="Y" unicode="&#x59;" horiz-adv-x="627" d=" M92,680 L186,680 L288,374 L290,374 L525,680 L627,680 L625,670 L321,287 L260,0 L168,0 L229,287 L90,670"/> 
            <glyph glyph-name="Z" unicode="&#x5A;" horiz-adv-x="579" d=" M144,680 L579,680 L563,606 L120,85 L120,83 L452,83 L434,0 L-18,0 L-2,74 L439,595 L439,597 L127,597"/> 
            <glyph glyph-name="[" unicode="&#x5B;" horiz-adv-x="374" d=" M166,700 L374,700 L363,646 L240,623 L82,-121 L195,-144 L183,-198 L-25,-198"/> 
            <glyph glyph-name="\" unicode="&#x5C;" horiz-adv-x="306" d=" M304,0 L225,0 L114,670 L116,680 L195,680 L306,10"/> 
            <glyph glyph-name="]" unicode="&#x5D;" horiz-adv-x="335" d=" M126,700 L335,700 L144,-198 L-65,-198 L-54,-144 L70,-121 L228,623 L114,646"/> 
            <glyph glyph-name="^" unicode="&#x5E;" horiz-adv-x="541" d=" M541,382 L539,372 L460,372 L385,610 L381,610 L205,372 L118,372 L120,382 L364,700 L432,700"/> 
            <glyph glyph-name="_" unicode="&#x5F;" horiz-adv-x="345" d=" M329,-94 L-14,-94 L2,-20 L345,-20"/> 
            <glyph glyph-name="`" unicode="&#x60;" horiz-adv-x="492" d=" M359,700 L361,710 L455,710 L492,589 L490,579 L417,579"/> 
            <glyph glyph-name="a" unicode="&#x61;" horiz-adv-x="527" d=" M360,115 L415,375 Q365,418 303,418 Q253,418 217,395 Q181,372 163.5,335 Q146,298 138.5,261 Q131,224 131,186 Q131,64 228,64 Q294,64 360,115 M358,44 Q277,-15 196,-15 Q115,-15 76,38 Q37,91 37,175 Q37,257 62,328 Q87,399 145,448 Q203,497 285,497 Q371,497 442,438 L444,438 L464,482 L527,482 L445,93 Q442,79 445.5,73 Q449,67 467,67 L493,67 L478,-4 Q446,-12 428,-12 Q367,-12 360,44"/> 
            <glyph glyph-name="b" unicode="&#x62;" horiz-adv-x="515" d=" M184,366 L128,106 Q173,64 245,64 Q294,64 330,86.5 Q366,109 385,145 Q404,181 413,219 Q422,257 422,296 Q422,351 397.5,384.5 Q373,418 320,418 Q253,418 184,366 M164,700 L254,700 L200,448 L202,448 Q227,464 243.5,472.5 Q260,481 289,489 Q318,497 351,497 Q432,497 473.5,443.5 Q515,390 515,306 Q515,224 488,153 Q461,82 402,33.5 Q343,-15 262,-15 Q172,-15 101,44 L99,44 L79,0 L15,0"/> 
            <glyph glyph-name="c" unicode="&#x63;" horiz-adv-x="462" d=" M36,186 Q36,320 115,408.5 Q194,497 322,497 Q396,497 462,462 L435,392 Q379,418 316,418 Q233,418 181.5,349.5 Q130,281 130,198 Q130,141 157.5,102.5 Q185,64 241,64 Q303,64 370,90 L388,20 Q307,-15 233,-15 Q140,-15 88,40.5 Q36,96 36,186"/> 
            <glyph glyph-name="d" unicode="&#x64;" horiz-adv-x="583" d=" M369,115 L424,375 Q376,418 307,418 Q257,418 220.5,395 Q184,372 165.5,335 Q147,298 138.5,261 Q130,224 130,186 Q130,64 232,64 Q303,64 369,115 M493,700 L583,700 L434,0 L370,0 L369,44 L367,44 Q285,-15 201,-15 Q119,-15 77.5,38.5 Q36,92 36,175 Q36,257 62.5,328 Q89,399 148,448 Q207,497 289,497 Q378,497 437,448 L439,448"/> 
            <glyph glyph-name="e" unicode="&#x65;" horiz-adv-x="493" d=" M465,212 L127,212 Q124,200 124,184 Q124,126 155,94 Q186,62 245,62 Q318,62 394,107 L425,37 Q336,-15 230,-15 Q133,-15 84,42 Q35,99 35,186 Q35,309 111,403 Q187,497 310,497 Q401,497 447,448.5 Q493,400 493,328 Q493,276 465,212 M143,284 L399,284 Q407,308 407,329 Q407,370 380.5,395 Q354,420 304,420 Q246,420 203,382.5 Q160,345 143,284"/> 
            <glyph glyph-name="f" unicode="&#x66;" horiz-adv-x="417" d=" M140,0 L50,0 L137,408 L52,408 L64,462 L152,482 L166,548 Q184,630 227,667.5 Q270,705 344,705 Q383,705 417,697 L400,619 Q367,626 343,626 Q306,626 286.5,610.5 Q267,595 258,555 L242,482 L371,482 L355,408 L226,408"/> 
            <glyph glyph-name="g" unicode="&#x67;" horiz-adv-x="537" d=" M370,119 L424,375 Q370,418 306,418 Q264,418 231.5,401.5 Q199,385 180.5,360.5 Q162,336 150,303.5 Q138,271 134,243 Q130,215 130,187 Q130,68 232,68 Q303,68 370,119 M537,482 L432,-11 Q412,-103 348,-158 Q284,-213 182,-213 Q98,-213 21,-167 L50,-95 Q116,-134 189,-134 Q316,-134 342,-13 L353,38 L351,38 Q285,-11 203,-11 Q121,-11 79,42.5 Q37,96 37,179 Q37,261 64.5,331.5 Q92,402 151,449.5 Q210,497 291,497 Q380,497 449,438 L451,438 L473,482"/> 
            <glyph glyph-name="h" unicode="&#x68;" horiz-adv-x="515" d=" M430,0 L340,0 L403,295 Q430,418 325,418 Q291,418 250.5,402 Q210,386 183,367 L105,0 L15,0 L164,700 L254,700 L200,448 L202,448 Q279,497 354,497 Q437,497 476,447.5 Q515,398 495,302"/> 
            <glyph glyph-name="i" unicode="&#x69;" horiz-adv-x="255" d=" M105,0 L16,0 L118,482 L208,482 M137,621 Q137,652 156.5,671 Q176,690 207,690 Q255,690 255,646 Q255,616 234.5,596.5 Q214,577 183,577 Q161,577 149,589 Q137,601 137,621"/> 
            <glyph glyph-name="j" unicode="&#x6A;" horiz-adv-x="255" d=" M118,482 L208,482 L91,-69 Q60,-213 -74,-213 Q-113,-213 -147,-204 L-131,-127 Q-103,-134 -73,-134 Q-41,-134 -23,-117 Q-5,-100 3,-61 M137,621 Q137,652 156.5,671 Q176,690 207,690 Q255,690 255,646 Q255,616 234.5,596.5 Q214,577 183,577 Q161,577 149,589 Q137,601 137,621"/> 
            <glyph glyph-name="k" unicode="&#x6B;" horiz-adv-x="508" d=" M154,223 L152,223 L105,0 L15,0 L164,700 L254,700 L160,258 L162,258 L394,482 L508,482 L506,475 L249,235 L415,8 L413,0 L314,0"/> 
            <glyph glyph-name="l" unicode="&#x6C;" horiz-adv-x="255" d=" M190,67 L175,-4 Q143,-12 122,-12 Q14,-12 39,104 L166,700 L255,700 L126,93 Q122,80 126,73.5 Q130,67 145,67"/> 
            <glyph glyph-name="m" unicode="&#x6D;" horiz-adv-x="832" d=" M118,482 L180,482 L181,438 L183,438 Q273,497 353,497 Q460,497 489,432 L491,432 Q584,497 668,497 Q755,497 793.5,449.5 Q832,402 813,313 L746,0 L656,0 L719,295 Q733,360 716,389 Q699,418 640,418 Q579,418 498,360 Q498,341 493,313 L426,0 L336,0 L399,295 Q415,357 399,387.5 Q383,418 325,418 Q267,418 184,367 L106,0 L16,0"/> 
            <glyph glyph-name="n" unicode="&#x6E;" horiz-adv-x="516" d=" M118,482 L183,482 L184,438 L186,438 Q268,497 355,497 Q438,497 477,447.5 Q516,398 496,302 L431,0 L341,0 L404,295 Q431,418 326,418 Q292,418 251.5,402 Q211,386 184,367 L106,0 L16,0"/> 
            <glyph glyph-name="o" unicode="&#x6F;" horiz-adv-x="521" d=" M129,188 Q129,64 239,64 Q305,64 349,100 Q393,136 410.5,185.5 Q428,235 428,292 Q428,350 400.5,384 Q373,418 314,418 Q263,418 225,396.5 Q187,375 167,340 Q147,305 138,267 Q129,229 129,188 M521,299 Q521,239 504,184.5 Q487,130 453,84.5 Q419,39 362,12 Q305,-15 232,-15 Q134,-15 85,40.5 Q36,96 36,182 Q36,242 52.5,297 Q69,352 102,397.5 Q135,443 191.5,470 Q248,497 321,497 Q421,497 471,441.5 Q521,386 521,299"/> 
            <glyph glyph-name="p" unicode="&#x70;" horiz-adv-x="516" d=" M118,482 L181,482 L182,438 L184,438 Q264,497 352,497 Q433,497 474.5,441 Q516,385 516,302 Q516,220 489.5,150 Q463,80 404,32.5 Q345,-15 263,-15 Q178,-15 114,34 L112,34 L63,-198 L-27,-198 M184,366 L128,106 Q173,64 245,64 Q294,64 330,86.5 Q366,109 385,145 Q404,181 413,219 Q422,257 422,296 Q422,351 397.5,384.5 Q373,418 320,418 Q253,418 184,366"/> 
            <glyph glyph-name="q" unicode="&#x71;" horiz-adv-x="536" d=" M536,482 L392,-198 L302,-198 L351,34 L350,34 Q285,-15 200,-15 Q119,-15 77.5,38.5 Q36,92 36,175 Q36,257 62.5,328 Q89,399 148,448 Q207,497 289,497 Q380,497 451,438 L453,438 L473,482 M369,115 L424,375 Q374,418 307,418 Q257,418 220.5,395 Q184,372 165.5,335 Q147,298 138.5,261 Q130,224 130,186 Q130,64 232,64 Q303,64 369,115"/> 
            <glyph glyph-name="r" unicode="&#x72;" horiz-adv-x="369" d=" M118,482 L183,482 L183,430 L185,430 Q245,497 320,497 Q348,497 369,490 L349,409 Q326,414 302,414 Q227,414 178,340 L106,0 L16,0"/> 
            <glyph glyph-name="s" unicode="&#x73;" horiz-adv-x="419" d=" M1,29 L37,101 Q97,62 168,62 Q280,62 280,135 Q280,175 223,197 L169,218 Q63,259 63,338 Q63,412 116,454.5 Q169,497 264,497 Q344,497 419,461 L386,388 Q318,420 263,420 Q155,420 155,348 Q155,313 213,290 L266,270 Q372,230 372,146 Q372,73 318,29 Q264,-15 169,-15 Q75,-15 1,29"/> 
            <glyph glyph-name="t" unicode="&#x74;" horiz-adv-x="360" d=" M173,594 L263,594 L239,482 L360,482 L344,408 L223,408 L162,121 Q149,64 202,64 Q236,64 280,77 L264,0 Q223,-15 173,-15 Q112,-15 85,17.5 Q58,50 72,114 L134,408 L49,408 L60,462 L149,482"/> 
            <glyph glyph-name="u" unicode="&#x75;" horiz-adv-x="520" d=" M112,482 L201,482 L138,187 Q124,124 141.5,94 Q159,64 213,64 Q275,64 353,115 L430,482 L520,482 L418,0 L354,0 L352,44 L350,44 Q268,-15 184,-15 Q102,-15 64.5,34 Q27,83 47,178"/> 
            <glyph glyph-name="v" unicode="&#x76;" horiz-adv-x="517" d=" M517,482 L515,472 L230,0 L144,0 L60,472 L62,482 L148,482 L205,107 L207,107 L424,482"/> 
            <glyph glyph-name="w" unicode="&#x77;" horiz-adv-x="817" d=" M817,482 L815,472 L555,0 L467,0 L419,374 L417,374 L210,0 L123,0 L63,472 L65,482 L152,482 L190,117 L192,117 L391,482 L483,482 L528,117 L530,117 L722,482"/> 
            <glyph glyph-name="x" unicode="&#x78;" horiz-adv-x="502" d=" M230,187 L228,187 L68,0 L-30,0 L-28,10 L179,241 L70,472 L72,482 L160,482 L241,294 L243,294 L403,482 L502,482 L500,472 L293,241 L402,10 L399,0 L311,0"/> 
            <glyph glyph-name="y" unicode="&#x79;" horiz-adv-x="516" d=" M516,482 L514,472 L191,-83 Q115,-213 12,-213 Q-20,-213 -65,-203 L-52,-127 Q-8,-134 14,-134 Q72,-134 114,-59 L150,5 L59,472 L61,482 L150,482 L210,113 L213,113 L423,482"/> 
            <glyph glyph-name="z" unicode="&#x7A;" horiz-adv-x="440" d=" M97,482 L440,482 L429,430 L119,76 L119,74 L354,74 L338,0 L-19,0 L-8,52 L302,406 L302,408 L81,408"/> 
            <glyph glyph-name="{" unicode="&#x7B;" horiz-adv-x="383" d=" M22,213 L38,289 Q116,289 131,362 L172,556 Q179,592 188.5,615 Q198,638 217.5,659 Q237,680 270.5,690 Q304,700 354,700 L383,700 L372,646 Q317,646 294.5,626 Q272,606 260,549 L221,365 Q201,271 119,247 L119,245 Q191,220 171,127 L134,-47 Q122,-104 135.5,-124 Q149,-144 204,-144 L192,-198 L183,-198 Q86,-198 57,-159 Q28,-120 44,-44 L83,140 Q91,179 76,196 Q61,213 22,213"/> 
            <glyph glyph-name="|" unicode="&#x7C;" horiz-adv-x="237" d=" M237,700 L46,-198 L-25,-198 L166,700"/> 
            <glyph glyph-name="}" unicode="&#x7D;" horiz-adv-x="299" d=" M299,289 L283,213 Q205,213 190,140 L149,-54 Q142,-90 132.5,-113 Q123,-136 103.5,-157 Q84,-178 50.5,-188 Q17,-198 -33,-198 L-62,-198 L-51,-144 Q4,-144 26.5,-124 Q49,-104 61,-47 L100,137 Q120,231 202,255 L202,257 Q130,282 150,375 L187,549 Q199,606 185.5,626 Q172,646 117,646 L129,700 L138,700 Q235,700 264,661 Q293,622 277,546 L238,362 Q230,323 245,306 Q260,289 299,289"/> 
            <glyph glyph-name="~" unicode="&#x7E;" horiz-adv-x="461" d=" M91,225 L61,274 Q109,334 189,334 Q221,334 270.5,308.5 Q320,283 347,283 Q392,283 431,317 L461,267 Q407,209 335,209 Q305,209 254.5,234.5 Q204,260 181,260 Q132,260 91,225"/> 
            <glyph glyph-name="¡" unicode="&#xA1;" horiz-adv-x="217" d=" M9,-27 L90,272 L148,272 L101,-27 L65,-198 L-27,-198 M217,446 Q217,412 194.5,389.5 Q172,367 138,367 Q114,367 101,380.5 Q88,394 88,418 Q88,452 110,474.5 Q132,497 166,497 Q190,497 203.5,483.5 Q217,470 217,446"/> 
            <glyph glyph-name="¢" unicode="&#xA2;" horiz-adv-x="518" d=" M92,186 Q92,310 161,396 Q230,482 344,495 L362,578 L433,578 L415,494 Q474,485 518,462 L491,392 Q448,411 399,416 L324,65 Q378,71 426,90 L444,20 Q376,-9 307,-14 L290,-96 L219,-96 L237,-10 Q167,5 129.5,57 Q92,109 92,186 M186,198 Q186,98 254,71 L326,411 Q262,392 224,330 Q186,268 186,198"/> 
            <glyph glyph-name="£" unicode="&#xA3;" horiz-adv-x="578" d=" M438,296 L260,296 Q253,230 247,202 Q231,127 166,85 L166,83 L465,83 L448,0 L33,0 L48,71 Q49,71 61,79 Q73,87 77.5,90.5 Q82,94 94,103 Q106,112 112,120 Q118,128 127,139.5 Q136,151 141.5,164.5 Q147,178 150,193 Q155,217 164,296 L86,296 L102,370 L171,370 Q178,444 190,500 Q210,595 269.5,645 Q329,695 420,695 Q496,695 578,649 L547,575 Q476,610 411,610 Q366,610 331.5,583 Q297,556 285,499 Q275,451 267,370 L454,370"/> 
            <glyph glyph-name="¤" unicode="&#xA4;" horiz-adv-x="566" d=" M466,310 Q466,232 415,164 L482,72 L424,28 L359,116 Q304,85 246,85 Q187,85 155,121 L54,30 L8,84 L117,180 Q107,207 107,232 Q107,318 160,383 L89,471 L147,514 L217,429 Q266,455 322,455 Q376,455 419,422 L521,513 L566,456 L458,359 Q466,335 466,310 M188,241 Q188,204 206.5,180.5 Q225,157 259,157 Q313,157 348.5,200 Q384,243 384,297 Q384,335 365,359 Q346,383 310,383 Q257,383 222.5,339.5 Q188,296 188,241"/> 
            <glyph glyph-name="¥" unicode="&#xA5;" horiz-adv-x="630" d=" M486,141 L307,141 L277,0 L186,0 L216,141 L38,141 L54,215 L231,215 L251,307 L73,307 L89,381 L223,381 L122,670 L124,680 L219,680 L310,394 L312,394 L528,680 L630,680 L628,670 L403,381 L537,381 L521,307 L343,307 L323,215 L502,215"/> 
            <glyph glyph-name="¦" unicode="&#xA6;" horiz-adv-x="244" d=" M53,134 L124,134 L53,-198 L-18,-198 M173,368 L102,368 L173,700 L244,700"/> 
            <glyph glyph-name="§" unicode="&#xA7;" horiz-adv-x="535" d=" M236,363 Q157,329 157,265 Q157,218 209,193 L306,147 Q383,186 383,246 Q383,294 333,317 M369,106 L368,104 Q426,61 426,4 Q426,-84 363,-131.5 Q300,-179 181,-179 Q66,-179 -19,-116 L27,-37 Q102,-94 189,-94 Q329,-94 329,-5 Q329,15 311.5,31.5 Q294,48 257,66 L161,113 Q58,164 58,251 Q58,345 173,403 L173,406 Q114,445 114,508 Q114,590 176.5,642.5 Q239,695 361,695 Q462,695 535,648 L492,572 Q421,610 353,610 Q286,610 249,585 Q212,560 212,520 Q212,477 287,442 L381,397 Q426,375 454,339 Q482,303 482,262 Q482,211 450.5,174.5 Q419,138 369,106"/> 
            <glyph glyph-name="¨" unicode="&#xA8;" horiz-adv-x="579" d=" M266,621 Q266,652 285.5,671 Q305,690 336,690 Q384,690 384,646 Q384,616 364,596.5 Q344,577 312,577 Q290,577 278,589 Q266,601 266,621 M462,621 Q462,652 481.5,671 Q501,690 532,690 Q579,690 579,646 Q579,616 559,596.5 Q539,577 508,577 Q486,577 474,589 Q462,601 462,621"/> 
            <glyph glyph-name="©" unicode="&#xA9;" horiz-adv-x="776" d=" M63,279 Q63,392 122.5,488.5 Q182,585 279,640 Q376,695 485,695 Q614,695 695,611 Q776,527 776,401 Q776,288 716.5,191.5 Q657,95 560,40 Q463,-15 354,-15 Q225,-15 144,69 Q63,153 63,279 M119,282 Q119,175 184,106.5 Q249,38 355,38 Q502,38 610.5,144.5 Q719,251 719,398 Q719,505 654,573.5 Q589,642 483,642 Q337,642 228,535.5 Q119,429 119,282 M232,298 Q232,402 291,468.5 Q350,535 452,535 Q507,535 553,511 L532,455 Q495,474 449,474 Q384,474 345,425.5 Q306,377 306,304 Q306,259 328,232.5 Q350,206 392,206 Q439,206 483,225 L500,169 Q443,145 389,145 Q314,145 273,187 Q232,229 232,298"/> 
            <glyph glyph-name="ª" unicode="&#xAA;" horiz-adv-x="386" d=" M287,482 L247,482 Q198,482 179,470 Q160,458 160,432 Q160,402 198,402 Q236,402 275,425 M333,350 L278,350 L275,377 L274,377 Q219,341 173,341 Q133,341 108.5,362.5 Q84,384 84,419 Q84,534 248,534 L298,534 L301,547 Q308,577 295,588 Q282,599 253,599 Q201,599 153,576 L140,633 Q200,663 264,663 Q327,663 356.5,631 Q386,599 374,541 M303,208 L43,208 L58,277 L318,277"/> 
            <glyph glyph-name="«" unicode="&#xAB;" horiz-adv-x="483" d=" M40,264 L43,276 L239,485 L289,440 L132,263 L209,86 L148,55 M234,264 L237,276 L433,485 L483,440 L326,263 L403,86 L342,55"/> 
            <glyph glyph-name="¬" unicode="&#xAC;" horiz-adv-x="533" d=" M417,106 L444,233 L49,233 L65,307 L533,307 L491,106"/> 
            <glyph glyph-name="­" unicode="&#xAD;" horiz-adv-x="337" d=" M322,233 L61,233 L77,307 L337,307"/> 
            <glyph glyph-name="®" unicode="&#xAE;" horiz-adv-x="562" d=" M104,524 Q104,634 186,712 Q268,790 376,790 Q458,790 510,735 Q562,680 562,599 Q562,489 479.5,411 Q397,333 289,333 Q207,333 155.5,388 Q104,443 104,524 M151,526 Q151,461 190.5,419.5 Q230,378 294,378 Q382,378 448,442.5 Q514,507 514,596 Q514,661 475,703 Q436,745 372,745 Q284,745 217.5,680 Q151,615 151,526 M272,455 L226,455 L272,673 L358,673 Q391,673 409,658 Q427,643 427,619 Q427,555 363,543 L407,460 L406,455 L359,455 L317,540 L290,540 M299,580 L337,580 Q380,580 380,612 Q380,633 348,633 L310,633"/> 
            <glyph glyph-name="¯" unicode="&#xAF;" horiz-adv-x="561" d=" M546,597 L285,597 L301,671 L561,671"/> 
            <glyph glyph-name="°" unicode="&#xB0;" horiz-adv-x="427" d=" M180,526 Q180,496 198.5,477.5 Q217,459 248,459 Q292,459 321.5,488.5 Q351,518 351,561 Q351,591 333,608.5 Q315,626 283,626 Q239,626 209.5,597.5 Q180,569 180,526 M103,516 Q103,597 157.5,646 Q212,695 293,695 Q355,695 391,661 Q427,627 427,571 Q427,490 373,440 Q319,390 238,390 Q175,390 139,424.5 Q103,459 103,516"/> 
            <glyph glyph-name="±" unicode="&#xB1;" horiz-adv-x="563" d=" M408,621 L366,427 L563,427 L548,353 L351,353 L313,178 L237,178 L274,353 L79,353 L95,427 L290,427 L331,621 M20,74 L488,74 L473,0 L4,0"/> 
            <glyph glyph-name="²" unicode="&#xB2;" horiz-adv-x="362" d=" M190,523 L190,522 L326,522 L313,462 L71,462 L82,513 L239,630 Q288,666 288,706 Q288,747 243,747 Q209,747 160,710 L128,758 Q196,808 257,808 Q302,808 332,783 Q362,758 362,717 Q362,677 343,649.5 Q324,622 288,595"/> 
            <glyph glyph-name="³" unicode="&#xB3;" horiz-adv-x="360" d=" M145,602 L158,662 L217,662 Q283,662 283,714 Q283,747 236,747 Q190,747 148,730 L135,785 Q183,808 247,808 Q299,808 329.5,785 Q360,762 360,722 Q360,688 337.5,664.5 Q315,641 289,634 L289,633 Q333,617 333,566 Q333,514 292.5,484 Q252,454 177,454 Q114,454 71,480 L97,537 Q138,515 184,515 Q262,515 262,570 Q262,602 204,602"/> 
            <glyph glyph-name="´" unicode="&#xB4;" horiz-adv-x="523" d=" M523,710 L521,700 L411,579 L330,579 L332,589 L421,710"/> 
            <glyph glyph-name="µ" unicode="&#xB5;" horiz-adv-x="526" d=" M62,-198 L-28,-198 L117,482 L206,482 L138,162 Q117,64 219,64 Q274,64 357,115 L436,482 L526,482 L423,0 L359,0 L357,44 L355,44 Q270,-15 190,-15 Q166,-15 143,-4.5 Q120,6 108,21"/> 
            <glyph glyph-name="¶" unicode="&#xB6;" horiz-adv-x="585" d=" M69,-198 L200,416 Q148,416 116.5,443.5 Q85,471 85,521 Q85,593 135.5,636.5 Q186,680 256,680 L585,680 L570,610 L478,610 L306,-198 L235,-198 L407,610 L313,610 L141,-198"/> 
            <glyph glyph-name="·" unicode="&#xB7;" horiz-adv-x="196" d=" M66,276 Q66,310 88.5,332.5 Q111,355 145,355 Q169,355 182.5,341.5 Q196,328 196,304 Q196,270 173.5,247.5 Q151,225 117,225 Q93,225 79.5,238.5 Q66,252 66,276"/> 
            <glyph glyph-name="¸" unicode="&#xB8;" horiz-adv-x="360" d=" M229,-83 L225,-73 L271,7 L338,7 L304,-48 Q329,-52 344.5,-69.5 Q360,-87 360,-111 Q360,-213 228,-213 Q183,-213 157,-199 L177,-144 Q203,-155 227,-155 Q282,-155 282,-113 Q282,-83 229,-83"/> 
            <glyph glyph-name="¹" unicode="&#xB9;" horiz-adv-x="303" d=" M115,677 L106,677 L119,744 L251,800 L303,800 L231,462 L161,462 L216,719 L215,719"/> 
            <glyph glyph-name="º" unicode="&#xBA;" horiz-adv-x="399" d=" M152,474 Q152,409 216,409 Q269,409 295.5,440.5 Q322,472 322,528 Q322,594 256,594 Q204,594 178,562 Q152,530 152,474 M399,533 Q399,454 348.5,397.5 Q298,341 207,341 Q143,341 109,378.5 Q75,416 75,472 Q75,551 126,607 Q177,663 265,663 Q332,663 365.5,626 Q399,589 399,533 M304,208 L44,208 L59,277 L319,277"/> 
            <glyph glyph-name="»" unicode="&#xBB;" horiz-adv-x="452" d=" M258,276 L255,264 L59,55 L9,100 L166,277 L89,454 L150,485 M452,276 L449,264 L253,55 L203,100 L360,277 L283,454 L344,485"/> 
            <glyph glyph-name="¼" unicode="&#xBC;" horiz-adv-x="669" d=" M86,0 L6,0 L8,10 L589,680 L669,680 L667,670 M109,557 L100,557 L113,624 L245,680 L297,680 L225,342 L155,342 L210,599 L209,599 M495,131 L519,245 L590,245 L565,131 L606,131 L593,72 L553,72 L538,0 L467,0 L483,72 L314,72 L325,122 L459,338 L531,338 L405,132 L405,131"/> 
            <glyph glyph-name="½" unicode="&#xBD;" horiz-adv-x="669" d=" M86,0 L6,0 L8,10 L589,680 L669,680 L667,670 M109,557 L100,557 L113,624 L245,680 L297,680 L225,342 L155,342 L210,599 L209,599 M465,61 L465,60 L601,60 L588,0 L346,0 L357,51 L514,168 Q563,204 563,244 Q563,285 518,285 Q484,285 435,248 L403,296 Q471,346 532,346 Q577,346 607,321 Q637,296 637,255 Q637,215 618,187.5 Q599,160 563,133"/> 
            <glyph glyph-name="¾" unicode="&#xBE;" horiz-adv-x="715" d=" M132,0 L52,0 L54,10 L635,680 L715,680 L713,670 M541,131 L565,245 L636,245 L611,131 L652,131 L639,72 L599,72 L584,0 L513,0 L529,72 L360,72 L371,122 L505,338 L577,338 L451,132 L451,131 M136,479 L149,539 L208,539 Q274,539 274,591 Q274,624 227,624 Q181,624 139,607 L126,662 Q174,685 238,685 Q290,685 320.5,662 Q351,639 351,599 Q351,565 328.5,541.5 Q306,518 280,511 L280,510 Q324,494 324,443 Q324,391 283.5,361 Q243,331 168,331 Q105,331 62,357 L88,414 Q129,392 175,392 Q253,392 253,447 Q253,479 195,479"/> 
            <glyph glyph-name="¿" unicode="&#xBF;" horiz-adv-x="349" d=" M212,272 L283,272 L255,134 Q159,99 115,62.5 Q71,26 71,-40 Q71,-78 94,-103 Q117,-128 159,-128 Q229,-128 313,-74 L349,-140 Q251,-213 151,-213 Q72,-213 22.5,-169 Q-27,-125 -27,-54 Q-27,-6 -9,34 Q9,74 41.5,103 Q74,132 107,152 Q140,172 182,189 M348,446 Q348,412 325.5,389.5 Q303,367 269,367 Q245,367 231.5,381 Q218,395 218,418 Q218,452 240.5,474.5 Q263,497 297,497 Q321,497 334.5,483 Q348,469 348,446"/> 
            <glyph glyph-name="À" unicode="&#xC0;" horiz-adv-x="548" d=" M441,680 L548,0 L456,0 L433,170 L146,170 L50,0 L-49,0 L347,680 M375,572 L373,572 L193,248 L419,248 M331,873 L333,883 L427,883 L454,762 L452,752 L379,752"/> 
            <glyph glyph-name="Á" unicode="&#xC1;" horiz-adv-x="548" d=" M441,680 L548,0 L456,0 L433,170 L146,170 L50,0 L-49,0 L347,680 M375,572 L373,572 L193,248 L419,248 M547,883 L545,873 L445,752 L364,752 L366,762 L445,883"/> 
            <glyph glyph-name="Â" unicode="&#xC2;" horiz-adv-x="551" d=" M441,680 L548,0 L456,0 L433,170 L146,170 L50,0 L-49,0 L347,680 M375,572 L373,572 L193,248 L419,248 M484,883 L551,762 L549,752 L472,752 L425,823 L348,752 L263,752 L265,762 L384,883"/> 
            <glyph glyph-name="Ã" unicode="&#xC3;" horiz-adv-x="574" d=" M441,680 L548,0 L456,0 L433,170 L146,170 L50,0 L-49,0 L347,680 M375,572 L373,572 L193,248 L419,248 M288,767 L268,817 Q319,874 365,874 Q387,874 426,854 Q465,834 484,834 Q521,834 554,869 L574,819 Q520,762 476,762 Q454,762 415,782 Q376,802 355,802 Q321,802 288,767"/> 
            <glyph glyph-name="Ä" unicode="&#xC4;" horiz-adv-x="589" d=" M441,680 L548,0 L456,0 L433,170 L146,170 L50,0 L-49,0 L347,680 M375,572 L373,572 L193,248 L419,248 M256,803 Q256,834 275.5,853 Q295,872 326,872 Q373,872 373,828 Q373,798 353,778.5 Q333,759 302,759 Q280,759 268,771 Q256,783 256,803 M472,803 Q472,834 491.5,853 Q511,872 542,872 Q589,872 589,828 Q589,798 569,778.5 Q549,759 518,759 Q496,759 484,771 Q472,783 472,803"/> 
            <glyph glyph-name="Å" unicode="&#xC5;" horiz-adv-x="548" d=" M300,708 Q300,759 333.5,787.5 Q367,816 418,816 Q459,816 482.5,795 Q506,774 506,739 Q506,671 447,642 L548,0 L456,0 L433,170 L146,170 L50,0 L-49,0 L327,647 Q300,668 300,708 M375,572 L373,572 L193,248 L419,248 M360,713 Q360,683 395,683 Q419,683 433,696 Q447,709 447,732 Q447,762 412,762 Q360,762 360,713"/> 
            <glyph glyph-name="Æ" unicode="&#xC6;" horiz-adv-x="925" d=" M-71,0 L-69,10 L474,680 L925,680 L907,597 L574,597 L530,388 L832,388 L814,305 L512,305 L465,83 L801,83 L784,0 L355,0 L392,170 L166,170 L31,0 M476,565 L474,565 L228,248 L408,248"/> 
            <glyph glyph-name="Ç" unicode="&#xC7;" horiz-adv-x="617" d=" M63,255 Q63,445 168,570 Q273,695 449,695 Q535,695 617,651 L587,578 Q523,610 441,610 Q368,610 312.5,581 Q257,552 224,501.5 Q191,451 175,390 Q159,329 159,259 Q159,170 200.5,120 Q242,70 326,70 Q408,70 486,102 L505,29 Q408,-13 321,-15 L301,-48 Q326,-52 341.5,-69.5 Q357,-87 357,-111 Q357,-213 225,-213 Q180,-213 154,-199 L174,-144 Q200,-155 224,-155 Q279,-155 279,-113 Q279,-83 226,-83 L222,-73 L258,-10 Q163,8 113,78.5 Q63,149 63,255"/> 
            <glyph glyph-name="È" unicode="&#xC8;" horiz-adv-x="600" d=" M175,680 L600,680 L582,597 L249,597 L204,388 L506,388 L489,305 L187,305 L139,83 L476,83 L458,0 L30,0 M323,873 L325,883 L419,883 L446,762 L444,752 L371,752"/> 
            <glyph glyph-name="É" unicode="&#xC9;" horiz-adv-x="600" d=" M175,680 L600,680 L582,597 L249,597 L204,388 L506,388 L489,305 L187,305 L139,83 L476,83 L458,0 L30,0 M546,883 L544,873 L444,752 L363,752 L365,762 L444,883"/> 
            <glyph glyph-name="Ê" unicode="&#xCA;" horiz-adv-x="600" d=" M175,680 L600,680 L582,597 L249,597 L204,388 L506,388 L489,305 L187,305 L139,83 L476,83 L458,0 L30,0 M486,883 L553,762 L551,752 L474,752 L427,823 L350,752 L265,752 L267,762 L386,883"/> 
            <glyph glyph-name="Ë" unicode="&#xCB;" horiz-adv-x="600" d=" M175,680 L600,680 L582,597 L249,597 L204,388 L506,388 L489,305 L187,305 L139,83 L476,83 L458,0 L30,0 M249,803 Q249,834 268.5,853 Q288,872 319,872 Q366,872 366,828 Q366,798 346,778.5 Q326,759 295,759 Q273,759 261,771 Q249,783 249,803 M465,803 Q465,834 484.5,853 Q504,872 535,872 Q582,872 582,828 Q582,798 562,778.5 Q542,759 511,759 Q489,759 477,771 Q465,783 465,803"/> 
            <glyph glyph-name="Ì" unicode="&#xCC;" horiz-adv-x="277" d=" M266,680 L122,0 L30,0 L175,680 M154,873 L156,883 L250,883 L277,762 L275,752 L202,752"/> 
            <glyph glyph-name="Í" unicode="&#xCD;" horiz-adv-x="377" d=" M266,680 L122,0 L30,0 L175,680 M377,883 L375,873 L275,752 L194,752 L196,762 L275,883"/> 
            <glyph glyph-name="Î" unicode="&#xCE;" horiz-adv-x="378" d=" M266,680 L122,0 L30,0 L175,680 M311,883 L378,762 L376,752 L299,752 L252,823 L175,752 L90,752 L92,762 L211,883"/> 
            <glyph glyph-name="Ï" unicode="&#xCF;" horiz-adv-x="414" d=" M266,680 L122,0 L30,0 L175,680 M81,803 Q81,834 100.5,853 Q120,872 151,872 Q198,872 198,828 Q198,798 178,778.5 Q158,759 127,759 Q105,759 93,771 Q81,783 81,803 M297,803 Q297,834 316.5,853 Q336,872 367,872 Q414,872 414,828 Q414,798 394,778.5 Q374,759 343,759 Q321,759 309,771 Q297,783 297,803"/> 
            <glyph glyph-name="Ð" unicode="&#xD0;" horiz-adv-x="643" d=" M31,0 L93,294 L42,294 L59,377 L111,377 L176,680 L351,680 Q643,680 643,430 Q643,0 226,0 M140,83 L221,83 Q385,83 466.5,159.5 Q548,236 548,426 Q548,515 498,556 Q448,597 330,597 L250,597 L203,377 L361,377 L343,294 L185,294"/> 
            <glyph glyph-name="Ñ" unicode="&#xD1;" horiz-adv-x="696" d=" M487,140 L489,140 L604,680 L696,680 L551,0 L456,0 L239,540 L237,540 L122,0 L30,0 L175,680 L268,680 M328,767 L308,817 Q359,874 405,874 Q427,874 466,854 Q505,834 524,834 Q561,834 594,869 L614,819 Q560,762 516,762 Q494,762 455,782 Q416,802 395,802 Q361,802 328,767"/> 
            <glyph glyph-name="Ò" unicode="&#xD2;" horiz-adv-x="683" d=" M159,253 Q159,169 196.5,119.5 Q234,70 316,70 Q370,70 413.5,86.5 Q457,103 485,127.5 Q513,152 533.5,188 Q554,224 564,256 Q574,288 580,326 Q586,364 587,385 Q588,406 588,428 Q588,512 550.5,561 Q513,610 431,610 Q363,610 312,583.5 Q261,557 232.5,518.5 Q204,480 186.5,428 Q169,376 164,335 Q159,294 159,253 M683,433 Q683,366 670.5,304 Q658,242 629.5,183 Q601,124 558.5,80.5 Q516,37 451.5,11 Q387,-15 308,-15 Q187,-15 125,56.5 Q63,128 63,248 Q63,333 84,409.5 Q105,486 148,551.5 Q191,617 266,656 Q341,695 439,695 Q560,695 621.5,623.5 Q683,552 683,433 M388,873 L390,883 L484,883 L511,762 L509,752 L436,752"/> 
            <glyph glyph-name="Ó" unicode="&#xD3;" horiz-adv-x="683" d=" M159,253 Q159,169 196.5,119.5 Q234,70 316,70 Q370,70 413.5,86.5 Q457,103 485,127.5 Q513,152 533.5,188 Q554,224 564,256 Q574,288 580,326 Q586,364 587,385 Q588,406 588,428 Q588,512 550.5,561 Q513,610 431,610 Q363,610 312,583.5 Q261,557 232.5,518.5 Q204,480 186.5,428 Q169,376 164,335 Q159,294 159,253 M683,433 Q683,366 670.5,304 Q658,242 629.5,183 Q601,124 558.5,80.5 Q516,37 451.5,11 Q387,-15 308,-15 Q187,-15 125,56.5 Q63,128 63,248 Q63,333 84,409.5 Q105,486 148,551.5 Q191,617 266,656 Q341,695 439,695 Q560,695 621.5,623.5 Q683,552 683,433 M602,883 L600,873 L500,752 L419,752 L421,762 L500,883"/> 
            <glyph glyph-name="Ô" unicode="&#xD4;" horiz-adv-x="683" d=" M159,253 Q159,169 196.5,119.5 Q234,70 316,70 Q370,70 413.5,86.5 Q457,103 485,127.5 Q513,152 533.5,188 Q554,224 564,256 Q574,288 580,326 Q586,364 587,385 Q588,406 588,428 Q588,512 550.5,561 Q513,610 431,610 Q363,610 312,583.5 Q261,557 232.5,518.5 Q204,480 186.5,428 Q169,376 164,335 Q159,294 159,253 M683,433 Q683,366 670.5,304 Q658,242 629.5,183 Q601,124 558.5,80.5 Q516,37 451.5,11 Q387,-15 308,-15 Q187,-15 125,56.5 Q63,128 63,248 Q63,333 84,409.5 Q105,486 148,551.5 Q191,617 266,656 Q341,695 439,695 Q560,695 621.5,623.5 Q683,552 683,433 M541,883 L608,762 L606,752 L529,752 L482,823 L405,752 L320,752 L322,762 L441,883"/> 
            <glyph glyph-name="Õ" unicode="&#xD5;" horiz-adv-x="683" d=" M159,253 Q159,169 196.5,119.5 Q234,70 316,70 Q370,70 413.5,86.5 Q457,103 485,127.5 Q513,152 533.5,188 Q554,224 564,256 Q574,288 580,326 Q586,364 587,385 Q588,406 588,428 Q588,512 550.5,561 Q513,610 431,610 Q363,610 312,583.5 Q261,557 232.5,518.5 Q204,480 186.5,428 Q169,376 164,335 Q159,294 159,253 M683,433 Q683,366 670.5,304 Q658,242 629.5,183 Q601,124 558.5,80.5 Q516,37 451.5,11 Q387,-15 308,-15 Q187,-15 125,56.5 Q63,128 63,248 Q63,333 84,409.5 Q105,486 148,551.5 Q191,617 266,656 Q341,695 439,695 Q560,695 621.5,623.5 Q683,552 683,433 M344,767 L324,817 Q375,874 421,874 Q443,874 482,854 Q521,834 540,834 Q577,834 610,869 L630,819 Q576,762 532,762 Q510,762 471,782 Q432,802 411,802 Q377,802 344,767"/> 
            <glyph glyph-name="Ö" unicode="&#xD6;" horiz-adv-x="683" d=" M159,253 Q159,169 196.5,119.5 Q234,70 316,70 Q370,70 413.5,86.5 Q457,103 485,127.5 Q513,152 533.5,188 Q554,224 564,256 Q574,288 580,326 Q586,364 587,385 Q588,406 588,428 Q588,512 550.5,561 Q513,610 431,610 Q363,610 312,583.5 Q261,557 232.5,518.5 Q204,480 186.5,428 Q169,376 164,335 Q159,294 159,253 M683,433 Q683,366 670.5,304 Q658,242 629.5,183 Q601,124 558.5,80.5 Q516,37 451.5,11 Q387,-15 308,-15 Q187,-15 125,56.5 Q63,128 63,248 Q63,333 84,409.5 Q105,486 148,551.5 Q191,617 266,656 Q341,695 439,695 Q560,695 621.5,623.5 Q683,552 683,433 M312,803 Q312,834 331.5,853 Q351,872 382,872 Q429,872 429,828 Q429,798 409,778.5 Q389,759 358,759 Q336,759 324,771 Q312,783 312,803 M528,803 Q528,834 547.5,853 Q567,872 598,872 Q645,872 645,828 Q645,798 625,778.5 Q605,759 574,759 Q552,759 540,771 Q528,783 528,803"/> 
            <glyph glyph-name="×" unicode="&#xD7;" horiz-adv-x="543" d=" M42,110 L238,274 L114,435 L174,487 L298,324 L496,490 L543,432 L344,265 L469,103 L409,51 L283,215 L89,52"/> 
            <glyph glyph-name="Ø" unicode="&#xD8;" horiz-adv-x="702" d=" M97,-29 L45,12 L105,82 Q63,146 63,248 Q63,333 84,409.5 Q105,486 148,551.5 Q191,617 266,656 Q341,695 439,695 Q536,695 596,647 L651,711 L702,668 L641,598 Q683,532 683,433 Q683,366 670.5,304 Q658,242 629.5,183 Q601,124 558.5,80.5 Q516,37 451.5,11 Q387,-15 308,-15 Q211,-15 150,32 M588,428 Q588,480 573,520 L212,103 Q250,70 316,70 Q370,70 413.5,86.5 Q457,103 485,127.5 Q513,152 533.5,188 Q554,224 564,256 Q574,288 580,326 Q586,364 587,385 Q588,406 588,428 M159,253 Q159,201 174,161 L535,577 Q496,610 431,610 Q363,610 312,583.5 Q261,557 232.5,518.5 Q204,480 186.5,428 Q169,376 164,335 Q159,294 159,253"/> 
            <glyph glyph-name="Ù" unicode="&#xD9;" horiz-adv-x="683" d=" M167,680 L258,680 L169,259 Q150,170 180.5,120 Q211,70 296,70 Q461,70 502,259 L591,680 L683,680 L590,243 Q535,-15 288,-15 Q158,-15 104,58.5 Q50,132 79,268 M359,873 L361,883 L455,883 L482,762 L480,752 L407,752"/> 
            <glyph glyph-name="Ú" unicode="&#xDA;" horiz-adv-x="683" d=" M167,680 L258,680 L169,259 Q150,170 180.5,120 Q211,70 296,70 Q461,70 502,259 L591,680 L683,680 L590,243 Q535,-15 288,-15 Q158,-15 104,58.5 Q50,132 79,268 M575,883 L573,873 L473,752 L392,752 L394,762 L473,883"/> 
            <glyph glyph-name="Û" unicode="&#xDB;" horiz-adv-x="683" d=" M167,680 L258,680 L169,259 Q150,170 180.5,120 Q211,70 296,70 Q461,70 502,259 L591,680 L683,680 L590,243 Q535,-15 288,-15 Q158,-15 104,58.5 Q50,132 79,268 M515,883 L582,762 L580,752 L503,752 L456,823 L379,752 L294,752 L296,762 L415,883"/> 
            <glyph glyph-name="Ü" unicode="&#xDC;" horiz-adv-x="683" d=" M167,680 L258,680 L169,259 Q150,170 180.5,120 Q211,70 296,70 Q461,70 502,259 L591,680 L683,680 L590,243 Q535,-15 288,-15 Q158,-15 104,58.5 Q50,132 79,268 M286,803 Q286,834 305.5,853 Q325,872 356,872 Q403,872 403,828 Q403,798 383,778.5 Q363,759 332,759 Q310,759 298,771 Q286,783 286,803 M502,803 Q502,834 521.5,853 Q541,872 572,872 Q619,872 619,828 Q619,798 599,778.5 Q579,759 548,759 Q526,759 514,771 Q502,783 502,803"/> 
            <glyph glyph-name="Ý" unicode="&#xDD;" horiz-adv-x="627" d=" M92,680 L186,680 L288,374 L290,374 L525,680 L627,680 L625,670 L321,287 L260,0 L168,0 L229,287 L90,670 M513,883 L511,873 L411,752 L330,752 L332,762 L411,883"/> 
            <glyph glyph-name="Þ" unicode="&#xDE;" horiz-adv-x="564" d=" M122,0 L30,0 L175,680 L266,680 L240,557 L375,557 Q469,557 516.5,513.5 Q564,470 564,395 Q564,278 499,208.5 Q434,139 306,139 L151,139 M223,474 L169,222 L306,222 Q389,222 427.5,266.5 Q466,311 466,380 Q466,474 360,474"/> 
            <glyph glyph-name="ß" unicode="&#xDF;" horiz-adv-x="544" d=" M16,0 L117,475 Q141,587 205.5,646 Q270,705 363,705 Q447,705 495.5,658 Q544,611 544,543 Q544,425 426,370 L426,368 Q471,354 501.5,318 Q532,282 532,225 Q532,110 457.5,47.5 Q383,-15 258,-15 Q227,-15 199,-9 L216,68 Q236,64 265,64 Q349,64 394.5,106.5 Q440,149 440,228 Q440,276 408.5,304 Q377,332 311,332 L295,332 L311,406 L331,406 Q389,406 419.5,443 Q450,480 450,536 Q450,577 426.5,601.5 Q403,626 359,626 Q297,626 261,588.5 Q225,551 207,468 L108,0"/> 
            <glyph glyph-name="à" unicode="&#xE0;" horiz-adv-x="527" d=" M360,115 L415,375 Q365,418 303,418 Q253,418 217,395 Q181,372 163.5,335 Q146,298 138.5,261 Q131,224 131,186 Q131,64 228,64 Q294,64 360,115 M358,44 Q277,-15 196,-15 Q115,-15 76,38 Q37,91 37,175 Q37,257 62,328 Q87,399 145,448 Q203,497 285,497 Q371,497 442,438 L444,438 L464,482 L527,482 L445,93 Q442,79 445.5,73 Q449,67 467,67 L493,67 L478,-4 Q446,-12 428,-12 Q367,-12 360,44 M259,700 L261,710 L355,710 L392,589 L390,579 L317,579"/> 
            <glyph glyph-name="á" unicode="&#xE1;" horiz-adv-x="527" d=" M360,115 L415,375 Q365,418 303,418 Q253,418 217,395 Q181,372 163.5,335 Q146,298 138.5,261 Q131,224 131,186 Q131,64 228,64 Q294,64 360,115 M358,44 Q277,-15 196,-15 Q115,-15 76,38 Q37,91 37,175 Q37,257 62,328 Q87,399 145,448 Q203,497 285,497 Q371,497 442,438 L444,438 L464,482 L527,482 L445,93 Q442,79 445.5,73 Q449,67 467,67 L493,67 L478,-4 Q446,-12 428,-12 Q367,-12 360,44 M498,710 L496,700 L386,579 L305,579 L307,589 L396,710"/> 
            <glyph glyph-name="â" unicode="&#xE2;" horiz-adv-x="527" d=" M360,115 L415,375 Q365,418 303,418 Q253,418 217,395 Q181,372 163.5,335 Q146,298 138.5,261 Q131,224 131,186 Q131,64 228,64 Q294,64 360,115 M358,44 Q277,-15 196,-15 Q115,-15 76,38 Q37,91 37,175 Q37,257 62,328 Q87,399 145,448 Q203,497 285,497 Q371,497 442,438 L444,438 L464,482 L527,482 L445,93 Q442,79 445.5,73 Q449,67 467,67 L493,67 L478,-4 Q446,-12 428,-12 Q367,-12 360,44 M421,710 L488,589 L486,579 L408,579 L362,653 L285,579 L200,579 L202,589 L320,710"/> 
            <glyph glyph-name="ã" unicode="&#xE3;" horiz-adv-x="527" d=" M360,115 L415,375 Q365,418 303,418 Q253,418 217,395 Q181,372 163.5,335 Q146,298 138.5,261 Q131,224 131,186 Q131,64 228,64 Q294,64 360,115 M358,44 Q277,-15 196,-15 Q115,-15 76,38 Q37,91 37,175 Q37,257 62,328 Q87,399 145,448 Q203,497 285,497 Q371,497 442,438 L444,438 L464,482 L527,482 L445,93 Q442,79 445.5,73 Q449,67 467,67 L493,67 L478,-4 Q446,-12 428,-12 Q367,-12 360,44 M224,584 L204,634 Q255,691 301,691 Q323,691 362,671 Q401,651 420,651 Q457,651 490,686 L510,636 Q456,579 412,579 Q390,579 351,599 Q312,619 291,619 Q257,619 224,584"/> 
            <glyph glyph-name="ä" unicode="&#xE4;" horiz-adv-x="527" d=" M360,115 L415,375 Q365,418 303,418 Q253,418 217,395 Q181,372 163.5,335 Q146,298 138.5,261 Q131,224 131,186 Q131,64 228,64 Q294,64 360,115 M358,44 Q277,-15 196,-15 Q115,-15 76,38 Q37,91 37,175 Q37,257 62,328 Q87,399 145,448 Q203,497 285,497 Q371,497 442,438 L444,438 L464,482 L527,482 L445,93 Q442,79 445.5,73 Q449,67 467,67 L493,67 L478,-4 Q446,-12 428,-12 Q367,-12 360,44 M202,621 Q202,652 221.5,671 Q241,690 272,690 Q320,690 320,646 Q320,616 300,596.5 Q280,577 248,577 Q226,577 214,589 Q202,601 202,621 M398,621 Q398,652 417.5,671 Q437,690 468,690 Q515,690 515,646 Q515,616 495,596.5 Q475,577 444,577 Q422,577 410,589 Q398,601 398,621"/> 
            <glyph glyph-name="å" unicode="&#xE5;" horiz-adv-x="527" d=" M360,115 L415,375 Q365,418 303,418 Q253,418 217,395 Q181,372 163.5,335 Q146,298 138.5,261 Q131,224 131,186 Q131,64 228,64 Q294,64 360,115 M358,44 Q277,-15 196,-15 Q115,-15 76,38 Q37,91 37,175 Q37,257 62,328 Q87,399 145,448 Q203,497 285,497 Q371,497 442,438 L444,438 L464,482 L527,482 L445,93 Q442,79 445.5,73 Q449,67 467,67 L493,67 L478,-4 Q446,-12 428,-12 Q367,-12 360,44 M315,628 Q315,598 350,598 Q374,598 388,611 Q402,624 402,647 Q402,677 367,677 Q315,677 315,628 M255,623 Q255,674 288.5,702.5 Q322,731 373,731 Q414,731 437.5,710 Q461,689 461,654 Q461,603 427.5,573.5 Q394,544 343,544 Q302,544 278.5,565.5 Q255,587 255,623"/> 
            <glyph glyph-name="æ" unicode="&#xE6;" horiz-adv-x="776" d=" M748,212 L426,212 Q414,146 443,104.5 Q472,63 535,63 Q599,63 676,107 L707,37 Q618,-15 520,-15 Q399,-15 363,88 Q275,-15 147,-15 Q87,-15 48.5,22 Q10,59 10,113 Q10,207 72,246.5 Q134,286 254,286 L354,286 L360,313 Q371,364 347.5,391 Q324,418 269,418 Q198,418 125,377 L97,444 Q181,497 278,497 Q396,497 429,424 Q506,497 603,497 Q688,497 732,449.5 Q776,402 776,333 Q776,287 748,212 M339,212 L262,212 Q166,212 133,190.5 Q100,169 100,123 Q100,64 171,64 Q223,64 273.5,103 Q324,142 339,212 M441,284 L685,284 Q693,308 693,329 Q693,370 667.5,395 Q642,420 595,420 Q540,420 498.5,382.5 Q457,345 441,284"/> 
            <glyph glyph-name="ç" unicode="&#xE7;" horiz-adv-x="462" d=" M36,186 Q36,320 115,408.5 Q194,497 322,497 Q396,497 462,462 L435,392 Q379,418 316,418 Q233,418 181.5,349.5 Q130,281 130,198 Q130,141 157.5,102.5 Q185,64 241,64 Q303,64 370,90 L388,20 Q313,-12 241,-15 L221,-48 Q246,-52 261.5,-69.5 Q277,-87 277,-111 Q277,-213 145,-213 Q100,-213 74,-199 L94,-144 Q120,-155 144,-155 Q199,-155 199,-113 Q199,-83 146,-83 L142,-73 L178,-9 Q110,6 73,58 Q36,110 36,186"/> 
            <glyph glyph-name="è" unicode="&#xE8;" horiz-adv-x="493" d=" M465,212 L127,212 Q124,200 124,184 Q124,126 155,94 Q186,62 245,62 Q318,62 394,107 L425,37 Q336,-15 230,-15 Q133,-15 84,42 Q35,99 35,186 Q35,309 111,403 Q187,497 310,497 Q401,497 447,448.5 Q493,400 493,328 Q493,276 465,212 M143,284 L399,284 Q407,308 407,329 Q407,370 380.5,395 Q354,420 304,420 Q246,420 203,382.5 Q160,345 143,284 M259,700 L261,710 L355,710 L392,589 L390,579 L317,579"/> 
            <glyph glyph-name="é" unicode="&#xE9;" horiz-adv-x="495" d=" M465,212 L127,212 Q124,200 124,184 Q124,126 155,94 Q186,62 245,62 Q318,62 394,107 L425,37 Q336,-15 230,-15 Q133,-15 84,42 Q35,99 35,186 Q35,309 111,403 Q187,497 310,497 Q401,497 447,448.5 Q493,400 493,328 Q493,276 465,212 M143,284 L399,284 Q407,308 407,329 Q407,370 380.5,395 Q354,420 304,420 Q246,420 203,382.5 Q160,345 143,284 M495,710 L493,700 L383,579 L302,579 L304,589 L393,710"/> 
            <glyph glyph-name="ê" unicode="&#xEA;" horiz-adv-x="493" d=" M465,212 L127,212 Q124,200 124,184 Q124,126 155,94 Q186,62 245,62 Q318,62 394,107 L425,37 Q336,-15 230,-15 Q133,-15 84,42 Q35,99 35,186 Q35,309 111,403 Q187,497 310,497 Q401,497 447,448.5 Q493,400 493,328 Q493,276 465,212 M143,284 L399,284 Q407,308 407,329 Q407,370 380.5,395 Q354,420 304,420 Q246,420 203,382.5 Q160,345 143,284 M422,710 L489,589 L487,579 L409,579 L363,653 L286,579 L201,579 L203,589 L321,710"/> 
            <glyph glyph-name="ë" unicode="&#xEB;" horiz-adv-x="511" d=" M465,212 L127,212 Q124,200 124,184 Q124,126 155,94 Q186,62 245,62 Q318,62 394,107 L425,37 Q336,-15 230,-15 Q133,-15 84,42 Q35,99 35,186 Q35,309 111,403 Q187,497 310,497 Q401,497 447,448.5 Q493,400 493,328 Q493,276 465,212 M143,284 L399,284 Q407,308 407,329 Q407,370 380.5,395 Q354,420 304,420 Q246,420 203,382.5 Q160,345 143,284 M198,621 Q198,652 217.5,671 Q237,690 268,690 Q316,690 316,646 Q316,616 296,596.5 Q276,577 244,577 Q222,577 210,589 Q198,601 198,621 M394,621 Q394,652 413.5,671 Q433,690 464,690 Q511,690 511,646 Q511,616 491,596.5 Q471,577 440,577 Q418,577 406,589 Q394,601 394,621"/> 
            <glyph glyph-name="ì" unicode="&#xEC;" horiz-adv-x="224" d=" M91,700 L93,710 L187,710 L224,589 L222,579 L149,579 M105,0 L15,0 L117,482 L207,482"/> 
            <glyph glyph-name="í" unicode="&#xED;" horiz-adv-x="333" d=" M333,710 L331,700 L221,579 L140,579 L142,589 L231,710 M106,0 L16,0 L118,482 L208,482"/> 
            <glyph glyph-name="î" unicode="&#xEE;" horiz-adv-x="326" d=" M105,0 L15,0 L117,482 L207,482 M259,710 L326,589 L324,579 L246,579 L200,653 L123,579 L38,579 L40,589 L158,710"/> 
            <glyph glyph-name="ï" unicode="&#xEF;" horiz-adv-x="351" d=" M38,621 Q38,652 57.5,671 Q77,690 108,690 Q156,690 156,646 Q156,616 136,596.5 Q116,577 84,577 Q62,577 50,589 Q38,601 38,621 M234,621 Q234,652 253.5,671 Q273,690 304,690 Q351,690 351,646 Q351,616 331,596.5 Q311,577 280,577 Q258,577 246,589 Q234,601 234,621 M105,0 L15,0 L117,482 L207,482"/> 
            <glyph glyph-name="ð" unicode="&#xF0;" horiz-adv-x="527" d=" M523,601 L449,583 Q527,444 527,300 Q527,164 448,74.5 Q369,-15 238,-15 Q142,-15 88.5,41.5 Q35,98 35,185 Q35,311 111,393 Q187,475 299,475 Q380,475 424,434 L427,436 Q409,501 367,560 L256,532 L248,591 L327,611 Q297,656 263,690 L265,700 L367,700 Q375,690 390.5,667 Q406,644 413,635 L515,661 M129,196 Q129,139 160.5,104.5 Q192,70 246,70 Q327,70 380.5,127 Q434,184 434,271 Q434,328 402.5,359 Q371,390 314,390 Q234,390 181.5,337 Q129,284 129,196"/> 
            <glyph glyph-name="ñ" unicode="&#xF1;" horiz-adv-x="517" d=" M118,482 L183,482 L184,438 L186,438 Q268,497 355,497 Q438,497 477,447.5 Q516,398 496,302 L431,0 L341,0 L404,295 Q431,418 326,418 Q292,418 251.5,402 Q211,386 184,367 L106,0 L16,0 M231,584 L211,634 Q262,691 308,691 Q330,691 369,671 Q408,651 427,651 Q464,651 497,686 L517,636 Q463,579 419,579 Q397,579 358,599 Q319,619 298,619 Q264,619 231,584"/> 
            <glyph glyph-name="ò" unicode="&#xF2;" horiz-adv-x="521" d=" M129,188 Q129,64 239,64 Q305,64 349,100 Q393,136 410.5,185.5 Q428,235 428,292 Q428,350 400.5,384 Q373,418 314,418 Q263,418 225,396.5 Q187,375 167,340 Q147,305 138,267 Q129,229 129,188 M521,299 Q521,239 504,184.5 Q487,130 453,84.5 Q419,39 362,12 Q305,-15 232,-15 Q134,-15 85,40.5 Q36,96 36,182 Q36,242 52.5,297 Q69,352 102,397.5 Q135,443 191.5,470 Q248,497 321,497 Q421,497 471,441.5 Q521,386 521,299 M261,700 L263,710 L357,710 L394,589 L392,579 L319,579"/> 
            <glyph glyph-name="ó" unicode="&#xF3;" horiz-adv-x="521" d=" M129,188 Q129,64 239,64 Q305,64 349,100 Q393,136 410.5,185.5 Q428,235 428,292 Q428,350 400.5,384 Q373,418 314,418 Q263,418 225,396.5 Q187,375 167,340 Q147,305 138,267 Q129,229 129,188 M521,299 Q521,239 504,184.5 Q487,130 453,84.5 Q419,39 362,12 Q305,-15 232,-15 Q134,-15 85,40.5 Q36,96 36,182 Q36,242 52.5,297 Q69,352 102,397.5 Q135,443 191.5,470 Q248,497 321,497 Q421,497 471,441.5 Q521,386 521,299 M500,710 L498,700 L388,579 L307,579 L309,589 L398,710"/> 
            <glyph glyph-name="ô" unicode="&#xF4;" horiz-adv-x="521" d=" M129,188 Q129,64 239,64 Q305,64 349,100 Q393,136 410.5,185.5 Q428,235 428,292 Q428,350 400.5,384 Q373,418 314,418 Q263,418 225,396.5 Q187,375 167,340 Q147,305 138,267 Q129,229 129,188 M521,299 Q521,239 504,184.5 Q487,130 453,84.5 Q419,39 362,12 Q305,-15 232,-15 Q134,-15 85,40.5 Q36,96 36,182 Q36,242 52.5,297 Q69,352 102,397.5 Q135,443 191.5,470 Q248,497 321,497 Q421,497 471,441.5 Q521,386 521,299 M425,710 L492,589 L490,579 L412,579 L366,653 L289,579 L204,579 L206,589 L324,710"/> 
            <glyph glyph-name="õ" unicode="&#xF5;" horiz-adv-x="521" d=" M129,188 Q129,64 239,64 Q305,64 349,100 Q393,136 410.5,185.5 Q428,235 428,292 Q428,350 400.5,384 Q373,418 314,418 Q263,418 225,396.5 Q187,375 167,340 Q147,305 138,267 Q129,229 129,188 M521,299 Q521,239 504,184.5 Q487,130 453,84.5 Q419,39 362,12 Q305,-15 232,-15 Q134,-15 85,40.5 Q36,96 36,182 Q36,242 52.5,297 Q69,352 102,397.5 Q135,443 191.5,470 Q248,497 321,497 Q421,497 471,441.5 Q521,386 521,299 M227,584 L207,634 Q258,691 304,691 Q326,691 365,671 Q404,651 423,651 Q460,651 493,686 L513,636 Q459,579 415,579 Q393,579 354,599 Q315,619 294,619 Q260,619 227,584"/> 
            <glyph glyph-name="ö" unicode="&#xF6;" horiz-adv-x="521" d=" M129,188 Q129,64 239,64 Q305,64 349,100 Q393,136 410.5,185.5 Q428,235 428,292 Q428,350 400.5,384 Q373,418 314,418 Q263,418 225,396.5 Q187,375 167,340 Q147,305 138,267 Q129,229 129,188 M521,299 Q521,239 504,184.5 Q487,130 453,84.5 Q419,39 362,12 Q305,-15 232,-15 Q134,-15 85,40.5 Q36,96 36,182 Q36,242 52.5,297 Q69,352 102,397.5 Q135,443 191.5,470 Q248,497 321,497 Q421,497 471,441.5 Q521,386 521,299 M205,621 Q205,652 224.5,671 Q244,690 275,690 Q323,690 323,646 Q323,616 303,596.5 Q283,577 251,577 Q229,577 217,589 Q205,601 205,621 M401,621 Q401,652 420.5,671 Q440,690 471,690 Q518,690 518,646 Q518,616 498,596.5 Q478,577 447,577 Q425,577 413,589 Q401,601 401,621"/> 
            <glyph glyph-name="÷" unicode="&#xF7;" horiz-adv-x="534" d=" M66,307 L534,307 L519,233 L50,233 M183,56 Q183,90 205.5,112.5 Q228,135 262,135 Q286,135 300,121.5 Q314,108 314,84 Q314,50 291,27.5 Q268,5 234,5 Q210,5 196.5,19 Q183,33 183,56 M268,456 Q268,490 290.5,512.5 Q313,535 347,535 Q372,535 385.5,521.5 Q399,508 399,484 Q399,450 376,427.5 Q353,405 319,405 Q295,405 281.5,419 Q268,433 268,456"/> 
            <glyph glyph-name="ø" unicode="&#xF8;" horiz-adv-x="544" d=" M62,-33 L17,16 L65,66 Q36,114 36,182 Q36,242 52.5,297 Q69,352 102,397.5 Q135,443 191.5,470 Q248,497 321,497 Q398,497 447,462 L495,512 L544,465 L493,412 Q521,363 521,299 Q521,239 504,184.5 Q487,130 453,84.5 Q419,39 362,12 Q305,-15 232,-15 Q158,-15 111,18 M428,292 Q428,318 422,339 L173,82 Q197,64 239,64 Q305,64 349,100 Q393,136 410.5,185.5 Q428,235 428,292 M129,188 Q129,160 135,138 L385,397 Q356,418 314,418 Q263,418 225,396.5 Q187,375 167,340 Q147,305 138,267 Q129,229 129,188"/> 
            <glyph glyph-name="ù" unicode="&#xF9;" horiz-adv-x="520" d=" M112,482 L201,482 L138,187 Q124,124 141.5,94 Q159,64 213,64 Q275,64 353,115 L430,482 L520,482 L418,0 L354,0 L352,44 L350,44 Q268,-15 184,-15 Q102,-15 64.5,34 Q27,83 47,178 M249,700 L251,710 L345,710 L382,589 L380,579 L307,579"/> 
            <glyph glyph-name="ú" unicode="&#xFA;" horiz-adv-x="520" d=" M112,482 L201,482 L138,187 Q124,124 141.5,94 Q159,64 213,64 Q275,64 353,115 L430,482 L520,482 L418,0 L354,0 L352,44 L350,44 Q268,-15 184,-15 Q102,-15 64.5,34 Q27,83 47,178 M490,710 L488,700 L378,579 L297,579 L299,589 L388,710"/> 
            <glyph glyph-name="û" unicode="&#xFB;" horiz-adv-x="520" d=" M112,482 L201,482 L138,187 Q124,124 141.5,94 Q159,64 213,64 Q275,64 353,115 L430,482 L520,482 L418,0 L354,0 L352,44 L350,44 Q268,-15 184,-15 Q102,-15 64.5,34 Q27,83 47,178 M415,710 L482,589 L480,579 L402,579 L356,653 L279,579 L194,579 L196,589 L314,710"/> 
            <glyph glyph-name="ü" unicode="&#xFC;" horiz-adv-x="520" d=" M112,482 L201,482 L138,187 Q124,124 141.5,94 Q159,64 213,64 Q275,64 353,115 L430,482 L520,482 L418,0 L354,0 L352,44 L350,44 Q268,-15 184,-15 Q102,-15 64.5,34 Q27,83 47,178 M194,621 Q194,652 213.5,671 Q233,690 264,690 Q312,690 312,646 Q312,616 292,596.5 Q272,577 240,577 Q218,577 206,589 Q194,601 194,621 M390,621 Q390,652 409.5,671 Q429,690 460,690 Q507,690 507,646 Q507,616 487,596.5 Q467,577 436,577 Q414,577 402,589 Q390,601 390,621"/> 
            <glyph glyph-name="ý" unicode="&#xFD;" horiz-adv-x="516" d=" M516,482 L514,472 L191,-83 Q115,-213 12,-213 Q-20,-213 -65,-203 L-52,-127 Q-8,-134 14,-134 Q72,-134 114,-59 L150,5 L59,472 L61,482 L150,482 L210,113 L213,113 L423,482 M468,710 L466,700 L356,579 L275,579 L277,589 L366,710"/> 
            <glyph glyph-name="þ" unicode="&#xFE;" horiz-adv-x="515" d=" M-27,-198 L164,700 L254,700 L200,448 L202,448 Q236,472 268.5,484.5 Q301,497 351,497 Q432,497 473.5,443.5 Q515,390 515,306 Q515,225 489,154 Q463,83 404,34 Q345,-15 263,-15 Q171,-15 114,34 L112,34 L63,-198 M184,366 L128,106 Q173,64 245,64 Q294,64 330,86.5 Q366,109 385,145 Q404,181 413,219 Q422,257 422,296 Q422,351 397.5,384.5 Q373,418 320,418 Q253,418 184,366"/> 
            <glyph glyph-name="ÿ" unicode="&#xFF;" horiz-adv-x="516" d=" M516,482 L514,472 L191,-83 Q115,-213 12,-213 Q-20,-213 -65,-203 L-52,-127 Q-8,-134 14,-134 Q72,-134 114,-59 L150,5 L59,472 L61,482 L150,482 L210,113 L213,113 L423,482 M167,621 Q167,652 186.5,671 Q206,690 237,690 Q285,690 285,646 Q285,616 265,596.5 Q245,577 213,577 Q191,577 179,589 Q167,601 167,621 M363,621 Q363,652 382.5,671 Q402,690 433,690 Q480,690 480,646 Q480,616 460,596.5 Q440,577 409,577 Q387,577 375,589 Q363,601 363,621"/> 
            <glyph glyph-name="Ā" unicode="&#x100;" horiz-adv-x="561" d=" M441,680 L548,0 L456,0 L433,170 L146,170 L50,0 L-49,0 L347,680 M375,572 L373,572 L193,248 L419,248 M546,777 L285,777 L301,851 L561,851"/> 
            <glyph glyph-name="ā" unicode="&#x101;" horiz-adv-x="527" d=" M360,115 L415,375 Q365,418 303,418 Q253,418 217,395 Q181,372 163.5,335 Q146,298 138.5,261 Q131,224 131,186 Q131,64 228,64 Q294,64 360,115 M358,44 Q277,-15 196,-15 Q115,-15 76,38 Q37,91 37,175 Q37,257 62,328 Q87,399 145,448 Q203,497 285,497 Q371,497 442,438 L444,438 L464,482 L527,482 L445,93 Q442,79 445.5,73 Q449,67 467,67 L493,67 L478,-4 Q446,-12 428,-12 Q367,-12 360,44 M481,597 L220,597 L236,671 L496,671"/> 
            <glyph glyph-name="Ă" unicode="&#x102;" horiz-adv-x="577" d=" M441,680 L548,0 L456,0 L433,170 L146,170 L50,0 L-49,0 L347,680 M375,572 L373,572 L193,248 L419,248 M427,838 Q506,838 552,870 L577,821 Q516,763 415,763 Q319,763 282,828 L317,870 Q349,838 427,838"/> 
            <glyph glyph-name="ă" unicode="&#x103;" horiz-adv-x="527" d=" M360,115 L415,375 Q365,418 303,418 Q253,418 217,395 Q181,372 163.5,335 Q146,298 138.5,261 Q131,224 131,186 Q131,64 228,64 Q294,64 360,115 M358,44 Q277,-15 196,-15 Q115,-15 76,38 Q37,91 37,175 Q37,257 62,328 Q87,399 145,448 Q203,497 285,497 Q371,497 442,438 L444,438 L464,482 L527,482 L445,93 Q442,79 445.5,73 Q449,67 467,67 L493,67 L478,-4 Q446,-12 428,-12 Q367,-12 360,44 M355,654 Q434,654 480,686 L505,637 Q444,579 343,579 Q247,579 210,644 L245,686 Q277,654 355,654"/> 
            <glyph glyph-name="Ą" unicode="&#x104;" horiz-adv-x="548" d=" M441,680 L548,0 Q426,-51 426,-111 Q426,-144 462,-144 Q485,-144 525,-123 L524,-185 Q479,-213 433,-213 Q396,-213 371,-192 Q346,-171 346,-134 Q346,-93 375,-60.5 Q404,-28 455,3 L433,170 L146,170 L50,0 L-49,0 L347,680 M375,572 L373,572 L193,248 L419,248"/> 
            <glyph glyph-name="ą" unicode="&#x105;" horiz-adv-x="527" d=" M374,-213 Q337,-213 310.5,-193.5 Q284,-174 284,-134 Q284,-92 310.5,-61 Q337,-30 387,-3 Q363,10 360,44 L358,44 Q277,-15 196,-15 Q115,-15 76,38 Q37,91 37,175 Q37,257 62,328 Q87,399 145,448 Q203,497 285,497 Q371,497 442,438 L444,438 L464,482 L527,482 L445,93 Q442,79 445.5,73 Q449,67 467,67 L493,67 L478,-4 Q421,-32 392.5,-57.5 Q364,-83 364,-111 Q364,-144 401,-144 Q423,-144 463,-123 L466,-185 Q419,-213 374,-213 M360,115 L415,375 Q365,418 303,418 Q253,418 217,395 Q181,372 163.5,335 Q146,298 138.5,261 Q131,224 131,186 Q131,64 228,64 Q294,64 360,115"/> 
            <glyph glyph-name="Ć" unicode="&#x106;" horiz-adv-x="617" d=" M63,255 Q63,445 168,570 Q273,695 449,695 Q535,695 617,651 L587,578 Q523,610 441,610 Q368,610 312.5,581 Q257,552 224,501.5 Q191,451 175,390 Q159,329 159,259 Q159,170 200.5,120 Q242,70 326,70 Q408,70 486,102 L505,29 Q403,-15 318,-15 Q195,-15 129,59 Q63,133 63,255 M591,883 L589,873 L489,752 L408,752 L410,762 L489,883"/> 
            <glyph glyph-name="ć" unicode="&#x107;" horiz-adv-x="491" d=" M36,186 Q36,320 115,408.5 Q194,497 322,497 Q396,497 462,462 L435,392 Q379,418 316,418 Q233,418 181.5,349.5 Q130,281 130,198 Q130,141 157.5,102.5 Q185,64 241,64 Q303,64 370,90 L388,20 Q307,-15 233,-15 Q140,-15 88,40.5 Q36,96 36,186 M491,710 L489,700 L379,579 L298,579 L300,589 L389,710"/> 
            <glyph glyph-name="Ĉ" unicode="&#x108;" horiz-adv-x="617" d=" M63,255 Q63,445 168,570 Q273,695 449,695 Q535,695 617,651 L587,578 Q523,610 441,610 Q368,610 312.5,581 Q257,552 224,501.5 Q191,451 175,390 Q159,329 159,259 Q159,170 200.5,120 Q242,70 326,70 Q408,70 486,102 L505,29 Q403,-15 318,-15 Q195,-15 129,59 Q63,133 63,255 M536,883 L603,762 L601,752 L524,752 L477,823 L400,752 L315,752 L317,762 L436,883"/> 
            <glyph glyph-name="ĉ" unicode="&#x109;" horiz-adv-x="480" d=" M36,186 Q36,320 115,408.5 Q194,497 322,497 Q396,497 462,462 L435,392 Q379,418 316,418 Q233,418 181.5,349.5 Q130,281 130,198 Q130,141 157.5,102.5 Q185,64 241,64 Q303,64 370,90 L388,20 Q307,-15 233,-15 Q140,-15 88,40.5 Q36,96 36,186 M413,710 L480,589 L478,579 L400,579 L354,653 L277,579 L192,579 L194,589 L312,710"/> 
            <glyph glyph-name="Ċ" unicode="&#x10A;" horiz-adv-x="617" d=" M63,255 Q63,445 168,570 Q273,695 449,695 Q535,695 617,651 L587,578 Q523,610 441,610 Q368,610 312.5,581 Q257,552 224,501.5 Q191,451 175,390 Q159,329 159,259 Q159,170 200.5,120 Q242,70 326,70 Q408,70 486,102 L505,29 Q403,-15 318,-15 Q195,-15 129,59 Q63,133 63,255 M414,803 Q414,834 433.5,853 Q453,872 484,872 Q531,872 531,828 Q531,798 511,778.5 Q491,759 460,759 Q438,759 426,771 Q414,783 414,803"/> 
            <glyph glyph-name="ċ" unicode="&#x10B;" horiz-adv-x="462" d=" M36,186 Q36,320 115,408.5 Q194,497 322,497 Q396,497 462,462 L435,392 Q379,418 316,418 Q233,418 181.5,349.5 Q130,281 130,198 Q130,141 157.5,102.5 Q185,64 241,64 Q303,64 370,90 L388,20 Q307,-15 233,-15 Q140,-15 88,40.5 Q36,96 36,186 M291,621 Q291,652 310.5,671 Q330,690 361,690 Q409,690 409,646 Q409,616 389,596.5 Q369,577 337,577 Q315,577 303,589 Q291,601 291,621"/> 
            <glyph glyph-name="Č" unicode="&#x10C;" horiz-adv-x="624" d=" M63,255 Q63,445 168,570 Q273,695 449,695 Q535,695 617,651 L587,578 Q523,610 441,610 Q368,610 312.5,581 Q257,552 224,501.5 Q191,451 175,390 Q159,329 159,259 Q159,170 200.5,120 Q242,70 326,70 Q408,70 486,102 L505,29 Q403,-15 318,-15 Q195,-15 129,59 Q63,133 63,255 M403,752 L336,873 L338,883 L416,883 L462,812 L539,883 L624,883 L622,873 L504,752"/> 
            <glyph glyph-name="č" unicode="&#x10D;" horiz-adv-x="509" d=" M36,186 Q36,320 115,408.5 Q194,497 322,497 Q396,497 462,462 L435,392 Q379,418 316,418 Q233,418 181.5,349.5 Q130,281 130,198 Q130,141 157.5,102.5 Q185,64 241,64 Q303,64 370,90 L388,20 Q307,-15 233,-15 Q140,-15 88,40.5 Q36,96 36,186 M287,579 L221,700 L223,710 L301,710 L346,636 L423,710 L509,710 L507,700 L389,579"/> 
            <glyph glyph-name="Ď" unicode="&#x10E;" horiz-adv-x="642" d=" M30,0 L175,680 L350,680 Q642,680 642,430 Q642,0 225,0 M139,83 L220,83 Q384,83 465.5,159.5 Q547,236 547,426 Q547,515 497,556 Q447,597 329,597 L249,597 M371,752 L304,873 L306,883 L384,883 L430,812 L507,883 L592,883 L590,873 L472,752"/> 
            <glyph glyph-name="ď" unicode="&#x10F;" horiz-adv-x="729" d=" M369,115 L424,375 Q376,418 307,418 Q257,418 220.5,395 Q184,372 165.5,335 Q147,298 138.5,261 Q130,224 130,186 Q130,64 232,64 Q303,64 369,115 M493,700 L583,700 L434,0 L370,0 L369,44 L367,44 Q285,-15 201,-15 Q119,-15 77.5,38.5 Q36,92 36,175 Q36,257 62.5,328 Q89,399 148,448 Q207,497 289,497 Q378,497 437,448 L439,448 M585,529 L587,539 L637,680 L729,680 L727,670 L656,529"/> 
            <glyph glyph-name="Đ" unicode="&#x110;" horiz-adv-x="643" d=" M31,0 L93,294 L42,294 L59,377 L111,377 L176,680 L351,680 Q643,680 643,430 Q643,0 226,0 M140,83 L221,83 Q385,83 466.5,159.5 Q548,236 548,426 Q548,515 498,556 Q448,597 330,597 L250,597 L203,377 L361,377 L343,294 L185,294"/> 
            <glyph glyph-name="đ" unicode="&#x111;" horiz-adv-x="629" d=" M493,700 L583,700 L568,630 L629,630 L613,556 L552,556 L434,0 L370,0 L369,44 L367,44 Q285,-15 201,-15 Q119,-15 77.5,38.5 Q36,92 36,175 Q36,257 62.5,328 Q89,399 148,448 Q207,497 289,497 Q378,497 437,448 L439,448 L462,556 L353,556 L369,630 L478,630 M369,115 L424,375 Q376,418 307,418 Q257,418 220.5,395 Q184,372 165.5,335 Q147,298 138.5,261 Q130,224 130,186 Q130,64 232,64 Q303,64 369,115"/> 
            <glyph glyph-name="Ē" unicode="&#x112;" horiz-adv-x="600" d=" M175,680 L600,680 L582,597 L249,597 L204,388 L506,388 L489,305 L187,305 L139,83 L476,83 L458,0 L30,0 M546,777 L285,777 L301,851 L561,851"/> 
            <glyph glyph-name="ē" unicode="&#x113;" horiz-adv-x="493" d=" M465,212 L127,212 Q124,200 124,184 Q124,126 155,94 Q186,62 245,62 Q318,62 394,107 L425,37 Q336,-15 230,-15 Q133,-15 84,42 Q35,99 35,186 Q35,309 111,403 Q187,497 310,497 Q401,497 447,448.5 Q493,400 493,328 Q493,276 465,212 M143,284 L399,284 Q407,308 407,329 Q407,370 380.5,395 Q354,420 304,420 Q246,420 203,382.5 Q160,345 143,284 M478,597 L217,597 L233,671 L493,671"/> 
            <glyph glyph-name="Ĕ" unicode="&#x114;" horiz-adv-x="600" d=" M175,680 L600,680 L582,597 L249,597 L204,388 L506,388 L489,305 L187,305 L139,83 L476,83 L458,0 L30,0 M425,838 Q504,838 550,870 L575,821 Q514,763 413,763 Q317,763 280,828 L315,870 Q347,838 425,838"/> 
            <glyph glyph-name="ĕ" unicode="&#x115;" horiz-adv-x="511" d=" M465,212 L127,212 Q124,200 124,184 Q124,126 155,94 Q186,62 245,62 Q318,62 394,107 L425,37 Q336,-15 230,-15 Q133,-15 84,42 Q35,99 35,186 Q35,309 111,403 Q187,497 310,497 Q401,497 447,448.5 Q493,400 493,328 Q493,276 465,212 M143,284 L399,284 Q407,308 407,329 Q407,370 380.5,395 Q354,420 304,420 Q246,420 203,382.5 Q160,345 143,284 M361,654 Q440,654 486,686 L511,637 Q450,579 349,579 Q253,579 216,644 L251,686 Q283,654 361,654"/> 
            <glyph glyph-name="Ė" unicode="&#x116;" horiz-adv-x="600" d=" M175,680 L600,680 L582,597 L249,597 L204,388 L506,388 L489,305 L187,305 L139,83 L476,83 L458,0 L30,0 M365,803 Q365,834 384.5,853 Q404,872 435,872 Q482,872 482,828 Q482,798 462,778.5 Q442,759 411,759 Q389,759 377,771 Q365,783 365,803"/> 
            <glyph glyph-name="ė" unicode="&#x117;" horiz-adv-x="493" d=" M465,212 L127,212 Q124,200 124,184 Q124,126 155,94 Q186,62 245,62 Q318,62 394,107 L425,37 Q336,-15 230,-15 Q133,-15 84,42 Q35,99 35,186 Q35,309 111,403 Q187,497 310,497 Q401,497 447,448.5 Q493,400 493,328 Q493,276 465,212 M143,284 L399,284 Q407,308 407,329 Q407,370 380.5,395 Q354,420 304,420 Q246,420 203,382.5 Q160,345 143,284 M297,621 Q297,652 316.5,671 Q336,690 367,690 Q415,690 415,646 Q415,616 395,596.5 Q375,577 343,577 Q321,577 309,589 Q297,601 297,621"/> 
            <glyph glyph-name="Ę" unicode="&#x118;" horiz-adv-x="600" d=" M350,-213 Q313,-213 288,-192 Q263,-171 263,-134 Q263,-93 290,-62.5 Q317,-32 368,0 L30,0 L175,680 L600,680 L582,597 L249,597 L204,388 L506,388 L489,305 L187,305 L139,83 L476,83 L458,0 Q399,-31 371,-56.5 Q343,-82 343,-111 Q343,-144 380,-144 Q402,-144 442,-123 L442,-185 Q395,-213 350,-213"/> 
            <glyph glyph-name="ę" unicode="&#x119;" horiz-adv-x="493" d=" M465,212 L127,212 Q124,200 124,184 Q124,126 155,94 Q186,62 245,62 Q318,62 394,107 L425,37 Q381,17 356,5 Q263,-38 263,-112 Q263,-144 299,-144 Q324,-144 361,-123 L361,-185 Q316,-213 270,-213 Q233,-213 208,-192 Q183,-171 183,-134 Q183,-68 253,-16 L253,-14 Q245,-15 230,-15 Q133,-15 84,42 Q35,99 35,186 Q35,309 111,403 Q187,497 310,497 Q401,497 447,448.5 Q493,400 493,328 Q493,276 465,212 M143,284 L399,284 Q407,308 407,329 Q407,370 380.5,395 Q354,420 304,420 Q246,420 203,382.5 Q160,345 143,284"/> 
            <glyph glyph-name="Ě" unicode="&#x11A;" horiz-adv-x="600" d=" M175,680 L600,680 L582,597 L249,597 L204,388 L506,388 L489,305 L187,305 L139,83 L476,83 L458,0 L30,0 M358,752 L291,873 L293,883 L371,883 L417,812 L494,883 L579,883 L577,873 L459,752"/> 
            <glyph glyph-name="ě" unicode="&#x11B;" horiz-adv-x="514" d=" M465,212 L127,212 Q124,200 124,184 Q124,126 155,94 Q186,62 245,62 Q318,62 394,107 L425,37 Q336,-15 230,-15 Q133,-15 84,42 Q35,99 35,186 Q35,309 111,403 Q187,497 310,497 Q401,497 447,448.5 Q493,400 493,328 Q493,276 465,212 M143,284 L399,284 Q407,308 407,329 Q407,370 380.5,395 Q354,420 304,420 Q246,420 203,382.5 Q160,345 143,284 M292,579 L226,700 L228,710 L306,710 L351,636 L428,710 L514,710 L512,700 L394,579"/> 
            <glyph glyph-name="Ĝ" unicode="&#x11C;" horiz-adv-x="652" d=" M380,339 L603,339 L544,48 Q441,-15 311,-15 Q188,-15 126,57 Q64,129 64,248 Q64,336 86.5,414 Q109,492 153.5,556 Q198,620 274.5,657.5 Q351,695 451,695 Q556,695 652,632 L614,559 Q531,610 443,610 Q380,610 330,589.5 Q280,569 249,535 Q218,501 197.5,454 Q177,407 168.5,358 Q160,309 160,254 Q160,169 198.5,119.5 Q237,70 319,70 Q408,70 461,100 L494,256 L366,276 M536,883 L603,762 L601,752 L524,752 L477,823 L400,752 L315,752 L317,762 L436,883"/> 
            <glyph glyph-name="ĝ" unicode="&#x11D;" horiz-adv-x="537" d=" M370,119 L424,375 Q370,418 306,418 Q264,418 231.5,401.5 Q199,385 180.5,360.5 Q162,336 150,303.5 Q138,271 134,243 Q130,215 130,187 Q130,68 232,68 Q303,68 370,119 M537,482 L432,-11 Q412,-103 348,-158 Q284,-213 182,-213 Q98,-213 21,-167 L50,-95 Q116,-134 189,-134 Q316,-134 342,-13 L353,38 L351,38 Q285,-11 203,-11 Q121,-11 79,42.5 Q37,96 37,179 Q37,261 64.5,331.5 Q92,402 151,449.5 Q210,497 291,497 Q380,497 449,438 L451,438 L473,482 M435,710 L502,589 L500,579 L422,579 L376,653 L299,579 L214,579 L216,589 L334,710"/> 
            <glyph glyph-name="Ğ" unicode="&#x11E;" horiz-adv-x="652" d=" M380,339 L603,339 L544,48 Q441,-15 311,-15 Q188,-15 126,57 Q64,129 64,248 Q64,336 86.5,414 Q109,492 153.5,556 Q198,620 274.5,657.5 Q351,695 451,695 Q556,695 652,632 L614,559 Q531,610 443,610 Q380,610 330,589.5 Q280,569 249,535 Q218,501 197.5,454 Q177,407 168.5,358 Q160,309 160,254 Q160,169 198.5,119.5 Q237,70 319,70 Q408,70 461,100 L494,256 L366,276 M480,838 Q559,838 605,870 L630,821 Q569,763 468,763 Q372,763 335,828 L370,870 Q402,838 480,838"/> 
            <glyph glyph-name="ğ" unicode="&#x11F;" horiz-adv-x="537" d=" M370,119 L424,375 Q370,418 306,418 Q264,418 231.5,401.5 Q199,385 180.5,360.5 Q162,336 150,303.5 Q138,271 134,243 Q130,215 130,187 Q130,68 232,68 Q303,68 370,119 M537,482 L432,-11 Q412,-103 348,-158 Q284,-213 182,-213 Q98,-213 21,-167 L50,-95 Q116,-134 189,-134 Q316,-134 342,-13 L353,38 L351,38 Q285,-11 203,-11 Q121,-11 79,42.5 Q37,96 37,179 Q37,261 64.5,331.5 Q92,402 151,449.5 Q210,497 291,497 Q380,497 449,438 L451,438 L473,482 M375,654 Q454,654 500,686 L525,637 Q464,579 363,579 Q267,579 230,644 L265,686 Q297,654 375,654"/> 
            <glyph glyph-name="Ġ" unicode="&#x120;" horiz-adv-x="652" d=" M380,339 L603,339 L544,48 Q441,-15 311,-15 Q188,-15 126,57 Q64,129 64,248 Q64,336 86.5,414 Q109,492 153.5,556 Q198,620 274.5,657.5 Q351,695 451,695 Q556,695 652,632 L614,559 Q531,610 443,610 Q380,610 330,589.5 Q280,569 249,535 Q218,501 197.5,454 Q177,407 168.5,358 Q160,309 160,254 Q160,169 198.5,119.5 Q237,70 319,70 Q408,70 461,100 L494,256 L366,276 M416,803 Q416,834 435.5,853 Q455,872 486,872 Q533,872 533,828 Q533,798 513,778.5 Q493,759 462,759 Q440,759 428,771 Q416,783 416,803"/> 
            <glyph glyph-name="ġ" unicode="&#x121;" horiz-adv-x="537" d=" M370,119 L424,375 Q370,418 306,418 Q264,418 231.5,401.5 Q199,385 180.5,360.5 Q162,336 150,303.5 Q138,271 134,243 Q130,215 130,187 Q130,68 232,68 Q303,68 370,119 M537,482 L432,-11 Q412,-103 348,-158 Q284,-213 182,-213 Q98,-213 21,-167 L50,-95 Q116,-134 189,-134 Q316,-134 342,-13 L353,38 L351,38 Q285,-11 203,-11 Q121,-11 79,42.5 Q37,96 37,179 Q37,261 64.5,331.5 Q92,402 151,449.5 Q210,497 291,497 Q380,497 449,438 L451,438 L473,482 M311,621 Q311,652 330.5,671 Q350,690 381,690 Q429,690 429,646 Q429,616 409,596.5 Q389,577 357,577 Q335,577 323,589 Q311,601 311,621"/> 
            <glyph glyph-name="Ģ" unicode="&#x122;" horiz-adv-x="652" d=" M380,339 L603,339 L544,48 Q441,-15 311,-15 Q188,-15 126,57 Q64,129 64,248 Q64,336 86.5,414 Q109,492 153.5,556 Q198,620 274.5,657.5 Q351,695 451,695 Q556,695 652,632 L614,559 Q531,610 443,610 Q380,610 330,589.5 Q280,569 249,535 Q218,501 197.5,454 Q177,407 168.5,358 Q160,309 160,254 Q160,169 198.5,119.5 Q237,70 319,70 Q408,70 461,100 L494,256 L366,276 M189,-218 L191,-208 L241,-67 L333,-67 L331,-77 L260,-218"/> 
            <glyph glyph-name="ģ" unicode="&#x123;" horiz-adv-x="537" d=" M370,119 L424,375 Q370,418 306,418 Q264,418 231.5,401.5 Q199,385 180.5,360.5 Q162,336 150,303.5 Q138,271 134,243 Q130,215 130,187 Q130,68 232,68 Q303,68 370,119 M537,482 L432,-11 Q412,-103 348,-158 Q284,-213 182,-213 Q98,-213 21,-167 L50,-95 Q116,-134 189,-134 Q316,-134 342,-13 L353,38 L351,38 Q285,-11 203,-11 Q121,-11 79,42.5 Q37,96 37,179 Q37,261 64.5,331.5 Q92,402 151,449.5 Q210,497 291,497 Q380,497 449,438 L451,438 L473,482 M456,720 L454,710 L405,569 L312,569 L314,579 L386,720"/> 
            <glyph glyph-name="Ĥ" unicode="&#x124;" horiz-adv-x="687" d=" M450,0 L515,305 L187,305 L122,0 L30,0 L175,680 L266,680 L204,388 L533,388 L595,680 L687,680 L542,0 M527,883 L594,762 L592,752 L515,752 L468,823 L391,752 L306,752 L308,762 L427,883"/> 
            <glyph glyph-name="ĥ" unicode="&#x125;" horiz-adv-x="533" d=" M430,0 L340,0 L403,295 Q430,418 325,418 Q291,418 250.5,402 Q210,386 183,367 L105,0 L15,0 L164,700 L254,700 L200,448 L202,448 Q279,497 354,497 Q437,497 476,447.5 Q515,398 495,302 M466,883 L533,762 L531,752 L454,752 L407,823 L330,752 L245,752 L247,762 L366,883"/> 
            <glyph glyph-name="Ħ" unicode="&#x126;" horiz-adv-x="718" d=" M451,0 L516,305 L188,305 L123,0 L31,0 L139,508 L90,508 L108,591 L157,591 L176,680 L267,680 L248,591 L577,591 L596,680 L688,680 L669,591 L718,591 L700,508 L651,508 L543,0 M205,388 L534,388 L559,508 L231,508"/> 
            <glyph glyph-name="ħ" unicode="&#x127;" horiz-adv-x="515" d=" M430,0 L340,0 L403,295 Q430,418 325,418 Q291,418 250.5,402 Q210,386 183,367 L105,0 L15,0 L133,557 L73,557 L89,631 L149,631 L164,700 L254,700 L239,631 L349,631 L334,557 L223,557 L200,448 L202,448 Q279,497 354,497 Q437,497 476,447.5 Q515,398 495,302"/> 
            <glyph glyph-name="Ĩ" unicode="&#x128;" horiz-adv-x="400" d=" M266,680 L122,0 L30,0 L175,680 M114,767 L94,817 Q145,874 191,874 Q213,874 252,854 Q291,834 310,834 Q347,834 380,869 L400,819 Q346,762 302,762 Q280,762 241,782 Q202,802 181,802 Q147,802 114,767"/> 
            <glyph glyph-name="ĩ" unicode="&#x129;" horiz-adv-x="346" d=" M60,584 L40,634 Q91,691 137,691 Q159,691 198,671 Q237,651 256,651 Q293,651 326,686 L346,636 Q292,579 248,579 Q226,579 187,599 Q148,619 127,619 Q93,619 60,584 M105,0 L15,0 L117,482 L207,482"/> 
            <glyph glyph-name="Ī" unicode="&#x12A;" horiz-adv-x="385" d=" M266,680 L122,0 L30,0 L175,680 M370,777 L109,777 L125,851 L385,851"/> 
            <glyph glyph-name="ī" unicode="&#x12B;" horiz-adv-x="333" d=" M318,597 L57,597 L73,671 L333,671 M105,0 L15,0 L117,482 L207,482"/> 
            <glyph glyph-name="Ĭ" unicode="&#x12C;" horiz-adv-x="401" d=" M266,680 L122,0 L30,0 L175,680 M251,838 Q330,838 376,870 L401,821 Q340,763 239,763 Q143,763 106,828 L141,870 Q173,838 251,838"/> 
            <glyph glyph-name="ĭ" unicode="&#x12D;" horiz-adv-x="345" d=" M195,654 Q274,654 320,686 L345,637 Q284,579 183,579 Q87,579 50,644 L85,686 Q117,654 195,654 M105,0 L15,0 L117,482 L207,482"/> 
            <glyph glyph-name="Į" unicode="&#x12E;" horiz-adv-x="266" d=" M11,-213 Q-27,-213 -51.5,-192.5 Q-76,-172 -76,-134 Q-76,-92 -49,-62 Q-22,-32 30,0 L174,680 L266,680 L122,0 Q4,-54 4,-111 Q4,-144 41,-144 Q63,-144 103,-123 L103,-185 Q56,-213 11,-213"/> 
            <glyph glyph-name="į" unicode="&#x12F;" horiz-adv-x="255" d=" M-7,-213 Q-44,-213 -69,-192 Q-94,-171 -94,-134 Q-94,-91 -66.5,-60.5 Q-39,-30 16,3 L118,482 L208,482 L106,0 Q41,-29 13.5,-55.5 Q-14,-82 -14,-111 Q-14,-144 23,-144 Q45,-144 85,-123 L85,-185 Q38,-213 -7,-213 M137,621 Q137,652 156.5,671 Q176,690 207,690 Q255,690 255,646 Q255,616 234.5,596.5 Q214,577 183,577 Q161,577 149,589 Q137,601 137,621"/> 
            <glyph glyph-name="İ" unicode="&#x130;" horiz-adv-x="307" d=" M266,680 L122,0 L30,0 L175,680 M190,803 Q190,834 209.5,853 Q229,872 260,872 Q307,872 307,828 Q307,798 287,778.5 Q267,759 236,759 Q214,759 202,771 Q190,783 190,803"/> 
            <glyph glyph-name="ı" unicode="&#x131;" horiz-adv-x="208" d=" M106,0 L16,0 L118,482 L208,482"/> 
            <glyph glyph-name="Ĳ" unicode="&#x132;" horiz-adv-x="720" d=" M266,680 L122,0 L30,0 L175,680 M245,58 L294,122 Q338,70 397,70 Q498,70 531,223 L628,680 L720,680 L618,203 Q596,98 537,41.5 Q478,-15 389,-15 Q300,-15 245,58"/> 
            <glyph glyph-name="ĳ" unicode="&#x133;" horiz-adv-x="496" d=" M105,0 L16,0 L118,482 L208,482 M137,621 Q137,652 156.5,671 Q176,690 207,690 Q255,690 255,646 Q255,616 234.5,596.5 Q214,577 183,577 Q161,577 149,589 Q137,601 137,621 M359,482 L449,482 L332,-69 Q301,-213 167,-213 Q128,-213 94,-204 L110,-127 Q138,-134 168,-134 Q200,-134 218,-117 Q236,-100 244,-61 M378,621 Q378,652 397.5,671 Q417,690 448,690 Q496,690 496,646 Q496,616 475.5,596.5 Q455,577 424,577 Q402,577 390,589 Q378,601 378,621"/> 
            <glyph glyph-name="Ĵ" unicode="&#x134;" horiz-adv-x="562" d=" M-27,58 L22,122 Q66,70 125,70 Q226,70 259,223 L356,680 L448,680 L346,203 Q324,98 265,41.5 Q206,-15 117,-15 Q28,-15 -27,58 M495,883 L562,762 L560,752 L483,752 L436,823 L359,752 L274,752 L276,762 L395,883"/> 
            <glyph glyph-name="ĵ" unicode="&#x135;" horiz-adv-x="324" d=" M117,482 L207,482 L90,-69 Q59,-213 -75,-213 Q-114,-213 -148,-204 L-132,-127 Q-104,-134 -74,-134 Q-42,-134 -24,-117 Q-6,-100 2,-61 M257,710 L324,589 L322,579 L244,579 L198,653 L121,579 L36,579 L38,589 L156,710"/> 
            <glyph glyph-name="Ķ" unicode="&#x136;" horiz-adv-x="647" d=" M190,310 L188,310 L122,0 L30,0 L175,680 L266,680 L195,346 L197,346 L534,680 L647,680 L645,670 L291,323 L518,10 L516,0 L411,0 M136,-218 L138,-208 L188,-67 L280,-67 L278,-77 L207,-218"/> 
            <glyph glyph-name="ķ" unicode="&#x137;" horiz-adv-x="508" d=" M154,223 L152,223 L105,0 L15,0 L164,700 L254,700 L160,258 L162,258 L394,482 L508,482 L506,475 L249,235 L415,8 L413,0 L314,0 M74,-218 L76,-208 L126,-67 L218,-67 L216,-77 L145,-218"/> 
            <glyph glyph-name="ĸ" unicode="&#x138;" horiz-adv-x="507" d=" M153,217 L151,217 L105,0 L16,0 L118,482 L207,482 L157,248 L159,248 L398,482 L507,482 L505,475 L246,227 L416,7 L415,0 L315,0"/> 
            <glyph glyph-name="Ĺ" unicode="&#x139;" horiz-adv-x="444" d=" M175,680 L266,680 L139,83 L444,83 L426,0 L30,0 M376,883 L374,873 L274,752 L193,752 L195,762 L274,883"/> 
            <glyph glyph-name="ĺ" unicode="&#x13A;" horiz-adv-x="363" d=" M190,67 L175,-4 Q143,-12 122,-12 Q14,-12 39,104 L166,700 L255,700 L126,93 Q122,80 126,73.5 Q130,67 145,67 M363,883 L361,873 L261,752 L180,752 L182,762 L261,883"/> 
            <glyph glyph-name="Ļ" unicode="&#x13B;" horiz-adv-x="444" d=" M175,680 L266,680 L139,83 L444,83 L426,0 L30,0 M120,-218 L122,-208 L172,-67 L264,-67 L262,-77 L191,-218"/> 
            <glyph glyph-name="ļ" unicode="&#x13C;" horiz-adv-x="255" d=" M190,67 L175,-4 Q143,-12 122,-12 Q14,-12 39,104 L166,700 L255,700 L126,93 Q122,80 126,73.5 Q130,67 145,67 M-17,-218 L-15,-208 L35,-67 L127,-67 L125,-77 L54,-218"/> 
            <glyph glyph-name="Ľ" unicode="&#x13D;" horiz-adv-x="481" d=" M175,680 L266,680 L139,83 L444,83 L426,0 L30,0 M337,529 L339,539 L389,680 L481,680 L479,670 L408,529"/> 
            <glyph glyph-name="ľ" unicode="&#x13E;" horiz-adv-x="404" d=" M190,67 L175,-4 Q143,-12 122,-12 Q14,-12 39,104 L166,700 L255,700 L126,93 Q122,80 126,73.5 Q130,67 145,67 M260,529 L262,539 L312,680 L404,680 L402,670 L331,529"/> 
            <glyph glyph-name="Ŀ" unicode="&#x13F;" horiz-adv-x="461" d=" M175,680 L266,680 L139,83 L444,83 L426,0 L30,0 M331,338 Q331,372 353.5,394.5 Q376,417 410,417 Q434,417 447.5,403.5 Q461,390 461,366 Q461,332 438.5,309.5 Q416,287 382,287 Q358,287 344.5,300.5 Q331,314 331,338"/> 
            <glyph glyph-name="ŀ" unicode="&#x140;" horiz-adv-x="380" d=" M190,67 L175,-4 Q143,-12 122,-12 Q14,-12 39,104 L166,700 L255,700 L126,93 Q122,80 126,73.5 Q130,67 145,67 M250,338 Q250,372 272.5,394.5 Q295,417 329,417 Q353,417 366.5,403.5 Q380,390 380,366 Q380,332 357.5,309.5 Q335,287 301,287 Q277,287 263.5,300.5 Q250,314 250,338"/> 
            <glyph glyph-name="Ł" unicode="&#x141;" horiz-adv-x="453" d=" M184,680 L276,680 L220,417 L338,476 L348,476 L330,393 L201,328 L149,83 L453,83 L436,0 L40,0 L99,277 L30,243 L20,243 L38,326 L117,366"/> 
            <glyph glyph-name="ł" unicode="&#x142;" horiz-adv-x="328" d=" M220,67 L205,-4 Q173,-12 152,-12 Q44,-12 69,104 L105,272 L25,233 L15,233 L33,316 L124,361 L196,700 L285,700 L223,411 L318,458 L328,458 L311,375 L204,322 L156,93 Q152,80 156,73.5 Q160,67 175,67"/> 
            <glyph glyph-name="Ń" unicode="&#x143;" horiz-adv-x="696" d=" M487,140 L489,140 L604,680 L696,680 L551,0 L456,0 L239,540 L237,540 L122,0 L30,0 L175,680 L268,680 M580,883 L578,873 L478,752 L397,752 L399,762 L478,883"/> 
            <glyph glyph-name="ń" unicode="&#x144;" horiz-adv-x="516" d=" M118,482 L183,482 L184,438 L186,438 Q268,497 355,497 Q438,497 477,447.5 Q516,398 496,302 L431,0 L341,0 L404,295 Q431,418 326,418 Q292,418 251.5,402 Q211,386 184,367 L106,0 L16,0 M500,710 L498,700 L388,579 L307,579 L309,589 L398,710"/> 
            <glyph glyph-name="Ņ" unicode="&#x145;" horiz-adv-x="696" d=" M487,140 L489,140 L604,680 L696,680 L551,0 L456,0 L239,540 L237,540 L122,0 L30,0 L175,680 L268,680 M177,-218 L179,-208 L229,-67 L321,-67 L319,-77 L248,-218"/> 
            <glyph glyph-name="ņ" unicode="&#x146;" horiz-adv-x="516" d=" M118,482 L183,482 L184,438 L186,438 Q268,497 355,497 Q438,497 477,447.5 Q516,398 496,302 L431,0 L341,0 L404,295 Q431,418 326,418 Q292,418 251.5,402 Q211,386 184,367 L106,0 L16,0 M107,-218 L109,-208 L159,-67 L251,-67 L249,-77 L178,-218"/> 
            <glyph glyph-name="Ň" unicode="&#x147;" horiz-adv-x="696" d=" M487,140 L489,140 L604,680 L696,680 L551,0 L456,0 L239,540 L237,540 L122,0 L30,0 L175,680 L268,680 M400,752 L333,873 L335,883 L413,883 L459,812 L536,883 L621,883 L619,873 L501,752"/> 
            <glyph glyph-name="ň" unicode="&#x148;" horiz-adv-x="522" d=" M118,482 L183,482 L184,438 L186,438 Q268,497 355,497 Q438,497 477,447.5 Q516,398 496,302 L431,0 L341,0 L404,295 Q431,418 326,418 Q292,418 251.5,402 Q211,386 184,367 L106,0 L16,0 M300,579 L234,700 L236,710 L314,710 L359,636 L436,710 L522,710 L520,700 L402,579"/> 
            <glyph glyph-name="ŉ" unicode="&#x149;" horiz-adv-x="515" d=" M117,482 L182,482 L183,438 L185,438 Q267,497 354,497 Q437,497 476,447.5 Q515,398 495,302 L430,0 L340,0 L403,295 Q430,418 325,418 Q291,418 250.5,402 Q210,386 183,367 L105,0 L15,0 M44,529 L46,539 L96,680 L188,680 L186,670 L115,529"/> 
            <glyph glyph-name="Ŋ" unicode="&#x14A;" horiz-adv-x="696" d=" M696,680 L539,-58 Q523,-135 483.5,-174 Q444,-213 376,-213 Q332,-213 298,-204 L316,-121 Q344,-128 374,-128 Q406,-128 422,-114 Q438,-100 446,-61 L456,0 L239,540 L237,540 L122,0 L30,0 L175,680 L268,680 L487,140 L489,140 L604,680"/> 
            <glyph glyph-name="ŋ" unicode="&#x14B;" horiz-adv-x="516" d=" M118,482 L183,482 L184,438 L186,438 Q268,497 355,497 Q438,497 477,447.5 Q516,398 496,302 L416,-69 Q385,-213 251,-213 Q212,-213 178,-204 L194,-127 Q222,-134 252,-134 Q284,-134 302,-117 Q320,-100 328,-61 L404,295 Q431,418 326,418 Q292,418 251.5,402 Q211,386 184,367 L106,0 L16,0"/> 
            <glyph glyph-name="Ō" unicode="&#x14C;" horiz-adv-x="683" d=" M159,253 Q159,169 196.5,119.5 Q234,70 316,70 Q370,70 413.5,86.5 Q457,103 485,127.5 Q513,152 533.5,188 Q554,224 564,256 Q574,288 580,326 Q586,364 587,385 Q588,406 588,428 Q588,512 550.5,561 Q513,610 431,610 Q363,610 312,583.5 Q261,557 232.5,518.5 Q204,480 186.5,428 Q169,376 164,335 Q159,294 159,253 M683,433 Q683,366 670.5,304 Q658,242 629.5,183 Q601,124 558.5,80.5 Q516,37 451.5,11 Q387,-15 308,-15 Q187,-15 125,56.5 Q63,128 63,248 Q63,333 84,409.5 Q105,486 148,551.5 Q191,617 266,656 Q341,695 439,695 Q560,695 621.5,623.5 Q683,552 683,433 M602,777 L341,777 L357,851 L617,851"/> 
            <glyph glyph-name="ō" unicode="&#x14D;" horiz-adv-x="521" d=" M129,188 Q129,64 239,64 Q305,64 349,100 Q393,136 410.5,185.5 Q428,235 428,292 Q428,350 400.5,384 Q373,418 314,418 Q263,418 225,396.5 Q187,375 167,340 Q147,305 138,267 Q129,229 129,188 M521,299 Q521,239 504,184.5 Q487,130 453,84.5 Q419,39 362,12 Q305,-15 232,-15 Q134,-15 85,40.5 Q36,96 36,182 Q36,242 52.5,297 Q69,352 102,397.5 Q135,443 191.5,470 Q248,497 321,497 Q421,497 471,441.5 Q521,386 521,299 M485,597 L224,597 L240,671 L500,671"/> 
            <glyph glyph-name="Ŏ" unicode="&#x14E;" horiz-adv-x="683" d=" M159,253 Q159,169 196.5,119.5 Q234,70 316,70 Q370,70 413.5,86.5 Q457,103 485,127.5 Q513,152 533.5,188 Q554,224 564,256 Q574,288 580,326 Q586,364 587,385 Q588,406 588,428 Q588,512 550.5,561 Q513,610 431,610 Q363,610 312,583.5 Q261,557 232.5,518.5 Q204,480 186.5,428 Q169,376 164,335 Q159,294 159,253 M683,433 Q683,366 670.5,304 Q658,242 629.5,183 Q601,124 558.5,80.5 Q516,37 451.5,11 Q387,-15 308,-15 Q187,-15 125,56.5 Q63,128 63,248 Q63,333 84,409.5 Q105,486 148,551.5 Q191,617 266,656 Q341,695 439,695 Q560,695 621.5,623.5 Q683,552 683,433 M483,838 Q562,838 608,870 L633,821 Q572,763 471,763 Q375,763 338,828 L373,870 Q405,838 483,838"/> 
            <glyph glyph-name="ŏ" unicode="&#x14F;" horiz-adv-x="521" d=" M129,188 Q129,64 239,64 Q305,64 349,100 Q393,136 410.5,185.5 Q428,235 428,292 Q428,350 400.5,384 Q373,418 314,418 Q263,418 225,396.5 Q187,375 167,340 Q147,305 138,267 Q129,229 129,188 M521,299 Q521,239 504,184.5 Q487,130 453,84.5 Q419,39 362,12 Q305,-15 232,-15 Q134,-15 85,40.5 Q36,96 36,182 Q36,242 52.5,297 Q69,352 102,397.5 Q135,443 191.5,470 Q248,497 321,497 Q421,497 471,441.5 Q521,386 521,299 M361,654 Q440,654 486,686 L511,637 Q450,579 349,579 Q253,579 216,644 L251,686 Q283,654 361,654"/> 
            <glyph glyph-name="Ő" unicode="&#x150;" horiz-adv-x="699" d=" M159,253 Q159,169 196.5,119.5 Q234,70 316,70 Q370,70 413.5,86.5 Q457,103 485,127.5 Q513,152 533.5,188 Q554,224 564,256 Q574,288 580,326 Q586,364 587,385 Q588,406 588,428 Q588,512 550.5,561 Q513,610 431,610 Q363,610 312,583.5 Q261,557 232.5,518.5 Q204,480 186.5,428 Q169,376 164,335 Q159,294 159,253 M683,433 Q683,366 670.5,304 Q658,242 629.5,183 Q601,124 558.5,80.5 Q516,37 451.5,11 Q387,-15 308,-15 Q187,-15 125,56.5 Q63,128 63,248 Q63,333 84,409.5 Q105,486 148,551.5 Q191,617 266,656 Q341,695 439,695 Q560,695 621.5,623.5 Q683,552 683,433 M533,883 L531,873 L421,752 L340,752 L342,762 L431,883 M699,883 L697,873 L587,752 L506,752 L508,762 L597,883"/> 
            <glyph glyph-name="ő" unicode="&#x151;" horiz-adv-x="596" d=" M129,188 Q129,64 239,64 Q305,64 349,100 Q393,136 410.5,185.5 Q428,235 428,292 Q428,350 400.5,384 Q373,418 314,418 Q263,418 225,396.5 Q187,375 167,340 Q147,305 138,267 Q129,229 129,188 M521,299 Q521,239 504,184.5 Q487,130 453,84.5 Q419,39 362,12 Q305,-15 232,-15 Q134,-15 85,40.5 Q36,96 36,182 Q36,242 52.5,297 Q69,352 102,397.5 Q135,443 191.5,470 Q248,497 321,497 Q421,497 471,441.5 Q521,386 521,299 M430,710 L428,700 L318,579 L237,579 L239,589 L328,710 M596,710 L594,700 L484,579 L403,579 L405,589 L494,710"/> 
            <glyph glyph-name="Œ" unicode="&#x152;" horiz-adv-x="974" d=" M440,695 Q509,695 551,680 L974,680 L956,597 L623,597 L579,388 L881,388 L863,305 L561,305 L514,83 L850,83 L832,0 L406,0 Q358,-15 309,-15 Q186,-15 125,57.5 Q64,130 64,248 Q64,316 77,379 Q90,442 119.5,500 Q149,558 191.5,601 Q234,644 298,669.5 Q362,695 440,695 M317,70 Q380,70 423,87 L530,592 Q492,610 432,610 Q364,610 313,583.5 Q262,557 233.5,518.5 Q205,480 187.5,428 Q170,376 165,335 Q160,294 160,253 Q160,169 197.5,119.5 Q235,70 317,70"/> 
            <glyph glyph-name="œ" unicode="&#x153;" horiz-adv-x="872" d=" M844,212 L506,212 Q503,200 503,184 Q503,126 534,94 Q565,62 624,62 Q697,62 773,107 L804,37 Q715,-15 609,-15 Q488,-15 444,79 Q371,-15 232,-15 Q134,-15 85,40.5 Q36,96 36,182 Q36,242 52.5,297 Q69,352 102,397.5 Q135,443 191.5,470 Q248,497 321,497 Q448,497 492,399 Q565,497 689,497 Q780,497 826,448.5 Q872,400 872,328 Q872,276 844,212 M129,188 Q129,64 239,64 Q305,64 349,100 Q393,136 410.5,185.5 Q428,235 428,292 Q428,350 400.5,384 Q373,418 314,418 Q263,418 225,396.5 Q187,375 167,340 Q147,305 138,267 Q129,229 129,188 M522,284 L778,284 Q786,308 786,329 Q786,370 759.5,395 Q733,420 683,420 Q625,420 582,382.5 Q539,345 522,284"/> 
            <glyph glyph-name="Ŕ" unicode="&#x154;" horiz-adv-x="611" d=" M122,0 L30,0 L175,680 L416,680 Q508,680 559.5,638.5 Q611,597 611,523 Q611,429 556,371 Q501,313 406,297 L545,16 L542,0 L448,0 L308,292 L184,292 M202,375 L357,375 Q432,375 473,411 Q514,447 514,511 Q514,597 404,597 L249,597 M535,883 L533,873 L433,752 L352,752 L354,762 L433,883"/> 
            <glyph glyph-name="ŕ" unicode="&#x155;" horiz-adv-x="402" d=" M118,482 L183,482 L183,430 L185,430 Q245,497 320,497 Q348,497 369,490 L349,409 Q326,414 302,414 Q227,414 178,340 L106,0 L16,0 M402,710 L400,700 L290,579 L209,579 L211,589 L300,710"/> 
            <glyph glyph-name="Ŗ" unicode="&#x156;" horiz-adv-x="611" d=" M122,0 L30,0 L175,680 L416,680 Q508,680 559.5,638.5 Q611,597 611,523 Q611,429 556,371 Q501,313 406,297 L545,16 L542,0 L448,0 L308,292 L184,292 M202,375 L357,375 Q432,375 473,411 Q514,447 514,511 Q514,597 404,597 L249,597 M138,-218 L140,-208 L190,-67 L282,-67 L280,-77 L209,-218"/> 
            <glyph glyph-name="ŗ" unicode="&#x157;" horiz-adv-x="369" d=" M118,482 L183,482 L183,430 L185,430 Q245,497 320,497 Q348,497 369,490 L349,409 Q326,414 302,414 Q227,414 178,340 L106,0 L16,0 M-53,-218 L-51,-208 L-1,-67 L91,-67 L89,-77 L18,-218"/> 
            <glyph glyph-name="Ř" unicode="&#x158;" horiz-adv-x="611" d=" M122,0 L30,0 L175,680 L416,680 Q508,680 559.5,638.5 Q611,597 611,523 Q611,429 556,371 Q501,313 406,297 L545,16 L542,0 L448,0 L308,292 L184,292 M202,375 L357,375 Q432,375 473,411 Q514,447 514,511 Q514,597 404,597 L249,597 M340,752 L273,873 L275,883 L353,883 L399,812 L476,883 L561,883 L559,873 L441,752"/> 
            <glyph glyph-name="ř" unicode="&#x159;" horiz-adv-x="435" d=" M118,482 L183,482 L183,430 L185,430 Q245,497 320,497 Q348,497 369,490 L349,409 Q326,414 302,414 Q227,414 178,340 L106,0 L16,0 M213,579 L147,700 L149,710 L227,710 L272,636 L349,710 L435,710 L433,700 L315,579"/> 
            <glyph glyph-name="Ś" unicode="&#x15A;" horiz-adv-x="527" d=" M9,50 L53,124 Q125,70 214,70 Q284,70 324.5,100 Q365,130 365,192 Q365,256 277,296 L221,321 Q165,346 133,388 Q101,430 101,482 Q101,577 169,636 Q237,695 354,695 Q448,695 527,642 L486,568 Q408,610 347,610 Q276,610 237,579 Q198,548 198,494 Q198,431 265,401 L327,373 Q462,312 462,205 Q462,107 391.5,46 Q321,-15 208,-15 Q100,-15 9,50 M506,883 L504,873 L404,752 L323,752 L325,762 L404,883"/> 
            <glyph glyph-name="ś" unicode="&#x15B;" horiz-adv-x="438" d=" M1,29 L37,101 Q97,62 168,62 Q280,62 280,135 Q280,175 223,197 L169,218 Q63,259 63,338 Q63,412 116,454.5 Q169,497 264,497 Q344,497 419,461 L386,388 Q318,420 263,420 Q155,420 155,348 Q155,313 213,290 L266,270 Q372,230 372,146 Q372,73 318,29 Q264,-15 169,-15 Q75,-15 1,29 M438,710 L436,700 L326,579 L245,579 L247,589 L336,710"/> 
            <glyph glyph-name="Ŝ" unicode="&#x15C;" horiz-adv-x="527" d=" M9,50 L53,124 Q125,70 214,70 Q284,70 324.5,100 Q365,130 365,192 Q365,256 277,296 L221,321 Q165,346 133,388 Q101,430 101,482 Q101,577 169,636 Q237,695 354,695 Q448,695 527,642 L486,568 Q408,610 347,610 Q276,610 237,579 Q198,548 198,494 Q198,431 265,401 L327,373 Q462,312 462,205 Q462,107 391.5,46 Q321,-15 208,-15 Q100,-15 9,50 M444,883 L511,762 L509,752 L432,752 L385,823 L308,752 L223,752 L225,762 L344,883"/> 
            <glyph glyph-name="ŝ" unicode="&#x15D;" horiz-adv-x="436" d=" M1,29 L37,101 Q97,62 168,62 Q280,62 280,135 Q280,175 223,197 L169,218 Q63,259 63,338 Q63,412 116,454.5 Q169,497 264,497 Q344,497 419,461 L386,388 Q318,420 263,420 Q155,420 155,348 Q155,313 213,290 L266,270 Q372,230 372,146 Q372,73 318,29 Q264,-15 169,-15 Q75,-15 1,29 M369,710 L436,589 L434,579 L356,579 L310,653 L233,579 L148,579 L150,589 L268,710"/> 
            </font>
</defs>
</svg>
