<?xml version="1.0" standalone="no"?>
<!DOCTYPE svg PUBLIC "-//W3C//DTD SVG 1.1//EN" "http://www.w3.org/Graphics/SVG/1.1/DTD/svg11.dtd" >
<svg xmlns="http://www.w3.org/2000/svg">
    <defs>
        <font id="VWText-Light">
            <font-face font-family="VWText-Light"
                       units-per-em="1000"
                       ascent="998"
                       descent="-221"
                       bbox="-166 -221 979 933"
                    />
            <missing-glyph horiz-adv-x="0" />
            
            <glyph glyph-name="!" unicode="&#x21;" horiz-adv-x="171" d=" M147,491 L136,193 L102,193 L91,491 L91,680 L147,680 M71,14 Q71,58 84.5,72.5 Q98,87 121,87 Q144,87 157.5,72.5 Q171,58 171,36 Q171,14 157.5,-0.5 Q144,-15 121,-15 Q98,-15 71,14"/> 
            <glyph glyph-name="&quot;" unicode="&#x22;" horiz-adv-x="275" d=" M275,574 L264,402 L231,402 L220,574 L220,680 L275,680 M132,574 L121,402 L88,402 L77,574 L77,680 L132,680"/> 
            <glyph glyph-name="#" unicode="&#x23;" horiz-adv-x="571" d=" M145,0 L90,0 L90,5 L138,192 L49,192 L48,239 L151,239 L206,455 L109,455 L108,502 L219,502 L266,680 L321,680 L321,675 L276,502 L418,502 L465,680 L520,680 L520,675 L475,502 L570,502 L571,455 L462,455 L407,239 L511,239 L512,192 L394,192 L344,0 L289,0 L289,5 L339,192 L195,192 M263,455 L208,239 L350,239 L407,455"/> 
            <glyph glyph-name="$" unicode="&#x24;" horiz-adv-x="471" d=" M74,63 L104,106 Q171,44 257,40 L257,328 L226,342 Q158,372 123,411 Q88,450 88,512 Q88,583 133.5,634 Q179,685 257,693 L257,770 L308,770 L308,694 Q387,689 458,638 L431,593 Q371,634 308,639 L308,369 L317,366 Q393,335 432,290 Q471,245 471,171 Q471,102 425.5,50.5 Q380,-1 308,-12 L308,-108 L257,-108 L257,-15 Q151,-11 74,63 M147,514 Q147,471 169,445 Q191,419 252,393 L257,391 L257,638 Q205,630 176,596 Q147,562 147,514 M412,169 Q412,219 388,249.5 Q364,280 308,306 L308,44 Q355,54 383.5,87 Q412,120 412,169"/> 
            <glyph glyph-name="%" unicode="&#x25;" horiz-adv-x="678" d=" M202,0 L151,0 L151,6 L531,680 L583,680 L583,674 M103,513 Q103,387 180,387 Q257,387 257,513 Q257,638 180,638 Q103,638 103,513 M52,431 Q52,595 85.5,639.5 Q119,684 180,684 Q241,684 274.5,639.5 Q308,595 308,513 Q308,431 274.5,386 Q241,341 180,341 Q119,341 52,431 M473,163 Q473,37 550,37 Q627,37 627,163 Q627,288 550,288 Q473,288 473,163 M422,81 Q422,245 455.5,289.5 Q489,334 550,334 Q611,334 644.5,289.5 Q678,245 678,163 Q678,81 644.5,36 Q611,-9 550,-9 Q489,-9 422,81"/> 
            <glyph glyph-name="&amp;" unicode="&#x26;" horiz-adv-x="598" d=" M517,315 L566,290 Q521,194 482,136 L598,6 L598,0 L529,0 L449,93 Q361,-15 240,-15 Q157,-15 110.5,32 Q64,79 64,150 Q64,211 96.5,255.5 Q129,300 187,339 L216,360 L202,376 Q125,465 125,538 Q125,602 168.5,648.5 Q212,695 284,695 Q356,695 399.5,651 Q443,607 443,537 Q443,451 345,384 L297,349 L445,177 Q479,231 517,315 M241,39 Q336,39 412,134 L253,320 L218,295 Q167,259 145,225.5 Q123,192 123,150 Q123,102 155,70.5 Q187,39 241,39 M184,538 Q184,483 245,407 L261,387 L313,424 Q384,474 384,536 Q384,586 357,613.5 Q330,641 284,641 Q238,641 211,612.5 Q184,584 184,538"/> 
            <glyph glyph-name="'" unicode="&#x27;" horiz-adv-x="132" d=" M132,574 L121,402 L88,402 L77,574 L77,680 L132,680"/> 
            <glyph glyph-name="(" unicode="&#x28;" horiz-adv-x="219" d=" M177,716 L219,694 Q126,488 126,249 Q126,10 219,-196 L177,-218 Q124,-106 95.5,3 Q67,112 67,249 Q67,386 95.5,495 Q124,604 177,716"/> 
            <glyph glyph-name=")" unicode="&#x29;" horiz-adv-x="204" d=" M52,694 L94,716 Q147,604 175.5,495 Q204,386 204,249 Q204,112 175.5,3 Q147,-106 94,-218 L52,-196 Q145,10 145,249 Q145,488 52,694"/> 
            <glyph glyph-name="*" unicode="&#x2A;" horiz-adv-x="319" d=" M171,700 L215,700 L212,594 L213,593 L299,649 L319,610 L232,560 L232,558 L319,511 L296,471 L213,528 L212,527 L215,422 L171,422 L174,527 L173,528 L90,471 L67,511 L154,558 L154,560 L67,610 L87,649 L173,593 L174,594"/> 
            <glyph glyph-name="+" unicode="&#x2B;" horiz-adv-x="485" d=" M300,498 L300,293 L485,293 L485,245 L300,245 L300,39 L249,39 L249,245 L64,245 L64,293 L249,293 L249,498"/> 
            <glyph glyph-name="," unicode="&#x2C;" horiz-adv-x="147" d=" M52,-161 L52,-154 L83,68 L147,68 L147,62 L98,-161"/> 
            <glyph glyph-name="-" unicode="&#x2D;" horiz-adv-x="317" d=" M317,247 L80,247 L80,295 L317,295"/> 
            <glyph glyph-name="." unicode="&#x2E;" horiz-adv-x="168" d=" M68,14 Q68,58 81.5,72.5 Q95,87 118,87 Q141,87 154.5,72.5 Q168,58 168,36 Q168,14 154.5,-0.5 Q141,-15 118,-15 Q95,-15 68,14"/> 
            <glyph glyph-name="/" unicode="&#x2F;" horiz-adv-x="311" d=" M90,0 L38,0 L38,10 L260,680 L311,680 L311,670"/> 
            <glyph glyph-name="0" unicode="&#x30;" horiz-adv-x="509" d=" M100,640 Q100,40 275,40 Q450,40 450,340 Q450,640 100,640 M41,171 Q41,509 100,602 Q159,695 275,695 Q391,695 450,602 Q509,509 509,340 Q509,171 450,78 Q391,-15 275,-15 Q159,-15 41,171"/> 
            <glyph glyph-name="1" unicode="&#x31;" horiz-adv-x="458" d=" M124,568 L118,568 L118,620 L271,680 L324,680 L324,53 L458,53 L458,0 L116,0 L116,53 L268,53 L268,623 L266,623"/> 
            <glyph glyph-name="2" unicode="&#x32;" horiz-adv-x="459" d=" M155,55 L155,53 L454,53 L454,0 L80,0 L80,49 L311,310 Q360,367 380,406.5 Q400,446 400,499 Q400,560 361,600 Q322,640 258,640 Q178,640 113,573 L81,614 Q157,695 258,695 Q349,695 404,640 Q459,585 459,499 Q459,438 433.5,387 Q408,336 358,280"/> 
            <glyph glyph-name="3" unicode="&#x33;" horiz-adv-x="466" d=" M154,324 L154,377 L264,377 Q324,377 358.5,412.5 Q393,448 393,506 Q393,565 358,602.5 Q323,640 259,640 Q180,640 103,598 L84,646 Q164,695 259,695 Q353,695 402.5,643 Q452,591 452,507 Q452,452 426.5,411.5 Q401,371 358,353 L358,351 Q407,335 436.5,291 Q466,247 466,181 Q466,92 406,38.5 Q346,-15 254,-15 Q143,-15 64,41 L88,88 Q162,40 254,40 Q321,40 364,77.5 Q407,115 407,182 Q407,243 373.5,283.5 Q340,324 259,324"/> 
            <glyph glyph-name="4" unicode="&#x34;" horiz-adv-x="505" d=" M363,199 L363,490 L419,490 L419,199 L505,199 L505,146 L419,146 L419,0 L363,0 L363,146 L46,146 L46,188 L248,680 L306,680 L111,201 L111,199"/> 
            <glyph glyph-name="5" unicode="&#x35;" horiz-adv-x="468" d=" M121,336 L115,345 L154,680 L446,680 L446,627 L202,627 L174,397 Q212,403 246,403 Q468,403 468,198 Q468,95 402.5,40 Q337,-15 236,-15 Q141,-15 68,26 L86,76 Q158,40 236,40 Q315,40 362,79 Q409,118 409,198 Q409,348 244,348 Q191,348 121,336"/> 
            <glyph glyph-name="6" unicode="&#x36;" horiz-adv-x="493" d=" M346,680 L346,674 L174,394 L175,393 Q217,435 284,435 Q378,435 435.5,373.5 Q493,312 493,210 Q493,109 435,47 Q377,-15 278,-15 Q179,-15 121,47 Q63,109 63,210 Q63,313 130,424 L281,680 M122,287 Q122,133 164,86.5 Q206,40 278,40 Q350,40 392,86.5 Q434,133 434,210 Q434,287 392,333.5 Q350,380 278,380 Q206,380 122,287"/> 
            <glyph glyph-name="7" unicode="&#x37;" horiz-adv-x="466" d=" M179,0 L179,7 L405,625 L405,627 L83,627 L83,680 L466,680 L466,634 L237,0"/> 
            <glyph glyph-name="8" unicode="&#x38;" horiz-adv-x="497" d=" M275,39 Q357,39 397.5,78.5 Q438,118 438,185 Q438,253 397.5,292.5 Q357,332 275,332 Q193,332 153,292.5 Q113,253 113,185 Q113,118 153.5,78.5 Q194,39 275,39 M178,695 Q372,695 422.5,644 Q473,593 473,514 Q473,456 446.5,417.5 Q420,379 383,361 L383,359 Q434,339 465.5,292 Q497,245 497,184 Q497,96 441,40.5 Q385,-15 275,-15 Q166,-15 110,40.5 Q54,96 54,184 Q54,245 85,292 Q116,339 168,359 L168,361 Q131,379 104.5,417.5 Q78,456 78,514 Q78,593 178,695 M207,385 Q343,385 378.5,418.5 Q414,452 414,513 Q414,575 378.5,608 Q343,641 275,641 Q137,641 137,513 Q137,451 207,385"/> 
            <glyph glyph-name="9" unicode="&#x39;" horiz-adv-x="487" d=" M204,0 L204,6 L376,286 L375,287 Q333,245 266,245 Q172,245 114.5,306.5 Q57,368 57,470 Q57,571 115,633 Q173,695 272,695 Q371,695 429,633 Q487,571 487,470 Q487,367 420,256 L269,0 M428,393 Q428,547 386,593.5 Q344,640 272,640 Q200,640 158,593.5 Q116,547 116,470 Q116,393 158,346.5 Q200,300 272,300 Q344,300 428,393"/> 
            <glyph glyph-name=":" unicode="&#x3A;" horiz-adv-x="181" d=" M81,424 Q81,468 94.5,482.5 Q108,497 131,497 Q154,497 167.5,482.5 Q181,468 181,446 Q181,424 167.5,409.5 Q154,395 131,395 Q108,395 81,424 M81,13 Q81,57 94.5,71.5 Q108,86 131,86 Q154,86 167.5,71.5 Q181,57 181,35 Q181,13 167.5,-1.5 Q154,-16 131,-16 Q108,-16 81,13"/> 
            <glyph glyph-name=";" unicode="&#x3B;" horiz-adv-x="188" d=" M77,-161 L77,-154 L108,68 L172,68 L172,62 L123,-161 M88,424 Q88,468 101.5,482.5 Q115,497 138,497 Q161,497 174.5,482.5 Q188,468 188,446 Q188,424 174.5,409.5 Q161,395 138,395 Q115,395 88,424"/> 
            <glyph glyph-name="&lt;" unicode="&#x3C;" horiz-adv-x="473" d=" M473,45 L468,45 L53,249 L53,291 L468,494 L473,494 L473,441 L116,271 L116,268 L473,98"/> 
            <glyph glyph-name="=" unicode="&#x3D;" horiz-adv-x="485" d=" M485,356 L65,356 L65,404 L485,404 M485,139 L65,139 L65,187 L485,187"/> 
            <glyph glyph-name="&gt;" unicode="&#x3E;" horiz-adv-x="497" d=" M82,45 L77,45 L77,98 L434,268 L434,271 L77,441 L77,494 L82,494 L497,291 L497,249"/> 
            <glyph glyph-name="?" unicode="&#x3F;" horiz-adv-x="373" d=" M65,595 L39,638 Q112,695 195,695 Q277,695 325,641.5 Q373,588 373,507 Q373,365 214,303 L207,197 L159,197 L157,338 Q233,364 273.5,401 Q314,438 314,506 Q314,566 283,603 Q252,640 195,640 Q125,640 65,595 M137,32 Q137,55 149,67.5 Q161,80 183,80 Q204,80 216,67 Q228,54 228,32 Q228,10 216,-2.5 Q204,-15 183,-15 Q161,-15 149,-2.5 Q137,10 137,32"/> 
            <glyph glyph-name="@" unicode="&#x40;" horiz-adv-x="848" d=" M598,-47 L618,-93 Q530,-140 422,-140 Q267,-140 164.5,-27.5 Q62,85 62,252 Q62,347 90,430 Q118,513 169.5,577 Q221,641 302,678 Q383,715 482,715 Q654,715 751,611 Q848,507 848,352 Q848,207 781.5,127.5 Q715,48 632,48 Q566,48 547,106 L545,106 Q472,58 400,58 Q340,58 300,102 Q260,146 260,235 Q260,345 313,425 Q366,505 454,505 Q525,505 590,456 L604,494 L648,494 L596,192 Q580,98 636,98 Q692,98 741.5,163 Q791,228 791,352 Q791,483 710.5,574 Q630,665 483,665 Q312,665 215.5,548 Q119,431 119,252 Q119,107 206.5,8.5 Q294,-90 422,-90 Q519,-90 598,-47 M533,146 L575,414 Q524,455 469,455 Q397,455 357,389.5 Q317,324 317,227 Q317,171 345.5,139.5 Q374,108 419,108 Q470,108 533,146"/> 
            <glyph glyph-name="A" unicode="&#x41;" horiz-adv-x="553" d=" M317,680 L553,0 L495,0 L432,180 L145,180 L82,0 L24,0 L260,680 M290,613 L287,613 L238,452 L162,232 L415,232 L339,452"/> 
            <glyph glyph-name="B" unicode="&#x42;" horiz-adv-x="518" d=" M158,53 L319,53 Q383,53 421,87 Q459,121 459,186 Q459,251 421,284.5 Q383,318 319,318 L158,318 M102,680 L285,680 Q386,680 440,635.5 Q494,591 494,502 Q494,446 468.5,406.5 Q443,367 406,352 L406,350 Q459,334 488.5,291.5 Q518,249 518,185 Q518,98 463.5,49 Q409,0 322,0 L102,0 M158,371 L281,371 Q356,371 395.5,400.5 Q435,430 435,499 Q435,568 395.5,597.5 Q356,627 281,627 L158,627"/> 
            <glyph glyph-name="C" unicode="&#x43;" horiz-adv-x="505" d=" M69,173 Q69,507 141.5,601 Q214,695 348,695 Q430,695 505,652 L485,605 Q421,640 348,640 Q239,640 183.5,561 Q128,482 128,340 Q128,198 183.5,119 Q239,40 348,40 Q421,40 485,75 L505,28 Q430,-15 348,-15 Q214,-15 69,173"/> 
            <glyph glyph-name="D" unicode="&#x44;" horiz-adv-x="582" d=" M102,0 L102,680 L258,680 Q427,680 504.5,593.5 Q582,507 582,340 Q582,173 504.5,86.5 Q427,0 258,0 M158,53 L247,53 Q400,53 461.5,123 Q523,193 523,340 Q523,487 461.5,557 Q400,627 247,627 L158,627"/> 
            <glyph glyph-name="E" unicode="&#x45;" horiz-adv-x="487" d=" M102,680 L484,680 L484,627 L158,627 L158,375 L455,375 L455,322 L158,322 L158,53 L487,53 L487,0 L102,0"/> 
            <glyph glyph-name="F" unicode="&#x46;" horiz-adv-x="482" d=" M102,680 L482,680 L482,627 L158,627 L158,368 L453,368 L453,315 L158,315 L158,0 L102,0"/> 
            <glyph glyph-name="G" unicode="&#x47;" horiz-adv-x="542" d=" M354,325 L542,325 L542,45 Q452,-15 334,-15 Q206,-15 137.5,81 Q69,177 69,340 Q69,502 139.5,598.5 Q210,695 340,695 Q446,695 535,634 L510,588 Q427,640 340,640 Q238,640 183,560 Q128,480 128,340 Q128,202 181,121 Q234,40 334,40 Q422,40 486,77 L486,272 L354,283"/> 
            <glyph glyph-name="H" unicode="&#x48;" horiz-adv-x="566" d=" M510,0 L510,320 L158,320 L158,0 L102,0 L102,680 L158,680 L158,373 L510,373 L510,680 L566,680 L566,0"/> 
            <glyph glyph-name="I" unicode="&#x49;" horiz-adv-x="158" d=" M158,680 L158,0 L102,0 L102,680"/> 
            <glyph glyph-name="J" unicode="&#x4A;" horiz-adv-x="349" d=" M27,53 L57,95 Q110,40 177,40 Q293,40 293,181 L293,680 L349,680 L349,176 Q349,85 302.5,35 Q256,-15 177,-15 Q93,-15 27,53"/> 
            <glyph glyph-name="K" unicode="&#x4B;" horiz-adv-x="516" d=" M160,320 L158,320 L158,0 L102,0 L102,680 L158,680 L158,346 L160,346 L437,680 L504,680 L504,674 L220,337 L516,6 L516,0 L443,0"/> 
            <glyph glyph-name="L" unicode="&#x4C;" horiz-adv-x="456" d=" M102,680 L158,680 L158,53 L456,53 L456,0 L102,0"/> 
            <glyph glyph-name="M" unicode="&#x4D;" horiz-adv-x="694" d=" M399,232 L457,355 L640,680 L694,680 L694,0 L638,0 L638,474 L645,580 L643,580 L422,171 L374,171 L153,580 L151,580 L158,474 L158,0 L102,0 L102,680 L156,680 L339,355 L397,232"/> 
            <glyph glyph-name="N" unicode="&#x4E;" horiz-adv-x="565" d=" M514,99 L509,217 L509,680 L565,680 L565,0 L511,0 L153,581 L151,581 L158,463 L158,0 L102,0 L102,680 L156,680 L512,99"/> 
            <glyph glyph-name="O" unicode="&#x4F;" horiz-adv-x="596" d=" M129,407 Q129,273 139,221 Q149,169 171.5,127 Q194,85 234.5,62.5 Q275,40 333,40 Q391,40 431.5,62.5 Q472,85 494.5,127 Q517,169 527,221 Q537,273 537,340 Q537,407 527,459 Q517,511 494.5,553 Q472,595 431.5,617.5 Q391,640 333,640 Q275,640 234.5,617.5 Q194,595 171.5,553 Q149,511 129,407 M70,262 Q70,418 84,480.5 Q98,543 128,592 Q158,641 210,668 Q262,695 333,695 Q404,695 456,668 Q508,641 538,592 Q568,543 582,480.5 Q596,418 596,340 Q596,262 582,199.5 Q568,137 538,88 Q508,39 456,12 Q404,-15 333,-15 Q262,-15 210,12 Q158,39 128,88 Q98,137 70,262"/> 
            <glyph glyph-name="P" unicode="&#x50;" horiz-adv-x="505" d=" M158,0 L102,0 L102,680 L300,680 Q399,680 452,628.5 Q505,577 505,479 Q505,382 451.5,330.5 Q398,279 300,279 L158,279 M158,627 L158,332 L296,332 Q446,332 446,479 Q446,627 296,627"/> 
            <glyph glyph-name="Q" unicode="&#x51;" horiz-adv-x="596" d=" M70,262 Q70,418 84,480.5 Q98,543 128,592 Q158,641 210,668 Q262,695 333,695 Q404,695 456,668 Q508,641 538,592 Q568,543 582,480.5 Q596,418 596,340 Q596,63 432,1 L593,-93 L562,-143 L354,-14 Q346,-15 333,-15 Q262,-15 210,12 Q158,39 128,88 Q98,137 70,262 M129,407 Q129,273 139,221 Q149,169 171.5,127 Q194,85 234.5,62.5 Q275,40 333,40 Q391,40 431.5,62.5 Q472,85 494.5,127 Q517,169 527,221 Q537,273 537,340 Q537,407 527,459 Q517,511 494.5,553 Q472,595 431.5,617.5 Q391,640 333,640 Q275,640 234.5,617.5 Q194,595 171.5,553 Q149,511 129,407"/> 
            <glyph glyph-name="R" unicode="&#x52;" horiz-adv-x="558" d=" M158,0 L102,0 L102,680 L317,680 Q410,680 465,633 Q520,586 520,493 Q520,413 476,366.5 Q432,320 353,311 L558,7 L558,0 L494,0 L291,307 L158,307 M158,627 L158,360 L314,360 Q461,360 461,494 Q461,627 314,627"/> 
            <glyph glyph-name="S" unicode="&#x53;" horiz-adv-x="451" d=" M54,63 L84,106 Q155,40 252,40 Q313,40 352.5,75.5 Q392,111 392,169 Q392,221 366.5,252 Q341,283 279,310 L206,342 Q138,372 103,411 Q68,450 68,512 Q68,590 121.5,642.5 Q175,695 265,695 Q359,695 438,638 L411,593 Q341,640 265,640 Q202,640 164.5,604.5 Q127,569 127,514 Q127,471 149,445 Q171,419 232,393 L297,366 Q373,335 412,290 Q451,245 451,171 Q451,93 394.5,39 Q338,-15 252,-15 Q135,-15 54,63"/> 
            <glyph glyph-name="T" unicode="&#x54;" horiz-adv-x="468" d=" M34,680 L468,680 L468,627 L279,627 L279,0 L223,0 L223,627 L34,627"/> 
            <glyph glyph-name="U" unicode="&#x55;" horiz-adv-x="557" d=" M443,-15 Q211,-15 154,49 Q97,113 97,230 L97,680 L153,680 L153,235 Q153,40 327,40 Q501,40 501,235 L501,680 L557,680 L557,230 Q557,113 443,-15"/> 
            <glyph glyph-name="V" unicode="&#x56;" horiz-adv-x="545" d=" M315,0 L256,0 L26,674 L26,680 L84,680 L238,227 L284,66 L287,66 L333,227 L487,680 L545,680 L545,674"/> 
            <glyph glyph-name="W" unicode="&#x57;" horiz-adv-x="865" d=" M450,613 L447,613 L410,456 L279,0 L221,0 L32,674 L32,680 L89,680 L211,241 L249,75 L251,75 L291,241 L419,680 L478,680 L606,241 L646,75 L648,75 L686,241 L808,680 L865,680 L865,674 L676,0 L618,0 L487,456"/> 
            <glyph glyph-name="X" unicode="&#x58;" horiz-adv-x="507" d=" M273,296 L271,296 L98,0 L37,0 L37,6 L236,341 L37,674 L37,680 L99,680 L271,384 L273,384 L445,680 L507,680 L507,674 L308,341 L507,6 L507,0 L446,0"/> 
            <glyph glyph-name="Y" unicode="&#x59;" horiz-adv-x="497" d=" M23,680 L84,680 L259,349 L261,349 L436,680 L497,680 L497,674 L288,288 L288,0 L232,0 L232,288 L23,674"/> 
            <glyph glyph-name="Z" unicode="&#x5A;" horiz-adv-x="444" d=" M61,680 L444,680 L444,630 L117,55 L117,53 L444,53 L444,0 L48,0 L48,50 L374,625 L374,627 L61,627"/> 
            <glyph glyph-name="[" unicode="&#x5B;" horiz-adv-x="256" d=" M86,700 L256,700 L256,659 L142,648 L142,-148 L256,-159 L256,-198 L86,-198"/> 
            <glyph glyph-name="\" unicode="&#x5C;" horiz-adv-x="312" d=" M312,0 L260,0 L38,670 L38,680 L89,680 L312,10"/> 
            <glyph glyph-name="]" unicode="&#x5D;" horiz-adv-x="215" d=" M45,700 L215,700 L215,-198 L45,-198 L45,-159 L159,-148 L159,648 L45,659"/> 
            <glyph glyph-name="^" unicode="&#x5E;" horiz-adv-x="429" d=" M429,378 L429,372 L376,372 L254,632 L252,632 L130,372 L77,372 L77,378 L231,700 L275,700"/> 
            <glyph glyph-name="_" unicode="&#x5F;" horiz-adv-x="374" d=" M374,-68 L70,-68 L70,-20 L374,-20"/> 
            <glyph glyph-name="`" unicode="&#x60;" horiz-adv-x="329" d=" M219,692 L219,698 L280,698 L329,587 L329,581 L280,581"/> 
            <glyph glyph-name="a" unicode="&#x61;" horiz-adv-x="397" d=" M342,233 L249,233 Q110,233 110,131 Q110,37 205,37 Q288,37 342,84 M397,0 L354,0 L348,39 L346,39 Q278,-13 196,-13 Q131,-13 92,25 Q53,63 53,129 Q53,208 105,244 Q157,280 243,280 L342,280 L342,318 Q342,447 223,447 Q153,447 101,402 L76,443 Q138,497 223,497 Q307,497 352,451 Q397,405 397,317"/> 
            <glyph glyph-name="b" unicode="&#x62;" horiz-adv-x="475" d=" M142,388 L142,94 Q206,35 284,35 Q352,35 385,92 Q418,149 418,241 Q418,333 385,390 Q352,447 284,447 Q206,447 142,388 M141,42 L139,42 L130,0 L87,0 L87,700 L142,700 L142,441 L144,441 Q209,497 290,497 Q380,497 427.5,426.5 Q475,356 475,241 Q475,126 427.5,55.5 Q380,-15 290,-15 Q213,-15 141,42"/> 
            <glyph glyph-name="c" unicode="&#x63;" horiz-adv-x="407" d=" M61,127 Q61,355 112.5,426 Q164,497 266,497 Q346,497 407,461 L389,418 Q338,447 267,447 Q190,447 154,385.5 Q118,324 118,241 Q118,158 154,96.5 Q190,35 267,35 Q338,35 389,64 L407,21 Q346,-15 266,-15 Q164,-15 61,127"/> 
            <glyph glyph-name="d" unicode="&#x64;" horiz-adv-x="450" d=" M395,94 L395,388 Q331,447 253,447 Q185,447 152,390 Q119,333 119,241 Q119,149 152,92 Q185,35 253,35 Q331,35 395,94 M398,42 L396,42 Q324,-15 247,-15 Q157,-15 109.5,55.5 Q62,126 62,241 Q62,356 109.5,426.5 Q157,497 247,497 Q328,497 393,441 L395,441 L395,700 L450,700 L450,0 L407,0"/> 
            <glyph glyph-name="e" unicode="&#x65;" horiz-adv-x="454" d=" M449,231 L116,231 Q118,140 158.5,87.5 Q199,35 277,35 Q350,35 413,82 L436,40 Q364,-15 275,-15 Q168,-15 114.5,55.5 Q61,126 61,243 Q61,358 114.5,427.5 Q168,497 269,497 Q363,497 408.5,437.5 Q454,378 454,294 Q454,268 449,231 M269,447 Q204,447 164,403.5 Q124,360 117,278 L396,278 Q397,284 397,300 Q397,364 366,405.5 Q335,447 269,447"/> 
            <glyph glyph-name="f" unicode="&#x66;" horiz-adv-x="300" d=" M167,0 L113,0 L113,434 L34,434 L34,471 L113,482 L113,562 Q113,705 238,705 Q260,705 300,697 L300,647 Q268,655 241,655 Q203,655 185,634 Q167,613 167,564 L167,482 L296,482 L296,434 L167,434"/> 
            <glyph glyph-name="g" unicode="&#x67;" horiz-adv-x="449" d=" M394,96 L394,387 Q337,447 252,447 Q182,447 150.5,389.5 Q119,332 119,241 Q119,151 150.5,93.5 Q182,36 252,36 Q337,36 394,96 M449,482 L449,-13 Q449,-107 400,-160 Q351,-213 267,-213 Q174,-213 108,-172 L126,-125 Q196,-163 267,-163 Q326,-163 360,-126 Q394,-89 394,-15 L394,42 L392,42 Q330,-14 246,-14 Q152,-14 107,57.5 Q62,129 62,241 Q62,353 107,425 Q152,497 246,497 Q333,497 397,440 L399,440 L405,482"/> 
            <glyph glyph-name="h" unicode="&#x68;" horiz-adv-x="458" d=" M458,0 L403,0 L403,302 Q403,377 376,412 Q349,447 289,447 Q249,447 209,430.5 Q169,414 142,391 L142,0 L87,0 L87,700 L142,700 L142,443 L144,443 Q218,497 296,497 Q458,497 458,311"/> 
            <glyph glyph-name="i" unicode="&#x69;" horiz-adv-x="156" d=" M141,0 L87,0 L87,482 L141,482 M72,608 Q72,648 84,660 Q96,672 114,672 Q132,672 144,660 Q156,648 156,628 Q156,608 144,596 Q132,584 114,584 Q96,584 72,608"/> 
            <glyph glyph-name="j" unicode="&#x6A;" horiz-adv-x="156" d=" M87,482 L142,482 L142,-69 Q142,-213 28,-213 Q2,-213 -24,-206 L-24,-158 Q-2,-163 25,-163 Q57,-163 72,-143 Q87,-123 87,-72 M72,608 Q72,648 84,660 Q96,672 114,672 Q132,672 144,660 Q156,648 156,628 Q156,608 144,596 Q132,584 114,584 Q96,584 72,608"/> 
            <glyph glyph-name="k" unicode="&#x6B;" horiz-adv-x="426" d=" M144,224 L142,224 L142,0 L87,0 L87,700 L142,700 L142,252 L144,252 L351,482 L418,482 L418,477 L200,239 L426,6 L426,0 L355,0"/> 
            <glyph glyph-name="l" unicode="&#x6C;" horiz-adv-x="146" d=" M146,0 L91,0 L91,700 L146,700"/> 
            <glyph glyph-name="m" unicode="&#x6D;" horiz-adv-x="748" d=" M87,482 L130,482 L136,440 L139,440 Q208,497 290,497 Q379,497 418,432 L420,432 Q501,497 586,497 Q668,497 708,451.5 Q748,406 748,311 L748,0 L693,0 L693,302 Q693,378 667,412.5 Q641,447 580,447 Q545,447 505,431 Q465,415 436,389 Q445,362 445,311 L445,0 L390,0 L390,302 Q390,378 365,412.5 Q340,447 283,447 Q204,447 142,391 L142,0 L87,0"/> 
            <glyph glyph-name="n" unicode="&#x6E;" horiz-adv-x="458" d=" M87,482 L131,482 L137,440 L139,440 Q210,497 296,497 Q458,497 458,311 L458,0 L403,0 L403,302 Q403,377 376,412 Q349,447 289,447 Q249,447 209,430.5 Q169,414 142,391 L142,0 L87,0"/> 
            <glyph glyph-name="o" unicode="&#x6F;" horiz-adv-x="482" d=" M119,447 Q119,35 272,35 Q425,35 425,241 Q425,447 119,447 M482,354 Q482,128 432.5,56.5 Q383,-15 272,-15 Q214,-15 172,5.5 Q130,26 106.5,63 Q83,100 72.5,144 Q62,188 62,241 Q62,294 72.5,338 Q83,382 106.5,419 Q130,456 172,476.5 Q214,497 272,497 Q383,497 482,354"/> 
            <glyph glyph-name="p" unicode="&#x70;" horiz-adv-x="475" d=" M142,388 L142,94 Q206,35 284,35 Q352,35 385,92 Q418,149 418,241 Q418,333 385,390 Q352,447 284,447 Q206,447 142,388 M139,440 L141,440 Q213,497 290,497 Q380,497 427.5,426.5 Q475,356 475,241 Q475,126 427.5,55.5 Q380,-15 290,-15 Q209,-15 144,41 L142,41 L142,-198 L87,-198 L87,482 L130,482"/> 
            <glyph glyph-name="q" unicode="&#x71;" horiz-adv-x="450" d=" M395,94 L395,388 Q329,447 252,447 Q184,447 151.5,390 Q119,333 119,241 Q119,149 151.5,92 Q184,35 252,35 Q329,35 395,94 M396,440 L398,440 L406,482 L450,482 L450,-198 L395,-198 L395,41 L393,41 Q328,-15 246,-15 Q156,-15 109,55 Q62,125 62,241 Q62,357 109,427 Q156,497 246,497 Q324,497 396,440"/> 
            <glyph glyph-name="r" unicode="&#x72;" horiz-adv-x="303" d=" M87,482 L129,482 L137,435 L139,435 Q180,497 255,497 Q280,497 303,491 L294,441 Q271,447 249,447 Q178,447 142,372 L142,0 L87,0"/> 
            <glyph glyph-name="s" unicode="&#x73;" horiz-adv-x="371" d=" M52,31 L76,75 Q134,35 205,35 Q256,35 285,59 Q314,83 314,124 Q314,157 295.5,176.5 Q277,196 226,212 L177,228 Q63,265 63,358 Q63,421 108.5,459 Q154,497 226,497 Q288,497 361,463 L341,416 Q282,447 226,447 Q176,447 148,424 Q120,401 120,360 Q120,328 137.5,309 Q155,290 196,278 L245,263 Q309,244 340,213.5 Q371,183 371,126 Q371,63 324.5,24 Q278,-15 205,-15 Q119,-15 52,31"/> 
            <glyph glyph-name="t" unicode="&#x74;" horiz-adv-x="290" d=" M116,594 L171,594 L171,482 L290,482 L290,434 L171,434 L171,112 Q171,69 185,52 Q199,35 228,35 Q255,35 290,48 L290,-2 Q255,-15 222,-15 Q168,-15 142,14.5 Q116,44 116,111 L116,434 L31,434 L31,471 L116,482"/> 
            <glyph glyph-name="u" unicode="&#x75;" horiz-adv-x="446" d=" M446,0 L403,0 L396,42 L394,42 Q323,-15 240,-15 Q83,-15 83,171 L83,482 L138,482 L138,180 Q138,104 163,69.5 Q188,35 247,35 Q287,35 326,51.5 Q365,68 391,91 L391,482 L446,482"/> 
            <glyph glyph-name="v" unicode="&#x76;" horiz-adv-x="429" d=" M429,482 L429,476 L259,0 L204,0 L34,476 L34,482 L90,482 L207,148 L230,58 L233,58 L256,148 L373,482"/> 
            <glyph glyph-name="w" unicode="&#x77;" horiz-adv-x="731" d=" M384,424 L382,424 L358,333 L248,0 L193,0 L35,476 L35,482 L91,482 L195,159 L220,62 L222,62 L249,159 L355,482 L411,482 L517,159 L544,62 L546,62 L571,159 L675,482 L731,482 L731,476 L573,0 L518,0 L408,333"/> 
            <glyph glyph-name="x" unicode="&#x78;" horiz-adv-x="408" d=" M225,202 L222,202 L98,0 L39,0 L39,6 L190,241 L39,476 L39,482 L98,482 L222,278 L225,278 L349,482 L408,482 L408,476 L257,241 L408,6 L408,0 L349,0"/> 
            <glyph glyph-name="y" unicode="&#x79;" horiz-adv-x="432" d=" M236,60 L239,60 L262,145 L377,482 L432,482 L432,476 L240,-83 Q195,-213 95,-213 Q68,-213 37,-204 L37,-155 Q63,-163 93,-163 Q154,-163 183,-80 L211,2 L32,476 L32,482 L87,482 L212,146"/> 
            <glyph glyph-name="z" unicode="&#x7A;" horiz-adv-x="359" d=" M58,482 L359,482 L359,446 L114,50 L114,48 L359,48 L359,0 L47,0 L47,36 L291,432 L291,434 L58,434"/> 
            <glyph glyph-name="{" unicode="&#x7B;" horiz-adv-x="261" d=" M51,226 L51,276 Q87,276 102,294.5 Q117,313 117,351 L117,565 Q117,637 145,668.5 Q173,700 253,700 L261,700 L261,659 Q210,659 191.5,638 Q173,617 173,565 L173,360 Q173,276 117,252 L117,250 Q173,226 173,142 L173,-63 Q173,-115 191.5,-136 Q210,-157 261,-157 L261,-198 L253,-198 Q173,-198 145,-166.5 Q117,-135 117,-63 L117,151 Q117,189 102,207.5 Q87,226 51,226"/> 
            <glyph glyph-name="|" unicode="&#x7C;" horiz-adv-x="137" d=" M137,700 L137,-198 L86,-198 L86,700"/> 
            <glyph glyph-name="}" unicode="&#x7D;" horiz-adv-x="257" d=" M257,276 L257,226 Q220,226 205.5,207.5 Q191,189 191,151 L191,-63 Q191,-135 163,-166.5 Q135,-198 55,-198 L47,-198 L47,-157 Q98,-157 116.5,-136 Q135,-115 135,-63 L135,142 Q135,226 190,250 L190,252 Q135,276 135,360 L135,565 Q135,617 116.5,638 Q98,659 47,659 L47,700 L55,700 Q135,700 163,668.5 Q191,637 191,565 L191,351 Q191,313 205.5,294.5 Q220,276 257,276"/> 
            <glyph glyph-name="~" unicode="&#x7E;" horiz-adv-x="424" d=" M323,227 Q297,227 244.5,251.5 Q192,276 167,276 Q130,276 98,239 L71,271 Q110,326 172,326 Q205,326 255,301.5 Q305,277 328,277 Q365,277 397,314 L424,282 Q385,227 323,227"/> 
            <glyph glyph-name="¡" unicode="&#xA1;" horiz-adv-x="164" d=" M88,-9 L99,289 L133,289 L144,-9 L144,-198 L88,-198 M164,468 Q164,424 150.5,409.5 Q137,395 114,395 Q91,395 77.5,409.5 Q64,424 64,446 Q64,468 77.5,482.5 Q91,497 114,497 Q137,497 164,468"/> 
            <glyph glyph-name="¢" unicode="&#xA2;" horiz-adv-x="453" d=" M107,135 Q107,347 151.5,416.5 Q196,486 285,495 L285,578 L336,578 L336,496 Q403,489 453,461 L435,418 Q395,440 336,446 L336,36 Q395,41 435,64 L453,21 Q403,-7 336,-14 L336,-96 L285,-96 L285,-13 Q196,-4 107,135 M164,241 Q164,166 193,107.5 Q222,49 285,37 L285,444 Q222,432 193,373.5 Q164,315 164,241"/> 
            <glyph glyph-name="£" unicode="&#xA3;" horiz-adv-x="464" d=" M85,356 L159,356 Q142,467 142,516 Q142,604 190,649.5 Q238,695 314,695 Q387,695 458,649 L435,601 Q374,640 314,640 Q265,640 233,610 Q201,580 201,516 Q201,466 218,356 L401,356 L401,308 L226,308 Q238,216 238,181 Q238,132 220.5,100.5 Q203,69 180,56 L180,54 L464,54 L464,0 L95,0 L95,46 Q179,90 179,180 Q179,214 167,308 L85,308"/> 
            <glyph glyph-name="¤" unicode="&#xA4;" horiz-adv-x="491" d=" M436,270 Q436,206 410,160 L491,73 L456,37 L377,122 Q337,85 270,85 Q208,85 170,117 L96,37 L61,74 L135,154 Q105,202 105,270 Q105,338 135,386 L60,467 L95,503 L169,422 Q210,455 270,455 Q336,455 377,417 L457,503 L491,466 L410,379 Q436,333 436,270 M159,326 Q159,214 186,174.5 Q213,135 270,135 Q329,135 355.5,174 Q382,213 382,270 Q382,327 355.5,366 Q329,405 270,405 Q213,405 159,326"/> 
            <glyph glyph-name="¥" unicode="&#xA5;" horiz-adv-x="500" d=" M468,157 L304,157 L304,0 L247,0 L247,157 L83,157 L83,205 L247,205 L247,320 L83,320 L83,368 L218,368 L51,673 L51,680 L113,680 L274,376 L276,376 L438,680 L500,680 L500,673 L333,368 L468,368 L468,320 L304,320 L304,205 L468,205"/> 
            <glyph glyph-name="¦" unicode="&#xA6;" horiz-adv-x="143" d=" M92,134 L143,134 L143,-198 L92,-198 M143,368 L92,368 L92,700 L143,700"/> 
            <glyph glyph-name="§" unicode="&#xA7;" horiz-adv-x="440" d=" M428,648 L406,603 Q340,645 261,645 Q200,645 166.5,615.5 Q133,586 133,537 Q133,502 154,478 Q175,454 227,434 L293,408 Q370,378 405,344 Q440,310 440,251 Q440,166 364,115 L364,112 Q440,63 440,-18 Q440,-89 388,-134 Q336,-179 252,-179 Q153,-179 63,-115 L88,-71 Q160,-129 252,-129 Q310,-129 346.5,-100.5 Q383,-72 383,-19 Q383,22 357.5,47.5 Q332,73 271,97 L204,123 Q136,149 106,183.5 Q76,218 76,268 Q76,356 150,407 L150,410 Q76,458 76,535 Q76,605 126,650 Q176,695 261,695 Q358,695 428,648 M195,387 Q133,348 133,275 Q133,235 157.5,211.5 Q182,188 242,166 L321,136 Q383,175 383,248 Q383,288 358.5,311.5 Q334,335 274,357"/> 
            <glyph glyph-name="¨" unicode="&#xA8;" horiz-adv-x="400" d=" M146,608 Q146,648 158,660 Q170,672 188,672 Q206,672 218,660 Q230,648 230,628 Q230,608 218,596 Q206,584 188,584 Q170,584 146,608 M316,608 Q316,648 328,660 Q340,672 358,672 Q376,672 388,660 Q400,648 400,628 Q400,608 388,596 Q376,584 358,584 Q340,584 316,608"/> 
            <glyph glyph-name="©" unicode="&#xA9;" horiz-adv-x="767" d=" M111,475 Q111,205 197,115.5 Q283,26 417,26 Q551,26 637,115.5 Q723,205 723,340 Q723,475 637,564 Q551,653 417,653 Q283,653 111,475 M67,188 Q67,492 165.5,593.5 Q264,695 417,695 Q570,695 668.5,593.5 Q767,492 767,340 Q767,188 668.5,86 Q570,-16 417,-16 Q264,-16 67,188 M245,250 Q245,430 291,482.5 Q337,535 424,535 Q476,535 528,511 L513,468 Q471,485 424,485 Q300,485 300,340 Q300,195 424,195 Q471,195 513,212 L528,169 Q476,145 424,145 Q337,145 245,250"/> 
            <glyph glyph-name="ª" unicode="&#xAA;" horiz-adv-x="300" d=" M251,489 L211,489 Q154,489 132,475.5 Q110,462 110,436 Q110,385 168,385 Q209,385 251,413 M297,350 L261,350 L256,377 L255,377 Q212,343 162,343 Q116,343 89.5,368 Q63,393 63,436 Q63,488 99.5,508.5 Q136,529 202,529 L251,529 L251,547 Q251,621 182,621 Q135,621 100,595 L78,628 Q122,663 183,663 Q297,663 297,547 M300,227 L64,227 L64,267 L300,267"/> 
            <glyph glyph-name="«" unicode="&#xAB;" horiz-adv-x="400" d=" M50,268 L50,272 L190,477 L227,450 L107,270 L226,90 L190,63 M223,268 L223,272 L363,477 L400,450 L280,270 L399,90 L363,63"/> 
            <glyph glyph-name="¬" unicode="&#xAC;" horiz-adv-x="478" d=" M427,113 L427,245 L68,245 L68,293 L478,293 L478,113"/> 
            <glyph glyph-name="­" unicode="&#xAD;" horiz-adv-x="317" d=" M317,247 L80,247 L80,295 L317,295"/> 
            <glyph glyph-name="®" unicode="&#xAE;" horiz-adv-x="510" d=" M101,644 Q101,478 152.5,423.5 Q204,369 285,369 Q366,369 417.5,423.5 Q469,478 469,561 Q469,644 417.5,698.5 Q366,753 285,753 Q204,753 101,644 M243,455 L203,455 L203,673 L291,673 Q365,673 365,611 Q365,557 315,548 L382,460 L382,455 L339,455 L274,543 L243,543 M60,462 Q60,660 123.5,725 Q187,790 285,790 Q383,790 446.5,725 Q510,660 510,561 Q510,462 446.5,397 Q383,332 285,332 Q187,332 60,462 M324,580 Q324,638 289,638 L243,638 L243,580 L289,580"/> 
            <glyph glyph-name="¯" unicode="&#xAF;" horiz-adv-x="387" d=" M387,595 L159,595 L159,643 L387,643"/> 
            <glyph glyph-name="°" unicode="&#xB0;" horiz-adv-x="337" d=" M112,552 Q112,508 136,481.5 Q160,455 198,455 Q237,455 261,481.5 Q285,508 285,552 Q285,595 261,621.5 Q237,648 198,648 Q160,648 136,621.5 Q112,595 112,552 M60,552 Q60,615 98.5,655 Q137,695 198,695 Q259,695 298,655 Q337,615 337,552 Q337,488 298.5,448 Q260,408 198,408 Q137,408 98.5,448 Q60,488 60,552"/> 
            <glyph glyph-name="±" unicode="&#xB1;" horiz-adv-x="485" d=" M300,626 L300,421 L485,421 L485,373 L300,373 L300,167 L249,167 L249,373 L64,373 L64,421 L249,421 L249,626 M65,48 L485,48 L485,0 L65,0"/> 
            <glyph glyph-name="²" unicode="&#xB2;" horiz-adv-x="247" d=" M107,517 L107,516 L247,516 L247,473 L37,473 L37,508 L149,619 Q193,661 193,700 Q193,730 177,745.5 Q161,761 133,761 Q99,761 61,725 L36,761 Q82,807 134,807 Q183,807 213.5,778.5 Q244,750 244,703 Q244,647 193,598"/> 
            <glyph glyph-name="³" unicode="&#xB3;" horiz-adv-x="253" d=" M77,617 L77,660 L127,660 Q195,660 195,710 Q195,761 133,761 Q90,761 56,742 L41,784 Q81,807 135,807 Q186,807 217,783 Q248,759 248,717 Q248,690 233.5,670 Q219,650 198,642 L198,641 Q253,620 253,561 Q253,516 219.5,490.5 Q186,465 131,465 Q77,465 33,489 L47,532 Q87,511 130,511 Q202,511 202,565 Q202,617 127,617"/> 
            <glyph glyph-name="´" unicode="&#xB4;" horiz-adv-x="326" d=" M326,698 L326,692 L265,581 L217,581 L217,587 L265,698"/> 
            <glyph glyph-name="µ" unicode="&#xB5;" horiz-adv-x="448" d=" M448,0 L405,0 L398,42 L396,42 Q325,-15 242,-15 Q173,-15 135,29 L140,-49 L140,-198 L85,-198 L85,482 L140,482 L140,180 Q140,104 165,69.5 Q190,35 249,35 Q289,35 328,51.5 Q367,68 393,91 L393,482 L448,482"/> 
            <glyph glyph-name="¶" unicode="&#xB6;" horiz-adv-x="450" d=" M153,-198 L153,457 Q105,457 72.5,486 Q40,515 40,567 Q40,621 72,650.5 Q104,680 153,680 L450,680 L450,632 L359,632 L359,-198 L308,-198 L308,632 L204,632 L204,-198"/> 
            <glyph glyph-name="·" unicode="&#xB7;" horiz-adv-x="176" d=" M76,270 Q76,314 89.5,328.5 Q103,343 126,343 Q149,343 162.5,328.5 Q176,314 176,292 Q176,270 162.5,255.5 Q149,241 126,241 Q103,241 76,270"/> 
            <glyph glyph-name="¸" unicode="&#xB8;" horiz-adv-x="364" d=" M248,-85 L243,-79 L266,7 L313,7 L296,-50 Q326,-53 345,-71.5 Q364,-90 364,-123 Q364,-167 336.5,-190 Q309,-213 266,-213 Q226,-213 193,-194 L206,-152 Q231,-168 264,-168 Q311,-168 311,-123 Q311,-101 295.5,-93 Q280,-85 248,-85"/> 
            <glyph glyph-name="¹" unicode="&#xB9;" horiz-adv-x="167" d=" M33,701 L27,701 L27,746 L132,800 L167,800 L167,473 L121,473 L121,744 L120,744"/> 
            <glyph glyph-name="º" unicode="&#xBA;" horiz-adv-x="330" d=" M93,383 Q283,383 283,502 Q283,556 259.5,588.5 Q236,621 188,621 Q140,621 116.5,588.5 Q93,556 93,502 M116,663 Q260,663 295,618 Q330,573 330,502 Q330,431 295,386 Q260,341 188,341 Q116,341 81,386 Q46,431 46,502 Q46,573 116,663 M306,227 L70,227 L70,267 L306,267"/> 
            <glyph glyph-name="»" unicode="&#xBB;" horiz-adv-x="409" d=" M236,272 L236,268 L96,63 L60,90 L178,270 L58,450 L96,477 M409,272 L409,268 L269,63 L233,90 L351,270 L231,450 L269,477"/> 
            <glyph glyph-name="¼" unicode="&#xBC;" horiz-adv-x="603" d=" M150,0 L99,0 L99,6 L479,680 L531,680 L531,674 M50,581 L44,581 L44,626 L149,680 L184,680 L184,353 L138,353 L138,624 L137,624 M519,113 L519,239 L565,239 L565,113 L603,113 L603,70 L565,70 L565,0 L519,0 L519,70 L353,70 L353,110 L448,327 L499,327 L406,114 L406,113"/> 
            <glyph glyph-name="½" unicode="&#xBD;" horiz-adv-x="607" d=" M150,0 L99,0 L99,6 L479,680 L531,680 L531,674 M52,579 L46,579 L46,624 L151,678 L186,678 L186,351 L140,351 L140,622 L139,622 M467,44 L467,43 L607,43 L607,0 L397,0 L397,35 L509,146 Q553,188 553,227 Q553,257 537,272.5 Q521,288 493,288 Q459,288 421,252 L396,288 Q442,334 494,334 Q543,334 573.5,305.5 Q604,277 604,230 Q604,174 553,125"/> 
            <glyph glyph-name="¾" unicode="&#xBE;" horiz-adv-x="642" d=" M204,0 L153,0 L153,6 L533,680 L585,680 L585,674 M558,113 L558,239 L604,239 L604,113 L642,113 L642,70 L604,70 L604,0 L558,0 L558,70 L392,70 L392,110 L487,327 L538,327 L445,114 L445,113 M96,494 L96,537 L146,537 Q214,537 214,587 Q214,638 152,638 Q109,638 75,619 L60,661 Q100,684 154,684 Q205,684 236,660 Q267,636 267,594 Q267,567 252.5,547 Q238,527 217,519 L217,518 Q272,497 272,438 Q272,393 238.5,367.5 Q205,342 150,342 Q96,342 52,366 L66,409 Q106,388 149,388 Q221,388 221,442 Q221,494 146,494"/> 
            <glyph glyph-name="¿" unicode="&#xBF;" horiz-adv-x="383" d=" M357,-113 L383,-156 Q310,-213 227,-213 Q145,-213 97,-159.5 Q49,-106 49,-25 Q49,117 208,179 L215,285 L263,285 L265,144 Q189,118 148.5,81 Q108,44 108,-24 Q108,-84 139,-121 Q170,-158 227,-158 Q297,-158 357,-113 M285,450 Q285,427 273,414.5 Q261,402 239,402 Q218,402 206,415 Q194,428 194,450 Q194,472 206,484.5 Q218,497 239,497 Q261,497 273,484.5 Q285,472 285,450"/> 
            <glyph glyph-name="À" unicode="&#xC0;" horiz-adv-x="553" d=" M317,680 L553,0 L495,0 L432,180 L145,180 L82,0 L24,0 L260,680 M290,613 L287,613 L238,452 L162,232 L415,232 L339,452 M202,857 L202,863 L265,863 L311,751 L311,745 L261,745"/> 
            <glyph glyph-name="Á" unicode="&#xC1;" horiz-adv-x="553" d=" M317,680 L553,0 L495,0 L432,180 L145,180 L82,0 L24,0 L260,680 M290,613 L287,613 L238,452 L162,232 L415,232 L339,452 M373,863 L373,857 L314,745 L264,745 L264,751 L310,863"/> 
            <glyph glyph-name="Â" unicode="&#xC2;" horiz-adv-x="553" d=" M317,680 L553,0 L495,0 L432,180 L145,180 L82,0 L24,0 L260,680 M290,613 L287,613 L238,452 L162,232 L415,232 L339,452 M313,863 L406,751 L406,745 L350,745 L288,818 L227,745 L171,745 L171,751 L264,863"/> 
            <glyph glyph-name="Ã" unicode="&#xC3;" horiz-adv-x="553" d=" M317,680 L553,0 L495,0 L432,180 L145,180 L82,0 L24,0 L260,680 M290,613 L287,613 L238,452 L162,232 L415,232 L339,452 M187,765 L164,798 Q197,848 240,848 Q259,848 293.5,828.5 Q328,809 340,809 Q368,809 392,844 L414,811 Q382,761 339,761 Q319,761 285,780.5 Q251,800 238,800 Q209,800 187,765"/> 
            <glyph glyph-name="Ä" unicode="&#xC4;" horiz-adv-x="553" d=" M317,680 L553,0 L495,0 L432,180 L145,180 L82,0 L24,0 L260,680 M290,613 L287,613 L238,452 L162,232 L415,232 L339,452 M161,784 Q161,824 172.5,836 Q184,848 203,848 Q222,848 233.5,836 Q245,824 245,804 Q245,784 233.5,772 Q222,760 203,760 Q184,760 161,784 M331,784 Q331,824 342.5,836 Q354,848 373,848 Q392,848 403.5,836 Q415,824 415,804 Q415,784 403.5,772 Q392,760 373,760 Q354,760 331,784"/> 
            <glyph glyph-name="Å" unicode="&#xC5;" horiz-adv-x="553" d=" M207,724 Q207,761 229.5,783 Q252,805 288,805 Q324,805 346.5,783 Q369,761 369,724 Q369,670 327,651 L553,0 L495,0 L432,180 L145,180 L82,0 L24,0 L250,651 Q207,671 207,724 M290,613 L287,613 L238,452 L162,232 L415,232 L339,452 M246,767 Q246,681 288,681 Q331,681 331,724 Q331,767 288,767"/> 
            <glyph glyph-name="Æ" unicode="&#xC6;" horiz-adv-x="781" d=" M781,53 L781,0 L393,0 L393,194 L178,194 L71,0 L10,0 L10,6 L383,680 L778,680 L778,627 L449,627 L449,376 L750,376 L750,323 L449,323 L449,53 M399,611 L397,611 L332,473 L206,245 L393,245 L393,467"/> 
            <glyph glyph-name="Ç" unicode="&#xC7;" horiz-adv-x="505" d=" M284,-85 L279,-79 L297,-11 Q186,6 127.5,97.5 Q69,189 69,340 Q69,507 141.5,601 Q214,695 348,695 Q430,695 505,652 L485,605 Q421,640 348,640 Q239,640 183.5,561 Q128,482 128,340 Q128,198 183.5,119 Q239,40 348,40 Q421,40 485,75 L505,28 Q430,-15 348,-15 L342,-15 L332,-50 Q362,-53 381,-71.5 Q400,-90 400,-123 Q400,-167 372.5,-190 Q345,-213 302,-213 Q262,-213 229,-194 L242,-152 Q267,-168 300,-168 Q347,-168 347,-123 Q347,-101 331.5,-93 Q316,-85 284,-85"/> 
            <glyph glyph-name="È" unicode="&#xC8;" horiz-adv-x="487" d=" M102,680 L484,680 L484,627 L158,627 L158,375 L455,375 L455,322 L158,322 L158,53 L487,53 L487,0 L102,0 M210,857 L210,863 L273,863 L319,751 L319,745 L269,745"/> 
            <glyph glyph-name="É" unicode="&#xC9;" horiz-adv-x="487" d=" M102,680 L484,680 L484,627 L158,627 L158,375 L455,375 L455,322 L158,322 L158,53 L487,53 L487,0 L102,0 M376,863 L376,857 L317,745 L267,745 L267,751 L313,863"/> 
            <glyph glyph-name="Ê" unicode="&#xCA;" horiz-adv-x="487" d=" M102,680 L484,680 L484,627 L158,627 L158,375 L455,375 L455,322 L158,322 L158,53 L487,53 L487,0 L102,0 M321,863 L414,751 L414,745 L358,745 L296,818 L235,745 L179,745 L179,751 L272,863"/> 
            <glyph glyph-name="Ë" unicode="&#xCB;" horiz-adv-x="487" d=" M102,680 L484,680 L484,627 L158,627 L158,375 L455,375 L455,322 L158,322 L158,53 L487,53 L487,0 L102,0 M165,784 Q165,824 176.5,836 Q188,848 207,848 Q226,848 237.5,836 Q249,824 249,804 Q249,784 237.5,772 Q226,760 207,760 Q188,760 165,784 M335,784 Q335,824 346.5,836 Q358,848 377,848 Q396,848 407.5,836 Q419,824 419,804 Q419,784 407.5,772 Q396,760 377,760 Q358,760 335,784"/> 
            <glyph glyph-name="Ì" unicode="&#xCC;" horiz-adv-x="158" d=" M158,680 L158,0 L102,0 L102,680 M41,857 L41,863 L104,863 L150,751 L150,745 L100,745"/> 
            <glyph glyph-name="Í" unicode="&#xCD;" horiz-adv-x="216" d=" M158,680 L158,0 L102,0 L102,680 M216,863 L216,857 L157,745 L107,745 L107,751 L153,863"/> 
            <glyph glyph-name="Î" unicode="&#xCE;" horiz-adv-x="246" d=" M158,680 L158,0 L102,0 L102,680 M153,863 L246,751 L246,745 L190,745 L128,818 L67,745 L11,745 L11,751 L104,863"/> 
            <glyph glyph-name="Ï" unicode="&#xCF;" horiz-adv-x="253" d=" M158,680 L158,0 L102,0 L102,680 M-1,784 Q-1,824 10.5,836 Q22,848 41,848 Q60,848 71.5,836 Q83,824 83,804 Q83,784 71.5,772 Q60,760 41,760 Q22,760 -1,784 M169,784 Q169,824 180.5,836 Q192,848 211,848 Q230,848 241.5,836 Q253,824 253,804 Q253,784 241.5,772 Q230,760 211,760 Q192,760 169,784"/> 
            <glyph glyph-name="Ð" unicode="&#xD0;" horiz-adv-x="582" d=" M102,0 L102,309 L54,309 L54,362 L102,362 L102,680 L258,680 Q427,680 504.5,593.5 Q582,507 582,340 Q582,173 504.5,86.5 Q427,0 258,0 M158,53 L247,53 Q400,53 461.5,123 Q523,193 523,340 Q523,487 461.5,557 Q400,627 247,627 L158,627 L158,362 L311,362 L311,309 L158,309"/> 
            <glyph glyph-name="Ñ" unicode="&#xD1;" horiz-adv-x="565" d=" M514,99 L509,217 L509,680 L565,680 L565,0 L511,0 L153,581 L151,581 L158,463 L158,0 L102,0 L102,680 L156,680 L512,99 M235,765 L212,798 Q245,848 288,848 Q307,848 341.5,828.5 Q376,809 388,809 Q416,809 440,844 L462,811 Q430,761 387,761 Q367,761 333,780.5 Q299,800 286,800 Q257,800 235,765"/> 
            <glyph glyph-name="Ò" unicode="&#xD2;" horiz-adv-x="596" d=" M129,407 Q129,273 139,221 Q149,169 171.5,127 Q194,85 234.5,62.5 Q275,40 333,40 Q391,40 431.5,62.5 Q472,85 494.5,127 Q517,169 527,221 Q537,273 537,340 Q537,407 527,459 Q517,511 494.5,553 Q472,595 431.5,617.5 Q391,640 333,640 Q275,640 234.5,617.5 Q194,595 171.5,553 Q149,511 129,407 M70,262 Q70,418 84,480.5 Q98,543 128,592 Q158,641 210,668 Q262,695 333,695 Q404,695 456,668 Q508,641 538,592 Q568,543 582,480.5 Q596,418 596,340 Q596,262 582,199.5 Q568,137 538,88 Q508,39 456,12 Q404,-15 333,-15 Q262,-15 210,12 Q158,39 128,88 Q98,137 70,262 M249,857 L249,863 L312,863 L358,751 L358,745 L308,745"/> 
            <glyph glyph-name="Ó" unicode="&#xD3;" horiz-adv-x="596" d=" M129,407 Q129,273 139,221 Q149,169 171.5,127 Q194,85 234.5,62.5 Q275,40 333,40 Q391,40 431.5,62.5 Q472,85 494.5,127 Q517,169 527,221 Q537,273 537,340 Q537,407 527,459 Q517,511 494.5,553 Q472,595 431.5,617.5 Q391,640 333,640 Q275,640 234.5,617.5 Q194,595 171.5,553 Q149,511 129,407 M70,262 Q70,418 84,480.5 Q98,543 128,592 Q158,641 210,668 Q262,695 333,695 Q404,695 456,668 Q508,641 538,592 Q568,543 582,480.5 Q596,418 596,340 Q596,262 582,199.5 Q568,137 538,88 Q508,39 456,12 Q404,-15 333,-15 Q262,-15 210,12 Q158,39 128,88 Q98,137 70,262 M416,863 L416,857 L357,745 L307,745 L307,751 L353,863"/> 
            <glyph glyph-name="Ô" unicode="&#xD4;" horiz-adv-x="596" d=" M129,407 Q129,273 139,221 Q149,169 171.5,127 Q194,85 234.5,62.5 Q275,40 333,40 Q391,40 431.5,62.5 Q472,85 494.5,127 Q517,169 527,221 Q537,273 537,340 Q537,407 527,459 Q517,511 494.5,553 Q472,595 431.5,617.5 Q391,640 333,640 Q275,640 234.5,617.5 Q194,595 171.5,553 Q149,511 129,407 M70,262 Q70,418 84,480.5 Q98,543 128,592 Q158,641 210,668 Q262,695 333,695 Q404,695 456,668 Q508,641 538,592 Q568,543 582,480.5 Q596,418 596,340 Q596,262 582,199.5 Q568,137 538,88 Q508,39 456,12 Q404,-15 333,-15 Q262,-15 210,12 Q158,39 128,88 Q98,137 70,262 M357,863 L450,751 L450,745 L394,745 L332,818 L271,745 L215,745 L215,751 L308,863"/> 
            <glyph glyph-name="Õ" unicode="&#xD5;" horiz-adv-x="596" d=" M129,407 Q129,273 139,221 Q149,169 171.5,127 Q194,85 234.5,62.5 Q275,40 333,40 Q391,40 431.5,62.5 Q472,85 494.5,127 Q517,169 527,221 Q537,273 537,340 Q537,407 527,459 Q517,511 494.5,553 Q472,595 431.5,617.5 Q391,640 333,640 Q275,640 234.5,617.5 Q194,595 171.5,553 Q149,511 129,407 M70,262 Q70,418 84,480.5 Q98,543 128,592 Q158,641 210,668 Q262,695 333,695 Q404,695 456,668 Q508,641 538,592 Q568,543 582,480.5 Q596,418 596,340 Q596,262 582,199.5 Q568,137 538,88 Q508,39 456,12 Q404,-15 333,-15 Q262,-15 210,12 Q158,39 128,88 Q98,137 70,262 M229,765 L206,798 Q239,848 282,848 Q301,848 335.5,828.5 Q370,809 382,809 Q410,809 434,844 L456,811 Q424,761 381,761 Q361,761 327,780.5 Q293,800 280,800 Q251,800 229,765"/> 
            <glyph glyph-name="Ö" unicode="&#xD6;" horiz-adv-x="596" d=" M129,407 Q129,273 139,221 Q149,169 171.5,127 Q194,85 234.5,62.5 Q275,40 333,40 Q391,40 431.5,62.5 Q472,85 494.5,127 Q517,169 527,221 Q537,273 537,340 Q537,407 527,459 Q517,511 494.5,553 Q472,595 431.5,617.5 Q391,640 333,640 Q275,640 234.5,617.5 Q194,595 171.5,553 Q149,511 129,407 M70,262 Q70,418 84,480.5 Q98,543 128,592 Q158,641 210,668 Q262,695 333,695 Q404,695 456,668 Q508,641 538,592 Q568,543 582,480.5 Q596,418 596,340 Q596,262 582,199.5 Q568,137 538,88 Q508,39 456,12 Q404,-15 333,-15 Q262,-15 210,12 Q158,39 128,88 Q98,137 70,262 M204,784 Q204,824 216,836 Q228,848 246,848 Q264,848 276,836 Q288,824 288,804 Q288,784 276,772 Q264,760 246,760 Q228,760 204,784 M374,784 Q374,824 386,836 Q398,848 416,848 Q434,848 446,836 Q458,824 458,804 Q458,784 446,772 Q434,760 416,760 Q398,760 374,784"/> 
            <glyph glyph-name="×" unicode="&#xD7;" horiz-adv-x="461" d=" M120,457 L274,301 L429,457 L461,425 L307,269 L461,114 L427,82 L274,236 L122,82 L88,114 L242,269 L88,425"/> 
            <glyph glyph-name="Ø" unicode="&#xD8;" horiz-adv-x="596" d=" M70,340 Q70,418 84,480.5 Q98,543 128,592 Q158,641 210,668 Q262,695 333,695 Q430,695 494,641 L534,705 L576,680 L529,604 Q596,511 596,340 Q596,262 582,199.5 Q568,137 538,88 Q508,39 456,12 Q404,-15 333,-15 Q238,-15 178,33 L145,-20 L103,7 L141,69 Q70,159 70,340 M129,340 Q129,196 174,122 L464,592 Q414,640 333,640 Q275,640 234.5,617.5 Q194,595 171.5,553 Q149,511 139,459 Q129,407 129,340 M537,340 Q537,478 496,550 L207,81 Q256,40 333,40 Q391,40 431.5,62.5 Q472,85 494.5,127 Q517,169 527,221 Q537,273 537,340"/> 
            <glyph glyph-name="Ù" unicode="&#xD9;" horiz-adv-x="557" d=" M443,-15 Q211,-15 154,49 Q97,113 97,230 L97,680 L153,680 L153,235 Q153,40 327,40 Q501,40 501,235 L501,680 L557,680 L557,230 Q557,113 443,-15 M244,857 L244,863 L307,863 L353,751 L353,745 L303,745"/> 
            <glyph glyph-name="Ú" unicode="&#xDA;" horiz-adv-x="557" d=" M443,-15 Q211,-15 154,49 Q97,113 97,230 L97,680 L153,680 L153,235 Q153,40 327,40 Q501,40 501,235 L501,680 L557,680 L557,230 Q557,113 443,-15 M405,863 L405,857 L346,745 L296,745 L296,751 L342,863"/> 
            <glyph glyph-name="Û" unicode="&#xDB;" horiz-adv-x="557" d=" M443,-15 Q211,-15 154,49 Q97,113 97,230 L97,680 L153,680 L153,235 Q153,40 327,40 Q501,40 501,235 L501,680 L557,680 L557,230 Q557,113 443,-15 M351,863 L444,751 L444,745 L388,745 L326,818 L265,745 L209,745 L209,751 L302,863"/> 
            <glyph glyph-name="Ü" unicode="&#xDC;" horiz-adv-x="557" d=" M443,-15 Q211,-15 154,49 Q97,113 97,230 L97,680 L153,680 L153,235 Q153,40 327,40 Q501,40 501,235 L501,680 L557,680 L557,230 Q557,113 443,-15 M197,784 Q197,824 208.5,836 Q220,848 239,848 Q258,848 269.5,836 Q281,824 281,804 Q281,784 269.5,772 Q258,760 239,760 Q220,760 197,784 M367,784 Q367,824 378.5,836 Q390,848 409,848 Q428,848 439.5,836 Q451,824 451,804 Q451,784 439.5,772 Q428,760 409,760 Q390,760 367,784"/> 
            <glyph glyph-name="Ý" unicode="&#xDD;" horiz-adv-x="497" d=" M23,680 L84,680 L259,349 L261,349 L436,680 L497,680 L497,674 L288,288 L288,0 L232,0 L232,288 L23,674 M347,863 L347,857 L288,745 L238,745 L238,751 L284,863"/> 
            <glyph glyph-name="Þ" unicode="&#xDE;" horiz-adv-x="505" d=" M158,0 L102,0 L102,680 L158,680 L158,552 L306,552 Q404,552 454.5,500.5 Q505,449 505,351 Q505,253 454,202 Q403,151 306,151 L158,151 M158,499 L158,204 L300,204 Q446,204 446,351 Q446,499 300,499"/> 
            <glyph glyph-name="ß" unicode="&#xDF;" horiz-adv-x="504" d=" M87,496 Q87,596 136.5,650.5 Q186,705 275,705 Q355,705 401,655 Q447,605 447,527 Q447,425 373,384 L373,382 Q432,367 468,320 Q504,273 504,192 Q504,92 449,38.5 Q394,-15 299,-15 Q270,-15 253,-10 L253,39 Q270,35 299,35 Q370,35 408.5,74 Q447,113 447,192 Q447,264 410,308.5 Q373,353 296,353 L272,353 L272,400 L297,400 Q342,400 366,433 Q390,466 390,526 Q390,583 361,619 Q332,655 277,655 Q142,655 142,495 L142,0 L87,0"/> 
            <glyph glyph-name="à" unicode="&#xE0;" horiz-adv-x="397" d=" M342,233 L249,233 Q110,233 110,131 Q110,37 205,37 Q288,37 342,84 M397,0 L354,0 L348,39 L346,39 Q278,-13 196,-13 Q131,-13 92,25 Q53,63 53,129 Q53,208 105,244 Q157,280 243,280 L342,280 L342,318 Q342,447 223,447 Q153,447 101,402 L76,443 Q138,497 223,497 Q307,497 352,451 Q397,405 397,317 M151,692 L151,698 L212,698 L261,587 L261,581 L212,581"/> 
            <glyph glyph-name="á" unicode="&#xE1;" horiz-adv-x="397" d=" M342,233 L249,233 Q110,233 110,131 Q110,37 205,37 Q288,37 342,84 M397,0 L354,0 L348,39 L346,39 Q278,-13 196,-13 Q131,-13 92,25 Q53,63 53,129 Q53,208 105,244 Q157,280 243,280 L342,280 L342,318 Q342,447 223,447 Q153,447 101,402 L76,443 Q138,497 223,497 Q307,497 352,451 Q397,405 397,317 M315,698 L315,692 L254,581 L206,581 L206,587 L254,698"/> 
            <glyph glyph-name="â" unicode="&#xE2;" horiz-adv-x="397" d=" M342,233 L249,233 Q110,233 110,131 Q110,37 205,37 Q288,37 342,84 M397,0 L354,0 L348,39 L346,39 Q278,-13 196,-13 Q131,-13 92,25 Q53,63 53,129 Q53,208 105,244 Q157,280 243,280 L342,280 L342,318 Q342,447 223,447 Q153,447 101,402 L76,443 Q138,497 223,497 Q307,497 352,451 Q397,405 397,317 M258,698 L351,586 L351,581 L296,581 L233,654 L171,581 L116,581 L116,586 L209,698"/> 
            <glyph glyph-name="ã" unicode="&#xE3;" horiz-adv-x="397" d=" M342,233 L249,233 Q110,233 110,131 Q110,37 205,37 Q288,37 342,84 M397,0 L354,0 L348,39 L346,39 Q278,-13 196,-13 Q131,-13 92,25 Q53,63 53,129 Q53,208 105,244 Q157,280 243,280 L342,280 L342,318 Q342,447 223,447 Q153,447 101,402 L76,443 Q138,497 223,497 Q307,497 352,451 Q397,405 397,317 M133,584 L110,616 Q142,666 186,666 Q205,666 239.5,646.5 Q274,627 286,627 Q313,627 338,662 L360,630 Q329,581 285,581 Q265,581 231,600.5 Q197,620 184,620 Q157,620 133,584"/> 
            <glyph glyph-name="ä" unicode="&#xE4;" horiz-adv-x="397" d=" M342,233 L249,233 Q110,233 110,131 Q110,37 205,37 Q288,37 342,84 M397,0 L354,0 L348,39 L346,39 Q278,-13 196,-13 Q131,-13 92,25 Q53,63 53,129 Q53,208 105,244 Q157,280 243,280 L342,280 L342,318 Q342,447 223,447 Q153,447 101,402 L76,443 Q138,497 223,497 Q307,497 352,451 Q397,405 397,317 M107,608 Q107,648 118.5,660 Q130,672 149,672 Q168,672 179.5,660 Q191,648 191,628 Q191,608 179.5,596 Q168,584 149,584 Q130,584 107,608 M277,608 Q277,648 288.5,660 Q300,672 319,672 Q338,672 349.5,660 Q361,648 361,628 Q361,608 349.5,596 Q338,584 319,584 Q300,584 277,608"/> 
            <glyph glyph-name="å" unicode="&#xE5;" horiz-adv-x="397" d=" M342,233 L249,233 Q110,233 110,131 Q110,37 205,37 Q288,37 342,84 M397,0 L354,0 L348,39 L346,39 Q278,-13 196,-13 Q131,-13 92,25 Q53,63 53,129 Q53,208 105,244 Q157,280 243,280 L342,280 L342,318 Q342,447 223,447 Q153,447 101,402 L76,443 Q138,497 223,497 Q307,497 352,451 Q397,405 397,317 M191,625 Q191,581 233,581 Q253,581 264.5,592.5 Q276,604 276,625 Q276,645 264.5,656.5 Q253,668 233,668 Q213,668 202,656.5 Q191,645 191,625 M152,625 Q152,661 174.5,683.5 Q197,706 233,706 Q269,706 291.5,684 Q314,662 314,625 Q314,588 291.5,565.5 Q269,543 233,543 Q197,543 174.5,565.5 Q152,588 152,625"/> 
            <glyph glyph-name="æ" unicode="&#xE6;" horiz-adv-x="736" d=" M736,294 Q736,270 731,232 L398,232 Q400,141 440.5,88 Q481,35 559,35 Q632,35 695,82 L718,40 Q646,-15 557,-15 Q422,-15 371,106 Q330,-15 196,-15 Q131,-15 92,24 Q53,63 53,129 Q53,208 105,243.5 Q157,279 243,279 L342,279 L342,318 Q342,447 223,447 Q153,447 101,402 L76,443 Q138,497 223,497 Q346,497 380,398 Q431,497 551,497 Q645,497 690.5,437.5 Q736,378 736,294 M678,279 Q679,285 679,300 Q679,364 648,405.5 Q617,447 551,447 Q486,447 446,404 Q406,361 399,279 M205,35 Q342,35 342,232 L249,232 Q179,232 144.5,208 Q110,184 110,131 Q110,35 205,35"/> 
            <glyph glyph-name="ç" unicode="&#xE7;" horiz-adv-x="407" d=" M220,-85 L215,-79 L232,-12 Q146,0 103.5,68.5 Q61,137 61,241 Q61,355 112.5,426 Q164,497 266,497 Q346,497 407,461 L389,418 Q338,447 267,447 Q190,447 154,385.5 Q118,324 118,241 Q118,158 154,96.5 Q190,35 267,35 Q338,35 389,64 L407,21 Q350,-12 278,-15 L268,-50 Q298,-53 317,-71.5 Q336,-90 336,-123 Q336,-167 308.5,-190 Q281,-213 238,-213 Q198,-213 165,-194 L178,-152 Q203,-168 236,-168 Q283,-168 283,-123 Q283,-101 267.5,-93 Q252,-85 220,-85"/> 
            <glyph glyph-name="è" unicode="&#xE8;" horiz-adv-x="454" d=" M449,231 L116,231 Q118,140 158.5,87.5 Q199,35 277,35 Q350,35 413,82 L436,40 Q364,-15 275,-15 Q168,-15 114.5,55.5 Q61,126 61,243 Q61,358 114.5,427.5 Q168,497 269,497 Q363,497 408.5,437.5 Q454,378 454,294 Q454,268 449,231 M269,447 Q204,447 164,403.5 Q124,360 117,278 L396,278 Q397,284 397,300 Q397,364 366,405.5 Q335,447 269,447 M192,692 L192,698 L253,698 L302,587 L302,581 L253,581"/> 
            <glyph glyph-name="é" unicode="&#xE9;" horiz-adv-x="454" d=" M449,231 L116,231 Q118,140 158.5,87.5 Q199,35 277,35 Q350,35 413,82 L436,40 Q364,-15 275,-15 Q168,-15 114.5,55.5 Q61,126 61,243 Q61,358 114.5,427.5 Q168,497 269,497 Q363,497 408.5,437.5 Q454,378 454,294 Q454,268 449,231 M269,447 Q204,447 164,403.5 Q124,360 117,278 L396,278 Q397,284 397,300 Q397,364 366,405.5 Q335,447 269,447 M361,698 L361,692 L300,581 L252,581 L252,587 L300,698"/> 
            <glyph glyph-name="ê" unicode="&#xEA;" horiz-adv-x="454" d=" M449,231 L116,231 Q118,140 158.5,87.5 Q199,35 277,35 Q350,35 413,82 L436,40 Q364,-15 275,-15 Q168,-15 114.5,55.5 Q61,126 61,243 Q61,358 114.5,427.5 Q168,497 269,497 Q363,497 408.5,437.5 Q454,378 454,294 Q454,268 449,231 M269,447 Q204,447 164,403.5 Q124,360 117,278 L396,278 Q397,284 397,300 Q397,364 366,405.5 Q335,447 269,447 M300,698 L393,586 L393,581 L338,581 L275,654 L213,581 L158,581 L158,586 L251,698"/> 
            <glyph glyph-name="ë" unicode="&#xEB;" horiz-adv-x="454" d=" M449,231 L116,231 Q118,140 158.5,87.5 Q199,35 277,35 Q350,35 413,82 L436,40 Q364,-15 275,-15 Q168,-15 114.5,55.5 Q61,126 61,243 Q61,358 114.5,427.5 Q168,497 269,497 Q363,497 408.5,437.5 Q454,378 454,294 Q454,268 449,231 M269,447 Q204,447 164,403.5 Q124,360 117,278 L396,278 Q397,284 397,300 Q397,364 366,405.5 Q335,447 269,447 M149,608 Q149,648 160.5,660 Q172,672 191,672 Q210,672 221.5,660 Q233,648 233,628 Q233,608 221.5,596 Q210,584 191,584 Q172,584 149,608 M319,608 Q319,648 330.5,660 Q342,672 361,672 Q380,672 391.5,660 Q403,648 403,628 Q403,608 391.5,596 Q380,584 361,584 Q342,584 319,608"/> 
            <glyph glyph-name="ì" unicode="&#xEC;" horiz-adv-x="142" d=" M30,692 L30,698 L91,698 L140,587 L140,581 L91,581 M142,0 L88,0 L88,482 L142,482"/> 
            <glyph glyph-name="í" unicode="&#xED;" horiz-adv-x="201" d=" M201,698 L201,692 L140,581 L92,581 L92,587 L140,698 M141,0 L87,0 L87,482 L141,482"/> 
            <glyph glyph-name="î" unicode="&#xEE;" horiz-adv-x="233" d=" M142,0 L88,0 L88,482 L142,482 M140,698 L233,586 L233,581 L178,581 L115,654 L53,581 L-2,581 L-2,586 L91,698"/> 
            <glyph glyph-name="ï" unicode="&#xEF;" horiz-adv-x="242" d=" M-12,608 Q-12,648 0,660 Q12,672 30,672 Q48,672 60,660 Q72,648 72,628 Q72,608 60,596 Q48,584 30,584 Q12,584 -12,608 M158,608 Q158,648 170,660 Q182,672 200,672 Q218,672 230,660 Q242,648 242,628 Q242,608 230,596 Q218,584 200,584 Q182,584 158,608 M142,0 L88,0 L88,482 L142,482"/> 
            <glyph glyph-name="ð" unicode="&#xF0;" horiz-adv-x="492" d=" M417,605 L348,585 Q492,402 492,235 Q492,121 434.5,53 Q377,-15 277,-15 Q178,-15 119.5,52.5 Q61,120 61,227 Q61,337 116.5,403.5 Q172,470 264,470 Q328,470 386,424 L390,426 Q368,486 297,571 L207,546 L193,588 L265,608 Q226,650 180,695 L180,700 L246,700 Q294,650 317,623 L405,649 M118,319 Q118,135 162,85 Q206,35 277,35 Q347,35 391,85 Q435,135 435,227 Q435,319 391,369.5 Q347,420 277,420 Q206,420 118,319"/> 
            <glyph glyph-name="ñ" unicode="&#xF1;" horiz-adv-x="458" d=" M87,482 L131,482 L137,440 L139,440 Q210,497 296,497 Q458,497 458,311 L458,0 L403,0 L403,302 Q403,377 376,412 Q349,447 289,447 Q249,447 209,430.5 Q169,414 142,391 L142,0 L87,0 M173,584 L150,616 Q182,666 226,666 Q245,666 279.5,646.5 Q314,627 326,627 Q353,627 378,662 L400,630 Q369,581 325,581 Q305,581 271,600.5 Q237,620 224,620 Q197,620 173,584"/> 
            <glyph glyph-name="ò" unicode="&#xF2;" horiz-adv-x="482" d=" M119,447 Q119,35 272,35 Q425,35 425,241 Q425,447 119,447 M482,354 Q482,128 432.5,56.5 Q383,-15 272,-15 Q214,-15 172,5.5 Q130,26 106.5,63 Q83,100 72.5,144 Q62,188 62,241 Q62,294 72.5,338 Q83,382 106.5,419 Q130,456 172,476.5 Q214,497 272,497 Q383,497 482,354 M189,692 L189,698 L250,698 L299,587 L299,581 L250,581"/> 
            <glyph glyph-name="ó" unicode="&#xF3;" horiz-adv-x="482" d=" M119,447 Q119,35 272,35 Q425,35 425,241 Q425,447 119,447 M482,354 Q482,128 432.5,56.5 Q383,-15 272,-15 Q214,-15 172,5.5 Q130,26 106.5,63 Q83,100 72.5,144 Q62,188 62,241 Q62,294 72.5,338 Q83,382 106.5,419 Q130,456 172,476.5 Q214,497 272,497 Q383,497 482,354 M352,698 L352,692 L291,581 L243,581 L243,587 L291,698"/> 
            <glyph glyph-name="ô" unicode="&#xF4;" horiz-adv-x="482" d=" M119,447 Q119,35 272,35 Q425,35 425,241 Q425,447 119,447 M482,354 Q482,128 432.5,56.5 Q383,-15 272,-15 Q214,-15 172,5.5 Q130,26 106.5,63 Q83,100 72.5,144 Q62,188 62,241 Q62,294 72.5,338 Q83,382 106.5,419 Q130,456 172,476.5 Q214,497 272,497 Q383,497 482,354 M298,698 L391,586 L391,581 L336,581 L273,654 L211,581 L156,581 L156,586 L249,698"/> 
            <glyph glyph-name="õ" unicode="&#xF5;" horiz-adv-x="482" d=" M119,447 Q119,35 272,35 Q425,35 425,241 Q425,447 119,447 M482,354 Q482,128 432.5,56.5 Q383,-15 272,-15 Q214,-15 172,5.5 Q130,26 106.5,63 Q83,100 72.5,144 Q62,188 62,241 Q62,294 72.5,338 Q83,382 106.5,419 Q130,456 172,476.5 Q214,497 272,497 Q383,497 482,354 M171,584 L148,616 Q180,666 224,666 Q243,666 277.5,646.5 Q312,627 324,627 Q351,627 376,662 L398,630 Q367,581 323,581 Q303,581 269,600.5 Q235,620 222,620 Q195,620 171,584"/> 
            <glyph glyph-name="ö" unicode="&#xF6;" horiz-adv-x="482" d=" M119,447 Q119,35 272,35 Q425,35 425,241 Q425,447 119,447 M482,354 Q482,128 432.5,56.5 Q383,-15 272,-15 Q214,-15 172,5.5 Q130,26 106.5,63 Q83,100 72.5,144 Q62,188 62,241 Q62,294 72.5,338 Q83,382 106.5,419 Q130,456 172,476.5 Q214,497 272,497 Q383,497 482,354 M146,608 Q146,648 158,660 Q170,672 188,672 Q206,672 218,660 Q230,648 230,628 Q230,608 218,596 Q206,584 188,584 Q170,584 146,608 M316,608 Q316,648 328,660 Q340,672 358,672 Q376,672 388,660 Q400,648 400,628 Q400,608 388,596 Q376,584 358,584 Q340,584 316,608"/> 
            <glyph glyph-name="÷" unicode="&#xF7;" horiz-adv-x="485" d=" M65,294 L485,294 L485,246 L65,246 M225,100 Q225,144 238.5,158.5 Q252,173 275,173 Q298,173 311.5,158.5 Q325,144 325,122 Q325,100 311.5,85.5 Q298,71 275,71 Q252,71 225,100 M225,392 Q225,436 238.5,450.5 Q252,465 275,465 Q298,465 311.5,450.5 Q325,436 325,414 Q325,392 311.5,377.5 Q298,363 275,363 Q252,363 225,392"/> 
            <glyph glyph-name="ø" unicode="&#xF8;" horiz-adv-x="482" d=" M120,-25 L85,3 L117,49 Q62,115 62,241 Q62,294 72.5,338 Q83,382 106.5,419 Q130,456 172,476.5 Q214,497 272,497 Q348,497 398,460 L428,504 L467,475 L432,425 Q482,358 482,241 Q482,128 432.5,56.5 Q383,-15 272,-15 Q199,-15 150,18 M119,241 Q119,148 149,97 L367,416 Q331,447 272,447 Q119,447 119,241 M425,241 Q425,325 398,376 L181,62 Q216,35 272,35 Q425,35 425,241"/> 
            <glyph glyph-name="ù" unicode="&#xF9;" horiz-adv-x="446" d=" M446,0 L403,0 L396,42 L394,42 Q323,-15 240,-15 Q83,-15 83,171 L83,482 L138,482 L138,180 Q138,104 163,69.5 Q188,35 247,35 Q287,35 326,51.5 Q365,68 391,91 L391,482 L446,482 M180,692 L180,698 L241,698 L290,587 L290,581 L241,581"/> 
            <glyph glyph-name="ú" unicode="&#xFA;" horiz-adv-x="446" d=" M446,0 L403,0 L396,42 L394,42 Q323,-15 240,-15 Q83,-15 83,171 L83,482 L138,482 L138,180 Q138,104 163,69.5 Q188,35 247,35 Q287,35 326,51.5 Q365,68 391,91 L391,482 L446,482 M349,698 L349,692 L288,581 L240,581 L240,587 L288,698"/> 
            <glyph glyph-name="û" unicode="&#xFB;" horiz-adv-x="446" d=" M446,0 L403,0 L396,42 L394,42 Q323,-15 240,-15 Q83,-15 83,171 L83,482 L138,482 L138,180 Q138,104 163,69.5 Q188,35 247,35 Q287,35 326,51.5 Q365,68 391,91 L391,482 L446,482 M290,698 L383,586 L383,581 L328,581 L265,654 L203,581 L148,581 L148,586 L241,698"/> 
            <glyph glyph-name="ü" unicode="&#xFC;" horiz-adv-x="446" d=" M446,0 L403,0 L396,42 L394,42 Q323,-15 240,-15 Q83,-15 83,171 L83,482 L138,482 L138,180 Q138,104 163,69.5 Q188,35 247,35 Q287,35 326,51.5 Q365,68 391,91 L391,482 L446,482 M137,608 Q137,648 148.5,660 Q160,672 179,672 Q198,672 209.5,660 Q221,648 221,628 Q221,608 209.5,596 Q198,584 179,584 Q160,584 137,608 M307,608 Q307,648 318.5,660 Q330,672 349,672 Q368,672 379.5,660 Q391,648 391,628 Q391,608 379.5,596 Q368,584 349,584 Q330,584 307,608"/> 
            <glyph glyph-name="ý" unicode="&#xFD;" horiz-adv-x="432" d=" M236,60 L239,60 L262,145 L377,482 L432,482 L432,476 L240,-83 Q195,-213 95,-213 Q68,-213 37,-204 L37,-155 Q63,-163 93,-163 Q154,-163 183,-80 L211,2 L32,476 L32,482 L87,482 L212,146 M322,698 L322,692 L261,581 L213,581 L213,587 L261,698"/> 
            <glyph glyph-name="þ" unicode="&#xFE;" horiz-adv-x="475" d=" M418,149 Q418,333 385,390 Q352,447 284,447 Q206,447 142,388 L142,94 Q206,35 284,35 Q352,35 418,149 M87,700 L142,700 L142,441 L144,441 Q209,497 290,497 Q380,497 427.5,426.5 Q475,356 475,241 Q475,126 427.5,55.5 Q380,-15 290,-15 Q209,-15 144,41 L142,41 L142,-198 L87,-198"/> 
            <glyph glyph-name="ÿ" unicode="&#xFF;" horiz-adv-x="432" d=" M236,60 L239,60 L262,145 L377,482 L432,482 L432,476 L240,-83 Q195,-213 95,-213 Q68,-213 37,-204 L37,-155 Q63,-163 93,-163 Q154,-163 183,-80 L211,2 L32,476 L32,482 L87,482 L212,146 M111,608 Q111,648 122.5,660 Q134,672 153,672 Q172,672 183.5,660 Q195,648 195,628 Q195,608 183.5,596 Q172,584 153,584 Q134,584 111,608 M281,608 Q281,648 292.5,660 Q304,672 323,672 Q342,672 353.5,660 Q365,648 365,628 Q365,608 353.5,596 Q342,584 323,584 Q304,584 281,608"/> 
            <glyph glyph-name="Ā" unicode="&#x100;" horiz-adv-x="553" d=" M317,680 L553,0 L495,0 L432,180 L145,180 L82,0 L24,0 L260,680 M290,613 L287,613 L238,452 L162,232 L415,232 L339,452 M403,784 L175,784 L175,833 L403,833"/> 
            <glyph glyph-name="ā" unicode="&#x101;" horiz-adv-x="397" d=" M342,233 L249,233 Q110,233 110,131 Q110,37 205,37 Q288,37 342,84 M397,0 L354,0 L348,39 L346,39 Q278,-13 196,-13 Q131,-13 92,25 Q53,63 53,129 Q53,208 105,244 Q157,280 243,280 L342,280 L342,318 Q342,447 223,447 Q153,447 101,402 L76,443 Q138,497 223,497 Q307,497 352,451 Q397,405 397,317 M348,595 L120,595 L120,643 L348,643"/> 
            <glyph glyph-name="Ă" unicode="&#x102;" horiz-adv-x="553" d=" M317,680 L553,0 L495,0 L432,180 L145,180 L82,0 L24,0 L260,680 M290,613 L287,613 L238,452 L162,232 L415,232 L339,452 M289,813 Q348,813 386,860 L412,835 Q370,764 289,764 Q207,764 167,835 L193,860 Q231,813 289,813"/> 
            <glyph glyph-name="ă" unicode="&#x103;" horiz-adv-x="397" d=" M342,233 L249,233 Q110,233 110,131 Q110,37 205,37 Q288,37 342,84 M397,0 L354,0 L348,39 L346,39 Q278,-13 196,-13 Q131,-13 92,25 Q53,63 53,129 Q53,208 105,244 Q157,280 243,280 L342,280 L342,318 Q342,447 223,447 Q153,447 101,402 L76,443 Q138,497 223,497 Q307,497 352,451 Q397,405 397,317 M235,620 Q294,620 332,667 L358,643 Q316,572 235,572 Q153,572 113,643 L139,667 Q177,620 235,620"/> 
            <glyph glyph-name="Ą" unicode="&#x104;" horiz-adv-x="561" d=" M484,-213 Q446,-213 422.5,-189.5 Q399,-166 399,-129 Q399,-90 423,-59 Q447,-28 493,6 L432,180 L145,180 L82,0 L24,0 L260,680 L317,680 L553,0 Q493,-45 470.5,-68.5 Q448,-92 448,-120 Q448,-140 459.5,-153.5 Q471,-167 492,-167 Q520,-167 554,-144 L561,-186 Q526,-213 484,-213 M290,613 L287,613 L238,452 L162,232 L415,232 L339,452"/> 
            <glyph glyph-name="ą" unicode="&#x105;" horiz-adv-x="405" d=" M342,233 L249,233 Q110,233 110,131 Q110,37 205,37 Q288,37 342,84 M397,0 L354,0 L348,39 L346,39 Q278,-13 196,-13 Q131,-13 92,25 Q53,63 53,129 Q53,208 105,244 Q157,280 243,280 L342,280 L342,318 Q342,447 223,447 Q153,447 101,402 L76,443 Q138,497 223,497 Q307,497 352,451 Q397,405 397,317 M328,-213 Q290,-213 266.5,-189.5 Q243,-166 243,-129 Q243,-104 252,-82.5 Q261,-61 283,-39.5 Q305,-18 321,-5.5 Q337,7 371,31 L397,0 Q337,-45 314.5,-68.5 Q292,-92 292,-120 Q292,-140 303.5,-153.5 Q315,-167 336,-167 Q364,-167 398,-144 L405,-186 Q370,-213 328,-213"/> 
            <glyph glyph-name="Ć" unicode="&#x106;" horiz-adv-x="505" d=" M69,173 Q69,507 141.5,601 Q214,695 348,695 Q430,695 505,652 L485,605 Q421,640 348,640 Q239,640 183.5,561 Q128,482 128,340 Q128,198 183.5,119 Q239,40 348,40 Q421,40 485,75 L505,28 Q430,-15 348,-15 Q214,-15 69,173 M420,863 L420,857 L361,745 L311,745 L311,751 L357,863"/> 
            <glyph glyph-name="ć" unicode="&#x107;" horiz-adv-x="407" d=" M61,127 Q61,355 112.5,426 Q164,497 266,497 Q346,497 407,461 L389,418 Q338,447 267,447 Q190,447 154,385.5 Q118,324 118,241 Q118,158 154,96.5 Q190,35 267,35 Q338,35 389,64 L407,21 Q346,-15 266,-15 Q164,-15 61,127 M355,698 L355,692 L294,581 L246,581 L246,587 L294,698"/> 
            <glyph glyph-name="Ĉ" unicode="&#x108;" horiz-adv-x="505" d=" M69,173 Q69,507 141.5,601 Q214,695 348,695 Q430,695 505,652 L485,605 Q421,640 348,640 Q239,640 183.5,561 Q128,482 128,340 Q128,198 183.5,119 Q239,40 348,40 Q421,40 485,75 L505,28 Q430,-15 348,-15 Q214,-15 69,173 M361,863 L454,751 L454,745 L398,745 L336,818 L275,745 L219,745 L219,751 L312,863"/> 
            <glyph glyph-name="ĉ" unicode="&#x109;" horiz-adv-x="407" d=" M61,127 Q61,355 112.5,426 Q164,497 266,497 Q346,497 407,461 L389,418 Q338,447 267,447 Q190,447 154,385.5 Q118,324 118,241 Q118,158 154,96.5 Q190,35 267,35 Q338,35 389,64 L407,21 Q346,-15 266,-15 Q164,-15 61,127 M293,698 L386,586 L386,581 L331,581 L268,654 L206,581 L151,581 L151,586 L244,698"/> 
            <glyph glyph-name="Ċ" unicode="&#x10A;" horiz-adv-x="505" d=" M69,173 Q69,507 141.5,601 Q214,695 348,695 Q430,695 505,652 L485,605 Q421,640 348,640 Q239,640 183.5,561 Q128,482 128,340 Q128,198 183.5,119 Q239,40 348,40 Q421,40 485,75 L505,28 Q430,-15 348,-15 Q214,-15 69,173 M294,784 Q294,824 306,836 Q318,848 336,848 Q354,848 366,836 Q378,824 378,804 Q378,784 366,772 Q354,760 336,760 Q318,760 294,784"/> 
            <glyph glyph-name="ċ" unicode="&#x10B;" horiz-adv-x="407" d=" M61,127 Q61,355 112.5,426 Q164,497 266,497 Q346,497 407,461 L389,418 Q338,447 267,447 Q190,447 154,385.5 Q118,324 118,241 Q118,158 154,96.5 Q190,35 267,35 Q338,35 389,64 L407,21 Q346,-15 266,-15 Q164,-15 61,127 M226,608 Q226,648 238,660 Q250,672 268,672 Q286,672 298,660 Q310,648 310,628 Q310,608 298,596 Q286,584 268,584 Q250,584 226,608"/> 
            <glyph glyph-name="Č" unicode="&#x10C;" horiz-adv-x="505" d=" M69,173 Q69,507 141.5,601 Q214,695 348,695 Q430,695 505,652 L485,605 Q421,640 348,640 Q239,640 183.5,561 Q128,482 128,340 Q128,198 183.5,119 Q239,40 348,40 Q421,40 485,75 L505,28 Q430,-15 348,-15 Q214,-15 69,173 M310,745 L217,857 L217,863 L273,863 L334,790 L396,863 L452,863 L452,857 L359,745"/> 
            <glyph glyph-name="č" unicode="&#x10D;" horiz-adv-x="407" d=" M61,127 Q61,355 112.5,426 Q164,497 266,497 Q346,497 407,461 L389,418 Q338,447 267,447 Q190,447 154,385.5 Q118,324 118,241 Q118,158 154,96.5 Q190,35 267,35 Q338,35 389,64 L407,21 Q346,-15 266,-15 Q164,-15 61,127 M247,581 L154,693 L154,698 L209,698 L272,625 L334,698 L389,698 L389,693 L296,581"/> 
            <glyph glyph-name="Ď" unicode="&#x10E;" horiz-adv-x="582" d=" M102,0 L102,680 L258,680 Q427,680 504.5,593.5 Q582,507 582,340 Q582,173 504.5,86.5 Q427,0 258,0 M158,53 L247,53 Q400,53 461.5,123 Q523,193 523,340 Q523,487 461.5,557 Q400,627 247,627 L158,627 M282,745 L189,857 L189,863 L245,863 L306,790 L368,863 L424,863 L424,857 L331,745"/> 
            <glyph glyph-name="ď" unicode="&#x10F;" horiz-adv-x="583" d=" M395,94 L395,388 Q331,447 253,447 Q185,447 152,390 Q119,333 119,241 Q119,149 152,92 Q185,35 253,35 Q331,35 395,94 M398,42 L396,42 Q324,-15 247,-15 Q157,-15 109.5,55.5 Q62,126 62,241 Q62,356 109.5,426.5 Q157,497 247,497 Q328,497 393,441 L395,441 L395,700 L450,700 L450,0 L407,0 M507,538 L507,545 L523,680 L583,680 L583,673 L551,538"/> 
            <glyph glyph-name="Đ" unicode="&#x110;" horiz-adv-x="582" d=" M102,0 L102,309 L54,309 L54,362 L102,362 L102,680 L258,680 Q427,680 504.5,593.5 Q582,507 582,340 Q582,173 504.5,86.5 Q427,0 258,0 M158,53 L247,53 Q400,53 461.5,123 Q523,193 523,340 Q523,487 461.5,557 Q400,627 247,627 L158,627 L158,362 L311,362 L311,309 L158,309"/> 
            <glyph glyph-name="đ" unicode="&#x111;" horiz-adv-x="519" d=" M398,42 L396,42 Q324,-15 247,-15 Q157,-15 109.5,55.5 Q62,126 62,241 Q62,356 109.5,426.5 Q157,497 247,497 Q328,497 393,441 L395,441 L395,569 L289,569 L289,617 L395,617 L395,700 L450,700 L450,617 L519,617 L519,569 L450,569 L450,0 L407,0 M395,94 L395,388 Q331,447 253,447 Q185,447 152,390 Q119,333 119,241 Q119,149 152,92 Q185,35 253,35 Q331,35 395,94"/> 
            <glyph glyph-name="Ē" unicode="&#x112;" horiz-adv-x="487" d=" M102,680 L484,680 L484,627 L158,627 L158,375 L455,375 L455,322 L158,322 L158,53 L487,53 L487,0 L102,0 M412,784 L184,784 L184,833 L412,833"/> 
            <glyph glyph-name="ē" unicode="&#x113;" horiz-adv-x="454" d=" M449,231 L116,231 Q118,140 158.5,87.5 Q199,35 277,35 Q350,35 413,82 L436,40 Q364,-15 275,-15 Q168,-15 114.5,55.5 Q61,126 61,243 Q61,358 114.5,427.5 Q168,497 269,497 Q363,497 408.5,437.5 Q454,378 454,294 Q454,268 449,231 M269,447 Q204,447 164,403.5 Q124,360 117,278 L396,278 Q397,284 397,300 Q397,364 366,405.5 Q335,447 269,447 M389,595 L161,595 L161,643 L389,643"/> 
            <glyph glyph-name="Ĕ" unicode="&#x114;" horiz-adv-x="487" d=" M102,680 L484,680 L484,627 L158,627 L158,375 L455,375 L455,322 L158,322 L158,53 L487,53 L487,0 L102,0 M291,813 Q350,813 388,860 L414,835 Q372,764 291,764 Q209,764 169,835 L195,860 Q233,813 291,813"/> 
            <glyph glyph-name="ĕ" unicode="&#x115;" horiz-adv-x="454" d=" M449,231 L116,231 Q118,140 158.5,87.5 Q199,35 277,35 Q350,35 413,82 L436,40 Q364,-15 275,-15 Q168,-15 114.5,55.5 Q61,126 61,243 Q61,358 114.5,427.5 Q168,497 269,497 Q363,497 408.5,437.5 Q454,378 454,294 Q454,268 449,231 M269,447 Q204,447 164,403.5 Q124,360 117,278 L396,278 Q397,284 397,300 Q397,364 366,405.5 Q335,447 269,447 M273,620 Q332,620 370,667 L396,643 Q354,572 273,572 Q191,572 151,643 L177,667 Q215,620 273,620"/> 
            <glyph glyph-name="Ė" unicode="&#x116;" horiz-adv-x="487" d=" M102,680 L484,680 L484,627 L158,627 L158,375 L455,375 L455,322 L158,322 L158,53 L487,53 L487,0 L102,0 M252,784 Q252,824 264,836 Q276,848 294,848 Q312,848 324,836 Q336,824 336,804 Q336,784 324,772 Q312,760 294,760 Q276,760 252,784"/> 
            <glyph glyph-name="ė" unicode="&#x117;" horiz-adv-x="454" d=" M449,231 L116,231 Q118,140 158.5,87.5 Q199,35 277,35 Q350,35 413,82 L436,40 Q364,-15 275,-15 Q168,-15 114.5,55.5 Q61,126 61,243 Q61,358 114.5,427.5 Q168,497 269,497 Q363,497 408.5,437.5 Q454,378 454,294 Q454,268 449,231 M269,447 Q204,447 164,403.5 Q124,360 117,278 L396,278 Q397,284 397,300 Q397,364 366,405.5 Q335,447 269,447 M234,608 Q234,648 246,660 Q258,672 276,672 Q294,672 306,660 Q318,648 318,628 Q318,608 306,596 Q294,584 276,584 Q258,584 234,608"/> 
            <glyph glyph-name="Ę" unicode="&#x118;" horiz-adv-x="495" d=" M418,-213 Q380,-213 356.5,-189.5 Q333,-166 333,-129 Q333,-92 355,-62 Q377,-32 418,0 L102,0 L102,680 L484,680 L484,627 L158,627 L158,375 L455,375 L455,322 L158,322 L158,53 L487,53 L487,0 Q427,-45 404.5,-68.5 Q382,-92 382,-120 Q382,-140 393.5,-153.5 Q405,-167 426,-167 Q454,-167 488,-144 L495,-186 Q460,-213 418,-213"/> 
            <glyph glyph-name="ę" unicode="&#x119;" horiz-adv-x="454" d=" M324,-10 L323,-9 Q308,-15 275,-15 Q168,-15 114.5,55.5 Q61,126 61,243 Q61,358 114.5,427.5 Q168,497 269,497 Q363,497 408.5,437.5 Q454,378 454,294 Q454,268 449,231 L116,231 Q118,140 158.5,87.5 Q199,35 277,35 Q350,35 413,82 L436,40 L422,30 Q375,-7 346,-48.5 Q317,-90 317,-120 Q317,-140 328.5,-153.5 Q340,-167 361,-167 Q388,-167 423,-144 L430,-186 Q395,-213 353,-213 Q315,-213 291.5,-189.5 Q268,-166 268,-129 Q268,-63 324,-10 M269,447 Q204,447 164,403.5 Q124,360 117,278 L396,278 Q397,284 397,300 Q397,364 366,405.5 Q335,447 269,447"/> 
            <glyph glyph-name="Ě" unicode="&#x11A;" horiz-adv-x="487" d=" M102,680 L484,680 L484,627 L158,627 L158,375 L455,375 L455,322 L158,322 L158,53 L487,53 L487,0 L102,0 M268,745 L175,857 L175,863 L231,863 L292,790 L354,863 L410,863 L410,857 L317,745"/> 
            <glyph glyph-name="ě" unicode="&#x11B;" horiz-adv-x="454" d=" M449,231 L116,231 Q118,140 158.5,87.5 Q199,35 277,35 Q350,35 413,82 L436,40 Q364,-15 275,-15 Q168,-15 114.5,55.5 Q61,126 61,243 Q61,358 114.5,427.5 Q168,497 269,497 Q363,497 408.5,437.5 Q454,378 454,294 Q454,268 449,231 M269,447 Q204,447 164,403.5 Q124,360 117,278 L396,278 Q397,284 397,300 Q397,364 366,405.5 Q335,447 269,447 M251,581 L158,693 L158,698 L213,698 L276,625 L338,698 L393,698 L393,693 L300,581"/> 
            <glyph glyph-name="Ĝ" unicode="&#x11C;" horiz-adv-x="542" d=" M354,325 L542,325 L542,45 Q452,-15 334,-15 Q206,-15 137.5,81 Q69,177 69,340 Q69,502 139.5,598.5 Q210,695 340,695 Q446,695 535,634 L510,588 Q427,640 340,640 Q238,640 183,560 Q128,480 128,340 Q128,202 181,121 Q234,40 334,40 Q422,40 486,77 L486,272 L354,283 M359,863 L452,751 L452,745 L396,745 L334,818 L273,745 L217,745 L217,751 L310,863"/> 
            <glyph glyph-name="ĝ" unicode="&#x11D;" horiz-adv-x="449" d=" M394,96 L394,387 Q337,447 252,447 Q182,447 150.5,389.5 Q119,332 119,241 Q119,151 150.5,93.5 Q182,36 252,36 Q337,36 394,96 M449,482 L449,-13 Q449,-107 400,-160 Q351,-213 267,-213 Q174,-213 108,-172 L126,-125 Q196,-163 267,-163 Q326,-163 360,-126 Q394,-89 394,-15 L394,42 L392,42 Q330,-14 246,-14 Q152,-14 107,57.5 Q62,129 62,241 Q62,353 107,425 Q152,497 246,497 Q333,497 397,440 L399,440 L405,482 M297,698 L390,586 L390,581 L335,581 L272,654 L210,581 L155,581 L155,586 L248,698"/> 
            <glyph glyph-name="Ğ" unicode="&#x11E;" horiz-adv-x="542" d=" M354,325 L542,325 L542,45 Q452,-15 334,-15 Q206,-15 137.5,81 Q69,177 69,340 Q69,502 139.5,598.5 Q210,695 340,695 Q446,695 535,634 L510,588 Q427,640 340,640 Q238,640 183,560 Q128,480 128,340 Q128,202 181,121 Q234,40 334,40 Q422,40 486,77 L486,272 L354,283 M336,813 Q395,813 433,860 L459,835 Q417,764 336,764 Q254,764 214,835 L240,860 Q278,813 336,813"/> 
            <glyph glyph-name="ğ" unicode="&#x11F;" horiz-adv-x="449" d=" M394,96 L394,387 Q337,447 252,447 Q182,447 150.5,389.5 Q119,332 119,241 Q119,151 150.5,93.5 Q182,36 252,36 Q337,36 394,96 M449,482 L449,-13 Q449,-107 400,-160 Q351,-213 267,-213 Q174,-213 108,-172 L126,-125 Q196,-163 267,-163 Q326,-163 360,-126 Q394,-89 394,-15 L394,42 L392,42 Q330,-14 246,-14 Q152,-14 107,57.5 Q62,129 62,241 Q62,353 107,425 Q152,497 246,497 Q333,497 397,440 L399,440 L405,482 M273,620 Q332,620 370,667 L396,643 Q354,572 273,572 Q191,572 151,643 L177,667 Q215,620 273,620"/> 
            <glyph glyph-name="Ġ" unicode="&#x120;" horiz-adv-x="542" d=" M354,325 L542,325 L542,45 Q452,-15 334,-15 Q206,-15 137.5,81 Q69,177 69,340 Q69,502 139.5,598.5 Q210,695 340,695 Q446,695 535,634 L510,588 Q427,640 340,640 Q238,640 183,560 Q128,480 128,340 Q128,202 181,121 Q234,40 334,40 Q422,40 486,77 L486,272 L354,283 M296,784 Q296,824 308,836 Q320,848 338,848 Q356,848 368,836 Q380,824 380,804 Q380,784 368,772 Q356,760 338,760 Q320,760 296,784"/> 
            <glyph glyph-name="ġ" unicode="&#x121;" horiz-adv-x="449" d=" M394,96 L394,387 Q337,447 252,447 Q182,447 150.5,389.5 Q119,332 119,241 Q119,151 150.5,93.5 Q182,36 252,36 Q337,36 394,96 M449,482 L449,-13 Q449,-107 400,-160 Q351,-213 267,-213 Q174,-213 108,-172 L126,-125 Q196,-163 267,-163 Q326,-163 360,-126 Q394,-89 394,-15 L394,42 L392,42 Q330,-14 246,-14 Q152,-14 107,57.5 Q62,129 62,241 Q62,353 107,425 Q152,497 246,497 Q333,497 397,440 L399,440 L405,482 M230,608 Q230,648 242,660 Q254,672 272,672 Q290,672 302,660 Q314,648 314,628 Q314,608 302,596 Q290,584 272,584 Q254,584 230,608"/> 
            <glyph glyph-name="Ģ" unicode="&#x122;" horiz-adv-x="542" d=" M354,325 L542,325 L542,45 Q452,-15 334,-15 Q206,-15 137.5,81 Q69,177 69,340 Q69,502 139.5,598.5 Q210,695 340,695 Q446,695 535,634 L510,588 Q427,640 340,640 Q238,640 183,560 Q128,480 128,340 Q128,202 181,121 Q234,40 334,40 Q422,40 486,77 L486,272 L354,283 M289,-218 L289,-211 L305,-76 L365,-76 L365,-83 L333,-218"/> 
            <glyph glyph-name="ģ" unicode="&#x123;" horiz-adv-x="449" d=" M394,96 L394,387 Q337,447 252,447 Q182,447 150.5,389.5 Q119,332 119,241 Q119,151 150.5,93.5 Q182,36 252,36 Q337,36 394,96 M449,482 L449,-13 Q449,-107 400,-160 Q351,-213 267,-213 Q174,-213 108,-172 L126,-125 Q196,-163 267,-163 Q326,-163 360,-126 Q394,-89 394,-15 L394,42 L392,42 Q330,-14 246,-14 Q152,-14 107,57.5 Q62,129 62,241 Q62,353 107,425 Q152,497 246,497 Q333,497 397,440 L399,440 L405,482 M319,717 L319,710 L303,575 L244,575 L244,582 L276,717"/> 
            <glyph glyph-name="Ĥ" unicode="&#x124;" horiz-adv-x="566" d=" M510,0 L510,320 L158,320 L158,0 L102,0 L102,680 L158,680 L158,373 L510,373 L510,680 L566,680 L566,0 M359,863 L452,751 L452,745 L396,745 L334,818 L273,745 L217,745 L217,751 L310,863"/> 
            <glyph glyph-name="ĥ" unicode="&#x125;" horiz-adv-x="458" d=" M458,0 L403,0 L403,302 Q403,377 376,412 Q349,447 289,447 Q249,447 209,430.5 Q169,414 142,391 L142,0 L87,0 L87,700 L142,700 L142,443 L144,443 Q218,497 296,497 Q458,497 458,311 M303,873 L396,761 L396,755 L340,755 L278,828 L217,755 L161,755 L161,761 L254,873"/> 
            <glyph glyph-name="Ħ" unicode="&#x126;" horiz-adv-x="605" d=" M510,0 L510,320 L158,320 L158,0 L102,0 L102,517 L63,517 L63,570 L102,570 L102,680 L158,680 L158,570 L510,570 L510,680 L566,680 L566,570 L605,570 L605,517 L566,517 L566,0 M158,373 L510,373 L510,517 L158,517"/> 
            <glyph glyph-name="ħ" unicode="&#x127;" horiz-adv-x="459" d=" M459,0 L404,0 L404,302 Q404,377 377,412 Q350,447 290,447 Q250,447 210,430.5 Q170,414 143,391 L143,0 L88,0 L88,569 L19,569 L19,617 L88,617 L88,700 L143,700 L143,617 L249,617 L249,569 L143,569 L143,443 L145,443 Q219,497 297,497 Q459,497 459,311"/> 
            <glyph glyph-name="Ĩ" unicode="&#x128;" horiz-adv-x="254" d=" M158,680 L158,0 L102,0 L102,680 M27,765 L4,798 Q37,848 80,848 Q99,848 133.5,828.5 Q168,809 180,809 Q208,809 232,844 L254,811 Q222,761 179,761 Q159,761 125,780.5 Q91,800 78,800 Q49,800 27,765"/> 
            <glyph glyph-name="ĩ" unicode="&#x129;" horiz-adv-x="239" d=" M12,584 L-11,616 Q21,666 65,666 Q84,666 118.5,646.5 Q153,627 165,627 Q192,627 217,662 L239,630 Q208,581 164,581 Q144,581 110,600.5 Q76,620 63,620 Q36,620 12,584 M142,0 L88,0 L88,482 L142,482"/> 
            <glyph glyph-name="Ī" unicode="&#x12A;" horiz-adv-x="243" d=" M158,680 L158,0 L102,0 L102,680 M243,784 L15,784 L15,833 L243,833"/> 
            <glyph glyph-name="ī" unicode="&#x12B;" horiz-adv-x="229" d=" M229,595 L1,595 L1,643 L229,643 M142,0 L88,0 L88,482 L142,482"/> 
            <glyph glyph-name="Ĭ" unicode="&#x12C;" horiz-adv-x="251" d=" M158,680 L158,0 L102,0 L102,680 M128,813 Q187,813 225,860 L251,835 Q209,764 128,764 Q46,764 6,835 L32,860 Q70,813 128,813"/> 
            <glyph glyph-name="ĭ" unicode="&#x12D;" horiz-adv-x="237" d=" M114,620 Q173,620 211,667 L237,643 Q195,572 114,572 Q32,572 -8,643 L18,667 Q56,620 114,620 M142,0 L88,0 L88,482 L142,482"/> 
            <glyph glyph-name="Į" unicode="&#x12E;" horiz-adv-x="183" d=" M111,-213 Q74,-213 50.5,-190 Q27,-167 27,-132 Q27,-94 46,-63.5 Q65,-33 102,2 L102,680 L158,680 L158,0 Q112,-45 94,-70 Q76,-95 76,-123 Q76,-141 87,-154 Q98,-167 119,-167 Q142,-167 176,-146 L183,-188 Q150,-213 111,-213"/> 
            <glyph glyph-name="į" unicode="&#x12F;" horiz-adv-x="167" d=" M95,-213 Q58,-213 34.5,-190 Q11,-167 11,-132 Q11,-93 30.5,-62.5 Q50,-32 88,4 L88,482 L142,482 L142,0 Q96,-45 78,-70 Q60,-95 60,-123 Q60,-141 71,-154 Q82,-167 103,-167 Q126,-167 160,-146 L167,-188 Q134,-213 95,-213 M73,608 Q73,648 84.5,660 Q96,672 115,672 Q134,672 145.5,660 Q157,648 157,628 Q157,608 145.5,596 Q134,584 115,584 Q96,584 73,608"/> 
            <glyph glyph-name="İ" unicode="&#x130;" horiz-adv-x="170" d=" M158,680 L158,0 L102,0 L102,680 M86,784 Q86,824 98,836 Q110,848 128,848 Q146,848 158,836 Q170,824 170,804 Q170,784 158,772 Q146,760 128,760 Q110,760 86,784"/> 
            <glyph glyph-name="ı" unicode="&#x131;" horiz-adv-x="141" d=" M141,0 L87,0 L87,482 L141,482"/> 
            <glyph glyph-name="Ĳ" unicode="&#x132;" horiz-adv-x="609" d=" M158,680 L158,0 L102,0 L102,680 M287,53 L317,95 Q370,40 437,40 Q553,40 553,181 L553,680 L609,680 L609,176 Q609,85 562.5,35 Q516,-15 437,-15 Q353,-15 287,53"/> 
            <glyph glyph-name="ĳ" unicode="&#x133;" horiz-adv-x="384" d=" M141,0 L87,0 L87,482 L141,482 M72,608 Q72,648 84,660 Q96,672 114,672 Q132,672 144,660 Q156,648 156,628 Q156,608 144,596 Q132,584 114,584 Q96,584 72,608 M315,482 L370,482 L370,-69 Q370,-213 256,-213 Q230,-213 204,-206 L204,-158 Q226,-163 253,-163 Q285,-163 300,-143 Q315,-123 315,-72 M300,608 Q300,648 312,660 Q324,672 342,672 Q360,672 372,660 Q384,648 384,628 Q384,608 372,596 Q360,584 342,584 Q324,584 300,608"/> 
            <glyph glyph-name="Ĵ" unicode="&#x134;" horiz-adv-x="438" d=" M27,53 L57,95 Q110,40 177,40 Q293,40 293,181 L293,680 L349,680 L349,176 Q349,85 302.5,35 Q256,-15 177,-15 Q93,-15 27,53 M345,863 L438,751 L438,745 L382,745 L320,818 L259,745 L203,745 L203,751 L296,863"/> 
            <glyph glyph-name="ĵ" unicode="&#x135;" horiz-adv-x="232" d=" M88,482 L143,482 L143,-69 Q143,-213 29,-213 Q3,-213 -23,-206 L-23,-158 Q-1,-163 26,-163 Q58,-163 73,-143 Q88,-123 88,-72 M139,698 L232,586 L232,581 L177,581 L114,654 L52,581 L-3,581 L-3,586 L90,698"/> 
            <glyph glyph-name="Ķ" unicode="&#x136;" horiz-adv-x="516" d=" M160,320 L158,320 L158,0 L102,0 L102,680 L158,680 L158,346 L160,346 L437,680 L504,680 L504,674 L220,337 L516,6 L516,0 L443,0 M234,-218 L234,-211 L250,-76 L310,-76 L310,-83 L278,-218"/> 
            <glyph glyph-name="ķ" unicode="&#x137;" horiz-adv-x="426" d=" M144,224 L142,224 L142,0 L87,0 L87,700 L142,700 L142,252 L144,252 L351,482 L418,482 L418,477 L200,239 L426,6 L426,0 L355,0 M183,-218 L183,-211 L199,-76 L258,-76 L258,-83 L227,-218"/> 
            <glyph glyph-name="ĸ" unicode="&#x138;" horiz-adv-x="426" d=" M144,224 L142,224 L142,0 L87,0 L87,482 L142,482 L142,252 L144,252 L351,482 L418,482 L418,477 L200,239 L426,6 L426,0 L355,0"/> 
            <glyph glyph-name="Ĺ" unicode="&#x139;" horiz-adv-x="456" d=" M102,680 L158,680 L158,53 L456,53 L456,0 L102,0 M216,863 L216,857 L157,745 L107,745 L107,751 L153,863"/> 
            <glyph glyph-name="ĺ" unicode="&#x13A;" horiz-adv-x="201" d=" M146,0 L91,0 L91,700 L146,700 M201,873 L201,867 L142,755 L92,755 L92,761 L138,873"/> 
            <glyph glyph-name="Ļ" unicode="&#x13B;" horiz-adv-x="456" d=" M102,680 L158,680 L158,53 L456,53 L456,0 L102,0 M230,-218 L230,-211 L246,-76 L306,-76 L306,-83 L274,-218"/> 
            <glyph glyph-name="ļ" unicode="&#x13C;" horiz-adv-x="147" d=" M146,0 L91,0 L91,700 L146,700 M72,-218 L72,-211 L88,-76 L147,-76 L147,-83 L116,-218"/> 
            <glyph glyph-name="Ľ" unicode="&#x13D;" horiz-adv-x="456" d=" M102,680 L158,680 L158,53 L456,53 L456,0 L102,0 M266,538 L266,545 L282,680 L342,680 L342,673 L310,538"/> 
            <glyph glyph-name="ľ" unicode="&#x13E;" horiz-adv-x="279" d=" M146,0 L91,0 L91,700 L146,700 M203,538 L203,545 L219,680 L279,680 L279,673 L247,538"/> 
            <glyph glyph-name="Ŀ" unicode="&#x13F;" horiz-adv-x="456" d=" M102,680 L158,680 L158,53 L456,53 L456,0 L102,0 M308,326 Q308,370 321.5,384.5 Q335,399 358,399 Q381,399 394.5,384.5 Q408,370 408,348 Q408,326 394.5,311.5 Q381,297 358,297 Q335,297 308,326"/> 
            <glyph glyph-name="ŀ" unicode="&#x140;" horiz-adv-x="324" d=" M146,0 L91,0 L91,700 L146,700 M224,330 Q224,374 237.5,388.5 Q251,403 274,403 Q297,403 310.5,388.5 Q324,374 324,352 Q324,330 310.5,315.5 Q297,301 274,301 Q251,301 224,330"/> 
            <glyph glyph-name="Ł" unicode="&#x141;" horiz-adv-x="461" d=" M107,680 L163,680 L163,395 L263,459 L270,459 L270,404 L163,336 L163,53 L461,53 L461,0 L107,0 L107,300 L50,264 L44,264 L44,319 L107,359"/> 
            <glyph glyph-name="ł" unicode="&#x142;" horiz-adv-x="277" d=" M182,0 L127,0 L127,305 L43,253 L38,253 L38,308 L127,363 L127,700 L182,700 L182,397 L272,453 L277,453 L277,399 L182,340"/> 
            <glyph glyph-name="Ń" unicode="&#x143;" horiz-adv-x="565" d=" M514,99 L509,217 L509,680 L565,680 L565,0 L511,0 L153,581 L151,581 L158,463 L158,0 L102,0 L102,680 L156,680 L512,99 M417,863 L417,857 L358,745 L308,745 L308,751 L354,863"/> 
            <glyph glyph-name="ń" unicode="&#x144;" horiz-adv-x="458" d=" M87,482 L131,482 L137,440 L139,440 Q210,497 296,497 Q458,497 458,311 L458,0 L403,0 L403,302 Q403,377 376,412 Q349,447 289,447 Q249,447 209,430.5 Q169,414 142,391 L142,0 L87,0 M362,698 L362,692 L301,581 L253,581 L253,587 L301,698"/> 
            <glyph glyph-name="Ņ" unicode="&#x145;" horiz-adv-x="565" d=" M514,99 L509,217 L509,680 L565,680 L565,0 L511,0 L153,581 L151,581 L158,463 L158,0 L102,0 L102,680 L156,680 L512,99 M285,-218 L285,-211 L301,-76 L361,-76 L361,-83 L329,-218"/> 
            <glyph glyph-name="ņ" unicode="&#x146;" horiz-adv-x="458" d=" M87,482 L131,482 L137,440 L139,440 Q210,497 296,497 Q458,497 458,311 L458,0 L403,0 L403,302 Q403,377 376,412 Q349,447 289,447 Q249,447 209,430.5 Q169,414 142,391 L142,0 L87,0 M224,-218 L224,-211 L240,-76 L299,-76 L299,-83 L268,-218"/> 
            <glyph glyph-name="Ň" unicode="&#x147;" horiz-adv-x="565" d=" M514,99 L509,217 L509,680 L565,680 L565,0 L511,0 L153,581 L151,581 L158,463 L158,0 L102,0 L102,680 L156,680 L512,99 M312,745 L219,857 L219,863 L275,863 L336,790 L398,863 L454,863 L454,857 L361,745"/> 
            <glyph glyph-name="ň" unicode="&#x148;" horiz-adv-x="458" d=" M87,482 L131,482 L137,440 L139,440 Q210,497 296,497 Q458,497 458,311 L458,0 L403,0 L403,302 Q403,377 376,412 Q349,447 289,447 Q249,447 209,430.5 Q169,414 142,391 L142,0 L87,0 M250,581 L157,693 L157,698 L212,698 L275,625 L337,698 L392,698 L392,693 L299,581"/> 
            <glyph glyph-name="ŉ" unicode="&#x149;" horiz-adv-x="459" d=" M88,482 L132,482 L138,440 L140,440 Q211,497 297,497 Q459,497 459,311 L459,0 L404,0 L404,302 Q404,377 377,412 Q350,447 290,447 Q250,447 210,430.5 Q170,414 143,391 L143,0 L88,0 M18,538 L18,545 L34,680 L94,680 L94,673 L62,538"/> 
            <glyph glyph-name="Ŋ" unicode="&#x14A;" horiz-adv-x="565" d=" M565,680 L565,-61 Q565,-141 537,-177 Q509,-213 452,-213 Q431,-213 397,-205 L397,-154 Q421,-160 449,-160 Q480,-160 494,-140.5 Q508,-121 508,-76 L508,0 L153,584 L151,584 L158,466 L158,0 L102,0 L102,680 L156,680 L512,96 L514,96 L509,214 L509,680"/> 
            <glyph glyph-name="ŋ" unicode="&#x14B;" horiz-adv-x="458" d=" M87,482 L131,482 L137,440 L139,440 Q210,497 296,497 Q458,497 458,311 L458,-69 Q458,-213 344,-213 Q318,-213 292,-206 L292,-158 Q314,-163 341,-163 Q373,-163 388,-143 Q403,-123 403,-72 L403,302 Q403,377 376,412 Q349,447 289,447 Q249,447 209,430.5 Q169,414 142,391 L142,0 L87,0"/> 
            <glyph glyph-name="Ō" unicode="&#x14C;" horiz-adv-x="596" d=" M129,407 Q129,273 139,221 Q149,169 171.5,127 Q194,85 234.5,62.5 Q275,40 333,40 Q391,40 431.5,62.5 Q472,85 494.5,127 Q517,169 527,221 Q537,273 537,340 Q537,407 527,459 Q517,511 494.5,553 Q472,595 431.5,617.5 Q391,640 333,640 Q275,640 234.5,617.5 Q194,595 171.5,553 Q149,511 129,407 M70,262 Q70,418 84,480.5 Q98,543 128,592 Q158,641 210,668 Q262,695 333,695 Q404,695 456,668 Q508,641 538,592 Q568,543 582,480.5 Q596,418 596,340 Q596,262 582,199.5 Q568,137 538,88 Q508,39 456,12 Q404,-15 333,-15 Q262,-15 210,12 Q158,39 128,88 Q98,137 70,262 M450,784 L222,784 L222,833 L450,833"/> 
            <glyph glyph-name="ō" unicode="&#x14D;" horiz-adv-x="482" d=" M119,447 Q119,35 272,35 Q425,35 425,241 Q425,447 119,447 M482,354 Q482,128 432.5,56.5 Q383,-15 272,-15 Q214,-15 172,5.5 Q130,26 106.5,63 Q83,100 72.5,144 Q62,188 62,241 Q62,294 72.5,338 Q83,382 106.5,419 Q130,456 172,476.5 Q214,497 272,497 Q383,497 482,354 M388,595 L160,595 L160,643 L388,643"/> 
            <glyph glyph-name="Ŏ" unicode="&#x14E;" horiz-adv-x="596" d=" M129,407 Q129,273 139,221 Q149,169 171.5,127 Q194,85 234.5,62.5 Q275,40 333,40 Q391,40 431.5,62.5 Q472,85 494.5,127 Q517,169 527,221 Q537,273 537,340 Q537,407 527,459 Q517,511 494.5,553 Q472,595 431.5,617.5 Q391,640 333,640 Q275,640 234.5,617.5 Q194,595 171.5,553 Q149,511 129,407 M70,262 Q70,418 84,480.5 Q98,543 128,592 Q158,641 210,668 Q262,695 333,695 Q404,695 456,668 Q508,641 538,592 Q568,543 582,480.5 Q596,418 596,340 Q596,262 582,199.5 Q568,137 538,88 Q508,39 456,12 Q404,-15 333,-15 Q262,-15 210,12 Q158,39 128,88 Q98,137 70,262 M334,813 Q393,813 431,860 L457,835 Q415,764 334,764 Q252,764 212,835 L238,860 Q276,813 334,813"/> 
            <glyph glyph-name="ŏ" unicode="&#x14F;" horiz-adv-x="482" d=" M119,447 Q119,35 272,35 Q425,35 425,241 Q425,447 119,447 M482,354 Q482,128 432.5,56.5 Q383,-15 272,-15 Q214,-15 172,5.5 Q130,26 106.5,63 Q83,100 72.5,144 Q62,188 62,241 Q62,294 72.5,338 Q83,382 106.5,419 Q130,456 172,476.5 Q214,497 272,497 Q383,497 482,354 M273,620 Q332,620 370,667 L396,643 Q354,572 273,572 Q191,572 151,643 L177,667 Q215,620 273,620"/> 
            <glyph glyph-name="Ő" unicode="&#x150;" horiz-adv-x="596" d=" M129,407 Q129,273 139,221 Q149,169 171.5,127 Q194,85 234.5,62.5 Q275,40 333,40 Q391,40 431.5,62.5 Q472,85 494.5,127 Q517,169 527,221 Q537,273 537,340 Q537,407 527,459 Q517,511 494.5,553 Q472,595 431.5,617.5 Q391,640 333,640 Q275,640 234.5,617.5 Q194,595 171.5,553 Q149,511 129,407 M70,262 Q70,418 84,480.5 Q98,543 128,592 Q158,641 210,668 Q262,695 333,695 Q404,695 456,668 Q508,641 538,592 Q568,543 582,480.5 Q596,418 596,340 Q596,262 582,199.5 Q568,137 538,88 Q508,39 456,12 Q404,-15 333,-15 Q262,-15 210,12 Q158,39 128,88 Q98,137 70,262 M353,863 L353,857 L291,745 L242,745 L242,751 L291,863 M480,863 L480,857 L419,745 L369,745 L369,751 L418,863"/> 
            <glyph glyph-name="ő" unicode="&#x151;" horiz-adv-x="482" d=" M119,447 Q119,35 272,35 Q425,35 425,241 Q425,447 119,447 M482,354 Q482,128 432.5,56.5 Q383,-15 272,-15 Q214,-15 172,5.5 Q130,26 106.5,63 Q83,100 72.5,144 Q62,188 62,241 Q62,294 72.5,338 Q83,382 106.5,419 Q130,456 172,476.5 Q214,497 272,497 Q383,497 482,354 M308,698 L308,692 L247,581 L198,581 L198,586 L247,698 M435,698 L435,692 L374,581 L326,581 L326,586 L374,698"/> 
            <glyph glyph-name="Œ" unicode="&#x152;" horiz-adv-x="821" d=" M338,695 Q391,695 433,680 L818,680 L818,627 L489,627 L489,376 L790,376 L790,323 L489,323 L489,53 L821,53 L821,0 L433,0 Q385,-15 338,-15 Q201,-15 135.5,81 Q70,177 70,340 Q70,503 135.5,599 Q201,695 338,695 M338,39 Q393,39 432,57 L432,622 Q391,641 338,641 Q129,641 129,340 Q129,39 338,39"/> 
            <glyph glyph-name="œ" unicode="&#x153;" horiz-adv-x="820" d=" M272,497 Q408,497 454,380 Q504,497 635,497 Q729,497 774.5,437.5 Q820,378 820,294 Q820,268 815,231 L482,231 Q484,140 524.5,87.5 Q565,35 643,35 Q716,35 779,82 L802,40 Q730,-15 641,-15 Q504,-15 455,103 Q409,-15 272,-15 Q214,-15 172,5.5 Q130,26 106.5,63 Q83,100 72.5,144 Q62,188 62,241 Q62,294 72.5,338 Q83,382 106.5,419 Q130,456 172,476.5 Q214,497 272,497 M119,447 Q119,35 272,35 Q425,35 425,241 Q425,447 119,447 M635,447 Q570,447 530,403.5 Q490,360 483,278 L762,278 Q763,284 763,300 Q763,364 732,405.5 Q701,447 635,447"/> 
            <glyph glyph-name="Ŕ" unicode="&#x154;" horiz-adv-x="558" d=" M158,0 L102,0 L102,680 L317,680 Q410,680 465,633 Q520,586 520,493 Q520,413 476,366.5 Q432,320 353,311 L558,7 L558,0 L494,0 L291,307 L158,307 M158,627 L158,360 L314,360 Q461,360 461,494 Q461,627 314,627 M361,863 L361,857 L302,745 L252,745 L252,751 L298,863"/> 
            <glyph glyph-name="ŕ" unicode="&#x155;" horiz-adv-x="303" d=" M87,482 L129,482 L137,435 L139,435 Q180,497 255,497 Q280,497 303,491 L294,441 Q271,447 249,447 Q178,447 142,372 L142,0 L87,0 M269,698 L269,692 L208,581 L160,581 L160,587 L208,698"/> 
            <glyph glyph-name="Ŗ" unicode="&#x156;" horiz-adv-x="558" d=" M158,0 L102,0 L102,680 L317,680 Q410,680 465,633 Q520,586 520,493 Q520,413 476,366.5 Q432,320 353,311 L558,7 L558,0 L494,0 L291,307 L158,307 M158,627 L158,360 L314,360 Q461,360 461,494 Q461,627 314,627 M246,-218 L246,-211 L262,-76 L322,-76 L322,-83 L290,-218"/> 
            <glyph glyph-name="ŗ" unicode="&#x157;" horiz-adv-x="303" d=" M87,482 L129,482 L137,435 L139,435 Q180,497 255,497 Q280,497 303,491 L294,441 Q271,447 249,447 Q178,447 142,372 L142,0 L87,0 M65,-218 L65,-211 L81,-76 L140,-76 L140,-83 L109,-218"/> 
            <glyph glyph-name="Ř" unicode="&#x158;" horiz-adv-x="558" d=" M158,0 L102,0 L102,680 L317,680 Q410,680 465,633 Q520,586 520,493 Q520,413 476,366.5 Q432,320 353,311 L558,7 L558,0 L494,0 L291,307 L158,307 M158,627 L158,360 L314,360 Q461,360 461,494 Q461,627 314,627 M252,745 L159,857 L159,863 L215,863 L276,790 L338,863 L394,863 L394,857 L301,745"/> 
            <glyph glyph-name="ř" unicode="&#x159;" horiz-adv-x="305" d=" M87,482 L129,482 L137,435 L139,435 Q180,497 255,497 Q280,497 303,491 L294,441 Q271,447 249,447 Q178,447 142,372 L142,0 L87,0 M163,581 L70,693 L70,698 L125,698 L188,625 L250,698 L305,698 L305,693 L212,581"/> 
            <glyph glyph-name="Ś" unicode="&#x15A;" horiz-adv-x="451" d=" M54,63 L84,106 Q155,40 252,40 Q313,40 352.5,75.5 Q392,111 392,169 Q392,221 366.5,252 Q341,283 279,310 L206,342 Q138,372 103,411 Q68,450 68,512 Q68,590 121.5,642.5 Q175,695 265,695 Q359,695 438,638 L411,593 Q341,640 265,640 Q202,640 164.5,604.5 Q127,569 127,514 Q127,471 149,445 Q171,419 232,393 L297,366 Q373,335 412,290 Q451,245 451,171 Q451,93 394.5,39 Q338,-15 252,-15 Q135,-15 54,63 M349,863 L349,857 L290,745 L240,745 L240,751 L286,863"/> 
            <glyph glyph-name="ś" unicode="&#x15B;" horiz-adv-x="371" d=" M52,31 L76,75 Q134,35 205,35 Q256,35 285,59 Q314,83 314,124 Q314,157 295.5,176.5 Q277,196 226,212 L177,228 Q63,265 63,358 Q63,421 108.5,459 Q154,497 226,497 Q288,497 361,463 L341,416 Q282,447 226,447 Q176,447 148,424 Q120,401 120,360 Q120,328 137.5,309 Q155,290 196,278 L245,263 Q309,244 340,213.5 Q371,183 371,126 Q371,63 324.5,24 Q278,-15 205,-15 Q119,-15 52,31 M306,698 L306,692 L245,581 L197,581 L197,587 L245,698"/> 
            <glyph glyph-name="Ŝ" unicode="&#x15C;" horiz-adv-x="451" d=" M54,63 L84,106 Q155,40 252,40 Q313,40 352.5,75.5 Q392,111 392,169 Q392,221 366.5,252 Q341,283 279,310 L206,342 Q138,372 103,411 Q68,450 68,512 Q68,590 121.5,642.5 Q175,695 265,695 Q359,695 438,638 L411,593 Q341,640 265,640 Q202,640 164.5,604.5 Q127,569 127,514 Q127,471 149,445 Q171,419 232,393 L297,366 Q373,335 412,290 Q451,245 451,171 Q451,93 394.5,39 Q338,-15 252,-15 Q135,-15 54,63 M293,863 L386,751 L386,745 L330,745 L268,818 L207,745 L151,745 L151,751 L244,863"/> 
            <glyph glyph-name="ŝ" unicode="&#x15D;" horiz-adv-x="371" d=" M52,31 L76,75 Q134,35 205,35 Q256,35 285,59 Q314,83 314,124 Q314,157 295.5,176.5 Q277,196 226,212 L177,228 Q63,265 63,358 Q63,421 108.5,459 Q154,497 226,497 Q288,497 361,463 L341,416 Q282,447 226,447 Q176,447 148,424 Q120,401 120,360 Q120,328 137.5,309 Q155,290 196,278 L245,263 Q309,244 340,213.5 Q371,183 371,126 Q371,63 324.5,24 Q278,-15 205,-15 Q119,-15 52,31 M243,698 L336,586 L336,581 L281,581 L218,654 L156,581 L101,581 L101,586 L194,698"/> 
            <glyph glyph-name="Ş" unicode="&#x15E;" horiz-adv-x="451" d=" M220,-85 L215,-79 L232,-14 Q129,-8 54,63 L84,106 Q155,40 252,40 Q313,40 352.5,75.5 Q392,111 392,169 Q392,221 366.5,252 Q341,283 279,310 L206,342 Q138,372 103,411 Q68,450 68,512 Q68,590 121.5,642.5 Q175,695 265,695 Q359,695 438,638 L411,593 Q341,640 265,640 Q202,640 164.5,604.5 Q127,569 127,514 Q127,471 149,445 Q171,419 232,393 L297,366 Q373,335 412,290 Q451,245 451,171 Q451,100 403,48 Q355,-4 279,-13 L268,-50 Q298,-53 317,-71.5 Q336,-90 336,-123 Q336,-167 308.5,-190 Q281,-213 238,-213 Q198,-213 165,-194 L178,-152 Q203,-168 236,-168 Q283,-168 283,-123 Q283,-101 267.5,-93 Q252,-85 220,-85"/> 
            <glyph glyph-name="ş" unicode="&#x15F;" horiz-adv-x="371" d=" M176,-85 L171,-79 L188,-14 Q112,-10 52,31 L76,75 Q134,35 205,35 Q256,35 285,59 Q314,83 314,124 Q314,157 295.5,176.5 Q277,196 226,212 L177,228 Q63,265 63,358 Q63,421 108.5,459 Q154,497 226,497 Q288,497 361,463 L341,416 Q282,447 226,447 Q176,447 148,424 Q120,401 120,360 Q120,328 137.5,309 Q155,290 196,278 L245,263 Q309,244 340,213.5 Q371,183 371,126 Q371,70 333.5,32.5 Q296,-5 235,-13 L224,-50 Q254,-53 273,-71.5 Q292,-90 292,-123 Q292,-167 264.5,-190 Q237,-213 194,-213 Q154,-213 121,-194 L134,-152 Q159,-168 192,-168 Q239,-168 239,-123 Q239,-101 223.5,-93 Q208,-85 176,-85"/> 
            <glyph glyph-name="Š" unicode="&#x160;" horiz-adv-x="451" d=" M54,63 L84,106 Q155,40 252,40 Q313,40 352.5,75.5 Q392,111 392,169 Q392,221 366.5,252 Q341,283 279,310 L206,342 Q138,372 103,411 Q68,450 68,512 Q68,590 121.5,642.5 Q175,695 265,695 Q359,695 438,638 L411,593 Q341,640 265,640 Q202,640 164.5,604.5 Q127,569 127,514 Q127,471 149,445 Q171,419 232,393 L297,366 Q373,335 412,290 Q451,245 451,171 Q451,93 394.5,39 Q338,-15 252,-15 Q135,-15 54,63 M245,745 L152,857 L152,863 L208,863 L269,790 L331,863 L387,863 L387,857 L294,745"/> 
            <glyph glyph-name="š" unicode="&#x161;" horiz-adv-x="371" d=" M52,31 L76,75 Q134,35 205,35 Q256,35 285,59 Q314,83 314,124 Q314,157 295.5,176.5 Q277,196 226,212 L177,228 Q63,265 63,358 Q63,421 108.5,459 Q154,497 226,497 Q288,497 361,463 L341,416 Q282,447 226,447 Q176,447 148,424 Q120,401 120,360 Q120,328 137.5,309 Q155,290 196,278 L245,263 Q309,244 340,213.5 Q371,183 371,126 Q371,63 324.5,24 Q278,-15 205,-15 Q119,-15 52,31 M195,581 L102,693 L102,698 L157,698 L220,625 L282,698 L337,698 L337,693 L244,581"/> 
            <glyph glyph-name="Ţ" unicode="&#x162;" horiz-adv-x="468" d=" M211,-85 L206,-79 L227,0 L223,0 L223,627 L34,627 L34,680 L468,680 L468,627 L279,627 L279,0 L274,0 L259,-50 Q289,-53 308,-71.5 Q327,-90 327,-123 Q327,-167 299.5,-190 Q272,-213 229,-213 Q189,-213 156,-194 L169,-152 Q194,-168 227,-168 Q274,-168 274,-123 Q274,-101 258.5,-93 Q243,-85 211,-85"/> 
            <glyph glyph-name="ţ" unicode="&#x163;" horiz-adv-x="290" d=" M155,-85 L150,-79 L169,-5 Q116,18 116,111 L116,434 L31,434 L31,471 L116,482 L116,594 L171,594 L171,482 L290,482 L290,434 L171,434 L171,112 Q171,69 185,52 Q199,35 228,35 Q255,35 290,48 L290,-2 Q255,-15 222,-15 L213,-15 L203,-50 Q233,-53 252,-71.5 Q271,-90 271,-123 Q271,-167 243.5,-190 Q216,-213 173,-213 Q133,-213 100,-194 L113,-152 Q138,-168 171,-168 Q218,-168 218,-123 Q218,-101 202.5,-93 Q187,-85 155,-85"/> 
            <glyph glyph-name="Ť" unicode="&#x164;" horiz-adv-x="468" d=" M34,680 L468,680 L468,627 L279,627 L279,0 L223,0 L223,627 L34,627 M228,745 L135,857 L135,863 L191,863 L252,790 L314,863 L370,863 L370,857 L277,745"/> 
            <glyph glyph-name="ť" unicode="&#x165;" horiz-adv-x="324" d=" M116,594 L171,594 L171,482 L290,482 L290,434 L171,434 L171,112 Q171,69 185,52 Q199,35 228,35 Q255,35 290,48 L290,-2 Q255,-15 222,-15 Q168,-15 142,14.5 Q116,44 116,111 L116,434 L31,434 L31,471 L116,482 M248,538 L248,545 L264,680 L324,680 L324,673 L292,538"/> 
            <glyph glyph-name="Ŧ" unicode="&#x166;" horiz-adv-x="468" d=" M34,680 L468,680 L468,627 L279,627 L279,386 L396,386 L396,339 L279,339 L279,0 L223,0 L223,339 L107,339 L107,386 L223,386 L223,627 L34,627"/> 
            </font>
</defs>
</svg>
