<?xml version="1.0" standalone="no"?>
<!DOCTYPE svg PUBLIC "-//W3C//DTD SVG 1.1//EN" "http://www.w3.org/Graphics/SVG/1.1/DTD/svg11.dtd" >
<svg xmlns="http://www.w3.org/2000/svg">
    <defs>
        <font id="VWText">
            <font-face font-family="VWText"
                       units-per-em="1000"
                       ascent="998"
                       descent="-221"
                       bbox="-201 -221 1032 961"
                    />
            <missing-glyph horiz-adv-x="0" />
            
            <glyph glyph-name="!" unicode="&#x21;" horiz-adv-x="191" d=" M174,507 L159,207 L106,207 L90,507 L90,680 L174,680 M75,48 Q75,75 91,92.5 Q107,110 133,110 Q160,110 175.5,92.5 Q191,75 191,48 Q191,20 175.5,2.5 Q160,-15 133,-15 Q107,-15 91,2.5 Q75,20 75,48"/> 
            <glyph glyph-name="&quot;" unicode="&#x22;" horiz-adv-x="293" d=" M293,579 L277,404 L225,404 L209,579 L209,680 L293,680 M155,579 L139,404 L87,404 L71,579 L71,680 L155,680"/> 
            <glyph glyph-name="#" unicode="&#x23;" horiz-adv-x="602" d=" M166,0 L91,0 L91,10 L134,178 L45,178 L45,244 L151,244 L202,441 L111,441 L111,507 L219,507 L264,680 L339,680 L339,670 L297,507 L434,507 L479,680 L554,680 L554,670 L512,507 L602,507 L602,441 L495,441 L444,244 L536,244 L536,178 L427,178 L381,0 L306,0 L306,10 L349,178 L212,178 M280,441 L229,244 L366,244 L417,441"/> 
            <glyph glyph-name="$" unicode="&#x24;" horiz-adv-x="475" d=" M71,57 L110,123 Q169,69 245,62 L245,312 L229,319 Q85,381 85,501 Q85,572 128,625.5 Q171,679 245,691 L245,770 L311,770 L311,694 Q392,689 460,643 L424,577 Q372,611 311,617 L311,377 L315,375 Q395,340 435,295.5 Q475,251 475,181 Q475,103 430.5,51.5 Q386,0 311,-12 L311,-128 L245,-128 L245,-14 Q145,-4 71,57 M170,507 Q170,472 186.5,447.5 Q203,423 246,403 L246,615 Q170,593 170,507 M390,176 Q390,215 372,239.5 Q354,264 311,285 L311,64 Q390,85 390,176"/> 
            <glyph glyph-name="%" unicode="&#x25;" horiz-adv-x="698" d=" M116,623 Q116,393 186,393 Q255,393 255,508 Q255,623 186,623 M322,589 Q322,427 287,379.5 Q252,332 186,332 Q119,332 84,379.5 Q49,427 49,508 Q49,589 84,636.5 Q119,684 186,684 Q252,684 322,589 M492,283 Q492,53 562,53 Q631,53 631,168 Q631,283 562,283 M698,249 Q698,87 663,39.5 Q628,-8 562,-8 Q495,-8 460,39.5 Q425,87 425,168 Q425,249 460,296.5 Q495,344 562,344 Q628,344 698,249 M192,0 L116,0 L116,10 L563,680 L639,680 L639,670"/> 
            <glyph glyph-name="&amp;" unicode="&#x26;" horiz-adv-x="627" d=" M541,352 L604,309 L569,248 Q535,189 503,146 L627,10 L627,0 L531,0 L453,86 Q354,-15 250,-15 Q160,-15 109.5,34.5 Q59,84 59,162 Q59,265 184,343 L208,358 L199,369 Q122,451 122,523 Q122,594 167,644.5 Q212,695 292,695 Q368,695 414,643.5 Q460,592 460,524 Q460,435 363,374 L320,345 L450,203 Q457,213 503,288 M253,61 Q334,61 404,141 L258,303 L236,289 Q146,230 146,161 Q146,117 174,89 Q202,61 253,61 M209,526 Q209,467 266,405 L271,399 L316,427 Q373,463 373,527 Q373,567 352.5,592.5 Q332,618 292,618 Q249,618 229,592.5 Q209,567 209,526"/> 
            <glyph glyph-name="'" unicode="&#x27;" horiz-adv-x="155" d=" M155,579 L139,404 L87,404 L71,579 L71,680 L155,680"/> 
            <glyph glyph-name="(" unicode="&#x28;" horiz-adv-x="232" d=" M58,251 Q58,502 173,716 L232,686 Q145,483 145,250 Q145,16 232,-187 L173,-216 Q58,-2 58,251"/> 
            <glyph glyph-name=")" unicode="&#x29;" horiz-adv-x="222" d=" M222,251 Q222,-2 107,-216 L48,-187 Q135,9 135,250 Q135,490 48,686 L107,716 Q222,502 222,251"/> 
            <glyph glyph-name="*" unicode="&#x2A;" horiz-adv-x="371" d=" M186,484 L185,485 L94,424 L59,485 L155,535 L155,537 L59,587 L93,649 L183,588 L185,589 L180,700 L250,700 L243,589 L245,588 L336,649 L371,588 L275,538 L275,536 L371,486 L337,424 L244,486 L243,485 L250,373 L180,373"/> 
            <glyph glyph-name="+" unicode="&#x2B;" horiz-adv-x="493" d=" M312,501 L312,307 L493,307 L493,233 L312,233 L312,38 L235,38 L235,233 L56,233 L56,307 L235,307 L235,501"/> 
            <glyph glyph-name="," unicode="&#x2C;" horiz-adv-x="174" d=" M43,-161 L43,-151 L81,98 L174,98 L174,88 L108,-161"/> 
            <glyph glyph-name="-" unicode="&#x2D;" horiz-adv-x="339" d=" M339,233 L75,233 L75,307 L339,307"/> 
            <glyph glyph-name="." unicode="&#x2E;" horiz-adv-x="184" d=" M64,48 Q64,75 81,92.5 Q98,110 124,110 Q151,110 167.5,92.5 Q184,75 184,48 Q184,20 167.5,2.5 Q151,-15 124,-15 Q98,-15 81,2.5 Q64,20 64,48"/> 
            <glyph glyph-name="/" unicode="&#x2F;" horiz-adv-x="343" d=" M107,0 L31,0 L31,10 L268,680 L343,680 L343,670"/> 
            <glyph glyph-name="0" unicode="&#x30;" horiz-adv-x="507" d=" M129,477 Q129,203 162,132 Q195,61 276,61 Q355,61 387.5,132 Q420,203 420,340 Q420,477 387.5,548 Q355,619 276,619 Q195,619 129,477 M507,695 Q507,-15 276,-15 Q42,-15 42,340 Q42,695 276,695"/> 
            <glyph glyph-name="1" unicode="&#x31;" horiz-adv-x="467" d=" M125,550 L112,550 L112,625 L265,680 L336,680 L336,74 L467,74 L467,0 L102,0 L102,74 L249,74 L249,591 L247,591"/> 
            <glyph glyph-name="2" unicode="&#x32;" horiz-adv-x="471" d=" M183,76 L183,74 L471,74 L471,0 L73,0 L73,70 L299,324 Q329,360 340,374 Q351,388 364.5,419.5 Q378,451 378,483 Q378,541 345,580 Q312,619 253,619 Q177,619 110,556 L68,615 Q155,695 258,695 Q347,695 406,636 Q465,577 465,483 Q465,422 442,379 Q419,336 368,278"/> 
            <glyph glyph-name="3" unicode="&#x33;" horiz-adv-x="472" d=" M148,309 L148,385 L257,385 Q314,385 342,417.5 Q370,450 370,500 Q370,549 340,584 Q310,619 257,619 Q180,619 102,584 L76,650 Q154,695 258,695 Q353,695 405,644 Q457,593 457,505 Q457,454 430.5,411 Q404,368 371,353 L371,351 Q417,332 444.5,287.5 Q472,243 472,182 Q472,93 410.5,39 Q349,-15 252,-15 Q137,-15 60,36 L89,102 Q163,61 251,61 Q309,61 347,95 Q385,129 385,187 Q385,309 252,309"/> 
            <glyph glyph-name="4" unicode="&#x34;" horiz-adv-x="508" d=" M347,222 L347,480 L431,480 L431,222 L508,222 L508,148 L431,148 L431,0 L347,0 L347,148 L34,148 L34,209 L226,680 L311,680 L127,224 L127,222"/> 
            <glyph glyph-name="5" unicode="&#x35;" horiz-adv-x="473" d=" M117,332 L105,346 L142,680 L450,680 L450,606 L210,606 L189,411 Q229,413 252,413 Q473,413 473,203 Q473,98 408,41.5 Q343,-15 235,-15 Q196,-15 147,-3 Q98,9 65,25 L87,96 Q167,61 235,61 Q386,61 386,203 Q386,337 244,337 Q175,337 117,332"/> 
            <glyph glyph-name="6" unicode="&#x36;" horiz-adv-x="496" d=" M354,680 L354,670 L198,410 L200,408 Q214,421 242.5,432.5 Q271,444 298,444 Q386,444 441,382 Q496,320 496,218 Q496,116 437.5,50.5 Q379,-15 277,-15 Q174,-15 115.5,50.5 Q57,116 57,218 Q57,314 109,403 L263,680 M409,218 Q409,287 373,327.5 Q337,368 277,368 Q216,368 180,327.5 Q144,287 144,218 Q144,148 180.5,104.5 Q217,61 277,61 Q337,61 373,104.5 Q409,148 409,218"/> 
            <glyph glyph-name="7" unicode="&#x37;" horiz-adv-x="472" d=" M165,0 L165,10 L381,604 L381,606 L78,606 L78,680 L472,680 L472,613 L254,0"/> 
            <glyph glyph-name="8" unicode="&#x38;" horiz-adv-x="497" d=" M208,61 Q342,61 376,95.5 Q410,130 410,189 Q410,248 376,283 Q342,318 275,318 Q206,318 172.5,283 Q139,248 139,189 Q139,130 208,61 M176,695 Q374,695 423.5,643.5 Q473,592 473,507 Q473,411 387,359 L387,357 Q434,334 465.5,288.5 Q497,243 497,185 Q497,95 439.5,40 Q382,-15 275,-15 Q167,-15 109.5,40 Q52,95 52,185 Q52,243 83.5,288.5 Q115,334 163,357 L163,359 Q75,412 75,507 Q75,592 176,695 M275,394 Q329,394 357.5,423.5 Q386,453 386,506 Q386,559 357.5,589 Q329,619 275,619 Q220,619 191,589 Q162,559 162,506 Q162,453 191,423.5 Q220,394 275,394"/> 
            <glyph glyph-name="9" unicode="&#x39;" horiz-adv-x="492" d=" M195,0 L195,10 L351,270 Q350,271 350,272 Q336,259 307,247.5 Q278,236 251,236 Q163,236 108,298 Q53,360 53,462 Q53,564 111.5,629.5 Q170,695 272,695 Q375,695 433.5,629.5 Q492,564 492,462 Q492,370 440,277 L286,0 M140,531 Q140,393 176,352.5 Q212,312 272,312 Q334,312 369.5,352.5 Q405,393 405,462 Q405,532 369,575.5 Q333,619 272,619 Q213,619 140,531"/> 
            <glyph glyph-name=":" unicode="&#x3A;" horiz-adv-x="195" d=" M75,435 Q75,462 92,479.5 Q109,497 135,497 Q162,497 178.5,479.5 Q195,462 195,435 Q195,407 178.5,389.5 Q162,372 135,372 Q109,372 92,389.5 Q75,407 75,435 M75,48 Q75,75 92,92.5 Q109,110 135,110 Q162,110 178.5,92.5 Q195,75 195,48 Q195,20 178.5,2.5 Q162,-15 135,-15 Q109,-15 92,2.5 Q75,20 75,48"/> 
            <glyph glyph-name=";" unicode="&#x3B;" horiz-adv-x="206" d=" M57,-161 L57,-151 L95,98 L188,98 L188,88 L122,-161 M86,435 Q86,462 103,479.5 Q120,497 146,497 Q173,497 189.5,479.5 Q206,462 206,435 Q206,407 189.5,389.5 Q173,372 146,372 Q120,372 103,389.5 Q86,407 86,435"/> 
            <glyph glyph-name="&lt;" unicode="&#x3C;" horiz-adv-x="482" d=" M482,25 L474,25 L45,236 L45,305 L474,516 L482,516 L482,432 L133,272 L133,269 L482,109"/> 
            <glyph glyph-name="=" unicode="&#x3D;" horiz-adv-x="493" d=" M493,343 L56,343 L56,417 L493,417 M56,200 L493,200 L493,126 L56,126"/> 
            <glyph glyph-name="&gt;" unicode="&#x3E;" horiz-adv-x="504" d=" M75,25 L67,25 L67,109 L416,269 L416,272 L67,432 L67,516 L75,516 L504,305 L504,236"/> 
            <glyph glyph-name="?" unicode="&#x3F;" horiz-adv-x="391" d=" M230,207 L165,207 L165,346 Q237,376 271,409 Q305,442 305,501 Q305,553 277.5,586 Q250,619 202,619 Q135,619 68,567 L32,625 Q116,695 202,695 Q292,695 341.5,642.5 Q391,590 391,500 Q391,372 241,300 M138,48 Q138,75 154,92.5 Q170,110 197,110 Q223,110 239,92.5 Q255,75 255,48 Q255,20 239,2.5 Q223,-15 197,-15 Q170,-15 154,2.5 Q138,20 138,48"/> 
            <glyph glyph-name="@" unicode="&#x40;" horiz-adv-x="857" d=" M609,-43 L631,-100 Q545,-140 437,-140 Q265,-140 159.5,-29.5 Q54,81 54,264 Q54,386 103,487 Q152,588 252.5,651.5 Q353,715 488,715 Q659,715 758,609 Q857,503 857,346 Q857,206 793,127 Q729,48 645,48 Q574,48 544,112 L543,112 Q470,60 407,60 Q338,60 296,105.5 Q254,151 254,235 Q254,343 309,424.5 Q364,506 454,506 Q521,506 583,458 L584,458 L602,494 L658,494 L608,208 Q601,170 610.5,141 Q620,112 651,112 Q702,112 743,172.5 Q784,233 784,347 Q784,475 706.5,563 Q629,651 487,651 Q377,651 294.5,596.5 Q212,542 171.5,455.5 Q131,369 131,265 Q131,117 216,20.5 Q301,-76 439,-76 Q528,-76 609,-43 M522,160 L561,404 Q527,436 471,436 Q412,436 374,374 Q336,312 336,233 Q336,185 359,157 Q382,129 424,129 Q476,129 522,160"/> 
            <glyph glyph-name="A" unicode="&#x41;" horiz-adv-x="576" d=" M340,680 L576,0 L488,0 L431,176 L164,176 L106,0 L19,0 L255,680 M299,595 L297,595 L244,411 L189,246 L405,246 L352,411"/> 
            <glyph glyph-name="B" unicode="&#x42;" horiz-adv-x="537" d=" M180,303 L180,74 L326,74 Q450,74 450,189 Q450,250 418,276.5 Q386,303 325,303 M96,680 L301,680 Q511,680 511,506 Q511,448 487.5,407 Q464,366 429,353 L429,351 Q537,314 537,183 Q537,96 484,48 Q431,0 335,0 L96,0 M180,606 L180,377 L295,377 Q361,377 392.5,401.5 Q424,426 424,491 Q424,556 393.5,581 Q363,606 295,606"/> 
            <glyph glyph-name="C" unicode="&#x43;" horiz-adv-x="518" d=" M62,178 Q62,502 137.5,598.5 Q213,695 351,695 Q430,695 518,651 L495,587 Q428,619 351,619 Q249,619 199,545 Q149,471 149,340 Q149,209 199,135 Q249,61 351,61 Q428,61 495,93 L518,29 Q430,-15 351,-15 Q213,-15 62,178"/> 
            <glyph glyph-name="D" unicode="&#x44;" horiz-adv-x="588" d=" M96,0 L96,680 L268,680 Q437,680 512.5,595 Q588,510 588,340 Q588,170 512.5,85 Q437,0 268,0 M180,74 L257,74 Q397,74 449,136 Q501,198 501,340 Q501,482 449,544 Q397,606 257,606 L180,606"/> 
            <glyph glyph-name="E" unicode="&#x45;" horiz-adv-x="496" d=" M96,680 L493,680 L493,606 L180,606 L180,384 L464,384 L464,310 L180,310 L180,74 L496,74 L496,0 L96,0"/> 
            <glyph glyph-name="F" unicode="&#x46;" horiz-adv-x="493" d=" M96,680 L493,680 L493,606 L180,606 L180,371 L464,371 L464,297 L180,297 L180,0 L96,0"/> 
            <glyph glyph-name="G" unicode="&#x47;" horiz-adv-x="554" d=" M346,334 L554,334 L554,55 Q460,-15 342,-15 Q202,-15 132.5,81.5 Q63,178 63,340 Q63,504 133.5,599.5 Q204,695 351,695 Q448,695 552,630 L522,566 Q435,619 351,619 Q150,619 150,340 Q150,211 196,136 Q242,61 342,61 Q425,61 470,93 L470,260 L346,280"/> 
            <glyph glyph-name="H" unicode="&#x48;" horiz-adv-x="574" d=" M490,0 L490,310 L180,310 L180,0 L96,0 L96,680 L180,680 L180,384 L490,384 L490,680 L574,680 L574,0"/> 
            <glyph glyph-name="I" unicode="&#x49;" horiz-adv-x="180" d=" M180,680 L180,0 L96,0 L96,680"/> 
            <glyph glyph-name="J" unicode="&#x4A;" horiz-adv-x="353" d=" M25,58 L67,113 Q68,112 75,106 Q82,100 83.5,98.5 Q85,97 91.5,91.5 Q98,86 101,84 Q104,82 110.5,78 Q117,74 121,72.5 Q125,71 132,68 Q139,65 145,64 Q151,63 158,62 Q165,61 173,61 Q221,61 245,94 Q269,127 269,209 L269,680 L353,680 L353,202 Q353,92 306,38.5 Q259,-15 173,-15 Q90,-15 25,58"/> 
            <glyph glyph-name="K" unicode="&#x4B;" horiz-adv-x="549" d=" M182,311 L180,311 L180,0 L96,0 L96,680 L180,680 L180,345 L182,345 L440,680 L537,680 L537,670 L267,333 L549,10 L549,0 L444,0"/> 
            <glyph glyph-name="L" unicode="&#x4C;" horiz-adv-x="466" d=" M96,680 L180,680 L180,74 L466,74 L466,0 L96,0"/> 
            <glyph glyph-name="M" unicode="&#x4D;" horiz-adv-x="708" d=" M401,258 L402,258 L457,386 L628,680 L708,680 L708,0 L624,0 L624,427 L634,544 L632,544 L433,171 L371,171 L172,544 L170,544 L180,427 L180,0 L96,0 L96,680 L176,680 L346,386"/> 
            <glyph glyph-name="N" unicode="&#x4E;" horiz-adv-x="582" d=" M504,126 L506,126 L498,253 L498,680 L582,680 L582,0 L494,0 L174,554 L172,554 L180,427 L180,0 L96,0 L96,680 L184,680"/> 
            <glyph glyph-name="O" unicode="&#x4F;" horiz-adv-x="617" d=" M150,619 Q150,61 341,61 Q530,61 530,340 Q530,619 341,619 M617,444 Q617,236 590,158.5 Q563,81 499.5,33 Q436,-15 341,-15 Q200,-15 131.5,82 Q63,179 63,340 Q63,501 131.5,598 Q200,695 341,695 Q436,695 499.5,647 Q563,599 617,444"/> 
            <glyph glyph-name="P" unicode="&#x50;" horiz-adv-x="519" d=" M181,0 L96,0 L96,680 L310,680 Q411,680 465,626 Q519,572 519,473 Q519,375 464.5,320.5 Q410,266 310,266 L181,266 M181,606 L181,340 L303,340 Q367,340 399.5,376 Q432,412 432,473 Q432,533 399.5,569.5 Q367,606 303,606"/> 
            <glyph glyph-name="Q" unicode="&#x51;" horiz-adv-x="638" d=" M617,340 Q617,96 474,16 L638,-61 L601,-137 L364,-14 Q361,-14 353,-14.5 Q345,-15 341,-15 Q200,-15 131.5,82 Q63,179 63,340 Q63,501 131.5,598 Q200,695 341,695 Q436,695 499.5,647 Q563,599 590,521.5 Q617,444 617,340 M150,619 Q150,61 341,61 Q530,61 530,340 Q530,619 341,619"/> 
            <glyph glyph-name="R" unicode="&#x52;" horiz-adv-x="575" d=" M180,0 L96,0 L96,680 L331,680 Q428,680 482,630.5 Q536,581 536,487 Q536,408 497,360.5 Q458,313 387,300 L575,16 L575,0 L483,0 L293,295 L180,295 M180,369 L326,369 Q386,369 417.5,399.5 Q449,430 449,487 Q449,544 417.5,575 Q386,606 326,606 L180,606"/> 
            <glyph glyph-name="S" unicode="&#x53;" horiz-adv-x="453" d=" M49,57 L88,123 Q156,61 250,61 Q303,61 334.5,91 Q366,121 366,176 Q366,218 342.5,244.5 Q319,271 264,295 L207,319 Q63,381 63,501 Q63,583 118,639 Q173,695 266,695 Q363,695 438,643 L402,577 Q335,619 262,619 Q208,619 179,587 Q150,555 150,507 Q150,471 169,445.5 Q188,420 236,400 L293,375 Q373,340 413,295.5 Q453,251 453,181 Q453,94 397.5,39.5 Q342,-15 250,-15 Q138,-15 49,57"/> 
            <glyph glyph-name="T" unicode="&#x54;" horiz-adv-x="487" d=" M36,680 L487,680 L487,606 L304,606 L304,0 L218,0 L218,606 L36,606"/> 
            <glyph glyph-name="U" unicode="&#x55;" horiz-adv-x="572" d=" M90,680 L174,680 L174,252 Q174,161 213,111 Q252,61 332,61 Q488,61 488,252 L488,680 L572,680 L572,241 Q572,118 512.5,51.5 Q453,-15 332,-15 Q90,-15 90,242"/> 
            <glyph glyph-name="V" unicode="&#x56;" horiz-adv-x="572" d=" M572,680 L572,670 L338,0 L254,0 L21,670 L21,680 L109,680 L245,269 L296,83 L298,83 L349,270 L483,680"/> 
            <glyph glyph-name="W" unicode="&#x57;" horiz-adv-x="882" d=" M882,680 L882,670 L701,0 L616,0 L498,427 L458,598 L455,598 L415,427 L298,0 L212,0 L32,670 L32,680 L119,680 L220,270 L256,101 L258,101 L298,270 L412,680 L501,680 L615,270 L655,101 L657,101 L693,270 L794,680"/> 
            <glyph glyph-name="X" unicode="&#x58;" horiz-adv-x="520" d=" M33,680 L123,680 L275,401 L277,401 L430,680 L520,680 L520,670 L329,340 L520,10 L520,0 L430,0 L277,278 L275,278 L123,0 L33,0 L33,10 L223,340 L33,670"/> 
            <glyph glyph-name="Y" unicode="&#x59;" horiz-adv-x="514" d=" M15,680 L105,680 L263,371 L265,371 L425,680 L514,680 L514,670 L306,288 L306,0 L222,0 L222,288 L15,670"/> 
            <glyph glyph-name="Z" unicode="&#x5A;" horiz-adv-x="468" d=" M62,680 L468,680 L468,609 L150,76 L150,74 L468,74 L468,0 L46,0 L46,71 L363,604 L363,606 L62,606"/> 
            <glyph glyph-name="[" unicode="&#x5B;" horiz-adv-x="283" d=" M88,700 L283,700 L283,653 L172,630 L172,-128 L283,-151 L283,-198 L88,-198"/> 
            <glyph glyph-name="\" unicode="&#x5C;" horiz-adv-x="342" d=" M342,0 L266,0 L30,670 L30,680 L105,680 L342,10"/> 
            <glyph glyph-name="]" unicode="&#x5D;" horiz-adv-x="236" d=" M41,700 L236,700 L236,-198 L41,-198 L41,-151 L152,-128 L152,630 L41,653"/> 
            <glyph glyph-name="^" unicode="&#x5E;" horiz-adv-x="433" d=" M433,382 L433,372 L357,372 L239,614 L235,614 L117,372 L41,372 L41,382 L207,700 L268,700"/> 
            <glyph glyph-name="_" unicode="&#x5F;" horiz-adv-x="395" d=" M395,-88 L75,-88 L75,-22 L395,-22"/> 
            <glyph glyph-name="`" unicode="&#x60;" horiz-adv-x="346" d=" M196,700 L196,710 L287,710 L346,589 L346,579 L275,579"/> 
            <glyph glyph-name="a" unicode="&#x61;" horiz-adv-x="417" d=" M335,224 L244,224 Q131,224 131,131 Q131,55 210,55 Q287,55 335,96 M417,0 L357,0 L349,44 L347,44 Q274,-15 192,-15 Q125,-15 86,23.5 Q47,62 47,131 Q47,282 237,282 L335,282 L335,313 Q335,365 309.5,396 Q284,427 232,427 Q157,427 104,386 L70,443 Q139,497 235,497 Q325,497 371,448 Q417,399 417,311"/> 
            <glyph glyph-name="b" unicode="&#x62;" horiz-adv-x="491" d=" M163,383 L163,99 Q210,55 283,55 Q349,55 378,107 Q407,159 407,241 Q407,323 378,375 Q349,427 283,427 Q210,427 163,383 M81,700 L163,700 L163,448 L165,448 Q223,497 305,497 Q397,497 444,425 Q491,353 491,241 Q491,129 444,57 Q397,-15 305,-15 Q229,-15 151,44 L150,44 L140,0 L81,0"/> 
            <glyph glyph-name="c" unicode="&#x63;" horiz-adv-x="414" d=" M54,124 Q54,358 110.5,427.5 Q167,497 272,497 Q344,497 414,461 L392,400 Q331,427 275,427 Q208,427 173,373.5 Q138,320 138,241 Q138,163 173.5,109 Q209,55 275,55 Q331,55 392,82 L414,21 Q344,-15 272,-15 Q167,-15 54,124"/> 
            <glyph glyph-name="d" unicode="&#x64;" horiz-adv-x="465" d=" M383,99 L383,383 Q339,427 263,427 Q199,427 169,374.5 Q139,322 139,241 Q139,160 169,107.5 Q199,55 263,55 Q339,55 383,99 M383,700 L465,700 L465,0 L407,0 L398,44 L396,44 Q320,-15 241,-15 Q148,-15 101.5,57 Q55,129 55,241 Q55,353 101.5,425 Q148,497 241,497 Q325,497 381,448 L383,448"/> 
            <glyph glyph-name="e" unicode="&#x65;" horiz-adv-x="460" d=" M455,220 L133,220 Q133,152 174.5,103.5 Q216,55 278,55 Q350,55 411,99 L442,38 Q368,-15 271,-15 Q163,-15 108.5,58 Q54,131 54,243 Q54,348 108.5,422.5 Q163,497 262,497 Q361,497 410.5,437 Q460,377 460,289 Q460,248 455,220 M137,282 L379,282 Q380,289 380,305 Q380,358 349,392.5 Q318,427 262,427 Q208,427 174.5,385.5 Q141,344 137,282"/> 
            <glyph glyph-name="f" unicode="&#x66;" horiz-adv-x="317" d=" M196,0 L114,0 L114,415 L35,415 L35,463 L114,482 L114,548 Q114,705 250,705 Q285,705 317,699 L317,628 Q289,635 262,635 Q196,635 196,558 L196,482 L317,482 L317,415 L196,415"/> 
            <glyph glyph-name="g" unicode="&#x67;" horiz-adv-x="465" d=" M383,103 L383,383 Q339,427 263,427 Q197,427 168,376 Q139,325 139,243 Q139,59 263,59 Q342,59 383,103 M465,482 L465,-6 Q465,-99 411,-156 Q357,-213 264,-213 Q176,-213 103,-178 L125,-118 Q182,-145 264,-145 Q319,-145 351,-111 Q383,-77 383,-15 L383,37 L381,37 Q320,-12 242,-12 Q149,-12 102,59.5 Q55,131 55,243 Q55,355 102,426 Q149,497 242,497 Q324,497 395,438 L397,438 L408,482"/> 
            <glyph glyph-name="h" unicode="&#x68;" horiz-adv-x="469" d=" M469,0 L387,0 L387,300 Q387,427 287,427 Q255,427 219,414 Q183,401 163,385 L163,0 L81,0 L81,700 L163,700 L163,449 L165,449 Q233,497 308,497 Q385,497 427,451 Q469,405 469,314"/> 
            <glyph glyph-name="i" unicode="&#x69;" horiz-adv-x="175" d=" M163,0 L81,0 L81,482 L163,482 M70,633 Q70,658 84,673 Q98,688 122,688 Q147,688 161,673 Q175,658 175,633 Q175,607 161,592.5 Q147,578 122,578 Q98,578 84,592.5 Q70,607 70,633"/> 
            <glyph glyph-name="j" unicode="&#x6A;" horiz-adv-x="175" d=" M81,482 L163,482 L163,-60 Q163,-133 130,-173 Q97,-213 32,-213 Q2,-213 -31,-206 L-31,-141 Q-11,-145 24,-145 Q81,-145 81,-62 M70,633 Q70,658 84,673 Q98,688 122,688 Q147,688 161,673 Q175,658 175,633 Q175,607 161,592.5 Q147,578 122,578 Q98,578 84,592.5 Q70,607 70,633"/> 
            <glyph glyph-name="k" unicode="&#x6B;" horiz-adv-x="456" d=" M165,224 L163,224 L163,0 L81,0 L81,700 L163,700 L163,258 L165,258 L354,482 L449,482 L449,475 L244,243 L456,8 L456,0 L355,0"/> 
            <glyph glyph-name="l" unicode="&#x6C;" horiz-adv-x="167" d=" M167,0 L85,0 L85,700 L167,700"/> 
            <glyph glyph-name="m" unicode="&#x6D;" horiz-adv-x="767" d=" M81,482 L137,482 L146,438 L149,438 Q228,497 306,497 Q401,497 438,433 L440,433 Q524,497 602,497 Q767,497 767,314 L767,0 L685,0 L685,300 Q685,366 662.5,396.5 Q640,427 584,427 Q522,427 460,373 Q465,348 465,314 L465,0 L383,0 L383,300 Q383,367 363,397 Q343,427 288,427 Q224,427 163,384 L163,0 L81,0"/> 
            <glyph glyph-name="n" unicode="&#x6E;" horiz-adv-x="469" d=" M81,482 L139,482 L149,438 L151,438 Q176,459 220.5,478 Q265,497 308,497 Q385,497 427,451 Q469,405 469,314 L469,0 L387,0 L387,300 Q387,427 287,427 Q256,427 220,413.5 Q184,400 163,384 L163,0 L81,0"/> 
            <glyph glyph-name="o" unicode="&#x6F;" horiz-adv-x="491" d=" M138,324 Q138,158 169.5,106.5 Q201,55 271,55 Q341,55 374,107 Q407,159 407,241 Q407,323 374,375 Q341,427 271,427 Q201,427 138,324 M491,354 Q491,128 436.5,56.5 Q382,-15 271,-15 Q161,-15 107.5,56.5 Q54,128 54,241 Q54,354 107.5,425.5 Q161,497 271,497 Q382,497 491,354"/> 
            <glyph glyph-name="p" unicode="&#x70;" horiz-adv-x="491" d=" M163,383 L163,99 Q207,55 284,55 Q349,55 378,107 Q407,159 407,241 Q407,323 378,375 Q349,427 284,427 Q207,427 163,383 M81,482 L139,482 L149,438 L150,438 Q226,497 306,497 Q399,497 445,425.5 Q491,354 491,241 Q491,128 445,56.5 Q399,-15 306,-15 Q225,-15 165,34 L163,34 L163,-198 L81,-198"/> 
            <glyph glyph-name="q" unicode="&#x71;" horiz-adv-x="465" d=" M383,99 L383,383 Q341,427 263,427 Q197,427 168,375 Q139,323 139,241 Q139,159 168,107 Q197,55 263,55 Q341,55 383,99 M465,482 L465,-198 L383,-198 L383,34 L381,34 Q321,-15 241,-15 Q147,-15 101,56.5 Q55,128 55,241 Q55,354 101,425.5 Q147,497 241,497 Q317,497 396,438 L398,438 L408,482"/> 
            <glyph glyph-name="r" unicode="&#x72;" horiz-adv-x="322" d=" M81,482 L139,482 L149,431 L151,431 Q194,497 275,497 Q301,497 322,490 L310,417 Q288,423 265,423 Q195,423 163,359 L163,0 L81,0"/> 
            <glyph glyph-name="s" unicode="&#x73;" horiz-adv-x="381" d=" M48,31 L77,96 Q141,55 208,55 Q252,55 274.5,75.5 Q297,96 297,129 Q297,154 281.5,169.5 Q266,185 232,197 L178,215 Q120,235 88,266.5 Q56,298 56,351 Q56,413 101.5,455 Q147,497 222,497 Q299,497 372,463 L345,397 Q285,427 225,427 Q183,427 161.5,406 Q140,385 140,353 Q140,307 203,286 L256,270 Q381,233 381,130 Q381,67 335.5,26 Q290,-15 213,-15 Q119,-15 48,31"/> 
            <glyph glyph-name="t" unicode="&#x74;" horiz-adv-x="332" d=" M122,594 L204,594 L204,482 L332,482 L332,415 L204,415 L204,125 Q204,55 262,55 Q280,55 332,67 L332,-1 Q279,-15 245,-15 Q188,-15 155,18 Q122,51 122,116 L122,415 L33,415 L33,463 L122,482"/> 
            <glyph glyph-name="u" unicode="&#x75;" horiz-adv-x="459" d=" M77,482 L159,482 L159,182 Q159,118 182,86.5 Q205,55 255,55 Q287,55 322,68.5 Q357,82 377,98 L377,482 L459,482 L459,0 L401,0 L392,44 L390,44 Q309,-15 235,-15 Q159,-15 118,31 Q77,77 77,168"/> 
            <glyph glyph-name="v" unicode="&#x76;" horiz-adv-x="452" d=" M452,482 L452,472 L280,0 L202,0 L29,472 L29,482 L110,482 L213,177 L239,84 L241,84 L267,177 L371,482"/> 
            <glyph glyph-name="w" unicode="&#x77;" horiz-adv-x="735" d=" M735,482 L735,472 L584,0 L505,0 L406,312 L384,402 L382,402 L360,312 L262,0 L183,0 L32,472 L32,482 L115,482 L204,177 L224,89 L226,89 L247,177 L341,482 L425,482 L520,177 L541,89 L543,89 L563,177 L652,482"/> 
            <glyph glyph-name="x" unicode="&#x78;" horiz-adv-x="434" d=" M236,189 L234,189 L120,0 L35,0 L35,10 L187,241 L35,472 L35,482 L120,482 L234,292 L236,292 L349,482 L434,482 L434,472 L282,241 L434,10 L434,0 L349,0"/> 
            <glyph glyph-name="y" unicode="&#x79;" horiz-adv-x="450" d=" M450,482 L450,472 L265,-65 Q214,-213 112,-213 Q80,-213 31,-200 L31,-133 Q77,-145 105,-145 Q133,-145 150,-124 Q167,-103 183,-60 L205,5 L27,472 L27,482 L108,482 L213,177 L241,82 L243,82 L269,177 L370,482"/> 
            <glyph glyph-name="z" unicode="&#x7A;" horiz-adv-x="377" d=" M57,482 L377,482 L377,432 L145,68 L145,66 L377,66 L377,0 L44,0 L44,50 L276,414 L276,416 L57,416"/> 
            <glyph glyph-name="{" unicode="&#x7B;" horiz-adv-x="284" d=" M44,214 L44,288 Q81,288 98,304.5 Q115,321 115,360 L115,554 Q115,627 146,663.5 Q177,700 266,700 L284,700 L284,648 Q231,648 214,628.5 Q197,609 197,552 L197,369 Q197,277 126,252 L126,250 Q197,225 197,133 L197,-50 Q197,-107 214,-126.5 Q231,-146 284,-146 L284,-198 L266,-198 Q177,-198 146,-161.5 Q115,-125 115,-52 L115,142 Q115,181 98,197.5 Q81,214 44,214"/> 
            <glyph glyph-name="|" unicode="&#x7C;" horiz-adv-x="154" d=" M154,700 L154,-198 L88,-198 L88,700"/> 
            <glyph glyph-name="}" unicode="&#x7D;" horiz-adv-x="284" d=" M284,288 L284,214 Q247,214 230,197.5 Q213,181 213,142 L213,-52 Q213,-125 182,-161.5 Q151,-198 62,-198 L44,-198 L44,-146 Q96,-146 113.5,-126 Q131,-106 131,-50 L131,133 Q131,226 202,250 L202,252 Q131,276 131,369 L131,552 Q131,608 113.5,628 Q96,648 44,648 L44,700 L62,700 Q151,700 182,663.5 Q213,627 213,554 L213,360 Q213,321 230,304.5 Q247,288 284,288"/> 
            <glyph glyph-name="~" unicode="&#x7E;" horiz-adv-x="430" d=" M93,212 L60,259 Q103,339 172,339 Q202,339 252,306.5 Q302,274 327,274 Q368,274 397,314 L430,266 Q385,204 322,204 Q294,204 242,236.5 Q190,269 170,269 Q131,269 93,212"/> 
            <glyph glyph-name="¡" unicode="&#xA1;" horiz-adv-x="182" d=" M83,-25 L98,275 L151,275 L167,-25 L167,-198 L83,-198 M182,434 Q182,407 166,389.5 Q150,372 124,372 Q97,372 81.5,389.5 Q66,407 66,434 Q66,462 81.5,479.5 Q97,497 124,497 Q150,497 166,479.5 Q182,462 182,434"/> 
            <glyph glyph-name="¢" unicode="&#xA2;" horiz-adv-x="456" d=" M96,241 Q96,346 142,414 Q188,482 275,494 L275,578 L341,578 L341,495 Q402,489 456,461 L434,400 Q398,419 341,425 L341,56 Q396,62 434,82 L456,21 Q406,-7 341,-13 L341,-96 L275,-96 L275,-12 Q187,0 141.5,67.5 Q96,135 96,241 M180,241 Q180,176 204,127 Q228,78 275,61 L275,420 Q228,404 204,354.5 Q180,305 180,241"/> 
            <glyph glyph-name="£" unicode="&#xA3;" horiz-adv-x="478" d=" M402,300 L235,300 Q242,232 242,202 Q242,161 226.5,127 Q211,93 190,76 L190,74 L478,74 L478,0 L85,0 L85,62 L92,68 Q100,75 102.5,77.5 Q105,80 112.5,87.5 Q120,95 123.5,100 Q127,105 133,114 Q139,123 142.5,131 Q146,139 149.5,149 Q153,159 154.5,170 Q156,181 156,193 Q156,222 148,300 L69,300 L69,366 L141,366 Q131,433 131,500 Q131,588 185.5,641.5 Q240,695 321,695 Q403,695 475,652 L448,588 Q385,619 321,619 Q277,619 247,588.5 Q217,558 217,503 Q217,449 228,366 L402,366"/> 
            <glyph glyph-name="¤" unicode="&#xA4;" horiz-adv-x="513" d=" M445,270 Q445,213 423,170 L512,78 L463,29 L378,115 Q338,85 277,85 Q222,85 186,109 L106,28 L57,77 L137,162 Q112,208 112,270 Q112,330 137,376 L55,464 L104,513 L185,430 Q222,455 277,455 Q339,455 379,424 L464,512 L513,463 L424,369 Q445,324 445,270 M188,318 Q188,222 211.5,189.5 Q235,157 277,157 Q321,157 345.5,189.5 Q370,222 370,270 Q370,318 345.5,350.5 Q321,383 277,383 Q235,383 188,318"/> 
            <glyph glyph-name="¥" unicode="&#xA5;" horiz-adv-x="523" d=" M496,374 L496,308 L315,308 L315,209 L496,209 L496,143 L315,143 L315,0 L231,0 L231,143 L53,143 L53,209 L231,209 L231,308 L53,308 L53,374 L193,374 L24,670 L24,680 L114,680 L272,391 L274,391 L434,680 L523,680 L523,670 L353,374"/> 
            <glyph glyph-name="¦" unicode="&#xA6;" horiz-adv-x="157" d=" M91,134 L157,134 L157,-198 L91,-198 M157,368 L91,368 L91,700 L157,700"/> 
            <glyph glyph-name="§" unicode="&#xA7;" horiz-adv-x="462" d=" M300,324 L212,363 Q157,335 157,276 Q157,218 231,187 L321,147 Q375,179 375,233 Q375,291 300,324 M385,116 L385,114 Q462,63 462,-12 Q462,-87 408,-133 Q354,-179 259,-179 Q157,-179 59,-119 L95,-46 Q178,-103 259,-103 Q311,-103 342.5,-79 Q374,-55 374,-15 Q374,10 354,29.5 Q334,49 293,68 L201,108 Q70,164 70,259 Q70,345 148,393 L148,396 Q70,444 70,523 Q70,598 123.5,646.5 Q177,695 273,695 Q364,695 444,651 L411,581 Q337,619 273,619 Q218,619 187.5,593.5 Q157,568 157,531 Q157,504 175.5,484.5 Q194,465 243,442 L327,403 Q462,340 462,247 Q462,175 385,116"/> 
            <glyph glyph-name="¨" unicode="&#xA8;" horiz-adv-x="413" d=" M308,633 Q308,658 322,673 Q336,688 360,688 Q385,688 399,673 Q413,658 413,633 Q413,607 399,592.5 Q385,578 360,578 Q336,578 322,592.5 Q308,607 308,633 M125,633 Q125,658 139,673 Q153,688 177,688 Q202,688 216,673 Q230,658 230,633 Q230,607 216,592.5 Q202,578 177,578 Q153,578 139,592.5 Q125,607 125,633"/> 
            <glyph glyph-name="©" unicode="&#xA9;" horiz-adv-x="769" d=" M59,189 Q59,491 161,593 Q263,695 414,695 Q565,695 667,593 Q769,491 769,340 Q769,189 667,87 Q565,-15 414,-15 Q263,-15 59,189 M115,469 Q115,211 200,124.5 Q285,38 414,38 Q543,38 628,124.5 Q713,211 713,340 Q713,469 628,555.5 Q543,642 414,642 Q285,642 115,469 M230,250 Q230,430 278,482.5 Q326,535 415,535 Q470,535 523,511 L504,455 Q462,474 415,474 Q361,474 332,438 Q303,402 303,340 Q303,278 332,242 Q361,206 415,206 Q462,206 504,225 L523,169 Q470,145 415,145 Q326,145 230,250"/> 
            <glyph glyph-name="ª" unicode="&#xAA;" horiz-adv-x="323" d=" M254,484 L216,484 Q143,484 143,441 Q143,400 186,400 Q220,400 254,423 M323,350 L272,350 L263,377 L262,377 Q218,341 170,341 Q126,341 100.5,366.5 Q75,392 75,436 Q75,532 207,532 L254,532 L254,547 Q254,604 198,604 Q151,604 110,581 L90,633 Q139,663 201,663 Q260,663 291.5,631 Q323,599 323,541 M323,213 L79,213 L79,272 L323,272"/> 
            <glyph glyph-name="«" unicode="&#xAB;" horiz-adv-x="437" d=" M47,264 L47,276 L188,485 L245,447 L139,270 L245,93 L188,55 M239,264 L239,276 L380,485 L437,447 L331,270 L437,93 L380,55"/> 
            <glyph glyph-name="¬" unicode="&#xAC;" horiz-adv-x="491" d=" M423,106 L423,233 L54,233 L54,307 L491,307 L491,106"/> 
            <glyph glyph-name="­" unicode="&#xAD;" horiz-adv-x="339" d=" M339,233 L75,233 L75,307 L339,307"/> 
            <glyph glyph-name="®" unicode="&#xAE;" horiz-adv-x="515" d=" M59,464 Q59,658 124.5,724 Q190,790 287,790 Q384,790 449.5,724 Q515,658 515,561 Q515,464 449.5,398.5 Q384,333 287,333 Q190,333 59,464 M106,639 Q106,483 157.5,430.5 Q209,378 287,378 Q365,378 416.5,430.5 Q468,483 468,561 Q468,639 416.5,692 Q365,745 287,745 Q209,745 106,639 M248,455 L201,455 L201,673 L294,673 Q332,673 351.5,656 Q371,639 371,608 Q371,553 322,543 L385,460 L385,455 L334,455 L273,540 L248,540 M248,580 L287,580 Q307,580 315.5,586 Q324,592 324,608 Q324,622 315.5,627.5 Q307,633 287,633 L248,633"/> 
            <glyph glyph-name="¯" unicode="&#xAF;" horiz-adv-x="392" d=" M392,597 L149,597 L149,671 L392,671"/> 
            <glyph glyph-name="°" unicode="&#xB0;" horiz-adv-x="362" d=" M126,544 Q126,506 150,481.5 Q174,457 210,457 Q246,457 270,481.5 Q294,506 294,544 Q294,580 270,604 Q246,628 210,628 Q174,628 150,604 Q126,580 126,544 M56,544 Q56,612 99.5,653.5 Q143,695 210,695 Q276,695 319,653.5 Q362,612 362,544 Q362,475 319,432.5 Q276,390 210,390 Q144,390 100,432.5 Q56,475 56,544"/> 
            <glyph glyph-name="±" unicode="&#xB1;" horiz-adv-x="493" d=" M309,621 L309,427 L493,427 L493,353 L309,353 L309,178 L238,178 L238,353 L56,353 L56,427 L238,427 L238,621 M56,74 L493,74 L493,0 L56,0"/> 
            <glyph glyph-name="²" unicode="&#xB2;" horiz-adv-x="264" d=" M126,523 L126,522 L264,522 L264,462 L34,462 L34,513 L161,630 Q193,659 193,694 Q193,721 177.5,734 Q162,747 139,747 Q104,747 67,710 L33,758 Q83,808 144,808 Q194,808 227,779 Q260,750 260,700 Q260,639 208,595"/> 
            <glyph glyph-name="³" unicode="&#xB3;" horiz-adv-x="265" d=" M78,602 L78,662 L134,662 Q190,662 190,704 Q190,747 135,747 Q92,747 55,730 L36,785 Q79,808 138,808 Q194,808 225.5,782.5 Q257,757 257,714 Q257,684 242,664.5 Q227,645 207,639 L207,638 Q265,617 265,553 Q265,507 231.5,480.5 Q198,454 134,454 Q75,454 28,480 L45,537 Q91,515 132,515 Q199,515 199,562 Q199,602 134,602"/> 
            <glyph glyph-name="´" unicode="&#xB4;" horiz-adv-x="346" d=" M346,710 L346,700 L267,579 L196,579 L196,589 L255,710"/> 
            <glyph glyph-name="µ" unicode="&#xB5;" horiz-adv-x="470" d=" M170,-198 L88,-198 L88,482 L170,482 L170,182 Q170,118 193,86.5 Q216,55 266,55 Q298,55 333,68.5 Q368,82 388,98 L388,482 L470,482 L470,0 L412,0 L403,44 L401,44 Q320,-15 246,-15 Q202,-15 162,13 L170,-59"/> 
            <glyph glyph-name="¶" unicode="&#xB6;" horiz-adv-x="472" d=" M164,-198 L164,416 Q108,416 71.5,450.5 Q35,485 35,547 Q35,609 71.5,644.5 Q108,680 164,680 L472,680 L472,619 L386,619 L386,-198 L319,-198 L319,619 L231,619 L231,-198"/> 
            <glyph glyph-name="·" unicode="&#xB7;" horiz-adv-x="188" d=" M68,288 Q68,315 85,332.5 Q102,350 128,350 Q155,350 171.5,332.5 Q188,315 188,288 Q188,260 171.5,242.5 Q155,225 128,225 Q102,225 85,242.5 Q68,260 68,288"/> 
            <glyph glyph-name="¸" unicode="&#xB8;" horiz-adv-x="359" d=" M231,-83 L226,-73 L253,7 L315,7 L294,-48 Q359,-60 359,-120 Q359,-213 251,-213 Q212,-213 182,-199 L195,-144 Q221,-155 243,-155 Q288,-155 288,-120 Q288,-83 231,-83"/> 
            <glyph glyph-name="¹" unicode="&#xB9;" horiz-adv-x="190" d=" M31,688 L24,688 L24,746 L142,800 L190,800 L190,462 L126,462 L126,728 L125,728"/> 
            <glyph glyph-name="º" unicode="&#xBA;" horiz-adv-x="355" d=" M132,600 Q132,404 207,404 Q284,404 284,502 Q284,600 207,600 M355,572 Q355,432 317,386.5 Q279,341 207,341 Q136,341 98.5,386.5 Q61,432 61,502 Q61,572 98.5,617.5 Q136,663 207,663 Q279,663 355,572 M329,213 L86,213 L86,272 L329,272"/> 
            <glyph glyph-name="»" unicode="&#xBB;" horiz-adv-x="446" d=" M254,276 L254,264 L113,55 L56,93 L162,270 L56,447 L113,485 M446,276 L446,264 L305,55 L248,93 L354,270 L248,447 L305,485"/> 
            <glyph glyph-name="¼" unicode="&#xBC;" horiz-adv-x="638" d=" M535,131 L535,239 L600,239 L600,131 L638,131 L638,72 L600,72 L600,0 L535,0 L535,72 L371,72 L371,124 L460,338 L529,338 L444,132 L444,131 M51,568 L44,568 L44,626 L162,680 L210,680 L210,342 L146,342 L146,608 L145,608 M156,0 L80,0 L80,10 L527,680 L603,680 L603,670"/> 
            <glyph glyph-name="½" unicode="&#xBD;" horiz-adv-x="646" d=" M51,566 L44,566 L44,624 L162,678 L210,678 L210,340 L146,340 L146,606 L145,606 M508,61 L508,60 L646,60 L646,0 L416,0 L416,51 L543,168 Q575,197 575,232 Q575,259 559.5,272 Q544,285 521,285 Q486,285 449,248 L415,296 Q465,346 526,346 Q576,346 609,317 Q642,288 642,238 Q642,177 590,133 M155,0 L79,0 L79,10 L526,680 L602,680 L602,670"/> 
            <glyph glyph-name="¾" unicode="&#xBE;" horiz-adv-x="683" d=" M580,131 L580,239 L645,239 L645,131 L683,131 L683,72 L645,72 L645,0 L580,0 L580,72 L416,72 L416,124 L505,338 L574,338 L489,132 L489,131 M98,479 L98,539 L154,539 Q210,539 210,581 Q210,624 155,624 Q112,624 75,607 L56,662 Q99,685 158,685 Q214,685 245.5,659.5 Q277,634 277,591 Q277,561 262,541.5 Q247,522 227,516 L227,515 Q285,494 285,430 Q285,384 251.5,357.5 Q218,331 154,331 Q95,331 48,357 L65,414 Q111,392 152,392 Q219,392 219,439 Q219,479 154,479 M201,0 L125,0 L125,10 L572,680 L648,680 L648,670"/> 
            <glyph glyph-name="¿" unicode="&#xBF;" horiz-adv-x="403" d=" M205,275 L270,275 L270,136 Q198,106 164,73 Q130,40 130,-19 Q130,-71 157.5,-104 Q185,-137 233,-137 Q300,-137 367,-85 L403,-143 Q314,-213 233,-213 Q143,-213 93.5,-160.5 Q44,-108 44,-18 Q44,110 194,182 M297,434 Q297,407 281,389.5 Q265,372 238,372 Q212,372 196,389.5 Q180,407 180,434 Q180,462 196,479.5 Q212,497 238,497 Q265,497 281,479.5 Q297,462 297,434"/> 
            <glyph glyph-name="À" unicode="&#xC0;" horiz-adv-x="576" d=" M188,873 L188,883 L278,883 L338,762 L338,752 L267,752 M340,680 L576,0 L488,0 L431,176 L164,176 L106,0 L19,0 L255,680 M299,595 L297,595 L244,411 L189,246 L405,246 L352,411"/> 
            <glyph glyph-name="Á" unicode="&#xC1;" horiz-adv-x="576" d=" M340,680 L576,0 L488,0 L431,176 L164,176 L106,0 L19,0 L255,680 M299,595 L297,595 L244,411 L189,246 L405,246 L352,411 M408,883 L408,873 L329,752 L258,752 L258,762 L318,883"/> 
            <glyph glyph-name="Â" unicode="&#xC2;" horiz-adv-x="576" d=" M340,680 L576,0 L488,0 L431,176 L164,176 L106,0 L19,0 L255,680 M299,595 L297,595 L244,411 L189,246 L405,246 L352,411 M344,883 L430,762 L430,752 L355,752 L297,823 L239,752 L164,752 L164,762 L250,883"/> 
            <glyph glyph-name="Ã" unicode="&#xC3;" horiz-adv-x="576" d=" M340,680 L576,0 L488,0 L431,176 L164,176 L106,0 L19,0 L255,680 M299,595 L297,595 L244,411 L189,246 L405,246 L352,411 M181,767 L156,817 Q192,874 239,874 Q259,874 299.5,854 Q340,834 359,834 Q389,834 413,869 L438,819 Q398,762 355,762 Q334,762 294,782 Q254,802 234,802 Q206,802 181,767"/> 
            <glyph glyph-name="Ä" unicode="&#xC4;" horiz-adv-x="576" d=" M340,680 L576,0 L488,0 L431,176 L164,176 L106,0 L19,0 L255,680 M299,595 L297,595 L244,411 L189,246 L405,246 L352,411 M143,816 Q143,841 157,856 Q171,871 195,871 Q220,871 234,856 Q248,841 248,816 Q248,790 234,775.5 Q220,761 195,761 Q171,761 157,775.5 Q143,790 143,816 M346,816 Q346,841 360,856 Q374,871 398,871 Q423,871 437,856 Q451,841 451,816 Q451,790 437,775.5 Q423,761 398,761 Q374,761 360,775.5 Q346,790 346,816"/> 
            <glyph glyph-name="Å" unicode="&#xC5;" horiz-adv-x="576" d=" M205,721 Q205,765 230.5,789.5 Q256,814 299,814 Q342,814 367,789.5 Q392,765 392,721 Q392,667 353,642 L576,0 L488,0 L431,176 L164,176 L106,0 L19,0 L242,642 Q205,667 205,721 M299,595 L297,595 L244,411 L189,246 L405,246 L352,411 M259,721 Q259,681 299,681 Q339,681 339,721 Q339,760 299,760 Q259,760 259,721"/> 
            <glyph glyph-name="Æ" unicode="&#xC6;" horiz-adv-x="789" d=" M0,0 L0,10 L364,680 L786,680 L786,606 L473,606 L473,384 L757,384 L757,310 L473,310 L473,74 L789,74 L789,0 L389,0 L389,176 L177,176 L80,0 M399,595 L397,595 L326,453 L215,246 L389,246 L389,442"/> 
            <glyph glyph-name="Ç" unicode="&#xC7;" horiz-adv-x="519" d=" M63,340 Q63,502 138.5,598.5 Q214,695 352,695 Q431,695 519,651 L496,587 Q429,619 352,619 Q250,619 200,545 Q150,471 150,340 Q150,209 200,135 Q250,61 352,61 Q429,61 496,93 L519,29 Q434,-13 353,-15 L342,-48 Q407,-60 407,-120 Q407,-213 299,-213 Q256,-213 230,-199 L242,-144 Q268,-155 291,-155 Q314,-155 324.5,-147.5 Q335,-140 335,-120 Q335,-83 279,-83 L274,-73 L293,-10 Q183,10 123,103.5 Q63,197 63,340"/> 
            <glyph glyph-name="È" unicode="&#xC8;" horiz-adv-x="496" d=" M96,680 L493,680 L493,606 L180,606 L180,384 L464,384 L464,310 L180,310 L180,74 L496,74 L496,0 L96,0 M183,873 L183,883 L273,883 L333,762 L333,752 L262,752"/> 
            <glyph glyph-name="É" unicode="&#xC9;" horiz-adv-x="496" d=" M96,680 L493,680 L493,606 L180,606 L180,384 L464,384 L464,310 L180,310 L180,74 L496,74 L496,0 L96,0 M407,883 L407,873 L328,752 L257,752 L257,762 L317,883"/> 
            <glyph glyph-name="Ê" unicode="&#xCA;" horiz-adv-x="496" d=" M96,680 L493,680 L493,606 L180,606 L180,384 L464,384 L464,310 L180,310 L180,74 L496,74 L496,0 L96,0 M346,883 L432,762 L432,752 L357,752 L299,823 L241,752 L166,752 L166,762 L252,883"/> 
            <glyph glyph-name="Ë" unicode="&#xCB;" horiz-adv-x="496" d=" M96,680 L493,680 L493,606 L180,606 L180,384 L464,384 L464,310 L180,310 L180,74 L496,74 L496,0 L96,0 M137,816 Q137,841 151,856 Q165,871 189,871 Q214,871 228,856 Q242,841 242,816 Q242,790 228,775.5 Q214,761 189,761 Q165,761 151,775.5 Q137,790 137,816 M340,816 Q340,841 354,856 Q368,871 392,871 Q417,871 431,856 Q445,841 445,816 Q445,790 431,775.5 Q417,761 392,761 Q368,761 354,775.5 Q340,790 340,816"/> 
            <glyph glyph-name="Ì" unicode="&#xCC;" horiz-adv-x="180" d=" M180,680 L180,0 L96,0 L96,680 M23,873 L23,883 L113,883 L173,762 L173,752 L102,752"/> 
            <glyph glyph-name="Í" unicode="&#xCD;" horiz-adv-x="249" d=" M180,680 L180,0 L96,0 L96,680 M249,883 L249,873 L170,752 L99,752 L99,762 L159,883"/> 
            <glyph glyph-name="Î" unicode="&#xCE;" horiz-adv-x="265" d=" M180,680 L180,0 L96,0 L96,680 M179,883 L265,762 L265,752 L190,752 L132,823 L74,752 L-1,752 L-1,762 L85,883"/> 
            <glyph glyph-name="Ï" unicode="&#xCF;" horiz-adv-x="287" d=" M180,680 L180,0 L96,0 L96,680 M-21,816 Q-21,841 -7,856 Q7,871 31,871 Q56,871 70,856 Q84,841 84,816 Q84,790 70,775.5 Q56,761 31,761 Q7,761 -7,775.5 Q-21,790 -21,816 M182,816 Q182,841 196,856 Q210,871 234,871 Q259,871 273,856 Q287,841 287,816 Q287,790 273,775.5 Q259,761 234,761 Q210,761 196,775.5 Q182,790 182,816"/> 
            <glyph glyph-name="Ð" unicode="&#xD0;" horiz-adv-x="591" d=" M40,299 L40,373 L99,373 L99,680 L271,680 Q440,680 515.5,595 Q591,510 591,340 Q591,170 515.5,85 Q440,0 271,0 L99,0 L99,299 M183,74 L260,74 Q400,74 452,136 Q504,198 504,340 Q504,482 452,544 Q400,606 260,606 L183,606 L183,373 L321,373 L321,299 L183,299"/> 
            <glyph glyph-name="Ñ" unicode="&#xD1;" horiz-adv-x="582" d=" M504,126 L506,126 L498,253 L498,680 L582,680 L582,0 L494,0 L174,554 L172,554 L180,427 L180,0 L96,0 L96,680 L184,680 M219,767 L194,817 Q230,874 277,874 Q297,874 337.5,854 Q378,834 397,834 Q427,834 451,869 L476,819 Q436,762 393,762 Q372,762 332,782 Q292,802 272,802 Q244,802 219,767"/> 
            <glyph glyph-name="Ò" unicode="&#xD2;" horiz-adv-x="617" d=" M150,619 Q150,61 341,61 Q530,61 530,340 Q530,619 341,619 M617,444 Q617,236 590,158.5 Q563,81 499.5,33 Q436,-15 341,-15 Q200,-15 131.5,82 Q63,179 63,340 Q63,501 131.5,598 Q200,695 341,695 Q436,695 499.5,647 Q563,599 617,444 M237,873 L237,883 L327,883 L387,762 L387,752 L316,752"/> 
            <glyph glyph-name="Ó" unicode="&#xD3;" horiz-adv-x="617" d=" M150,619 Q150,61 341,61 Q530,61 530,340 Q530,619 341,619 M617,444 Q617,236 590,158.5 Q563,81 499.5,33 Q436,-15 341,-15 Q200,-15 131.5,82 Q63,179 63,340 Q63,501 131.5,598 Q200,695 341,695 Q436,695 499.5,647 Q563,599 617,444 M454,883 L454,873 L375,752 L304,752 L304,762 L364,883"/> 
            <glyph glyph-name="Ô" unicode="&#xD4;" horiz-adv-x="617" d=" M150,619 Q150,61 341,61 Q530,61 530,340 Q530,619 341,619 M617,444 Q617,236 590,158.5 Q563,81 499.5,33 Q436,-15 341,-15 Q200,-15 131.5,82 Q63,179 63,340 Q63,501 131.5,598 Q200,695 341,695 Q436,695 499.5,647 Q563,599 617,444 M392,883 L478,762 L478,752 L403,752 L345,823 L287,752 L212,752 L212,762 L298,883"/> 
            <glyph glyph-name="Õ" unicode="&#xD5;" horiz-adv-x="617" d=" M150,619 Q150,61 341,61 Q530,61 530,340 Q530,619 341,619 M617,444 Q617,236 590,158.5 Q563,81 499.5,33 Q436,-15 341,-15 Q200,-15 131.5,82 Q63,179 63,340 Q63,501 131.5,598 Q200,695 341,695 Q436,695 499.5,647 Q563,599 617,444 M228,767 L203,817 Q239,874 286,874 Q306,874 346.5,854 Q387,834 406,834 Q436,834 460,869 L485,819 Q445,762 402,762 Q381,762 341,782 Q301,802 281,802 Q253,802 228,767"/> 
            <glyph glyph-name="Ö" unicode="&#xD6;" horiz-adv-x="617" d=" M150,619 Q150,61 341,61 Q530,61 530,340 Q530,619 341,619 M617,444 Q617,236 590,158.5 Q563,81 499.5,33 Q436,-15 341,-15 Q200,-15 131.5,82 Q63,179 63,340 Q63,501 131.5,598 Q200,695 341,695 Q436,695 499.5,647 Q563,599 617,444 M190,816 Q190,841 204,856 Q218,871 242,871 Q267,871 281,856 Q295,841 295,816 Q295,790 281,775.5 Q267,761 242,761 Q218,761 204,775.5 Q190,790 190,816 M393,816 Q393,841 407,856 Q421,871 445,871 Q470,871 484,856 Q498,841 498,816 Q498,790 484,775.5 Q470,761 445,761 Q421,761 407,775.5 Q393,790 393,816"/> 
            <glyph glyph-name="×" unicode="&#xD7;" horiz-adv-x="476" d=" M122,476 L274,318 L426,475 L474,426 L322,269 L476,111 L428,62 L275,220 L124,65 L76,114 L226,269 L74,427"/> 
            <glyph glyph-name="Ø" unicode="&#xD8;" horiz-adv-x="617" d=" M153,-25 L100,10 L138,73 Q63,165 63,340 Q63,501 131.5,598 Q200,695 341,695 Q430,695 494,652 L531,710 L586,677 L542,607 Q617,513 617,340 Q617,236 590,158.5 Q563,81 499.5,33 Q436,-15 341,-15 Q248,-15 187,28 M530,340 Q530,461 494,529 L229,97 Q272,61 341,61 Q530,61 530,340 M150,340 Q150,216 186,151 L452,583 Q408,619 341,619 Q150,619 150,340"/> 
            <glyph glyph-name="Ù" unicode="&#xD9;" horiz-adv-x="572" d=" M90,680 L174,680 L174,252 Q174,161 213,111 Q252,61 332,61 Q488,61 488,252 L488,680 L572,680 L572,241 Q572,118 512.5,51.5 Q453,-15 332,-15 Q90,-15 90,242 M217,873 L217,883 L307,883 L367,762 L367,752 L296,752"/> 
            <glyph glyph-name="Ú" unicode="&#xDA;" horiz-adv-x="572" d=" M90,680 L174,680 L174,252 Q174,161 213,111 Q252,61 332,61 Q488,61 488,252 L488,680 L572,680 L572,241 Q572,118 512.5,51.5 Q453,-15 332,-15 Q90,-15 90,242 M436,883 L436,873 L357,752 L286,752 L286,762 L346,883"/> 
            <glyph glyph-name="Û" unicode="&#xDB;" horiz-adv-x="572" d=" M90,680 L174,680 L174,252 Q174,161 213,111 Q252,61 332,61 Q488,61 488,252 L488,680 L572,680 L572,241 Q572,118 512.5,51.5 Q453,-15 332,-15 Q90,-15 90,242 M374,883 L460,762 L460,752 L385,752 L327,823 L269,752 L194,752 L194,762 L280,883"/> 
            <glyph glyph-name="Ü" unicode="&#xDC;" horiz-adv-x="572" d=" M90,680 L174,680 L174,252 Q174,161 213,111 Q252,61 332,61 Q488,61 488,252 L488,680 L572,680 L572,241 Q572,118 512.5,51.5 Q453,-15 332,-15 Q90,-15 90,242 M173,816 Q173,841 187,856 Q201,871 225,871 Q250,871 264,856 Q278,841 278,816 Q278,790 264,775.5 Q250,761 225,761 Q201,761 187,775.5 Q173,790 173,816 M376,816 Q376,841 390,856 Q404,871 428,871 Q453,871 467,856 Q481,841 481,816 Q481,790 467,775.5 Q453,761 428,761 Q404,761 390,775.5 Q376,790 376,816"/> 
            <glyph glyph-name="Ý" unicode="&#xDD;" horiz-adv-x="514" d=" M15,680 L105,680 L263,371 L265,371 L425,680 L514,680 L514,670 L306,288 L306,0 L222,0 L222,288 L15,670 M379,883 L379,873 L300,752 L229,752 L229,762 L289,883"/> 
            <glyph glyph-name="Þ" unicode="&#xDE;" horiz-adv-x="519" d=" M181,0 L96,0 L96,680 L181,680 L181,556 L317,556 Q519,556 519,349 Q519,142 317,142 L181,142 M181,482 L181,216 L310,216 Q372,216 402,252 Q432,288 432,349 Q432,410 402,446 Q372,482 310,482"/> 
            <glyph glyph-name="ß" unicode="&#xDF;" horiz-adv-x="519" d=" M81,0 L81,490 Q81,596 130,650.5 Q179,705 273,705 Q368,705 417,656 Q466,607 466,525 Q466,427 385,378 L385,376 Q439,362 479,316 Q519,270 519,198 Q519,92 460.5,38.5 Q402,-15 300,-15 Q265,-15 254,-12 L254,57 Q284,55 300,55 Q435,55 435,197 Q435,261 399.5,297 Q364,333 290,333 L276,333 L276,407 L295,407 Q339,407 360.5,438 Q382,469 382,520 Q382,572 355,603.5 Q328,635 276,635 Q217,635 190,598 Q163,561 163,483 L163,0"/> 
            <glyph glyph-name="à" unicode="&#xE0;" horiz-adv-x="417" d=" M335,224 L244,224 Q131,224 131,131 Q131,55 210,55 Q287,55 335,96 M417,0 L357,0 L349,44 L347,44 Q274,-15 192,-15 Q125,-15 86,23.5 Q47,62 47,131 Q47,282 237,282 L335,282 L335,313 Q335,365 309.5,396 Q284,427 232,427 Q157,427 104,386 L70,443 Q139,497 235,497 Q325,497 371,448 Q417,399 417,311 M134,700 L134,710 L225,710 L284,589 L284,579 L213,579"/> 
            <glyph glyph-name="á" unicode="&#xE1;" horiz-adv-x="417" d=" M335,224 L244,224 Q131,224 131,131 Q131,55 210,55 Q287,55 335,96 M417,0 L357,0 L349,44 L347,44 Q274,-15 192,-15 Q125,-15 86,23.5 Q47,62 47,131 Q47,282 237,282 L335,282 L335,313 Q335,365 309.5,396 Q284,427 232,427 Q157,427 104,386 L70,443 Q139,497 235,497 Q325,497 371,448 Q417,399 417,311 M355,710 L355,700 L276,579 L205,579 L205,589 L264,710"/> 
            <glyph glyph-name="â" unicode="&#xE2;" horiz-adv-x="417" d=" M335,224 L244,224 Q131,224 131,131 Q131,55 210,55 Q287,55 335,96 M417,0 L357,0 L349,44 L347,44 Q274,-15 192,-15 Q125,-15 86,23.5 Q47,62 47,131 Q47,282 237,282 L335,282 L335,313 Q335,365 309.5,396 Q284,427 232,427 Q157,427 104,386 L70,443 Q139,497 235,497 Q325,497 371,448 Q417,399 417,311 M288,710 L374,589 L374,579 L299,579 L241,663 L183,579 L108,579 L108,589 L194,710"/> 
            <glyph glyph-name="ã" unicode="&#xE3;" horiz-adv-x="417" d=" M335,224 L244,224 Q131,224 131,131 Q131,55 210,55 Q287,55 335,96 M417,0 L357,0 L349,44 L347,44 Q274,-15 192,-15 Q125,-15 86,23.5 Q47,62 47,131 Q47,282 237,282 L335,282 L335,313 Q335,365 309.5,396 Q284,427 232,427 Q157,427 104,386 L70,443 Q139,497 235,497 Q325,497 371,448 Q417,399 417,311 M126,584 L101,634 Q137,691 184,691 Q204,691 244.5,671 Q285,651 304,651 Q334,651 358,686 L383,636 Q343,579 300,579 Q279,579 239,599 Q199,619 179,619 Q151,619 126,584"/> 
            <glyph glyph-name="ä" unicode="&#xE4;" horiz-adv-x="417" d=" M335,224 L244,224 Q131,224 131,131 Q131,55 210,55 Q287,55 335,96 M417,0 L357,0 L349,44 L347,44 Q274,-15 192,-15 Q125,-15 86,23.5 Q47,62 47,131 Q47,282 237,282 L335,282 L335,313 Q335,365 309.5,396 Q284,427 232,427 Q157,427 104,386 L70,443 Q139,497 235,497 Q325,497 371,448 Q417,399 417,311 M281,633 Q281,658 295,673 Q309,688 333,688 Q358,688 372,673 Q386,658 386,633 Q386,607 372,592.5 Q358,578 333,578 Q309,578 295,592.5 Q281,607 281,633 M98,633 Q98,658 112,673 Q126,688 150,688 Q175,688 189,673 Q203,658 203,633 Q203,607 189,592.5 Q175,578 150,578 Q126,578 112,592.5 Q98,607 98,633"/> 
            <glyph glyph-name="å" unicode="&#xE5;" horiz-adv-x="417" d=" M335,224 L244,224 Q131,224 131,131 Q131,55 210,55 Q287,55 335,96 M417,0 L357,0 L349,44 L347,44 Q274,-15 192,-15 Q125,-15 86,23.5 Q47,62 47,131 Q47,282 237,282 L335,282 L335,313 Q335,365 309.5,396 Q284,427 232,427 Q157,427 104,386 L70,443 Q139,497 235,497 Q325,497 371,448 Q417,399 417,311 M203,638 Q203,618 214,607 Q225,596 243,596 Q261,596 272,607 Q283,618 283,638 Q283,679 243,679 Q203,679 203,638 M149,594 Q149,682 174.5,706.5 Q200,731 243,731 Q286,731 311,706.5 Q336,682 336,638 Q336,594 311,569 Q286,544 243,544 Q200,544 149,594"/> 
            <glyph glyph-name="æ" unicode="&#xE6;" horiz-adv-x="727" d=" M341,222 L246,222 Q130,222 130,135 Q130,95 151.5,75 Q173,55 210,55 Q259,55 300,99.5 Q341,144 341,222 M378,92 Q313,-15 192,-15 Q128,-15 87.5,24 Q47,63 47,133 Q47,212 98.5,247 Q150,282 234,282 L340,282 L340,313 Q340,364 313,395.5 Q286,427 233,427 Q158,427 105,386 L71,443 Q140,497 231,497 Q335,497 392,412 Q448,497 537,497 Q635,497 681,437.5 Q727,378 727,289 Q727,248 722,220 L420,220 Q420,151 456,103 Q492,55 553,55 Q594,55 621,66 Q648,77 678,99 L709,38 Q635,-15 546,-15 Q482,-15 443,12.5 Q404,40 378,92 M424,282 L646,282 Q647,289 647,305 Q647,359 619,393 Q591,427 537,427 Q484,427 456,387 Q428,347 424,282"/> 
            <glyph glyph-name="ç" unicode="&#xE7;" horiz-adv-x="415" d=" M55,241 Q55,358 111.5,427.5 Q168,497 273,497 Q345,497 415,461 L393,400 Q332,427 276,427 Q209,427 174,373.5 Q139,320 139,241 Q139,163 174.5,109 Q210,55 276,55 Q332,55 393,82 L415,21 Q360,-9 288,-14 L276,-48 Q342,-60 342,-120 Q342,-213 233,-213 Q194,-213 164,-199 L177,-144 Q203,-155 226,-155 Q270,-155 270,-120 Q270,-83 214,-83 L208,-73 L227,-11 Q144,3 99.5,70.5 Q55,138 55,241"/> 
            <glyph glyph-name="è" unicode="&#xE8;" horiz-adv-x="460" d=" M455,220 L133,220 Q133,152 174.5,103.5 Q216,55 278,55 Q350,55 411,99 L442,38 Q368,-15 271,-15 Q163,-15 108.5,58 Q54,131 54,243 Q54,348 108.5,422.5 Q163,497 262,497 Q361,497 410.5,437 Q460,377 460,289 Q460,248 455,220 M137,282 L379,282 Q380,289 380,305 Q380,358 349,392.5 Q318,427 262,427 Q208,427 174.5,385.5 Q141,344 137,282 M163,700 L163,710 L254,710 L313,589 L313,579 L242,579"/> 
            <glyph glyph-name="é" unicode="&#xE9;" horiz-adv-x="460" d=" M455,220 L133,220 Q133,152 174.5,103.5 Q216,55 278,55 Q350,55 411,99 L442,38 Q368,-15 271,-15 Q163,-15 108.5,58 Q54,131 54,243 Q54,348 108.5,422.5 Q163,497 262,497 Q361,497 410.5,437 Q460,377 460,289 Q460,248 455,220 M137,282 L379,282 Q380,289 380,305 Q380,358 349,392.5 Q318,427 262,427 Q208,427 174.5,385.5 Q141,344 137,282 M382,710 L382,700 L303,579 L232,579 L232,589 L291,710"/> 
            <glyph glyph-name="ê" unicode="&#xEA;" horiz-adv-x="460" d=" M455,220 L133,220 Q133,152 174.5,103.5 Q216,55 278,55 Q350,55 411,99 L442,38 Q368,-15 271,-15 Q163,-15 108.5,58 Q54,131 54,243 Q54,348 108.5,422.5 Q163,497 262,497 Q361,497 410.5,437 Q460,377 460,289 Q460,248 455,220 M137,282 L379,282 Q380,289 380,305 Q380,358 349,392.5 Q318,427 262,427 Q208,427 174.5,385.5 Q141,344 137,282 M315,710 L401,589 L401,579 L326,579 L268,663 L210,579 L135,579 L135,589 L221,710"/> 
            <glyph glyph-name="ë" unicode="&#xEB;" horiz-adv-x="460" d=" M455,220 L133,220 Q133,152 174.5,103.5 Q216,55 278,55 Q350,55 411,99 L442,38 Q368,-15 271,-15 Q163,-15 108.5,58 Q54,131 54,243 Q54,348 108.5,422.5 Q163,497 262,497 Q361,497 410.5,437 Q460,377 460,289 Q460,248 455,220 M137,282 L379,282 Q380,289 380,305 Q380,358 349,392.5 Q318,427 262,427 Q208,427 174.5,385.5 Q141,344 137,282 M306,633 Q306,658 320,673 Q334,688 358,688 Q383,688 397,673 Q411,658 411,633 Q411,607 397,592.5 Q383,578 358,578 Q334,578 320,592.5 Q306,607 306,633 M123,633 Q123,658 137,673 Q151,688 175,688 Q200,688 214,673 Q228,658 228,633 Q228,607 214,592.5 Q200,578 175,578 Q151,578 137,592.5 Q123,607 123,633"/> 
            <glyph glyph-name="ì" unicode="&#xEC;" horiz-adv-x="163" d=" M163,0 L81,0 L81,482 L163,482 M12,700 L12,710 L103,710 L162,589 L162,579 L91,579"/> 
            <glyph glyph-name="í" unicode="&#xED;" horiz-adv-x="235" d=" M163,0 L81,0 L81,482 L163,482 M235,710 L235,700 L156,579 L85,579 L85,589 L144,710"/> 
            <glyph glyph-name="î" unicode="&#xEE;" horiz-adv-x="256" d=" M163,0 L81,0 L81,482 L163,482 M170,710 L256,589 L256,579 L181,579 L123,663 L65,579 L-10,579 L-10,589 L76,710"/> 
            <glyph glyph-name="ï" unicode="&#xEF;" horiz-adv-x="266" d=" M163,0 L81,0 L81,482 L163,482 M161,633 Q161,658 175,673 Q189,688 213,688 Q238,688 252,673 Q266,658 266,633 Q266,607 252,592.5 Q238,578 213,578 Q189,578 175,592.5 Q161,607 161,633 M-22,633 Q-22,658 -8,673 Q6,688 30,688 Q55,688 69,673 Q83,658 83,633 Q83,607 69,592.5 Q55,578 30,578 Q6,578 -8,592.5 Q-22,607 -22,633"/> 
            <glyph glyph-name="ð" unicode="&#xF0;" horiz-adv-x="503" d=" M429,603 L367,585 Q503,400 503,244 Q503,127 443.5,56 Q384,-15 278,-15 Q174,-15 114,55 Q54,125 54,233 Q54,342 110,408.5 Q166,475 257,475 Q321,475 373,434 L375,436 Q354,484 292,562 L195,534 L176,591 L252,611 Q231,638 179,690 L179,700 L273,700 Q284,689 304,664 Q324,639 327,635 L412,660 M139,233 Q139,153 177,107 Q215,61 278,61 Q342,61 380,107 Q418,153 418,233 Q418,314 380.5,356.5 Q343,399 278,399 Q214,399 176.5,356.5 Q139,314 139,233"/> 
            <glyph glyph-name="ñ" unicode="&#xF1;" horiz-adv-x="469" d=" M81,482 L139,482 L149,438 L151,438 Q176,459 220.5,478 Q265,497 308,497 Q385,497 427,451 Q469,405 469,314 L469,0 L387,0 L387,300 Q387,427 287,427 Q256,427 220,413.5 Q184,400 163,384 L163,0 L81,0 M163,584 L138,634 Q174,691 221,691 Q241,691 281.5,671 Q322,651 341,651 Q371,651 395,686 L420,636 Q380,579 337,579 Q316,579 276,599 Q236,619 216,619 Q188,619 163,584"/> 
            <glyph glyph-name="ò" unicode="&#xF2;" horiz-adv-x="491" d=" M138,324 Q138,158 169.5,106.5 Q201,55 271,55 Q341,55 374,107 Q407,159 407,241 Q407,323 374,375 Q341,427 271,427 Q201,427 138,324 M491,354 Q491,128 436.5,56.5 Q382,-15 271,-15 Q161,-15 107.5,56.5 Q54,128 54,241 Q54,354 107.5,425.5 Q161,497 271,497 Q382,497 491,354 M165,700 L165,710 L256,710 L315,589 L315,579 L244,579"/> 
            <glyph glyph-name="ó" unicode="&#xF3;" horiz-adv-x="491" d=" M138,324 Q138,158 169.5,106.5 Q201,55 271,55 Q341,55 374,107 Q407,159 407,241 Q407,323 374,375 Q341,427 271,427 Q201,427 138,324 M491,354 Q491,128 436.5,56.5 Q382,-15 271,-15 Q161,-15 107.5,56.5 Q54,128 54,241 Q54,354 107.5,425.5 Q161,497 271,497 Q382,497 491,354 M384,710 L384,700 L305,579 L234,579 L234,589 L293,710"/> 
            <glyph glyph-name="ô" unicode="&#xF4;" horiz-adv-x="491" d=" M138,324 Q138,158 169.5,106.5 Q201,55 271,55 Q341,55 374,107 Q407,159 407,241 Q407,323 374,375 Q341,427 271,427 Q201,427 138,324 M491,354 Q491,128 436.5,56.5 Q382,-15 271,-15 Q161,-15 107.5,56.5 Q54,128 54,241 Q54,354 107.5,425.5 Q161,497 271,497 Q382,497 491,354 M320,710 L406,589 L406,579 L331,579 L273,663 L215,579 L140,579 L140,589 L226,710"/> 
            <glyph glyph-name="õ" unicode="&#xF5;" horiz-adv-x="491" d=" M138,324 Q138,158 169.5,106.5 Q201,55 271,55 Q341,55 374,107 Q407,159 407,241 Q407,323 374,375 Q341,427 271,427 Q201,427 138,324 M491,354 Q491,128 436.5,56.5 Q382,-15 271,-15 Q161,-15 107.5,56.5 Q54,128 54,241 Q54,354 107.5,425.5 Q161,497 271,497 Q382,497 491,354 M157,584 L132,634 Q168,691 215,691 Q235,691 275.5,671 Q316,651 335,651 Q365,651 389,686 L414,636 Q374,579 331,579 Q310,579 270,599 Q230,619 210,619 Q182,619 157,584"/> 
            <glyph glyph-name="ö" unicode="&#xF6;" horiz-adv-x="491" d=" M138,324 Q138,158 169.5,106.5 Q201,55 271,55 Q341,55 374,107 Q407,159 407,241 Q407,323 374,375 Q341,427 271,427 Q201,427 138,324 M491,354 Q491,128 436.5,56.5 Q382,-15 271,-15 Q161,-15 107.5,56.5 Q54,128 54,241 Q54,354 107.5,425.5 Q161,497 271,497 Q382,497 491,354 M311,633 Q311,658 325,673 Q339,688 363,688 Q388,688 402,673 Q416,658 416,633 Q416,607 402,592.5 Q388,578 363,578 Q339,578 325,592.5 Q311,607 311,633 M128,633 Q128,658 142,673 Q156,688 180,688 Q205,688 219,673 Q233,658 233,633 Q233,607 219,592.5 Q205,578 180,578 Q156,578 142,592.5 Q128,607 128,633"/> 
            <glyph glyph-name="÷" unicode="&#xF7;" horiz-adv-x="493" d=" M213,70 Q213,97 230,114.5 Q247,132 273,132 Q300,132 316.5,114.5 Q333,97 333,70 Q333,42 316.5,24.5 Q300,7 273,7 Q247,7 230,24.5 Q213,42 213,70 M213,470 Q213,497 230,514.5 Q247,532 273,532 Q300,532 316.5,514.5 Q333,497 333,470 Q333,442 316.5,424.5 Q300,407 273,407 Q247,407 230,424.5 Q213,442 213,470 M56,307 L493,307 L493,233 L56,233"/> 
            <glyph glyph-name="ø" unicode="&#xF8;" horiz-adv-x="492" d=" M125,-29 L73,10 L107,58 Q55,126 55,241 Q55,354 108.5,425.5 Q162,497 272,497 Q344,497 394,464 L426,509 L480,472 L442,419 Q492,352 492,241 Q492,128 437.5,56.5 Q383,-15 272,-15 Q203,-15 156,14 M408,241 Q408,298 390,345 L200,76 Q231,55 272,55 Q342,55 375,107 Q408,159 408,241 M139,241 Q139,175 158,130 L350,402 Q319,427 272,427 Q202,427 170.5,375.5 Q139,324 139,241"/> 
            <glyph glyph-name="ù" unicode="&#xF9;" horiz-adv-x="459" d=" M77,482 L159,482 L159,182 Q159,118 182,86.5 Q205,55 255,55 Q287,55 322,68.5 Q357,82 377,98 L377,482 L459,482 L459,0 L401,0 L392,44 L390,44 Q309,-15 235,-15 Q159,-15 118,31 Q77,77 77,168 M158,700 L158,710 L249,710 L308,589 L308,579 L237,579"/> 
            <glyph glyph-name="ú" unicode="&#xFA;" horiz-adv-x="459" d=" M77,482 L159,482 L159,182 Q159,118 182,86.5 Q205,55 255,55 Q287,55 322,68.5 Q357,82 377,98 L377,482 L459,482 L459,0 L401,0 L392,44 L390,44 Q309,-15 235,-15 Q159,-15 118,31 Q77,77 77,168 M381,710 L381,700 L302,579 L231,579 L231,589 L290,710"/> 
            <glyph glyph-name="û" unicode="&#xFB;" horiz-adv-x="459" d=" M77,482 L159,482 L159,182 Q159,118 182,86.5 Q205,55 255,55 Q287,55 322,68.5 Q357,82 377,98 L377,482 L459,482 L459,0 L401,0 L392,44 L390,44 Q309,-15 235,-15 Q159,-15 118,31 Q77,77 77,168 M314,710 L400,589 L400,579 L325,579 L267,663 L209,579 L134,579 L134,589 L220,710"/> 
            <glyph glyph-name="ü" unicode="&#xFC;" horiz-adv-x="459" d=" M77,482 L159,482 L159,182 Q159,118 182,86.5 Q205,55 255,55 Q287,55 322,68.5 Q357,82 377,98 L377,482 L459,482 L459,0 L401,0 L392,44 L390,44 Q309,-15 235,-15 Q159,-15 118,31 Q77,77 77,168 M305,633 Q305,658 319,673 Q333,688 357,688 Q382,688 396,673 Q410,658 410,633 Q410,607 396,592.5 Q382,578 357,578 Q333,578 319,592.5 Q305,607 305,633 M122,633 Q122,658 136,673 Q150,688 174,688 Q199,688 213,673 Q227,658 227,633 Q227,607 213,592.5 Q199,578 174,578 Q150,578 136,592.5 Q122,607 122,633"/> 
            <glyph glyph-name="ý" unicode="&#xFD;" horiz-adv-x="450" d=" M450,482 L450,472 L265,-65 Q214,-213 112,-213 Q80,-213 31,-200 L31,-133 Q77,-145 105,-145 Q133,-145 150,-124 Q167,-103 183,-60 L205,5 L27,472 L27,482 L108,482 L213,177 L241,82 L243,82 L269,177 L370,482 M361,710 L361,700 L282,579 L211,579 L211,589 L270,710"/> 
            <glyph glyph-name="þ" unicode="&#xFE;" horiz-adv-x="491" d=" M81,-198 L81,700 L163,700 L163,448 L165,448 Q228,497 304,497 Q397,497 444,425 Q491,353 491,241 Q491,128 445,56.5 Q399,-15 305,-15 Q232,-15 165,34 L163,34 L163,-198 M163,383 L163,99 Q210,55 283,55 Q349,55 378,107 Q407,159 407,241 Q407,323 378,375 Q349,427 283,427 Q210,427 163,383"/> 
            <glyph glyph-name="ÿ" unicode="&#xFF;" horiz-adv-x="450" d=" M450,482 L450,472 L265,-65 Q214,-213 112,-213 Q80,-213 31,-200 L31,-133 Q77,-145 105,-145 Q133,-145 150,-124 Q167,-103 183,-60 L205,5 L27,472 L27,482 L108,482 L213,177 L241,82 L243,82 L269,177 L370,482 M280,633 Q280,658 294,673 Q308,688 332,688 Q357,688 371,673 Q385,658 385,633 Q385,607 371,592.5 Q357,578 332,578 Q308,578 294,592.5 Q280,607 280,633 M97,633 Q97,658 111,673 Q125,688 149,688 Q174,688 188,673 Q202,658 202,633 Q202,607 188,592.5 Q174,578 149,578 Q125,578 111,592.5 Q97,607 97,633"/> 
            <glyph glyph-name="Ā" unicode="&#x100;" horiz-adv-x="576" d=" M340,680 L576,0 L488,0 L431,176 L164,176 L106,0 L19,0 L255,680 M299,595 L297,595 L244,411 L189,246 L405,246 L352,411 M419,777 L176,777 L176,851 L419,851"/> 
            <glyph glyph-name="ā" unicode="&#x101;" horiz-adv-x="417" d=" M335,224 L244,224 Q131,224 131,131 Q131,55 210,55 Q287,55 335,96 M417,0 L357,0 L349,44 L347,44 Q274,-15 192,-15 Q125,-15 86,23.5 Q47,62 47,131 Q47,282 237,282 L335,282 L335,313 Q335,365 309.5,396 Q284,427 232,427 Q157,427 104,386 L70,443 Q139,497 235,497 Q325,497 371,448 Q417,399 417,311 M364,597 L121,597 L121,671 L364,671"/> 
            <glyph glyph-name="Ă" unicode="&#x102;" horiz-adv-x="576" d=" M340,680 L576,0 L488,0 L431,176 L164,176 L106,0 L19,0 L255,680 M299,595 L297,595 L244,411 L189,246 L405,246 L352,411 M297,838 Q358,838 407,870 L430,818 Q375,763 297,763 Q220,763 165,818 L188,870 Q237,838 297,838"/> 
            <glyph glyph-name="ă" unicode="&#x103;" horiz-adv-x="417" d=" M335,224 L244,224 Q131,224 131,131 Q131,55 210,55 Q287,55 335,96 M417,0 L357,0 L349,44 L347,44 Q274,-15 192,-15 Q125,-15 86,23.5 Q47,62 47,131 Q47,282 237,282 L335,282 L335,313 Q335,365 309.5,396 Q284,427 232,427 Q157,427 104,386 L70,443 Q139,497 235,497 Q325,497 371,448 Q417,399 417,311 M243,654 Q304,654 353,686 L376,634 Q321,579 243,579 Q166,579 111,634 L134,686 Q183,654 243,654"/> 
            <glyph glyph-name="Ą" unicode="&#x104;" horiz-adv-x="589" d=" M507,-213 Q466,-213 438.5,-189.5 Q411,-166 411,-118 Q411,-56 487,1 L431,176 L164,176 L106,0 L19,0 L255,680 L340,680 L576,0 Q483,-47 483,-101 Q483,-144 526,-144 Q546,-144 581,-123 L589,-185 Q552,-213 507,-213 M299,595 L297,595 L244,411 L189,246 L405,246 L352,411"/> 
            <glyph glyph-name="ą" unicode="&#x105;" horiz-adv-x="434" d=" M352,-213 Q311,-213 283.5,-189.5 Q256,-166 256,-118 Q256,-49 354,16 L349,44 L347,44 Q274,-15 192,-15 Q125,-15 86,23.5 Q47,62 47,131 Q47,282 237,282 L335,282 L335,313 Q335,365 309.5,396 Q284,427 232,427 Q157,427 104,386 L70,443 Q139,497 235,497 Q325,497 371,448 Q417,399 417,311 L417,0 Q328,-49 328,-101 Q328,-144 371,-144 Q391,-144 426,-123 L434,-185 Q397,-213 352,-213 M335,224 L244,224 Q131,224 131,131 Q131,55 210,55 Q287,55 335,96"/> 
            <glyph glyph-name="Ć" unicode="&#x106;" horiz-adv-x="518" d=" M62,178 Q62,502 137.5,598.5 Q213,695 351,695 Q430,695 518,651 L495,587 Q428,619 351,619 Q249,619 199,545 Q149,471 149,340 Q149,209 199,135 Q249,61 351,61 Q428,61 495,93 L518,29 Q430,-15 351,-15 Q213,-15 62,178 M445,883 L445,873 L366,752 L295,752 L295,762 L355,883"/> 
            <glyph glyph-name="ć" unicode="&#x107;" horiz-adv-x="414" d=" M54,124 Q54,358 110.5,427.5 Q167,497 272,497 Q344,497 414,461 L392,400 Q331,427 275,427 Q208,427 173,373.5 Q138,320 138,241 Q138,163 173.5,109 Q209,55 275,55 Q331,55 392,82 L414,21 Q344,-15 272,-15 Q167,-15 54,124 M376,710 L376,700 L297,579 L226,579 L226,589 L285,710"/> 
            <glyph glyph-name="Ĉ" unicode="&#x108;" horiz-adv-x="518" d=" M62,178 Q62,502 137.5,598.5 Q213,695 351,695 Q430,695 518,651 L495,587 Q428,619 351,619 Q249,619 199,545 Q149,471 149,340 Q149,209 199,135 Q249,61 351,61 Q428,61 495,93 L518,29 Q430,-15 351,-15 Q213,-15 62,178 M387,883 L473,762 L473,752 L398,752 L340,823 L282,752 L207,752 L207,762 L293,883"/> 
            <glyph glyph-name="ĉ" unicode="&#x109;" horiz-adv-x="414" d=" M54,124 Q54,358 110.5,427.5 Q167,497 272,497 Q344,497 414,461 L392,400 Q331,427 275,427 Q208,427 173,373.5 Q138,320 138,241 Q138,163 173.5,109 Q209,55 275,55 Q331,55 392,82 L414,21 Q344,-15 272,-15 Q167,-15 54,124 M308,710 L394,589 L394,579 L319,579 L261,663 L203,579 L128,579 L128,589 L214,710"/> 
            <glyph glyph-name="Ċ" unicode="&#x10A;" horiz-adv-x="518" d=" M62,178 Q62,502 137.5,598.5 Q213,695 351,695 Q430,695 518,651 L495,587 Q428,619 351,619 Q249,619 199,545 Q149,471 149,340 Q149,209 199,135 Q249,61 351,61 Q428,61 495,93 L518,29 Q430,-15 351,-15 Q213,-15 62,178 M286,816 Q286,841 300,856 Q314,871 338,871 Q363,871 377,856 Q391,841 391,816 Q391,790 377,775.5 Q363,761 338,761 Q314,761 300,775.5 Q286,790 286,816"/> 
            <glyph glyph-name="ċ" unicode="&#x10B;" horiz-adv-x="414" d=" M54,124 Q54,358 110.5,427.5 Q167,497 272,497 Q344,497 414,461 L392,400 Q331,427 275,427 Q208,427 173,373.5 Q138,320 138,241 Q138,163 173.5,109 Q209,55 275,55 Q331,55 392,82 L414,21 Q344,-15 272,-15 Q167,-15 54,124 M210,634 Q210,659 224,674 Q238,689 262,689 Q287,689 301,674 Q315,659 315,634 Q315,608 301,593.5 Q287,579 262,579 Q238,579 224,593.5 Q210,608 210,634"/> 
            <glyph glyph-name="Č" unicode="&#x10C;" horiz-adv-x="518" d=" M62,178 Q62,502 137.5,598.5 Q213,695 351,695 Q430,695 518,651 L495,587 Q428,619 351,619 Q249,619 199,545 Q149,471 149,340 Q149,209 199,135 Q249,61 351,61 Q428,61 495,93 L518,29 Q430,-15 351,-15 Q213,-15 62,178 M286,752 L200,873 L200,883 L275,883 L333,812 L391,883 L466,883 L466,873 L380,752"/> 
            <glyph glyph-name="č" unicode="&#x10D;" horiz-adv-x="414" d=" M54,124 Q54,358 110.5,427.5 Q167,497 272,497 Q344,497 414,461 L392,400 Q331,427 275,427 Q208,427 173,373.5 Q138,320 138,241 Q138,163 173.5,109 Q209,55 275,55 Q331,55 392,82 L414,21 Q344,-15 272,-15 Q167,-15 54,124 M215,579 L129,700 L129,710 L204,710 L262,626 L320,710 L395,710 L395,700 L309,579"/> 
            <glyph glyph-name="Ď" unicode="&#x10E;" horiz-adv-x="588" d=" M96,0 L96,680 L268,680 Q437,680 512.5,595 Q588,510 588,340 Q588,170 512.5,85 Q437,0 268,0 M180,74 L257,74 Q397,74 449,136 Q501,198 501,340 Q501,482 449,544 Q397,606 257,606 L180,606 M263,752 L177,873 L177,883 L252,883 L310,812 L368,883 L443,883 L443,873 L357,752"/> 
            <glyph glyph-name="ď" unicode="&#x10F;" horiz-adv-x="616" d=" M383,99 L383,383 Q339,427 263,427 Q199,427 169,374.5 Q139,322 139,241 Q139,160 169,107.5 Q199,55 263,55 Q339,55 383,99 M383,700 L465,700 L465,0 L407,0 L398,44 L396,44 Q320,-15 241,-15 Q148,-15 101.5,57 Q55,129 55,241 Q55,353 101.5,425 Q148,497 241,497 Q325,497 381,448 L383,448 M513,529 L513,539 L531,680 L616,680 L616,670 L578,529"/> 
            <glyph glyph-name="Đ" unicode="&#x110;" horiz-adv-x="591" d=" M40,299 L40,373 L99,373 L99,680 L271,680 Q440,680 515.5,595 Q591,510 591,340 Q591,170 515.5,85 Q440,0 271,0 L99,0 L99,299 M183,74 L260,74 Q400,74 452,136 Q504,198 504,340 Q504,482 452,544 Q400,606 260,606 L183,606 L183,373 L321,373 L321,299 L183,299"/> 
            <glyph glyph-name="đ" unicode="&#x111;" horiz-adv-x="523" d=" M383,700 L465,700 L465,625 L523,625 L523,561 L465,561 L465,0 L407,0 L398,44 L396,44 Q320,-15 241,-15 Q148,-15 101.5,57 Q55,129 55,241 Q55,353 101.5,425 Q148,497 241,497 Q325,497 381,448 L383,448 L383,561 L279,561 L279,625 L383,625 M383,99 L383,383 Q339,427 263,427 Q199,427 169,374.5 Q139,322 139,241 Q139,160 169,107.5 Q199,55 263,55 Q339,55 383,99"/> 
            <glyph glyph-name="Ē" unicode="&#x112;" horiz-adv-x="496" d=" M96,680 L493,680 L493,606 L180,606 L180,384 L464,384 L464,310 L180,310 L180,74 L496,74 L496,0 L96,0 M420,777 L177,777 L177,851 L420,851"/> 
            <glyph glyph-name="ē" unicode="&#x113;" horiz-adv-x="460" d=" M455,220 L133,220 Q133,152 174.5,103.5 Q216,55 278,55 Q350,55 411,99 L442,38 Q368,-15 271,-15 Q163,-15 108.5,58 Q54,131 54,243 Q54,348 108.5,422.5 Q163,497 262,497 Q361,497 410.5,437 Q460,377 460,289 Q460,248 455,220 M137,282 L379,282 Q380,289 380,305 Q380,358 349,392.5 Q318,427 262,427 Q208,427 174.5,385.5 Q141,344 137,282 M390,597 L147,597 L147,671 L390,671"/> 
            <glyph glyph-name="Ĕ" unicode="&#x114;" horiz-adv-x="496" d=" M96,680 L493,680 L493,606 L180,606 L180,384 L464,384 L464,310 L180,310 L180,74 L496,74 L496,0 L96,0 M296,838 Q357,838 406,870 L429,818 Q374,763 296,763 Q219,763 164,818 L187,870 Q236,838 296,838"/> 
            <glyph glyph-name="ĕ" unicode="&#x115;" horiz-adv-x="460" d=" M455,220 L133,220 Q133,152 174.5,103.5 Q216,55 278,55 Q350,55 411,99 L442,38 Q368,-15 271,-15 Q163,-15 108.5,58 Q54,131 54,243 Q54,348 108.5,422.5 Q163,497 262,497 Q361,497 410.5,437 Q460,377 460,289 Q460,248 455,220 M137,282 L379,282 Q380,289 380,305 Q380,358 349,392.5 Q318,427 262,427 Q208,427 174.5,385.5 Q141,344 137,282 M273,654 Q334,654 383,686 L406,634 Q351,579 273,579 Q196,579 141,634 L164,686 Q213,654 273,654"/> 
            <glyph glyph-name="Ė" unicode="&#x116;" horiz-adv-x="496" d=" M96,680 L493,680 L493,606 L180,606 L180,384 L464,384 L464,310 L180,310 L180,74 L496,74 L496,0 L96,0 M246,816 Q246,841 260,856 Q274,871 298,871 Q323,871 337,856 Q351,841 351,816 Q351,790 337,775.5 Q323,761 298,761 Q274,761 260,775.5 Q246,790 246,816"/> 
            <glyph glyph-name="ė" unicode="&#x117;" horiz-adv-x="460" d=" M455,220 L133,220 Q133,152 174.5,103.5 Q216,55 278,55 Q350,55 411,99 L442,38 Q368,-15 271,-15 Q163,-15 108.5,58 Q54,131 54,243 Q54,348 108.5,422.5 Q163,497 262,497 Q361,497 410.5,437 Q460,377 460,289 Q460,248 455,220 M137,282 L379,282 Q380,289 380,305 Q380,358 349,392.5 Q318,427 262,427 Q208,427 174.5,385.5 Q141,344 137,282 M216,634 Q216,659 230,674 Q244,689 268,689 Q293,689 307,674 Q321,659 321,634 Q321,608 307,593.5 Q293,579 268,579 Q244,579 230,593.5 Q216,608 216,634"/> 
            <glyph glyph-name="Ę" unicode="&#x118;" horiz-adv-x="501" d=" M419,-213 Q378,-213 350.5,-189.5 Q323,-166 323,-118 Q323,-53 398,0 L96,0 L96,680 L493,680 L493,606 L180,606 L180,384 L464,384 L464,310 L180,310 L180,74 L496,74 L496,0 Q395,-47 395,-101 Q395,-144 438,-144 Q458,-144 493,-123 L501,-185 Q464,-213 419,-213"/> 
            <glyph glyph-name="ę" unicode="&#x119;" horiz-adv-x="460" d=" M300,-15 L300,-13 Q282,-15 271,-15 Q163,-15 108.5,58 Q54,131 54,243 Q54,348 108.5,422.5 Q163,497 262,497 Q361,497 410.5,437 Q460,377 460,289 Q460,248 455,220 L133,220 Q133,152 174.5,103.5 Q216,55 278,55 Q350,55 411,99 L442,38 L419,23 Q377,-1 353,-34.5 Q329,-68 329,-101 Q329,-144 372,-144 Q392,-144 427,-123 L435,-185 Q398,-213 353,-213 Q312,-213 284.5,-189.5 Q257,-166 257,-118 Q257,-63 300,-15 M137,282 L379,282 Q380,289 380,305 Q380,358 349,392.5 Q318,427 262,427 Q208,427 174.5,385.5 Q141,344 137,282"/> 
            <glyph glyph-name="Ě" unicode="&#x11A;" horiz-adv-x="496" d=" M96,680 L493,680 L493,606 L180,606 L180,384 L464,384 L464,310 L180,310 L180,74 L496,74 L496,0 L96,0 M251,752 L165,873 L165,883 L240,883 L298,812 L356,883 L431,883 L431,873 L345,752"/> 
            <glyph glyph-name="ě" unicode="&#x11B;" horiz-adv-x="460" d=" M455,220 L133,220 Q133,152 174.5,103.5 Q216,55 278,55 Q350,55 411,99 L442,38 Q368,-15 271,-15 Q163,-15 108.5,58 Q54,131 54,243 Q54,348 108.5,422.5 Q163,497 262,497 Q361,497 410.5,437 Q460,377 460,289 Q460,248 455,220 M137,282 L379,282 Q380,289 380,305 Q380,358 349,392.5 Q318,427 262,427 Q208,427 174.5,385.5 Q141,344 137,282 M221,579 L135,700 L135,710 L210,710 L268,626 L326,710 L401,710 L401,700 L315,579"/> 
            <glyph glyph-name="Ĝ" unicode="&#x11C;" horiz-adv-x="554" d=" M346,334 L554,334 L554,55 Q460,-15 342,-15 Q202,-15 132.5,81.5 Q63,178 63,340 Q63,504 133.5,599.5 Q204,695 351,695 Q448,695 552,630 L522,566 Q435,619 351,619 Q150,619 150,340 Q150,211 196,136 Q242,61 342,61 Q425,61 470,93 L470,260 L346,280 M387,883 L473,762 L473,752 L398,752 L340,823 L282,752 L207,752 L207,762 L293,883"/> 
            <glyph glyph-name="ĝ" unicode="&#x11D;" horiz-adv-x="465" d=" M383,103 L383,383 Q339,427 263,427 Q197,427 168,376 Q139,325 139,243 Q139,59 263,59 Q342,59 383,103 M465,482 L465,-6 Q465,-99 411,-156 Q357,-213 264,-213 Q176,-213 103,-178 L125,-118 Q182,-145 264,-145 Q319,-145 351,-111 Q383,-77 383,-15 L383,37 L381,37 Q320,-12 242,-12 Q149,-12 102,59.5 Q55,131 55,243 Q55,355 102,426 Q149,497 242,497 Q324,497 395,438 L397,438 L408,482 M328,710 L414,589 L414,579 L339,579 L281,663 L223,579 L148,579 L148,589 L234,710"/> 
            <glyph glyph-name="Ğ" unicode="&#x11E;" horiz-adv-x="554" d=" M346,334 L554,334 L554,55 Q460,-15 342,-15 Q202,-15 132.5,81.5 Q63,178 63,340 Q63,504 133.5,599.5 Q204,695 351,695 Q448,695 552,630 L522,566 Q435,619 351,619 Q150,619 150,340 Q150,211 196,136 Q242,61 342,61 Q425,61 470,93 L470,260 L346,280 M342,838 Q403,838 452,870 L475,818 Q420,763 342,763 Q265,763 210,818 L233,870 Q282,838 342,838"/> 
            <glyph glyph-name="ğ" unicode="&#x11F;" horiz-adv-x="465" d=" M383,103 L383,383 Q339,427 263,427 Q197,427 168,376 Q139,325 139,243 Q139,59 263,59 Q342,59 383,103 M465,482 L465,-6 Q465,-99 411,-156 Q357,-213 264,-213 Q176,-213 103,-178 L125,-118 Q182,-145 264,-145 Q319,-145 351,-111 Q383,-77 383,-15 L383,37 L381,37 Q320,-12 242,-12 Q149,-12 102,59.5 Q55,131 55,243 Q55,355 102,426 Q149,497 242,497 Q324,497 395,438 L397,438 L408,482 M281,654 Q342,654 391,686 L414,634 Q359,579 281,579 Q204,579 149,634 L172,686 Q221,654 281,654"/> 
            <glyph glyph-name="Ġ" unicode="&#x120;" horiz-adv-x="554" d=" M346,334 L554,334 L554,55 Q460,-15 342,-15 Q202,-15 132.5,81.5 Q63,178 63,340 Q63,504 133.5,599.5 Q204,695 351,695 Q448,695 552,630 L522,566 Q435,619 351,619 Q150,619 150,340 Q150,211 196,136 Q242,61 342,61 Q425,61 470,93 L470,260 L346,280 M288,816 Q288,841 302,856 Q316,871 340,871 Q365,871 379,856 Q393,841 393,816 Q393,790 379,775.5 Q365,761 340,761 Q316,761 302,775.5 Q288,790 288,816"/> 
            <glyph glyph-name="ġ" unicode="&#x121;" horiz-adv-x="465" d=" M383,103 L383,383 Q339,427 263,427 Q197,427 168,376 Q139,325 139,243 Q139,59 263,59 Q342,59 383,103 M465,482 L465,-6 Q465,-99 411,-156 Q357,-213 264,-213 Q176,-213 103,-178 L125,-118 Q182,-145 264,-145 Q319,-145 351,-111 Q383,-77 383,-15 L383,37 L381,37 Q320,-12 242,-12 Q149,-12 102,59.5 Q55,131 55,243 Q55,355 102,426 Q149,497 242,497 Q324,497 395,438 L397,438 L408,482 M229,634 Q229,659 243,674 Q257,689 281,689 Q306,689 320,674 Q334,659 334,634 Q334,608 320,593.5 Q306,579 281,579 Q257,579 243,593.5 Q229,608 229,634"/> 
            <glyph glyph-name="Ģ" unicode="&#x122;" horiz-adv-x="554" d=" M346,334 L554,334 L554,55 Q460,-15 342,-15 Q202,-15 132.5,81.5 Q63,178 63,340 Q63,504 133.5,599.5 Q204,695 351,695 Q448,695 552,630 L522,566 Q435,619 351,619 Q150,619 150,340 Q150,211 196,136 Q242,61 342,61 Q425,61 470,93 L470,260 L346,280 M281,-218 L281,-208 L299,-67 L384,-67 L384,-77 L346,-218"/> 
            <glyph glyph-name="ģ" unicode="&#x123;" horiz-adv-x="465" d=" M383,103 L383,383 Q339,427 263,427 Q197,427 168,376 Q139,325 139,243 Q139,59 263,59 Q342,59 383,103 M465,482 L465,-6 Q465,-99 411,-156 Q357,-213 264,-213 Q176,-213 103,-178 L125,-118 Q182,-145 264,-145 Q319,-145 351,-111 Q383,-77 383,-15 L383,37 L381,37 Q320,-12 242,-12 Q149,-12 102,59.5 Q55,131 55,243 Q55,355 102,426 Q149,497 242,497 Q324,497 395,438 L397,438 L408,482 M343,720 L343,710 L325,569 L240,569 L240,579 L278,720"/> 
            <glyph glyph-name="Ĥ" unicode="&#x124;" horiz-adv-x="574" d=" M490,0 L490,310 L180,310 L180,0 L96,0 L96,680 L180,680 L180,384 L490,384 L490,680 L574,680 L574,0 M382,883 L468,762 L468,752 L393,752 L335,823 L277,752 L202,752 L202,762 L288,883"/> 
            <glyph glyph-name="ĥ" unicode="&#x125;" horiz-adv-x="469" d=" M469,0 L387,0 L387,300 Q387,427 287,427 Q255,427 219,414 Q183,401 163,385 L163,0 L81,0 L81,700 L163,700 L163,449 L165,449 Q233,497 308,497 Q385,497 427,451 Q469,405 469,314 M328,883 L414,762 L414,752 L339,752 L281,823 L223,752 L148,752 L148,762 L234,883"/> 
            <glyph glyph-name="Ħ" unicode="&#x126;" horiz-adv-x="623" d=" M623,512 L575,512 L575,0 L491,0 L491,310 L181,310 L181,0 L97,0 L97,512 L50,512 L50,586 L97,586 L97,680 L181,680 L181,586 L491,586 L491,680 L575,680 L575,586 L623,586 M181,384 L491,384 L491,512 L181,512"/> 
            <glyph glyph-name="ħ" unicode="&#x127;" horiz-adv-x="469" d=" M469,0 L387,0 L387,300 Q387,427 287,427 Q255,427 219,414 Q183,401 163,385 L163,0 L81,0 L81,562 L23,562 L23,626 L81,626 L81,700 L163,700 L163,626 L267,626 L267,562 L163,562 L163,449 L165,449 Q233,497 308,497 Q385,497 427,451 Q469,405 469,314"/> 
            <glyph glyph-name="Ĩ" unicode="&#x128;" horiz-adv-x="275" d=" M180,680 L180,0 L96,0 L96,680 M18,767 L-7,817 Q29,874 76,874 Q96,874 136.5,854 Q177,834 196,834 Q226,834 250,869 L275,819 Q235,762 192,762 Q171,762 131,782 Q91,802 71,802 Q43,802 18,767"/> 
            <glyph glyph-name="ĩ" unicode="&#x129;" horiz-adv-x="264" d=" M163,0 L81,0 L81,482 L163,482 M7,584 L-18,634 Q18,691 65,691 Q85,691 125.5,671 Q166,651 185,651 Q215,651 239,686 L264,636 Q224,579 181,579 Q160,579 120,599 Q80,619 60,619 Q32,619 7,584"/> 
            <glyph glyph-name="Ī" unicode="&#x12A;" horiz-adv-x="255" d=" M180,680 L180,0 L96,0 L96,680 M255,777 L12,777 L12,851 L255,851"/> 
            <glyph glyph-name="ī" unicode="&#x12B;" horiz-adv-x="245" d=" M163,0 L81,0 L81,482 L163,482 M245,597 L2,597 L2,671 L245,671"/> 
            <glyph glyph-name="Ĭ" unicode="&#x12C;" horiz-adv-x="265" d=" M180,680 L180,0 L96,0 L96,680 M132,838 Q193,838 242,870 L265,818 Q210,763 132,763 Q55,763 0,818 L23,870 Q72,838 132,838"/> 
            <glyph glyph-name="ĭ" unicode="&#x12D;" horiz-adv-x="256" d=" M163,0 L81,0 L81,482 L163,482 M123,654 Q184,654 233,686 L256,634 Q201,579 123,579 Q46,579 -9,634 L14,686 Q63,654 123,654"/> 
            <glyph glyph-name="Į" unicode="&#x12E;" horiz-adv-x="197" d=" M115,-213 Q74,-213 46.5,-189.5 Q19,-166 19,-118 Q19,-55 96,1 L96,680 L180,680 L180,0 Q91,-49 91,-101 Q91,-144 134,-144 Q154,-144 189,-123 L197,-185 Q160,-213 115,-213"/> 
            <glyph glyph-name="į" unicode="&#x12F;" horiz-adv-x="181" d=" M99,-213 Q58,-213 30.5,-189.5 Q3,-166 3,-118 Q3,-52 82,3 L82,482 L164,482 L164,0 Q75,-49 75,-101 Q75,-144 118,-144 Q138,-144 173,-123 L181,-185 Q144,-213 99,-213 M71,633 Q71,658 85,673 Q99,688 123,688 Q148,688 162,673 Q176,658 176,633 Q176,607 162,592.5 Q148,578 123,578 Q99,578 85,592.5 Q71,607 71,633"/> 
            <glyph glyph-name="İ" unicode="&#x130;" horiz-adv-x="187" d=" M180,680 L180,0 L96,0 L96,680 M82,816 Q82,841 96,856 Q110,871 134,871 Q159,871 173,856 Q187,841 187,816 Q187,790 173,775.5 Q159,761 134,761 Q110,761 96,775.5 Q82,790 82,816"/> 
            <glyph glyph-name="ı" unicode="&#x131;" horiz-adv-x="163" d=" M163,0 L81,0 L81,482 L163,482"/> 
            <glyph glyph-name="Ĳ" unicode="&#x132;" horiz-adv-x="629" d=" M180,680 L180,0 L96,0 L96,680 M301,58 L343,113 Q344,112 351,106 Q358,100 359.5,98.5 Q361,97 367.5,91.5 Q374,86 377,84 Q380,82 386.5,78 Q393,74 397,72.5 Q401,71 408,68 Q415,65 421,64 Q427,63 434,62 Q441,61 449,61 Q497,61 521,94 Q545,127 545,209 L545,680 L629,680 L629,202 Q629,92 582,38.5 Q535,-15 449,-15 Q366,-15 301,58"/> 
            <glyph glyph-name="ĳ" unicode="&#x133;" horiz-adv-x="419" d=" M163,0 L81,0 L81,482 L163,482 M70,633 Q70,658 84,673 Q98,688 122,688 Q147,688 161,673 Q175,658 175,633 Q175,607 161,592.5 Q147,578 122,578 Q98,578 84,592.5 Q70,607 70,633 M325,482 L407,482 L407,-60 Q407,-133 374,-173 Q341,-213 276,-213 Q246,-213 213,-206 L213,-141 Q233,-145 268,-145 Q325,-145 325,-62 M314,633 Q314,658 328,673 Q342,688 366,688 Q391,688 405,673 Q419,658 419,633 Q419,607 405,592.5 Q391,578 366,578 Q342,578 328,592.5 Q314,607 314,633"/> 
            <glyph glyph-name="Ĵ" unicode="&#x134;" horiz-adv-x="449" d=" M25,58 L67,113 Q68,112 75,106 Q82,100 83.5,98.5 Q85,97 91.5,91.5 Q98,86 101,84 Q104,82 110.5,78 Q117,74 121,72.5 Q125,71 132,68 Q139,65 145,64 Q151,63 158,62 Q165,61 173,61 Q221,61 245,94 Q269,127 269,209 L269,680 L353,680 L353,202 Q353,92 306,38.5 Q259,-15 173,-15 Q90,-15 25,58 M363,883 L449,762 L449,752 L374,752 L316,823 L258,752 L183,752 L183,762 L269,883"/> 
            <glyph glyph-name="ĵ" unicode="&#x135;" horiz-adv-x="253" d=" M81,482 L163,482 L163,-60 Q163,-133 130,-173 Q97,-213 32,-213 Q2,-213 -31,-206 L-31,-141 Q-11,-145 24,-145 Q81,-145 81,-62 M167,710 L253,589 L253,579 L178,579 L120,663 L62,579 L-13,579 L-13,589 L73,710"/> 
            <glyph glyph-name="Ķ" unicode="&#x136;" horiz-adv-x="549" d=" M182,311 L180,311 L180,0 L96,0 L96,680 L180,680 L180,345 L182,345 L440,680 L537,680 L537,670 L267,333 L549,10 L549,0 L444,0 M239,-218 L239,-208 L257,-67 L342,-67 L342,-77 L304,-218"/> 
            <glyph glyph-name="ķ" unicode="&#x137;" horiz-adv-x="456" d=" M165,224 L163,224 L163,0 L81,0 L81,700 L163,700 L163,258 L165,258 L354,482 L449,482 L449,475 L244,243 L456,8 L456,0 L355,0 M178,-218 L178,-208 L196,-67 L281,-67 L281,-77 L243,-218"/> 
            <glyph glyph-name="ĸ" unicode="&#x138;" horiz-adv-x="456" d=" M165,221 L163,221 L163,0 L81,0 L81,482 L163,482 L163,255 L165,255 L354,482 L449,482 L449,475 L244,240 L456,8 L456,0 L355,0"/> 
            <glyph glyph-name="Ĺ" unicode="&#x139;" horiz-adv-x="466" d=" M96,680 L180,680 L180,74 L466,74 L466,0 L96,0 M248,883 L248,873 L169,752 L98,752 L98,762 L158,883"/> 
            <glyph glyph-name="ĺ" unicode="&#x13A;" horiz-adv-x="235" d=" M167,0 L85,0 L85,700 L167,700 M235,883 L235,873 L156,752 L85,752 L85,762 L145,883"/> 
            <glyph glyph-name="Ļ" unicode="&#x13B;" horiz-adv-x="466" d=" M96,680 L180,680 L180,74 L466,74 L466,0 L96,0 M225,-218 L225,-208 L243,-67 L328,-67 L328,-77 L290,-218"/> 
            <glyph glyph-name="ļ" unicode="&#x13C;" horiz-adv-x="167" d=" M167,0 L85,0 L85,700 L167,700 M64,-218 L64,-208 L82,-67 L167,-67 L167,-77 L129,-218"/> 
            <glyph glyph-name="Ľ" unicode="&#x13D;" horiz-adv-x="466" d=" M96,680 L180,680 L180,74 L466,74 L466,0 L96,0 M275,529 L275,539 L293,680 L378,680 L378,670 L340,529"/> 
            <glyph glyph-name="ľ" unicode="&#x13E;" horiz-adv-x="316" d=" M167,0 L85,0 L85,700 L167,700 M213,529 L213,539 L231,680 L316,680 L316,670 L278,529"/> 
            <glyph glyph-name="Ŀ" unicode="&#x13F;" horiz-adv-x="466" d=" M96,680 L180,680 L180,74 L466,74 L466,0 L96,0 M310,350 Q310,377 327,394.5 Q344,412 370,412 Q397,412 413.5,394.5 Q430,377 430,350 Q430,322 413.5,304.5 Q397,287 370,287 Q344,287 327,304.5 Q310,322 310,350"/> 
            <glyph glyph-name="ŀ" unicode="&#x140;" horiz-adv-x="344" d=" M167,0 L85,0 L85,700 L167,700 M224,350 Q224,377 241,394.5 Q258,412 284,412 Q311,412 327.5,394.5 Q344,377 344,350 Q344,322 327.5,304.5 Q311,287 284,287 Q258,287 241,304.5 Q224,322 224,350"/> 
            <glyph glyph-name="Ł" unicode="&#x141;" horiz-adv-x="470" d=" M100,680 L184,680 L184,421 L270,473 L279,473 L279,396 L184,339 L184,74 L470,74 L470,0 L100,0 L100,288 L29,246 L20,246 L20,323 L100,371"/> 
            <glyph glyph-name="ł" unicode="&#x142;" horiz-adv-x="280" d=" M189,0 L107,0 L107,276 L37,236 L28,236 L28,313 L107,358 L107,700 L189,700 L189,408 L271,455 L280,455 L280,378 L189,325"/> 
            <glyph glyph-name="Ń" unicode="&#x143;" horiz-adv-x="582" d=" M504,126 L506,126 L498,253 L498,680 L582,680 L582,0 L494,0 L174,554 L172,554 L180,427 L180,0 L96,0 L96,680 L184,680 M440,883 L440,873 L361,752 L290,752 L290,762 L350,883"/> 
            <glyph glyph-name="ń" unicode="&#x144;" horiz-adv-x="469" d=" M81,482 L139,482 L149,438 L151,438 Q176,459 220.5,478 Q265,497 308,497 Q385,497 427,451 Q469,405 469,314 L469,0 L387,0 L387,300 Q387,427 287,427 Q256,427 220,413.5 Q184,400 163,384 L163,0 L81,0 M388,710 L388,700 L309,579 L238,579 L238,589 L297,710"/> 
            <glyph glyph-name="Ņ" unicode="&#x145;" horiz-adv-x="582" d=" M504,126 L506,126 L498,253 L498,680 L582,680 L582,0 L494,0 L174,554 L172,554 L180,427 L180,0 L96,0 L96,680 L184,680 M277,-218 L277,-208 L295,-67 L380,-67 L380,-77 L342,-218"/> 
            <glyph glyph-name="ņ" unicode="&#x146;" horiz-adv-x="469" d=" M81,482 L139,482 L149,438 L151,438 Q176,459 220.5,478 Q265,497 308,497 Q385,497 427,451 Q469,405 469,314 L469,0 L387,0 L387,300 Q387,427 287,427 Q256,427 220,413.5 Q184,400 163,384 L163,0 L81,0 M209,-218 L209,-208 L227,-67 L312,-67 L312,-77 L274,-218"/> 
            <glyph glyph-name="Ň" unicode="&#x147;" horiz-adv-x="582" d=" M504,126 L506,126 L498,253 L498,680 L582,680 L582,0 L494,0 L174,554 L172,554 L180,427 L180,0 L96,0 L96,680 L184,680 M289,752 L203,873 L203,883 L278,883 L336,812 L394,883 L469,883 L469,873 L383,752"/> 
            <glyph glyph-name="ň" unicode="&#x148;" horiz-adv-x="469" d=" M81,482 L139,482 L149,438 L151,438 Q176,459 220.5,478 Q265,497 308,497 Q385,497 427,451 Q469,405 469,314 L469,0 L387,0 L387,300 Q387,427 287,427 Q256,427 220,413.5 Q184,400 163,384 L163,0 L81,0 M230,579 L144,700 L144,710 L219,710 L277,626 L335,710 L410,710 L410,700 L324,579"/> 
            <glyph glyph-name="ŉ" unicode="&#x149;" horiz-adv-x="469" d=" M81,482 L139,482 L149,438 L151,438 Q176,459 220.5,478 Q265,497 308,497 Q385,497 427,451 Q469,405 469,314 L469,0 L387,0 L387,300 Q387,427 287,427 Q256,427 220,413.5 Q184,400 163,384 L163,0 L81,0 M2,529 L2,539 L20,680 L105,680 L105,670 L67,529"/> 
            <glyph glyph-name="Ŋ" unicode="&#x14A;" horiz-adv-x="582" d=" M504,129 L506,129 L498,253 L498,680 L582,680 L582,-60 Q582,-133 549,-173 Q516,-213 451,-213 Q421,-213 388,-206 L388,-141 Q408,-145 443,-145 Q498,-145 498,-62 L498,5 L174,554 L172,554 L180,427 L180,0 L96,0 L96,680 L184,680"/> 
            <glyph glyph-name="ŋ" unicode="&#x14B;" horiz-adv-x="469" d=" M81,482 L139,482 L149,438 L151,438 Q176,459 220.5,478 Q265,497 308,497 Q385,497 427,451 Q469,405 469,314 L469,-60 Q469,-133 436,-173 Q403,-213 338,-213 Q308,-213 275,-206 L275,-141 Q295,-145 330,-145 Q387,-145 387,-62 L387,300 Q387,427 287,427 Q256,427 220,413.5 Q184,400 163,384 L163,0 L81,0"/> 
            <glyph glyph-name="Ō" unicode="&#x14C;" horiz-adv-x="617" d=" M150,619 Q150,61 341,61 Q530,61 530,340 Q530,619 341,619 M617,444 Q617,236 590,158.5 Q563,81 499.5,33 Q436,-15 341,-15 Q200,-15 131.5,82 Q63,179 63,340 Q63,501 131.5,598 Q200,695 341,695 Q436,695 499.5,647 Q563,599 617,444 M467,777 L224,777 L224,851 L467,851"/> 
            <glyph glyph-name="ō" unicode="&#x14D;" horiz-adv-x="491" d=" M138,324 Q138,158 169.5,106.5 Q201,55 271,55 Q341,55 374,107 Q407,159 407,241 Q407,323 374,375 Q341,427 271,427 Q201,427 138,324 M491,354 Q491,128 436.5,56.5 Q382,-15 271,-15 Q161,-15 107.5,56.5 Q54,128 54,241 Q54,354 107.5,425.5 Q161,497 271,497 Q382,497 491,354 M395,597 L152,597 L152,671 L395,671"/> 
            <glyph glyph-name="Ŏ" unicode="&#x14E;" horiz-adv-x="617" d=" M150,619 Q150,61 341,61 Q530,61 530,340 Q530,619 341,619 M617,444 Q617,236 590,158.5 Q563,81 499.5,33 Q436,-15 341,-15 Q200,-15 131.5,82 Q63,179 63,340 Q63,501 131.5,598 Q200,695 341,695 Q436,695 499.5,647 Q563,599 617,444 M344,838 Q405,838 454,870 L477,818 Q422,763 344,763 Q267,763 212,818 L235,870 Q284,838 344,838"/> 
            <glyph glyph-name="ŏ" unicode="&#x14F;" horiz-adv-x="491" d=" M138,324 Q138,158 169.5,106.5 Q201,55 271,55 Q341,55 374,107 Q407,159 407,241 Q407,323 374,375 Q341,427 271,427 Q201,427 138,324 M491,354 Q491,128 436.5,56.5 Q382,-15 271,-15 Q161,-15 107.5,56.5 Q54,128 54,241 Q54,354 107.5,425.5 Q161,497 271,497 Q382,497 491,354 M273,654 Q334,654 383,686 L406,634 Q351,579 273,579 Q196,579 141,634 L164,686 Q213,654 273,654"/> 
            <glyph glyph-name="Ő" unicode="&#x150;" horiz-adv-x="617" d=" M150,619 Q150,61 341,61 Q530,61 530,340 Q530,619 341,619 M617,444 Q617,236 590,158.5 Q563,81 499.5,33 Q436,-15 341,-15 Q200,-15 131.5,82 Q63,179 63,340 Q63,501 131.5,598 Q200,695 341,695 Q436,695 499.5,647 Q563,599 617,444 M380,883 L380,873 L302,752 L231,752 L231,762 L290,883 M535,883 L535,873 L457,752 L386,752 L386,762 L445,883"/> 
            <glyph glyph-name="ő" unicode="&#x151;" horiz-adv-x="491" d=" M138,324 Q138,158 169.5,106.5 Q201,55 271,55 Q341,55 374,107 Q407,159 407,241 Q407,323 374,375 Q341,427 271,427 Q201,427 138,324 M491,354 Q491,128 436.5,56.5 Q382,-15 271,-15 Q161,-15 107.5,56.5 Q54,128 54,241 Q54,354 107.5,425.5 Q161,497 271,497 Q382,497 491,354 M320,710 L320,700 L242,579 L171,579 L171,589 L230,710 M475,710 L475,700 L397,579 L326,579 L326,589 L385,710"/> 
            <glyph glyph-name="Œ" unicode="&#x152;" horiz-adv-x="837" d=" M341,695 Q396,695 438,680 L835,680 L835,606 L521,606 L521,384 L805,384 L805,310 L521,310 L521,74 L837,74 L837,0 L438,0 Q400,-15 341,-15 Q200,-15 131.5,82 Q63,179 63,340 Q63,501 131.5,598 Q200,695 341,695 M341,61 Q398,61 436,78 L436,601 Q396,619 341,619 Q150,619 150,340 Q150,61 341,61"/> 
            <glyph glyph-name="œ" unicode="&#x153;" horiz-adv-x="815" d=" M810,220 L488,220 Q488,152 529.5,103.5 Q571,55 633,55 Q706,55 766,99 L797,38 Q723,-15 626,-15 Q505,-15 449,86 Q389,-15 271,-15 Q161,-15 107.5,56.5 Q54,128 54,241 Q54,354 107.5,425.5 Q161,497 271,497 Q389,497 450,394 Q475,441 518.5,469 Q562,497 617,497 Q716,497 765.5,437 Q815,377 815,289 Q815,248 810,220 M139,324 Q139,158 170.5,106.5 Q202,55 272,55 Q342,55 375,107 Q408,159 408,241 Q408,323 375,375 Q342,427 272,427 Q202,427 139,324 M492,282 L734,282 Q735,289 735,305 Q735,358 704,392.5 Q673,427 617,427 Q563,427 529.5,385.5 Q496,344 492,282"/> 
            <glyph glyph-name="Ŕ" unicode="&#x154;" horiz-adv-x="575" d=" M180,0 L96,0 L96,680 L331,680 Q428,680 482,630.5 Q536,581 536,487 Q536,408 497,360.5 Q458,313 387,300 L575,16 L575,0 L483,0 L293,295 L180,295 M180,369 L326,369 Q386,369 417.5,399.5 Q449,430 449,487 Q449,544 417.5,575 Q386,606 326,606 L180,606 M398,883 L398,873 L319,752 L248,752 L248,762 L308,883"/> 
            <glyph glyph-name="ŕ" unicode="&#x155;" horiz-adv-x="322" d=" M81,482 L139,482 L149,431 L151,431 Q194,497 275,497 Q301,497 322,490 L310,417 Q288,423 265,423 Q195,423 163,359 L163,0 L81,0 M296,710 L296,700 L217,579 L146,579 L146,589 L205,710"/> 
            <glyph glyph-name="Ŗ" unicode="&#x156;" horiz-adv-x="575" d=" M180,0 L96,0 L96,680 L331,680 Q428,680 482,630.5 Q536,581 536,487 Q536,408 497,360.5 Q458,313 387,300 L575,16 L575,0 L483,0 L293,295 L180,295 M180,369 L326,369 Q386,369 417.5,399.5 Q449,430 449,487 Q449,544 417.5,575 Q386,606 326,606 L180,606 M237,-218 L237,-208 L255,-67 L340,-67 L340,-77 L302,-218"/> 
            <glyph glyph-name="ŗ" unicode="&#x157;" horiz-adv-x="322" d=" M81,482 L139,482 L149,431 L151,431 Q194,497 275,497 Q301,497 322,490 L310,417 Q288,423 265,423 Q195,423 163,359 L163,0 L81,0 M59,-218 L59,-208 L77,-67 L162,-67 L162,-77 L124,-218"/> 
            <glyph glyph-name="Ř" unicode="&#x158;" horiz-adv-x="575" d=" M180,0 L96,0 L96,680 L331,680 Q428,680 482,630.5 Q536,581 536,487 Q536,408 497,360.5 Q458,313 387,300 L575,16 L575,0 L483,0 L293,295 L180,295 M180,369 L326,369 Q386,369 417.5,399.5 Q449,430 449,487 Q449,544 417.5,575 Q386,606 326,606 L180,606 M234,752 L148,873 L148,883 L223,883 L281,812 L339,883 L414,883 L414,873 L328,752"/> 
            <glyph glyph-name="ř" unicode="&#x159;" horiz-adv-x="328" d=" M81,482 L139,482 L149,431 L151,431 Q194,497 275,497 Q301,497 322,490 L310,417 Q288,423 265,423 Q195,423 163,359 L163,0 L81,0 M148,579 L62,700 L62,710 L137,710 L195,626 L253,710 L328,710 L328,700 L242,579"/> 
            <glyph glyph-name="Ś" unicode="&#x15A;" horiz-adv-x="453" d=" M49,57 L88,123 Q156,61 250,61 Q303,61 334.5,91 Q366,121 366,176 Q366,218 342.5,244.5 Q319,271 264,295 L207,319 Q63,381 63,501 Q63,583 118,639 Q173,695 266,695 Q363,695 438,643 L402,577 Q335,619 262,619 Q208,619 179,587 Q150,555 150,507 Q150,471 169,445.5 Q188,420 236,400 L293,375 Q373,340 413,295.5 Q453,251 453,181 Q453,94 397.5,39.5 Q342,-15 250,-15 Q138,-15 49,57 M372,883 L372,873 L293,752 L222,752 L222,762 L282,883"/> 
            <glyph glyph-name="ś" unicode="&#x15B;" horiz-adv-x="381" d=" M48,31 L77,96 Q141,55 208,55 Q252,55 274.5,75.5 Q297,96 297,129 Q297,154 281.5,169.5 Q266,185 232,197 L178,215 Q120,235 88,266.5 Q56,298 56,351 Q56,413 101.5,455 Q147,497 222,497 Q299,497 372,463 L345,397 Q285,427 225,427 Q183,427 161.5,406 Q140,385 140,353 Q140,307 203,286 L256,270 Q381,233 381,130 Q381,67 335.5,26 Q290,-15 213,-15 Q119,-15 48,31 M331,710 L331,700 L252,579 L181,579 L181,589 L240,710"/> 
            <glyph glyph-name="Ŝ" unicode="&#x15C;" horiz-adv-x="453" d=" M49,57 L88,123 Q156,61 250,61 Q303,61 334.5,91 Q366,121 366,176 Q366,218 342.5,244.5 Q319,271 264,295 L207,319 Q63,381 63,501 Q63,583 118,639 Q173,695 266,695 Q363,695 438,643 L402,577 Q335,619 262,619 Q208,619 179,587 Q150,555 150,507 Q150,471 169,445.5 Q188,420 236,400 L293,375 Q373,340 413,295.5 Q453,251 453,181 Q453,94 397.5,39.5 Q342,-15 250,-15 Q138,-15 49,57 M309,883 L395,762 L395,752 L320,752 L262,823 L204,752 L129,752 L129,762 L215,883"/> 
            <glyph glyph-name="ŝ" unicode="&#x15D;" horiz-adv-x="381" d=" M48,31 L77,96 Q141,55 208,55 Q252,55 274.5,75.5 Q297,96 297,129 Q297,154 281.5,169.5 Q266,185 232,197 L178,215 Q120,235 88,266.5 Q56,298 56,351 Q56,413 101.5,455 Q147,497 222,497 Q299,497 372,463 L345,397 Q285,427 225,427 Q183,427 161.5,406 Q140,385 140,353 Q140,307 203,286 L256,270 Q381,233 381,130 Q381,67 335.5,26 Q290,-15 213,-15 Q119,-15 48,31 M270,710 L356,589 L356,579 L281,579 L223,663 L165,579 L90,579 L90,589 L176,710"/> 
            <glyph glyph-name="Ş" unicode="&#x15E;" horiz-adv-x="453" d=" M49,57 L88,123 Q156,61 250,61 Q303,61 334.5,91 Q366,121 366,176 Q366,218 342.5,244.5 Q319,271 264,295 L207,319 Q63,381 63,501 Q63,583 118,639 Q173,695 266,695 Q363,695 438,643 L402,577 Q335,619 262,619 Q208,619 179,587 Q150,555 150,507 Q150,471 169,445.5 Q188,420 236,400 L293,375 Q373,340 413,295.5 Q453,251 453,181 Q453,101 405.5,48 Q358,-5 279,-13 L266,-48 Q331,-60 331,-120 Q331,-213 223,-213 Q180,-213 154,-199 L166,-144 Q192,-155 215,-155 Q238,-155 248.5,-147.5 Q259,-140 259,-120 Q259,-83 203,-83 L198,-73 L217,-13 Q122,-3 49,57"/> 
            <glyph glyph-name="ş" unicode="&#x15F;" horiz-adv-x="381" d=" M48,31 L77,96 Q141,55 208,55 Q252,55 274.5,75.5 Q297,96 297,129 Q297,154 281.5,169.5 Q266,185 232,197 L178,215 Q120,235 88,266.5 Q56,298 56,351 Q56,413 101.5,455 Q147,497 222,497 Q299,497 372,463 L345,397 Q285,427 225,427 Q183,427 161.5,406 Q140,385 140,353 Q140,307 203,286 L256,270 Q381,233 381,130 Q381,73 344,34.5 Q307,-4 244,-13 L231,-48 Q297,-60 297,-120 Q297,-213 188,-213 Q149,-213 119,-199 L132,-144 Q158,-155 181,-155 Q225,-155 225,-120 Q225,-83 169,-83 L163,-73 L183,-14 Q114,-9 48,31"/> 
            <glyph glyph-name="Š" unicode="&#x160;" horiz-adv-x="453" d=" M49,57 L88,123 Q156,61 250,61 Q303,61 334.5,91 Q366,121 366,176 Q366,218 342.5,244.5 Q319,271 264,295 L207,319 Q63,381 63,501 Q63,583 118,639 Q173,695 266,695 Q363,695 438,643 L402,577 Q335,619 262,619 Q208,619 179,587 Q150,555 150,507 Q150,471 169,445.5 Q188,420 236,400 L293,375 Q373,340 413,295.5 Q453,251 453,181 Q453,94 397.5,39.5 Q342,-15 250,-15 Q138,-15 49,57 M217,752 L131,873 L131,883 L206,883 L264,812 L322,883 L397,883 L397,873 L311,752"/> 
            <glyph glyph-name="š" unicode="&#x161;" horiz-adv-x="381" d=" M48,31 L77,96 Q141,55 208,55 Q252,55 274.5,75.5 Q297,96 297,129 Q297,154 281.5,169.5 Q266,185 232,197 L178,215 Q120,235 88,266.5 Q56,298 56,351 Q56,413 101.5,455 Q147,497 222,497 Q299,497 372,463 L345,397 Q285,427 225,427 Q183,427 161.5,406 Q140,385 140,353 Q140,307 203,286 L256,270 Q381,233 381,130 Q381,67 335.5,26 Q290,-15 213,-15 Q119,-15 48,31 M170,579 L84,700 L84,710 L159,710 L217,626 L275,710 L350,710 L350,700 L264,579"/> 
            <glyph glyph-name="Ţ" unicode="&#x162;" horiz-adv-x="487" d=" M36,680 L487,680 L487,606 L304,606 L304,0 L292,0 L271,-48 Q336,-60 336,-120 Q336,-213 228,-213 Q189,-213 159,-199 L172,-144 Q198,-155 220,-155 Q265,-155 265,-120 Q265,-83 208,-83 L203,-73 L230,0 L218,0 L218,606 L36,606"/> 
            <glyph glyph-name="ţ" unicode="&#x163;" horiz-adv-x="333" d=" M123,594 L205,594 L205,482 L333,482 L333,413 L205,413 L205,125 Q205,55 263,55 Q281,55 333,67 L333,-1 Q289,-14 251,-15 L238,-48 Q303,-60 303,-120 Q303,-213 195,-213 Q156,-213 126,-199 L139,-144 Q165,-155 187,-155 Q232,-155 232,-120 Q232,-83 175,-83 L170,-73 L191,-5 Q123,20 123,116 L123,413 L34,413 L34,463 L123,482"/> 
            <glyph glyph-name="Ť" unicode="&#x164;" horiz-adv-x="487" d=" M36,680 L487,680 L487,606 L304,606 L304,0 L218,0 L218,606 L36,606 M214,752 L128,873 L128,883 L203,883 L261,812 L319,883 L394,883 L394,873 L308,752"/> 
            <glyph glyph-name="ť" unicode="&#x165;" horiz-adv-x="382" d=" M122,594 L204,594 L204,482 L332,482 L332,415 L204,415 L204,125 Q204,55 262,55 Q280,55 332,67 L332,-1 Q279,-15 245,-15 Q188,-15 155,18 Q122,51 122,116 L122,415 L33,415 L33,463 L122,482 M279,529 L279,539 L297,680 L382,680 L382,670 L344,529"/> 
            <glyph glyph-name="Ŧ" unicode="&#x166;" horiz-adv-x="487" d=" M36,680 L487,680 L487,606 L304,606 L304,407 L421,407 L421,334 L304,334 L304,0 L218,0 L218,334 L104,334 L104,407 L218,407 L218,606 L36,606"/> 
            <glyph glyph-name="ŧ" unicode="&#x167;" horiz-adv-x="334" d=" M124,594 L206,594 L206,482 L334,482 L334,413 L206,413 L206,303 L301,303 L301,239 L206,239 L206,125 Q206,55 264,55 Q282,55 334,67 L334,-1 Q281,-15 247,-15 Q190,-15 157,18 Q124,51 124,116 L124,239 L57,239 L57,303 L124,303 L124,413 L35,413 L35,463 L124,482"/> 
            <glyph glyph-name="Ũ" unicode="&#x168;" horiz-adv-x="572" d=" M90,680 L174,680 L174,252 Q174,161 213,111 Q252,61 332,61 Q488,61 488,252 L488,680 L572,680 L572,241 Q572,118 512.5,51.5 Q453,-15 332,-15 Q90,-15 90,242 M212,767 L187,817 Q223,874 270,874 Q290,874 330.5,854 Q371,834 390,834 Q420,834 444,869 L469,819 Q429,762 386,762 Q365,762 325,782 Q285,802 265,802 Q237,802 212,767"/> 
            <glyph glyph-name="ũ" unicode="&#x169;" horiz-adv-x="459" d=" M77,482 L159,482 L159,182 Q159,118 182,86.5 Q205,55 255,55 Q287,55 322,68.5 Q357,82 377,98 L377,482 L459,482 L459,0 L401,0 L392,44 L390,44 Q309,-15 235,-15 Q159,-15 118,31 Q77,77 77,168 M151,584 L126,634 Q162,691 209,691 Q229,691 269.5,671 Q310,651 329,651 Q359,651 383,686 L408,636 Q368,579 325,579 Q304,579 264,599 Q224,619 204,619 Q176,619 151,584"/> 
            <glyph glyph-name="Ū" unicode="&#x16A;" horiz-adv-x="572" d=" M90,680 L174,680 L174,252 Q174,161 213,111 Q252,61 332,61 Q488,61 488,252 L488,680 L572,680 L572,241 Q572,118 512.5,51.5 Q453,-15 332,-15 Q90,-15 90,242 M450,777 L207,777 L207,851 L450,851"/> 
            <glyph glyph-name="ū" unicode="&#x16B;" horiz-adv-x="459" d=" M77,482 L159,482 L159,182 Q159,118 182,86.5 Q205,55 255,55 Q287,55 322,68.5 Q357,82 377,98 L377,482 L459,482 L459,0 L401,0 L392,44 L390,44 Q309,-15 235,-15 Q159,-15 118,31 Q77,77 77,168 M389,597 L146,597 L146,671 L389,671"/> 
            <glyph glyph-name="Ŭ" unicode="&#x16C;" horiz-adv-x="572" d=" M90,680 L174,680 L174,252 Q174,161 213,111 Q252,61 332,61 Q488,61 488,252 L488,680 L572,680 L572,241 Q572,118 512.5,51.5 Q453,-15 332,-15 Q90,-15 90,242 M327,838 Q388,838 437,870 L460,818 Q405,763 327,763 Q250,763 195,818 L218,870 Q267,838 327,838"/> 
            <glyph glyph-name="ŭ" unicode="&#x16D;" horiz-adv-x="459" d=" M77,482 L159,482 L159,182 Q159,118 182,86.5 Q205,55 255,55 Q287,55 322,68.5 Q357,82 377,98 L377,482 L459,482 L459,0 L401,0 L392,44 L390,44 Q309,-15 235,-15 Q159,-15 118,31 Q77,77 77,168 M269,654 Q330,654 379,686 L402,634 Q347,579 269,579 Q192,579 137,634 L160,686 Q209,654 269,654"/> 
            <glyph glyph-name="Ů" unicode="&#x16E;" horiz-adv-x="572" d=" M90,680 L174,680 L174,252 Q174,161 213,111 Q252,61 332,61 Q488,61 488,252 L488,680 L572,680 L572,241 Q572,118 512.5,51.5 Q453,-15 332,-15 Q90,-15 90,242 M289,828 Q289,808 300,797 Q311,786 329,786 Q347,786 358,797 Q369,808 369,828 Q369,869 329,869 Q289,869 289,828 M235,784 Q235,872 260.5,896.5 Q286,921 329,921 Q372,921 397,896.5 Q422,872 422,828 Q422,784 397,759 Q372,734 329,734 Q286,734 235,784"/> 
            </font>
</defs>
</svg>
