<?xml version="1.0" standalone="no"?>
<!DOCTYPE svg PUBLIC "-//W3C//DTD SVG 1.1//EN" "http://www.w3.org/Graphics/SVG/1.1/DTD/svg11.dtd" >
<svg xmlns="http://www.w3.org/2000/svg">
    <defs>
        <font id="Pangram-Light">
            <font-face font-family="Pangram-Light"
                       units-per-em="1000"
                       ascent="970"
                       descent="-230"
                       bbox="-724 -250 1284 996"
                    />
            <missing-glyph horiz-adv-x="0" />
            
            <glyph glyph-name="!" unicode="&#x21;" horiz-adv-x="142" d=" M83,185 L81,710 L130,710 L128,185 M121,-10 Q91,-10 81,0.5 Q71,11 71,25 Q71,40 81,50.5 Q91,61 106,61 Q121,61 131.5,50.5 Q142,40 142,25 Q142,11 121,-10"/> 
            <glyph glyph-name="&quot;" unicode="&#x22;" horiz-adv-x="243" d=" M203,718 L243,718 L243,550 L203,550 M110,718 L151,718 L151,550 L110,550"/> 
            <glyph glyph-name="#" unicode="&#x23;" horiz-adv-x="670" d=" M670,440 L545,440 L523,232 L640,232 L640,184 L518,184 L498,0 L451,0 L471,184 L262,184 L242,0 L195,0 L215,184 L80,184 L80,232 L220,232 L242,440 L110,440 L110,488 L247,488 L271,710 L318,710 L295,488 L503,488 L527,710 L574,710 L550,488 L670,488 M476,232 L498,440 L290,440 L267,232"/> 
            <glyph glyph-name="$" unicode="&#x24;" horiz-adv-x="541" d=" M541,240 Q541,86 485.5,39 Q430,-8 341,-10 L341,-80 L317,-80 L317,-10 Q236,-5 179,46.5 Q122,98 116,180 L164,180 Q170,115 213.5,78 Q257,41 317,37 L317,347 Q268,370 242.5,385 Q217,400 187,425 Q157,450 144,481 Q131,512 131,553 Q131,624 184.5,670.5 Q238,717 317,720 L317,790 L341,790 L341,719 Q412,714 459.5,665 Q507,616 513,548 L465,548 Q460,597 425.5,632.5 Q391,668 341,673 L341,386 Q439,340 541,240 M179,552 Q179,521 189,497 Q199,473 221.5,454.5 Q244,436 262.5,425 Q281,414 317,397 L317,674 Q259,672 219,637.5 Q179,603 179,552 M341,36 Q411,38 452,73 Q493,108 493,164 Q493,223 453.5,261 Q414,299 341,335"/> 
            <glyph glyph-name="%" unicode="&#x25;" horiz-adv-x="905" d=" M334,390 Q196,390 148,438 Q100,486 100,555 Q100,624 148,672 Q196,720 265,720 Q334,720 382,672 Q430,624 430,555 Q430,486 334,390 M794,710 L258,0 L209,0 L745,710 M212,429 Q318,429 354.5,465.5 Q391,502 391,555 Q391,608 354.5,644.5 Q318,681 265,681 Q212,681 175.5,644.5 Q139,608 139,555 Q139,502 212,429 M809,-10 Q671,-10 623,38 Q575,86 575,155 Q575,224 623,272 Q671,320 740,320 Q809,320 857,272 Q905,224 905,155 Q905,86 809,-10 M687,29 Q793,29 830,65.5 Q867,102 867,155 Q867,208 830,244.5 Q793,281 740,281 Q687,281 650.5,244.5 Q614,208 614,155 Q614,102 687,29"/> 
            <glyph glyph-name="&amp;" unicode="&#x26;" horiz-adv-x="646" d=" M646,0 L587,0 L531,57 Q456,-10 341,-10 Q231,-10 165.5,54 Q100,118 100,210 Q100,272 133,319.5 Q166,367 211,390 Q148,456 148,536 Q148,613 202,666.5 Q256,720 347,720 Q433,720 485,664.5 Q537,609 537,529 L489,529 Q489,591 450,632.5 Q411,674 346,674 Q279,674 237.5,633 Q196,592 196,533 Q196,503 208,475.5 Q220,448 231.5,433.5 Q243,419 264,398 L528,123 Q583,196 583,301 L534,301 L534,332 L632,332 Q632,179 561,89 M345,36 Q436,36 499,91 L240,361 Q202,343 175,305.5 Q148,268 148,218 Q148,141 202,88.5 Q256,36 345,36"/> 
            <glyph glyph-name="'" unicode="&#x27;" horiz-adv-x="151" d=" M110,718 L151,718 L151,550 L110,550"/> 
            <glyph glyph-name="(" unicode="&#x28;" horiz-adv-x="248" d=" M248,710 L248,664 Q202,664 165,632.5 Q128,601 128,534 L128,96 Q128,29 165,-2.5 Q202,-34 248,-34 L248,-80 Q177,-80 128.5,-35.5 Q80,9 80,96 L80,534 Q80,621 128.5,665.5 Q177,710 248,710"/> 
            <glyph glyph-name=")" unicode="&#x29;" horiz-adv-x="238" d=" M70,710 Q141,710 189.5,665.5 Q238,621 238,534 L238,96 Q238,9 189.5,-35.5 Q141,-80 70,-80 L70,-34 Q116,-34 153,-2.5 Q190,29 190,96 L190,534 Q190,601 153,632.5 Q116,664 70,664"/> 
            <glyph glyph-name="*" unicode="&#x2A;" horiz-adv-x="423" d=" M324,406 L261,523 L198,406 L163,427 L232,539 L100,535 L100,576 L233,572 L163,685 L198,705 L261,589 L324,706 L360,686 L290,572 L423,576 L423,535 L290,539 L360,426"/> 
            <glyph glyph-name="+" unicode="&#x2B;" horiz-adv-x="428" d=" M428,311 L428,265 L287,265 L287,124 L241,124 L241,265 L100,265 L100,311 L241,311 L241,452 L287,452 L287,311"/> 
            <glyph glyph-name="," unicode="&#x2C;" horiz-adv-x="123" d=" M66,50 L123,50 L71,-118 L30,-118"/> 
            <glyph glyph-name="-" unicode="&#x2D;" horiz-adv-x="412" d=" M84,296 L412,296 L412,250 L84,250"/> 
            <glyph glyph-name="." unicode="&#x2E;" horiz-adv-x="101" d=" M65,-10 Q51,-10 40.5,0.5 Q30,11 30,25 Q30,40 40.5,50.5 Q51,61 65,61 Q80,61 90.5,50.5 Q101,40 101,25 Q101,11 90.5,0.5 Q80,-10 65,-10"/> 
            <glyph glyph-name="/" unicode="&#x2F;" horiz-adv-x="360" d=" M360,710 L94,0 L50,0 L316,710"/> 
            <glyph glyph-name="0" unicode="&#x30;" horiz-adv-x="575" d=" M327,720 Q430,720 502.5,651 Q575,582 575,476 L575,234 Q575,128 502.5,59 Q430,-10 327,-10 Q225,-10 152.5,59.5 Q80,129 80,234 L80,476 Q80,581 152.5,650.5 Q225,720 327,720 M327,36 Q411,36 469,93 Q527,150 527,234 L527,476 Q527,560 469,617 Q411,674 327,674 Q244,674 186,617 Q128,560 128,476 L128,234 Q128,150 186,93 Q244,36 327,36"/> 
            <glyph glyph-name="1" unicode="&#x31;" horiz-adv-x="471" d=" M295,46 L471,46 L471,0 L70,0 L70,46 L246,46 L246,648 L110,610 L110,658 L295,710"/> 
            <glyph glyph-name="2" unicode="&#x32;" horiz-adv-x="574" d=" M574,502 Q574,444 542,393.5 Q510,343 461.5,309 Q413,275 356.5,240.5 Q300,206 251.5,179.5 Q203,153 171,118 Q139,83 139,46 L574,46 L574,0 L90,0 L90,46 Q90,100 135,147 Q180,194 243.5,230.5 Q307,267 371,304.5 Q435,342 480,393 Q525,444 525,503 Q525,578 474,626 Q423,674 347,674 Q255,674 196.5,621.5 Q138,569 138,490 L90,490 Q90,588 161.5,654 Q233,720 348,720 Q446,720 510,659.5 Q574,599 574,502"/> 
            <glyph glyph-name="3" unicode="&#x33;" horiz-adv-x="577" d=" M444,369 Q504,349 540.5,305.5 Q577,262 577,195 Q577,109 514.5,49.5 Q452,-10 344,-10 Q232,-10 161,57.5 Q90,125 90,223 L138,223 Q138,142 196,89 Q254,36 342,36 Q428,36 478.5,82.5 Q529,129 529,197 Q529,237 512,266.5 Q495,296 466,312.5 Q437,329 404,336.5 Q371,344 333,344 L276,344 L276,390 L333,390 Q409,390 454,425 Q499,460 499,525 Q499,590 453,632 Q407,674 332,674 Q246,674 192,621 Q138,568 138,487 L90,487 Q90,586 156.5,653 Q223,720 334,720 Q429,720 488,664.5 Q547,609 547,527 Q547,415 444,369"/> 
            <glyph glyph-name="4" unicode="&#x34;" horiz-adv-x="604" d=" M604,200 L604,153 L507,153 L507,0 L459,0 L459,153 L70,153 L70,200 L459,710 L507,710 L507,200 M131,200 L459,200 L459,635"/> 
            <glyph glyph-name="5" unicode="&#x35;" horiz-adv-x="577" d=" M341,475 Q441,475 509,409.5 Q577,344 577,231 Q577,130 506,60 Q435,-10 334,-10 Q223,-10 156.5,57.5 Q90,125 90,223 L138,223 Q139,143 192.5,90.5 Q246,38 333,38 Q414,38 471.5,94 Q529,150 529,233 Q529,326 473,378.5 Q417,431 334,431 Q274,431 220,402.5 Q166,374 147,315 L99,315 L160,710 L527,710 L527,664 L201,664 L162,411 Q232,475 341,475"/> 
            <glyph glyph-name="6" unicode="&#x36;" horiz-adv-x="587" d=" M345,470 Q446,470 516.5,399 Q587,328 587,230 Q587,131 516.5,60.5 Q446,-10 345,-10 Q242,-10 171,60.5 Q100,131 100,230 Q100,303 142,364 L368,710 L424,710 L255,453 Q297,470 345,470 M345,36 Q426,36 482.5,93 Q539,150 539,230 Q539,309 482,366.5 Q425,424 345,424 Q262,424 205,367 Q148,310 148,230 Q148,150 205,93 Q262,36 345,36"/> 
            <glyph glyph-name="7" unicode="&#x37;" horiz-adv-x="538" d=" M80,710 L538,710 L538,664 L222,0 L169,0 L486,664 L80,664"/> 
            <glyph glyph-name="8" unicode="&#x38;" horiz-adv-x="574" d=" M437,388 Q499,364 536.5,315 Q574,266 574,201 Q574,111 506,53.5 Q438,-4 332,-4 Q226,-4 158,53.5 Q90,111 90,201 Q90,266 127,315 Q164,364 227,388 Q183,410 156.5,448.5 Q130,487 130,538 Q130,618 190,666 Q250,714 332,714 Q414,714 474,666 Q534,618 534,538 Q534,487 507,449 Q480,411 437,388 M178,600 Q178,476 225,442 Q272,408 332,408 Q391,408 438,442.5 Q485,477 485,538 Q485,599 438,633.5 Q391,668 332,668 Q272,668 178,600 M249,42 Q415,42 470,86.5 Q525,131 525,201 Q525,271 470,315.5 Q415,360 332,360 Q249,360 193.5,315.5 Q138,271 138,201 Q138,131 249,42"/> 
            <glyph glyph-name="9" unicode="&#x39;" horiz-adv-x="587" d=" M587,480 Q587,413 550,353 L319,0 L263,0 L433,257 Q390,240 343,240 Q242,240 171,311 Q100,382 100,480 Q100,579 171,649.5 Q242,720 343,720 Q445,720 516,649.5 Q587,579 587,480 M148,480 Q148,401 205,344 Q262,287 343,287 Q425,287 482,344 Q539,401 539,480 Q539,560 482,617 Q425,674 343,674 Q262,674 205,617 Q148,560 148,480"/> 
            <glyph glyph-name=":" unicode="&#x3A;" horiz-adv-x="141" d=" M105,399 Q91,399 80.5,409 Q70,419 70,434 Q70,449 80.5,459.5 Q91,470 105,470 Q120,470 130.5,459.5 Q141,449 141,434 Q141,419 130.5,409 Q120,399 105,399 M105,-10 Q91,-10 80.5,0.5 Q70,11 70,25 Q70,40 80.5,50.5 Q91,61 105,61 Q120,61 130.5,50.5 Q141,40 141,25 Q141,11 130.5,0.5 Q120,-10 105,-10"/> 
            <glyph glyph-name=";" unicode="&#x3B;" horiz-adv-x="125" d=" M89,399 Q75,399 64.5,409 Q54,419 54,434 Q54,449 64.5,459 Q75,469 89,469 Q104,469 114.5,459 Q125,449 125,434 Q125,419 114.5,409 Q104,399 89,399 M65,50 L122,50 L71,-118 L29,-118"/> 
            <glyph glyph-name="&lt;" unicode="&#x3C;" horiz-adv-x="426" d=" M426,457 L426,412 L150,293 L426,173 L426,128 L98,270 L98,315"/> 
            <glyph glyph-name="=" unicode="&#x3D;" horiz-adv-x="428" d=" M100,368 L428,368 L428,321 L100,321 M100,255 L428,255 L428,209 L100,209"/> 
            <glyph glyph-name="&gt;" unicode="&#x3E;" horiz-adv-x="428" d=" M100,457 L428,315 L428,270 L100,128 L100,173 L377,292 L100,412"/> 
            <glyph glyph-name="?" unicode="&#x3F;" horiz-adv-x="477" d=" M277,720 Q370,720 423.5,667 Q477,614 477,542 Q477,464 426,413 Q375,362 292,352 L291,185 L246,185 L244,388 L251,388 Q332,388 380.5,427 Q429,466 429,537 Q429,595 388.5,634.5 Q348,674 278,674 Q211,674 163.5,628.5 Q116,583 116,505 L68,505 Q68,603 129,661.5 Q190,720 277,720 M268,61 Q283,61 293.5,50.5 Q304,40 304,25 Q304,11 293.5,0.5 Q283,-10 268,-10 Q254,-10 243.5,0.5 Q233,11 233,25 Q233,40 243.5,50.5 Q254,61 268,61"/> 
            <glyph glyph-name="@" unicode="&#x40;" horiz-adv-x="881" d=" M100,341 Q100,507 216.5,619.5 Q333,732 491,732 Q661,732 771,623 Q881,514 881,345 Q881,237 833,168 Q785,99 715,99 Q665,99 642.5,136 Q620,173 620,250 Q599,208 557,182 Q515,156 465,156 Q391,156 338.5,210 Q286,264 286,341 Q286,418 338.5,472 Q391,526 465,526 Q514,526 556,500.5 Q598,475 619,434 L619,523 L659,523 L659,248 Q659,133 723,133 Q770,133 805.5,190.5 Q841,248 841,341 Q841,494 745,592.5 Q649,691 491,691 Q348,691 244.5,591.5 Q141,492 141,341 Q141,260 171.5,193 Q202,126 250.5,85.5 Q299,45 354,23 Q409,1 463,1 Q558,1 642,46 L678,23 Q580,-39 463,-39 Q399,-39 336,-13.5 Q273,12 219.5,58.5 Q166,105 133,179 Q100,253 100,341 M328,341 Q328,282 370.5,239.5 Q413,197 473,197 Q532,197 574.5,239.5 Q617,282 617,341 Q617,401 574.5,443.5 Q532,486 473,486 Q413,486 370.5,443.5 Q328,401 328,341"/> 
            <glyph glyph-name="A" unicode="&#x41;" horiz-adv-x="645" d=" M595,0 L525,194 L200,194 L130,0 L80,0 L336,710 L389,710 L645,0 M217,240 L509,240 L363,645"/> 
            <glyph glyph-name="B" unicode="&#x42;" horiz-adv-x="530" d=" M396,378 Q458,355 494,305.5 Q530,256 530,189 Q530,98 467.5,49 Q405,0 288,0 L82,0 L82,710 L276,710 Q383,710 436.5,661.5 Q490,613 490,533 Q490,420 396,378 M130,664 L130,398 L276,398 Q360,398 401,430.5 Q442,463 442,531 Q442,595 400,629.5 Q358,664 276,664 M288,46 Q482,46 482,191 Q482,264 433.5,308 Q385,352 296,352 L130,352 L130,46"/> 
            <glyph glyph-name="C" unicode="&#x43;" horiz-adv-x="654" d=" M654,597 Q568,674 448,674 Q320,674 229,581 Q138,488 138,355 Q138,222 229,129 Q320,36 448,36 Q568,36 654,113 L654,62 Q574,-10 444,-10 Q294,-10 192,96.5 Q90,203 90,355 Q90,507 192,613.5 Q294,720 444,720 Q574,720 654,648"/> 
            <glyph glyph-name="D" unicode="&#x44;" horiz-adv-x="624" d=" M292,710 Q441,710 532.5,608.5 Q624,507 624,355 Q624,203 532.5,101.5 Q441,0 292,0 L78,0 L78,710 M292,46 Q417,46 496.5,133 Q576,220 576,355 Q576,490 496.5,577 Q417,664 292,664 L126,664 L126,46"/> 
            <glyph glyph-name="E" unicode="&#x45;" horiz-adv-x="441" d=" M441,664 L126,664 L126,395 L367,395 L367,349 L126,349 L126,46 L441,46 L441,0 L78,0 L78,710 L441,710"/> 
            <glyph glyph-name="F" unicode="&#x46;" horiz-adv-x="433" d=" M433,664 L118,664 L118,398 L379,398 L379,351 L118,351 L118,0 L70,0 L70,710 L433,710"/> 
            <glyph glyph-name="G" unicode="&#x47;" horiz-adv-x="790" d=" M431,366 L790,366 Q790,203 693,96.5 Q596,-10 439,-10 Q288,-10 189,96.5 Q90,203 90,355 Q90,507 190,613.5 Q290,720 443,720 Q620,720 725,569 L688,540 Q593,674 443,674 Q313,674 225.5,581 Q138,488 138,355 Q138,222 224.5,129 Q311,36 439,36 Q563,36 646,116.5 Q729,197 740,319 L431,319"/> 
            <glyph glyph-name="H" unicode="&#x48;" horiz-adv-x="593" d=" M544,710 L593,710 L593,0 L544,0 L544,340 L126,340 L126,0 L78,0 L78,710 L126,710 L126,386 L544,386"/> 
            <glyph glyph-name="I" unicode="&#x49;" horiz-adv-x="128" d=" M80,0 L80,710 L128,710 L128,0"/> 
            <glyph glyph-name="J" unicode="&#x4A;" horiz-adv-x="378" d=" M128,140 Q128,97 156.5,66.5 Q185,36 229,36 Q330,36 330,166 L330,710 L378,710 L378,166 Q378,76 336.5,33 Q295,-10 231,-10 Q170,-10 125,31.5 Q80,73 80,140"/> 
            <glyph glyph-name="K" unicode="&#x4B;" horiz-adv-x="550" d=" M550,710 L255,371 L550,0 L492,0 L224,335 L128,225 L128,0 L80,0 L80,710 L128,710 L128,297 L488,710"/> 
            <glyph glyph-name="L" unicode="&#x4C;" horiz-adv-x="428" d=" M138,46 L428,46 L428,0 L90,0 L90,710 L138,710"/> 
            <glyph glyph-name="M" unicode="&#x4D;" horiz-adv-x="777" d=" M728,710 L777,710 L777,0 L728,0 L728,621 L445,157 L415,157 L132,621 L132,0 L84,0 L84,710 L132,710 L430,222"/> 
            <glyph glyph-name="N" unicode="&#x4E;" horiz-adv-x="621" d=" M573,710 L621,710 L621,0 L573,0 L128,628 L128,0 L80,0 L80,710 L128,710 L573,82"/> 
            <glyph glyph-name="O" unicode="&#x4F;" horiz-adv-x="801" d=" M595,-10 Q295,-10 192.5,97 Q90,204 90,355 Q90,506 192.5,613 Q295,720 445,720 Q595,720 698,613 Q801,506 801,355 Q801,204 595,-10 M317,36 Q573,36 662.5,130 Q752,224 752,355 Q752,486 662.5,580 Q573,674 445,674 Q317,674 227.5,580 Q138,486 138,355 Q138,224 317,36"/> 
            <glyph glyph-name="P" unicode="&#x50;" horiz-adv-x="534" d=" M290,710 Q398,710 466,652 Q534,594 534,485 Q534,377 466,319 Q398,261 290,261 L126,261 L126,0 L78,0 L78,710 M290,307 Q379,307 432.5,351.5 Q486,396 486,485 Q486,574 432.5,619 Q379,664 290,664 L126,664 L126,307"/> 
            <glyph glyph-name="Q" unicode="&#x51;" horiz-adv-x="803" d=" M803,-8 L769,-42 L663,65 Q567,-10 445,-10 Q295,-10 192.5,97 Q90,204 90,355 Q90,506 192.5,613 Q295,720 445,720 Q595,720 698,613 Q801,506 801,355 Q801,203 698,97 M445,36 Q547,36 629,99 L526,203 L559,236 L664,131 Q752,224 752,355 Q752,486 662.5,580 Q573,674 445,674 Q317,674 227.5,580 Q138,486 138,355 Q138,224 227.5,130 Q317,36 445,36"/> 
            <glyph glyph-name="R" unicode="&#x52;" horiz-adv-x="536" d=" M480,0 L313,253 L126,253 L126,0 L78,0 L78,710 L317,710 Q406,710 470,647 Q534,584 534,481 Q534,393 486,333.5 Q438,274 364,258 L536,0 M126,664 L126,299 L317,299 Q386,299 436,349 Q486,399 486,481 Q486,564 436,614 Q386,664 317,664"/> 
            <glyph glyph-name="S" unicode="&#x53;" horiz-adv-x="531" d=" M106,180 L154,180 Q160,111 209,73.5 Q258,36 322,36 Q396,36 439.5,71.5 Q483,107 483,164 Q483,226 439,265.5 Q395,305 312,344 Q270,365 250,375.5 Q230,386 200,406.5 Q170,427 156.5,445 Q143,463 132,491 Q121,519 121,553 Q121,625 177.5,672.5 Q234,720 315,720 Q392,720 444.5,670 Q497,620 503,548 L455,548 Q449,602 410.5,638 Q372,674 315,674 Q254,674 211.5,639.5 Q169,605 169,552 Q169,520 178.5,496 Q188,472 214.5,451.5 Q241,431 256.5,422.5 Q272,414 315,394 Q321,391 325,389 Q426,342 478.5,291.5 Q531,241 531,163 Q531,85 473,37.5 Q415,-10 322,-10 Q237,-10 174.5,42 Q112,94 106,180"/> 
            <glyph glyph-name="T" unicode="&#x54;" horiz-adv-x="479" d=" M479,710 L479,664 L298,664 L298,0 L250,0 L250,664 L70,664 L70,710"/> 
            <glyph glyph-name="U" unicode="&#x55;" horiz-adv-x="609" d=" M609,279 Q609,136 537.5,63 Q466,-10 344,-10 Q221,-10 149.5,63 Q78,136 78,279 L78,710 L126,710 L126,279 Q126,155 185,95.5 Q244,36 344,36 Q443,36 502,95.5 Q561,155 561,279 L561,710 L609,710"/> 
            <glyph glyph-name="V" unicode="&#x56;" horiz-adv-x="642" d=" M592,710 L642,710 L383,0 L329,0 L70,710 L120,710 L356,59"/> 
            <glyph glyph-name="W" unicode="&#x57;" horiz-adv-x="1060" d=" M1011,710 L1060,710 L828,0 L773,0 L565,634 L358,0 L302,0 L70,710 L120,710 L330,66 L540,710 L590,710 L800,66"/> 
            <glyph glyph-name="X" unicode="&#x58;" horiz-adv-x="665" d=" M665,710 L397,355 L665,0 L606,0 L367,316 L129,0 L70,0 L338,355 L70,710 L129,710 L367,394 L606,710"/> 
            <glyph glyph-name="Y" unicode="&#x59;" horiz-adv-x="617" d=" M562,710 L617,710 L367,306 L367,0 L319,0 L319,306 L70,710 L125,710 L343,357"/> 
            <glyph glyph-name="Z" unicode="&#x5A;" horiz-adv-x="612" d=" M612,710 L612,664 L151,46 L612,46 L612,0 L90,0 L90,46 L551,664 L90,664 L90,710"/> 
            <glyph glyph-name="[" unicode="&#x5B;" horiz-adv-x="248" d=" M248,664 L128,664 L128,-34 L248,-34 L248,-80 L80,-80 L80,710 L248,710"/> 
            <glyph glyph-name="\" unicode="&#x5C;" horiz-adv-x="360" d=" M50,710 L94,710 L360,0 L316,0"/> 
            <glyph glyph-name="]" unicode="&#x5D;" horiz-adv-x="238" d=" M238,710 L238,-80 L70,-80 L70,-34 L190,-34 L190,664 L70,664 L70,710"/> 
            <glyph glyph-name="^" unicode="&#x5E;" horiz-adv-x="463" d=" M463,310 L418,310 L257,661 L95,310 L50,310 L234,710 L279,710"/> 
            <glyph glyph-name="_" unicode="&#x5F;" horiz-adv-x="640" d=" M30,-33 L640,-33 L640,-73 L30,-73"/> 
            <glyph glyph-name="`" unicode="&#x60;" horiz-adv-x="242" d=" M156,716 L242,578 L202,578 L100,716"/> 
            <glyph glyph-name="a" unicode="&#x61;" horiz-adv-x="626" d=" M90,254 Q90,362 166.5,439 Q243,516 351,516 Q427,516 488,475.5 Q549,435 577,370 L579,506 L626,506 L626,0 L579,0 L577,137 Q550,71 488.5,30.5 Q427,-10 351,-10 Q242,-10 166,67 Q90,144 90,254 M138,254 Q138,164 202,100 Q266,36 357,36 Q447,36 510.5,100 Q574,164 574,254 Q574,343 510.5,406.5 Q447,470 357,470 Q266,470 202,406.5 Q138,343 138,254"/> 
            <glyph glyph-name="b" unicode="&#x62;" horiz-adv-x="622" d=" M622,254 Q622,144 546,67 Q470,-10 361,-10 Q285,-10 223.5,30.5 Q162,71 134,137 L133,0 L86,0 L86,750 L134,750 L134,370 Q162,435 223.5,475.5 Q285,516 361,516 Q469,516 545.5,439 Q622,362 622,254 M574,254 Q574,343 510,406.5 Q446,470 355,470 Q265,470 201.5,406.5 Q138,343 138,254 Q138,164 201.5,100 Q265,36 355,36 Q446,36 510,100 Q574,164 574,254"/> 
            <glyph glyph-name="c" unicode="&#x63;" horiz-adv-x="520" d=" M520,397 Q450,470 359,470 Q270,470 205,406.5 Q140,343 140,254 Q140,163 205,99.5 Q270,36 359,36 Q450,36 520,109 L520,59 Q454,-10 354,-10 Q244,-10 167,67.5 Q90,145 90,254 Q90,362 167,439 Q244,516 354,516 Q454,516 520,447"/> 
            <glyph glyph-name="d" unicode="&#x64;" horiz-adv-x="626" d=" M90,254 Q90,362 166.5,439 Q243,516 351,516 Q427,516 488,475.5 Q549,435 577,370 L577,750 L626,750 L626,0 L579,0 L577,137 Q550,71 488.5,30.5 Q427,-10 351,-10 Q242,-10 166,67 Q90,144 90,254 M138,254 Q138,164 202,100 Q266,36 357,36 Q447,36 510.5,100 Q574,164 574,254 Q574,343 510.5,406.5 Q447,470 357,470 Q266,470 202,406.5 Q138,343 138,254"/> 
            <glyph glyph-name="e" unicode="&#x65;" horiz-adv-x="596" d=" M596,249 L596,238 L138,238 Q141,146 200.5,90 Q260,34 351,34 Q421,34 468,67 Q515,100 535,146 L578,139 Q559,80 498.5,35 Q438,-10 350,-10 Q238,-10 164,64.5 Q90,139 90,256 Q90,364 162,440 Q234,516 343,516 Q456,516 526,437.5 Q596,359 596,249 M343,472 Q257,472 199,415 Q141,358 138,275 L547,275 Q542,357 486,414.5 Q430,472 343,472"/> 
            <glyph glyph-name="f" unicode="&#x66;" horiz-adv-x="282" d=" M219,674 Q153,674 153,583 L153,506 L274,506 L274,460 L153,460 L153,0 L105,0 L105,460 L60,460 L60,506 L105,506 L105,591 Q105,654 132.5,687 Q160,720 207,720 Q250,720 282,694 L282,650 Q274,657 255,665.5 Q236,674 219,674"/> 
            <glyph glyph-name="g" unicode="&#x67;" horiz-adv-x="519" d=" M170,69 Q388,69 453.5,29 Q519,-11 519,-85 Q519,-157 459,-198.5 Q399,-240 305,-240 Q211,-240 150.5,-198.5 Q90,-157 90,-85 Q90,-5 172,43 Q123,64 123,102 Q123,124 139.5,141.5 Q156,159 180,167 Q138,193 114,234.5 Q90,276 90,326 Q90,406 148.5,461 Q207,516 294,516 Q344,516 389,495 L513,506 L513,462 L438,462 Q498,407 498,326 Q498,246 439.5,191 Q381,136 294,136 Q253,136 214,150 Q170,134 170,108 M136,388 Q136,264 181.5,221.5 Q227,179 294,179 Q361,179 406,221.5 Q451,264 451,326 Q451,389 406,431.5 Q361,474 294,474 Q227,474 136,388 M230,-198 Q380,-198 426.5,-168.5 Q473,-139 473,-86 Q473,-28 417,-0.5 Q361,27 269,27 Q246,27 225,30 Q192,15 164,-17 Q136,-49 136,-85 Q136,-138 230,-198"/> 
            <glyph glyph-name="h" unicode="&#x68;" horiz-adv-x="537" d=" M347,516 Q434,516 485.5,458.5 Q537,401 537,293 L537,0 L489,0 L489,278 Q489,375 446.5,422.5 Q404,470 334,470 Q292,470 257.5,455.5 Q223,441 202,419.5 Q181,398 166,371 Q151,344 145,320.5 Q139,297 138,277 L138,0 L90,0 L90,750 L138,750 L138,397 Q212,516 347,516"/> 
            <glyph glyph-name="i" unicode="&#x69;" horiz-adv-x="132" d=" M96,604 Q82,604 71.5,614.5 Q61,625 61,639 Q61,654 71.5,664.5 Q82,675 96,675 Q111,675 121.5,664.5 Q132,654 132,639 Q132,625 121.5,614.5 Q111,604 96,604 M120,506 L120,0 L72,0 L72,506"/> 
            <glyph glyph-name="j" unicode="&#x6A;" horiz-adv-x="167" d=" M131,604 Q117,604 106.5,614.5 Q96,625 96,639 Q96,654 106.5,664.5 Q117,675 131,675 Q146,675 156.5,664.5 Q167,654 167,639 Q167,625 156.5,614.5 Q146,604 131,604 M157,506 L157,0 L80,-230 L30,-230 L109,4 L109,506"/> 
            <glyph glyph-name="k" unicode="&#x6B;" horiz-adv-x="501" d=" M501,506 L266,286 L501,0 L440,0 L231,254 L138,167 L138,0 L90,0 L90,750 L138,750 L138,231 L433,506"/> 
            <glyph glyph-name="l" unicode="&#x6C;" horiz-adv-x="138" d=" M138,750 L138,0 L90,0 L90,750"/> 
            <glyph glyph-name="m" unicode="&#x6D;" horiz-adv-x="855" d=" M686,516 Q766,516 810.5,460.5 Q855,405 855,313 L855,0 L807,0 L807,301 Q807,378 771.5,424 Q736,470 673,470 Q600,470 552,409.5 Q504,349 497,263 L497,0 L449,0 L449,301 Q449,378 413.5,424 Q378,470 314,470 Q242,470 193.5,409.5 Q145,349 138,263 L138,0 L90,0 L90,506 L135,506 L138,394 Q211,516 327,516 Q390,516 432,480 Q474,444 489,382 Q562,516 686,516"/> 
            <glyph glyph-name="n" unicode="&#x6E;" horiz-adv-x="537" d=" M347,516 Q434,516 485.5,458.5 Q537,401 537,293 L537,0 L489,0 L489,278 Q489,375 446.5,422.5 Q404,470 334,470 Q292,470 257.5,455.5 Q223,441 202,419.5 Q181,398 166,371 Q151,344 145,320.5 Q139,297 138,277 L138,0 L90,0 L90,506 L135,506 L138,397 Q212,516 347,516"/> 
            <glyph glyph-name="o" unicode="&#x6F;" horiz-adv-x="622" d=" M357,-10 Q245,-10 167.5,67 Q90,144 90,254 Q90,362 168,439 Q246,516 357,516 Q468,516 545,439 Q622,362 622,254 Q622,144 545,67 Q468,-10 357,-10 M357,36 Q447,36 510.5,100 Q574,164 574,254 Q574,343 510.5,406.5 Q447,470 357,470 Q266,470 202,406.5 Q138,343 138,254 Q138,164 202,100 Q266,36 357,36"/> 
            <glyph glyph-name="p" unicode="&#x70;" horiz-adv-x="626" d=" M90,-230 L90,506 L135,506 L138,370 Q166,435 227,475.5 Q288,516 364,516 Q473,516 549.5,439 Q626,362 626,254 Q626,144 549.5,67 Q473,-10 364,-10 Q288,-10 227,30.5 Q166,71 138,137 L138,-230 M142,254 Q142,164 205.5,100 Q269,36 359,36 Q450,36 513.5,100 Q577,164 577,254 Q577,343 513,406.5 Q449,470 359,470 Q269,470 205.5,406.5 Q142,343 142,254"/> 
            <glyph glyph-name="q" unicode="&#x71;" horiz-adv-x="626" d=" M626,-230 L577,-230 L577,137 Q550,71 488.5,30.5 Q427,-10 351,-10 Q242,-10 166,67 Q90,144 90,254 Q90,362 166.5,439 Q243,516 351,516 Q427,516 488,475.5 Q549,435 577,370 L580,506 L626,506 M574,254 Q574,343 510.5,406.5 Q447,470 357,470 Q266,470 202,406.5 Q138,343 138,254 Q138,164 202,100 Q266,36 357,36 Q447,36 510.5,100 Q574,164 574,254"/> 
            <glyph glyph-name="r" unicode="&#x72;" horiz-adv-x="328" d=" M262,516 Q300,516 328,493 L316,452 Q289,470 260,470 Q218,470 189,438.5 Q160,407 149,366 Q138,325 138,280 L138,0 L90,0 L90,506 L135,506 L138,429 Q187,516 262,516"/> 
            <glyph glyph-name="s" unicode="&#x73;" horiz-adv-x="463" d=" M90,127 L138,127 Q153,84 191,58.5 Q229,33 287,33 Q345,33 379.5,57 Q414,81 414,119 Q414,131 412,141.5 Q410,152 404.5,161 Q399,170 394,177 Q389,184 377.5,191.5 Q366,199 359,204 Q352,209 334.5,216.5 Q317,224 308,228.5 Q299,233 276.5,242 Q254,251 242,256 Q212,268 193,277.5 Q174,287 151.5,303 Q129,319 118,341.5 Q107,364 107,392 Q107,448 154,482 Q201,516 262,516 Q330,516 375,480 Q420,444 426,386 L378,386 Q372,427 340,450.5 Q308,474 263,474 Q221,474 188.5,451.5 Q156,429 156,392 Q156,379 159.5,368.5 Q163,358 172,348.5 Q181,339 188.5,332.5 Q196,326 213.5,317.5 Q231,309 242.5,304 Q254,299 278.5,288.5 Q303,278 317,272 Q351,258 373,246 Q395,234 418,216 Q441,198 452,174 Q463,150 463,119 Q463,62 414.5,26 Q366,-10 286,-10 Q208,-10 155.5,26.5 Q103,63 90,127"/> 
            <glyph glyph-name="t" unicode="&#x74;" horiz-adv-x="269" d=" M269,506 L269,460 L173,460 L173,0 L125,0 L125,460 L60,460 L60,506 L125,506 L125,656 L173,656 L173,506"/> 
            <glyph glyph-name="u" unicode="&#x75;" horiz-adv-x="529" d=" M481,506 L529,506 L529,0 L483,0 L481,109 Q407,-10 272,-10 Q185,-10 133.5,47.5 Q82,105 82,213 L82,506 L130,506 L130,228 Q130,131 172.5,83.5 Q215,36 285,36 Q328,36 363.5,51 Q399,66 420,89 Q441,112 455.5,140 Q470,168 475.5,191.5 Q481,215 481,235"/> 
            <glyph glyph-name="v" unicode="&#x76;" horiz-adv-x="566" d=" M512,506 L566,506 L350,0 L295,0 L80,506 L134,506 L323,52"/> 
            <glyph glyph-name="w" unicode="&#x77;" horiz-adv-x="862" d=" M811,506 L862,506 L679,0 L628,0 L471,435 L313,0 L263,0 L80,506 L131,506 L288,61 L445,506 L496,506 L653,61"/> 
            <glyph glyph-name="x" unicode="&#x78;" horiz-adv-x="554" d=" M80,0 L287,253 L80,506 L140,506 L317,287 L494,506 L554,506 L347,253 L554,0 L494,0 L317,219 L140,0"/> 
            <glyph glyph-name="y" unicode="&#x79;" horiz-adv-x="578" d=" M80,506 L132,506 L331,61 L526,506 L578,506 L256,-230 L204,-230 L305,1"/> 
            <glyph glyph-name="z" unicode="&#x7A;" horiz-adv-x="477" d=" M477,506 L477,460 L153,46 L477,46 L477,0 L90,0 L90,46 L413,460 L90,460 L90,506"/> 
            <glyph glyph-name="{" unicode="&#x7B;" horiz-adv-x="292" d=" M292,710 L292,664 Q271,664 260,663.5 Q249,663 229,658.5 Q209,654 199,645 Q189,636 180.5,618 Q172,600 172,574 Q172,539 186.5,470 Q201,401 201,372 Q201,315 165,315 Q201,315 201,258 Q201,229 186.5,160 Q172,91 172,56 Q172,30 180.5,12 Q189,-6 199,-15 Q209,-24 229,-28.5 Q249,-33 260,-33.5 Q271,-34 292,-34 L292,-80 Q255,-80 229,-76 Q203,-72 177,-60.5 Q151,-49 137.5,-23 Q124,3 124,43 Q124,84 139,157.5 Q154,231 154,258 Q154,292 104,292 L104,338 Q154,338 154,372 Q154,399 139,472.5 Q124,546 124,587 Q124,627 137.5,653 Q151,679 177,690.5 Q203,702 229,706 Q255,710 292,710"/> 
            <glyph glyph-name="|" unicode="&#x7C;" horiz-adv-x="100" d=" M59,-80 L59,790 L100,790 L100,-80"/> 
            <glyph glyph-name="}" unicode="&#x7D;" horiz-adv-x="250" d=" M62,710 Q99,710 125,706 Q151,702 177,690.5 Q203,679 216.5,653 Q230,627 230,587 Q230,546 215,472.5 Q200,399 200,372 Q200,338 250,338 L250,292 Q200,292 200,258 Q200,231 215,157.5 Q230,84 230,43 Q230,3 216.5,-23 Q203,-49 177,-60.5 Q151,-72 125,-76 Q99,-80 62,-80 L62,-34 Q83,-34 94,-33.5 Q105,-33 125,-28.5 Q145,-24 155,-15 Q165,-6 173.5,12 Q182,30 182,56 Q182,91 167.5,160 Q153,229 153,258 Q153,315 189,315 Q153,315 153,372 Q153,401 167.5,470 Q182,539 182,574 Q182,600 173.5,618 Q165,636 155,645 Q145,654 125,658.5 Q105,663 94,663.5 Q83,664 62,664"/> 
            <glyph glyph-name="~" unicode="&#x7E;" horiz-adv-x="476" d=" M100,223 Q102,260 127,287 Q152,314 198,314 Q237,314 288,275.5 Q339,237 370,237 Q401,237 417.5,253 Q434,269 434,292 L476,287 Q474,250 449,223 Q424,196 378,196 Q339,196 288,234 Q237,272 206,272 Q176,272 159.5,255.5 Q143,239 143,217"/> 
            <glyph glyph-name="¡" unicode="&#xA1;" horiz-adv-x="142" d=" M91,480 Q121,480 131.5,469.5 Q142,459 142,445 Q142,430 131.5,419.5 Q121,409 106,409 Q91,409 81,419.5 Q71,430 71,445 Q71,459 91,480 M83,286 L128,286 L130,-240 L81,-240"/> 
            <glyph glyph-name="¢" unicode="&#xA2;" horiz-adv-x="530" d=" M369,470 L368,470 L368,36 L369,36 Q460,36 530,109 L530,59 Q466,-8 368,-10 L368,-72 L345,-72 L345,-9 Q241,-1 170.5,74.5 Q100,150 100,254 Q100,357 171,432.5 Q242,508 345,515 L345,578 L368,578 L368,516 Q466,514 530,447 L530,397 Q460,470 369,470 M345,37 L345,469 Q263,460 206.5,398.5 Q150,337 150,254 Q150,170 206.5,108 Q263,46 345,37"/> 
            <glyph glyph-name="£" unicode="&#xA3;" horiz-adv-x="567" d=" M448,36 Q511,36 567,70 L567,22 Q513,-10 448,-10 Q404,-10 333,10 Q262,30 220,30 Q157,30 100,-4 L100,45 Q156,76 220,76 Q247,76 275,71 Q274,150 259.5,198 Q245,246 213,288 L100,288 L100,311 L193,311 Q147,367 123.5,415.5 Q100,464 100,521 Q100,606 162,663 Q224,720 321,720 Q422,720 479.5,654 Q537,588 537,486 L489,486 Q489,570 444.5,622 Q400,674 319,674 Q245,674 196.5,630 Q148,586 148,519 Q148,467 172,423.5 Q196,380 248,316 Q249,314 252,311 L444,311 L444,288 L269,288 Q323,206 323,59 Q415,36 448,36"/> 
            <glyph glyph-name="¤" unicode="&#xA4;" horiz-adv-x="464" d=" M412,420 Q454,372 452.5,308.5 Q451,245 407,199 L464,142 L447,125 L389,182 Q343,145 284,146.5 Q225,148 179,187 L118,125 L100,142 L162,204 Q122,249 121,308.5 Q120,368 157,414 L100,472 L118,488 L173,432 Q219,476 283,477.5 Q347,479 395,437 L447,488 L464,472 M160,260 Q236,186 287,186 Q338,186 376,223 Q414,260 414,312 Q414,364 376,401 Q338,438 287,438 Q236,438 198,401 Q160,364 160,260"/> 
            <glyph glyph-name="¥" unicode="&#xA5;" horiz-adv-x="647" d=" M397,306 L397,261 L601,261 L601,238 L397,238 L397,191 L601,191 L601,168 L397,168 L397,0 L349,0 L349,168 L146,168 L146,191 L349,191 L349,238 L146,238 L146,261 L349,261 L349,306 L100,710 L155,710 L373,357 L592,710 L647,710"/> 
            <glyph glyph-name="¦" unicode="&#xA6;" horiz-adv-x="100" d=" M59,500 L59,790 L100,790 L100,500 M59,-80 L59,210 L100,210 L100,-80"/> 
            <glyph glyph-name="§" unicode="&#xA7;" horiz-adv-x="428" d=" M301,233 Q414,191 414,112 Q414,57 373.5,23.5 Q333,-10 269,-10 Q197,-10 156.5,28.5 Q116,67 110,126 L151,126 Q165,31 269,31 Q313,31 343.5,53 Q374,75 374,113 Q374,177 248,213 Q247,213 228.5,218.5 Q210,224 207,225 Q204,226 187,232 Q170,238 165,241.5 Q160,245 146,252 Q132,259 127,265 Q122,271 112.5,280.5 Q103,290 99.5,299.5 Q96,309 93,321.5 Q90,334 90,348 Q90,392 124,427.5 Q158,463 214,477 Q105,520 105,599 Q105,653 146.5,686.5 Q188,720 251,720 Q322,720 362,681.5 Q402,643 409,585 L369,585 Q355,679 251,679 Q207,679 176.5,656.5 Q146,634 146,595 Q146,530 267,498 Q352,474 383,451 Q427,417 428,362 Q428,318 392.5,282 Q357,246 301,233 M273,452 Q212,452 171.5,421.5 Q131,391 131,350 Q131,288 208,262 Q223,258 244,258 Q306,258 346.5,288.5 Q387,319 387,359 Q387,422 302,450 Q284,452 273,452"/> 
            <glyph glyph-name="¨" unicode="&#xA8;" horiz-adv-x="316" d=" M135,609 Q121,609 110.5,619 Q100,629 100,644 Q100,659 110.5,669 Q121,679 135,679 Q150,679 160.5,669 Q171,659 171,644 Q171,629 160.5,619 Q150,609 135,609 M280,609 Q266,609 255.5,619 Q245,629 245,644 Q245,659 255.5,669 Q266,679 280,679 Q295,679 305.5,669 Q316,659 316,644 Q316,629 305.5,619 Q295,609 280,609"/> 
            <glyph glyph-name="©" unicode="&#xA9;" horiz-adv-x="870" d=" M484,-10 Q325,-10 212.5,102.5 Q100,215 100,375 Q100,535 212.5,647.5 Q325,760 484,760 Q644,760 757,647.5 Q870,535 870,375 Q870,215 757,102.5 Q644,-10 484,-10 M342,31 Q628,31 728.5,131.5 Q829,232 829,375 Q829,518 728.5,618.5 Q628,719 485,719 Q342,719 241,618.5 Q140,518 140,375 Q140,232 342,31 M635,527 Q569,586 486,586 Q399,586 336,524.5 Q273,463 273,376 Q273,287 335.5,225.5 Q398,164 486,164 Q569,164 635,223 L653,186 Q579,121 482,121 Q379,121 303.5,195 Q228,269 228,376 Q228,482 303.5,555.5 Q379,629 482,629 Q579,629 653,564"/> 
            <glyph glyph-name="«" unicode="&#xAB;" horiz-adv-x="396" d=" M278,395 L155,237 L278,79 L223,79 L100,237 L223,395 M396,395 L273,237 L396,79 L341,79 L218,237 L341,395"/> 
            <glyph glyph-name="¬" unicode="&#xAC;" horiz-adv-x="428" d=" M100,315 L428,315 L428,184 L382,184 L382,269 L100,269"/> 
            <glyph glyph-name="®" unicode="&#xAE;" horiz-adv-x="870" d=" M484,759 Q644,759 757,646.5 Q870,534 870,374 Q870,214 757,101.5 Q644,-11 484,-11 Q325,-11 212.5,101.5 Q100,214 100,374 Q100,534 212.5,646.5 Q325,759 484,759 M342,30 Q628,30 728.5,131 Q829,232 829,374 Q829,517 728.5,618 Q628,719 485,719 Q342,719 241,618 Q140,517 140,374 Q140,231 342,30 M635,457 Q635,404 607.5,370 Q580,336 534,326 L635,173 L587,173 L491,322 L404,322 L404,173 L363,173 L363,592 L497,592 Q558,592 596.5,556.5 Q635,521 635,457 M497,363 Q541,363 568,386.5 Q595,410 595,457 Q595,504 568,528 Q541,552 497,552 L404,552 L404,363"/> 
            <glyph glyph-name="¯" unicode="&#xAF;" horiz-adv-x="303" d=" M100,671 L303,671 L303,625 L100,625"/> 
            <glyph glyph-name="°" unicode="&#xB0;" horiz-adv-x="410" d=" M314,390 Q176,390 128,438 Q80,486 80,555 Q80,624 128,672 Q176,720 245,720 Q314,720 362,672 Q410,624 410,555 Q410,486 314,390 M192,429 Q298,429 334.5,465.5 Q371,502 371,555 Q371,608 334.5,644.5 Q298,681 245,681 Q192,681 155.5,644.5 Q119,608 119,555 Q119,502 192,429"/> 
            <glyph glyph-name="±" unicode="&#xB1;" horiz-adv-x="428" d=" M287,360 L428,360 L428,314 L287,314 L287,173 L241,173 L241,314 L100,314 L100,360 L241,360 L241,501 L287,501 M100,76 L100,122 L428,122 L428,76"/> 
            <glyph glyph-name="´" unicode="&#xB4;" horiz-adv-x="242" d=" M186,716 L242,716 L141,578 L100,578"/> 
            <glyph glyph-name="¶" unicode="&#xB6;" horiz-adv-x="495" d=" M100,381 Q100,595 167,652.5 Q234,710 342,710 L382,710 L382,0 L342,0 L342,267 Q234,267 100,381 M454,710 L495,710 L495,0 L454,0"/> 
            <glyph glyph-name="·" unicode="&#xB7;" horiz-adv-x="101" d=" M65,217 Q51,217 40.5,227 Q30,237 30,252 Q30,267 40.5,277 Q51,287 65,287 Q80,287 90.5,277 Q101,267 101,252 Q101,237 90.5,227 Q80,217 65,217"/> 
            <glyph glyph-name="¸" unicode="&#xB8;" horiz-adv-x="248" d=" M168,-49 Q203,-51 225.5,-66.5 Q248,-82 248,-109 Q248,-183 100,-183 L111,-153 Q215,-153 215,-110 Q215,-78 154,-76 L126,-77 L153,0 L191,0"/> 
            <glyph glyph-name="»" unicode="&#xBB;" horiz-adv-x="359" d=" M118,395 L241,237 L118,79 L63,79 L186,237 L63,395 M236,395 L359,237 L236,79 L181,79 L304,237 L181,395"/> 
            <glyph glyph-name="¿" unicode="&#xBF;" horiz-adv-x="458" d=" M258,409 Q243,409 232.5,419.5 Q222,430 222,445 Q222,459 232.5,469.5 Q243,480 258,480 Q272,480 282.5,469.5 Q293,459 293,445 Q293,430 282.5,419.5 Q272,409 258,409 M410,-35 L458,-35 Q458,-133 397,-191.5 Q336,-250 249,-250 Q156,-250 102.5,-197 Q49,-144 49,-72 Q49,6 100,57 Q151,108 234,118 L235,286 L280,286 L282,82 L275,82 Q194,82 146,43 Q98,4 98,-67 Q98,-125 138.5,-164.5 Q179,-204 248,-204 Q315,-204 362.5,-158.5 Q410,-113 410,-35"/> 
            <glyph glyph-name="À" unicode="&#xC0;" horiz-adv-x="645" d=" M383,818 L342,818 L241,956 L297,956 M595,0 L525,194 L200,194 L130,0 L80,0 L336,710 L389,710 L645,0 M217,240 L509,240 L363,645"/> 
            <glyph glyph-name="Á" unicode="&#xC1;" horiz-adv-x="645" d=" M485,956 L384,818 L343,818 L429,956 M595,0 L525,194 L200,194 L130,0 L80,0 L336,710 L389,710 L645,0 M217,240 L509,240 L363,645"/> 
            <glyph glyph-name="Â" unicode="&#xC2;" horiz-adv-x="645" d=" M364,927 L286,818 L238,818 L342,956 L386,956 L490,818 L442,818 M595,0 L525,194 L200,194 L130,0 L80,0 L336,710 L389,710 L645,0 M217,240 L509,240 L363,645"/> 
            <glyph glyph-name="Ã" unicode="&#xC3;" horiz-adv-x="645" d=" M281,904 Q251,904 234.5,887.5 Q218,871 218,849 L175,855 Q177,892 202,919 Q227,946 273,946 Q312,946 363,907.5 Q414,869 445,869 Q476,869 492.5,885 Q509,901 509,924 L551,919 Q549,882 524,855 Q499,828 453,828 Q414,828 363,866 Q312,904 281,904 M595,0 L525,194 L200,194 L130,0 L80,0 L336,710 L389,710 L645,0 M217,240 L509,240 L363,645"/> 
            <glyph glyph-name="Ä" unicode="&#xC4;" horiz-adv-x="645" d=" M290,849 Q276,849 265.5,859.5 Q255,870 255,884 Q255,899 265.5,909.5 Q276,920 290,920 Q305,920 315.5,909.5 Q326,899 326,884 Q326,870 315.5,859.5 Q305,849 290,849 M435,849 Q421,849 410.5,859.5 Q400,870 400,884 Q400,899 410.5,909.5 Q421,920 435,920 Q450,920 460.5,909.5 Q471,899 471,884 Q471,870 460.5,859.5 Q450,849 435,849 M595,0 L525,194 L200,194 L130,0 L80,0 L336,710 L389,710 L645,0 M217,240 L509,240 L363,645"/> 
            <glyph glyph-name="Å" unicode="&#xC5;" horiz-adv-x="645" d=" M392,826 Q334,826 313.5,846.5 Q293,867 293,896 Q293,925 313.5,945.5 Q334,966 363,966 Q392,966 412,945.5 Q432,925 432,896 Q432,867 392,826 M380,936 Q346,936 334,924.5 Q322,913 322,896 Q322,879 334,867.5 Q346,856 363,856 Q380,856 391.5,868 Q403,880 403,896 Q403,912 380,936 M595,0 L525,194 L200,194 L130,0 L80,0 L336,710 L389,710 L645,0 M217,240 L509,240 L363,645"/> 
            <glyph glyph-name="Æ" unicode="&#xC6;" horiz-adv-x="918" d=" M918,664 L603,664 L603,395 L844,395 L844,349 L603,349 L603,46 L918,46 L918,0 L555,0 L555,195 L243,195 L133,0 L80,0 L481,710 L918,710 M555,664 L508,664 L269,241 L555,241"/> 
            <glyph glyph-name="Ç" unicode="&#xC7;" horiz-adv-x="654" d=" M448,674 Q320,674 229,581 Q138,488 138,355 Q138,222 229,129 Q320,36 448,36 Q568,36 654,113 L654,62 Q577,-7 454,-10 L436,-49 Q471,-51 493.5,-66.5 Q516,-82 516,-109 Q516,-183 368,-183 L379,-153 Q483,-153 483,-110 Q483,-78 422,-76 L394,-77 L418,-9 Q278,1 184,105.5 Q90,210 90,355 Q90,507 192,613.5 Q294,720 444,720 Q574,720 654,648 L654,597 Q568,674 448,674"/> 
            <glyph glyph-name="È" unicode="&#xC8;" horiz-adv-x="441" d=" M279,818 L238,818 L137,956 L193,956 M441,664 L126,664 L126,395 L367,395 L367,349 L126,349 L126,46 L441,46 L441,0 L78,0 L78,710 L441,710"/> 
            <glyph glyph-name="É" unicode="&#xC9;" horiz-adv-x="441" d=" M380,956 L279,818 L238,818 L324,956 M441,664 L126,664 L126,395 L367,395 L367,349 L126,349 L126,46 L441,46 L441,0 L78,0 L78,710 L441,710"/> 
            <glyph glyph-name="Ê" unicode="&#xCA;" horiz-adv-x="441" d=" M259,927 L181,818 L133,818 L237,956 L281,956 L385,818 L337,818 M441,664 L126,664 L126,395 L367,395 L367,349 L126,349 L126,46 L441,46 L441,0 L78,0 L78,710 L441,710"/> 
            <glyph glyph-name="Ë" unicode="&#xCB;" horiz-adv-x="441" d=" M186,849 Q172,849 161.5,859.5 Q151,870 151,884 Q151,899 161.5,909.5 Q172,920 186,920 Q201,920 211.5,909.5 Q222,899 222,884 Q222,870 211.5,859.5 Q201,849 186,849 M331,849 Q317,849 306.5,859.5 Q296,870 296,884 Q296,899 306.5,909.5 Q317,920 331,920 Q346,920 356.5,909.5 Q367,899 367,884 Q367,870 356.5,859.5 Q346,849 331,849 M441,664 L126,664 L126,395 L367,395 L367,349 L126,349 L126,46 L441,46 L441,0 L78,0 L78,710 L441,710"/> 
            <glyph glyph-name="Ì" unicode="&#xCC;" horiz-adv-x="128" d=" M38,956 L124,818 L83,818 L-18,956 M80,0 L80,710 L128,710 L128,0"/> 
            <glyph glyph-name="Í" unicode="&#xCD;" horiz-adv-x="226" d=" M170,956 L226,956 L125,818 L84,818 M80,0 L80,710 L128,710 L128,0"/> 
            <glyph glyph-name="Î" unicode="&#xCE;" horiz-adv-x="231" d=" M127,956 L231,818 L183,818 L105,927 L27,818 L-21,818 L83,956 M80,0 L80,710 L128,710 L128,0"/> 
            <glyph glyph-name="Ï" unicode="&#xCF;" horiz-adv-x="212" d=" M31,849 Q17,849 6.5,859.5 Q-4,870 -4,884 Q-4,899 6.5,909.5 Q17,920 31,920 Q46,920 56.5,909.5 Q67,899 67,884 Q67,870 56.5,859.5 Q46,849 31,849 M176,849 Q162,849 151.5,859.5 Q141,870 141,884 Q141,899 151.5,909.5 Q162,920 176,920 Q191,920 201.5,909.5 Q212,899 212,884 Q212,870 201.5,859.5 Q191,849 176,849 M80,0 L80,710 L128,710 L128,0"/> 
            <glyph glyph-name="Ð" unicode="&#xD0;" horiz-adv-x="624" d=" M292,710 Q441,710 532.5,608.5 Q624,507 624,355 Q624,203 532.5,101.5 Q441,0 292,0 L78,0 L78,332 L-29,332 L-29,378 L78,378 L78,710 M292,46 Q417,46 496.5,133 Q576,220 576,355 Q576,490 496.5,577 Q417,664 292,664 L126,664 L126,378 L299,378 L299,332 L126,332 L126,46"/> 
            <glyph glyph-name="Ñ" unicode="&#xD1;" horiz-adv-x="621" d=" M277,904 Q247,904 230.5,887.5 Q214,871 214,849 L171,855 Q173,892 198,919 Q223,946 269,946 Q308,946 359,907.5 Q410,869 441,869 Q472,869 488.5,885 Q505,901 505,924 L547,919 Q545,882 520,855 Q495,828 449,828 Q410,828 359,866 Q308,904 277,904 M573,710 L621,710 L621,0 L573,0 L128,628 L128,0 L80,0 L80,710 L128,710 L573,82"/> 
            <glyph glyph-name="Ò" unicode="&#xD2;" horiz-adv-x="801" d=" M379,956 L465,818 L424,818 L323,956 M595,-10 Q295,-10 192.5,97 Q90,204 90,355 Q90,506 192.5,613 Q295,720 445,720 Q595,720 698,613 Q801,506 801,355 Q801,204 595,-10 M317,36 Q573,36 662.5,130 Q752,224 752,355 Q752,486 662.5,580 Q573,674 445,674 Q317,674 227.5,580 Q138,486 138,355 Q138,224 317,36"/> 
            <glyph glyph-name="Ó" unicode="&#xD3;" horiz-adv-x="801" d=" M511,956 L567,956 L466,818 L425,818 M595,-10 Q295,-10 192.5,97 Q90,204 90,355 Q90,506 192.5,613 Q295,720 445,720 Q595,720 698,613 Q801,506 801,355 Q801,204 595,-10 M317,36 Q573,36 662.5,130 Q752,224 752,355 Q752,486 662.5,580 Q573,674 445,674 Q317,674 227.5,580 Q138,486 138,355 Q138,224 317,36"/> 
            <glyph glyph-name="Ô" unicode="&#xD4;" horiz-adv-x="801" d=" M446,927 L368,818 L320,818 L424,956 L468,956 L572,818 L524,818 M295,720 Q595,720 698,613 Q801,506 801,355 Q801,204 698,97 Q595,-10 445,-10 Q295,-10 192.5,97 Q90,204 90,355 Q90,506 295,720 M317,36 Q573,36 662.5,130 Q752,224 752,355 Q752,486 662.5,580 Q573,674 445,674 Q317,674 227.5,580 Q138,486 138,355 Q138,224 317,36"/> 
            <glyph glyph-name="Õ" unicode="&#xD5;" horiz-adv-x="801" d=" M257,855 Q259,892 284,919 Q309,946 355,946 Q394,946 445,907.5 Q496,869 527,869 Q558,869 574.5,885 Q591,901 591,924 L633,919 Q631,882 606,855 Q581,828 535,828 Q496,828 445,866 Q394,904 363,904 Q333,904 316.5,887.5 Q300,871 300,849 M595,-10 Q295,-10 192.5,97 Q90,204 90,355 Q90,506 192.5,613 Q295,720 445,720 Q595,720 698,613 Q801,506 801,355 Q801,204 595,-10 M317,36 Q573,36 662.5,130 Q752,224 752,355 Q752,486 662.5,580 Q573,674 445,674 Q317,674 227.5,580 Q138,486 138,355 Q138,224 317,36"/> 
            <glyph glyph-name="Ö" unicode="&#xD6;" horiz-adv-x="801" d=" M372,849 Q358,849 347.5,859.5 Q337,870 337,884 Q337,899 347.5,909.5 Q358,920 372,920 Q387,920 397.5,909.5 Q408,899 408,884 Q408,870 397.5,859.5 Q387,849 372,849 M517,849 Q503,849 492.5,859.5 Q482,870 482,884 Q482,899 492.5,909.5 Q503,920 517,920 Q532,920 542.5,909.5 Q553,899 553,884 Q553,870 542.5,859.5 Q532,849 517,849 M595,-10 Q295,-10 192.5,97 Q90,204 90,355 Q90,506 192.5,613 Q295,720 445,720 Q595,720 698,613 Q801,506 801,355 Q801,204 595,-10 M317,36 Q573,36 662.5,130 Q752,224 752,355 Q752,486 662.5,580 Q573,674 445,674 Q317,674 227.5,580 Q138,486 138,355 Q138,224 317,36"/> 
            <glyph glyph-name="×" unicode="&#xD7;" horiz-adv-x="361" d=" M361,389 L261,289 L361,188 L329,156 L229,257 L129,157 L97,189 L197,289 L97,388 L129,420 L229,321 L329,421"/> 
            <glyph glyph-name="Ø" unicode="&#xD8;" horiz-adv-x="801" d=" M672,638 Q732,586 766.5,512 Q801,438 801,355 Q801,204 698,97 Q595,-10 445,-10 Q328,-10 235,59 L160,-40 L131,-40 L217,74 Q157,125 123.5,198.5 Q90,272 90,355 Q90,506 192.5,613 Q295,720 445,720 Q563,720 653,652 L727,750 L757,750 M138,355 Q138,284 167,220.5 Q196,157 246,112 L624,614 Q543,674 445,674 Q317,674 227.5,580 Q138,486 138,355 M445,36 Q573,36 662.5,130 Q752,224 752,355 Q752,427 723,490.5 Q694,554 643,599 L264,98 Q345,36 445,36"/> 
            <glyph glyph-name="Ù" unicode="&#xD9;" horiz-adv-x="609" d=" M278,956 L364,818 L323,818 L222,956 M609,279 Q609,136 537.5,63 Q466,-10 344,-10 Q221,-10 149.5,63 Q78,136 78,279 L78,710 L126,710 L126,279 Q126,155 185,95.5 Q244,36 344,36 Q443,36 502,95.5 Q561,155 561,279 L561,710 L609,710"/> 
            <glyph glyph-name="Ú" unicode="&#xDA;" horiz-adv-x="609" d=" M409,956 L465,956 L364,818 L323,818 M609,279 Q609,136 537.5,63 Q466,-10 344,-10 Q221,-10 149.5,63 Q78,136 78,279 L78,710 L126,710 L126,279 Q126,155 185,95.5 Q244,36 344,36 Q443,36 502,95.5 Q561,155 561,279 L561,710 L609,710"/> 
            <glyph glyph-name="Û" unicode="&#xDB;" horiz-adv-x="609" d=" M344,927 L266,818 L218,818 L322,956 L366,956 L470,818 L422,818 M561,710 L609,710 L609,279 Q609,136 537.5,63 Q466,-10 344,-10 Q221,-10 149.5,63 Q78,136 78,279 L78,710 L126,710 L126,279 Q126,155 185,95.5 Q244,36 344,36 Q443,36 502,95.5 Q561,155 561,279"/> 
            <glyph glyph-name="Ü" unicode="&#xDC;" horiz-adv-x="609" d=" M271,849 Q257,849 246.5,859.5 Q236,870 236,884 Q236,899 246.5,909.5 Q257,920 271,920 Q286,920 296.5,909.5 Q307,899 307,884 Q307,870 296.5,859.5 Q286,849 271,849 M416,849 Q402,849 391.5,859.5 Q381,870 381,884 Q381,899 391.5,909.5 Q402,920 416,920 Q431,920 441.5,909.5 Q452,899 452,884 Q452,870 441.5,859.5 Q431,849 416,849 M609,279 Q609,136 537.5,63 Q466,-10 344,-10 Q221,-10 149.5,63 Q78,136 78,279 L78,710 L126,710 L126,279 Q126,155 185,95.5 Q244,36 344,36 Q443,36 502,95.5 Q561,155 561,279 L561,710 L609,710"/> 
            <glyph glyph-name="Ý" unicode="&#xDD;" horiz-adv-x="617" d=" M465,956 L364,818 L323,818 L409,956 M562,710 L617,710 L367,306 L367,0 L319,0 L319,306 L70,710 L125,710 L343,357"/> 
            <glyph glyph-name="Þ" unicode="&#xDE;" horiz-adv-x="520" d=" M276,582 Q384,582 452,524 Q520,466 520,357 Q520,249 452,191 Q384,133 276,133 L118,133 L118,0 L70,0 L70,718 L118,718 L118,582 M276,179 Q365,179 418.5,223.5 Q472,268 472,357 Q472,446 418.5,491 Q365,536 276,536 L118,536 L118,179"/> 
            <glyph glyph-name="ß" unicode="&#xDF;" horiz-adv-x="546" d=" M404,405 Q467,381 506.5,328.5 Q546,276 546,202 Q546,115 495,56 Q444,-3 346,-3 Q269,-3 208,40 L208,89 Q269,43 341,43 Q419,43 458.5,88.5 Q498,134 498,204 Q498,285 445,331.5 Q392,378 314,378 L287,378 L287,421 L314,421 Q354,421 379,441.5 Q404,462 411,485 Q418,508 418,533 Q418,589 382,631.5 Q346,674 284,674 Q215,674 176.5,621 Q138,568 138,483 L138,0 L90,0 L90,483 Q90,585 140,652.5 Q190,720 285,720 Q369,720 417.5,663.5 Q466,607 466,537 Q466,502 451,465 Q436,428 404,405"/> 
            <glyph glyph-name="à" unicode="&#xE0;" horiz-adv-x="626" d=" M292,752 L378,614 L337,614 L236,752 M90,254 Q90,362 166.5,439 Q243,516 351,516 Q427,516 488,475.5 Q549,435 577,370 L579,506 L626,506 L626,0 L579,0 L577,137 Q550,71 488.5,30.5 Q427,-10 351,-10 Q242,-10 166,67 Q90,144 90,254 M138,254 Q138,164 202,100 Q266,36 357,36 Q447,36 510.5,100 Q574,164 574,254 Q574,343 510.5,406.5 Q447,470 357,470 Q266,470 202,406.5 Q138,343 138,254"/> 
            <glyph glyph-name="á" unicode="&#xE1;" horiz-adv-x="626" d=" M424,752 L480,752 L379,614 L338,614 M90,254 Q90,362 166.5,439 Q243,516 351,516 Q427,516 488,475.5 Q549,435 577,370 L579,506 L626,506 L626,0 L579,0 L577,137 Q550,71 488.5,30.5 Q427,-10 351,-10 Q242,-10 166,67 Q90,144 90,254 M138,254 Q138,164 202,100 Q266,36 357,36 Q447,36 510.5,100 Q574,164 574,254 Q574,343 510.5,406.5 Q447,470 357,470 Q266,470 202,406.5 Q138,343 138,254"/> 
            <glyph glyph-name="â" unicode="&#xE2;" horiz-adv-x="626" d=" M359,723 L281,614 L233,614 L337,752 L381,752 L485,614 L437,614 M579,506 L626,506 L626,0 L579,0 L577,137 Q550,71 488.5,30.5 Q427,-10 351,-10 Q242,-10 166,67 Q90,144 90,254 Q90,362 166.5,439 Q243,516 351,516 Q427,516 488,475.5 Q549,435 577,370 M357,36 Q447,36 510.5,100 Q574,164 574,254 Q574,343 510.5,406.5 Q447,470 357,470 Q266,470 202,406.5 Q138,343 138,254 Q138,164 202,100 Q266,36 357,36"/> 
            <glyph glyph-name="ã" unicode="&#xE3;" horiz-adv-x="626" d=" M170,651 Q172,688 197,715 Q222,742 268,742 Q307,742 358,703.5 Q409,665 440,665 Q471,665 487.5,681 Q504,697 504,720 L546,715 Q544,678 519,651 Q494,624 448,624 Q409,624 358,662 Q307,700 276,700 Q246,700 229.5,683.5 Q213,667 213,645 M90,254 Q90,362 166.5,439 Q243,516 351,516 Q427,516 488,475.5 Q549,435 577,370 L579,506 L626,506 L626,0 L579,0 L577,137 Q550,71 488.5,30.5 Q427,-10 351,-10 Q242,-10 166,67 Q90,144 90,254 M138,254 Q138,164 202,100 Q266,36 357,36 Q447,36 510.5,100 Q574,164 574,254 Q574,343 510.5,406.5 Q447,470 357,470 Q266,470 202,406.5 Q138,343 138,254"/> 
            <glyph glyph-name="ä" unicode="&#xE4;" horiz-adv-x="626" d=" M285,645 Q271,645 260.5,655.5 Q250,666 250,680 Q250,695 260.5,705.5 Q271,716 285,716 Q300,716 310.5,705.5 Q321,695 321,680 Q321,666 310.5,655.5 Q300,645 285,645 M430,645 Q416,645 405.5,655.5 Q395,666 395,680 Q395,695 405.5,705.5 Q416,716 430,716 Q445,716 455.5,705.5 Q466,695 466,680 Q466,666 455.5,655.5 Q445,645 430,645 M90,254 Q90,362 166.5,439 Q243,516 351,516 Q427,516 488,475.5 Q549,435 577,370 L579,506 L626,506 L626,0 L579,0 L577,137 Q550,71 488.5,30.5 Q427,-10 351,-10 Q242,-10 166,67 Q90,144 90,254 M138,254 Q138,164 202,100 Q266,36 357,36 Q447,36 510.5,100 Q574,164 574,254 Q574,343 510.5,406.5 Q447,470 357,470 Q266,470 202,406.5 Q138,343 138,254"/> 
            <glyph glyph-name="å" unicode="&#xE5;" horiz-adv-x="626" d=" M387,622 Q329,622 308.5,642.5 Q288,663 288,692 Q288,721 308.5,741.5 Q329,762 358,762 Q387,762 407,741.5 Q427,721 427,692 Q427,663 387,622 M358,652 Q374,652 386,664 Q398,676 398,692 Q398,708 386,720 Q374,732 358,732 Q341,732 329,720.5 Q317,709 317,692 Q317,675 329,663.5 Q341,652 358,652 M90,254 Q90,362 166.5,439 Q243,516 351,516 Q427,516 488,475.5 Q549,435 577,370 L579,506 L626,506 L626,0 L579,0 L577,137 Q550,71 488.5,30.5 Q427,-10 351,-10 Q242,-10 166,67 Q90,144 90,254 M138,254 Q138,164 202,100 Q266,36 357,36 Q447,36 510.5,100 Q574,164 574,254 Q574,343 510.5,406.5 Q447,470 357,470 Q266,470 202,406.5 Q138,343 138,254"/> 
            <glyph glyph-name="æ" unicode="&#xE6;" horiz-adv-x="1102" d=" M1102,249 L1102,238 L644,238 Q646,147 705.5,90.5 Q765,34 856,34 Q926,34 973,67 Q1020,100 1041,146 L1084,139 Q1064,79 1003.5,34.5 Q943,-10 856,-10 Q779,-10 718.5,26.5 Q658,63 626,126 L626,0 L579,0 L577,137 Q550,71 488.5,30.5 Q427,-10 351,-10 Q242,-10 166,67 Q90,144 90,254 Q90,362 166.5,439 Q243,516 351,516 Q427,516 488,475.5 Q549,435 577,370 L579,506 L626,506 L626,380 Q658,442 716.5,479 Q775,516 849,516 Q961,516 1031.5,437.5 Q1102,359 1102,249 M849,472 Q763,472 705,415 Q647,358 644,275 L1054,275 Q1048,356 992,414 Q936,472 849,472 M357,36 Q447,36 510.5,100 Q574,164 574,254 Q574,343 510.5,406.5 Q447,470 357,470 Q266,470 202,406.5 Q138,343 138,254 Q138,164 202,100 Q266,36 357,36"/> 
            <glyph glyph-name="ç" unicode="&#xE7;" horiz-adv-x="520" d=" M359,470 Q270,470 205,406.5 Q140,343 140,254 Q140,163 205,99.5 Q270,36 359,36 Q450,36 520,109 L520,59 Q454,-10 354,-10 L351,-10 L333,-49 Q368,-51 390.5,-66.5 Q413,-82 413,-109 Q413,-183 265,-183 L276,-153 Q380,-153 380,-110 Q380,-78 319,-76 L291,-77 L315,-7 Q219,7 154.5,81 Q90,155 90,254 Q90,362 167,439 Q244,516 354,516 Q454,516 520,447 L520,397 Q450,470 359,470"/> 
            <glyph glyph-name="è" unicode="&#xE8;" horiz-adv-x="596" d=" M363,614 L322,614 L221,752 L277,752 M596,249 L596,238 L138,238 Q141,146 200.5,90 Q260,34 351,34 Q421,34 468,67 Q515,100 535,146 L578,139 Q559,80 498.5,35 Q438,-10 350,-10 Q238,-10 164,64.5 Q90,139 90,256 Q90,364 162,440 Q234,516 343,516 Q456,516 526,437.5 Q596,359 596,249 M343,472 Q257,472 199,415 Q141,358 138,275 L547,275 Q542,357 486,414.5 Q430,472 343,472"/> 
            <glyph glyph-name="é" unicode="&#xE9;" horiz-adv-x="596" d=" M465,752 L364,614 L323,614 L409,752 M596,249 L596,238 L138,238 Q141,146 200.5,90 Q260,34 351,34 Q421,34 468,67 Q515,100 535,146 L578,139 Q559,80 498.5,35 Q438,-10 350,-10 Q238,-10 164,64.5 Q90,139 90,256 Q90,364 162,440 Q234,516 343,516 Q456,516 526,437.5 Q596,359 596,249 M343,472 Q257,472 199,415 Q141,358 138,275 L547,275 Q542,357 486,414.5 Q430,472 343,472"/> 
            <glyph glyph-name="ê" unicode="&#xEA;" horiz-adv-x="596" d=" M344,723 L266,614 L218,614 L322,752 L366,752 L470,614 L422,614 M596,249 L596,238 L138,238 Q141,146 200.5,90 Q260,34 351,34 Q421,34 468,67 Q515,100 535,146 L578,139 Q559,80 498.5,35 Q438,-10 350,-10 Q238,-10 164,64.5 Q90,139 90,256 Q90,364 162,440 Q234,516 343,516 Q456,516 526,437.5 Q596,359 596,249 M343,472 Q257,472 199,415 Q141,358 138,275 L547,275 Q542,357 486,414.5 Q430,472 343,472"/> 
            <glyph glyph-name="ë" unicode="&#xEB;" horiz-adv-x="596" d=" M270,645 Q256,645 245.5,655.5 Q235,666 235,680 Q235,695 245.5,705.5 Q256,716 270,716 Q285,716 295.5,705.5 Q306,695 306,680 Q306,666 295.5,655.5 Q285,645 270,645 M415,645 Q401,645 390.5,655.5 Q380,666 380,680 Q380,695 390.5,705.5 Q401,716 415,716 Q430,716 440.5,705.5 Q451,695 451,680 Q451,666 440.5,655.5 Q430,645 415,645 M596,249 L596,238 L138,238 Q141,146 200.5,90 Q260,34 351,34 Q421,34 468,67 Q515,100 535,146 L578,139 Q559,80 498.5,35 Q438,-10 350,-10 Q238,-10 164,64.5 Q90,139 90,256 Q90,364 162,440 Q234,516 343,516 Q456,516 526,437.5 Q596,359 596,249 M343,472 Q257,472 199,415 Q141,358 138,275 L547,275 Q542,357 486,414.5 Q430,472 343,472"/> 
            <glyph glyph-name="ì" unicode="&#xEC;" horiz-adv-x="108" d=" M18,752 L104,614 L63,614 L-38,752 M108,506 L108,0 L60,0 L60,506"/> 
            <glyph glyph-name="í" unicode="&#xED;" horiz-adv-x="205" d=" M149,752 L205,752 L104,614 L63,614 M108,506 L108,0 L60,0 L60,506"/> 
            <glyph glyph-name="î" unicode="&#xEE;" horiz-adv-x="210" d=" M106,752 L210,614 L162,614 L84,723 L6,614 L-42,614 L62,752 M60,0 L60,506 L108,506 L108,0"/> 
            <glyph glyph-name="ï" unicode="&#xEF;" horiz-adv-x="192" d=" M26,605 Q-4,605 -14,615.5 Q-24,626 -24,640 Q-24,655 -14,665.5 Q-4,676 11,676 Q26,676 36.5,665.5 Q47,655 47,640 Q47,626 26,605 M156,605 Q142,605 131.5,615.5 Q121,626 121,640 Q121,655 131.5,665.5 Q142,676 156,676 Q171,676 181.5,665.5 Q192,655 192,640 Q192,626 181.5,615.5 Q171,605 156,605 M108,506 L108,0 L60,0 L60,506"/> 
            <glyph glyph-name="ð" unicode="&#xF0;" horiz-adv-x="574" d=" M388,626 Q474,564 524,465 Q574,366 574,234 Q574,131 503.5,60.5 Q433,-10 331,-10 Q231,-10 160.5,60 Q90,130 90,228 Q90,326 160.5,396 Q231,466 331,466 Q426,466 497,402 Q455,524 349,596 L226,503 L226,533 L327,609 Q264,647 184,664 L184,710 Q285,693 368,640 L473,719 L473,690 M525,228 L525,238 L522,238 Q522,244 521.5,254 Q521,264 521,269 Q507,334 454,377 Q401,420 331,420 Q251,420 194.5,363.5 Q138,307 138,228 Q138,148 194.5,92 Q251,36 331,36 Q412,36 468.5,92 Q525,148 525,228"/> 
            <glyph glyph-name="ñ" unicode="&#xF1;" horiz-adv-x="537" d=" M229,700 Q199,700 182.5,683.5 Q166,667 166,645 L123,651 Q125,688 150,715 Q175,742 221,742 Q260,742 311,703.5 Q362,665 393,665 Q424,665 440.5,681 Q457,697 457,720 L499,715 Q497,678 472,651 Q447,624 401,624 Q362,624 311,662 Q260,700 229,700 M347,516 Q434,516 485.5,458.5 Q537,401 537,293 L537,0 L489,0 L489,278 Q489,375 446.5,422.5 Q404,470 334,470 Q292,470 257.5,455.5 Q223,441 202,419.5 Q181,398 166,371 Q151,344 145,320.5 Q139,297 138,277 L138,0 L90,0 L90,506 L135,506 L138,397 Q212,516 347,516"/> 
            <glyph glyph-name="ò" unicode="&#xF2;" horiz-adv-x="622" d=" M291,752 L377,614 L336,614 L235,752 M357,-10 Q245,-10 167.5,67 Q90,144 90,254 Q90,362 168,439 Q246,516 357,516 Q468,516 545,439 Q622,362 622,254 Q622,144 545,67 Q468,-10 357,-10 M357,36 Q447,36 510.5,100 Q574,164 574,254 Q574,343 510.5,406.5 Q447,470 357,470 Q266,470 202,406.5 Q138,343 138,254 Q138,164 202,100 Q266,36 357,36"/> 
            <glyph glyph-name="ó" unicode="&#xF3;" horiz-adv-x="622" d=" M423,752 L479,752 L378,614 L337,614 M357,-10 Q245,-10 167.5,67 Q90,144 90,254 Q90,362 168,439 Q246,516 357,516 Q468,516 545,439 Q622,362 622,254 Q622,144 545,67 Q468,-10 357,-10 M357,36 Q447,36 510.5,100 Q574,164 574,254 Q574,343 510.5,406.5 Q447,470 357,470 Q266,470 202,406.5 Q138,343 138,254 Q138,164 202,100 Q266,36 357,36"/> 
            <glyph glyph-name="ô" unicode="&#xF4;" horiz-adv-x="622" d=" M358,723 L280,614 L232,614 L336,752 L380,752 L484,614 L436,614 M246,516 Q468,516 545,439 Q622,362 622,254 Q622,144 545,67 Q468,-10 357,-10 Q245,-10 167.5,67 Q90,144 90,254 Q90,362 246,516 M357,36 Q447,36 510.5,100 Q574,164 574,254 Q574,343 510.5,406.5 Q447,470 357,470 Q266,470 202,406.5 Q138,343 138,254 Q138,164 202,100 Q266,36 357,36"/> 
            <glyph glyph-name="õ" unicode="&#xF5;" horiz-adv-x="622" d=" M169,651 Q171,688 196,715 Q221,742 267,742 Q306,742 357,703.5 Q408,665 439,665 Q470,665 486.5,681 Q503,697 503,720 L545,715 Q543,678 518,651 Q493,624 447,624 Q408,624 357,662 Q306,700 275,700 Q245,700 228.5,683.5 Q212,667 212,645 M357,-10 Q245,-10 167.5,67 Q90,144 90,254 Q90,362 168,439 Q246,516 357,516 Q468,516 545,439 Q622,362 622,254 Q622,144 545,67 Q468,-10 357,-10 M357,36 Q447,36 510.5,100 Q574,164 574,254 Q574,343 510.5,406.5 Q447,470 357,470 Q266,470 202,406.5 Q138,343 138,254 Q138,164 202,100 Q266,36 357,36"/> 
            <glyph glyph-name="ö" unicode="&#xF6;" horiz-adv-x="622" d=" M284,645 Q270,645 259.5,655.5 Q249,666 249,680 Q249,695 259.5,705.5 Q270,716 284,716 Q299,716 309.5,705.5 Q320,695 320,680 Q320,666 309.5,655.5 Q299,645 284,645 M429,645 Q415,645 404.5,655.5 Q394,666 394,680 Q394,695 404.5,705.5 Q415,716 429,716 Q444,716 454.5,705.5 Q465,695 465,680 Q465,666 454.5,655.5 Q444,645 429,645 M357,-10 Q245,-10 167.5,67 Q90,144 90,254 Q90,362 168,439 Q246,516 357,516 Q468,516 545,439 Q622,362 622,254 Q622,144 545,67 Q468,-10 357,-10 M357,36 Q447,36 510.5,100 Q574,164 574,254 Q574,343 510.5,406.5 Q447,470 357,470 Q266,470 202,406.5 Q138,343 138,254 Q138,164 202,100 Q266,36 357,36"/> 
            <glyph glyph-name="÷" unicode="&#xF7;" horiz-adv-x="432" d=" M283,366 Q253,366 243,376 Q233,386 233,401 Q233,416 243,426.5 Q253,437 268,437 Q283,437 293,426.5 Q303,416 303,401 Q303,386 283,366 M104,311 L432,311 L432,265 L104,265 M283,128 Q253,128 243,138.5 Q233,149 233,164 Q233,179 243,189 Q253,199 268,199 Q283,199 293,189 Q303,179 303,164 Q303,149 283,128"/> 
            <glyph glyph-name="ø" unicode="&#xF8;" horiz-adv-x="622" d=" M525,457 Q622,378 622,254 Q622,144 545,67 Q468,-10 357,-10 Q274,-10 206,36 L173,-8 L144,-8 L187,50 Q142,87 116,140.5 Q90,194 90,254 Q90,362 168,439 Q246,516 357,516 Q438,516 506,471 L539,514 L569,514 M138,254 Q138,153 216,88 L478,433 Q422,470 357,470 Q266,470 202,406.5 Q138,343 138,254 M357,36 Q447,36 510,100 Q573,164 573,254 Q573,353 497,419 L235,73 Q291,36 357,36"/> 
            <glyph glyph-name="ù" unicode="&#xF9;" horiz-adv-x="529" d=" M334,614 L293,614 L192,752 L248,752 M481,506 L529,506 L529,0 L483,0 L481,109 Q407,-10 272,-10 Q185,-10 133.5,47.5 Q82,105 82,213 L82,506 L130,506 L130,228 Q130,131 172.5,83.5 Q215,36 285,36 Q328,36 363.5,51 Q399,66 420,89 Q441,112 455.5,140 Q470,168 475.5,191.5 Q481,215 481,235"/> 
            <glyph glyph-name="ú" unicode="&#xFA;" horiz-adv-x="529" d=" M436,752 L335,614 L294,614 L380,752 M481,506 L529,506 L529,0 L483,0 L481,109 Q407,-10 272,-10 Q185,-10 133.5,47.5 Q82,105 82,213 L82,506 L130,506 L130,228 Q130,131 172.5,83.5 Q215,36 285,36 Q328,36 363.5,51 Q399,66 420,89 Q441,112 455.5,140 Q470,168 475.5,191.5 Q481,215 481,235"/> 
            <glyph glyph-name="û" unicode="&#xFB;" horiz-adv-x="529" d=" M315,723 L237,614 L189,614 L293,752 L337,752 L441,614 L393,614 M481,506 L529,506 L529,0 L483,0 L481,109 Q407,-10 272,-10 Q185,-10 133.5,47.5 Q82,105 82,213 L82,506 L130,506 L130,228 Q130,131 172.5,83.5 Q215,36 285,36 Q328,36 363.5,51 Q399,66 420,89 Q441,112 455.5,140 Q470,168 475.5,191.5 Q481,215 481,235"/> 
            <glyph glyph-name="ü" unicode="&#xFC;" horiz-adv-x="529" d=" M241,645 Q227,645 216.5,655.5 Q206,666 206,680 Q206,695 216.5,705.5 Q227,716 241,716 Q256,716 266.5,705.5 Q277,695 277,680 Q277,666 266.5,655.5 Q256,645 241,645 M386,645 Q372,645 361.5,655.5 Q351,666 351,680 Q351,695 361.5,705.5 Q372,716 386,716 Q401,716 411.5,705.5 Q422,695 422,680 Q422,666 411.5,655.5 Q401,645 386,645 M481,506 L529,506 L529,0 L483,0 L481,109 Q407,-10 272,-10 Q185,-10 133.5,47.5 Q82,105 82,213 L82,506 L130,506 L130,228 Q130,131 172.5,83.5 Q215,36 285,36 Q328,36 363.5,51 Q399,66 420,89 Q441,112 455.5,140 Q470,168 475.5,191.5 Q481,215 481,235"/> 
            <glyph glyph-name="ý" unicode="&#xFD;" horiz-adv-x="578" d=" M398,752 L454,752 L353,614 L312,614 M80,506 L132,506 L331,61 L526,506 L578,506 L256,-230 L204,-230 L305,1"/> 
            <glyph glyph-name="þ" unicode="&#xFE;" horiz-adv-x="622" d=" M90,-230 L90,750 L138,750 L138,372 Q166,437 226.5,476.5 Q287,516 361,516 Q469,516 545.5,439 Q622,362 622,254 Q622,144 546,67 Q470,-10 361,-10 Q287,-10 226.5,30 Q166,70 138,135 L138,-230 M136,254 Q136,164 199.5,100 Q263,36 353,36 Q444,36 508,100 Q572,164 572,254 Q572,343 508,406.5 Q444,470 353,470 Q263,470 199.5,406.5 Q136,343 136,254"/> 
            <glyph glyph-name="ÿ" unicode="&#xFF;" horiz-adv-x="578" d=" M260,645 Q246,645 235.5,655.5 Q225,666 225,680 Q225,695 235.5,705.5 Q246,716 260,716 Q275,716 285.5,705.5 Q296,695 296,680 Q296,666 285.5,655.5 Q275,645 260,645 M405,645 Q391,645 380.5,655.5 Q370,666 370,680 Q370,695 380.5,705.5 Q391,716 405,716 Q420,716 430.5,705.5 Q441,695 441,680 Q441,666 430.5,655.5 Q420,645 405,645 M80,506 L132,506 L331,61 L526,506 L578,506 L256,-230 L204,-230 L305,1"/> 
            <glyph glyph-name="Ā" unicode="&#x100;" horiz-adv-x="645" d=" M464,911 L464,865 L261,865 L261,911 M595,0 L525,194 L200,194 L130,0 L80,0 L336,710 L389,710 L645,0 M217,240 L509,240 L363,645"/> 
            <glyph glyph-name="ā" unicode="&#x101;" horiz-adv-x="626" d=" M256,707 L459,707 L459,661 L256,661 M90,254 Q90,362 166.5,439 Q243,516 351,516 Q427,516 488,475.5 Q549,435 577,370 L579,506 L626,506 L626,0 L579,0 L577,137 Q550,71 488.5,30.5 Q427,-10 351,-10 Q242,-10 166,67 Q90,144 90,254 M138,254 Q138,164 202,100 Q266,36 357,36 Q447,36 510.5,100 Q574,164 574,254 Q574,343 510.5,406.5 Q447,470 357,470 Q266,470 202,406.5 Q138,343 138,254"/> 
            <glyph glyph-name="Ă" unicode="&#x102;" horiz-adv-x="645" d=" M430,818 Q296,818 254.5,859 Q213,900 213,956 L254,956 Q254,918 281.5,886.5 Q309,855 363,855 Q417,855 445,886.5 Q473,918 473,956 L513,956 Q513,900 430,818 M595,0 L525,194 L200,194 L130,0 L80,0 L336,710 L389,710 L645,0 M217,240 L509,240 L363,645"/> 
            <glyph glyph-name="ă" unicode="&#x103;" horiz-adv-x="626" d=" M508,752 Q508,696 466.5,655 Q425,614 358,614 Q291,614 249.5,655 Q208,696 208,752 L249,752 Q249,714 276.5,682.5 Q304,651 358,651 Q412,651 440,682.5 Q468,714 468,752 M90,254 Q90,362 166.5,439 Q243,516 351,516 Q427,516 488,475.5 Q549,435 577,370 L579,506 L626,506 L626,0 L579,0 L577,137 Q550,71 488.5,30.5 Q427,-10 351,-10 Q242,-10 166,67 Q90,144 90,254 M138,254 Q138,164 202,100 Q266,36 357,36 Q447,36 510.5,100 Q574,164 574,254 Q574,343 510.5,406.5 Q447,470 357,470 Q266,470 202,406.5 Q138,343 138,254"/> 
            <glyph glyph-name="Ą" unicode="&#x104;" horiz-adv-x="707" d=" M639,-103 Q674,-103 707,-76 L707,-119 Q677,-149 632,-149 Q580,-149 566.5,-101 Q553,-53 600,0 L595,0 L525,194 L200,194 L130,0 L80,0 L336,710 L389,710 L645,0 L640,0 Q615,-25 607.5,-49.5 Q600,-74 609,-88.5 Q618,-103 639,-103 M217,240 L509,240 L363,645"/> 
            <glyph glyph-name="ą" unicode="&#x105;" horiz-adv-x="690" d=" M622,-103 Q657,-103 690,-76 L690,-119 Q660,-149 615,-149 Q563,-149 549.5,-101 Q536,-53 583,0 L579,0 L577,137 Q550,71 488.5,30.5 Q427,-10 351,-10 Q242,-10 166,67 Q90,144 90,254 Q90,362 166.5,439 Q243,516 351,516 Q427,516 488,475.5 Q549,435 577,370 L579,506 L626,506 L626,0 L623,0 Q598,-25 590.5,-49.5 Q583,-74 592,-88.5 Q601,-103 622,-103 M357,36 Q447,36 510.5,100 Q574,164 574,254 Q574,343 510.5,406.5 Q447,470 357,470 Q266,470 202,406.5 Q138,343 138,254 Q138,164 202,100 Q266,36 357,36"/> 
            <glyph glyph-name="Ć" unicode="&#x106;" horiz-adv-x="654" d=" M504,956 L560,956 L459,818 L418,818 M654,597 Q568,674 448,674 Q320,674 229,581 Q138,488 138,355 Q138,222 229,129 Q320,36 448,36 Q568,36 654,113 L654,62 Q574,-10 444,-10 Q294,-10 192,96.5 Q90,203 90,355 Q90,507 192,613.5 Q294,720 444,720 Q574,720 654,648"/> 
            <glyph glyph-name="ć" unicode="&#x107;" horiz-adv-x="520" d=" M415,752 L471,752 L370,614 L329,614 M520,397 Q450,470 359,470 Q270,470 205,406.5 Q140,343 140,254 Q140,163 205,99.5 Q270,36 359,36 Q450,36 520,109 L520,59 Q454,-10 354,-10 Q244,-10 167,67.5 Q90,145 90,254 Q90,362 167,439 Q244,516 354,516 Q454,516 520,447"/> 
            <glyph glyph-name="Ċ" unicode="&#x10A;" horiz-adv-x="654" d=" M438,849 Q424,849 413.5,859.5 Q403,870 403,884 Q403,899 413.5,909.5 Q424,920 438,920 Q453,920 463.5,909.5 Q474,899 474,884 Q474,870 463.5,859.5 Q453,849 438,849 M654,597 Q568,674 448,674 Q320,674 229,581 Q138,488 138,355 Q138,222 229,129 Q320,36 448,36 Q568,36 654,113 L654,62 Q574,-10 444,-10 Q294,-10 192,96.5 Q90,203 90,355 Q90,507 192,613.5 Q294,720 444,720 Q574,720 654,648"/> 
            <glyph glyph-name="ċ" unicode="&#x10B;" horiz-adv-x="520" d=" M349,645 Q335,645 324.5,655.5 Q314,666 314,680 Q314,695 324.5,705.5 Q335,716 349,716 Q364,716 374.5,705.5 Q385,695 385,680 Q385,666 374.5,655.5 Q364,645 349,645 M520,397 Q450,470 359,470 Q270,470 205,406.5 Q140,343 140,254 Q140,163 205,99.5 Q270,36 359,36 Q450,36 520,109 L520,59 Q454,-10 354,-10 Q244,-10 167,67.5 Q90,145 90,254 Q90,362 167,439 Q244,516 354,516 Q454,516 520,447"/> 
            <glyph glyph-name="Č" unicode="&#x10C;" horiz-adv-x="654" d=" M414,818 L310,956 L358,956 L436,847 L514,956 L562,956 L458,818 M448,674 Q320,674 229,581 Q138,488 138,355 Q138,222 229,129 Q320,36 448,36 Q568,36 654,113 L654,62 Q574,-10 444,-10 Q294,-10 192,96.5 Q90,203 90,355 Q90,507 192,613.5 Q294,720 444,720 Q574,720 654,648 L654,597 Q568,674 448,674"/> 
            <glyph glyph-name="č" unicode="&#x10D;" horiz-adv-x="520" d=" M325,614 L221,752 L269,752 L347,643 L425,752 L473,752 L369,614 M359,470 Q270,470 205,406.5 Q140,343 140,254 Q140,163 205,99.5 Q270,36 359,36 Q450,36 520,109 L520,59 Q454,-10 354,-10 Q244,-10 167,67.5 Q90,145 90,254 Q90,362 167,439 Q244,516 354,516 Q454,516 520,447 L520,397 Q450,470 359,470"/> 
            <glyph glyph-name="Ď" unicode="&#x10E;" horiz-adv-x="624" d=" M279,818 L175,956 L223,956 L301,847 L379,956 L427,956 L323,818 M292,710 Q441,710 532.5,608.5 Q624,507 624,355 Q624,203 532.5,101.5 Q441,0 292,0 L78,0 L78,710 M292,46 Q417,46 496.5,133 Q576,220 576,355 Q576,490 496.5,577 Q417,664 292,664 L126,664 L126,46"/> 
            <glyph glyph-name="ď" unicode="&#x10F;" horiz-adv-x="760" d=" M90,254 Q90,362 166.5,439 Q243,516 351,516 Q427,516 488,475.5 Q549,435 577,370 L577,750 L626,750 L626,0 L579,0 L577,137 Q550,71 488.5,30.5 Q427,-10 351,-10 Q242,-10 166,67 Q90,144 90,254 M703,718 L760,718 L708,550 L667,550 M138,254 Q138,164 202,100 Q266,36 357,36 Q447,36 510.5,100 Q574,164 574,254 Q574,343 510.5,406.5 Q447,470 357,470 Q266,470 202,406.5 Q138,343 138,254"/> 
            <glyph glyph-name="Đ" unicode="&#x110;" horiz-adv-x="624" d=" M292,710 Q441,710 532.5,608.5 Q624,507 624,355 Q624,203 532.5,101.5 Q441,0 292,0 L78,0 L78,332 L-29,332 L-29,378 L78,378 L78,710 M292,46 Q417,46 496.5,133 Q576,220 576,355 Q576,490 496.5,577 Q417,664 292,664 L126,664 L126,378 L299,378 L299,332 L126,332 L126,46"/> 
            <glyph glyph-name="đ" unicode="&#x111;" horiz-adv-x="686" d=" M686,628 L686,582 L626,582 L626,0 L579,0 L577,137 Q550,71 488.5,30.5 Q427,-10 351,-10 Q242,-10 166,67 Q90,144 90,254 Q90,362 166.5,439 Q243,516 351,516 Q427,516 488,475.5 Q549,435 577,370 L577,582 L358,582 L358,628 L577,628 L577,750 L626,750 L626,628 M357,36 Q447,36 510.5,100 Q574,164 574,254 Q574,343 510.5,406.5 Q447,470 357,470 Q266,470 202,406.5 Q138,343 138,254 Q138,164 202,100 Q266,36 357,36"/> 
            <glyph glyph-name="Ē" unicode="&#x112;" horiz-adv-x="441" d=" M360,911 L360,865 L157,865 L157,911 M441,664 L126,664 L126,395 L367,395 L367,349 L126,349 L126,46 L441,46 L441,0 L78,0 L78,710 L441,710"/> 
            <glyph glyph-name="ē" unicode="&#x113;" horiz-adv-x="596" d=" M444,707 L444,661 L241,661 L241,707 M596,249 L596,238 L138,238 Q141,146 200.5,90 Q260,34 351,34 Q421,34 468,67 Q515,100 535,146 L578,139 Q559,80 498.5,35 Q438,-10 350,-10 Q238,-10 164,64.5 Q90,139 90,256 Q90,364 162,440 Q234,516 343,516 Q456,516 526,437.5 Q596,359 596,249 M343,472 Q257,472 199,415 Q141,358 138,275 L547,275 Q542,357 486,414.5 Q430,472 343,472"/> 
            <glyph glyph-name="Ė" unicode="&#x116;" horiz-adv-x="441" d=" M258,849 Q244,849 233.5,859.5 Q223,870 223,884 Q223,899 233.5,909.5 Q244,920 258,920 Q273,920 283.5,909.5 Q294,899 294,884 Q294,870 283.5,859.5 Q273,849 258,849 M441,664 L126,664 L126,395 L367,395 L367,349 L126,349 L126,46 L441,46 L441,0 L78,0 L78,710 L441,710"/> 
            <glyph glyph-name="ė" unicode="&#x117;" horiz-adv-x="596" d=" M343,645 Q329,645 318.5,655.5 Q308,666 308,680 Q308,695 318.5,705.5 Q329,716 343,716 Q358,716 368.5,705.5 Q379,695 379,680 Q379,666 368.5,655.5 Q358,645 343,645 M596,249 L596,238 L138,238 Q141,146 200.5,90 Q260,34 351,34 Q421,34 468,67 Q515,100 535,146 L578,139 Q559,80 498.5,35 Q438,-10 350,-10 Q238,-10 164,64.5 Q90,139 90,256 Q90,364 162,440 Q234,516 343,516 Q456,516 526,437.5 Q596,359 596,249 M343,472 Q257,472 199,415 Q141,358 138,275 L547,275 Q542,357 486,414.5 Q430,472 343,472"/> 
            <glyph glyph-name="Ę" unicode="&#x118;" horiz-adv-x="441" d=" M441,664 L126,664 L126,395 L367,395 L367,349 L126,349 L126,46 L441,46 L441,0 L338,0 Q313,-25 305.5,-49.5 Q298,-74 307,-88.5 Q316,-103 337,-103 Q372,-103 405,-76 L405,-119 Q375,-149 330,-149 Q278,-149 264.5,-101 Q251,-53 298,0 L78,0 L78,710 L441,710"/> 
            <glyph glyph-name="ę" unicode="&#x119;" horiz-adv-x="596" d=" M596,249 L596,238 L138,238 Q141,146 200.5,90 Q260,34 351,34 Q421,34 468,67 Q515,100 535,146 L578,139 Q559,82 502.5,38 Q446,-6 364,-10 Q333,-47 337.5,-75 Q342,-103 372,-103 Q407,-103 440,-76 L440,-119 Q410,-149 365,-149 Q333,-149 314,-128.5 Q295,-108 297,-75 Q299,-42 325,-9 Q222,-1 156,72 Q90,145 90,256 Q90,364 162,440 Q234,516 343,516 Q456,516 526,437.5 Q596,359 596,249 M343,472 Q257,472 199,415 Q141,358 138,275 L547,275 Q542,357 486,414.5 Q430,472 343,472"/> 
            <glyph glyph-name="Ě" unicode="&#x11A;" horiz-adv-x="441" d=" M235,818 L131,956 L179,956 L257,847 L335,956 L383,956 L279,818 M441,664 L126,664 L126,395 L367,395 L367,349 L126,349 L126,46 L441,46 L441,0 L78,0 L78,710 L441,710"/> 
            <glyph glyph-name="ě" unicode="&#x11B;" horiz-adv-x="596" d=" M319,614 L215,752 L263,752 L341,643 L419,752 L467,752 L363,614 M596,249 L596,238 L138,238 Q141,146 200.5,90 Q260,34 351,34 Q421,34 468,67 Q515,100 535,146 L578,139 Q559,80 498.5,35 Q438,-10 350,-10 Q238,-10 164,64.5 Q90,139 90,256 Q90,364 162,440 Q234,516 343,516 Q456,516 526,437.5 Q596,359 596,249 M343,472 Q257,472 199,415 Q141,358 138,275 L547,275 Q542,357 486,414.5 Q430,472 343,472"/> 
            <glyph glyph-name="Ğ" unicode="&#x11E;" horiz-adv-x="790" d=" M508,818 Q374,818 332.5,859 Q291,900 291,956 L332,956 Q332,918 359.5,886.5 Q387,855 441,855 Q495,855 523,886.5 Q551,918 551,956 L591,956 Q591,900 508,818 M431,366 L790,366 Q790,203 693,96.5 Q596,-10 439,-10 Q288,-10 189,96.5 Q90,203 90,355 Q90,507 190,613.5 Q290,720 443,720 Q620,720 725,569 L688,540 Q593,674 443,674 Q313,674 225.5,581 Q138,488 138,355 Q138,222 224.5,129 Q311,36 439,36 Q563,36 646,116.5 Q729,197 740,319 L431,319"/> 
            <glyph glyph-name="ğ" unicode="&#x11F;" horiz-adv-x="519" d=" M361,613 Q227,613 185.5,654 Q144,695 144,751 L185,751 Q185,713 212.5,681.5 Q240,650 294,650 Q348,650 376,681.5 Q404,713 404,751 L444,751 Q444,695 361,613 M170,69 Q388,69 453.5,29 Q519,-11 519,-85 Q519,-157 459,-198.5 Q399,-240 305,-240 Q211,-240 150.5,-198.5 Q90,-157 90,-85 Q90,-5 172,43 Q123,64 123,102 Q123,124 139.5,141.5 Q156,159 180,167 Q138,193 114,234.5 Q90,276 90,326 Q90,406 148.5,461 Q207,516 294,516 Q344,516 389,495 L513,506 L513,462 L438,462 Q498,407 498,326 Q498,246 439.5,191 Q381,136 294,136 Q253,136 214,150 Q170,134 170,108 M136,388 Q136,264 181.5,221.5 Q227,179 294,179 Q361,179 406,221.5 Q451,264 451,326 Q451,389 406,431.5 Q361,474 294,474 Q227,474 136,388 M230,-198 Q380,-198 426.5,-168.5 Q473,-139 473,-86 Q473,-28 417,-0.5 Q361,27 269,27 Q246,27 225,30 Q192,15 164,-17 Q136,-49 136,-85 Q136,-138 230,-198"/> 
            <glyph glyph-name="Ġ" unicode="&#x120;" horiz-adv-x="790" d=" M441,849 Q427,849 416.5,859.5 Q406,870 406,884 Q406,899 416.5,909.5 Q427,920 441,920 Q456,920 466.5,909.5 Q477,899 477,884 Q477,870 466.5,859.5 Q456,849 441,849 M431,366 L790,366 Q790,203 693,96.5 Q596,-10 439,-10 Q288,-10 189,96.5 Q90,203 90,355 Q90,507 190,613.5 Q290,720 443,720 Q620,720 725,569 L688,540 Q593,674 443,674 Q313,674 225.5,581 Q138,488 138,355 Q138,222 224.5,129 Q311,36 439,36 Q563,36 646,116.5 Q729,197 740,319 L431,319"/> 
            <glyph glyph-name="ġ" unicode="&#x121;" horiz-adv-x="519" d=" M293,644 Q279,644 268.5,654.5 Q258,665 258,679 Q258,694 268.5,704.5 Q279,715 293,715 Q308,715 318.5,704.5 Q329,694 329,679 Q329,665 318.5,654.5 Q308,644 293,644 M170,69 Q388,69 453.5,29 Q519,-11 519,-85 Q519,-157 459,-198.5 Q399,-240 305,-240 Q211,-240 150.5,-198.5 Q90,-157 90,-85 Q90,-5 172,43 Q123,64 123,102 Q123,124 139.5,141.5 Q156,159 180,167 Q138,193 114,234.5 Q90,276 90,326 Q90,406 148.5,461 Q207,516 294,516 Q344,516 389,495 L513,506 L513,462 L438,462 Q498,407 498,326 Q498,246 439.5,191 Q381,136 294,136 Q253,136 214,150 Q170,134 170,108 M136,388 Q136,264 181.5,221.5 Q227,179 294,179 Q361,179 406,221.5 Q451,264 451,326 Q451,389 406,431.5 Q361,474 294,474 Q227,474 136,388 M230,-198 Q380,-198 426.5,-168.5 Q473,-139 473,-86 Q473,-28 417,-0.5 Q361,27 269,27 Q246,27 225,30 Q192,15 164,-17 Q136,-49 136,-85 Q136,-138 230,-198"/> 
            <glyph glyph-name="Ģ" unicode="&#x122;" horiz-adv-x="790" d=" M431,366 L790,366 Q790,203 693,96.5 Q596,-10 439,-10 Q288,-10 189,96.5 Q90,203 90,355 Q90,507 190,613.5 Q290,720 443,720 Q620,720 725,569 L688,540 Q593,674 443,674 Q313,674 225.5,581 Q138,488 138,355 Q138,222 224.5,129 Q311,36 439,36 Q563,36 646,116.5 Q729,197 740,319 L431,319 M378,-228 L414,-60 L471,-60 L419,-228"/> 
            <glyph glyph-name="ģ" unicode="&#x123;" horiz-adv-x="519" d=" M358,783 L322,615 L265,615 L317,783 M170,69 Q388,69 453.5,29 Q519,-11 519,-85 Q519,-157 459,-198.5 Q399,-240 305,-240 Q211,-240 150.5,-198.5 Q90,-157 90,-85 Q90,-5 172,43 Q123,64 123,102 Q123,124 139.5,141.5 Q156,159 180,167 Q138,193 114,234.5 Q90,276 90,326 Q90,406 148.5,461 Q207,516 294,516 Q344,516 389,495 L513,506 L513,462 L438,462 Q498,407 498,326 Q498,246 439.5,191 Q381,136 294,136 Q253,136 214,150 Q170,134 170,108 M136,388 Q136,264 181.5,221.5 Q227,179 294,179 Q361,179 406,221.5 Q451,264 451,326 Q451,389 406,431.5 Q361,474 294,474 Q227,474 136,388 M230,-198 Q380,-198 426.5,-168.5 Q473,-139 473,-86 Q473,-28 417,-0.5 Q361,27 269,27 Q246,27 225,30 Q192,15 164,-17 Q136,-49 136,-85 Q136,-138 230,-198"/> 
            <glyph glyph-name="Ħ" unicode="&#x126;" horiz-adv-x="700" d=" M700,588 L700,542 L593,542 L593,0 L544,0 L544,340 L126,340 L126,0 L78,0 L78,542 L-11,542 L-11,588 L78,588 L78,710 L126,710 L126,588 L544,588 L544,710 L593,710 L593,588 M544,386 L544,542 L126,542 L126,386"/> 
            <glyph glyph-name="ħ" unicode="&#x127;" horiz-adv-x="537" d=" M347,516 Q434,516 485.5,458.5 Q537,401 537,293 L537,0 L489,0 L489,278 Q489,375 446.5,422.5 Q404,470 334,470 Q292,470 257.5,455.5 Q223,441 202,419.5 Q181,398 166,371 Q151,344 145,320.5 Q139,297 138,277 L138,0 L90,0 L90,563 L29,563 L29,609 L90,609 L90,750 L138,750 L138,609 L357,609 L357,563 L138,563 L138,397 Q212,516 347,516"/> 
            <glyph glyph-name="Ī" unicode="&#x12A;" horiz-adv-x="206" d=" M3,911 L206,911 L206,865 L3,865 M80,0 L80,710 L128,710 L128,0"/> 
            <glyph glyph-name="ī" unicode="&#x12B;" horiz-adv-x="185" d=" M-18,707 L185,707 L185,661 L-18,661 M108,506 L108,0 L60,0 L60,506"/> 
            <glyph glyph-name="Į" unicode="&#x12E;" horiz-adv-x="191" d=" M123,-103 Q158,-103 191,-76 L191,-119 Q161,-149 116,-149 Q64,-149 50.5,-101 Q37,-53 84,0 L80,0 L80,710 L128,710 L128,0 L124,0 Q99,-25 91.5,-49.5 Q84,-74 93,-88.5 Q102,-103 123,-103"/> 
            <glyph glyph-name="į" unicode="&#x12F;" horiz-adv-x="171" d=" M83,606 Q69,606 58.5,616.5 Q48,627 48,641 Q48,656 58.5,666.5 Q69,677 83,677 Q98,677 108.5,666.5 Q119,656 119,641 Q119,627 108.5,616.5 Q98,606 83,606 M103,-103 Q138,-103 171,-76 L171,-119 Q141,-149 96,-149 Q44,-149 30.5,-101 Q17,-53 64,0 L60,0 L60,506 L108,506 L108,0 L104,0 Q79,-25 71.5,-49.5 Q64,-74 73,-88.5 Q82,-103 103,-103"/> 
            <glyph glyph-name="İ" unicode="&#x130;" horiz-adv-x="140" d=" M104,849 Q90,849 79.5,859.5 Q69,870 69,884 Q69,899 79.5,909.5 Q90,920 104,920 Q119,920 129.5,909.5 Q140,899 140,884 Q140,870 129.5,859.5 Q119,849 104,849 M80,0 L80,710 L128,710 L128,0"/> 
            <glyph glyph-name="ı" unicode="&#x131;" horiz-adv-x="108" d=" M108,506 L108,0 L60,0 L60,506"/> 
            <glyph glyph-name="Ķ" unicode="&#x136;" horiz-adv-x="550" d=" M550,710 L255,371 L550,0 L492,0 L224,335 L128,225 L128,0 L80,0 L80,710 L128,710 L128,297 L488,710 M238,-228 L274,-60 L331,-60 L279,-228"/> 
            <glyph glyph-name="ķ" unicode="&#x137;" horiz-adv-x="501" d=" M501,506 L266,286 L501,0 L440,0 L231,254 L138,167 L138,0 L90,0 L90,750 L138,750 L138,231 L433,506 M215,-228 L251,-60 L308,-60 L256,-228"/> 
            <glyph glyph-name="Ĺ" unicode="&#x139;" horiz-adv-x="428" d=" M236,956 L135,818 L94,818 L180,956 M138,46 L428,46 L428,0 L90,0 L90,710 L138,710"/> 
            <glyph glyph-name="ĺ" unicode="&#x13A;" horiz-adv-x="237" d=" M181,996 L237,996 L136,858 L95,858 M138,750 L138,0 L90,0 L90,750"/> 
            <glyph glyph-name="Ļ" unicode="&#x13B;" horiz-adv-x="428" d=" M138,46 L428,46 L428,0 L90,0 L90,710 L138,710 M167,-228 L203,-60 L260,-60 L208,-228"/> 
            <glyph glyph-name="ļ" unicode="&#x13C;" horiz-adv-x="144" d=" M138,750 L138,0 L90,0 L90,750 M87,-60 L144,-60 L92,-228 L51,-228"/> 
            <glyph glyph-name="Ľ" unicode="&#x13D;" horiz-adv-x="428" d=" M90,818 L-14,956 L34,956 L112,847 L190,956 L238,956 L134,818 M138,46 L428,46 L428,0 L90,0 L90,710 L138,710"/> 
            <glyph glyph-name="ľ" unicode="&#x13E;" horiz-adv-x="282" d=" M138,750 L138,0 L90,0 L90,750 M225,718 L282,718 L230,550 L189,550"/> 
            <glyph glyph-name="Ł" unicode="&#x141;" horiz-adv-x="428" d=" M138,46 L428,46 L428,0 L90,0 L90,333 L-9,258 L-9,288 L90,363 L90,710 L138,710 L138,399 L238,474 L238,444 L138,369"/> 
            <glyph glyph-name="ł" unicode="&#x142;" horiz-adv-x="237" d=" M237,429 L237,399 L138,325 L138,0 L90,0 L90,288 L-10,213 L-10,243 L90,318 L90,750 L138,750 L138,355"/> 
            <glyph glyph-name="Ń" unicode="&#x143;" horiz-adv-x="621" d=" M481,956 L380,818 L339,818 L425,956 M573,710 L621,710 L621,0 L573,0 L128,628 L128,0 L80,0 L80,710 L128,710 L573,82"/> 
            <glyph glyph-name="ń" unicode="&#x144;" horiz-adv-x="537" d=" M433,752 L332,614 L291,614 L377,752 M347,516 Q434,516 485.5,458.5 Q537,401 537,293 L537,0 L489,0 L489,278 Q489,375 446.5,422.5 Q404,470 334,470 Q292,470 257.5,455.5 Q223,441 202,419.5 Q181,398 166,371 Q151,344 145,320.5 Q139,297 138,277 L138,0 L90,0 L90,506 L135,506 L138,397 Q212,516 347,516"/> 
            <glyph glyph-name="Ņ" unicode="&#x145;" horiz-adv-x="621" d=" M573,710 L621,710 L621,0 L573,0 L128,628 L128,0 L80,0 L80,710 L128,710 L573,82 M296,-228 L332,-60 L389,-60 L337,-228"/> 
            <glyph glyph-name="ņ" unicode="&#x146;" horiz-adv-x="537" d=" M347,516 Q434,516 485.5,458.5 Q537,401 537,293 L537,0 L489,0 L489,278 Q489,375 446.5,422.5 Q404,470 334,470 Q292,470 257.5,455.5 Q223,441 202,419.5 Q181,398 166,371 Q151,344 145,320.5 Q139,297 138,277 L138,0 L90,0 L90,506 L135,506 L138,397 Q212,516 347,516 M248,-228 L284,-60 L341,-60 L289,-228"/> 
            <glyph glyph-name="Ň" unicode="&#x147;" horiz-adv-x="621" d=" M335,818 L231,956 L279,956 L357,847 L435,956 L483,956 L379,818 M573,710 L621,710 L621,0 L573,0 L128,628 L128,0 L80,0 L80,710 L128,710 L573,82"/> 
            <glyph glyph-name="ň" unicode="&#x148;" horiz-adv-x="537" d=" M287,614 L183,752 L231,752 L309,643 L387,752 L435,752 L331,614 M347,516 Q434,516 485.5,458.5 Q537,401 537,293 L537,0 L489,0 L489,278 Q489,375 446.5,422.5 Q404,470 334,470 Q292,470 257.5,455.5 Q223,441 202,419.5 Q181,398 166,371 Q151,344 145,320.5 Q139,297 138,277 L138,0 L90,0 L90,506 L135,506 L138,397 Q212,516 347,516"/> 
            <glyph glyph-name="Ŋ" unicode="&#x14A;" horiz-adv-x="621" d=" M573,710 L621,710 L621,-62 Q621,-125 593.5,-158 Q566,-191 519,-191 Q472,-191 441,-166 L441,-122 Q471,-145 504,-145 Q573,-145 573,-54 L573,0 L128,628 L128,0 L80,0 L80,710 L128,710 L573,82"/> 
            <glyph glyph-name="ŋ" unicode="&#x14B;" horiz-adv-x="537" d=" M537,293 L537,-29 Q537,-93 509,-126 Q481,-159 434,-159 Q388,-159 356,-133 L356,-90 Q389,-113 419,-113 Q489,-113 489,-22 L489,278 Q489,375 446.5,422.5 Q404,470 334,470 Q292,470 257.5,455.5 Q223,441 202,419.5 Q181,398 166,371 Q151,344 145,320.5 Q139,297 138,277 L138,0 L90,0 L90,506 L135,506 L138,397 Q212,516 347,516 Q434,516 485.5,458.5 Q537,401 537,293"/> 
            <glyph glyph-name="Ō" unicode="&#x14C;" horiz-adv-x="801" d=" M344,911 L547,911 L547,865 L344,865 M595,-10 Q295,-10 192.5,97 Q90,204 90,355 Q90,506 192.5,613 Q295,720 445,720 Q595,720 698,613 Q801,506 801,355 Q801,204 595,-10 M317,36 Q573,36 662.5,130 Q752,224 752,355 Q752,486 662.5,580 Q573,674 445,674 Q317,674 227.5,580 Q138,486 138,355 Q138,224 317,36"/> 
            <glyph glyph-name="ō" unicode="&#x14D;" horiz-adv-x="622" d=" M256,707 L459,707 L459,661 L256,661 M357,-10 Q245,-10 167.5,67 Q90,144 90,254 Q90,362 168,439 Q246,516 357,516 Q468,516 545,439 Q622,362 622,254 Q622,144 545,67 Q468,-10 357,-10 M357,36 Q447,36 510.5,100 Q574,164 574,254 Q574,343 510.5,406.5 Q447,470 357,470 Q266,470 202,406.5 Q138,343 138,254 Q138,164 202,100 Q266,36 357,36"/> 
            <glyph glyph-name="Ő" unicode="&#x150;" horiz-adv-x="801" d=" M471,956 L527,956 L426,818 L385,818 M584,956 L640,956 L539,818 L498,818 M595,-10 Q295,-10 192.5,97 Q90,204 90,355 Q90,506 192.5,613 Q295,720 445,720 Q595,720 698,613 Q801,506 801,355 Q801,204 595,-10 M317,36 Q573,36 662.5,130 Q752,224 752,355 Q752,486 662.5,580 Q573,674 445,674 Q317,674 227.5,580 Q138,486 138,355 Q138,224 317,36"/> 
            <glyph glyph-name="ő" unicode="&#x151;" horiz-adv-x="622" d=" M382,752 L438,752 L337,614 L296,614 M495,752 L551,752 L450,614 L409,614 M357,-10 Q245,-10 167.5,67 Q90,144 90,254 Q90,362 168,439 Q246,516 357,516 Q468,516 545,439 Q622,362 622,254 Q622,144 545,67 Q468,-10 357,-10 M357,36 Q447,36 510.5,100 Q574,164 574,254 Q574,343 510.5,406.5 Q447,470 357,470 Q266,470 202,406.5 Q138,343 138,254 Q138,164 202,100 Q266,36 357,36"/> 
            <glyph glyph-name="Œ" unicode="&#x152;" horiz-adv-x="1136" d=" M1136,664 L821,664 L821,395 L1062,395 L1062,349 L821,349 L821,46 L1136,46 L1136,0 L773,0 L773,213 Q732,113 644,51.5 Q556,-10 445,-10 Q295,-10 192.5,97 Q90,204 90,355 Q90,506 192.5,613 Q295,720 445,720 Q556,720 644,658.5 Q732,597 773,497 L773,710 L1136,710 M317,36 Q573,36 662.5,130 Q752,224 752,355 Q752,486 662.5,580 Q573,674 445,674 Q317,674 227.5,580 Q138,486 138,355 Q138,224 317,36"/> 
            <glyph glyph-name="œ" unicode="&#x153;" horiz-adv-x="1047" d=" M1047,249 L1047,235 L627,235 Q632,137 689,85 Q746,33 837,33 Q934,33 1020,99 L1020,56 Q989,29 938.5,9.5 Q888,-10 831,-10 Q749,-10 687,30 Q625,70 597,142 Q565,73 500.5,31.5 Q436,-10 357,-10 Q245,-10 167.5,67 Q90,144 90,254 Q90,362 168,439 Q246,516 357,516 Q436,516 500.5,474.5 Q565,433 597,365 Q624,434 683,475 Q742,516 819,516 Q926,516 986.5,439 Q1047,362 1047,249 M820,472 Q739,472 685.5,418 Q632,364 627,274 L1000,274 Q993,361 946.5,416.5 Q900,472 820,472 M357,36 Q447,36 510.5,100 Q574,164 574,254 Q574,343 510.5,406.5 Q447,470 357,470 Q266,470 202,406.5 Q138,343 138,254 Q138,164 202,100 Q266,36 357,36"/> 
            <glyph glyph-name="Ŕ" unicode="&#x154;" horiz-adv-x="536" d=" M406,956 L305,818 L264,818 L350,956 M480,0 L313,253 L126,253 L126,0 L78,0 L78,710 L317,710 Q406,710 470,647 Q534,584 534,481 Q534,393 486,333.5 Q438,274 364,258 L536,0 M126,664 L126,299 L317,299 Q386,299 436,349 Q486,399 486,481 Q486,564 436,614 Q386,664 317,664"/> 
            <glyph glyph-name="ŕ" unicode="&#x155;" horiz-adv-x="340" d=" M340,752 L239,614 L198,614 L284,752 M138,429 Q187,516 262,516 Q300,516 328,493 L316,452 Q289,470 260,470 Q218,470 189,438.5 Q160,407 149,366 Q138,325 138,280 L138,0 L90,0 L90,506 L135,506"/> 
            <glyph glyph-name="Ŗ" unicode="&#x156;" horiz-adv-x="536" d=" M364,258 L536,0 L480,0 L313,253 L126,253 L126,0 L78,0 L78,710 L317,710 Q406,710 470,647 Q534,584 534,481 Q534,393 486,333.5 Q438,274 364,258 M126,664 L126,299 L317,299 Q386,299 436,349 Q486,399 486,481 Q486,564 436,614 Q386,664 317,664 M225,-228 L261,-60 L318,-60 L266,-228"/> 
            <glyph glyph-name="ŗ" unicode="&#x157;" horiz-adv-x="328" d=" M262,516 Q300,516 328,493 L316,452 Q289,470 260,470 Q218,470 189,438.5 Q160,407 149,366 Q138,325 138,280 L138,0 L90,0 L90,506 L135,506 L138,429 Q187,516 262,516 M49,-228 L85,-60 L142,-60 L90,-228"/> 
            <glyph glyph-name="Ř" unicode="&#x158;" horiz-adv-x="536" d=" M261,818 L157,956 L205,956 L283,847 L361,956 L409,956 L305,818 M480,0 L313,253 L126,253 L126,0 L78,0 L78,710 L317,710 Q406,710 470,647 Q534,584 534,481 Q534,393 486,333.5 Q438,274 364,258 L536,0 M126,664 L126,299 L317,299 Q386,299 436,349 Q486,399 486,481 Q486,564 436,614 Q386,664 317,664"/> 
            <glyph glyph-name="ř" unicode="&#x159;" horiz-adv-x="342" d=" M194,614 L90,752 L138,752 L216,643 L294,752 L342,752 L238,614 M138,429 Q187,516 262,516 Q300,516 328,493 L316,452 Q289,470 260,470 Q218,470 189,438.5 Q160,407 149,366 Q138,325 138,280 L138,0 L90,0 L90,506 L135,506"/> 
            <glyph glyph-name="Ś" unicode="&#x15A;" horiz-adv-x="531" d=" M391,956 L447,956 L346,818 L305,818 M106,180 L154,180 Q160,111 209,73.5 Q258,36 322,36 Q396,36 439.5,71.5 Q483,107 483,164 Q483,226 439,265.5 Q395,305 312,344 Q270,365 250,375.5 Q230,386 200,406.5 Q170,427 156.5,445 Q143,463 132,491 Q121,519 121,553 Q121,625 177.5,672.5 Q234,720 315,720 Q392,720 444.5,670 Q497,620 503,548 L455,548 Q449,602 410.5,638 Q372,674 315,674 Q254,674 211.5,639.5 Q169,605 169,552 Q169,520 178.5,496 Q188,472 214.5,451.5 Q241,431 256.5,422.5 Q272,414 315,394 Q321,391 325,389 Q426,342 478.5,291.5 Q531,241 531,163 Q531,85 473,37.5 Q415,-10 322,-10 Q237,-10 174.5,42 Q112,94 106,180"/> 
            <glyph glyph-name="ś" unicode="&#x15B;" horiz-adv-x="463" d=" M335,752 L391,752 L290,614 L249,614 M90,127 L138,127 Q153,84 191,58.5 Q229,33 287,33 Q345,33 379.5,57 Q414,81 414,119 Q414,131 412,141.5 Q410,152 404.5,161 Q399,170 394,177 Q389,184 377.5,191.5 Q366,199 359,204 Q352,209 334.5,216.5 Q317,224 308,228.5 Q299,233 276.5,242 Q254,251 242,256 Q212,268 193,277.5 Q174,287 151.5,303 Q129,319 118,341.5 Q107,364 107,392 Q107,448 154,482 Q201,516 262,516 Q330,516 375,480 Q420,444 426,386 L378,386 Q372,427 340,450.5 Q308,474 263,474 Q221,474 188.5,451.5 Q156,429 156,392 Q156,379 159.5,368.5 Q163,358 172,348.5 Q181,339 188.5,332.5 Q196,326 213.5,317.5 Q231,309 242.5,304 Q254,299 278.5,288.5 Q303,278 317,272 Q351,258 373,246 Q395,234 418,216 Q441,198 452,174 Q463,150 463,119 Q463,62 414.5,26 Q366,-10 286,-10 Q208,-10 155.5,26.5 Q103,63 90,127"/> 
            <glyph glyph-name="Ş" unicode="&#x15E;" horiz-adv-x="531" d=" M531,163 Q531,89 478.5,42.5 Q426,-4 341,-9 L322,-49 Q357,-51 379.5,-66.5 Q402,-82 402,-109 Q402,-183 254,-183 L265,-153 Q369,-153 369,-110 Q369,-78 308,-76 L280,-77 L304,-9 Q224,-4 168,47 Q112,98 106,180 L154,180 Q160,111 209,73.5 Q258,36 322,36 Q396,36 439.5,71.5 Q483,107 483,164 Q483,226 439,265.5 Q395,305 312,344 Q270,365 250,375.5 Q230,386 200,406.5 Q170,427 156.5,445 Q143,463 132,491 Q121,519 121,553 Q121,625 177.5,672.5 Q234,720 315,720 Q392,720 444.5,670 Q497,620 503,548 L455,548 Q449,602 410.5,638 Q372,674 315,674 Q254,674 211.5,639.5 Q169,605 169,552 Q169,520 178.5,496 Q188,472 214.5,451.5 Q241,431 256.5,422.5 Q272,414 315,394 Q321,391 325,389 Q426,342 478.5,291.5 Q531,241 531,163"/> 
            <glyph glyph-name="ş" unicode="&#x15F;" horiz-adv-x="463" d=" M463,119 Q463,64 418.5,28.5 Q374,-7 300,-10 L281,-49 Q316,-51 338.5,-66.5 Q361,-82 361,-109 Q361,-183 213,-183 L224,-153 Q328,-153 328,-110 Q328,-78 267,-76 L239,-77 L263,-9 Q194,-4 148,32 Q102,68 90,127 L138,127 Q153,84 191,58.5 Q229,33 287,33 Q345,33 379.5,57 Q414,81 414,119 Q414,131 412,141.5 Q410,152 404.5,161 Q399,170 394,177 Q389,184 377.5,191.5 Q366,199 359,204 Q352,209 334.5,216.5 Q317,224 308,228.5 Q299,233 276.5,242 Q254,251 242,256 Q212,268 193,277.5 Q174,287 151.5,303 Q129,319 118,341.5 Q107,364 107,392 Q107,448 154,482 Q201,516 262,516 Q330,516 375,480 Q420,444 426,386 L378,386 Q372,427 340,450.5 Q308,474 263,474 Q221,474 188.5,451.5 Q156,429 156,392 Q156,379 159.5,368.5 Q163,358 172,348.5 Q181,339 188.5,332.5 Q196,326 213.5,317.5 Q231,309 242.5,304 Q254,299 278.5,288.5 Q303,278 317,272 Q351,258 373,246 Q395,234 418,216 Q441,198 452,174 Q463,150 463,119"/> 
            <glyph glyph-name="Š" unicode="&#x160;" horiz-adv-x="531" d=" M301,818 L197,956 L245,956 L323,847 L401,956 L449,956 L345,818 M325,389 Q426,342 478.5,291.5 Q531,241 531,163 Q531,85 473,37.5 Q415,-10 322,-10 Q237,-10 174.5,42 Q112,94 106,180 L154,180 Q160,111 209,73.5 Q258,36 322,36 Q396,36 439.5,71.5 Q483,107 483,164 Q483,226 439,265.5 Q395,305 312,344 Q270,365 250,375.5 Q230,386 200,406.5 Q170,427 156.5,445 Q143,463 132,491 Q121,519 121,553 Q121,625 177.5,672.5 Q234,720 315,720 Q392,720 444.5,670 Q497,620 503,548 L455,548 Q449,602 410.5,638 Q372,674 315,674 Q254,674 211.5,639.5 Q169,605 169,552 Q169,520 178.5,496 Q188,472 214.5,451.5 Q241,431 256.5,422.5 Q272,414 315,394 Q321,391 325,389"/> 
            <glyph glyph-name="š" unicode="&#x161;" horiz-adv-x="463" d=" M245,614 L141,752 L189,752 L267,643 L345,752 L393,752 L289,614 M317,272 Q351,258 373,246 Q395,234 418,216 Q441,198 452,174 Q463,150 463,119 Q463,62 414.5,26 Q366,-10 286,-10 Q208,-10 155.5,26.5 Q103,63 90,127 L138,127 Q153,84 191,58.5 Q229,33 287,33 Q345,33 379.5,57 Q414,81 414,119 Q414,131 412,141.5 Q410,152 404.5,161 Q399,170 394,177 Q389,184 377.5,191.5 Q366,199 359,204 Q352,209 334.5,216.5 Q317,224 308,228.5 Q299,233 276.5,242 Q254,251 242,256 Q212,268 193,277.5 Q174,287 151.5,303 Q129,319 118,341.5 Q107,364 107,392 Q107,448 154,482 Q201,516 262,516 Q330,516 375,480 Q420,444 426,386 L378,386 Q372,427 340,450.5 Q308,474 263,474 Q221,474 188.5,451.5 Q156,429 156,392 Q156,379 159.5,368.5 Q163,358 172,348.5 Q181,339 188.5,332.5 Q196,326 213.5,317.5 Q231,309 242.5,304 Q254,299 278.5,288.5 Q303,278 317,272"/> 
            <glyph glyph-name="Ţ" unicode="&#x162;" horiz-adv-x="479" d=" M298,0 L294,0 L271,-49 Q306,-51 328.5,-66.5 Q351,-82 351,-109 Q351,-183 203,-183 L214,-153 Q318,-153 318,-110 Q318,-78 257,-76 L229,-77 L256,0 L250,0 L250,664 L70,664 L70,710 L479,710 L479,664 L298,664"/> 
            <glyph glyph-name="ţ" unicode="&#x163;" horiz-adv-x="269" d=" M173,0 L169,0 L146,-49 Q181,-51 203.5,-66.5 Q226,-82 226,-109 Q226,-183 78,-183 L89,-153 Q193,-153 193,-110 Q193,-78 132,-76 L104,-77 L131,0 L125,0 L125,460 L60,460 L60,506 L125,506 L125,656 L173,656 L173,506 L269,506 L269,460 L173,460"/> 
            <glyph glyph-name="Ť" unicode="&#x164;" horiz-adv-x="479" d=" M250,818 L146,956 L194,956 L272,847 L350,956 L398,956 L294,818 M479,710 L479,664 L298,664 L298,0 L250,0 L250,664 L70,664 L70,710"/> 
            <glyph glyph-name="ť" unicode="&#x165;" horiz-adv-x="336" d=" M279,726 L336,726 L284,558 L243,558 M173,656 L173,506 L269,506 L269,460 L173,460 L173,0 L125,0 L125,460 L60,460 L60,506 L125,506 L125,656"/> 
            <glyph glyph-name="Ŧ" unicode="&#x166;" horiz-adv-x="479" d=" M479,664 L298,664 L298,378 L440,378 L440,332 L298,332 L298,0 L250,0 L250,332 L112,332 L112,378 L250,378 L250,664 L70,664 L70,710 L479,710"/> 
            <glyph glyph-name="ŧ" unicode="&#x167;" horiz-adv-x="269" d=" M269,460 L173,460 L173,318 L254,318 L254,272 L173,272 L173,0 L125,0 L125,272 L72,272 L72,318 L125,318 L125,460 L60,460 L60,506 L125,506 L125,656 L173,656 L173,506 L269,506"/> 
            <glyph glyph-name="Ũ" unicode="&#x168;" horiz-adv-x="609" d=" M156,855 Q158,892 183,919 Q208,946 254,946 Q293,946 344,907.5 Q395,869 426,869 Q457,869 473.5,885 Q490,901 490,924 L532,919 Q530,882 505,855 Q480,828 434,828 Q395,828 344,866 Q293,904 262,904 Q232,904 215.5,887.5 Q199,871 199,849 M609,279 Q609,136 537.5,63 Q466,-10 344,-10 Q221,-10 149.5,63 Q78,136 78,279 L78,710 L126,710 L126,279 Q126,155 185,95.5 Q244,36 344,36 Q443,36 502,95.5 Q561,155 561,279 L561,710 L609,710"/> 
            <glyph glyph-name="ũ" unicode="&#x169;" horiz-adv-x="529" d=" M232,700 Q202,700 185.5,683.5 Q169,667 169,645 L126,651 Q128,688 153,715 Q178,742 224,742 Q263,742 314,703.5 Q365,665 396,665 Q427,665 443.5,681 Q460,697 460,720 L502,715 Q500,678 475,651 Q450,624 404,624 Q365,624 314,662 Q263,700 232,700 M481,506 L529,506 L529,0 L483,0 L481,109 Q407,-10 272,-10 Q185,-10 133.5,47.5 Q82,105 82,213 L82,506 L130,506 L130,228 Q130,131 172.5,83.5 Q215,36 285,36 Q328,36 363.5,51 Q399,66 420,89 Q441,112 455.5,140 Q470,168 475.5,191.5 Q481,215 481,235"/> 
            <glyph glyph-name="Ū" unicode="&#x16A;" horiz-adv-x="609" d=" M242,911 L445,911 L445,865 L242,865 M609,279 Q609,136 537.5,63 Q466,-10 344,-10 Q221,-10 149.5,63 Q78,136 78,279 L78,710 L126,710 L126,279 Q126,155 185,95.5 Q244,36 344,36 Q443,36 502,95.5 Q561,155 561,279 L561,710 L609,710"/> 
            <glyph glyph-name="ū" unicode="&#x16B;" horiz-adv-x="529" d=" M416,707 L416,661 L213,661 L213,707 M481,506 L529,506 L529,0 L483,0 L481,109 Q407,-10 272,-10 Q185,-10 133.5,47.5 Q82,105 82,213 L82,506 L130,506 L130,228 Q130,131 172.5,83.5 Q215,36 285,36 Q328,36 363.5,51 Q399,66 420,89 Q441,112 455.5,140 Q470,168 475.5,191.5 Q481,215 481,235"/> 
            <glyph glyph-name="Ů" unicode="&#x16E;" horiz-adv-x="609" d=" M373,826 Q315,826 294.5,846.5 Q274,867 274,896 Q274,925 294.5,945.5 Q315,966 344,966 Q373,966 393,945.5 Q413,925 413,896 Q413,867 373,826 M344,856 Q360,856 372,868 Q384,880 384,896 Q384,912 372,924 Q360,936 344,936 Q327,936 315,924.5 Q303,913 303,896 Q303,879 315,867.5 Q327,856 344,856 M609,279 Q609,136 537.5,63 Q466,-10 344,-10 Q221,-10 149.5,63 Q78,136 78,279 L78,710 L126,710 L126,279 Q126,155 185,95.5 Q244,36 344,36 Q443,36 502,95.5 Q561,155 561,279 L561,710 L609,710"/> 
            <glyph glyph-name="ů" unicode="&#x16F;" horiz-adv-x="529" d=" M344,622 Q286,622 265.5,642.5 Q245,663 245,692 Q245,721 265.5,741.5 Q286,762 315,762 Q344,762 364,741.5 Q384,721 384,692 Q384,663 344,622 M332,732 Q298,732 286,720.5 Q274,709 274,692 Q274,675 286,663.5 Q298,652 315,652 Q332,652 343.5,664 Q355,676 355,692 Q355,708 332,732 M481,506 L529,506 L529,0 L483,0 L481,109 Q407,-10 272,-10 Q185,-10 133.5,47.5 Q82,105 82,213 L82,506 L130,506 L130,228 Q130,131 172.5,83.5 Q215,36 285,36 Q328,36 363.5,51 Q399,66 420,89 Q441,112 455.5,140 Q470,168 475.5,191.5 Q481,215 481,235"/> 
            <glyph glyph-name="Ű" unicode="&#x170;" horiz-adv-x="609" d=" M369,956 L425,956 L324,818 L283,818 M482,956 L538,956 L437,818 L396,818 M609,279 Q609,136 537.5,63 Q466,-10 344,-10 Q221,-10 149.5,63 Q78,136 78,279 L78,710 L126,710 L126,279 Q126,155 185,95.5 Q244,36 344,36 Q443,36 502,95.5 Q561,155 561,279 L561,710 L609,710"/> 
            <glyph glyph-name="ű" unicode="&#x171;" horiz-adv-x="529" d=" M396,752 L295,614 L254,614 L340,752 M408,614 L367,614 L453,752 L509,752 M481,506 L529,506 L529,0 L483,0 L481,109 Q407,-10 272,-10 Q185,-10 133.5,47.5 Q82,105 82,213 L82,506 L130,506 L130,228 Q130,131 172.5,83.5 Q215,36 285,36 Q328,36 363.5,51 Q399,66 420,89 Q441,112 455.5,140 Q470,168 475.5,191.5 Q481,215 481,235"/> 
            <glyph glyph-name="Ų" unicode="&#x172;" horiz-adv-x="609" d=" M561,710 L609,710 L609,279 Q609,136 538.5,63.5 Q468,-9 347,-10 Q323,-44 329,-68.5 Q335,-93 363,-93 Q398,-93 431,-66 L431,-109 Q401,-139 356,-139 Q309,-139 293,-98.5 Q277,-58 309,-8 Q202,1 140,74 Q78,147 78,279 L78,710 L126,710 L126,279 Q126,155 185,95.5 Q244,36 344,36 Q443,36 502,95.5 Q561,155 561,279"/> 
            <glyph glyph-name="ų" unicode="&#x173;" horiz-adv-x="594" d=" M526,-103 Q561,-103 594,-76 L594,-119 Q564,-149 519,-149 Q467,-149 453.5,-101 Q440,-53 487,0 L483,0 L481,109 Q407,-10 272,-10 Q185,-10 133.5,47.5 Q82,105 82,213 L82,506 L130,506 L130,228 Q130,131 172.5,83.5 Q215,36 285,36 Q328,36 363.5,51 Q399,66 420,89 Q441,112 455.5,140 Q470,168 475.5,191.5 Q481,215 481,235 L481,506 L529,506 L529,0 L527,0 Q502,-25 494.5,-49.5 Q487,-74 496,-88.5 Q505,-103 526,-103"/> 
            <glyph glyph-name="Ŵ" unicode="&#x174;" horiz-adv-x="1060" d=" M566,927 L488,818 L440,818 L544,956 L588,956 L692,818 L644,818 M1011,710 L1060,710 L828,0 L773,0 L565,634 L358,0 L302,0 L70,710 L120,710 L330,66 L540,710 L590,710 L800,66"/> 
            <glyph glyph-name="ŵ" unicode="&#x175;" horiz-adv-x="862" d=" M472,723 L394,614 L346,614 L450,752 L494,752 L598,614 L550,614 M811,506 L862,506 L679,0 L628,0 L471,435 L313,0 L263,0 L80,506 L131,506 L288,61 L445,506 L496,506 L653,61"/> 
            <glyph glyph-name="Ŷ" unicode="&#x176;" horiz-adv-x="617" d=" M344,927 L266,818 L218,818 L322,956 L366,956 L470,818 L422,818 M562,710 L617,710 L367,306 L367,0 L319,0 L319,306 L70,710 L125,710 L343,357"/> 
            <glyph glyph-name="ŷ" unicode="&#x177;" horiz-adv-x="578" d=" M333,723 L255,614 L207,614 L311,752 L355,752 L459,614 L411,614 M526,506 L578,506 L256,-230 L204,-230 L305,1 L80,506 L132,506 L331,61"/> 
            <glyph glyph-name="Ÿ" unicode="&#x178;" horiz-adv-x="617" d=" M270,849 Q256,849 245.5,859.5 Q235,870 235,884 Q235,899 245.5,909.5 Q256,920 270,920 Q285,920 295.5,909.5 Q306,899 306,884 Q306,870 295.5,859.5 Q285,849 270,849 M415,849 Q401,849 390.5,859.5 Q380,870 380,884 Q380,899 390.5,909.5 Q401,920 415,920 Q430,920 440.5,909.5 Q451,899 451,884 Q451,870 440.5,859.5 Q430,849 415,849 M562,710 L617,710 L367,306 L367,0 L319,0 L319,306 L70,710 L125,710 L343,357"/> 
            <glyph glyph-name="Ź" unicode="&#x179;" horiz-adv-x="612" d=" M478,956 L377,818 L336,818 L422,956 M612,710 L612,664 L151,46 L612,46 L612,0 L90,0 L90,46 L551,664 L90,664 L90,710"/> 
            <glyph glyph-name="ź" unicode="&#x17A;" horiz-adv-x="477" d=" M401,752 L300,614 L259,614 L345,752 M477,506 L477,460 L153,46 L477,46 L477,0 L90,0 L90,46 L413,460 L90,460 L90,506"/> 
            <glyph glyph-name="Ż" unicode="&#x17B;" horiz-adv-x="612" d=" M356,849 Q342,849 331.5,859.5 Q321,870 321,884 Q321,899 331.5,909.5 Q342,920 356,920 Q371,920 381.5,909.5 Q392,899 392,884 Q392,870 381.5,859.5 Q371,849 356,849 M612,710 L612,664 L151,46 L612,46 L612,0 L90,0 L90,46 L551,664 L90,664 L90,710"/> 
            <glyph glyph-name="ż" unicode="&#x17C;" horiz-adv-x="477" d=" M279,645 Q265,645 254.5,655.5 Q244,666 244,680 Q244,695 254.5,705.5 Q265,716 279,716 Q294,716 304.5,705.5 Q315,695 315,680 Q315,666 304.5,655.5 Q294,645 279,645 M477,506 L477,460 L153,46 L477,46 L477,0 L90,0 L90,46 L413,460 L90,460 L90,506"/> 
            <glyph glyph-name="Ž" unicode="&#x17D;" horiz-adv-x="612" d=" M333,818 L229,956 L277,956 L355,847 L433,956 L481,956 L377,818 M612,710 L612,664 L151,46 L612,46 L612,0 L90,0 L90,46 L551,664 L90,664 L90,710"/> 
            <glyph glyph-name="ž" unicode="&#x17E;" horiz-adv-x="477" d=" M255,614 L151,752 L199,752 L277,643 L355,752 L403,752 L299,614 M477,506 L477,460 L153,46 L477,46 L477,0 L90,0 L90,46 L413,460 L90,460 L90,506"/> 
            <glyph glyph-name="Ș" unicode="&#x218;" horiz-adv-x="531" d=" M106,180 L154,180 Q160,111 209,73.5 Q258,36 322,36 Q396,36 439.5,71.5 Q483,107 483,164 Q483,226 439,265.5 Q395,305 312,344 Q270,365 250,375.5 Q230,386 200,406.5 Q170,427 156.5,445 Q143,463 132,491 Q121,519 121,553 Q121,625 177.5,672.5 Q234,720 315,720 Q392,720 444.5,670 Q497,620 503,548 L455,548 Q449,602 410.5,638 Q372,674 315,674 Q254,674 211.5,639.5 Q169,605 169,552 Q169,520 178.5,496 Q188,472 214.5,451.5 Q241,431 256.5,422.5 Q272,414 315,394 Q321,391 325,389 Q426,342 478.5,291.5 Q531,241 531,163 Q531,85 473,37.5 Q415,-10 322,-10 Q237,-10 174.5,42 Q112,94 106,180 M298,-60 L355,-60 L303,-228 L262,-228"/> 
            </font>
</defs>
</svg>
