<?xml version="1.0" standalone="no"?>
<!DOCTYPE svg PUBLIC "-//W3C//DTD SVG 1.1//EN" "http://www.w3.org/Graphics/SVG/1.1/DTD/svg11.dtd" >
<svg xmlns="http://www.w3.org/2000/svg">
    <defs>
        <font id="NewJuneLight">
            <font-face font-family="NewJuneLight"
                       units-per-em="1000"
                       ascent="960"
                       descent="-240"
                       bbox="-40 -194 1282 952"
                    />
            <missing-glyph horiz-adv-x="0" />
            
            <glyph glyph-name="!" unicode="&#x21;" horiz-adv-x="144" d=" M131,235 L79,225 L79,744 L131,744 M105,-9 Q88,-9 77.5,2.5 Q67,14 67,34 Q67,54 77.5,65.5 Q88,77 105,77 Q123,77 133.5,65.5 Q144,54 144,34 Q144,14 133.5,2.5 Q123,-9 105,-9"/> 
            <glyph glyph-name="&quot;" unicode="&#x22;" horiz-adv-x="293" d=" M287,576 L244,576 L238,763 L293,763 M114,576 L72,576 L66,763 L121,763"/> 
            <glyph glyph-name="#" unicode="&#x23;" horiz-adv-x="663" d=" M430,0 L381,0 L421,217 L224,217 L181,0 L133,0 L174,217 L39,217 L47,267 L184,267 L223,467 L79,467 L88,516 L232,516 L275,744 L324,744 L281,516 L476,516 L519,744 L566,744 L524,516 L663,516 L654,467 L516,467 L479,267 L623,267 L614,217 L469,217 M432,267 L468,467 L272,467 L233,267"/> 
            <glyph glyph-name="$" unicode="&#x24;" horiz-adv-x="528" d=" M316,-129 L268,-129 L268,-6 Q183,3 92,36 L53,50 L65,102 L101,89 Q230,43 305,43 Q379,43 428.5,79.5 Q478,116 478,191 Q478,300 352,331 L218,365 Q56,407 56,552 Q56,646 118,695 Q180,744 268,746 L268,867 L316,867 L316,745 Q378,741 488,704 L525,691 L512,641 L477,653 Q349,697 280,697 Q205,697 156.5,663 Q108,629 108,555 Q108,498 137.5,464.5 Q167,431 229,415 L363,381 Q444,361 486,316 Q528,271 528,194 Q528,100 466,49 Q404,-2 316,-6"/> 
            <glyph glyph-name="%" unicode="&#x25;" horiz-adv-x="862" d=" M307,372 Q137,372 88.5,424 Q40,476 40,566 Q40,656 89.5,708 Q139,760 224,760 Q310,760 359,708.5 Q408,657 408,566 Q408,476 307,372 M224,416 Q360,416 360,566 Q360,639 324.5,677.5 Q289,716 222,716 Q89,716 89,566 Q89,494 123.5,455 Q158,416 224,416 M183,0 L122,0 L711,744 L771,744 M761,-14 Q591,-14 542.5,38 Q494,90 494,180 Q494,270 543.5,322 Q593,374 678,374 Q764,374 813,322.5 Q862,271 862,180 Q862,90 761,-14 M678,30 Q814,30 814,180 Q814,253 778.5,291.5 Q743,330 676,330 Q543,330 543,180 Q543,108 577.5,69 Q612,30 678,30"/> 
            <glyph glyph-name="&amp;" unicode="&#x26;" horiz-adv-x="628" d=" M628,0 L564,0 L502,70 Q461,33 398.5,10.5 Q336,-12 276,-12 Q171,-12 113,42.5 Q55,97 55,180 Q55,313 218,386 Q186,423 176,435 Q166,447 147.5,475 Q129,503 123,526 Q117,549 117,578 Q117,663 175,709.5 Q233,756 319,756 Q403,756 456,712 Q509,668 509,588 Q509,513 461.5,464 Q414,415 300,368 L505,139 Q570,214 570,355 L570,444 L620,444 L620,354 Q620,281 598.5,214.5 Q577,148 539,106 M271,403 Q373,442 417.5,482 Q462,522 462,587 Q462,641 424.5,676 Q387,711 319,711 Q245,711 206,674 Q167,637 167,578 Q167,535 189,500 Q211,465 271,403 M471,105 L249,351 Q173,318 141,277 Q109,236 109,181 Q109,120 150.5,78 Q192,36 277,36 Q328,36 382,55 Q436,74 471,105"/> 
            <glyph glyph-name="'" unicode="&#x27;" horiz-adv-x="131" d=" M123,576 L80,576 L72,763 L131,763"/> 
            <glyph glyph-name="(" unicode="&#x28;" horiz-adv-x="246" d=" M246,-26 L246,-74 Q207,-73 174,-54 Q141,-35 111,8.5 Q81,52 63.5,136 Q46,220 46,337 Q46,432 58,505 Q70,578 89,622 Q108,666 135,694 Q162,722 188.5,732.5 Q215,743 246,744 L246,696 Q225,695 207,687 Q189,679 168,655 Q147,631 132.5,593.5 Q118,556 108,490 Q98,424 98,337 Q98,230 112,154.5 Q126,79 149.5,42.5 Q173,6 196.5,-9.5 Q220,-25 246,-26"/> 
            <glyph glyph-name=")" unicode="&#x29;" horiz-adv-x="233" d=" M33,-74 L33,-26 Q59,-25 82.5,-9.5 Q106,6 129.5,42.5 Q153,79 167,154.5 Q181,230 181,337 Q181,424 171,490 Q161,556 146.5,593.5 Q132,631 111,655 Q90,679 72,687 Q54,695 33,696 L33,744 Q64,743 90.5,732.5 Q117,722 144,694 Q171,666 190,622 Q209,578 221,505 Q233,432 233,337 Q233,220 215.5,136 Q198,52 168,8.5 Q138,-35 105,-54 Q72,-73 33,-74"/> 
            <glyph glyph-name="*" unicode="&#x2A;" horiz-adv-x="486" d=" M424,384 L377,349 L276,522 L173,349 L127,384 L252,538 L65,586 L83,640 L263,564 L248,763 L303,763 L289,564 L471,639 L486,585 L300,537"/> 
            <glyph glyph-name="+" unicode="&#x2B;" horiz-adv-x="512" d=" M310,49 L258,49 L258,270 L60,270 L60,321 L258,321 L258,540 L310,540 L310,321 L512,321 L512,270 L310,270"/> 
            <glyph glyph-name="," unicode="&#x2C;" horiz-adv-x="154" d=" M55,-53 L96,104 L154,104 L108,-67 Q100,-91 80,-91 Q64,-91 57.5,-80 Q51,-69 55,-53"/> 
            <glyph glyph-name="-" unicode="&#x2D;" horiz-adv-x="337" d=" M337,302 L66,302 L66,353 L337,353"/> 
            <glyph glyph-name="." unicode="&#x2E;" horiz-adv-x="144" d=" M105,-9 Q88,-9 77.5,2.5 Q67,14 67,34 Q67,54 77.5,65.5 Q88,77 105,77 Q123,77 133.5,65.5 Q144,54 144,34 Q144,14 133.5,2.5 Q123,-9 105,-9"/> 
            <glyph glyph-name="/" unicode="&#x2F;" horiz-adv-x="386" d=" M78,0 L24,0 L335,744 L386,744"/> 
            <glyph glyph-name="0" unicode="&#x30;" horiz-adv-x="512" d=" M463,227 L463,514 Q463,609 423,656.5 Q383,704 296,704 Q124,704 124,514 L124,227 Q124,37 297,37 Q463,37 463,227 M512,513 L512,228 Q512,111 456.5,50 Q401,-11 296,-11 Q190,-11 132,50 Q74,111 74,225 L74,516 Q74,630 132,691 Q190,752 296,752 Q401,752 456.5,691 Q512,630 512,513"/> 
            <glyph glyph-name="1" unicode="&#x31;" horiz-adv-x="536" d=" M536,0 L75,0 L75,51 L299,51 L299,692 L238,692 Q168,692 132,674 L119,723 Q160,744 234,744 L298,744 Q328,744 340.5,732 Q353,720 353,690 L353,51 L536,51"/> 
            <glyph glyph-name="2" unicode="&#x32;" horiz-adv-x="517" d=" M517,0 L103,0 Q87,0 77.5,10.5 Q68,21 68,38 Q68,63 86,79 L347,333 Q408,393 436.5,443.5 Q465,494 465,551 Q465,628 420.5,664 Q376,700 304,700 Q228,700 115,663 L84,653 L73,703 L101,712 Q221,751 303,751 Q395,751 455,703 Q515,655 515,550 Q515,425 386,300 L123,48 L517,48"/> 
            <glyph glyph-name="3" unicode="&#x33;" horiz-adv-x="531" d=" M433,290 L376,351 L241,351 L241,397 L376,397 L421,461 Q459,516 459,569 Q459,630 421,665 Q383,700 302,700 Q247,700 119,665 L86,656 L74,704 L110,715 Q229,751 303,751 Q403,751 456,703.5 Q509,656 509,570 Q509,505 466,445 L417,376 L479,312 Q531,257 531,185 Q531,97 470.5,44.5 Q410,-8 307,-8 Q221,-8 93,30 L59,40 L71,90 L104,80 Q237,41 307,41 Q394,41 437,79 Q480,117 480,184 Q480,240 433,290"/> 
            <glyph glyph-name="4" unicode="&#x34;" horiz-adv-x="559" d=" M469,0 L419,0 L419,147 L79,147 Q44,147 44,181 Q44,199 59,223 L381,720 Q400,750 429,750 Q469,750 469,707 L469,193 L559,193 L559,147 L469,147 M419,193 L419,693 L95,193"/> 
            <glyph glyph-name="5" unicode="&#x35;" horiz-adv-x="529" d=" M100,27 L69,36 L79,86 L112,76 Q228,41 290,41 Q382,41 430,94.5 Q478,148 478,236 Q478,418 293,418 Q228,418 150,394 L100,379 L100,744 L498,744 L498,692 L147,692 L147,440 Q240,467 299,467 Q407,467 468,409.5 Q529,352 529,236 Q529,125 465,58.5 Q401,-8 291,-8 Q219,-8 100,27"/> 
            <glyph glyph-name="6" unicode="&#x36;" horiz-adv-x="529" d=" M503,657 L471,666 Q347,701 289,701 Q120,701 120,519 L120,427 Q232,465 294,465 Q410,465 469.5,405 Q529,345 529,234 Q529,129 470,61.5 Q411,-6 303,-6 Q195,-6 132.5,61 Q70,128 70,239 L70,519 Q70,628 127,689 Q184,750 287,750 Q353,750 480,716 L513,707 M120,383 L120,243 Q120,150 168,96.5 Q216,43 305,43 Q388,43 433,95 Q478,147 478,234 Q478,415 289,415 Q238,415 120,383"/> 
            <glyph glyph-name="7" unicode="&#x37;" horiz-adv-x="534" d=" M252,0 L197,0 L484,695 L73,695 L73,744 L494,744 Q534,744 534,706 Q534,687 524,665"/> 
            <glyph glyph-name="8" unicode="&#x38;" horiz-adv-x="533" d=" M423,376 L484,308 Q533,253 533,182 Q533,95 469,43 Q405,-9 295,-9 Q183,-9 117.5,42.5 Q52,94 52,182 Q52,253 104,311 L162,376 L114,441 Q73,498 73,569 Q73,652 131,702 Q189,752 291,752 Q394,752 452.5,702 Q511,652 511,569 Q511,497 471,443 M435,289 L381,349 L203,349 L148,289 Q103,240 103,181 Q103,116 153,77 Q203,38 294,38 Q386,38 433.5,77 Q481,116 481,182 Q481,239 435,289 M381,396 L425,458 Q461,509 461,569 Q461,629 418,666.5 Q375,704 291,704 Q207,704 165,666.5 Q123,629 123,569 Q123,517 159,458 L204,396"/> 
            <glyph glyph-name="9" unicode="&#x39;" horiz-adv-x="516" d=" M466,225 L466,317 Q354,279 292,279 Q176,279 116.5,339 Q57,399 57,510 Q57,615 116,682.5 Q175,750 283,750 Q391,750 453.5,683 Q516,616 516,505 L516,225 Q516,116 459,55 Q402,-6 299,-6 Q233,-6 106,28 L73,37 L83,87 L115,78 Q239,43 297,43 Q466,43 466,225 M466,361 L466,501 Q466,594 418,647.5 Q370,701 281,701 Q197,701 152.5,649 Q108,597 108,510 Q108,423 152.5,376 Q197,329 297,329 Q348,329 466,361"/> 
            <glyph glyph-name=":" unicode="&#x3A;" horiz-adv-x="144" d=" M105,-9 Q88,-9 77.5,2.5 Q67,14 67,34 Q67,54 77.5,65.5 Q88,77 105,77 Q123,77 133.5,65.5 Q144,54 144,34 Q144,14 133.5,2.5 Q123,-9 105,-9 M105,451 Q88,451 77.5,462.5 Q67,474 67,494 Q67,514 77.5,525.5 Q88,537 105,537 Q123,537 133.5,525.5 Q144,514 144,494 Q144,474 133.5,462.5 Q123,451 105,451"/> 
            <glyph glyph-name=";" unicode="&#x3B;" horiz-adv-x="159" d=" M55,-53 L96,104 L154,104 L108,-67 Q100,-91 80,-91 Q64,-91 57.5,-80 Q51,-69 55,-53 M120,451 Q103,451 92.5,462.5 Q82,474 82,494 Q82,514 92.5,525.5 Q103,537 120,537 Q138,537 148.5,525.5 Q159,514 159,494 Q159,474 148.5,462.5 Q138,451 120,451"/> 
            <glyph glyph-name="&lt;" unicode="&#x3C;" horiz-adv-x="523" d=" M523,69 L75,255 Q49,267 49,296 Q49,323 76,335 L523,522 L523,463 L97,295 L523,126"/> 
            <glyph glyph-name="=" unicode="&#x3D;" horiz-adv-x="512" d=" M512,358 L60,358 L60,413 L512,413 M512,186 L60,186 L60,241 L512,241"/> 
            <glyph glyph-name="&gt;" unicode="&#x3E;" horiz-adv-x="523" d=" M497,255 L49,69 L49,126 L475,294 L49,463 L49,522 L496,335 Q523,323 523,296 Q523,267 497,255"/> 
            <glyph glyph-name="?" unicode="&#x3F;" horiz-adv-x="411" d=" M242,234 L195,225 L195,297 Q195,337 223,366 L298,447 Q335,487 349,515 Q363,543 363,587 Q363,638 329.5,669 Q296,700 231,700 Q157,700 82,675 L52,665 L42,711 L74,721 Q157,747 232,747 Q314,747 362.5,705 Q411,663 411,588 Q411,535 393.5,499 Q376,463 339,422 L242,319 M219,-9 Q202,-9 191.5,2.5 Q181,14 181,34 Q181,54 191.5,65.5 Q202,77 219,77 Q237,77 247.5,65.5 Q258,54 258,34 Q258,14 247.5,2.5 Q237,-9 219,-9"/> 
            <glyph glyph-name="@" unicode="&#x40;" horiz-adv-x="829" d=" M740,-3 L699,17 Q677,27 656,27 Q626,27 560.5,8.5 Q495,-10 428,-10 Q273,-10 181.5,94 Q90,198 90,354 Q90,529 200,640.5 Q310,752 477,752 Q630,752 729.5,657 Q829,562 829,409 Q829,299 775.5,231 Q722,163 647,163 Q624,163 592,173 Q560,183 546,183 Q525,183 484,175 Q443,167 420,167 Q348,167 309,212.5 Q270,258 270,332 Q270,423 322.5,486 Q375,549 468,549 Q512,549 579,540 L584,576 L630,576 L583,224 Q589,219 609,212.5 Q629,206 649,206 Q705,206 744,259.5 Q783,313 783,410 Q783,543 696.5,624.5 Q610,706 477,706 Q325,706 232,608.5 Q139,511 139,354 Q139,212 217.5,123.5 Q296,35 433,35 Q488,35 562,55.5 Q636,76 660,76 Q689,76 717,60 L758,35 M537,226 L574,497 Q519,506 468,506 Q393,506 356,455.5 Q319,405 319,330 Q319,278 346.5,244.5 Q374,211 429,211 Q459,211 537,226"/> 
            <glyph glyph-name="A" unicode="&#x41;" horiz-adv-x="640" d=" M640,0 L584,0 L518,177 L139,177 L73,0 L20,0 L289,718 Q301,751 332,751 Q364,751 375,720 M503,223 L332,694 L155,223"/> 
            <glyph glyph-name="B" unicode="&#x42;" horiz-adv-x="602" d=" M395,0 L140,0 Q85,0 85,53 L85,693 Q85,744 138,744 L389,744 Q475,744 524,700 Q573,656 573,571 Q573,503 534,446 L485,377 L550,308 Q602,253 602,181 Q602,97 547,48.5 Q492,0 395,0 M439,397 L483,461 Q518,512 518,571 Q518,699 384,699 L136,699 L136,397 M499,289 L439,351 L136,351 L136,46 L397,46 Q470,46 509,81 Q548,116 548,177 Q548,237 499,289"/> 
            <glyph glyph-name="C" unicode="&#x43;" horiz-adv-x="612" d=" M612,40 L570,27 Q457,-8 380,-8 Q235,-8 148.5,86 Q62,180 62,370 Q62,556 150.5,652 Q239,748 380,748 Q457,748 570,713 L612,700 L602,650 L560,663 Q449,697 381,697 Q257,697 187,616 Q117,535 117,370 Q117,205 187.5,124 Q258,43 382,43 Q450,43 560,77 L602,90"/> 
            <glyph glyph-name="D" unicode="&#x44;" horiz-adv-x="655" d=" M334,0 L141,0 Q85,0 85,53 L85,691 Q85,744 141,744 L337,744 Q482,744 568.5,644.5 Q655,545 655,370 Q655,196 567,98 Q479,0 334,0 M138,49 L331,49 Q460,49 531,133 Q602,217 602,370 Q602,520 528.5,608.5 Q455,697 324,697 L138,697"/> 
            <glyph glyph-name="E" unicode="&#x45;" horiz-adv-x="541" d=" M541,0 L141,0 Q85,0 85,53 L85,691 Q85,744 141,744 L538,744 L538,695 L138,695 L138,405 L490,405 L490,357 L138,357 L138,49 L541,49"/> 
            <glyph glyph-name="F" unicode="&#x46;" horiz-adv-x="528" d=" M496,343 L137,343 L137,0 L85,0 L85,691 Q85,744 141,744 L528,744 L528,695 L137,695 L137,390 L496,390"/> 
            <glyph glyph-name="G" unicode="&#x47;" horiz-adv-x="640" d=" M591,67 L591,296 L405,296 L405,342 L587,342 Q640,342 640,290 L640,76 Q640,50 628.5,38 Q617,26 589,18 Q497,-8 402,-8 Q249,-8 155.5,86 Q62,180 62,369 Q62,555 154.5,651 Q247,747 395,747 Q472,747 596,711 L638,699 L627,648 L582,661 Q463,696 394,696 Q262,696 188.5,615 Q115,534 115,369 Q115,206 193.5,123 Q272,40 403,40 Q494,40 591,67"/> 
            <glyph glyph-name="H" unicode="&#x48;" horiz-adv-x="614" d=" M614,0 L564,0 L564,355 L136,355 L136,0 L85,0 L85,744 L136,744 L136,402 L564,402 L564,744 L614,744"/> 
            <glyph glyph-name="I" unicode="&#x49;" horiz-adv-x="138" d=" M138,0 L85,0 L85,744 L138,744"/> 
            <glyph glyph-name="J" unicode="&#x4A;" horiz-adv-x="275" d=" M222,168 L222,744 L275,744 L275,167 Q275,83 234,39.5 Q193,-4 119,-4 Q84,-4 19,11 L27,62 Q87,47 120,47 Q176,47 199,74.5 Q222,102 222,168"/> 
            <glyph glyph-name="K" unicode="&#x4B;" horiz-adv-x="602" d=" M602,0 L546,0 L336,445 L194,276 Q155,228 145,206 Q135,184 135,140 L135,0 L85,0 L85,744 L135,744 L134,272 L517,744 L587,744 L374,490"/> 
            <glyph glyph-name="L" unicode="&#x4C;" horiz-adv-x="511" d=" M511,0 L139,0 Q85,0 85,53 L85,744 L138,744 L138,50 L511,50"/> 
            <glyph glyph-name="M" unicode="&#x4D;" horiz-adv-x="763" d=" M763,0 L711,0 L711,690 L459,24 Q449,-3 421,-3 Q392,-3 382,24 L135,690 L135,0 L85,0 L85,702 Q85,749 131,749 Q170,749 186,707 L422,60 L666,707 Q681,749 719,749 Q763,749 763,702"/> 
            <glyph glyph-name="N" unicode="&#x4E;" horiz-adv-x="637" d=" M550,23 L135,685 L135,0 L85,0 L85,706 Q85,751 126,751 Q155,751 173,723 L588,62 L588,744 L637,744 L637,40 Q637,-5 596,-5 Q568,-5 550,23"/> 
            <glyph glyph-name="O" unicode="&#x4F;" horiz-adv-x="713" d=" M533,-8 Q233,-8 144,91.5 Q55,191 55,370 Q55,548 146,648 Q237,748 387,748 Q535,748 624,648 Q713,548 713,370 Q713,189 533,-8 M385,39 Q514,39 586,125 Q658,211 658,370 Q658,527 586,613.5 Q514,700 386,700 Q257,700 182.5,613.5 Q108,527 108,370 Q108,212 182.5,125.5 Q257,39 385,39"/> 
            <glyph glyph-name="P" unicode="&#x50;" horiz-adv-x="567" d=" M135,0 L85,0 L85,692 Q85,744 139,744 L361,744 Q451,744 509,684 Q567,624 567,523 Q567,421 506.5,361.5 Q446,302 349,302 L135,302 M135,348 L349,348 Q427,348 472,394.5 Q517,441 517,524 Q517,604 473,651 Q429,698 356,698 L135,698"/> 
            <glyph glyph-name="Q" unicode="&#x51;" horiz-adv-x="712" d=" M697,-66 L677,-66 Q612,-66 529.5,-33 Q447,0 392,0 Q238,0 146.5,95.5 Q55,191 55,370 Q55,548 146,648 Q237,748 387,748 Q535,748 623.5,648.5 Q712,549 712,370 Q712,233 662,148.5 Q612,64 512,23 Q599,-21 677,-21 L697,-21 M387,46 Q516,46 587.5,128.5 Q659,211 659,370 Q659,527 586.5,613.5 Q514,700 386,700 Q256,700 181.5,613.5 Q107,527 107,370 Q107,213 182,129.5 Q257,46 387,46"/> 
            <glyph glyph-name="R" unicode="&#x52;" horiz-adv-x="608" d=" M608,0 L550,0 L409,311 L137,311 L137,0 L85,0 L85,693 Q85,720 97,732 Q109,744 136,744 L382,744 Q472,744 522.5,694 Q573,644 573,550 Q573,479 520,408 L458,326 M421,357 L466,420 Q517,495 517,549 Q517,698 374,698 L137,698 L137,357"/> 
            <glyph glyph-name="S" unicode="&#x53;" horiz-adv-x="559" d=" M104,36 L65,49 L78,100 L116,87 Q250,41 340,41 Q410,41 458,78 Q506,115 506,190 Q506,247 476,280.5 Q446,314 379,329 L236,361 Q66,400 66,551 Q66,648 130,698.5 Q194,749 285,749 Q379,749 515,707 L554,695 L542,643 L503,656 Q371,700 285,700 Q214,700 166,662.5 Q118,625 118,551 Q118,494 148,461.5 Q178,429 244,414 L388,381 Q559,343 559,191 Q559,94 495,43 Q431,-8 340,-8 Q234,-8 104,36"/> 
            <glyph glyph-name="T" unicode="&#x54;" horiz-adv-x="563" d=" M326,0 L272,0 L272,695 L35,695 L35,744 L563,744 L563,695 L326,695"/> 
            <glyph glyph-name="U" unicode="&#x55;" horiz-adv-x="628" d=" M575,261 L575,744 L628,744 L628,261 Q628,132 557,59 Q486,-14 354,-14 Q222,-14 151,59 Q80,132 80,261 L80,744 L133,744 L133,261 Q133,152 188.5,93.5 Q244,35 354,35 Q575,35 575,261"/> 
            <glyph glyph-name="V" unicode="&#x56;" horiz-adv-x="629" d=" M327,59 L573,744 L629,744 L363,23 Q353,-5 325,-5 Q296,-5 286,23 L25,744 L83,744"/> 
            <glyph glyph-name="W" unicode="&#x57;" horiz-adv-x="865" d=" M688,59 L817,744 L865,744 L729,28 Q723,-6 689,-6 Q657,-6 648,24 L449,679 L248,24 Q239,-6 207,-6 Q173,-6 167,28 L35,744 L87,744 L212,60 L413,716 Q422,744 451,744 Q481,744 489,716"/> 
            <glyph glyph-name="X" unicode="&#x58;" horiz-adv-x="609" d=" M609,0 L546,0 L324,339 L101,0 L40,0 L292,376 L43,744 L106,744 L325,415 L542,744 L601,744 L357,378"/> 
            <glyph glyph-name="Y" unicode="&#x59;" horiz-adv-x="615" d=" M348,0 L295,0 L295,322 L25,744 L86,744 L324,371 L555,744 L615,744 L348,324"/> 
            <glyph glyph-name="Z" unicode="&#x5A;" horiz-adv-x="566" d=" M566,0 L93,0 Q55,0 55,42 Q55,59 69,78 L511,697 L67,697 L67,744 L523,744 Q560,744 560,702 Q560,682 548,666 L107,47 L566,47"/> 
            <glyph glyph-name="[" unicode="&#x5B;" horiz-adv-x="244" d=" M244,-65 L81,-65 L81,744 L244,744 L244,697 L131,697 L131,-19 L244,-19"/> 
            <glyph glyph-name="\" unicode="&#x5C;" horiz-adv-x="386" d=" M386,0 L332,0 L24,744 L75,744"/> 
            <glyph glyph-name="]" unicode="&#x5D;" horiz-adv-x="196" d=" M196,-65 L33,-65 L33,-19 L146,-19 L146,697 L33,697 L33,744 L196,744"/> 
            <glyph glyph-name="^" unicode="&#x5E;" horiz-adv-x="511" d=" M511,43 L454,43 L290,484 L127,43 L73,43 L254,514 Q264,543 291,543 Q317,543 328,514"/> 
            <glyph glyph-name="_" unicode="&#x5F;" horiz-adv-x="502" d=" M502,-160 L-2,-160 L-2,-111 L502,-111"/> 
            <glyph glyph-name="`" unicode="&#x60;" horiz-adv-x="374" d=" M329,649 L205,763 L283,763 L365,683 Q374,675 374,662 Q374,653 367,646 Q360,639 350,639 Q339,639 329,649"/> 
            <glyph glyph-name="a" unicode="&#x61;" horiz-adv-x="551" d=" M531,-5 L491,19 Q457,39 417,29 L374,18 Q272,-7 225,-7 Q146,-7 101.5,32 Q57,71 57,140 Q57,223 113.5,259.5 Q170,296 261,296 L439,296 L439,371 Q439,501 299,501 Q233,501 125,469 L91,459 L80,507 L113,516 Q240,550 300,550 Q385,550 436,506.5 Q487,463 487,371 L487,72 L551,33 M439,74 L439,251 L260,251 Q107,251 107,141 Q107,38 233,38 Q276,38 370,59"/> 
            <glyph glyph-name="b" unicode="&#x62;" horiz-adv-x="532" d=" M129,467 L129,71 Q237,45 291,45 Q390,45 436,105.5 Q482,166 482,271 Q482,498 296,498 Q242,498 129,467 M80,79 L80,759 L129,770 L129,511 Q240,548 303,548 Q417,548 474.5,476.5 Q532,405 532,270 Q532,145 468,70.5 Q404,-4 293,-4 Q220,-4 128,22 Q103,29 91.5,41.5 Q80,54 80,79"/> 
            <glyph glyph-name="c" unicode="&#x63;" horiz-adv-x="474" d=" M474,30 L440,21 Q341,-5 289,-5 Q180,-5 117.5,63.5 Q55,132 55,272 Q55,405 118.5,477 Q182,549 289,549 Q344,549 440,523 L474,514 L464,465 L431,473 Q315,501 291,501 Q107,501 107,272 Q107,44 293,44 Q338,44 431,70 L464,79"/> 
            <glyph glyph-name="d" unicode="&#x64;" horiz-adv-x="506" d=" M458,71 L458,467 Q346,497 292,499 Q196,499 151,438 Q106,377 106,271 Q106,167 152,106 Q198,45 295,45 Q354,45 458,71 M458,511 L458,759 L506,770 L506,79 Q506,36 461,24 Q356,-4 290,-4 Q178,-4 116.5,68 Q55,140 55,270 Q55,402 116.5,475 Q178,548 290,548 Q350,548 458,511"/> 
            <glyph glyph-name="e" unicode="&#x65;" horiz-adv-x="525" d=" M108,296 L472,296 Q472,393 426.5,450.5 Q381,508 290,508 Q209,508 161,451 Q113,394 108,296 M515,39 L473,25 Q381,-6 305,-6 Q191,-6 123,65 Q55,136 55,271 Q55,409 122,480.5 Q189,552 291,552 Q399,552 462,484.5 Q525,417 525,284 Q525,249 494,249 L108,249 Q112,148 167,96 Q222,44 308,44 Q372,44 462,73 L505,87"/> 
            <glyph glyph-name="f" unicode="&#x66;" horiz-adv-x="369" d=" M170,0 L120,0 L120,488 L30,488 L30,534 L120,534 L120,596 Q120,680 159,722.5 Q198,765 269,765 Q304,765 369,751 L360,702 Q305,716 268,716 Q214,716 192,688 Q170,660 170,594 L170,534 L343,534 L343,488 L170,488"/> 
            <glyph glyph-name="g" unicode="&#x67;" horiz-adv-x="551" d=" M177,100 L386,100 Q463,100 504,67.5 Q545,35 545,-20 Q545,-95 479,-138 Q413,-181 277,-181 Q181,-181 119,-146 Q57,-111 57,-39 Q57,16 93,60 L143,121 Q168,152 168,171 Q168,209 122,241 Q50,290 50,376 Q50,457 109,500 Q168,543 270,543 L337,543 Q402,543 434,552 L540,581 L551,538 L424,505 Q427,503 431,500 Q435,497 446,485.5 Q457,474 465.5,460.5 Q474,447 481,424.5 Q488,402 488,377 Q488,295 430,252 Q372,209 268,209 Q249,209 230,211.5 Q211,214 202,216 L192,219 Q211,201 211,171 Q211,154 205,140.5 Q199,127 177,100 M439,376 Q439,500 269,500 Q99,500 99,376 Q99,247 269,247 Q346,247 392.5,278.5 Q439,310 439,376 M384,56 L144,56 Q105,13 105,-38 Q105,-89 153.5,-114 Q202,-139 282,-139 Q390,-139 443,-108 Q496,-77 496,-22 Q496,56 384,56"/> 
            <glyph glyph-name="h" unicode="&#x68;" horiz-adv-x="487" d=" M487,0 L438,0 L438,352 Q438,500 295,500 Q235,500 129,467 L129,0 L80,0 L80,759 L129,770 L129,510 Q241,548 300,548 Q398,548 442.5,495.5 Q487,443 487,355"/> 
            <glyph glyph-name="i" unicode="&#x69;" horiz-adv-x="152" d=" M140,0 L88,0 L88,544 L140,544 M113,680 Q96,680 85.5,691.5 Q75,703 75,723 Q75,743 85.5,754.5 Q96,766 113,766 Q131,766 141.5,754.5 Q152,743 152,723 Q152,703 141.5,691.5 Q131,680 113,680"/> 
            <glyph glyph-name="j" unicode="&#x6A;" horiz-adv-x="169" d=" M15,-181 L15,-134 Q105,-134 105,-18 L105,544 L156,544 L156,-16 Q156,-94 118.5,-137.5 Q81,-181 15,-181 M130,680 Q113,680 102.5,691.5 Q92,703 92,723 Q92,743 102.5,754.5 Q113,766 130,766 Q148,766 158.5,754.5 Q169,743 169,723 Q169,703 158.5,691.5 Q148,680 130,680"/> 
            <glyph glyph-name="k" unicode="&#x6B;" horiz-adv-x="508" d=" M508,0 L449,0 L280,322 L175,207 Q151,181 139.5,157.5 Q128,134 128,94 L128,0 L80,0 L80,759 L128,770 L128,216 L426,544 L491,544 L320,358"/> 
            <glyph glyph-name="l" unicode="&#x6C;" horiz-adv-x="131" d=" M131,0 L80,0 L80,758 L131,770"/> 
            <glyph glyph-name="m" unicode="&#x6D;" horiz-adv-x="775" d=" M775,0 L726,0 L726,360 Q726,426 697,462 Q668,498 598,498 Q538,498 436,459 Q455,424 455,364 L455,0 L404,0 L404,361 Q404,500 273,500 Q213,500 130,473 L130,0 L80,0 L80,462 Q80,487 91,500.5 Q102,514 127,522 Q203,548 278,548 Q365,548 412,498 Q522,548 602,548 Q691,548 733,499 Q775,450 775,365"/> 
            <glyph glyph-name="n" unicode="&#x6E;" horiz-adv-x="492" d=" M492,0 L443,0 L443,348 Q443,498 292,498 Q226,498 130,473 L130,0 L80,0 L80,465 Q80,490 90.5,502.5 Q101,515 126,522 Q222,548 297,548 Q396,548 444,494.5 Q492,441 492,353"/> 
            <glyph glyph-name="o" unicode="&#x6F;" horiz-adv-x="544" d=" M300,-6 Q185,-6 120,67.5 Q55,141 55,272 Q55,404 122.5,477 Q190,550 302,550 Q415,550 479.5,477.5 Q544,405 544,272 Q544,140 478.5,67 Q413,-6 300,-6 M208,39 Q394,39 443.5,100 Q493,161 493,272 Q493,382 442.5,443.5 Q392,505 300,505 Q208,505 158,443.5 Q108,382 108,272 Q108,160 208,39"/> 
            <glyph glyph-name="p" unicode="&#x70;" horiz-adv-x="531" d=" M128,473 L128,78 Q233,47 294,45 Q390,45 435,106 Q480,167 480,273 Q480,377 434,438 Q388,499 291,499 Q232,499 128,473 M128,-176 L80,-187 L80,465 Q80,508 125,520 Q230,548 296,548 Q408,548 469.5,476 Q531,404 531,274 Q531,142 469.5,69 Q408,-4 296,-4 Q230,-4 128,31"/> 
            <glyph glyph-name="q" unicode="&#x71;" horiz-adv-x="507" d=" M458,77 L458,473 Q350,499 296,499 Q197,499 151,438.5 Q105,378 105,273 Q105,46 291,46 Q345,46 458,77 M507,-175 L458,-186 L458,33 Q347,-4 284,-4 Q170,-4 112.5,67.5 Q55,139 55,274 Q55,399 119,473.5 Q183,548 294,548 Q367,548 459,522 Q484,515 495.5,502.5 Q507,490 507,465"/> 
            <glyph glyph-name="r" unicode="&#x72;" horiz-adv-x="330" d=" M130,0 L80,0 L80,465 Q80,511 128,523 Q217,548 330,548 L330,496 Q219,496 130,471"/> 
            <glyph glyph-name="s" unicode="&#x73;" horiz-adv-x="469" d=" M313,237 L207,256 Q141,268 104,304 Q67,340 67,398 Q67,472 118,511 Q169,550 243,550 Q332,550 437,518 L469,509 L458,460 L428,468 Q318,501 242,501 Q188,501 153.5,475.5 Q119,450 119,400 Q119,361 142.5,337.5 Q166,314 222,304 L329,285 Q394,274 430.5,237 Q467,200 467,144 Q467,70 416,31.5 Q365,-7 290,-7 Q217,-7 97,26 L65,35 L76,85 L106,76 Q219,42 291,42 Q347,42 381.5,67 Q416,92 416,142 Q416,181 393,204 Q370,227 313,237"/> 
            <glyph glyph-name="t" unicode="&#x74;" horiz-adv-x="361" d=" M352,57 L361,8 Q298,-6 258,-6 Q186,-6 149.5,37.5 Q113,81 113,163 L113,488 L25,488 L25,534 L113,534 L113,676 L163,686 L163,534 L349,534 L349,488 L163,488 L163,166 Q163,100 185.5,71 Q208,42 261,42 Q289,42 352,57"/> 
            <glyph glyph-name="u" unicode="&#x75;" horiz-adv-x="492" d=" M442,71 L442,544 L492,544 L492,79 Q492,54 481.5,41.5 Q471,29 446,22 Q350,-4 275,-4 Q176,-4 128,49.5 Q80,103 80,191 L80,544 L129,544 L129,196 Q129,46 280,46 Q346,46 442,71"/> 
            <glyph glyph-name="v" unicode="&#x76;" horiz-adv-x="493" d=" M259,45 L438,544 L493,544 L301,24 Q288,-9 257,-9 Q225,-9 214,24 L30,544 L84,544"/> 
            <glyph glyph-name="w" unicode="&#x77;" horiz-adv-x="736" d=" M586,42 L686,544 L736,544 L628,28 Q620,-10 585,-10 Q553,-10 541,25 L388,482 L230,24 Q219,-9 185,-9 Q149,-9 141,28 L40,544 L93,544 L188,42 L353,519 Q360,546 389,546 Q415,546 424,519"/> 
            <glyph glyph-name="x" unicode="&#x78;" horiz-adv-x="492" d=" M492,0 L428,0 L265,241 L100,0 L40,0 L234,276 L44,544 L105,544 L266,310 L423,544 L481,544 L297,278"/> 
            <glyph glyph-name="y" unicode="&#x79;" horiz-adv-x="493" d=" M239,-56 L249,-24 L30,544 L88,544 L277,40 L438,544 L493,544 L289,-72 Q253,-181 148,-181 Q101,-181 52,-165 L60,-117 Q121,-133 149,-133 Q188,-133 207.5,-114.5 Q227,-96 239,-56"/> 
            <glyph glyph-name="z" unicode="&#x7A;" horiz-adv-x="478" d=" M478,0 L92,0 Q56,0 56,37 Q56,57 71,74 L418,499 L69,499 L69,544 L439,544 Q474,544 474,509 Q474,487 460,471 L112,45 L478,45"/> 
            <glyph glyph-name="{" unicode="&#x7B;" horiz-adv-x="239" d=" M239,-67 L209,-67 Q152,-67 117,-34 Q82,-1 82,59 Q82,103 108.5,168 Q135,233 135,263 Q135,319 69,319 L69,357 Q135,358 135,413 Q135,443 108.5,508 Q82,573 82,617 Q82,677 117,710.5 Q152,744 209,744 L239,744 L239,696 L209,696 Q130,696 130,614 Q130,574 156,510.5 Q182,447 182,414 Q182,360 133,338 Q182,316 182,262 Q182,229 156,165.5 Q130,102 130,62 Q130,-19 209,-19 L239,-19"/> 
            <glyph glyph-name="|" unicode="&#x7C;" horiz-adv-x="125" d=" M125,-180 L80,-180 L80,763 L125,763"/> 
            <glyph glyph-name="}" unicode="&#x7D;" horiz-adv-x="205" d=" M65,-67 L35,-67 L35,-19 L65,-19 Q144,-19 144,63 Q144,103 118,166 Q92,229 92,262 Q92,316 141,338 Q92,360 92,414 Q92,447 118,510.5 Q144,574 144,614 Q144,696 65,696 L35,696 L35,744 L65,744 Q122,744 157,710.5 Q192,677 192,617 Q192,573 165.5,508 Q139,443 139,413 Q139,358 205,357 L205,319 Q139,319 139,263 Q139,233 165.5,168.5 Q192,104 192,60 Q192,0 157,-33.5 Q122,-67 65,-67"/> 
            <glyph glyph-name="~" unicode="&#x7E;" horiz-adv-x="525" d=" M487,369 L525,343 Q503,288 466.5,260.5 Q430,233 390,233 Q350,233 307,263 L245,308 Q211,332 187,332 Q126,332 91,249 L54,275 Q77,330 113,357.5 Q149,385 189,385 Q232,385 273,355 L334,309 Q365,286 393,286 Q452,286 487,369"/> 
            <glyph glyph-name="¡" unicode="&#xA1;" horiz-adv-x="143" d=" M131,-186 L79,-186 L79,323 L131,333 M105,481 Q87,481 76.5,492.5 Q66,504 66,524 Q66,544 76.5,555.5 Q87,567 105,567 Q122,567 132.5,555.5 Q143,544 143,524 Q143,504 132.5,492.5 Q122,481 105,481"/> 
            <glyph glyph-name="¢" unicode="&#xA2;" horiz-adv-x="491" d=" M328,-133 L280,-133 L280,-4 Q182,4 127,72 Q72,140 72,272 Q72,397 128,468 Q184,539 280,548 L280,673 L328,673 L328,548 Q384,543 457,523 L491,514 L481,465 L448,473 Q332,501 308,501 Q124,501 124,272 Q124,44 310,44 Q355,44 448,70 L481,79 L491,30 L457,21 Q380,1 328,-4"/> 
            <glyph glyph-name="£" unicode="&#xA3;" horiz-adv-x="543" d=" M394,0 L55,0 Q36,0 36,22 Q36,46 55,46 Q139,46 175.5,89.5 Q212,133 212,200 Q212,237 192,285 L66,285 L66,331 L172,331 Q162,349 140,388 Q118,427 112.5,438 Q107,449 97,473.5 Q87,498 84.5,517 Q82,536 82,562 Q82,648 140,699.5 Q198,751 290,751 Q367,751 483,716 L516,706 L506,655 L474,665 Q357,701 292,701 Q211,701 172.5,663 Q134,625 134,562 Q134,520 146,485.5 Q158,451 186,403.5 Q214,356 225,332 L421,332 L421,287 L245,287 Q262,240 262,200 Q262,113 196,50 L390,50 Q505,50 505,143 L543,143 Q543,78 503,39 Q463,0 394,0"/> 
            <glyph glyph-name="¥" unicode="&#xA5;" horiz-adv-x="544" d=" M321,0 L268,0 L268,223 L58,223 L58,269 L268,269 L268,359 L58,359 L58,404 L242,404 L41,744 L105,744 L296,405 L484,744 L544,744 L346,404 L528,404 L528,359 L321,359 L321,269 L528,269 L528,223 L321,223"/> 
            <glyph glyph-name="¦" unicode="&#xA6;" horiz-adv-x="128" d=" M128,388 L86,388 L86,764 L128,764 M128,-180 L86,-180 L86,196 L128,196"/> 
            <glyph glyph-name="§" unicode="&#xA7;" horiz-adv-x="519" d=" M469,177 L469,241 Q469,329 427.5,376 Q386,423 285,423 Q227,423 115,388 L115,326 Q115,238 157,189.5 Q199,141 299,141 Q351,141 469,177 M469,43 L469,130 Q353,92 297,92 Q181,92 123,152 Q65,212 65,326 L65,522 Q65,628 123.5,689 Q182,750 289,750 Q363,750 482,717 L514,708 L504,658 L471,667 Q343,701 291,701 Q115,701 115,522 L115,435 Q228,472 289,472 Q519,472 519,241 L519,43 Q519,-64 459,-125 Q399,-186 294,-186 Q228,-186 102,-151 L70,-142 L81,-91 L113,-100 Q248,-138 294,-138 Q469,-138 469,43"/> 
            <glyph glyph-name="¨" unicode="&#xA8;" horiz-adv-x="436" d=" M175,680 Q158,680 147.5,691.5 Q137,703 137,723 Q137,743 147.5,754.5 Q158,766 175,766 Q193,766 203.5,754.5 Q214,743 214,723 Q214,703 203.5,691.5 Q193,680 175,680 M397,680 Q380,680 369.5,691.5 Q359,703 359,723 Q359,743 369.5,754.5 Q380,766 397,766 Q415,766 425.5,754.5 Q436,743 436,723 Q436,703 425.5,691.5 Q415,680 397,680"/> 
            <glyph glyph-name="©" unicode="&#xA9;" horiz-adv-x="857" d=" M611,188 L583,181 Q505,161 467,161 Q382,161 331.5,212 Q281,263 281,367 Q281,466 333,519.5 Q385,573 468,573 Q499,573 583,552 L611,545 L600,502 L572,509 Q498,527 469,527 Q328,527 328,367 Q328,205 470,205 Q499,205 573,223 L601,230 M464,-25 Q304,-25 189,88 Q74,201 74,370 Q74,538 188.5,647.5 Q303,757 464,757 Q628,757 742.5,648.5 Q857,540 857,370 Q857,200 742.5,87.5 Q628,-25 464,-25 M464,21 Q610,21 710.5,120 Q811,219 811,370 Q811,521 710.5,617.5 Q610,714 464,714 Q319,714 219.5,617 Q120,520 120,370 Q120,220 220.5,120.5 Q321,21 464,21"/> 
            <glyph glyph-name="ª" unicode="&#xAA;" horiz-adv-x="484" d=" M467,328 L436,344 Q411,356 364,347 L313,337 Q261,327 241,327 Q181,327 146.5,360.5 Q112,394 112,446 Q112,565 270,565 L392,565 L392,612 Q392,704 300,704 Q247,704 167,682 L138,674 L128,720 L162,729 Q248,752 301,752 Q364,752 401.5,718.5 Q439,685 439,612 L439,387 L484,362 M392,394 L392,524 L269,524 Q161,524 161,447 Q161,371 250,371 Q273,371 340,384"/> 
            <glyph glyph-name="«" unicode="&#xAB;" horiz-adv-x="497" d=" M286,93 L221,93 L64,243 Q46,259 46,280 Q46,301 63,318 L218,469 L283,469 L93,280 M497,93 L432,93 L273,243 Q255,259 255,280 Q255,301 272,318 L429,469 L491,469 L299,280"/> 
            <glyph glyph-name="¬" unicode="&#xAC;" horiz-adv-x="512" d=" M512,138 L464,138 L464,362 L60,362 L60,415 L512,415"/> 
            <glyph glyph-name="®" unicode="&#xAE;" horiz-adv-x="857" d=" M532,360 L558,399 Q577,429 577,459 Q577,492 557,511 Q537,530 505,530 L376,530 L376,360 M464,-25 Q304,-25 189,88 Q74,201 74,370 Q74,538 188.5,647.5 Q303,757 464,757 Q628,757 742.5,648.5 Q857,540 857,370 Q857,200 742.5,87.5 Q628,-25 464,-25 M464,21 Q610,21 710.5,120 Q811,219 811,370 Q811,521 710.5,617.5 Q610,714 464,714 Q319,714 219.5,617 Q120,520 120,370 Q120,220 220.5,120.5 Q321,21 464,21 M645,167 L596,167 L523,318 L376,318 L376,167 L331,167 L331,530 Q331,553 341,562.5 Q351,572 374,572 L512,572 Q561,572 592.5,540.5 Q624,509 624,459 Q624,419 601,386 L565,334"/> 
            <glyph glyph-name="¯" unicode="&#xAF;" horiz-adv-x="417" d=" M417,675 L115,675 L115,725 L417,725"/> 
            <glyph glyph-name="°" unicode="&#xB0;" horiz-adv-x="414" d=" M238,381 Q157,381 109,435 Q61,489 61,573 Q61,656 109.5,710 Q158,764 240,764 Q320,764 367,710 Q414,656 414,573 Q414,489 366,435 Q318,381 238,381 M240,425 Q300,425 333,465.5 Q366,506 366,573 Q366,639 332.5,679.5 Q299,720 239,720 Q178,720 144.5,679.5 Q111,639 111,573 Q111,507 145,466 Q179,425 240,425"/> 
            <glyph glyph-name="±" unicode="&#xB1;" horiz-adv-x="512" d=" M512,301 L308,301 L308,124 L260,124 L260,301 L60,301 L60,353 L260,353 L260,540 L308,540 L308,353 L512,353 M512,0 L60,0 L60,49 L512,49"/> 
            <glyph glyph-name="´" unicode="&#xB4;" horiz-adv-x="380" d=" M380,763 L256,649 Q246,639 235,639 Q225,639 218,646 Q211,653 211,662 Q211,675 220,683 L302,763"/> 
            <glyph glyph-name="µ" unicode="&#xB5;" horiz-adv-x="494" d=" M444,73 L444,544 L494,544 L494,82 Q494,57 484,45 Q474,33 450,26 Q351,-2 279,-2 Q236,-2 193,13.5 Q150,29 131,56 L131,-186 L82,-186 L82,544 L132,544 L132,196 Q132,125 166,86.5 Q200,48 282,48 Q347,48 444,73"/> 
            <glyph glyph-name="¶" unicode="&#xB6;" horiz-adv-x="542" d=" M542,-186 L496,-186 L496,699 L338,699 L338,-186 L291,-186 L291,229 Q176,229 114,301.5 Q52,374 52,486 Q52,599 111.5,671.5 Q171,744 284,744 L542,744"/> 
            <glyph glyph-name="·" unicode="&#xB7;" horiz-adv-x="227" d=" M188,324 Q171,324 160.5,335.5 Q150,347 150,367 Q150,387 160.5,398.5 Q171,410 188,410 Q206,410 216.5,398.5 Q227,387 227,367 Q227,347 216.5,335.5 Q206,324 188,324"/> 
            <glyph glyph-name="¸" unicode="&#xB8;" horiz-adv-x="360" d=" M182,-175 L193,-140 Q236,-156 264,-156 Q316,-156 316,-119 Q316,-76 224,-84 L222,-81 L263,0 L295,0 L269,-53 Q310,-53 335,-69.5 Q360,-86 360,-117 Q360,-150 334.5,-172 Q309,-194 265,-194 Q225,-194 182,-175"/> 
            <glyph glyph-name="º" unicode="&#xBA;" horiz-adv-x="472" d=" M371,328 Q205,328 156,385 Q107,442 107,541 Q107,639 157,696 Q207,753 290,753 Q373,753 422.5,696 Q472,639 472,541 Q472,443 371,328 M226,372 Q354,372 388.5,416 Q423,460 423,541 Q423,621 387,665.5 Q351,710 288,710 Q223,710 189.5,666 Q156,622 156,541 Q156,460 226,372"/> 
            <glyph glyph-name="»" unicode="&#xBB;" horiz-adv-x="497" d=" M479,243 L322,93 L257,93 L450,280 L260,469 L325,469 L480,318 Q497,301 497,280 Q497,259 479,243 M270,243 L111,93 L46,93 L244,280 L52,469 L114,469 L271,318 Q288,301 288,280 Q288,259 270,243"/> 
            <glyph glyph-name="¿" unicode="&#xBF;" horiz-adv-x="413" d=" M413,-153 L381,-163 Q298,-189 223,-189 Q141,-189 92.5,-147 Q44,-105 44,-30 Q44,23 61.5,59 Q79,95 116,136 L213,239 L213,324 L260,333 L260,261 Q260,221 232,192 L157,111 Q120,71 106,43 Q92,15 92,-29 Q92,-80 125.5,-111 Q159,-142 224,-142 Q298,-142 373,-117 L403,-107 M236,481 Q218,481 207.5,492.5 Q197,504 197,524 Q197,544 207.5,555.5 Q218,567 236,567 Q253,567 263.5,555.5 Q274,544 274,524 Q274,504 263.5,492.5 Q253,481 236,481"/> 
            <glyph glyph-name="À" unicode="&#xC0;" horiz-adv-x="640" d=" M640,0 L584,0 L518,177 L139,177 L73,0 L20,0 L289,718 Q301,751 332,751 Q364,751 375,720 M503,223 L332,694 L155,223 M359,821 L235,935 L313,935 L395,855 Q404,847 404,834 Q404,825 397,818 Q390,811 380,811 Q369,811 359,821"/> 
            <glyph glyph-name="Á" unicode="&#xC1;" horiz-adv-x="640" d=" M640,0 L584,0 L518,177 L139,177 L73,0 L20,0 L289,718 Q301,751 332,751 Q364,751 375,720 M503,223 L332,694 L155,223 M437,935 L313,821 Q303,811 292,811 Q282,811 275,818 Q268,825 268,834 Q268,847 277,855 L359,935"/> 
            <glyph glyph-name="Â" unicode="&#xC2;" horiz-adv-x="640" d=" M640,0 L584,0 L518,177 L139,177 L73,0 L20,0 L289,718 Q301,751 332,751 Q364,751 375,720 M503,223 L332,694 L155,223 M487,815 L422,815 L334,911 L245,815 L182,815 L297,936 Q313,952 334,952 Q355,952 371,936"/> 
            <glyph glyph-name="Ã" unicode="&#xC3;" horiz-adv-x="640" d=" M640,0 L584,0 L518,177 L139,177 L73,0 L20,0 L289,718 Q301,751 332,751 Q364,751 375,720 M503,223 L332,694 L155,223 M503,926 L540,906 Q521,859 490,835.5 Q459,812 426,812 Q388,812 353,836 L308,868 Q283,886 259,886 Q210,886 182,821 L146,842 Q165,888 196.5,911.5 Q228,935 261,935 Q300,935 332,911 L378,878 Q402,861 426,861 Q474,861 503,926"/> 
            <glyph glyph-name="Ä" unicode="&#xC4;" horiz-adv-x="640" d=" M640,0 L584,0 L518,177 L139,177 L73,0 L20,0 L289,718 Q301,751 332,751 Q364,751 375,720 M503,223 L332,694 L155,223 M222,834 Q205,834 194.5,845.5 Q184,857 184,877 Q184,897 194.5,908.5 Q205,920 222,920 Q240,920 250.5,908.5 Q261,897 261,877 Q261,857 250.5,845.5 Q240,834 222,834 M444,834 Q427,834 416.5,845.5 Q406,857 406,877 Q406,897 416.5,908.5 Q427,920 444,920 Q462,920 472.5,908.5 Q483,897 483,877 Q483,857 472.5,845.5 Q462,834 444,834"/> 
            <glyph glyph-name="Å" unicode="&#xC5;" horiz-adv-x="640" d=" M640,0 L584,0 L518,177 L139,177 L73,0 L20,0 L289,716 Q234,741 234,804 Q234,846 262,873.5 Q290,901 332,901 Q374,901 402.5,874 Q431,847 431,804 Q431,774 415.5,751 Q400,728 375,716 M503,223 L332,694 L155,223 M391,779 Q391,829 374.5,845.5 Q358,862 332,862 Q306,862 290,845.5 Q274,829 274,804 Q274,779 290,762 Q306,745 332,745 Q358,745 391,779"/> 
            <glyph glyph-name="Æ" unicode="&#xC6;" horiz-adv-x="941" d=" M941,0 L541,0 Q486,0 486,53 L486,172 L142,172 L76,0 L20,0 L297,698 Q315,744 365,744 L937,744 L937,695 L537,695 L537,405 L896,405 L896,358 L537,358 L537,49 L941,49 M486,219 L486,695 L348,695 L160,219"/> 
            <glyph glyph-name="Ç" unicode="&#xC7;" horiz-adv-x="612" d=" M612,40 L570,27 Q457,-8 380,-8 Q235,-8 148.5,86 Q62,180 62,370 Q62,556 150.5,652 Q239,748 380,748 Q457,748 570,713 L612,700 L602,650 L560,663 Q449,697 381,697 Q257,697 187,616 Q117,535 117,370 Q117,205 187.5,124 Q258,43 382,43 Q450,43 560,77 L602,90 M289,-175 L300,-140 Q343,-156 371,-156 Q423,-156 423,-119 Q423,-76 331,-84 L329,-81 L370,0 L402,0 L376,-53 Q417,-53 442,-69.5 Q467,-86 467,-117 Q467,-150 441.5,-172 Q416,-194 372,-194 Q332,-194 289,-175"/> 
            <glyph glyph-name="È" unicode="&#xC8;" horiz-adv-x="541" d=" M541,0 L141,0 Q85,0 85,53 L85,691 Q85,744 141,744 L538,744 L538,695 L138,695 L138,405 L490,405 L490,357 L138,357 L138,49 L541,49 M333,821 L209,935 L287,935 L369,855 Q378,847 378,834 Q378,825 371,818 Q364,811 354,811 Q343,811 333,821"/> 
            <glyph glyph-name="É" unicode="&#xC9;" horiz-adv-x="541" d=" M541,0 L141,0 Q85,0 85,53 L85,691 Q85,744 141,744 L538,744 L538,695 L138,695 L138,405 L490,405 L490,357 L138,357 L138,49 L541,49 M425,935 L301,821 Q291,811 280,811 Q270,811 263,818 Q256,825 256,834 Q256,847 265,855 L347,935"/> 
            <glyph glyph-name="Ê" unicode="&#xCA;" horiz-adv-x="541" d=" M541,0 L141,0 Q85,0 85,53 L85,691 Q85,744 141,744 L538,744 L538,695 L138,695 L138,405 L490,405 L490,357 L138,357 L138,49 L541,49 M466,815 L401,815 L313,911 L224,815 L161,815 L276,936 Q292,952 313,952 Q334,952 350,936"/> 
            <glyph glyph-name="Ë" unicode="&#xCB;" horiz-adv-x="541" d=" M541,0 L141,0 Q85,0 85,53 L85,691 Q85,744 141,744 L538,744 L538,695 L138,695 L138,405 L490,405 L490,357 L138,357 L138,49 L541,49 M200,833 Q183,833 172.5,844.5 Q162,856 162,876 Q162,896 172.5,907.5 Q183,919 200,919 Q218,919 228.5,907.5 Q239,896 239,876 Q239,856 228.5,844.5 Q218,833 200,833 M422,833 Q405,833 394.5,844.5 Q384,856 384,876 Q384,896 394.5,907.5 Q405,919 422,919 Q440,919 450.5,907.5 Q461,896 461,876 Q461,856 450.5,844.5 Q440,833 422,833"/> 
            <glyph glyph-name="Ì" unicode="&#xCC;" horiz-adv-x="180" d=" M138,0 L85,0 L85,744 L138,744 M135,820 L11,934 L89,934 L171,854 Q180,846 180,833 Q180,824 173,817 Q166,810 156,810 Q145,810 135,820"/> 
            <glyph glyph-name="Í" unicode="&#xCD;" horiz-adv-x="223" d=" M138,0 L85,0 L85,744 L138,744 M223,934 L99,820 Q89,810 78,810 Q68,810 61,817 Q54,824 54,833 Q54,846 63,854 L145,934"/> 
            <glyph glyph-name="Î" unicode="&#xCE;" horiz-adv-x="265" d=" M138,0 L85,0 L85,744 L138,744 M265,815 L200,815 L112,911 L23,815 L-40,815 L75,936 Q91,952 112,952 Q133,952 149,936"/> 
            <glyph glyph-name="Ï" unicode="&#xCF;" horiz-adv-x="263" d=" M138,0 L85,0 L85,744 L138,744 M2,834 Q-15,834 -25.5,845.5 Q-36,857 -36,877 Q-36,897 -25.5,908.5 Q-15,920 2,920 Q20,920 30.5,908.5 Q41,897 41,877 Q41,857 30.5,845.5 Q20,834 2,834 M224,834 Q207,834 196.5,845.5 Q186,857 186,877 Q186,897 196.5,908.5 Q207,920 224,920 Q242,920 252.5,908.5 Q263,897 263,877 Q263,857 252.5,845.5 Q242,834 224,834"/> 
            <glyph glyph-name="Ð" unicode="&#xD0;" horiz-adv-x="660" d=" M339,0 L146,0 Q90,0 90,53 L90,358 L20,358 L20,405 L90,405 L90,691 Q90,744 146,744 L342,744 Q487,744 573.5,644.5 Q660,545 660,370 Q660,196 572,98 Q484,0 339,0 M143,49 L336,49 Q465,49 536,133 Q607,217 607,370 Q607,520 533.5,608.5 Q460,697 329,697 L143,697 L143,405 L372,405 L372,358 L143,358"/> 
            <glyph glyph-name="Ñ" unicode="&#xD1;" horiz-adv-x="637" d=" M550,23 L135,685 L135,0 L85,0 L85,706 Q85,751 126,751 Q155,751 173,723 L588,62 L588,744 L637,744 L637,40 Q637,-5 596,-5 Q568,-5 550,23 M532,927 L569,907 Q550,860 519,836.5 Q488,813 455,813 Q417,813 382,837 L337,869 Q312,887 288,887 Q238,887 211,822 L175,843 Q194,889 225.5,912.5 Q257,936 290,936 Q329,936 361,912 L407,879 Q431,862 455,862 Q503,862 532,927"/> 
            <glyph glyph-name="Ò" unicode="&#xD2;" horiz-adv-x="713" d=" M533,-8 Q233,-8 144,91.5 Q55,191 55,370 Q55,548 146,648 Q237,748 387,748 Q535,748 624,648 Q713,548 713,370 Q713,189 533,-8 M385,39 Q514,39 586,125 Q658,211 658,370 Q658,527 586,613.5 Q514,700 386,700 Q257,700 182.5,613.5 Q108,527 108,370 Q108,212 182.5,125.5 Q257,39 385,39 M408,820 L284,934 L362,934 L444,854 Q453,846 453,833 Q453,824 446,817 Q439,810 429,810 Q418,810 408,820"/> 
            <glyph glyph-name="Ó" unicode="&#xD3;" horiz-adv-x="713" d=" M533,-8 Q233,-8 144,91.5 Q55,191 55,370 Q55,548 146,648 Q237,748 387,748 Q535,748 624,648 Q713,548 713,370 Q713,189 533,-8 M385,39 Q514,39 586,125 Q658,211 658,370 Q658,527 586,613.5 Q514,700 386,700 Q257,700 182.5,613.5 Q108,527 108,370 Q108,212 182.5,125.5 Q257,39 385,39 M495,934 L371,820 Q361,810 350,810 Q340,810 333,817 Q326,824 326,833 Q326,846 335,854 L417,934"/> 
            <glyph glyph-name="Ô" unicode="&#xD4;" horiz-adv-x="713" d=" M533,-8 Q233,-8 144,91.5 Q55,191 55,370 Q55,548 146,648 Q237,748 387,748 Q535,748 624,648 Q713,548 713,370 Q713,189 533,-8 M385,39 Q514,39 586,125 Q658,211 658,370 Q658,527 586,613.5 Q514,700 386,700 Q257,700 182.5,613.5 Q108,527 108,370 Q108,212 182.5,125.5 Q257,39 385,39 M540,815 L475,815 L387,911 L298,815 L235,815 L350,936 Q366,952 387,952 Q408,952 424,936"/> 
            <glyph glyph-name="Õ" unicode="&#xD5;" horiz-adv-x="713" d=" M533,-8 Q233,-8 144,91.5 Q55,191 55,370 Q55,548 146,648 Q237,748 387,748 Q535,748 624,648 Q713,548 713,370 Q713,189 533,-8 M385,39 Q514,39 586,125 Q658,211 658,370 Q658,527 586,613.5 Q514,700 386,700 Q257,700 182.5,613.5 Q108,527 108,370 Q108,212 182.5,125.5 Q257,39 385,39 M547,929 L584,909 Q565,862 534,838.5 Q503,815 470,815 Q432,815 397,839 L352,871 Q326,889 303,889 Q254,889 226,824 L190,845 Q209,891 240.5,914.5 Q272,938 305,938 Q344,938 376,914 L422,881 Q446,864 470,864 Q518,864 547,929"/> 
            <glyph glyph-name="Ö" unicode="&#xD6;" horiz-adv-x="713" d=" M533,-8 Q233,-8 144,91.5 Q55,191 55,370 Q55,548 146,648 Q237,748 387,748 Q535,748 624,648 Q713,548 713,370 Q713,189 533,-8 M385,39 Q514,39 586,125 Q658,211 658,370 Q658,527 586,613.5 Q514,700 386,700 Q257,700 182.5,613.5 Q108,527 108,370 Q108,212 182.5,125.5 Q257,39 385,39 M276,833 Q259,833 248.5,844.5 Q238,856 238,876 Q238,896 248.5,907.5 Q259,919 276,919 Q294,919 304.5,907.5 Q315,896 315,876 Q315,856 304.5,844.5 Q294,833 276,833 M498,833 Q481,833 470.5,844.5 Q460,856 460,876 Q460,896 470.5,907.5 Q481,919 498,919 Q516,919 526.5,907.5 Q537,896 537,876 Q537,856 526.5,844.5 Q516,833 498,833"/> 
            <glyph glyph-name="×" unicode="&#xD7;" horiz-adv-x="495" d=" M459,80 L284,255 L109,80 L73,117 L247,293 L73,468 L109,505 L284,330 L459,505 L495,468 L321,293 L495,117"/> 
            <glyph glyph-name="Ø" unicode="&#xD8;" horiz-adv-x="713" d=" M184,-53 L135,-53 L190,49 Q55,147 55,370 Q55,548 146,648 Q237,748 387,748 Q478,748 547,709 L593,793 L643,793 L584,685 Q713,586 713,370 Q713,189 623,90.5 Q533,-8 383,-8 Q294,-8 227,26 M214,93 L524,666 Q464,700 386,700 Q257,700 182.5,613.5 Q108,527 108,370 Q108,178 214,93 M560,641 L250,70 Q308,39 385,39 Q514,39 586,125 Q658,211 658,370 Q658,555 560,641"/> 
            <glyph glyph-name="Ù" unicode="&#xD9;" horiz-adv-x="628" d=" M575,261 L575,744 L628,744 L628,261 Q628,132 557,59 Q486,-14 354,-14 Q222,-14 151,59 Q80,132 80,261 L80,744 L133,744 L133,261 Q133,152 188.5,93.5 Q244,35 354,35 Q575,35 575,261 M380,821 L256,935 L334,935 L416,855 Q425,847 425,834 Q425,825 418,818 Q411,811 401,811 Q390,811 380,821"/> 
            <glyph glyph-name="Ú" unicode="&#xDA;" horiz-adv-x="628" d=" M575,261 L575,744 L628,744 L628,261 Q628,132 557,59 Q486,-14 354,-14 Q222,-14 151,59 Q80,132 80,261 L80,744 L133,744 L133,261 Q133,152 188.5,93.5 Q244,35 354,35 Q575,35 575,261 M470,935 L346,821 Q336,811 325,811 Q315,811 308,818 Q301,825 301,834 Q301,847 310,855 L392,935"/> 
            <glyph glyph-name="Û" unicode="&#xDB;" horiz-adv-x="628" d=" M575,261 L575,744 L628,744 L628,261 Q628,132 557,59 Q486,-14 354,-14 Q222,-14 151,59 Q80,132 80,261 L80,744 L133,744 L133,261 Q133,152 188.5,93.5 Q244,35 354,35 Q575,35 575,261 M512,815 L447,815 L359,911 L270,815 L207,815 L322,936 Q338,952 359,952 Q380,952 396,936"/> 
            <glyph glyph-name="Ü" unicode="&#xDC;" horiz-adv-x="628" d=" M575,261 L575,744 L628,744 L628,261 Q628,132 557,59 Q486,-14 354,-14 Q222,-14 151,59 Q80,132 80,261 L80,744 L133,744 L133,261 Q133,152 188.5,93.5 Q244,35 354,35 Q575,35 575,261 M248,833 Q231,833 220.5,844.5 Q210,856 210,876 Q210,896 220.5,907.5 Q231,919 248,919 Q266,919 276.5,907.5 Q287,896 287,876 Q287,856 276.5,844.5 Q266,833 248,833 M470,833 Q453,833 442.5,844.5 Q432,856 432,876 Q432,896 442.5,907.5 Q453,919 470,919 Q488,919 498.5,907.5 Q509,896 509,876 Q509,856 498.5,844.5 Q488,833 470,833"/> 
            <glyph glyph-name="Ý" unicode="&#xDD;" horiz-adv-x="615" d=" M348,0 L295,0 L295,322 L25,744 L86,744 L324,371 L555,744 L615,744 L348,324 M456,935 L332,821 Q322,811 311,811 Q301,811 294,818 Q287,825 287,834 Q287,847 296,855 L378,935"/> 
            <glyph glyph-name="Þ" unicode="&#xDE;" horiz-adv-x="567" d=" M349,170 L135,170 L135,0 L85,0 L85,744 L135,744 L135,612 L361,612 Q451,612 509,552 Q567,492 567,391 Q567,289 506.5,229.5 Q446,170 349,170 M135,216 L349,216 Q427,216 472,262.5 Q517,309 517,392 Q517,472 473,519 Q429,566 356,566 L135,566"/> 
            <glyph glyph-name="ß" unicode="&#xDF;" horiz-adv-x="511" d=" M323,0 L245,0 L245,46 L320,46 Q393,46 427.5,82 Q462,118 462,178 Q462,237 406,285 L334,345 Q312,364 312,387 Q312,403 325,422 L374,489 Q407,534 407,588 Q407,647 368.5,684.5 Q330,722 265,722 Q129,722 129,569 L129,0 L80,0 L80,569 Q80,670 132.5,719 Q185,768 266,768 Q350,768 403,721 Q456,674 456,589 Q456,526 418,471 L357,389 L440,320 Q511,257 511,179 Q511,98 459.5,49 Q408,0 323,0"/> 
            <glyph glyph-name="à" unicode="&#xE0;" horiz-adv-x="551" d=" M531,-5 L491,19 Q457,39 417,29 L374,18 Q272,-7 225,-7 Q146,-7 101.5,32 Q57,71 57,140 Q57,223 113.5,259.5 Q170,296 261,296 L439,296 L439,371 Q439,501 299,501 Q233,501 125,469 L91,459 L80,507 L113,516 Q240,550 300,550 Q385,550 436,506.5 Q487,463 487,371 L487,72 L551,33 M439,74 L439,251 L260,251 Q107,251 107,141 Q107,38 233,38 Q276,38 370,59 M315,649 L191,763 L269,763 L351,683 Q360,675 360,662 Q360,653 353,646 Q346,639 336,639 Q325,639 315,649"/> 
            <glyph glyph-name="á" unicode="&#xE1;" horiz-adv-x="551" d=" M531,-5 L491,19 Q457,39 417,29 L374,18 Q272,-7 225,-7 Q146,-7 101.5,32 Q57,71 57,140 Q57,223 113.5,259.5 Q170,296 261,296 L439,296 L439,371 Q439,501 299,501 Q233,501 125,469 L91,459 L80,507 L113,516 Q240,550 300,550 Q385,550 436,506.5 Q487,463 487,371 L487,72 L551,33 M439,74 L439,251 L260,251 Q107,251 107,141 Q107,38 233,38 Q276,38 370,59 M417,763 L293,649 Q283,639 272,639 Q262,639 255,646 Q248,653 248,662 Q248,675 257,683 L339,763"/> 
            <glyph glyph-name="â" unicode="&#xE2;" horiz-adv-x="551" d=" M531,-5 L491,19 Q457,39 417,29 L374,18 Q272,-7 225,-7 Q146,-7 101.5,32 Q57,71 57,140 Q57,223 113.5,259.5 Q170,296 261,296 L439,296 L439,371 Q439,501 299,501 Q233,501 125,469 L91,459 L80,507 L113,516 Q240,550 300,550 Q385,550 436,506.5 Q487,463 487,371 L487,72 L551,33 M439,74 L439,251 L260,251 Q107,251 107,141 Q107,38 233,38 Q276,38 370,59 M452,628 L387,628 L299,724 L210,628 L147,628 L262,749 Q278,765 299,765 Q320,765 336,749"/> 
            <glyph glyph-name="ã" unicode="&#xE3;" horiz-adv-x="551" d=" M531,-5 L491,19 Q457,39 417,29 L374,18 Q272,-7 225,-7 Q146,-7 101.5,32 Q57,71 57,140 Q57,223 113.5,259.5 Q170,296 261,296 L439,296 L439,371 Q439,501 299,501 Q233,501 125,469 L91,459 L80,507 L113,516 Q240,550 300,550 Q385,550 436,506.5 Q487,463 487,371 L487,72 L551,33 M439,74 L439,251 L260,251 Q107,251 107,141 Q107,38 233,38 Q276,38 370,59 M458,747 L495,727 Q476,680 445,656.5 Q414,633 381,633 Q342,633 308,657 L263,689 Q237,707 214,707 Q164,707 137,642 L101,663 Q120,709 151.5,732.5 Q183,756 216,756 Q255,756 287,732 L333,699 Q357,682 381,682 Q429,682 458,747"/> 
            <glyph glyph-name="ä" unicode="&#xE4;" horiz-adv-x="551" d=" M531,-5 L491,19 Q457,39 417,29 L374,18 Q272,-7 225,-7 Q146,-7 101.5,32 Q57,71 57,140 Q57,223 113.5,259.5 Q170,296 261,296 L439,296 L439,371 Q439,501 299,501 Q233,501 125,469 L91,459 L80,507 L113,516 Q240,550 300,550 Q385,550 436,506.5 Q487,463 487,371 L487,72 L551,33 M439,74 L439,251 L260,251 Q107,251 107,141 Q107,38 233,38 Q276,38 370,59 M190,680 Q173,680 162.5,691.5 Q152,703 152,723 Q152,743 162.5,754.5 Q173,766 190,766 Q208,766 218.5,754.5 Q229,743 229,723 Q229,703 218.5,691.5 Q208,680 190,680 M412,680 Q395,680 384.5,691.5 Q374,703 374,723 Q374,743 384.5,754.5 Q395,766 412,766 Q430,766 440.5,754.5 Q451,743 451,723 Q451,703 440.5,691.5 Q430,680 412,680"/> 
            <glyph glyph-name="å" unicode="&#xE5;" horiz-adv-x="551" d=" M531,-5 L491,19 Q457,39 417,29 L374,18 Q272,-7 225,-7 Q146,-7 101.5,32 Q57,71 57,140 Q57,223 113.5,259.5 Q170,296 261,296 L439,296 L439,371 Q439,501 299,501 Q233,501 125,469 L91,459 L80,507 L113,516 Q240,550 300,550 Q385,550 436,506.5 Q487,463 487,371 L487,72 L551,33 M439,74 L439,251 L260,251 Q107,251 107,141 Q107,38 233,38 Q276,38 370,59 M392,700 Q392,658 363,630.5 Q334,603 293,603 Q251,603 223,630.5 Q195,658 195,700 Q195,743 223,770 Q251,797 293,797 Q335,797 363.5,770 Q392,743 392,700 M352,675 Q352,725 335.5,741.5 Q319,758 293,758 Q267,758 251,741.5 Q235,725 235,700 Q235,675 251,658 Q267,641 293,641 Q319,641 352,675"/> 
            <glyph glyph-name="æ" unicode="&#xE6;" horiz-adv-x="906" d=" M896,39 L854,25 Q762,-6 687,-6 Q609,-6 550,28 Q514,48 470,37 L381,16 Q285,-7 221,-7 Q142,-7 97.5,31.5 Q53,70 53,139 Q53,222 110,259 Q167,296 258,296 L436,296 L436,368 Q436,501 299,501 Q233,501 125,469 L91,459 L80,507 L113,516 Q240,550 300,550 Q366,550 413.5,521 Q461,492 477,432 Q505,491 557.5,521.5 Q610,552 672,552 Q780,552 843,484.5 Q906,417 906,284 Q906,249 875,249 L489,249 Q493,148 548,96 Q603,44 689,44 Q753,44 843,73 L886,87 M375,61 L487,85 Q440,161 437,250 L257,250 Q181,250 142.5,224.5 Q104,199 104,141 Q104,39 232,39 Q282,39 375,61 M489,296 L853,296 Q853,393 807.5,450.5 Q762,508 671,508 Q590,508 542,451 Q494,394 489,296"/> 
            <glyph glyph-name="ç" unicode="&#xE7;" horiz-adv-x="474" d=" M474,30 L440,21 Q341,-5 289,-5 Q180,-5 117.5,63.5 Q55,132 55,272 Q55,405 118.5,477 Q182,549 289,549 Q344,549 440,523 L474,514 L464,465 L431,473 Q315,501 291,501 Q107,501 107,272 Q107,44 293,44 Q338,44 431,70 L464,79 M196,-175 L207,-140 Q250,-156 278,-156 Q330,-156 330,-119 Q330,-76 238,-84 L236,-81 L277,0 L309,0 L283,-53 Q324,-53 349,-69.5 Q374,-86 374,-117 Q374,-150 348.5,-172 Q323,-194 279,-194 Q239,-194 196,-175"/> 
            <glyph glyph-name="è" unicode="&#xE8;" horiz-adv-x="525" d=" M108,296 L472,296 Q472,393 426.5,450.5 Q381,508 290,508 Q209,508 161,451 Q113,394 108,296 M515,39 L473,25 Q381,-6 305,-6 Q191,-6 123,65 Q55,136 55,271 Q55,409 122,480.5 Q189,552 291,552 Q399,552 462,484.5 Q525,417 525,284 Q525,249 494,249 L108,249 Q112,148 167,96 Q222,44 308,44 Q372,44 462,73 L505,87 M311,649 L187,763 L265,763 L347,683 Q356,675 356,662 Q356,653 349,646 Q342,639 332,639 Q321,639 311,649"/> 
            <glyph glyph-name="é" unicode="&#xE9;" horiz-adv-x="525" d=" M108,296 L472,296 Q472,393 426.5,450.5 Q381,508 290,508 Q209,508 161,451 Q113,394 108,296 M515,39 L473,25 Q381,-6 305,-6 Q191,-6 123,65 Q55,136 55,271 Q55,409 122,480.5 Q189,552 291,552 Q399,552 462,484.5 Q525,417 525,284 Q525,249 494,249 L108,249 Q112,148 167,96 Q222,44 308,44 Q372,44 462,73 L505,87 M424,763 L300,649 Q290,639 279,639 Q269,639 262,646 Q255,653 255,662 Q255,675 264,683 L346,763"/> 
            <glyph glyph-name="ê" unicode="&#xEA;" horiz-adv-x="525" d=" M108,296 L472,296 Q472,393 426.5,450.5 Q381,508 290,508 Q209,508 161,451 Q113,394 108,296 M515,39 L473,25 Q381,-6 305,-6 Q191,-6 123,65 Q55,136 55,271 Q55,409 122,480.5 Q189,552 291,552 Q399,552 462,484.5 Q525,417 525,284 Q525,249 494,249 L108,249 Q112,148 167,96 Q222,44 308,44 Q372,44 462,73 L505,87 M447,628 L382,628 L294,724 L205,628 L142,628 L257,749 Q273,765 294,765 Q315,765 331,749"/> 
            <glyph glyph-name="ë" unicode="&#xEB;" horiz-adv-x="525" d=" M108,296 L472,296 Q472,393 426.5,450.5 Q381,508 290,508 Q209,508 161,451 Q113,394 108,296 M515,39 L473,25 Q381,-6 305,-6 Q191,-6 123,65 Q55,136 55,271 Q55,409 122,480.5 Q189,552 291,552 Q399,552 462,484.5 Q525,417 525,284 Q525,249 494,249 L108,249 Q112,148 167,96 Q222,44 308,44 Q372,44 462,73 L505,87 M183,680 Q166,680 155.5,691.5 Q145,703 145,723 Q145,743 155.5,754.5 Q166,766 183,766 Q201,766 211.5,754.5 Q222,743 222,723 Q222,703 211.5,691.5 Q201,680 183,680 M405,680 Q388,680 377.5,691.5 Q367,703 367,723 Q367,743 377.5,754.5 Q388,766 405,766 Q423,766 433.5,754.5 Q444,743 444,723 Q444,703 433.5,691.5 Q423,680 405,680"/> 
            <glyph glyph-name="ì" unicode="&#xEC;" horiz-adv-x="170" d=" M140,0 L88,0 L88,544 L140,544 M125,649 L1,763 L79,763 L161,683 Q170,675 170,662 Q170,653 163,646 Q156,639 146,639 Q135,639 125,649"/> 
            <glyph glyph-name="í" unicode="&#xED;" horiz-adv-x="229" d=" M140,0 L88,0 L88,544 L140,544 M229,763 L105,649 Q95,639 84,639 Q74,639 67,646 Q60,653 60,662 Q60,675 69,683 L151,763"/> 
            <glyph glyph-name="î" unicode="&#xEE;" horiz-adv-x="267" d=" M140,0 L88,0 L88,544 L140,544 M267,628 L202,628 L114,724 L25,628 L-38,628 L77,749 Q93,765 114,765 Q135,765 151,749"/> 
            <glyph glyph-name="ï" unicode="&#xEF;" horiz-adv-x="265" d=" M140,0 L88,0 L88,544 L140,544 M4,680 Q-13,680 -23.5,691.5 Q-34,703 -34,723 Q-34,743 -23.5,754.5 Q-13,766 4,766 Q22,766 32.5,754.5 Q43,743 43,723 Q43,703 32.5,691.5 Q22,680 4,680 M226,680 Q209,680 198.5,691.5 Q188,703 188,723 Q188,743 198.5,754.5 Q209,766 226,766 Q244,766 254.5,754.5 Q265,743 265,723 Q265,703 254.5,691.5 Q244,680 226,680"/> 
            <glyph glyph-name="ð" unicode="&#xF0;" horiz-adv-x="555" d=" M493,250 L493,433 Q381,467 310,467 Q117,467 117,260 Q117,160 166,101.5 Q215,43 306,43 Q400,43 446.5,98 Q493,153 493,250 M493,479 L493,536 Q493,601 459,653 L315,572 L315,622 L433,685 Q383,718 316,718 L258,718 L258,763 L315,763 Q418,763 474,713 L555,759 L555,709 L502,679 Q541,616 541,536 L541,248 Q541,134 479.5,64 Q418,-6 304,-6 Q191,-6 129,69.5 Q67,145 67,260 Q67,370 126.5,442.5 Q186,515 306,515 Q368,515 493,479"/> 
            <glyph glyph-name="ñ" unicode="&#xF1;" horiz-adv-x="492" d=" M492,0 L443,0 L443,348 Q443,498 292,498 Q226,498 130,473 L130,0 L80,0 L80,465 Q80,490 90.5,502.5 Q101,515 126,522 Q222,548 297,548 Q396,548 444,494.5 Q492,441 492,353 M451,747 L488,727 Q469,680 438,656.5 Q407,633 374,633 Q336,633 301,657 L256,689 Q231,707 207,707 Q158,707 130,642 L94,663 Q113,709 144.5,732.5 Q176,756 209,756 Q248,756 280,732 L326,699 Q350,682 374,682 Q422,682 451,747"/> 
            <glyph glyph-name="ò" unicode="&#xF2;" horiz-adv-x="544" d=" M300,-6 Q185,-6 120,67.5 Q55,141 55,272 Q55,404 122.5,477 Q190,550 302,550 Q415,550 479.5,477.5 Q544,405 544,272 Q544,140 478.5,67 Q413,-6 300,-6 M208,39 Q394,39 443.5,100 Q493,161 493,272 Q493,382 442.5,443.5 Q392,505 300,505 Q208,505 158,443.5 Q108,382 108,272 Q108,160 208,39 M331,649 L207,763 L285,763 L367,683 Q376,675 376,662 Q376,653 369,646 Q362,639 352,639 Q341,639 331,649"/> 
            <glyph glyph-name="ó" unicode="&#xF3;" horiz-adv-x="544" d=" M300,-6 Q185,-6 120,67.5 Q55,141 55,272 Q55,404 122.5,477 Q190,550 302,550 Q415,550 479.5,477.5 Q544,405 544,272 Q544,140 478.5,67 Q413,-6 300,-6 M208,39 Q394,39 443.5,100 Q493,161 493,272 Q493,382 442.5,443.5 Q392,505 300,505 Q208,505 158,443.5 Q108,382 108,272 Q108,160 208,39 M408,763 L284,649 Q274,639 263,639 Q253,639 246,646 Q239,653 239,662 Q239,675 248,683 L330,763"/> 
            <glyph glyph-name="ô" unicode="&#xF4;" horiz-adv-x="544" d=" M300,-6 Q185,-6 120,67.5 Q55,141 55,272 Q55,404 122.5,477 Q190,550 302,550 Q415,550 479.5,477.5 Q544,405 544,272 Q544,140 478.5,67 Q413,-6 300,-6 M208,39 Q394,39 443.5,100 Q493,161 493,272 Q493,382 442.5,443.5 Q392,505 300,505 Q208,505 158,443.5 Q108,382 108,272 Q108,160 208,39 M455,628 L390,628 L302,724 L213,628 L150,628 L265,749 Q281,765 302,765 Q323,765 339,749"/> 
            <glyph glyph-name="õ" unicode="&#xF5;" horiz-adv-x="544" d=" M300,-6 Q185,-6 120,67.5 Q55,141 55,272 Q55,404 122.5,477 Q190,550 302,550 Q415,550 479.5,477.5 Q544,405 544,272 Q544,140 478.5,67 Q413,-6 300,-6 M208,39 Q394,39 443.5,100 Q493,161 493,272 Q493,382 442.5,443.5 Q392,505 300,505 Q208,505 158,443.5 Q108,382 108,272 Q108,160 208,39 M465,747 L502,727 Q483,680 452,656.5 Q421,633 388,633 Q350,633 315,657 L270,689 Q245,707 221,707 Q172,707 144,642 L108,663 Q127,709 158.5,732.5 Q190,756 223,756 Q262,756 294,732 L340,699 Q364,682 388,682 Q436,682 465,747"/> 
            <glyph glyph-name="ö" unicode="&#xF6;" horiz-adv-x="544" d=" M300,-6 Q185,-6 120,67.5 Q55,141 55,272 Q55,404 122.5,477 Q190,550 302,550 Q415,550 479.5,477.5 Q544,405 544,272 Q544,140 478.5,67 Q413,-6 300,-6 M208,39 Q394,39 443.5,100 Q493,161 493,272 Q493,382 442.5,443.5 Q392,505 300,505 Q208,505 158,443.5 Q108,382 108,272 Q108,160 208,39 M192,680 Q175,680 164.5,691.5 Q154,703 154,723 Q154,743 164.5,754.5 Q175,766 192,766 Q210,766 220.5,754.5 Q231,743 231,723 Q231,703 220.5,691.5 Q210,680 192,680 M414,680 Q397,680 386.5,691.5 Q376,703 376,723 Q376,743 386.5,754.5 Q397,766 414,766 Q432,766 442.5,754.5 Q453,743 453,723 Q453,703 442.5,691.5 Q432,680 414,680"/> 
            <glyph glyph-name="÷" unicode="&#xF7;" horiz-adv-x="512" d=" M512,269 L60,269 L60,322 L512,322 M303,456 Q267,456 256,468.5 Q245,481 245,501 Q245,521 256,533.5 Q267,546 285,546 Q303,546 314,533.5 Q325,521 325,501 Q325,481 303,456 M303,42 Q267,42 256,54.5 Q245,67 245,87 Q245,107 256,119.5 Q267,132 285,132 Q303,132 314,119.5 Q325,107 325,87 Q325,67 303,42"/> 
            <glyph glyph-name="ø" unicode="&#xF8;" horiz-adv-x="544" d=" M158,-53 L111,-53 L157,34 Q55,104 55,272 Q55,404 122.5,477 Q190,550 302,550 Q368,550 417,525 L451,590 L497,590 L451,503 Q544,432 544,272 Q544,140 478.5,67 Q413,-6 300,-6 Q241,-6 193,14 M180,77 L394,483 Q356,505 300,505 Q208,505 158,443.5 Q108,382 108,272 Q108,135 180,77 M428,460 L215,56 Q254,39 301,39 Q394,39 443.5,100 Q493,161 493,272 Q493,398 428,460"/> 
            <glyph glyph-name="ù" unicode="&#xF9;" horiz-adv-x="492" d=" M442,71 L442,544 L492,544 L492,79 Q492,54 481.5,41.5 Q471,29 446,22 Q350,-4 275,-4 Q176,-4 128,49.5 Q80,103 80,191 L80,544 L129,544 L129,196 Q129,46 280,46 Q346,46 442,71 M303,649 L179,763 L257,763 L339,683 Q348,675 348,662 Q348,653 341,646 Q334,639 324,639 Q313,639 303,649"/> 
            <glyph glyph-name="ú" unicode="&#xFA;" horiz-adv-x="492" d=" M442,71 L442,544 L492,544 L492,79 Q492,54 481.5,41.5 Q471,29 446,22 Q350,-4 275,-4 Q176,-4 128,49.5 Q80,103 80,191 L80,544 L129,544 L129,196 Q129,46 280,46 Q346,46 442,71 M402,763 L278,649 Q268,639 257,639 Q247,639 240,646 Q233,653 233,662 Q233,675 242,683 L324,763"/> 
            <glyph glyph-name="û" unicode="&#xFB;" horiz-adv-x="492" d=" M442,71 L442,544 L492,544 L492,79 Q492,54 481.5,41.5 Q471,29 446,22 Q350,-4 275,-4 Q176,-4 128,49.5 Q80,103 80,191 L80,544 L129,544 L129,196 Q129,46 280,46 Q346,46 442,71 M437,628 L372,628 L284,724 L195,628 L132,628 L247,749 Q263,765 284,765 Q305,765 321,749"/> 
            <glyph glyph-name="ü" unicode="&#xFC;" horiz-adv-x="492" d=" M442,71 L442,544 L492,544 L492,79 Q492,54 481.5,41.5 Q471,29 446,22 Q350,-4 275,-4 Q176,-4 128,49.5 Q80,103 80,191 L80,544 L129,544 L129,196 Q129,46 280,46 Q346,46 442,71 M176,680 Q159,680 148.5,691.5 Q138,703 138,723 Q138,743 148.5,754.5 Q159,766 176,766 Q194,766 204.5,754.5 Q215,743 215,723 Q215,703 204.5,691.5 Q194,680 176,680 M398,680 Q381,680 370.5,691.5 Q360,703 360,723 Q360,743 370.5,754.5 Q381,766 398,766 Q416,766 426.5,754.5 Q437,743 437,723 Q437,703 426.5,691.5 Q416,680 398,680"/> 
            <glyph glyph-name="ý" unicode="&#xFD;" horiz-adv-x="493" d=" M239,-56 L249,-24 L30,544 L88,544 L277,40 L438,544 L493,544 L289,-72 Q253,-181 148,-181 Q101,-181 52,-165 L60,-117 Q121,-133 149,-133 Q188,-133 207.5,-114.5 Q227,-96 239,-56 M396,763 L272,649 Q262,639 251,639 Q241,639 234,646 Q227,653 227,662 Q227,675 236,683 L318,763"/> 
            <glyph glyph-name="þ" unicode="&#xFE;" horiz-adv-x="532" d=" M128,467 L128,77 Q240,47 294,45 Q390,45 435,106 Q480,167 480,273 Q480,498 295,498 Q241,498 128,467 M128,-176 L80,-187 L80,759 L129,770 L129,511 Q240,548 303,548 Q417,548 474.5,478 Q532,408 532,273 Q532,141 470,68.5 Q408,-4 296,-4 Q231,-4 128,31"/> 
            <glyph glyph-name="ÿ" unicode="&#xFF;" horiz-adv-x="493" d=" M239,-56 L249,-24 L30,544 L88,544 L277,40 L438,544 L493,544 L289,-72 Q253,-181 148,-181 Q101,-181 52,-165 L60,-117 Q121,-133 149,-133 Q188,-133 207.5,-114.5 Q227,-96 239,-56 M158,680 Q141,680 130.5,691.5 Q120,703 120,723 Q120,743 130.5,754.5 Q141,766 158,766 Q176,766 186.5,754.5 Q197,743 197,723 Q197,703 186.5,691.5 Q176,680 158,680 M380,680 Q363,680 352.5,691.5 Q342,703 342,723 Q342,743 352.5,754.5 Q363,766 380,766 Q398,766 408.5,754.5 Q419,743 419,723 Q419,703 408.5,691.5 Q398,680 380,680"/> 
            <glyph glyph-name="ı" unicode="&#x131;" horiz-adv-x="140" d=" M140,0 L88,0 L88,544 L140,544"/> 
            <glyph glyph-name="Ł" unicode="&#x141;" horiz-adv-x="514" d=" M514,0 L143,0 Q88,0 88,53 L88,392 L18,359 L18,410 L88,445 L88,744 L140,744 L140,469 L309,553 L309,501 L140,418 L140,50 L514,50"/> 
            <glyph glyph-name="ł" unicode="&#x142;" horiz-adv-x="208" d=" M141,0 L89,0 L89,421 L21,378 L21,433 L89,477 L89,758 L141,770 L141,512 L208,555 L208,500 L141,455"/> 
            <glyph glyph-name="Œ" unicode="&#x152;" horiz-adv-x="1027" d=" M1027,0 L381,0 Q236,0 145.5,98.5 Q55,197 55,370 Q55,544 144,644 Q233,744 378,744 L1024,744 L1024,695 L625,695 L625,405 L977,405 L977,357 L625,357 L625,49 L1027,49 M572,49 L572,695 L391,695 Q259,695 184.5,607.5 Q110,520 110,370 Q110,217 182,133 Q254,49 384,49"/> 
            <glyph glyph-name="œ" unicode="&#x153;" horiz-adv-x="965" d=" M955,39 L913,25 Q821,-6 745,-6 Q663,-6 604.5,31.5 Q546,69 519,142 Q493,70 436.5,32 Q380,-6 300,-6 Q185,-6 120,67.5 Q55,141 55,272 Q55,404 122.5,477 Q190,550 302,550 Q382,550 438,512 Q494,474 520,403 Q547,477 603,514.5 Q659,552 731,552 Q839,552 902,484.5 Q965,417 965,284 Q965,249 934,249 L548,249 Q552,148 607,96 Q662,44 748,44 Q812,44 902,73 L945,87 M208,39 Q394,39 443.5,100 Q493,161 493,272 Q493,382 442.5,443.5 Q392,505 300,505 Q208,505 158,443.5 Q108,382 108,272 Q108,160 208,39 M548,296 L912,296 Q912,393 866.5,450.5 Q821,508 730,508 Q649,508 601,451 Q553,394 548,296"/> 
            <glyph glyph-name="Š" unicode="&#x160;" horiz-adv-x="559" d=" M104,36 L65,49 L78,100 L116,87 Q250,41 340,41 Q410,41 458,78 Q506,115 506,190 Q506,247 476,280.5 Q446,314 379,329 L236,361 Q66,400 66,551 Q66,648 130,698.5 Q194,749 285,749 Q379,749 515,707 L554,695 L542,643 L503,656 Q371,700 285,700 Q214,700 166,662.5 Q118,625 118,551 Q118,494 148,461.5 Q178,429 244,414 L388,381 Q559,343 559,191 Q559,94 495,43 Q431,-8 340,-8 Q234,-8 104,36 M470,934 L355,813 Q339,797 318,797 Q297,797 281,813 L165,934 L230,934 L318,838 L407,934"/> 
            <glyph glyph-name="š" unicode="&#x161;" horiz-adv-x="469" d=" M313,237 L207,256 Q141,268 104,304 Q67,340 67,398 Q67,472 118,511 Q169,550 243,550 Q332,550 437,518 L469,509 L458,460 L428,468 Q318,501 242,501 Q188,501 153.5,475.5 Q119,450 119,400 Q119,361 142.5,337.5 Q166,314 222,304 L329,285 Q394,274 430.5,237 Q467,200 467,144 Q467,70 416,31.5 Q365,-7 290,-7 Q217,-7 97,26 L65,35 L76,85 L106,76 Q219,42 291,42 Q347,42 381.5,67 Q416,92 416,142 Q416,181 393,204 Q370,227 313,237 M429,759 L314,638 Q298,622 277,622 Q256,622 240,638 L124,759 L189,759 L277,663 L366,759"/> 
            <glyph glyph-name="Ÿ" unicode="&#x178;" horiz-adv-x="615" d=" M348,0 L295,0 L295,322 L25,744 L86,744 L324,371 L555,744 L615,744 L348,324 M214,834 Q197,834 186.5,845.5 Q176,857 176,877 Q176,897 186.5,908.5 Q197,920 214,920 Q232,920 242.5,908.5 Q253,897 253,877 Q253,857 242.5,845.5 Q232,834 214,834 M436,834 Q419,834 408.5,845.5 Q398,857 398,877 Q398,897 408.5,908.5 Q419,920 436,920 Q454,920 464.5,908.5 Q475,897 475,877 Q475,857 464.5,845.5 Q454,834 436,834"/> 
            <glyph glyph-name="Ž" unicode="&#x17D;" horiz-adv-x="566" d=" M566,0 L93,0 Q55,0 55,42 Q55,59 69,78 L511,697 L67,697 L67,744 L523,744 Q560,744 560,702 Q560,682 548,666 L107,47 L566,47 M469,934 L354,813 Q338,797 317,797 Q296,797 280,813 L164,934 L229,934 L317,838 L406,934"/> 
            <glyph glyph-name="ž" unicode="&#x17E;" horiz-adv-x="478" d=" M478,0 L92,0 Q56,0 56,37 Q56,57 71,74 L418,499 L69,499 L69,544 L439,544 Q474,544 474,509 Q474,487 460,471 L112,45 L478,45 M432,759 L317,638 Q301,622 280,622 Q259,622 243,638 L127,759 L192,759 L280,663 L369,759"/> 
            <glyph glyph-name="ƒ" unicode="&#x192;" horiz-adv-x="475" d=" M134,-181 L134,-134 Q227,-134 227,-9 L227,488 L138,488 L138,534 L227,534 L227,596 Q227,679 266,722 Q305,765 376,765 Q414,765 475,752 L468,702 Q406,716 375,716 Q321,716 298.5,687.5 Q276,659 276,594 L276,534 L450,534 L450,488 L276,488 L276,-12 Q276,-91 238.5,-136 Q201,-181 134,-181"/> 
            <glyph glyph-name="ˆ" unicode="&#x2C6;" horiz-adv-x="435" d=" M435,628 L370,628 L282,724 L193,628 L130,628 L245,749 Q261,765 282,765 Q303,765 319,749"/> 
            <glyph glyph-name="ˇ" unicode="&#x2C7;" horiz-adv-x="434" d=" M434,759 L319,638 Q303,622 282,622 Q261,622 245,638 L129,759 L194,759 L282,663 L371,759"/> 
            <glyph glyph-name="˘" unicode="&#x2D8;" horiz-adv-x="434" d=" M384,757 L434,757 Q434,697 388.5,659.5 Q343,622 277,622 Q211,622 165.5,659.5 Q120,697 120,757 L170,757 Q170,717 200,693.5 Q230,670 277,670 Q324,670 354,693.5 Q384,717 384,757"/> 
            <glyph glyph-name="˙" unicode="&#x2D9;" horiz-adv-x="304" d=" M265,680 Q248,680 237.5,691.5 Q227,703 227,723 Q227,743 237.5,754.5 Q248,766 265,766 Q283,766 293.5,754.5 Q304,743 304,723 Q304,703 293.5,691.5 Q283,680 265,680"/> 
            <glyph glyph-name="˚" unicode="&#x2DA;" horiz-adv-x="376" d=" M376,700 Q376,658 347,630.5 Q318,603 277,603 Q235,603 207,630.5 Q179,658 179,700 Q179,743 207,770 Q235,797 277,797 Q319,797 347.5,770 Q376,743 376,700 M336,675 Q336,725 319.5,741.5 Q303,758 277,758 Q251,758 235,741.5 Q219,725 219,700 Q219,675 235,658 Q251,641 277,641 Q303,641 336,675"/> 
            <glyph glyph-name="˛" unicode="&#x2DB;" horiz-adv-x="409" d=" M399,-105 L409,-146 Q352,-168 306,-168 Q255,-168 223.5,-146.5 Q192,-125 192,-87 Q192,-34 242,0 L290,5 L293,0 Q243,-29 243,-72 Q243,-124 309,-124 Q346,-124 399,-105"/> 
            <glyph glyph-name="˜" unicode="&#x2DC;" horiz-adv-x="465" d=" M428,747 L465,727 Q446,680 415,656.5 Q384,633 351,633 Q312,633 278,657 L233,689 Q208,707 184,707 Q134,707 107,642 L71,663 Q90,709 121.5,732.5 Q153,756 186,756 Q225,756 257,732 L303,699 Q327,682 351,682 Q399,682 428,747"/> 
            <glyph glyph-name="˝" unicode="&#x2DD;" horiz-adv-x="451" d=" M451,763 L323,634 Q313,624 301,624 Q290,624 284,631.5 Q278,639 278,649 Q278,660 288,672 L371,763 M255,763 L134,641 Q124,631 112,631 Q101,631 95,638.5 Q89,646 89,656 Q89,667 99,679 L175,763"/> 
            <glyph glyph-name="π" unicode="&#x3C0;" horiz-adv-x="662" d=" M653,57 L662,8 Q599,-6 559,-6 Q487,-6 450.5,37.5 Q414,81 414,163 L414,498 L179,498 L179,0 L129,0 L129,498 L40,498 L40,544 L651,544 L651,498 L464,498 L464,166 Q464,100 486.5,71 Q509,42 562,42 Q590,42 653,57"/> 
            <glyph glyph-name="–" unicode="&#x2013;" horiz-adv-x="512" d=" M512,301 L60,301 L60,355 L512,355"/> 
            <glyph glyph-name="—" unicode="&#x2014;" horiz-adv-x="917" d=" M917,301 L55,301 L55,354 L917,354"/> 
            <glyph glyph-name="‘" unicode="&#x2018;" horiz-adv-x="153" d=" M108,568 L50,568 L96,739 Q104,763 124,763 Q140,763 146.5,752 Q153,741 149,725"/> 
            <glyph glyph-name="’" unicode="&#x2019;" horiz-adv-x="154" d=" M55,606 L96,763 L154,763 L108,592 Q100,568 80,568 Q64,568 57.5,579 Q51,590 55,606"/> 
            <glyph glyph-name="‚" unicode="&#x201A;" horiz-adv-x="154" d=" M55,-53 L96,104 L154,104 L108,-67 Q100,-91 80,-91 Q64,-91 57.5,-80 Q51,-69 55,-53"/> 
            <glyph glyph-name="“" unicode="&#x201C;" horiz-adv-x="329" d=" M284,568 L226,568 L272,739 Q280,763 300,763 Q316,763 322.5,752 Q329,741 325,725 M108,568 L50,568 L96,739 Q104,763 124,763 Q140,763 146.5,752 Q153,741 149,725"/> 
            <glyph glyph-name="”" unicode="&#x201D;" horiz-adv-x="330" d=" M55,606 L96,763 L154,763 L108,592 Q100,568 80,568 Q64,568 57.5,579 Q51,590 55,606 M231,606 L272,763 L330,763 L284,592 Q276,568 256,568 Q240,568 233.5,579 Q227,590 231,606"/> 
            <glyph glyph-name="„" unicode="&#x201E;" horiz-adv-x="330" d=" M55,-53 L96,104 L154,104 L108,-67 Q100,-91 80,-91 Q64,-91 57.5,-80 Q51,-69 55,-53 M231,-53 L272,104 L330,104 L284,-67 Q276,-91 256,-91 Q240,-91 233.5,-80 Q227,-69 231,-53"/> 
            <glyph glyph-name="†" unicode="&#x2020;" horiz-adv-x="495" d=" M305,-186 L242,-186 L258,446 L50,432 L50,495 L258,482 L242,744 L304,744 L290,482 L495,495 L495,432 L289,446"/> 
            <glyph glyph-name="‡" unicode="&#x2021;" horiz-adv-x="495" d=" M304,-186 L242,-186 L258,78 L50,65 L50,128 L260,114 L240,278 L240,279 L260,445 L50,431 L50,494 L258,481 L242,744 L304,744 L290,481 L495,494 L495,431 L288,445 L308,279 L288,114 L495,128 L495,65 L290,78"/> 
            <glyph glyph-name="•" unicode="&#x2022;" horiz-adv-x="328" d=" M269,212 Q167,212 138,244 Q109,276 109,333 Q109,390 138,422 Q167,454 218,454 Q269,454 298.5,422 Q328,390 328,333 Q328,276 269,212"/> 
            <glyph glyph-name="…" unicode="&#x2026;" horiz-adv-x="548" d=" M105,-9 Q88,-9 77.5,2.5 Q67,14 67,34 Q67,54 77.5,65.5 Q88,77 105,77 Q123,77 133.5,65.5 Q144,54 144,34 Q144,14 133.5,2.5 Q123,-9 105,-9 M307,-9 Q290,-9 279.5,2.5 Q269,14 269,34 Q269,54 279.5,65.5 Q290,77 307,77 Q325,77 335.5,65.5 Q346,54 346,34 Q346,14 335.5,2.5 Q325,-9 307,-9 M509,-9 Q492,-9 481.5,2.5 Q471,14 471,34 Q471,54 481.5,65.5 Q492,77 509,77 Q527,77 537.5,65.5 Q548,54 548,34 Q548,14 537.5,2.5 Q527,-9 509,-9"/> 
            <glyph glyph-name="‰" unicode="&#x2030;" horiz-adv-x="1282" d=" M307,372 Q137,372 88.5,424 Q40,476 40,566 Q40,656 89.5,708 Q139,760 224,760 Q310,760 359,708.5 Q408,657 408,566 Q408,476 307,372 M224,416 Q360,416 360,566 Q360,639 324.5,677.5 Q289,716 222,716 Q89,716 89,566 Q89,494 123.5,455 Q158,416 224,416 M183,0 L122,0 L711,744 L771,744 M761,-14 Q591,-14 542.5,38 Q494,90 494,180 Q494,270 543.5,322 Q593,374 678,374 Q764,374 813,322.5 Q862,271 862,180 Q862,90 761,-14 M678,30 Q814,30 814,180 Q814,253 778.5,291.5 Q743,330 676,330 Q543,330 543,180 Q543,108 577.5,69 Q612,30 678,30 M1181,-14 Q1011,-14 962.5,38 Q914,90 914,180 Q914,270 963.5,322 Q1013,374 1098,374 Q1184,374 1233,322.5 Q1282,271 1282,180 Q1282,90 1181,-14 M1098,30 Q1234,30 1234,180 Q1234,253 1198.5,291.5 Q1163,330 1096,330 Q963,330 963,180 Q963,108 997.5,69 Q1032,30 1098,30"/> 
            <glyph glyph-name="‹" unicode="&#x2039;" horiz-adv-x="288" d=" M288,93 L223,93 L64,243 Q46,259 46,280 Q46,301 63,318 L220,469 L282,469 L90,280"/> 
            <glyph glyph-name="›" unicode="&#x203A;" horiz-adv-x="288" d=" M270,243 L111,93 L46,93 L244,280 L52,469 L114,469 L271,318 Q288,301 288,280 Q288,259 270,243"/> 
            <glyph glyph-name="⁄" unicode="&#x2044;" horiz-adv-x="771" d=" M183,0 L122,0 L711,744 L771,744"/> 
            <glyph glyph-name="€" unicode="&#x20AC;" horiz-adv-x="541" d=" M541,28 L507,19 Q404,-8 356,-8 Q245,-8 179,65.5 Q113,139 113,281 L37,281 L37,329 L113,329 L113,418 L37,418 L37,465 L113,465 Q113,604 179.5,678 Q246,752 356,752 Q411,752 507,726 L541,717 L531,666 L499,675 Q411,700 358,700 Q167,700 167,465 L416,465 L416,418 L166,418 L166,329 L416,329 L416,281 L167,281 Q167,160 216.5,101 Q266,42 358,42 Q393,42 499,69 L531,78"/> 
            <glyph glyph-name="™" unicode="&#x2122;" horiz-adv-x="784" d=" M784,334 L742,334 L742,671 L634,352 Q627,334 606,334 Q586,334 579,353 L476,671 L476,334 L434,334 L434,715 Q434,730 443.5,738.5 Q453,747 466,747 Q497,747 504,723 L608,392 L714,718 Q722,744 751,744 Q784,744 784,715 M228,334 L181,334 L181,702 L62,702 L62,744 L348,744 L348,702 L228,702"/> 
            <glyph glyph-name="Ω" unicode="&#x2126;" horiz-adv-x="717" d=" M644,0 L444,0 L444,169 Q540,188 602,259 Q664,330 664,432 Q664,551 587.5,626 Q511,701 391,701 Q269,701 191.5,628 Q114,555 114,432 Q114,323 172.5,255.5 Q231,188 331,171 L331,0 L131,0 L131,45 L287,45 L287,133 Q184,162 123,241 Q62,320 62,432 Q62,572 156.5,659.5 Q251,747 393,747 Q533,747 625,659 Q717,571 717,432 Q717,325 654,243.5 Q591,162 488,133 L488,45 L644,45"/> 
            <glyph glyph-name="∂" unicode="&#x2202;" horiz-adv-x="509" d=" M459,427 L459,519 Q459,701 290,701 Q232,701 108,666 L76,657 L66,707 L99,716 Q226,750 292,750 Q395,750 452,689 Q509,628 509,519 L509,239 Q509,128 446.5,61 Q384,-6 276,-6 Q168,-6 109,61.5 Q50,129 50,234 Q50,345 109.5,405 Q169,465 285,465 Q347,465 459,427 M459,243 L459,383 Q341,415 290,415 Q102,415 102,234 Q102,147 146.5,95 Q191,43 274,43 Q363,43 411,96.5 Q459,150 459,243"/> 
            <glyph glyph-name="∆" unicode="&#x2206;" horiz-adv-x="622" d=" M622,0 L24,0 L287,721 Q297,749 325,749 Q354,749 364,721 M548,46 L323,685 L94,46"/> 
            <glyph glyph-name="∏" unicode="&#x220F;" horiz-adv-x="618" d=" M499,0 L447,0 L447,697 L215,697 L215,0 L164,0 L164,697 L38,697 L38,744 L618,744 L618,697 L499,697"/> 
            <glyph glyph-name="∑" unicode="&#x2211;" horiz-adv-x="622" d=" M622,-179 L75,-179 Q58,-179 47.5,-168.5 Q37,-158 37,-141 Q37,-119 50,-103 L330,282 L50,668 Q37,684 37,706 Q37,723 47.5,733.5 Q58,744 75,744 L612,744 L612,593 L565,593 L565,694 L96,694 L392,283 L96,-129 L575,-129 L575,-17 L622,-17"/> 
            <glyph glyph-name="−" unicode="&#x2212;" horiz-adv-x="512" d=" M512,301 L60,301 L60,355 L512,355"/> 
            <glyph glyph-name="√" unicode="&#x221A;" horiz-adv-x="629" d=" M291,55 L486,744 L629,744 L629,697 L525,697 L329,23 Q320,-9 291,-9 Q261,-9 251,23 L108,497 L10,497 L10,544 L151,544"/> 
            <glyph glyph-name="∞" unicode="&#x221E;" horiz-adv-x="757" d=" M482,111 L405,150 L327,111 Q279,87 226,87 Q145,87 96.5,146 Q48,205 48,297 Q48,391 96,449 Q144,507 226,507 Q282,507 326,484 L404,441 L482,484 Q525,507 581,507 Q664,507 710.5,449 Q757,391 757,297 Q757,205 709,146 Q661,87 581,87 Q529,87 482,111 M427,186 L490,156 Q535,134 581,134 Q638,134 674,176 Q710,218 710,297 Q710,375 674.5,417.5 Q639,460 581,460 Q530,460 490,438 L427,403 M382,186 L382,403 L315,439 Q276,460 226,460 Q167,460 131,419 Q95,378 95,297 Q95,218 132,175.5 Q169,133 226,133 Q272,133 317,155"/> 
            <glyph glyph-name="∫" unicode="&#x222B;" horiz-adv-x="473" d=" M132,-181 L132,-134 Q225,-134 225,-9 L225,596 Q225,679 264,722 Q303,765 374,765 Q412,765 473,752 L466,702 Q404,716 373,716 Q319,716 296.5,687.5 Q274,659 274,594 L274,-12 Q274,-91 236.5,-136 Q199,-181 132,-181"/> 
            <glyph glyph-name="≈" unicode="&#x2248;" horiz-adv-x="535" d=" M489,444 L526,417 Q481,312 393,312 Q352,312 308,343 L246,387 Q216,409 188,409 Q158,409 135,393 Q112,377 92,331 L55,357 Q78,411 113.5,436.5 Q149,462 189,462 Q234,462 274,432 L336,387 Q366,365 394,365 Q454,365 489,444 M498,271 L535,244 Q491,139 403,139 Q359,139 319,168 L255,214 Q224,236 197,236 Q135,236 101,158 L64,184 Q108,289 198,289 Q239,289 282,259 L345,214 Q375,192 404,192 Q463,192 498,271"/> 
            <glyph glyph-name="≠" unicode="&#x2260;" horiz-adv-x="512" d=" M512,187 L261,187 L194,41 L152,41 L219,187 L60,187 L60,240 L244,240 L299,359 L60,359 L60,412 L323,412 L398,573 L440,573 L365,412 L512,412 L512,359 L341,359 L286,240 L512,240"/> 
            <glyph glyph-name="≤" unicode="&#x2264;" horiz-adv-x="523" d=" M523,123 L76,282 Q49,292 49,323 Q49,352 76,362 L523,523 L523,465 L96,321 L523,179 M522,0 L62,0 L62,49 L522,49"/> 
            <glyph glyph-name="≥" unicode="&#x2265;" horiz-adv-x="523" d=" M496,282 L49,123 L49,179 L476,321 L49,465 L49,523 L496,362 Q523,352 523,323 Q523,292 496,282 M510,0 L50,0 L50,49 L510,49"/> 
            <glyph glyph-name="◊" unicode="&#x25CA;" horiz-adv-x="608" d=" M285,8 L36,371 L284,732 Q298,754 325,754 Q350,754 365,732 L608,371 L365,9 Q348,-14 324,-14 Q300,-14 285,8 M326,39 L550,371 L325,708 L95,371"/> 
            <glyph glyph-name="ﬁ" unicode="&#xFB01;" horiz-adv-x="520" d=" M508,0 L456,0 L456,488 L170,488 L170,0 L120,0 L120,488 L30,488 L30,534 L120,534 L120,596 Q120,680 159,722.5 Q198,765 269,765 Q304,765 369,751 L360,702 Q305,716 268,716 Q214,716 192,688 Q170,660 170,594 L170,534 L508,534 M481,680 Q464,680 453.5,691.5 Q443,703 443,723 Q443,743 453.5,754.5 Q464,766 481,766 Q499,766 509.5,754.5 Q520,743 520,723 Q520,703 509.5,691.5 Q499,680 481,680"/> 
            <glyph glyph-name="ﬂ" unicode="&#xFB02;" horiz-adv-x="505" d=" M505,0 L455,0 L455,700 Q357,718 283,718 Q170,718 170,591 L170,534 L343,534 L343,488 L170,488 L170,0 L120,0 L120,488 L30,488 L30,534 L120,534 L120,594 Q120,676 165.5,720.5 Q211,765 283,765 Q356,765 455,750 L505,768"/> 
            <glyph glyph-name=" " unicode="&#x20;" horiz-adv-x="144" d=" M131,235 L79,225 L79,744 L131,744 M105,-9 Q88,-9 77.5,2.5 Q67,14 67,34 Q67,54 77.5,65.5 Q88,77 105,77 Q123,77 133.5,65.5 Q144,54 144,34 Q144,14 133.5,2.5 Q123,-9 105,-9"/> 
            <glyph glyph-name="!" unicode="&#x21;" horiz-adv-x="293" d=" M287,576 L244,576 L238,763 L293,763 M114,576 L72,576 L66,763 L121,763"/> 
            <glyph glyph-name="&quot;" unicode="&#x22;" horiz-adv-x="663" d=" M430,0 L381,0 L421,217 L224,217 L181,0 L133,0 L174,217 L39,217 L47,267 L184,267 L223,467 L79,467 L88,516 L232,516 L275,744 L324,744 L281,516 L476,516 L519,744 L566,744 L524,516 L663,516 L654,467 L516,467 L479,267 L623,267 L614,217 L469,217 M432,267 L468,467 L272,467 L233,267"/> 
            <glyph glyph-name="#" unicode="&#x23;" horiz-adv-x="528" d=" M316,-129 L268,-129 L268,-6 Q183,3 92,36 L53,50 L65,102 L101,89 Q230,43 305,43 Q379,43 428.5,79.5 Q478,116 478,191 Q478,300 352,331 L218,365 Q56,407 56,552 Q56,646 118,695 Q180,744 268,746 L268,867 L316,867 L316,745 Q378,741 488,704 L525,691 L512,641 L477,653 Q349,697 280,697 Q205,697 156.5,663 Q108,629 108,555 Q108,498 137.5,464.5 Q167,431 229,415 L363,381 Q444,361 486,316 Q528,271 528,194 Q528,100 466,49 Q404,-2 316,-6"/> 
            <glyph glyph-name="$" unicode="&#x24;" horiz-adv-x="862" d=" M307,372 Q137,372 88.5,424 Q40,476 40,566 Q40,656 89.5,708 Q139,760 224,760 Q310,760 359,708.5 Q408,657 408,566 Q408,476 307,372 M224,416 Q360,416 360,566 Q360,639 324.5,677.5 Q289,716 222,716 Q89,716 89,566 Q89,494 123.5,455 Q158,416 224,416 M183,0 L122,0 L711,744 L771,744 M761,-14 Q591,-14 542.5,38 Q494,90 494,180 Q494,270 543.5,322 Q593,374 678,374 Q764,374 813,322.5 Q862,271 862,180 Q862,90 761,-14 M678,30 Q814,30 814,180 Q814,253 778.5,291.5 Q743,330 676,330 Q543,330 543,180 Q543,108 577.5,69 Q612,30 678,30"/> 
            <glyph glyph-name="%" unicode="&#x25;" horiz-adv-x="628" d=" M628,0 L564,0 L502,70 Q461,33 398.5,10.5 Q336,-12 276,-12 Q171,-12 113,42.5 Q55,97 55,180 Q55,313 218,386 Q186,423 176,435 Q166,447 147.5,475 Q129,503 123,526 Q117,549 117,578 Q117,663 175,709.5 Q233,756 319,756 Q403,756 456,712 Q509,668 509,588 Q509,513 461.5,464 Q414,415 300,368 L505,139 Q570,214 570,355 L570,444 L620,444 L620,354 Q620,281 598.5,214.5 Q577,148 539,106 M271,403 Q373,442 417.5,482 Q462,522 462,587 Q462,641 424.5,676 Q387,711 319,711 Q245,711 206,674 Q167,637 167,578 Q167,535 189,500 Q211,465 271,403 M471,105 L249,351 Q173,318 141,277 Q109,236 109,181 Q109,120 150.5,78 Q192,36 277,36 Q328,36 382,55 Q436,74 471,105"/> 
            <glyph glyph-name="&amp;" unicode="&#x26;" horiz-adv-x="131" d=" M123,576 L80,576 L72,763 L131,763"/> 
            <glyph glyph-name="'" unicode="&#x27;" horiz-adv-x="246" d=" M246,-26 L246,-74 Q207,-73 174,-54 Q141,-35 111,8.5 Q81,52 63.5,136 Q46,220 46,337 Q46,432 58,505 Q70,578 89,622 Q108,666 135,694 Q162,722 188.5,732.5 Q215,743 246,744 L246,696 Q225,695 207,687 Q189,679 168,655 Q147,631 132.5,593.5 Q118,556 108,490 Q98,424 98,337 Q98,230 112,154.5 Q126,79 149.5,42.5 Q173,6 196.5,-9.5 Q220,-25 246,-26"/> 
            <glyph glyph-name="(" unicode="&#x28;" horiz-adv-x="233" d=" M33,-74 L33,-26 Q59,-25 82.5,-9.5 Q106,6 129.5,42.5 Q153,79 167,154.5 Q181,230 181,337 Q181,424 171,490 Q161,556 146.5,593.5 Q132,631 111,655 Q90,679 72,687 Q54,695 33,696 L33,744 Q64,743 90.5,732.5 Q117,722 144,694 Q171,666 190,622 Q209,578 221,505 Q233,432 233,337 Q233,220 215.5,136 Q198,52 168,8.5 Q138,-35 105,-54 Q72,-73 33,-74"/> 
            <glyph glyph-name=")" unicode="&#x29;" horiz-adv-x="486" d=" M424,384 L377,349 L276,522 L173,349 L127,384 L252,538 L65,586 L83,640 L263,564 L248,763 L303,763 L289,564 L471,639 L486,585 L300,537"/> 
            <glyph glyph-name="*" unicode="&#x2A;" horiz-adv-x="512" d=" M310,49 L258,49 L258,270 L60,270 L60,321 L258,321 L258,540 L310,540 L310,321 L512,321 L512,270 L310,270"/> 
            <glyph glyph-name="+" unicode="&#x2B;" horiz-adv-x="154" d=" M55,-53 L96,104 L154,104 L108,-67 Q100,-91 80,-91 Q64,-91 57.5,-80 Q51,-69 55,-53"/> 
            <glyph glyph-name="," unicode="&#x2C;" horiz-adv-x="337" d=" M337,302 L66,302 L66,353 L337,353"/> 
            <glyph glyph-name="-" unicode="&#x2D;" horiz-adv-x="144" d=" M105,-9 Q88,-9 77.5,2.5 Q67,14 67,34 Q67,54 77.5,65.5 Q88,77 105,77 Q123,77 133.5,65.5 Q144,54 144,34 Q144,14 133.5,2.5 Q123,-9 105,-9"/> 
            <glyph glyph-name="." unicode="&#x2E;" horiz-adv-x="386" d=" M78,0 L24,0 L335,744 L386,744"/> 
            <glyph glyph-name="/" unicode="&#x2F;" horiz-adv-x="512" d=" M463,227 L463,514 Q463,609 423,656.5 Q383,704 296,704 Q124,704 124,514 L124,227 Q124,37 297,37 Q463,37 463,227 M512,513 L512,228 Q512,111 456.5,50 Q401,-11 296,-11 Q190,-11 132,50 Q74,111 74,225 L74,516 Q74,630 132,691 Q190,752 296,752 Q401,752 456.5,691 Q512,630 512,513"/> 
            <glyph glyph-name="0" unicode="&#x30;" horiz-adv-x="536" d=" M536,0 L75,0 L75,51 L299,51 L299,692 L238,692 Q168,692 132,674 L119,723 Q160,744 234,744 L298,744 Q328,744 340.5,732 Q353,720 353,690 L353,51 L536,51"/> 
            <glyph glyph-name="1" unicode="&#x31;" horiz-adv-x="517" d=" M517,0 L103,0 Q87,0 77.5,10.5 Q68,21 68,38 Q68,63 86,79 L347,333 Q408,393 436.5,443.5 Q465,494 465,551 Q465,628 420.5,664 Q376,700 304,700 Q228,700 115,663 L84,653 L73,703 L101,712 Q221,751 303,751 Q395,751 455,703 Q515,655 515,550 Q515,425 386,300 L123,48 L517,48"/> 
            <glyph glyph-name="2" unicode="&#x32;" horiz-adv-x="531" d=" M433,290 L376,351 L241,351 L241,397 L376,397 L421,461 Q459,516 459,569 Q459,630 421,665 Q383,700 302,700 Q247,700 119,665 L86,656 L74,704 L110,715 Q229,751 303,751 Q403,751 456,703.5 Q509,656 509,570 Q509,505 466,445 L417,376 L479,312 Q531,257 531,185 Q531,97 470.5,44.5 Q410,-8 307,-8 Q221,-8 93,30 L59,40 L71,90 L104,80 Q237,41 307,41 Q394,41 437,79 Q480,117 480,184 Q480,240 433,290"/> 
            <glyph glyph-name="3" unicode="&#x33;" horiz-adv-x="559" d=" M469,0 L419,0 L419,147 L79,147 Q44,147 44,181 Q44,199 59,223 L381,720 Q400,750 429,750 Q469,750 469,707 L469,193 L559,193 L559,147 L469,147 M419,193 L419,693 L95,193"/> 
            <glyph glyph-name="4" unicode="&#x34;" horiz-adv-x="529" d=" M100,27 L69,36 L79,86 L112,76 Q228,41 290,41 Q382,41 430,94.5 Q478,148 478,236 Q478,418 293,418 Q228,418 150,394 L100,379 L100,744 L498,744 L498,692 L147,692 L147,440 Q240,467 299,467 Q407,467 468,409.5 Q529,352 529,236 Q529,125 465,58.5 Q401,-8 291,-8 Q219,-8 100,27"/> 
            <glyph glyph-name="5" unicode="&#x35;" horiz-adv-x="529" d=" M503,657 L471,666 Q347,701 289,701 Q120,701 120,519 L120,427 Q232,465 294,465 Q410,465 469.5,405 Q529,345 529,234 Q529,129 470,61.5 Q411,-6 303,-6 Q195,-6 132.5,61 Q70,128 70,239 L70,519 Q70,628 127,689 Q184,750 287,750 Q353,750 480,716 L513,707 M120,383 L120,243 Q120,150 168,96.5 Q216,43 305,43 Q388,43 433,95 Q478,147 478,234 Q478,415 289,415 Q238,415 120,383"/> 
            <glyph glyph-name="6" unicode="&#x36;" horiz-adv-x="534" d=" M252,0 L197,0 L484,695 L73,695 L73,744 L494,744 Q534,744 534,706 Q534,687 524,665"/> 
            <glyph glyph-name="7" unicode="&#x37;" horiz-adv-x="533" d=" M423,376 L484,308 Q533,253 533,182 Q533,95 469,43 Q405,-9 295,-9 Q183,-9 117.5,42.5 Q52,94 52,182 Q52,253 104,311 L162,376 L114,441 Q73,498 73,569 Q73,652 131,702 Q189,752 291,752 Q394,752 452.5,702 Q511,652 511,569 Q511,497 471,443 M435,289 L381,349 L203,349 L148,289 Q103,240 103,181 Q103,116 153,77 Q203,38 294,38 Q386,38 433.5,77 Q481,116 481,182 Q481,239 435,289 M381,396 L425,458 Q461,509 461,569 Q461,629 418,666.5 Q375,704 291,704 Q207,704 165,666.5 Q123,629 123,569 Q123,517 159,458 L204,396"/> 
            <glyph glyph-name="8" unicode="&#x38;" horiz-adv-x="516" d=" M466,225 L466,317 Q354,279 292,279 Q176,279 116.5,339 Q57,399 57,510 Q57,615 116,682.5 Q175,750 283,750 Q391,750 453.5,683 Q516,616 516,505 L516,225 Q516,116 459,55 Q402,-6 299,-6 Q233,-6 106,28 L73,37 L83,87 L115,78 Q239,43 297,43 Q466,43 466,225 M466,361 L466,501 Q466,594 418,647.5 Q370,701 281,701 Q197,701 152.5,649 Q108,597 108,510 Q108,423 152.5,376 Q197,329 297,329 Q348,329 466,361"/> 
            <glyph glyph-name="9" unicode="&#x39;" horiz-adv-x="144" d=" M105,-9 Q88,-9 77.5,2.5 Q67,14 67,34 Q67,54 77.5,65.5 Q88,77 105,77 Q123,77 133.5,65.5 Q144,54 144,34 Q144,14 133.5,2.5 Q123,-9 105,-9 M105,451 Q88,451 77.5,462.5 Q67,474 67,494 Q67,514 77.5,525.5 Q88,537 105,537 Q123,537 133.5,525.5 Q144,514 144,494 Q144,474 133.5,462.5 Q123,451 105,451"/> 
            <glyph glyph-name=":" unicode="&#x3A;" horiz-adv-x="159" d=" M55,-53 L96,104 L154,104 L108,-67 Q100,-91 80,-91 Q64,-91 57.5,-80 Q51,-69 55,-53 M120,451 Q103,451 92.5,462.5 Q82,474 82,494 Q82,514 92.5,525.5 Q103,537 120,537 Q138,537 148.5,525.5 Q159,514 159,494 Q159,474 148.5,462.5 Q138,451 120,451"/> 
            <glyph glyph-name=";" unicode="&#x3B;" horiz-adv-x="523" d=" M523,69 L75,255 Q49,267 49,296 Q49,323 76,335 L523,522 L523,463 L97,295 L523,126"/> 
            <glyph glyph-name="&lt;" unicode="&#x3C;" horiz-adv-x="512" d=" M512,358 L60,358 L60,413 L512,413 M512,186 L60,186 L60,241 L512,241"/> 
            <glyph glyph-name="=" unicode="&#x3D;" horiz-adv-x="523" d=" M497,255 L49,69 L49,126 L475,294 L49,463 L49,522 L496,335 Q523,323 523,296 Q523,267 497,255"/> 
            <glyph glyph-name="&gt;" unicode="&#x3E;" horiz-adv-x="411" d=" M242,234 L195,225 L195,297 Q195,337 223,366 L298,447 Q335,487 349,515 Q363,543 363,587 Q363,638 329.5,669 Q296,700 231,700 Q157,700 82,675 L52,665 L42,711 L74,721 Q157,747 232,747 Q314,747 362.5,705 Q411,663 411,588 Q411,535 393.5,499 Q376,463 339,422 L242,319 M219,-9 Q202,-9 191.5,2.5 Q181,14 181,34 Q181,54 191.5,65.5 Q202,77 219,77 Q237,77 247.5,65.5 Q258,54 258,34 Q258,14 247.5,2.5 Q237,-9 219,-9"/> 
            <glyph glyph-name="?" unicode="&#x3F;" horiz-adv-x="829" d=" M740,-3 L699,17 Q677,27 656,27 Q626,27 560.5,8.5 Q495,-10 428,-10 Q273,-10 181.5,94 Q90,198 90,354 Q90,529 200,640.5 Q310,752 477,752 Q630,752 729.5,657 Q829,562 829,409 Q829,299 775.5,231 Q722,163 647,163 Q624,163 592,173 Q560,183 546,183 Q525,183 484,175 Q443,167 420,167 Q348,167 309,212.5 Q270,258 270,332 Q270,423 322.5,486 Q375,549 468,549 Q512,549 579,540 L584,576 L630,576 L583,224 Q589,219 609,212.5 Q629,206 649,206 Q705,206 744,259.5 Q783,313 783,410 Q783,543 696.5,624.5 Q610,706 477,706 Q325,706 232,608.5 Q139,511 139,354 Q139,212 217.5,123.5 Q296,35 433,35 Q488,35 562,55.5 Q636,76 660,76 Q689,76 717,60 L758,35 M537,226 L574,497 Q519,506 468,506 Q393,506 356,455.5 Q319,405 319,330 Q319,278 346.5,244.5 Q374,211 429,211 Q459,211 537,226"/> 
            <glyph glyph-name="@" unicode="&#x40;" horiz-adv-x="640" d=" M640,0 L584,0 L518,177 L139,177 L73,0 L20,0 L289,718 Q301,751 332,751 Q364,751 375,720 M503,223 L332,694 L155,223"/> 
            <glyph glyph-name="A" unicode="&#x41;" horiz-adv-x="602" d=" M395,0 L140,0 Q85,0 85,53 L85,693 Q85,744 138,744 L389,744 Q475,744 524,700 Q573,656 573,571 Q573,503 534,446 L485,377 L550,308 Q602,253 602,181 Q602,97 547,48.5 Q492,0 395,0 M439,397 L483,461 Q518,512 518,571 Q518,699 384,699 L136,699 L136,397 M499,289 L439,351 L136,351 L136,46 L397,46 Q470,46 509,81 Q548,116 548,177 Q548,237 499,289"/> 
            <glyph glyph-name="B" unicode="&#x42;" horiz-adv-x="612" d=" M612,40 L570,27 Q457,-8 380,-8 Q235,-8 148.5,86 Q62,180 62,370 Q62,556 150.5,652 Q239,748 380,748 Q457,748 570,713 L612,700 L602,650 L560,663 Q449,697 381,697 Q257,697 187,616 Q117,535 117,370 Q117,205 187.5,124 Q258,43 382,43 Q450,43 560,77 L602,90"/> 
            <glyph glyph-name="C" unicode="&#x43;" horiz-adv-x="655" d=" M334,0 L141,0 Q85,0 85,53 L85,691 Q85,744 141,744 L337,744 Q482,744 568.5,644.5 Q655,545 655,370 Q655,196 567,98 Q479,0 334,0 M138,49 L331,49 Q460,49 531,133 Q602,217 602,370 Q602,520 528.5,608.5 Q455,697 324,697 L138,697"/> 
            <glyph glyph-name="D" unicode="&#x44;" horiz-adv-x="541" d=" M541,0 L141,0 Q85,0 85,53 L85,691 Q85,744 141,744 L538,744 L538,695 L138,695 L138,405 L490,405 L490,357 L138,357 L138,49 L541,49"/> 
            <glyph glyph-name="E" unicode="&#x45;" horiz-adv-x="528" d=" M496,343 L137,343 L137,0 L85,0 L85,691 Q85,744 141,744 L528,744 L528,695 L137,695 L137,390 L496,390"/> 
            <glyph glyph-name="F" unicode="&#x46;" horiz-adv-x="640" d=" M591,67 L591,296 L405,296 L405,342 L587,342 Q640,342 640,290 L640,76 Q640,50 628.5,38 Q617,26 589,18 Q497,-8 402,-8 Q249,-8 155.5,86 Q62,180 62,369 Q62,555 154.5,651 Q247,747 395,747 Q472,747 596,711 L638,699 L627,648 L582,661 Q463,696 394,696 Q262,696 188.5,615 Q115,534 115,369 Q115,206 193.5,123 Q272,40 403,40 Q494,40 591,67"/> 
            <glyph glyph-name="G" unicode="&#x47;" horiz-adv-x="614" d=" M614,0 L564,0 L564,355 L136,355 L136,0 L85,0 L85,744 L136,744 L136,402 L564,402 L564,744 L614,744"/> 
            <glyph glyph-name="H" unicode="&#x48;" horiz-adv-x="138" d=" M138,0 L85,0 L85,744 L138,744"/> 
            <glyph glyph-name="I" unicode="&#x49;" horiz-adv-x="275" d=" M222,168 L222,744 L275,744 L275,167 Q275,83 234,39.5 Q193,-4 119,-4 Q84,-4 19,11 L27,62 Q87,47 120,47 Q176,47 199,74.5 Q222,102 222,168"/> 
            <glyph glyph-name="J" unicode="&#x4A;" horiz-adv-x="602" d=" M602,0 L546,0 L336,445 L194,276 Q155,228 145,206 Q135,184 135,140 L135,0 L85,0 L85,744 L135,744 L134,272 L517,744 L587,744 L374,490"/> 
            <glyph glyph-name="K" unicode="&#x4B;" horiz-adv-x="511" d=" M511,0 L139,0 Q85,0 85,53 L85,744 L138,744 L138,50 L511,50"/> 
            <glyph glyph-name="L" unicode="&#x4C;" horiz-adv-x="763" d=" M763,0 L711,0 L711,690 L459,24 Q449,-3 421,-3 Q392,-3 382,24 L135,690 L135,0 L85,0 L85,702 Q85,749 131,749 Q170,749 186,707 L422,60 L666,707 Q681,749 719,749 Q763,749 763,702"/> 
            <glyph glyph-name="M" unicode="&#x4D;" horiz-adv-x="637" d=" M550,23 L135,685 L135,0 L85,0 L85,706 Q85,751 126,751 Q155,751 173,723 L588,62 L588,744 L637,744 L637,40 Q637,-5 596,-5 Q568,-5 550,23"/> 
            <glyph glyph-name="N" unicode="&#x4E;" horiz-adv-x="713" d=" M533,-8 Q233,-8 144,91.5 Q55,191 55,370 Q55,548 146,648 Q237,748 387,748 Q535,748 624,648 Q713,548 713,370 Q713,189 533,-8 M385,39 Q514,39 586,125 Q658,211 658,370 Q658,527 586,613.5 Q514,700 386,700 Q257,700 182.5,613.5 Q108,527 108,370 Q108,212 182.5,125.5 Q257,39 385,39"/> 
            <glyph glyph-name="O" unicode="&#x4F;" horiz-adv-x="567" d=" M135,0 L85,0 L85,692 Q85,744 139,744 L361,744 Q451,744 509,684 Q567,624 567,523 Q567,421 506.5,361.5 Q446,302 349,302 L135,302 M135,348 L349,348 Q427,348 472,394.5 Q517,441 517,524 Q517,604 473,651 Q429,698 356,698 L135,698"/> 
            <glyph glyph-name="P" unicode="&#x50;" horiz-adv-x="712" d=" M697,-66 L677,-66 Q612,-66 529.5,-33 Q447,0 392,0 Q238,0 146.5,95.5 Q55,191 55,370 Q55,548 146,648 Q237,748 387,748 Q535,748 623.5,648.5 Q712,549 712,370 Q712,233 662,148.5 Q612,64 512,23 Q599,-21 677,-21 L697,-21 M387,46 Q516,46 587.5,128.5 Q659,211 659,370 Q659,527 586.5,613.5 Q514,700 386,700 Q256,700 181.5,613.5 Q107,527 107,370 Q107,213 182,129.5 Q257,46 387,46"/> 
            <glyph glyph-name="Q" unicode="&#x51;" horiz-adv-x="608" d=" M608,0 L550,0 L409,311 L137,311 L137,0 L85,0 L85,693 Q85,720 97,732 Q109,744 136,744 L382,744 Q472,744 522.5,694 Q573,644 573,550 Q573,479 520,408 L458,326 M421,357 L466,420 Q517,495 517,549 Q517,698 374,698 L137,698 L137,357"/> 
            <glyph glyph-name="R" unicode="&#x52;" horiz-adv-x="559" d=" M104,36 L65,49 L78,100 L116,87 Q250,41 340,41 Q410,41 458,78 Q506,115 506,190 Q506,247 476,280.5 Q446,314 379,329 L236,361 Q66,400 66,551 Q66,648 130,698.5 Q194,749 285,749 Q379,749 515,707 L554,695 L542,643 L503,656 Q371,700 285,700 Q214,700 166,662.5 Q118,625 118,551 Q118,494 148,461.5 Q178,429 244,414 L388,381 Q559,343 559,191 Q559,94 495,43 Q431,-8 340,-8 Q234,-8 104,36"/> 
            <glyph glyph-name="S" unicode="&#x53;" horiz-adv-x="563" d=" M326,0 L272,0 L272,695 L35,695 L35,744 L563,744 L563,695 L326,695"/> 
            <glyph glyph-name="T" unicode="&#x54;" horiz-adv-x="628" d=" M575,261 L575,744 L628,744 L628,261 Q628,132 557,59 Q486,-14 354,-14 Q222,-14 151,59 Q80,132 80,261 L80,744 L133,744 L133,261 Q133,152 188.5,93.5 Q244,35 354,35 Q575,35 575,261"/> 
            <glyph glyph-name="U" unicode="&#x55;" horiz-adv-x="629" d=" M327,59 L573,744 L629,744 L363,23 Q353,-5 325,-5 Q296,-5 286,23 L25,744 L83,744"/> 
            <glyph glyph-name="V" unicode="&#x56;" horiz-adv-x="865" d=" M688,59 L817,744 L865,744 L729,28 Q723,-6 689,-6 Q657,-6 648,24 L449,679 L248,24 Q239,-6 207,-6 Q173,-6 167,28 L35,744 L87,744 L212,60 L413,716 Q422,744 451,744 Q481,744 489,716"/> 
            <glyph glyph-name="W" unicode="&#x57;" horiz-adv-x="609" d=" M609,0 L546,0 L324,339 L101,0 L40,0 L292,376 L43,744 L106,744 L325,415 L542,744 L601,744 L357,378"/> 
            <glyph glyph-name="X" unicode="&#x58;" horiz-adv-x="615" d=" M348,0 L295,0 L295,322 L25,744 L86,744 L324,371 L555,744 L615,744 L348,324"/> 
            <glyph glyph-name="Y" unicode="&#x59;" horiz-adv-x="566" d=" M566,0 L93,0 Q55,0 55,42 Q55,59 69,78 L511,697 L67,697 L67,744 L523,744 Q560,744 560,702 Q560,682 548,666 L107,47 L566,47"/> 
            <glyph glyph-name="Z" unicode="&#x5A;" horiz-adv-x="244" d=" M244,-65 L81,-65 L81,744 L244,744 L244,697 L131,697 L131,-19 L244,-19"/> 
            <glyph glyph-name="[" unicode="&#x5B;" horiz-adv-x="386" d=" M386,0 L332,0 L24,744 L75,744"/> 
            <glyph glyph-name="\" unicode="&#x5C;" horiz-adv-x="196" d=" M196,-65 L33,-65 L33,-19 L146,-19 L146,697 L33,697 L33,744 L196,744"/> 
            <glyph glyph-name="]" unicode="&#x5D;" horiz-adv-x="511" d=" M511,43 L454,43 L290,484 L127,43 L73,43 L254,514 Q264,543 291,543 Q317,543 328,514"/> 
            <glyph glyph-name="^" unicode="&#x5E;" horiz-adv-x="502" d=" M502,-160 L-2,-160 L-2,-111 L502,-111"/> 
            <glyph glyph-name="_" unicode="&#x5F;" horiz-adv-x="374" d=" M329,649 L205,763 L283,763 L365,683 Q374,675 374,662 Q374,653 367,646 Q360,639 350,639 Q339,639 329,649"/> 
            <glyph glyph-name="`" unicode="&#x60;" horiz-adv-x="551" d=" M531,-5 L491,19 Q457,39 417,29 L374,18 Q272,-7 225,-7 Q146,-7 101.5,32 Q57,71 57,140 Q57,223 113.5,259.5 Q170,296 261,296 L439,296 L439,371 Q439,501 299,501 Q233,501 125,469 L91,459 L80,507 L113,516 Q240,550 300,550 Q385,550 436,506.5 Q487,463 487,371 L487,72 L551,33 M439,74 L439,251 L260,251 Q107,251 107,141 Q107,38 233,38 Q276,38 370,59"/> 
            <glyph glyph-name="a" unicode="&#x61;" horiz-adv-x="532" d=" M129,467 L129,71 Q237,45 291,45 Q390,45 436,105.5 Q482,166 482,271 Q482,498 296,498 Q242,498 129,467 M80,79 L80,759 L129,770 L129,511 Q240,548 303,548 Q417,548 474.5,476.5 Q532,405 532,270 Q532,145 468,70.5 Q404,-4 293,-4 Q220,-4 128,22 Q103,29 91.5,41.5 Q80,54 80,79"/> 
            <glyph glyph-name="b" unicode="&#x62;" horiz-adv-x="474" d=" M474,30 L440,21 Q341,-5 289,-5 Q180,-5 117.5,63.5 Q55,132 55,272 Q55,405 118.5,477 Q182,549 289,549 Q344,549 440,523 L474,514 L464,465 L431,473 Q315,501 291,501 Q107,501 107,272 Q107,44 293,44 Q338,44 431,70 L464,79"/> 
            <glyph glyph-name="c" unicode="&#x63;" horiz-adv-x="506" d=" M458,71 L458,467 Q346,497 292,499 Q196,499 151,438 Q106,377 106,271 Q106,167 152,106 Q198,45 295,45 Q354,45 458,71 M458,511 L458,759 L506,770 L506,79 Q506,36 461,24 Q356,-4 290,-4 Q178,-4 116.5,68 Q55,140 55,270 Q55,402 116.5,475 Q178,548 290,548 Q350,548 458,511"/> 
            <glyph glyph-name="d" unicode="&#x64;" horiz-adv-x="525" d=" M108,296 L472,296 Q472,393 426.5,450.5 Q381,508 290,508 Q209,508 161,451 Q113,394 108,296 M515,39 L473,25 Q381,-6 305,-6 Q191,-6 123,65 Q55,136 55,271 Q55,409 122,480.5 Q189,552 291,552 Q399,552 462,484.5 Q525,417 525,284 Q525,249 494,249 L108,249 Q112,148 167,96 Q222,44 308,44 Q372,44 462,73 L505,87"/> 
            <glyph glyph-name="e" unicode="&#x65;" horiz-adv-x="369" d=" M170,0 L120,0 L120,488 L30,488 L30,534 L120,534 L120,596 Q120,680 159,722.5 Q198,765 269,765 Q304,765 369,751 L360,702 Q305,716 268,716 Q214,716 192,688 Q170,660 170,594 L170,534 L343,534 L343,488 L170,488"/> 
            <glyph glyph-name="f" unicode="&#x66;" horiz-adv-x="551" d=" M177,100 L386,100 Q463,100 504,67.5 Q545,35 545,-20 Q545,-95 479,-138 Q413,-181 277,-181 Q181,-181 119,-146 Q57,-111 57,-39 Q57,16 93,60 L143,121 Q168,152 168,171 Q168,209 122,241 Q50,290 50,376 Q50,457 109,500 Q168,543 270,543 L337,543 Q402,543 434,552 L540,581 L551,538 L424,505 Q427,503 431,500 Q435,497 446,485.5 Q457,474 465.5,460.5 Q474,447 481,424.5 Q488,402 488,377 Q488,295 430,252 Q372,209 268,209 Q249,209 230,211.5 Q211,214 202,216 L192,219 Q211,201 211,171 Q211,154 205,140.5 Q199,127 177,100 M439,376 Q439,500 269,500 Q99,500 99,376 Q99,247 269,247 Q346,247 392.5,278.5 Q439,310 439,376 M384,56 L144,56 Q105,13 105,-38 Q105,-89 153.5,-114 Q202,-139 282,-139 Q390,-139 443,-108 Q496,-77 496,-22 Q496,56 384,56"/> 
            <glyph glyph-name="g" unicode="&#x67;" horiz-adv-x="487" d=" M487,0 L438,0 L438,352 Q438,500 295,500 Q235,500 129,467 L129,0 L80,0 L80,759 L129,770 L129,510 Q241,548 300,548 Q398,548 442.5,495.5 Q487,443 487,355"/> 
            <glyph glyph-name="h" unicode="&#x68;" horiz-adv-x="152" d=" M140,0 L88,0 L88,544 L140,544 M113,680 Q96,680 85.5,691.5 Q75,703 75,723 Q75,743 85.5,754.5 Q96,766 113,766 Q131,766 141.5,754.5 Q152,743 152,723 Q152,703 141.5,691.5 Q131,680 113,680"/> 
            <glyph glyph-name="i" unicode="&#x69;" horiz-adv-x="169" d=" M15,-181 L15,-134 Q105,-134 105,-18 L105,544 L156,544 L156,-16 Q156,-94 118.5,-137.5 Q81,-181 15,-181 M130,680 Q113,680 102.5,691.5 Q92,703 92,723 Q92,743 102.5,754.5 Q113,766 130,766 Q148,766 158.5,754.5 Q169,743 169,723 Q169,703 158.5,691.5 Q148,680 130,680"/> 
            </font>
</defs>
</svg>
