<?xml version="1.0" standalone="no"?>
<!DOCTYPE svg PUBLIC "-//W3C//DTD SVG 1.1//EN" "http://www.w3.org/Graphics/SVG/1.1/DTD/svg11.dtd" >
<svg xmlns="http://www.w3.org/2000/svg">
    <defs>
        <font id="NewJuneHeavy">
            <font-face font-family="NewJuneHeavy"
                       units-per-em="1000"
                       ascent="960"
                       descent="-240"
                       bbox="-74 -200 1303 954"
                    />
            <missing-glyph horiz-adv-x="0" />
            
            <glyph glyph-name="!" unicode="&#x21;" horiz-adv-x="216" d=" M205,251 L48,224 L48,744 L205,744 M216,70 Q216,33 192.5,12 Q169,-9 127,-9 Q85,-9 61.5,12 Q38,33 38,70 Q38,108 61.5,130 Q85,152 127,152 Q169,152 192.5,130 Q216,108 216,70"/> 
            <glyph glyph-name="&quot;" unicode="&#x22;" horiz-adv-x="390" d=" M193,763 L180,518 L59,518 L45,763 M390,763 L377,518 L257,518 L242,763"/> 
            <glyph glyph-name="#" unicode="&#x23;" horiz-adv-x="677" d=" M677,544 L659,426 L548,426 L526,308 L638,308 L620,189 L504,189 L469,0 L339,0 L375,189 L259,189 L222,0 L91,0 L128,189 L24,189 L41,308 L151,308 L174,426 L61,426 L79,544 L196,544 L234,744 L363,744 L325,544 L439,544 L477,744 L607,744 L569,544 M419,426 L303,426 L280,308 L397,308"/> 
            <glyph glyph-name="$" unicode="&#x24;" horiz-adv-x="558" d=" M271,455 L372,431 Q558,386 558,221 Q558,122 503.5,65 Q449,8 361,-3 L361,-129 L233,-129 L233,-3 Q179,-1 97,23 L36,41 L63,193 L121,173 Q223,137 307,138 Q345,138 369,157.5 Q393,177 393,212 Q393,246 374,262.5 Q355,279 312,289 L223,309 Q36,352 36,519 Q36,618 90.5,675.5 Q145,733 233,743 L233,867 L361,867 L361,744 Q431,736 496,716 L557,697 L531,546 L471,566 Q366,601 289,601 Q249,601 225.5,581.5 Q202,562 202,527 Q202,471 271,455"/> 
            <glyph glyph-name="%" unicode="&#x25;" horiz-adv-x="887" d=" M418,566 Q418,475 366,422.5 Q314,370 225,370 Q135,370 84,422.5 Q33,475 33,566 Q33,656 85,708 Q137,760 226,760 Q316,760 367,708 Q418,656 418,566 M286,566 Q286,657 225,657 Q166,657 166,566 Q166,473 226,473 Q286,473 286,566 M807,744 L264,0 L108,0 L651,744 M887,271 Q887,89 835.5,37 Q784,-15 694,-15 Q604,-15 553,37 Q502,89 502,180 Q502,270 554,322 Q606,374 695,374 Q786,374 887,271 M755,88 Q755,272 694,272 Q666,272 650.5,247.5 Q635,223 635,180 Q635,88 755,88"/> 
            <glyph glyph-name="&amp;" unicode="&#x26;" horiz-adv-x="718" d=" M718,0 L529,0 L493,42 Q474,25 420.5,7.5 Q367,-10 292,-10 Q172,-10 107.5,49 Q43,108 43,200 Q43,333 173,394 Q138,436 121,473 Q104,510 104,559 Q104,653 166.5,704.5 Q229,756 330,756 Q430,756 488.5,708 Q547,660 547,573 Q547,436 385,362 L512,227 Q531,247 543.5,291.5 Q556,336 556,384 L556,455 L695,455 L695,382 Q695,307 671,239 Q647,171 607,127 M404,568 Q404,600 384.5,619.5 Q365,639 329,639 Q289,639 268.5,617.5 Q248,596 248,559 Q248,512 303,452 Q356,474 380,500.5 Q404,527 404,568 M406,138 L258,295 Q201,271 201,202 Q201,162 228,136 Q255,110 307,110 Q372,110 406,138"/> 
            <glyph glyph-name="'" unicode="&#x27;" horiz-adv-x="208" d=" M208,763 L194,518 L59,518 L45,763"/> 
            <glyph glyph-name="(" unicode="&#x28;" horiz-adv-x="329" d=" M39,340 Q39,441 57,516 Q75,591 102.5,633.5 Q130,676 170.5,702 Q211,728 248,736 Q285,744 329,744 L329,627 Q197,616 197,340 Q197,263 206.5,206 Q216,149 229.5,119 Q243,89 263,71 Q283,53 297,48.5 Q311,44 329,43 L329,-74 Q289,-74 253,-65.5 Q217,-57 176,-30 Q135,-3 106,41 Q77,85 58,161.5 Q39,238 39,340"/> 
            <glyph glyph-name=")" unicode="&#x29;" horiz-adv-x="325" d=" M325,340 Q325,238 306,161.5 Q287,85 258,41 Q229,-3 188,-30 Q147,-57 111,-65.5 Q75,-74 34,-74 L34,43 Q52,44 66,48.5 Q80,53 100,71 Q120,89 133,119 Q146,149 155.5,206 Q165,263 165,340 Q165,414 155.5,468.5 Q146,523 133,552 Q120,581 100,598.5 Q80,616 66,620.5 Q52,625 34,627 L34,744 Q79,744 116,736 Q153,728 193.5,702 Q234,676 261.5,633.5 Q289,591 307,516 Q325,441 325,340"/> 
            <glyph glyph-name="*" unicode="&#x2A;" horiz-adv-x="519" d=" M519,541 L367,505 L468,388 L346,307 L276,434 L204,308 L84,389 L184,506 L32,542 L74,675 L211,618 L199,762 L352,762 L340,617 L477,674"/> 
            <glyph glyph-name="+" unicode="&#x2B;" horiz-adv-x="543" d=" M543,233 L361,233 L361,39 L224,39 L224,233 L46,233 L46,354 L224,354 L224,548 L361,548 L361,354 L543,354"/> 
            <glyph glyph-name="," unicode="&#x2C;" horiz-adv-x="228" d=" M228,151 L173,-40 Q157,-91 97,-91 Q55,-91 37,-68 Q19,-45 28,-10 L66,151"/> 
            <glyph glyph-name="-" unicode="&#x2D;" horiz-adv-x="393" d=" M393,263 L40,263 L40,386 L393,386"/> 
            <glyph glyph-name="." unicode="&#x2E;" horiz-adv-x="216" d=" M216,114 Q216,36 192.5,13 Q169,-10 128,-10 Q86,-10 62,13 Q38,36 38,75 Q38,114 62,136.5 Q86,159 128,159 Q169,159 216,114"/> 
            <glyph glyph-name="/" unicode="&#x2F;" horiz-adv-x="428" d=" M428,744 L148,0 L7,0 L292,744"/> 
            <glyph glyph-name="0" unicode="&#x30;" horiz-adv-x="546" d=" M384,233 L384,509 Q384,617 296,617 Q208,617 208,509 L208,233 Q208,124 296,124 Q384,124 384,233 M546,505 L546,239 Q546,119 482.5,54.5 Q419,-10 298,-10 Q175,-10 109.5,54 Q44,118 44,236 L44,504 Q44,622 109,687 Q174,752 295,752 Q418,752 482,688 Q546,624 546,505"/> 
            <glyph glyph-name="1" unicode="&#x31;" horiz-adv-x="562" d=" M562,0 L40,0 L40,129 L234,129 L234,608 L211,608 Q139,608 97,581 L72,711 Q139,744 248,744 L303,744 Q351,744 377.5,719 Q404,694 404,649 L404,129 L562,129"/> 
            <glyph glyph-name="2" unicode="&#x32;" horiz-adv-x="543" d=" M290,751 Q405,751 473,694.5 Q541,638 541,522 Q541,457 511,397.5 Q481,338 410,273 L249,126 L543,126 L543,0 L110,0 Q37,0 37,82 Q37,124 63,149 L279,349 Q331,398 353.5,434 Q376,470 376,516 Q376,564 346.5,588.5 Q317,613 265,613 Q198,613 113,584 L62,566 L40,699 L91,715 Q204,751 290,751"/> 
            <glyph glyph-name="3" unicode="&#x33;" horiz-adv-x="558" d=" M558,204 Q558,101 487,46.5 Q416,-8 290,-8 Q198,-8 80,28 L26,45 L50,176 L103,159 Q206,126 277,126 Q334,126 363.5,148 Q393,170 393,210 Q393,249 364,281 L337,312 L188,312 L188,434 L332,434 L355,463 Q379,495 379,533 Q379,614 271,614 Q209,614 114,583 L65,567 L44,700 L96,717 Q205,751 293,751 Q543,751 543,548 Q543,479 493,412 L467,378 L496,347 Q558,285 558,204"/> 
            <glyph glyph-name="4" unicode="&#x34;" horiz-adv-x="578" d=" M348,120 L93,120 Q55,120 35.5,141 Q16,162 16,198 Q16,230 40,267 L294,688 Q329,751 405,751 Q508,751 508,657 L508,246 L578,246 L578,120 L508,120 L508,0 L348,0 M348,246 L348,503 L193,246"/> 
            <glyph glyph-name="5" unicode="&#x35;" horiz-adv-x="559" d=" M276,126 Q395,126 395,244 Q395,301 364,331.5 Q333,362 276,362 Q220,362 132,337 L73,320 L73,744 L531,744 L531,606 L209,606 L209,473 Q262,489 320,489 Q559,489 559,246 Q559,123 488,58 Q417,-7 289,-7 Q208,-9 91,26 L38,42 L61,173 L114,157 Q217,126 276,126"/> 
            <glyph glyph-name="6" unicode="&#x36;" horiz-adv-x="560" d=" M204,513 L204,470 Q261,489 322,489 Q560,489 560,250 Q560,135 491.5,65 Q423,-5 299,-5 Q177,-5 108.5,63.5 Q40,132 40,249 L40,513 Q40,622 112,686 Q184,750 303,750 Q398,750 494,717 L544,700 L520,567 L471,583 Q381,613 314,613 Q204,613 204,513 M204,343 L204,249 Q204,127 301,127 Q346,127 370,156.5 Q394,186 394,242 Q394,358 291,358 Q276,358 204,343"/> 
            <glyph glyph-name="7" unicode="&#x37;" horiz-adv-x="562" d=" M543,583 L305,0 L124,0 L381,608 L43,608 L43,744 L477,744 Q519,744 540.5,722.5 Q562,701 562,663 Q562,630 543,583"/> 
            <glyph glyph-name="8" unicode="&#x38;" horiz-adv-x="561" d=" M422,-8 Q172,-8 100.5,46.5 Q29,101 29,202 Q29,284 89,347 L118,377 L93,411 Q47,473 47,548 Q47,645 114,698.5 Q181,752 295,752 Q409,752 476.5,698.5 Q544,645 544,548 Q544,473 498,411 L472,377 L501,347 Q561,283 561,202 Q561,100 422,-8 M246,118 Q346,118 373.5,141.5 Q401,165 401,205 Q401,244 371,279 L344,310 L247,310 L220,279 Q191,247 191,205 Q191,166 246,118 M295,620 Q250,620 226,597 Q202,574 202,536 Q202,502 228,463 L248,433 L343,433 L363,463 Q390,503 390,536 Q390,574 365.5,597 Q341,620 295,620"/> 
            <glyph glyph-name="9" unicode="&#x39;" horiz-adv-x="550" d=" M386,232 L386,275 Q329,256 268,256 Q30,256 30,495 Q30,610 98.5,680 Q167,750 291,750 Q413,750 481.5,681.5 Q550,613 550,496 L550,232 Q550,123 478,59 Q406,-5 287,-5 Q192,-5 96,28 L46,45 L70,178 L119,162 Q209,132 276,132 Q386,132 386,232 M386,402 L386,496 Q386,618 289,618 Q244,618 220,588.5 Q196,559 196,503 Q196,387 299,387 Q314,387 386,402"/> 
            <glyph glyph-name=":" unicode="&#x3A;" horiz-adv-x="216" d=" M216,114 Q216,36 192.5,13 Q169,-10 128,-10 Q86,-10 62,13 Q38,36 38,75 Q38,114 62,136.5 Q86,159 128,159 Q169,159 216,114 M216,503 Q216,425 192.5,402.5 Q169,380 128,380 Q86,380 62,402.5 Q38,425 38,464 Q38,503 62,525.5 Q86,548 128,548 Q169,548 216,503"/> 
            <glyph glyph-name=";" unicode="&#x3B;" horiz-adv-x="228" d=" M228,151 L173,-40 Q157,-91 97,-91 Q55,-91 37,-68 Q19,-45 28,-10 L66,151 M222,502 Q222,426 198,403 Q174,380 133,380 Q91,380 67,403 Q43,426 43,464 Q43,502 67,525 Q91,548 133,548 Q174,548 222,502"/> 
            <glyph glyph-name="&lt;" unicode="&#x3C;" horiz-adv-x="547" d=" M547,40 L117,191 Q43,216 43,295 Q43,375 114,399 L547,554 L547,396 L207,295 L547,193"/> 
            <glyph glyph-name="=" unicode="&#x3D;" horiz-adv-x="543" d=" M543,149 L46,149 L46,266 L543,266 M543,331 L46,331 L46,448 L543,448"/> 
            <glyph glyph-name="&gt;" unicode="&#x3E;" horiz-adv-x="547" d=" M473,191 L43,40 L43,193 L383,295 L43,396 L43,554 L476,399 Q547,375 547,295 Q547,216 473,191"/> 
            <glyph glyph-name="?" unicode="&#x3F;" horiz-adv-x="444" d=" M214,614 Q159,614 99,596 L45,580 L24,708 L73,722 Q157,746 232,746 Q330,746 387,697.5 Q444,649 444,563 Q444,469 365,391 L294,321 L293,251 L140,224 L140,290 Q140,327 147.5,348 Q155,369 179,393 L245,459 Q286,500 286,551 Q286,614 214,614 M305,70 Q305,33 281.5,12 Q258,-9 217,-9 Q175,-9 151.5,12 Q128,33 128,70 Q128,108 151.5,130 Q175,152 217,152 Q258,152 281.5,130 Q305,108 305,70"/> 
            <glyph glyph-name="@" unicode="&#x40;" horiz-adv-x="852" d=" M852,409 Q852,298 789.5,228.5 Q727,159 642,159 Q618,159 589.5,168 Q561,177 548,177 Q532,177 494,169.5 Q456,162 427,162 Q343,162 300.5,208 Q258,254 258,333 Q258,424 316,487.5 Q374,551 473,551 Q503,551 541,547 L545,573 L654,573 L610,252 Q632,241 646,241 Q688,241 719,285.5 Q750,330 750,408 Q750,523 680.5,589.5 Q611,656 487,656 Q355,656 271.5,568.5 Q188,481 188,349 Q188,229 254.5,155 Q321,81 438,81 Q479,81 550.5,99 Q622,117 658,117 Q698,117 727,100 L787,65 L749,-11 L691,16 Q677,23 652,23 Q629,23 561.5,6 Q494,-11 434,-11 Q271,-11 176.5,90.5 Q82,192 82,349 Q82,522 198,637.5 Q314,753 487,753 Q650,753 751,658.5 Q852,564 852,409 M501,259 L529,460 Q491,465 473,465 Q424,465 398.5,426.5 Q373,388 373,331 Q373,250 439,250 Q449,250 501,259"/> 
            <glyph glyph-name="A" unicode="&#x41;" horiz-adv-x="720" d=" M720,0 L526,0 L488,125 L240,125 L200,0 L8,0 L236,665 Q265,752 370,752 Q473,752 502,666 M454,263 L366,559 L275,263"/> 
            <glyph glyph-name="B" unicode="&#x42;" horiz-adv-x="666" d=" M418,0 L154,0 Q107,0 80,25 Q53,50 53,94 L53,650 Q53,694 79.5,719 Q106,744 154,744 L414,744 Q524,744 582.5,695.5 Q641,647 641,550 Q641,476 592,414 L566,380 L596,349 Q666,282 666,200 Q666,104 602.5,52 Q539,0 418,0 M460,540 Q460,611 382,611 L241,611 L241,439 L414,439 L439,475 Q460,504 460,540 M418,308 L241,308 L241,134 L392,134 Q434,134 456.5,153.5 Q479,173 479,207 Q479,242 451,272"/> 
            <glyph glyph-name="C" unicode="&#x43;" horiz-adv-x="659" d=" M38,371 Q38,554 135,651.5 Q232,749 391,749 Q483,750 599,714 L659,695 L636,542 L576,561 Q486,590 415,590 Q237,590 237,371 Q237,153 415,153 Q494,153 574,180 L636,201 L659,47 L601,29 Q487,-7 390,-7 Q229,-7 133.5,89.5 Q38,186 38,371"/> 
            <glyph glyph-name="D" unicode="&#x44;" horiz-adv-x="703" d=" M703,545 Q703,195 606,97.5 Q509,0 345,0 L154,0 Q106,0 79.5,24.5 Q53,49 53,93 L53,649 Q53,693 79.5,718.5 Q106,744 154,744 L347,744 Q512,744 703,545 M514,370 Q514,477 467,538 Q420,599 336,599 L245,599 L245,145 L342,145 Q424,145 469,203 Q514,261 514,370"/> 
            <glyph glyph-name="E" unicode="&#x45;" horiz-adv-x="593" d=" M593,0 L154,0 Q107,0 80,25 Q53,50 53,94 L53,650 Q53,694 80,719 Q107,744 154,744 L591,744 L591,603 L245,603 L245,446 L548,446 L548,311 L245,311 L245,140 L593,140"/> 
            <glyph glyph-name="F" unicode="&#x46;" horiz-adv-x="581" d=" M581,601 L246,601 L246,431 L552,431 L552,295 L246,295 L246,0 L53,0 L53,649 Q53,693 79.5,718.5 Q106,744 154,744 L581,744"/> 
            <glyph glyph-name="G" unicode="&#x47;" horiz-adv-x="694" d=" M402,-6 Q235,-6 136.5,90.5 Q38,187 38,371 Q38,553 138,651 Q238,749 403,749 Q501,749 622,713 L685,694 L660,540 L598,557 Q482,589 422,589 Q328,589 277.5,533 Q227,477 227,366 Q227,250 278,191.5 Q329,133 424,133 Q480,133 518,141 L518,269 L377,269 L377,401 L593,401 Q640,401 667,375 Q694,349 694,307 L694,145 Q694,91 675.5,63.5 Q657,36 608,23 Q503,-6 402,-6"/> 
            <glyph glyph-name="H" unicode="&#x48;" horiz-adv-x="673" d=" M673,0 L481,0 L481,307 L245,307 L245,0 L53,0 L53,744 L245,744 L245,447 L481,447 L481,744 L673,744"/> 
            <glyph glyph-name="I" unicode="&#x49;" horiz-adv-x="248" d=" M248,0 L53,0 L53,744 L248,744"/> 
            <glyph glyph-name="J" unicode="&#x4A;" horiz-adv-x="418" d=" M418,744 L418,222 Q418,113 356,56 Q294,-1 183,-1 Q109,-1 16,27 L38,170 Q111,150 146,150 Q189,150 207,170 Q225,190 225,237 L225,744"/> 
            <glyph glyph-name="K" unicode="&#x4B;" horiz-adv-x="692" d=" M690,0 L487,0 L348,331 L295,269 Q266,234 253.5,206.5 Q241,179 241,140 L241,0 L53,0 L53,744 L242,744 L242,433 L477,744 L692,744 L488,485"/> 
            <glyph glyph-name="L" unicode="&#x4C;" horiz-adv-x="569" d=" M569,0 L154,0 Q106,0 79.5,24.5 Q53,49 53,93 L53,744 L247,744 L247,154 L569,154"/> 
            <glyph glyph-name="M" unicode="&#x4D;" horiz-adv-x="861" d=" M861,633 L861,0 L690,0 L690,507 L553,61 Q532,-5 454,-5 Q374,-5 353,61 L218,508 L218,0 L53,0 L53,632 Q53,689 91,719.5 Q129,750 195,750 Q318,750 350,641 L458,275 L570,642 Q604,750 724,750 Q783,750 822,721 Q861,692 861,633"/> 
            <glyph glyph-name="N" unicode="&#x4E;" horiz-adv-x="704" d=" M219,484 L219,0 L53,0 L53,633 Q53,690 88.5,720.5 Q124,751 189,751 Q278,751 317,679 L538,260 L538,744 L704,744 L704,110 Q704,54 668.5,24 Q633,-6 569,-6 Q514,-6 481.5,19.5 Q449,45 425,91"/> 
            <glyph glyph-name="O" unicode="&#x4F;" horiz-adv-x="772" d=" M772,370 Q772,190 671,91 Q570,-8 402,-8 Q235,-8 136.5,92 Q38,192 38,370 Q38,548 139,648.5 Q240,749 407,749 Q574,749 673,649 Q772,549 772,370 M578,370 Q578,485 532,548 Q486,611 402,611 Q320,611 276,548.5 Q232,486 232,370 Q232,255 278,192 Q324,129 407,129 Q489,129 533.5,191.5 Q578,254 578,370"/> 
            <glyph glyph-name="P" unicode="&#x50;" horiz-adv-x="630" d=" M630,501 Q630,388 560,323 Q490,258 371,258 L241,258 L241,0 L53,0 L53,649 Q53,693 79.5,718.5 Q106,744 154,744 L381,744 Q495,744 562.5,678.5 Q630,613 630,501 M456,501 Q456,605 340,605 L241,605 L241,397 L354,397 Q402,397 429,424.5 Q456,452 456,501"/> 
            <glyph glyph-name="Q" unicode="&#x51;" horiz-adv-x="769" d=" M769,373 Q769,267 725.5,190.5 Q682,114 611,77 Q669,55 730,55 L762,55 L762,-81 L715,-81 Q666,-81 621.5,-68.5 Q577,-56 549.5,-40.5 Q522,-25 484,-12.5 Q446,0 408,0 Q241,0 139.5,95 Q38,190 38,370 Q38,548 138.5,648.5 Q239,749 406,749 Q574,749 671.5,650.5 Q769,552 769,373 M578,370 Q578,485 532,548 Q486,611 402,611 Q320,611 276,548.5 Q232,486 232,370 Q232,255 277.5,193.5 Q323,132 407,132 Q489,132 533.5,193 Q578,254 578,370"/> 
            <glyph glyph-name="R" unicode="&#x52;" horiz-adv-x="688" d=" M688,0 L487,0 L380,264 L245,264 L245,0 L53,0 L53,650 Q53,691 80.5,717.5 Q108,744 153,744 L415,744 Q528,744 591.5,686.5 Q655,629 655,524 Q655,443 590,364 L551,317 M471,518 Q471,608 382,608 L245,608 L245,400 L411,400 L438,435 Q471,479 471,518"/> 
            <glyph glyph-name="S" unicode="&#x53;" horiz-adv-x="620" d=" M297,456 L421,430 Q521,409 570,360.5 Q619,312 619,223 Q619,110 543.5,50.5 Q468,-9 348,-9 Q225,-9 107,28 L40,51 L69,208 L136,184 Q258,141 346,141 Q387,141 412.5,159.5 Q438,178 438,214 Q438,269 365,285 L240,311 Q141,332 91.5,382 Q42,432 42,520 Q42,633 116.5,691 Q191,749 313,749 Q432,749 553,711 L620,690 L589,531 L522,556 Q402,599 315,599 Q223,599 223,526 Q223,497 240.5,480.5 Q258,464 297,456"/> 
            <glyph glyph-name="T" unicode="&#x54;" horiz-adv-x="636" d=" M636,599 L430,599 L430,0 L237,0 L237,599 L31,599 L31,744 L636,744"/> 
            <glyph glyph-name="U" unicode="&#x55;" horiz-adv-x="683" d=" M683,275 Q683,139 601,63 Q519,-13 365,-13 Q211,-13 129.5,62.5 Q48,138 48,275 L48,744 L241,744 L241,272 Q241,145 365,145 Q490,145 490,272 L490,744 L683,744"/> 
            <glyph glyph-name="V" unicode="&#x56;" horiz-adv-x="705" d=" M705,744 L480,75 Q453,-6 351,-6 Q250,-6 224,75 L8,744 L203,744 L356,204 L513,744"/> 
            <glyph glyph-name="W" unicode="&#x57;" horiz-adv-x="967" d=" M967,744 L842,80 Q825,-9 719,-9 Q612,-9 591,74 L490,465 L384,74 Q364,-8 257,-8 Q152,-8 135,81 L11,744 L196,744 L271,207 L394,679 Q409,744 493,744 Q574,744 591,679 L710,206 L787,744"/> 
            <glyph glyph-name="X" unicode="&#x58;" horiz-adv-x="723" d=" M723,0 L513,0 L373,251 L228,0 L21,0 L255,374 L27,744 L237,744 L374,504 L507,744 L715,744 L493,379"/> 
            <glyph glyph-name="Y" unicode="&#x59;" horiz-adv-x="726" d=" M726,744 L464,304 L464,0 L271,0 L271,302 L6,744 L215,744 L370,466 L519,744"/> 
            <glyph glyph-name="Z" unicode="&#x5A;" horiz-adv-x="634" d=" M604,576 L274,140 L630,140 L630,0 L122,0 Q79,0 57,24 Q35,48 35,88 Q35,127 64,166 L398,602 L55,602 L55,744 L546,744 Q590,744 612,720 Q634,696 634,654 Q634,614 604,576"/> 
            <glyph glyph-name="[" unicode="&#x5B;" horiz-adv-x="328" d=" M328,-65 L70,-65 L70,744 L328,744 L328,627 L216,627 L216,50 L328,50"/> 
            <glyph glyph-name="\" unicode="&#x5C;" horiz-adv-x="428" d=" M286,0 L7,744 L143,744 L428,0"/> 
            <glyph glyph-name="]" unicode="&#x5D;" horiz-adv-x="292" d=" M292,-65 L33,-65 L33,50 L146,50 L146,627 L33,627 L33,744 L292,744"/> 
            <glyph glyph-name="^" unicode="&#x5E;" horiz-adv-x="551" d=" M551,43 L394,43 L293,381 L191,43 L37,43 L191,477 Q213,549 293,549 Q370,549 395,478"/> 
            <glyph glyph-name="_" unicode="&#x5F;" horiz-adv-x="502" d=" M502,-179 L-2,-179 L-2,-74 L502,-74"/> 
            <glyph glyph-name="`" unicode="&#x60;" horiz-adv-x="415" d=" M295,625 L120,763 L321,763 L393,697 Q415,676 415,649 Q415,630 401,615 Q387,600 360,600 Q327,600 295,625"/> 
            <glyph glyph-name="a" unicode="&#x61;" horiz-adv-x="589" d=" M589,87 L531,-13 L481,13 Q448,30 395,19 L372,14 Q284,-6 233,-6 Q141,-6 88.5,37 Q36,80 36,156 Q36,207 56,242.5 Q76,278 113,296.5 Q150,315 193.5,322.5 Q237,330 293,330 L379,330 L379,359 Q379,430 293,430 Q219,430 132,402 L74,383 L55,505 L108,521 Q223,556 310,556 Q530,556 530,366 L530,123 M381,126 L381,226 L279,226 Q191,226 191,162 Q191,104 264,104 Q294,104 344,117"/> 
            <glyph glyph-name="b" unicode="&#x62;" horiz-adv-x="564" d=" M295,427 Q263,427 209,411 L209,129 Q263,118 290,118 Q408,118 408,273 Q408,350 381,388.5 Q354,427 295,427 M323,553 Q564,553 564,276 Q564,146 492.5,70.5 Q421,-5 296,-5 Q203,-5 122,20 Q84,31 67.5,52 Q51,73 51,110 L51,747 Q157,765 209,775 L209,534 Q266,553 323,553"/> 
            <glyph glyph-name="c" unicode="&#x63;" horiz-adv-x="504" d=" M199,275 Q199,124 318,124 Q364,124 441,149 L485,162 L504,34 L458,20 Q371,-7 300,-7 Q179,-7 108,65 Q37,137 37,275 Q37,411 108.5,484 Q180,557 300,557 Q371,557 458,530 L504,516 L485,388 L441,401 Q362,425 318,425 Q199,425 199,275"/> 
            <glyph glyph-name="d" unicode="&#x64;" horiz-adv-x="549" d=" M305,427 Q246,427 219.5,388.5 Q193,350 193,273 Q193,118 311,118 Q337,118 391,129 L391,411 Q337,425 305,427 M391,747 Q515,768 549,775 L549,110 Q549,73 532.5,52 Q516,31 479,20 Q394,-5 303,-5 Q177,-5 106.5,67.5 Q36,140 36,272 Q36,407 99,480 Q162,553 283,553 Q324,553 391,534"/> 
            <glyph glyph-name="e" unicode="&#x65;" horiz-adv-x="554" d=" M37,274 Q37,414 111.5,486 Q186,558 300,558 Q420,558 487,490.5 Q554,423 554,288 Q554,226 490,226 L191,226 Q203,119 326,119 Q396,119 475,143 L528,160 L547,43 L494,26 Q390,-6 314,-6 Q185,-6 111,65.5 Q37,137 37,274 M400,329 Q400,380 374,412.5 Q348,445 295,445 Q249,445 221.5,414 Q194,383 190,329"/> 
            <glyph glyph-name="f" unicode="&#x66;" horiz-adv-x="429" d=" M429,741 L410,625 Q350,641 317,641 Q278,641 262.5,625.5 Q247,610 247,570 L247,547 L402,547 L402,429 L247,429 L247,0 L92,0 L92,429 L16,429 L16,547 L92,547 L92,583 Q92,674 143,719.5 Q194,765 288,765 Q346,765 429,741"/> 
            <glyph glyph-name="g" unicode="&#x67;" horiz-adv-x="596" d=" M388,371 Q388,443 286,443 Q185,443 185,371 Q185,297 286,297 Q388,297 388,371 M445,-10 Q445,33 381,33 L198,33 Q181,14 181,-17 Q181,-77 304,-77 Q445,-77 445,-10 M40,-20 Q40,36 78,84 L122,140 Q140,164 140,186 Q140,215 110,237 Q37,293 37,371 Q37,460 102,503.5 Q167,547 282,547 L336,547 Q395,547 435,559 L568,598 L596,484 L503,458 Q537,430 537,371 Q537,287 473.5,245 Q410,203 296,203 L254,206 Q261,199 261,178 Q261,156 247,138 L393,138 Q489,138 536.5,101 Q584,64 584,-4 Q584,-88 512.5,-133 Q441,-178 300,-178 Q181,-178 110.5,-139.5 Q40,-101 40,-20"/> 
            <glyph glyph-name="h" unicode="&#x68;" horiz-adv-x="533" d=" M299,419 Q268,419 212,404 L212,0 L51,0 L51,747 Q74,751 128.5,760.5 Q183,770 212,775 L212,533 Q274,553 328,553 Q533,553 533,357 L533,0 L375,0 L375,344 Q375,419 299,419"/> 
            <glyph glyph-name="i" unicode="&#x69;" horiz-adv-x="221" d=" M210,0 L54,0 L54,550 L210,550 M221,690 Q221,652 197.5,630.5 Q174,609 132,609 Q90,609 66.5,630.5 Q43,652 43,690 Q43,727 66.5,748.5 Q90,770 132,770 Q174,770 197.5,748.5 Q221,727 221,690"/> 
            <glyph glyph-name="j" unicode="&#x6A;" horiz-adv-x="227" d=" M216,550 L216,4 Q216,-181 -10,-181 L-10,-66 Q28,-65 43.5,-47.5 Q59,-30 59,7 L59,550 M227,690 Q227,652 203.5,630.5 Q180,609 138,609 Q96,609 72.5,630.5 Q49,652 49,690 Q49,727 72.5,748.5 Q96,770 138,770 Q180,770 203.5,748.5 Q227,727 227,690"/> 
            <glyph glyph-name="k" unicode="&#x6B;" horiz-adv-x="575" d=" M575,0 L394,0 L292,233 L255,190 Q237,170 229.5,159 Q222,148 215,127.5 Q208,107 208,80 L208,0 L51,0 L51,747 L208,775 L208,337 L382,550 L571,550 L416,365"/> 
            <glyph glyph-name="l" unicode="&#x6C;" horiz-adv-x="214" d=" M214,0 L51,0 L51,746 Q80,751 135,761 Q190,771 214,775"/> 
            <glyph glyph-name="m" unicode="&#x6D;" horiz-adv-x="822" d=" M209,407 L209,0 L51,0 L51,438 Q51,475 69,496 Q87,517 125,529 Q208,555 294,555 Q392,555 442,516 Q528,555 612,555 Q822,555 822,362 L822,0 L665,0 L665,348 Q665,421 595,421 Q554,421 508,403 Q516,379 516,355 L516,0 L359,0 L359,348 Q359,421 288,421 Q253,421 209,407"/> 
            <glyph glyph-name="n" unicode="&#x6E;" horiz-adv-x="534" d=" M212,407 L212,0 L51,0 L51,438 Q51,508 125,529 Q217,555 305,555 Q423,555 478.5,502.5 Q534,450 534,358 L534,0 L376,0 L376,345 Q376,421 298,421 Q262,421 212,407"/> 
            <glyph glyph-name="o" unicode="&#x6F;" horiz-adv-x="583" d=" M583,275 Q583,142 509.5,68 Q436,-6 308,-6 Q181,-6 109,67.5 Q37,141 37,275 Q37,409 110.5,483 Q184,557 311,557 Q439,557 511,483 Q583,409 583,275 M422,275 Q422,356 393,398.5 Q364,441 308,441 Q198,441 198,275 Q198,109 311,109 Q422,109 422,275"/> 
            <glyph glyph-name="p" unicode="&#x70;" horiz-adv-x="564" d=" M295,123 Q354,123 381,161 Q408,199 408,275 Q408,429 290,429 Q261,429 209,419 L209,138 Q266,123 295,123 M209,-157 L51,-186 L51,439 Q51,476 67.5,497 Q84,518 122,529 Q209,555 298,555 Q424,555 494,482 Q564,409 564,277 Q564,143 501.5,70 Q439,-3 317,-3 Q268,-3 209,16"/> 
            <glyph glyph-name="q" unicode="&#x71;" horiz-adv-x="549" d=" M305,123 Q335,123 391,138 L391,419 Q342,429 311,429 Q193,429 193,275 Q193,198 219.5,160.5 Q246,123 305,123 M278,-3 Q36,-3 36,274 Q36,404 107.5,479.5 Q179,555 304,555 Q394,555 479,529 Q516,518 532.5,497 Q549,476 549,439 L549,-159 L391,-187 L391,16 Q334,-3 278,-3"/> 
            <glyph glyph-name="r" unicode="&#x72;" horiz-adv-x="375" d=" M375,554 L375,426 Q269,426 207,408 L207,0 L51,0 L51,436 Q51,507 125,528 Q222,554 375,554"/> 
            <glyph glyph-name="s" unicode="&#x73;" horiz-adv-x="511" d=" M252,340 L350,324 Q509,298 509,170 Q509,84 448.5,38.5 Q388,-7 290,-7 Q191,-7 94,24 L40,41 L62,164 L117,145 Q218,112 287,112 Q357,112 357,162 Q357,202 298,210 L200,226 Q42,250 42,382 Q42,467 102.5,512 Q163,557 261,557 Q359,557 456,526 L511,509 L489,385 L433,404 Q329,438 263,438 Q193,438 193,388 Q193,348 252,340"/> 
            <glyph glyph-name="t" unicode="&#x74;" horiz-adv-x="421" d=" M403,132 L421,16 Q345,-6 281,-6 Q87,-6 87,193 L87,428 L13,428 L13,547 L87,547 L87,658 L242,686 L242,547 L403,547 L403,428 L242,428 L242,192 Q242,116 312,116 Q339,116 403,132"/> 
            <glyph glyph-name="u" unicode="&#x75;" horiz-adv-x="534" d=" M374,142 L374,550 L534,550 L534,111 Q534,73 516,51.5 Q498,30 460,20 Q372,-5 281,-5 Q163,-5 107,47 Q51,99 51,191 L51,550 L209,550 L209,205 Q209,128 287,128 Q323,128 374,142"/> 
            <glyph glyph-name="v" unicode="&#x76;" horiz-adv-x="566" d=" M566,550 L398,61 Q372,-11 283,-11 Q195,-11 171,61 L11,550 L182,550 L287,171 L397,550"/> 
            <glyph glyph-name="w" unicode="&#x77;" horiz-adv-x="808" d=" M808,550 L705,68 Q688,-11 597,-11 Q547,-11 520.5,7 Q494,25 484,63 L413,306 L338,61 Q316,-10 226,-10 Q182,-10 153.5,11 Q125,32 117,68 L18,550 L182,550 L239,176 L331,499 Q346,553 416,553 Q486,553 501,499 L590,175 L649,550"/> 
            <glyph glyph-name="x" unicode="&#x78;" horiz-adv-x="581" d=" M581,0 L396,0 L298,168 L198,0 L17,0 L195,276 L20,551 L204,551 L299,390 L389,551 L572,551 L403,282"/> 
            <glyph glyph-name="y" unicode="&#x79;" horiz-adv-x="569" d=" M178,-182 Q121,-182 43,-159 L62,-43 Q125,-61 158,-61 Q169,-61 178,-59.5 Q187,-58 194,-53.5 Q201,-49 205,-46 Q209,-43 213,-34.5 Q217,-26 218.5,-23 Q220,-20 223.5,-9 Q227,2 228,4 L14,550 L190,550 L304,187 L404,550 L569,550 L380,-17 Q352,-101 306,-141.5 Q260,-182 178,-182"/> 
            <glyph glyph-name="z" unicode="&#x7A;" horiz-adv-x="520" d=" M47,550 L443,550 Q481,550 500.5,528.5 Q520,507 520,472 Q520,433 492,402 L243,116 L517,116 L517,0 L112,0 Q75,0 55.5,21 Q36,42 36,77 Q36,116 66,151 L314,433 L47,433"/> 
            <glyph glyph-name="{" unicode="&#x7B;" horiz-adv-x="326" d=" M222,338 Q271,312 271,259 Q271,231 248,179.5 Q225,128 225,101 Q225,49 281,49 L326,49 L326,-67 L248,-67 Q169,-67 126,-31.5 Q83,4 83,68 Q83,111 108.5,167 Q134,223 134,243 Q134,291 46,291 L46,385 Q134,385 134,433 Q134,453 108.5,509.5 Q83,566 83,608 Q83,672 125.5,708 Q168,744 248,744 L326,744 L326,626 L281,626 Q225,626 225,573 Q225,546 248,495 Q271,444 271,416 Q271,362 222,338"/> 
            <glyph glyph-name="|" unicode="&#x7C;" horiz-adv-x="216" d=" M216,-180 L65,-180 L65,763 L216,763"/> 
            <glyph glyph-name="}" unicode="&#x7D;" horiz-adv-x="315" d=" M138,338 Q90,362 90,416 Q90,444 112.5,495 Q135,546 135,573 Q135,598 120.5,612 Q106,626 80,626 L34,626 L34,744 L112,744 Q192,744 234.5,708 Q277,672 277,608 Q277,565 251.5,509 Q226,453 226,433 Q226,385 315,385 L315,291 Q226,291 226,243 Q226,223 251.5,166.5 Q277,110 277,68 Q277,4 234.5,-31.5 Q192,-67 112,-67 L34,-67 L34,49 L80,49 Q135,49 135,101 Q135,128 112.5,179.5 Q90,231 90,259 Q90,312 138,338"/> 
            <glyph glyph-name="~" unicode="&#x7E;" horiz-adv-x="565" d=" M385,202 Q330,202 282,235 L242,263 Q218,282 194,282 Q149,282 117,207 L23,267 Q78,413 204,413 Q258,413 306,380 L346,352 Q369,334 395,334 Q438,334 471,409 L565,348 Q510,202 385,202"/> 
            <glyph glyph-name="¡" unicode="&#xA1;" horiz-adv-x="216" d=" M49,305 L206,333 L206,-186 L49,-186 M38,486 Q38,523 61.5,545 Q85,567 127,567 Q169,567 192.5,545 Q216,523 216,486 Q216,448 192.5,426 Q169,404 127,404 Q85,404 61.5,426 Q38,448 38,486"/> 
            <glyph glyph-name="¢" unicode="&#xA2;" horiz-adv-x="521" d=" M215,425 Q215,125 336,125 Q383,125 458,149 L503,162 L521,34 L474,20 Q414,3 375,-2 L375,-132 L246,-132 L246,1 Q156,20 104.5,89.5 Q53,159 53,275 Q53,389 104.5,459 Q156,529 246,549 L246,680 L375,680 L375,550 Q421,546 474,529 L521,516 L503,388 L458,401 Q377,425 335,425"/> 
            <glyph glyph-name="£" unicode="&#xA3;" horiz-adv-x="568" d=" M379,0 L83,0 Q25,0 25,59 Q25,121 83,121 Q133,121 156,146.5 Q179,172 179,212 Q179,238 171,261 L47,261 L47,361 L118,361 Q86,415 71.5,452 Q57,489 57,534 Q57,638 123.5,694.5 Q190,751 303,751 Q316,751 329.5,750.5 Q343,750 358,747.5 Q373,745 383.5,743.5 Q394,742 411.5,738 Q429,734 437,732.5 Q445,731 465,725 Q485,719 490.5,717.5 Q496,716 519.5,709 Q543,702 547,701 L526,568 Q514,572 485.5,580.5 Q457,589 442.5,593 Q428,597 405.5,602.5 Q383,608 363.5,610.5 Q344,613 325,613 Q220,613 220,522 Q220,498 227.5,471 Q235,444 243,426.5 Q251,409 273,362 L423,362 L423,261 L307,261 Q314,231 314,212 Q314,162 289,123 L377,123 Q404,123 426.5,140 Q449,157 449,197 L568,197 Q568,0 379,0"/> 
            <glyph glyph-name="¥" unicode="&#xA5;" horiz-adv-x="578" d=" M578,744 L431,442 L555,442 L555,342 L388,342 L388,284 L555,284 L555,183 L388,183 L388,0 L202,0 L202,183 L35,183 L35,284 L202,284 L202,342 L35,342 L35,442 L157,442 L11,744 L194,744 L298,457 L397,744"/> 
            <glyph glyph-name="¦" unicode="&#xA6;" horiz-adv-x="216" d=" M216,388 L65,388 L65,763 L216,763 M216,-180 L65,-180 L65,196 L216,196"/> 
            <glyph glyph-name="§" unicode="&#xA7;" horiz-adv-x="552" d=" M199,350 L199,309 Q199,254 223,225.5 Q247,197 304,197 Q337,197 391,212 L391,253 Q391,308 367,336.5 Q343,365 287,365 Q259,365 199,350 M37,310 L37,513 Q37,622 109,686 Q181,750 301,750 Q385,750 492,716 L541,700 L517,567 L469,582 Q370,613 312,613 Q199,613 199,513 L199,470 Q256,489 318,489 Q552,489 552,252 L552,49 Q552,-60 480.5,-123.5 Q409,-187 289,-187 Q197,-187 101,-155 L48,-137 L72,-4 L121,-20 Q211,-50 278,-50 Q391,-50 391,48 L391,91 Q332,72 272,72 Q37,72 37,310"/> 
            <glyph glyph-name="¨" unicode="&#xA8;" horiz-adv-x="484" d=" M256,690 Q256,654 234,632 Q212,610 173,610 Q134,610 112,632 Q90,654 90,690 Q90,727 112,748.5 Q134,770 173,770 Q212,770 234,748.5 Q256,727 256,690 M484,690 Q484,654 462,632 Q440,610 401,610 Q362,610 340,632 Q318,654 318,690 Q318,727 340,748.5 Q362,770 401,770 Q440,770 462,748.5 Q484,727 484,690"/> 
            <glyph glyph-name="©" unicode="&#xA9;" horiz-adv-x="857" d=" M857,367 Q857,199 743,87 Q629,-25 466,-25 Q302,-25 188,87 Q74,199 74,367 Q74,536 187.5,646.5 Q301,757 466,757 Q630,757 743.5,647.5 Q857,538 857,367 M750,367 Q750,499 669.5,579.5 Q589,660 466,660 Q342,660 261,579.5 Q180,499 180,367 Q180,237 261,155 Q342,73 466,73 Q587,73 668.5,155.5 Q750,238 750,367 M392,366 Q392,257 483,257 Q523,257 574,274 L607,285 L621,190 L586,179 Q528,160 469,160 Q378,160 324.5,212.5 Q271,265 271,366 Q271,466 325,520 Q379,574 469,574 Q528,574 586,555 L621,544 L607,449 L574,459 Q516,476 483,476 Q392,476 392,366"/> 
            <glyph glyph-name="ª" unicode="&#xAA;" horiz-adv-x="513" d=" M513,389 L468,308 L429,329 Q403,343 364,334 L344,329 Q288,315 240,315 Q169,315 128.5,349.5 Q88,384 88,443 Q88,578 273,578 L349,578 L349,596 Q349,649 287,649 Q232,649 161,628 L117,615 L100,710 L143,724 Q227,751 301,751 Q469,751 469,601 L469,416 M350,418 L350,494 L276,494 Q212,494 212,449 Q212,403 264,403 Q289,403 325,412"/> 
            <glyph glyph-name="«" unicode="&#xAB;" horiz-adv-x="569" d=" M31,282 Q31,314 57,343 L185,477 L341,477 L156,282 L341,87 L185,87 L57,220 Q31,247 31,282 M256,282 Q256,314 282,343 L412,477 L569,477 L381,282 L569,87 L412,87 L282,220 Q256,247 256,282"/> 
            <glyph glyph-name="¬" unicode="&#xAC;" horiz-adv-x="543" d=" M543,83 L407,83 L407,278 L45,278 L45,399 L543,399"/> 
            <glyph glyph-name="®" unicode="&#xAE;" horiz-adv-x="857" d=" M654,176 L541,176 L488,305 L412,305 L412,176 L303,176 L303,515 Q303,573 363,573 L507,573 Q568,573 603.5,540 Q639,507 639,451 Q639,405 607,363 L586,335 M532,448 Q532,494 479,494 L412,494 L412,383 L502,383 L518,408 Q532,430 532,448 M857,367 Q857,199 743,87 Q629,-25 466,-25 Q302,-25 188,87 Q74,199 74,367 Q74,536 187.5,646.5 Q301,757 466,757 Q630,757 743.5,647.5 Q857,538 857,367 M750,367 Q750,499 669.5,579 Q589,659 466,659 Q342,659 260.5,578.5 Q179,498 179,367 Q179,237 260.5,155 Q342,73 466,73 Q588,73 669,155 Q750,237 750,367"/> 
            <glyph glyph-name="¯" unicode="&#xAF;" horiz-adv-x="453" d=" M453,622 L77,622 L77,739 L453,739"/> 
            <glyph glyph-name="°" unicode="&#xB0;" horiz-adv-x="433" d=" M433,565 Q433,477 380.5,421.5 Q328,366 240,366 Q151,366 99,422 Q47,478 47,565 Q47,651 100.5,707.5 Q154,764 242,764 Q330,764 381.5,708 Q433,652 433,565 M323,565 Q323,606 300.5,632 Q278,658 240,658 Q201,658 180,632.5 Q159,607 159,565 Q159,522 181,496 Q203,470 241,470 Q280,470 301.5,496 Q323,522 323,565"/> 
            <glyph glyph-name="±" unicode="&#xB1;" horiz-adv-x="543" d=" M543,290 L360,290 L360,156 L224,156 L224,290 L46,290 L46,410 L224,410 L224,549 L360,549 L360,410 L543,410 M543,0 L46,0 L46,114 L543,114"/> 
            <glyph glyph-name="´" unicode="&#xB4;" horiz-adv-x="449" d=" M449,763 L274,625 Q242,600 209,600 Q182,600 168,615 Q154,630 154,649 Q154,676 176,697 L248,763"/> 
            <glyph glyph-name="µ" unicode="&#xB5;" horiz-adv-x="534" d=" M51,550 L209,550 L209,205 Q209,128 287,128 Q323,128 374,142 L374,550 L534,550 L534,112 Q534,74 516,53 Q498,32 460,21 Q378,-2 281,-2 Q226,-2 209,10 L209,-186 L51,-186"/> 
            <glyph glyph-name="¶" unicode="&#xB6;" horiz-adv-x="587" d=" M587,-186 L463,-186 L463,630 L372,630 L372,-186 L243,-186 L243,222 Q140,234 85,305.5 Q30,377 30,481 Q30,596 97.5,670 Q165,744 292,744 L587,744"/> 
            <glyph glyph-name="·" unicode="&#xB7;" horiz-adv-x="278" d=" M278,363 Q278,324 254,301 Q230,278 189,278 Q147,278 123,301 Q99,324 99,363 Q99,401 123,424 Q147,447 189,447 Q230,447 254,424 Q278,401 278,363"/> 
            <glyph glyph-name="¸" unicode="&#xB8;" horiz-adv-x="364" d=" M364,-114 Q364,-154 335.5,-177 Q307,-200 255,-200 Q207,-200 153,-177 L173,-115 Q216,-136 255,-136 Q285,-136 285,-116 Q285,-100 265,-95 Q245,-90 202,-92 L193,-77 L234,0 L295,0 L275,-41 Q315,-41 339.5,-59.5 Q364,-78 364,-114"/> 
            <glyph glyph-name="º" unicode="&#xBA;" horiz-adv-x="504" d=" M504,534 Q504,431 447.5,373 Q391,315 294,315 Q195,315 139.5,372.5 Q84,430 84,534 Q84,637 141,695 Q198,753 296,753 Q393,753 448.5,695.5 Q504,638 504,534 M376,534 Q376,660 294,660 Q215,660 215,534 Q215,407 296,407 Q376,407 376,534"/> 
            <glyph glyph-name="»" unicode="&#xBB;" horiz-adv-x="556" d=" M556,282 Q556,247 530,220 L402,87 L246,87 L431,282 L246,477 L402,477 L530,343 Q556,314 556,282 M331,282 Q331,247 305,220 L175,87 L18,87 L206,282 L18,477 L175,477 L305,343 Q331,314 331,282"/> 
            <glyph glyph-name="¿" unicode="&#xBF;" horiz-adv-x="444" d=" M254,-56 Q309,-56 369,-38 L423,-22 L444,-150 L395,-164 Q311,-188 236,-188 Q138,-188 81,-139.5 Q24,-91 24,-5 Q24,89 103,167 L174,237 L175,307 L328,334 L328,268 Q328,231 320.5,210 Q313,189 289,165 L223,99 Q182,58 182,7 Q182,-56 254,-56 M163,488 Q163,525 186.5,546 Q210,567 251,567 Q293,567 316.5,546 Q340,525 340,488 Q340,450 316.5,428 Q293,406 251,406 Q210,406 186.5,428 Q163,450 163,488"/> 
            <glyph glyph-name="À" unicode="&#xC0;" horiz-adv-x="720" d=" M720,0 L526,0 L488,125 L240,125 L200,0 L8,0 L236,665 Q265,752 370,752 Q473,752 502,666 M454,263 L366,559 L275,263 M373,803 L198,941 L399,941 L471,875 Q493,854 493,827 Q493,808 479,793 Q465,778 438,778 Q405,778 373,803"/> 
            <glyph glyph-name="Á" unicode="&#xC1;" horiz-adv-x="720" d=" M720,0 L526,0 L488,125 L240,125 L200,0 L8,0 L236,665 Q265,752 370,752 Q473,752 502,666 M454,263 L366,559 L275,263 M536,941 L361,803 Q329,778 296,778 Q269,778 255,793 Q241,808 241,827 Q241,854 263,875 L335,941"/> 
            <glyph glyph-name="Â" unicode="&#xC2;" horiz-adv-x="720" d=" M720,0 L526,0 L488,125 L240,125 L200,0 L8,0 L236,665 Q265,752 370,752 Q473,752 502,666 M454,263 L366,559 L275,263 M370,952 Q424,952 455,920 L581,788 L417,788 L370,853 L325,788 L161,788 L285,920 Q317,952 370,952"/> 
            <glyph glyph-name="Ã" unicode="&#xC3;" horiz-adv-x="720" d=" M720,0 L526,0 L488,125 L240,125 L200,0 L8,0 L236,665 Q265,752 370,752 Q473,752 502,666 M454,263 L366,559 L275,263 M440,779 Q396,779 357,806 L325,829 Q304,843 285,843 Q248,843 223,783 L144,832 Q167,894 207,923.5 Q247,953 294,953 Q340,953 376,926 L409,903 Q427,890 448,890 Q484,890 510,950 L589,900 Q544,779 440,779"/> 
            <glyph glyph-name="Ä" unicode="&#xC4;" horiz-adv-x="720" d=" M720,0 L526,0 L488,125 L240,125 L200,0 L8,0 L236,665 Q265,752 370,752 Q473,752 502,666 M454,263 L366,559 L275,263 M340,862 Q340,826 318,804 Q296,782 257,782 Q218,782 196,804 Q174,826 174,862 Q174,899 196,920.5 Q218,942 257,942 Q296,942 318,920.5 Q340,899 340,862 M568,862 Q568,826 546,804 Q524,782 485,782 Q446,782 424,804 Q402,826 402,862 Q402,899 424,920.5 Q446,942 485,942 Q524,942 546,920.5 Q568,899 568,862"/> 
            <glyph glyph-name="Å" unicode="&#xC5;" horiz-adv-x="720" d=" M720,0 L526,0 L488,125 L240,125 L200,0 L8,0 L261,735 Q237,762 237,800 Q237,854 275.5,889 Q314,924 370,924 Q427,924 464.5,889.5 Q502,855 502,800 Q502,760 478,734 M454,263 L366,559 L275,263 M394,850 Q346,850 332,836 Q318,822 318,800 Q318,778 332,763.5 Q346,749 370,749 Q393,749 408,763.5 Q423,778 423,800 Q423,822 394,850"/> 
            <glyph glyph-name="Æ" unicode="&#xC6;" horiz-adv-x="1029" d=" M1029,0 L589,0 Q542,0 515.5,23.5 Q489,47 489,89 L489,125 L248,125 L202,0 L8,0 L274,657 Q309,744 423,744 L1026,744 L1026,603 L681,603 L681,446 L985,446 L985,311 L681,311 L681,140 L1029,140 M489,263 L489,602 L418,602 L294,263"/> 
            <glyph glyph-name="Ç" unicode="&#xC7;" horiz-adv-x="659" d=" M38,371 Q38,554 135,651.5 Q232,749 391,749 Q483,750 599,714 L659,695 L636,542 L576,561 Q486,590 415,590 Q237,590 237,371 Q237,153 415,153 Q494,153 574,180 L636,201 L659,47 L601,29 Q487,-7 390,-7 Q229,-7 133.5,89.5 Q38,186 38,371 M491,-114 Q491,-154 462.5,-177 Q434,-200 382,-200 Q334,-200 280,-177 L300,-115 Q343,-136 382,-136 Q412,-136 412,-116 Q412,-100 392,-95 Q372,-90 329,-92 L320,-77 L361,0 L422,0 L402,-41 Q442,-41 466.5,-59.5 Q491,-78 491,-114"/> 
            <glyph glyph-name="È" unicode="&#xC8;" horiz-adv-x="593" d=" M593,0 L154,0 Q107,0 80,25 Q53,50 53,94 L53,650 Q53,694 80,719 Q107,744 154,744 L591,744 L591,603 L245,603 L245,446 L548,446 L548,311 L245,311 L245,140 L593,140 M317,803 L142,941 L343,941 L415,875 Q437,854 437,827 Q437,808 423,793 Q409,778 382,778 Q349,778 317,803"/> 
            <glyph glyph-name="É" unicode="&#xC9;" horiz-adv-x="593" d=" M593,0 L154,0 Q107,0 80,25 Q53,50 53,94 L53,650 Q53,694 80,719 Q107,744 154,744 L591,744 L591,603 L245,603 L245,446 L548,446 L548,311 L245,311 L245,140 L593,140 M522,941 L347,803 Q315,778 282,778 Q255,778 241,793 Q227,808 227,827 Q227,854 249,875 L321,941"/> 
            <glyph glyph-name="Ê" unicode="&#xCA;" horiz-adv-x="593" d=" M593,0 L154,0 Q107,0 80,25 Q53,50 53,94 L53,650 Q53,694 80,719 Q107,744 154,744 L591,744 L591,603 L245,603 L245,446 L548,446 L548,311 L245,311 L245,140 L593,140 M327,952 Q381,952 412,920 L538,788 L374,788 L327,853 L282,788 L118,788 L242,920 Q274,952 327,952"/> 
            <glyph glyph-name="Ë" unicode="&#xCB;" horiz-adv-x="593" d=" M593,0 L154,0 Q107,0 80,25 Q53,50 53,94 L53,650 Q53,694 80,719 Q107,744 154,744 L591,744 L591,603 L245,603 L245,446 L548,446 L548,311 L245,311 L245,140 L593,140 M302,861 Q302,825 280,803 Q258,781 219,781 Q180,781 158,803 Q136,825 136,861 Q136,898 158,919.5 Q180,941 219,941 Q258,941 280,919.5 Q302,898 302,861 M530,861 Q530,825 508,803 Q486,781 447,781 Q408,781 386,803 Q364,825 364,861 Q364,898 386,919.5 Q408,941 447,941 Q486,941 508,919.5 Q530,898 530,861"/> 
            <glyph glyph-name="Ì" unicode="&#xCC;" horiz-adv-x="268" d=" M248,0 L53,0 L53,744 L248,744 M148,802 L-27,940 L174,940 L246,874 Q268,853 268,826 Q268,807 254,792 Q240,777 213,777 Q180,777 148,802"/> 
            <glyph glyph-name="Í" unicode="&#xCD;" horiz-adv-x="340" d=" M248,0 L53,0 L53,744 L248,744 M340,940 L165,802 Q133,777 100,777 Q73,777 59,792 Q45,807 45,826 Q45,853 67,874 L139,940"/> 
            <glyph glyph-name="Î" unicode="&#xCE;" horiz-adv-x="361" d=" M248,0 L53,0 L53,744 L248,744 M150,952 Q204,952 235,920 L361,788 L197,788 L150,853 L105,788 L-59,788 L65,920 Q97,952 150,952"/> 
            <glyph glyph-name="Ï" unicode="&#xCF;" horiz-adv-x="350" d=" M248,0 L53,0 L53,744 L248,744 M122,862 Q122,826 100,804 Q78,782 39,782 Q0,782 -22,804 Q-44,826 -44,862 Q-44,899 -22,920.5 Q0,942 39,942 Q78,942 100,920.5 Q122,899 122,862 M350,862 Q350,826 328,804 Q306,782 267,782 Q228,782 206,804 Q184,826 184,862 Q184,899 206,920.5 Q228,942 267,942 Q306,942 328,920.5 Q350,899 350,862"/> 
            <glyph glyph-name="Ð" unicode="&#xD0;" horiz-adv-x="717" d=" M717,545 Q717,195 620,97.5 Q523,0 359,0 L167,0 Q67,0 67,112 L67,327 L10,327 L10,427 L67,427 L67,628 Q67,744 167,744 L361,744 Q526,744 717,545 M527,370 Q527,485 476,542 Q425,599 330,599 L259,599 L259,427 L410,427 L410,327 L259,327 L259,145 L336,145 Q527,145 527,370"/> 
            <glyph glyph-name="Ñ" unicode="&#xD1;" horiz-adv-x="704" d=" M219,484 L219,0 L53,0 L53,633 Q53,690 88.5,720.5 Q124,751 189,751 Q278,751 317,679 L538,260 L538,744 L704,744 L704,110 Q704,54 668.5,24 Q633,-6 569,-6 Q514,-6 481.5,19.5 Q449,45 425,91 M463,779 Q419,779 380,806 L348,829 Q327,843 308,843 Q271,843 246,783 L167,832 Q190,894 230,923.5 Q270,953 317,953 Q363,953 399,926 L432,903 Q450,890 471,890 Q507,890 533,950 L612,900 Q567,779 463,779"/> 
            <glyph glyph-name="Ò" unicode="&#xD2;" horiz-adv-x="772" d=" M772,370 Q772,190 671,91 Q570,-8 402,-8 Q235,-8 136.5,92 Q38,192 38,370 Q38,548 139,648.5 Q240,749 407,749 Q574,749 673,649 Q772,549 772,370 M578,370 Q578,485 532,548 Q486,611 402,611 Q320,611 276,548.5 Q232,486 232,370 Q232,255 278,192 Q324,129 407,129 Q489,129 533.5,191.5 Q578,254 578,370 M406,802 L231,940 L432,940 L504,874 Q526,853 526,826 Q526,807 512,792 Q498,777 471,777 Q438,777 406,802"/> 
            <glyph glyph-name="Ó" unicode="&#xD3;" horiz-adv-x="772" d=" M772,370 Q772,190 671,91 Q570,-8 402,-8 Q235,-8 136.5,92 Q38,192 38,370 Q38,548 139,648.5 Q240,749 407,749 Q574,749 673,649 Q772,549 772,370 M578,370 Q578,485 532,548 Q486,611 402,611 Q320,611 276,548.5 Q232,486 232,370 Q232,255 278,192 Q324,129 407,129 Q489,129 533.5,191.5 Q578,254 578,370 M596,940 L421,802 Q389,777 356,777 Q329,777 315,792 Q301,807 301,826 Q301,853 323,874 L395,940"/> 
            <glyph glyph-name="Ô" unicode="&#xD4;" horiz-adv-x="772" d=" M772,370 Q772,190 671,91 Q570,-8 402,-8 Q235,-8 136.5,92 Q38,192 38,370 Q38,548 139,648.5 Q240,749 407,749 Q574,749 673,649 Q772,549 772,370 M578,370 Q578,485 532,548 Q486,611 402,611 Q320,611 276,548.5 Q232,486 232,370 Q232,255 278,192 Q324,129 407,129 Q489,129 533.5,191.5 Q578,254 578,370 M409,952 Q463,952 494,920 L620,788 L456,788 L409,853 L364,788 L200,788 L324,920 Q356,952 409,952"/> 
            <glyph glyph-name="Õ" unicode="&#xD5;" horiz-adv-x="772" d=" M772,370 Q772,190 671,91 Q570,-8 402,-8 Q235,-8 136.5,92 Q38,192 38,370 Q38,548 139,648.5 Q240,749 407,749 Q574,749 673,649 Q772,549 772,370 M578,370 Q578,485 532,548 Q486,611 402,611 Q320,611 276,548.5 Q232,486 232,370 Q232,255 278,192 Q324,129 407,129 Q489,129 533.5,191.5 Q578,254 578,370 M486,780 Q442,780 403,807 L371,830 Q350,844 331,844 Q294,844 269,784 L190,833 Q213,895 253,924.5 Q293,954 340,954 Q386,954 422,927 L455,904 Q473,891 494,891 Q530,891 556,951 L635,901 Q590,780 486,780"/> 
            <glyph glyph-name="Ö" unicode="&#xD6;" horiz-adv-x="772" d=" M772,370 Q772,190 671,91 Q570,-8 402,-8 Q235,-8 136.5,92 Q38,192 38,370 Q38,548 139,648.5 Q240,749 407,749 Q574,749 673,649 Q772,549 772,370 M578,370 Q578,485 532,548 Q486,611 402,611 Q320,611 276,548.5 Q232,486 232,370 Q232,255 278,192 Q324,129 407,129 Q489,129 533.5,191.5 Q578,254 578,370 M375,861 Q375,825 353,803 Q331,781 292,781 Q253,781 231,803 Q209,825 209,861 Q209,898 231,919.5 Q253,941 292,941 Q331,941 353,919.5 Q375,898 375,861 M603,861 Q603,825 581,803 Q559,781 520,781 Q481,781 459,803 Q437,825 437,861 Q437,898 459,919.5 Q481,941 520,941 Q559,941 581,919.5 Q603,898 603,861"/> 
            <glyph glyph-name="×" unicode="&#xD7;" horiz-adv-x="540" d=" M390,286 L540,135 L443,39 L293,188 L142,39 L46,135 L195,286 L46,437 L142,533 L293,383 L443,533 L540,437"/> 
            <glyph glyph-name="Ø" unicode="&#xD8;" horiz-adv-x="771" d=" M771,370 Q771,190 670.5,91.5 Q570,-7 402,-7 Q332,-7 269,12 L235,-51 L107,-51 L169,62 Q38,162 38,370 Q38,548 139,648.5 Q240,749 406,749 Q476,749 536,729 L570,792 L697,792 L636,680 Q771,580 771,370 M577,370 Q577,463 546,515 L341,142 Q368,129 406,129 Q488,129 532.5,191 Q577,253 577,370 M231,370 Q231,283 260,228 L464,599 Q433,611 402,611 Q320,611 275.5,548 Q231,485 231,370"/> 
            <glyph glyph-name="Ù" unicode="&#xD9;" horiz-adv-x="683" d=" M683,275 Q683,139 601,63 Q519,-13 365,-13 Q211,-13 129.5,62.5 Q48,138 48,275 L48,744 L241,744 L241,272 Q241,145 365,145 Q490,145 490,272 L490,744 L683,744 M343,803 L168,941 L369,941 L441,875 Q463,854 463,827 Q463,808 449,793 Q435,778 408,778 Q375,778 343,803"/> 
            <glyph glyph-name="Ú" unicode="&#xDA;" horiz-adv-x="683" d=" M683,275 Q683,139 601,63 Q519,-13 365,-13 Q211,-13 129.5,62.5 Q48,138 48,275 L48,744 L241,744 L241,272 Q241,145 365,145 Q490,145 490,272 L490,744 L683,744 M571,941 L396,803 Q364,778 331,778 Q304,778 290,793 Q276,808 276,827 Q276,854 298,875 L370,941"/> 
            <glyph glyph-name="Û" unicode="&#xDB;" horiz-adv-x="683" d=" M683,275 Q683,139 601,63 Q519,-13 365,-13 Q211,-13 129.5,62.5 Q48,138 48,275 L48,744 L241,744 L241,272 Q241,145 365,145 Q490,145 490,272 L490,744 L683,744 M365,952 Q419,952 450,920 L576,788 L412,788 L365,853 L320,788 L156,788 L280,920 Q312,952 365,952"/> 
            <glyph glyph-name="Ü" unicode="&#xDC;" horiz-adv-x="683" d=" M683,275 Q683,139 601,63 Q519,-13 365,-13 Q211,-13 129.5,62.5 Q48,138 48,275 L48,744 L241,744 L241,272 Q241,145 365,145 Q490,145 490,272 L490,744 L683,744 M338,861 Q338,825 316,803 Q294,781 255,781 Q216,781 194,803 Q172,825 172,861 Q172,898 194,919.5 Q216,941 255,941 Q294,941 316,919.5 Q338,898 338,861 M566,861 Q566,825 544,803 Q522,781 483,781 Q444,781 422,803 Q400,825 400,861 Q400,898 422,919.5 Q444,941 483,941 Q522,941 544,919.5 Q566,898 566,861"/> 
            <glyph glyph-name="Ý" unicode="&#xDD;" horiz-adv-x="726" d=" M726,744 L464,304 L464,0 L271,0 L271,302 L6,744 L215,744 L370,466 L519,744 M577,941 L402,803 Q370,778 337,778 Q310,778 296,793 Q282,808 282,827 Q282,854 304,875 L376,941"/> 
            <glyph glyph-name="Þ" unicode="&#xDE;" horiz-adv-x="630" d=" M630,385 Q630,272 560,207 Q490,142 371,142 L241,142 L241,0 L53,0 L53,744 L241,744 L241,627 L381,627 Q495,627 562.5,562 Q630,497 630,385 M456,385 Q456,489 340,489 L241,489 L241,280 L354,280 Q401,280 428.5,308 Q456,336 456,385"/> 
            <glyph glyph-name="ß" unicode="&#xDF;" horiz-adv-x="551" d=" M551,193 Q551,103 492,51.5 Q433,0 329,0 L262,0 L262,126 L321,126 Q358,126 378,147 Q398,168 398,203 Q398,240 364,277 L311,334 Q268,380 301,442 L330,498 Q348,531 348,576 Q348,604 326,627.5 Q304,651 276,651 Q208,651 208,567 L208,0 L50,0 L50,563 Q50,671 112.5,723.5 Q175,776 275,776 Q378,776 439.5,725.5 Q501,675 501,582 Q501,498 458,439 L428,397 L475,352 Q515,314 533,278.5 Q551,243 551,193"/> 
            <glyph glyph-name="à" unicode="&#xE0;" horiz-adv-x="589" d=" M589,87 L531,-13 L481,13 Q448,30 395,19 L372,14 Q284,-6 233,-6 Q141,-6 88.5,37 Q36,80 36,156 Q36,207 56,242.5 Q76,278 113,296.5 Q150,315 193.5,322.5 Q237,330 293,330 L379,330 L379,359 Q379,430 293,430 Q219,430 132,402 L74,383 L55,505 L108,521 Q223,556 310,556 Q530,556 530,366 L530,123 M381,126 L381,226 L279,226 Q191,226 191,162 Q191,104 264,104 Q294,104 344,117 M305,625 L130,763 L331,763 L403,697 Q425,676 425,649 Q425,630 411,615 Q397,600 370,600 Q337,600 305,625"/> 
            <glyph glyph-name="á" unicode="&#xE1;" horiz-adv-x="589" d=" M589,87 L531,-13 L481,13 Q448,30 395,19 L372,14 Q284,-6 233,-6 Q141,-6 88.5,37 Q36,80 36,156 Q36,207 56,242.5 Q76,278 113,296.5 Q150,315 193.5,322.5 Q237,330 293,330 L379,330 L379,359 Q379,430 293,430 Q219,430 132,402 L74,383 L55,505 L108,521 Q223,556 310,556 Q530,556 530,366 L530,123 M381,126 L381,226 L279,226 Q191,226 191,162 Q191,104 264,104 Q294,104 344,117 M507,763 L332,625 Q300,600 267,600 Q240,600 226,615 Q212,630 212,649 Q212,676 234,697 L306,763"/> 
            <glyph glyph-name="â" unicode="&#xE2;" horiz-adv-x="589" d=" M589,87 L531,-13 L481,13 Q448,30 395,19 L372,14 Q284,-6 233,-6 Q141,-6 88.5,37 Q36,80 36,156 Q36,207 56,242.5 Q76,278 113,296.5 Q150,315 193.5,322.5 Q237,330 293,330 L379,330 L379,359 Q379,430 293,430 Q219,430 132,402 L74,383 L55,505 L108,521 Q223,556 310,556 Q530,556 530,366 L530,123 M381,126 L381,226 L279,226 Q191,226 191,162 Q191,104 264,104 Q294,104 344,117 M306,765 Q360,765 391,733 L517,601 L353,601 L306,666 L261,601 L97,601 L221,733 Q253,765 306,765"/> 
            <glyph glyph-name="ã" unicode="&#xE3;" horiz-adv-x="589" d=" M589,87 L531,-13 L481,13 Q448,30 395,19 L372,14 Q284,-6 233,-6 Q141,-6 88.5,37 Q36,80 36,156 Q36,207 56,242.5 Q76,278 113,296.5 Q150,315 193.5,322.5 Q237,330 293,330 L379,330 L379,359 Q379,430 293,430 Q219,430 132,402 L74,383 L55,505 L108,521 Q223,556 310,556 Q530,556 530,366 L530,123 M381,126 L381,226 L279,226 Q191,226 191,162 Q191,104 264,104 Q294,104 344,117 M379,596 Q335,596 296,623 L264,646 Q243,660 224,660 Q187,660 162,600 L83,649 Q106,711 146,740.5 Q186,770 233,770 Q279,770 315,743 L348,720 Q366,707 387,707 Q423,707 449,767 L528,717 Q483,596 379,596"/> 
            <glyph glyph-name="ä" unicode="&#xE4;" horiz-adv-x="589" d=" M589,87 L531,-13 L481,13 Q448,30 395,19 L372,14 Q284,-6 233,-6 Q141,-6 88.5,37 Q36,80 36,156 Q36,207 56,242.5 Q76,278 113,296.5 Q150,315 193.5,322.5 Q237,330 293,330 L379,330 L379,359 Q379,430 293,430 Q219,430 132,402 L74,383 L55,505 L108,521 Q223,556 310,556 Q530,556 530,366 L530,123 M381,126 L381,226 L279,226 Q191,226 191,162 Q191,104 264,104 Q294,104 344,117 M277,690 Q277,654 255,632 Q233,610 194,610 Q155,610 133,632 Q111,654 111,690 Q111,727 133,748.5 Q155,770 194,770 Q233,770 255,748.5 Q277,727 277,690 M505,690 Q505,654 483,632 Q461,610 422,610 Q383,610 361,632 Q339,654 339,690 Q339,727 361,748.5 Q383,770 422,770 Q461,770 483,748.5 Q505,727 505,690"/> 
            <glyph glyph-name="å" unicode="&#xE5;" horiz-adv-x="589" d=" M589,87 L531,-13 L481,13 Q448,30 395,19 L372,14 Q284,-6 233,-6 Q141,-6 88.5,37 Q36,80 36,156 Q36,207 56,242.5 Q76,278 113,296.5 Q150,315 193.5,322.5 Q237,330 293,330 L379,330 L379,359 Q379,430 293,430 Q219,430 132,402 L74,383 L55,505 L108,521 Q223,556 310,556 Q530,556 530,366 L530,123 M381,126 L381,226 L279,226 Q191,226 191,162 Q191,104 264,104 Q294,104 344,117 M306,585 Q251,585 212.5,620.5 Q174,656 174,710 Q174,765 211.5,799 Q249,833 306,833 Q363,833 401,799 Q439,765 439,710 Q439,656 400.5,620.5 Q362,585 306,585 M306,760 Q282,760 268,745.5 Q254,731 254,710 Q254,687 268,673 Q282,659 306,659 Q329,659 344,673.5 Q359,688 359,710 Q359,731 344,745.5 Q329,760 306,760"/> 
            <glyph glyph-name="æ" unicode="&#xE6;" horiz-adv-x="896" d=" M656,-6 Q577,-6 517,22 Q483,37 450,30 L390,17 Q288,-5 233,-6 Q141,-6 88.5,37 Q36,80 36,156 Q36,209 57,244.5 Q78,280 117.5,298 Q157,316 201,323 Q245,330 303,330 L379,330 L379,359 Q379,430 293,430 Q224,430 131,401 L74,383 L55,505 L111,522 Q222,556 311,556 Q422,556 473,496 Q540,557 641,557 Q761,557 828.5,489.5 Q896,422 896,287 Q896,251 877,238 Q858,225 816,225 L532,225 Q543,119 677,119 Q743,119 816,142 L870,159 L889,43 L836,26 Q737,-6 656,-6 M264,104 Q280,104 302,107.5 Q324,111 361.5,119 Q399,127 410,129 Q389,168 383,226 L279,226 Q191,226 191,162 Q191,104 264,104 M741,329 Q741,381 715,413 Q689,445 636,445 Q591,445 563.5,414 Q536,383 532,329"/> 
            <glyph glyph-name="ç" unicode="&#xE7;" horiz-adv-x="504" d=" M199,275 Q199,124 318,124 Q364,124 441,149 L485,162 L504,34 L458,20 Q371,-7 300,-7 Q179,-7 108,65 Q37,137 37,275 Q37,411 108.5,484 Q180,557 300,557 Q371,557 458,530 L504,516 L485,388 L441,401 Q362,425 318,425 Q199,425 199,275 M393,-114 Q393,-154 364.5,-177 Q336,-200 284,-200 Q236,-200 182,-177 L202,-115 Q245,-136 284,-136 Q314,-136 314,-116 Q314,-100 294,-95 Q274,-90 231,-92 L222,-77 L263,0 L324,0 L304,-41 Q344,-41 368.5,-59.5 Q393,-78 393,-114"/> 
            <glyph glyph-name="è" unicode="&#xE8;" horiz-adv-x="554" d=" M37,274 Q37,414 111.5,486 Q186,558 300,558 Q420,558 487,490.5 Q554,423 554,288 Q554,226 490,226 L191,226 Q203,119 326,119 Q396,119 475,143 L528,160 L547,43 L494,26 Q390,-6 314,-6 Q185,-6 111,65.5 Q37,137 37,274 M400,329 Q400,380 374,412.5 Q348,445 295,445 Q249,445 221.5,414 Q194,383 190,329 M285,625 L110,763 L311,763 L383,697 Q405,676 405,649 Q405,630 391,615 Q377,600 350,600 Q317,600 285,625"/> 
            <glyph glyph-name="é" unicode="&#xE9;" horiz-adv-x="554" d=" M37,274 Q37,414 111.5,486 Q186,558 300,558 Q420,558 487,490.5 Q554,423 554,288 Q554,226 490,226 L191,226 Q203,119 326,119 Q396,119 475,143 L528,160 L547,43 L494,26 Q390,-6 314,-6 Q185,-6 111,65.5 Q37,137 37,274 M400,329 Q400,380 374,412.5 Q348,445 295,445 Q249,445 221.5,414 Q194,383 190,329 M502,763 L327,625 Q295,600 262,600 Q235,600 221,615 Q207,630 207,649 Q207,676 229,697 L301,763"/> 
            <glyph glyph-name="ê" unicode="&#xEA;" horiz-adv-x="554" d=" M37,274 Q37,414 111.5,486 Q186,558 300,558 Q420,558 487,490.5 Q554,423 554,288 Q554,226 490,226 L191,226 Q203,119 326,119 Q396,119 475,143 L528,160 L547,43 L494,26 Q390,-6 314,-6 Q185,-6 111,65.5 Q37,137 37,274 M400,329 Q400,380 374,412.5 Q348,445 295,445 Q249,445 221.5,414 Q194,383 190,329 M300,765 Q354,765 385,733 L511,601 L347,601 L300,666 L255,601 L91,601 L215,733 Q247,765 300,765"/> 
            <glyph glyph-name="ë" unicode="&#xEB;" horiz-adv-x="554" d=" M37,274 Q37,414 111.5,486 Q186,558 300,558 Q420,558 487,490.5 Q554,423 554,288 Q554,226 490,226 L191,226 Q203,119 326,119 Q396,119 475,143 L528,160 L547,43 L494,26 Q390,-6 314,-6 Q185,-6 111,65.5 Q37,137 37,274 M400,329 Q400,380 374,412.5 Q348,445 295,445 Q249,445 221.5,414 Q194,383 190,329 M270,690 Q270,654 248,632 Q226,610 187,610 Q148,610 126,632 Q104,654 104,690 Q104,727 126,748.5 Q148,770 187,770 Q226,770 248,748.5 Q270,727 270,690 M498,690 Q498,654 476,632 Q454,610 415,610 Q376,610 354,632 Q332,654 332,690 Q332,727 354,748.5 Q376,770 415,770 Q454,770 476,748.5 Q498,727 498,690"/> 
            <glyph glyph-name="ì" unicode="&#xEC;" horiz-adv-x="241" d=" M210,0 L54,0 L54,550 L210,550 M121,625 L-54,763 L147,763 L219,697 Q241,676 241,649 Q241,630 227,615 Q213,600 186,600 Q153,600 121,625"/> 
            <glyph glyph-name="í" unicode="&#xED;" horiz-adv-x="311" d=" M210,0 L54,0 L54,550 L210,550 M311,763 L136,625 Q104,600 71,600 Q44,600 30,615 Q16,630 16,649 Q16,676 38,697 L110,763"/> 
            <glyph glyph-name="î" unicode="&#xEE;" horiz-adv-x="346" d=" M210,0 L54,0 L54,550 L210,550 M135,765 Q189,765 220,733 L346,601 L182,601 L135,666 L90,601 L-74,601 L50,733 Q82,765 135,765"/> 
            <glyph glyph-name="ï" unicode="&#xEF;" horiz-adv-x="331" d=" M210,0 L54,0 L54,550 L210,550 M103,690 Q103,654 81,632 Q59,610 20,610 Q-19,610 -41,632 Q-63,654 -63,690 Q-63,727 -41,748.5 Q-19,770 20,770 Q59,770 81,748.5 Q103,727 103,690 M331,690 Q331,654 309,632 Q287,610 248,610 Q209,610 187,632 Q165,654 165,690 Q165,727 187,748.5 Q209,770 248,770 Q287,770 309,748.5 Q331,727 331,690"/> 
            <glyph glyph-name="ð" unicode="&#xF0;" horiz-adv-x="586" d=" M313,394 Q201,394 201,257 Q201,187 228.5,149.5 Q256,112 308,112 Q412,112 412,251 L412,378 Q357,393 313,394 M278,511 Q330,511 413,487 L413,520 Q413,562 397,597 L259,529 L259,613 L344,655 Q312,670 269,670 L210,670 L210,763 L304,763 Q412,763 476,718 L586,771 L586,688 L532,661 Q573,597 573,490 L573,248 Q573,131 503,63 Q433,-5 304,-5 Q178,-5 109,67.5 Q40,140 40,260 Q40,373 102.5,442 Q165,511 278,511"/> 
            <glyph glyph-name="ñ" unicode="&#xF1;" horiz-adv-x="534" d=" M212,407 L212,0 L51,0 L51,438 Q51,508 125,529 Q217,555 305,555 Q423,555 478.5,502.5 Q534,450 534,358 L534,0 L376,0 L376,345 Q376,421 298,421 Q262,421 212,407 M368,596 Q324,596 285,623 L253,646 Q232,660 213,660 Q176,660 151,600 L72,649 Q95,711 135,740.5 Q175,770 222,770 Q268,770 304,743 L337,720 Q355,707 376,707 Q412,707 438,767 L517,717 Q472,596 368,596"/> 
            <glyph glyph-name="ò" unicode="&#xF2;" horiz-adv-x="583" d=" M583,275 Q583,142 509.5,68 Q436,-6 308,-6 Q181,-6 109,67.5 Q37,141 37,275 Q37,409 110.5,483 Q184,557 311,557 Q439,557 511,483 Q583,409 583,275 M422,275 Q422,356 393,398.5 Q364,441 308,441 Q198,441 198,275 Q198,109 311,109 Q422,109 422,275 M313,625 L138,763 L339,763 L411,697 Q433,676 433,649 Q433,630 419,615 Q405,600 378,600 Q345,600 313,625"/> 
            <glyph glyph-name="ó" unicode="&#xF3;" horiz-adv-x="583" d=" M583,275 Q583,142 509.5,68 Q436,-6 308,-6 Q181,-6 109,67.5 Q37,141 37,275 Q37,409 110.5,483 Q184,557 311,557 Q439,557 511,483 Q583,409 583,275 M422,275 Q422,356 393,398.5 Q364,441 308,441 Q198,441 198,275 Q198,109 311,109 Q422,109 422,275 M493,763 L318,625 Q286,600 253,600 Q226,600 212,615 Q198,630 198,649 Q198,676 220,697 L292,763"/> 
            <glyph glyph-name="ô" unicode="&#xF4;" horiz-adv-x="583" d=" M583,275 Q583,142 509.5,68 Q436,-6 308,-6 Q181,-6 109,67.5 Q37,141 37,275 Q37,409 110.5,483 Q184,557 311,557 Q439,557 511,483 Q583,409 583,275 M422,275 Q422,356 393,398.5 Q364,441 308,441 Q198,441 198,275 Q198,109 311,109 Q422,109 422,275 M310,765 Q364,765 395,733 L521,601 L357,601 L310,666 L265,601 L101,601 L225,733 Q257,765 310,765"/> 
            <glyph glyph-name="õ" unicode="&#xF5;" horiz-adv-x="583" d=" M583,275 Q583,142 509.5,68 Q436,-6 308,-6 Q181,-6 109,67.5 Q37,141 37,275 Q37,409 110.5,483 Q184,557 311,557 Q439,557 511,483 Q583,409 583,275 M422,275 Q422,356 393,398.5 Q364,441 308,441 Q198,441 198,275 Q198,109 311,109 Q422,109 422,275 M391,596 Q347,596 308,623 L276,646 Q255,660 236,660 Q199,660 174,600 L95,649 Q118,711 158,740.5 Q198,770 245,770 Q291,770 327,743 L360,720 Q378,707 399,707 Q435,707 461,767 L540,717 Q495,596 391,596"/> 
            <glyph glyph-name="ö" unicode="&#xF6;" horiz-adv-x="583" d=" M583,275 Q583,142 509.5,68 Q436,-6 308,-6 Q181,-6 109,67.5 Q37,141 37,275 Q37,409 110.5,483 Q184,557 311,557 Q439,557 511,483 Q583,409 583,275 M422,275 Q422,356 393,398.5 Q364,441 308,441 Q198,441 198,275 Q198,109 311,109 Q422,109 422,275 M281,690 Q281,654 259,632 Q237,610 198,610 Q159,610 137,632 Q115,654 115,690 Q115,727 137,748.5 Q159,770 198,770 Q237,770 259,748.5 Q281,727 281,690 M509,690 Q509,654 487,632 Q465,610 426,610 Q387,610 365,632 Q343,654 343,690 Q343,727 365,748.5 Q387,770 426,770 Q465,770 487,748.5 Q509,727 509,690"/> 
            <glyph glyph-name="÷" unicode="&#xF7;" horiz-adv-x="543" d=" M381,523 Q381,453 357.5,432 Q334,411 293,411 Q253,411 229,432 Q205,453 205,488 Q205,523 229,544.5 Q253,566 293,566 Q334,566 381,523 M381,97 Q381,62 357.5,41 Q334,20 293,20 Q253,20 229,41 Q205,62 205,97 Q205,132 229,153.5 Q253,175 293,175 Q334,175 357.5,154 Q381,133 381,97 M543,233 L46,233 L46,354 L543,354"/> 
            <glyph glyph-name="ø" unicode="&#xF8;" horiz-adv-x="583" d=" M189,-52 L75,-52 L130,48 Q37,122 37,275 Q37,409 110.5,483 Q184,557 311,557 Q357,557 401,544 L430,596 L542,596 L489,501 Q583,427 583,275 Q583,142 509.5,68 Q436,-6 308,-6 Q261,-6 219,5 M429,275 Q429,325 411,361 L279,114 Q292,109 311,109 Q368,109 398.5,151.5 Q429,194 429,275 M191,275 Q191,220 210,189 L341,435 Q329,442 308,442 Q251,442 221,399 Q191,356 191,275"/> 
            <glyph glyph-name="ù" unicode="&#xF9;" horiz-adv-x="534" d=" M374,142 L374,550 L534,550 L534,111 Q534,73 516,51.5 Q498,30 460,20 Q372,-5 281,-5 Q163,-5 107,47 Q51,99 51,191 L51,550 L209,550 L209,205 Q209,128 287,128 Q323,128 374,142 M281,625 L106,763 L307,763 L379,697 Q401,676 401,649 Q401,630 387,615 Q373,600 346,600 Q313,600 281,625"/> 
            <glyph glyph-name="ú" unicode="&#xFA;" horiz-adv-x="534" d=" M374,142 L374,550 L534,550 L534,111 Q534,73 516,51.5 Q498,30 460,20 Q372,-5 281,-5 Q163,-5 107,47 Q51,99 51,191 L51,550 L209,550 L209,205 Q209,128 287,128 Q323,128 374,142 M480,763 L305,625 Q273,600 240,600 Q213,600 199,615 Q185,630 185,649 Q185,676 207,697 L279,763"/> 
            <glyph glyph-name="û" unicode="&#xFB;" horiz-adv-x="534" d=" M374,142 L374,550 L534,550 L534,111 Q534,73 516,51.5 Q498,30 460,20 Q372,-5 281,-5 Q163,-5 107,47 Q51,99 51,191 L51,550 L209,550 L209,205 Q209,128 287,128 Q323,128 374,142 M293,765 Q347,765 378,733 L504,601 L340,601 L293,666 L248,601 L84,601 L208,733 Q240,765 293,765"/> 
            <glyph glyph-name="ü" unicode="&#xFC;" horiz-adv-x="534" d=" M374,142 L374,550 L534,550 L534,111 Q534,73 516,51.5 Q498,30 460,20 Q372,-5 281,-5 Q163,-5 107,47 Q51,99 51,191 L51,550 L209,550 L209,205 Q209,128 287,128 Q323,128 374,142 M263,690 Q263,654 241,632 Q219,610 180,610 Q141,610 119,632 Q97,654 97,690 Q97,727 119,748.5 Q141,770 180,770 Q219,770 241,748.5 Q263,727 263,690 M491,690 Q491,654 469,632 Q447,610 408,610 Q369,610 347,632 Q325,654 325,690 Q325,727 347,748.5 Q369,770 408,770 Q447,770 469,748.5 Q491,727 491,690"/> 
            <glyph glyph-name="ý" unicode="&#xFD;" horiz-adv-x="569" d=" M178,-182 Q121,-182 43,-159 L62,-43 Q125,-61 158,-61 Q169,-61 178,-59.5 Q187,-58 194,-53.5 Q201,-49 205,-46 Q209,-43 213,-34.5 Q217,-26 218.5,-23 Q220,-20 223.5,-9 Q227,2 228,4 L14,550 L190,550 L304,187 L404,550 L569,550 L380,-17 Q352,-101 306,-141.5 Q260,-182 178,-182 M510,763 L335,625 Q303,600 270,600 Q243,600 229,615 Q215,630 215,649 Q215,676 237,697 L309,763"/> 
            <glyph glyph-name="þ" unicode="&#xFE;" horiz-adv-x="564" d=" M295,123 Q354,123 381,161 Q408,199 408,275 Q408,351 381,389 Q354,427 295,427 Q265,427 209,413 L209,138 Q266,123 295,123 M51,-186 L51,747 L209,775 L209,536 Q266,553 321,553 Q564,553 564,277 Q564,143 501.5,70 Q439,-3 317,-3 Q268,-3 209,16 L209,-157"/> 
            <glyph glyph-name="ÿ" unicode="&#xFF;" horiz-adv-x="569" d=" M178,-182 Q121,-182 43,-159 L62,-43 Q125,-61 158,-61 Q169,-61 178,-59.5 Q187,-58 194,-53.5 Q201,-49 205,-46 Q209,-43 213,-34.5 Q217,-26 218.5,-23 Q220,-20 223.5,-9 Q227,2 228,4 L14,550 L190,550 L304,187 L404,550 L569,550 L380,-17 Q352,-101 306,-141.5 Q260,-182 178,-182 M274,690 Q274,654 252,632 Q230,610 191,610 Q152,610 130,632 Q108,654 108,690 Q108,727 130,748.5 Q152,770 191,770 Q230,770 252,748.5 Q274,727 274,690 M502,690 Q502,654 480,632 Q458,610 419,610 Q380,610 358,632 Q336,654 336,690 Q336,727 358,748.5 Q380,770 419,770 Q458,770 480,748.5 Q502,727 502,690"/> 
            <glyph glyph-name="ı" unicode="&#x131;" horiz-adv-x="210" d=" M210,0 L54,0 L54,550 L210,550"/> 
            <glyph glyph-name="Ł" unicode="&#x141;" horiz-adv-x="582" d=" M10,416 L66,439 L66,744 L260,744 L260,509 L416,571 L416,459 L260,398 L260,154 L582,154 L582,0 L167,0 Q120,0 93,24.5 Q66,49 66,93 L66,327 L10,305"/> 
            <glyph glyph-name="ł" unicode="&#x142;" horiz-adv-x="287" d=" M230,0 L67,0 L67,342 L11,311 L11,428 L67,459 L67,747 L230,775 L230,540 L287,571 L287,454 L230,423"/> 
            <glyph glyph-name="Œ" unicode="&#x152;" horiz-adv-x="1037" d=" M1037,0 L396,0 Q232,0 135,97.5 Q38,195 38,370 Q38,545 133.5,644.5 Q229,744 394,744 L1034,744 L1034,603 L689,603 L689,446 L991,446 L991,311 L689,311 L689,140 L1037,140 M228,370 Q228,261 272.5,203 Q317,145 399,145 L496,145 L496,600 L406,600 Q322,600 275,539 Q228,478 228,370"/> 
            <glyph glyph-name="œ" unicode="&#x153;" horiz-adv-x="940" d=" M311,557 Q437,557 502,480 Q568,558 686,558 Q806,558 873,490.5 Q940,423 940,288 Q940,226 876,226 L577,226 Q589,119 712,119 Q786,119 861,143 L914,160 L933,43 L880,26 Q776,-6 700,-6 Q568,-6 501,71 Q436,-6 308,-6 Q181,-6 109,67.5 Q37,141 37,275 Q37,409 110.5,483 Q184,557 311,557 M422,275 Q422,356 393,398.5 Q364,441 308,441 Q198,441 198,275 Q198,109 311,109 Q422,109 422,275 M786,329 Q786,380 760,412.5 Q734,445 681,445 Q635,445 607.5,414 Q580,383 576,329"/> 
            <glyph glyph-name="Š" unicode="&#x160;" horiz-adv-x="620" d=" M297,456 L421,430 Q521,409 570,360.5 Q619,312 619,223 Q619,110 543.5,50.5 Q468,-9 348,-9 Q225,-9 107,28 L40,51 L69,208 L136,184 Q258,141 346,141 Q387,141 412.5,159.5 Q438,178 438,214 Q438,269 365,285 L240,311 Q141,332 91.5,382 Q42,432 42,520 Q42,633 116.5,691 Q191,749 313,749 Q432,749 553,711 L620,690 L589,531 L522,556 Q402,599 315,599 Q223,599 223,526 Q223,497 240.5,480.5 Q258,464 297,456 M339,777 Q285,777 254,809 L128,941 L292,941 L339,877 L385,941 L549,941 L424,809 Q395,777 339,777"/> 
            <glyph glyph-name="š" unicode="&#x161;" horiz-adv-x="511" d=" M252,340 L350,324 Q509,298 509,170 Q509,84 448.5,38.5 Q388,-7 290,-7 Q191,-7 94,24 L40,41 L62,164 L117,145 Q218,112 287,112 Q357,112 357,162 Q357,202 298,210 L200,226 Q42,250 42,382 Q42,467 102.5,512 Q163,557 261,557 Q359,557 456,526 L511,509 L489,385 L433,404 Q329,438 263,438 Q193,438 193,388 Q193,348 252,340 M288,600 Q234,600 203,632 L77,764 L241,764 L288,700 L334,764 L498,764 L373,632 Q344,600 288,600"/> 
            <glyph glyph-name="Ÿ" unicode="&#x178;" horiz-adv-x="726" d=" M726,744 L464,304 L464,0 L271,0 L271,302 L6,744 L215,744 L370,466 L519,744 M342,862 Q342,826 320,804 Q298,782 259,782 Q220,782 198,804 Q176,826 176,862 Q176,899 198,920.5 Q220,942 259,942 Q298,942 320,920.5 Q342,899 342,862 M570,862 Q570,826 548,804 Q526,782 487,782 Q448,782 426,804 Q404,826 404,862 Q404,899 426,920.5 Q448,942 487,942 Q526,942 548,920.5 Q570,899 570,862"/> 
            <glyph glyph-name="Ž" unicode="&#x17D;" horiz-adv-x="634" d=" M604,576 L274,140 L630,140 L630,0 L122,0 Q79,0 57,24 Q35,48 35,88 Q35,127 64,166 L398,602 L55,602 L55,744 L546,744 Q590,744 612,720 Q634,696 634,654 Q634,614 604,576 M344,777 Q290,777 259,809 L133,941 L297,941 L344,877 L390,941 L554,941 L429,809 Q400,777 344,777"/> 
            <glyph glyph-name="ž" unicode="&#x17E;" horiz-adv-x="520" d=" M47,550 L443,550 Q481,550 500.5,528.5 Q520,507 520,472 Q520,433 492,402 L243,116 L517,116 L517,0 L112,0 Q75,0 55.5,21 Q36,42 36,77 Q36,116 66,151 L314,433 L47,433 M286,600 Q232,600 201,632 L75,764 L239,764 L286,700 L332,764 L496,764 L371,632 Q342,600 286,600"/> 
            <glyph glyph-name="ƒ" unicode="&#x192;" horiz-adv-x="521" d=" M339,428 L339,4 Q339,-85 280.5,-133 Q222,-181 114,-181 L114,-66 Q152,-65 168,-47 Q184,-29 184,7 L184,428 L109,428 L109,547 L184,547 L184,582 Q184,672 235.5,718.5 Q287,765 380,765 Q438,765 521,741 L502,625 Q442,641 409,641 Q370,641 354.5,625 Q339,609 339,569 L339,547 L494,547 L494,428"/> 
            <glyph glyph-name="ˆ" unicode="&#x2C6;" horiz-adv-x="492" d=" M281,765 Q335,765 366,733 L492,601 L328,601 L281,666 L236,601 L72,601 L196,733 Q228,765 281,765"/> 
            <glyph glyph-name="ˇ" unicode="&#x2C7;" horiz-adv-x="491" d=" M281,600 Q227,600 196,632 L70,764 L234,764 L281,700 L327,764 L491,764 L366,632 Q337,600 281,600"/> 
            <glyph glyph-name="˘" unicode="&#x2D8;" horiz-adv-x="459" d=" M348,597 Q176,597 120,642.5 Q64,688 64,763 L200,763 Q200,692 261,692 Q289,692 306.5,710.5 Q324,729 324,763 L459,763 Q459,688 348,597"/> 
            <glyph glyph-name="˙" unicode="&#x2D9;" horiz-adv-x="355" d=" M355,690 Q355,652 331,630.5 Q307,609 266,609 Q224,609 200,630.5 Q176,652 176,690 Q176,727 200,748.5 Q224,770 266,770 Q307,770 331,748.5 Q355,727 355,690"/> 
            <glyph glyph-name="˚" unicode="&#x2DA;" horiz-adv-x="411" d=" M278,585 Q223,585 184.5,620.5 Q146,656 146,710 Q146,765 183.5,799 Q221,833 278,833 Q335,833 373,799 Q411,765 411,710 Q411,656 372.5,620.5 Q334,585 278,585 M278,760 Q254,760 240,745.5 Q226,731 226,710 Q226,687 240,673 Q254,659 278,659 Q301,659 316,673.5 Q331,688 331,710 Q331,731 316,745.5 Q301,760 278,760"/> 
            <glyph glyph-name="˛" unicode="&#x2DB;" horiz-adv-x="391" d=" M374,-71 L391,-145 Q325,-171 265,-171 Q211,-171 176.5,-149.5 Q142,-128 142,-88 Q142,-29 199,0 L273,9 L277,0 Q233,-26 233,-60 Q233,-93 278,-93 Q320,-93 374,-71"/> 
            <glyph glyph-name="˜" unicode="&#x2DC;" horiz-adv-x="488" d=" M339,596 Q295,596 256,623 L224,646 Q203,660 184,660 Q147,660 122,600 L43,649 Q66,711 106,740.5 Q146,770 193,770 Q239,770 275,743 L308,720 Q326,707 347,707 Q383,707 409,767 L488,717 Q443,596 339,596"/> 
            <glyph glyph-name="˝" unicode="&#x2DD;" horiz-adv-x="509" d=" M289,763 L156,626 Q131,598 91,598 Q67,598 53,612.5 Q39,627 39,647 Q39,673 55,689 L126,763 M509,763 L376,624 Q351,596 312,596 Q287,596 272.5,610.5 Q258,625 258,645 Q258,667 275,687 L344,763"/> 
            <glyph glyph-name="π" unicode="&#x3C0;" horiz-adv-x="699" d=" M521,433 L521,192 Q521,151 537,133.5 Q553,116 591,116 Q621,116 681,132 L699,16 Q624,-6 560,-6 Q467,-6 416.5,41 Q366,88 366,179 L366,433 L254,433 L254,0 L98,0 L98,433 L25,433 L25,550 L682,550 L682,433"/> 
            <glyph glyph-name="–" unicode="&#x2013;" horiz-adv-x="550" d=" M550,263 L40,263 L40,385 L550,385"/> 
            <glyph glyph-name="—" unicode="&#x2014;" horiz-adv-x="940" d=" M940,263 L60,263 L60,384 L940,384"/> 
            <glyph glyph-name="‘" unicode="&#x2018;" horiz-adv-x="233" d=" M24,520 L80,711 Q94,762 156,762 Q198,762 215.5,739 Q233,716 224,681 L186,520"/> 
            <glyph glyph-name="’" unicode="&#x2019;" horiz-adv-x="229" d=" M229,763 L173,572 Q159,521 97,521 Q55,521 37.5,543.5 Q20,566 29,601 L67,763"/> 
            <glyph glyph-name="‚" unicode="&#x201A;" horiz-adv-x="229" d=" M229,151 L173,-40 Q159,-91 97,-91 Q55,-91 37.5,-68 Q20,-45 29,-10 L67,151"/> 
            <glyph glyph-name="“" unicode="&#x201C;" horiz-adv-x="416" d=" M17,520 L72,711 Q88,762 142,762 Q184,762 198.5,739.5 Q213,717 204,681 L166,520 M220,520 L275,711 Q283,737 298.5,749.5 Q314,762 345,762 Q386,762 401,739.5 Q416,717 407,681 L369,520"/> 
            <glyph glyph-name="”" unicode="&#x201D;" horiz-adv-x="418" d=" M418,763 L362,572 Q348,521 293,521 Q251,521 236.5,543 Q222,565 231,601 L269,763 M215,763 L160,572 Q152,546 136.5,533.5 Q121,521 90,521 Q48,521 33.5,543 Q19,565 28,601 L66,763"/> 
            <glyph glyph-name="„" unicode="&#x201E;" horiz-adv-x="418" d=" M418,151 L362,-40 Q348,-91 293,-91 Q251,-91 236.5,-68.5 Q222,-46 231,-10 L269,151 M215,151 L160,-40 Q152,-66 136.5,-78.5 Q121,-91 90,-91 Q48,-91 33.5,-68.5 Q19,-46 28,-10 L66,151"/> 
            <glyph glyph-name="†" unicode="&#x2020;" horiz-adv-x="541" d=" M541,377 L356,394 L373,-186 L204,-186 L221,394 L34,377 L34,542 L219,527 L202,744 L375,744 L360,527 L541,541"/> 
            <glyph glyph-name="‡" unicode="&#x2021;" horiz-adv-x="541" d=" M541,17 L359,31 L374,-186 L202,-186 L219,31 L34,16 L34,180 L223,163 L201,279 L223,394 L34,377 L34,541 L219,526 L202,744 L374,744 L359,526 L541,540 L541,377 L353,394 L377,279 L353,164 L541,180"/> 
            <glyph glyph-name="•" unicode="&#x2022;" horiz-adv-x="390" d=" M390,411 Q390,251 347.5,206 Q305,161 230,161 Q157,161 114.5,206 Q72,251 72,331 Q72,411 114.5,456 Q157,501 230,501 Q305,501 390,411"/> 
            <glyph glyph-name="…" unicode="&#x2026;" horiz-adv-x="724" d=" M216,114 Q216,36 192.5,13 Q169,-10 128,-10 Q86,-10 62,13 Q38,36 38,75 Q38,114 62,136.5 Q86,159 128,159 Q169,159 216,114 M470,114 Q470,36 446.5,13 Q423,-10 381,-10 Q339,-10 315.5,13 Q292,36 292,75 Q292,114 315.5,136.5 Q339,159 381,159 Q423,159 470,114 M724,114 Q724,36 700.5,13 Q677,-10 635,-10 Q593,-10 569.5,13 Q546,36 546,75 Q546,114 569.5,136.5 Q593,159 635,159 Q677,159 724,114"/> 
            <glyph glyph-name="‰" unicode="&#x2030;" horiz-adv-x="1303" d=" M418,566 Q418,475 366,422.5 Q314,370 225,370 Q135,370 84,422.5 Q33,475 33,566 Q33,656 85,708 Q137,760 226,760 Q316,760 367,708 Q418,656 418,566 M286,566 Q286,657 225,657 Q166,657 166,566 Q166,473 226,473 Q286,473 286,566 M807,744 L264,0 L108,0 L651,744 M887,271 Q887,89 835.5,37 Q784,-15 694,-15 Q604,-15 553,37 Q502,89 502,180 Q502,270 554,322 Q606,374 695,374 Q786,374 887,271 M755,88 Q755,272 694,272 Q666,272 650.5,247.5 Q635,223 635,180 Q635,88 755,88 M1303,271 Q1303,89 1251.5,37 Q1200,-15 1110,-15 Q1020,-15 969,37 Q918,89 918,180 Q918,270 970,322 Q1022,374 1111,374 Q1202,374 1303,271 M1171,88 Q1171,272 1110,272 Q1082,272 1066.5,247.5 Q1051,223 1051,180 Q1051,88 1171,88"/> 
            <glyph glyph-name="‹" unicode="&#x2039;" horiz-adv-x="358" d=" M31,282 Q31,316 57,343 L187,477 L358,477 L172,282 L358,87 L187,87 L57,220 Q31,246 31,282"/> 
            <glyph glyph-name="›" unicode="&#x203A;" horiz-adv-x="345" d=" M345,282 Q345,247 319,220 L189,87 L18,87 L204,282 L18,477 L189,477 L319,343 Q345,314 345,282"/> 
            <glyph glyph-name="⁄" unicode="&#x2044;" horiz-adv-x="807" d=" M807,744 L264,0 L108,0 L651,744"/> 
            <glyph glyph-name="€" unicode="&#x20AC;" horiz-adv-x="561" d=" M442,244 L255,244 Q258,184 289,154 Q320,124 374,124 Q422,124 496,147 L542,161 L561,33 L516,20 Q424,-7 356,-7 Q243,-7 171,58.5 Q99,124 92,244 L24,244 L24,344 L90,344 L90,402 L24,402 L24,502 L92,502 Q99,621 171.5,686 Q244,751 356,751 Q435,751 514,725 L561,710 L542,582 L498,595 Q415,619 374,619 Q262,619 256,502 L442,502 L442,402 L253,402 L253,344 L442,344"/> 
            <glyph glyph-name="™" unicode="&#x2122;" horiz-adv-x="871" d=" M871,326 L769,326 L769,592 L703,362 Q692,323 645,323 Q596,323 586,362 L522,592 L522,326 L423,326 L423,680 Q423,713 445,731 Q467,749 506,749 Q579,749 595,687 L647,494 L703,689 Q719,747 792,747 Q828,747 849.5,728.5 Q871,710 871,681 M379,656 L267,656 L267,326 L152,326 L152,656 L39,656 L39,744 L379,744"/> 
            <glyph glyph-name="Ω" unicode="&#x2126;" horiz-adv-x="772" d=" M580,429 Q580,516 532,566.5 Q484,617 402,617 Q322,617 276,567.5 Q230,518 230,429 Q230,349 268,299.5 Q306,250 372,239 L372,0 L87,0 L87,119 L265,119 L265,165 Q158,193 98,265 Q38,337 38,444 Q38,583 140.5,666 Q243,749 407,749 Q571,749 671.5,667 Q772,585 772,447 Q772,342 711,268 Q650,194 546,166 L546,119 L727,119 L727,0 L439,0 L439,239 Q504,249 542,299.5 Q580,350 580,429"/> 
            <glyph glyph-name="∂" unicode="&#x2202;" horiz-adv-x="553" d=" M389,470 L389,513 Q389,613 279,613 Q212,613 122,583 L73,567 L49,700 L100,717 Q194,748 290,750 Q409,750 481,686 Q553,622 553,513 L553,249 Q553,132 484,63.5 Q415,-5 293,-5 Q169,-5 101,62.5 Q33,130 33,244 Q33,361 94.5,425 Q156,489 274,489 Q332,489 389,470 M389,249 L389,343 Q325,358 302,358 Q199,358 199,242 Q199,187 224,157 Q249,127 294,127 Q389,127 389,249"/> 
            <glyph glyph-name="∆" unicode="&#x2206;" horiz-adv-x="692" d=" M692,0 L17,0 L228,667 Q254,751 358,751 Q461,751 487,667 M468,138 L354,544 L241,138"/> 
            <glyph glyph-name="∏" unicode="&#x220F;" horiz-adv-x="685" d=" M685,610 L596,610 L596,0 L420,0 L420,610 L296,610 L296,0 L121,0 L121,610 L31,610 L31,744 L685,744"/> 
            <glyph glyph-name="∑" unicode="&#x2211;" horiz-adv-x="671" d=" M671,-179 L121,-179 Q80,-179 58,-155 Q36,-131 36,-92 Q36,-58 67,-13 L277,283 L65,578 Q36,617 36,657 Q36,696 58,720 Q80,744 121,744 L661,744 L661,517 L520,517 L520,610 L227,610 L460,283 L227,-45 L530,-45 L530,51 L671,51"/> 
            <glyph glyph-name="−" unicode="&#x2212;" horiz-adv-x="521" d=" M521,263 L45,263 L45,385 L521,385"/> 
            <glyph glyph-name="√" unicode="&#x221A;" horiz-adv-x="676" d=" M676,625 L580,625 L422,61 Q402,-12 311,-12 Q220,-12 200,61 L93,432 L10,432 L10,551 L227,551 L314,182 L450,744 L676,744"/> 
            <glyph glyph-name="∞" unicode="&#x221E;" horiz-adv-x="763" d=" M763,399 Q763,197 713,137 Q663,77 566,77 Q520,77 446,111 L401,132 L354,108 Q293,77 235,77 Q138,77 87.5,137 Q37,197 37,298 Q37,399 87.5,458.5 Q138,518 235,518 Q298,518 354,488 L400,463 L446,486 Q513,519 566,518 Q663,518 763,399 M629,298 Q629,402 557,402 Q529,402 499,388 L474,376 L474,220 L493,211 Q531,193 557,194 Q590,194 609.5,219.5 Q629,245 629,298 M327,220 L327,376 L301,388 Q270,402 244,402 Q172,402 172,298 Q172,245 191.5,219.5 Q211,194 244,194 Q276,194 305,209"/> 
            <glyph glyph-name="∫" unicode="&#x222B;" horiz-adv-x="520" d=" M338,566 L338,4 Q338,-181 113,-181 L113,-66 Q150,-65 166,-47.5 Q182,-30 182,7 L182,579 Q182,669 233.5,717 Q285,765 378,765 Q437,765 520,741 L502,625 Q440,641 408,641 Q370,641 354,623.5 Q338,606 338,566"/> 
            <glyph glyph-name="≈" unicode="&#x2248;" horiz-adv-x="569" d=" M392,102 Q337,102 293,132 L250,160 Q225,176 200,176 Q155,176 123,109 L31,165 Q89,296 206,296 Q257,296 305,265 L348,238 Q374,221 398,221 Q447,221 477,290 L569,230 Q510,102 392,102 M384,301 Q330,301 284,331 L242,359 Q217,375 192,375 Q145,375 114,308 L22,364 Q80,495 197,495 Q250,495 297,464 L339,437 Q363,420 389,420 Q440,420 469,489 L561,429 Q502,301 384,301"/> 
            <glyph glyph-name="≠" unicode="&#x2260;" horiz-adv-x="544" d=" M544,149 L282,149 L227,37 L105,37 L160,149 L46,149 L46,263 L216,263 L250,334 L46,334 L46,448 L305,448 L368,576 L489,576 L426,448 L544,448 L544,334 L371,334 L338,263 L544,263"/> 
            <glyph glyph-name="≤" unicode="&#x2264;" horiz-adv-x="546" d=" M546,140 L116,257 Q44,275 44,348 Q44,419 114,437 L546,557 L546,428 L212,347 L546,265 M545,0 L48,0 L48,115 L545,115"/> 
            <glyph glyph-name="≥" unicode="&#x2265;" horiz-adv-x="546" d=" M474,257 L43,140 L43,265 L377,347 L43,428 L43,557 L476,437 Q546,419 546,348 Q546,275 474,257 M542,0 L44,0 L44,115 L542,115"/> 
            <glyph glyph-name="◊" unicode="&#x25CA;" horiz-adv-x="646" d=" M646,371 L416,26 Q391,-12 330,-12 Q270,-12 245,27 L16,371 L245,716 Q270,755 332,755 Q392,755 416,716 M470,372 L333,590 L195,372 L333,153"/> 
            <glyph glyph-name="ﬁ" unicode="&#xFB01;" horiz-adv-x="633" d=" M633,692 Q633,654 609.5,632 Q586,610 544,610 Q502,610 478.5,632 Q455,654 455,692 Q455,728 478.5,750 Q502,772 544,772 Q586,772 609.5,750 Q633,728 633,692 M247,428 L247,0 L91,0 L91,428 L16,428 L16,547 L91,547 L91,583 Q91,673 142.5,719 Q194,765 287,765 Q341,765 428,742 L410,625 Q344,642 317,642 Q279,642 263,626 Q247,610 247,570 L247,547 L623,547 L623,0 L465,0 L465,428"/> 
            <glyph glyph-name="ﬂ" unicode="&#xFB02;" horiz-adv-x="627" d=" M464,0 L464,628 Q381,644 329,644 Q284,644 265.5,627 Q247,610 247,570 L247,547 L401,547 L401,428 L247,428 L247,0 L91,0 L91,428 L16,428 L16,547 L91,547 L91,583 Q91,673 145,720 Q199,767 296,767 Q367,767 465,744 L627,774 L627,0"/> 
            <glyph glyph-name=" " unicode="&#x20;" horiz-adv-x="216" d=" M205,251 L48,224 L48,744 L205,744 M216,70 Q216,33 192.5,12 Q169,-9 127,-9 Q85,-9 61.5,12 Q38,33 38,70 Q38,108 61.5,130 Q85,152 127,152 Q169,152 192.5,130 Q216,108 216,70"/> 
            <glyph glyph-name="!" unicode="&#x21;" horiz-adv-x="390" d=" M193,763 L180,518 L59,518 L45,763 M390,763 L377,518 L257,518 L242,763"/> 
            <glyph glyph-name="&quot;" unicode="&#x22;" horiz-adv-x="677" d=" M677,544 L659,426 L548,426 L526,308 L638,308 L620,189 L504,189 L469,0 L339,0 L375,189 L259,189 L222,0 L91,0 L128,189 L24,189 L41,308 L151,308 L174,426 L61,426 L79,544 L196,544 L234,744 L363,744 L325,544 L439,544 L477,744 L607,744 L569,544 M419,426 L303,426 L280,308 L397,308"/> 
            <glyph glyph-name="#" unicode="&#x23;" horiz-adv-x="558" d=" M271,455 L372,431 Q558,386 558,221 Q558,122 503.5,65 Q449,8 361,-3 L361,-129 L233,-129 L233,-3 Q179,-1 97,23 L36,41 L63,193 L121,173 Q223,137 307,138 Q345,138 369,157.5 Q393,177 393,212 Q393,246 374,262.5 Q355,279 312,289 L223,309 Q36,352 36,519 Q36,618 90.5,675.5 Q145,733 233,743 L233,867 L361,867 L361,744 Q431,736 496,716 L557,697 L531,546 L471,566 Q366,601 289,601 Q249,601 225.5,581.5 Q202,562 202,527 Q202,471 271,455"/> 
            <glyph glyph-name="$" unicode="&#x24;" horiz-adv-x="887" d=" M418,566 Q418,475 366,422.5 Q314,370 225,370 Q135,370 84,422.5 Q33,475 33,566 Q33,656 85,708 Q137,760 226,760 Q316,760 367,708 Q418,656 418,566 M286,566 Q286,657 225,657 Q166,657 166,566 Q166,473 226,473 Q286,473 286,566 M807,744 L264,0 L108,0 L651,744 M887,271 Q887,89 835.5,37 Q784,-15 694,-15 Q604,-15 553,37 Q502,89 502,180 Q502,270 554,322 Q606,374 695,374 Q786,374 887,271 M755,88 Q755,272 694,272 Q666,272 650.5,247.5 Q635,223 635,180 Q635,88 755,88"/> 
            <glyph glyph-name="%" unicode="&#x25;" horiz-adv-x="718" d=" M718,0 L529,0 L493,42 Q474,25 420.5,7.5 Q367,-10 292,-10 Q172,-10 107.5,49 Q43,108 43,200 Q43,333 173,394 Q138,436 121,473 Q104,510 104,559 Q104,653 166.5,704.5 Q229,756 330,756 Q430,756 488.5,708 Q547,660 547,573 Q547,436 385,362 L512,227 Q531,247 543.5,291.5 Q556,336 556,384 L556,455 L695,455 L695,382 Q695,307 671,239 Q647,171 607,127 M404,568 Q404,600 384.5,619.5 Q365,639 329,639 Q289,639 268.5,617.5 Q248,596 248,559 Q248,512 303,452 Q356,474 380,500.5 Q404,527 404,568 M406,138 L258,295 Q201,271 201,202 Q201,162 228,136 Q255,110 307,110 Q372,110 406,138"/> 
            <glyph glyph-name="&amp;" unicode="&#x26;" horiz-adv-x="208" d=" M208,763 L194,518 L59,518 L45,763"/> 
            <glyph glyph-name="'" unicode="&#x27;" horiz-adv-x="329" d=" M39,340 Q39,441 57,516 Q75,591 102.5,633.5 Q130,676 170.5,702 Q211,728 248,736 Q285,744 329,744 L329,627 Q197,616 197,340 Q197,263 206.5,206 Q216,149 229.5,119 Q243,89 263,71 Q283,53 297,48.5 Q311,44 329,43 L329,-74 Q289,-74 253,-65.5 Q217,-57 176,-30 Q135,-3 106,41 Q77,85 58,161.5 Q39,238 39,340"/> 
            <glyph glyph-name="(" unicode="&#x28;" horiz-adv-x="325" d=" M325,340 Q325,238 306,161.5 Q287,85 258,41 Q229,-3 188,-30 Q147,-57 111,-65.5 Q75,-74 34,-74 L34,43 Q52,44 66,48.5 Q80,53 100,71 Q120,89 133,119 Q146,149 155.5,206 Q165,263 165,340 Q165,414 155.5,468.5 Q146,523 133,552 Q120,581 100,598.5 Q80,616 66,620.5 Q52,625 34,627 L34,744 Q79,744 116,736 Q153,728 193.5,702 Q234,676 261.5,633.5 Q289,591 307,516 Q325,441 325,340"/> 
            <glyph glyph-name=")" unicode="&#x29;" horiz-adv-x="519" d=" M519,541 L367,505 L468,388 L346,307 L276,434 L204,308 L84,389 L184,506 L32,542 L74,675 L211,618 L199,762 L352,762 L340,617 L477,674"/> 
            <glyph glyph-name="*" unicode="&#x2A;" horiz-adv-x="543" d=" M543,233 L361,233 L361,39 L224,39 L224,233 L46,233 L46,354 L224,354 L224,548 L361,548 L361,354 L543,354"/> 
            <glyph glyph-name="+" unicode="&#x2B;" horiz-adv-x="228" d=" M228,151 L173,-40 Q157,-91 97,-91 Q55,-91 37,-68 Q19,-45 28,-10 L66,151"/> 
            <glyph glyph-name="," unicode="&#x2C;" horiz-adv-x="393" d=" M393,263 L40,263 L40,386 L393,386"/> 
            <glyph glyph-name="-" unicode="&#x2D;" horiz-adv-x="216" d=" M216,114 Q216,36 192.5,13 Q169,-10 128,-10 Q86,-10 62,13 Q38,36 38,75 Q38,114 62,136.5 Q86,159 128,159 Q169,159 216,114"/> 
            <glyph glyph-name="." unicode="&#x2E;" horiz-adv-x="428" d=" M428,744 L148,0 L7,0 L292,744"/> 
            <glyph glyph-name="/" unicode="&#x2F;" horiz-adv-x="546" d=" M384,233 L384,509 Q384,617 296,617 Q208,617 208,509 L208,233 Q208,124 296,124 Q384,124 384,233 M546,505 L546,239 Q546,119 482.5,54.5 Q419,-10 298,-10 Q175,-10 109.5,54 Q44,118 44,236 L44,504 Q44,622 109,687 Q174,752 295,752 Q418,752 482,688 Q546,624 546,505"/> 
            <glyph glyph-name="0" unicode="&#x30;" horiz-adv-x="562" d=" M562,0 L40,0 L40,129 L234,129 L234,608 L211,608 Q139,608 97,581 L72,711 Q139,744 248,744 L303,744 Q351,744 377.5,719 Q404,694 404,649 L404,129 L562,129"/> 
            <glyph glyph-name="1" unicode="&#x31;" horiz-adv-x="543" d=" M290,751 Q405,751 473,694.5 Q541,638 541,522 Q541,457 511,397.5 Q481,338 410,273 L249,126 L543,126 L543,0 L110,0 Q37,0 37,82 Q37,124 63,149 L279,349 Q331,398 353.5,434 Q376,470 376,516 Q376,564 346.5,588.5 Q317,613 265,613 Q198,613 113,584 L62,566 L40,699 L91,715 Q204,751 290,751"/> 
            <glyph glyph-name="2" unicode="&#x32;" horiz-adv-x="558" d=" M558,204 Q558,101 487,46.5 Q416,-8 290,-8 Q198,-8 80,28 L26,45 L50,176 L103,159 Q206,126 277,126 Q334,126 363.5,148 Q393,170 393,210 Q393,249 364,281 L337,312 L188,312 L188,434 L332,434 L355,463 Q379,495 379,533 Q379,614 271,614 Q209,614 114,583 L65,567 L44,700 L96,717 Q205,751 293,751 Q543,751 543,548 Q543,479 493,412 L467,378 L496,347 Q558,285 558,204"/> 
            <glyph glyph-name="3" unicode="&#x33;" horiz-adv-x="578" d=" M348,120 L93,120 Q55,120 35.5,141 Q16,162 16,198 Q16,230 40,267 L294,688 Q329,751 405,751 Q508,751 508,657 L508,246 L578,246 L578,120 L508,120 L508,0 L348,0 M348,246 L348,503 L193,246"/> 
            <glyph glyph-name="4" unicode="&#x34;" horiz-adv-x="559" d=" M276,126 Q395,126 395,244 Q395,301 364,331.5 Q333,362 276,362 Q220,362 132,337 L73,320 L73,744 L531,744 L531,606 L209,606 L209,473 Q262,489 320,489 Q559,489 559,246 Q559,123 488,58 Q417,-7 289,-7 Q208,-9 91,26 L38,42 L61,173 L114,157 Q217,126 276,126"/> 
            <glyph glyph-name="5" unicode="&#x35;" horiz-adv-x="560" d=" M204,513 L204,470 Q261,489 322,489 Q560,489 560,250 Q560,135 491.5,65 Q423,-5 299,-5 Q177,-5 108.5,63.5 Q40,132 40,249 L40,513 Q40,622 112,686 Q184,750 303,750 Q398,750 494,717 L544,700 L520,567 L471,583 Q381,613 314,613 Q204,613 204,513 M204,343 L204,249 Q204,127 301,127 Q346,127 370,156.5 Q394,186 394,242 Q394,358 291,358 Q276,358 204,343"/> 
            <glyph glyph-name="6" unicode="&#x36;" horiz-adv-x="562" d=" M543,583 L305,0 L124,0 L381,608 L43,608 L43,744 L477,744 Q519,744 540.5,722.5 Q562,701 562,663 Q562,630 543,583"/> 
            <glyph glyph-name="7" unicode="&#x37;" horiz-adv-x="561" d=" M422,-8 Q172,-8 100.5,46.5 Q29,101 29,202 Q29,284 89,347 L118,377 L93,411 Q47,473 47,548 Q47,645 114,698.5 Q181,752 295,752 Q409,752 476.5,698.5 Q544,645 544,548 Q544,473 498,411 L472,377 L501,347 Q561,283 561,202 Q561,100 422,-8 M246,118 Q346,118 373.5,141.5 Q401,165 401,205 Q401,244 371,279 L344,310 L247,310 L220,279 Q191,247 191,205 Q191,166 246,118 M295,620 Q250,620 226,597 Q202,574 202,536 Q202,502 228,463 L248,433 L343,433 L363,463 Q390,503 390,536 Q390,574 365.5,597 Q341,620 295,620"/> 
            <glyph glyph-name="8" unicode="&#x38;" horiz-adv-x="550" d=" M386,232 L386,275 Q329,256 268,256 Q30,256 30,495 Q30,610 98.5,680 Q167,750 291,750 Q413,750 481.5,681.5 Q550,613 550,496 L550,232 Q550,123 478,59 Q406,-5 287,-5 Q192,-5 96,28 L46,45 L70,178 L119,162 Q209,132 276,132 Q386,132 386,232 M386,402 L386,496 Q386,618 289,618 Q244,618 220,588.5 Q196,559 196,503 Q196,387 299,387 Q314,387 386,402"/> 
            <glyph glyph-name="9" unicode="&#x39;" horiz-adv-x="216" d=" M216,114 Q216,36 192.5,13 Q169,-10 128,-10 Q86,-10 62,13 Q38,36 38,75 Q38,114 62,136.5 Q86,159 128,159 Q169,159 216,114 M216,503 Q216,425 192.5,402.5 Q169,380 128,380 Q86,380 62,402.5 Q38,425 38,464 Q38,503 62,525.5 Q86,548 128,548 Q169,548 216,503"/> 
            <glyph glyph-name=":" unicode="&#x3A;" horiz-adv-x="228" d=" M228,151 L173,-40 Q157,-91 97,-91 Q55,-91 37,-68 Q19,-45 28,-10 L66,151 M222,502 Q222,426 198,403 Q174,380 133,380 Q91,380 67,403 Q43,426 43,464 Q43,502 67,525 Q91,548 133,548 Q174,548 222,502"/> 
            <glyph glyph-name=";" unicode="&#x3B;" horiz-adv-x="547" d=" M547,40 L117,191 Q43,216 43,295 Q43,375 114,399 L547,554 L547,396 L207,295 L547,193"/> 
            <glyph glyph-name="&lt;" unicode="&#x3C;" horiz-adv-x="543" d=" M543,149 L46,149 L46,266 L543,266 M543,331 L46,331 L46,448 L543,448"/> 
            <glyph glyph-name="=" unicode="&#x3D;" horiz-adv-x="547" d=" M473,191 L43,40 L43,193 L383,295 L43,396 L43,554 L476,399 Q547,375 547,295 Q547,216 473,191"/> 
            <glyph glyph-name="&gt;" unicode="&#x3E;" horiz-adv-x="444" d=" M214,614 Q159,614 99,596 L45,580 L24,708 L73,722 Q157,746 232,746 Q330,746 387,697.5 Q444,649 444,563 Q444,469 365,391 L294,321 L293,251 L140,224 L140,290 Q140,327 147.5,348 Q155,369 179,393 L245,459 Q286,500 286,551 Q286,614 214,614 M305,70 Q305,33 281.5,12 Q258,-9 217,-9 Q175,-9 151.5,12 Q128,33 128,70 Q128,108 151.5,130 Q175,152 217,152 Q258,152 281.5,130 Q305,108 305,70"/> 
            <glyph glyph-name="?" unicode="&#x3F;" horiz-adv-x="852" d=" M852,409 Q852,298 789.5,228.5 Q727,159 642,159 Q618,159 589.5,168 Q561,177 548,177 Q532,177 494,169.5 Q456,162 427,162 Q343,162 300.5,208 Q258,254 258,333 Q258,424 316,487.5 Q374,551 473,551 Q503,551 541,547 L545,573 L654,573 L610,252 Q632,241 646,241 Q688,241 719,285.5 Q750,330 750,408 Q750,523 680.5,589.5 Q611,656 487,656 Q355,656 271.5,568.5 Q188,481 188,349 Q188,229 254.5,155 Q321,81 438,81 Q479,81 550.5,99 Q622,117 658,117 Q698,117 727,100 L787,65 L749,-11 L691,16 Q677,23 652,23 Q629,23 561.5,6 Q494,-11 434,-11 Q271,-11 176.5,90.5 Q82,192 82,349 Q82,522 198,637.5 Q314,753 487,753 Q650,753 751,658.5 Q852,564 852,409 M501,259 L529,460 Q491,465 473,465 Q424,465 398.5,426.5 Q373,388 373,331 Q373,250 439,250 Q449,250 501,259"/> 
            <glyph glyph-name="@" unicode="&#x40;" horiz-adv-x="720" d=" M720,0 L526,0 L488,125 L240,125 L200,0 L8,0 L236,665 Q265,752 370,752 Q473,752 502,666 M454,263 L366,559 L275,263"/> 
            <glyph glyph-name="A" unicode="&#x41;" horiz-adv-x="666" d=" M418,0 L154,0 Q107,0 80,25 Q53,50 53,94 L53,650 Q53,694 79.5,719 Q106,744 154,744 L414,744 Q524,744 582.5,695.5 Q641,647 641,550 Q641,476 592,414 L566,380 L596,349 Q666,282 666,200 Q666,104 602.5,52 Q539,0 418,0 M460,540 Q460,611 382,611 L241,611 L241,439 L414,439 L439,475 Q460,504 460,540 M418,308 L241,308 L241,134 L392,134 Q434,134 456.5,153.5 Q479,173 479,207 Q479,242 451,272"/> 
            <glyph glyph-name="B" unicode="&#x42;" horiz-adv-x="659" d=" M38,371 Q38,554 135,651.5 Q232,749 391,749 Q483,750 599,714 L659,695 L636,542 L576,561 Q486,590 415,590 Q237,590 237,371 Q237,153 415,153 Q494,153 574,180 L636,201 L659,47 L601,29 Q487,-7 390,-7 Q229,-7 133.5,89.5 Q38,186 38,371"/> 
            <glyph glyph-name="C" unicode="&#x43;" horiz-adv-x="703" d=" M703,545 Q703,195 606,97.5 Q509,0 345,0 L154,0 Q106,0 79.5,24.5 Q53,49 53,93 L53,649 Q53,693 79.5,718.5 Q106,744 154,744 L347,744 Q512,744 703,545 M514,370 Q514,477 467,538 Q420,599 336,599 L245,599 L245,145 L342,145 Q424,145 469,203 Q514,261 514,370"/> 
            <glyph glyph-name="D" unicode="&#x44;" horiz-adv-x="593" d=" M593,0 L154,0 Q107,0 80,25 Q53,50 53,94 L53,650 Q53,694 80,719 Q107,744 154,744 L591,744 L591,603 L245,603 L245,446 L548,446 L548,311 L245,311 L245,140 L593,140"/> 
            <glyph glyph-name="E" unicode="&#x45;" horiz-adv-x="581" d=" M581,601 L246,601 L246,431 L552,431 L552,295 L246,295 L246,0 L53,0 L53,649 Q53,693 79.5,718.5 Q106,744 154,744 L581,744"/> 
            <glyph glyph-name="F" unicode="&#x46;" horiz-adv-x="694" d=" M402,-6 Q235,-6 136.5,90.5 Q38,187 38,371 Q38,553 138,651 Q238,749 403,749 Q501,749 622,713 L685,694 L660,540 L598,557 Q482,589 422,589 Q328,589 277.5,533 Q227,477 227,366 Q227,250 278,191.5 Q329,133 424,133 Q480,133 518,141 L518,269 L377,269 L377,401 L593,401 Q640,401 667,375 Q694,349 694,307 L694,145 Q694,91 675.5,63.5 Q657,36 608,23 Q503,-6 402,-6"/> 
            <glyph glyph-name="G" unicode="&#x47;" horiz-adv-x="673" d=" M673,0 L481,0 L481,307 L245,307 L245,0 L53,0 L53,744 L245,744 L245,447 L481,447 L481,744 L673,744"/> 
            <glyph glyph-name="H" unicode="&#x48;" horiz-adv-x="248" d=" M248,0 L53,0 L53,744 L248,744"/> 
            <glyph glyph-name="I" unicode="&#x49;" horiz-adv-x="418" d=" M418,744 L418,222 Q418,113 356,56 Q294,-1 183,-1 Q109,-1 16,27 L38,170 Q111,150 146,150 Q189,150 207,170 Q225,190 225,237 L225,744"/> 
            <glyph glyph-name="J" unicode="&#x4A;" horiz-adv-x="692" d=" M690,0 L487,0 L348,331 L295,269 Q266,234 253.5,206.5 Q241,179 241,140 L241,0 L53,0 L53,744 L242,744 L242,433 L477,744 L692,744 L488,485"/> 
            <glyph glyph-name="K" unicode="&#x4B;" horiz-adv-x="569" d=" M569,0 L154,0 Q106,0 79.5,24.5 Q53,49 53,93 L53,744 L247,744 L247,154 L569,154"/> 
            <glyph glyph-name="L" unicode="&#x4C;" horiz-adv-x="861" d=" M861,633 L861,0 L690,0 L690,507 L553,61 Q532,-5 454,-5 Q374,-5 353,61 L218,508 L218,0 L53,0 L53,632 Q53,689 91,719.5 Q129,750 195,750 Q318,750 350,641 L458,275 L570,642 Q604,750 724,750 Q783,750 822,721 Q861,692 861,633"/> 
            <glyph glyph-name="M" unicode="&#x4D;" horiz-adv-x="704" d=" M219,484 L219,0 L53,0 L53,633 Q53,690 88.5,720.5 Q124,751 189,751 Q278,751 317,679 L538,260 L538,744 L704,744 L704,110 Q704,54 668.5,24 Q633,-6 569,-6 Q514,-6 481.5,19.5 Q449,45 425,91"/> 
            <glyph glyph-name="N" unicode="&#x4E;" horiz-adv-x="772" d=" M772,370 Q772,190 671,91 Q570,-8 402,-8 Q235,-8 136.5,92 Q38,192 38,370 Q38,548 139,648.5 Q240,749 407,749 Q574,749 673,649 Q772,549 772,370 M578,370 Q578,485 532,548 Q486,611 402,611 Q320,611 276,548.5 Q232,486 232,370 Q232,255 278,192 Q324,129 407,129 Q489,129 533.5,191.5 Q578,254 578,370"/> 
            <glyph glyph-name="O" unicode="&#x4F;" horiz-adv-x="630" d=" M630,501 Q630,388 560,323 Q490,258 371,258 L241,258 L241,0 L53,0 L53,649 Q53,693 79.5,718.5 Q106,744 154,744 L381,744 Q495,744 562.5,678.5 Q630,613 630,501 M456,501 Q456,605 340,605 L241,605 L241,397 L354,397 Q402,397 429,424.5 Q456,452 456,501"/> 
            <glyph glyph-name="P" unicode="&#x50;" horiz-adv-x="769" d=" M769,373 Q769,267 725.5,190.5 Q682,114 611,77 Q669,55 730,55 L762,55 L762,-81 L715,-81 Q666,-81 621.5,-68.5 Q577,-56 549.5,-40.5 Q522,-25 484,-12.5 Q446,0 408,0 Q241,0 139.5,95 Q38,190 38,370 Q38,548 138.5,648.5 Q239,749 406,749 Q574,749 671.5,650.5 Q769,552 769,373 M578,370 Q578,485 532,548 Q486,611 402,611 Q320,611 276,548.5 Q232,486 232,370 Q232,255 277.5,193.5 Q323,132 407,132 Q489,132 533.5,193 Q578,254 578,370"/> 
            <glyph glyph-name="Q" unicode="&#x51;" horiz-adv-x="688" d=" M688,0 L487,0 L380,264 L245,264 L245,0 L53,0 L53,650 Q53,691 80.5,717.5 Q108,744 153,744 L415,744 Q528,744 591.5,686.5 Q655,629 655,524 Q655,443 590,364 L551,317 M471,518 Q471,608 382,608 L245,608 L245,400 L411,400 L438,435 Q471,479 471,518"/> 
            <glyph glyph-name="R" unicode="&#x52;" horiz-adv-x="620" d=" M297,456 L421,430 Q521,409 570,360.5 Q619,312 619,223 Q619,110 543.5,50.5 Q468,-9 348,-9 Q225,-9 107,28 L40,51 L69,208 L136,184 Q258,141 346,141 Q387,141 412.5,159.5 Q438,178 438,214 Q438,269 365,285 L240,311 Q141,332 91.5,382 Q42,432 42,520 Q42,633 116.5,691 Q191,749 313,749 Q432,749 553,711 L620,690 L589,531 L522,556 Q402,599 315,599 Q223,599 223,526 Q223,497 240.5,480.5 Q258,464 297,456"/> 
            <glyph glyph-name="S" unicode="&#x53;" horiz-adv-x="636" d=" M636,599 L430,599 L430,0 L237,0 L237,599 L31,599 L31,744 L636,744"/> 
            <glyph glyph-name="T" unicode="&#x54;" horiz-adv-x="683" d=" M683,275 Q683,139 601,63 Q519,-13 365,-13 Q211,-13 129.5,62.5 Q48,138 48,275 L48,744 L241,744 L241,272 Q241,145 365,145 Q490,145 490,272 L490,744 L683,744"/> 
            <glyph glyph-name="U" unicode="&#x55;" horiz-adv-x="705" d=" M705,744 L480,75 Q453,-6 351,-6 Q250,-6 224,75 L8,744 L203,744 L356,204 L513,744"/> 
            <glyph glyph-name="V" unicode="&#x56;" horiz-adv-x="967" d=" M967,744 L842,80 Q825,-9 719,-9 Q612,-9 591,74 L490,465 L384,74 Q364,-8 257,-8 Q152,-8 135,81 L11,744 L196,744 L271,207 L394,679 Q409,744 493,744 Q574,744 591,679 L710,206 L787,744"/> 
            <glyph glyph-name="W" unicode="&#x57;" horiz-adv-x="723" d=" M723,0 L513,0 L373,251 L228,0 L21,0 L255,374 L27,744 L237,744 L374,504 L507,744 L715,744 L493,379"/> 
            <glyph glyph-name="X" unicode="&#x58;" horiz-adv-x="726" d=" M726,744 L464,304 L464,0 L271,0 L271,302 L6,744 L215,744 L370,466 L519,744"/> 
            <glyph glyph-name="Y" unicode="&#x59;" horiz-adv-x="634" d=" M604,576 L274,140 L630,140 L630,0 L122,0 Q79,0 57,24 Q35,48 35,88 Q35,127 64,166 L398,602 L55,602 L55,744 L546,744 Q590,744 612,720 Q634,696 634,654 Q634,614 604,576"/> 
            <glyph glyph-name="Z" unicode="&#x5A;" horiz-adv-x="328" d=" M328,-65 L70,-65 L70,744 L328,744 L328,627 L216,627 L216,50 L328,50"/> 
            <glyph glyph-name="[" unicode="&#x5B;" horiz-adv-x="428" d=" M286,0 L7,744 L143,744 L428,0"/> 
            <glyph glyph-name="\" unicode="&#x5C;" horiz-adv-x="292" d=" M292,-65 L33,-65 L33,50 L146,50 L146,627 L33,627 L33,744 L292,744"/> 
            <glyph glyph-name="]" unicode="&#x5D;" horiz-adv-x="551" d=" M551,43 L394,43 L293,381 L191,43 L37,43 L191,477 Q213,549 293,549 Q370,549 395,478"/> 
            <glyph glyph-name="^" unicode="&#x5E;" horiz-adv-x="502" d=" M502,-179 L-2,-179 L-2,-74 L502,-74"/> 
            <glyph glyph-name="_" unicode="&#x5F;" horiz-adv-x="415" d=" M295,625 L120,763 L321,763 L393,697 Q415,676 415,649 Q415,630 401,615 Q387,600 360,600 Q327,600 295,625"/> 
            <glyph glyph-name="`" unicode="&#x60;" horiz-adv-x="589" d=" M589,87 L531,-13 L481,13 Q448,30 395,19 L372,14 Q284,-6 233,-6 Q141,-6 88.5,37 Q36,80 36,156 Q36,207 56,242.5 Q76,278 113,296.5 Q150,315 193.5,322.5 Q237,330 293,330 L379,330 L379,359 Q379,430 293,430 Q219,430 132,402 L74,383 L55,505 L108,521 Q223,556 310,556 Q530,556 530,366 L530,123 M381,126 L381,226 L279,226 Q191,226 191,162 Q191,104 264,104 Q294,104 344,117"/> 
            <glyph glyph-name="a" unicode="&#x61;" horiz-adv-x="564" d=" M295,427 Q263,427 209,411 L209,129 Q263,118 290,118 Q408,118 408,273 Q408,350 381,388.5 Q354,427 295,427 M323,553 Q564,553 564,276 Q564,146 492.5,70.5 Q421,-5 296,-5 Q203,-5 122,20 Q84,31 67.5,52 Q51,73 51,110 L51,747 Q157,765 209,775 L209,534 Q266,553 323,553"/> 
            <glyph glyph-name="b" unicode="&#x62;" horiz-adv-x="504" d=" M199,275 Q199,124 318,124 Q364,124 441,149 L485,162 L504,34 L458,20 Q371,-7 300,-7 Q179,-7 108,65 Q37,137 37,275 Q37,411 108.5,484 Q180,557 300,557 Q371,557 458,530 L504,516 L485,388 L441,401 Q362,425 318,425 Q199,425 199,275"/> 
            <glyph glyph-name="c" unicode="&#x63;" horiz-adv-x="549" d=" M305,427 Q246,427 219.5,388.5 Q193,350 193,273 Q193,118 311,118 Q337,118 391,129 L391,411 Q337,425 305,427 M391,747 Q515,768 549,775 L549,110 Q549,73 532.5,52 Q516,31 479,20 Q394,-5 303,-5 Q177,-5 106.5,67.5 Q36,140 36,272 Q36,407 99,480 Q162,553 283,553 Q324,553 391,534"/> 
            <glyph glyph-name="d" unicode="&#x64;" horiz-adv-x="554" d=" M37,274 Q37,414 111.5,486 Q186,558 300,558 Q420,558 487,490.5 Q554,423 554,288 Q554,226 490,226 L191,226 Q203,119 326,119 Q396,119 475,143 L528,160 L547,43 L494,26 Q390,-6 314,-6 Q185,-6 111,65.5 Q37,137 37,274 M400,329 Q400,380 374,412.5 Q348,445 295,445 Q249,445 221.5,414 Q194,383 190,329"/> 
            <glyph glyph-name="e" unicode="&#x65;" horiz-adv-x="429" d=" M429,741 L410,625 Q350,641 317,641 Q278,641 262.5,625.5 Q247,610 247,570 L247,547 L402,547 L402,429 L247,429 L247,0 L92,0 L92,429 L16,429 L16,547 L92,547 L92,583 Q92,674 143,719.5 Q194,765 288,765 Q346,765 429,741"/> 
            <glyph glyph-name="f" unicode="&#x66;" horiz-adv-x="596" d=" M388,371 Q388,443 286,443 Q185,443 185,371 Q185,297 286,297 Q388,297 388,371 M445,-10 Q445,33 381,33 L198,33 Q181,14 181,-17 Q181,-77 304,-77 Q445,-77 445,-10 M40,-20 Q40,36 78,84 L122,140 Q140,164 140,186 Q140,215 110,237 Q37,293 37,371 Q37,460 102,503.5 Q167,547 282,547 L336,547 Q395,547 435,559 L568,598 L596,484 L503,458 Q537,430 537,371 Q537,287 473.5,245 Q410,203 296,203 L254,206 Q261,199 261,178 Q261,156 247,138 L393,138 Q489,138 536.5,101 Q584,64 584,-4 Q584,-88 512.5,-133 Q441,-178 300,-178 Q181,-178 110.5,-139.5 Q40,-101 40,-20"/> 
            <glyph glyph-name="g" unicode="&#x67;" horiz-adv-x="533" d=" M299,419 Q268,419 212,404 L212,0 L51,0 L51,747 Q74,751 128.5,760.5 Q183,770 212,775 L212,533 Q274,553 328,553 Q533,553 533,357 L533,0 L375,0 L375,344 Q375,419 299,419"/> 
            <glyph glyph-name="h" unicode="&#x68;" horiz-adv-x="221" d=" M210,0 L54,0 L54,550 L210,550 M221,690 Q221,652 197.5,630.5 Q174,609 132,609 Q90,609 66.5,630.5 Q43,652 43,690 Q43,727 66.5,748.5 Q90,770 132,770 Q174,770 197.5,748.5 Q221,727 221,690"/> 
            <glyph glyph-name="i" unicode="&#x69;" horiz-adv-x="227" d=" M216,550 L216,4 Q216,-181 -10,-181 L-10,-66 Q28,-65 43.5,-47.5 Q59,-30 59,7 L59,550 M227,690 Q227,652 203.5,630.5 Q180,609 138,609 Q96,609 72.5,630.5 Q49,652 49,690 Q49,727 72.5,748.5 Q96,770 138,770 Q180,770 203.5,748.5 Q227,727 227,690"/> 
            <glyph glyph-name="j" unicode="&#x6A;" horiz-adv-x="575" d=" M575,0 L394,0 L292,233 L255,190 Q237,170 229.5,159 Q222,148 215,127.5 Q208,107 208,80 L208,0 L51,0 L51,747 L208,775 L208,337 L382,550 L571,550 L416,365"/> 
            <glyph glyph-name="k" unicode="&#x6B;" horiz-adv-x="214" d=" M214,0 L51,0 L51,746 Q80,751 135,761 Q190,771 214,775"/> 
            </font>
</defs>
</svg>
