<?xml version="1.0" standalone="no"?>
<!DOCTYPE svg PUBLIC "-//W3C//DTD SVG 1.1//EN" "http://www.w3.org/Graphics/SVG/1.1/DTD/svg11.dtd" >
<svg xmlns="http://www.w3.org/2000/svg">
    <defs>
        <font id="NewJuneUltrabold-Italic">
            <font-face font-family="NewJuneUltrabold-Italic"
                       units-per-em="1000"
                       ascent="960"
                       descent="-240"
                       bbox="-73 -200 1219 964"
                    />
            <missing-glyph horiz-adv-x="0" />
            
            <glyph glyph-name="!" unicode="&#x21;" horiz-adv-x="290" d=" M106,744 L290,744 L217,231 L34,231 M209,96 Q209,48 176,19 Q143,-10 93,-10 Q49,-10 26,10 Q3,30 3,66 Q3,114 35,142.5 Q67,171 119,171 Q209,171 209,96"/> 
            <glyph glyph-name="&quot;" unicode="&#x22;" horiz-adv-x="480" d=" M269,763 L253,495 L105,495 L88,763 M480,763 L464,495 L316,495 L299,763"/> 
            <glyph glyph-name="#" unicode="&#x23;" horiz-adv-x="676" d=" M676,554 L654,411 L557,411 L541,324 L638,324 L617,180 L514,180 L481,0 L323,0 L357,180 L268,180 L233,0 L74,0 L109,180 L19,180 L40,324 L136,324 L153,411 L56,411 L77,554 L180,554 L216,744 L374,744 L338,554 L424,554 L460,744 L618,744 L582,554 M399,411 L311,411 L294,324 L383,324"/> 
            <glyph glyph-name="$" unicode="&#x24;" horiz-adv-x="590" d=" M149,-129 L167,-1 Q114,1 56,21 L-1,41 L53,222 L111,201 Q192,172 264,172 Q293,172 310.5,186.5 Q328,201 328,227 Q328,262 291,275 L210,304 Q58,358 58,500 Q58,604 118,665.5 Q178,727 272,745 L290,867 L436,867 L418,745 Q466,742 530,724 L590,706 L537,520 L479,541 Q398,570 321,571 Q294,571 277.5,558 Q261,545 261,520 Q261,484 301,469 L379,439 Q458,409 494,363.5 Q530,318 530,245 Q530,41 313,-1 L295,-129"/> 
            <glyph glyph-name="%" unicode="&#x25;" horiz-adv-x="832" d=" M441,602 Q441,511 382.5,443 Q324,375 228,375 Q151,375 109.5,417.5 Q68,460 68,539 Q68,642 127.5,702.5 Q187,763 280,763 Q356,763 398.5,720.5 Q441,678 441,602 M244,495 Q263,495 276,525 Q289,555 289,600 Q289,644 264,644 Q246,644 233.5,614 Q221,584 221,538 Q221,495 244,495 M825,744 L247,0 L69,0 L648,744 M832,210 Q832,119 773.5,51 Q715,-17 619,-17 Q542,-17 500.5,25.5 Q459,68 459,147 Q459,250 518.5,310.5 Q578,371 671,371 Q748,371 790,328.5 Q832,286 832,210 M635,103 Q654,103 667,133 Q680,163 680,208 Q680,252 655,252 Q637,252 624.5,222 Q612,192 612,146 Q612,103 635,103"/> 
            <glyph glyph-name="&amp;" unicode="&#x26;" horiz-adv-x="706" d=" M545,461 L706,461 L698,401 Q677,245 571,134 L661,0 L445,0 L421,34 Q415,29 402,21.5 Q389,14 342.5,2 Q296,-10 242,-10 Q135,-10 81,45.5 Q27,101 27,188 Q27,330 169,403 Q134,464 134,531 Q134,640 201,699.5 Q268,759 371,759 Q461,759 513.5,714 Q566,669 566,589 Q566,543 550,505 Q534,467 505,440 Q476,413 454,398 Q432,383 402,367 L481,258 Q499,277 515.5,320 Q532,363 538,407 M324,471 Q398,506 398,578 Q398,598 388,610 Q378,622 361,622 Q334,622 318,599 Q302,576 302,538 Q302,503 324,471 M342,147 L247,277 Q243,275 237.5,270 Q232,265 222.5,244.5 Q213,224 213,199 Q213,169 231,151 Q249,133 279,133 Q295,133 311,136.5 Q327,140 334,144"/> 
            <glyph glyph-name="'" unicode="&#x27;" horiz-adv-x="289" d=" M289,763 L273,495 L105,495 L88,763"/> 
            <glyph glyph-name="(" unicode="&#x28;" horiz-adv-x="410" d=" M40,228 Q40,303 50.5,372.5 Q61,442 88,511 Q115,580 155.5,630.5 Q196,681 261.5,712.5 Q327,744 410,744 L391,611 Q316,610 271.5,504.5 Q227,399 227,224 Q227,66 314,63 L295,-74 Q258,-74 225.5,-67.5 Q193,-61 158,-40.5 Q123,-20 98,12 Q73,44 56.5,99.5 Q40,155 40,228"/> 
            <glyph glyph-name=")" unicode="&#x29;" horiz-adv-x="361" d=" M361,442 Q361,367 350.5,297.5 Q340,228 313,159 Q286,90 245.5,39.5 Q205,-11 139.5,-42.5 Q74,-74 -9,-74 L10,59 Q85,60 129.5,165.5 Q174,271 174,446 Q174,604 87,607 L106,744 Q143,744 175.5,737.5 Q208,731 243,710.5 Q278,690 303,658 Q328,626 344.5,570.5 Q361,515 361,442"/> 
            <glyph glyph-name="*" unicode="&#x2A;" horiz-adv-x="564" d=" M564,527 L427,495 L517,391 L368,293 L311,402 L252,294 L105,392 L194,496 L57,528 L108,690 L227,640 L217,763 L404,763 L394,639 L513,688"/> 
            <glyph glyph-name="+" unicode="&#x2B;" horiz-adv-x="517" d=" M517,220 L354,220 L354,35 L196,35 L196,220 L38,220 L38,366 L196,366 L196,552 L354,552 L354,366 L517,366"/> 
            <glyph glyph-name="," unicode="&#x2C;" horiz-adv-x="230" d=" M230,175 L146,-32 Q123,-92 50,-92 Q4,-92 -12.5,-65.5 Q-29,-39 -17,0 L41,175"/> 
            <glyph glyph-name="-" unicode="&#x2D;" horiz-adv-x="405" d=" M385,254 L28,254 L48,396 L405,396"/> 
            <glyph glyph-name="." unicode="&#x2E;" horiz-adv-x="210" d=" M210,102 Q210,51 177.5,20.5 Q145,-10 95,-10 Q51,-10 27.5,11.5 Q4,33 4,70 Q4,121 35.5,151 Q67,181 119,181 Q164,181 187,160 Q210,139 210,102"/> 
            <glyph glyph-name="/" unicode="&#x2F;" horiz-adv-x="481" d=" M481,744 L133,0 L-29,0 L325,744"/> 
            <glyph glyph-name="0" unicode="&#x30;" horiz-adv-x="571" d=" M321,229 L361,516 Q372,593 322,593 Q273,593 262,516 L222,229 Q211,153 262,153 Q310,153 321,229 M554,505 L516,234 Q499,115 430,53 Q361,-9 243,-9 Q123,-9 67.5,56 Q12,121 29,240 L67,511 Q83,630 154,692 Q225,754 342,754 Q462,754 516.5,689.5 Q571,625 554,505"/> 
            <glyph glyph-name="1" unicode="&#x31;" horiz-adv-x="517" d=" M448,639 L380,154 L517,154 L496,0 L-10,0 L11,154 L179,154 L239,581 L229,581 Q208,581 173.5,572.5 Q139,564 117,549 L112,704 Q189,744 289,744 L355,744 Q406,744 430.5,716 Q455,688 448,639"/> 
            <glyph glyph-name="2" unicode="&#x32;" horiz-adv-x="553" d=" M39,171 L246,353 Q303,403 327,438 Q351,473 350,523 Q350,588 278,588 Q229,588 147,560 L98,543 L74,697 L128,716 Q234,753 329,753 Q438,753 495.5,702.5 Q553,652 553,554 Q553,474 517.5,410 Q482,346 391,264 L266,151 L499,151 L478,0 L70,0 Q-3,0 -3,74 Q-3,135 39,171"/> 
            <glyph glyph-name="3" unicode="&#x33;" horiz-adv-x="560" d=" M284,587 Q235,587 153,559 L104,542 L80,696 L134,715 Q240,752 336,752 Q444,752 502,706 Q560,660 560,570 Q560,475 486,393 L464,369 L479,351 Q523,299 523,229 Q523,114 443,53.5 Q363,-7 229,-7 Q121,-7 36,27 L-14,47 L34,203 L86,184 Q169,153 230,153 Q278,153 302.5,174.5 Q327,196 327,235 Q327,259 315,280 L304,299 L162,299 L182,444 L314,444 L332,461 Q358,486 358,531 Q358,587 284,587"/> 
            <glyph glyph-name="4" unicode="&#x34;" horiz-adv-x="556" d=" M275,112 L71,112 Q35,112 16.5,130.5 Q-2,149 -2,181 Q-2,227 34,284 L299,674 Q349,750 437,750 Q556,750 540,637 L486,263 L543,263 L522,112 L465,112 L450,0 L260,0 M321,430 L212,263 L296,263"/> 
            <glyph glyph-name="5" unicode="&#x35;" horiz-adv-x="576" d=" M240,-7 Q132,-7 47,27 L-3,47 L45,203 L97,184 Q180,153 241,153 Q336,153 336,272 Q336,342 263,342 Q200,342 119,319 L66,304 L128,744 L576,744 L553,579 L264,579 L251,481 Q289,494 338,494 Q535,494 535,302 Q535,149 457,71 Q379,-7 240,-7"/> 
            <glyph glyph-name="6" unicode="&#x36;" horiz-adv-x="572" d=" M233,331 L222,251 Q209,155 264,155 Q294,155 314.5,186.5 Q335,218 335,278 Q335,340 283,340 Q272,340 259.5,338 Q247,336 240,334 M536,303 Q536,171 459,83 Q382,-5 242,-5 Q122,-5 66,66.5 Q10,138 27,257 L64,519 Q80,632 158,691 Q236,750 353,750 Q434,750 523,717 L572,699 L529,540 L484,557 Q412,585 351,585 Q308,585 285.5,569 Q263,553 259,517 L255,484 Q293,497 341,497 Q437,497 486.5,447 Q536,397 536,303"/> 
            <glyph glyph-name="7" unicode="&#x37;" horiz-adv-x="588" d=" M361,579 L76,579 L99,744 L507,744 Q588,744 588,667 Q588,621 552,551 L270,0 L55,0"/> 
            <glyph glyph-name="8" unicode="&#x38;" horiz-adv-x="559" d=" M244,-7 Q135,-7 73,41 Q11,89 11,182 Q11,236 31,277.5 Q51,319 95,366 L113,385 L101,408 Q73,462 73,516 Q73,629 147,691.5 Q221,754 340,754 Q442,754 500.5,707.5 Q559,661 559,573 Q559,474 492,397 L471,372 L486,354 Q525,306 527,236 Q527,120 449,56.5 Q371,-7 244,-7 M261,143 Q295,143 315.5,168 Q336,193 336,232 Q336,260 323,280 L311,299 L252,299 L236,279 Q204,242 205,201 Q205,175 219.5,159 Q234,143 261,143 M322,598 Q292,598 273,574.5 Q254,551 254,515 Q254,493 267,465 L276,446 L328,446 L344,465 Q376,503 376,540 Q376,598 322,598"/> 
            <glyph glyph-name="9" unicode="&#x39;" horiz-adv-x="573" d=" M350,414 L361,494 Q376,590 319,590 Q289,590 268.5,558.5 Q248,527 248,467 Q248,405 300,405 Q311,405 323.5,407.5 Q336,410 343,412 M47,443 Q47,574 124.5,662 Q202,750 341,750 Q460,750 516.5,678.5 Q573,607 556,488 L519,226 Q503,113 425.5,54 Q348,-5 230,-5 Q149,-5 60,28 L11,46 L54,205 L99,188 Q171,160 232,160 Q275,160 297.5,176 Q320,192 324,228 L328,261 Q290,248 242,248 Q146,248 96.5,297.5 Q47,347 47,443"/> 
            <glyph glyph-name=":" unicode="&#x3A;" horiz-adv-x="263" d=" M210,102 Q210,51 177.5,20.5 Q145,-10 95,-10 Q51,-10 27.5,11.5 Q4,33 4,70 Q4,121 35.5,151 Q67,181 119,181 Q164,181 187,160 Q210,139 210,102 M263,475 Q263,424 230.5,393.5 Q198,363 148,363 Q104,363 80.5,384.5 Q57,406 57,443 Q57,494 88.5,524 Q120,554 172,554 Q217,554 240,533 Q263,512 263,475"/> 
            <glyph glyph-name=";" unicode="&#x3B;" horiz-adv-x="263" d=" M230,175 L146,-32 Q121,-92 50,-92 Q4,-92 -13,-65 Q-30,-38 -17,0 L41,175 M263,475 Q263,424 230.5,393.5 Q198,363 148,363 Q104,363 80.5,384.5 Q57,406 57,443 Q57,494 88.5,524 Q120,554 172,554 Q217,554 240,533 Q263,512 263,475"/> 
            <glyph glyph-name="&lt;" unicode="&#x3C;" horiz-adv-x="517" d=" M517,29 L124,166 Q38,195 38,296 Q38,398 121,426 L517,567 L517,371 L229,296 L517,220"/> 
            <glyph glyph-name="=" unicode="&#x3D;" horiz-adv-x="517" d=" M517,134 L38,134 L38,273 L517,273 M517,324 L38,324 L38,463 L517,463"/> 
            <glyph glyph-name="&gt;" unicode="&#x3E;" horiz-adv-x="517" d=" M431,166 L38,29 L38,220 L325,296 L38,371 L38,567 L433,426 Q517,398 517,296 Q517,195 431,166"/> 
            <glyph glyph-name="?" unicode="&#x3F;" horiz-adv-x="471" d=" M108,231 L117,293 Q126,360 171,401 L239,465 Q262,487 273,504.5 Q284,522 284,547 Q284,591 238,591 Q200,591 148,575 L92,558 L70,708 L121,722 Q215,747 272,747 Q471,747 471,586 Q471,521 443.5,473 Q416,425 365,381 L302,327 L288,231 M279,96 Q279,48 246,19 Q213,-10 163,-10 Q119,-10 96,10 Q73,30 73,66 Q73,114 105,142.5 Q137,171 189,171 Q279,171 279,96"/> 
            <glyph glyph-name="@" unicode="&#x40;" horiz-adv-x="855" d=" M659,572 L616,264 Q628,258 640,258 Q680,258 707,298.5 Q734,339 734,410 Q734,519 672.5,579.5 Q611,640 488,640 Q364,640 284.5,556 Q205,472 205,348 Q205,236 266.5,167 Q328,98 438,98 Q474,98 545,116 Q616,134 653,134 Q690,134 725,116 L792,77 L747,-14 L679,17 Q665,23 646,23 Q625,23 560.5,6 Q496,-11 434,-11 Q269,-11 174.5,90 Q80,191 80,348 Q80,520 197.5,636.5 Q315,753 488,753 Q654,753 754.5,659.5 Q855,566 855,409 Q855,298 790.5,231 Q726,164 636,164 Q613,164 586,170.5 Q559,177 545,177 Q529,177 492.5,169.5 Q456,162 427,162 Q339,162 295.5,207.5 Q252,253 252,336 Q252,425 311.5,489.5 Q371,554 472,554 L522,551 L525,572 M441,267 Q450,267 460.5,268.5 Q471,270 477,272 L483,274 L508,448 Q491,451 471,451 Q434,451 414,417.5 Q394,384 394,334 Q394,267 441,267"/> 
            <glyph glyph-name="A" unicode="&#x41;" horiz-adv-x="657" d=" M657,0 L430,0 L421,106 L246,106 L207,0 L-29,0 L252,646 Q298,753 426,753 Q552,753 567,647 M390,505 L306,274 L409,274"/> 
            <glyph glyph-name="B" unicode="&#x42;" horiz-adv-x="661" d=" M360,0 L109,0 Q63,0 38.5,22.5 Q14,45 14,86 Q14,98 15,104 L90,640 Q97,689 130,716.5 Q163,744 213,744 L462,744 Q560,744 610.5,702 Q661,660 661,580 Q661,479 587,400 L568,380 L583,360 Q633,302 633,227 Q633,119 560.5,59.5 Q488,0 360,0 M396,453 L419,480 Q440,504 440,537 Q440,557 428.5,569.5 Q417,582 394,582 L311,582 L293,453 M380,294 L271,294 L252,163 L345,163 Q374,163 392,181 Q410,199 410,228 Q410,251 398,268"/> 
            <glyph glyph-name="C" unicode="&#x43;" horiz-adv-x="682" d=" M592,240 L611,52 L550,31 Q437,-8 332,-8 Q194,-8 116,71 Q38,150 38,299 Q38,409 70,496.5 Q102,584 157,639 Q212,694 283.5,722.5 Q355,751 437,751 Q537,751 627,717 L682,696 L631,510 L574,530 Q506,553 442,553 Q370,553 325.5,493.5 Q281,434 281,320 Q281,193 392,193 Q461,193 532,218"/> 
            <glyph glyph-name="D" unicode="&#x44;" horiz-adv-x="690" d=" M289,0 L109,0 Q62,0 35,27 Q8,54 15,104 L90,640 Q97,689 130,716.5 Q163,744 213,744 L394,744 Q534,744 612,663 Q690,582 690,437 Q690,232 576,116 Q462,0 289,0 M311,179 Q352,179 382.5,203.5 Q413,228 429,267 Q445,306 452.5,346.5 Q460,387 460,427 Q460,495 434,531 Q408,567 359,567 L313,567 L259,179"/> 
            <glyph glyph-name="E" unicode="&#x45;" horiz-adv-x="634" d=" M532,0 L109,0 Q58,0 33.5,27.5 Q9,55 16,104 L91,640 Q98,689 130,716.5 Q162,744 213,744 L634,744 L610,573 L314,573 L298,460 L556,460 L533,296 L275,296 L258,171 L556,171"/> 
            <glyph glyph-name="F" unicode="&#x46;" horiz-adv-x="626" d=" M235,0 L2,0 L91,640 Q98,689 130,716.5 Q162,744 213,744 L626,744 L602,570 L315,570 L297,445 L558,445 L535,280 L274,280"/> 
            <glyph glyph-name="G" unicode="&#x47;" horiz-adv-x="712" d=" M672,318 L648,144 Q641,95 617,68 Q593,41 544,26 Q439,-6 343,-6 Q197,-6 117.5,73.5 Q38,153 38,301 Q38,419 83,519 Q128,619 222.5,684 Q317,749 446,749 Q552,749 655,714 L712,695 L658,505 L598,526 Q522,553 446,553 Q398,553 362,531 Q326,509 306,472 Q286,435 276,393 Q266,351 266,304 Q268,164 391,164 L438,167 L452,264 L342,264 L364,423 L579,423 Q630,423 654.5,395 Q679,367 672,318"/> 
            <glyph glyph-name="H" unicode="&#x48;" horiz-adv-x="713" d=" M609,0 L375,0 L415,291 L275,291 L235,0 L1,0 L105,744 L339,744 L300,463 L440,463 L479,744 L713,744"/> 
            <glyph glyph-name="I" unicode="&#x49;" horiz-adv-x="343" d=" M239,0 L3,0 L107,744 L343,744"/> 
            <glyph glyph-name="J" unicode="&#x4A;" horiz-adv-x="519" d=" M519,744 L449,244 Q432,126 357,63 Q282,0 164,0 Q84,0 -10,34 L39,208 Q98,186 137,186 Q175,186 193.5,204 Q212,222 218,265 L285,744"/> 
            <glyph glyph-name="K" unicode="&#x4B;" horiz-adv-x="744" d=" M395,0 L333,283 L301,248 Q258,202 249,135 L231,0 L1,0 L105,744 L335,744 L301,499 L493,744 L744,744 L519,475 L634,0"/> 
            <glyph glyph-name="L" unicode="&#x4C;" horiz-adv-x="539" d=" M106,744 L341,744 L263,191 L539,191 L513,0 L109,0 Q58,0 33.5,27.5 Q9,55 16,104"/> 
            <glyph glyph-name="M" unicode="&#x4D;" horiz-adv-x="896" d=" M656,439 L521,76 Q490,-6 395,-6 Q350,-6 323.5,15.5 Q297,37 294,76 L264,439 L203,0 L1,0 L85,604 Q95,674 146.5,712.5 Q198,751 278,751 Q425,751 435,620 L454,374 L543,620 Q591,751 745,751 Q821,751 858.5,714 Q896,677 886,609 L801,0 L595,0"/> 
            <glyph glyph-name="N" unicode="&#x4E;" horiz-adv-x="747" d=" M423,614 L491,337 L548,744 L747,744 L662,139 Q652,68 605.5,30.5 Q559,-7 481,-7 Q406,-7 373.5,27 Q341,61 325,130 L258,407 L201,0 L1,0 L85,604 Q95,675 141.5,713 Q188,751 267,751 Q342,751 374,717.5 Q406,684 423,614"/> 
            <glyph glyph-name="O" unicode="&#x4F;" horiz-adv-x="756" d=" M756,440 Q756,352 728.5,271.5 Q701,191 650.5,128.5 Q600,66 520.5,29 Q441,-8 344,-8 Q201,-8 119.5,72.5 Q38,153 38,301 Q38,511 155,630 Q272,749 449,749 Q593,749 674.5,669 Q756,589 756,440 M368,160 Q410,160 442,189 Q474,218 489.5,263.5 Q505,309 512.5,353 Q520,397 520,438 Q520,581 424,581 Q359,581 316,505 Q273,429 273,300 Q273,160 368,160"/> 
            <glyph glyph-name="P" unicode="&#x50;" horiz-adv-x="645" d=" M2,0 L91,640 Q98,689 130,716.5 Q162,744 213,744 L430,744 Q531,744 588,688 Q645,632 645,534 Q645,399 563.5,321.5 Q482,244 352,244 L265,244 L231,0 M352,413 Q388,413 410.5,442 Q433,471 433,511 Q433,541 417.5,558 Q402,575 376,575 L311,575 L289,413"/> 
            <glyph glyph-name="Q" unicode="&#x51;" horiz-adv-x="753" d=" M753,449 Q753,341 708.5,246 Q664,151 573,93 Q621,75 672,75 L701,75 L678,-91 L629,-91 Q581,-91 541,-77 Q501,-63 477,-45.5 Q453,-28 419,-14 Q385,0 349,0 Q207,0 122.5,74.5 Q38,149 38,301 Q38,510 154,629.5 Q270,749 448,749 Q591,749 672,671.5 Q753,594 753,449 M368,160 Q410,160 442,189.5 Q474,219 489.5,264.5 Q505,310 512.5,354 Q520,398 520,439 Q520,582 424,582 Q359,582 316,505 Q273,428 273,299 Q273,160 368,160"/> 
            <glyph glyph-name="R" unicode="&#x52;" horiz-adv-x="676" d=" M1,0 L90,640 Q97,689 129.5,716.5 Q162,744 213,744 L467,744 Q565,744 620.5,691 Q676,638 676,549 Q676,431 584,337 L547,299 L630,0 L387,0 L329,248 L268,248 L234,0 M420,443 Q453,484 453,521 Q453,578 398,578 L314,578 L291,413 L394,413"/> 
            <glyph glyph-name="S" unicode="&#x53;" horiz-adv-x="651" d=" M325,468 L428,437 Q511,412 552.5,365.5 Q594,319 594,242 Q594,116 507.5,53.5 Q421,-9 287,-9 Q165,-9 68,26 L4,49 L58,242 L124,215 Q218,176 309,176 Q338,176 356.5,188.5 Q375,201 375,227 Q375,260 331,273 L227,304 Q62,353 62,498 Q62,627 147,688.5 Q232,750 368,750 Q479,750 586,714 L651,692 L595,498 L529,525 Q433,564 348,565 Q281,565 281,514 Q281,481 325,468"/> 
            <glyph glyph-name="T" unicode="&#x54;" horiz-adv-x="683" d=" M658,566 L482,566 L403,0 L170,0 L249,566 L71,566 L96,744 L683,744"/> 
            <glyph glyph-name="U" unicode="&#x55;" horiz-adv-x="722" d=" M722,744 L657,277 Q637,138 547,63 Q457,-12 306,-12 Q156,-12 86,66.5 Q16,145 36,285 L101,744 L335,744 L270,281 Q257,185 335,185 Q408,185 422,281 L487,744"/> 
            <glyph glyph-name="V" unicode="&#x56;" horiz-adv-x="749" d=" M74,744 L306,744 L341,263 L516,744 L749,744 L469,95 Q425,-7 300,-7 Q176,-7 163,95"/> 
            <glyph glyph-name="W" unicode="&#x57;" horiz-adv-x="1005" d=" M278,265 L418,669 Q431,705 464,724.5 Q497,744 542,744 Q586,744 614,724.5 Q642,705 644,669 L670,266 L785,744 L1005,744 L804,101 Q787,47 746,18.5 Q705,-10 644,-10 Q514,-10 507,93 L488,367 L390,93 Q353,-10 224,-10 Q98,-10 95,101 L73,744 L294,744"/> 
            <glyph glyph-name="X" unicode="&#x58;" horiz-adv-x="761" d=" M668,0 L422,0 L348,209 L226,0 L-22,0 L239,382 L87,744 L331,744 L401,550 L510,744 L761,744 L512,372"/> 
            <glyph glyph-name="Y" unicode="&#x59;" horiz-adv-x="783" d=" M250,295 L76,744 L322,744 L395,503 L532,744 L783,744 L483,296 L442,0 L209,0"/> 
            <glyph glyph-name="Z" unicode="&#x5A;" horiz-adv-x="668" d=" M367,571 L92,571 L116,744 L583,744 Q668,744 668,663 Q668,600 619,543 L306,173 L594,173 L570,0 L87,0 Q1,0 1,84 Q1,143 51,201"/> 
            <glyph glyph-name="[" unicode="&#x5B;" horiz-adv-x="410" d=" M20,-65 L134,744 L410,744 L391,608 L285,608 L209,71 L315,71 L296,-65"/> 
            <glyph glyph-name="\" unicode="&#x5C;" horiz-adv-x="377" d=" M215,0 L75,744 L231,744 L377,0"/> 
            <glyph glyph-name="]" unicode="&#x5D;" horiz-adv-x="382" d=" M382,744 L268,-65 L-7,-65 L11,71 L117,71 L193,608 L87,608 L106,744"/> 
            <glyph glyph-name="^" unicode="&#x5E;" horiz-adv-x="530" d=" M24,43 L153,461 Q180,553 275,553 Q371,553 398,464 L530,43 L346,43 L275,349 L204,43"/> 
            <glyph glyph-name="_" unicode="&#x5F;" horiz-adv-x="502" d=" M502,-186 L-2,-186 L-2,-62 L502,-62"/> 
            <glyph glyph-name="`" unicode="&#x60;" horiz-adv-x="425" d=" M289,620 L115,763 L339,763 L399,703 Q425,677 425,643 Q425,620 410,604.5 Q395,589 366,589 Q327,589 289,620"/> 
            <glyph glyph-name="a" unicode="&#x61;" horiz-adv-x="568" d=" M223,-3 Q129,-4 77,56.5 Q25,117 25,216 Q25,367 99.5,452.5 Q174,538 297,538 Q314,538 333.5,535 Q353,532 364,528 L375,525 L380,560 L568,560 L507,138 L551,105 L469,-16 L426,10 Q395,28 349,18 L327,13 Q261,-3 223,-3 M307,393 Q278,393 258,376.5 Q238,360 228.5,333 Q219,306 215,280 Q211,254 211,226 Q211,141 275,141 Q294,141 319,146 L354,383 Q328,393 307,393"/> 
            <glyph glyph-name="b" unicode="&#x62;" horiz-adv-x="545" d=" M252,141 Q282,141 304,159.5 Q326,178 337,208 Q348,238 352.5,267.5 Q357,297 357,328 Q357,407 297,407 Q275,407 245,397 L210,146 Q234,141 252,141 M353,557 Q545,557 545,347 Q545,183 462.5,88.5 Q380,-6 240,-6 Q146,-6 86,15 Q7,42 18,123 L107,763 L296,763 L266,543 Q314,557 353,557"/> 
            <glyph glyph-name="c" unicode="&#x63;" horiz-adv-x="507" d=" M327,404 Q288,404 262.5,377 Q237,350 227.5,315 Q218,280 218,239 Q218,149 293,149 Q350,149 405,170 L442,185 L458,34 L413,19 Q337,-7 254,-7 Q151,-7 88,54 Q25,115 25,224 Q25,385 109.5,472.5 Q194,560 320,560 Q405,560 467,535 L507,519 L466,367 L427,382 Q368,404 327,404"/> 
            <glyph glyph-name="d" unicode="&#x64;" horiz-adv-x="595" d=" M309,407 Q280,407 259.5,389.5 Q239,372 229,343.5 Q219,315 215,287.5 Q211,260 211,231 Q211,141 277,141 Q296,141 321,146 L356,397 Q330,407 309,407 M595,763 L506,119 Q501,81 481,58 Q461,35 422,21 Q345,-6 252,-6 Q145,-6 85,54.5 Q25,115 25,221 Q25,378 99.5,467.5 Q174,557 299,557 Q316,557 335.5,553.5 Q355,550 366,546 L377,543 L407,763"/> 
            <glyph glyph-name="e" unicode="&#x65;" horiz-adv-x="546" d=" M26,225 Q26,311 58,385.5 Q90,460 159,510.5 Q228,561 321,561 Q436,561 491,493 Q546,425 528,290 Q524,253 505.5,237.5 Q487,222 450,222 L205,222 Q206,141 295,141 Q364,141 433,164 L484,181 L498,44 L446,26 Q355,-6 265,-6 Q151,-6 88,54 Q25,114 26,225 M355,339 Q362,380 348.5,405 Q335,430 300,430 Q270,430 249,406.5 Q228,383 220,339"/> 
            <glyph glyph-name="f" unicode="&#x66;" horiz-adv-x="488" d=" M419,416 L283,416 L226,7 Q200,-184 -39,-184 L-21,-50 Q10,-49 24,-34.5 Q38,-20 42,10 L98,416 L35,416 L54,554 L118,554 L122,584 Q147,768 347,768 Q412,768 488,741 L451,606 Q402,623 369,623 Q337,623 323,611.5 Q309,600 303,566 L301,554 L438,554"/> 
            <glyph glyph-name="g" unicode="&#x67;" horiz-adv-x="602" d=" M278,312 Q311,312 334,330.5 Q357,349 357,381 Q357,429 295,429 Q262,429 240,411.5 Q218,394 218,361 Q218,312 278,312 M355,-10 Q357,8 348,17 Q339,26 317,26 L168,26 Q154,8 154,-16 Q154,-63 246,-63 Q348,-63 355,-10 M-10,-26 Q-10,39 41,95 L87,145 Q113,173 113,198 Q113,220 92,241 Q42,294 42,355 Q42,449 116,499.5 Q190,550 301,550 L349,550 Q389,550 436,563 L575,606 L602,474 L514,454 Q533,428 533,387 Q533,295 460,250.5 Q387,206 279,206 L244,208 Q248,200 248,184 Q248,175 244.5,166 Q241,157 238,152 L234,147 L344,147 Q435,147 477.5,108.5 Q520,70 520,8 Q520,-58 478,-102 Q436,-146 375.5,-163 Q315,-180 238,-180 Q118,-180 54,-140.5 Q-10,-101 -10,-26"/> 
            <glyph glyph-name="h" unicode="&#x68;" horiz-adv-x="540" d=" M193,0 L1,0 L107,763 L300,763 L269,543 Q315,557 359,557 Q466,557 503,505.5 Q540,454 527,361 L477,0 L289,0 L337,343 Q344,396 299,396 Q278,396 247,386"/> 
            <glyph glyph-name="i" unicode="&#x69;" horiz-adv-x="294" d=" M186,0 L2,0 L79,554 L263,554 M294,701 Q294,653 261,624 Q228,595 178,595 Q134,595 111,615 Q88,635 88,671 Q88,719 120,747.5 Q152,776 204,776 Q294,776 294,701"/> 
            <glyph glyph-name="j" unicode="&#x6A;" horiz-adv-x="299" d=" M269,554 L192,7 Q164,-184 -73,-184 L-55,-50 Q-24,-49 -10,-34.5 Q4,-20 8,10 L84,554 M299,701 Q299,653 266,624 Q233,595 183,595 Q139,595 116,615 Q93,635 93,671 Q93,719 125,747.5 Q157,776 209,776 Q299,776 299,701"/> 
            <glyph glyph-name="k" unicode="&#x6B;" horiz-adv-x="595" d=" M321,0 L271,201 L243,167 Q228,148 222,140 Q216,132 208,113 Q200,94 197,71 L188,0 L1,0 L107,763 L295,763 L242,385 L378,554 L595,554 L430,358 L520,0"/> 
            <glyph glyph-name="l" unicode="&#x6C;" horiz-adv-x="303" d=" M303,763 L197,0 L3,0 L109,763"/> 
            <glyph glyph-name="m" unicode="&#x6D;" horiz-adv-x="825" d=" M797,364 L746,0 L560,0 L608,346 Q615,399 573,399 Q558,399 543.5,396.5 Q529,394 522,391 L514,388 Q517,367 515,353 L466,0 L280,0 L328,346 Q335,399 293,399 Q272,399 241,389 L187,0 L0,0 L60,434 Q69,506 151,533 Q242,560 320,560 Q420,560 459,525 Q538,560 616,560 Q825,560 797,364"/> 
            <glyph glyph-name="n" unicode="&#x6E;" horiz-adv-x="541" d=" M528,364 L477,0 L289,0 L337,346 Q344,399 300,399 Q278,399 247,389 L193,0 L1,0 L61,434 Q70,505 153,533 Q244,560 327,560 Q444,560 492.5,508.5 Q541,457 528,364"/> 
            <glyph glyph-name="o" unicode="&#x6F;" horiz-adv-x="562" d=" M562,334 Q562,267 542,206.5 Q522,146 484.5,98 Q447,50 387,22 Q327,-6 253,-6 Q145,-6 85.5,54.5 Q26,115 26,224 Q26,382 113,471 Q200,560 335,560 Q443,560 502.5,500.5 Q562,441 562,334 M275,129 Q303,129 324,151.5 Q345,174 354.5,209.5 Q364,245 368,276.5 Q372,308 372,336 Q372,425 313,425 Q272,425 244.5,370 Q217,315 217,218 Q217,129 275,129"/> 
            <glyph glyph-name="p" unicode="&#x70;" horiz-adv-x="543" d=" M260,147 Q289,147 309,164.5 Q329,182 339,210.5 Q349,239 353,266.5 Q357,294 357,323 Q357,411 290,411 Q272,411 247,406 L212,157 Q238,147 260,147 M319,560 Q427,560 485,502.5 Q543,445 543,340 Q543,181 468,89 Q393,-3 268,-3 Q251,-3 232,0.5 Q213,4 202,8 L191,11 L165,-180 L-24,-180 L62,435 Q71,504 146,533 Q227,560 319,560"/> 
            <glyph glyph-name="q" unicode="&#x71;" horiz-adv-x="557" d=" M316,411 Q286,411 264,393 Q242,375 231.5,345 Q221,315 216.5,286 Q212,257 212,227 Q212,147 273,147 Q294,147 324,157 L359,406 Q335,411 316,411 M218,-3 Q24,-3 24,203 Q24,368 107,464 Q190,560 330,560 Q425,560 489,535 Q527,521 542,497.5 Q557,474 552,435 L466,-180 L277,-180 L303,11 Q255,-3 218,-3"/> 
            <glyph glyph-name="r" unicode="&#x72;" horiz-adv-x="406" d=" M0,0 L60,431 Q66,471 88,494.5 Q110,518 151,531 Q245,558 406,558 L385,407 Q292,407 239,391 L185,0"/> 
            <glyph glyph-name="s" unicode="&#x73;" horiz-adv-x="521" d=" M260,353 L345,335 Q478,307 478,185 Q478,91 409,42.5 Q340,-6 231,-6 Q131,-6 53,21 L0,39 L42,182 L96,161 Q174,131 246,131 Q296,131 296,171 Q296,196 261,203 L177,221 Q43,249 43,371 Q43,465 111,512.5 Q179,560 289,560 Q390,560 468,533 L521,515 L479,373 L424,393 Q342,423 276,423 Q225,423 225,384 Q225,360 260,353"/> 
            <glyph glyph-name="t" unicode="&#x74;" horiz-adv-x="438" d=" M128,653 L317,689 L298,554 L438,554 L419,416 L279,416 L249,202 Q245,168 256,153.5 Q267,139 298,139 Q330,139 380,155 L380,20 Q300,-6 236,-6 Q139,-6 94.5,45 Q50,96 63,192 L95,416 L32,416 L51,554 L114,554"/> 
            <glyph glyph-name="u" unicode="&#x75;" horiz-adv-x="555" d=" M28,190 L79,554 L267,554 L219,208 Q212,155 256,155 Q280,155 310,165 L364,554 L555,554 L494,120 Q485,48 404,21 Q313,-6 230,-6 Q113,-6 64,45.5 Q15,97 28,190"/> 
            <glyph glyph-name="v" unicode="&#x76;" horiz-adv-x="593" d=" M48,554 L243,554 L270,219 L388,554 L593,554 L382,76 Q344,-12 237,-12 Q131,-12 117,76"/> 
            <glyph glyph-name="w" unicode="&#x77;" horiz-adv-x="820" d=" M237,225 L332,493 Q355,557 438,557 Q478,557 501.5,540 Q525,523 527,493 L547,225 L629,554 L820,554 L663,83 Q631,-12 524,-12 Q412,-12 405,76 L391,232 L333,76 Q300,-12 189,-12 Q82,-12 77,83 L51,554 L241,554"/> 
            <glyph glyph-name="x" unicode="&#x78;" horiz-adv-x="599" d=" M533,0 L323,0 L270,133 L191,0 L-22,0 L174,284 L57,554 L266,554 L314,425 L384,554 L599,554 L411,273"/> 
            <glyph glyph-name="y" unicode="&#x79;" horiz-adv-x="597" d=" M597,554 L342,-24 Q272,-183 115,-183 Q52,-183 -18,-156 L22,-22 Q69,-40 107,-40 Q152,-40 169,5 L174,19 L53,554 L257,554 L294,248 L402,554"/> 
            <glyph glyph-name="z" unicode="&#x7A;" horiz-adv-x="532" d=" M276,416 L60,416 L79,554 L458,554 Q494,554 513,534 Q532,514 532,481 Q532,428 489,382 L262,138 L480,138 L461,0 L78,0 Q4,0 4,72 Q4,125 47,171"/> 
            <glyph glyph-name="{" unicode="&#x7B;" horiz-adv-x="365" d=" M40,280 L40,397 Q140,397 140,444 Q140,465 115,515.5 Q90,566 90,606 Q90,671 135,707.5 Q180,744 269,744 L365,744 L365,602 L318,602 Q267,602 267,556 Q267,533 289.5,490 Q312,447 312,419 Q312,362 258,338 Q312,314 312,258 Q312,230 289.5,185.5 Q267,141 267,118 Q267,75 318,75 L365,75 L365,-67 L269,-67 Q180,-67 135,-30.5 Q90,6 90,71 Q90,111 115,161.5 Q140,212 140,233 Q140,280 40,280"/> 
            <glyph glyph-name="|" unicode="&#x7C;" horiz-adv-x="253" d=" M253,-180 L60,-180 L60,763 L253,763"/> 
            <glyph glyph-name="}" unicode="&#x7D;" horiz-adv-x="365" d=" M365,397 L365,280 Q265,280 265,233 Q265,212 290,161.5 Q315,111 315,71 Q315,5 270.5,-31 Q226,-67 136,-67 L40,-67 L40,75 L87,75 Q138,75 138,118 Q138,141 115.5,185.5 Q93,230 93,258 Q93,314 147,338 Q93,362 93,419 Q93,447 115.5,490 Q138,533 138,556 Q138,602 87,602 L40,602 L40,744 L136,744 Q226,744 270.5,708 Q315,672 315,606 Q315,566 290,515.5 Q265,465 265,444 Q265,397 365,397"/> 
            <glyph glyph-name="~" unicode="&#x7E;" horiz-adv-x="549" d=" M341,192 Q287,192 246,226 L223,246 Q202,263 177,263 Q140,263 101,194 L5,265 Q83,424 212,424 Q266,424 307,390 L332,370 Q351,353 377,353 Q413,353 453,424 L549,351 Q471,192 341,192"/> 
            <glyph glyph-name="¡" unicode="&#xA1;" horiz-adv-x="264" d=" M161,-186 L-23,-186 L50,327 L233,327 M58,461 Q58,509 91,538 Q124,567 174,567 Q218,567 241,547 Q264,527 264,491 Q264,443 232,414.5 Q200,386 148,386 Q58,386 58,461"/> 
            <glyph glyph-name="¢" unicode="&#xA2;" horiz-adv-x="526" d=" M166,-132 L186,6 Q120,28 82,84 Q44,140 44,224 Q44,358 104.5,441.5 Q165,525 263,550 L281,683 L429,683 L410,553 Q448,550 486,535 L526,519 L485,367 L446,382 Q387,404 346,404 Q307,404 281.5,377 Q256,350 246.5,315 Q237,280 237,239 Q237,149 312,149 Q369,149 424,170 L461,185 L477,34 L432,19 Q377,1 331,-2 L314,-132"/> 
            <glyph glyph-name="£" unicode="&#xA3;" horiz-adv-x="574" d=" M391,256 L307,256 Q309,242 309,230 Q309,204 301.5,183 Q294,162 286,154 L278,146 L333,146 Q356,146 375.5,164 Q395,182 397,215 L535,215 Q510,0 315,0 L54,0 Q-5,0 -5,55 Q-5,94 14,119 Q33,144 74,144 Q113,144 133,168 Q153,192 153,234 L150,259 L39,259 L55,371 L111,371 Q82,447 82,503 Q82,626 157,688.5 Q232,751 351,751 Q438,751 525,719 L574,701 L534,542 L488,559 Q410,587 366,586 Q274,586 274,476 Q274,452 289,371 L407,371"/> 
            <glyph glyph-name="¥" unicode="&#xA5;" horiz-adv-x="611" d=" M538,343 L400,343 L391,283 L529,283 L513,170 L375,170 L352,0 L127,0 L150,170 L13,170 L29,283 L166,283 L175,343 L38,343 L54,456 L148,456 L74,744 L284,744 L307,476 L398,744 L611,744 L458,456 L554,456"/> 
            <glyph glyph-name="¦" unicode="&#xA6;" horiz-adv-x="253" d=" M253,388 L60,388 L60,764 L253,764 M253,-180 L60,-180 L60,196 L253,196"/> 
            <glyph glyph-name="§" unicode="&#xA7;" horiz-adv-x="566" d=" M329,221 L334,260 Q340,306 328.5,328 Q317,350 281,350 Q270,350 257.5,348 Q245,346 238,344 L230,341 L225,302 Q219,256 230.5,234 Q242,212 277,212 Q288,212 301,214 Q314,216 322,218 M34,312 L63,524 Q78,636 154,693.5 Q230,751 348,751 Q429,751 518,718 L566,699 L525,540 L480,558 Q411,586 348,586 Q265,586 255,514 L251,484 Q289,497 338,497 Q560,497 525,250 L495,38 Q479,-74 403.5,-130.5 Q328,-187 211,-187 Q131,-187 40,-153 L-8,-135 L33,24 L79,6 Q149,-22 212,-22 Q294,-22 304,49 L308,78 Q269,65 222,65 Q0,65 34,312"/> 
            <glyph glyph-name="¨" unicode="&#xA8;" horiz-adv-x="528" d=" M317,704 Q317,658 287.5,628 Q258,598 211,598 Q172,598 150.5,617 Q129,636 129,670 Q129,718 159,747 Q189,776 236,776 Q275,776 296,757 Q317,738 317,704 M528,704 Q528,657 499.5,627.5 Q471,598 423,598 Q383,598 361.5,617 Q340,636 340,670 Q340,718 370,747 Q400,776 448,776 Q487,776 507.5,757 Q528,738 528,704"/> 
            <glyph glyph-name="©" unicode="&#xA9;" horiz-adv-x="857" d=" M857,367 Q857,199 743,87 Q629,-25 466,-25 Q302,-25 188,87 Q74,199 74,367 Q74,536 187.5,646.5 Q301,757 466,757 Q630,757 743.5,647.5 Q857,538 857,367 M728,367 Q728,493 654.5,567 Q581,641 466,641 Q350,641 276,566.5 Q202,492 202,367 Q202,244 276.5,168 Q351,92 466,92 Q580,92 654,168.5 Q728,245 728,367 M421,367 Q421,279 490,279 Q523,279 575,295 L607,306 L622,191 L587,180 Q534,161 470,161 Q380,161 325.5,214.5 Q271,268 271,367 Q271,467 325.5,520.5 Q380,574 470,574 Q533,574 587,556 L622,544 L607,429 L575,440 Q523,456 490,456 Q421,456 421,367"/> 
            <glyph glyph-name="ª" unicode="&#xAA;" horiz-adv-x="505" d=" M315,428 L315,484 L262,484 Q214,484 214,449 Q214,416 254,416 Q274,416 296,423 M141,610 L93,593 L75,708 L125,724 Q209,751 283,751 Q462,751 462,599 L462,427 L505,400 L448,303 L410,324 Q383,338 345,330 L328,326 Q259,311 222,311 Q147,311 104.5,346 Q62,381 62,443 Q62,583 257,583 L314,583 L314,591 Q314,630 263,630 Q204,630 141,610"/> 
            <glyph glyph-name="«" unicode="&#xAB;" horiz-adv-x="576" d=" M21,238 Q21,308 58,348 L185,482 L356,482 L160,277 L300,84 L139,84 L39,215 M238,238 Q238,310 276,348 L407,482 L576,482 L378,277 L520,84 L361,84 L257,215"/> 
            <glyph glyph-name="¬" unicode="&#xAC;" horiz-adv-x="517" d=" M517,80 L360,80 L360,265 L38,265 L38,412 L517,412"/> 
            <glyph glyph-name="®" unicode="&#xAE;" horiz-adv-x="857" d=" M857,367 Q857,199 743,87 Q629,-25 466,-25 Q302,-25 188,87 Q74,199 74,367 Q74,536 187.5,646.5 Q301,757 466,757 Q630,757 743.5,647.5 Q857,538 857,367 M728,367 Q728,493 654.5,567 Q581,641 466,641 Q350,641 276,566.5 Q202,492 202,367 Q202,244 276.5,168 Q351,92 466,92 Q580,92 654,168.5 Q728,245 728,367 M292,181 L292,516 Q292,544 307.5,559 Q323,574 352,574 L507,574 Q571,574 608.5,540.5 Q646,507 646,449 Q646,398 608,353 L594,337 L654,181 L517,181 L474,302 L426,302 L426,181 M516,444 Q516,482 479,482 L426,482 L426,393 L491,393 L503,408 Q516,425 516,444"/> 
            <glyph glyph-name="¯" unicode="&#xAF;" horiz-adv-x="503" d=" M485,609 L110,609 L128,744 L503,744"/> 
            <glyph glyph-name="°" unicode="&#xB0;" horiz-adv-x="476" d=" M476,563 Q476,474 422.5,417.5 Q369,361 280,361 Q190,361 137,418 Q84,475 84,563 Q84,650 138,707 Q192,764 282,764 Q371,764 423.5,707.5 Q476,651 476,563 M344,530 Q344,594 327,613.5 Q310,633 280,633 Q251,633 234.5,613.5 Q218,594 218,562 Q218,530 235,510 Q252,490 281,490 Q310,490 344,530"/> 
            <glyph glyph-name="±" unicode="&#xB1;" horiz-adv-x="517" d=" M517,0 L38,0 L38,139 L517,139 M517,290 L354,290 L354,176 L196,176 L196,290 L38,290 L38,436 L196,436 L196,555 L354,555 L354,436 L517,436"/> 
            <glyph glyph-name="´" unicode="&#xB4;" horiz-adv-x="504" d=" M504,763 L315,624 Q272,592 230,592 Q204,592 190.5,607 Q177,622 177,642 Q177,674 211,703 L281,763"/> 
            <glyph glyph-name="µ" unicode="&#xB5;" horiz-adv-x="519" d=" M37,-186 L37,554 L230,554 L230,209 Q230,185 239,173 Q248,161 273,161 Q293,161 322,171 L322,554 L519,554 L519,122 Q519,80 500.5,56.5 Q482,33 442,21 Q366,-3 268,-3 L228,0 L228,-186"/> 
            <glyph glyph-name="¶" unicode="&#xB6;" horiz-adv-x="598" d=" M598,-186 L446,-186 L446,605 L381,605 L381,-186 L223,-186 L223,219 Q125,238 74,308.5 Q23,379 23,478 Q23,594 93,669 Q163,744 295,744 L598,744"/> 
            <glyph glyph-name="·" unicode="&#xB7;" horiz-adv-x="293" d=" M293,370 Q293,319 260.5,288.5 Q228,258 178,258 Q134,258 110.5,279.5 Q87,301 87,338 Q87,389 118.5,419 Q150,449 202,449 Q247,449 270,428 Q293,407 293,370"/> 
            <glyph glyph-name="¸" unicode="&#xB8;" horiz-adv-x="291" d=" M291,-109 Q291,-153 257.5,-176.5 Q224,-200 174,-200 Q128,-200 77,-176 L101,-112 Q142,-135 177,-135 Q202,-135 202,-113 Q202,-86 130,-92 L123,-77 L169,0 L235,0 L211,-41 Q248,-41 269.5,-58 Q291,-75 291,-109"/> 
            <glyph glyph-name="º" unicode="&#xBA;" horiz-adv-x="498" d=" M498,638 Q498,426 439,368 Q380,310 277,310 Q173,310 115,368 Q57,426 57,532 Q57,637 116.5,695 Q176,753 279,753 Q382,753 498,638 M339,532 Q339,642 277,642 Q218,642 218,532 Q218,420 279,420 Q339,420 339,532"/> 
            <glyph glyph-name="»" unicode="&#xBB;" horiz-adv-x="547" d=" M547,328 Q547,258 510,218 L383,84 L212,84 L408,289 L268,482 L429,482 L529,351 M330,328 Q330,256 292,218 L161,84 L-8,84 L190,289 L48,482 L207,482 L311,351"/> 
            <glyph glyph-name="¿" unicode="&#xBF;" horiz-adv-x="381" d=" M343,327 L334,265 Q325,198 280,157 L212,93 Q189,71 178,53.5 Q167,36 167,11 Q167,-33 213,-33 Q251,-33 303,-17 L359,0 L381,-150 L330,-164 Q236,-189 179,-189 Q-20,-189 -20,-28 Q-20,37 7.5,85 Q35,133 86,177 L149,231 L163,327 M172,462 Q172,510 205,539 Q238,568 288,568 Q332,568 355,548 Q378,528 378,492 Q378,444 346,415.5 Q314,387 262,387 Q172,387 172,462"/> 
            <glyph glyph-name="À" unicode="&#xC0;" horiz-adv-x="657" d=" M657,0 L430,0 L421,106 L246,106 L207,0 L-29,0 L252,646 Q298,753 426,753 Q552,753 567,647 M390,505 L306,274 L409,274 M397,802 L223,945 L447,945 L507,885 Q533,859 533,825 Q533,802 518,786.5 Q503,771 474,771 Q435,771 397,802"/> 
            <glyph glyph-name="Á" unicode="&#xC1;" horiz-adv-x="657" d=" M657,0 L430,0 L421,106 L246,106 L207,0 L-29,0 L252,646 Q298,753 426,753 Q552,753 567,647 M390,505 L306,274 L409,274 M631,945 L442,806 Q399,774 357,774 Q331,774 317.5,789 Q304,804 304,824 Q304,856 338,885 L408,945"/> 
            <glyph glyph-name="Â" unicode="&#xC2;" horiz-adv-x="657" d=" M657,0 L430,0 L421,106 L246,106 L207,0 L-29,0 L252,646 Q298,753 426,753 Q552,753 567,647 M390,505 L306,274 L409,274 M451,957 Q516,957 543,918 L633,790 L461,790 L434,842 L397,790 L224,790 L348,918 Q387,957 451,957"/> 
            <glyph glyph-name="Ã" unicode="&#xC3;" horiz-adv-x="657" d=" M657,0 L430,0 L421,106 L246,106 L207,0 L-29,0 L252,646 Q298,753 426,753 Q552,753 567,647 M390,505 L306,274 L409,274 M486,780 Q444,780 409,807 L388,823 Q369,838 353,838 Q322,838 291,781 L216,837 Q276,962 381,962 Q425,962 458,935 L479,919 Q496,904 513,904 Q543,904 575,963 L650,904 Q590,780 486,780"/> 
            <glyph glyph-name="Ä" unicode="&#xC4;" horiz-adv-x="657" d=" M657,0 L430,0 L421,106 L246,106 L207,0 L-29,0 L252,646 Q298,753 426,753 Q552,753 567,647 M390,505 L306,274 L409,274 M434,886 Q434,840 404.5,810 Q375,780 328,780 Q289,780 267.5,799 Q246,818 246,852 Q246,900 276,929 Q306,958 353,958 Q392,958 413,939 Q434,920 434,886 M645,886 Q645,839 616.5,809.5 Q588,780 540,780 Q500,780 478.5,799 Q457,818 457,852 Q457,900 487,929 Q517,958 565,958 Q604,958 624.5,939 Q645,920 645,886"/> 
            <glyph glyph-name="Å" unicode="&#xC5;" horiz-adv-x="657" d=" M657,0 L430,0 L421,106 L246,106 L207,0 L-29,0 L302,753 Q297,771 297,790 Q297,856 343.5,897 Q390,938 453,938 Q505,938 538.5,908 Q572,878 572,825 Q572,785 551,749 M390,505 L306,274 L409,274 M441,857 Q419,857 403.5,839 Q388,821 388,797 Q388,778 398.5,766.5 Q409,755 427,755 Q449,755 465,772.5 Q481,790 481,815 Q481,833 470,845 Q459,857 441,857"/> 
            <glyph glyph-name="Æ" unicode="&#xC6;" horiz-adv-x="1053" d=" M951,0 L528,0 Q477,0 451.5,26 Q426,52 433,99 L434,106 L249,106 L202,0 L-30,0 L298,645 Q348,744 480,744 L1053,744 L1029,573 L733,573 L717,460 L974,460 L951,296 L694,296 L677,171 L975,171 M457,572 L325,274 L458,274 L500,572"/> 
            <glyph glyph-name="Ç" unicode="&#xC7;" horiz-adv-x="682" d=" M592,240 L611,52 L550,31 Q437,-8 332,-8 Q194,-8 116,71 Q38,150 38,299 Q38,409 70,496.5 Q102,584 157,639 Q212,694 283.5,722.5 Q355,751 437,751 Q537,751 627,717 L682,696 L631,510 L574,530 Q506,553 442,553 Q370,553 325.5,493.5 Q281,434 281,320 Q281,193 392,193 Q461,193 532,218 M424,-109 Q424,-153 390.5,-176.5 Q357,-200 307,-200 Q261,-200 210,-176 L234,-112 Q275,-135 310,-135 Q335,-135 335,-113 Q335,-86 263,-92 L256,-77 L302,0 L368,0 L344,-41 Q381,-41 402.5,-58 Q424,-75 424,-109"/> 
            <glyph glyph-name="È" unicode="&#xC8;" horiz-adv-x="634" d=" M532,0 L109,0 Q58,0 33.5,27.5 Q9,55 16,104 L91,640 Q98,689 130,716.5 Q162,744 213,744 L634,744 L610,573 L314,573 L298,460 L556,460 L533,296 L275,296 L258,171 L556,171 M322,802 L148,945 L372,945 L432,885 Q458,859 458,825 Q458,802 443,786.5 Q428,771 399,771 Q360,771 322,802"/> 
            <glyph glyph-name="É" unicode="&#xC9;" horiz-adv-x="634" d=" M532,0 L109,0 Q58,0 33.5,27.5 Q9,55 16,104 L91,640 Q98,689 130,716.5 Q162,744 213,744 L634,744 L610,573 L314,573 L298,460 L556,460 L533,296 L275,296 L258,171 L556,171 M602,945 L413,806 Q370,774 328,774 Q302,774 288.5,789 Q275,804 275,824 Q275,856 309,885 L379,945"/> 
            <glyph glyph-name="Ê" unicode="&#xCA;" horiz-adv-x="634" d=" M532,0 L109,0 Q58,0 33.5,27.5 Q9,55 16,104 L91,640 Q98,689 130,716.5 Q162,744 213,744 L634,744 L610,573 L314,573 L298,460 L556,460 L533,296 L275,296 L258,171 L556,171 M404,957 Q469,957 496,918 L586,790 L414,790 L387,842 L350,790 L177,790 L301,918 Q340,957 404,957"/> 
            <glyph glyph-name="Ë" unicode="&#xCB;" horiz-adv-x="634" d=" M532,0 L109,0 Q58,0 33.5,27.5 Q9,55 16,104 L91,640 Q98,689 130,716.5 Q162,744 213,744 L634,744 L610,573 L314,573 L298,460 L556,460 L533,296 L275,296 L258,171 L556,171 M377,886 Q377,840 347.5,810 Q318,780 271,780 Q232,780 210.5,799 Q189,818 189,852 Q189,900 219,929 Q249,958 296,958 Q335,958 356,939 Q377,920 377,886 M588,886 Q588,839 559.5,809.5 Q531,780 483,780 Q443,780 421.5,799 Q400,818 400,852 Q400,900 430,929 Q460,958 508,958 Q547,958 567.5,939 Q588,920 588,886"/> 
            <glyph glyph-name="Ì" unicode="&#xCC;" horiz-adv-x="347" d=" M239,0 L3,0 L107,744 L343,744 M211,802 L37,945 L261,945 L321,885 Q347,859 347,825 Q347,802 332,786.5 Q317,771 288,771 Q249,771 211,802"/> 
            <glyph glyph-name="Í" unicode="&#xCD;" horiz-adv-x="444" d=" M239,0 L3,0 L107,744 L343,744 M444,945 L255,806 Q212,774 170,774 Q144,774 130.5,789 Q117,804 117,824 Q117,856 151,885 L221,945"/> 
            <glyph glyph-name="Î" unicode="&#xCE;" horiz-adv-x="436" d=" M239,0 L3,0 L107,744 L343,744 M254,957 Q319,957 346,918 L436,790 L264,790 L237,842 L200,790 L27,790 L151,918 Q190,957 254,957"/> 
            <glyph glyph-name="Ï" unicode="&#xCF;" horiz-adv-x="440" d=" M239,0 L3,0 L107,744 L343,744 M229,886 Q229,840 199.5,810 Q170,780 123,780 Q84,780 62.5,799 Q41,818 41,852 Q41,900 71,929 Q101,958 148,958 Q187,958 208,939 Q229,920 229,886 M440,886 Q440,839 411.5,809.5 Q383,780 335,780 Q295,780 273.5,799 Q252,818 252,852 Q252,900 282,929 Q312,958 360,958 Q399,958 419.5,939 Q440,920 440,886"/> 
            <glyph glyph-name="Ð" unicode="&#xD0;" horiz-adv-x="710" d=" M309,0 L129,0 Q82,0 55,27 Q28,54 35,104 L65,320 L18,320 L34,431 L80,431 L110,640 Q117,689 150,716.5 Q183,744 233,744 L414,744 Q554,744 632,663 Q710,582 710,437 Q710,232 596,116 Q482,0 309,0 M331,179 Q372,179 402.5,203.5 Q433,228 449,267 Q465,306 472.5,346.5 Q480,387 480,427 Q480,495 454,531 Q428,567 379,567 L333,567 L314,431 L418,431 L402,320 L298,320 L279,179"/> 
            <glyph glyph-name="Ñ" unicode="&#xD1;" horiz-adv-x="747" d=" M423,614 L491,337 L548,744 L747,744 L662,139 Q652,68 605.5,30.5 Q559,-7 481,-7 Q406,-7 373.5,27 Q341,61 325,130 L258,407 L201,0 L1,0 L85,604 Q95,675 141.5,713 Q188,751 267,751 Q342,751 374,717.5 Q406,684 423,614 M509,780 Q467,780 432,807 L411,823 Q392,838 376,838 Q345,838 314,781 L239,837 Q299,962 404,962 Q448,962 481,935 L502,919 Q519,904 536,904 Q566,904 598,963 L673,904 Q613,780 509,780"/> 
            <glyph glyph-name="Ò" unicode="&#xD2;" horiz-adv-x="756" d=" M756,440 Q756,352 728.5,271.5 Q701,191 650.5,128.5 Q600,66 520.5,29 Q441,-8 344,-8 Q201,-8 119.5,72.5 Q38,153 38,301 Q38,511 155,630 Q272,749 449,749 Q593,749 674.5,669 Q756,589 756,440 M368,160 Q410,160 442,189 Q474,218 489.5,263.5 Q505,309 512.5,353 Q520,397 520,438 Q520,581 424,581 Q359,581 316,505 Q273,429 273,300 Q273,160 368,160 M412,802 L238,945 L462,945 L522,885 Q548,859 548,825 Q548,802 533,786.5 Q518,771 489,771 Q450,771 412,802"/> 
            <glyph glyph-name="Ó" unicode="&#xD3;" horiz-adv-x="756" d=" M756,440 Q756,352 728.5,271.5 Q701,191 650.5,128.5 Q600,66 520.5,29 Q441,-8 344,-8 Q201,-8 119.5,72.5 Q38,153 38,301 Q38,511 155,630 Q272,749 449,749 Q593,749 674.5,669 Q756,589 756,440 M368,160 Q410,160 442,189 Q474,218 489.5,263.5 Q505,309 512.5,353 Q520,397 520,438 Q520,581 424,581 Q359,581 316,505 Q273,429 273,300 Q273,160 368,160 M664,945 L475,806 Q432,774 390,774 Q364,774 350.5,789 Q337,804 337,824 Q337,856 371,885 L441,945"/> 
            <glyph glyph-name="Ô" unicode="&#xD4;" horiz-adv-x="756" d=" M756,440 Q756,352 728.5,271.5 Q701,191 650.5,128.5 Q600,66 520.5,29 Q441,-8 344,-8 Q201,-8 119.5,72.5 Q38,153 38,301 Q38,511 155,630 Q272,749 449,749 Q593,749 674.5,669 Q756,589 756,440 M368,160 Q410,160 442,189 Q474,218 489.5,263.5 Q505,309 512.5,353 Q520,397 520,438 Q520,581 424,581 Q359,581 316,505 Q273,429 273,300 Q273,160 368,160 M470,957 Q535,957 562,918 L652,790 L480,790 L453,842 L416,790 L243,790 L367,918 Q406,957 470,957"/> 
            <glyph glyph-name="Õ" unicode="&#xD5;" horiz-adv-x="756" d=" M756,440 Q756,352 728.5,271.5 Q701,191 650.5,128.5 Q600,66 520.5,29 Q441,-8 344,-8 Q201,-8 119.5,72.5 Q38,153 38,301 Q38,511 155,630 Q272,749 449,749 Q593,749 674.5,669 Q756,589 756,440 M368,160 Q410,160 442,189 Q474,218 489.5,263.5 Q505,309 512.5,353 Q520,397 520,438 Q520,581 424,581 Q359,581 316,505 Q273,429 273,300 Q273,160 368,160 M521,781 Q479,781 444,808 L423,824 Q404,839 388,839 Q357,839 326,782 L251,838 Q311,963 416,963 Q460,963 493,936 L514,920 Q531,905 548,905 Q578,905 610,964 L685,905 Q625,781 521,781"/> 
            <glyph glyph-name="Ö" unicode="&#xD6;" horiz-adv-x="756" d=" M756,440 Q756,352 728.5,271.5 Q701,191 650.5,128.5 Q600,66 520.5,29 Q441,-8 344,-8 Q201,-8 119.5,72.5 Q38,153 38,301 Q38,511 155,630 Q272,749 449,749 Q593,749 674.5,669 Q756,589 756,440 M368,160 Q410,160 442,189 Q474,218 489.5,263.5 Q505,309 512.5,353 Q520,397 520,438 Q520,581 424,581 Q359,581 316,505 Q273,429 273,300 Q273,160 368,160 M455,886 Q455,840 425.5,810 Q396,780 349,780 Q310,780 288.5,799 Q267,818 267,852 Q267,900 297,929 Q327,958 374,958 Q413,958 434,939 Q455,920 455,886 M666,886 Q666,839 637.5,809.5 Q609,780 561,780 Q521,780 499.5,799 Q478,818 478,852 Q478,900 508,929 Q538,958 586,958 Q625,958 645.5,939 Q666,920 666,886"/> 
            <glyph glyph-name="×" unicode="&#xD7;" horiz-adv-x="526" d=" M392,283 L526,148 L413,35 L278,169 L143,35 L30,148 L164,283 L30,418 L143,531 L278,397 L413,531 L526,418"/> 
            <glyph glyph-name="Ø" unicode="&#xD8;" horiz-adv-x="756" d=" M756,440 Q756,352 728.5,271.5 Q701,191 650.5,128.5 Q600,66 520.5,29 Q441,-8 344,-8 Q286,-8 232,8 L193,-52 L51,-52 L128,66 Q38,148 38,301 Q38,511 155,630 Q272,749 449,749 Q508,749 562,733 L601,792 L742,792 L666,675 Q756,593 756,440 M270,300 L270,284 L459,574 Q442,581 424,581 Q359,581 314.5,505 Q270,429 270,300 M368,160 Q410,160 442,189 Q474,218 490.5,263.5 Q507,309 515,353.5 Q523,398 523,438 Q523,449 522,454 L334,165 Q351,160 368,160"/> 
            <glyph glyph-name="Ù" unicode="&#xD9;" horiz-adv-x="722" d=" M722,744 L657,277 Q637,138 547,63 Q457,-12 306,-12 Q156,-12 86,66.5 Q16,145 36,285 L101,744 L335,744 L270,281 Q257,185 335,185 Q408,185 422,281 L487,744 M356,802 L182,945 L406,945 L466,885 Q492,859 492,825 Q492,802 477,786.5 Q462,771 433,771 Q394,771 356,802"/> 
            <glyph glyph-name="Ú" unicode="&#xDA;" horiz-adv-x="722" d=" M722,744 L657,277 Q637,138 547,63 Q457,-12 306,-12 Q156,-12 86,66.5 Q16,145 36,285 L101,744 L335,744 L270,281 Q257,185 335,185 Q408,185 422,281 L487,744 M663,945 L474,806 Q431,774 389,774 Q363,774 349.5,789 Q336,804 336,824 Q336,856 370,885 L440,945"/> 
            <glyph glyph-name="Û" unicode="&#xDB;" horiz-adv-x="722" d=" M722,744 L657,277 Q637,138 547,63 Q457,-12 306,-12 Q156,-12 86,66.5 Q16,145 36,285 L101,744 L335,744 L270,281 Q257,185 335,185 Q408,185 422,281 L487,744 M439,957 Q504,957 531,918 L621,790 L449,790 L422,842 L385,790 L212,790 L336,918 Q375,957 439,957"/> 
            <glyph glyph-name="Ü" unicode="&#xDC;" horiz-adv-x="722" d=" M722,744 L657,277 Q637,138 547,63 Q457,-12 306,-12 Q156,-12 86,66.5 Q16,145 36,285 L101,744 L335,744 L270,281 Q257,185 335,185 Q408,185 422,281 L487,744 M417,886 Q417,840 387.5,810 Q358,780 311,780 Q272,780 250.5,799 Q229,818 229,852 Q229,900 259,929 Q289,958 336,958 Q375,958 396,939 Q417,920 417,886 M628,886 Q628,839 599.5,809.5 Q571,780 523,780 Q483,780 461.5,799 Q440,818 440,852 Q440,900 470,929 Q500,958 548,958 Q587,958 607.5,939 Q628,920 628,886"/> 
            <glyph glyph-name="Ý" unicode="&#xDD;" horiz-adv-x="783" d=" M250,295 L76,744 L322,744 L395,503 L532,744 L783,744 L483,296 L442,0 L209,0 M677,945 L488,806 Q445,774 403,774 Q377,774 363.5,789 Q350,804 350,824 Q350,856 384,885 L454,945"/> 
            <glyph glyph-name="Þ" unicode="&#xDE;" horiz-adv-x="630" d=" M319,633 L415,633 Q516,633 573,577 Q630,521 630,423 Q630,289 549,212 Q468,135 337,133 L249,133 L231,0 L2,0 L106,744 L335,744 M337,302 Q373,302 395.5,331 Q418,360 418,400 Q418,430 402.5,447 Q387,464 361,464 L296,464 L274,302"/> 
            <glyph glyph-name="ß" unicode="&#xDF;" horiz-adv-x="535" d=" M1,0 L81,565 Q97,676 164,729 Q231,782 331,782 Q423,782 479,734 Q535,686 535,604 Q535,520 476,441 L445,399 L479,353 Q524,297 524,225 Q524,119 456.5,59.5 Q389,0 276,0 L224,0 L245,152 L280,152 Q311,152 328,173 Q345,194 345,227 Q345,257 328,284 L293,342 Q279,365 279,390 Q279,414 299,451 L327,499 Q352,545 352,592 Q352,634 319,634 Q280,634 271,571 L190,0"/> 
            <glyph glyph-name="à" unicode="&#xE0;" horiz-adv-x="568" d=" M223,-3 Q129,-4 77,56.5 Q25,117 25,216 Q25,367 99.5,452.5 Q174,538 297,538 Q314,538 333.5,535 Q353,532 364,528 L375,525 L380,560 L568,560 L507,138 L551,105 L469,-16 L426,10 Q395,28 349,18 L327,13 Q261,-3 223,-3 M307,393 Q278,393 258,376.5 Q238,360 228.5,333 Q219,306 215,280 Q211,254 211,226 Q211,141 275,141 Q294,141 319,146 L354,383 Q328,393 307,393 M351,620 L177,763 L401,763 L461,703 Q487,677 487,643 Q487,620 472,604.5 Q457,589 428,589 Q389,589 351,620"/> 
            <glyph glyph-name="á" unicode="&#xE1;" horiz-adv-x="585" d=" M223,-3 Q129,-4 77,56.5 Q25,117 25,216 Q25,367 99.5,452.5 Q174,538 297,538 Q314,538 333.5,535 Q353,532 364,528 L375,525 L380,560 L568,560 L507,138 L551,105 L469,-16 L426,10 Q395,28 349,18 L327,13 Q261,-3 223,-3 M307,393 Q278,393 258,376.5 Q238,360 228.5,333 Q219,306 215,280 Q211,254 211,226 Q211,141 275,141 Q294,141 319,146 L354,383 Q328,393 307,393 M585,763 L396,624 Q353,592 311,592 Q285,592 271.5,607 Q258,622 258,642 Q258,674 292,703 L362,763"/> 
            <glyph glyph-name="â" unicode="&#xE2;" horiz-adv-x="568" d=" M223,-3 Q129,-4 77,56.5 Q25,117 25,216 Q25,367 99.5,452.5 Q174,538 297,538 Q314,538 333.5,535 Q353,532 364,528 L375,525 L380,560 L568,560 L507,138 L551,105 L469,-16 L426,10 Q395,28 349,18 L327,13 Q261,-3 223,-3 M307,393 Q278,393 258,376.5 Q238,360 228.5,333 Q219,306 215,280 Q211,254 211,226 Q211,141 275,141 Q294,141 319,146 L354,383 Q328,393 307,393 M378,769 Q443,769 470,730 L560,602 L388,602 L361,654 L324,602 L151,602 L275,730 Q314,769 378,769"/> 
            <glyph glyph-name="ã" unicode="&#xE3;" horiz-adv-x="585" d=" M223,-3 Q129,-4 77,56.5 Q25,117 25,216 Q25,367 99.5,452.5 Q174,538 297,538 Q314,538 333.5,535 Q353,532 364,528 L375,525 L380,560 L568,560 L507,138 L551,105 L469,-16 L426,10 Q395,28 349,18 L327,13 Q261,-3 223,-3 M307,393 Q278,393 258,376.5 Q238,360 228.5,333 Q219,306 215,280 Q211,254 211,226 Q211,141 275,141 Q294,141 319,146 L354,383 Q328,393 307,393 M421,594 Q379,594 344,621 L323,637 Q304,652 288,652 Q257,652 226,595 L151,651 Q211,776 316,776 Q360,776 393,749 L414,733 Q431,718 448,718 Q478,718 510,777 L585,718 Q525,594 421,594"/> 
            <glyph glyph-name="ä" unicode="&#xE4;" horiz-adv-x="568" d=" M223,-3 Q129,-4 77,56.5 Q25,117 25,216 Q25,367 99.5,452.5 Q174,538 297,538 Q314,538 333.5,535 Q353,532 364,528 L375,525 L380,560 L568,560 L507,138 L551,105 L469,-16 L426,10 Q395,28 349,18 L327,13 Q261,-3 223,-3 M307,393 Q278,393 258,376.5 Q238,360 228.5,333 Q219,306 215,280 Q211,254 211,226 Q211,141 275,141 Q294,141 319,146 L354,383 Q328,393 307,393 M353,704 Q353,658 323.5,628 Q294,598 247,598 Q208,598 186.5,617 Q165,636 165,670 Q165,718 195,747 Q225,776 272,776 Q311,776 332,757 Q353,738 353,704 M564,704 Q564,657 535.5,627.5 Q507,598 459,598 Q419,598 397.5,617 Q376,636 376,670 Q376,718 406,747 Q436,776 484,776 Q523,776 543.5,757 Q564,738 564,704"/> 
            <glyph glyph-name="å" unicode="&#xE5;" horiz-adv-x="568" d=" M223,-3 Q129,-4 77,56.5 Q25,117 25,216 Q25,367 99.5,452.5 Q174,538 297,538 Q314,538 333.5,535 Q353,532 364,528 L375,525 L380,560 L568,560 L507,138 L551,105 L469,-16 L426,10 Q395,28 349,18 L327,13 Q261,-3 223,-3 M307,393 Q278,393 258,376.5 Q238,360 228.5,333 Q219,306 215,280 Q211,254 211,226 Q211,141 275,141 Q294,141 319,146 L354,383 Q328,393 307,393 M352,587 Q300,587 266.5,618.5 Q233,650 233,704 Q233,770 279.5,811 Q326,852 389,852 Q441,852 474.5,822 Q508,792 508,739 Q508,673 461.5,630 Q415,587 352,587 M377,771 Q355,771 339.5,753 Q324,735 324,711 Q324,692 334.5,680.5 Q345,669 363,669 Q385,669 401,686.5 Q417,704 417,729 Q417,747 406,759 Q395,771 377,771"/> 
            <glyph glyph-name="æ" unicode="&#xE6;" horiz-adv-x="856" d=" M301,130 L349,140 Q338,170 339,221 L272,221 Q243,221 224,207.5 Q205,194 205,166 Q205,123 248,123 Q264,123 301,130 M575,-6 Q493,-6 442,20 Q414,35 383,28 L321,13 Q245,-6 192,-6 Q109,-6 64.5,38 Q20,82 20,157 Q20,256 93,298.5 Q166,341 282,341 L351,341 L354,356 Q359,383 345.5,397 Q332,411 297,411 Q227,411 149,384 L86,364 L66,502 L130,523 Q241,560 339,561 Q432,563 473,509 Q541,561 634,561 Q748,561 802,493.5 Q856,426 838,290 Q834,253 815.5,237.5 Q797,222 760,222 L515,222 Q516,141 605,141 Q674,141 743,164 L794,181 L808,44 L756,26 Q665,-6 575,-6 M665,339 Q672,380 658.5,405 Q645,430 610,430 Q580,430 559,406.5 Q538,383 530,339"/> 
            <glyph glyph-name="ç" unicode="&#xE7;" horiz-adv-x="507" d=" M327,404 Q288,404 262.5,377 Q237,350 227.5,315 Q218,280 218,239 Q218,149 293,149 Q350,149 405,170 L442,185 L458,34 L413,19 Q337,-7 254,-7 Q151,-7 88,54 Q25,115 25,224 Q25,385 109.5,472.5 Q194,560 320,560 Q405,560 467,535 L507,519 L466,367 L427,382 Q368,404 327,404 M335,-109 Q335,-153 301.5,-176.5 Q268,-200 218,-200 Q172,-200 121,-176 L145,-112 Q186,-135 221,-135 Q246,-135 246,-113 Q246,-86 174,-92 L167,-77 L213,0 L279,0 L255,-41 Q292,-41 313.5,-58 Q335,-75 335,-109"/> 
            <glyph glyph-name="è" unicode="&#xE8;" horiz-adv-x="546" d=" M26,225 Q26,311 58,385.5 Q90,460 159,510.5 Q228,561 321,561 Q436,561 491,493 Q546,425 528,290 Q524,253 505.5,237.5 Q487,222 450,222 L205,222 Q206,141 295,141 Q364,141 433,164 L484,181 L498,44 L446,26 Q355,-6 265,-6 Q151,-6 88,54 Q25,114 26,225 M355,339 Q362,380 348.5,405 Q335,430 300,430 Q270,430 249,406.5 Q228,383 220,339 M283,620 L109,763 L333,763 L393,703 Q419,677 419,643 Q419,620 404,604.5 Q389,589 360,589 Q321,589 283,620"/> 
            <glyph glyph-name="é" unicode="&#xE9;" horiz-adv-x="570" d=" M26,225 Q26,311 58,385.5 Q90,460 159,510.5 Q228,561 321,561 Q436,561 491,493 Q546,425 528,290 Q524,253 505.5,237.5 Q487,222 450,222 L205,222 Q206,141 295,141 Q364,141 433,164 L484,181 L498,44 L446,26 Q355,-6 265,-6 Q151,-6 88,54 Q25,114 26,225 M355,339 Q362,380 348.5,405 Q335,430 300,430 Q270,430 249,406.5 Q228,383 220,339 M570,763 L381,624 Q338,592 296,592 Q270,592 256.5,607 Q243,622 243,642 Q243,674 277,703 L347,763"/> 
            <glyph glyph-name="ê" unicode="&#xEA;" horiz-adv-x="546" d=" M26,225 Q26,311 58,385.5 Q90,460 159,510.5 Q228,561 321,561 Q436,561 491,493 Q546,425 528,290 Q524,253 505.5,237.5 Q487,222 450,222 L205,222 Q206,141 295,141 Q364,141 433,164 L484,181 L498,44 L446,26 Q355,-6 265,-6 Q151,-6 88,54 Q25,114 26,225 M355,339 Q362,380 348.5,405 Q335,430 300,430 Q270,430 249,406.5 Q228,383 220,339 M349,769 Q414,769 441,730 L531,602 L359,602 L332,654 L295,602 L122,602 L246,730 Q285,769 349,769"/> 
            <glyph glyph-name="ë" unicode="&#xEB;" horiz-adv-x="546" d=" M26,225 Q26,311 58,385.5 Q90,460 159,510.5 Q228,561 321,561 Q436,561 491,493 Q546,425 528,290 Q524,253 505.5,237.5 Q487,222 450,222 L205,222 Q206,141 295,141 Q364,141 433,164 L484,181 L498,44 L446,26 Q355,-6 265,-6 Q151,-6 88,54 Q25,114 26,225 M355,339 Q362,380 348.5,405 Q335,430 300,430 Q270,430 249,406.5 Q228,383 220,339 M330,704 Q330,658 300.5,628 Q271,598 224,598 Q185,598 163.5,617 Q142,636 142,670 Q142,718 172,747 Q202,776 249,776 Q288,776 309,757 Q330,738 330,704 M541,704 Q541,657 512.5,627.5 Q484,598 436,598 Q396,598 374.5,617 Q353,636 353,670 Q353,718 383,747 Q413,776 461,776 Q500,776 520.5,757 Q541,738 541,704"/> 
            <glyph glyph-name="ì" unicode="&#xEC;" horiz-adv-x="286" d=" M186,0 L2,0 L79,554 L263,554 M150,620 L-24,763 L200,763 L260,703 Q286,677 286,643 Q286,620 271,604.5 Q256,589 227,589 Q188,589 150,620"/> 
            <glyph glyph-name="í" unicode="&#xED;" horiz-adv-x="394" d=" M186,0 L2,0 L79,554 L263,554 M394,763 L205,624 Q162,592 120,592 Q94,592 80.5,607 Q67,622 67,642 Q67,674 101,703 L171,763"/> 
            <glyph glyph-name="î" unicode="&#xEE;" horiz-adv-x="377" d=" M186,0 L2,0 L79,554 L263,554 M195,769 Q260,769 287,730 L377,602 L205,602 L178,654 L141,602 L-32,602 L92,730 Q131,769 195,769"/> 
            <glyph glyph-name="ï" unicode="&#xEF;" horiz-adv-x="392" d=" M186,0 L2,0 L79,554 L263,554 M181,704 Q181,658 151.5,628 Q122,598 75,598 Q36,598 14.5,617 Q-7,636 -7,670 Q-7,718 23,747 Q53,776 100,776 Q139,776 160,757 Q181,738 181,704 M392,704 Q392,657 363.5,627.5 Q335,598 287,598 Q247,598 225.5,617 Q204,636 204,670 Q204,718 234,747 Q264,776 312,776 Q351,776 371.5,757 Q392,738 392,704"/> 
            <glyph glyph-name="ð" unicode="&#xF0;" horiz-adv-x="629" d=" M617,691 L559,663 Q593,603 578,495 L542,244 Q525,126 451.5,60.5 Q378,-5 252,-5 Q143,-5 83.5,55 Q24,115 24,218 Q24,354 96,430.5 Q168,507 281,507 Q311,507 337,502 Q363,497 374,492 L386,487 L391,518 Q396,552 390,585 L258,524 L269,607 L352,645 Q328,663 285,663 L236,663 L250,763 L349,763 Q452,763 509,718 L629,774 M308,371 Q264,371 240.5,326 Q217,281 217,209 Q217,133 270,133 Q304,133 323.5,161 Q343,189 352,252 L367,361 Q339,371 308,371"/> 
            <glyph glyph-name="ñ" unicode="&#xF1;" horiz-adv-x="548" d=" M528,364 L477,0 L289,0 L337,346 Q344,399 300,399 Q278,399 247,389 L193,0 L1,0 L61,434 Q70,505 153,533 Q244,560 327,560 Q444,560 492.5,508.5 Q541,457 528,364 M384,594 Q342,594 307,621 L286,637 Q267,652 251,652 Q220,652 189,595 L114,651 Q174,776 279,776 Q323,776 356,749 L377,733 Q394,718 411,718 Q441,718 473,777 L548,718 Q488,594 384,594"/> 
            <glyph glyph-name="ò" unicode="&#xF2;" horiz-adv-x="562" d=" M562,334 Q562,267 542,206.5 Q522,146 484.5,98 Q447,50 387,22 Q327,-6 253,-6 Q145,-6 85.5,54.5 Q26,115 26,224 Q26,382 113,471 Q200,560 335,560 Q443,560 502.5,500.5 Q562,441 562,334 M275,129 Q303,129 324,151.5 Q345,174 354.5,209.5 Q364,245 368,276.5 Q372,308 372,336 Q372,425 313,425 Q272,425 244.5,370 Q217,315 217,218 Q217,129 275,129 M339,620 L165,763 L389,763 L449,703 Q475,677 475,643 Q475,620 460,604.5 Q445,589 416,589 Q377,589 339,620"/> 
            <glyph glyph-name="ó" unicode="&#xF3;" horiz-adv-x="588" d=" M562,334 Q562,267 542,206.5 Q522,146 484.5,98 Q447,50 387,22 Q327,-6 253,-6 Q145,-6 85.5,54.5 Q26,115 26,224 Q26,382 113,471 Q200,560 335,560 Q443,560 502.5,500.5 Q562,441 562,334 M275,129 Q303,129 324,151.5 Q345,174 354.5,209.5 Q364,245 368,276.5 Q372,308 372,336 Q372,425 313,425 Q272,425 244.5,370 Q217,315 217,218 Q217,129 275,129 M588,763 L399,624 Q356,592 314,592 Q288,592 274.5,607 Q261,622 261,642 Q261,674 295,703 L365,763"/> 
            <glyph glyph-name="ô" unicode="&#xF4;" horiz-adv-x="562" d=" M562,334 Q562,267 542,206.5 Q522,146 484.5,98 Q447,50 387,22 Q327,-6 253,-6 Q145,-6 85.5,54.5 Q26,115 26,224 Q26,382 113,471 Q200,560 335,560 Q443,560 502.5,500.5 Q562,441 562,334 M275,129 Q303,129 324,151.5 Q345,174 354.5,209.5 Q364,245 368,276.5 Q372,308 372,336 Q372,425 313,425 Q272,425 244.5,370 Q217,315 217,218 Q217,129 275,129 M365,769 Q430,769 457,730 L547,602 L375,602 L348,654 L311,602 L138,602 L262,730 Q301,769 365,769"/> 
            <glyph glyph-name="õ" unicode="&#xF5;" horiz-adv-x="579" d=" M562,334 Q562,267 542,206.5 Q522,146 484.5,98 Q447,50 387,22 Q327,-6 253,-6 Q145,-6 85.5,54.5 Q26,115 26,224 Q26,382 113,471 Q200,560 335,560 Q443,560 502.5,500.5 Q562,441 562,334 M275,129 Q303,129 324,151.5 Q345,174 354.5,209.5 Q364,245 368,276.5 Q372,308 372,336 Q372,425 313,425 Q272,425 244.5,370 Q217,315 217,218 Q217,129 275,129 M415,594 Q373,594 338,621 L317,637 Q298,652 282,652 Q251,652 220,595 L145,651 Q205,776 310,776 Q354,776 387,749 L408,733 Q425,718 442,718 Q472,718 504,777 L579,718 Q519,594 415,594"/> 
            <glyph glyph-name="ö" unicode="&#xF6;" horiz-adv-x="562" d=" M562,334 Q562,267 542,206.5 Q522,146 484.5,98 Q447,50 387,22 Q327,-6 253,-6 Q145,-6 85.5,54.5 Q26,115 26,224 Q26,382 113,471 Q200,560 335,560 Q443,560 502.5,500.5 Q562,441 562,334 M275,129 Q303,129 324,151.5 Q345,174 354.5,209.5 Q364,245 368,276.5 Q372,308 372,336 Q372,425 313,425 Q272,425 244.5,370 Q217,315 217,218 Q217,129 275,129 M346,704 Q346,658 316.5,628 Q287,598 240,598 Q201,598 179.5,617 Q158,636 158,670 Q158,718 188,747 Q218,776 265,776 Q304,776 325,757 Q346,738 346,704 M557,704 Q557,657 528.5,627.5 Q500,598 452,598 Q412,598 390.5,617 Q369,636 369,670 Q369,718 399,747 Q429,776 477,776 Q516,776 536.5,757 Q557,738 557,704"/> 
            <glyph glyph-name="÷" unicode="&#xF7;" horiz-adv-x="517" d=" M378,483 Q378,442 351,418 Q324,394 276,394 Q229,394 202,418 Q175,442 175,483 Q175,523 202,548 Q229,573 276,573 Q323,573 350.5,548 Q378,523 378,483 M378,143 Q378,61 351,37 Q324,13 276,13 Q229,13 202,37 Q175,61 175,102 Q175,143 202,167 Q229,191 276,191 Q324,191 378,143 M517,220 L38,220 L38,366 L517,366"/> 
            <glyph glyph-name="ø" unicode="&#xF8;" horiz-adv-x="568" d=" M143,-51 L15,-51 L85,55 Q26,117 26,224 Q26,382 113,471 Q200,560 335,560 Q380,560 412,551 L442,600 L568,600 L503,500 Q562,438 562,333 Q562,179 475,86.5 Q388,-6 253,-6 Q210,-6 177,3 M275,129 Q313,129 338.5,162 Q364,195 372.5,233.5 Q381,272 381,311 L381,314 L261,130 Q265,129 275,129 M312,424 Q275,424 250.5,392 Q226,360 217.5,322 Q209,284 209,247 L209,244 L326,423 Q322,424 312,424"/> 
            <glyph glyph-name="ù" unicode="&#xF9;" horiz-adv-x="555" d=" M28,190 L79,554 L267,554 L219,208 Q212,155 256,155 Q280,155 310,165 L364,554 L555,554 L494,120 Q485,48 404,21 Q313,-6 230,-6 Q113,-6 64,45.5 Q15,97 28,190 M279,620 L105,763 L329,763 L389,703 Q415,677 415,643 Q415,620 400,604.5 Q385,589 356,589 Q317,589 279,620"/> 
            <glyph glyph-name="ú" unicode="&#xFA;" horiz-adv-x="559" d=" M28,190 L79,554 L267,554 L219,208 Q212,155 256,155 Q280,155 310,165 L364,554 L555,554 L494,120 Q485,48 404,21 Q313,-6 230,-6 Q113,-6 64,45.5 Q15,97 28,190 M559,763 L370,624 Q327,592 285,592 Q259,592 245.5,607 Q232,622 232,642 Q232,674 266,703 L336,763"/> 
            <glyph glyph-name="û" unicode="&#xFB;" horiz-adv-x="555" d=" M28,190 L79,554 L267,554 L219,208 Q212,155 256,155 Q280,155 310,165 L364,554 L555,554 L494,120 Q485,48 404,21 Q313,-6 230,-6 Q113,-6 64,45.5 Q15,97 28,190 M343,769 Q408,769 435,730 L525,602 L353,602 L326,654 L289,602 L116,602 L240,730 Q279,769 343,769"/> 
            <glyph glyph-name="ü" unicode="&#xFC;" horiz-adv-x="555" d=" M28,190 L79,554 L267,554 L219,208 Q212,155 256,155 Q280,155 310,165 L364,554 L555,554 L494,120 Q485,48 404,21 Q313,-6 230,-6 Q113,-6 64,45.5 Q15,97 28,190 M324,704 Q324,658 294.5,628 Q265,598 218,598 Q179,598 157.5,617 Q136,636 136,670 Q136,718 166,747 Q196,776 243,776 Q282,776 303,757 Q324,738 324,704 M535,704 Q535,657 506.5,627.5 Q478,598 430,598 Q390,598 368.5,617 Q347,636 347,670 Q347,718 377,747 Q407,776 455,776 Q494,776 514.5,757 Q535,738 535,704"/> 
            <glyph glyph-name="ý" unicode="&#xFD;" horiz-adv-x="597" d=" M597,554 L342,-24 Q272,-183 115,-183 Q52,-183 -18,-156 L22,-22 Q69,-40 107,-40 Q152,-40 169,5 L174,19 L53,554 L257,554 L294,248 L402,554 M587,763 L398,624 Q355,592 313,592 Q287,592 273.5,607 Q260,622 260,642 Q260,674 294,703 L364,763"/> 
            <glyph glyph-name="þ" unicode="&#xFE;" horiz-adv-x="543" d=" M357,328 Q357,369 342.5,387 Q328,405 297,405 Q275,405 245,395 L212,157 Q238,147 260,147 Q289,147 309.5,165 Q330,183 339.5,212.5 Q349,242 353,270 Q357,298 357,328 M107,763 L296,763 L266,543 Q314,557 353,557 Q450,557 496.5,499 Q543,441 543,340 Q543,181 468,89 Q393,-3 268,-3 Q251,-3 232,0.5 Q213,4 202,8 L191,11 L165,-180 L-24,-180"/> 
            <glyph glyph-name="ÿ" unicode="&#xFF;" horiz-adv-x="597" d=" M597,554 L342,-24 Q272,-183 115,-183 Q52,-183 -18,-156 L22,-22 Q69,-40 107,-40 Q152,-40 169,5 L174,19 L53,554 L257,554 L294,248 L402,554 M341,704 Q341,658 311.5,628 Q282,598 235,598 Q196,598 174.5,617 Q153,636 153,670 Q153,718 183,747 Q213,776 260,776 Q299,776 320,757 Q341,738 341,704 M552,704 Q552,657 523.5,627.5 Q495,598 447,598 Q407,598 385.5,617 Q364,636 364,670 Q364,718 394,747 Q424,776 472,776 Q511,776 531.5,757 Q552,738 552,704"/> 
            <glyph glyph-name="ı" unicode="&#x131;" horiz-adv-x="263" d=" M186,0 L2,0 L79,554 L263,554"/> 
            <glyph glyph-name="Ł" unicode="&#x141;" horiz-adv-x="557" d=" M125,744 L360,744 L329,520 L475,573 L458,450 L311,396 L282,191 L557,191 L531,0 L128,0 Q77,0 52.5,27.5 Q28,55 35,104 L64,308 L14,291 L32,414 L81,432"/> 
            <glyph glyph-name="ł" unicode="&#x142;" horiz-adv-x="343" d=" M323,763 L292,550 L343,575 L325,446 L274,421 L215,0 L22,0 L67,322 L16,297 L34,426 L85,450 L129,763"/> 
            <glyph glyph-name="Œ" unicode="&#x152;" horiz-adv-x="1022" d=" M920,0 L335,0 Q196,0 116.5,79.5 Q37,159 37,303 Q37,507 149.5,625.5 Q262,744 438,744 L1022,744 L998,573 L702,573 L686,460 L944,460 L921,296 L663,296 L646,171 L944,171 M424,567 Q382,567 350,541 Q318,515 300.5,474.5 Q283,434 275,392 Q267,350 267,310 Q267,246 292.5,212.5 Q318,179 364,179 L415,179 L469,567"/> 
            <glyph glyph-name="œ" unicode="&#x153;" horiz-adv-x="888" d=" M335,560 Q437,560 494,505 Q566,561 663,561 Q778,561 833,493 Q888,425 870,290 Q866,253 847.5,237.5 Q829,222 792,222 L547,222 Q548,141 637,141 Q706,141 775,164 L826,181 L840,44 L788,26 Q697,-6 607,-6 Q495,-6 435,52 Q359,-6 253,-6 Q145,-6 85.5,54.5 Q26,115 26,224 Q26,382 113,471 Q200,560 335,560 M275,129 Q303,129 324,151.5 Q345,174 354.5,209.5 Q364,245 368,276.5 Q372,308 372,336 Q372,425 313,425 Q272,425 244.5,370 Q217,315 217,218 Q217,129 275,129 M697,339 Q704,380 690.5,405 Q677,430 642,430 Q612,430 591,406.5 Q570,383 562,339"/> 
            <glyph glyph-name="Š" unicode="&#x160;" horiz-adv-x="651" d=" M325,468 L428,437 Q511,412 552.5,365.5 Q594,319 594,242 Q594,116 507.5,53.5 Q421,-9 287,-9 Q165,-9 68,26 L4,49 L58,242 L124,215 Q218,176 309,176 Q338,176 356.5,188.5 Q375,201 375,227 Q375,260 331,273 L227,304 Q62,353 62,498 Q62,627 147,688.5 Q232,750 368,750 Q479,750 586,714 L651,692 L595,498 L529,525 Q433,564 348,565 Q281,565 281,514 Q281,481 325,468 M377,775 Q314,775 284,813 L194,942 L367,942 L393,889 L431,942 L602,942 L479,813 Q443,775 377,775"/> 
            <glyph glyph-name="š" unicode="&#x161;" horiz-adv-x="531" d=" M260,353 L345,335 Q478,307 478,185 Q478,91 409,42.5 Q340,-6 231,-6 Q131,-6 53,21 L0,39 L42,182 L96,161 Q174,131 246,131 Q296,131 296,171 Q296,196 261,203 L177,221 Q43,249 43,371 Q43,465 111,512.5 Q179,560 289,560 Q390,560 468,533 L521,515 L479,373 L424,393 Q342,423 276,423 Q225,423 225,384 Q225,360 260,353 M306,596 Q243,596 213,634 L123,763 L296,763 L322,710 L360,763 L531,763 L408,634 Q372,596 306,596"/> 
            <glyph glyph-name="Ÿ" unicode="&#x178;" horiz-adv-x="783" d=" M250,295 L76,744 L322,744 L395,503 L532,744 L783,744 L483,296 L442,0 L209,0 M436,886 Q436,840 406.5,810 Q377,780 330,780 Q291,780 269.5,799 Q248,818 248,852 Q248,900 278,929 Q308,958 355,958 Q394,958 415,939 Q436,920 436,886 M647,886 Q647,839 618.5,809.5 Q590,780 542,780 Q502,780 480.5,799 Q459,818 459,852 Q459,900 489,929 Q519,958 567,958 Q606,958 626.5,939 Q647,920 647,886"/> 
            <glyph glyph-name="Ž" unicode="&#x17D;" horiz-adv-x="668" d=" M367,571 L92,571 L116,744 L583,744 Q668,744 668,663 Q668,600 619,543 L306,173 L594,173 L570,0 L87,0 Q1,0 1,84 Q1,143 51,201 M391,775 Q328,775 298,813 L208,942 L381,942 L407,889 L445,942 L616,942 L493,813 Q457,775 391,775"/> 
            <glyph glyph-name="ž" unicode="&#x17E;" horiz-adv-x="538" d=" M276,416 L60,416 L79,554 L458,554 Q494,554 513,534 Q532,514 532,481 Q532,428 489,382 L262,138 L480,138 L461,0 L78,0 Q4,0 4,72 Q4,125 47,171 M313,596 Q250,596 220,634 L130,763 L303,763 L329,710 L367,763 L538,763 L415,634 Q379,596 313,596"/> 
            <glyph glyph-name="ƒ" unicode="&#x192;" horiz-adv-x="520" d=" M150,14 L150,410 L82,410 L82,554 L150,554 L150,578 Q150,671 206,718 Q262,765 364,765 Q436,765 520,738 L498,597 Q445,614 409,614 Q374,614 360.5,603 Q347,592 347,561 L347,554 L493,554 L493,410 L347,410 L347,11 Q347,-181 91,-181 L91,-41 Q123,-40 136.5,-27 Q150,-14 150,14"/> 
            <glyph glyph-name="ˆ" unicode="&#x2C6;" horiz-adv-x="517" d=" M335,769 Q400,769 427,730 L517,602 L345,602 L318,654 L281,602 L108,602 L232,730 Q271,769 335,769"/> 
            <glyph glyph-name="ˇ" unicode="&#x2C7;" horiz-adv-x="537" d=" M312,596 Q249,596 219,634 L129,763 L302,763 L328,710 L366,763 L537,763 L414,634 Q378,596 312,596"/> 
            <glyph glyph-name="˘" unicode="&#x2D8;" horiz-adv-x="507" d=" M113,763 L270,763 Q266,732 274,715 Q282,698 301,698 Q340,698 350,763 L507,763 Q497,687 436,641 Q375,595 291,595 Q206,595 154.5,641.5 Q103,688 113,763"/> 
            <glyph glyph-name="˙" unicode="&#x2D9;" horiz-adv-x="411" d=" M411,701 Q411,653 378,624 Q345,595 295,595 Q251,595 228,615 Q205,635 205,671 Q205,719 237,747.5 Q269,776 321,776 Q411,776 411,701"/> 
            <glyph glyph-name="˚" unicode="&#x2DA;" horiz-adv-x="461" d=" M305,587 Q253,587 219.5,618.5 Q186,650 186,704 Q186,770 232.5,811 Q279,852 342,852 Q394,852 427.5,822 Q461,792 461,739 Q461,673 414.5,630 Q368,587 305,587 M330,771 Q308,771 292.5,753 Q277,735 277,711 Q277,692 287.5,680.5 Q298,669 316,669 Q338,669 354,686.5 Q370,704 370,729 Q370,747 359,759 Q348,771 330,771"/> 
            <glyph glyph-name="˛" unicode="&#x2DB;" horiz-adv-x="342" d=" M327,-59 L342,-144 Q272,-171 203,-171 Q151,-171 118,-149.5 Q85,-128 85,-89 Q85,-30 148,0 L235,11 L239,0 Q193,-28 193,-55 Q193,-82 225,-82 Q271,-82 327,-59"/> 
            <glyph glyph-name="˜" unicode="&#x2DC;" horiz-adv-x="525" d=" M361,594 Q319,594 284,621 L263,637 Q244,652 228,652 Q197,652 166,595 L91,651 Q151,776 256,776 Q300,776 333,749 L354,733 Q371,718 388,718 Q418,718 450,777 L525,718 Q465,594 361,594"/> 
            <glyph glyph-name="˝" unicode="&#x2DD;" horiz-adv-x="558" d=" M339,763 L209,634 Q172,595 126,595 Q102,595 88.5,608.5 Q75,622 75,642 Q75,671 98,694 L168,763 M558,763 L428,634 Q389,595 346,595 Q321,595 307.5,608.5 Q294,622 294,642 Q294,670 317,694 L384,763"/> 
            <glyph glyph-name="π" unicode="&#x3C0;" horiz-adv-x="712" d=" M21,554 L692,554 L692,410 L543,410 L543,203 Q543,171 557,158 Q571,145 605,145 Q640,145 690,161 L712,20 Q631,-6 560,-6 Q459,-6 402.5,43.5 Q346,93 346,186 L346,410 L284,410 L284,0 L86,0 L86,410 L21,410"/> 
            <glyph glyph-name="–" unicode="&#x2013;" horiz-adv-x="542" d=" M522,254 L27,254 L47,395 L542,395"/> 
            <glyph glyph-name="—" unicode="&#x2014;" horiz-adv-x="896" d=" M876,254 L54,254 L74,394 L896,394"/> 
            <glyph glyph-name="‘" unicode="&#x2018;" horiz-adv-x="313" d=" M51,497 L136,703 Q161,763 233,763 Q280,763 296.5,736 Q313,709 300,671 L240,497"/> 
            <glyph glyph-name="’" unicode="&#x2019;" horiz-adv-x="315" d=" M315,762 L230,557 Q206,497 133,497 Q87,497 70.5,524 Q54,551 66,590 L126,762"/> 
            <glyph glyph-name="‚" unicode="&#x201A;" horiz-adv-x="231" d=" M231,175 L147,-32 Q124,-92 51,-92 Q5,-92 -11.5,-65.5 Q-28,-39 -16,0 L42,175"/> 
            <glyph glyph-name="“" unicode="&#x201C;" horiz-adv-x="488" d=" M40,497 L125,704 Q150,764 213,764 Q257,764 272,738 Q287,712 270,672 L210,497 M243,497 L328,704 Q354,764 416,764 Q461,764 474.5,738 Q488,712 473,672 L413,497"/> 
            <glyph glyph-name="”" unicode="&#x201D;" horiz-adv-x="497" d=" M497,763 L413,557 Q401,530 377.5,513.5 Q354,497 324,497 Q286,497 271,514 Q256,531 260,559 Q261,564 267,590 L327,763 M294,763 L210,557 Q185,497 122,497 Q84,497 68.5,514 Q53,531 57,559 Q58,570 65,590 L124,763"/> 
            <glyph glyph-name="„" unicode="&#x201E;" horiz-adv-x="413" d=" M413,175 L330,-32 Q305,-92 242,-92 Q203,-92 188,-75.5 Q173,-59 177,-30 Q182,-9 185,0 L243,175 M210,175 L127,-32 Q103,-92 40,-92 Q2,-92 -13.5,-75.5 Q-29,-59 -25,-30 Q-20,-9 -17,0 L40,175"/> 
            <glyph glyph-name="†" unicode="&#x2020;" horiz-adv-x="563" d=" M536,363 L374,379 L309,-186 L116,-186 L212,380 L43,363 L70,558 L232,544 L245,744 L443,744 L401,544 L563,557"/> 
            <glyph glyph-name="‡" unicode="&#x2021;" horiz-adv-x="562" d=" M185,181 L179,280 L211,377 L42,360 L69,555 L232,541 L244,744 L442,744 L399,541 L562,554 L535,360 L371,377 L381,280 L345,181 L513,198 L486,4 L327,17 L313,-186 L115,-186 L159,17 L-7,3 L20,198"/> 
            <glyph glyph-name="•" unicode="&#x2022;" horiz-adv-x="415" d=" M415,419 Q415,241 367.5,191.5 Q320,142 237,142 Q155,142 107.5,191.5 Q60,241 60,330 Q60,419 107.5,468.5 Q155,518 237,518 Q320,518 415,419"/> 
            <glyph glyph-name="…" unicode="&#x2026;" horiz-adv-x="748" d=" M210,102 Q210,51 177.5,20.5 Q145,-10 95,-10 Q51,-10 27.5,11.5 Q4,33 4,70 Q4,121 35.5,151 Q67,181 119,181 Q164,181 187,160 Q210,139 210,102 M479,102 Q479,51 446.5,20.5 Q414,-10 364,-10 Q320,-10 296.5,11.5 Q273,33 273,70 Q273,121 304.5,151 Q336,181 388,181 Q433,181 456,160 Q479,139 479,102 M748,102 Q748,51 715.5,20.5 Q683,-10 633,-10 Q589,-10 565.5,11.5 Q542,33 542,70 Q542,121 573.5,151 Q605,181 657,181 Q702,181 725,160 Q748,139 748,102"/> 
            <glyph glyph-name="‰" unicode="&#x2030;" horiz-adv-x="1219" d=" M441,602 Q441,511 382.5,443 Q324,375 228,375 Q151,375 109.5,417.5 Q68,460 68,539 Q68,642 127.5,702.5 Q187,763 280,763 Q356,763 398.5,720.5 Q441,678 441,602 M244,495 Q263,495 276,525 Q289,555 289,600 Q289,644 264,644 Q246,644 233.5,614 Q221,584 221,538 Q221,495 244,495 M825,744 L247,0 L69,0 L648,744 M832,210 Q832,119 773.5,51 Q715,-17 619,-17 Q542,-17 500.5,25.5 Q459,68 459,147 Q459,250 518.5,310.5 Q578,371 671,371 Q748,371 790,328.5 Q832,286 832,210 M635,103 Q654,103 667,133 Q680,163 680,208 Q680,252 655,252 Q637,252 624.5,222 Q612,192 612,146 Q612,103 635,103 M1219,210 Q1219,119 1160.5,51 Q1102,-17 1006,-17 Q929,-17 887.5,25.5 Q846,68 846,147 Q846,250 905.5,310.5 Q965,371 1058,371 Q1134,371 1176.5,328.5 Q1219,286 1219,210 M1022,103 Q1041,103 1054,133 Q1067,163 1067,208 Q1067,252 1042,252 Q1024,252 1011.5,222 Q999,192 999,146 Q999,103 1022,103"/> 
            <glyph glyph-name="‹" unicode="&#x2039;" horiz-adv-x="380" d=" M22,271 Q22,312 59,349 L190,482 L380,482 L186,278 L324,84 L139,84 L42,215 Q22,242 22,271"/> 
            <glyph glyph-name="›" unicode="&#x203A;" horiz-adv-x="350" d=" M350,294 Q350,253 313,216 L182,84 L-8,84 L186,287 L48,482 L233,482 L330,350 Q350,323 350,294"/> 
            <glyph glyph-name="⁄" unicode="&#x2044;" horiz-adv-x="825" d=" M825,744 L247,0 L69,0 L648,744"/> 
            <glyph glyph-name="€" unicode="&#x20AC;" horiz-adv-x="587" d=" M438,406 L290,406 L281,346 L429,346 L414,235 L270,235 Q262,151 341,151 Q392,151 451,170 L495,184 L515,34 L469,19 Q391,-8 307,-8 Q188,-8 127,52.5 Q66,113 78,235 L18,235 L33,346 L90,346 L99,406 L42,406 L57,516 L117,516 Q140,637 215.5,695 Q291,753 399,753 Q462,753 545,726 L587,712 L550,561 L510,575 Q447,598 402,598 Q324,598 310,516 L453,516"/> 
            <glyph glyph-name="™" unicode="&#x2122;" horiz-adv-x="947" d=" M428,640 L320,640 L320,322 L178,322 L178,640 L70,640 L70,744 L428,744 M821,570 L770,366 Q758,319 700,319 Q641,319 629,366 L580,570 L580,322 L458,322 L458,664 Q458,705 486,727 Q514,749 563,749 Q655,749 672,673 L703,536 L737,673 Q755,749 849,749 Q895,749 921,727.5 Q947,706 947,667 L947,322 L821,322"/> 
            <glyph glyph-name="Ω" unicode="&#x2126;" horiz-adv-x="789" d=" M536,425 Q536,502 503,543.5 Q470,585 407,585 Q345,585 313.5,543.5 Q282,502 282,425 Q282,357 308.5,316 Q335,275 384,267 L384,0 L68,0 L68,147 L257,147 L257,181 Q149,208 89.5,278.5 Q30,349 30,455 Q30,594 134,672 Q238,750 411,750 Q585,750 687,672.5 Q789,595 789,455 Q789,351 730,281 Q671,211 566,183 L566,147 L759,147 L759,0 L439,0 L439,267 Q536,285 536,425"/> 
            <glyph glyph-name="∂" unicode="&#x2202;" horiz-adv-x="564" d=" M354,251 L354,326 Q328,335 302,335 Q265,335 250,312 Q235,289 235,245 Q235,161 294,161 Q354,161 354,251 M23,249 Q23,370 83.5,434 Q144,498 263,498 Q286,498 309,495 Q332,492 343,488 L354,485 L354,514 Q354,580 267,580 Q197,580 120,552 L69,534 L40,699 L96,718 Q190,750 283,750 Q409,750 486.5,688 Q564,626 564,513 L564,254 Q564,133 492.5,64 Q421,-5 294,-5 Q165,-5 94,63.5 Q23,132 23,249"/> 
            <glyph glyph-name="∆" unicode="&#x2206;" horiz-adv-x="720" d=" M720,0 L20,0 L208,647 Q243,751 374,751 Q503,751 537,647 M369,484 L302,177 L436,177"/> 
            <glyph glyph-name="∏" unicode="&#x220F;" horiz-adv-x="712" d=" M712,578 L638,578 L638,0 L414,0 L414,578 L329,578 L329,0 L106,0 L106,578 L30,578 L30,744 L712,744"/> 
            <glyph glyph-name="∑" unicode="&#x2211;" horiz-adv-x="680" d=" M477,284 L270,-15 L504,-15 L504,78 L680,78 L680,-179 L134,-179 Q83,-179 56.5,-150 Q30,-121 30,-73 Q30,-28 67,23 L251,284 L67,542 Q30,593 30,638 Q30,686 56.5,715 Q83,744 134,744 L670,744 L670,487 L494,487 L494,580 L270,580"/> 
            <glyph glyph-name="−" unicode="&#x2212;" horiz-adv-x="515" d=" M515,250 L40,250 L40,397 L515,397"/> 
            <glyph glyph-name="√" unicode="&#x221A;" horiz-adv-x="693" d=" M693,600 L601,600 L462,78 Q438,-12 319,-12 Q202,-12 178,78 L88,410 L11,410 L11,554 L256,554 L323,222 L436,744 L693,744"/> 
            <glyph glyph-name="∞" unicode="&#x221E;" horiz-adv-x="768" d=" M297,229 L306,234 L306,365 L297,370 Q276,382 254,382 Q203,382 203,299 Q203,217 254,217 Q276,217 297,229 M400,472 L432,488 Q501,524 560,524 Q664,524 716,463.5 Q768,403 768,299 Q768,195 716,134.5 Q664,74 560,74 Q501,74 432,110 L400,126 L369,110 Q300,74 241,74 Q137,74 85,134.5 Q33,195 33,299 Q33,403 85,463.5 Q137,524 241,524 Q300,524 369,488 M495,234 L504,229 Q525,217 547,217 Q598,217 598,299 Q598,382 547,382 Q525,382 504,370 L495,365"/> 
            <glyph glyph-name="∫" unicode="&#x222B;" horiz-adv-x="519" d=" M346,556 L346,11 Q346,-181 90,-181 L90,-41 Q122,-40 135.5,-27 Q149,-14 149,14 L149,573 Q149,666 205.5,715.5 Q262,765 363,765 Q435,765 519,738 L497,597 Q444,614 408,614 Q374,614 360,601 Q346,588 346,556"/> 
            <glyph glyph-name="≈" unicode="&#x2248;" horiz-adv-x="556" d=" M336,87 Q283,87 242,118 L216,137 Q194,153 172,153 Q133,153 96,91 L6,156 Q80,291 199,291 Q245,291 291,260 L320,240 Q344,225 364,225 Q408,225 443,289 L532,218 Q457,87 336,87 M359,305 Q312,305 266,336 L238,355 Q213,371 196,371 Q156,371 120,309 L29,374 Q105,509 222,509 Q269,509 315,478 L343,459 Q365,443 386,443 Q430,443 466,507 L556,436 Q514,365 466,335 Q418,305 359,305"/> 
            <glyph glyph-name="≠" unicode="&#x2260;" horiz-adv-x="517" d=" M517,134 L268,134 L222,36 L75,36 L121,134 L38,134 L38,270 L186,270 L213,327 L38,327 L38,463 L278,463 L334,578 L478,578 L424,463 L517,463 L517,327 L359,327 L333,270 L517,270"/> 
            <glyph glyph-name="≤" unicode="&#x2264;" horiz-adv-x="517" d=" M517,153 L122,252 Q39,274 39,361 Q39,449 119,470 L517,572 L517,419 L236,361 L517,302 M517,0 L38,0 L38,139 L517,139"/> 
            <glyph glyph-name="≥" unicode="&#x2265;" horiz-adv-x="517" d=" M432,252 L38,153 L38,302 L319,361 L38,419 L38,572 L435,470 Q516,449 516,361 Q516,273 432,252 M517,0 L38,0 L38,139 L517,139"/> 
            <glyph glyph-name="◊" unicode="&#x25CA;" horiz-adv-x="657" d=" M657,371 L434,31 Q407,-11 333,-11 Q301,-11 273,0.5 Q245,12 232,33 L10,371 L232,711 Q261,755 335,755 Q407,755 435,711 M435,372 L335,542 L236,372 L335,201"/> 
            <glyph glyph-name="ﬁ" unicode="&#xFB01;" horiz-adv-x="706" d=" M284,416 L227,7 Q201,-184 -38,-184 L-20,-50 Q11,-49 25,-34.5 Q39,-20 43,10 L99,416 L36,416 L55,554 L119,554 L123,583 Q136,675 195,722 Q254,769 350,769 Q414,769 490,742 L452,607 Q403,624 370,624 Q339,624 325,612 Q311,600 305,566 L303,554 L672,554 L595,0 L410,0 L468,416 M706,728 Q694,644 664,619.5 Q634,595 587,595 Q539,595 515.5,619.5 Q492,644 498,686 Q504,728 534.5,752 Q565,776 613,776 Q660,776 706,728"/> 
            <glyph glyph-name="ﬂ" unicode="&#xFB02;" horiz-adv-x="711" d=" M284,416 L227,7 Q201,-184 -38,-184 L-20,-50 Q11,-49 25,-34.5 Q39,-20 43,10 L99,416 L36,416 L55,554 L119,554 L123,583 Q136,675 198.5,723.5 Q261,772 362,772 Q440,772 513,747 L711,781 L602,0 L409,0 L495,612 Q441,627 389,627 Q348,627 329.5,613.5 Q311,600 305,566 L303,554 L439,554 L420,416"/> 
            <glyph glyph-name=" " unicode="&#x20;" horiz-adv-x="290" d=" M106,744 L290,744 L217,231 L34,231 M209,96 Q209,48 176,19 Q143,-10 93,-10 Q49,-10 26,10 Q3,30 3,66 Q3,114 35,142.5 Q67,171 119,171 Q209,171 209,96"/> 
            <glyph glyph-name="!" unicode="&#x21;" horiz-adv-x="480" d=" M269,763 L253,495 L105,495 L88,763 M480,763 L464,495 L316,495 L299,763"/> 
            <glyph glyph-name="&quot;" unicode="&#x22;" horiz-adv-x="676" d=" M676,554 L654,411 L557,411 L541,324 L638,324 L617,180 L514,180 L481,0 L323,0 L357,180 L268,180 L233,0 L74,0 L109,180 L19,180 L40,324 L136,324 L153,411 L56,411 L77,554 L180,554 L216,744 L374,744 L338,554 L424,554 L460,744 L618,744 L582,554 M399,411 L311,411 L294,324 L383,324"/> 
            <glyph glyph-name="#" unicode="&#x23;" horiz-adv-x="590" d=" M149,-129 L167,-1 Q114,1 56,21 L-1,41 L53,222 L111,201 Q192,172 264,172 Q293,172 310.5,186.5 Q328,201 328,227 Q328,262 291,275 L210,304 Q58,358 58,500 Q58,604 118,665.5 Q178,727 272,745 L290,867 L436,867 L418,745 Q466,742 530,724 L590,706 L537,520 L479,541 Q398,570 321,571 Q294,571 277.5,558 Q261,545 261,520 Q261,484 301,469 L379,439 Q458,409 494,363.5 Q530,318 530,245 Q530,41 313,-1 L295,-129"/> 
            <glyph glyph-name="$" unicode="&#x24;" horiz-adv-x="832" d=" M441,602 Q441,511 382.5,443 Q324,375 228,375 Q151,375 109.5,417.5 Q68,460 68,539 Q68,642 127.5,702.5 Q187,763 280,763 Q356,763 398.5,720.5 Q441,678 441,602 M244,495 Q263,495 276,525 Q289,555 289,600 Q289,644 264,644 Q246,644 233.5,614 Q221,584 221,538 Q221,495 244,495 M825,744 L247,0 L69,0 L648,744 M832,210 Q832,119 773.5,51 Q715,-17 619,-17 Q542,-17 500.5,25.5 Q459,68 459,147 Q459,250 518.5,310.5 Q578,371 671,371 Q748,371 790,328.5 Q832,286 832,210 M635,103 Q654,103 667,133 Q680,163 680,208 Q680,252 655,252 Q637,252 624.5,222 Q612,192 612,146 Q612,103 635,103"/> 
            <glyph glyph-name="%" unicode="&#x25;" horiz-adv-x="706" d=" M545,461 L706,461 L698,401 Q677,245 571,134 L661,0 L445,0 L421,34 Q415,29 402,21.5 Q389,14 342.5,2 Q296,-10 242,-10 Q135,-10 81,45.5 Q27,101 27,188 Q27,330 169,403 Q134,464 134,531 Q134,640 201,699.5 Q268,759 371,759 Q461,759 513.5,714 Q566,669 566,589 Q566,543 550,505 Q534,467 505,440 Q476,413 454,398 Q432,383 402,367 L481,258 Q499,277 515.5,320 Q532,363 538,407 M324,471 Q398,506 398,578 Q398,598 388,610 Q378,622 361,622 Q334,622 318,599 Q302,576 302,538 Q302,503 324,471 M342,147 L247,277 Q243,275 237.5,270 Q232,265 222.5,244.5 Q213,224 213,199 Q213,169 231,151 Q249,133 279,133 Q295,133 311,136.5 Q327,140 334,144"/> 
            <glyph glyph-name="&amp;" unicode="&#x26;" horiz-adv-x="289" d=" M289,763 L273,495 L105,495 L88,763"/> 
            <glyph glyph-name="'" unicode="&#x27;" horiz-adv-x="410" d=" M40,228 Q40,303 50.5,372.5 Q61,442 88,511 Q115,580 155.5,630.5 Q196,681 261.5,712.5 Q327,744 410,744 L391,611 Q316,610 271.5,504.5 Q227,399 227,224 Q227,66 314,63 L295,-74 Q258,-74 225.5,-67.5 Q193,-61 158,-40.5 Q123,-20 98,12 Q73,44 56.5,99.5 Q40,155 40,228"/> 
            <glyph glyph-name="(" unicode="&#x28;" horiz-adv-x="361" d=" M361,442 Q361,367 350.5,297.5 Q340,228 313,159 Q286,90 245.5,39.5 Q205,-11 139.5,-42.5 Q74,-74 -9,-74 L10,59 Q85,60 129.5,165.5 Q174,271 174,446 Q174,604 87,607 L106,744 Q143,744 175.5,737.5 Q208,731 243,710.5 Q278,690 303,658 Q328,626 344.5,570.5 Q361,515 361,442"/> 
            <glyph glyph-name=")" unicode="&#x29;" horiz-adv-x="564" d=" M564,527 L427,495 L517,391 L368,293 L311,402 L252,294 L105,392 L194,496 L57,528 L108,690 L227,640 L217,763 L404,763 L394,639 L513,688"/> 
            <glyph glyph-name="*" unicode="&#x2A;" horiz-adv-x="517" d=" M517,220 L354,220 L354,35 L196,35 L196,220 L38,220 L38,366 L196,366 L196,552 L354,552 L354,366 L517,366"/> 
            <glyph glyph-name="+" unicode="&#x2B;" horiz-adv-x="230" d=" M230,175 L146,-32 Q123,-92 50,-92 Q4,-92 -12.5,-65.5 Q-29,-39 -17,0 L41,175"/> 
            <glyph glyph-name="," unicode="&#x2C;" horiz-adv-x="405" d=" M385,254 L28,254 L48,396 L405,396"/> 
            <glyph glyph-name="-" unicode="&#x2D;" horiz-adv-x="210" d=" M210,102 Q210,51 177.5,20.5 Q145,-10 95,-10 Q51,-10 27.5,11.5 Q4,33 4,70 Q4,121 35.5,151 Q67,181 119,181 Q164,181 187,160 Q210,139 210,102"/> 
            <glyph glyph-name="." unicode="&#x2E;" horiz-adv-x="481" d=" M481,744 L133,0 L-29,0 L325,744"/> 
            <glyph glyph-name="/" unicode="&#x2F;" horiz-adv-x="571" d=" M321,229 L361,516 Q372,593 322,593 Q273,593 262,516 L222,229 Q211,153 262,153 Q310,153 321,229 M554,505 L516,234 Q499,115 430,53 Q361,-9 243,-9 Q123,-9 67.5,56 Q12,121 29,240 L67,511 Q83,630 154,692 Q225,754 342,754 Q462,754 516.5,689.5 Q571,625 554,505"/> 
            <glyph glyph-name="0" unicode="&#x30;" horiz-adv-x="517" d=" M448,639 L380,154 L517,154 L496,0 L-10,0 L11,154 L179,154 L239,581 L229,581 Q208,581 173.5,572.5 Q139,564 117,549 L112,704 Q189,744 289,744 L355,744 Q406,744 430.5,716 Q455,688 448,639"/> 
            <glyph glyph-name="1" unicode="&#x31;" horiz-adv-x="553" d=" M39,171 L246,353 Q303,403 327,438 Q351,473 350,523 Q350,588 278,588 Q229,588 147,560 L98,543 L74,697 L128,716 Q234,753 329,753 Q438,753 495.5,702.5 Q553,652 553,554 Q553,474 517.5,410 Q482,346 391,264 L266,151 L499,151 L478,0 L70,0 Q-3,0 -3,74 Q-3,135 39,171"/> 
            <glyph glyph-name="2" unicode="&#x32;" horiz-adv-x="560" d=" M284,587 Q235,587 153,559 L104,542 L80,696 L134,715 Q240,752 336,752 Q444,752 502,706 Q560,660 560,570 Q560,475 486,393 L464,369 L479,351 Q523,299 523,229 Q523,114 443,53.5 Q363,-7 229,-7 Q121,-7 36,27 L-14,47 L34,203 L86,184 Q169,153 230,153 Q278,153 302.5,174.5 Q327,196 327,235 Q327,259 315,280 L304,299 L162,299 L182,444 L314,444 L332,461 Q358,486 358,531 Q358,587 284,587"/> 
            <glyph glyph-name="3" unicode="&#x33;" horiz-adv-x="556" d=" M275,112 L71,112 Q35,112 16.5,130.5 Q-2,149 -2,181 Q-2,227 34,284 L299,674 Q349,750 437,750 Q556,750 540,637 L486,263 L543,263 L522,112 L465,112 L450,0 L260,0 M321,430 L212,263 L296,263"/> 
            <glyph glyph-name="4" unicode="&#x34;" horiz-adv-x="576" d=" M240,-7 Q132,-7 47,27 L-3,47 L45,203 L97,184 Q180,153 241,153 Q336,153 336,272 Q336,342 263,342 Q200,342 119,319 L66,304 L128,744 L576,744 L553,579 L264,579 L251,481 Q289,494 338,494 Q535,494 535,302 Q535,149 457,71 Q379,-7 240,-7"/> 
            <glyph glyph-name="5" unicode="&#x35;" horiz-adv-x="572" d=" M233,331 L222,251 Q209,155 264,155 Q294,155 314.5,186.5 Q335,218 335,278 Q335,340 283,340 Q272,340 259.5,338 Q247,336 240,334 M536,303 Q536,171 459,83 Q382,-5 242,-5 Q122,-5 66,66.5 Q10,138 27,257 L64,519 Q80,632 158,691 Q236,750 353,750 Q434,750 523,717 L572,699 L529,540 L484,557 Q412,585 351,585 Q308,585 285.5,569 Q263,553 259,517 L255,484 Q293,497 341,497 Q437,497 486.5,447 Q536,397 536,303"/> 
            <glyph glyph-name="6" unicode="&#x36;" horiz-adv-x="588" d=" M361,579 L76,579 L99,744 L507,744 Q588,744 588,667 Q588,621 552,551 L270,0 L55,0"/> 
            <glyph glyph-name="7" unicode="&#x37;" horiz-adv-x="559" d=" M244,-7 Q135,-7 73,41 Q11,89 11,182 Q11,236 31,277.5 Q51,319 95,366 L113,385 L101,408 Q73,462 73,516 Q73,629 147,691.5 Q221,754 340,754 Q442,754 500.5,707.5 Q559,661 559,573 Q559,474 492,397 L471,372 L486,354 Q525,306 527,236 Q527,120 449,56.5 Q371,-7 244,-7 M261,143 Q295,143 315.5,168 Q336,193 336,232 Q336,260 323,280 L311,299 L252,299 L236,279 Q204,242 205,201 Q205,175 219.5,159 Q234,143 261,143 M322,598 Q292,598 273,574.5 Q254,551 254,515 Q254,493 267,465 L276,446 L328,446 L344,465 Q376,503 376,540 Q376,598 322,598"/> 
            <glyph glyph-name="8" unicode="&#x38;" horiz-adv-x="573" d=" M350,414 L361,494 Q376,590 319,590 Q289,590 268.5,558.5 Q248,527 248,467 Q248,405 300,405 Q311,405 323.5,407.5 Q336,410 343,412 M47,443 Q47,574 124.5,662 Q202,750 341,750 Q460,750 516.5,678.5 Q573,607 556,488 L519,226 Q503,113 425.5,54 Q348,-5 230,-5 Q149,-5 60,28 L11,46 L54,205 L99,188 Q171,160 232,160 Q275,160 297.5,176 Q320,192 324,228 L328,261 Q290,248 242,248 Q146,248 96.5,297.5 Q47,347 47,443"/> 
            <glyph glyph-name="9" unicode="&#x39;" horiz-adv-x="263" d=" M210,102 Q210,51 177.5,20.5 Q145,-10 95,-10 Q51,-10 27.5,11.5 Q4,33 4,70 Q4,121 35.5,151 Q67,181 119,181 Q164,181 187,160 Q210,139 210,102 M263,475 Q263,424 230.5,393.5 Q198,363 148,363 Q104,363 80.5,384.5 Q57,406 57,443 Q57,494 88.5,524 Q120,554 172,554 Q217,554 240,533 Q263,512 263,475"/> 
            <glyph glyph-name=":" unicode="&#x3A;" horiz-adv-x="263" d=" M230,175 L146,-32 Q121,-92 50,-92 Q4,-92 -13,-65 Q-30,-38 -17,0 L41,175 M263,475 Q263,424 230.5,393.5 Q198,363 148,363 Q104,363 80.5,384.5 Q57,406 57,443 Q57,494 88.5,524 Q120,554 172,554 Q217,554 240,533 Q263,512 263,475"/> 
            <glyph glyph-name=";" unicode="&#x3B;" horiz-adv-x="517" d=" M517,29 L124,166 Q38,195 38,296 Q38,398 121,426 L517,567 L517,371 L229,296 L517,220"/> 
            <glyph glyph-name="&lt;" unicode="&#x3C;" horiz-adv-x="517" d=" M517,134 L38,134 L38,273 L517,273 M517,324 L38,324 L38,463 L517,463"/> 
            <glyph glyph-name="=" unicode="&#x3D;" horiz-adv-x="517" d=" M431,166 L38,29 L38,220 L325,296 L38,371 L38,567 L433,426 Q517,398 517,296 Q517,195 431,166"/> 
            <glyph glyph-name="&gt;" unicode="&#x3E;" horiz-adv-x="471" d=" M108,231 L117,293 Q126,360 171,401 L239,465 Q262,487 273,504.5 Q284,522 284,547 Q284,591 238,591 Q200,591 148,575 L92,558 L70,708 L121,722 Q215,747 272,747 Q471,747 471,586 Q471,521 443.5,473 Q416,425 365,381 L302,327 L288,231 M279,96 Q279,48 246,19 Q213,-10 163,-10 Q119,-10 96,10 Q73,30 73,66 Q73,114 105,142.5 Q137,171 189,171 Q279,171 279,96"/> 
            <glyph glyph-name="?" unicode="&#x3F;" horiz-adv-x="855" d=" M659,572 L616,264 Q628,258 640,258 Q680,258 707,298.5 Q734,339 734,410 Q734,519 672.5,579.5 Q611,640 488,640 Q364,640 284.5,556 Q205,472 205,348 Q205,236 266.5,167 Q328,98 438,98 Q474,98 545,116 Q616,134 653,134 Q690,134 725,116 L792,77 L747,-14 L679,17 Q665,23 646,23 Q625,23 560.5,6 Q496,-11 434,-11 Q269,-11 174.5,90 Q80,191 80,348 Q80,520 197.5,636.5 Q315,753 488,753 Q654,753 754.5,659.5 Q855,566 855,409 Q855,298 790.5,231 Q726,164 636,164 Q613,164 586,170.5 Q559,177 545,177 Q529,177 492.5,169.5 Q456,162 427,162 Q339,162 295.5,207.5 Q252,253 252,336 Q252,425 311.5,489.5 Q371,554 472,554 L522,551 L525,572 M441,267 Q450,267 460.5,268.5 Q471,270 477,272 L483,274 L508,448 Q491,451 471,451 Q434,451 414,417.5 Q394,384 394,334 Q394,267 441,267"/> 
            <glyph glyph-name="@" unicode="&#x40;" horiz-adv-x="657" d=" M657,0 L430,0 L421,106 L246,106 L207,0 L-29,0 L252,646 Q298,753 426,753 Q552,753 567,647 M390,505 L306,274 L409,274"/> 
            <glyph glyph-name="A" unicode="&#x41;" horiz-adv-x="661" d=" M360,0 L109,0 Q63,0 38.5,22.5 Q14,45 14,86 Q14,98 15,104 L90,640 Q97,689 130,716.5 Q163,744 213,744 L462,744 Q560,744 610.5,702 Q661,660 661,580 Q661,479 587,400 L568,380 L583,360 Q633,302 633,227 Q633,119 560.5,59.5 Q488,0 360,0 M396,453 L419,480 Q440,504 440,537 Q440,557 428.5,569.5 Q417,582 394,582 L311,582 L293,453 M380,294 L271,294 L252,163 L345,163 Q374,163 392,181 Q410,199 410,228 Q410,251 398,268"/> 
            <glyph glyph-name="B" unicode="&#x42;" horiz-adv-x="682" d=" M592,240 L611,52 L550,31 Q437,-8 332,-8 Q194,-8 116,71 Q38,150 38,299 Q38,409 70,496.5 Q102,584 157,639 Q212,694 283.5,722.5 Q355,751 437,751 Q537,751 627,717 L682,696 L631,510 L574,530 Q506,553 442,553 Q370,553 325.5,493.5 Q281,434 281,320 Q281,193 392,193 Q461,193 532,218"/> 
            <glyph glyph-name="C" unicode="&#x43;" horiz-adv-x="690" d=" M289,0 L109,0 Q62,0 35,27 Q8,54 15,104 L90,640 Q97,689 130,716.5 Q163,744 213,744 L394,744 Q534,744 612,663 Q690,582 690,437 Q690,232 576,116 Q462,0 289,0 M311,179 Q352,179 382.5,203.5 Q413,228 429,267 Q445,306 452.5,346.5 Q460,387 460,427 Q460,495 434,531 Q408,567 359,567 L313,567 L259,179"/> 
            <glyph glyph-name="D" unicode="&#x44;" horiz-adv-x="634" d=" M532,0 L109,0 Q58,0 33.5,27.5 Q9,55 16,104 L91,640 Q98,689 130,716.5 Q162,744 213,744 L634,744 L610,573 L314,573 L298,460 L556,460 L533,296 L275,296 L258,171 L556,171"/> 
            <glyph glyph-name="E" unicode="&#x45;" horiz-adv-x="626" d=" M235,0 L2,0 L91,640 Q98,689 130,716.5 Q162,744 213,744 L626,744 L602,570 L315,570 L297,445 L558,445 L535,280 L274,280"/> 
            <glyph glyph-name="F" unicode="&#x46;" horiz-adv-x="712" d=" M672,318 L648,144 Q641,95 617,68 Q593,41 544,26 Q439,-6 343,-6 Q197,-6 117.5,73.5 Q38,153 38,301 Q38,419 83,519 Q128,619 222.5,684 Q317,749 446,749 Q552,749 655,714 L712,695 L658,505 L598,526 Q522,553 446,553 Q398,553 362,531 Q326,509 306,472 Q286,435 276,393 Q266,351 266,304 Q268,164 391,164 L438,167 L452,264 L342,264 L364,423 L579,423 Q630,423 654.5,395 Q679,367 672,318"/> 
            <glyph glyph-name="G" unicode="&#x47;" horiz-adv-x="713" d=" M609,0 L375,0 L415,291 L275,291 L235,0 L1,0 L105,744 L339,744 L300,463 L440,463 L479,744 L713,744"/> 
            <glyph glyph-name="H" unicode="&#x48;" horiz-adv-x="343" d=" M239,0 L3,0 L107,744 L343,744"/> 
            <glyph glyph-name="I" unicode="&#x49;" horiz-adv-x="519" d=" M519,744 L449,244 Q432,126 357,63 Q282,0 164,0 Q84,0 -10,34 L39,208 Q98,186 137,186 Q175,186 193.5,204 Q212,222 218,265 L285,744"/> 
            <glyph glyph-name="J" unicode="&#x4A;" horiz-adv-x="744" d=" M395,0 L333,283 L301,248 Q258,202 249,135 L231,0 L1,0 L105,744 L335,744 L301,499 L493,744 L744,744 L519,475 L634,0"/> 
            <glyph glyph-name="K" unicode="&#x4B;" horiz-adv-x="539" d=" M106,744 L341,744 L263,191 L539,191 L513,0 L109,0 Q58,0 33.5,27.5 Q9,55 16,104"/> 
            <glyph glyph-name="L" unicode="&#x4C;" horiz-adv-x="896" d=" M656,439 L521,76 Q490,-6 395,-6 Q350,-6 323.5,15.5 Q297,37 294,76 L264,439 L203,0 L1,0 L85,604 Q95,674 146.5,712.5 Q198,751 278,751 Q425,751 435,620 L454,374 L543,620 Q591,751 745,751 Q821,751 858.5,714 Q896,677 886,609 L801,0 L595,0"/> 
            <glyph glyph-name="M" unicode="&#x4D;" horiz-adv-x="747" d=" M423,614 L491,337 L548,744 L747,744 L662,139 Q652,68 605.5,30.5 Q559,-7 481,-7 Q406,-7 373.5,27 Q341,61 325,130 L258,407 L201,0 L1,0 L85,604 Q95,675 141.5,713 Q188,751 267,751 Q342,751 374,717.5 Q406,684 423,614"/> 
            <glyph glyph-name="N" unicode="&#x4E;" horiz-adv-x="756" d=" M756,440 Q756,352 728.5,271.5 Q701,191 650.5,128.5 Q600,66 520.5,29 Q441,-8 344,-8 Q201,-8 119.5,72.5 Q38,153 38,301 Q38,511 155,630 Q272,749 449,749 Q593,749 674.5,669 Q756,589 756,440 M368,160 Q410,160 442,189 Q474,218 489.5,263.5 Q505,309 512.5,353 Q520,397 520,438 Q520,581 424,581 Q359,581 316,505 Q273,429 273,300 Q273,160 368,160"/> 
            <glyph glyph-name="O" unicode="&#x4F;" horiz-adv-x="645" d=" M2,0 L91,640 Q98,689 130,716.5 Q162,744 213,744 L430,744 Q531,744 588,688 Q645,632 645,534 Q645,399 563.5,321.5 Q482,244 352,244 L265,244 L231,0 M352,413 Q388,413 410.5,442 Q433,471 433,511 Q433,541 417.5,558 Q402,575 376,575 L311,575 L289,413"/> 
            <glyph glyph-name="P" unicode="&#x50;" horiz-adv-x="753" d=" M753,449 Q753,341 708.5,246 Q664,151 573,93 Q621,75 672,75 L701,75 L678,-91 L629,-91 Q581,-91 541,-77 Q501,-63 477,-45.5 Q453,-28 419,-14 Q385,0 349,0 Q207,0 122.5,74.5 Q38,149 38,301 Q38,510 154,629.5 Q270,749 448,749 Q591,749 672,671.5 Q753,594 753,449 M368,160 Q410,160 442,189.5 Q474,219 489.5,264.5 Q505,310 512.5,354 Q520,398 520,439 Q520,582 424,582 Q359,582 316,505 Q273,428 273,299 Q273,160 368,160"/> 
            <glyph glyph-name="Q" unicode="&#x51;" horiz-adv-x="676" d=" M1,0 L90,640 Q97,689 129.5,716.5 Q162,744 213,744 L467,744 Q565,744 620.5,691 Q676,638 676,549 Q676,431 584,337 L547,299 L630,0 L387,0 L329,248 L268,248 L234,0 M420,443 Q453,484 453,521 Q453,578 398,578 L314,578 L291,413 L394,413"/> 
            <glyph glyph-name="R" unicode="&#x52;" horiz-adv-x="651" d=" M325,468 L428,437 Q511,412 552.5,365.5 Q594,319 594,242 Q594,116 507.5,53.5 Q421,-9 287,-9 Q165,-9 68,26 L4,49 L58,242 L124,215 Q218,176 309,176 Q338,176 356.5,188.5 Q375,201 375,227 Q375,260 331,273 L227,304 Q62,353 62,498 Q62,627 147,688.5 Q232,750 368,750 Q479,750 586,714 L651,692 L595,498 L529,525 Q433,564 348,565 Q281,565 281,514 Q281,481 325,468"/> 
            <glyph glyph-name="S" unicode="&#x53;" horiz-adv-x="683" d=" M658,566 L482,566 L403,0 L170,0 L249,566 L71,566 L96,744 L683,744"/> 
            <glyph glyph-name="T" unicode="&#x54;" horiz-adv-x="722" d=" M722,744 L657,277 Q637,138 547,63 Q457,-12 306,-12 Q156,-12 86,66.5 Q16,145 36,285 L101,744 L335,744 L270,281 Q257,185 335,185 Q408,185 422,281 L487,744"/> 
            <glyph glyph-name="U" unicode="&#x55;" horiz-adv-x="749" d=" M74,744 L306,744 L341,263 L516,744 L749,744 L469,95 Q425,-7 300,-7 Q176,-7 163,95"/> 
            <glyph glyph-name="V" unicode="&#x56;" horiz-adv-x="1005" d=" M278,265 L418,669 Q431,705 464,724.5 Q497,744 542,744 Q586,744 614,724.5 Q642,705 644,669 L670,266 L785,744 L1005,744 L804,101 Q787,47 746,18.5 Q705,-10 644,-10 Q514,-10 507,93 L488,367 L390,93 Q353,-10 224,-10 Q98,-10 95,101 L73,744 L294,744"/> 
            <glyph glyph-name="W" unicode="&#x57;" horiz-adv-x="761" d=" M668,0 L422,0 L348,209 L226,0 L-22,0 L239,382 L87,744 L331,744 L401,550 L510,744 L761,744 L512,372"/> 
            <glyph glyph-name="X" unicode="&#x58;" horiz-adv-x="783" d=" M250,295 L76,744 L322,744 L395,503 L532,744 L783,744 L483,296 L442,0 L209,0"/> 
            <glyph glyph-name="Y" unicode="&#x59;" horiz-adv-x="668" d=" M367,571 L92,571 L116,744 L583,744 Q668,744 668,663 Q668,600 619,543 L306,173 L594,173 L570,0 L87,0 Q1,0 1,84 Q1,143 51,201"/> 
            <glyph glyph-name="Z" unicode="&#x5A;" horiz-adv-x="410" d=" M20,-65 L134,744 L410,744 L391,608 L285,608 L209,71 L315,71 L296,-65"/> 
            <glyph glyph-name="[" unicode="&#x5B;" horiz-adv-x="377" d=" M215,0 L75,744 L231,744 L377,0"/> 
            <glyph glyph-name="\" unicode="&#x5C;" horiz-adv-x="382" d=" M382,744 L268,-65 L-7,-65 L11,71 L117,71 L193,608 L87,608 L106,744"/> 
            <glyph glyph-name="]" unicode="&#x5D;" horiz-adv-x="530" d=" M24,43 L153,461 Q180,553 275,553 Q371,553 398,464 L530,43 L346,43 L275,349 L204,43"/> 
            <glyph glyph-name="^" unicode="&#x5E;" horiz-adv-x="502" d=" M502,-186 L-2,-186 L-2,-62 L502,-62"/> 
            <glyph glyph-name="_" unicode="&#x5F;" horiz-adv-x="425" d=" M289,620 L115,763 L339,763 L399,703 Q425,677 425,643 Q425,620 410,604.5 Q395,589 366,589 Q327,589 289,620"/> 
            <glyph glyph-name="`" unicode="&#x60;" horiz-adv-x="568" d=" M223,-3 Q129,-4 77,56.5 Q25,117 25,216 Q25,367 99.5,452.5 Q174,538 297,538 Q314,538 333.5,535 Q353,532 364,528 L375,525 L380,560 L568,560 L507,138 L551,105 L469,-16 L426,10 Q395,28 349,18 L327,13 Q261,-3 223,-3 M307,393 Q278,393 258,376.5 Q238,360 228.5,333 Q219,306 215,280 Q211,254 211,226 Q211,141 275,141 Q294,141 319,146 L354,383 Q328,393 307,393"/> 
            <glyph glyph-name="a" unicode="&#x61;" horiz-adv-x="545" d=" M252,141 Q282,141 304,159.5 Q326,178 337,208 Q348,238 352.5,267.5 Q357,297 357,328 Q357,407 297,407 Q275,407 245,397 L210,146 Q234,141 252,141 M353,557 Q545,557 545,347 Q545,183 462.5,88.5 Q380,-6 240,-6 Q146,-6 86,15 Q7,42 18,123 L107,763 L296,763 L266,543 Q314,557 353,557"/> 
            <glyph glyph-name="b" unicode="&#x62;" horiz-adv-x="507" d=" M327,404 Q288,404 262.5,377 Q237,350 227.5,315 Q218,280 218,239 Q218,149 293,149 Q350,149 405,170 L442,185 L458,34 L413,19 Q337,-7 254,-7 Q151,-7 88,54 Q25,115 25,224 Q25,385 109.5,472.5 Q194,560 320,560 Q405,560 467,535 L507,519 L466,367 L427,382 Q368,404 327,404"/> 
            <glyph glyph-name="c" unicode="&#x63;" horiz-adv-x="595" d=" M309,407 Q280,407 259.5,389.5 Q239,372 229,343.5 Q219,315 215,287.5 Q211,260 211,231 Q211,141 277,141 Q296,141 321,146 L356,397 Q330,407 309,407 M595,763 L506,119 Q501,81 481,58 Q461,35 422,21 Q345,-6 252,-6 Q145,-6 85,54.5 Q25,115 25,221 Q25,378 99.5,467.5 Q174,557 299,557 Q316,557 335.5,553.5 Q355,550 366,546 L377,543 L407,763"/> 
            <glyph glyph-name="d" unicode="&#x64;" horiz-adv-x="546" d=" M26,225 Q26,311 58,385.5 Q90,460 159,510.5 Q228,561 321,561 Q436,561 491,493 Q546,425 528,290 Q524,253 505.5,237.5 Q487,222 450,222 L205,222 Q206,141 295,141 Q364,141 433,164 L484,181 L498,44 L446,26 Q355,-6 265,-6 Q151,-6 88,54 Q25,114 26,225 M355,339 Q362,380 348.5,405 Q335,430 300,430 Q270,430 249,406.5 Q228,383 220,339"/> 
            <glyph glyph-name="e" unicode="&#x65;" horiz-adv-x="488" d=" M419,416 L283,416 L226,7 Q200,-184 -39,-184 L-21,-50 Q10,-49 24,-34.5 Q38,-20 42,10 L98,416 L35,416 L54,554 L118,554 L122,584 Q147,768 347,768 Q412,768 488,741 L451,606 Q402,623 369,623 Q337,623 323,611.5 Q309,600 303,566 L301,554 L438,554"/> 
            </font>
</defs>
</svg>
