<?xml version="1.0" standalone="no"?>
<!DOCTYPE svg PUBLIC "-//W3C//DTD SVG 1.1//EN" "http://www.w3.org/Graphics/SVG/1.1/DTD/svg11.dtd" >
<svg xmlns="http://www.w3.org/2000/svg">
    <defs>
        <font id="NewJuneFine">
            <font-face font-family="NewJuneFine"
                       units-per-em="1000"
                       ascent="960"
                       descent="-240"
                       bbox="-30 -193 1278 952"
                    />
            <missing-glyph horiz-adv-x="0" />
            
            <glyph glyph-name="!" unicode="&#x21;" horiz-adv-x="135" d=" M123,234 L89,227 L89,744 L123,744 M106,-7 Q78,-7 78,25 Q78,39 85.5,48 Q93,57 106,57 Q135,57 135,25 Q135,-7 106,-7"/> 
            <glyph glyph-name="&quot;" unicode="&#x22;" horiz-adv-x="285" d=" M280,586 L252,586 L247,763 L285,763 M108,586 L80,586 L75,763 L113,763"/> 
            <glyph glyph-name="#" unicode="&#x23;" horiz-adv-x="659" d=" M425,0 L393,0 L434,226 L213,226 L169,0 L137,0 L180,226 L41,226 L46,259 L187,259 L229,477 L81,477 L87,509 L235,509 L279,744 L312,744 L267,509 L486,509 L530,744 L560,744 L517,509 L659,509 L654,477 L512,477 L472,259 L620,259 L614,226 L466,226 M441,259 L481,477 L261,477 L219,259"/> 
            <glyph glyph-name="$" unicode="&#x24;" horiz-adv-x="524" d=" M306,-129 L275,-129 L275,-7 Q196,-2 93,34 L54,48 L62,81 L100,68 Q228,24 300,24 Q384,24 438,64.5 Q492,105 492,186 Q492,305 355,338 L216,372 Q57,411 57,555 Q57,648 120.5,696 Q184,744 275,746 L275,867 L306,867 L306,745 Q368,742 481,705 L518,692 L510,660 L473,672 Q427,688 406,694.5 Q385,701 349.5,707.5 Q314,714 282,714 Q200,714 145.5,675 Q91,636 91,556 Q91,495 123.5,458.5 Q156,422 224,405 L363,371 Q524,332 524,187 Q524,93 462,44 Q400,-5 306,-7"/> 
            <glyph glyph-name="%" unicode="&#x25;" horiz-adv-x="859" d=" M224,375 Q141,375 93,426 Q45,477 45,566 Q45,656 93,707 Q141,758 224,758 Q309,758 357.5,707 Q406,656 406,566 Q406,477 357,426 Q308,375 224,375 M225,404 Q298,404 336,445.5 Q374,487 374,566 Q374,644 334.5,686.5 Q295,729 223,729 Q153,729 115,686.5 Q77,644 77,566 Q77,489 115.5,446.5 Q154,404 225,404 M174,0 L133,0 L724,744 L764,744 M677,-13 Q594,-13 546,38.5 Q498,90 498,179 Q498,269 546,320 Q594,371 677,371 Q762,371 810.5,320 Q859,269 859,179 Q859,90 810,38.5 Q761,-13 677,-13 M678,17 Q751,17 789,58.5 Q827,100 827,179 Q827,257 787.5,299 Q748,341 676,341 Q606,341 568,298.5 Q530,256 530,179 Q530,102 568.5,59.5 Q607,17 678,17"/> 
            <glyph glyph-name="&amp;" unicode="&#x26;" horiz-adv-x="624" d=" M623,0 L581,0 L513,75 Q468,34 404.5,11 Q341,-12 279,-12 Q174,-12 117,41.5 Q60,95 60,177 Q60,319 232,384 Q193,426 174.5,450 Q156,474 140,509.5 Q124,545 124,582 Q124,664 178.5,710 Q233,756 320,756 Q404,756 455.5,711.5 Q507,667 507,589 Q507,512 456.5,464 Q406,416 287,371 L515,120 Q591,210 591,357 L591,444 L624,444 L624,356 Q624,196 537,99 M268,394 Q379,434 427,476.5 Q475,519 475,589 Q475,650 434,687.5 Q393,725 320,725 Q242,725 200,686.5 Q158,648 158,582 Q158,536 183,496 Q208,456 268,394 M492,98 L252,361 Q165,328 130,283 Q95,238 95,178 Q95,110 141.5,64.5 Q188,19 279,19 Q336,19 393.5,40 Q451,61 492,98"/> 
            <glyph glyph-name="'" unicode="&#x27;" horiz-adv-x="122" d=" M116,586 L87,586 L82,763 L122,763"/> 
            <glyph glyph-name="(" unicode="&#x28;" horiz-adv-x="237" d=" M237,-42 L237,-74 Q200,-72 169,-51.5 Q138,-31 109.5,12.5 Q81,56 65,138.5 Q49,221 49,336 Q49,450 65,532.5 Q81,615 109.5,658.5 Q138,702 169,722 Q200,742 237,744 L237,712 Q83,698 83,336 Q83,226 97,148.5 Q111,71 135.5,32.5 Q160,-6 184.5,-22.5 Q209,-39 237,-42"/> 
            <glyph glyph-name=")" unicode="&#x29;" horiz-adv-x="224" d=" M36,-74 L36,-42 Q64,-39 88.5,-22.5 Q113,-6 137.5,32.5 Q162,71 176,148.5 Q190,226 190,336 Q190,698 36,712 L36,744 Q73,742 104,722 Q135,702 163.5,658.5 Q192,615 208,532.5 Q224,450 224,336 Q224,243 213,171 Q202,99 184,54.5 Q166,10 141,-19 Q116,-48 90.5,-60 Q65,-72 36,-74"/> 
            <glyph glyph-name="*" unicode="&#x2A;" horiz-adv-x="487" d=" M420,379 L388,355 L280,529 L170,355 L139,379 L263,540 L73,595 L85,631 L271,559 L261,763 L298,763 L289,559 L477,630 L487,594 L297,540"/> 
            <glyph glyph-name="+" unicode="&#x2B;" horiz-adv-x="512" d=" M301,49 L267,49 L267,280 L60,280 L60,313 L267,313 L267,540 L301,540 L301,313 L512,313 L512,280 L301,280"/> 
            <glyph glyph-name="," unicode="&#x2C;" horiz-adv-x="145" d=" M65,-66 L107,91 L145,91 L100,-75 Q94,-93 81,-93 Q58,-93 65,-66"/> 
            <glyph glyph-name="-" unicode="&#x2D;" horiz-adv-x="332" d=" M332,311 L71,311 L71,344 L332,344"/> 
            <glyph glyph-name="." unicode="&#x2E;" horiz-adv-x="135" d=" M106,-7 Q78,-7 78,25 Q78,39 85.5,48 Q93,57 106,57 Q135,57 135,25 Q135,-7 106,-7"/> 
            <glyph glyph-name="/" unicode="&#x2F;" horiz-adv-x="377" d=" M69,0 L33,0 L344,744 L377,744"/> 
            <glyph glyph-name="0" unicode="&#x30;" horiz-adv-x="506" d=" M474,226 L474,515 Q474,720 291,720 Q197,720 150.5,666.5 Q104,613 104,515 L104,226 Q104,128 150.5,74 Q197,20 291,20 Q474,20 474,226 M506,514 L506,226 Q506,113 450.5,51 Q395,-11 291,-11 Q185,-11 128,51 Q71,113 71,225 L71,516 Q71,628 128,690 Q185,752 291,752 Q395,752 450.5,689.5 Q506,627 506,514"/> 
            <glyph glyph-name="1" unicode="&#x31;" horiz-adv-x="533" d=" M533,0 L76,0 L76,33 L307,33 L307,709 L234,709 Q172,709 131,692 L123,726 Q166,744 231,744 L307,744 Q327,744 335,736 Q343,728 343,708 L343,33 L533,33"/> 
            <glyph glyph-name="2" unicode="&#x32;" horiz-adv-x="510" d=" M510,0 L89,0 Q65,0 65,25 Q65,40 77,52 L353,325 Q418,390 446.5,441 Q475,492 475,552 Q475,637 426.5,676.5 Q378,716 300,716 Q227,716 114,680 L78,669 L71,701 L105,712 Q216,749 299,749 Q390,749 449,701.5 Q508,654 508,552 Q508,487 478,429.5 Q448,372 378,303 L101,31 L510,31"/> 
            <glyph glyph-name="3" unicode="&#x33;" horiz-adv-x="524" d=" M442,295 L380,359 L246,359 L246,389 L380,389 L428,456 Q471,514 471,569 Q471,638 426.5,677 Q382,716 302,716 Q240,716 119,681 L84,671 L77,703 L113,714 Q227,749 302,749 Q396,749 450,702.5 Q504,656 504,570 Q504,507 459,446 L408,376 L471,311 Q524,253 524,182 Q524,91 462.5,41 Q401,-9 301,-9 Q218,-9 104,25 L61,38 L68,71 L111,58 Q225,23 301,23 Q390,23 440.5,64 Q491,105 491,182 Q491,243 442,295"/> 
            <glyph glyph-name="4" unicode="&#x34;" horiz-adv-x="546" d=" M457,0 L424,0 L424,154 L68,154 Q45,154 45,177 Q45,188 55,204 L399,729 Q413,749 431,749 Q457,749 457,720 L457,184 L546,184 L546,154 L457,154 M424,184 L424,709 L79,184"/> 
            <glyph glyph-name="5" unicode="&#x35;" horiz-adv-x="523" d=" M104,24 L64,36 L71,68 L112,56 Q217,24 287,24 Q386,24 437.5,82 Q489,140 489,235 Q489,433 292,433 Q236,433 139,405 L99,393 L99,744 L491,744 L491,710 L130,710 L130,433 Q234,465 295,465 Q403,465 463,408 Q523,351 523,235 Q523,124 459.5,58 Q396,-8 287,-8 Q212,-8 104,24"/> 
            <glyph glyph-name="6" unicode="&#x36;" horiz-adv-x="526" d=" M104,520 L104,418 Q225,463 293,463 Q408,463 467,402.5 Q526,342 526,233 Q526,128 467,61 Q408,-6 302,-6 Q195,-6 133,61.5 Q71,129 71,240 L71,520 Q71,630 128.5,689.5 Q186,749 288,749 Q354,749 471,716 L506,706 L500,674 L465,684 Q347,717 289,717 Q198,717 151,667.5 Q104,618 104,520 M104,388 L104,242 Q104,142 156,84 Q208,26 304,26 Q394,26 443,83 Q492,140 492,233 Q492,430 290,430 Q224,430 104,388"/> 
            <glyph glyph-name="7" unicode="&#x37;" horiz-adv-x="531" d=" M241,0 L205,0 L498,712 L75,712 L75,744 L505,744 Q531,744 531,719 Q531,706 524,692"/> 
            <glyph glyph-name="8" unicode="&#x38;" horiz-adv-x="523" d=" M409,376 L471,309 Q523,253 523,181 Q523,90 459.5,40.5 Q396,-9 290,-9 Q183,-9 118.5,40.5 Q54,90 54,181 Q54,251 108,310 L169,376 L118,444 Q74,503 74,569 Q74,654 132.5,702 Q191,750 288,750 Q385,750 444,702 Q503,654 503,569 Q503,503 460,445 M441,295 L381,358 L196,358 L136,295 Q88,244 88,180 Q88,103 142,62.5 Q196,22 289,22 Q383,22 436,63 Q489,104 489,181 Q489,243 441,295 M381,389 L428,454 Q470,511 470,569 Q470,638 421,678 Q372,718 288,718 Q203,718 155,678 Q107,638 107,569 Q107,515 149,454 L197,389"/> 
            <glyph glyph-name="9" unicode="&#x39;" horiz-adv-x="512" d=" M479,223 L479,325 Q358,280 290,280 Q175,280 116,340.5 Q57,401 57,510 Q57,615 116,682 Q175,749 281,749 Q388,749 450,681.5 Q512,614 512,503 L512,223 Q512,113 454.5,53.5 Q397,-6 295,-6 Q229,-6 112,27 L77,37 L83,69 L118,59 Q236,26 294,26 Q385,26 432,75.5 Q479,125 479,223 M479,355 L479,501 Q479,601 427,659 Q375,717 279,717 Q189,717 140,660 Q91,603 91,510 Q91,313 293,313 Q359,313 479,355"/> 
            <glyph glyph-name=":" unicode="&#x3A;" horiz-adv-x="135" d=" M106,-7 Q78,-7 78,25 Q78,39 85.5,48 Q93,57 106,57 Q135,57 135,25 Q135,-7 106,-7 M106,473 Q78,473 78,505 Q78,519 85.5,528 Q93,537 106,537 Q135,537 135,505 Q135,473 106,473"/> 
            <glyph glyph-name=";" unicode="&#x3B;" horiz-adv-x="150" d=" M65,-66 L107,91 L145,91 L100,-75 Q94,-93 81,-93 Q58,-93 65,-66 M121,473 Q93,473 93,505 Q93,519 100.5,528 Q108,537 121,537 Q150,537 150,505 Q150,473 121,473"/> 
            <glyph glyph-name="&lt;" unicode="&#x3C;" horiz-adv-x="520" d=" M520,77 L69,269 Q52,277 52,295 Q52,312 70,321 L520,516 L520,478 L85,295 L520,113"/> 
            <glyph glyph-name="=" unicode="&#x3D;" horiz-adv-x="510" d=" M510,369 L62,369 L62,404 L510,404 M510,193 L62,193 L62,228 L510,228"/> 
            <glyph glyph-name="&gt;" unicode="&#x3E;" horiz-adv-x="519" d=" M503,269 L51,77 L51,113 L487,294 L51,478 L51,516 L502,321 Q519,312 519,295 Q519,277 503,269"/> 
            <glyph glyph-name="?" unicode="&#x3F;" horiz-adv-x="406" d=" M232,231 L200,225 L200,302 Q200,327 219,348 L307,441 Q345,481 359.5,511.5 Q374,542 374,588 Q374,645 337,680 Q300,715 230,715 Q159,715 76,690 L50,682 L44,713 L71,721 Q163,747 231,747 Q311,747 358.5,705 Q406,663 406,589 Q406,536 389,501.5 Q372,467 333,424 L232,317 M217,-7 Q189,-7 189,25 Q189,39 196.5,48 Q204,57 217,57 Q246,57 246,25 Q246,-7 217,-7"/> 
            <glyph glyph-name="@" unicode="&#x40;" horiz-adv-x="826" d=" M735,-1 L701,17 Q677,29 655,29 Q626,29 558,9 Q490,-11 423,-11 Q268,-11 177,93.5 Q86,198 86,356 Q86,533 196,645.5 Q306,758 473,758 Q626,758 726,662.5 Q826,567 826,413 Q826,302 774,234.5 Q722,167 648,167 Q627,167 596,177.5 Q565,188 548,188 Q531,188 485.5,180 Q440,172 416,172 Q345,172 307,216.5 Q269,261 269,334 Q269,425 320.5,487 Q372,549 464,549 Q513,549 585,537 L590,576 L621,576 L574,216 Q576,215 591,209.5 Q606,204 620.5,200.5 Q635,197 650,197 Q711,197 753,254 Q795,311 795,413 Q795,554 704.5,640.5 Q614,727 473,727 Q316,727 217.5,624 Q119,521 119,356 Q119,208 201,114 Q283,20 426,20 Q485,20 557.5,41 Q630,62 657,62 Q686,62 711,46 L747,24 M543,218 L581,508 Q522,520 464,520 Q384,520 343,466.5 Q302,413 302,333 Q302,274 332,237.5 Q362,201 421,201 Q453,201 543,218"/> 
            <glyph glyph-name="A" unicode="&#x41;" horiz-adv-x="638" d=" M638,0 L602,0 L532,185 L135,185 L65,0 L30,0 L308,728 Q317,750 336,750 Q358,750 365,729 M521,216 L336,713 L146,216"/> 
            <glyph glyph-name="B" unicode="&#x42;" horiz-adv-x="599" d=" M393,0 L126,0 Q90,0 90,34 L90,710 Q90,744 125,744 L386,744 Q473,744 521.5,699 Q570,654 570,575 Q570,508 528,449 L477,376 L543,306 Q599,245 599,177 Q599,96 543.5,48 Q488,0 393,0 M447,389 L494,458 Q534,515 534,575 Q534,639 496.5,676.5 Q459,714 384,714 L123,714 L123,389 M512,292 L447,359 L123,359 L123,30 L394,30 Q474,30 519,69 Q564,108 564,174 Q564,237 512,292"/> 
            <glyph glyph-name="C" unicode="&#x43;" horiz-adv-x="605" d=" M605,40 L564,27 Q454,-8 376,-8 Q235,-8 149,87 Q63,182 63,370 Q63,555 149.5,651.5 Q236,748 376,748 Q452,748 564,713 L605,700 L598,667 L557,680 Q443,715 376,715 Q247,715 173,628.5 Q99,542 99,370 Q99,198 173.5,111.5 Q248,25 377,25 Q446,25 557,59 L598,72"/> 
            <glyph glyph-name="D" unicode="&#x44;" horiz-adv-x="652" d=" M333,0 L126,0 Q90,0 90,34 L90,709 Q90,744 126,744 L331,744 Q480,744 566,644.5 Q652,545 652,370 Q652,196 564,98 Q476,0 333,0 M124,32 L331,32 Q465,32 541.5,120.5 Q618,209 618,370 Q618,529 540.5,621 Q463,713 324,713 L124,713"/> 
            <glyph glyph-name="E" unicode="&#x45;" horiz-adv-x="536" d=" M536,0 L126,0 Q90,0 90,34 L90,709 Q90,744 126,744 L534,744 L534,712 L124,712 L124,397 L485,397 L485,365 L124,365 L124,32 L536,32"/> 
            <glyph glyph-name="F" unicode="&#x46;" horiz-adv-x="524" d=" M492,351 L124,351 L124,0 L90,0 L90,709 Q90,744 126,744 L524,744 L524,712 L124,712 L124,382 L492,382"/> 
            <glyph glyph-name="G" unicode="&#x47;" horiz-adv-x="631" d=" M599,55 L599,303 L412,303 L412,333 L597,333 Q631,333 631,299 L631,61 Q631,32 600,23 Q492,-8 395,-8 Q245,-8 154,87 Q63,182 63,369 Q63,554 153,650.5 Q243,747 388,747 Q466,747 588,711 L629,699 L622,666 L579,678 Q460,714 388,714 Q253,714 175.5,627.5 Q98,541 98,369 Q98,198 179,110.5 Q260,23 395,23 Q492,23 599,55"/> 
            <glyph glyph-name="H" unicode="&#x48;" horiz-adv-x="612" d=" M612,0 L580,0 L580,363 L123,363 L123,0 L90,0 L90,744 L123,744 L123,394 L580,394 L580,744 L612,744"/> 
            <glyph glyph-name="I" unicode="&#x49;" horiz-adv-x="124" d=" M124,0 L90,0 L90,744 L124,744"/> 
            <glyph glyph-name="J" unicode="&#x4A;" horiz-adv-x="270" d=" M236,163 L236,744 L270,744 L270,162 Q270,80 231.5,38 Q193,-4 120,-4 Q89,-4 27,9 L32,43 Q83,29 120,29 Q180,29 208,60.5 Q236,92 236,163"/> 
            <glyph glyph-name="K" unicode="&#x4B;" horiz-adv-x="596" d=" M596,0 L560,0 L341,462 L160,243 Q137,215 130,199.5 Q123,184 123,156 L123,0 L90,0 L90,744 L123,744 L122,244 L528,744 L574,744 L366,492"/> 
            <glyph glyph-name="L" unicode="&#x4C;" horiz-adv-x="507" d=" M507,0 L125,0 Q90,0 90,34 L90,744 L124,744 L124,32 L507,32"/> 
            <glyph glyph-name="M" unicode="&#x4D;" horiz-adv-x="755" d=" M755,0 L721,0 L721,709 L444,16 Q438,-2 419,-2 Q400,-2 393,16 L123,709 L123,0 L90,0 L90,717 Q90,748 120,748 Q146,748 156,720 L420,39 L691,720 Q701,748 726,748 Q755,748 755,717"/> 
            <glyph glyph-name="N" unicode="&#x4E;" horiz-adv-x="636" d=" M579,14 L123,705 L123,0 L90,0 L90,719 Q90,749 117,749 Q136,749 148,730 L604,40 L604,744 L636,744 L636,25 Q636,-5 609,-5 Q591,-5 579,14"/> 
            <glyph glyph-name="O" unicode="&#x4F;" horiz-adv-x="708" d=" M532,-8 Q234,-8 147,91 Q60,190 60,370 Q60,548 148.5,648 Q237,748 385,748 Q533,748 620.5,648 Q708,548 708,370 Q708,190 532,-8 M384,23 Q519,23 595.5,113.5 Q672,204 672,370 Q672,534 596,625 Q520,716 385,716 Q249,716 171.5,625 Q94,534 94,370 Q94,205 172,114 Q250,23 384,23"/> 
            <glyph glyph-name="P" unicode="&#x50;" horiz-adv-x="564" d=" M123,0 L90,0 L90,710 Q90,744 125,744 L358,744 Q448,744 506,685 Q564,626 564,526 Q564,426 504,367.5 Q444,309 348,309 L123,309 M123,339 L348,339 Q431,339 481,389 Q531,439 531,526 Q531,612 482.5,662.5 Q434,713 355,713 L123,713"/> 
            <glyph glyph-name="Q" unicode="&#x51;" horiz-adv-x="707" d=" M694,-66 L676,-66 Q614,-66 529.5,-33 Q445,0 391,0 Q239,0 149.5,95.5 Q60,191 60,370 Q60,548 148.5,648 Q237,748 385,748 Q532,748 619.5,648.5 Q707,549 707,370 Q707,83 487,14 Q491,13 524.5,-0.5 Q558,-14 599,-25.5 Q640,-37 676,-37 L694,-37 M389,29 Q524,29 598.5,116 Q673,203 673,370 Q673,534 596,625 Q519,716 384,716 Q248,716 171,625 Q94,534 94,370 Q94,205 173,117 Q252,29 389,29"/> 
            <glyph glyph-name="R" unicode="&#x52;" horiz-adv-x="601" d=" M601,0 L563,0 L418,318 L124,318 L124,0 L90,0 L90,710 Q90,744 124,744 L377,744 Q469,744 519.5,693.5 Q570,643 570,553 Q570,482 514,409 L451,328 M427,349 L479,418 Q533,491 533,553 Q533,627 493.5,670 Q454,713 373,713 L124,713 L124,349"/> 
            <glyph glyph-name="S" unicode="&#x53;" horiz-adv-x="555" d=" M107,34 L67,47 L76,80 L115,67 Q248,24 339,24 Q416,24 468.5,64.5 Q521,105 521,185 Q521,307 381,337 L235,370 Q70,408 70,555 Q70,650 132.5,699.5 Q195,749 284,749 Q376,749 508,708 L548,695 L540,662 L500,675 Q375,716 284,716 Q207,716 155.5,675.5 Q104,635 104,555 Q104,494 137,457.5 Q170,421 241,405 L388,371 Q555,334 555,186 Q555,91 492,41.5 Q429,-8 339,-8 Q236,-8 107,34"/> 
            <glyph glyph-name="T" unicode="&#x54;" horiz-adv-x="559" d=" M315,0 L280,0 L280,712 L37,712 L37,744 L559,744 L559,712 L315,712"/> 
            <glyph glyph-name="U" unicode="&#x55;" horiz-adv-x="625" d=" M590,258 L590,744 L625,744 L625,258 Q625,130 555,58 Q485,-14 355,-14 Q225,-14 155,58 Q85,130 85,258 L85,744 L120,744 L120,258 Q120,144 180,81 Q240,18 355,18 Q590,18 590,258"/> 
            <glyph glyph-name="V" unicode="&#x56;" horiz-adv-x="625" d=" M328,35 L588,744 L625,744 L353,14 Q346,-5 327,-5 Q307,-5 301,14 L32,744 L70,744"/> 
            <glyph glyph-name="W" unicode="&#x57;" horiz-adv-x="867" d=" M696,35 L834,744 L867,744 L724,17 Q719,-6 697,-6 Q675,-6 669,15 L453,701 L233,15 Q225,-6 205,-6 Q183,-6 178,17 L40,744 L74,744 L208,36 L429,725 Q435,744 454,744 Q473,744 479,725"/> 
            <glyph glyph-name="X" unicode="&#x58;" horiz-adv-x="592" d=" M592,0 L551,0 L317,352 L83,0 L42,0 L296,376 L45,744 L87,744 L318,401 L546,744 L584,744 L339,377"/> 
            <glyph glyph-name="Y" unicode="&#x59;" horiz-adv-x="605" d=" M337,0 L302,0 L302,323 L32,744 L73,744 L321,355 L565,744 L605,744 L337,324"/> 
            <glyph glyph-name="Z" unicode="&#x5A;" horiz-adv-x="565" d=" M565,0 L85,0 Q60,0 60,27 Q60,38 69,51 L527,713 L72,713 L72,744 L535,744 Q559,744 559,717 Q559,703 551,692 L94,31 L565,31"/> 
            <glyph glyph-name="[" unicode="&#x5B;" horiz-adv-x="233" d=" M233,-65 L83,-65 L83,744 L233,744 L233,713 L116,713 L116,-35 L233,-35"/> 
            <glyph glyph-name="\" unicode="&#x5C;" horiz-adv-x="377" d=" M377,0 L341,0 L33,744 L66,744"/> 
            <glyph glyph-name="]" unicode="&#x5D;" horiz-adv-x="190" d=" M190,-65 L40,-65 L40,-35 L157,-35 L157,713 L40,713 L40,744 L190,744"/> 
            <glyph glyph-name="^" unicode="&#x5E;" horiz-adv-x="503" d=" M503,46 L466,46 L286,503 L109,46 L74,46 L263,521 Q269,539 287,539 Q303,539 311,521"/> 
            <glyph glyph-name="_" unicode="&#x5F;" horiz-adv-x="506" d=" M506,-154 L-2,-154 L-2,-122 L506,-122"/> 
            <glyph glyph-name="`" unicode="&#x60;" horiz-adv-x="361" d=" M330,659 L218,763 L269,763 L354,682 Q361,676 361,667 Q361,652 346,652 Q338,652 330,659"/> 
            <glyph glyph-name="a" unicode="&#x61;" horiz-adv-x="552" d=" M539,-3 L494,24 Q470,38 441,31 L382,17 Q278,-7 228,-7 Q149,-7 106,30.5 Q63,68 63,136 Q63,215 117,252 Q171,289 264,289 L456,289 L456,374 Q456,447 415.5,482 Q375,517 304,517 Q237,517 121,484 L95,477 L88,509 L114,516 Q241,550 304,550 Q389,550 438.5,507 Q488,464 488,374 L488,60 L552,21 M456,61 L456,258 L263,258 Q96,258 96,137 Q96,23 233,23 Q283,23 378,44"/> 
            <glyph glyph-name="b" unicode="&#x62;" horiz-adv-x="529" d=" M115,477 L115,61 Q226,28 290,28 Q391,28 443.5,93.5 Q496,159 496,270 Q496,386 447,450 Q398,514 297,514 Q235,514 115,477 M82,68 L82,762 L115,769 L115,507 Q239,548 301,548 Q413,548 471,476.5 Q529,405 529,270 Q529,145 465,70.5 Q401,-4 291,-4 Q215,-4 114,28 Q97,34 89.5,42.5 Q82,51 82,68"/> 
            <glyph glyph-name="c" unicode="&#x63;" horiz-adv-x="469" d=" M469,30 L435,21 Q338,-5 289,-5 Q182,-5 119.5,65 Q57,135 57,272 Q57,405 120,477 Q183,549 289,549 Q333,549 435,523 L469,514 L463,481 L429,490 Q327,517 290,517 Q195,517 143,454.5 Q91,392 91,272 Q91,152 143.5,89.5 Q196,27 291,27 Q338,27 429,53 L463,62"/> 
            <glyph glyph-name="d" unicode="&#x64;" horiz-adv-x="504" d=" M472,61 L472,477 Q352,513 290,515 Q190,515 140.5,450.5 Q91,386 91,270 Q91,160 143.5,94 Q196,28 296,28 Q359,28 472,61 M472,507 L472,763 L504,771 L504,68 Q504,38 473,29 Q365,-4 293,-4 Q183,-4 120,69 Q57,142 57,270 Q57,403 117,475.5 Q177,548 289,548 Q350,548 472,507"/> 
            <glyph glyph-name="e" unicode="&#x65;" horiz-adv-x="520" d=" M92,288 L486,288 Q486,397 435,460 Q384,523 289,523 Q202,523 148.5,460 Q95,397 92,288 M510,39 L468,25 Q379,-6 305,-6 Q193,-6 125,65 Q57,136 57,271 Q57,406 123,479 Q189,552 290,552 Q396,552 458,482 Q520,412 520,283 Q520,257 496,257 L92,257 Q95,144 153.5,85 Q212,26 306,26 Q368,26 461,57 L503,71"/> 
            <glyph glyph-name="f" unicode="&#x66;" horiz-adv-x="364" d=" M161,0 L128,0 L128,503 L35,503 L35,533 L128,533 L128,598 Q128,680 165.5,722 Q203,764 272,764 Q307,764 364,751 L358,719 Q309,732 271,732 Q214,732 187.5,700 Q161,668 161,596 L161,533 L339,533 L339,503 L161,503"/> 
            <glyph glyph-name="g" unicode="&#x67;" horiz-adv-x="550" d=" M163,92 L387,92 Q464,92 504,60.5 Q544,29 544,-24 Q544,-98 479,-140 Q414,-182 282,-182 Q186,-182 124.5,-147.5 Q63,-113 63,-43 Q63,13 108,66 L139,104 Q160,129 168,142 Q176,155 176,171 Q176,213 129,243 Q55,287 55,379 Q55,459 113,501 Q171,543 272,543 L339,543 Q394,543 415,549 L543,582 L550,554 L400,517 Q404,516 409.5,513 Q415,510 430.5,499 Q446,488 457.5,474 Q469,460 478.5,435 Q488,410 488,380 Q488,299 430,256 Q372,213 270,213 Q248,213 226,216 Q204,219 194,222 L183,225 Q205,206 205,171 Q205,152 196.5,136.5 Q188,121 163,92 M456,379 Q456,514 273,514 Q87,514 87,379 Q87,239 271,239 Q355,239 405.5,273.5 Q456,308 456,379 M386,63 L141,63 Q94,12 94,-42 Q94,-99 145.5,-126.5 Q197,-154 284,-154 Q400,-154 456.5,-120 Q513,-86 513,-25 Q513,63 386,63"/> 
            <glyph glyph-name="h" unicode="&#x68;" horiz-adv-x="483" d=" M483,0 L451,0 L451,354 Q451,516 296,516 Q232,516 115,477 L115,0 L82,0 L82,763 L115,770 L115,506 Q234,548 299,548 Q483,548 483,356"/> 
            <glyph glyph-name="i" unicode="&#x69;" horiz-adv-x="137" d=" M126,0 L91,0 L91,544 L126,544 M108,702 Q80,702 80,734 Q80,748 87.5,757 Q95,766 108,766 Q137,766 137,734 Q137,702 108,702"/> 
            <glyph glyph-name="j" unicode="&#x6A;" horiz-adv-x="160" d=" M20,-181 L20,-150 Q66,-150 91,-118 Q116,-86 116,-27 L116,544 L149,544 L149,-26 Q149,-98 114,-139.5 Q79,-181 20,-181 M131,702 Q103,702 103,734 Q103,748 110.5,757 Q118,766 131,766 Q160,766 160,734 Q160,702 131,702"/> 
            <glyph glyph-name="k" unicode="&#x6B;" horiz-adv-x="501" d=" M501,0 L462,0 L280,333 L145,185 Q114,150 114,109 L114,0 L82,0 L82,762 L114,769 L114,192 L434,544 L477,544 L307,357"/> 
            <glyph glyph-name="l" unicode="&#x6C;" horiz-adv-x="116" d=" M116,0 L82,0 L82,762 L116,770"/> 
            <glyph glyph-name="m" unicode="&#x6D;" horiz-adv-x="778" d=" M778,0 L745,0 L745,363 Q745,515 605,515 Q535,515 425,468 Q447,432 447,365 L447,0 L414,0 L414,363 Q414,516 270,516 Q208,516 115,484 L115,0 L82,0 L82,476 Q82,507 114,517 Q201,548 272,548 Q364,548 409,494 Q523,548 607,548 Q694,548 736,499 Q778,450 778,365"/> 
            <glyph glyph-name="n" unicode="&#x6E;" horiz-adv-x="488" d=" M488,0 L456,0 L456,351 Q456,427 416.5,471 Q377,515 291,515 Q222,515 115,483 L115,0 L82,0 L82,476 Q82,506 113,515 Q221,548 293,548 Q391,548 439.5,495.5 Q488,443 488,354"/> 
            <glyph glyph-name="o" unicode="&#x6F;" horiz-adv-x="540" d=" M299,-6 Q187,-6 122,67 Q57,140 57,272 Q57,404 123,476.5 Q189,549 300,549 Q411,549 475.5,477 Q540,405 540,272 Q540,139 474.5,66.5 Q409,-6 299,-6 M201,25 Q397,25 451.5,89 Q506,153 506,272 Q506,390 451,454.5 Q396,519 299,519 Q202,519 147,454.5 Q92,390 92,272 Q92,153 201,25"/> 
            <glyph glyph-name="p" unicode="&#x70;" horiz-adv-x="529" d=" M114,483 L114,67 Q236,29 296,29 Q396,29 445.5,93.5 Q495,158 495,273 Q495,383 442.5,449 Q390,515 290,515 Q223,515 114,483 M114,-180 L82,-187 L82,476 Q82,505 113,514 Q224,548 293,548 Q403,548 466,475 Q529,402 529,274 Q529,141 469,68.5 Q409,-4 297,-4 Q231,-4 114,36"/> 
            <glyph glyph-name="q" unicode="&#x71;" horiz-adv-x="504" d=" M472,67 L472,483 Q364,515 296,515 Q195,515 142.5,449.5 Q90,384 90,273 Q90,158 139.5,93.5 Q189,29 289,29 Q347,29 472,67 M504,-179 L472,-186 L472,37 Q350,-4 286,-4 Q173,-4 115,67.5 Q57,139 57,274 Q57,399 121,473.5 Q185,548 295,548 Q370,548 472,515 Q489,510 496.5,501.5 Q504,493 504,476"/> 
            <glyph glyph-name="r" unicode="&#x72;" horiz-adv-x="323" d=" M115,0 L82,0 L82,476 Q82,507 114,516 Q216,548 323,548 L323,514 Q214,514 115,482"/> 
            <glyph glyph-name="s" unicode="&#x73;" horiz-adv-x="463" d=" M98,23 L65,33 L72,66 L104,57 Q211,26 285,26 Q348,26 387.5,54.5 Q427,83 427,138 Q427,183 400.5,209 Q374,235 311,246 L207,264 Q68,288 68,402 Q68,475 118.5,512.5 Q169,550 244,550 Q320,550 430,520 L463,511 L455,479 L423,488 Q318,518 243,517 Q182,517 142,488 Q102,459 102,404 Q102,359 128.5,333.5 Q155,308 218,296 L322,277 Q461,252 461,140 Q461,67 410.5,30 Q360,-7 285,-7 Q197,-7 98,23"/> 
            <glyph glyph-name="t" unicode="&#x74;" horiz-adv-x="358" d=" M352,39 L358,7 Q301,-6 263,-6 Q123,-6 123,160 L123,502 L32,502 L32,533 L123,533 L123,679 L156,685 L156,533 L348,533 L348,502 L156,502 L156,162 Q156,92 181.5,59 Q207,26 264,26 Q297,26 352,39"/> 
            <glyph glyph-name="u" unicode="&#x75;" horiz-adv-x="486" d=" M453,61 L453,544 L486,544 L486,68 Q486,38 455,28 Q351,-4 275,-4 Q177,-4 128.5,48.5 Q80,101 80,190 L80,544 L112,544 L112,193 Q112,29 277,29 Q351,29 453,61"/> 
            <glyph glyph-name="v" unicode="&#x76;" horiz-adv-x="487" d=" M258,26 L451,544 L487,544 L285,12 Q277,-9 257,-9 Q235,-9 228,12 L35,544 L70,544"/> 
            <glyph glyph-name="w" unicode="&#x77;" horiz-adv-x="737" d=" M594,24 L704,544 L737,544 L622,14 Q617,-11 593,-11 Q572,-11 564,12 L391,503 L211,12 Q204,-10 181,-10 Q159,-10 152,15 L42,544 L78,544 L183,24 L367,527 Q373,545 391,545 Q409,545 415,527"/> 
            <glyph glyph-name="x" unicode="&#x78;" horiz-adv-x="473" d=" M473,0 L431,0 L258,253 L82,0 L42,0 L237,276 L48,544 L88,544 L258,298 L425,544 L463,544 L279,277"/> 
            <glyph glyph-name="y" unicode="&#x79;" horiz-adv-x="486" d=" M249,-62 L259,-28 L35,544 L73,544 L277,14 L450,544 L486,544 L280,-73 Q244,-181 143,-181 Q104,-181 54,-167 L60,-135 Q117,-150 144,-150 Q188,-150 211.5,-128 Q235,-106 249,-62"/> 
            <glyph glyph-name="z" unicode="&#x7A;" horiz-adv-x="475" d=" M475,0 L82,0 Q58,0 58,24 Q58,39 68,49 L433,514 L70,514 L70,544 L446,544 Q469,544 469,521 Q469,506 460,495 L94,30 L475,30"/> 
            <glyph glyph-name="{" unicode="&#x7B;" horiz-adv-x="228" d=" M228,-67 L204,-67 Q150,-67 116,-34 Q82,-1 82,57 Q82,99 109.5,162 Q137,225 137,259 Q137,287 119,306.5 Q101,326 69,325 L69,351 Q101,351 119,370 Q137,389 137,417 Q137,451 109.5,514 Q82,577 82,619 Q82,678 116,711 Q150,744 204,744 L228,744 L228,713 L204,713 Q162,713 137.5,688.5 Q113,664 113,618 Q113,579 140.5,517 Q168,455 168,418 Q168,361 114,338 Q168,315 168,258 Q168,221 140.5,159 Q113,97 113,58 Q113,12 137.5,-12 Q162,-36 204,-36 L228,-36"/> 
            <glyph glyph-name="|" unicode="&#x7C;" horiz-adv-x="117" d=" M117,-180 L87,-180 L87,763 L117,763"/> 
            <glyph glyph-name="}" unicode="&#x7D;" horiz-adv-x="199" d=" M64,-67 L40,-67 L40,-36 L64,-36 Q106,-36 130.5,-11.5 Q155,13 155,59 Q155,97 127.5,159 Q100,221 100,258 Q100,315 154,338 Q100,361 100,418 Q100,455 127.5,517 Q155,579 155,618 Q155,664 130.5,688.5 Q106,713 64,713 L40,713 L40,744 L64,744 Q118,744 152,711 Q186,678 186,619 Q186,577 158.5,514 Q131,451 131,417 Q131,389 149,370 Q167,351 199,351 L199,325 Q167,326 149,306.5 Q131,287 131,259 Q131,225 158.5,162 Q186,99 186,57 Q186,-1 152,-34 Q118,-67 64,-67"/> 
            <glyph glyph-name="~" unicode="&#x7E;" horiz-adv-x="521" d=" M496,360 L521,343 Q479,241 393,241 Q353,241 313,270 L249,318 Q212,345 186,345 Q122,345 83,259 L58,277 Q104,380 187,380 Q228,380 268,349 L331,301 Q362,276 395,276 Q460,276 496,360"/> 
            <glyph glyph-name="¡" unicode="&#xA1;" horiz-adv-x="134" d=" M123,-186 L89,-186 L89,324 L123,331 M106,501 Q77,501 77,533 Q77,565 106,565 Q119,565 126.5,556 Q134,547 134,533 Q134,501 106,501"/> 
            <glyph glyph-name="¢" unicode="&#xA2;" horiz-adv-x="487" d=" M487,30 L453,21 Q368,-2 322,-4 L322,-133 L290,-133 L290,-4 Q190,1 132.5,70.5 Q75,140 75,272 Q75,400 133,471.5 Q191,543 290,548 L290,673 L322,673 L322,548 Q366,545 453,523 L487,514 L480,481 L446,490 Q344,517 307,517 Q213,517 161,455 Q109,393 109,272 Q109,152 161,89.5 Q213,27 308,27 Q348,27 446,53 L480,62"/> 
            <glyph glyph-name="£" unicode="&#xA3;" horiz-adv-x="541" d=" M514,131 L541,131 Q539,71 500,35.5 Q461,0 393,0 L48,0 Q35,0 35,14 Q35,30 48,30 Q140,30 179.5,77.5 Q219,125 219,198 Q219,241 194,294 L68,294 L68,324 L181,324 Q169,346 145.5,387 Q122,428 112.5,447.5 Q103,467 94,499 Q85,531 85,564 Q85,648 140.5,699.5 Q196,751 290,751 Q381,748 479,716 L510,706 L503,673 L473,682 Q351,718 291,718 Q205,718 162,675 Q119,632 119,564 Q119,522 131.5,486.5 Q144,451 174.5,399 Q205,347 216,325 L416,325 L416,295 L230,295 Q252,243 252,198 Q252,82 160,32 L391,32 Q449,32 480.5,57.5 Q512,83 514,131"/> 
            <glyph glyph-name="¥" unicode="&#xA5;" horiz-adv-x="532" d=" M308,0 L273,0 L273,230 L56,230 L56,261 L273,261 L273,365 L56,365 L56,395 L255,395 L45,744 L86,744 L292,395 L493,744 L532,744 L326,395 L521,395 L521,365 L308,365 L308,261 L521,261 L521,230 L308,230"/> 
            <glyph glyph-name="¦" unicode="&#xA6;" horiz-adv-x="119" d=" M119,387 L90,387 L90,763 L119,763 M119,-181 L90,-181 L90,196 L119,196"/> 
            <glyph glyph-name="§" unicode="&#xA7;" horiz-adv-x="513" d=" M480,168 L480,240 Q480,335 436,386.5 Q392,438 283,438 Q218,438 96,396 L96,326 Q96,231 140.5,178.5 Q185,126 293,126 Q353,126 480,168 M480,43 L480,136 Q351,94 292,94 Q63,94 63,326 L63,522 Q63,628 120,689 Q177,750 283,750 Q352,750 472,716 L503,707 L496,674 L465,683 Q344,718 284,718 Q190,718 143,666.5 Q96,615 96,522 L96,428 Q221,470 285,470 Q513,470 513,240 L513,43 Q513,-63 455.5,-124.5 Q398,-186 293,-186 Q227,-186 104,-151 L73,-142 L81,-109 L111,-118 Q239,-155 293,-155 Q387,-155 433.5,-103 Q480,-51 480,43"/> 
            <glyph glyph-name="¨" unicode="&#xA8;" horiz-adv-x="426" d=" M175,702 Q147,702 147,734 Q147,748 154.5,757 Q162,766 175,766 Q204,766 204,734 Q204,702 175,702 M397,702 Q369,702 369,734 Q369,748 376.5,757 Q384,766 397,766 Q426,766 426,734 Q426,702 397,702"/> 
            <glyph glyph-name="©" unicode="&#xA9;" horiz-adv-x="850" d=" M598,190 L574,183 Q499,163 461,163 Q378,163 328,214.5 Q278,266 278,367 Q278,466 329,518.5 Q380,571 462,571 Q494,571 574,551 L598,544 L591,516 L567,522 Q502,540 463,540 Q391,540 350.5,496.5 Q310,453 310,367 Q310,281 351,237 Q392,193 463,193 Q497,193 567,211 L592,218 M458,-25 Q297,-25 182,88 Q67,201 67,370 Q67,538 181.5,647.5 Q296,757 458,757 Q622,757 736,648.5 Q850,540 850,370 Q850,200 735.5,87.5 Q621,-25 458,-25 M458,6 Q611,6 715,109 Q819,212 819,370 Q819,528 714.5,628 Q610,728 458,728 Q307,728 202.5,627 Q98,526 98,370 Q98,213 203.5,109.5 Q309,6 458,6"/> 
            <glyph glyph-name="ª" unicode="&#xAA;" horiz-adv-x="478" d=" M466,334 L431,352 Q416,360 387,355 L323,343 Q263,331 238,331 Q179,331 146.5,362 Q114,393 114,446 Q114,560 267,560 L402,560 L402,617 Q402,722 299,722 Q243,722 163,700 L139,694 L132,723 L159,730 Q245,753 300,753 Q360,753 396.5,720.5 Q433,688 433,617 L433,381 L478,356 M402,385 L402,532 L267,532 Q146,532 146,446 Q146,360 242,360 Q273,360 336,373"/> 
            <glyph glyph-name="«" unicode="&#xAB;" horiz-adv-x="486" d=" M276,95 L233,95 L64,255 Q53,266 53,280 Q53,293 64,304 L228,466 L272,466 L84,280 M486,95 L443,95 L273,255 Q262,266 262,280 Q262,293 273,304 L438,466 L480,466 L291,280"/> 
            <glyph glyph-name="¬" unicode="&#xAC;" horiz-adv-x="510" d=" M510,155 L479,155 L479,370 L63,370 L63,405 L510,405"/> 
            <glyph glyph-name="®" unicode="&#xAE;" horiz-adv-x="850" d=" M531,352 L562,396 Q584,428 584,461 Q584,498 561,519 Q538,540 500,540 L360,540 L360,352 M458,-25 Q297,-25 182,88 Q67,201 67,370 Q67,538 181.5,647.5 Q296,757 458,757 Q622,757 736,648.5 Q850,540 850,370 Q850,200 735.5,87.5 Q621,-25 458,-25 M458,6 Q611,6 715,109 Q819,212 819,370 Q819,528 714.5,628 Q610,728 458,728 Q307,728 202.5,627 Q98,526 98,370 Q98,213 203.5,109.5 Q309,6 458,6 M633,168 L599,168 L525,324 L360,324 L360,168 L329,168 L329,539 Q329,569 360,569 L504,569 Q553,569 584.5,539.5 Q616,510 616,461 Q616,423 591,387 L553,334"/> 
            <glyph glyph-name="¯" unicode="&#xAF;" horiz-adv-x="412" d=" M412,687 L119,687 L119,720 L412,720"/> 
            <glyph glyph-name="°" unicode="&#xB0;" horiz-adv-x="439" d=" M267,385 Q188,385 141,439 Q94,493 94,575 Q94,657 142,710.5 Q190,764 269,764 Q347,764 393,710.5 Q439,657 439,575 Q439,492 392,438.5 Q345,385 267,385 M202,415 Q334,415 371,459.5 Q408,504 408,575 Q408,646 371,690 Q334,734 269,734 Q202,734 164.5,689.5 Q127,645 127,575 Q127,504 202,415"/> 
            <glyph glyph-name="±" unicode="&#xB1;" horiz-adv-x="509" d=" M509,314 L300,314 L300,127 L268,127 L268,314 L62,314 L62,347 L268,347 L268,540 L300,540 L300,347 L509,347 M509,0 L62,0 L62,32 L509,32"/> 
            <glyph glyph-name="´" unicode="&#xB4;" horiz-adv-x="364" d=" M364,763 L252,659 Q244,652 236,652 Q221,652 221,667 Q221,676 228,682 L313,763"/> 
            <glyph glyph-name="µ" unicode="&#xB5;" horiz-adv-x="491" d=" M458,62 L458,544 L491,544 L491,69 Q491,52 484.5,44 Q478,36 461,30 Q359,-2 281,-2 Q223,-2 179.5,20 Q136,42 117,81 L117,-186 L85,-186 L85,544 L118,544 L118,193 Q118,31 283,31 Q359,31 458,62"/> 
            <glyph glyph-name="¶" unicode="&#xB6;" horiz-adv-x="540" d=" M540,-186 L509,-186 L509,713 L330,713 L330,-186 L298,-186 L298,229 Q179,229 116,301.5 Q53,374 53,486 Q53,599 112.5,671.5 Q172,744 283,744 L540,744"/> 
            <glyph glyph-name="·" unicode="&#xB7;" horiz-adv-x="217" d=" M188,335 Q160,335 160,367 Q160,381 167.5,390 Q175,399 188,399 Q217,399 217,367 Q217,335 188,335"/> 
            <glyph glyph-name="¸" unicode="&#xB8;" horiz-adv-x="352" d=" M184,-178 L191,-154 Q227,-167 258,-167 Q322,-167 322,-123 Q322,-104 306.5,-93.5 Q291,-83 273.5,-81 Q256,-79 229,-79 L227,-75 L267,0 L290,0 L260,-58 Q352,-58 352,-122 Q352,-154 327,-173.5 Q302,-193 258,-193 Q214,-192 184,-178"/> 
            <glyph glyph-name="º" unicode="&#xBA;" horiz-adv-x="466" d=" M366,331 Q204,331 156,387.5 Q108,444 108,543 Q108,640 157,696.5 Q206,753 287,753 Q369,753 417.5,696.5 Q466,640 466,543 Q466,446 366,331 M286,361 Q356,361 394.5,409 Q433,457 433,543 Q433,628 394,676 Q355,724 286,724 Q217,724 179,676 Q141,628 141,543 Q141,456 179,408.5 Q217,361 286,361"/> 
            <glyph glyph-name="»" unicode="&#xBB;" horiz-adv-x="486" d=" M475,255 L306,95 L263,95 L455,280 L267,466 L311,466 L475,304 Q486,293 486,280 Q486,266 475,255 M266,255 L96,95 L53,95 L248,280 L59,466 L101,466 L266,304 Q277,293 277,280 Q277,266 266,255"/> 
            <glyph glyph-name="¿" unicode="&#xBF;" horiz-adv-x="409" d=" M409,-155 L382,-163 Q294,-189 222,-189 Q142,-189 94.5,-147 Q47,-105 47,-31 Q47,22 64,56.5 Q81,91 120,133 L221,240 L221,327 L252,333 L252,256 Q252,229 233,209 L145,116 Q107,77 92.5,46.5 Q78,16 78,-31 Q78,-88 115,-123 Q152,-158 223,-158 Q293,-158 376,-133 L402,-125 M235,501 Q206,501 206,533 Q206,565 235,565 Q248,565 255.5,556 Q263,547 263,533 Q263,501 235,501"/> 
            <glyph glyph-name="À" unicode="&#xC0;" horiz-adv-x="638" d=" M638,0 L602,0 L532,185 L135,185 L65,0 L30,0 L308,728 Q317,750 336,750 Q358,750 365,729 M521,216 L336,713 L146,216 M361,831 L249,935 L300,935 L385,854 Q392,848 392,839 Q392,824 377,824 Q369,824 361,831"/> 
            <glyph glyph-name="Á" unicode="&#xC1;" horiz-adv-x="638" d=" M638,0 L602,0 L532,185 L135,185 L65,0 L30,0 L308,728 Q317,750 336,750 Q358,750 365,729 M521,216 L336,713 L146,216 M422,935 L310,831 Q302,824 294,824 Q279,824 279,839 Q279,848 286,854 L371,935"/> 
            <glyph glyph-name="Â" unicode="&#xC2;" horiz-adv-x="638" d=" M638,0 L602,0 L532,185 L135,185 L65,0 L30,0 L308,728 Q317,750 336,750 Q358,750 365,729 M521,216 L336,713 L146,216 M473,824 L429,824 L335,923 L240,824 L197,824 L310,941 Q321,952 335,952 Q348,952 359,941"/> 
            <glyph glyph-name="Ã" unicode="&#xC3;" horiz-adv-x="638" d=" M638,0 L602,0 L532,185 L135,185 L65,0 L30,0 L308,728 Q317,750 336,750 Q358,750 365,729 M521,216 L336,713 L146,216 M511,920 L536,906 Q518,863 489.5,842 Q461,821 430,821 Q393,821 361,844 L314,878 Q286,899 259,899 Q205,899 177,833 L153,847 Q171,889 200,910.5 Q229,932 260,932 Q295,932 328,909 L375,874 Q404,854 430,854 Q482,854 511,920"/> 
            <glyph glyph-name="Ä" unicode="&#xC4;" horiz-adv-x="638" d=" M638,0 L602,0 L532,185 L135,185 L65,0 L30,0 L308,728 Q317,750 336,750 Q358,750 365,729 M521,216 L336,713 L146,216 M223,856 Q195,856 195,888 Q195,902 202.5,911 Q210,920 223,920 Q252,920 252,888 Q252,856 223,856 M445,856 Q417,856 417,888 Q417,902 424.5,911 Q432,920 445,920 Q474,920 474,888 Q474,856 445,856"/> 
            <glyph glyph-name="Å" unicode="&#xC5;" horiz-adv-x="638" d=" M638,0 L602,0 L532,185 L135,185 L65,0 L30,0 L308,722 Q279,730 261.5,753.5 Q244,777 244,809 Q244,849 270.5,875 Q297,901 336,901 Q376,901 402.5,875.5 Q429,850 429,809 Q429,777 411.5,753.5 Q394,730 365,722 M521,216 L336,709 L146,216 M402,809 Q402,837 384,855 Q366,873 336,873 Q307,873 289.5,855 Q272,837 272,809 Q272,780 289.5,761.5 Q307,743 336,743 Q365,743 383.5,761.5 Q402,780 402,809"/> 
            <glyph glyph-name="Æ" unicode="&#xC6;" horiz-adv-x="947" d=" M947,0 L538,0 Q502,0 502,34 L502,181 L137,181 L66,0 L30,0 L314,714 Q326,744 357,744 L945,744 L945,712 L535,712 L535,397 L900,397 L900,366 L535,366 L535,32 L947,32 M502,212 L502,712 L347,712 L149,212"/> 
            <glyph glyph-name="Ç" unicode="&#xC7;" horiz-adv-x="605" d=" M605,40 L564,27 Q454,-8 376,-8 Q235,-8 149,87 Q63,182 63,370 Q63,555 149.5,651.5 Q236,748 376,748 Q452,748 564,713 L605,700 L598,667 L557,680 Q443,715 376,715 Q247,715 173,628.5 Q99,542 99,370 Q99,198 173.5,111.5 Q248,25 377,25 Q446,25 557,59 L598,72 M284,-178 L291,-154 Q327,-167 358,-167 Q422,-167 422,-123 Q422,-104 406.5,-93.5 Q391,-83 373.5,-81 Q356,-79 329,-79 L327,-75 L367,0 L390,0 L360,-58 Q452,-58 452,-122 Q452,-154 427,-173.5 Q402,-193 358,-193 Q314,-192 284,-178"/> 
            <glyph glyph-name="È" unicode="&#xC8;" horiz-adv-x="536" d=" M536,0 L126,0 Q90,0 90,34 L90,709 Q90,744 126,744 L534,744 L534,712 L124,712 L124,397 L485,397 L485,365 L124,365 L124,32 L536,32 M331,831 L219,935 L270,935 L355,854 Q362,848 362,839 Q362,824 347,824 Q339,824 331,831"/> 
            <glyph glyph-name="É" unicode="&#xC9;" horiz-adv-x="536" d=" M536,0 L126,0 Q90,0 90,34 L90,709 Q90,744 126,744 L534,744 L534,712 L124,712 L124,397 L485,397 L485,365 L124,365 L124,32 L536,32 M406,935 L294,831 Q286,824 278,824 Q263,824 263,839 Q263,848 270,854 L355,935"/> 
            <glyph glyph-name="Ê" unicode="&#xCA;" horiz-adv-x="536" d=" M536,0 L126,0 Q90,0 90,34 L90,709 Q90,744 126,744 L534,744 L534,712 L124,712 L124,397 L485,397 L485,365 L124,365 L124,32 L536,32 M448,824 L404,824 L310,923 L215,824 L172,824 L285,941 Q296,952 310,952 Q323,952 334,941"/> 
            <glyph glyph-name="Ë" unicode="&#xCB;" horiz-adv-x="536" d=" M536,0 L126,0 Q90,0 90,34 L90,709 Q90,744 126,744 L534,744 L534,712 L124,712 L124,397 L485,397 L485,365 L124,365 L124,32 L536,32 M197,855 Q169,855 169,887 Q169,901 176.5,910 Q184,919 197,919 Q226,919 226,887 Q226,855 197,855 M419,855 Q391,855 391,887 Q391,901 398.5,910 Q406,919 419,919 Q448,919 448,887 Q448,855 419,855"/> 
            <glyph glyph-name="Ì" unicode="&#xCC;" horiz-adv-x="163" d=" M124,0 L90,0 L90,744 L124,744 M132,830 L20,934 L71,934 L156,853 Q163,847 163,838 Q163,823 148,823 Q140,823 132,830"/> 
            <glyph glyph-name="Í" unicode="&#xCD;" horiz-adv-x="203" d=" M124,0 L90,0 L90,744 L124,744 M203,934 L91,830 Q83,823 75,823 Q60,823 60,838 Q60,847 67,853 L152,934"/> 
            <glyph glyph-name="Î" unicode="&#xCE;" horiz-adv-x="246" d=" M124,0 L90,0 L90,744 L124,744 M246,824 L202,824 L108,923 L13,824 L-30,824 L83,941 Q94,952 108,952 Q121,952 132,941"/> 
            <glyph glyph-name="Ï" unicode="&#xCF;" horiz-adv-x="249" d=" M124,0 L90,0 L90,744 L124,744 M-2,856 Q-30,856 -30,888 Q-30,902 -22.5,911 Q-15,920 -2,920 Q27,920 27,888 Q27,856 -2,856 M220,856 Q192,856 192,888 Q192,902 199.5,911 Q207,920 220,920 Q249,920 249,888 Q249,856 220,856"/> 
            <glyph glyph-name="Ð" unicode="&#xD0;" horiz-adv-x="657" d=" M338,0 L131,0 Q95,0 95,34 L95,366 L25,366 L25,397 L95,397 L95,709 Q95,744 131,744 L336,744 Q485,744 571,644.5 Q657,545 657,370 Q657,196 569,98 Q481,0 338,0 M129,32 L336,32 Q470,32 546.5,120.5 Q623,209 623,370 Q623,529 545.5,621 Q468,713 329,713 L129,713 L129,397 L367,397 L367,366 L129,366"/> 
            <glyph glyph-name="Ñ" unicode="&#xD1;" horiz-adv-x="636" d=" M579,14 L123,705 L123,0 L90,0 L90,719 Q90,749 117,749 Q136,749 148,730 L604,40 L604,744 L636,744 L636,25 Q636,-5 609,-5 Q591,-5 579,14 M538,921 L563,907 Q545,864 516.5,843 Q488,822 457,822 Q420,822 388,845 L341,879 Q313,900 286,900 Q232,900 204,834 L180,848 Q198,890 227,911.5 Q256,933 287,933 Q322,933 355,910 L402,875 Q431,855 457,855 Q509,855 538,921"/> 
            <glyph glyph-name="Ò" unicode="&#xD2;" horiz-adv-x="708" d=" M532,-8 Q234,-8 147,91 Q60,190 60,370 Q60,548 148.5,648 Q237,748 385,748 Q533,748 620.5,648 Q708,548 708,370 Q708,190 532,-8 M384,23 Q519,23 595.5,113.5 Q672,204 672,370 Q672,534 596,625 Q520,716 385,716 Q249,716 171.5,625 Q94,534 94,370 Q94,205 172,114 Q250,23 384,23 M407,830 L295,934 L346,934 L431,853 Q438,847 438,838 Q438,823 423,823 Q415,823 407,830"/> 
            <glyph glyph-name="Ó" unicode="&#xD3;" horiz-adv-x="708" d=" M532,-8 Q234,-8 147,91 Q60,190 60,370 Q60,548 148.5,648 Q237,748 385,748 Q533,748 620.5,648 Q708,548 708,370 Q708,190 532,-8 M384,23 Q519,23 595.5,113.5 Q672,204 672,370 Q672,534 596,625 Q520,716 385,716 Q249,716 171.5,625 Q94,534 94,370 Q94,205 172,114 Q250,23 384,23 M477,934 L365,830 Q357,823 349,823 Q334,823 334,838 Q334,847 341,853 L426,934"/> 
            <glyph glyph-name="Ô" unicode="&#xD4;" horiz-adv-x="708" d=" M532,-8 Q234,-8 147,91 Q60,190 60,370 Q60,548 148.5,648 Q237,748 385,748 Q533,748 620.5,648 Q708,548 708,370 Q708,190 532,-8 M384,23 Q519,23 595.5,113.5 Q672,204 672,370 Q672,534 596,625 Q520,716 385,716 Q249,716 171.5,625 Q94,534 94,370 Q94,205 172,114 Q250,23 384,23 M523,824 L479,824 L385,923 L290,824 L247,824 L360,941 Q371,952 385,952 Q398,952 409,941"/> 
            <glyph glyph-name="Õ" unicode="&#xD5;" horiz-adv-x="708" d=" M532,-8 Q234,-8 147,91 Q60,190 60,370 Q60,548 148.5,648 Q237,748 385,748 Q533,748 620.5,648 Q708,548 708,370 Q708,190 532,-8 M384,23 Q519,23 595.5,113.5 Q672,204 672,370 Q672,534 596,625 Q520,716 385,716 Q249,716 171.5,625 Q94,534 94,370 Q94,205 172,114 Q250,23 384,23 M552,923 L577,909 Q559,866 530.5,845 Q502,824 471,824 Q434,824 402,847 L355,881 Q326,902 300,902 Q246,902 218,836 L194,850 Q212,892 241,913.5 Q270,935 301,935 Q336,935 369,912 L416,877 Q445,857 471,857 Q523,857 552,923"/> 
            <glyph glyph-name="Ö" unicode="&#xD6;" horiz-adv-x="708" d=" M532,-8 Q234,-8 147,91 Q60,190 60,370 Q60,548 148.5,648 Q237,748 385,748 Q533,748 620.5,648 Q708,548 708,370 Q708,190 532,-8 M384,23 Q519,23 595.5,113.5 Q672,204 672,370 Q672,534 596,625 Q520,716 385,716 Q249,716 171.5,625 Q94,534 94,370 Q94,205 172,114 Q250,23 384,23 M274,855 Q246,855 246,887 Q246,901 253.5,910 Q261,919 274,919 Q303,919 303,887 Q303,855 274,855 M496,855 Q468,855 468,887 Q468,901 475.5,910 Q483,919 496,919 Q525,919 525,887 Q525,855 496,855"/> 
            <glyph glyph-name="×" unicode="&#xD7;" horiz-adv-x="481" d=" M458,98 L285,271 L113,98 L89,122 L261,296 L89,469 L113,493 L285,320 L458,493 L481,469 L309,296 L481,122"/> 
            <glyph glyph-name="Ø" unicode="&#xD8;" horiz-adv-x="708" d=" M174,-53 L141,-53 L196,47 Q60,143 60,370 Q60,548 148.5,648 Q237,748 385,748 Q484,748 554,703 L603,793 L637,793 L579,687 Q708,588 708,370 Q708,190 620,91 Q532,-8 383,-8 Q290,-8 220,31 M211,75 L539,675 Q474,716 385,716 Q249,716 171.5,625 Q94,534 94,370 Q94,165 211,75 M563,658 L236,60 Q298,23 384,23 Q519,23 595.5,113.5 Q672,204 672,370 Q672,569 563,658"/> 
            <glyph glyph-name="Ù" unicode="&#xD9;" horiz-adv-x="625" d=" M590,258 L590,744 L625,744 L625,258 Q625,130 555,58 Q485,-14 355,-14 Q225,-14 155,58 Q85,130 85,258 L85,744 L120,744 L120,258 Q120,144 180,81 Q240,18 355,18 Q590,18 590,258 M379,831 L267,935 L318,935 L403,854 Q410,848 410,839 Q410,824 395,824 Q387,824 379,831"/> 
            <glyph glyph-name="Ú" unicode="&#xDA;" horiz-adv-x="625" d=" M590,258 L590,744 L625,744 L625,258 Q625,130 555,58 Q485,-14 355,-14 Q225,-14 155,58 Q85,130 85,258 L85,744 L120,744 L120,258 Q120,144 180,81 Q240,18 355,18 Q590,18 590,258 M452,935 L340,831 Q332,824 324,824 Q309,824 309,839 Q309,848 316,854 L401,935"/> 
            <glyph glyph-name="Û" unicode="&#xDB;" horiz-adv-x="625" d=" M590,258 L590,744 L625,744 L625,258 Q625,130 555,58 Q485,-14 355,-14 Q225,-14 155,58 Q85,130 85,258 L85,744 L120,744 L120,258 Q120,144 180,81 Q240,18 355,18 Q590,18 590,258 M495,824 L451,824 L357,923 L262,824 L219,824 L332,941 Q343,952 357,952 Q370,952 381,941"/> 
            <glyph glyph-name="Ü" unicode="&#xDC;" horiz-adv-x="625" d=" M590,258 L590,744 L625,744 L625,258 Q625,130 555,58 Q485,-14 355,-14 Q225,-14 155,58 Q85,130 85,258 L85,744 L120,744 L120,258 Q120,144 180,81 Q240,18 355,18 Q590,18 590,258 M246,855 Q218,855 218,887 Q218,901 225.5,910 Q233,919 246,919 Q275,919 275,887 Q275,855 246,855 M468,855 Q440,855 440,887 Q440,901 447.5,910 Q455,919 468,919 Q497,919 497,887 Q497,855 468,855"/> 
            <glyph glyph-name="Ý" unicode="&#xDD;" horiz-adv-x="605" d=" M337,0 L302,0 L302,323 L32,744 L73,744 L321,355 L565,744 L605,744 L337,324 M435,935 L323,831 Q315,824 307,824 Q292,824 292,839 Q292,848 299,854 L384,935"/> 
            <glyph glyph-name="Þ" unicode="&#xDE;" horiz-adv-x="564" d=" M348,174 L123,174 L123,0 L90,0 L90,744 L123,744 L123,609 L358,609 Q448,609 506,550 Q564,491 564,391 Q564,291 504,232.5 Q444,174 348,174 M123,204 L348,204 Q431,204 481,254 Q531,304 531,391 Q531,477 482.5,527.5 Q434,578 355,578 L123,578"/> 
            <glyph glyph-name="ß" unicode="&#xDF;" horiz-adv-x="508" d=" M318,0 L252,0 L252,30 L316,30 Q393,30 434,70.5 Q475,111 475,176 Q475,240 415,291 L331,360 Q317,371 317,387 Q317,397 325,410 L385,490 Q419,536 419,592 Q419,657 377.5,697 Q336,737 264,737 Q115,737 115,572 L115,0 L82,0 L82,572 Q82,670 132.5,719 Q183,768 265,768 Q347,768 399,722 Q451,676 451,593 Q451,530 413,477 L347,388 L436,315 Q508,254 508,176 Q508,98 456,49 Q404,0 318,0"/> 
            <glyph glyph-name="à" unicode="&#xE0;" horiz-adv-x="552" d=" M539,-3 L494,24 Q470,38 441,31 L382,17 Q278,-7 228,-7 Q149,-7 106,30.5 Q63,68 63,136 Q63,215 117,252 Q171,289 264,289 L456,289 L456,374 Q456,447 415.5,482 Q375,517 304,517 Q237,517 121,484 L95,477 L88,509 L114,516 Q241,550 304,550 Q389,550 438.5,507 Q488,464 488,374 L488,60 L552,21 M456,61 L456,258 L263,258 Q96,258 96,137 Q96,23 233,23 Q283,23 378,44 M316,659 L204,763 L255,763 L340,682 Q347,676 347,667 Q347,652 332,652 Q324,652 316,659"/> 
            <glyph glyph-name="á" unicode="&#xE1;" horiz-adv-x="552" d=" M539,-3 L494,24 Q470,38 441,31 L382,17 Q278,-7 228,-7 Q149,-7 106,30.5 Q63,68 63,136 Q63,215 117,252 Q171,289 264,289 L456,289 L456,374 Q456,447 415.5,482 Q375,517 304,517 Q237,517 121,484 L95,477 L88,509 L114,516 Q241,550 304,550 Q389,550 438.5,507 Q488,464 488,374 L488,60 L552,21 M456,61 L456,258 L263,258 Q96,258 96,137 Q96,23 233,23 Q283,23 378,44 M401,763 L289,659 Q281,652 273,652 Q258,652 258,667 Q258,676 265,682 L350,763"/> 
            <glyph glyph-name="â" unicode="&#xE2;" horiz-adv-x="552" d=" M539,-3 L494,24 Q470,38 441,31 L382,17 Q278,-7 228,-7 Q149,-7 106,30.5 Q63,68 63,136 Q63,215 117,252 Q171,289 264,289 L456,289 L456,374 Q456,447 415.5,482 Q375,517 304,517 Q237,517 121,484 L95,477 L88,509 L114,516 Q241,550 304,550 Q389,550 438.5,507 Q488,464 488,374 L488,60 L552,21 M456,61 L456,258 L263,258 Q96,258 96,137 Q96,23 233,23 Q283,23 378,44 M437,637 L393,637 L299,736 L204,637 L161,637 L274,754 Q285,765 299,765 Q312,765 323,754"/> 
            <glyph glyph-name="ã" unicode="&#xE3;" horiz-adv-x="552" d=" M539,-3 L494,24 Q470,38 441,31 L382,17 Q278,-7 228,-7 Q149,-7 106,30.5 Q63,68 63,136 Q63,215 117,252 Q171,289 264,289 L456,289 L456,374 Q456,447 415.5,482 Q375,517 304,517 Q237,517 121,484 L95,477 L88,509 L114,516 Q241,550 304,550 Q389,550 438.5,507 Q488,464 488,374 L488,60 L552,21 M456,61 L456,258 L263,258 Q96,258 96,137 Q96,23 233,23 Q283,23 378,44 M465,741 L490,727 Q472,684 443.5,663 Q415,642 384,642 Q347,642 315,665 L268,699 Q239,720 213,720 Q159,720 131,654 L107,668 Q125,710 154,731.5 Q183,753 214,753 Q249,753 282,730 L329,695 Q358,675 384,675 Q436,675 465,741"/> 
            <glyph glyph-name="ä" unicode="&#xE4;" horiz-adv-x="552" d=" M539,-3 L494,24 Q470,38 441,31 L382,17 Q278,-7 228,-7 Q149,-7 106,30.5 Q63,68 63,136 Q63,215 117,252 Q171,289 264,289 L456,289 L456,374 Q456,447 415.5,482 Q375,517 304,517 Q237,517 121,484 L95,477 L88,509 L114,516 Q241,550 304,550 Q389,550 438.5,507 Q488,464 488,374 L488,60 L552,21 M456,61 L456,258 L263,258 Q96,258 96,137 Q96,23 233,23 Q283,23 378,44 M190,702 Q162,702 162,734 Q162,748 169.5,757 Q177,766 190,766 Q219,766 219,734 Q219,702 190,702 M412,702 Q384,702 384,734 Q384,748 391.5,757 Q399,766 412,766 Q441,766 441,734 Q441,702 412,702"/> 
            <glyph glyph-name="å" unicode="&#xE5;" horiz-adv-x="552" d=" M539,-3 L494,24 Q470,38 441,31 L382,17 Q278,-7 228,-7 Q149,-7 106,30.5 Q63,68 63,136 Q63,215 117,252 Q171,289 264,289 L456,289 L456,374 Q456,447 415.5,482 Q375,517 304,517 Q237,517 121,484 L95,477 L88,509 L114,516 Q241,550 304,550 Q389,550 438.5,507 Q488,464 488,374 L488,60 L552,21 M456,61 L456,258 L263,258 Q96,258 96,137 Q96,23 233,23 Q283,23 378,44 M386,705 Q386,665 359,639 Q332,613 293,613 Q254,613 227.5,639 Q201,665 201,705 Q201,746 227,771.5 Q253,797 293,797 Q333,797 359.5,771.5 Q386,746 386,705 M358,705 Q358,733 340,751 Q322,769 293,769 Q264,769 246.5,751 Q229,733 229,705 Q229,676 246.5,657.5 Q264,639 293,639 Q321,639 339.5,657.5 Q358,676 358,705"/> 
            <glyph glyph-name="æ" unicode="&#xE6;" horiz-adv-x="908" d=" M898,39 L856,25 Q766,-6 693,-6 Q611,-6 547,36 Q525,50 492,42 L385,16 Q289,-7 226,-7 Q147,-7 104,30.5 Q61,68 61,136 Q61,215 115.5,252 Q170,289 262,289 L445,289 L445,372 Q445,444 406,480.5 Q367,517 299,517 Q237,517 121,484 L95,477 L88,509 L114,516 Q241,550 299,550 Q370,550 417,513.5 Q464,477 473,405 Q497,476 552.5,514 Q608,552 678,552 Q784,552 846,482 Q908,412 908,283 Q908,257 884,257 L479,257 Q483,144 541.5,85 Q600,26 694,26 Q755,26 848,57 L891,71 M381,45 L505,74 Q448,148 445,258 L261,258 Q95,258 95,137 Q95,23 232,23 Q288,23 381,45 M479,288 L874,288 Q874,397 823,460 Q772,523 677,523 Q589,523 535.5,460 Q482,397 479,288"/> 
            <glyph glyph-name="ç" unicode="&#xE7;" horiz-adv-x="469" d=" M469,30 L435,21 Q338,-5 289,-5 Q182,-5 119.5,65 Q57,135 57,272 Q57,405 120,477 Q183,549 289,549 Q333,549 435,523 L469,514 L463,481 L429,490 Q327,517 290,517 Q195,517 143,454.5 Q91,392 91,272 Q91,152 143.5,89.5 Q196,27 291,27 Q338,27 429,53 L463,62 M193,-178 L200,-154 Q236,-167 267,-167 Q331,-167 331,-123 Q331,-104 315.5,-93.5 Q300,-83 282.5,-81 Q265,-79 238,-79 L236,-75 L276,0 L299,0 L269,-58 Q361,-58 361,-122 Q361,-154 336,-173.5 Q311,-193 267,-193 Q223,-192 193,-178"/> 
            <glyph glyph-name="è" unicode="&#xE8;" horiz-adv-x="520" d=" M92,288 L486,288 Q486,397 435,460 Q384,523 289,523 Q202,523 148.5,460 Q95,397 92,288 M510,39 L468,25 Q379,-6 305,-6 Q193,-6 125,65 Q57,136 57,271 Q57,406 123,479 Q189,552 290,552 Q396,552 458,482 Q520,412 520,283 Q520,257 496,257 L92,257 Q95,144 153.5,85 Q212,26 306,26 Q368,26 461,57 L503,71 M308,659 L196,763 L247,763 L332,682 Q339,676 339,667 Q339,652 324,652 Q316,652 308,659"/> 
            <glyph glyph-name="é" unicode="&#xE9;" horiz-adv-x="520" d=" M92,288 L486,288 Q486,397 435,460 Q384,523 289,523 Q202,523 148.5,460 Q95,397 92,288 M510,39 L468,25 Q379,-6 305,-6 Q193,-6 125,65 Q57,136 57,271 Q57,406 123,479 Q189,552 290,552 Q396,552 458,482 Q520,412 520,283 Q520,257 496,257 L92,257 Q95,144 153.5,85 Q212,26 306,26 Q368,26 461,57 L503,71 M403,763 L291,659 Q283,652 275,652 Q260,652 260,667 Q260,676 267,682 L352,763"/> 
            <glyph glyph-name="ê" unicode="&#xEA;" horiz-adv-x="520" d=" M92,288 L486,288 Q486,397 435,460 Q384,523 289,523 Q202,523 148.5,460 Q95,397 92,288 M510,39 L468,25 Q379,-6 305,-6 Q193,-6 125,65 Q57,136 57,271 Q57,406 123,479 Q189,552 290,552 Q396,552 458,482 Q520,412 520,283 Q520,257 496,257 L92,257 Q95,144 153.5,85 Q212,26 306,26 Q368,26 461,57 L503,71 M427,637 L383,637 L289,736 L194,637 L151,637 L264,754 Q275,765 289,765 Q302,765 313,754"/> 
            <glyph glyph-name="ë" unicode="&#xEB;" horiz-adv-x="520" d=" M92,288 L486,288 Q486,397 435,460 Q384,523 289,523 Q202,523 148.5,460 Q95,397 92,288 M510,39 L468,25 Q379,-6 305,-6 Q193,-6 125,65 Q57,136 57,271 Q57,406 123,479 Q189,552 290,552 Q396,552 458,482 Q520,412 520,283 Q520,257 496,257 L92,257 Q95,144 153.5,85 Q212,26 306,26 Q368,26 461,57 L503,71 M178,702 Q150,702 150,734 Q150,748 157.5,757 Q165,766 178,766 Q207,766 207,734 Q207,702 178,702 M400,702 Q372,702 372,734 Q372,748 379.5,757 Q387,766 400,766 Q429,766 429,734 Q429,702 400,702"/> 
            <glyph glyph-name="ì" unicode="&#xEC;" horiz-adv-x="157" d=" M126,659 L14,763 L65,763 L150,682 Q157,676 157,667 Q157,652 142,652 Q134,652 126,659 M126,0 L91,0 L91,544 L126,544"/> 
            <glyph glyph-name="í" unicode="&#xED;" horiz-adv-x="213" d=" M213,763 L101,659 Q93,652 85,652 Q70,652 70,667 Q70,676 77,682 L162,763 M126,0 L91,0 L91,544 L126,544"/> 
            <glyph glyph-name="î" unicode="&#xEE;" horiz-adv-x="252" d=" M126,0 L91,0 L91,544 L126,544 M252,637 L208,637 L114,736 L19,637 L-24,637 L89,754 Q100,765 114,765 Q127,765 138,754"/> 
            <glyph glyph-name="ï" unicode="&#xEF;" horiz-adv-x="255" d=" M4,702 Q-24,702 -24,734 Q-24,748 -16.5,757 Q-9,766 4,766 Q33,766 33,734 Q33,702 4,702 M226,702 Q198,702 198,734 Q198,748 205.5,757 Q213,766 226,766 Q255,766 255,734 Q255,702 226,702 M126,0 L91,0 L91,544 L126,544"/> 
            <glyph glyph-name="ð" unicode="&#xF0;" horiz-adv-x="545" d=" M499,248 L499,442 Q376,482 302,482 Q195,482 145.5,420.5 Q96,359 96,259 Q96,153 149,89.5 Q202,26 299,26 Q400,26 449.5,85 Q499,144 499,248 M499,473 L499,534 Q499,611 457,668 L318,588 L318,621 L439,689 Q387,733 310,733 L260,733 L260,763 L309,763 Q407,763 466,707 L545,752 L545,719 L485,685 Q531,621 531,534 L531,247 Q531,133 471,63.5 Q411,-6 298,-6 Q186,-6 124.5,69 Q63,144 63,259 Q63,369 122.5,441.5 Q182,514 300,514 Q366,514 499,473"/> 
            <glyph glyph-name="ñ" unicode="&#xF1;" horiz-adv-x="488" d=" M488,0 L456,0 L456,351 Q456,427 416.5,471 Q377,515 291,515 Q222,515 115,483 L115,0 L82,0 L82,476 Q82,506 113,515 Q221,548 293,548 Q391,548 439.5,495.5 Q488,443 488,354 M453,741 L478,727 Q460,684 431.5,663 Q403,642 372,642 Q335,642 303,665 L256,699 Q228,720 201,720 Q147,720 119,654 L95,668 Q113,710 142,731.5 Q171,753 202,753 Q237,753 270,730 L317,695 Q346,675 372,675 Q424,675 453,741"/> 
            <glyph glyph-name="ò" unicode="&#xF2;" horiz-adv-x="540" d=" M299,-6 Q187,-6 122,67 Q57,140 57,272 Q57,404 123,476.5 Q189,549 300,549 Q411,549 475.5,477 Q540,405 540,272 Q540,139 474.5,66.5 Q409,-6 299,-6 M201,25 Q397,25 451.5,89 Q506,153 506,272 Q506,390 451,454.5 Q396,519 299,519 Q202,519 147,454.5 Q92,390 92,272 Q92,153 201,25 M328,659 L216,763 L267,763 L352,682 Q359,676 359,667 Q359,652 344,652 Q336,652 328,659"/> 
            <glyph glyph-name="ó" unicode="&#xF3;" horiz-adv-x="540" d=" M299,-6 Q187,-6 122,67 Q57,140 57,272 Q57,404 123,476.5 Q189,549 300,549 Q411,549 475.5,477 Q540,405 540,272 Q540,139 474.5,66.5 Q409,-6 299,-6 M201,25 Q397,25 451.5,89 Q506,153 506,272 Q506,390 451,454.5 Q396,519 299,519 Q202,519 147,454.5 Q92,390 92,272 Q92,153 201,25 M387,763 L275,659 Q267,652 259,652 Q244,652 244,667 Q244,676 251,682 L336,763"/> 
            <glyph glyph-name="ô" unicode="&#xF4;" horiz-adv-x="540" d=" M299,-6 Q187,-6 122,67 Q57,140 57,272 Q57,404 123,476.5 Q189,549 300,549 Q411,549 475.5,477 Q540,405 540,272 Q540,139 474.5,66.5 Q409,-6 299,-6 M201,25 Q397,25 451.5,89 Q506,153 506,272 Q506,390 451,454.5 Q396,519 299,519 Q202,519 147,454.5 Q92,390 92,272 Q92,153 201,25 M435,637 L391,637 L297,736 L202,637 L159,637 L272,754 Q283,765 297,765 Q310,765 321,754"/> 
            <glyph glyph-name="õ" unicode="&#xF5;" horiz-adv-x="540" d=" M299,-6 Q187,-6 122,67 Q57,140 57,272 Q57,404 123,476.5 Q189,549 300,549 Q411,549 475.5,477 Q540,405 540,272 Q540,139 474.5,66.5 Q409,-6 299,-6 M201,25 Q397,25 451.5,89 Q506,153 506,272 Q506,390 451,454.5 Q396,519 299,519 Q202,519 147,454.5 Q92,390 92,272 Q92,153 201,25 M467,741 L492,727 Q474,684 445.5,663 Q417,642 386,642 Q349,642 317,665 L270,699 Q241,720 215,720 Q161,720 133,654 L109,668 Q127,710 156,731.5 Q185,753 216,753 Q251,753 284,730 L331,695 Q360,675 386,675 Q438,675 467,741"/> 
            <glyph glyph-name="ö" unicode="&#xF6;" horiz-adv-x="540" d=" M299,-6 Q187,-6 122,67 Q57,140 57,272 Q57,404 123,476.5 Q189,549 300,549 Q411,549 475.5,477 Q540,405 540,272 Q540,139 474.5,66.5 Q409,-6 299,-6 M201,25 Q397,25 451.5,89 Q506,153 506,272 Q506,390 451,454.5 Q396,519 299,519 Q202,519 147,454.5 Q92,390 92,272 Q92,153 201,25 M187,702 Q159,702 159,734 Q159,748 166.5,757 Q174,766 187,766 Q216,766 216,734 Q216,702 187,702 M409,702 Q381,702 381,734 Q381,748 388.5,757 Q396,766 409,766 Q438,766 438,734 Q438,702 409,702"/> 
            <glyph glyph-name="÷" unicode="&#xF7;" horiz-adv-x="512" d=" M512,279 L60,279 L60,313 L512,313 M298,475 Q272,475 264,484 Q256,493 256,508 Q256,541 285,541 Q314,541 314,508 Q314,493 298,475 M314,47 Q256,47 256,80 Q256,95 264,104 Q272,113 285,113 Q298,113 306,104 Q314,95 314,80"/> 
            <glyph glyph-name="ø" unicode="&#xF8;" horiz-adv-x="540" d=" M147,-53 L115,-53 L161,32 Q57,101 57,272 Q57,404 123,476.5 Q189,549 300,549 Q371,549 423,518 L462,590 L493,590 L446,503 Q540,431 540,272 Q540,139 474.5,66.5 Q409,-6 299,-6 Q237,-6 185,19 M176,61 L408,490 Q362,519 299,519 Q202,519 147,454.5 Q92,390 92,272 Q92,122 176,61 M431,475 L200,46 Q244,25 299,25 Q397,25 451.5,89 Q506,153 506,272 Q506,411 431,475"/> 
            <glyph glyph-name="ù" unicode="&#xF9;" horiz-adv-x="486" d=" M453,61 L453,544 L486,544 L486,68 Q486,38 455,28 Q351,-4 275,-4 Q177,-4 128.5,48.5 Q80,101 80,190 L80,544 L112,544 L112,193 Q112,29 277,29 Q351,29 453,61 M297,659 L185,763 L236,763 L321,682 Q328,676 328,667 Q328,652 313,652 Q305,652 297,659"/> 
            <glyph glyph-name="ú" unicode="&#xFA;" horiz-adv-x="486" d=" M453,61 L453,544 L486,544 L486,68 Q486,38 455,28 Q351,-4 275,-4 Q177,-4 128.5,48.5 Q80,101 80,190 L80,544 L112,544 L112,193 Q112,29 277,29 Q351,29 453,61 M379,763 L267,659 Q259,652 251,652 Q236,652 236,667 Q236,676 243,682 L328,763"/> 
            <glyph glyph-name="û" unicode="&#xFB;" horiz-adv-x="486" d=" M453,61 L453,544 L486,544 L486,68 Q486,38 455,28 Q351,-4 275,-4 Q177,-4 128.5,48.5 Q80,101 80,190 L80,544 L112,544 L112,193 Q112,29 277,29 Q351,29 453,61 M415,637 L371,637 L277,736 L182,637 L139,637 L252,754 Q263,765 277,765 Q290,765 301,754"/> 
            <glyph glyph-name="ü" unicode="&#xFC;" horiz-adv-x="486" d=" M453,61 L453,544 L486,544 L486,68 Q486,38 455,28 Q351,-4 275,-4 Q177,-4 128.5,48.5 Q80,101 80,190 L80,544 L112,544 L112,193 Q112,29 277,29 Q351,29 453,61 M172,702 Q144,702 144,734 Q144,748 151.5,757 Q159,766 172,766 Q201,766 201,734 Q201,702 172,702 M394,702 Q366,702 366,734 Q366,748 373.5,757 Q381,766 394,766 Q423,766 423,734 Q423,702 394,702"/> 
            <glyph glyph-name="ý" unicode="&#xFD;" horiz-adv-x="486" d=" M249,-62 L259,-28 L35,544 L73,544 L277,14 L450,544 L486,544 L280,-73 Q244,-181 143,-181 Q104,-181 54,-167 L60,-135 Q117,-150 144,-150 Q188,-150 211.5,-128 Q235,-106 249,-62 M375,763 L263,659 Q255,652 247,652 Q232,652 232,667 Q232,676 239,682 L324,763"/> 
            <glyph glyph-name="þ" unicode="&#xFE;" horiz-adv-x="529" d=" M114,477 L114,67 Q236,29 296,29 Q397,29 446,93 Q495,157 495,272 Q495,387 446,450.5 Q397,514 297,514 Q235,514 114,477 M114,-180 L82,-187 L82,762 L115,769 L115,507 Q239,548 301,548 Q414,548 471.5,477 Q529,406 529,272 Q529,139 469,67.5 Q409,-4 297,-4 Q232,-4 114,36"/> 
            <glyph glyph-name="ÿ" unicode="&#xFF;" horiz-adv-x="486" d=" M249,-62 L259,-28 L35,544 L73,544 L277,14 L450,544 L486,544 L280,-73 Q244,-181 143,-181 Q104,-181 54,-167 L60,-135 Q117,-150 144,-150 Q188,-150 211.5,-128 Q235,-106 249,-62 M153,702 Q125,702 125,734 Q125,748 132.5,757 Q140,766 153,766 Q182,766 182,734 Q182,702 153,702 M375,702 Q347,702 347,734 Q347,748 354.5,757 Q362,766 375,766 Q404,766 404,734 Q404,702 375,702"/> 
            <glyph glyph-name="ı" unicode="&#x131;" horiz-adv-x="126" d=" M126,0 L91,0 L91,544 L126,544"/> 
            <glyph glyph-name="Ł" unicode="&#x141;" horiz-adv-x="512" d=" M512,0 L131,0 Q95,0 95,34 L95,405 L24,371 L24,404 L95,440 L95,744 L129,744 L129,456 L303,542 L303,508 L129,422 L129,32 L512,32"/> 
            <glyph glyph-name="ł" unicode="&#x142;" horiz-adv-x="200" d=" M130,0 L96,0 L96,438 L25,392 L25,428 L96,475 L96,762 L130,770 L130,498 L200,544 L200,507 L130,461"/> 
            <glyph glyph-name="Œ" unicode="&#x152;" horiz-adv-x="1027" d=" M1027,0 L382,0 Q238,0 149,98.5 Q60,197 60,370 Q60,545 147,644.5 Q234,744 384,744 L1025,744 L1025,712 L616,712 L616,711 L616,397 L977,397 L977,365 L616,365 L616,32 L1027,32 M581,32 L581,712 L390,712 Q251,712 173,620.5 Q95,529 95,370 Q95,209 172,120.5 Q249,32 383,32"/> 
            <glyph glyph-name="œ" unicode="&#x153;" horiz-adv-x="971" d=" M961,39 L919,25 Q829,-6 755,-6 Q667,-6 606,39 Q545,84 523,171 Q502,85 443.5,39.5 Q385,-6 299,-6 Q187,-6 122,67 Q57,140 57,272 Q57,404 123,476.5 Q189,549 300,549 Q386,549 444.5,503.5 Q503,458 524,372 Q546,460 604,506 Q662,552 741,552 Q847,552 909,482 Q971,412 971,283 Q971,257 947,257 L542,257 Q546,144 604.5,85 Q663,26 757,26 Q818,26 911,57 L954,71 M201,25 Q397,25 451.5,89 Q506,153 506,272 Q506,390 451,454.5 Q396,519 299,519 Q202,519 147,454.5 Q92,390 92,272 Q92,153 201,25 M542,288 L937,288 Q937,397 886,460 Q835,523 740,523 Q652,523 598.5,460 Q545,397 542,288"/> 
            <glyph glyph-name="Š" unicode="&#x160;" horiz-adv-x="555" d=" M107,34 L67,47 L76,80 L115,67 Q248,24 339,24 Q416,24 468.5,64.5 Q521,105 521,185 Q521,307 381,337 L235,370 Q70,408 70,555 Q70,650 132.5,699.5 Q195,749 284,749 Q376,749 508,708 L548,695 L540,662 L500,675 Q375,716 284,716 Q207,716 155.5,675.5 Q104,635 104,555 Q104,494 137,457.5 Q170,421 241,405 L388,371 Q555,334 555,186 Q555,91 492,41.5 Q429,-8 339,-8 Q236,-8 107,34 M452,934 L338,817 Q329,806 314,806 Q300,806 289,817 L175,934 L219,934 L314,834 L409,934"/> 
            <glyph glyph-name="š" unicode="&#x161;" horiz-adv-x="463" d=" M98,23 L65,33 L72,66 L104,57 Q211,26 285,26 Q348,26 387.5,54.5 Q427,83 427,138 Q427,183 400.5,209 Q374,235 311,246 L207,264 Q68,288 68,402 Q68,475 118.5,512.5 Q169,550 244,550 Q320,550 430,520 L463,511 L455,479 L423,488 Q318,518 243,517 Q182,517 142,488 Q102,459 102,404 Q102,359 128.5,333.5 Q155,308 218,296 L322,277 Q461,252 461,140 Q461,67 410.5,30 Q360,-7 285,-7 Q197,-7 98,23 M410,759 L296,642 Q287,631 272,631 Q258,631 247,642 L133,759 L177,759 L272,659 L367,759"/> 
            <glyph glyph-name="Ÿ" unicode="&#x178;" horiz-adv-x="605" d=" M337,0 L302,0 L302,323 L32,744 L73,744 L321,355 L565,744 L605,744 L337,324 M209,856 Q181,856 181,888 Q181,902 188.5,911 Q196,920 209,920 Q238,920 238,888 Q238,856 209,856 M431,856 Q403,856 403,888 Q403,902 410.5,911 Q418,920 431,920 Q460,920 460,888 Q460,856 431,856"/> 
            <glyph glyph-name="Ž" unicode="&#x17D;" horiz-adv-x="565" d=" M565,0 L85,0 Q60,0 60,27 Q60,38 69,51 L527,713 L72,713 L72,744 L535,744 Q559,744 559,717 Q559,703 551,692 L94,31 L565,31 M454,934 L340,817 Q331,806 316,806 Q302,806 291,817 L177,934 L221,934 L316,834 L411,934"/> 
            <glyph glyph-name="ž" unicode="&#x17E;" horiz-adv-x="475" d=" M475,0 L82,0 Q58,0 58,24 Q58,39 68,49 L433,514 L70,514 L70,544 L446,544 Q469,544 469,521 Q469,506 460,495 L94,30 L475,30 M414,759 L300,642 Q291,631 276,631 Q262,631 251,642 L137,759 L181,759 L276,659 L371,759"/> 
            <glyph glyph-name="ƒ" unicode="&#x192;" horiz-adv-x="474" d=" M140,-181 L140,-150 Q188,-150 213,-117 Q238,-84 238,-23 L238,503 L145,503 L145,533 L238,533 L238,598 Q238,680 275.5,722 Q313,764 382,764 Q417,764 474,752 L469,719 Q412,732 381,732 Q324,732 297,699.5 Q270,667 270,596 L270,533 L448,533 L448,503 L270,503 L270,-24 Q270,-97 235,-139 Q200,-181 140,-181"/> 
            <glyph glyph-name="ˆ" unicode="&#x2C6;" horiz-adv-x="420" d=" M420,637 L376,637 L282,736 L187,637 L144,637 L257,754 Q268,765 282,765 Q295,765 306,754"/> 
            <glyph glyph-name="ˇ" unicode="&#x2C7;" horiz-adv-x="420" d=" M420,759 L306,642 Q297,631 282,631 Q268,631 257,642 L143,759 L187,759 L282,659 L377,759"/> 
            <glyph glyph-name="˘" unicode="&#x2D8;" horiz-adv-x="429" d=" M396,757 L429,757 Q426,702 382.5,668 Q339,634 277,634 Q215,634 171,668 Q127,702 125,757 L158,757 Q160,716 193.5,691 Q227,666 277,666 Q327,666 360,690.5 Q393,715 396,757"/> 
            <glyph glyph-name="˙" unicode="&#x2D9;" horiz-adv-x="294" d=" M265,702 Q237,702 237,734 Q237,748 244.5,757 Q252,766 265,766 Q294,766 294,734 Q294,702 265,702"/> 
            <glyph glyph-name="˚" unicode="&#x2DA;" horiz-adv-x="370" d=" M370,705 Q370,665 343,639 Q316,613 277,613 Q238,613 211.5,639 Q185,665 185,705 Q185,746 211,771.5 Q237,797 277,797 Q317,797 343.5,771.5 Q370,746 370,705 M342,705 Q342,733 324,751 Q306,769 277,769 Q248,769 230.5,751 Q213,733 213,705 Q213,676 230.5,657.5 Q248,639 277,639 Q305,639 323.5,657.5 Q342,676 342,705"/> 
            <glyph glyph-name="˛" unicode="&#x2DB;" horiz-adv-x="394" d=" M387,-124 L394,-152 Q350,-168 303,-168 Q254,-168 224,-147.5 Q194,-127 194,-88 Q194,-36 253,0 L288,5 L292,0 Q228,-34 228,-81 Q228,-138 307,-138 Q354,-138 387,-124"/> 
            <glyph glyph-name="˜" unicode="&#x2DC;" horiz-adv-x="460" d=" M435,741 L460,727 Q442,684 413.5,663 Q385,642 354,642 Q317,642 285,665 L238,699 Q210,720 183,720 Q129,720 101,654 L77,668 Q95,710 124,731.5 Q153,753 184,753 Q219,753 252,730 L299,695 Q328,675 354,675 Q406,675 435,741"/> 
            <glyph glyph-name="˝" unicode="&#x2DD;" horiz-adv-x="438" d=" M438,763 L322,644 Q314,635 306,635 Q290,635 290,652 Q290,660 299,669 L385,763 M236,763 L126,650 Q116,642 109,642 Q94,642 94,658 Q94,666 102,676 L183,763"/> 
            <glyph glyph-name="π" unicode="&#x3C0;" horiz-adv-x="652" d=" M646,39 L652,7 Q592,-6 556,-6 Q417,-6 417,160 L417,513 L163,513 L163,0 L130,0 L130,513 L38,513 L38,544 L641,544 L641,513 L450,513 L450,162 Q450,91 475.5,58.5 Q501,26 558,26 Q591,26 646,39"/> 
            <glyph glyph-name="–" unicode="&#x2013;" horiz-adv-x="510" d=" M510,310 L62,310 L62,345 L510,345"/> 
            <glyph glyph-name="—" unicode="&#x2014;" horiz-adv-x="915" d=" M915,311 L56,311 L56,345 L915,345"/> 
            <glyph glyph-name="‘" unicode="&#x2018;" horiz-adv-x="146" d=" M101,579 L62,579 L108,745 Q112,763 127,763 Q137,763 141.5,755 Q146,747 143,736"/> 
            <glyph glyph-name="’" unicode="&#x2019;" horiz-adv-x="144" d=" M64,606 L106,763 L144,763 L99,597 Q93,579 80,579 Q57,579 64,606"/> 
            <glyph glyph-name="‚" unicode="&#x201A;" horiz-adv-x="145" d=" M65,-66 L107,91 L145,91 L100,-75 Q94,-93 81,-93 Q58,-93 65,-66"/> 
            <glyph glyph-name="“" unicode="&#x201C;" horiz-adv-x="319" d=" M274,579 L235,579 L281,745 Q286,763 300,763 Q310,763 314.5,755 Q319,747 316,736 M101,579 L62,579 L108,745 Q112,763 127,763 Q137,763 141.5,755 Q146,747 143,736"/> 
            <glyph glyph-name="”" unicode="&#x201D;" horiz-adv-x="317" d=" M64,606 L106,763 L144,763 L99,597 Q93,579 80,579 Q57,579 64,606 M237,606 L279,763 L317,763 L272,597 Q266,579 253,579 Q230,579 237,606"/> 
            <glyph glyph-name="„" unicode="&#x201E;" horiz-adv-x="318" d=" M65,-66 L107,91 L145,91 L100,-75 Q94,-93 81,-93 Q58,-93 65,-66 M238,-66 L280,91 L318,91 L273,-75 Q267,-93 254,-93 Q231,-93 238,-66"/> 
            <glyph glyph-name="†" unicode="&#x2020;" horiz-adv-x="501" d=" M300,-186 L259,-186 L269,452 L56,443 L56,484 L269,476 L259,744 L300,744 L291,476 L501,484 L501,443 L290,452"/> 
            <glyph glyph-name="‡" unicode="&#x2021;" horiz-adv-x="501" d=" M300,-186 L260,-186 L270,84 L56,75 L56,117 L271,108 L258,278 L271,451 L56,442 L56,483 L270,475 L260,744 L300,744 L291,475 L501,483 L501,442 L290,451 L302,278 L290,108 L501,117 L501,75 L291,84"/> 
            <glyph glyph-name="•" unicode="&#x2022;" horiz-adv-x="322" d=" M217,216 Q169,216 141.5,247 Q114,278 114,333 Q114,387 142,418.5 Q170,450 217,450 Q266,450 294,419 Q322,388 322,333 Q322,278 294,247 Q266,216 217,216"/> 
            <glyph glyph-name="…" unicode="&#x2026;" horiz-adv-x="539" d=" M106,-7 Q78,-7 78,25 Q78,39 85.5,48 Q93,57 106,57 Q135,57 135,25 Q135,-7 106,-7 M308,-7 Q280,-7 280,25 Q280,39 287.5,48 Q295,57 308,57 Q337,57 337,25 Q337,-7 308,-7 M510,-7 Q482,-7 482,25 Q482,39 489.5,48 Q497,57 510,57 Q539,57 539,25 Q539,-7 510,-7"/> 
            <glyph glyph-name="‰" unicode="&#x2030;" horiz-adv-x="1278" d=" M224,375 Q141,375 93,426 Q45,477 45,566 Q45,656 93,707 Q141,758 224,758 Q309,758 357.5,707 Q406,656 406,566 Q406,477 357,426 Q308,375 224,375 M225,404 Q298,404 336,445.5 Q374,487 374,566 Q374,644 334.5,686.5 Q295,729 223,729 Q153,729 115,686.5 Q77,644 77,566 Q77,489 115.5,446.5 Q154,404 225,404 M174,0 L133,0 L724,744 L764,744 M677,-13 Q594,-13 546,38.5 Q498,90 498,179 Q498,269 546,320 Q594,371 677,371 Q762,371 810.5,320 Q859,269 859,179 Q859,90 810,38.5 Q761,-13 677,-13 M678,17 Q751,17 789,58.5 Q827,100 827,179 Q827,257 787.5,299 Q748,341 676,341 Q606,341 568,298.5 Q530,256 530,179 Q530,102 568.5,59.5 Q607,17 678,17 M1181,-13 Q1013,-13 965,38.5 Q917,90 917,179 Q917,269 965.5,320 Q1014,371 1097,371 Q1181,371 1229.5,320 Q1278,269 1278,179 Q1278,89 1181,-13 M1098,17 Q1170,17 1208.5,58.5 Q1247,100 1247,179 Q1247,257 1207.5,299 Q1168,341 1096,341 Q1026,341 988,298.5 Q950,256 950,179 Q950,102 988.5,59.5 Q1027,17 1098,17"/> 
            <glyph glyph-name="‹" unicode="&#x2039;" horiz-adv-x="277" d=" M277,95 L234,95 L64,255 Q53,266 53,280 Q53,293 64,304 L229,466 L271,466 L82,280"/> 
            <glyph glyph-name="›" unicode="&#x203A;" horiz-adv-x="277" d=" M266,255 L96,95 L53,95 L248,280 L59,466 L101,466 L266,304 Q277,293 277,280 Q277,266 266,255"/> 
            <glyph glyph-name="⁄" unicode="&#x2044;" horiz-adv-x="764" d=" M174,0 L133,0 L724,744 L764,744"/> 
            <glyph glyph-name="€" unicode="&#x20AC;" horiz-adv-x="536" d=" M536,27 L502,18 Q398,-8 356,-8 Q245,-8 180.5,65 Q116,138 116,284 L37,284 L37,315 L116,315 L116,430 L37,430 L37,461 L116,461 Q116,605 180.5,678.5 Q245,752 356,752 Q400,752 502,726 L536,717 L530,683 L496,693 Q408,718 357,718 Q259,718 205,654.5 Q151,591 151,461 L409,461 L409,430 L150,430 L150,315 L409,315 L409,284 L151,284 Q151,153 205,89 Q259,25 357,25 Q398,25 496,51 L530,60"/> 
            <glyph glyph-name="™" unicode="&#x2122;" horiz-adv-x="778" d=" M778,337 L749,337 L749,699 L627,350 Q622,337 606,337 Q592,337 586,351 L467,698 L467,337 L438,337 L438,722 Q438,746 461,746 Q482,746 489,727 L608,375 L728,725 Q734,745 755,745 Q778,745 778,722 M220,337 L188,337 L188,715 L66,715 L66,744 L343,744 L343,715 L220,715"/> 
            <glyph glyph-name="Ω" unicode="&#x2126;" horiz-adv-x="712" d=" M640,0 L450,0 L450,158 Q553,179 615.5,252 Q678,325 678,433 Q678,560 596,638 Q514,716 387,716 Q259,716 177,639 Q95,562 95,433 Q95,321 155.5,250 Q216,179 321,159 L321,0 L132,0 L132,29 L291,29 L291,135 Q187,160 124,239 Q61,318 61,433 Q61,573 154.5,660 Q248,747 388,747 Q528,747 620,660 Q712,573 712,433 Q712,320 648,240 Q584,160 480,135 L480,29 L640,29"/> 
            <glyph glyph-name="∂" unicode="&#x2202;" horiz-adv-x="507" d=" M474,417 L474,520 Q474,617 426.5,667 Q379,717 289,717 Q228,717 113,683 L78,673 L72,706 L107,716 Q224,749 290,749 Q392,749 449.5,689.5 Q507,630 507,520 L507,239 Q507,129 445,61.5 Q383,-6 276,-6 Q170,-6 111,61 Q52,128 52,233 Q52,341 111,401.5 Q170,462 285,462 Q353,462 474,417 M474,241 L474,388 Q348,429 288,429 Q86,429 86,233 Q86,139 135,82 Q184,25 274,25 Q370,25 422,83 Q474,141 474,241"/> 
            <glyph glyph-name="∆" unicode="&#x2206;" horiz-adv-x="611" d=" M611,0 L35,0 L299,730 Q306,749 325,749 Q345,749 351,730 M563,30 L324,708 L81,30"/> 
            <glyph glyph-name="∏" unicode="&#x220F;" horiz-adv-x="614" d=" M492,0 L458,0 L458,713 L198,713 L198,0 L165,0 L165,713 L35,713 L35,744 L614,744 L614,713 L492,713"/> 
            <glyph glyph-name="∑" unicode="&#x2211;" horiz-adv-x="617" d=" M617,-179 L62,-179 Q37,-179 37,-155 Q37,-140 45,-129 L351,282 L45,693 Q37,704 37,719 Q37,744 62,744 L609,744 L609,604 L578,604 L578,711 L74,711 L392,283 L74,-147 L586,-147 L586,-34 L617,-34"/> 
            <glyph glyph-name="−" unicode="&#x2212;" horiz-adv-x="510" d=" M510,311 L62,311 L62,346 L510,346"/> 
            <glyph glyph-name="√" unicode="&#x221A;" horiz-adv-x="629" d=" M292,31 L498,744 L629,744 L629,713 L525,713 L318,12 Q312,-9 292,-9 Q272,-9 265,12 L113,513 L14,513 L14,544 L140,544"/> 
            <glyph glyph-name="∞" unicode="&#x221E;" horiz-adv-x="754" d=" M485,113 L403,155 L321,113 Q273,89 223,89 Q145,89 97.5,147 Q50,205 50,297 Q50,390 97.5,447.5 Q145,505 223,505 Q275,505 320,481 L403,437 L485,481 Q530,505 582,505 Q660,505 707,448 Q754,391 754,297 Q754,205 706.5,147 Q659,89 582,89 Q532,89 485,113 M418,179 L492,142 Q537,120 582,120 Q643,120 682.5,167.5 Q722,215 722,297 Q722,380 683,427 Q644,474 582,474 Q535,474 492,452 L418,413 M388,179 L388,413 L312,452 Q271,474 223,474 Q161,474 121.5,427.5 Q82,381 82,297 Q82,214 122,167 Q162,120 223,120 Q270,120 313,142"/> 
            <glyph glyph-name="∫" unicode="&#x222B;" horiz-adv-x="472" d=" M139,-181 L139,-150 Q186,-150 211.5,-116.5 Q237,-83 237,-23 L237,598 Q237,680 274,722 Q311,764 380,764 Q416,764 472,752 L467,719 Q412,732 380,732 Q323,732 296,699.5 Q269,667 269,596 L269,-24 Q269,-97 234,-139 Q199,-181 139,-181"/> 
            <glyph glyph-name="≈" unicode="&#x2248;" horiz-adv-x="529" d=" M496,437 L521,419 Q479,320 394,320 Q355,320 313,349 L248,396 Q215,421 185,421 Q120,421 82,338 L58,356 Q102,456 186,456 Q228,456 267,426 L331,379 Q364,354 394,354 Q460,354 496,437 M504,263 L529,245 Q487,146 403,146 Q362,146 322,175 L257,222 Q222,248 194,248 Q129,248 91,165 L66,182 Q110,283 194,283 Q234,283 275,252 L339,206 Q374,181 403,181 Q469,181 504,263"/> 
            <glyph glyph-name="≠" unicode="&#x2260;" horiz-adv-x="510" d=" M510,194 L260,194 L189,41 L160,41 L230,194 L62,194 L62,228 L246,228 L312,370 L62,370 L62,404 L327,404 L406,573 L435,573 L357,404 L510,404 L510,370 L341,370 L276,228 L510,228"/> 
            <glyph glyph-name="≤" unicode="&#x2264;" horiz-adv-x="520" d=" M520,128 L69,297 Q52,305 52,323 Q52,341 70,349 L520,521 L520,484 L83,322 L520,164 M520,0 L63,0 L63,32 L520,32"/> 
            <glyph glyph-name="≥" unicode="&#x2265;" horiz-adv-x="519" d=" M502,297 L51,128 L51,164 L489,322 L51,484 L51,521 L502,349 Q519,341 519,323 Q519,304 502,297 M509,0 L51,0 L51,32 L509,32"/> 
            <glyph glyph-name="◊" unicode="&#x25CA;" horiz-adv-x="601" d=" M297,4 L44,370 L297,736 Q304,751 324,751 Q341,751 351,736 L601,370 L351,4 Q341,-12 324,-12 Q306,-12 297,4 M325,23 L563,370 L324,720 L82,370"/> 
            <glyph glyph-name="ﬁ" unicode="&#xFB01;" horiz-adv-x="511" d=" M500,0 L466,0 L466,503 L161,503 L161,0 L128,0 L128,503 L36,503 L36,533 L128,533 L128,598 Q128,680 165.5,722 Q203,764 272,764 Q307,764 364,751 L358,719 Q309,732 271,732 Q214,732 187.5,700 Q161,668 161,596 L161,533 L500,533 M482,702 Q454,702 454,734 Q454,748 461.5,757 Q469,766 482,766 Q511,766 511,734 Q511,702 482,702"/> 
            <glyph glyph-name="ﬂ" unicode="&#xFB02;" horiz-adv-x="497" d=" M497,0 L464,0 L464,715 Q368,733 291,733 Q161,733 161,594 L161,533 L339,533 L339,503 L161,503 L161,0 L128,0 L128,503 L35,503 L35,533 L128,533 L128,595 Q128,677 172.5,720.5 Q217,764 291,764 Q367,764 465,747 L497,759"/> 
            <glyph glyph-name=" " unicode="&#x20;" horiz-adv-x="135" d=" M123,234 L89,227 L89,744 L123,744 M106,-7 Q78,-7 78,25 Q78,39 85.5,48 Q93,57 106,57 Q135,57 135,25 Q135,-7 106,-7"/> 
            <glyph glyph-name="!" unicode="&#x21;" horiz-adv-x="285" d=" M280,586 L252,586 L247,763 L285,763 M108,586 L80,586 L75,763 L113,763"/> 
            <glyph glyph-name="&quot;" unicode="&#x22;" horiz-adv-x="659" d=" M425,0 L393,0 L434,226 L213,226 L169,0 L137,0 L180,226 L41,226 L46,259 L187,259 L229,477 L81,477 L87,509 L235,509 L279,744 L312,744 L267,509 L486,509 L530,744 L560,744 L517,509 L659,509 L654,477 L512,477 L472,259 L620,259 L614,226 L466,226 M441,259 L481,477 L261,477 L219,259"/> 
            <glyph glyph-name="#" unicode="&#x23;" horiz-adv-x="524" d=" M306,-129 L275,-129 L275,-7 Q196,-2 93,34 L54,48 L62,81 L100,68 Q228,24 300,24 Q384,24 438,64.5 Q492,105 492,186 Q492,305 355,338 L216,372 Q57,411 57,555 Q57,648 120.5,696 Q184,744 275,746 L275,867 L306,867 L306,745 Q368,742 481,705 L518,692 L510,660 L473,672 Q427,688 406,694.5 Q385,701 349.5,707.5 Q314,714 282,714 Q200,714 145.5,675 Q91,636 91,556 Q91,495 123.5,458.5 Q156,422 224,405 L363,371 Q524,332 524,187 Q524,93 462,44 Q400,-5 306,-7"/> 
            <glyph glyph-name="$" unicode="&#x24;" horiz-adv-x="859" d=" M224,375 Q141,375 93,426 Q45,477 45,566 Q45,656 93,707 Q141,758 224,758 Q309,758 357.5,707 Q406,656 406,566 Q406,477 357,426 Q308,375 224,375 M225,404 Q298,404 336,445.5 Q374,487 374,566 Q374,644 334.5,686.5 Q295,729 223,729 Q153,729 115,686.5 Q77,644 77,566 Q77,489 115.5,446.5 Q154,404 225,404 M174,0 L133,0 L724,744 L764,744 M677,-13 Q594,-13 546,38.5 Q498,90 498,179 Q498,269 546,320 Q594,371 677,371 Q762,371 810.5,320 Q859,269 859,179 Q859,90 810,38.5 Q761,-13 677,-13 M678,17 Q751,17 789,58.5 Q827,100 827,179 Q827,257 787.5,299 Q748,341 676,341 Q606,341 568,298.5 Q530,256 530,179 Q530,102 568.5,59.5 Q607,17 678,17"/> 
            <glyph glyph-name="%" unicode="&#x25;" horiz-adv-x="624" d=" M623,0 L581,0 L513,75 Q468,34 404.5,11 Q341,-12 279,-12 Q174,-12 117,41.5 Q60,95 60,177 Q60,319 232,384 Q193,426 174.5,450 Q156,474 140,509.5 Q124,545 124,582 Q124,664 178.5,710 Q233,756 320,756 Q404,756 455.5,711.5 Q507,667 507,589 Q507,512 456.5,464 Q406,416 287,371 L515,120 Q591,210 591,357 L591,444 L624,444 L624,356 Q624,196 537,99 M268,394 Q379,434 427,476.5 Q475,519 475,589 Q475,650 434,687.5 Q393,725 320,725 Q242,725 200,686.5 Q158,648 158,582 Q158,536 183,496 Q208,456 268,394 M492,98 L252,361 Q165,328 130,283 Q95,238 95,178 Q95,110 141.5,64.5 Q188,19 279,19 Q336,19 393.5,40 Q451,61 492,98"/> 
            <glyph glyph-name="&amp;" unicode="&#x26;" horiz-adv-x="122" d=" M116,586 L87,586 L82,763 L122,763"/> 
            <glyph glyph-name="'" unicode="&#x27;" horiz-adv-x="237" d=" M237,-42 L237,-74 Q200,-72 169,-51.5 Q138,-31 109.5,12.5 Q81,56 65,138.5 Q49,221 49,336 Q49,450 65,532.5 Q81,615 109.5,658.5 Q138,702 169,722 Q200,742 237,744 L237,712 Q83,698 83,336 Q83,226 97,148.5 Q111,71 135.5,32.5 Q160,-6 184.5,-22.5 Q209,-39 237,-42"/> 
            <glyph glyph-name="(" unicode="&#x28;" horiz-adv-x="224" d=" M36,-74 L36,-42 Q64,-39 88.5,-22.5 Q113,-6 137.5,32.5 Q162,71 176,148.5 Q190,226 190,336 Q190,698 36,712 L36,744 Q73,742 104,722 Q135,702 163.5,658.5 Q192,615 208,532.5 Q224,450 224,336 Q224,243 213,171 Q202,99 184,54.5 Q166,10 141,-19 Q116,-48 90.5,-60 Q65,-72 36,-74"/> 
            <glyph glyph-name=")" unicode="&#x29;" horiz-adv-x="487" d=" M420,379 L388,355 L280,529 L170,355 L139,379 L263,540 L73,595 L85,631 L271,559 L261,763 L298,763 L289,559 L477,630 L487,594 L297,540"/> 
            <glyph glyph-name="*" unicode="&#x2A;" horiz-adv-x="512" d=" M301,49 L267,49 L267,280 L60,280 L60,313 L267,313 L267,540 L301,540 L301,313 L512,313 L512,280 L301,280"/> 
            <glyph glyph-name="+" unicode="&#x2B;" horiz-adv-x="145" d=" M65,-66 L107,91 L145,91 L100,-75 Q94,-93 81,-93 Q58,-93 65,-66"/> 
            <glyph glyph-name="," unicode="&#x2C;" horiz-adv-x="332" d=" M332,311 L71,311 L71,344 L332,344"/> 
            <glyph glyph-name="-" unicode="&#x2D;" horiz-adv-x="135" d=" M106,-7 Q78,-7 78,25 Q78,39 85.5,48 Q93,57 106,57 Q135,57 135,25 Q135,-7 106,-7"/> 
            <glyph glyph-name="." unicode="&#x2E;" horiz-adv-x="377" d=" M69,0 L33,0 L344,744 L377,744"/> 
            <glyph glyph-name="/" unicode="&#x2F;" horiz-adv-x="506" d=" M474,226 L474,515 Q474,720 291,720 Q197,720 150.5,666.5 Q104,613 104,515 L104,226 Q104,128 150.5,74 Q197,20 291,20 Q474,20 474,226 M506,514 L506,226 Q506,113 450.5,51 Q395,-11 291,-11 Q185,-11 128,51 Q71,113 71,225 L71,516 Q71,628 128,690 Q185,752 291,752 Q395,752 450.5,689.5 Q506,627 506,514"/> 
            <glyph glyph-name="0" unicode="&#x30;" horiz-adv-x="533" d=" M533,0 L76,0 L76,33 L307,33 L307,709 L234,709 Q172,709 131,692 L123,726 Q166,744 231,744 L307,744 Q327,744 335,736 Q343,728 343,708 L343,33 L533,33"/> 
            <glyph glyph-name="1" unicode="&#x31;" horiz-adv-x="510" d=" M510,0 L89,0 Q65,0 65,25 Q65,40 77,52 L353,325 Q418,390 446.5,441 Q475,492 475,552 Q475,637 426.5,676.5 Q378,716 300,716 Q227,716 114,680 L78,669 L71,701 L105,712 Q216,749 299,749 Q390,749 449,701.5 Q508,654 508,552 Q508,487 478,429.5 Q448,372 378,303 L101,31 L510,31"/> 
            <glyph glyph-name="2" unicode="&#x32;" horiz-adv-x="524" d=" M442,295 L380,359 L246,359 L246,389 L380,389 L428,456 Q471,514 471,569 Q471,638 426.5,677 Q382,716 302,716 Q240,716 119,681 L84,671 L77,703 L113,714 Q227,749 302,749 Q396,749 450,702.5 Q504,656 504,570 Q504,507 459,446 L408,376 L471,311 Q524,253 524,182 Q524,91 462.5,41 Q401,-9 301,-9 Q218,-9 104,25 L61,38 L68,71 L111,58 Q225,23 301,23 Q390,23 440.5,64 Q491,105 491,182 Q491,243 442,295"/> 
            <glyph glyph-name="3" unicode="&#x33;" horiz-adv-x="546" d=" M457,0 L424,0 L424,154 L68,154 Q45,154 45,177 Q45,188 55,204 L399,729 Q413,749 431,749 Q457,749 457,720 L457,184 L546,184 L546,154 L457,154 M424,184 L424,709 L79,184"/> 
            <glyph glyph-name="4" unicode="&#x34;" horiz-adv-x="523" d=" M104,24 L64,36 L71,68 L112,56 Q217,24 287,24 Q386,24 437.5,82 Q489,140 489,235 Q489,433 292,433 Q236,433 139,405 L99,393 L99,744 L491,744 L491,710 L130,710 L130,433 Q234,465 295,465 Q403,465 463,408 Q523,351 523,235 Q523,124 459.5,58 Q396,-8 287,-8 Q212,-8 104,24"/> 
            <glyph glyph-name="5" unicode="&#x35;" horiz-adv-x="526" d=" M104,520 L104,418 Q225,463 293,463 Q408,463 467,402.5 Q526,342 526,233 Q526,128 467,61 Q408,-6 302,-6 Q195,-6 133,61.5 Q71,129 71,240 L71,520 Q71,630 128.5,689.5 Q186,749 288,749 Q354,749 471,716 L506,706 L500,674 L465,684 Q347,717 289,717 Q198,717 151,667.5 Q104,618 104,520 M104,388 L104,242 Q104,142 156,84 Q208,26 304,26 Q394,26 443,83 Q492,140 492,233 Q492,430 290,430 Q224,430 104,388"/> 
            <glyph glyph-name="6" unicode="&#x36;" horiz-adv-x="531" d=" M241,0 L205,0 L498,712 L75,712 L75,744 L505,744 Q531,744 531,719 Q531,706 524,692"/> 
            <glyph glyph-name="7" unicode="&#x37;" horiz-adv-x="523" d=" M409,376 L471,309 Q523,253 523,181 Q523,90 459.5,40.5 Q396,-9 290,-9 Q183,-9 118.5,40.5 Q54,90 54,181 Q54,251 108,310 L169,376 L118,444 Q74,503 74,569 Q74,654 132.5,702 Q191,750 288,750 Q385,750 444,702 Q503,654 503,569 Q503,503 460,445 M441,295 L381,358 L196,358 L136,295 Q88,244 88,180 Q88,103 142,62.5 Q196,22 289,22 Q383,22 436,63 Q489,104 489,181 Q489,243 441,295 M381,389 L428,454 Q470,511 470,569 Q470,638 421,678 Q372,718 288,718 Q203,718 155,678 Q107,638 107,569 Q107,515 149,454 L197,389"/> 
            <glyph glyph-name="8" unicode="&#x38;" horiz-adv-x="512" d=" M479,223 L479,325 Q358,280 290,280 Q175,280 116,340.5 Q57,401 57,510 Q57,615 116,682 Q175,749 281,749 Q388,749 450,681.5 Q512,614 512,503 L512,223 Q512,113 454.5,53.5 Q397,-6 295,-6 Q229,-6 112,27 L77,37 L83,69 L118,59 Q236,26 294,26 Q385,26 432,75.5 Q479,125 479,223 M479,355 L479,501 Q479,601 427,659 Q375,717 279,717 Q189,717 140,660 Q91,603 91,510 Q91,313 293,313 Q359,313 479,355"/> 
            <glyph glyph-name="9" unicode="&#x39;" horiz-adv-x="135" d=" M106,-7 Q78,-7 78,25 Q78,39 85.5,48 Q93,57 106,57 Q135,57 135,25 Q135,-7 106,-7 M106,473 Q78,473 78,505 Q78,519 85.5,528 Q93,537 106,537 Q135,537 135,505 Q135,473 106,473"/> 
            <glyph glyph-name=":" unicode="&#x3A;" horiz-adv-x="150" d=" M65,-66 L107,91 L145,91 L100,-75 Q94,-93 81,-93 Q58,-93 65,-66 M121,473 Q93,473 93,505 Q93,519 100.5,528 Q108,537 121,537 Q150,537 150,505 Q150,473 121,473"/> 
            <glyph glyph-name=";" unicode="&#x3B;" horiz-adv-x="520" d=" M520,77 L69,269 Q52,277 52,295 Q52,312 70,321 L520,516 L520,478 L85,295 L520,113"/> 
            <glyph glyph-name="&lt;" unicode="&#x3C;" horiz-adv-x="510" d=" M510,369 L62,369 L62,404 L510,404 M510,193 L62,193 L62,228 L510,228"/> 
            <glyph glyph-name="=" unicode="&#x3D;" horiz-adv-x="519" d=" M503,269 L51,77 L51,113 L487,294 L51,478 L51,516 L502,321 Q519,312 519,295 Q519,277 503,269"/> 
            <glyph glyph-name="&gt;" unicode="&#x3E;" horiz-adv-x="406" d=" M232,231 L200,225 L200,302 Q200,327 219,348 L307,441 Q345,481 359.5,511.5 Q374,542 374,588 Q374,645 337,680 Q300,715 230,715 Q159,715 76,690 L50,682 L44,713 L71,721 Q163,747 231,747 Q311,747 358.5,705 Q406,663 406,589 Q406,536 389,501.5 Q372,467 333,424 L232,317 M217,-7 Q189,-7 189,25 Q189,39 196.5,48 Q204,57 217,57 Q246,57 246,25 Q246,-7 217,-7"/> 
            <glyph glyph-name="?" unicode="&#x3F;" horiz-adv-x="826" d=" M735,-1 L701,17 Q677,29 655,29 Q626,29 558,9 Q490,-11 423,-11 Q268,-11 177,93.5 Q86,198 86,356 Q86,533 196,645.5 Q306,758 473,758 Q626,758 726,662.5 Q826,567 826,413 Q826,302 774,234.5 Q722,167 648,167 Q627,167 596,177.5 Q565,188 548,188 Q531,188 485.5,180 Q440,172 416,172 Q345,172 307,216.5 Q269,261 269,334 Q269,425 320.5,487 Q372,549 464,549 Q513,549 585,537 L590,576 L621,576 L574,216 Q576,215 591,209.5 Q606,204 620.5,200.5 Q635,197 650,197 Q711,197 753,254 Q795,311 795,413 Q795,554 704.5,640.5 Q614,727 473,727 Q316,727 217.5,624 Q119,521 119,356 Q119,208 201,114 Q283,20 426,20 Q485,20 557.5,41 Q630,62 657,62 Q686,62 711,46 L747,24 M543,218 L581,508 Q522,520 464,520 Q384,520 343,466.5 Q302,413 302,333 Q302,274 332,237.5 Q362,201 421,201 Q453,201 543,218"/> 
            <glyph glyph-name="@" unicode="&#x40;" horiz-adv-x="638" d=" M638,0 L602,0 L532,185 L135,185 L65,0 L30,0 L308,728 Q317,750 336,750 Q358,750 365,729 M521,216 L336,713 L146,216"/> 
            <glyph glyph-name="A" unicode="&#x41;" horiz-adv-x="599" d=" M393,0 L126,0 Q90,0 90,34 L90,710 Q90,744 125,744 L386,744 Q473,744 521.5,699 Q570,654 570,575 Q570,508 528,449 L477,376 L543,306 Q599,245 599,177 Q599,96 543.5,48 Q488,0 393,0 M447,389 L494,458 Q534,515 534,575 Q534,639 496.5,676.5 Q459,714 384,714 L123,714 L123,389 M512,292 L447,359 L123,359 L123,30 L394,30 Q474,30 519,69 Q564,108 564,174 Q564,237 512,292"/> 
            <glyph glyph-name="B" unicode="&#x42;" horiz-adv-x="605" d=" M605,40 L564,27 Q454,-8 376,-8 Q235,-8 149,87 Q63,182 63,370 Q63,555 149.5,651.5 Q236,748 376,748 Q452,748 564,713 L605,700 L598,667 L557,680 Q443,715 376,715 Q247,715 173,628.5 Q99,542 99,370 Q99,198 173.5,111.5 Q248,25 377,25 Q446,25 557,59 L598,72"/> 
            <glyph glyph-name="C" unicode="&#x43;" horiz-adv-x="652" d=" M333,0 L126,0 Q90,0 90,34 L90,709 Q90,744 126,744 L331,744 Q480,744 566,644.5 Q652,545 652,370 Q652,196 564,98 Q476,0 333,0 M124,32 L331,32 Q465,32 541.5,120.5 Q618,209 618,370 Q618,529 540.5,621 Q463,713 324,713 L124,713"/> 
            <glyph glyph-name="D" unicode="&#x44;" horiz-adv-x="536" d=" M536,0 L126,0 Q90,0 90,34 L90,709 Q90,744 126,744 L534,744 L534,712 L124,712 L124,397 L485,397 L485,365 L124,365 L124,32 L536,32"/> 
            <glyph glyph-name="E" unicode="&#x45;" horiz-adv-x="524" d=" M492,351 L124,351 L124,0 L90,0 L90,709 Q90,744 126,744 L524,744 L524,712 L124,712 L124,382 L492,382"/> 
            <glyph glyph-name="F" unicode="&#x46;" horiz-adv-x="631" d=" M599,55 L599,303 L412,303 L412,333 L597,333 Q631,333 631,299 L631,61 Q631,32 600,23 Q492,-8 395,-8 Q245,-8 154,87 Q63,182 63,369 Q63,554 153,650.5 Q243,747 388,747 Q466,747 588,711 L629,699 L622,666 L579,678 Q460,714 388,714 Q253,714 175.5,627.5 Q98,541 98,369 Q98,198 179,110.5 Q260,23 395,23 Q492,23 599,55"/> 
            <glyph glyph-name="G" unicode="&#x47;" horiz-adv-x="612" d=" M612,0 L580,0 L580,363 L123,363 L123,0 L90,0 L90,744 L123,744 L123,394 L580,394 L580,744 L612,744"/> 
            <glyph glyph-name="H" unicode="&#x48;" horiz-adv-x="124" d=" M124,0 L90,0 L90,744 L124,744"/> 
            <glyph glyph-name="I" unicode="&#x49;" horiz-adv-x="270" d=" M236,163 L236,744 L270,744 L270,162 Q270,80 231.5,38 Q193,-4 120,-4 Q89,-4 27,9 L32,43 Q83,29 120,29 Q180,29 208,60.5 Q236,92 236,163"/> 
            <glyph glyph-name="J" unicode="&#x4A;" horiz-adv-x="596" d=" M596,0 L560,0 L341,462 L160,243 Q137,215 130,199.5 Q123,184 123,156 L123,0 L90,0 L90,744 L123,744 L122,244 L528,744 L574,744 L366,492"/> 
            <glyph glyph-name="K" unicode="&#x4B;" horiz-adv-x="507" d=" M507,0 L125,0 Q90,0 90,34 L90,744 L124,744 L124,32 L507,32"/> 
            <glyph glyph-name="L" unicode="&#x4C;" horiz-adv-x="755" d=" M755,0 L721,0 L721,709 L444,16 Q438,-2 419,-2 Q400,-2 393,16 L123,709 L123,0 L90,0 L90,717 Q90,748 120,748 Q146,748 156,720 L420,39 L691,720 Q701,748 726,748 Q755,748 755,717"/> 
            <glyph glyph-name="M" unicode="&#x4D;" horiz-adv-x="636" d=" M579,14 L123,705 L123,0 L90,0 L90,719 Q90,749 117,749 Q136,749 148,730 L604,40 L604,744 L636,744 L636,25 Q636,-5 609,-5 Q591,-5 579,14"/> 
            <glyph glyph-name="N" unicode="&#x4E;" horiz-adv-x="708" d=" M532,-8 Q234,-8 147,91 Q60,190 60,370 Q60,548 148.5,648 Q237,748 385,748 Q533,748 620.5,648 Q708,548 708,370 Q708,190 532,-8 M384,23 Q519,23 595.5,113.5 Q672,204 672,370 Q672,534 596,625 Q520,716 385,716 Q249,716 171.5,625 Q94,534 94,370 Q94,205 172,114 Q250,23 384,23"/> 
            <glyph glyph-name="O" unicode="&#x4F;" horiz-adv-x="564" d=" M123,0 L90,0 L90,710 Q90,744 125,744 L358,744 Q448,744 506,685 Q564,626 564,526 Q564,426 504,367.5 Q444,309 348,309 L123,309 M123,339 L348,339 Q431,339 481,389 Q531,439 531,526 Q531,612 482.5,662.5 Q434,713 355,713 L123,713"/> 
            <glyph glyph-name="P" unicode="&#x50;" horiz-adv-x="707" d=" M694,-66 L676,-66 Q614,-66 529.5,-33 Q445,0 391,0 Q239,0 149.5,95.5 Q60,191 60,370 Q60,548 148.5,648 Q237,748 385,748 Q532,748 619.5,648.5 Q707,549 707,370 Q707,83 487,14 Q491,13 524.5,-0.5 Q558,-14 599,-25.5 Q640,-37 676,-37 L694,-37 M389,29 Q524,29 598.5,116 Q673,203 673,370 Q673,534 596,625 Q519,716 384,716 Q248,716 171,625 Q94,534 94,370 Q94,205 173,117 Q252,29 389,29"/> 
            <glyph glyph-name="Q" unicode="&#x51;" horiz-adv-x="601" d=" M601,0 L563,0 L418,318 L124,318 L124,0 L90,0 L90,710 Q90,744 124,744 L377,744 Q469,744 519.5,693.5 Q570,643 570,553 Q570,482 514,409 L451,328 M427,349 L479,418 Q533,491 533,553 Q533,627 493.5,670 Q454,713 373,713 L124,713 L124,349"/> 
            <glyph glyph-name="R" unicode="&#x52;" horiz-adv-x="555" d=" M107,34 L67,47 L76,80 L115,67 Q248,24 339,24 Q416,24 468.5,64.5 Q521,105 521,185 Q521,307 381,337 L235,370 Q70,408 70,555 Q70,650 132.5,699.5 Q195,749 284,749 Q376,749 508,708 L548,695 L540,662 L500,675 Q375,716 284,716 Q207,716 155.5,675.5 Q104,635 104,555 Q104,494 137,457.5 Q170,421 241,405 L388,371 Q555,334 555,186 Q555,91 492,41.5 Q429,-8 339,-8 Q236,-8 107,34"/> 
            <glyph glyph-name="S" unicode="&#x53;" horiz-adv-x="559" d=" M315,0 L280,0 L280,712 L37,712 L37,744 L559,744 L559,712 L315,712"/> 
            <glyph glyph-name="T" unicode="&#x54;" horiz-adv-x="625" d=" M590,258 L590,744 L625,744 L625,258 Q625,130 555,58 Q485,-14 355,-14 Q225,-14 155,58 Q85,130 85,258 L85,744 L120,744 L120,258 Q120,144 180,81 Q240,18 355,18 Q590,18 590,258"/> 
            <glyph glyph-name="U" unicode="&#x55;" horiz-adv-x="625" d=" M328,35 L588,744 L625,744 L353,14 Q346,-5 327,-5 Q307,-5 301,14 L32,744 L70,744"/> 
            <glyph glyph-name="V" unicode="&#x56;" horiz-adv-x="867" d=" M696,35 L834,744 L867,744 L724,17 Q719,-6 697,-6 Q675,-6 669,15 L453,701 L233,15 Q225,-6 205,-6 Q183,-6 178,17 L40,744 L74,744 L208,36 L429,725 Q435,744 454,744 Q473,744 479,725"/> 
            <glyph glyph-name="W" unicode="&#x57;" horiz-adv-x="592" d=" M592,0 L551,0 L317,352 L83,0 L42,0 L296,376 L45,744 L87,744 L318,401 L546,744 L584,744 L339,377"/> 
            <glyph glyph-name="X" unicode="&#x58;" horiz-adv-x="605" d=" M337,0 L302,0 L302,323 L32,744 L73,744 L321,355 L565,744 L605,744 L337,324"/> 
            <glyph glyph-name="Y" unicode="&#x59;" horiz-adv-x="565" d=" M565,0 L85,0 Q60,0 60,27 Q60,38 69,51 L527,713 L72,713 L72,744 L535,744 Q559,744 559,717 Q559,703 551,692 L94,31 L565,31"/> 
            <glyph glyph-name="Z" unicode="&#x5A;" horiz-adv-x="233" d=" M233,-65 L83,-65 L83,744 L233,744 L233,713 L116,713 L116,-35 L233,-35"/> 
            <glyph glyph-name="[" unicode="&#x5B;" horiz-adv-x="377" d=" M377,0 L341,0 L33,744 L66,744"/> 
            <glyph glyph-name="\" unicode="&#x5C;" horiz-adv-x="190" d=" M190,-65 L40,-65 L40,-35 L157,-35 L157,713 L40,713 L40,744 L190,744"/> 
            <glyph glyph-name="]" unicode="&#x5D;" horiz-adv-x="503" d=" M503,46 L466,46 L286,503 L109,46 L74,46 L263,521 Q269,539 287,539 Q303,539 311,521"/> 
            <glyph glyph-name="^" unicode="&#x5E;" horiz-adv-x="506" d=" M506,-154 L-2,-154 L-2,-122 L506,-122"/> 
            <glyph glyph-name="_" unicode="&#x5F;" horiz-adv-x="361" d=" M330,659 L218,763 L269,763 L354,682 Q361,676 361,667 Q361,652 346,652 Q338,652 330,659"/> 
            <glyph glyph-name="`" unicode="&#x60;" horiz-adv-x="552" d=" M539,-3 L494,24 Q470,38 441,31 L382,17 Q278,-7 228,-7 Q149,-7 106,30.5 Q63,68 63,136 Q63,215 117,252 Q171,289 264,289 L456,289 L456,374 Q456,447 415.5,482 Q375,517 304,517 Q237,517 121,484 L95,477 L88,509 L114,516 Q241,550 304,550 Q389,550 438.5,507 Q488,464 488,374 L488,60 L552,21 M456,61 L456,258 L263,258 Q96,258 96,137 Q96,23 233,23 Q283,23 378,44"/> 
            <glyph glyph-name="a" unicode="&#x61;" horiz-adv-x="529" d=" M115,477 L115,61 Q226,28 290,28 Q391,28 443.5,93.5 Q496,159 496,270 Q496,386 447,450 Q398,514 297,514 Q235,514 115,477 M82,68 L82,762 L115,769 L115,507 Q239,548 301,548 Q413,548 471,476.5 Q529,405 529,270 Q529,145 465,70.5 Q401,-4 291,-4 Q215,-4 114,28 Q97,34 89.5,42.5 Q82,51 82,68"/> 
            <glyph glyph-name="b" unicode="&#x62;" horiz-adv-x="469" d=" M469,30 L435,21 Q338,-5 289,-5 Q182,-5 119.5,65 Q57,135 57,272 Q57,405 120,477 Q183,549 289,549 Q333,549 435,523 L469,514 L463,481 L429,490 Q327,517 290,517 Q195,517 143,454.5 Q91,392 91,272 Q91,152 143.5,89.5 Q196,27 291,27 Q338,27 429,53 L463,62"/> 
            <glyph glyph-name="c" unicode="&#x63;" horiz-adv-x="504" d=" M472,61 L472,477 Q352,513 290,515 Q190,515 140.5,450.5 Q91,386 91,270 Q91,160 143.5,94 Q196,28 296,28 Q359,28 472,61 M472,507 L472,763 L504,771 L504,68 Q504,38 473,29 Q365,-4 293,-4 Q183,-4 120,69 Q57,142 57,270 Q57,403 117,475.5 Q177,548 289,548 Q350,548 472,507"/> 
            <glyph glyph-name="d" unicode="&#x64;" horiz-adv-x="520" d=" M92,288 L486,288 Q486,397 435,460 Q384,523 289,523 Q202,523 148.5,460 Q95,397 92,288 M510,39 L468,25 Q379,-6 305,-6 Q193,-6 125,65 Q57,136 57,271 Q57,406 123,479 Q189,552 290,552 Q396,552 458,482 Q520,412 520,283 Q520,257 496,257 L92,257 Q95,144 153.5,85 Q212,26 306,26 Q368,26 461,57 L503,71"/> 
            <glyph glyph-name="e" unicode="&#x65;" horiz-adv-x="364" d=" M161,0 L128,0 L128,503 L35,503 L35,533 L128,533 L128,598 Q128,680 165.5,722 Q203,764 272,764 Q307,764 364,751 L358,719 Q309,732 271,732 Q214,732 187.5,700 Q161,668 161,596 L161,533 L339,533 L339,503 L161,503"/> 
            <glyph glyph-name="f" unicode="&#x66;" horiz-adv-x="550" d=" M163,92 L387,92 Q464,92 504,60.5 Q544,29 544,-24 Q544,-98 479,-140 Q414,-182 282,-182 Q186,-182 124.5,-147.5 Q63,-113 63,-43 Q63,13 108,66 L139,104 Q160,129 168,142 Q176,155 176,171 Q176,213 129,243 Q55,287 55,379 Q55,459 113,501 Q171,543 272,543 L339,543 Q394,543 415,549 L543,582 L550,554 L400,517 Q404,516 409.5,513 Q415,510 430.5,499 Q446,488 457.5,474 Q469,460 478.5,435 Q488,410 488,380 Q488,299 430,256 Q372,213 270,213 Q248,213 226,216 Q204,219 194,222 L183,225 Q205,206 205,171 Q205,152 196.5,136.5 Q188,121 163,92 M456,379 Q456,514 273,514 Q87,514 87,379 Q87,239 271,239 Q355,239 405.5,273.5 Q456,308 456,379 M386,63 L141,63 Q94,12 94,-42 Q94,-99 145.5,-126.5 Q197,-154 284,-154 Q400,-154 456.5,-120 Q513,-86 513,-25 Q513,63 386,63"/> 
            <glyph glyph-name="g" unicode="&#x67;" horiz-adv-x="483" d=" M483,0 L451,0 L451,354 Q451,516 296,516 Q232,516 115,477 L115,0 L82,0 L82,763 L115,770 L115,506 Q234,548 299,548 Q483,548 483,356"/> 
            <glyph glyph-name="h" unicode="&#x68;" horiz-adv-x="137" d=" M126,0 L91,0 L91,544 L126,544 M108,702 Q80,702 80,734 Q80,748 87.5,757 Q95,766 108,766 Q137,766 137,734 Q137,702 108,702"/> 
            <glyph glyph-name="i" unicode="&#x69;" horiz-adv-x="160" d=" M20,-181 L20,-150 Q66,-150 91,-118 Q116,-86 116,-27 L116,544 L149,544 L149,-26 Q149,-98 114,-139.5 Q79,-181 20,-181 M131,702 Q103,702 103,734 Q103,748 110.5,757 Q118,766 131,766 Q160,766 160,734 Q160,702 131,702"/> 
            <glyph glyph-name="j" unicode="&#x6A;" horiz-adv-x="501" d=" M501,0 L462,0 L280,333 L145,185 Q114,150 114,109 L114,0 L82,0 L82,762 L114,769 L114,192 L434,544 L477,544 L307,357"/> 
            <glyph glyph-name="k" unicode="&#x6B;" horiz-adv-x="116" d=" M116,0 L82,0 L82,762 L116,770"/> 
            <glyph glyph-name="l" unicode="&#x6C;" horiz-adv-x="778" d=" M778,0 L745,0 L745,363 Q745,515 605,515 Q535,515 425,468 Q447,432 447,365 L447,0 L414,0 L414,363 Q414,516 270,516 Q208,516 115,484 L115,0 L82,0 L82,476 Q82,507 114,517 Q201,548 272,548 Q364,548 409,494 Q523,548 607,548 Q694,548 736,499 Q778,450 778,365"/> 
            <glyph glyph-name="m" unicode="&#x6D;" horiz-adv-x="488" d=" M488,0 L456,0 L456,351 Q456,427 416.5,471 Q377,515 291,515 Q222,515 115,483 L115,0 L82,0 L82,476 Q82,506 113,515 Q221,548 293,548 Q391,548 439.5,495.5 Q488,443 488,354"/> 
            <glyph glyph-name="n" unicode="&#x6E;" horiz-adv-x="540" d=" M299,-6 Q187,-6 122,67 Q57,140 57,272 Q57,404 123,476.5 Q189,549 300,549 Q411,549 475.5,477 Q540,405 540,272 Q540,139 474.5,66.5 Q409,-6 299,-6 M201,25 Q397,25 451.5,89 Q506,153 506,272 Q506,390 451,454.5 Q396,519 299,519 Q202,519 147,454.5 Q92,390 92,272 Q92,153 201,25"/> 
            <glyph glyph-name="o" unicode="&#x6F;" horiz-adv-x="529" d=" M114,483 L114,67 Q236,29 296,29 Q396,29 445.5,93.5 Q495,158 495,273 Q495,383 442.5,449 Q390,515 290,515 Q223,515 114,483 M114,-180 L82,-187 L82,476 Q82,505 113,514 Q224,548 293,548 Q403,548 466,475 Q529,402 529,274 Q529,141 469,68.5 Q409,-4 297,-4 Q231,-4 114,36"/> 
            <glyph glyph-name="p" unicode="&#x70;" horiz-adv-x="504" d=" M472,67 L472,483 Q364,515 296,515 Q195,515 142.5,449.5 Q90,384 90,273 Q90,158 139.5,93.5 Q189,29 289,29 Q347,29 472,67 M504,-179 L472,-186 L472,37 Q350,-4 286,-4 Q173,-4 115,67.5 Q57,139 57,274 Q57,399 121,473.5 Q185,548 295,548 Q370,548 472,515 Q489,510 496.5,501.5 Q504,493 504,476"/> 
            <glyph glyph-name="q" unicode="&#x71;" horiz-adv-x="323" d=" M115,0 L82,0 L82,476 Q82,507 114,516 Q216,548 323,548 L323,514 Q214,514 115,482"/> 
            <glyph glyph-name="r" unicode="&#x72;" horiz-adv-x="463" d=" M98,23 L65,33 L72,66 L104,57 Q211,26 285,26 Q348,26 387.5,54.5 Q427,83 427,138 Q427,183 400.5,209 Q374,235 311,246 L207,264 Q68,288 68,402 Q68,475 118.5,512.5 Q169,550 244,550 Q320,550 430,520 L463,511 L455,479 L423,488 Q318,518 243,517 Q182,517 142,488 Q102,459 102,404 Q102,359 128.5,333.5 Q155,308 218,296 L322,277 Q461,252 461,140 Q461,67 410.5,30 Q360,-7 285,-7 Q197,-7 98,23"/> 
            <glyph glyph-name="s" unicode="&#x73;" horiz-adv-x="358" d=" M352,39 L358,7 Q301,-6 263,-6 Q123,-6 123,160 L123,502 L32,502 L32,533 L123,533 L123,679 L156,685 L156,533 L348,533 L348,502 L156,502 L156,162 Q156,92 181.5,59 Q207,26 264,26 Q297,26 352,39"/> 
            <glyph glyph-name="t" unicode="&#x74;" horiz-adv-x="486" d=" M453,61 L453,544 L486,544 L486,68 Q486,38 455,28 Q351,-4 275,-4 Q177,-4 128.5,48.5 Q80,101 80,190 L80,544 L112,544 L112,193 Q112,29 277,29 Q351,29 453,61"/> 
            <glyph glyph-name="u" unicode="&#x75;" horiz-adv-x="487" d=" M258,26 L451,544 L487,544 L285,12 Q277,-9 257,-9 Q235,-9 228,12 L35,544 L70,544"/> 
            <glyph glyph-name="v" unicode="&#x76;" horiz-adv-x="737" d=" M594,24 L704,544 L737,544 L622,14 Q617,-11 593,-11 Q572,-11 564,12 L391,503 L211,12 Q204,-10 181,-10 Q159,-10 152,15 L42,544 L78,544 L183,24 L367,527 Q373,545 391,545 Q409,545 415,527"/> 
            </font>
</defs>
</svg>
