<?xml version="1.0" standalone="no"?>
<!DOCTYPE svg PUBLIC "-//W3C//DTD SVG 1.1//EN" "http://www.w3.org/Graphics/SVG/1.1/DTD/svg11.dtd" >
<svg xmlns="http://www.w3.org/2000/svg">
    <defs>
        <font id="NewJuneUltrabold">
            <font-face font-family="NewJuneUltrabold"
                       units-per-em="1000"
                       ascent="960"
                       descent="-240"
                       bbox="-83 -201 1314 960"
                    />
            <missing-glyph horiz-adv-x="0" />
            
            <glyph glyph-name="!" unicode="&#x21;" horiz-adv-x="247" d=" M39,744 L237,744 L237,258 L39,224 M247,83 Q247,41 218,15.5 Q189,-10 139,-10 Q88,-10 59,15 Q30,40 30,83 Q30,126 59,151.5 Q88,177 139,177 Q190,177 218.5,151.5 Q247,126 247,83"/> 
            <glyph glyph-name="&quot;" unicode="&#x22;" horiz-adv-x="430" d=" M219,763 L203,495 L55,495 L38,763 M430,763 L414,495 L266,495 L249,763"/> 
            <glyph glyph-name="#" unicode="&#x23;" horiz-adv-x="676" d=" M676,554 L654,411 L557,411 L541,324 L638,324 L617,180 L514,180 L481,0 L323,0 L357,180 L268,180 L233,0 L74,0 L109,180 L19,180 L40,324 L136,324 L153,411 L56,411 L77,554 L180,554 L216,744 L374,744 L338,554 L424,554 L460,744 L618,744 L582,554 M399,411 L311,411 L294,324 L383,324"/> 
            <glyph glyph-name="$" unicode="&#x24;" horiz-adv-x="567" d=" M218,-129 L218,-3 Q149,2 97,18 L30,37 L61,229 L127,208 Q217,178 301,178 Q325,178 339.5,190 Q354,202 354,223 Q354,258 309,269 L223,289 Q28,334 28,508 Q28,609 78.5,667.5 Q129,726 218,742 L218,867 L375,867 L375,744 Q440,739 498,722 L565,704 L534,512 L468,534 Q381,563 296,563 Q241,563 241,518 Q241,483 288,472 L372,452 Q567,406 567,236 Q567,136 515.5,75.5 Q464,15 375,-1 L375,-129"/> 
            <glyph glyph-name="%" unicode="&#x25;" horiz-adv-x="900" d=" M423,657 Q423,475 370,422.5 Q317,370 226,370 Q134,370 82,422.5 Q30,475 30,566 Q30,656 83,708 Q136,760 227,760 Q319,760 423,657 M259,566 Q259,635 226,635 Q195,635 195,566 Q195,496 227,496 Q259,496 259,566 M816,744 L303,0 L109,0 L623,744 M900,272 Q900,90 847,37.5 Q794,-15 703,-15 Q611,-15 559,37.5 Q507,90 507,181 Q507,271 560,323 Q613,375 704,375 Q797,375 900,272 M736,181 Q736,250 703,250 Q672,250 672,181 Q672,111 704,111 Q736,111 736,181"/> 
            <glyph glyph-name="&amp;" unicode="&#x26;" horiz-adv-x="753" d=" M554,462 L726,462 L726,399 Q726,237 633,136 L753,0 L516,0 L487,32 Q480,27 467,20 Q454,13 405,1.5 Q356,-10 298,-10 Q174,-10 107,51.5 Q40,113 40,210 Q40,340 157,398 Q100,470 100,552 Q100,650 164.5,703.5 Q229,757 335,757 Q440,757 499.5,707.5 Q559,658 559,568 Q559,436 418,362 L515,261 Q532,279 543,318.5 Q554,358 554,400 M379,561 Q379,585 366.5,599 Q354,613 332,613 Q281,613 281,552 Q281,513 316,472 Q379,503 379,561 M380,152 L263,274 Q239,254 239,212 Q239,179 260,159 Q281,139 315,139 Q334,139 350,142.5 Q366,146 373,149"/> 
            <glyph glyph-name="'" unicode="&#x27;" horiz-adv-x="239" d=" M239,763 L223,495 L55,495 L38,763"/> 
            <glyph glyph-name="(" unicode="&#x28;" horiz-adv-x="365" d=" M40,340 Q40,413 50.5,472.5 Q61,532 78.5,573 Q96,614 121.5,645.5 Q147,677 174.5,695 Q202,713 236,724.5 Q270,736 300,740 Q330,744 365,744 L365,602 Q348,600 334.5,596 Q321,592 302.5,575.5 Q284,559 271.5,533 Q259,507 250,457 Q241,407 241,340 Q241,269 250,217 Q259,165 271.5,138 Q284,111 303,94.5 Q322,78 335,74 Q348,70 365,69 L365,-74 Q320,-74 279.5,-65.5 Q239,-57 193.5,-30 Q148,-3 115.5,41 Q83,85 61.5,161.5 Q40,238 40,340"/> 
            <glyph glyph-name=")" unicode="&#x29;" horiz-adv-x="365" d=" M365,340 Q365,238 343.5,161.5 Q322,85 289.5,41 Q257,-3 211.5,-30 Q166,-57 125.5,-65.5 Q85,-74 40,-74 L40,69 Q57,70 70,74 Q83,78 102,94.5 Q121,111 133.5,138 Q146,165 155,217 Q164,269 164,340 Q164,407 155,457 Q146,507 133.5,533 Q121,559 102.5,575.5 Q84,592 70.5,596 Q57,600 40,602 L40,744 Q75,744 105,740 Q135,736 169,724.5 Q203,713 230.5,695 Q258,677 283.5,645.5 Q309,614 326.5,573 Q344,532 354.5,472.5 Q365,413 365,340"/> 
            <glyph glyph-name="*" unicode="&#x2A;" horiz-adv-x="529" d=" M529,526 L392,494 L482,390 L333,292 L276,401 L217,293 L70,391 L159,495 L22,527 L73,689 L192,639 L182,762 L369,762 L359,638 L478,687"/> 
            <glyph glyph-name="+" unicode="&#x2B;" horiz-adv-x="550" d=" M550,220 L377,220 L377,35 L208,35 L208,220 L40,220 L40,366 L208,366 L208,552 L377,552 L377,366 L550,366"/> 
            <glyph glyph-name="," unicode="&#x2C;" horiz-adv-x="259" d=" M259,175 L199,-29 Q181,-91 104,-91 Q52,-91 30.5,-63.5 Q9,-36 19,5 L57,175"/> 
            <glyph glyph-name="-" unicode="&#x2D;" horiz-adv-x="413" d=" M413,250 L30,250 L30,398 L413,398"/> 
            <glyph glyph-name="." unicode="&#x2E;" horiz-adv-x="247" d=" M247,134 Q247,44 218.5,17 Q190,-10 139,-10 Q88,-10 59,17 Q30,44 30,89 Q30,134 59,160.5 Q88,187 139,187 Q189,187 247,134"/> 
            <glyph glyph-name="/" unicode="&#x2F;" horiz-adv-x="443" d=" M443,744 L179,0 L5,0 L276,744"/> 
            <glyph glyph-name="0" unicode="&#x30;" horiz-adv-x="557" d=" M348,230 L348,513 Q348,584 295,584 Q242,584 242,513 L242,230 Q242,159 295,159 Q348,159 348,230 M557,506 L557,239 Q557,119 490,55 Q423,-9 297,-9 Q169,-9 101,54.5 Q33,118 33,237 L33,504 Q33,623 100,687.5 Q167,752 293,752 Q421,752 489,688.5 Q557,625 557,506"/> 
            <glyph glyph-name="1" unicode="&#x31;" horiz-adv-x="569" d=" M423,637 L423,160 L569,160 L569,0 L27,0 L27,160 L207,160 L207,576 L196,576 Q174,576 138,567.5 Q102,559 82,545 L54,705 Q133,744 240,744 L308,744 Q363,744 393,715.5 Q423,687 423,637"/> 
            <glyph glyph-name="2" unicode="&#x32;" horiz-adv-x="550" d=" M54,176 L249,354 Q299,401 318,430.5 Q337,460 337,502 Q337,540 314,560.5 Q291,581 247,581 Q184,581 105,552 L54,534 L29,699 L85,718 Q182,751 282,751 Q408,751 479,692 Q550,633 550,514 Q550,448 519.5,389 Q489,330 417,261 L301,157 L550,157 L550,0 L113,0 Q68,0 45,25.5 Q22,51 22,93 Q22,147 54,176"/> 
            <glyph glyph-name="3" unicode="&#x33;" horiz-adv-x="565" d=" M565,211 Q565,101 490.5,47 Q416,-7 280,-7 Q175,-7 73,27 L15,46 L42,209 L99,190 Q186,159 262,159 Q354,159 354,223 Q354,255 333,279 L318,297 L167,297 L167,448 L311,448 L324,463 Q343,485 343,516 Q343,581 254,581 Q188,581 109,552 L58,534 L33,699 L89,718 Q186,751 286,751 Q553,751 553,539 Q553,466 499,398 L483,378 L499,362 Q565,296 565,211"/> 
            <glyph glyph-name="4" unicode="&#x34;" horiz-adv-x="581" d=" M317,110 L98,110 Q53,110 30,135.5 Q7,161 7,203 Q7,238 33,286 L256,675 Q299,752 392,752 Q521,752 521,637 L521,267 L581,267 L581,110 L521,110 L521,0 L317,0 M317,267 L317,431 L229,267"/> 
            <glyph glyph-name="5" unicode="&#x35;" horiz-adv-x="569" d=" M118,313 L63,298 L63,744 L543,744 L543,574 L234,574 L234,485 Q279,498 331,498 Q569,498 569,251 Q569,122 496,57.5 Q423,-7 287,-7 Q185,-7 86,26 L28,45 L55,207 L111,189 Q201,159 268,159 Q359,159 359,249 Q359,340 268,340 Q219,340 118,313"/> 
            <glyph glyph-name="6" unicode="&#x36;" horiz-adv-x="570" d=" M239,326 L239,251 Q239,161 299,161 Q358,161 358,245 Q358,289 343,312 Q328,335 291,335 Q279,335 266,332.5 Q253,330 246,328 M570,258 Q570,139 498,67 Q426,-5 296,-5 Q169,-5 99,64.5 Q29,134 29,254 L29,513 Q29,626 106.5,688 Q184,750 310,750 Q403,750 497,718 L553,699 L524,534 L473,552 Q396,580 326,580 Q239,580 239,514 L239,485 Q283,498 335,498 Q570,498 570,258"/> 
            <glyph glyph-name="7" unicode="&#x37;" horiz-adv-x="570" d=" M338,574 L33,574 L33,744 L469,744 Q570,744 570,646 Q570,607 547,549 L326,0 L94,0"/> 
            <glyph glyph-name="8" unicode="&#x38;" horiz-adv-x="569" d=" M426,-7 Q168,-7 95,48.5 Q22,104 22,211 Q22,297 86,362 L102,378 L86,398 Q38,460 38,541 Q38,643 108,697.5 Q178,752 296,752 Q413,752 483,697.5 Q553,643 553,541 Q553,460 505,398 L489,378 L505,362 Q569,297 569,211 Q569,104 426,-7 M296,149 Q328,149 346.5,167.5 Q365,186 365,216 Q365,250 342,277 L327,295 L264,295 L249,277 Q227,249 227,216 Q227,186 245,167.5 Q263,149 296,149 M296,589 Q268,589 250.5,570.5 Q233,552 233,523 Q233,497 256,464 L267,448 L325,448 L336,464 Q359,497 359,523 Q359,553 342,571 Q325,589 296,589"/> 
            <glyph glyph-name="9" unicode="&#x39;" horiz-adv-x="561" d=" M351,419 L351,494 Q351,584 291,584 Q232,584 232,500 Q232,456 247,433 Q262,410 299,410 Q311,410 324,412 Q337,414 344,416 M20,487 Q20,606 92,678 Q164,750 294,750 Q421,750 491,680.5 Q561,611 561,491 L561,232 Q561,119 483.5,57 Q406,-5 280,-5 Q187,-5 93,27 L37,46 L66,211 L117,193 Q194,165 264,165 Q351,165 351,231 L351,260 Q307,247 255,247 Q20,247 20,487"/> 
            <glyph glyph-name=":" unicode="&#x3A;" horiz-adv-x="247" d=" M247,134 Q247,44 218.5,17 Q190,-10 139,-10 Q88,-10 59,17 Q30,44 30,89 Q30,134 59,160.5 Q88,187 139,187 Q189,187 247,134 M247,501 Q247,411 218.5,384 Q190,357 139,357 Q88,357 59,384 Q30,411 30,456 Q30,501 59,527.5 Q88,554 139,554 Q189,554 247,501"/> 
            <glyph glyph-name=";" unicode="&#x3B;" horiz-adv-x="259" d=" M259,175 L199,-29 Q181,-91 104,-91 Q52,-91 30.5,-63.5 Q9,-36 19,5 L57,175 M247,501 Q247,411 218.5,384 Q190,357 139,357 Q88,357 59,384 Q30,411 30,456 Q30,501 59,527.5 Q88,554 139,554 Q189,554 247,501"/> 
            <glyph glyph-name="&lt;" unicode="&#x3C;" horiz-adv-x="550" d=" M550,29 L132,166 Q40,195 40,296 Q40,398 129,426 L550,567 L550,371 L244,296 L550,220"/> 
            <glyph glyph-name="=" unicode="&#x3D;" horiz-adv-x="550" d=" M550,134 L40,134 L40,273 L550,273 M550,324 L40,324 L40,463 L550,463"/> 
            <glyph glyph-name="&gt;" unicode="&#x3E;" horiz-adv-x="550" d=" M458,166 L40,29 L40,220 L346,296 L40,371 L40,567 L461,426 Q550,398 550,296 Q550,195 458,166"/> 
            <glyph glyph-name="?" unicode="&#x3F;" horiz-adv-x="455" d=" M118,224 L118,293 Q118,330 126,354.5 Q134,379 159,402 L224,465 Q245,487 252,501 Q259,515 259,540 Q259,583 204,583 Q166,583 108,567 L45,549 L20,708 L74,723 Q157,746 231,746 Q336,746 395.5,695 Q455,644 455,554 Q455,454 372,377 L313,323 L312,258 M323,83 Q323,41 294,15.5 Q265,-10 215,-10 Q164,-10 135,15 Q106,40 106,83 Q106,126 135,151.5 Q164,177 215,177 Q266,177 294.5,151.5 Q323,126 323,83"/> 
            <glyph glyph-name="@" unicode="&#x40;" horiz-adv-x="855" d=" M659,572 L616,264 Q628,258 640,258 Q680,258 707,298.5 Q734,339 734,410 Q734,519 672.5,579.5 Q611,640 488,640 Q364,640 284.5,556 Q205,472 205,348 Q205,236 266.5,167 Q328,98 438,98 Q474,98 545,116 Q616,134 653,134 Q690,134 725,116 L792,77 L747,-14 L679,17 Q665,23 646,23 Q625,23 560.5,6 Q496,-11 434,-11 Q269,-11 174.5,90 Q80,191 80,348 Q80,520 197.5,636.5 Q315,753 488,753 Q654,753 754.5,659.5 Q855,566 855,409 Q855,298 790.5,231 Q726,164 636,164 Q613,164 586,170.5 Q559,177 545,177 Q529,177 492.5,169.5 Q456,162 427,162 Q339,162 295.5,207.5 Q252,253 252,336 Q252,425 311.5,489.5 Q371,554 472,554 L522,551 L525,572 M441,267 Q450,267 460.5,268.5 Q471,270 477,272 L483,274 L508,448 Q491,451 471,451 Q434,451 414,417.5 Q394,384 394,334 Q394,267 441,267"/> 
            <glyph glyph-name="A" unicode="&#x41;" horiz-adv-x="747" d=" M747,0 L496,0 L470,105 L281,105 L254,0 L5,0 L212,644 Q247,753 383,753 Q518,753 551,645 M378,503 L323,279 L430,279"/> 
            <glyph glyph-name="B" unicode="&#x42;" horiz-adv-x="687" d=" M425,0 L155,0 Q100,0 70,28.5 Q40,57 40,107 L40,637 Q40,687 70,715.5 Q100,744 155,744 L423,744 Q664,744 664,542 Q664,467 611,401 L595,381 L611,366 Q687,295 687,207 Q687,107 621.5,53.5 Q556,0 425,0 M430,527 Q430,549 416,562.5 Q402,576 375,576 L285,576 L285,456 L399,456 L416,481 Q430,504 430,527 M403,291 L285,291 L285,169 L385,169 Q444,169 444,220 Q444,245 426,266"/> 
            <glyph glyph-name="C" unicode="&#x43;" horiz-adv-x="673" d=" M646,244 L673,48 L609,28 Q507,-7 393,-7 Q226,-7 128,91.5 Q30,190 30,373 Q30,555 129.5,653 Q229,751 395,751 Q507,751 609,716 L673,696 L646,502 L581,523 Q512,547 430,547 Q289,547 289,373 Q289,199 430,199 Q512,199 581,223"/> 
            <glyph glyph-name="D" unicode="&#x44;" horiz-adv-x="718" d=" M348,0 L155,0 Q100,0 70,28.5 Q40,57 40,107 L40,637 Q40,687 70,715.5 Q100,744 155,744 L350,744 Q521,744 619.5,644.5 Q718,545 718,370 Q718,195 618,97.5 Q518,0 348,0 M472,279 Q472,461 437,511 Q402,561 339,561 L290,561 L290,185 L345,185 Q406,185 472,279"/> 
            <glyph glyph-name="E" unicode="&#x45;" horiz-adv-x="610" d=" M610,0 L155,0 Q100,0 70,28.5 Q40,57 40,107 L40,637 Q40,687 70,715.5 Q100,744 155,744 L608,744 L608,567 L290,567 L290,463 L567,463 L567,293 L290,293 L290,177 L610,177"/> 
            <glyph glyph-name="F" unicode="&#x46;" horiz-adv-x="599" d=" M291,0 L40,0 L40,637 Q40,687 70,715.5 Q100,744 155,744 L599,744 L599,564 L291,564 L291,448 L571,448 L571,277 L291,277"/> 
            <glyph glyph-name="G" unicode="&#x47;" horiz-adv-x="713" d=" M713,319 L713,146 Q713,96 689.5,68.5 Q666,41 615,26 Q502,-6 400,-6 Q228,-6 129,93 Q30,192 30,373 Q30,553 132,652 Q234,751 405,751 Q517,751 633,715 L700,695 L670,499 L602,520 Q513,547 434,547 Q357,547 316,500.5 Q275,454 275,366 Q275,170 433,170 L485,173 L485,261 L366,261 L366,426 L598,426 Q653,426 683,397.5 Q713,369 713,319"/> 
            <glyph glyph-name="H" unicode="&#x48;" horiz-adv-x="692" d=" M692,0 L441,0 L441,288 L291,288 L291,0 L40,0 L40,744 L291,744 L291,466 L441,466 L441,744 L692,744"/> 
            <glyph glyph-name="I" unicode="&#x49;" horiz-adv-x="294" d=" M294,0 L40,0 L40,744 L294,744"/> 
            <glyph glyph-name="J" unicode="&#x4A;" horiz-adv-x="483" d=" M483,744 L483,245 Q483,126 412,63 Q341,0 214,0 Q127,0 20,34 L48,214 Q118,192 157,192 Q197,192 214.5,209 Q232,226 232,266 L232,744"/> 
            <glyph glyph-name="K" unicode="&#x4B;" horiz-adv-x="731" d=" M457,0 L355,285 L326,247 Q305,220 295.5,197.5 Q286,175 286,138 L286,0 L40,0 L40,744 L287,744 L286,500 L457,744 L731,744 L535,485 L722,0"/> 
            <glyph glyph-name="L" unicode="&#x4C;" horiz-adv-x="589" d=" M40,744 L293,744 L293,197 L589,197 L589,0 L155,0 Q100,0 70,28.5 Q40,57 40,107"/> 
            <glyph glyph-name="M" unicode="&#x4D;" horiz-adv-x="900" d=" M678,437 L588,78 Q567,-6 465,-6 Q360,-6 341,78 L254,437 L254,0 L40,0 L40,602 Q40,673 89,712 Q138,751 224,751 Q387,751 417,618 L471,376 L531,618 Q562,751 727,751 Q809,751 854.5,713 Q900,675 900,606 L900,0 L678,0"/> 
            <glyph glyph-name="N" unicode="&#x4E;" horiz-adv-x="729" d=" M401,613 L515,339 L515,744 L729,744 L729,142 Q729,70 682.5,31.5 Q636,-7 551,-7 Q472,-7 434.5,26.5 Q397,60 368,131 L254,405 L254,0 L40,0 L40,602 Q40,674 86.5,712.5 Q133,751 218,751 Q297,751 334.5,717.5 Q372,684 401,613"/> 
            <glyph glyph-name="O" unicode="&#x4F;" horiz-adv-x="789" d=" M789,371 Q789,191 685,92 Q581,-7 407,-7 Q234,-7 132,92.5 Q30,192 30,371 Q30,549 134,649.5 Q238,750 411,750 Q585,750 687,650 Q789,550 789,371 M536,371 Q536,469 503,522.5 Q470,576 407,576 Q345,576 313.5,523 Q282,470 282,371 Q282,272 315,219 Q348,166 411,166 Q472,166 504,219 Q536,272 536,371"/> 
            <glyph glyph-name="P" unicode="&#x50;" horiz-adv-x="654" d=" M40,0 L40,637 Q40,687 70,715.5 Q100,744 155,744 L389,744 Q512,744 583,676.5 Q654,609 654,493 Q654,376 580.5,308.5 Q507,241 380,241 L286,241 L286,0 M428,493 Q428,528 408.5,548.5 Q389,569 356,569 L286,569 L286,417 L354,417 Q388,417 408,437 Q428,457 428,493"/> 
            <glyph glyph-name="Q" unicode="&#x51;" horiz-adv-x="786" d=" M786,375 Q786,278 746,206 Q706,134 647,98 Q696,82 750,82 L782,82 L782,-90 L728,-90 Q663,-90 608.5,-67.5 Q554,-45 506,-22.5 Q458,0 411,0 Q240,0 135,94.5 Q30,189 30,370 Q30,548 133.5,649 Q237,750 410,750 Q584,750 685,651.5 Q786,553 786,375 M536,371 Q536,469 503,522.5 Q470,576 407,576 Q345,576 313.5,523 Q282,470 282,371 Q282,272 315,219 Q348,166 411,166 Q472,166 504,219 Q536,272 536,371"/> 
            <glyph glyph-name="R" unicode="&#x52;" horiz-adv-x="717" d=" M40,0 L40,637 Q40,687 70,715.5 Q100,744 155,744 L428,744 Q549,744 617.5,683.5 Q686,623 686,514 Q686,420 615,344 L588,314 L717,0 L455,0 L366,245 L290,245 L290,0 M447,506 Q447,572 379,572 L290,572 L290,417 L403,417 L423,444 Q447,475 447,506"/> 
            <glyph glyph-name="S" unicode="&#x53;" horiz-adv-x="639" d=" M316,472 L431,450 Q536,430 587,379.5 Q638,329 638,236 Q638,117 558,54 Q478,-9 346,-9 Q212,-9 106,25 L30,50 L65,251 L140,224 Q256,182 345,182 Q405,182 405,225 Q405,259 354,269 L238,291 Q134,312 82.5,363 Q31,414 31,508 Q31,628 109,689 Q187,750 323,750 Q451,750 564,715 L639,691 L602,487 L527,516 Q416,559 325,559 Q265,559 265,516 Q265,481 316,472"/> 
            <glyph glyph-name="T" unicode="&#x54;" horiz-adv-x="661" d=" M661,560 L471,560 L471,0 L220,0 L220,560 L30,560 L30,744 L661,744"/> 
            <glyph glyph-name="U" unicode="&#x55;" horiz-adv-x="702" d=" M702,281 Q702,141 616,64.5 Q530,-12 367,-12 Q205,-12 120,64 Q35,140 35,281 L35,744 L287,744 L287,282 Q287,191 368,191 Q450,191 450,282 L450,744 L702,744"/> 
            <glyph glyph-name="V" unicode="&#x56;" horiz-adv-x="733" d=" M5,744 L256,744 L367,265 L484,744 L733,744 L528,97 Q493,-7 362,-7 Q233,-7 199,97"/> 
            <glyph glyph-name="W" unicode="&#x57;" horiz-adv-x="1009" d=" M299,267 L390,667 Q398,704 430.5,724 Q463,744 512,744 Q560,744 592,724 Q624,704 632,667 L720,267 L774,744 L1009,744 L888,103 Q863,-10 732,-10 Q596,-10 569,95 L507,366 L443,95 Q416,-10 281,-10 Q149,-10 125,103 L5,744 L246,744"/> 
            <glyph glyph-name="X" unicode="&#x58;" horiz-adv-x="759" d=" M759,0 L489,0 L384,215 L276,0 L10,0 L232,374 L16,744 L286,744 L385,541 L480,744 L748,744 L540,380"/> 
            <glyph glyph-name="Y" unicode="&#x59;" horiz-adv-x="771" d=" M263,294 L5,744 L275,744 L392,505 L503,744 L771,744 L514,295 L514,0 L263,0"/> 
            <glyph glyph-name="Z" unicode="&#x5A;" horiz-adv-x="659" d=" M346,565 L50,565 L50,744 L553,744 Q606,744 632.5,714.5 Q659,685 659,636 Q659,586 622,539 L341,179 L651,179 L651,0 L131,0 Q79,0 52,29.5 Q25,59 25,108 Q25,158 62,205"/> 
            <glyph glyph-name="[" unicode="&#x5B;" horiz-adv-x="365" d=" M70,-65 L70,744 L365,744 L365,602 L252,602 L252,77 L365,77 L365,-65"/> 
            <glyph glyph-name="\" unicode="&#x5C;" horiz-adv-x="443" d=" M269,0 L5,744 L172,744 L443,0"/> 
            <glyph glyph-name="]" unicode="&#x5D;" horiz-adv-x="335" d=" M335,744 L335,-65 L40,-65 L40,77 L153,77 L153,602 L40,602 L40,744"/> 
            <glyph glyph-name="^" unicode="&#x5E;" horiz-adv-x="564" d=" M26,43 L163,461 Q192,553 293,553 Q395,553 423,464 L564,43 L368,43 L293,349 L217,43"/> 
            <glyph glyph-name="_" unicode="&#x5F;" horiz-adv-x="502" d=" M502,-186 L-2,-186 L-2,-62 L502,-62"/> 
            <glyph glyph-name="`" unicode="&#x60;" horiz-adv-x="430" d=" M280,620 L89,763 L335,763 L403,703 Q430,678 430,646 Q430,622 413,605.5 Q396,589 364,589 Q321,589 280,620"/> 
            <glyph glyph-name="a" unicode="&#x61;" horiz-adv-x="601" d=" M357,145 L357,218 L288,218 Q226,218 226,171 Q226,129 277,129 Q302,129 332,138 M132,378 L69,357 L47,506 L110,526 Q221,561 315,561 Q546,561 546,366 L546,143 L601,109 L528,-16 L478,10 Q444,28 395,18 L372,13 Q285,-6 236,-6 Q140,-6 85,39.5 Q30,85 30,165 Q30,344 281,344 L355,344 L355,355 Q355,405 289,405 Q212,405 132,378"/> 
            <glyph glyph-name="b" unicode="&#x62;" horiz-adv-x="574" d=" M376,276 Q376,342 356.5,371.5 Q337,401 295,401 Q272,401 242,391 L242,152 Q268,147 288,147 Q376,147 376,276 M332,557 Q458,557 516,487 Q574,417 574,280 Q574,147 500.5,70.5 Q427,-6 296,-6 Q194,-6 116,21 Q74,35 57,57.5 Q40,80 40,121 L40,743 L242,778 L242,543 Q291,557 332,557"/> 
            <glyph glyph-name="c" unicode="&#x63;" horiz-adv-x="511" d=" M235,277 Q235,155 329,155 Q379,155 446,178 L490,192 L511,34 L463,19 Q387,-7 303,-7 Q179,-7 104.5,67 Q30,141 30,277 Q30,413 104.5,486.5 Q179,560 303,560 Q387,560 463,534 L511,519 L490,361 L446,375 Q379,398 329,398 Q235,398 235,277"/> 
            <glyph glyph-name="d" unicode="&#x64;" horiz-adv-x="564" d=" M228,276 Q228,147 316,147 Q336,147 362,152 L362,391 Q332,401 309,401 Q267,401 247.5,371.5 Q228,342 228,276 M564,778 L564,121 Q564,80 547,57.5 Q530,35 488,21 Q410,-6 308,-6 Q177,-6 103.5,68 Q30,142 30,274 Q30,410 92,483.5 Q154,557 278,557 Q296,557 317,553.5 Q338,550 350,546 L362,543 L362,743"/> 
            <glyph glyph-name="e" unicode="&#x65;" horiz-adv-x="561" d=" M30,276 Q30,415 107,488 Q184,561 302,561 Q425,561 493,493.5 Q561,426 561,290 Q561,252 543.5,235.5 Q526,219 487,219 L224,219 Q237,147 333,147 Q409,147 481,169 L533,185 L554,43 L501,26 Q399,-6 316,-6 Q182,-6 106,66.5 Q30,139 30,276 M368,342 Q368,378 350,401 Q332,424 295,424 Q263,424 244.5,402.5 Q226,381 223,342"/> 
            <glyph glyph-name="f" unicode="&#x66;" horiz-adv-x="453" d=" M453,738 L431,597 Q378,614 342,614 Q307,614 293.5,603.5 Q280,593 280,562 L280,554 L426,554 L426,410 L280,410 L280,0 L83,0 L83,410 L15,410 L15,554 L83,554 L83,579 Q83,672 139,718.5 Q195,765 297,765 Q369,765 453,738"/> 
            <glyph glyph-name="g" unicode="&#x67;" horiz-adv-x="607" d=" M364,371 Q364,423 290,423 Q217,423 217,371 Q217,316 290,316 Q364,316 364,371 M420,-6 Q420,26 375,26 L217,26 Q209,10 209,-8 Q209,-34 232.5,-44 Q256,-54 310,-54 Q420,-54 420,-6 M32,-11 Q32,45 69,93 L110,147 Q127,170 127,192 Q127,218 101,239 Q30,295 30,370 Q30,461 97.5,505.5 Q165,550 285,550 L337,550 Q388,550 432,563 L574,605 L607,465 L528,444 Q552,419 552,370 Q552,286 487,244.5 Q422,203 304,203 L273,205 Q277,194 277,182 Q277,174 274.5,167 Q272,160 270,156 L268,153 L392,153 Q595,153 595,3 Q595,-84 522,-130.5 Q449,-177 308,-177 Q178,-177 105,-136.5 Q32,-96 32,-11"/> 
            <glyph glyph-name="h" unicode="&#x68;" horiz-adv-x="549" d=" M245,380 L245,0 L40,0 L40,743 L245,778 L245,543 Q292,557 339,557 Q454,557 501.5,505 Q549,453 549,360 L549,0 L348,0 L348,342 Q348,390 300,390 Q276,390 245,380"/> 
            <glyph glyph-name="i" unicode="&#x69;" horiz-adv-x="247" d=" M237,0 L39,0 L39,554 L237,554 M247,680 Q247,637 218.5,611.5 Q190,586 139,586 Q88,586 59,611.5 Q30,637 30,680 Q30,723 59,748 Q88,773 139,773 Q189,773 218,747.5 Q247,722 247,680"/> 
            <glyph glyph-name="j" unicode="&#x6A;" horiz-adv-x="252" d=" M242,554 L242,11 Q242,-181 -15,-181 L-15,-41 Q17,-40 30.5,-27 Q44,-14 44,14 L44,554 M252,680 Q252,637 223.5,611.5 Q195,586 144,586 Q93,586 64,611.5 Q35,637 35,680 Q35,723 64,748 Q93,773 144,773 Q194,773 223,747.5 Q252,722 252,680"/> 
            <glyph glyph-name="k" unicode="&#x6B;" horiz-adv-x="598" d=" M370,0 L299,200 L274,167 Q240,123 240,74 L240,0 L40,0 L40,743 L240,778 L240,385 L362,554 L598,554 L455,372 L598,0"/> 
            <glyph glyph-name="l" unicode="&#x6C;" horiz-adv-x="247" d=" M247,778 L247,0 L40,0 L40,743"/> 
            <glyph glyph-name="m" unicode="&#x6D;" horiz-adv-x="839" d=" M839,363 L839,0 L640,0 L640,345 Q640,393 594,393 Q578,393 563.5,390.5 Q549,388 542,385 L535,382 Q539,371 539,352 L539,0 L340,0 L340,345 Q340,393 294,393 Q272,393 241,383 L241,0 L40,0 L40,432 Q40,474 60,497.5 Q80,521 122,533 Q214,560 300,560 Q403,560 454,525 Q533,560 616,560 Q839,560 839,363"/> 
            <glyph glyph-name="n" unicode="&#x6E;" horiz-adv-x="549" d=" M549,363 L549,0 L348,0 L348,345 Q348,393 300,393 Q276,393 245,383 L245,0 L40,0 L40,432 Q40,474 60,497.5 Q80,521 122,533 Q214,560 305,560 Q430,560 489.5,508 Q549,456 549,363"/> 
            <glyph glyph-name="o" unicode="&#x6F;" horiz-adv-x="594" d=" M594,277 Q594,143 518.5,68.5 Q443,-6 311,-6 Q178,-6 104,68 Q30,142 30,277 Q30,411 106,485.5 Q182,560 314,560 Q446,560 520,486 Q594,412 594,277 M391,135 Q391,419 311,419 Q235,419 235,277 Q235,135 314,135"/> 
            <glyph glyph-name="p" unicode="&#x70;" horiz-adv-x="574" d=" M376,278 Q376,405 288,405 Q268,405 242,400 L242,163 Q272,153 295,153 Q337,153 356.5,182.5 Q376,212 376,278 M40,-186 L40,433 Q40,474 57,496.5 Q74,519 116,533 Q194,560 296,560 Q427,560 500.5,486 Q574,412 574,280 Q574,144 512,70.5 Q450,-3 326,-3 Q308,-3 287,0.5 Q266,4 254,8 L242,11 L242,-151"/> 
            <glyph glyph-name="q" unicode="&#x71;" horiz-adv-x="564" d=" M228,278 Q228,212 247.5,182.5 Q267,153 309,153 Q332,153 362,163 L362,400 Q336,405 316,405 Q228,405 228,278 M272,-3 Q146,-3 88,67 Q30,137 30,274 Q30,407 103.5,483.5 Q177,560 308,560 Q410,560 488,533 Q530,519 547,496.5 Q564,474 564,433 L564,-154 L362,-189 L362,11 Q313,-3 272,-3"/> 
            <glyph glyph-name="r" unicode="&#x72;" horiz-adv-x="391" d=" M40,0 L40,429 Q40,471 60,495 Q80,519 122,531 Q219,558 391,558 L391,401 Q291,401 238,385 L238,0"/> 
            <glyph glyph-name="s" unicode="&#x73;" horiz-adv-x="522" d=" M263,353 L356,339 Q440,327 480.5,288.5 Q521,250 521,179 Q521,90 457.5,42 Q394,-6 287,-6 Q182,-6 91,23 L30,42 L56,194 L118,172 Q219,137 282,137 Q330,137 330,169 Q330,197 289,201 L196,215 Q113,227 72,266.5 Q31,306 31,377 Q31,466 94.5,513 Q158,560 265,560 Q370,560 461,531 L522,512 L496,360 L434,382 Q333,417 270,417 Q222,417 222,385 Q222,357 263,353"/> 
            <glyph glyph-name="t" unicode="&#x74;" horiz-adv-x="444" d=" M78,554 L78,652 L275,687 L275,554 L424,554 L424,410 L275,410 L275,203 Q275,171 289,158 Q303,145 337,145 Q372,145 422,161 L444,20 Q363,-6 292,-6 Q191,-6 134.5,43.5 Q78,93 78,186 L78,410 L10,410 L10,554"/> 
            <glyph glyph-name="u" unicode="&#x75;" horiz-adv-x="549" d=" M40,191 L40,554 L241,554 L241,209 Q241,161 289,161 Q313,161 344,171 L344,554 L549,554 L549,122 Q549,80 529,56.5 Q509,33 467,21 Q376,-6 284,-6 Q159,-6 99.5,46 Q40,98 40,191"/> 
            <glyph glyph-name="v" unicode="&#x76;" horiz-adv-x="593" d=" M5,554 L221,554 L298,222 L379,554 L593,554 L437,78 Q406,-12 294,-12 Q182,-12 153,78"/> 
            <glyph glyph-name="w" unicode="&#x77;" horiz-adv-x="836" d=" M260,227 L323,491 Q338,557 428,557 Q517,557 532,491 L592,227 L634,554 L836,554 L737,85 Q716,-12 602,-12 Q484,-12 462,78 L424,232 L384,78 Q360,-12 244,-12 Q130,-12 109,85 L10,554 L218,554"/> 
            <glyph glyph-name="x" unicode="&#x78;" horiz-adv-x="610" d=" M610,0 L379,0 L309,141 L238,0 L10,0 L178,278 L13,554 L244,554 L310,421 L372,554 L602,554 L443,283"/> 
            <glyph glyph-name="y" unicode="&#x79;" horiz-adv-x="598" d=" M598,554 L407,-24 Q356,-183 189,-183 Q122,-183 41,-157 L65,-17 Q119,-35 159,-35 Q208,-35 218,7 L221,19 L10,554 L232,554 L316,249 L390,554"/> 
            <glyph glyph-name="z" unicode="&#x7A;" horiz-adv-x="537" d=" M271,410 L40,410 L40,554 L446,554 Q491,554 514,528.5 Q537,503 537,461 Q537,416 505,378 L298,144 L532,144 L532,0 L121,0 Q76,0 53,25.5 Q30,51 30,93 Q30,141 62,176"/> 
            <glyph glyph-name="{" unicode="&#x7B;" horiz-adv-x="365" d=" M40,280 L40,397 Q140,397 140,444 Q140,465 115,515.5 Q90,566 90,606 Q90,671 135,707.5 Q180,744 269,744 L365,744 L365,602 L318,602 Q267,602 267,556 Q267,533 289.5,490 Q312,447 312,419 Q312,362 258,338 Q312,314 312,258 Q312,230 289.5,185.5 Q267,141 267,118 Q267,75 318,75 L365,75 L365,-67 L269,-67 Q180,-67 135,-30.5 Q90,6 90,71 Q90,111 115,161.5 Q140,212 140,233 Q140,280 40,280"/> 
            <glyph glyph-name="|" unicode="&#x7C;" horiz-adv-x="253" d=" M253,-180 L60,-180 L60,763 L253,763"/> 
            <glyph glyph-name="}" unicode="&#x7D;" horiz-adv-x="365" d=" M365,397 L365,280 Q265,280 265,233 Q265,212 290,161.5 Q315,111 315,71 Q315,5 270.5,-31 Q226,-67 136,-67 L40,-67 L40,75 L87,75 Q138,75 138,118 Q138,141 115.5,185.5 Q93,230 93,258 Q93,314 147,338 Q93,362 93,419 Q93,447 115.5,490 Q138,533 138,556 Q138,602 87,602 L40,602 L40,744 L136,744 Q226,744 270.5,708 Q315,672 315,606 Q315,566 290,515.5 Q265,465 265,444 Q265,397 365,397"/> 
            <glyph glyph-name="~" unicode="&#x7E;" horiz-adv-x="578" d=" M380,192 Q321,192 272,226 L243,246 Q220,263 195,263 Q156,263 124,194 L12,265 Q72,424 210,424 Q269,424 318,390 L347,370 Q370,353 395,353 Q433,353 466,424 L578,351 Q518,192 380,192"/> 
            <glyph glyph-name="¡" unicode="&#xA1;" horiz-adv-x="247" d=" M238,-186 L40,-186 L40,299 L238,333 M30,474 Q30,516 59,541.5 Q88,567 138,567 Q189,567 218,542 Q247,517 247,474 Q247,431 218,405.5 Q189,380 138,380 Q87,380 58.5,405.5 Q30,431 30,474"/> 
            <glyph glyph-name="¢" unicode="&#xA2;" horiz-adv-x="529" d=" M253,277 Q253,155 347,155 Q397,155 464,178 L508,192 L529,34 L481,19 Q443,6 394,-1 L394,-132 L237,-132 L237,3 Q149,25 98.5,95.5 Q48,166 48,277 Q48,388 98.5,458 Q149,528 237,550 L237,683 L394,683 L394,553 Q442,547 481,534 L529,519 L508,361 L464,375 Q397,398 347,398 Q253,398 253,277"/> 
            <glyph glyph-name="£" unicode="&#xA3;" horiz-adv-x="575" d=" M418,255 L329,255 Q333,229 333,218 Q333,179 321,152 L369,152 Q391,152 409,169 Q427,186 427,220 L575,220 Q575,0 371,0 L96,0 Q23,0 23,74 Q23,150 96,150 Q131,150 150,168 Q169,186 169,217 Q169,236 163,255 L42,255 L42,374 L99,374 Q48,458 48,524 Q48,636 118,693.5 Q188,751 310,751 Q407,751 500,720 L556,701 L531,536 L480,554 Q406,581 342,581 Q257,581 257,504 Q257,465 292,374 L418,374"/> 
            <glyph glyph-name="¥" unicode="&#xA5;" horiz-adv-x="585" d=" M563,338 L415,338 L415,287 L563,287 L563,168 L415,168 L415,0 L174,0 L174,168 L28,168 L28,287 L174,287 L174,338 L28,338 L28,457 L125,457 L3,744 L233,744 L298,474 L357,744 L585,744 L463,457 L563,457"/> 
            <glyph glyph-name="¦" unicode="&#xA6;" horiz-adv-x="253" d=" M253,388 L60,388 L60,764 L253,764 M253,-180 L60,-180 L60,196 L253,196"/> 
            <glyph glyph-name="§" unicode="&#xA7;" horiz-adv-x="563" d=" M357,226 L357,260 Q357,303 341,324 Q325,345 287,345 Q275,345 262,342.5 Q249,340 242,338 L234,336 L234,302 Q234,259 250,238 Q266,217 304,217 Q316,217 329,219.5 Q342,222 350,224 M27,304 L27,513 Q27,626 103.5,688 Q180,750 306,750 Q398,750 492,718 L548,699 L519,534 L468,552 Q391,580 322,580 Q234,580 234,514 L234,485 Q279,498 331,498 Q450,498 506.5,438 Q563,378 563,258 L563,49 Q563,-64 487,-126 Q411,-188 285,-188 Q192,-188 98,-156 L42,-137 L71,28 L122,10 Q199,-18 269,-18 Q357,-18 357,48 L357,77 Q312,64 260,64 Q141,64 84,124 Q27,184 27,304"/> 
            <glyph glyph-name="¨" unicode="&#xA8;" horiz-adv-x="500" d=" M273,723 Q273,639 246.5,614 Q220,589 174,589 Q127,589 100.5,614 Q74,639 74,681 Q74,723 100.5,748 Q127,773 174,773 Q220,773 273,723 M500,723 Q500,639 473.5,614 Q447,589 401,589 Q354,589 327.5,614 Q301,639 301,681 Q301,723 327.5,748 Q354,773 401,773 Q447,773 500,723"/> 
            <glyph glyph-name="©" unicode="&#xA9;" horiz-adv-x="857" d=" M857,367 Q857,199 743,87 Q629,-25 466,-25 Q302,-25 188,87 Q74,199 74,367 Q74,536 187.5,646.5 Q301,757 466,757 Q630,757 743.5,647.5 Q857,538 857,367 M728,367 Q728,493 654.5,567 Q581,641 466,641 Q350,641 276,566.5 Q202,492 202,367 Q202,244 276.5,168 Q351,92 466,92 Q580,92 654,168.5 Q728,245 728,367 M421,367 Q421,279 490,279 Q523,279 575,295 L607,306 L622,191 L587,180 Q534,161 470,161 Q380,161 325.5,214.5 Q271,268 271,367 Q271,467 325.5,520.5 Q380,574 470,574 Q533,574 587,556 L622,544 L607,429 L575,440 Q523,456 490,456 Q421,456 421,367"/> 
            <glyph glyph-name="ª" unicode="&#xAA;" horiz-adv-x="522" d=" M332,428 L332,484 L279,484 Q231,484 231,449 Q231,416 271,416 Q291,416 313,423 M158,610 L110,593 L92,708 L142,724 Q226,751 300,751 Q479,751 479,599 L479,427 L522,400 L465,303 L427,324 Q400,338 362,330 L345,326 Q276,311 239,311 Q164,311 121.5,346 Q79,381 79,443 Q79,583 274,583 L331,583 L331,591 Q331,630 280,630 Q221,630 158,610"/> 
            <glyph glyph-name="«" unicode="&#xAB;" horiz-adv-x="591" d=" M20,283 Q20,320 48,351 L166,482 L354,482 L171,283 L354,84 L166,84 L48,213 Q20,244 20,283 M253,283 Q253,320 281,351 L403,482 L591,482 L404,283 L591,84 L403,84 L281,213 Q253,244 253,283"/> 
            <glyph glyph-name="¬" unicode="&#xAC;" horiz-adv-x="550" d=" M550,80 L383,80 L383,265 L40,265 L40,412 L550,412"/> 
            <glyph glyph-name="®" unicode="&#xAE;" horiz-adv-x="857" d=" M857,367 Q857,199 743,87 Q629,-25 466,-25 Q302,-25 188,87 Q74,199 74,367 Q74,536 187.5,646.5 Q301,757 466,757 Q630,757 743.5,647.5 Q857,538 857,367 M728,367 Q728,493 654.5,567 Q581,641 466,641 Q350,641 276,566.5 Q202,492 202,367 Q202,244 276.5,168 Q351,92 466,92 Q580,92 654,168.5 Q728,245 728,367 M292,181 L292,516 Q292,544 307.5,559 Q323,574 352,574 L507,574 Q571,574 608.5,540.5 Q646,507 646,449 Q646,398 608,353 L594,337 L654,181 L517,181 L474,302 L426,302 L426,181 M516,444 Q516,482 479,482 L426,482 L426,393 L491,393 L503,408 Q516,425 516,444"/> 
            <glyph glyph-name="¯" unicode="&#xAF;" horiz-adv-x="465" d=" M465,603 L63,603 L63,744 L465,744"/> 
            <glyph glyph-name="°" unicode="&#xB0;" horiz-adv-x="436" d=" M436,563 Q436,474 382.5,417.5 Q329,361 240,361 Q150,361 97,418 Q44,475 44,563 Q44,650 98,707 Q152,764 242,764 Q331,764 383.5,707.5 Q436,651 436,563 M304,530 Q304,594 287,613.5 Q270,633 240,633 Q211,633 194.5,613.5 Q178,594 178,562 Q178,530 195,510 Q212,490 241,490 Q270,490 304,530"/> 
            <glyph glyph-name="±" unicode="&#xB1;" horiz-adv-x="550" d=" M550,0 L40,0 L40,139 L550,139 M550,290 L377,290 L377,176 L208,176 L208,290 L40,290 L40,436 L208,436 L208,555 L377,555 L377,436 L550,436"/> 
            <glyph glyph-name="´" unicode="&#xB4;" horiz-adv-x="472" d=" M472,763 L281,620 Q240,589 197,589 Q165,589 148,605.5 Q131,622 131,646 Q131,678 158,703 L226,763"/> 
            <glyph glyph-name="µ" unicode="&#xB5;" horiz-adv-x="549" d=" M40,-186 L40,554 L241,554 L241,209 Q241,161 289,161 Q313,161 344,171 L344,554 L549,554 L549,122 Q549,80 529,56.5 Q509,33 467,21 Q386,-3 284,-3 L241,0 L241,-186"/> 
            <glyph glyph-name="¶" unicode="&#xB6;" horiz-adv-x="598" d=" M598,-186 L446,-186 L446,605 L381,605 L381,-186 L223,-186 L223,219 Q125,238 74,308.5 Q23,379 23,478 Q23,594 93,669 Q163,744 295,744 L598,744"/> 
            <glyph glyph-name="·" unicode="&#xB7;" horiz-adv-x="297" d=" M297,406 Q297,316 268.5,289 Q240,262 189,262 Q138,262 109,289 Q80,316 80,361 Q80,406 109,432.5 Q138,459 189,459 Q239,459 297,406"/> 
            <glyph glyph-name="¸" unicode="&#xB8;" horiz-adv-x="365" d=" M365,-112 Q365,-155 335,-178 Q305,-201 250,-201 Q199,-201 142,-176 L165,-106 Q212,-129 251,-129 Q272,-129 272,-114 Q272,-91 193,-95 L181,-76 L222,0 L293,0 L275,-36 Q316,-36 340.5,-55 Q365,-74 365,-112"/> 
            <glyph glyph-name="º" unicode="&#xBA;" horiz-adv-x="516" d=" M516,638 Q516,426 457,368 Q398,310 295,310 Q191,310 133,368 Q75,426 75,532 Q75,637 134.5,695 Q194,753 297,753 Q400,753 516,638 M357,532 Q357,642 295,642 Q236,642 236,532 Q236,420 297,420 Q357,420 357,532"/> 
            <glyph glyph-name="»" unicode="&#xBB;" horiz-adv-x="581" d=" M581,283 Q581,244 553,213 L435,84 L247,84 L430,283 L247,482 L435,482 L553,351 Q581,320 581,283 M348,283 Q348,244 320,213 L198,84 L10,84 L197,283 L10,482 L198,482 L320,351 Q348,320 348,283"/> 
            <glyph glyph-name="¿" unicode="&#xBF;" horiz-adv-x="455" d=" M357,333 L357,264 Q357,227 349,202.5 Q341,178 316,155 L251,92 Q230,70 223,56 Q216,42 216,17 Q216,-26 271,-26 Q309,-26 367,-10 L430,8 L455,-151 L401,-166 Q318,-189 244,-189 Q139,-189 79.5,-138 Q20,-87 20,3 Q20,103 103,180 L162,234 L163,299 M152,474 Q152,516 181,541.5 Q210,567 260,567 Q311,567 340,542 Q369,517 369,474 Q369,431 340,405.5 Q311,380 260,380 Q209,380 180.5,405.5 Q152,431 152,474"/> 
            <glyph glyph-name="À" unicode="&#xC0;" horiz-adv-x="747" d=" M747,0 L496,0 L470,105 L281,105 L254,0 L5,0 L212,644 Q247,753 383,753 Q518,753 551,645 M378,503 L323,279 L430,279 M369,802 L178,945 L424,945 L492,885 Q519,860 519,828 Q519,804 502,787.5 Q485,771 453,771 Q410,771 369,802"/> 
            <glyph glyph-name="Á" unicode="&#xC1;" horiz-adv-x="747" d=" M747,0 L496,0 L470,105 L281,105 L254,0 L5,0 L212,644 Q247,753 383,753 Q518,753 551,645 M378,503 L323,279 L430,279 M580,945 L389,802 Q348,771 305,771 Q273,771 256,787.5 Q239,804 239,828 Q239,860 266,885 L334,945"/> 
            <glyph glyph-name="Â" unicode="&#xC2;" horiz-adv-x="747" d=" M747,0 L496,0 L470,105 L281,105 L254,0 L5,0 L212,644 Q247,753 383,753 Q518,753 551,645 M378,503 L323,279 L430,279 M317,954 Q451,954 489,915 L611,781 L421,781 L384,835 L350,781 L160,781 L280,915"/> 
            <glyph glyph-name="Ã" unicode="&#xC3;" horiz-adv-x="747" d=" M747,0 L496,0 L470,105 L281,105 L254,0 L5,0 L212,644 Q247,753 383,753 Q518,753 551,645 M378,503 L323,279 L430,279 M448,771 Q400,771 360,799 L337,815 Q317,829 298,829 Q265,829 241,773 L150,830 Q199,959 310,959 Q358,959 398,931 L421,915 Q440,902 460,902 Q492,902 517,959 L608,900 Q559,771 448,771"/> 
            <glyph glyph-name="Ä" unicode="&#xC4;" horiz-adv-x="747" d=" M747,0 L496,0 L470,105 L281,105 L254,0 L5,0 L212,644 Q247,753 383,753 Q518,753 551,645 M378,503 L323,279 L430,279 M371,905 Q371,821 344.5,796 Q318,771 272,771 Q225,771 198.5,796 Q172,821 172,863 Q172,905 198.5,930 Q225,955 272,955 Q318,955 371,905 M598,905 Q598,821 571.5,796 Q545,771 499,771 Q452,771 425.5,796 Q399,821 399,863 Q399,905 425.5,930 Q452,955 499,955 Q545,955 598,905"/> 
            <glyph glyph-name="Å" unicode="&#xC5;" horiz-adv-x="747" d=" M747,0 L496,0 L470,105 L281,105 L254,0 L5,0 L249,751 Q240,774 240,801 Q240,861 280.5,898 Q321,935 383,935 Q444,935 485.5,898 Q527,861 527,801 Q527,775 517,750 M378,503 L323,279 L430,279 M405,847 Q361,847 348,833.5 Q335,820 335,801 Q335,780 348.5,767 Q362,754 383,754 Q405,754 418.5,767.5 Q432,781 432,801 Q432,820 405,847"/> 
            <glyph glyph-name="Æ" unicode="&#xC6;" horiz-adv-x="1061" d=" M1061,0 L606,0 Q552,0 521.5,26.5 Q491,53 491,101 L491,105 L291,105 L255,0 L5,0 L263,644 Q304,744 443,744 L1059,744 L1059,567 L741,567 L741,463 L1018,463 L1018,293 L741,293 L741,177 L1061,177 M444,566 L347,279 L491,279 L491,566"/> 
            <glyph glyph-name="Ç" unicode="&#xC7;" horiz-adv-x="673" d=" M646,244 L673,48 L609,28 Q507,-7 393,-7 Q226,-7 128,91.5 Q30,190 30,373 Q30,555 129.5,653 Q229,751 395,751 Q507,751 609,716 L673,696 L646,502 L581,523 Q512,547 430,547 Q289,547 289,373 Q289,199 430,199 Q512,199 581,223 M503,-112 Q503,-155 473,-178 Q443,-201 388,-201 Q337,-201 280,-176 L303,-106 Q350,-129 389,-129 Q410,-129 410,-114 Q410,-91 331,-95 L319,-76 L360,0 L431,0 L413,-36 Q454,-36 478.5,-55 Q503,-74 503,-112"/> 
            <glyph glyph-name="È" unicode="&#xC8;" horiz-adv-x="610" d=" M610,0 L155,0 Q100,0 70,28.5 Q40,57 40,107 L40,637 Q40,687 70,715.5 Q100,744 155,744 L608,744 L608,567 L290,567 L290,463 L567,463 L567,293 L290,293 L290,177 L610,177 M306,802 L115,945 L361,945 L429,885 Q456,860 456,828 Q456,804 439,787.5 Q422,771 390,771 Q347,771 306,802"/> 
            <glyph glyph-name="É" unicode="&#xC9;" horiz-adv-x="610" d=" M610,0 L155,0 Q100,0 70,28.5 Q40,57 40,107 L40,637 Q40,687 70,715.5 Q100,744 155,744 L608,744 L608,567 L290,567 L290,463 L567,463 L567,293 L290,293 L290,177 L610,177 M560,945 L369,802 Q328,771 285,771 Q253,771 236,787.5 Q219,804 219,828 Q219,860 246,885 L314,945"/> 
            <glyph glyph-name="Ê" unicode="&#xCA;" horiz-adv-x="610" d=" M610,0 L155,0 Q100,0 70,28.5 Q40,57 40,107 L40,637 Q40,687 70,715.5 Q100,744 155,744 L608,744 L608,567 L290,567 L290,463 L567,463 L567,293 L290,293 L290,177 L610,177 M265,954 Q399,954 437,915 L559,781 L369,781 L332,835 L298,781 L108,781 L228,915"/> 
            <glyph glyph-name="Ë" unicode="&#xCB;" horiz-adv-x="610" d=" M610,0 L155,0 Q100,0 70,28.5 Q40,57 40,107 L40,637 Q40,687 70,715.5 Q100,744 155,744 L608,744 L608,567 L290,567 L290,463 L567,463 L567,293 L290,293 L290,177 L610,177 M326,905 Q326,821 299.5,796 Q273,771 227,771 Q180,771 153.5,796 Q127,821 127,863 Q127,905 153.5,930 Q180,955 227,955 Q273,955 326,905 M553,905 Q553,821 526.5,796 Q500,771 454,771 Q407,771 380.5,796 Q354,821 354,863 Q354,905 380.5,930 Q407,955 454,955 Q500,955 553,905"/> 
            <glyph glyph-name="Ì" unicode="&#xCC;" horiz-adv-x="301" d=" M294,0 L40,0 L40,744 L294,744 M151,802 L-40,945 L206,945 L274,885 Q301,860 301,828 Q301,804 284,787.5 Q267,771 235,771 Q192,771 151,802"/> 
            <glyph glyph-name="Í" unicode="&#xCD;" horiz-adv-x="386" d=" M294,0 L40,0 L40,744 L294,744 M386,945 L195,802 Q154,771 111,771 Q79,771 62,787.5 Q45,804 45,828 Q45,860 72,885 L140,945"/> 
            <glyph glyph-name="Î" unicode="&#xCE;" horiz-adv-x="392" d=" M294,0 L40,0 L40,744 L294,744 M98,954 Q232,954 270,915 L392,781 L202,781 L165,835 L131,781 L-59,781 L61,915"/> 
            <glyph glyph-name="Ï" unicode="&#xCF;" horiz-adv-x="383" d=" M294,0 L40,0 L40,744 L294,744 M156,905 Q156,821 129.5,796 Q103,771 57,771 Q10,771 -16.5,796 Q-43,821 -43,863 Q-43,905 -16.5,930 Q10,955 57,955 Q103,955 156,905 M383,905 Q383,821 356.5,796 Q330,771 284,771 Q237,771 210.5,796 Q184,821 184,863 Q184,905 210.5,930 Q237,955 284,955 Q330,955 383,905"/> 
            <glyph glyph-name="Ð" unicode="&#xD0;" horiz-adv-x="739" d=" M369,0 L176,0 Q121,0 91,28.5 Q61,57 61,107 L61,317 L10,317 L10,434 L61,434 L61,637 Q61,687 91,715.5 Q121,744 176,744 L371,744 Q542,744 640.5,644.5 Q739,545 739,370 Q739,195 639,97.5 Q539,0 369,0 M493,279 Q493,461 458,511 Q423,561 360,561 L311,561 L311,434 L423,434 L423,317 L311,317 L311,185 L366,185 Q427,185 493,279"/> 
            <glyph glyph-name="Ñ" unicode="&#xD1;" horiz-adv-x="729" d=" M401,613 L515,339 L515,744 L729,744 L729,142 Q729,70 682.5,31.5 Q636,-7 551,-7 Q472,-7 434.5,26.5 Q397,60 368,131 L254,405 L254,0 L40,0 L40,602 Q40,674 86.5,712.5 Q133,751 218,751 Q297,751 334.5,717.5 Q372,684 401,613 M467,771 Q419,771 379,799 L356,815 Q336,829 317,829 Q284,829 260,773 L169,830 Q218,959 329,959 Q377,959 417,931 L440,915 Q459,902 479,902 Q511,902 536,959 L627,900 Q578,771 467,771"/> 
            <glyph glyph-name="Ò" unicode="&#xD2;" horiz-adv-x="789" d=" M789,371 Q789,191 685,92 Q581,-7 407,-7 Q234,-7 132,92.5 Q30,192 30,371 Q30,549 134,649.5 Q238,750 411,750 Q585,750 687,650 Q789,550 789,371 M536,371 Q536,469 503,522.5 Q470,576 407,576 Q345,576 313.5,523 Q282,470 282,371 Q282,272 315,219 Q348,166 411,166 Q472,166 504,219 Q536,272 536,371 M403,802 L212,945 L458,945 L526,885 Q553,860 553,828 Q553,804 536,787.5 Q519,771 487,771 Q444,771 403,802"/> 
            <glyph glyph-name="Ó" unicode="&#xD3;" horiz-adv-x="789" d=" M789,371 Q789,191 685,92 Q581,-7 407,-7 Q234,-7 132,92.5 Q30,192 30,371 Q30,549 134,649.5 Q238,750 411,750 Q585,750 687,650 Q789,550 789,371 M536,371 Q536,469 503,522.5 Q470,576 407,576 Q345,576 313.5,523 Q282,470 282,371 Q282,272 315,219 Q348,166 411,166 Q472,166 504,219 Q536,272 536,371 M632,945 L441,802 Q400,771 357,771 Q325,771 308,787.5 Q291,804 291,828 Q291,860 318,885 L386,945"/> 
            <glyph glyph-name="Ô" unicode="&#xD4;" horiz-adv-x="789" d=" M789,371 Q789,191 685,92 Q581,-7 407,-7 Q234,-7 132,92.5 Q30,192 30,371 Q30,549 134,649.5 Q238,750 411,750 Q585,750 687,650 Q789,550 789,371 M536,371 Q536,469 503,522.5 Q470,576 407,576 Q345,576 313.5,523 Q282,470 282,371 Q282,272 315,219 Q348,166 411,166 Q472,166 504,219 Q536,272 536,371 M347,954 Q481,954 519,915 L641,781 L451,781 L414,835 L380,781 L190,781 L310,915"/> 
            <glyph glyph-name="Õ" unicode="&#xD5;" horiz-adv-x="789" d=" M789,371 Q789,191 685,92 Q581,-7 407,-7 Q234,-7 132,92.5 Q30,192 30,371 Q30,549 134,649.5 Q238,750 411,750 Q585,750 687,650 Q789,550 789,371 M536,371 Q536,469 503,522.5 Q470,576 407,576 Q345,576 313.5,523 Q282,470 282,371 Q282,272 315,219 Q348,166 411,166 Q472,166 504,219 Q536,272 536,371 M491,772 Q443,772 403,800 L380,816 Q360,830 341,830 Q308,830 284,774 L193,831 Q242,960 353,960 Q401,960 441,932 L464,916 Q483,903 503,903 Q535,903 560,960 L651,901 Q602,772 491,772"/> 
            <glyph glyph-name="Ö" unicode="&#xD6;" horiz-adv-x="789" d=" M789,371 Q789,191 685,92 Q581,-7 407,-7 Q234,-7 132,92.5 Q30,192 30,371 Q30,549 134,649.5 Q238,750 411,750 Q585,750 687,650 Q789,550 789,371 M536,371 Q536,469 503,522.5 Q470,576 407,576 Q345,576 313.5,523 Q282,470 282,371 Q282,272 315,219 Q348,166 411,166 Q472,166 504,219 Q536,272 536,371 M398,905 Q398,821 371.5,796 Q345,771 299,771 Q252,771 225.5,796 Q199,821 199,863 Q199,905 225.5,930 Q252,955 299,955 Q345,955 398,905 M625,905 Q625,821 598.5,796 Q572,771 526,771 Q479,771 452.5,796 Q426,821 426,863 Q426,905 452.5,930 Q479,955 526,955 Q572,955 625,905"/> 
            <glyph glyph-name="×" unicode="&#xD7;" horiz-adv-x="553" d=" M412,283 L553,141 L434,22 L292,163 L150,22 L31,141 L172,283 L31,425 L150,544 L292,403 L434,544 L553,425"/> 
            <glyph glyph-name="Ø" unicode="&#xD8;" horiz-adv-x="789" d=" M254,-51 L95,-51 L160,67 Q30,167 30,371 Q30,549 134,649.5 Q238,750 411,750 Q476,750 531,735 L563,792 L720,792 L656,676 Q789,576 789,371 Q789,191 685,92 Q581,-7 407,-7 Q344,-7 286,7 M536,371 Q536,407 529,447 L376,171 Q394,166 411,166 Q472,166 504,219 Q536,272 536,371 M282,371 Q282,330 288,297 L440,571 Q423,576 407,576 Q345,576 313.5,523 Q282,470 282,371"/> 
            <glyph glyph-name="Ù" unicode="&#xD9;" horiz-adv-x="702" d=" M702,281 Q702,141 616,64.5 Q530,-12 367,-12 Q205,-12 120,64 Q35,140 35,281 L35,744 L287,744 L287,282 Q287,191 368,191 Q450,191 450,282 L450,744 L702,744 M324,802 L133,945 L379,945 L447,885 Q474,860 474,828 Q474,804 457,787.5 Q440,771 408,771 Q365,771 324,802"/> 
            <glyph glyph-name="Ú" unicode="&#xDA;" horiz-adv-x="702" d=" M702,281 Q702,141 616,64.5 Q530,-12 367,-12 Q205,-12 120,64 Q35,140 35,281 L35,744 L287,744 L287,282 Q287,191 368,191 Q450,191 450,282 L450,744 L702,744 M611,945 L420,802 Q379,771 336,771 Q304,771 287,787.5 Q270,804 270,828 Q270,860 297,885 L365,945"/> 
            <glyph glyph-name="Û" unicode="&#xDB;" horiz-adv-x="702" d=" M702,281 Q702,141 616,64.5 Q530,-12 367,-12 Q205,-12 120,64 Q35,140 35,281 L35,744 L287,744 L287,282 Q287,191 368,191 Q450,191 450,282 L450,744 L702,744 M299,954 Q433,954 471,915 L593,781 L403,781 L366,835 L332,781 L142,781 L262,915"/> 
            <glyph glyph-name="Ü" unicode="&#xDC;" horiz-adv-x="702" d=" M702,281 Q702,141 616,64.5 Q530,-12 367,-12 Q205,-12 120,64 Q35,140 35,281 L35,744 L287,744 L287,282 Q287,191 368,191 Q450,191 450,282 L450,744 L702,744 M356,905 Q356,821 329.5,796 Q303,771 257,771 Q210,771 183.5,796 Q157,821 157,863 Q157,905 183.5,930 Q210,955 257,955 Q303,955 356,905 M583,905 Q583,821 556.5,796 Q530,771 484,771 Q437,771 410.5,796 Q384,821 384,863 Q384,905 410.5,930 Q437,955 484,955 Q530,955 583,905"/> 
            <glyph glyph-name="Ý" unicode="&#xDD;" horiz-adv-x="771" d=" M263,294 L5,744 L275,744 L392,505 L503,744 L771,744 L514,295 L514,0 L263,0 M627,945 L436,802 Q395,771 352,771 Q320,771 303,787.5 Q286,804 286,828 Q286,860 313,885 L381,945"/> 
            <glyph glyph-name="Þ" unicode="&#xDE;" horiz-adv-x="654" d=" M40,0 L40,744 L286,744 L286,634 L389,634 Q512,634 583,566.5 Q654,499 654,383 Q654,266 580.5,198.5 Q507,131 380,131 L286,131 L286,0 M428,383 Q428,418 408.5,438.5 Q389,459 356,459 L286,459 L286,307 L354,307 Q388,307 408,327 Q428,347 428,383"/> 
            <glyph glyph-name="ß" unicode="&#xDF;" horiz-adv-x="567" d=" M40,0 L40,561 Q40,672 106,726.5 Q172,781 280,781 Q390,781 455,728.5 Q520,676 520,580 Q520,503 480,440 L456,402 L495,363 Q567,291 567,199 Q567,106 505.5,53 Q444,0 333,0 L278,0 L278,158 L321,158 Q345,158 359.5,174 Q374,190 374,215 Q374,247 348,278 L301,335 Q262,381 291,447 L313,500 Q326,529 326,572 Q326,598 314.5,612.5 Q303,627 283,627 Q242,627 242,567 L242,0"/> 
            <glyph glyph-name="à" unicode="&#xE0;" horiz-adv-x="601" d=" M357,145 L357,218 L288,218 Q226,218 226,171 Q226,129 277,129 Q302,129 332,138 M132,378 L69,357 L47,506 L110,526 Q221,561 315,561 Q546,561 546,366 L546,143 L601,109 L528,-16 L478,10 Q444,28 395,18 L372,13 Q285,-6 236,-6 Q140,-6 85,39.5 Q30,85 30,165 Q30,344 281,344 L355,344 L355,355 Q355,405 289,405 Q212,405 132,378 M301,620 L110,763 L356,763 L424,703 Q451,678 451,646 Q451,622 434,605.5 Q417,589 385,589 Q342,589 301,620"/> 
            <glyph glyph-name="á" unicode="&#xE1;" horiz-adv-x="601" d=" M357,145 L357,218 L288,218 Q226,218 226,171 Q226,129 277,129 Q302,129 332,138 M132,378 L69,357 L47,506 L110,526 Q221,561 315,561 Q546,561 546,366 L546,143 L601,109 L528,-16 L478,10 Q444,28 395,18 L372,13 Q285,-6 236,-6 Q140,-6 85,39.5 Q30,85 30,165 Q30,344 281,344 L355,344 L355,355 Q355,405 289,405 Q212,405 132,378 M541,763 L350,620 Q309,589 266,589 Q234,589 217,605.5 Q200,622 200,646 Q200,678 227,703 L295,763"/> 
            <glyph glyph-name="â" unicode="&#xE2;" horiz-adv-x="601" d=" M357,145 L357,218 L288,218 Q226,218 226,171 Q226,129 277,129 Q302,129 332,138 M132,378 L69,357 L47,506 L110,526 Q221,561 315,561 Q546,561 546,366 L546,143 L601,109 L528,-16 L478,10 Q444,28 395,18 L372,13 Q285,-6 236,-6 Q140,-6 85,39.5 Q30,85 30,165 Q30,344 281,344 L355,344 L355,355 Q355,405 289,405 Q212,405 132,378 M241,766 Q375,766 413,727 L535,593 L345,593 L308,647 L274,593 L84,593 L204,727"/> 
            <glyph glyph-name="ã" unicode="&#xE3;" horiz-adv-x="601" d=" M357,145 L357,218 L288,218 Q226,218 226,171 Q226,129 277,129 Q302,129 332,138 M132,378 L69,357 L47,506 L110,526 Q221,561 315,561 Q546,561 546,366 L546,143 L601,109 L528,-16 L478,10 Q444,28 395,18 L372,13 Q285,-6 236,-6 Q140,-6 85,39.5 Q30,85 30,165 Q30,344 281,344 L355,344 L355,355 Q355,405 289,405 Q212,405 132,378 M380,585 Q332,585 292,613 L269,629 Q249,643 230,643 Q197,643 173,587 L82,644 Q131,773 242,773 Q290,773 330,745 L353,729 Q372,716 392,716 Q424,716 449,773 L540,714 Q491,585 380,585"/> 
            <glyph glyph-name="ä" unicode="&#xE4;" horiz-adv-x="601" d=" M357,145 L357,218 L288,218 Q226,218 226,171 Q226,129 277,129 Q302,129 332,138 M132,378 L69,357 L47,506 L110,526 Q221,561 315,561 Q546,561 546,366 L546,143 L601,109 L528,-16 L478,10 Q444,28 395,18 L372,13 Q285,-6 236,-6 Q140,-6 85,39.5 Q30,85 30,165 Q30,344 281,344 L355,344 L355,355 Q355,405 289,405 Q212,405 132,378 M295,723 Q295,639 268.5,614 Q242,589 196,589 Q149,589 122.5,614 Q96,639 96,681 Q96,723 122.5,748 Q149,773 196,773 Q242,773 295,723 M522,723 Q522,639 495.5,614 Q469,589 423,589 Q376,589 349.5,614 Q323,639 323,681 Q323,723 349.5,748 Q376,773 423,773 Q469,773 522,723"/> 
            <glyph glyph-name="å" unicode="&#xE5;" horiz-adv-x="601" d=" M357,145 L357,218 L288,218 Q226,218 226,171 Q226,129 277,129 Q302,129 332,138 M132,378 L69,357 L47,506 L110,526 Q221,561 315,561 Q546,561 546,366 L546,143 L601,109 L528,-16 L478,10 Q444,28 395,18 L372,13 Q285,-6 236,-6 Q140,-6 85,39.5 Q30,85 30,165 Q30,344 281,344 L355,344 L355,355 Q355,405 289,405 Q212,405 132,378 M373,583 Q253,583 211.5,621.5 Q170,660 170,718 Q170,778 210.5,815 Q251,852 313,852 Q374,852 415.5,815 Q457,778 457,718 Q457,660 373,583 M335,764 Q291,764 278,750.5 Q265,737 265,718 Q265,698 278.5,684.5 Q292,671 313,671 Q335,671 348.5,684.5 Q362,698 362,718 Q362,737 335,764"/> 
            <glyph glyph-name="æ" unicode="&#xE6;" horiz-adv-x="884" d=" M315,561 Q416,561 470,517 Q537,561 625,561 Q748,561 816,493.5 Q884,426 884,290 Q884,252 866.5,235.5 Q849,219 810,219 L547,219 Q560,147 656,147 Q732,147 804,169 L856,185 L877,43 L824,26 Q722,-6 639,-6 Q557,-6 501,20 Q467,35 437,28 L372,13 Q285,-6 236,-6 Q140,-6 85,39.5 Q30,85 30,165 Q30,344 281,344 L355,344 L355,355 Q355,405 289,405 Q212,405 132,378 L69,357 L47,506 L110,526 Q221,561 315,561 M332,136 L378,146 Q365,178 359,218 L288,218 Q226,218 226,171 Q226,129 277,129 Q304,129 332,136 M691,342 Q691,378 673,401 Q655,424 618,424 Q586,424 567.5,402.5 Q549,381 546,342"/> 
            <glyph glyph-name="ç" unicode="&#xE7;" horiz-adv-x="511" d=" M235,277 Q235,155 329,155 Q379,155 446,178 L490,192 L511,34 L463,19 Q387,-7 303,-7 Q179,-7 104.5,67 Q30,141 30,277 Q30,413 104.5,486.5 Q179,560 303,560 Q387,560 463,534 L511,519 L490,361 L446,375 Q379,398 329,398 Q235,398 235,277 M401,-112 Q401,-155 371,-178 Q341,-201 286,-201 Q235,-201 178,-176 L201,-106 Q248,-129 287,-129 Q308,-129 308,-114 Q308,-91 229,-95 L217,-76 L258,0 L329,0 L311,-36 Q352,-36 376.5,-55 Q401,-74 401,-112"/> 
            <glyph glyph-name="è" unicode="&#xE8;" horiz-adv-x="561" d=" M30,276 Q30,415 107,488 Q184,561 302,561 Q425,561 493,493.5 Q561,426 561,290 Q561,252 543.5,235.5 Q526,219 487,219 L224,219 Q237,147 333,147 Q409,147 481,169 L533,185 L554,43 L501,26 Q399,-6 316,-6 Q182,-6 106,66.5 Q30,139 30,276 M368,342 Q368,378 350,401 Q332,424 295,424 Q263,424 244.5,402.5 Q226,381 223,342 M270,620 L79,763 L325,763 L393,703 Q420,678 420,646 Q420,622 403,605.5 Q386,589 354,589 Q311,589 270,620"/> 
            <glyph glyph-name="é" unicode="&#xE9;" horiz-adv-x="561" d=" M30,276 Q30,415 107,488 Q184,561 302,561 Q425,561 493,493.5 Q561,426 561,290 Q561,252 543.5,235.5 Q526,219 487,219 L224,219 Q237,147 333,147 Q409,147 481,169 L533,185 L554,43 L501,26 Q399,-6 316,-6 Q182,-6 106,66.5 Q30,139 30,276 M368,342 Q368,378 350,401 Q332,424 295,424 Q263,424 244.5,402.5 Q226,381 223,342 M529,763 L338,620 Q297,589 254,589 Q222,589 205,605.5 Q188,622 188,646 Q188,678 215,703 L283,763"/> 
            <glyph glyph-name="ê" unicode="&#xEA;" horiz-adv-x="561" d=" M30,276 Q30,415 107,488 Q184,561 302,561 Q425,561 493,493.5 Q561,426 561,290 Q561,252 543.5,235.5 Q526,219 487,219 L224,219 Q237,147 333,147 Q409,147 481,169 L533,185 L554,43 L501,26 Q399,-6 316,-6 Q182,-6 106,66.5 Q30,139 30,276 M368,342 Q368,378 350,401 Q332,424 295,424 Q263,424 244.5,402.5 Q226,381 223,342 M234,766 Q368,766 406,727 L528,593 L338,593 L301,647 L267,593 L77,593 L197,727"/> 
            <glyph glyph-name="ë" unicode="&#xEB;" horiz-adv-x="561" d=" M30,276 Q30,415 107,488 Q184,561 302,561 Q425,561 493,493.5 Q561,426 561,290 Q561,252 543.5,235.5 Q526,219 487,219 L224,219 Q237,147 333,147 Q409,147 481,169 L533,185 L554,43 L501,26 Q399,-6 316,-6 Q182,-6 106,66.5 Q30,139 30,276 M368,342 Q368,378 350,401 Q332,424 295,424 Q263,424 244.5,402.5 Q226,381 223,342 M290,723 Q290,639 263.5,614 Q237,589 191,589 Q144,589 117.5,614 Q91,639 91,681 Q91,723 117.5,748 Q144,773 191,773 Q237,773 290,723 M517,723 Q517,639 490.5,614 Q464,589 418,589 Q371,589 344.5,614 Q318,639 318,681 Q318,723 344.5,748 Q371,773 418,773 Q464,773 517,723"/> 
            <glyph glyph-name="ì" unicode="&#xEC;" horiz-adv-x="271" d=" M237,0 L39,0 L39,554 L237,554 M121,620 L-70,763 L176,763 L244,703 Q271,678 271,646 Q271,622 254,605.5 Q237,589 205,589 Q162,589 121,620"/> 
            <glyph glyph-name="í" unicode="&#xED;" horiz-adv-x="338" d=" M237,0 L39,0 L39,554 L237,554 M338,763 L147,620 Q106,589 63,589 Q31,589 14,605.5 Q-3,622 -3,646 Q-3,678 24,703 L92,763"/> 
            <glyph glyph-name="î" unicode="&#xEE;" horiz-adv-x="368" d=" M237,0 L39,0 L39,554 L237,554 M74,766 Q208,766 246,727 L368,593 L178,593 L141,647 L107,593 L-83,593 L37,727"/> 
            <glyph glyph-name="ï" unicode="&#xEF;" horiz-adv-x="353" d=" M237,0 L39,0 L39,554 L237,554 M126,723 Q126,639 99.5,614 Q73,589 27,589 Q-20,589 -46.5,614 Q-73,639 -73,681 Q-73,723 -46.5,748 Q-20,773 27,773 Q73,773 126,723 M353,723 Q353,639 326.5,614 Q300,589 254,589 Q207,589 180.5,614 Q154,639 154,681 Q154,723 180.5,748 Q207,773 254,773 Q300,773 353,723"/> 
            <glyph glyph-name="ð" unicode="&#xF0;" horiz-adv-x="596" d=" M596,684 L539,658 Q584,591 584,497 L584,249 Q584,132 511,63.5 Q438,-5 304,-5 Q173,-5 101.5,66.5 Q30,138 30,260 Q30,375 92.5,441.5 Q155,508 263,508 Q295,508 324,503 Q353,498 366,493 L379,488 L379,518 Q379,552 368,580 L235,519 L235,609 L310,643 Q281,656 244,656 L191,656 L191,763 L297,763 Q405,763 475,719 L596,774 M313,366 Q236,366 236,257 Q236,139 308,139 Q344,139 361,166 Q378,193 378,252 L378,356 Q345,366 313,366"/> 
            <glyph glyph-name="ñ" unicode="&#xF1;" horiz-adv-x="549" d=" M549,363 L549,0 L348,0 L348,345 Q348,393 300,393 Q276,393 245,383 L245,0 L40,0 L40,432 Q40,474 60,497.5 Q80,521 122,533 Q214,560 305,560 Q430,560 489.5,508 Q549,456 549,363 M364,585 Q316,585 276,613 L253,629 Q233,643 214,643 Q181,643 157,587 L66,644 Q115,773 226,773 Q274,773 314,745 L337,729 Q356,716 376,716 Q408,716 433,773 L524,714 Q475,585 364,585"/> 
            <glyph glyph-name="ò" unicode="&#xF2;" horiz-adv-x="594" d=" M594,277 Q594,143 518.5,68.5 Q443,-6 311,-6 Q178,-6 104,68 Q30,142 30,277 Q30,411 106,485.5 Q182,560 314,560 Q446,560 520,486 Q594,412 594,277 M391,135 Q391,419 311,419 Q235,419 235,277 Q235,135 314,135 M303,620 L112,763 L358,763 L426,703 Q453,678 453,646 Q453,622 436,605.5 Q419,589 387,589 Q344,589 303,620"/> 
            <glyph glyph-name="ó" unicode="&#xF3;" horiz-adv-x="594" d=" M594,277 Q594,143 518.5,68.5 Q443,-6 311,-6 Q178,-6 104,68 Q30,142 30,277 Q30,411 106,485.5 Q182,560 314,560 Q446,560 520,486 Q594,412 594,277 M391,135 Q391,419 311,419 Q235,419 235,277 Q235,135 314,135 M527,763 L336,620 Q295,589 252,589 Q220,589 203,605.5 Q186,622 186,646 Q186,678 213,703 L281,763"/> 
            <glyph glyph-name="ô" unicode="&#xF4;" horiz-adv-x="594" d=" M594,277 Q594,143 518.5,68.5 Q443,-6 311,-6 Q178,-6 104,68 Q30,142 30,277 Q30,411 106,485.5 Q182,560 314,560 Q446,560 520,486 Q594,412 594,277 M391,135 Q391,419 311,419 Q235,419 235,277 Q235,135 314,135 M244,766 Q378,766 416,727 L538,593 L348,593 L311,647 L277,593 L87,593 L207,727"/> 
            <glyph glyph-name="õ" unicode="&#xF5;" horiz-adv-x="594" d=" M594,277 Q594,143 518.5,68.5 Q443,-6 311,-6 Q178,-6 104,68 Q30,142 30,277 Q30,411 106,485.5 Q182,560 314,560 Q446,560 520,486 Q594,412 594,277 M391,135 Q391,419 311,419 Q235,419 235,277 Q235,135 314,135 M391,585 Q343,585 303,613 L280,629 Q260,643 241,643 Q208,643 184,587 L93,644 Q142,773 253,773 Q301,773 341,745 L364,729 Q383,716 403,716 Q435,716 460,773 L551,714 Q502,585 391,585"/> 
            <glyph glyph-name="ö" unicode="&#xF6;" horiz-adv-x="594" d=" M594,277 Q594,143 518.5,68.5 Q443,-6 311,-6 Q178,-6 104,68 Q30,142 30,277 Q30,411 106,485.5 Q182,560 314,560 Q446,560 520,486 Q594,412 594,277 M391,135 Q391,419 311,419 Q235,419 235,277 Q235,135 314,135 M301,723 Q301,639 274.5,614 Q248,589 202,589 Q155,589 128.5,614 Q102,639 102,681 Q102,723 128.5,748 Q155,773 202,773 Q248,773 301,723 M528,723 Q528,639 501.5,614 Q475,589 429,589 Q382,589 355.5,614 Q329,639 329,681 Q329,723 355.5,748 Q382,773 429,773 Q475,773 528,723"/> 
            <glyph glyph-name="÷" unicode="&#xF7;" horiz-adv-x="550" d=" M402,483 Q402,442 373.5,418 Q345,394 294,394 Q244,394 215,418 Q186,442 186,483 Q186,523 215,548 Q244,573 294,573 Q344,573 373,548 Q402,523 402,483 M402,143 Q402,61 373.5,37 Q345,13 294,13 Q244,13 215,37 Q186,61 186,102 Q186,143 215,167 Q244,191 294,191 Q345,191 402,143 M550,220 L40,220 L40,366 L550,366"/> 
            <glyph glyph-name="ø" unicode="&#xF8;" horiz-adv-x="594" d=" M198,-51 L59,-51 L118,55 Q30,129 30,277 Q30,411 106,485.5 Q182,560 314,560 Q358,560 396,551 L423,599 L560,599 L504,500 Q594,426 594,277 Q594,143 518.5,68.5 Q443,-6 311,-6 Q266,-6 228,3 M401,277 Q401,289 399,311 L302,136 Q306,135 314,135 Q401,135 401,277 M225,277 Q225,256 226,247 L321,418 L311,419 Q225,419 225,277"/> 
            <glyph glyph-name="ù" unicode="&#xF9;" horiz-adv-x="549" d=" M40,191 L40,554 L241,554 L241,209 Q241,161 289,161 Q313,161 344,171 L344,554 L549,554 L549,122 Q549,80 529,56.5 Q509,33 467,21 Q376,-6 284,-6 Q159,-6 99.5,46 Q40,98 40,191 M268,620 L77,763 L323,763 L391,703 Q418,678 418,646 Q418,622 401,605.5 Q384,589 352,589 Q309,589 268,620"/> 
            <glyph glyph-name="ú" unicode="&#xFA;" horiz-adv-x="549" d=" M40,191 L40,554 L241,554 L241,209 Q241,161 289,161 Q313,161 344,171 L344,554 L549,554 L549,122 Q549,80 529,56.5 Q509,33 467,21 Q376,-6 284,-6 Q159,-6 99.5,46 Q40,98 40,191 M509,763 L318,620 Q277,589 234,589 Q202,589 185,605.5 Q168,622 168,646 Q168,678 195,703 L263,763"/> 
            <glyph glyph-name="û" unicode="&#xFB;" horiz-adv-x="549" d=" M40,191 L40,554 L241,554 L241,209 Q241,161 289,161 Q313,161 344,171 L344,554 L549,554 L549,122 Q549,80 529,56.5 Q509,33 467,21 Q376,-6 284,-6 Q159,-6 99.5,46 Q40,98 40,191 M224,766 Q358,766 396,727 L518,593 L328,593 L291,647 L257,593 L67,593 L187,727"/> 
            <glyph glyph-name="ü" unicode="&#xFC;" horiz-adv-x="549" d=" M40,191 L40,554 L241,554 L241,209 Q241,161 289,161 Q313,161 344,171 L344,554 L549,554 L549,122 Q549,80 529,56.5 Q509,33 467,21 Q376,-6 284,-6 Q159,-6 99.5,46 Q40,98 40,191 M281,723 Q281,639 254.5,614 Q228,589 182,589 Q135,589 108.5,614 Q82,639 82,681 Q82,723 108.5,748 Q135,773 182,773 Q228,773 281,723 M508,723 Q508,639 481.5,614 Q455,589 409,589 Q362,589 335.5,614 Q309,639 309,681 Q309,723 335.5,748 Q362,773 409,773 Q455,773 508,723"/> 
            <glyph glyph-name="ý" unicode="&#xFD;" horiz-adv-x="598" d=" M598,554 L407,-24 Q356,-183 189,-183 Q122,-183 41,-157 L65,-17 Q119,-35 159,-35 Q208,-35 218,7 L221,19 L10,554 L232,554 L316,249 L390,554 M555,763 L364,620 Q323,589 280,589 Q248,589 231,605.5 Q214,622 214,646 Q214,678 241,703 L309,763"/> 
            <glyph glyph-name="þ" unicode="&#xFE;" horiz-adv-x="574" d=" M376,212 Q376,344 357,372.5 Q338,401 295,401 Q272,401 242,391 L242,163 Q272,153 295,153 Q337,153 376,212 M40,743 L242,778 L242,543 Q291,557 332,557 Q458,557 516,487 Q574,417 574,280 Q574,144 512,70.5 Q450,-3 326,-3 Q308,-3 287,0.5 Q266,4 254,8 L242,11 L242,-151 L40,-186"/> 
            <glyph glyph-name="ÿ" unicode="&#xFF;" horiz-adv-x="598" d=" M598,554 L407,-24 Q356,-183 189,-183 Q122,-183 41,-157 L65,-17 Q119,-35 159,-35 Q208,-35 218,7 L221,19 L10,554 L232,554 L316,249 L390,554 M306,723 Q306,639 279.5,614 Q253,589 207,589 Q160,589 133.5,614 Q107,639 107,681 Q107,723 133.5,748 Q160,773 207,773 Q253,773 306,723 M533,723 Q533,639 506.5,614 Q480,589 434,589 Q387,589 360.5,614 Q334,639 334,681 Q334,723 360.5,748 Q387,773 434,773 Q480,773 533,723"/> 
            <glyph glyph-name="ı" unicode="&#x131;" horiz-adv-x="237" d=" M237,0 L39,0 L39,554 L237,554"/> 
            <glyph glyph-name="Ł" unicode="&#x141;" horiz-adv-x="609" d=" M60,744 L313,744 L313,522 L463,575 L463,445 L313,392 L313,197 L609,197 L609,0 L175,0 Q120,0 90,28.5 Q60,57 60,107 L60,305 L10,288 L10,418 L60,435"/> 
            <glyph glyph-name="ł" unicode="&#x142;" horiz-adv-x="319" d=" M267,778 L267,550 L319,575 L319,440 L267,415 L267,0 L60,0 L60,317 L10,293 L10,428 L60,452 L60,743"/> 
            <glyph glyph-name="Œ" unicode="&#x152;" horiz-adv-x="1028" d=" M1028,0 L400,0 Q230,0 130,97.5 Q30,195 30,370 Q30,545 128.5,644.5 Q227,744 398,744 L1026,744 L1026,567 L708,567 L708,463 L985,463 L985,293 L708,293 L708,177 L1028,177 M276,461 Q276,279 309,232 Q342,185 403,185 L458,185 L458,561 L409,561 Q346,561 276,461"/> 
            <glyph glyph-name="œ" unicode="&#x153;" horiz-adv-x="923" d=" M314,560 Q425,560 493,506 Q561,561 664,561 Q787,561 855,493.5 Q923,426 923,290 Q923,252 905.5,235.5 Q888,219 849,219 L586,219 Q599,147 695,147 Q771,147 843,169 L895,185 L916,43 L863,26 Q761,-6 678,-6 Q560,-6 492,49 Q423,-6 311,-6 Q178,-6 104,68 Q30,142 30,277 Q30,411 106,485.5 Q182,560 314,560 M391,135 Q391,419 311,419 Q235,419 235,277 Q235,135 314,135 M730,342 Q730,378 712,401 Q694,424 657,424 Q625,424 606.5,402.5 Q588,381 585,342"/> 
            <glyph glyph-name="Š" unicode="&#x160;" horiz-adv-x="639" d=" M316,472 L431,450 Q536,430 587,379.5 Q638,329 638,236 Q638,117 558,54 Q478,-9 346,-9 Q212,-9 106,25 L30,50 L65,251 L140,224 Q256,182 345,182 Q405,182 405,225 Q405,259 354,269 L238,291 Q134,312 82.5,363 Q31,414 31,508 Q31,628 109,689 Q187,750 323,750 Q451,750 564,715 L639,691 L602,487 L527,516 Q416,559 325,559 Q265,559 265,516 Q265,481 316,472 M415,771 Q275,771 240,810 L118,944 L308,944 L345,890 L379,944 L569,944 L449,810"/> 
            <glyph glyph-name="š" unicode="&#x161;" horiz-adv-x="522" d=" M263,353 L356,339 Q440,327 480.5,288.5 Q521,250 521,179 Q521,90 457.5,42 Q394,-6 287,-6 Q182,-6 91,23 L30,42 L56,194 L118,172 Q219,137 282,137 Q330,137 330,169 Q330,197 289,201 L196,215 Q113,227 72,266.5 Q31,306 31,377 Q31,466 94.5,513 Q158,560 265,560 Q370,560 461,531 L522,512 L496,360 L434,382 Q333,417 270,417 Q222,417 222,385 Q222,357 263,353 M359,592 Q219,592 184,631 L62,765 L252,765 L289,711 L323,765 L513,765 L393,631"/> 
            <glyph glyph-name="Ÿ" unicode="&#x178;" horiz-adv-x="771" d=" M263,294 L5,744 L275,744 L392,505 L503,744 L771,744 L514,295 L514,0 L263,0 M382,905 Q382,821 355.5,796 Q329,771 283,771 Q236,771 209.5,796 Q183,821 183,863 Q183,905 209.5,930 Q236,955 283,955 Q329,955 382,905 M609,905 Q609,821 582.5,796 Q556,771 510,771 Q463,771 436.5,796 Q410,821 410,863 Q410,905 436.5,930 Q463,955 510,955 Q556,955 609,905"/> 
            <glyph glyph-name="Ž" unicode="&#x17D;" horiz-adv-x="659" d=" M346,565 L50,565 L50,744 L553,744 Q606,744 632.5,714.5 Q659,685 659,636 Q659,586 622,539 L341,179 L651,179 L651,0 L131,0 Q79,0 52,29.5 Q25,59 25,108 Q25,158 62,205 M425,771 Q285,771 250,810 L128,944 L318,944 L355,890 L389,944 L579,944 L459,810"/> 
            <glyph glyph-name="ž" unicode="&#x17E;" horiz-adv-x="537" d=" M271,410 L40,410 L40,554 L446,554 Q491,554 514,528.5 Q537,503 537,461 Q537,416 505,378 L298,144 L532,144 L532,0 L121,0 Q76,0 53,25.5 Q30,51 30,93 Q30,141 62,176 M360,592 Q220,592 185,631 L63,765 L253,765 L290,711 L324,765 L514,765 L394,631"/> 
            <glyph glyph-name="ƒ" unicode="&#x192;" horiz-adv-x="537" d=" M167,14 L167,410 L99,410 L99,554 L167,554 L167,578 Q167,671 223,718 Q279,765 381,765 Q453,765 537,738 L515,597 Q462,614 426,614 Q391,614 377.5,603 Q364,592 364,561 L364,554 L510,554 L510,410 L364,410 L364,11 Q364,-181 108,-181 L108,-41 Q140,-40 153.5,-27 Q167,-14 167,14"/> 
            <glyph glyph-name="ˆ" unicode="&#x2C6;" horiz-adv-x="508" d=" M214,766 Q348,766 386,727 L508,593 L318,593 L281,647 L247,593 L57,593 L177,727"/> 
            <glyph glyph-name="ˇ" unicode="&#x2C7;" horiz-adv-x="506" d=" M352,592 Q212,592 177,631 L55,765 L245,765 L282,711 L316,765 L506,765 L386,631"/> 
            <glyph glyph-name="˘" unicode="&#x2D8;" horiz-adv-x="466" d=" M44,763 L213,763 Q213,733 224,716 Q235,699 255,699 Q275,699 286.5,716 Q298,733 298,763 L466,763 Q466,684 406,636.5 Q346,589 255,589 Q164,589 104,636.5 Q44,684 44,763"/> 
            <glyph glyph-name="˙" unicode="&#x2D9;" horiz-adv-x="374" d=" M374,680 Q374,637 345.5,611.5 Q317,586 266,586 Q215,586 186,611.5 Q157,637 157,680 Q157,723 186,748 Q215,773 266,773 Q316,773 345,747.5 Q374,722 374,680"/> 
            <glyph glyph-name="˚" unicode="&#x2DA;" horiz-adv-x="422" d=" M338,583 Q218,583 176.5,621.5 Q135,660 135,718 Q135,778 175.5,815 Q216,852 278,852 Q339,852 380.5,815 Q422,778 422,718 Q422,660 338,583 M300,764 Q256,764 243,750.5 Q230,737 230,718 Q230,698 243,684.5 Q256,671 278,671 Q300,671 313.5,684.5 Q327,698 327,718 Q327,737 300,764"/> 
            <glyph glyph-name="˛" unicode="&#x2DB;" horiz-adv-x="395" d=" M374,-59 L395,-144 Q327,-171 258,-171 Q203,-171 168.5,-150 Q134,-129 134,-88 Q134,-58 150.5,-34.5 Q167,-11 191,0 L277,11 L282,0 Q240,-25 240,-55 Q240,-82 274,-82 Q320,-82 374,-59"/> 
            <glyph glyph-name="˜" unicode="&#x2DC;" horiz-adv-x="494" d=" M334,585 Q286,585 246,613 L223,629 Q203,643 184,643 Q151,643 127,587 L36,644 Q85,773 196,773 Q244,773 284,745 L307,729 Q326,716 346,716 Q378,716 403,773 L494,714 Q445,585 334,585"/> 
            <glyph glyph-name="˝" unicode="&#x2DD;" horiz-adv-x="527" d=" M293,763 L165,625 Q132,589 82,589 Q53,589 36.5,605.5 Q20,622 20,646 Q20,673 38,694 L104,763 M527,763 L399,625 Q366,589 317,589 Q287,589 270.5,605.5 Q254,622 254,646 Q254,674 273,694 L335,763"/> 
            <glyph glyph-name="π" unicode="&#x3C0;" horiz-adv-x="712" d=" M21,554 L692,554 L692,410 L543,410 L543,203 Q543,171 557,158 Q571,145 605,145 Q640,145 690,161 L712,20 Q631,-6 560,-6 Q459,-6 402.5,43.5 Q346,93 346,186 L346,410 L284,410 L284,0 L86,0 L86,410 L21,410"/> 
            <glyph glyph-name="–" unicode="&#x2013;" horiz-adv-x="560" d=" M560,250 L30,250 L30,397 L560,397"/> 
            <glyph glyph-name="—" unicode="&#x2014;" horiz-adv-x="940" d=" M940,250 L60,250 L60,396 L940,396"/> 
            <glyph glyph-name="‘" unicode="&#x2018;" horiz-adv-x="267" d=" M17,496 L77,700 Q95,762 172,762 Q224,762 245.5,734.5 Q267,707 257,666 L219,496"/> 
            <glyph glyph-name="’" unicode="&#x2019;" horiz-adv-x="260" d=" M260,762 L200,558 Q182,496 105,496 Q53,496 31.5,523.5 Q10,551 20,592 L58,762"/> 
            <glyph glyph-name="‚" unicode="&#x201A;" horiz-adv-x="260" d=" M260,175 L200,-29 Q182,-91 105,-91 Q53,-91 31.5,-63.5 Q10,-36 20,5 L58,175"/> 
            <glyph glyph-name="“" unicode="&#x201C;" horiz-adv-x="454" d=" M6,496 L66,700 Q84,762 151,762 Q202,762 219.5,735.5 Q237,709 226,666 L188,496 M223,496 L283,700 Q292,731 311,746.5 Q330,762 368,762 Q419,762 436.5,735.5 Q454,709 443,666 L405,496"/> 
            <glyph glyph-name="”" unicode="&#x201D;" horiz-adv-x="456" d=" M456,762 L396,558 Q378,496 311,496 Q260,496 242.5,522.5 Q225,549 236,592 L274,762 M239,762 L179,558 Q170,527 151,511.5 Q132,496 94,496 Q43,496 25.5,522.5 Q8,549 19,592 L57,762"/> 
            <glyph glyph-name="„" unicode="&#x201E;" horiz-adv-x="456" d=" M456,175 L396,-29 Q378,-91 311,-91 Q260,-91 242.5,-64.5 Q225,-38 236,5 L274,175 M239,175 L179,-29 Q170,-60 151,-75.5 Q132,-91 94,-91 Q43,-91 25.5,-64.5 Q8,-38 19,5 L57,175"/> 
            <glyph glyph-name="†" unicode="&#x2020;" horiz-adv-x="558" d=" M558,358 L382,374 L398,-186 L191,-186 L208,375 L30,358 L30,558 L205,544 L189,744 L401,744 L387,544 L558,557"/> 
            <glyph glyph-name="‡" unicode="&#x2021;" horiz-adv-x="558" d=" M208,183 L188,280 L208,375 L30,358 L30,558 L205,544 L189,744 L401,744 L387,544 L558,557 L558,358 L382,374 L404,280 L382,184 L558,200 L558,1 L387,14 L401,-186 L189,-186 L205,14 L30,0 L30,200"/> 
            <glyph glyph-name="•" unicode="&#x2022;" horiz-adv-x="415" d=" M415,419 Q415,241 367.5,191.5 Q320,142 237,142 Q155,142 107.5,191.5 Q60,241 60,330 Q60,419 107.5,468.5 Q155,518 237,518 Q320,518 415,419"/> 
            <glyph glyph-name="…" unicode="&#x2026;" horiz-adv-x="801" d=" M247,134 Q247,44 218.5,17 Q190,-10 139,-10 Q88,-10 59,17 Q30,44 30,89 Q30,134 59,160.5 Q88,187 139,187 Q189,187 247,134 M524,134 Q524,44 495.5,17 Q467,-10 416,-10 Q365,-10 336,17 Q307,44 307,89 Q307,134 336,160.5 Q365,187 416,187 Q466,187 524,134 M801,134 Q801,44 772.5,17 Q744,-10 693,-10 Q642,-10 613,17 Q584,44 584,89 Q584,134 613,160.5 Q642,187 693,187 Q743,187 801,134"/> 
            <glyph glyph-name="‰" unicode="&#x2030;" horiz-adv-x="1314" d=" M423,657 Q423,475 370,422.5 Q317,370 226,370 Q134,370 82,422.5 Q30,475 30,566 Q30,656 83,708 Q136,760 227,760 Q319,760 423,657 M259,566 Q259,635 226,635 Q195,635 195,566 Q195,496 227,496 Q259,496 259,566 M816,744 L303,0 L109,0 L623,744 M900,272 Q900,90 847,37.5 Q794,-15 703,-15 Q611,-15 559,37.5 Q507,90 507,181 Q507,271 560,323 Q613,375 704,375 Q797,375 900,272 M736,181 Q736,250 703,250 Q672,250 672,181 Q672,111 704,111 Q736,111 736,181 M1314,272 Q1314,90 1261,37.5 Q1208,-15 1117,-15 Q1025,-15 973,37.5 Q921,90 921,181 Q921,271 974,323 Q1027,375 1118,375 Q1211,375 1314,272 M1150,181 Q1150,250 1117,250 Q1086,250 1086,181 Q1086,111 1118,111 Q1150,111 1150,181"/> 
            <glyph glyph-name="‹" unicode="&#x2039;" horiz-adv-x="379" d=" M20,283 Q20,320 48,351 L170,482 L379,482 L196,283 L379,84 L170,84 L48,213 Q20,244 20,283"/> 
            <glyph glyph-name="›" unicode="&#x203A;" horiz-adv-x="369" d=" M369,283 Q369,244 341,213 L219,84 L10,84 L193,283 L10,482 L219,482 L341,351 Q369,320 369,283"/> 
            <glyph glyph-name="⁄" unicode="&#x2044;" horiz-adv-x="816" d=" M816,744 L303,0 L109,0 L623,744"/> 
            <glyph glyph-name="€" unicode="&#x20AC;" horiz-adv-x="564" d=" M447,400 L288,400 L288,349 L447,349 L447,232 L292,232 Q296,195 320.5,175 Q345,155 382,155 Q432,155 499,178 L543,192 L564,34 L516,19 Q440,-7 356,-7 Q243,-7 169.5,55.5 Q96,118 86,232 L22,232 L22,349 L83,349 L83,400 L22,400 L22,517 L86,517 Q97,629 170.5,690 Q244,751 356,751 Q440,751 516,725 L564,710 L543,552 L499,566 Q432,589 382,589 Q345,589 321,570.5 Q297,552 293,517 L447,517"/> 
            <glyph glyph-name="™" unicode="&#x2122;" horiz-adv-x="907" d=" M388,640 L280,640 L280,322 L138,322 L138,640 L30,640 L30,744 L388,744 M781,570 L730,366 Q718,319 660,319 Q601,319 589,366 L540,570 L540,322 L418,322 L418,664 Q418,705 446,727 Q474,749 523,749 Q615,749 632,673 L663,536 L697,673 Q715,749 809,749 Q855,749 881,727.5 Q907,706 907,667 L907,322 L781,322"/> 
            <glyph glyph-name="Ω" unicode="&#x2126;" horiz-adv-x="789" d=" M536,425 Q536,502 503,543.5 Q470,585 407,585 Q345,585 313.5,543.5 Q282,502 282,425 Q282,357 308.5,316 Q335,275 384,267 L384,0 L68,0 L68,147 L257,147 L257,181 Q149,208 89.5,278.5 Q30,349 30,455 Q30,594 134,672 Q238,750 411,750 Q585,750 687,672.5 Q789,595 789,455 Q789,351 730,281 Q671,211 566,183 L566,147 L759,147 L759,0 L439,0 L439,267 Q536,285 536,425"/> 
            <glyph glyph-name="∂" unicode="&#x2202;" horiz-adv-x="564" d=" M354,251 L354,326 Q328,335 302,335 Q265,335 250,312 Q235,289 235,245 Q235,161 294,161 Q354,161 354,251 M23,249 Q23,370 83.5,434 Q144,498 263,498 Q286,498 309,495 Q332,492 343,488 L354,485 L354,514 Q354,580 267,580 Q197,580 120,552 L69,534 L40,699 L96,718 Q190,750 283,750 Q409,750 486.5,688 Q564,626 564,513 L564,254 Q564,133 492.5,64 Q421,-5 294,-5 Q165,-5 94,63.5 Q23,132 23,249"/> 
            <glyph glyph-name="∆" unicode="&#x2206;" horiz-adv-x="720" d=" M720,0 L20,0 L208,647 Q243,751 374,751 Q503,751 537,647 M369,484 L302,177 L436,177"/> 
            <glyph glyph-name="∏" unicode="&#x220F;" horiz-adv-x="712" d=" M712,578 L638,578 L638,0 L414,0 L414,578 L329,578 L329,0 L106,0 L106,578 L30,578 L30,744 L712,744"/> 
            <glyph glyph-name="∑" unicode="&#x2211;" horiz-adv-x="680" d=" M477,284 L270,-15 L504,-15 L504,78 L680,78 L680,-179 L134,-179 Q83,-179 56.5,-150 Q30,-121 30,-73 Q30,-28 67,23 L251,284 L67,542 Q30,593 30,638 Q30,686 56.5,715 Q83,744 134,744 L670,744 L670,487 L494,487 L494,580 L270,580"/> 
            <glyph glyph-name="−" unicode="&#x2212;" horiz-adv-x="517" d=" M517,250 L38,250 L38,397 L517,397"/> 
            <glyph glyph-name="√" unicode="&#x221A;" horiz-adv-x="693" d=" M693,600 L601,600 L462,78 Q438,-12 319,-12 Q202,-12 178,78 L88,410 L11,410 L11,554 L256,554 L323,222 L436,744 L693,744"/> 
            <glyph glyph-name="∞" unicode="&#x221E;" horiz-adv-x="768" d=" M297,229 L306,234 L306,365 L297,370 Q276,382 254,382 Q203,382 203,299 Q203,217 254,217 Q276,217 297,229 M400,472 L432,488 Q501,524 560,524 Q664,524 716,463.5 Q768,403 768,299 Q768,195 716,134.5 Q664,74 560,74 Q501,74 432,110 L400,126 L369,110 Q300,74 241,74 Q137,74 85,134.5 Q33,195 33,299 Q33,403 85,463.5 Q137,524 241,524 Q300,524 369,488 M495,234 L504,229 Q525,217 547,217 Q598,217 598,299 Q598,382 547,382 Q525,382 504,370 L495,365"/> 
            <glyph glyph-name="∫" unicode="&#x222B;" horiz-adv-x="537" d=" M364,556 L364,11 Q364,-181 108,-181 L108,-41 Q140,-40 153.5,-27 Q167,-14 167,14 L167,573 Q167,666 223.5,715.5 Q280,765 381,765 Q453,765 537,738 L515,597 Q462,614 426,614 Q392,614 378,601 Q364,588 364,556"/> 
            <glyph glyph-name="≈" unicode="&#x2248;" horiz-adv-x="578" d=" M386,86 Q330,86 280,117 L249,136 Q226,151 200,151 Q159,151 128,91 L19,156 Q83,295 208,295 Q257,295 312,264 L345,245 Q373,230 394,230 Q443,230 469,292 L578,221 Q514,86 386,86 M378,301 Q322,301 272,332 L241,351 Q218,366 192,366 Q151,366 120,306 L11,371 Q75,510 200,510 Q249,510 304,479 L337,460 Q365,445 386,445 Q435,445 461,507 L570,436 Q506,301 378,301"/> 
            <glyph glyph-name="≠" unicode="&#x2260;" horiz-adv-x="550" d=" M550,134 L285,134 L236,36 L80,36 L129,134 L40,134 L40,270 L198,270 L227,327 L40,327 L40,463 L296,463 L355,578 L509,578 L451,463 L550,463 L550,327 L382,327 L354,270 L550,270"/> 
            <glyph glyph-name="≤" unicode="&#x2264;" horiz-adv-x="550" d=" M550,153 L130,252 Q41,273 41,361 Q41,449 127,470 L550,572 L550,419 L251,361 L550,302 M550,0 L40,0 L40,139 L550,139"/> 
            <glyph glyph-name="≥" unicode="&#x2265;" horiz-adv-x="550" d=" M460,252 L40,153 L40,302 L339,361 L40,419 L40,572 L463,470 Q549,449 549,361 Q549,273 460,252 M550,0 L40,0 L40,139 L550,139"/> 
            <glyph glyph-name="◊" unicode="&#x25CA;" horiz-adv-x="657" d=" M657,371 L434,31 Q407,-11 333,-11 Q301,-11 273,0.5 Q245,12 232,33 L10,371 L232,711 Q261,755 335,755 Q407,755 435,711 M435,372 L335,542 L236,372 L335,201"/> 
            <glyph glyph-name="ﬁ" unicode="&#xFB01;" horiz-adv-x="686" d=" M676,0 L478,0 L478,410 L280,410 L280,0 L83,0 L83,410 L15,410 L15,554 L83,554 L83,579 Q83,672 139,719 Q195,766 297,766 Q369,766 453,739 L431,598 Q378,615 342,615 Q307,615 293.5,604 Q280,593 280,562 L280,554 L676,554 M686,680 Q686,637 657.5,611.5 Q629,586 578,586 Q527,586 498,611.5 Q469,637 469,680 Q469,723 498,748 Q527,773 578,773 Q628,773 657,747.5 Q686,722 686,680"/> 
            <glyph glyph-name="ﬂ" unicode="&#xFB02;" horiz-adv-x="684" d=" M477,744 L684,778 L684,0 L477,0 L477,603 Q415,618 361,618 Q316,618 298,605.5 Q280,593 280,562 L280,554 L426,554 L426,410 L280,410 L280,0 L83,0 L83,410 L15,410 L15,554 L83,554 L83,579 Q83,672 143,720.5 Q203,769 311,769 Q394,769 477,744"/> 
            <glyph glyph-name=" " unicode="&#x20;" horiz-adv-x="247" d=" M39,744 L237,744 L237,258 L39,224 M247,83 Q247,41 218,15.5 Q189,-10 139,-10 Q88,-10 59,15 Q30,40 30,83 Q30,126 59,151.5 Q88,177 139,177 Q190,177 218.5,151.5 Q247,126 247,83"/> 
            <glyph glyph-name="!" unicode="&#x21;" horiz-adv-x="430" d=" M219,763 L203,495 L55,495 L38,763 M430,763 L414,495 L266,495 L249,763"/> 
            <glyph glyph-name="&quot;" unicode="&#x22;" horiz-adv-x="676" d=" M676,554 L654,411 L557,411 L541,324 L638,324 L617,180 L514,180 L481,0 L323,0 L357,180 L268,180 L233,0 L74,0 L109,180 L19,180 L40,324 L136,324 L153,411 L56,411 L77,554 L180,554 L216,744 L374,744 L338,554 L424,554 L460,744 L618,744 L582,554 M399,411 L311,411 L294,324 L383,324"/> 
            <glyph glyph-name="#" unicode="&#x23;" horiz-adv-x="567" d=" M218,-129 L218,-3 Q149,2 97,18 L30,37 L61,229 L127,208 Q217,178 301,178 Q325,178 339.5,190 Q354,202 354,223 Q354,258 309,269 L223,289 Q28,334 28,508 Q28,609 78.5,667.5 Q129,726 218,742 L218,867 L375,867 L375,744 Q440,739 498,722 L565,704 L534,512 L468,534 Q381,563 296,563 Q241,563 241,518 Q241,483 288,472 L372,452 Q567,406 567,236 Q567,136 515.5,75.5 Q464,15 375,-1 L375,-129"/> 
            <glyph glyph-name="$" unicode="&#x24;" horiz-adv-x="900" d=" M423,657 Q423,475 370,422.5 Q317,370 226,370 Q134,370 82,422.5 Q30,475 30,566 Q30,656 83,708 Q136,760 227,760 Q319,760 423,657 M259,566 Q259,635 226,635 Q195,635 195,566 Q195,496 227,496 Q259,496 259,566 M816,744 L303,0 L109,0 L623,744 M900,272 Q900,90 847,37.5 Q794,-15 703,-15 Q611,-15 559,37.5 Q507,90 507,181 Q507,271 560,323 Q613,375 704,375 Q797,375 900,272 M736,181 Q736,250 703,250 Q672,250 672,181 Q672,111 704,111 Q736,111 736,181"/> 
            <glyph glyph-name="%" unicode="&#x25;" horiz-adv-x="753" d=" M554,462 L726,462 L726,399 Q726,237 633,136 L753,0 L516,0 L487,32 Q480,27 467,20 Q454,13 405,1.5 Q356,-10 298,-10 Q174,-10 107,51.5 Q40,113 40,210 Q40,340 157,398 Q100,470 100,552 Q100,650 164.5,703.5 Q229,757 335,757 Q440,757 499.5,707.5 Q559,658 559,568 Q559,436 418,362 L515,261 Q532,279 543,318.5 Q554,358 554,400 M379,561 Q379,585 366.5,599 Q354,613 332,613 Q281,613 281,552 Q281,513 316,472 Q379,503 379,561 M380,152 L263,274 Q239,254 239,212 Q239,179 260,159 Q281,139 315,139 Q334,139 350,142.5 Q366,146 373,149"/> 
            <glyph glyph-name="&amp;" unicode="&#x26;" horiz-adv-x="239" d=" M239,763 L223,495 L55,495 L38,763"/> 
            <glyph glyph-name="'" unicode="&#x27;" horiz-adv-x="365" d=" M40,340 Q40,413 50.5,472.5 Q61,532 78.5,573 Q96,614 121.5,645.5 Q147,677 174.5,695 Q202,713 236,724.5 Q270,736 300,740 Q330,744 365,744 L365,602 Q348,600 334.5,596 Q321,592 302.5,575.5 Q284,559 271.5,533 Q259,507 250,457 Q241,407 241,340 Q241,269 250,217 Q259,165 271.5,138 Q284,111 303,94.5 Q322,78 335,74 Q348,70 365,69 L365,-74 Q320,-74 279.5,-65.5 Q239,-57 193.5,-30 Q148,-3 115.5,41 Q83,85 61.5,161.5 Q40,238 40,340"/> 
            <glyph glyph-name="(" unicode="&#x28;" horiz-adv-x="365" d=" M365,340 Q365,238 343.5,161.5 Q322,85 289.5,41 Q257,-3 211.5,-30 Q166,-57 125.5,-65.5 Q85,-74 40,-74 L40,69 Q57,70 70,74 Q83,78 102,94.5 Q121,111 133.5,138 Q146,165 155,217 Q164,269 164,340 Q164,407 155,457 Q146,507 133.5,533 Q121,559 102.5,575.5 Q84,592 70.5,596 Q57,600 40,602 L40,744 Q75,744 105,740 Q135,736 169,724.5 Q203,713 230.5,695 Q258,677 283.5,645.5 Q309,614 326.5,573 Q344,532 354.5,472.5 Q365,413 365,340"/> 
            <glyph glyph-name=")" unicode="&#x29;" horiz-adv-x="529" d=" M529,526 L392,494 L482,390 L333,292 L276,401 L217,293 L70,391 L159,495 L22,527 L73,689 L192,639 L182,762 L369,762 L359,638 L478,687"/> 
            <glyph glyph-name="*" unicode="&#x2A;" horiz-adv-x="550" d=" M550,220 L377,220 L377,35 L208,35 L208,220 L40,220 L40,366 L208,366 L208,552 L377,552 L377,366 L550,366"/> 
            <glyph glyph-name="+" unicode="&#x2B;" horiz-adv-x="259" d=" M259,175 L199,-29 Q181,-91 104,-91 Q52,-91 30.5,-63.5 Q9,-36 19,5 L57,175"/> 
            <glyph glyph-name="," unicode="&#x2C;" horiz-adv-x="413" d=" M413,250 L30,250 L30,398 L413,398"/> 
            <glyph glyph-name="-" unicode="&#x2D;" horiz-adv-x="247" d=" M247,134 Q247,44 218.5,17 Q190,-10 139,-10 Q88,-10 59,17 Q30,44 30,89 Q30,134 59,160.5 Q88,187 139,187 Q189,187 247,134"/> 
            <glyph glyph-name="." unicode="&#x2E;" horiz-adv-x="443" d=" M443,744 L179,0 L5,0 L276,744"/> 
            <glyph glyph-name="/" unicode="&#x2F;" horiz-adv-x="557" d=" M348,230 L348,513 Q348,584 295,584 Q242,584 242,513 L242,230 Q242,159 295,159 Q348,159 348,230 M557,506 L557,239 Q557,119 490,55 Q423,-9 297,-9 Q169,-9 101,54.5 Q33,118 33,237 L33,504 Q33,623 100,687.5 Q167,752 293,752 Q421,752 489,688.5 Q557,625 557,506"/> 
            <glyph glyph-name="0" unicode="&#x30;" horiz-adv-x="569" d=" M423,637 L423,160 L569,160 L569,0 L27,0 L27,160 L207,160 L207,576 L196,576 Q174,576 138,567.5 Q102,559 82,545 L54,705 Q133,744 240,744 L308,744 Q363,744 393,715.5 Q423,687 423,637"/> 
            <glyph glyph-name="1" unicode="&#x31;" horiz-adv-x="550" d=" M54,176 L249,354 Q299,401 318,430.5 Q337,460 337,502 Q337,540 314,560.5 Q291,581 247,581 Q184,581 105,552 L54,534 L29,699 L85,718 Q182,751 282,751 Q408,751 479,692 Q550,633 550,514 Q550,448 519.5,389 Q489,330 417,261 L301,157 L550,157 L550,0 L113,0 Q68,0 45,25.5 Q22,51 22,93 Q22,147 54,176"/> 
            <glyph glyph-name="2" unicode="&#x32;" horiz-adv-x="565" d=" M565,211 Q565,101 490.5,47 Q416,-7 280,-7 Q175,-7 73,27 L15,46 L42,209 L99,190 Q186,159 262,159 Q354,159 354,223 Q354,255 333,279 L318,297 L167,297 L167,448 L311,448 L324,463 Q343,485 343,516 Q343,581 254,581 Q188,581 109,552 L58,534 L33,699 L89,718 Q186,751 286,751 Q553,751 553,539 Q553,466 499,398 L483,378 L499,362 Q565,296 565,211"/> 
            <glyph glyph-name="3" unicode="&#x33;" horiz-adv-x="581" d=" M317,110 L98,110 Q53,110 30,135.5 Q7,161 7,203 Q7,238 33,286 L256,675 Q299,752 392,752 Q521,752 521,637 L521,267 L581,267 L581,110 L521,110 L521,0 L317,0 M317,267 L317,431 L229,267"/> 
            <glyph glyph-name="4" unicode="&#x34;" horiz-adv-x="569" d=" M118,313 L63,298 L63,744 L543,744 L543,574 L234,574 L234,485 Q279,498 331,498 Q569,498 569,251 Q569,122 496,57.5 Q423,-7 287,-7 Q185,-7 86,26 L28,45 L55,207 L111,189 Q201,159 268,159 Q359,159 359,249 Q359,340 268,340 Q219,340 118,313"/> 
            <glyph glyph-name="5" unicode="&#x35;" horiz-adv-x="570" d=" M239,326 L239,251 Q239,161 299,161 Q358,161 358,245 Q358,289 343,312 Q328,335 291,335 Q279,335 266,332.5 Q253,330 246,328 M570,258 Q570,139 498,67 Q426,-5 296,-5 Q169,-5 99,64.5 Q29,134 29,254 L29,513 Q29,626 106.5,688 Q184,750 310,750 Q403,750 497,718 L553,699 L524,534 L473,552 Q396,580 326,580 Q239,580 239,514 L239,485 Q283,498 335,498 Q570,498 570,258"/> 
            <glyph glyph-name="6" unicode="&#x36;" horiz-adv-x="570" d=" M338,574 L33,574 L33,744 L469,744 Q570,744 570,646 Q570,607 547,549 L326,0 L94,0"/> 
            <glyph glyph-name="7" unicode="&#x37;" horiz-adv-x="569" d=" M426,-7 Q168,-7 95,48.5 Q22,104 22,211 Q22,297 86,362 L102,378 L86,398 Q38,460 38,541 Q38,643 108,697.5 Q178,752 296,752 Q413,752 483,697.5 Q553,643 553,541 Q553,460 505,398 L489,378 L505,362 Q569,297 569,211 Q569,104 426,-7 M296,149 Q328,149 346.5,167.5 Q365,186 365,216 Q365,250 342,277 L327,295 L264,295 L249,277 Q227,249 227,216 Q227,186 245,167.5 Q263,149 296,149 M296,589 Q268,589 250.5,570.5 Q233,552 233,523 Q233,497 256,464 L267,448 L325,448 L336,464 Q359,497 359,523 Q359,553 342,571 Q325,589 296,589"/> 
            <glyph glyph-name="8" unicode="&#x38;" horiz-adv-x="561" d=" M351,419 L351,494 Q351,584 291,584 Q232,584 232,500 Q232,456 247,433 Q262,410 299,410 Q311,410 324,412 Q337,414 344,416 M20,487 Q20,606 92,678 Q164,750 294,750 Q421,750 491,680.5 Q561,611 561,491 L561,232 Q561,119 483.5,57 Q406,-5 280,-5 Q187,-5 93,27 L37,46 L66,211 L117,193 Q194,165 264,165 Q351,165 351,231 L351,260 Q307,247 255,247 Q20,247 20,487"/> 
            <glyph glyph-name="9" unicode="&#x39;" horiz-adv-x="247" d=" M247,134 Q247,44 218.5,17 Q190,-10 139,-10 Q88,-10 59,17 Q30,44 30,89 Q30,134 59,160.5 Q88,187 139,187 Q189,187 247,134 M247,501 Q247,411 218.5,384 Q190,357 139,357 Q88,357 59,384 Q30,411 30,456 Q30,501 59,527.5 Q88,554 139,554 Q189,554 247,501"/> 
            <glyph glyph-name=":" unicode="&#x3A;" horiz-adv-x="259" d=" M259,175 L199,-29 Q181,-91 104,-91 Q52,-91 30.5,-63.5 Q9,-36 19,5 L57,175 M247,501 Q247,411 218.5,384 Q190,357 139,357 Q88,357 59,384 Q30,411 30,456 Q30,501 59,527.5 Q88,554 139,554 Q189,554 247,501"/> 
            <glyph glyph-name=";" unicode="&#x3B;" horiz-adv-x="550" d=" M550,29 L132,166 Q40,195 40,296 Q40,398 129,426 L550,567 L550,371 L244,296 L550,220"/> 
            <glyph glyph-name="&lt;" unicode="&#x3C;" horiz-adv-x="550" d=" M550,134 L40,134 L40,273 L550,273 M550,324 L40,324 L40,463 L550,463"/> 
            <glyph glyph-name="=" unicode="&#x3D;" horiz-adv-x="550" d=" M458,166 L40,29 L40,220 L346,296 L40,371 L40,567 L461,426 Q550,398 550,296 Q550,195 458,166"/> 
            <glyph glyph-name="&gt;" unicode="&#x3E;" horiz-adv-x="455" d=" M118,224 L118,293 Q118,330 126,354.5 Q134,379 159,402 L224,465 Q245,487 252,501 Q259,515 259,540 Q259,583 204,583 Q166,583 108,567 L45,549 L20,708 L74,723 Q157,746 231,746 Q336,746 395.5,695 Q455,644 455,554 Q455,454 372,377 L313,323 L312,258 M323,83 Q323,41 294,15.5 Q265,-10 215,-10 Q164,-10 135,15 Q106,40 106,83 Q106,126 135,151.5 Q164,177 215,177 Q266,177 294.5,151.5 Q323,126 323,83"/> 
            <glyph glyph-name="?" unicode="&#x3F;" horiz-adv-x="855" d=" M659,572 L616,264 Q628,258 640,258 Q680,258 707,298.5 Q734,339 734,410 Q734,519 672.5,579.5 Q611,640 488,640 Q364,640 284.5,556 Q205,472 205,348 Q205,236 266.5,167 Q328,98 438,98 Q474,98 545,116 Q616,134 653,134 Q690,134 725,116 L792,77 L747,-14 L679,17 Q665,23 646,23 Q625,23 560.5,6 Q496,-11 434,-11 Q269,-11 174.5,90 Q80,191 80,348 Q80,520 197.5,636.5 Q315,753 488,753 Q654,753 754.5,659.5 Q855,566 855,409 Q855,298 790.5,231 Q726,164 636,164 Q613,164 586,170.5 Q559,177 545,177 Q529,177 492.5,169.5 Q456,162 427,162 Q339,162 295.5,207.5 Q252,253 252,336 Q252,425 311.5,489.5 Q371,554 472,554 L522,551 L525,572 M441,267 Q450,267 460.5,268.5 Q471,270 477,272 L483,274 L508,448 Q491,451 471,451 Q434,451 414,417.5 Q394,384 394,334 Q394,267 441,267"/> 
            <glyph glyph-name="@" unicode="&#x40;" horiz-adv-x="747" d=" M747,0 L496,0 L470,105 L281,105 L254,0 L5,0 L212,644 Q247,753 383,753 Q518,753 551,645 M378,503 L323,279 L430,279"/> 
            <glyph glyph-name="A" unicode="&#x41;" horiz-adv-x="687" d=" M425,0 L155,0 Q100,0 70,28.5 Q40,57 40,107 L40,637 Q40,687 70,715.5 Q100,744 155,744 L423,744 Q664,744 664,542 Q664,467 611,401 L595,381 L611,366 Q687,295 687,207 Q687,107 621.5,53.5 Q556,0 425,0 M430,527 Q430,549 416,562.5 Q402,576 375,576 L285,576 L285,456 L399,456 L416,481 Q430,504 430,527 M403,291 L285,291 L285,169 L385,169 Q444,169 444,220 Q444,245 426,266"/> 
            <glyph glyph-name="B" unicode="&#x42;" horiz-adv-x="673" d=" M646,244 L673,48 L609,28 Q507,-7 393,-7 Q226,-7 128,91.5 Q30,190 30,373 Q30,555 129.5,653 Q229,751 395,751 Q507,751 609,716 L673,696 L646,502 L581,523 Q512,547 430,547 Q289,547 289,373 Q289,199 430,199 Q512,199 581,223"/> 
            <glyph glyph-name="C" unicode="&#x43;" horiz-adv-x="718" d=" M348,0 L155,0 Q100,0 70,28.5 Q40,57 40,107 L40,637 Q40,687 70,715.5 Q100,744 155,744 L350,744 Q521,744 619.5,644.5 Q718,545 718,370 Q718,195 618,97.5 Q518,0 348,0 M472,279 Q472,461 437,511 Q402,561 339,561 L290,561 L290,185 L345,185 Q406,185 472,279"/> 
            <glyph glyph-name="D" unicode="&#x44;" horiz-adv-x="610" d=" M610,0 L155,0 Q100,0 70,28.5 Q40,57 40,107 L40,637 Q40,687 70,715.5 Q100,744 155,744 L608,744 L608,567 L290,567 L290,463 L567,463 L567,293 L290,293 L290,177 L610,177"/> 
            <glyph glyph-name="E" unicode="&#x45;" horiz-adv-x="599" d=" M291,0 L40,0 L40,637 Q40,687 70,715.5 Q100,744 155,744 L599,744 L599,564 L291,564 L291,448 L571,448 L571,277 L291,277"/> 
            <glyph glyph-name="F" unicode="&#x46;" horiz-adv-x="713" d=" M713,319 L713,146 Q713,96 689.5,68.5 Q666,41 615,26 Q502,-6 400,-6 Q228,-6 129,93 Q30,192 30,373 Q30,553 132,652 Q234,751 405,751 Q517,751 633,715 L700,695 L670,499 L602,520 Q513,547 434,547 Q357,547 316,500.5 Q275,454 275,366 Q275,170 433,170 L485,173 L485,261 L366,261 L366,426 L598,426 Q653,426 683,397.5 Q713,369 713,319"/> 
            <glyph glyph-name="G" unicode="&#x47;" horiz-adv-x="692" d=" M692,0 L441,0 L441,288 L291,288 L291,0 L40,0 L40,744 L291,744 L291,466 L441,466 L441,744 L692,744"/> 
            <glyph glyph-name="H" unicode="&#x48;" horiz-adv-x="294" d=" M294,0 L40,0 L40,744 L294,744"/> 
            <glyph glyph-name="I" unicode="&#x49;" horiz-adv-x="483" d=" M483,744 L483,245 Q483,126 412,63 Q341,0 214,0 Q127,0 20,34 L48,214 Q118,192 157,192 Q197,192 214.5,209 Q232,226 232,266 L232,744"/> 
            <glyph glyph-name="J" unicode="&#x4A;" horiz-adv-x="731" d=" M457,0 L355,285 L326,247 Q305,220 295.5,197.5 Q286,175 286,138 L286,0 L40,0 L40,744 L287,744 L286,500 L457,744 L731,744 L535,485 L722,0"/> 
            <glyph glyph-name="K" unicode="&#x4B;" horiz-adv-x="589" d=" M40,744 L293,744 L293,197 L589,197 L589,0 L155,0 Q100,0 70,28.5 Q40,57 40,107"/> 
            <glyph glyph-name="L" unicode="&#x4C;" horiz-adv-x="900" d=" M678,437 L588,78 Q567,-6 465,-6 Q360,-6 341,78 L254,437 L254,0 L40,0 L40,602 Q40,673 89,712 Q138,751 224,751 Q387,751 417,618 L471,376 L531,618 Q562,751 727,751 Q809,751 854.5,713 Q900,675 900,606 L900,0 L678,0"/> 
            <glyph glyph-name="M" unicode="&#x4D;" horiz-adv-x="729" d=" M401,613 L515,339 L515,744 L729,744 L729,142 Q729,70 682.5,31.5 Q636,-7 551,-7 Q472,-7 434.5,26.5 Q397,60 368,131 L254,405 L254,0 L40,0 L40,602 Q40,674 86.5,712.5 Q133,751 218,751 Q297,751 334.5,717.5 Q372,684 401,613"/> 
            <glyph glyph-name="N" unicode="&#x4E;" horiz-adv-x="789" d=" M789,371 Q789,191 685,92 Q581,-7 407,-7 Q234,-7 132,92.5 Q30,192 30,371 Q30,549 134,649.5 Q238,750 411,750 Q585,750 687,650 Q789,550 789,371 M536,371 Q536,469 503,522.5 Q470,576 407,576 Q345,576 313.5,523 Q282,470 282,371 Q282,272 315,219 Q348,166 411,166 Q472,166 504,219 Q536,272 536,371"/> 
            <glyph glyph-name="O" unicode="&#x4F;" horiz-adv-x="654" d=" M40,0 L40,637 Q40,687 70,715.5 Q100,744 155,744 L389,744 Q512,744 583,676.5 Q654,609 654,493 Q654,376 580.5,308.5 Q507,241 380,241 L286,241 L286,0 M428,493 Q428,528 408.5,548.5 Q389,569 356,569 L286,569 L286,417 L354,417 Q388,417 408,437 Q428,457 428,493"/> 
            <glyph glyph-name="P" unicode="&#x50;" horiz-adv-x="786" d=" M786,375 Q786,278 746,206 Q706,134 647,98 Q696,82 750,82 L782,82 L782,-90 L728,-90 Q663,-90 608.5,-67.5 Q554,-45 506,-22.5 Q458,0 411,0 Q240,0 135,94.5 Q30,189 30,370 Q30,548 133.5,649 Q237,750 410,750 Q584,750 685,651.5 Q786,553 786,375 M536,371 Q536,469 503,522.5 Q470,576 407,576 Q345,576 313.5,523 Q282,470 282,371 Q282,272 315,219 Q348,166 411,166 Q472,166 504,219 Q536,272 536,371"/> 
            <glyph glyph-name="Q" unicode="&#x51;" horiz-adv-x="717" d=" M40,0 L40,637 Q40,687 70,715.5 Q100,744 155,744 L428,744 Q549,744 617.5,683.5 Q686,623 686,514 Q686,420 615,344 L588,314 L717,0 L455,0 L366,245 L290,245 L290,0 M447,506 Q447,572 379,572 L290,572 L290,417 L403,417 L423,444 Q447,475 447,506"/> 
            <glyph glyph-name="R" unicode="&#x52;" horiz-adv-x="639" d=" M316,472 L431,450 Q536,430 587,379.5 Q638,329 638,236 Q638,117 558,54 Q478,-9 346,-9 Q212,-9 106,25 L30,50 L65,251 L140,224 Q256,182 345,182 Q405,182 405,225 Q405,259 354,269 L238,291 Q134,312 82.5,363 Q31,414 31,508 Q31,628 109,689 Q187,750 323,750 Q451,750 564,715 L639,691 L602,487 L527,516 Q416,559 325,559 Q265,559 265,516 Q265,481 316,472"/> 
            <glyph glyph-name="S" unicode="&#x53;" horiz-adv-x="661" d=" M661,560 L471,560 L471,0 L220,0 L220,560 L30,560 L30,744 L661,744"/> 
            <glyph glyph-name="T" unicode="&#x54;" horiz-adv-x="702" d=" M702,281 Q702,141 616,64.5 Q530,-12 367,-12 Q205,-12 120,64 Q35,140 35,281 L35,744 L287,744 L287,282 Q287,191 368,191 Q450,191 450,282 L450,744 L702,744"/> 
            <glyph glyph-name="U" unicode="&#x55;" horiz-adv-x="733" d=" M5,744 L256,744 L367,265 L484,744 L733,744 L528,97 Q493,-7 362,-7 Q233,-7 199,97"/> 
            <glyph glyph-name="V" unicode="&#x56;" horiz-adv-x="1009" d=" M299,267 L390,667 Q398,704 430.5,724 Q463,744 512,744 Q560,744 592,724 Q624,704 632,667 L720,267 L774,744 L1009,744 L888,103 Q863,-10 732,-10 Q596,-10 569,95 L507,366 L443,95 Q416,-10 281,-10 Q149,-10 125,103 L5,744 L246,744"/> 
            <glyph glyph-name="W" unicode="&#x57;" horiz-adv-x="759" d=" M759,0 L489,0 L384,215 L276,0 L10,0 L232,374 L16,744 L286,744 L385,541 L480,744 L748,744 L540,380"/> 
            <glyph glyph-name="X" unicode="&#x58;" horiz-adv-x="771" d=" M263,294 L5,744 L275,744 L392,505 L503,744 L771,744 L514,295 L514,0 L263,0"/> 
            <glyph glyph-name="Y" unicode="&#x59;" horiz-adv-x="659" d=" M346,565 L50,565 L50,744 L553,744 Q606,744 632.5,714.5 Q659,685 659,636 Q659,586 622,539 L341,179 L651,179 L651,0 L131,0 Q79,0 52,29.5 Q25,59 25,108 Q25,158 62,205"/> 
            <glyph glyph-name="Z" unicode="&#x5A;" horiz-adv-x="365" d=" M70,-65 L70,744 L365,744 L365,602 L252,602 L252,77 L365,77 L365,-65"/> 
            <glyph glyph-name="[" unicode="&#x5B;" horiz-adv-x="443" d=" M269,0 L5,744 L172,744 L443,0"/> 
            <glyph glyph-name="\" unicode="&#x5C;" horiz-adv-x="335" d=" M335,744 L335,-65 L40,-65 L40,77 L153,77 L153,602 L40,602 L40,744"/> 
            <glyph glyph-name="]" unicode="&#x5D;" horiz-adv-x="564" d=" M26,43 L163,461 Q192,553 293,553 Q395,553 423,464 L564,43 L368,43 L293,349 L217,43"/> 
            <glyph glyph-name="^" unicode="&#x5E;" horiz-adv-x="502" d=" M502,-186 L-2,-186 L-2,-62 L502,-62"/> 
            <glyph glyph-name="_" unicode="&#x5F;" horiz-adv-x="430" d=" M280,620 L89,763 L335,763 L403,703 Q430,678 430,646 Q430,622 413,605.5 Q396,589 364,589 Q321,589 280,620"/> 
            <glyph glyph-name="`" unicode="&#x60;" horiz-adv-x="601" d=" M357,145 L357,218 L288,218 Q226,218 226,171 Q226,129 277,129 Q302,129 332,138 M132,378 L69,357 L47,506 L110,526 Q221,561 315,561 Q546,561 546,366 L546,143 L601,109 L528,-16 L478,10 Q444,28 395,18 L372,13 Q285,-6 236,-6 Q140,-6 85,39.5 Q30,85 30,165 Q30,344 281,344 L355,344 L355,355 Q355,405 289,405 Q212,405 132,378"/> 
            <glyph glyph-name="a" unicode="&#x61;" horiz-adv-x="574" d=" M376,276 Q376,342 356.5,371.5 Q337,401 295,401 Q272,401 242,391 L242,152 Q268,147 288,147 Q376,147 376,276 M332,557 Q458,557 516,487 Q574,417 574,280 Q574,147 500.5,70.5 Q427,-6 296,-6 Q194,-6 116,21 Q74,35 57,57.5 Q40,80 40,121 L40,743 L242,778 L242,543 Q291,557 332,557"/> 
            <glyph glyph-name="b" unicode="&#x62;" horiz-adv-x="511" d=" M235,277 Q235,155 329,155 Q379,155 446,178 L490,192 L511,34 L463,19 Q387,-7 303,-7 Q179,-7 104.5,67 Q30,141 30,277 Q30,413 104.5,486.5 Q179,560 303,560 Q387,560 463,534 L511,519 L490,361 L446,375 Q379,398 329,398 Q235,398 235,277"/> 
            <glyph glyph-name="c" unicode="&#x63;" horiz-adv-x="564" d=" M228,276 Q228,147 316,147 Q336,147 362,152 L362,391 Q332,401 309,401 Q267,401 247.5,371.5 Q228,342 228,276 M564,778 L564,121 Q564,80 547,57.5 Q530,35 488,21 Q410,-6 308,-6 Q177,-6 103.5,68 Q30,142 30,274 Q30,410 92,483.5 Q154,557 278,557 Q296,557 317,553.5 Q338,550 350,546 L362,543 L362,743"/> 
            <glyph glyph-name="d" unicode="&#x64;" horiz-adv-x="561" d=" M30,276 Q30,415 107,488 Q184,561 302,561 Q425,561 493,493.5 Q561,426 561,290 Q561,252 543.5,235.5 Q526,219 487,219 L224,219 Q237,147 333,147 Q409,147 481,169 L533,185 L554,43 L501,26 Q399,-6 316,-6 Q182,-6 106,66.5 Q30,139 30,276 M368,342 Q368,378 350,401 Q332,424 295,424 Q263,424 244.5,402.5 Q226,381 223,342"/> 
            <glyph glyph-name="e" unicode="&#x65;" horiz-adv-x="453" d=" M453,738 L431,597 Q378,614 342,614 Q307,614 293.5,603.5 Q280,593 280,562 L280,554 L426,554 L426,410 L280,410 L280,0 L83,0 L83,410 L15,410 L15,554 L83,554 L83,579 Q83,672 139,718.5 Q195,765 297,765 Q369,765 453,738"/> 
            <glyph glyph-name="f" unicode="&#x66;" horiz-adv-x="607" d=" M364,371 Q364,423 290,423 Q217,423 217,371 Q217,316 290,316 Q364,316 364,371 M420,-6 Q420,26 375,26 L217,26 Q209,10 209,-8 Q209,-34 232.5,-44 Q256,-54 310,-54 Q420,-54 420,-6 M32,-11 Q32,45 69,93 L110,147 Q127,170 127,192 Q127,218 101,239 Q30,295 30,370 Q30,461 97.5,505.5 Q165,550 285,550 L337,550 Q388,550 432,563 L574,605 L607,465 L528,444 Q552,419 552,370 Q552,286 487,244.5 Q422,203 304,203 L273,205 Q277,194 277,182 Q277,174 274.5,167 Q272,160 270,156 L268,153 L392,153 Q595,153 595,3 Q595,-84 522,-130.5 Q449,-177 308,-177 Q178,-177 105,-136.5 Q32,-96 32,-11"/> 
            <glyph glyph-name="g" unicode="&#x67;" horiz-adv-x="549" d=" M245,380 L245,0 L40,0 L40,743 L245,778 L245,543 Q292,557 339,557 Q454,557 501.5,505 Q549,453 549,360 L549,0 L348,0 L348,342 Q348,390 300,390 Q276,390 245,380"/> 
            <glyph glyph-name="h" unicode="&#x68;" horiz-adv-x="247" d=" M237,0 L39,0 L39,554 L237,554 M247,680 Q247,637 218.5,611.5 Q190,586 139,586 Q88,586 59,611.5 Q30,637 30,680 Q30,723 59,748 Q88,773 139,773 Q189,773 218,747.5 Q247,722 247,680"/> 
            <glyph glyph-name="i" unicode="&#x69;" horiz-adv-x="252" d=" M242,554 L242,11 Q242,-181 -15,-181 L-15,-41 Q17,-40 30.5,-27 Q44,-14 44,14 L44,554 M252,680 Q252,637 223.5,611.5 Q195,586 144,586 Q93,586 64,611.5 Q35,637 35,680 Q35,723 64,748 Q93,773 144,773 Q194,773 223,747.5 Q252,722 252,680"/> 
            <glyph glyph-name="j" unicode="&#x6A;" horiz-adv-x="598" d=" M370,0 L299,200 L274,167 Q240,123 240,74 L240,0 L40,0 L40,743 L240,778 L240,385 L362,554 L598,554 L455,372 L598,0"/> 
            <glyph glyph-name="k" unicode="&#x6B;" horiz-adv-x="247" d=" M247,778 L247,0 L40,0 L40,743"/> 
            <glyph glyph-name="l" unicode="&#x6C;" horiz-adv-x="839" d=" M839,363 L839,0 L640,0 L640,345 Q640,393 594,393 Q578,393 563.5,390.5 Q549,388 542,385 L535,382 Q539,371 539,352 L539,0 L340,0 L340,345 Q340,393 294,393 Q272,393 241,383 L241,0 L40,0 L40,432 Q40,474 60,497.5 Q80,521 122,533 Q214,560 300,560 Q403,560 454,525 Q533,560 616,560 Q839,560 839,363"/> 
            <glyph glyph-name="m" unicode="&#x6D;" horiz-adv-x="549" d=" M549,363 L549,0 L348,0 L348,345 Q348,393 300,393 Q276,393 245,383 L245,0 L40,0 L40,432 Q40,474 60,497.5 Q80,521 122,533 Q214,560 305,560 Q430,560 489.5,508 Q549,456 549,363"/> 
            <glyph glyph-name="n" unicode="&#x6E;" horiz-adv-x="594" d=" M594,277 Q594,143 518.5,68.5 Q443,-6 311,-6 Q178,-6 104,68 Q30,142 30,277 Q30,411 106,485.5 Q182,560 314,560 Q446,560 520,486 Q594,412 594,277 M391,135 Q391,419 311,419 Q235,419 235,277 Q235,135 314,135"/> 
            <glyph glyph-name="o" unicode="&#x6F;" horiz-adv-x="574" d=" M376,278 Q376,405 288,405 Q268,405 242,400 L242,163 Q272,153 295,153 Q337,153 356.5,182.5 Q376,212 376,278 M40,-186 L40,433 Q40,474 57,496.5 Q74,519 116,533 Q194,560 296,560 Q427,560 500.5,486 Q574,412 574,280 Q574,144 512,70.5 Q450,-3 326,-3 Q308,-3 287,0.5 Q266,4 254,8 L242,11 L242,-151"/> 
            <glyph glyph-name="p" unicode="&#x70;" horiz-adv-x="564" d=" M228,278 Q228,212 247.5,182.5 Q267,153 309,153 Q332,153 362,163 L362,400 Q336,405 316,405 Q228,405 228,278 M272,-3 Q146,-3 88,67 Q30,137 30,274 Q30,407 103.5,483.5 Q177,560 308,560 Q410,560 488,533 Q530,519 547,496.5 Q564,474 564,433 L564,-154 L362,-189 L362,11 Q313,-3 272,-3"/> 
            <glyph glyph-name="q" unicode="&#x71;" horiz-adv-x="391" d=" M40,0 L40,429 Q40,471 60,495 Q80,519 122,531 Q219,558 391,558 L391,401 Q291,401 238,385 L238,0"/> 
            </font>
</defs>
</svg>
